  0
SECTION
  2
BLOCKS
  0
ENDSEC
  0
SECTION
  2
ENTITIES
  0
LINE
  8
0
 10
10.0693
 20
0.000976562
 11
10.1396
 21
0.00488281
  0
LINE
  8
0
 10
10.1396
 20
0.00488281
 11
10.1738
 21
0.0078125
  0
LINE
  8
0
 10
10.1738
 20
0.0078125
 11
10.209
 21
0.0107422
  0
LINE
  8
0
 10
10.209
 20
0.0107422
 11
10.2441
 21
0.0146484
  0
LINE
  8
0
 10
10.2441
 20
0.0146484
 11
10.3125
 21
0.0244141
  0
LINE
  8
0
 10
10.3125
 20
0.0244141
 11
10.3477
 21
0.0302734
  0
LINE
  8
0
 10
10.3477
 20
0.0302734
 11
10.4502
 21
0.0507812
  0
LINE
  8
0
 10
10.4502
 20
0.0507812
 11
10.4834
 21
0.0595703
  0
LINE
  8
0
 10
10.4834
 20
0.0595703
 11
10.5518
 21
0.0771484
  0
LINE
  8
0
 10
10.5518
 20
0.0771484
 11
10.585
 21
0.0869141
  0
LINE
  8
0
 10
10.585
 20
0.0869141
 11
10.6182
 21
0.0976562
  0
LINE
  8
0
 10
10.6182
 20
0.0976562
 11
10.6514
 21
0.109375
  0
LINE
  8
0
 10
10.6514
 20
0.109375
 11
10.6836
 21
0.121094
  0
LINE
  8
0
 10
10.6836
 20
0.121094
 11
10.7168
 21
0.132812
  0
LINE
  8
0
 10
10.7168
 20
0.132812
 11
10.749
 21
0.145508
  0
LINE
  8
0
 10
10.749
 20
0.145508
 11
10.8135
 21
0.172852
  0
LINE
  8
0
 10
10.8135
 20
0.172852
 11
10.8457
 21
0.1875
  0
LINE
  8
0
 10
10.8457
 20
0.1875
 11
10.877
 21
0.202148
  0
LINE
  8
0
 10
10.877
 20
0.202148
 11
10.9082
 21
0.217773
  0
LINE
  8
0
 10
10.9082
 20
0.217773
 11
10.9385
 21
0.234375
  0
LINE
  8
0
 10
10.9385
 20
0.234375
 11
10.9697
 21
0.250977
  0
LINE
  8
0
 10
10.9697
 20
0.250977
 11
11
 21
0.267578
  0
LINE
  8
0
 10
11
 20
0.267578
 11
11.0303
 21
0.286133
  0
LINE
  8
0
 10
11.0303
 20
0.286133
 11
11.0596
 21
0.303711
  0
LINE
  8
0
 10
11.0596
 20
0.303711
 11
11.0889
 21
0.322266
  0
LINE
  8
0
 10
11.0889
 20
0.322266
 11
11.1475
 21
0.361328
  0
LINE
  8
0
 10
11.1475
 20
0.361328
 11
11.2041
 21
0.402344
  0
LINE
  8
0
 10
11.2041
 20
0.402344
 11
11.2588
 21
0.445312
  0
LINE
  8
0
 10
11.2588
 20
0.445312
 11
11.2852
 21
0.467773
  0
LINE
  8
0
 10
11.2852
 20
0.467773
 11
11.3125
 21
0.490234
  0
LINE
  8
0
 10
11.3125
 20
0.490234
 11
11.3379
 21
0.513672
  0
LINE
  8
0
 10
11.3379
 20
0.513672
 11
11.3643
 21
0.537109
  0
LINE
  8
0
 10
11.3643
 20
0.537109
 11
11.3896
 21
0.561523
  0
LINE
  8
0
 10
11.3896
 20
0.561523
 11
11.4385
 21
0.610352
  0
LINE
  8
0
 10
11.4385
 20
0.610352
 11
11.4629
 21
0.635742
  0
LINE
  8
0
 10
11.4629
 20
0.635742
 11
11.4863
 21
0.662109
  0
LINE
  8
0
 10
11.4863
 20
0.662109
 11
11.5098
 21
0.6875
  0
LINE
  8
0
 10
11.5098
 20
0.6875
 11
11.5322
 21
0.714844
  0
LINE
  8
0
 10
11.5322
 20
0.714844
 11
11.5547
 21
0.741211
  0
LINE
  8
0
 10
11.5547
 20
0.741211
 11
11.5977
 21
0.795898
  0
LINE
  8
0
 10
11.5977
 20
0.795898
 11
11.6387
 21
0.852539
  0
LINE
  8
0
 10
11.6387
 20
0.852539
 11
11.6777
 21
0.911133
  0
LINE
  8
0
 10
11.6777
 20
0.911133
 11
11.6963
 21
0.94043
  0
LINE
  8
0
 10
11.6963
 20
0.94043
 11
11.7139
 21
0.969727
  0
LINE
  8
0
 10
11.7139
 20
0.969727
 11
11.7324
 21
1
  0
LINE
  8
0
 10
11.7324
 20
1
 11
11.749
 21
1.03027
  0
LINE
  8
0
 10
11.749
 20
1.03027
 11
11.7656
 21
1.06152
  0
LINE
  8
0
 10
11.7656
 20
1.06152
 11
11.7822
 21
1.0918
  0
LINE
  8
0
 10
11.7822
 20
1.0918
 11
11.7979
 21
1.12305
  0
LINE
  8
0
 10
11.7979
 20
1.12305
 11
11.8125
 21
1.1543
  0
LINE
  8
0
 10
11.8125
 20
1.1543
 11
11.8271
 21
1.18652
  0
LINE
  8
0
 10
11.8271
 20
1.18652
 11
11.8545
 21
1.25098
  0
LINE
  8
0
 10
11.8545
 20
1.25098
 11
11.8672
 21
1.2832
  0
LINE
  8
0
 10
11.8672
 20
1.2832
 11
11.8789
 21
1.31641
  0
LINE
  8
0
 10
11.8789
 20
1.31641
 11
11.8906
 21
1.34863
  0
LINE
  8
0
 10
11.8906
 20
1.34863
 11
11.9023
 21
1.38184
  0
LINE
  8
0
 10
11.9023
 20
1.38184
 11
11.9131
 21
1.41504
  0
LINE
  8
0
 10
11.9131
 20
1.41504
 11
11.9229
 21
1.44824
  0
LINE
  8
0
 10
11.9229
 20
1.44824
 11
11.9404
 21
1.5166
  0
LINE
  8
0
 10
11.9404
 20
1.5166
 11
11.9492
 21
1.5498
  0
LINE
  8
0
 10
11.9492
 20
1.5498
 11
11.9697
 21
1.65234
  0
LINE
  8
0
 10
11.9697
 20
1.65234
 11
11.9756
 21
1.6875
  0
LINE
  8
0
 10
11.9756
 20
1.6875
 11
11.9854
 21
1.75586
  0
LINE
  8
0
 10
11.9854
 20
1.75586
 11
11.9893
 21
1.79102
  0
LINE
  8
0
 10
11.9893
 20
1.79102
 11
11.9922
 21
1.82617
  0
LINE
  8
0
 10
11.9922
 20
1.82617
 11
11.9951
 21
1.86035
  0
LINE
  8
0
 10
11.9951
 20
1.86035
 11
11.999
 21
1.93066
  0
LINE
  8
0
 10
11.999
 20
1.93066
 11
12
 21
1.96484
  0
LINE
  8
0
 10
12
 20
1.96484
 11
12
 21
8
  0
LINE
  8
0
 10
12
 20
8
 11
88.9502
 21
8
  0
LINE
  8
0
 10
88.9502
 20
8
 11
88.9502
 21
1.96484
  0
LINE
  8
0
 10
88.9502
 20
1.96484
 11
88.9512
 21
1.93066
  0
LINE
  8
0
 10
88.9512
 20
1.93066
 11
88.9551
 21
1.86035
  0
LINE
  8
0
 10
88.9551
 20
1.86035
 11
88.958
 21
1.82617
  0
LINE
  8
0
 10
88.958
 20
1.82617
 11
88.9609
 21
1.79102
  0
LINE
  8
0
 10
88.9609
 20
1.79102
 11
88.9648
 21
1.75586
  0
LINE
  8
0
 10
88.9648
 20
1.75586
 11
88.9746
 21
1.6875
  0
LINE
  8
0
 10
88.9746
 20
1.6875
 11
88.9805
 21
1.65234
  0
LINE
  8
0
 10
88.9805
 20
1.65234
 11
88.9863
 21
1.61816
  0
LINE
  8
0
 10
88.9863
 20
1.61816
 11
88.9941
 21
1.58398
  0
LINE
  8
0
 10
88.9941
 20
1.58398
 11
89.001
 21
1.5498
  0
LINE
  8
0
 10
89.001
 20
1.5498
 11
89.0098
 21
1.5166
  0
LINE
  8
0
 10
89.0098
 20
1.5166
 11
89.0273
 21
1.44824
  0
LINE
  8
0
 10
89.0273
 20
1.44824
 11
89.0371
 21
1.41504
  0
LINE
  8
0
 10
89.0371
 20
1.41504
 11
89.0586
 21
1.34863
  0
LINE
  8
0
 10
89.0586
 20
1.34863
 11
89.0703
 21
1.31641
  0
LINE
  8
0
 10
89.0703
 20
1.31641
 11
89.083
 21
1.2832
  0
LINE
  8
0
 10
89.083
 20
1.2832
 11
89.0957
 21
1.25098
  0
LINE
  8
0
 10
89.0957
 20
1.25098
 11
89.123
 21
1.18652
  0
LINE
  8
0
 10
89.123
 20
1.18652
 11
89.1377
 21
1.1543
  0
LINE
  8
0
 10
89.1377
 20
1.1543
 11
89.1523
 21
1.12305
  0
LINE
  8
0
 10
89.1523
 20
1.12305
 11
89.168
 21
1.0918
  0
LINE
  8
0
 10
89.168
 20
1.0918
 11
89.1846
 21
1.06152
  0
LINE
  8
0
 10
89.1846
 20
1.06152
 11
89.2012
 21
1.03027
  0
LINE
  8
0
 10
89.2012
 20
1.03027
 11
89.2178
 21
1
  0
LINE
  8
0
 10
89.2178
 20
1
 11
89.2354
 21
0.969727
  0
LINE
  8
0
 10
89.2354
 20
0.969727
 11
89.2725
 21
0.911133
  0
LINE
  8
0
 10
89.2725
 20
0.911133
 11
89.3115
 21
0.852539
  0
LINE
  8
0
 10
89.3115
 20
0.852539
 11
89.3525
 21
0.795898
  0
LINE
  8
0
 10
89.3525
 20
0.795898
 11
89.3955
 21
0.741211
  0
LINE
  8
0
 10
89.3955
 20
0.741211
 11
89.418
 21
0.714844
  0
LINE
  8
0
 10
89.418
 20
0.714844
 11
89.4404
 21
0.6875
  0
LINE
  8
0
 10
89.4404
 20
0.6875
 11
89.4639
 21
0.662109
  0
LINE
  8
0
 10
89.4639
 20
0.662109
 11
89.4873
 21
0.635742
  0
LINE
  8
0
 10
89.4873
 20
0.635742
 11
89.5117
 21
0.610352
  0
LINE
  8
0
 10
89.5117
 20
0.610352
 11
89.5605
 21
0.561523
  0
LINE
  8
0
 10
89.5605
 20
0.561523
 11
89.5859
 21
0.537109
  0
LINE
  8
0
 10
89.5859
 20
0.537109
 11
89.6113
 21
0.513672
  0
LINE
  8
0
 10
89.6113
 20
0.513672
 11
89.6377
 21
0.490234
  0
LINE
  8
0
 10
89.6377
 20
0.490234
 11
89.6641
 21
0.467773
  0
LINE
  8
0
 10
89.6641
 20
0.467773
 11
89.6914
 21
0.445312
  0
LINE
  8
0
 10
89.6914
 20
0.445312
 11
89.7461
 21
0.402344
  0
LINE
  8
0
 10
89.7461
 20
0.402344
 11
89.8027
 21
0.361328
  0
LINE
  8
0
 10
89.8027
 20
0.361328
 11
89.832
 21
0.341797
  0
LINE
  8
0
 10
89.832
 20
0.341797
 11
89.8604
 21
0.322266
  0
LINE
  8
0
 10
89.8604
 20
0.322266
 11
89.8906
 21
0.303711
  0
LINE
  8
0
 10
89.8906
 20
0.303711
 11
89.9199
 21
0.286133
  0
LINE
  8
0
 10
89.9199
 20
0.286133
 11
89.9502
 21
0.267578
  0
LINE
  8
0
 10
89.9502
 20
0.267578
 11
90.0107
 21
0.234375
  0
LINE
  8
0
 10
90.0107
 20
0.234375
 11
90.042
 21
0.217773
  0
LINE
  8
0
 10
90.042
 20
0.217773
 11
90.0732
 21
0.202148
  0
LINE
  8
0
 10
90.0732
 20
0.202148
 11
90.1045
 21
0.1875
  0
LINE
  8
0
 10
90.1045
 20
0.1875
 11
90.1367
 21
0.172852
  0
LINE
  8
0
 10
90.1367
 20
0.172852
 11
90.2012
 21
0.145508
  0
LINE
  8
0
 10
90.2012
 20
0.145508
 11
90.2334
 21
0.132812
  0
LINE
  8
0
 10
90.2334
 20
0.132812
 11
90.2656
 21
0.121094
  0
LINE
  8
0
 10
90.2656
 20
0.121094
 11
90.332
 21
0.0976562
  0
LINE
  8
0
 10
90.332
 20
0.0976562
 11
90.3652
 21
0.0869141
  0
LINE
  8
0
 10
90.3652
 20
0.0869141
 11
90.3984
 21
0.0771484
  0
LINE
  8
0
 10
90.3984
 20
0.0771484
 11
90.4326
 21
0.0683594
  0
LINE
  8
0
 10
90.4326
 20
0.0683594
 11
90.4658
 21
0.0595703
  0
LINE
  8
0
 10
90.4658
 20
0.0595703
 11
90.5
 21
0.0507812
  0
LINE
  8
0
 10
90.5
 20
0.0507812
 11
90.6025
 21
0.0302734
  0
LINE
  8
0
 10
90.6025
 20
0.0302734
 11
90.6367
 21
0.0244141
  0
LINE
  8
0
 10
90.6367
 20
0.0244141
 11
90.6719
 21
0.0195312
  0
LINE
  8
0
 10
90.6719
 20
0.0195312
 11
90.7061
 21
0.0146484
  0
LINE
  8
0
 10
90.7061
 20
0.0146484
 11
90.7412
 21
0.0107422
  0
LINE
  8
0
 10
90.7412
 20
0.0107422
 11
90.7754
 21
0.0078125
  0
LINE
  8
0
 10
90.7754
 20
0.0078125
 11
90.8105
 21
0.00488281
  0
LINE
  8
0
 10
90.8105
 20
0.00488281
 11
90.8457
 21
0.00292969
  0
LINE
  8
0
 10
90.8457
 20
0.00292969
 11
90.8799
 21
0.000976562
  0
LINE
  8
0
 10
90.8799
 20
0.000976562
 11
90.915
 21
0
  0
LINE
  8
0
 10
90.915
 20
0
 11
98.9854
 21
0
  0
LINE
  8
0
 10
98.9854
 20
0
 11
99.0195
 21
0.000976562
  0
LINE
  8
0
 10
99.0195
 20
0.000976562
 11
99.0898
 21
0.00488281
  0
LINE
  8
0
 10
99.0898
 20
0.00488281
 11
99.124
 21
0.0078125
  0
LINE
  8
0
 10
99.124
 20
0.0078125
 11
99.1592
 21
0.0107422
  0
LINE
  8
0
 10
99.1592
 20
0.0107422
 11
99.1934
 21
0.0146484
  0
LINE
  8
0
 10
99.1934
 20
0.0146484
 11
99.2285
 21
0.0195312
  0
LINE
  8
0
 10
99.2285
 20
0.0195312
 11
99.2627
 21
0.0244141
  0
LINE
  8
0
 10
99.2627
 20
0.0244141
 11
99.2969
 21
0.0302734
  0
LINE
  8
0
 10
99.2969
 20
0.0302734
 11
99.332
 21
0.0371094
  0
LINE
  8
0
 10
99.332
 20
0.0371094
 11
99.3662
 21
0.0439453
  0
LINE
  8
0
 10
99.3662
 20
0.0439453
 11
99.3994
 21
0.0507812
  0
LINE
  8
0
 10
99.3994
 20
0.0507812
 11
99.4678
 21
0.0683594
  0
LINE
  8
0
 10
99.4678
 20
0.0683594
 11
99.501
 21
0.0771484
  0
LINE
  8
0
 10
99.501
 20
0.0771484
 11
99.5352
 21
0.0869141
  0
LINE
  8
0
 10
99.5352
 20
0.0869141
 11
99.5684
 21
0.0976562
  0
LINE
  8
0
 10
99.5684
 20
0.0976562
 11
99.6016
 21
0.109375
  0
LINE
  8
0
 10
99.6016
 20
0.109375
 11
99.6338
 21
0.121094
  0
LINE
  8
0
 10
99.6338
 20
0.121094
 11
99.667
 21
0.132812
  0
LINE
  8
0
 10
99.667
 20
0.132812
 11
99.6992
 21
0.145508
  0
LINE
  8
0
 10
99.6992
 20
0.145508
 11
99.7637
 21
0.172852
  0
LINE
  8
0
 10
99.7637
 20
0.172852
 11
99.7949
 21
0.1875
  0
LINE
  8
0
 10
99.7949
 20
0.1875
 11
99.8271
 21
0.202148
  0
LINE
  8
0
 10
99.8271
 20
0.202148
 11
99.8584
 21
0.217773
  0
LINE
  8
0
 10
99.8584
 20
0.217773
 11
99.8887
 21
0.234375
  0
LINE
  8
0
 10
99.8887
 20
0.234375
 11
99.9199
 21
0.250977
  0
LINE
  8
0
 10
99.9199
 20
0.250977
 11
99.9502
 21
0.267578
  0
LINE
  8
0
 10
99.9502
 20
0.267578
 11
99.9805
 21
0.286133
  0
LINE
  8
0
 10
99.9805
 20
0.286133
 11
100.01
 21
0.303711
  0
LINE
  8
0
 10
100.01
 20
0.303711
 11
100.039
 21
0.322266
  0
LINE
  8
0
 10
100.039
 20
0.322266
 11
100.068
 21
0.341797
  0
LINE
  8
0
 10
100.068
 20
0.341797
 11
100.097
 21
0.361328
  0
LINE
  8
0
 10
100.097
 20
0.361328
 11
100.126
 21
0.381836
  0
LINE
  8
0
 10
100.126
 20
0.381836
 11
100.153
 21
0.402344
  0
LINE
  8
0
 10
100.153
 20
0.402344
 11
100.182
 21
0.423828
  0
LINE
  8
0
 10
100.182
 20
0.423828
 11
100.209
 21
0.445312
  0
LINE
  8
0
 10
100.209
 20
0.445312
 11
100.262
 21
0.490234
  0
LINE
  8
0
 10
100.262
 20
0.490234
 11
100.314
 21
0.537109
  0
LINE
  8
0
 10
100.314
 20
0.537109
 11
100.339
 21
0.561523
  0
LINE
  8
0
 10
100.339
 20
0.561523
 11
100.364
 21
0.585938
  0
LINE
  8
0
 10
100.364
 20
0.585938
 11
100.389
 21
0.610352
  0
LINE
  8
0
 10
100.389
 20
0.610352
 11
100.413
 21
0.635742
  0
LINE
  8
0
 10
100.413
 20
0.635742
 11
100.437
 21
0.662109
  0
LINE
  8
0
 10
100.437
 20
0.662109
 11
100.459
 21
0.6875
  0
LINE
  8
0
 10
100.459
 20
0.6875
 11
100.482
 21
0.714844
  0
LINE
  8
0
 10
100.482
 20
0.714844
 11
100.504
 21
0.741211
  0
LINE
  8
0
 10
100.504
 20
0.741211
 11
100.526
 21
0.768555
  0
LINE
  8
0
 10
100.526
 20
0.768555
 11
100.547
 21
0.795898
  0
LINE
  8
0
 10
100.547
 20
0.795898
 11
100.568
 21
0.824219
  0
LINE
  8
0
 10
100.568
 20
0.824219
 11
100.588
 21
0.852539
  0
LINE
  8
0
 10
100.588
 20
0.852539
 11
100.608
 21
0.881836
  0
LINE
  8
0
 10
100.608
 20
0.881836
 11
100.627
 21
0.911133
  0
LINE
  8
0
 10
100.627
 20
0.911133
 11
100.646
 21
0.94043
  0
LINE
  8
0
 10
100.646
 20
0.94043
 11
100.664
 21
0.969727
  0
LINE
  8
0
 10
100.664
 20
0.969727
 11
100.699
 21
1.03027
  0
LINE
  8
0
 10
100.699
 20
1.03027
 11
100.716
 21
1.06152
  0
LINE
  8
0
 10
100.716
 20
1.06152
 11
100.732
 21
1.0918
  0
LINE
  8
0
 10
100.732
 20
1.0918
 11
100.748
 21
1.12305
  0
LINE
  8
0
 10
100.748
 20
1.12305
 11
100.763
 21
1.1543
  0
LINE
  8
0
 10
100.763
 20
1.1543
 11
100.777
 21
1.18652
  0
LINE
  8
0
 10
100.777
 20
1.18652
 11
100.805
 21
1.25098
  0
LINE
  8
0
 10
100.805
 20
1.25098
 11
100.817
 21
1.2832
  0
LINE
  8
0
 10
100.817
 20
1.2832
 11
100.829
 21
1.31641
  0
LINE
  8
0
 10
100.829
 20
1.31641
 11
100.841
 21
1.34863
  0
LINE
  8
0
 10
100.841
 20
1.34863
 11
100.853
 21
1.38184
  0
LINE
  8
0
 10
100.853
 20
1.38184
 11
100.872
 21
1.44824
  0
LINE
  8
0
 10
100.872
 20
1.44824
 11
100.882
 21
1.48242
  0
LINE
  8
0
 10
100.882
 20
1.48242
 11
100.891
 21
1.5166
  0
LINE
  8
0
 10
100.891
 20
1.5166
 11
100.898
 21
1.5498
  0
LINE
  8
0
 10
100.898
 20
1.5498
 11
100.906
 21
1.58398
  0
LINE
  8
0
 10
100.906
 20
1.58398
 11
100.92
 21
1.65234
  0
LINE
  8
0
 10
100.92
 20
1.65234
 11
100.926
 21
1.6875
  0
LINE
  8
0
 10
100.926
 20
1.6875
 11
100.936
 21
1.75586
  0
LINE
  8
0
 10
100.936
 20
1.75586
 11
100.939
 21
1.79102
  0
LINE
  8
0
 10
100.939
 20
1.79102
 11
100.942
 21
1.82617
  0
LINE
  8
0
 10
100.942
 20
1.82617
 11
100.945
 21
1.86035
  0
LINE
  8
0
 10
100.945
 20
1.86035
 11
100.949
 21
1.93066
  0
LINE
  8
0
 10
100.949
 20
1.93066
 11
100.949
 21
1.96484
  0
LINE
  8
0
 10
100.949
 20
1.96484
 11
100.95
 21
2
  0
LINE
  8
0
 10
100.95
 20
2
 11
100.95
 21
49.5
  0
LINE
  8
0
 10
100.95
 20
49.5
 11
104.968
 21
49.5
  0
LINE
  8
0
 10
104.968
 20
49.5
 11
104.985
 21
49.501
  0
LINE
  8
0
 10
104.985
 20
49.501
 11
105.002
 21
49.501
  0
LINE
  8
0
 10
105.002
 20
49.501
 11
105.02
 21
49.502
  0
LINE
  8
0
 10
105.02
 20
49.502
 11
105.072
 21
49.5078
  0
LINE
  8
0
 10
105.072
 20
49.5078
 11
105.089
 21
49.5098
  0
LINE
  8
0
 10
105.089
 20
49.5098
 11
105.124
 21
49.5156
  0
LINE
  8
0
 10
105.124
 20
49.5156
 11
105.141
 21
49.5186
  0
LINE
  8
0
 10
105.141
 20
49.5186
 11
105.158
 21
49.5215
  0
LINE
  8
0
 10
105.158
 20
49.5215
 11
105.175
 21
49.5254
  0
LINE
  8
0
 10
105.175
 20
49.5254
 11
105.192
 21
49.5293
  0
LINE
  8
0
 10
105.192
 20
49.5293
 11
105.259
 21
49.5488
  0
LINE
  8
0
 10
105.259
 20
49.5488
 11
105.309
 21
49.5664
  0
LINE
  8
0
 10
105.309
 20
49.5664
 11
105.324
 21
49.5732
  0
LINE
  8
0
 10
105.324
 20
49.5732
 11
105.341
 21
49.5791
  0
LINE
  8
0
 10
105.341
 20
49.5791
 11
105.356
 21
49.5869
  0
LINE
  8
0
 10
105.356
 20
49.5869
 11
105.373
 21
49.5938
  0
LINE
  8
0
 10
105.373
 20
49.5938
 11
105.42
 21
49.6172
  0
LINE
  8
0
 10
105.42
 20
49.6172
 11
105.435
 21
49.625
  0
LINE
  8
0
 10
105.435
 20
49.625
 11
105.45
 21
49.6338
  0
LINE
  8
0
 10
105.45
 20
49.6338
 11
105.465
 21
49.6426
  0
LINE
  8
0
 10
105.465
 20
49.6426
 11
105.479
 21
49.6523
  0
LINE
  8
0
 10
105.479
 20
49.6523
 11
105.495
 21
49.6611
  0
LINE
  8
0
 10
105.495
 20
49.6611
 11
105.509
 21
49.6709
  0
LINE
  8
0
 10
105.509
 20
49.6709
 11
105.523
 21
49.6807
  0
LINE
  8
0
 10
105.523
 20
49.6807
 11
105.538
 21
49.6914
  0
LINE
  8
0
 10
105.538
 20
49.6914
 11
105.552
 21
49.7012
  0
LINE
  8
0
 10
105.552
 20
49.7012
 11
105.579
 21
49.7227
  0
LINE
  8
0
 10
105.579
 20
49.7227
 11
105.593
 21
49.7344
  0
LINE
  8
0
 10
105.593
 20
49.7344
 11
105.606
 21
49.7451
  0
LINE
  8
0
 10
105.606
 20
49.7451
 11
105.645
 21
49.7803
  0
LINE
  8
0
 10
105.645
 20
49.7803
 11
105.657
 21
49.793
  0
LINE
  8
0
 10
105.657
 20
49.793
 11
105.669
 21
49.8057
  0
LINE
  8
0
 10
105.669
 20
49.8057
 11
105.682
 21
49.8184
  0
LINE
  8
0
 10
105.682
 20
49.8184
 11
105.705
 21
49.8438
  0
LINE
  8
0
 10
105.705
 20
49.8438
 11
105.716
 21
49.8574
  0
LINE
  8
0
 10
105.716
 20
49.8574
 11
105.728
 21
49.8711
  0
LINE
  8
0
 10
105.728
 20
49.8711
 11
105.749
 21
49.8984
  0
LINE
  8
0
 10
105.749
 20
49.8984
 11
105.759
 21
49.9121
  0
LINE
  8
0
 10
105.759
 20
49.9121
 11
105.77
 21
49.9268
  0
LINE
  8
0
 10
105.77
 20
49.9268
 11
105.779
 21
49.9404
  0
LINE
  8
0
 10
105.779
 20
49.9404
 11
105.789
 21
49.9551
  0
LINE
  8
0
 10
105.789
 20
49.9551
 11
105.798
 21
49.9697
  0
LINE
  8
0
 10
105.798
 20
49.9697
 11
105.808
 21
49.9854
  0
LINE
  8
0
 10
105.808
 20
49.9854
 11
105.816
 21
50
  0
LINE
  8
0
 10
105.816
 20
50
 11
105.824
 21
50.0156
  0
LINE
  8
0
 10
105.824
 20
50.0156
 11
105.833
 21
50.0303
  0
LINE
  8
0
 10
105.833
 20
50.0303
 11
105.856
 21
50.0771
  0
LINE
  8
0
 10
105.856
 20
50.0771
 11
105.863
 21
50.0938
  0
LINE
  8
0
 10
105.863
 20
50.0938
 11
105.877
 21
50.125
  0
LINE
  8
0
 10
105.877
 20
50.125
 11
105.884
 21
50.1416
  0
LINE
  8
0
 10
105.884
 20
50.1416
 11
105.901
 21
50.1914
  0
LINE
  8
0
 10
105.901
 20
50.1914
 11
105.916
 21
50.2412
  0
LINE
  8
0
 10
105.916
 20
50.2412
 11
105.92
 21
50.2578
  0
LINE
  8
0
 10
105.92
 20
50.2578
 11
105.925
 21
50.2754
  0
LINE
  8
0
 10
105.925
 20
50.2754
 11
105.928
 21
50.292
  0
LINE
  8
0
 10
105.928
 20
50.292
 11
105.932
 21
50.3096
  0
LINE
  8
0
 10
105.932
 20
50.3096
 11
105.935
 21
50.3262
  0
LINE
  8
0
 10
105.935
 20
50.3262
 11
105.938
 21
50.3438
  0
LINE
  8
0
 10
105.938
 20
50.3438
 11
105.94
 21
50.3604
  0
LINE
  8
0
 10
105.94
 20
50.3604
 11
105.946
 21
50.4131
  0
LINE
  8
0
 10
105.946
 20
50.4131
 11
105.947
 21
50.4307
  0
LINE
  8
0
 10
105.947
 20
50.4307
 11
105.948
 21
50.4473
  0
LINE
  8
0
 10
105.948
 20
50.4473
 11
105.95
 21
50.4824
  0
LINE
  8
0
 10
105.95
 20
50.4824
 11
105.95
 21
78.5176
  0
LINE
  8
0
 10
105.95
 20
78.5176
 11
105.948
 21
78.5527
  0
LINE
  8
0
 10
105.948
 20
78.5527
 11
105.947
 21
78.5693
  0
LINE
  8
0
 10
105.947
 20
78.5693
 11
105.946
 21
78.5869
  0
LINE
  8
0
 10
105.946
 20
78.5869
 11
105.94
 21
78.6396
  0
LINE
  8
0
 10
105.94
 20
78.6396
 11
105.938
 21
78.6562
  0
LINE
  8
0
 10
105.938
 20
78.6562
 11
105.935
 21
78.6738
  0
LINE
  8
0
 10
105.935
 20
78.6738
 11
105.932
 21
78.6904
  0
LINE
  8
0
 10
105.932
 20
78.6904
 11
105.928
 21
78.708
  0
LINE
  8
0
 10
105.928
 20
78.708
 11
105.925
 21
78.7246
  0
LINE
  8
0
 10
105.925
 20
78.7246
 11
105.92
 21
78.7422
  0
LINE
  8
0
 10
105.92
 20
78.7422
 11
105.916
 21
78.7588
  0
LINE
  8
0
 10
105.916
 20
78.7588
 11
105.901
 21
78.8086
  0
LINE
  8
0
 10
105.901
 20
78.8086
 11
105.884
 21
78.8584
  0
LINE
  8
0
 10
105.884
 20
78.8584
 11
105.877
 21
78.875
  0
LINE
  8
0
 10
105.877
 20
78.875
 11
105.863
 21
78.9062
  0
LINE
  8
0
 10
105.863
 20
78.9062
 11
105.856
 21
78.9229
  0
LINE
  8
0
 10
105.856
 20
78.9229
 11
105.833
 21
78.9697
  0
LINE
  8
0
 10
105.833
 20
78.9697
 11
105.824
 21
78.9844
  0
LINE
  8
0
 10
105.824
 20
78.9844
 11
105.816
 21
79
  0
LINE
  8
0
 10
105.816
 20
79
 11
105.808
 21
79.0146
  0
LINE
  8
0
 10
105.808
 20
79.0146
 11
105.798
 21
79.0303
  0
LINE
  8
0
 10
105.798
 20
79.0303
 11
105.789
 21
79.0449
  0
LINE
  8
0
 10
105.789
 20
79.0449
 11
105.779
 21
79.0596
  0
LINE
  8
0
 10
105.779
 20
79.0596
 11
105.77
 21
79.0732
  0
LINE
  8
0
 10
105.77
 20
79.0732
 11
105.759
 21
79.0879
  0
LINE
  8
0
 10
105.759
 20
79.0879
 11
105.749
 21
79.1016
  0
LINE
  8
0
 10
105.749
 20
79.1016
 11
105.728
 21
79.1289
  0
LINE
  8
0
 10
105.728
 20
79.1289
 11
105.716
 21
79.1426
  0
LINE
  8
0
 10
105.716
 20
79.1426
 11
105.705
 21
79.1562
  0
LINE
  8
0
 10
105.705
 20
79.1562
 11
105.682
 21
79.1816
  0
LINE
  8
0
 10
105.682
 20
79.1816
 11
105.669
 21
79.1943
  0
LINE
  8
0
 10
105.669
 20
79.1943
 11
105.657
 21
79.207
  0
LINE
  8
0
 10
105.657
 20
79.207
 11
105.645
 21
79.2197
  0
LINE
  8
0
 10
105.645
 20
79.2197
 11
105.606
 21
79.2549
  0
LINE
  8
0
 10
105.606
 20
79.2549
 11
105.593
 21
79.2656
  0
LINE
  8
0
 10
105.593
 20
79.2656
 11
105.579
 21
79.2773
  0
LINE
  8
0
 10
105.579
 20
79.2773
 11
105.552
 21
79.2988
  0
LINE
  8
0
 10
105.552
 20
79.2988
 11
105.538
 21
79.3086
  0
LINE
  8
0
 10
105.538
 20
79.3086
 11
105.523
 21
79.3193
  0
LINE
  8
0
 10
105.523
 20
79.3193
 11
105.509
 21
79.3291
  0
LINE
  8
0
 10
105.509
 20
79.3291
 11
105.495
 21
79.3389
  0
LINE
  8
0
 10
105.495
 20
79.3389
 11
105.479
 21
79.3477
  0
LINE
  8
0
 10
105.479
 20
79.3477
 11
105.465
 21
79.3574
  0
LINE
  8
0
 10
105.465
 20
79.3574
 11
105.45
 21
79.3662
  0
LINE
  8
0
 10
105.45
 20
79.3662
 11
105.435
 21
79.375
  0
LINE
  8
0
 10
105.435
 20
79.375
 11
105.42
 21
79.3828
  0
LINE
  8
0
 10
105.42
 20
79.3828
 11
105.373
 21
79.4062
  0
LINE
  8
0
 10
105.373
 20
79.4062
 11
105.356
 21
79.4131
  0
LINE
  8
0
 10
105.356
 20
79.4131
 11
105.341
 21
79.4209
  0
LINE
  8
0
 10
105.341
 20
79.4209
 11
105.324
 21
79.4268
  0
LINE
  8
0
 10
105.324
 20
79.4268
 11
105.309
 21
79.4336
  0
LINE
  8
0
 10
105.309
 20
79.4336
 11
105.259
 21
79.4512
  0
LINE
  8
0
 10
105.259
 20
79.4512
 11
105.192
 21
79.4707
  0
LINE
  8
0
 10
105.192
 20
79.4707
 11
105.175
 21
79.4746
  0
LINE
  8
0
 10
105.175
 20
79.4746
 11
105.158
 21
79.4785
  0
LINE
  8
0
 10
105.158
 20
79.4785
 11
105.141
 21
79.4814
  0
LINE
  8
0
 10
105.141
 20
79.4814
 11
105.124
 21
79.4844
  0
LINE
  8
0
 10
105.124
 20
79.4844
 11
105.089
 21
79.4902
  0
LINE
  8
0
 10
105.089
 20
79.4902
 11
105.072
 21
79.4922
  0
LINE
  8
0
 10
105.072
 20
79.4922
 11
105.02
 21
79.498
  0
LINE
  8
0
 10
105.02
 20
79.498
 11
105.002
 21
79.499
  0
LINE
  8
0
 10
105.002
 20
79.499
 11
104.985
 21
79.499
  0
LINE
  8
0
 10
104.985
 20
79.499
 11
104.968
 21
79.5
  0
LINE
  8
0
 10
104.968
 20
79.5
 11
-4.01758
 21
79.5
  0
LINE
  8
0
 10
-4.01758
 20
79.5
 11
-4.03516
 21
79.499
  0
LINE
  8
0
 10
-4.03516
 20
79.499
 11
-4.05273
 21
79.499
  0
LINE
  8
0
 10
-4.05273
 20
79.499
 11
-4.06934
 21
79.498
  0
LINE
  8
0
 10
-4.06934
 20
79.498
 11
-4.13965
 21
79.4902
  0
LINE
  8
0
 10
-4.13965
 20
79.4902
 11
-4.15625
 21
79.4873
  0
LINE
  8
0
 10
-4.15625
 20
79.4873
 11
-4.17383
 21
79.4844
  0
LINE
  8
0
 10
-4.17383
 20
79.4844
 11
-4.19043
 21
79.4814
  0
LINE
  8
0
 10
-4.19043
 20
79.4814
 11
-4.20801
 21
79.4785
  0
LINE
  8
0
 10
-4.20801
 20
79.4785
 11
-4.22461
 21
79.4746
  0
LINE
  8
0
 10
-4.22461
 20
79.4746
 11
-4.24219
 21
79.4707
  0
LINE
  8
0
 10
-4.24219
 20
79.4707
 11
-4.30859
 21
79.4512
  0
LINE
  8
0
 10
-4.30859
 20
79.4512
 11
-4.3584
 21
79.4336
  0
LINE
  8
0
 10
-4.3584
 20
79.4336
 11
-4.375
 21
79.4268
  0
LINE
  8
0
 10
-4.375
 20
79.4268
 11
-4.39062
 21
79.4209
  0
LINE
  8
0
 10
-4.39062
 20
79.4209
 11
-4.40625
 21
79.4131
  0
LINE
  8
0
 10
-4.40625
 20
79.4131
 11
-4.42285
 21
79.4062
  0
LINE
  8
0
 10
-4.42285
 20
79.4062
 11
-4.46973
 21
79.3828
  0
LINE
  8
0
 10
-4.46973
 20
79.3828
 11
-4.48438
 21
79.375
  0
LINE
  8
0
 10
-4.48438
 20
79.375
 11
-4.5
 21
79.3662
  0
LINE
  8
0
 10
-4.5
 20
79.3662
 11
-4.51465
 21
79.3574
  0
LINE
  8
0
 10
-4.51465
 20
79.3574
 11
-4.53027
 21
79.3477
  0
LINE
  8
0
 10
-4.53027
 20
79.3477
 11
-4.54492
 21
79.3389
  0
LINE
  8
0
 10
-4.54492
 20
79.3389
 11
-4.55957
 21
79.3291
  0
LINE
  8
0
 10
-4.55957
 20
79.3291
 11
-4.57324
 21
79.3193
  0
LINE
  8
0
 10
-4.57324
 20
79.3193
 11
-4.58789
 21
79.3086
  0
LINE
  8
0
 10
-4.58789
 20
79.3086
 11
-4.60156
 21
79.2988
  0
LINE
  8
0
 10
-4.60156
 20
79.2988
 11
-4.62891
 21
79.2773
  0
LINE
  8
0
 10
-4.62891
 20
79.2773
 11
-4.64258
 21
79.2656
  0
LINE
  8
0
 10
-4.64258
 20
79.2656
 11
-4.65625
 21
79.2549
  0
LINE
  8
0
 10
-4.65625
 20
79.2549
 11
-4.69434
 21
79.2197
  0
LINE
  8
0
 10
-4.69434
 20
79.2197
 11
-4.71973
 21
79.1943
  0
LINE
  8
0
 10
-4.71973
 20
79.1943
 11
-4.75488
 21
79.1562
  0
LINE
  8
0
 10
-4.75488
 20
79.1562
 11
-4.76562
 21
79.1426
  0
LINE
  8
0
 10
-4.76562
 20
79.1426
 11
-4.77734
 21
79.1289
  0
LINE
  8
0
 10
-4.77734
 20
79.1289
 11
-4.79883
 21
79.1016
  0
LINE
  8
0
 10
-4.79883
 20
79.1016
 11
-4.80859
 21
79.0879
  0
LINE
  8
0
 10
-4.80859
 20
79.0879
 11
-4.81934
 21
79.0732
  0
LINE
  8
0
 10
-4.81934
 20
79.0732
 11
-4.8291
 21
79.0596
  0
LINE
  8
0
 10
-4.8291
 20
79.0596
 11
-4.83887
 21
79.0449
  0
LINE
  8
0
 10
-4.83887
 20
79.0449
 11
-4.84766
 21
79.0303
  0
LINE
  8
0
 10
-4.84766
 20
79.0303
 11
-4.85742
 21
79.0146
  0
LINE
  8
0
 10
-4.85742
 20
79.0146
 11
-4.86621
 21
79
  0
LINE
  8
0
 10
-4.86621
 20
79
 11
-4.875
 21
78.9844
  0
LINE
  8
0
 10
-4.875
 20
78.9844
 11
-4.88281
 21
78.9697
  0
LINE
  8
0
 10
-4.88281
 20
78.9697
 11
-4.90625
 21
78.9229
  0
LINE
  8
0
 10
-4.90625
 20
78.9229
 11
-4.91309
 21
78.9062
  0
LINE
  8
0
 10
-4.91309
 20
78.9062
 11
-4.9209
 21
78.8906
  0
LINE
  8
0
 10
-4.9209
 20
78.8906
 11
-4.92676
 21
78.875
  0
LINE
  8
0
 10
-4.92676
 20
78.875
 11
-4.93359
 21
78.8584
  0
LINE
  8
0
 10
-4.93359
 20
78.8584
 11
-4.95117
 21
78.8086
  0
LINE
  8
0
 10
-4.95117
 20
78.8086
 11
-4.9707
 21
78.7422
  0
LINE
  8
0
 10
-4.9707
 20
78.7422
 11
-4.97461
 21
78.7246
  0
LINE
  8
0
 10
-4.97461
 20
78.7246
 11
-4.97852
 21
78.708
  0
LINE
  8
0
 10
-4.97852
 20
78.708
 11
-4.98145
 21
78.6904
  0
LINE
  8
0
 10
-4.98145
 20
78.6904
 11
-4.98438
 21
78.6738
  0
LINE
  8
0
 10
-4.98438
 20
78.6738
 11
-4.9873
 21
78.6562
  0
LINE
  8
0
 10
-4.9873
 20
78.6562
 11
-4.99023
 21
78.6396
  0
LINE
  8
0
 10
-4.99023
 20
78.6396
 11
-4.99805
 21
78.5693
  0
LINE
  8
0
 10
-4.99805
 20
78.5693
 11
-4.99902
 21
78.5527
  0
LINE
  8
0
 10
-4.99902
 20
78.5527
 11
-4.99902
 21
78.5352
  0
LINE
  8
0
 10
-4.99902
 20
78.5352
 11
-5
 21
78.5176
  0
LINE
  8
0
 10
-5
 20
78.5176
 11
-5
 21
50.4824
  0
LINE
  8
0
 10
-5
 20
50.4824
 11
-4.99902
 21
50.4648
  0
LINE
  8
0
 10
-4.99902
 20
50.4648
 11
-4.99902
 21
50.4473
  0
LINE
  8
0
 10
-4.99902
 20
50.4473
 11
-4.99805
 21
50.4307
  0
LINE
  8
0
 10
-4.99805
 20
50.4307
 11
-4.99023
 21
50.3604
  0
LINE
  8
0
 10
-4.99023
 20
50.3604
 11
-4.9873
 21
50.3438
  0
LINE
  8
0
 10
-4.9873
 20
50.3438
 11
-4.98438
 21
50.3262
  0
LINE
  8
0
 10
-4.98438
 20
50.3262
 11
-4.98145
 21
50.3096
  0
LINE
  8
0
 10
-4.98145
 20
50.3096
 11
-4.97852
 21
50.292
  0
LINE
  8
0
 10
-4.97852
 20
50.292
 11
-4.97461
 21
50.2754
  0
LINE
  8
0
 10
-4.97461
 20
50.2754
 11
-4.9707
 21
50.2578
  0
LINE
  8
0
 10
-4.9707
 20
50.2578
 11
-4.95117
 21
50.1914
  0
LINE
  8
0
 10
-4.95117
 20
50.1914
 11
-4.93359
 21
50.1416
  0
LINE
  8
0
 10
-4.93359
 20
50.1416
 11
-4.92676
 21
50.125
  0
LINE
  8
0
 10
-4.92676
 20
50.125
 11
-4.9209
 21
50.1094
  0
LINE
  8
0
 10
-4.9209
 20
50.1094
 11
-4.91309
 21
50.0938
  0
LINE
  8
0
 10
-4.91309
 20
50.0938
 11
-4.90625
 21
50.0771
  0
LINE
  8
0
 10
-4.90625
 20
50.0771
 11
-4.88281
 21
50.0303
  0
LINE
  8
0
 10
-4.88281
 20
50.0303
 11
-4.875
 21
50.0156
  0
LINE
  8
0
 10
-4.875
 20
50.0156
 11
-4.86621
 21
50
  0
LINE
  8
0
 10
-4.86621
 20
50
 11
-4.85742
 21
49.9854
  0
LINE
  8
0
 10
-4.85742
 20
49.9854
 11
-4.84766
 21
49.9697
  0
LINE
  8
0
 10
-4.84766
 20
49.9697
 11
-4.83887
 21
49.9551
  0
LINE
  8
0
 10
-4.83887
 20
49.9551
 11
-4.8291
 21
49.9404
  0
LINE
  8
0
 10
-4.8291
 20
49.9404
 11
-4.81934
 21
49.9268
  0
LINE
  8
0
 10
-4.81934
 20
49.9268
 11
-4.80859
 21
49.9121
  0
LINE
  8
0
 10
-4.80859
 20
49.9121
 11
-4.79883
 21
49.8984
  0
LINE
  8
0
 10
-4.79883
 20
49.8984
 11
-4.77734
 21
49.8711
  0
LINE
  8
0
 10
-4.77734
 20
49.8711
 11
-4.76562
 21
49.8574
  0
LINE
  8
0
 10
-4.76562
 20
49.8574
 11
-4.75488
 21
49.8438
  0
LINE
  8
0
 10
-4.75488
 20
49.8438
 11
-4.71973
 21
49.8057
  0
LINE
  8
0
 10
-4.71973
 20
49.8057
 11
-4.69434
 21
49.7803
  0
LINE
  8
0
 10
-4.69434
 20
49.7803
 11
-4.65625
 21
49.7451
  0
LINE
  8
0
 10
-4.65625
 20
49.7451
 11
-4.64258
 21
49.7344
  0
LINE
  8
0
 10
-4.64258
 20
49.7344
 11
-4.62891
 21
49.7227
  0
LINE
  8
0
 10
-4.62891
 20
49.7227
 11
-4.60156
 21
49.7012
  0
LINE
  8
0
 10
-4.60156
 20
49.7012
 11
-4.58789
 21
49.6914
  0
LINE
  8
0
 10
-4.58789
 20
49.6914
 11
-4.57324
 21
49.6807
  0
LINE
  8
0
 10
-4.57324
 20
49.6807
 11
-4.55957
 21
49.6709
  0
LINE
  8
0
 10
-4.55957
 20
49.6709
 11
-4.54492
 21
49.6611
  0
LINE
  8
0
 10
-4.54492
 20
49.6611
 11
-4.53027
 21
49.6523
  0
LINE
  8
0
 10
-4.53027
 20
49.6523
 11
-4.51465
 21
49.6426
  0
LINE
  8
0
 10
-4.51465
 20
49.6426
 11
-4.5
 21
49.6338
  0
LINE
  8
0
 10
-4.5
 20
49.6338
 11
-4.48438
 21
49.625
  0
LINE
  8
0
 10
-4.48438
 20
49.625
 11
-4.46973
 21
49.6172
  0
LINE
  8
0
 10
-4.46973
 20
49.6172
 11
-4.42285
 21
49.5938
  0
LINE
  8
0
 10
-4.42285
 20
49.5938
 11
-4.40625
 21
49.5869
  0
LINE
  8
0
 10
-4.40625
 20
49.5869
 11
-4.39062
 21
49.5791
  0
LINE
  8
0
 10
-4.39062
 20
49.5791
 11
-4.375
 21
49.5732
  0
LINE
  8
0
 10
-4.375
 20
49.5732
 11
-4.3584
 21
49.5664
  0
LINE
  8
0
 10
-4.3584
 20
49.5664
 11
-4.30859
 21
49.5488
  0
LINE
  8
0
 10
-4.30859
 20
49.5488
 11
-4.24219
 21
49.5293
  0
LINE
  8
0
 10
-4.24219
 20
49.5293
 11
-4.22461
 21
49.5254
  0
LINE
  8
0
 10
-4.22461
 20
49.5254
 11
-4.20801
 21
49.5215
  0
LINE
  8
0
 10
-4.20801
 20
49.5215
 11
-4.19043
 21
49.5186
  0
LINE
  8
0
 10
-4.19043
 20
49.5186
 11
-4.17383
 21
49.5156
  0
LINE
  8
0
 10
-4.17383
 20
49.5156
 11
-4.15625
 21
49.5127
  0
LINE
  8
0
 10
-4.15625
 20
49.5127
 11
-4.13965
 21
49.5098
  0
LINE
  8
0
 10
-4.13965
 20
49.5098
 11
-4.06934
 21
49.502
  0
LINE
  8
0
 10
-4.06934
 20
49.502
 11
-4.05273
 21
49.501
  0
LINE
  8
0
 10
-4.05273
 20
49.501
 11
-4.03516
 21
49.501
  0
LINE
  8
0
 10
-4.03516
 20
49.501
 11
-4.01758
 21
49.5
  0
LINE
  8
0
 10
-4.01758
 20
49.5
 11
0
 21
49.5
  0
LINE
  8
0
 10
0
 20
49.5
 11
0
 21
1.96484
  0
LINE
  8
0
 10
0
 20
1.96484
 11
0.000976562
 21
1.93066
  0
LINE
  8
0
 10
0.000976562
 20
1.93066
 11
0.00488281
 21
1.86035
  0
LINE
  8
0
 10
0.00488281
 20
1.86035
 11
0.0078125
 21
1.82617
  0
LINE
  8
0
 10
0.0078125
 20
1.82617
 11
0.0107422
 21
1.79102
  0
LINE
  8
0
 10
0.0107422
 20
1.79102
 11
0.0146484
 21
1.75586
  0
LINE
  8
0
 10
0.0146484
 20
1.75586
 11
0.0244141
 21
1.6875
  0
LINE
  8
0
 10
0.0244141
 20
1.6875
 11
0.0302734
 21
1.65234
  0
LINE
  8
0
 10
0.0302734
 20
1.65234
 11
0.0507812
 21
1.5498
  0
LINE
  8
0
 10
0.0507812
 20
1.5498
 11
0.0595703
 21
1.5166
  0
LINE
  8
0
 10
0.0595703
 20
1.5166
 11
0.0771484
 21
1.44824
  0
LINE
  8
0
 10
0.0771484
 20
1.44824
 11
0.0869141
 21
1.41504
  0
LINE
  8
0
 10
0.0869141
 20
1.41504
 11
0.0976562
 21
1.38184
  0
LINE
  8
0
 10
0.0976562
 20
1.38184
 11
0.109375
 21
1.34863
  0
LINE
  8
0
 10
0.109375
 20
1.34863
 11
0.121094
 21
1.31641
  0
LINE
  8
0
 10
0.121094
 20
1.31641
 11
0.132812
 21
1.2832
  0
LINE
  8
0
 10
0.132812
 20
1.2832
 11
0.145508
 21
1.25098
  0
LINE
  8
0
 10
0.145508
 20
1.25098
 11
0.172852
 21
1.18652
  0
LINE
  8
0
 10
0.172852
 20
1.18652
 11
0.1875
 21
1.1543
  0
LINE
  8
0
 10
0.1875
 20
1.1543
 11
0.202148
 21
1.12305
  0
LINE
  8
0
 10
0.202148
 20
1.12305
 11
0.217773
 21
1.0918
  0
LINE
  8
0
 10
0.217773
 20
1.0918
 11
0.234375
 21
1.06152
  0
LINE
  8
0
 10
0.234375
 20
1.06152
 11
0.250977
 21
1.03027
  0
LINE
  8
0
 10
0.250977
 20
1.03027
 11
0.267578
 21
1
  0
LINE
  8
0
 10
0.267578
 20
1
 11
0.286133
 21
0.969727
  0
LINE
  8
0
 10
0.286133
 20
0.969727
 11
0.303711
 21
0.94043
  0
LINE
  8
0
 10
0.303711
 20
0.94043
 11
0.322266
 21
0.911133
  0
LINE
  8
0
 10
0.322266
 20
0.911133
 11
0.361328
 21
0.852539
  0
LINE
  8
0
 10
0.361328
 20
0.852539
 11
0.402344
 21
0.795898
  0
LINE
  8
0
 10
0.402344
 20
0.795898
 11
0.445312
 21
0.741211
  0
LINE
  8
0
 10
0.445312
 20
0.741211
 11
0.467773
 21
0.714844
  0
LINE
  8
0
 10
0.467773
 20
0.714844
 11
0.490234
 21
0.6875
  0
LINE
  8
0
 10
0.490234
 20
0.6875
 11
0.513672
 21
0.662109
  0
LINE
  8
0
 10
0.513672
 20
0.662109
 11
0.537109
 21
0.635742
  0
LINE
  8
0
 10
0.537109
 20
0.635742
 11
0.561523
 21
0.610352
  0
LINE
  8
0
 10
0.561523
 20
0.610352
 11
0.610352
 21
0.561523
  0
LINE
  8
0
 10
0.610352
 20
0.561523
 11
0.635742
 21
0.537109
  0
LINE
  8
0
 10
0.635742
 20
0.537109
 11
0.662109
 21
0.513672
  0
LINE
  8
0
 10
0.662109
 20
0.513672
 11
0.6875
 21
0.490234
  0
LINE
  8
0
 10
0.6875
 20
0.490234
 11
0.714844
 21
0.467773
  0
LINE
  8
0
 10
0.714844
 20
0.467773
 11
0.741211
 21
0.445312
  0
LINE
  8
0
 10
0.741211
 20
0.445312
 11
0.795898
 21
0.402344
  0
LINE
  8
0
 10
0.795898
 20
0.402344
 11
0.852539
 21
0.361328
  0
LINE
  8
0
 10
0.852539
 20
0.361328
 11
0.911133
 21
0.322266
  0
LINE
  8
0
 10
0.911133
 20
0.322266
 11
0.94043
 21
0.303711
  0
LINE
  8
0
 10
0.94043
 20
0.303711
 11
0.969727
 21
0.286133
  0
LINE
  8
0
 10
0.969727
 20
0.286133
 11
1
 21
0.267578
  0
LINE
  8
0
 10
1
 20
0.267578
 11
1.03027
 21
0.250977
  0
LINE
  8
0
 10
1.03027
 20
0.250977
 11
1.06152
 21
0.234375
  0
LINE
  8
0
 10
1.06152
 20
0.234375
 11
1.0918
 21
0.217773
  0
LINE
  8
0
 10
1.0918
 20
0.217773
 11
1.12305
 21
0.202148
  0
LINE
  8
0
 10
1.12305
 20
0.202148
 11
1.1543
 21
0.1875
  0
LINE
  8
0
 10
1.1543
 20
0.1875
 11
1.18652
 21
0.172852
  0
LINE
  8
0
 10
1.18652
 20
0.172852
 11
1.25098
 21
0.145508
  0
LINE
  8
0
 10
1.25098
 20
0.145508
 11
1.2832
 21
0.132812
  0
LINE
  8
0
 10
1.2832
 20
0.132812
 11
1.31641
 21
0.121094
  0
LINE
  8
0
 10
1.31641
 20
0.121094
 11
1.34863
 21
0.109375
  0
LINE
  8
0
 10
1.34863
 20
0.109375
 11
1.38184
 21
0.0976562
  0
LINE
  8
0
 10
1.38184
 20
0.0976562
 11
1.41504
 21
0.0869141
  0
LINE
  8
0
 10
1.41504
 20
0.0869141
 11
1.44824
 21
0.0771484
  0
LINE
  8
0
 10
1.44824
 20
0.0771484
 11
1.5166
 21
0.0595703
  0
LINE
  8
0
 10
1.5166
 20
0.0595703
 11
1.5498
 21
0.0507812
  0
LINE
  8
0
 10
1.5498
 20
0.0507812
 11
1.65234
 21
0.0302734
  0
LINE
  8
0
 10
1.65234
 20
0.0302734
 11
1.6875
 21
0.0244141
  0
LINE
  8
0
 10
1.6875
 20
0.0244141
 11
1.75586
 21
0.0146484
  0
LINE
  8
0
 10
1.75586
 20
0.0146484
 11
1.79102
 21
0.0107422
  0
LINE
  8
0
 10
1.79102
 20
0.0107422
 11
1.82617
 21
0.0078125
  0
LINE
  8
0
 10
1.82617
 20
0.0078125
 11
1.86035
 21
0.00488281
  0
LINE
  8
0
 10
1.86035
 20
0.00488281
 11
1.93066
 21
0.000976562
  0
LINE
  8
0
 10
1.93066
 20
0.000976562
 11
1.96484
 21
0
  0
LINE
  8
0
 10
1.96484
 20
0
 11
10.0352
 21
0
  0
LINE
  8
0
 10
10.0352
 20
0
 11
10.0693
 21
0.000976562
  0
LINE
  8
0
 10
85.5
 20
73
 11
85.5
 21
76
  0
LINE
  8
0
 10
85.5
 20
76
 11
95.5
 21
76
  0
LINE
  8
0
 10
95.5
 20
76
 11
95.5
 21
73
  0
LINE
  8
0
 10
95.5
 20
73
 11
85.5
 21
73
  0
LINE
  8
0
 10
5.41699
 20
73
 11
5.41699
 21
76
  0
LINE
  8
0
 10
5.41699
 20
76
 11
15.417
 21
76
  0
LINE
  8
0
 10
15.417
 20
76
 11
15.417
 21
73
  0
LINE
  8
0
 10
15.417
 20
73
 11
5.41699
 21
73
  0
LINE
  8
0
 10
85.9502
 20
42
 11
85.9502
 21
45
  0
LINE
  8
0
 10
85.9502
 20
45
 11
95.9502
 21
45
  0
LINE
  8
0
 10
95.9502
 20
45
 11
95.9502
 21
42
  0
LINE
  8
0
 10
95.9502
 20
42
 11
85.9502
 21
42
  0
LINE
  8
0
 10
5
 20
42
 11
5
 21
45
  0
LINE
  8
0
 10
5
 20
45
 11
15
 21
45
  0
LINE
  8
0
 10
15
 20
45
 11
15
 21
42
  0
LINE
  8
0
 10
15
 20
42
 11
5
 21
42
  0
ENDSEC
  0
SECTION
  2
OBJECTS
  0
DICTIONARY
  0
ENDSEC
  0
EOF
