  0
SECTION
  2
BLOCKS
  0
ENDSEC
  0
SECTION
  2
ENTITIES
  0
LINE
  8
0
 10
100.95
 20
55
 11
104.968
 21
55
  0
LINE
  8
0
 10
104.968
 20
55
 11
104.985
 21
55.001
  0
LINE
  8
0
 10
104.985
 20
55.001
 11
105.002
 21
55.001
  0
LINE
  8
0
 10
105.002
 20
55.001
 11
105.02
 21
55.002
  0
LINE
  8
0
 10
105.02
 20
55.002
 11
105.072
 21
55.0078
  0
LINE
  8
0
 10
105.072
 20
55.0078
 11
105.089
 21
55.0098
  0
LINE
  8
0
 10
105.089
 20
55.0098
 11
105.124
 21
55.0156
  0
LINE
  8
0
 10
105.124
 20
55.0156
 11
105.141
 21
55.0186
  0
LINE
  8
0
 10
105.141
 20
55.0186
 11
105.158
 21
55.0215
  0
LINE
  8
0
 10
105.158
 20
55.0215
 11
105.175
 21
55.0254
  0
LINE
  8
0
 10
105.175
 20
55.0254
 11
105.192
 21
55.0293
  0
LINE
  8
0
 10
105.192
 20
55.0293
 11
105.259
 21
55.0488
  0
LINE
  8
0
 10
105.259
 20
55.0488
 11
105.309
 21
55.0664
  0
LINE
  8
0
 10
105.309
 20
55.0664
 11
105.324
 21
55.0732
  0
LINE
  8
0
 10
105.324
 20
55.0732
 11
105.341
 21
55.0791
  0
LINE
  8
0
 10
105.341
 20
55.0791
 11
105.356
 21
55.0869
  0
LINE
  8
0
 10
105.356
 20
55.0869
 11
105.373
 21
55.0938
  0
LINE
  8
0
 10
105.373
 20
55.0938
 11
105.42
 21
55.1172
  0
LINE
  8
0
 10
105.42
 20
55.1172
 11
105.435
 21
55.125
  0
LINE
  8
0
 10
105.435
 20
55.125
 11
105.45
 21
55.1338
  0
LINE
  8
0
 10
105.45
 20
55.1338
 11
105.465
 21
55.1426
  0
LINE
  8
0
 10
105.465
 20
55.1426
 11
105.479
 21
55.1523
  0
LINE
  8
0
 10
105.479
 20
55.1523
 11
105.495
 21
55.1611
  0
LINE
  8
0
 10
105.495
 20
55.1611
 11
105.509
 21
55.1709
  0
LINE
  8
0
 10
105.509
 20
55.1709
 11
105.523
 21
55.1807
  0
LINE
  8
0
 10
105.523
 20
55.1807
 11
105.538
 21
55.1914
  0
LINE
  8
0
 10
105.538
 20
55.1914
 11
105.552
 21
55.2012
  0
LINE
  8
0
 10
105.552
 20
55.2012
 11
105.579
 21
55.2227
  0
LINE
  8
0
 10
105.579
 20
55.2227
 11
105.593
 21
55.2344
  0
LINE
  8
0
 10
105.593
 20
55.2344
 11
105.606
 21
55.2451
  0
LINE
  8
0
 10
105.606
 20
55.2451
 11
105.645
 21
55.2803
  0
LINE
  8
0
 10
105.645
 20
55.2803
 11
105.657
 21
55.293
  0
LINE
  8
0
 10
105.657
 20
55.293
 11
105.669
 21
55.3057
  0
LINE
  8
0
 10
105.669
 20
55.3057
 11
105.682
 21
55.3184
  0
LINE
  8
0
 10
105.682
 20
55.3184
 11
105.705
 21
55.3438
  0
LINE
  8
0
 10
105.705
 20
55.3438
 11
105.716
 21
55.3574
  0
LINE
  8
0
 10
105.716
 20
55.3574
 11
105.728
 21
55.3711
  0
LINE
  8
0
 10
105.728
 20
55.3711
 11
105.749
 21
55.3984
  0
LINE
  8
0
 10
105.749
 20
55.3984
 11
105.759
 21
55.4121
  0
LINE
  8
0
 10
105.759
 20
55.4121
 11
105.77
 21
55.4268
  0
LINE
  8
0
 10
105.77
 20
55.4268
 11
105.779
 21
55.4404
  0
LINE
  8
0
 10
105.779
 20
55.4404
 11
105.789
 21
55.4551
  0
LINE
  8
0
 10
105.789
 20
55.4551
 11
105.798
 21
55.4697
  0
LINE
  8
0
 10
105.798
 20
55.4697
 11
105.808
 21
55.4854
  0
LINE
  8
0
 10
105.808
 20
55.4854
 11
105.816
 21
55.5
  0
LINE
  8
0
 10
105.816
 20
55.5
 11
105.824
 21
55.5156
  0
LINE
  8
0
 10
105.824
 20
55.5156
 11
105.833
 21
55.5303
  0
LINE
  8
0
 10
105.833
 20
55.5303
 11
105.856
 21
55.5771
  0
LINE
  8
0
 10
105.856
 20
55.5771
 11
105.863
 21
55.5938
  0
LINE
  8
0
 10
105.863
 20
55.5938
 11
105.877
 21
55.625
  0
LINE
  8
0
 10
105.877
 20
55.625
 11
105.884
 21
55.6416
  0
LINE
  8
0
 10
105.884
 20
55.6416
 11
105.901
 21
55.6914
  0
LINE
  8
0
 10
105.901
 20
55.6914
 11
105.916
 21
55.7412
  0
LINE
  8
0
 10
105.916
 20
55.7412
 11
105.92
 21
55.7578
  0
LINE
  8
0
 10
105.92
 20
55.7578
 11
105.925
 21
55.7754
  0
LINE
  8
0
 10
105.925
 20
55.7754
 11
105.928
 21
55.792
  0
LINE
  8
0
 10
105.928
 20
55.792
 11
105.932
 21
55.8096
  0
LINE
  8
0
 10
105.932
 20
55.8096
 11
105.935
 21
55.8262
  0
LINE
  8
0
 10
105.935
 20
55.8262
 11
105.938
 21
55.8438
  0
LINE
  8
0
 10
105.938
 20
55.8438
 11
105.94
 21
55.8604
  0
LINE
  8
0
 10
105.94
 20
55.8604
 11
105.946
 21
55.9131
  0
LINE
  8
0
 10
105.946
 20
55.9131
 11
105.947
 21
55.9307
  0
LINE
  8
0
 10
105.947
 20
55.9307
 11
105.948
 21
55.9473
  0
LINE
  8
0
 10
105.948
 20
55.9473
 11
105.95
 21
55.9824
  0
LINE
  8
0
 10
105.95
 20
55.9824
 11
105.95
 21
64.0176
  0
LINE
  8
0
 10
105.95
 20
64.0176
 11
105.948
 21
64.0527
  0
LINE
  8
0
 10
105.948
 20
64.0527
 11
105.947
 21
64.0693
  0
LINE
  8
0
 10
105.947
 20
64.0693
 11
105.946
 21
64.0869
  0
LINE
  8
0
 10
105.946
 20
64.0869
 11
105.94
 21
64.1396
  0
LINE
  8
0
 10
105.94
 20
64.1396
 11
105.938
 21
64.1562
  0
LINE
  8
0
 10
105.938
 20
64.1562
 11
105.935
 21
64.1738
  0
LINE
  8
0
 10
105.935
 20
64.1738
 11
105.932
 21
64.1904
  0
LINE
  8
0
 10
105.932
 20
64.1904
 11
105.928
 21
64.208
  0
LINE
  8
0
 10
105.928
 20
64.208
 11
105.925
 21
64.2246
  0
LINE
  8
0
 10
105.925
 20
64.2246
 11
105.92
 21
64.2422
  0
LINE
  8
0
 10
105.92
 20
64.2422
 11
105.916
 21
64.2588
  0
LINE
  8
0
 10
105.916
 20
64.2588
 11
105.901
 21
64.3086
  0
LINE
  8
0
 10
105.901
 20
64.3086
 11
105.884
 21
64.3584
  0
LINE
  8
0
 10
105.884
 20
64.3584
 11
105.877
 21
64.375
  0
LINE
  8
0
 10
105.877
 20
64.375
 11
105.863
 21
64.4062
  0
LINE
  8
0
 10
105.863
 20
64.4062
 11
105.856
 21
64.4229
  0
LINE
  8
0
 10
105.856
 20
64.4229
 11
105.833
 21
64.4697
  0
LINE
  8
0
 10
105.833
 20
64.4697
 11
105.824
 21
64.4844
  0
LINE
  8
0
 10
105.824
 20
64.4844
 11
105.816
 21
64.5
  0
LINE
  8
0
 10
105.816
 20
64.5
 11
105.808
 21
64.5146
  0
LINE
  8
0
 10
105.808
 20
64.5146
 11
105.798
 21
64.5303
  0
LINE
  8
0
 10
105.798
 20
64.5303
 11
105.789
 21
64.5449
  0
LINE
  8
0
 10
105.789
 20
64.5449
 11
105.779
 21
64.5596
  0
LINE
  8
0
 10
105.779
 20
64.5596
 11
105.77
 21
64.5732
  0
LINE
  8
0
 10
105.77
 20
64.5732
 11
105.759
 21
64.5879
  0
LINE
  8
0
 10
105.759
 20
64.5879
 11
105.749
 21
64.6016
  0
LINE
  8
0
 10
105.749
 20
64.6016
 11
105.728
 21
64.6289
  0
LINE
  8
0
 10
105.728
 20
64.6289
 11
105.716
 21
64.6426
  0
LINE
  8
0
 10
105.716
 20
64.6426
 11
105.705
 21
64.6562
  0
LINE
  8
0
 10
105.705
 20
64.6562
 11
105.682
 21
64.6816
  0
LINE
  8
0
 10
105.682
 20
64.6816
 11
105.669
 21
64.6943
  0
LINE
  8
0
 10
105.669
 20
64.6943
 11
105.657
 21
64.707
  0
LINE
  8
0
 10
105.657
 20
64.707
 11
105.645
 21
64.7197
  0
LINE
  8
0
 10
105.645
 20
64.7197
 11
105.606
 21
64.7549
  0
LINE
  8
0
 10
105.606
 20
64.7549
 11
105.593
 21
64.7656
  0
LINE
  8
0
 10
105.593
 20
64.7656
 11
105.579
 21
64.7773
  0
LINE
  8
0
 10
105.579
 20
64.7773
 11
105.552
 21
64.7988
  0
LINE
  8
0
 10
105.552
 20
64.7988
 11
105.538
 21
64.8086
  0
LINE
  8
0
 10
105.538
 20
64.8086
 11
105.523
 21
64.8193
  0
LINE
  8
0
 10
105.523
 20
64.8193
 11
105.509
 21
64.8291
  0
LINE
  8
0
 10
105.509
 20
64.8291
 11
105.495
 21
64.8389
  0
LINE
  8
0
 10
105.495
 20
64.8389
 11
105.479
 21
64.8477
  0
LINE
  8
0
 10
105.479
 20
64.8477
 11
105.465
 21
64.8574
  0
LINE
  8
0
 10
105.465
 20
64.8574
 11
105.45
 21
64.8662
  0
LINE
  8
0
 10
105.45
 20
64.8662
 11
105.435
 21
64.875
  0
LINE
  8
0
 10
105.435
 20
64.875
 11
105.42
 21
64.8828
  0
LINE
  8
0
 10
105.42
 20
64.8828
 11
105.373
 21
64.9062
  0
LINE
  8
0
 10
105.373
 20
64.9062
 11
105.356
 21
64.9131
  0
LINE
  8
0
 10
105.356
 20
64.9131
 11
105.341
 21
64.9209
  0
LINE
  8
0
 10
105.341
 20
64.9209
 11
105.324
 21
64.9268
  0
LINE
  8
0
 10
105.324
 20
64.9268
 11
105.309
 21
64.9336
  0
LINE
  8
0
 10
105.309
 20
64.9336
 11
105.259
 21
64.9512
  0
LINE
  8
0
 10
105.259
 20
64.9512
 11
105.192
 21
64.9707
  0
LINE
  8
0
 10
105.192
 20
64.9707
 11
105.175
 21
64.9746
  0
LINE
  8
0
 10
105.175
 20
64.9746
 11
105.158
 21
64.9785
  0
LINE
  8
0
 10
105.158
 20
64.9785
 11
105.141
 21
64.9814
  0
LINE
  8
0
 10
105.141
 20
64.9814
 11
105.124
 21
64.9844
  0
LINE
  8
0
 10
105.124
 20
64.9844
 11
105.089
 21
64.9902
  0
LINE
  8
0
 10
105.089
 20
64.9902
 11
105.072
 21
64.9922
  0
LINE
  8
0
 10
105.072
 20
64.9922
 11
105.02
 21
64.998
  0
LINE
  8
0
 10
105.02
 20
64.998
 11
105.002
 21
64.999
  0
LINE
  8
0
 10
105.002
 20
64.999
 11
104.985
 21
64.999
  0
LINE
  8
0
 10
104.985
 20
64.999
 11
104.968
 21
65
  0
LINE
  8
0
 10
104.968
 20
65
 11
100.95
 21
65
  0
LINE
  8
0
 10
100.95
 20
65
 11
100.95
 21
125
  0
LINE
  8
0
 10
100.95
 20
125
 11
104.968
 21
125
  0
LINE
  8
0
 10
104.968
 20
125
 11
104.985
 21
125.001
  0
LINE
  8
0
 10
104.985
 20
125.001
 11
105.002
 21
125.001
  0
LINE
  8
0
 10
105.002
 20
125.001
 11
105.02
 21
125.002
  0
LINE
  8
0
 10
105.02
 20
125.002
 11
105.072
 21
125.008
  0
LINE
  8
0
 10
105.072
 20
125.008
 11
105.089
 21
125.01
  0
LINE
  8
0
 10
105.089
 20
125.01
 11
105.124
 21
125.016
  0
LINE
  8
0
 10
105.124
 20
125.016
 11
105.141
 21
125.019
  0
LINE
  8
0
 10
105.141
 20
125.019
 11
105.158
 21
125.021
  0
LINE
  8
0
 10
105.158
 20
125.021
 11
105.175
 21
125.025
  0
LINE
  8
0
 10
105.175
 20
125.025
 11
105.192
 21
125.029
  0
LINE
  8
0
 10
105.192
 20
125.029
 11
105.259
 21
125.049
  0
LINE
  8
0
 10
105.259
 20
125.049
 11
105.309
 21
125.066
  0
LINE
  8
0
 10
105.309
 20
125.066
 11
105.324
 21
125.073
  0
LINE
  8
0
 10
105.324
 20
125.073
 11
105.341
 21
125.079
  0
LINE
  8
0
 10
105.341
 20
125.079
 11
105.356
 21
125.087
  0
LINE
  8
0
 10
105.356
 20
125.087
 11
105.373
 21
125.094
  0
LINE
  8
0
 10
105.373
 20
125.094
 11
105.42
 21
125.117
  0
LINE
  8
0
 10
105.42
 20
125.117
 11
105.435
 21
125.125
  0
LINE
  8
0
 10
105.435
 20
125.125
 11
105.45
 21
125.134
  0
LINE
  8
0
 10
105.45
 20
125.134
 11
105.465
 21
125.143
  0
LINE
  8
0
 10
105.465
 20
125.143
 11
105.479
 21
125.152
  0
LINE
  8
0
 10
105.479
 20
125.152
 11
105.495
 21
125.161
  0
LINE
  8
0
 10
105.495
 20
125.161
 11
105.509
 21
125.171
  0
LINE
  8
0
 10
105.509
 20
125.171
 11
105.523
 21
125.181
  0
LINE
  8
0
 10
105.523
 20
125.181
 11
105.538
 21
125.191
  0
LINE
  8
0
 10
105.538
 20
125.191
 11
105.552
 21
125.201
  0
LINE
  8
0
 10
105.552
 20
125.201
 11
105.579
 21
125.223
  0
LINE
  8
0
 10
105.579
 20
125.223
 11
105.593
 21
125.234
  0
LINE
  8
0
 10
105.593
 20
125.234
 11
105.606
 21
125.245
  0
LINE
  8
0
 10
105.606
 20
125.245
 11
105.645
 21
125.28
  0
LINE
  8
0
 10
105.645
 20
125.28
 11
105.657
 21
125.293
  0
LINE
  8
0
 10
105.657
 20
125.293
 11
105.669
 21
125.306
  0
LINE
  8
0
 10
105.669
 20
125.306
 11
105.682
 21
125.318
  0
LINE
  8
0
 10
105.682
 20
125.318
 11
105.705
 21
125.344
  0
LINE
  8
0
 10
105.705
 20
125.344
 11
105.716
 21
125.357
  0
LINE
  8
0
 10
105.716
 20
125.357
 11
105.728
 21
125.371
  0
LINE
  8
0
 10
105.728
 20
125.371
 11
105.749
 21
125.398
  0
LINE
  8
0
 10
105.749
 20
125.398
 11
105.759
 21
125.412
  0
LINE
  8
0
 10
105.759
 20
125.412
 11
105.77
 21
125.427
  0
LINE
  8
0
 10
105.77
 20
125.427
 11
105.779
 21
125.44
  0
LINE
  8
0
 10
105.779
 20
125.44
 11
105.789
 21
125.455
  0
LINE
  8
0
 10
105.789
 20
125.455
 11
105.798
 21
125.47
  0
LINE
  8
0
 10
105.798
 20
125.47
 11
105.808
 21
125.485
  0
LINE
  8
0
 10
105.808
 20
125.485
 11
105.816
 21
125.5
  0
LINE
  8
0
 10
105.816
 20
125.5
 11
105.824
 21
125.516
  0
LINE
  8
0
 10
105.824
 20
125.516
 11
105.833
 21
125.53
  0
LINE
  8
0
 10
105.833
 20
125.53
 11
105.856
 21
125.577
  0
LINE
  8
0
 10
105.856
 20
125.577
 11
105.863
 21
125.594
  0
LINE
  8
0
 10
105.863
 20
125.594
 11
105.877
 21
125.625
  0
LINE
  8
0
 10
105.877
 20
125.625
 11
105.884
 21
125.642
  0
LINE
  8
0
 10
105.884
 20
125.642
 11
105.901
 21
125.691
  0
LINE
  8
0
 10
105.901
 20
125.691
 11
105.916
 21
125.741
  0
LINE
  8
0
 10
105.916
 20
125.741
 11
105.92
 21
125.758
  0
LINE
  8
0
 10
105.92
 20
125.758
 11
105.925
 21
125.775
  0
LINE
  8
0
 10
105.925
 20
125.775
 11
105.928
 21
125.792
  0
LINE
  8
0
 10
105.928
 20
125.792
 11
105.932
 21
125.81
  0
LINE
  8
0
 10
105.932
 20
125.81
 11
105.935
 21
125.826
  0
LINE
  8
0
 10
105.935
 20
125.826
 11
105.938
 21
125.844
  0
LINE
  8
0
 10
105.938
 20
125.844
 11
105.94
 21
125.86
  0
LINE
  8
0
 10
105.94
 20
125.86
 11
105.946
 21
125.913
  0
LINE
  8
0
 10
105.946
 20
125.913
 11
105.947
 21
125.931
  0
LINE
  8
0
 10
105.947
 20
125.931
 11
105.948
 21
125.947
  0
LINE
  8
0
 10
105.948
 20
125.947
 11
105.95
 21
125.982
  0
LINE
  8
0
 10
105.95
 20
125.982
 11
105.95
 21
134.018
  0
LINE
  8
0
 10
105.95
 20
134.018
 11
105.948
 21
134.053
  0
LINE
  8
0
 10
105.948
 20
134.053
 11
105.947
 21
134.069
  0
LINE
  8
0
 10
105.947
 20
134.069
 11
105.946
 21
134.087
  0
LINE
  8
0
 10
105.946
 20
134.087
 11
105.94
 21
134.14
  0
LINE
  8
0
 10
105.94
 20
134.14
 11
105.938
 21
134.156
  0
LINE
  8
0
 10
105.938
 20
134.156
 11
105.935
 21
134.174
  0
LINE
  8
0
 10
105.935
 20
134.174
 11
105.932
 21
134.19
  0
LINE
  8
0
 10
105.932
 20
134.19
 11
105.928
 21
134.208
  0
LINE
  8
0
 10
105.928
 20
134.208
 11
105.925
 21
134.225
  0
LINE
  8
0
 10
105.925
 20
134.225
 11
105.92
 21
134.242
  0
LINE
  8
0
 10
105.92
 20
134.242
 11
105.916
 21
134.259
  0
LINE
  8
0
 10
105.916
 20
134.259
 11
105.901
 21
134.309
  0
LINE
  8
0
 10
105.901
 20
134.309
 11
105.884
 21
134.358
  0
LINE
  8
0
 10
105.884
 20
134.358
 11
105.877
 21
134.375
  0
LINE
  8
0
 10
105.877
 20
134.375
 11
105.863
 21
134.406
  0
LINE
  8
0
 10
105.863
 20
134.406
 11
105.856
 21
134.423
  0
LINE
  8
0
 10
105.856
 20
134.423
 11
105.833
 21
134.47
  0
LINE
  8
0
 10
105.833
 20
134.47
 11
105.824
 21
134.484
  0
LINE
  8
0
 10
105.824
 20
134.484
 11
105.816
 21
134.5
  0
LINE
  8
0
 10
105.816
 20
134.5
 11
105.808
 21
134.515
  0
LINE
  8
0
 10
105.808
 20
134.515
 11
105.798
 21
134.53
  0
LINE
  8
0
 10
105.798
 20
134.53
 11
105.789
 21
134.545
  0
LINE
  8
0
 10
105.789
 20
134.545
 11
105.779
 21
134.56
  0
LINE
  8
0
 10
105.779
 20
134.56
 11
105.77
 21
134.573
  0
LINE
  8
0
 10
105.77
 20
134.573
 11
105.759
 21
134.588
  0
LINE
  8
0
 10
105.759
 20
134.588
 11
105.749
 21
134.602
  0
LINE
  8
0
 10
105.749
 20
134.602
 11
105.728
 21
134.629
  0
LINE
  8
0
 10
105.728
 20
134.629
 11
105.716
 21
134.643
  0
LINE
  8
0
 10
105.716
 20
134.643
 11
105.705
 21
134.656
  0
LINE
  8
0
 10
105.705
 20
134.656
 11
105.682
 21
134.682
  0
LINE
  8
0
 10
105.682
 20
134.682
 11
105.669
 21
134.694
  0
LINE
  8
0
 10
105.669
 20
134.694
 11
105.657
 21
134.707
  0
LINE
  8
0
 10
105.657
 20
134.707
 11
105.645
 21
134.72
  0
LINE
  8
0
 10
105.645
 20
134.72
 11
105.606
 21
134.755
  0
LINE
  8
0
 10
105.606
 20
134.755
 11
105.593
 21
134.766
  0
LINE
  8
0
 10
105.593
 20
134.766
 11
105.579
 21
134.777
  0
LINE
  8
0
 10
105.579
 20
134.777
 11
105.552
 21
134.799
  0
LINE
  8
0
 10
105.552
 20
134.799
 11
105.538
 21
134.809
  0
LINE
  8
0
 10
105.538
 20
134.809
 11
105.523
 21
134.819
  0
LINE
  8
0
 10
105.523
 20
134.819
 11
105.509
 21
134.829
  0
LINE
  8
0
 10
105.509
 20
134.829
 11
105.495
 21
134.839
  0
LINE
  8
0
 10
105.495
 20
134.839
 11
105.479
 21
134.848
  0
LINE
  8
0
 10
105.479
 20
134.848
 11
105.465
 21
134.857
  0
LINE
  8
0
 10
105.465
 20
134.857
 11
105.45
 21
134.866
  0
LINE
  8
0
 10
105.45
 20
134.866
 11
105.435
 21
134.875
  0
LINE
  8
0
 10
105.435
 20
134.875
 11
105.42
 21
134.883
  0
LINE
  8
0
 10
105.42
 20
134.883
 11
105.373
 21
134.906
  0
LINE
  8
0
 10
105.373
 20
134.906
 11
105.356
 21
134.913
  0
LINE
  8
0
 10
105.356
 20
134.913
 11
105.341
 21
134.921
  0
LINE
  8
0
 10
105.341
 20
134.921
 11
105.324
 21
134.927
  0
LINE
  8
0
 10
105.324
 20
134.927
 11
105.309
 21
134.934
  0
LINE
  8
0
 10
105.309
 20
134.934
 11
105.259
 21
134.951
  0
LINE
  8
0
 10
105.259
 20
134.951
 11
105.192
 21
134.971
  0
LINE
  8
0
 10
105.192
 20
134.971
 11
105.175
 21
134.975
  0
LINE
  8
0
 10
105.175
 20
134.975
 11
105.158
 21
134.979
  0
LINE
  8
0
 10
105.158
 20
134.979
 11
105.141
 21
134.981
  0
LINE
  8
0
 10
105.141
 20
134.981
 11
105.124
 21
134.984
  0
LINE
  8
0
 10
105.124
 20
134.984
 11
105.089
 21
134.99
  0
LINE
  8
0
 10
105.089
 20
134.99
 11
105.072
 21
134.992
  0
LINE
  8
0
 10
105.072
 20
134.992
 11
105.02
 21
134.998
  0
LINE
  8
0
 10
105.02
 20
134.998
 11
105.002
 21
134.999
  0
LINE
  8
0
 10
105.002
 20
134.999
 11
104.985
 21
134.999
  0
LINE
  8
0
 10
104.985
 20
134.999
 11
104.968
 21
135
  0
LINE
  8
0
 10
104.968
 20
135
 11
104.95
 21
135
  0
LINE
  8
0
 10
104.95
 20
135
 11
98.75
 21
135.032
  0
LINE
  8
0
 10
98.75
 20
135.032
 11
98.75
 21
43.25
  0
LINE
  8
0
 10
98.75
 20
43.25
 11
95.7842
 21
43.25
  0
LINE
  8
0
 10
95.7842
 20
43.25
 11
95.7842
 21
135
  0
LINE
  8
0
 10
95.7842
 20
135
 11
83.5
 21
135
  0
LINE
  8
0
 10
83.5
 20
135
 11
83.4854
 21
43.168
  0
LINE
  8
0
 10
83.4854
 20
43.168
 11
62.4854
 21
43.168
  0
LINE
  8
0
 10
62.4854
 20
43.168
 11
62.4854
 21
39.418
  0
LINE
  8
0
 10
62.4854
 20
39.418
 11
54.9854
 21
39.418
  0
LINE
  8
0
 10
54.9854
 20
39.418
 11
54.9785
 21
43.168
  0
LINE
  8
0
 10
54.9785
 20
43.168
 11
17.2354
 21
43.168
  0
LINE
  8
0
 10
17.2354
 20
43.168
 11
17.25
 21
135
  0
LINE
  8
0
 10
17.25
 20
135
 11
5.25
 21
135
  0
LINE
  8
0
 10
5.25
 20
135
 11
5.25
 21
43.25
  0
LINE
  8
0
 10
5.25
 20
43.25
 11
2.25
 21
43.25
  0
LINE
  8
0
 10
2.25
 20
43.25
 11
2.25
 21
135
  0
LINE
  8
0
 10
2.25
 20
135
 11
-4.01758
 21
135
  0
LINE
  8
0
 10
-4.01758
 20
135
 11
-4.03516
 21
134.999
  0
LINE
  8
0
 10
-4.03516
 20
134.999
 11
-4.05273
 21
134.999
  0
LINE
  8
0
 10
-4.05273
 20
134.999
 11
-4.06934
 21
134.998
  0
LINE
  8
0
 10
-4.06934
 20
134.998
 11
-4.13965
 21
134.99
  0
LINE
  8
0
 10
-4.13965
 20
134.99
 11
-4.15625
 21
134.987
  0
LINE
  8
0
 10
-4.15625
 20
134.987
 11
-4.17383
 21
134.984
  0
LINE
  8
0
 10
-4.17383
 20
134.984
 11
-4.19043
 21
134.981
  0
LINE
  8
0
 10
-4.19043
 20
134.981
 11
-4.20801
 21
134.979
  0
LINE
  8
0
 10
-4.20801
 20
134.979
 11
-4.22461
 21
134.975
  0
LINE
  8
0
 10
-4.22461
 20
134.975
 11
-4.24219
 21
134.971
  0
LINE
  8
0
 10
-4.24219
 20
134.971
 11
-4.30859
 21
134.951
  0
LINE
  8
0
 10
-4.30859
 20
134.951
 11
-4.3584
 21
134.934
  0
LINE
  8
0
 10
-4.3584
 20
134.934
 11
-4.375
 21
134.927
  0
LINE
  8
0
 10
-4.375
 20
134.927
 11
-4.39062
 21
134.921
  0
LINE
  8
0
 10
-4.39062
 20
134.921
 11
-4.40625
 21
134.913
  0
LINE
  8
0
 10
-4.40625
 20
134.913
 11
-4.42285
 21
134.906
  0
LINE
  8
0
 10
-4.42285
 20
134.906
 11
-4.46973
 21
134.883
  0
LINE
  8
0
 10
-4.46973
 20
134.883
 11
-4.48438
 21
134.875
  0
LINE
  8
0
 10
-4.48438
 20
134.875
 11
-4.5
 21
134.866
  0
LINE
  8
0
 10
-4.5
 20
134.866
 11
-4.51465
 21
134.857
  0
LINE
  8
0
 10
-4.51465
 20
134.857
 11
-4.53027
 21
134.848
  0
LINE
  8
0
 10
-4.53027
 20
134.848
 11
-4.54492
 21
134.839
  0
LINE
  8
0
 10
-4.54492
 20
134.839
 11
-4.55957
 21
134.829
  0
LINE
  8
0
 10
-4.55957
 20
134.829
 11
-4.57324
 21
134.819
  0
LINE
  8
0
 10
-4.57324
 20
134.819
 11
-4.58789
 21
134.809
  0
LINE
  8
0
 10
-4.58789
 20
134.809
 11
-4.60156
 21
134.799
  0
LINE
  8
0
 10
-4.60156
 20
134.799
 11
-4.62891
 21
134.777
  0
LINE
  8
0
 10
-4.62891
 20
134.777
 11
-4.64258
 21
134.766
  0
LINE
  8
0
 10
-4.64258
 20
134.766
 11
-4.65625
 21
134.755
  0
LINE
  8
0
 10
-4.65625
 20
134.755
 11
-4.69434
 21
134.72
  0
LINE
  8
0
 10
-4.69434
 20
134.72
 11
-4.71973
 21
134.694
  0
LINE
  8
0
 10
-4.71973
 20
134.694
 11
-4.75488
 21
134.656
  0
LINE
  8
0
 10
-4.75488
 20
134.656
 11
-4.76562
 21
134.643
  0
LINE
  8
0
 10
-4.76562
 20
134.643
 11
-4.77734
 21
134.629
  0
LINE
  8
0
 10
-4.77734
 20
134.629
 11
-4.79883
 21
134.602
  0
LINE
  8
0
 10
-4.79883
 20
134.602
 11
-4.80859
 21
134.588
  0
LINE
  8
0
 10
-4.80859
 20
134.588
 11
-4.81934
 21
134.573
  0
LINE
  8
0
 10
-4.81934
 20
134.573
 11
-4.8291
 21
134.56
  0
LINE
  8
0
 10
-4.8291
 20
134.56
 11
-4.83887
 21
134.545
  0
LINE
  8
0
 10
-4.83887
 20
134.545
 11
-4.84766
 21
134.53
  0
LINE
  8
0
 10
-4.84766
 20
134.53
 11
-4.85742
 21
134.515
  0
LINE
  8
0
 10
-4.85742
 20
134.515
 11
-4.86621
 21
134.5
  0
LINE
  8
0
 10
-4.86621
 20
134.5
 11
-4.875
 21
134.484
  0
LINE
  8
0
 10
-4.875
 20
134.484
 11
-4.88281
 21
134.47
  0
LINE
  8
0
 10
-4.88281
 20
134.47
 11
-4.90625
 21
134.423
  0
LINE
  8
0
 10
-4.90625
 20
134.423
 11
-4.91309
 21
134.406
  0
LINE
  8
0
 10
-4.91309
 20
134.406
 11
-4.9209
 21
134.391
  0
LINE
  8
0
 10
-4.9209
 20
134.391
 11
-4.92676
 21
134.375
  0
LINE
  8
0
 10
-4.92676
 20
134.375
 11
-4.93359
 21
134.358
  0
LINE
  8
0
 10
-4.93359
 20
134.358
 11
-4.95117
 21
134.309
  0
LINE
  8
0
 10
-4.95117
 20
134.309
 11
-4.9707
 21
134.242
  0
LINE
  8
0
 10
-4.9707
 20
134.242
 11
-4.97461
 21
134.225
  0
LINE
  8
0
 10
-4.97461
 20
134.225
 11
-4.97852
 21
134.208
  0
LINE
  8
0
 10
-4.97852
 20
134.208
 11
-4.98145
 21
134.19
  0
LINE
  8
0
 10
-4.98145
 20
134.19
 11
-4.98438
 21
134.174
  0
LINE
  8
0
 10
-4.98438
 20
134.174
 11
-4.9873
 21
134.156
  0
LINE
  8
0
 10
-4.9873
 20
134.156
 11
-4.99023
 21
134.14
  0
LINE
  8
0
 10
-4.99023
 20
134.14
 11
-4.99805
 21
134.069
  0
LINE
  8
0
 10
-4.99805
 20
134.069
 11
-4.99902
 21
134.053
  0
LINE
  8
0
 10
-4.99902
 20
134.053
 11
-4.99902
 21
134.035
  0
LINE
  8
0
 10
-4.99902
 20
134.035
 11
-5
 21
134.018
  0
LINE
  8
0
 10
-5
 20
134.018
 11
-5
 21
125.982
  0
LINE
  8
0
 10
-5
 20
125.982
 11
-4.99902
 21
125.965
  0
LINE
  8
0
 10
-4.99902
 20
125.965
 11
-4.99902
 21
125.947
  0
LINE
  8
0
 10
-4.99902
 20
125.947
 11
-4.99805
 21
125.931
  0
LINE
  8
0
 10
-4.99805
 20
125.931
 11
-4.99023
 21
125.86
  0
LINE
  8
0
 10
-4.99023
 20
125.86
 11
-4.9873
 21
125.844
  0
LINE
  8
0
 10
-4.9873
 20
125.844
 11
-4.98438
 21
125.826
  0
LINE
  8
0
 10
-4.98438
 20
125.826
 11
-4.98145
 21
125.81
  0
LINE
  8
0
 10
-4.98145
 20
125.81
 11
-4.97852
 21
125.792
  0
LINE
  8
0
 10
-4.97852
 20
125.792
 11
-4.97461
 21
125.775
  0
LINE
  8
0
 10
-4.97461
 20
125.775
 11
-4.9707
 21
125.758
  0
LINE
  8
0
 10
-4.9707
 20
125.758
 11
-4.95117
 21
125.691
  0
LINE
  8
0
 10
-4.95117
 20
125.691
 11
-4.93359
 21
125.642
  0
LINE
  8
0
 10
-4.93359
 20
125.642
 11
-4.92676
 21
125.625
  0
LINE
  8
0
 10
-4.92676
 20
125.625
 11
-4.9209
 21
125.609
  0
LINE
  8
0
 10
-4.9209
 20
125.609
 11
-4.91309
 21
125.594
  0
LINE
  8
0
 10
-4.91309
 20
125.594
 11
-4.90625
 21
125.577
  0
LINE
  8
0
 10
-4.90625
 20
125.577
 11
-4.88281
 21
125.53
  0
LINE
  8
0
 10
-4.88281
 20
125.53
 11
-4.875
 21
125.516
  0
LINE
  8
0
 10
-4.875
 20
125.516
 11
-4.86621
 21
125.5
  0
LINE
  8
0
 10
-4.86621
 20
125.5
 11
-4.85742
 21
125.485
  0
LINE
  8
0
 10
-4.85742
 20
125.485
 11
-4.84766
 21
125.47
  0
LINE
  8
0
 10
-4.84766
 20
125.47
 11
-4.83887
 21
125.455
  0
LINE
  8
0
 10
-4.83887
 20
125.455
 11
-4.8291
 21
125.44
  0
LINE
  8
0
 10
-4.8291
 20
125.44
 11
-4.81934
 21
125.427
  0
LINE
  8
0
 10
-4.81934
 20
125.427
 11
-4.80859
 21
125.412
  0
LINE
  8
0
 10
-4.80859
 20
125.412
 11
-4.79883
 21
125.398
  0
LINE
  8
0
 10
-4.79883
 20
125.398
 11
-4.77734
 21
125.371
  0
LINE
  8
0
 10
-4.77734
 20
125.371
 11
-4.76562
 21
125.357
  0
LINE
  8
0
 10
-4.76562
 20
125.357
 11
-4.75488
 21
125.344
  0
LINE
  8
0
 10
-4.75488
 20
125.344
 11
-4.71973
 21
125.306
  0
LINE
  8
0
 10
-4.71973
 20
125.306
 11
-4.69434
 21
125.28
  0
LINE
  8
0
 10
-4.69434
 20
125.28
 11
-4.65625
 21
125.245
  0
LINE
  8
0
 10
-4.65625
 20
125.245
 11
-4.64258
 21
125.234
  0
LINE
  8
0
 10
-4.64258
 20
125.234
 11
-4.62891
 21
125.223
  0
LINE
  8
0
 10
-4.62891
 20
125.223
 11
-4.60156
 21
125.201
  0
LINE
  8
0
 10
-4.60156
 20
125.201
 11
-4.58789
 21
125.191
  0
LINE
  8
0
 10
-4.58789
 20
125.191
 11
-4.57324
 21
125.181
  0
LINE
  8
0
 10
-4.57324
 20
125.181
 11
-4.55957
 21
125.171
  0
LINE
  8
0
 10
-4.55957
 20
125.171
 11
-4.54492
 21
125.161
  0
LINE
  8
0
 10
-4.54492
 20
125.161
 11
-4.53027
 21
125.152
  0
LINE
  8
0
 10
-4.53027
 20
125.152
 11
-4.51465
 21
125.143
  0
LINE
  8
0
 10
-4.51465
 20
125.143
 11
-4.5
 21
125.134
  0
LINE
  8
0
 10
-4.5
 20
125.134
 11
-4.48438
 21
125.125
  0
LINE
  8
0
 10
-4.48438
 20
125.125
 11
-4.46973
 21
125.117
  0
LINE
  8
0
 10
-4.46973
 20
125.117
 11
-4.42285
 21
125.094
  0
LINE
  8
0
 10
-4.42285
 20
125.094
 11
-4.40625
 21
125.087
  0
LINE
  8
0
 10
-4.40625
 20
125.087
 11
-4.39062
 21
125.079
  0
LINE
  8
0
 10
-4.39062
 20
125.079
 11
-4.375
 21
125.073
  0
LINE
  8
0
 10
-4.375
 20
125.073
 11
-4.3584
 21
125.066
  0
LINE
  8
0
 10
-4.3584
 20
125.066
 11
-4.30859
 21
125.049
  0
LINE
  8
0
 10
-4.30859
 20
125.049
 11
-4.24219
 21
125.029
  0
LINE
  8
0
 10
-4.24219
 20
125.029
 11
-4.22461
 21
125.025
  0
LINE
  8
0
 10
-4.22461
 20
125.025
 11
-4.20801
 21
125.021
  0
LINE
  8
0
 10
-4.20801
 20
125.021
 11
-4.19043
 21
125.019
  0
LINE
  8
0
 10
-4.19043
 20
125.019
 11
-4.17383
 21
125.016
  0
LINE
  8
0
 10
-4.17383
 20
125.016
 11
-4.15625
 21
125.013
  0
LINE
  8
0
 10
-4.15625
 20
125.013
 11
-4.13965
 21
125.01
  0
LINE
  8
0
 10
-4.13965
 20
125.01
 11
-4.06934
 21
125.002
  0
LINE
  8
0
 10
-4.06934
 20
125.002
 11
-4.05273
 21
125.001
  0
LINE
  8
0
 10
-4.05273
 20
125.001
 11
-4.03516
 21
125.001
  0
LINE
  8
0
 10
-4.03516
 20
125.001
 11
-4.01758
 21
125
  0
LINE
  8
0
 10
-4.01758
 20
125
 11
0
 21
125
  0
LINE
  8
0
 10
0
 20
125
 11
0
 21
65
  0
LINE
  8
0
 10
0
 20
65
 11
-4.01758
 21
65
  0
LINE
  8
0
 10
-4.01758
 20
65
 11
-4.03516
 21
64.999
  0
LINE
  8
0
 10
-4.03516
 20
64.999
 11
-4.05273
 21
64.999
  0
LINE
  8
0
 10
-4.05273
 20
64.999
 11
-4.06934
 21
64.998
  0
LINE
  8
0
 10
-4.06934
 20
64.998
 11
-4.13965
 21
64.9902
  0
LINE
  8
0
 10
-4.13965
 20
64.9902
 11
-4.15625
 21
64.9873
  0
LINE
  8
0
 10
-4.15625
 20
64.9873
 11
-4.17383
 21
64.9844
  0
LINE
  8
0
 10
-4.17383
 20
64.9844
 11
-4.19043
 21
64.9814
  0
LINE
  8
0
 10
-4.19043
 20
64.9814
 11
-4.20801
 21
64.9785
  0
LINE
  8
0
 10
-4.20801
 20
64.9785
 11
-4.22461
 21
64.9746
  0
LINE
  8
0
 10
-4.22461
 20
64.9746
 11
-4.24219
 21
64.9707
  0
LINE
  8
0
 10
-4.24219
 20
64.9707
 11
-4.30859
 21
64.9512
  0
LINE
  8
0
 10
-4.30859
 20
64.9512
 11
-4.3584
 21
64.9336
  0
LINE
  8
0
 10
-4.3584
 20
64.9336
 11
-4.375
 21
64.9268
  0
LINE
  8
0
 10
-4.375
 20
64.9268
 11
-4.39062
 21
64.9209
  0
LINE
  8
0
 10
-4.39062
 20
64.9209
 11
-4.40625
 21
64.9131
  0
LINE
  8
0
 10
-4.40625
 20
64.9131
 11
-4.42285
 21
64.9062
  0
LINE
  8
0
 10
-4.42285
 20
64.9062
 11
-4.46973
 21
64.8828
  0
LINE
  8
0
 10
-4.46973
 20
64.8828
 11
-4.48438
 21
64.875
  0
LINE
  8
0
 10
-4.48438
 20
64.875
 11
-4.5
 21
64.8662
  0
LINE
  8
0
 10
-4.5
 20
64.8662
 11
-4.51465
 21
64.8574
  0
LINE
  8
0
 10
-4.51465
 20
64.8574
 11
-4.53027
 21
64.8477
  0
LINE
  8
0
 10
-4.53027
 20
64.8477
 11
-4.54492
 21
64.8389
  0
LINE
  8
0
 10
-4.54492
 20
64.8389
 11
-4.55957
 21
64.8291
  0
LINE
  8
0
 10
-4.55957
 20
64.8291
 11
-4.57324
 21
64.8193
  0
LINE
  8
0
 10
-4.57324
 20
64.8193
 11
-4.58789
 21
64.8086
  0
LINE
  8
0
 10
-4.58789
 20
64.8086
 11
-4.60156
 21
64.7988
  0
LINE
  8
0
 10
-4.60156
 20
64.7988
 11
-4.62891
 21
64.7773
  0
LINE
  8
0
 10
-4.62891
 20
64.7773
 11
-4.64258
 21
64.7656
  0
LINE
  8
0
 10
-4.64258
 20
64.7656
 11
-4.65625
 21
64.7549
  0
LINE
  8
0
 10
-4.65625
 20
64.7549
 11
-4.69434
 21
64.7197
  0
LINE
  8
0
 10
-4.69434
 20
64.7197
 11
-4.71973
 21
64.6943
  0
LINE
  8
0
 10
-4.71973
 20
64.6943
 11
-4.75488
 21
64.6562
  0
LINE
  8
0
 10
-4.75488
 20
64.6562
 11
-4.76562
 21
64.6426
  0
LINE
  8
0
 10
-4.76562
 20
64.6426
 11
-4.77734
 21
64.6289
  0
LINE
  8
0
 10
-4.77734
 20
64.6289
 11
-4.79883
 21
64.6016
  0
LINE
  8
0
 10
-4.79883
 20
64.6016
 11
-4.80859
 21
64.5879
  0
LINE
  8
0
 10
-4.80859
 20
64.5879
 11
-4.81934
 21
64.5732
  0
LINE
  8
0
 10
-4.81934
 20
64.5732
 11
-4.8291
 21
64.5596
  0
LINE
  8
0
 10
-4.8291
 20
64.5596
 11
-4.83887
 21
64.5449
  0
LINE
  8
0
 10
-4.83887
 20
64.5449
 11
-4.84766
 21
64.5303
  0
LINE
  8
0
 10
-4.84766
 20
64.5303
 11
-4.85742
 21
64.5146
  0
LINE
  8
0
 10
-4.85742
 20
64.5146
 11
-4.86621
 21
64.5
  0
LINE
  8
0
 10
-4.86621
 20
64.5
 11
-4.875
 21
64.4844
  0
LINE
  8
0
 10
-4.875
 20
64.4844
 11
-4.88281
 21
64.4697
  0
LINE
  8
0
 10
-4.88281
 20
64.4697
 11
-4.90625
 21
64.4229
  0
LINE
  8
0
 10
-4.90625
 20
64.4229
 11
-4.91309
 21
64.4062
  0
LINE
  8
0
 10
-4.91309
 20
64.4062
 11
-4.9209
 21
64.3906
  0
LINE
  8
0
 10
-4.9209
 20
64.3906
 11
-4.92676
 21
64.375
  0
LINE
  8
0
 10
-4.92676
 20
64.375
 11
-4.93359
 21
64.3584
  0
LINE
  8
0
 10
-4.93359
 20
64.3584
 11
-4.95117
 21
64.3086
  0
LINE
  8
0
 10
-4.95117
 20
64.3086
 11
-4.9707
 21
64.2422
  0
LINE
  8
0
 10
-4.9707
 20
64.2422
 11
-4.97461
 21
64.2246
  0
LINE
  8
0
 10
-4.97461
 20
64.2246
 11
-4.97852
 21
64.208
  0
LINE
  8
0
 10
-4.97852
 20
64.208
 11
-4.98145
 21
64.1904
  0
LINE
  8
0
 10
-4.98145
 20
64.1904
 11
-4.98438
 21
64.1738
  0
LINE
  8
0
 10
-4.98438
 20
64.1738
 11
-4.9873
 21
64.1562
  0
LINE
  8
0
 10
-4.9873
 20
64.1562
 11
-4.99023
 21
64.1396
  0
LINE
  8
0
 10
-4.99023
 20
64.1396
 11
-4.99805
 21
64.0693
  0
LINE
  8
0
 10
-4.99805
 20
64.0693
 11
-4.99902
 21
64.0527
  0
LINE
  8
0
 10
-4.99902
 20
64.0527
 11
-4.99902
 21
64.0352
  0
LINE
  8
0
 10
-4.99902
 20
64.0352
 11
-5
 21
64.0176
  0
LINE
  8
0
 10
-5
 20
64.0176
 11
-5
 21
55.9824
  0
LINE
  8
0
 10
-5
 20
55.9824
 11
-4.99902
 21
55.9648
  0
LINE
  8
0
 10
-4.99902
 20
55.9648
 11
-4.99902
 21
55.9473
  0
LINE
  8
0
 10
-4.99902
 20
55.9473
 11
-4.99805
 21
55.9307
  0
LINE
  8
0
 10
-4.99805
 20
55.9307
 11
-4.99023
 21
55.8604
  0
LINE
  8
0
 10
-4.99023
 20
55.8604
 11
-4.9873
 21
55.8438
  0
LINE
  8
0
 10
-4.9873
 20
55.8438
 11
-4.98438
 21
55.8262
  0
LINE
  8
0
 10
-4.98438
 20
55.8262
 11
-4.98145
 21
55.8096
  0
LINE
  8
0
 10
-4.98145
 20
55.8096
 11
-4.97852
 21
55.792
  0
LINE
  8
0
 10
-4.97852
 20
55.792
 11
-4.97461
 21
55.7754
  0
LINE
  8
0
 10
-4.97461
 20
55.7754
 11
-4.9707
 21
55.7578
  0
LINE
  8
0
 10
-4.9707
 20
55.7578
 11
-4.95117
 21
55.6914
  0
LINE
  8
0
 10
-4.95117
 20
55.6914
 11
-4.93359
 21
55.6416
  0
LINE
  8
0
 10
-4.93359
 20
55.6416
 11
-4.92676
 21
55.625
  0
LINE
  8
0
 10
-4.92676
 20
55.625
 11
-4.9209
 21
55.6094
  0
LINE
  8
0
 10
-4.9209
 20
55.6094
 11
-4.91309
 21
55.5938
  0
LINE
  8
0
 10
-4.91309
 20
55.5938
 11
-4.90625
 21
55.5771
  0
LINE
  8
0
 10
-4.90625
 20
55.5771
 11
-4.88281
 21
55.5303
  0
LINE
  8
0
 10
-4.88281
 20
55.5303
 11
-4.875
 21
55.5156
  0
LINE
  8
0
 10
-4.875
 20
55.5156
 11
-4.86621
 21
55.5
  0
LINE
  8
0
 10
-4.86621
 20
55.5
 11
-4.85742
 21
55.4854
  0
LINE
  8
0
 10
-4.85742
 20
55.4854
 11
-4.84766
 21
55.4697
  0
LINE
  8
0
 10
-4.84766
 20
55.4697
 11
-4.83887
 21
55.4551
  0
LINE
  8
0
 10
-4.83887
 20
55.4551
 11
-4.8291
 21
55.4404
  0
LINE
  8
0
 10
-4.8291
 20
55.4404
 11
-4.81934
 21
55.4268
  0
LINE
  8
0
 10
-4.81934
 20
55.4268
 11
-4.80859
 21
55.4121
  0
LINE
  8
0
 10
-4.80859
 20
55.4121
 11
-4.79883
 21
55.3984
  0
LINE
  8
0
 10
-4.79883
 20
55.3984
 11
-4.77734
 21
55.3711
  0
LINE
  8
0
 10
-4.77734
 20
55.3711
 11
-4.76562
 21
55.3574
  0
LINE
  8
0
 10
-4.76562
 20
55.3574
 11
-4.75488
 21
55.3438
  0
LINE
  8
0
 10
-4.75488
 20
55.3438
 11
-4.71973
 21
55.3057
  0
LINE
  8
0
 10
-4.71973
 20
55.3057
 11
-4.69434
 21
55.2803
  0
LINE
  8
0
 10
-4.69434
 20
55.2803
 11
-4.65625
 21
55.2451
  0
LINE
  8
0
 10
-4.65625
 20
55.2451
 11
-4.64258
 21
55.2344
  0
LINE
  8
0
 10
-4.64258
 20
55.2344
 11
-4.62891
 21
55.2227
  0
LINE
  8
0
 10
-4.62891
 20
55.2227
 11
-4.60156
 21
55.2012
  0
LINE
  8
0
 10
-4.60156
 20
55.2012
 11
-4.58789
 21
55.1914
  0
LINE
  8
0
 10
-4.58789
 20
55.1914
 11
-4.57324
 21
55.1807
  0
LINE
  8
0
 10
-4.57324
 20
55.1807
 11
-4.55957
 21
55.1709
  0
LINE
  8
0
 10
-4.55957
 20
55.1709
 11
-4.54492
 21
55.1611
  0
LINE
  8
0
 10
-4.54492
 20
55.1611
 11
-4.53027
 21
55.1523
  0
LINE
  8
0
 10
-4.53027
 20
55.1523
 11
-4.51465
 21
55.1426
  0
LINE
  8
0
 10
-4.51465
 20
55.1426
 11
-4.5
 21
55.1338
  0
LINE
  8
0
 10
-4.5
 20
55.1338
 11
-4.48438
 21
55.125
  0
LINE
  8
0
 10
-4.48438
 20
55.125
 11
-4.46973
 21
55.1172
  0
LINE
  8
0
 10
-4.46973
 20
55.1172
 11
-4.42285
 21
55.0938
  0
LINE
  8
0
 10
-4.42285
 20
55.0938
 11
-4.40625
 21
55.0869
  0
LINE
  8
0
 10
-4.40625
 20
55.0869
 11
-4.39062
 21
55.0791
  0
LINE
  8
0
 10
-4.39062
 20
55.0791
 11
-4.375
 21
55.0732
  0
LINE
  8
0
 10
-4.375
 20
55.0732
 11
-4.3584
 21
55.0664
  0
LINE
  8
0
 10
-4.3584
 20
55.0664
 11
-4.30859
 21
55.0488
  0
LINE
  8
0
 10
-4.30859
 20
55.0488
 11
-4.24219
 21
55.0293
  0
LINE
  8
0
 10
-4.24219
 20
55.0293
 11
-4.22461
 21
55.0254
  0
LINE
  8
0
 10
-4.22461
 20
55.0254
 11
-4.20801
 21
55.0215
  0
LINE
  8
0
 10
-4.20801
 20
55.0215
 11
-4.19043
 21
55.0186
  0
LINE
  8
0
 10
-4.19043
 20
55.0186
 11
-4.17383
 21
55.0156
  0
LINE
  8
0
 10
-4.17383
 20
55.0156
 11
-4.15625
 21
55.0127
  0
LINE
  8
0
 10
-4.15625
 20
55.0127
 11
-4.13965
 21
55.0098
  0
LINE
  8
0
 10
-4.13965
 20
55.0098
 11
-4.06934
 21
55.002
  0
LINE
  8
0
 10
-4.06934
 20
55.002
 11
-4.05273
 21
55.001
  0
LINE
  8
0
 10
-4.05273
 20
55.001
 11
-4.03516
 21
55.001
  0
LINE
  8
0
 10
-4.03516
 20
55.001
 11
-4.01758
 21
55
  0
LINE
  8
0
 10
-4.01758
 20
55
 11
0
 21
55
  0
LINE
  8
0
 10
0
 20
55
 11
0
 21
0
  0
LINE
  8
0
 10
0
 20
0
 11
100.95
 21
0
  0
LINE
  8
0
 10
100.95
 20
0
 11
100.95
 21
55
  0
LINE
  8
0
 10
14.7217
 20
123.15
 11
14.666
 21
123.152
  0
LINE
  8
0
 10
14.666
 20
123.152
 11
14.6387
 21
123.154
  0
LINE
  8
0
 10
14.6387
 20
123.154
 11
14.6104
 21
123.156
  0
LINE
  8
0
 10
14.6104
 20
123.156
 11
14.583
 21
123.159
  0
LINE
  8
0
 10
14.583
 20
123.159
 11
14.5547
 21
123.162
  0
LINE
  8
0
 10
14.5547
 20
123.162
 11
14.5
 21
123.17
  0
LINE
  8
0
 10
14.5
 20
123.17
 11
14.4717
 21
123.174
  0
LINE
  8
0
 10
14.4717
 20
123.174
 11
14.4443
 21
123.18
  0
LINE
  8
0
 10
14.4443
 20
123.18
 11
14.417
 21
123.185
  0
LINE
  8
0
 10
14.417
 20
123.185
 11
14.3896
 21
123.191
  0
LINE
  8
0
 10
14.3896
 20
123.191
 11
14.3633
 21
123.197
  0
LINE
  8
0
 10
14.3633
 20
123.197
 11
14.3359
 21
123.204
  0
LINE
  8
0
 10
14.3359
 20
123.204
 11
14.3086
 21
123.212
  0
LINE
  8
0
 10
14.3086
 20
123.212
 11
14.2822
 21
123.22
  0
LINE
  8
0
 10
14.2822
 20
123.22
 11
14.2031
 21
123.246
  0
LINE
  8
0
 10
14.2031
 20
123.246
 11
14.1768
 21
123.256
  0
LINE
  8
0
 10
14.1768
 20
123.256
 11
14.1504
 21
123.267
  0
LINE
  8
0
 10
14.1504
 20
123.267
 11
14.0996
 21
123.288
  0
LINE
  8
0
 10
14.0996
 20
123.288
 11
14.0488
 21
123.312
  0
LINE
  8
0
 10
14.0488
 20
123.312
 11
14.0234
 21
123.324
  0
LINE
  8
0
 10
14.0234
 20
123.324
 11
13.999
 21
123.337
  0
LINE
  8
0
 10
13.999
 20
123.337
 11
13.9502
 21
123.364
  0
LINE
  8
0
 10
13.9502
 20
123.364
 11
13.9258
 21
123.379
  0
LINE
  8
0
 10
13.9258
 20
123.379
 11
13.8789
 21
123.408
  0
LINE
  8
0
 10
13.8789
 20
123.408
 11
13.832
 21
123.439
  0
LINE
  8
0
 10
13.832
 20
123.439
 11
13.7646
 21
123.489
  0
LINE
  8
0
 10
13.7646
 20
123.489
 11
13.7002
 21
123.542
  0
LINE
  8
0
 10
13.7002
 20
123.542
 11
13.6797
 21
123.561
  0
LINE
  8
0
 10
13.6797
 20
123.561
 11
13.6592
 21
123.58
  0
LINE
  8
0
 10
13.6592
 20
123.58
 11
13.6387
 21
123.599
  0
LINE
  8
0
 10
13.6387
 20
123.599
 11
13.6182
 21
123.618
  0
LINE
  8
0
 10
13.6182
 20
123.618
 11
13.5986
 21
123.639
  0
LINE
  8
0
 10
13.5986
 20
123.639
 11
13.5801
 21
123.659
  0
LINE
  8
0
 10
13.5801
 20
123.659
 11
13.5605
 21
123.68
  0
LINE
  8
0
 10
13.5605
 20
123.68
 11
13.542
 21
123.7
  0
LINE
  8
0
 10
13.542
 20
123.7
 11
13.4893
 21
123.765
  0
LINE
  8
0
 10
13.4893
 20
123.765
 11
13.4395
 21
123.832
  0
LINE
  8
0
 10
13.4395
 20
123.832
 11
13.4082
 21
123.879
  0
LINE
  8
0
 10
13.4082
 20
123.879
 11
13.3789
 21
123.926
  0
LINE
  8
0
 10
13.3789
 20
123.926
 11
13.3643
 21
123.95
  0
LINE
  8
0
 10
13.3643
 20
123.95
 11
13.3369
 21
123.999
  0
LINE
  8
0
 10
13.3369
 20
123.999
 11
13.3242
 21
124.023
  0
LINE
  8
0
 10
13.3242
 20
124.023
 11
13.3115
 21
124.049
  0
LINE
  8
0
 10
13.3115
 20
124.049
 11
13.2881
 21
124.1
  0
LINE
  8
0
 10
13.2881
 20
124.1
 11
13.2666
 21
124.15
  0
LINE
  8
0
 10
13.2666
 20
124.15
 11
13.2559
 21
124.177
  0
LINE
  8
0
 10
13.2559
 20
124.177
 11
13.2461
 21
124.203
  0
LINE
  8
0
 10
13.2461
 20
124.203
 11
13.2197
 21
124.282
  0
LINE
  8
0
 10
13.2197
 20
124.282
 11
13.2119
 21
124.309
  0
LINE
  8
0
 10
13.2119
 20
124.309
 11
13.2041
 21
124.336
  0
LINE
  8
0
 10
13.2041
 20
124.336
 11
13.1973
 21
124.363
  0
LINE
  8
0
 10
13.1973
 20
124.363
 11
13.1914
 21
124.39
  0
LINE
  8
0
 10
13.1914
 20
124.39
 11
13.1846
 21
124.417
  0
LINE
  8
0
 10
13.1846
 20
124.417
 11
13.1797
 21
124.444
  0
LINE
  8
0
 10
13.1797
 20
124.444
 11
13.1738
 21
124.472
  0
LINE
  8
0
 10
13.1738
 20
124.472
 11
13.1699
 21
124.5
  0
LINE
  8
0
 10
13.1699
 20
124.5
 11
13.1621
 21
124.555
  0
LINE
  8
0
 10
13.1621
 20
124.555
 11
13.1592
 21
124.583
  0
LINE
  8
0
 10
13.1592
 20
124.583
 11
13.1562
 21
124.61
  0
LINE
  8
0
 10
13.1562
 20
124.61
 11
13.1543
 21
124.639
  0
LINE
  8
0
 10
13.1543
 20
124.639
 11
13.1523
 21
124.666
  0
LINE
  8
0
 10
13.1523
 20
124.666
 11
13.1504
 21
124.722
  0
LINE
  8
0
 10
13.1504
 20
124.722
 11
13.1504
 21
124.778
  0
LINE
  8
0
 10
13.1504
 20
124.778
 11
13.1523
 21
124.834
  0
LINE
  8
0
 10
13.1523
 20
124.834
 11
13.1543
 21
124.861
  0
LINE
  8
0
 10
13.1543
 20
124.861
 11
13.1562
 21
124.89
  0
LINE
  8
0
 10
13.1562
 20
124.89
 11
13.1592
 21
124.917
  0
LINE
  8
0
 10
13.1592
 20
124.917
 11
13.1621
 21
124.945
  0
LINE
  8
0
 10
13.1621
 20
124.945
 11
13.1699
 21
125
  0
LINE
  8
0
 10
13.1699
 20
125
 11
13.1738
 21
125.028
  0
LINE
  8
0
 10
13.1738
 20
125.028
 11
13.1797
 21
125.056
  0
LINE
  8
0
 10
13.1797
 20
125.056
 11
13.1846
 21
125.083
  0
LINE
  8
0
 10
13.1846
 20
125.083
 11
13.1914
 21
125.11
  0
LINE
  8
0
 10
13.1914
 20
125.11
 11
13.1973
 21
125.137
  0
LINE
  8
0
 10
13.1973
 20
125.137
 11
13.2041
 21
125.164
  0
LINE
  8
0
 10
13.2041
 20
125.164
 11
13.2119
 21
125.191
  0
LINE
  8
0
 10
13.2119
 20
125.191
 11
13.2197
 21
125.218
  0
LINE
  8
0
 10
13.2197
 20
125.218
 11
13.2461
 21
125.297
  0
LINE
  8
0
 10
13.2461
 20
125.297
 11
13.2559
 21
125.323
  0
LINE
  8
0
 10
13.2559
 20
125.323
 11
13.2666
 21
125.35
  0
LINE
  8
0
 10
13.2666
 20
125.35
 11
13.2881
 21
125.4
  0
LINE
  8
0
 10
13.2881
 20
125.4
 11
13.3115
 21
125.451
  0
LINE
  8
0
 10
13.3115
 20
125.451
 11
13.3242
 21
125.477
  0
LINE
  8
0
 10
13.3242
 20
125.477
 11
13.3369
 21
125.501
  0
LINE
  8
0
 10
13.3369
 20
125.501
 11
13.3643
 21
125.55
  0
LINE
  8
0
 10
13.3643
 20
125.55
 11
13.3789
 21
125.574
  0
LINE
  8
0
 10
13.3789
 20
125.574
 11
13.4082
 21
125.621
  0
LINE
  8
0
 10
13.4082
 20
125.621
 11
13.4395
 21
125.668
  0
LINE
  8
0
 10
13.4395
 20
125.668
 11
13.4893
 21
125.735
  0
LINE
  8
0
 10
13.4893
 20
125.735
 11
13.542
 21
125.8
  0
LINE
  8
0
 10
13.542
 20
125.8
 11
13.5605
 21
125.82
  0
LINE
  8
0
 10
13.5605
 20
125.82
 11
13.5801
 21
125.841
  0
LINE
  8
0
 10
13.5801
 20
125.841
 11
13.5986
 21
125.861
  0
LINE
  8
0
 10
13.5986
 20
125.861
 11
13.6182
 21
125.882
  0
LINE
  8
0
 10
13.6182
 20
125.882
 11
13.6387
 21
125.901
  0
LINE
  8
0
 10
13.6387
 20
125.901
 11
13.6592
 21
125.92
  0
LINE
  8
0
 10
13.6592
 20
125.92
 11
13.6797
 21
125.939
  0
LINE
  8
0
 10
13.6797
 20
125.939
 11
13.7002
 21
125.958
  0
LINE
  8
0
 10
13.7002
 20
125.958
 11
13.7646
 21
126.011
  0
LINE
  8
0
 10
13.7646
 20
126.011
 11
13.832
 21
126.061
  0
LINE
  8
0
 10
13.832
 20
126.061
 11
13.8789
 21
126.092
  0
LINE
  8
0
 10
13.8789
 20
126.092
 11
13.9258
 21
126.121
  0
LINE
  8
0
 10
13.9258
 20
126.121
 11
13.9502
 21
126.136
  0
LINE
  8
0
 10
13.9502
 20
126.136
 11
13.999
 21
126.163
  0
LINE
  8
0
 10
13.999
 20
126.163
 11
14.0234
 21
126.176
  0
LINE
  8
0
 10
14.0234
 20
126.176
 11
14.0488
 21
126.188
  0
LINE
  8
0
 10
14.0488
 20
126.188
 11
14.0996
 21
126.212
  0
LINE
  8
0
 10
14.0996
 20
126.212
 11
14.1504
 21
126.233
  0
LINE
  8
0
 10
14.1504
 20
126.233
 11
14.1768
 21
126.244
  0
LINE
  8
0
 10
14.1768
 20
126.244
 11
14.2031
 21
126.254
  0
LINE
  8
0
 10
14.2031
 20
126.254
 11
14.2822
 21
126.28
  0
LINE
  8
0
 10
14.2822
 20
126.28
 11
14.3086
 21
126.288
  0
LINE
  8
0
 10
14.3086
 20
126.288
 11
14.3359
 21
126.296
  0
LINE
  8
0
 10
14.3359
 20
126.296
 11
14.3633
 21
126.303
  0
LINE
  8
0
 10
14.3633
 20
126.303
 11
14.3896
 21
126.309
  0
LINE
  8
0
 10
14.3896
 20
126.309
 11
14.417
 21
126.315
  0
LINE
  8
0
 10
14.417
 20
126.315
 11
14.4443
 21
126.32
  0
LINE
  8
0
 10
14.4443
 20
126.32
 11
14.4717
 21
126.326
  0
LINE
  8
0
 10
14.4717
 20
126.326
 11
14.5
 21
126.33
  0
LINE
  8
0
 10
14.5
 20
126.33
 11
14.5547
 21
126.338
  0
LINE
  8
0
 10
14.5547
 20
126.338
 11
14.583
 21
126.341
  0
LINE
  8
0
 10
14.583
 20
126.341
 11
14.6104
 21
126.344
  0
LINE
  8
0
 10
14.6104
 20
126.344
 11
14.6387
 21
126.346
  0
LINE
  8
0
 10
14.6387
 20
126.346
 11
14.666
 21
126.348
  0
LINE
  8
0
 10
14.666
 20
126.348
 11
14.7217
 21
126.35
  0
LINE
  8
0
 10
14.7217
 20
126.35
 11
14.7783
 21
126.35
  0
LINE
  8
0
 10
14.7783
 20
126.35
 11
14.834
 21
126.348
  0
LINE
  8
0
 10
14.834
 20
126.348
 11
14.8613
 21
126.346
  0
LINE
  8
0
 10
14.8613
 20
126.346
 11
14.8896
 21
126.344
  0
LINE
  8
0
 10
14.8896
 20
126.344
 11
14.917
 21
126.341
  0
LINE
  8
0
 10
14.917
 20
126.341
 11
14.9453
 21
126.338
  0
LINE
  8
0
 10
14.9453
 20
126.338
 11
15
 21
126.33
  0
LINE
  8
0
 10
15
 20
126.33
 11
15.0283
 21
126.326
  0
LINE
  8
0
 10
15.0283
 20
126.326
 11
15.0557
 21
126.32
  0
LINE
  8
0
 10
15.0557
 20
126.32
 11
15.083
 21
126.315
  0
LINE
  8
0
 10
15.083
 20
126.315
 11
15.1104
 21
126.309
  0
LINE
  8
0
 10
15.1104
 20
126.309
 11
15.1367
 21
126.303
  0
LINE
  8
0
 10
15.1367
 20
126.303
 11
15.1641
 21
126.296
  0
LINE
  8
0
 10
15.1641
 20
126.296
 11
15.1914
 21
126.288
  0
LINE
  8
0
 10
15.1914
 20
126.288
 11
15.2178
 21
126.28
  0
LINE
  8
0
 10
15.2178
 20
126.28
 11
15.2969
 21
126.254
  0
LINE
  8
0
 10
15.2969
 20
126.254
 11
15.3232
 21
126.244
  0
LINE
  8
0
 10
15.3232
 20
126.244
 11
15.3496
 21
126.233
  0
LINE
  8
0
 10
15.3496
 20
126.233
 11
15.4004
 21
126.212
  0
LINE
  8
0
 10
15.4004
 20
126.212
 11
15.4512
 21
126.188
  0
LINE
  8
0
 10
15.4512
 20
126.188
 11
15.4766
 21
126.176
  0
LINE
  8
0
 10
15.4766
 20
126.176
 11
15.501
 21
126.163
  0
LINE
  8
0
 10
15.501
 20
126.163
 11
15.5498
 21
126.136
  0
LINE
  8
0
 10
15.5498
 20
126.136
 11
15.5742
 21
126.121
  0
LINE
  8
0
 10
15.5742
 20
126.121
 11
15.6211
 21
126.092
  0
LINE
  8
0
 10
15.6211
 20
126.092
 11
15.668
 21
126.061
  0
LINE
  8
0
 10
15.668
 20
126.061
 11
15.7354
 21
126.011
  0
LINE
  8
0
 10
15.7354
 20
126.011
 11
15.7998
 21
125.958
  0
LINE
  8
0
 10
15.7998
 20
125.958
 11
15.8203
 21
125.939
  0
LINE
  8
0
 10
15.8203
 20
125.939
 11
15.8408
 21
125.92
  0
LINE
  8
0
 10
15.8408
 20
125.92
 11
15.8613
 21
125.901
  0
LINE
  8
0
 10
15.8613
 20
125.901
 11
15.8818
 21
125.882
  0
LINE
  8
0
 10
15.8818
 20
125.882
 11
15.9014
 21
125.861
  0
LINE
  8
0
 10
15.9014
 20
125.861
 11
15.9199
 21
125.841
  0
LINE
  8
0
 10
15.9199
 20
125.841
 11
15.9395
 21
125.82
  0
LINE
  8
0
 10
15.9395
 20
125.82
 11
15.958
 21
125.8
  0
LINE
  8
0
 10
15.958
 20
125.8
 11
16.0107
 21
125.735
  0
LINE
  8
0
 10
16.0107
 20
125.735
 11
16.0605
 21
125.668
  0
LINE
  8
0
 10
16.0605
 20
125.668
 11
16.0918
 21
125.621
  0
LINE
  8
0
 10
16.0918
 20
125.621
 11
16.1211
 21
125.574
  0
LINE
  8
0
 10
16.1211
 20
125.574
 11
16.1357
 21
125.55
  0
LINE
  8
0
 10
16.1357
 20
125.55
 11
16.1631
 21
125.501
  0
LINE
  8
0
 10
16.1631
 20
125.501
 11
16.1758
 21
125.477
  0
LINE
  8
0
 10
16.1758
 20
125.477
 11
16.1885
 21
125.451
  0
LINE
  8
0
 10
16.1885
 20
125.451
 11
16.2119
 21
125.4
  0
LINE
  8
0
 10
16.2119
 20
125.4
 11
16.2334
 21
125.35
  0
LINE
  8
0
 10
16.2334
 20
125.35
 11
16.2441
 21
125.323
  0
LINE
  8
0
 10
16.2441
 20
125.323
 11
16.2539
 21
125.297
  0
LINE
  8
0
 10
16.2539
 20
125.297
 11
16.2803
 21
125.218
  0
LINE
  8
0
 10
16.2803
 20
125.218
 11
16.2881
 21
125.191
  0
LINE
  8
0
 10
16.2881
 20
125.191
 11
16.2959
 21
125.164
  0
LINE
  8
0
 10
16.2959
 20
125.164
 11
16.3027
 21
125.137
  0
LINE
  8
0
 10
16.3027
 20
125.137
 11
16.3086
 21
125.11
  0
LINE
  8
0
 10
16.3086
 20
125.11
 11
16.3154
 21
125.083
  0
LINE
  8
0
 10
16.3154
 20
125.083
 11
16.3203
 21
125.056
  0
LINE
  8
0
 10
16.3203
 20
125.056
 11
16.3262
 21
125.028
  0
LINE
  8
0
 10
16.3262
 20
125.028
 11
16.3301
 21
125
  0
LINE
  8
0
 10
16.3301
 20
125
 11
16.3379
 21
124.945
  0
LINE
  8
0
 10
16.3379
 20
124.945
 11
16.3408
 21
124.917
  0
LINE
  8
0
 10
16.3408
 20
124.917
 11
16.3438
 21
124.89
  0
LINE
  8
0
 10
16.3438
 20
124.89
 11
16.3457
 21
124.861
  0
LINE
  8
0
 10
16.3457
 20
124.861
 11
16.3477
 21
124.834
  0
LINE
  8
0
 10
16.3477
 20
124.834
 11
16.3496
 21
124.778
  0
LINE
  8
0
 10
16.3496
 20
124.778
 11
16.3496
 21
124.722
  0
LINE
  8
0
 10
16.3496
 20
124.722
 11
16.3477
 21
124.666
  0
LINE
  8
0
 10
16.3477
 20
124.666
 11
16.3457
 21
124.639
  0
LINE
  8
0
 10
16.3457
 20
124.639
 11
16.3438
 21
124.61
  0
LINE
  8
0
 10
16.3438
 20
124.61
 11
16.3408
 21
124.583
  0
LINE
  8
0
 10
16.3408
 20
124.583
 11
16.3379
 21
124.555
  0
LINE
  8
0
 10
16.3379
 20
124.555
 11
16.3301
 21
124.5
  0
LINE
  8
0
 10
16.3301
 20
124.5
 11
16.3262
 21
124.472
  0
LINE
  8
0
 10
16.3262
 20
124.472
 11
16.3203
 21
124.444
  0
LINE
  8
0
 10
16.3203
 20
124.444
 11
16.3154
 21
124.417
  0
LINE
  8
0
 10
16.3154
 20
124.417
 11
16.3086
 21
124.39
  0
LINE
  8
0
 10
16.3086
 20
124.39
 11
16.3027
 21
124.363
  0
LINE
  8
0
 10
16.3027
 20
124.363
 11
16.2959
 21
124.336
  0
LINE
  8
0
 10
16.2959
 20
124.336
 11
16.2881
 21
124.309
  0
LINE
  8
0
 10
16.2881
 20
124.309
 11
16.2803
 21
124.282
  0
LINE
  8
0
 10
16.2803
 20
124.282
 11
16.2539
 21
124.203
  0
LINE
  8
0
 10
16.2539
 20
124.203
 11
16.2441
 21
124.177
  0
LINE
  8
0
 10
16.2441
 20
124.177
 11
16.2334
 21
124.15
  0
LINE
  8
0
 10
16.2334
 20
124.15
 11
16.2119
 21
124.1
  0
LINE
  8
0
 10
16.2119
 20
124.1
 11
16.1885
 21
124.049
  0
LINE
  8
0
 10
16.1885
 20
124.049
 11
16.1758
 21
124.023
  0
LINE
  8
0
 10
16.1758
 20
124.023
 11
16.1631
 21
123.999
  0
LINE
  8
0
 10
16.1631
 20
123.999
 11
16.1357
 21
123.95
  0
LINE
  8
0
 10
16.1357
 20
123.95
 11
16.1211
 21
123.926
  0
LINE
  8
0
 10
16.1211
 20
123.926
 11
16.0918
 21
123.879
  0
LINE
  8
0
 10
16.0918
 20
123.879
 11
16.0605
 21
123.832
  0
LINE
  8
0
 10
16.0605
 20
123.832
 11
16.0107
 21
123.765
  0
LINE
  8
0
 10
16.0107
 20
123.765
 11
15.958
 21
123.7
  0
LINE
  8
0
 10
15.958
 20
123.7
 11
15.9395
 21
123.68
  0
LINE
  8
0
 10
15.9395
 20
123.68
 11
15.9199
 21
123.659
  0
LINE
  8
0
 10
15.9199
 20
123.659
 11
15.9014
 21
123.639
  0
LINE
  8
0
 10
15.9014
 20
123.639
 11
15.8818
 21
123.618
  0
LINE
  8
0
 10
15.8818
 20
123.618
 11
15.8613
 21
123.599
  0
LINE
  8
0
 10
15.8613
 20
123.599
 11
15.8408
 21
123.58
  0
LINE
  8
0
 10
15.8408
 20
123.58
 11
15.8203
 21
123.561
  0
LINE
  8
0
 10
15.8203
 20
123.561
 11
15.7998
 21
123.542
  0
LINE
  8
0
 10
15.7998
 20
123.542
 11
15.7354
 21
123.489
  0
LINE
  8
0
 10
15.7354
 20
123.489
 11
15.668
 21
123.439
  0
LINE
  8
0
 10
15.668
 20
123.439
 11
15.6211
 21
123.408
  0
LINE
  8
0
 10
15.6211
 20
123.408
 11
15.5742
 21
123.379
  0
LINE
  8
0
 10
15.5742
 20
123.379
 11
15.5498
 21
123.364
  0
LINE
  8
0
 10
15.5498
 20
123.364
 11
15.501
 21
123.337
  0
LINE
  8
0
 10
15.501
 20
123.337
 11
15.4766
 21
123.324
  0
LINE
  8
0
 10
15.4766
 20
123.324
 11
15.4512
 21
123.312
  0
LINE
  8
0
 10
15.4512
 20
123.312
 11
15.4004
 21
123.288
  0
LINE
  8
0
 10
15.4004
 20
123.288
 11
15.3496
 21
123.267
  0
LINE
  8
0
 10
15.3496
 20
123.267
 11
15.3232
 21
123.256
  0
LINE
  8
0
 10
15.3232
 20
123.256
 11
15.2969
 21
123.246
  0
LINE
  8
0
 10
15.2969
 20
123.246
 11
15.2178
 21
123.22
  0
LINE
  8
0
 10
15.2178
 20
123.22
 11
15.1914
 21
123.212
  0
LINE
  8
0
 10
15.1914
 20
123.212
 11
15.1641
 21
123.204
  0
LINE
  8
0
 10
15.1641
 20
123.204
 11
15.1367
 21
123.197
  0
LINE
  8
0
 10
15.1367
 20
123.197
 11
15.1104
 21
123.191
  0
LINE
  8
0
 10
15.1104
 20
123.191
 11
15.083
 21
123.185
  0
LINE
  8
0
 10
15.083
 20
123.185
 11
15.0557
 21
123.18
  0
LINE
  8
0
 10
15.0557
 20
123.18
 11
15.0283
 21
123.174
  0
LINE
  8
0
 10
15.0283
 20
123.174
 11
15
 21
123.17
  0
LINE
  8
0
 10
15
 20
123.17
 11
14.9453
 21
123.162
  0
LINE
  8
0
 10
14.9453
 20
123.162
 11
14.917
 21
123.159
  0
LINE
  8
0
 10
14.917
 20
123.159
 11
14.8896
 21
123.156
  0
LINE
  8
0
 10
14.8896
 20
123.156
 11
14.8613
 21
123.154
  0
LINE
  8
0
 10
14.8613
 20
123.154
 11
14.834
 21
123.152
  0
LINE
  8
0
 10
14.834
 20
123.152
 11
14.7783
 21
123.15
  0
LINE
  8
0
 10
14.7783
 20
123.15
 11
14.7217
 21
123.15
  0
LINE
  8
0
 10
86.2217
 20
123.15
 11
86.166
 21
123.152
  0
LINE
  8
0
 10
86.166
 20
123.152
 11
86.1387
 21
123.154
  0
LINE
  8
0
 10
86.1387
 20
123.154
 11
86.1104
 21
123.156
  0
LINE
  8
0
 10
86.1104
 20
123.156
 11
86.083
 21
123.159
  0
LINE
  8
0
 10
86.083
 20
123.159
 11
86.0547
 21
123.162
  0
LINE
  8
0
 10
86.0547
 20
123.162
 11
86
 21
123.17
  0
LINE
  8
0
 10
86
 20
123.17
 11
85.9717
 21
123.174
  0
LINE
  8
0
 10
85.9717
 20
123.174
 11
85.9443
 21
123.18
  0
LINE
  8
0
 10
85.9443
 20
123.18
 11
85.917
 21
123.185
  0
LINE
  8
0
 10
85.917
 20
123.185
 11
85.8896
 21
123.191
  0
LINE
  8
0
 10
85.8896
 20
123.191
 11
85.8633
 21
123.197
  0
LINE
  8
0
 10
85.8633
 20
123.197
 11
85.8359
 21
123.204
  0
LINE
  8
0
 10
85.8359
 20
123.204
 11
85.8086
 21
123.212
  0
LINE
  8
0
 10
85.8086
 20
123.212
 11
85.7822
 21
123.22
  0
LINE
  8
0
 10
85.7822
 20
123.22
 11
85.7031
 21
123.246
  0
LINE
  8
0
 10
85.7031
 20
123.246
 11
85.6768
 21
123.256
  0
LINE
  8
0
 10
85.6768
 20
123.256
 11
85.6504
 21
123.267
  0
LINE
  8
0
 10
85.6504
 20
123.267
 11
85.5996
 21
123.288
  0
LINE
  8
0
 10
85.5996
 20
123.288
 11
85.5488
 21
123.312
  0
LINE
  8
0
 10
85.5488
 20
123.312
 11
85.5234
 21
123.324
  0
LINE
  8
0
 10
85.5234
 20
123.324
 11
85.499
 21
123.337
  0
LINE
  8
0
 10
85.499
 20
123.337
 11
85.4502
 21
123.364
  0
LINE
  8
0
 10
85.4502
 20
123.364
 11
85.4258
 21
123.379
  0
LINE
  8
0
 10
85.4258
 20
123.379
 11
85.3789
 21
123.408
  0
LINE
  8
0
 10
85.3789
 20
123.408
 11
85.332
 21
123.439
  0
LINE
  8
0
 10
85.332
 20
123.439
 11
85.2646
 21
123.489
  0
LINE
  8
0
 10
85.2646
 20
123.489
 11
85.2002
 21
123.542
  0
LINE
  8
0
 10
85.2002
 20
123.542
 11
85.1797
 21
123.561
  0
LINE
  8
0
 10
85.1797
 20
123.561
 11
85.1592
 21
123.58
  0
LINE
  8
0
 10
85.1592
 20
123.58
 11
85.1387
 21
123.599
  0
LINE
  8
0
 10
85.1387
 20
123.599
 11
85.1182
 21
123.618
  0
LINE
  8
0
 10
85.1182
 20
123.618
 11
85.0986
 21
123.639
  0
LINE
  8
0
 10
85.0986
 20
123.639
 11
85.0801
 21
123.659
  0
LINE
  8
0
 10
85.0801
 20
123.659
 11
85.0605
 21
123.68
  0
LINE
  8
0
 10
85.0605
 20
123.68
 11
85.042
 21
123.7
  0
LINE
  8
0
 10
85.042
 20
123.7
 11
84.9893
 21
123.765
  0
LINE
  8
0
 10
84.9893
 20
123.765
 11
84.9395
 21
123.832
  0
LINE
  8
0
 10
84.9395
 20
123.832
 11
84.9082
 21
123.879
  0
LINE
  8
0
 10
84.9082
 20
123.879
 11
84.8789
 21
123.926
  0
LINE
  8
0
 10
84.8789
 20
123.926
 11
84.8643
 21
123.95
  0
LINE
  8
0
 10
84.8643
 20
123.95
 11
84.8369
 21
123.999
  0
LINE
  8
0
 10
84.8369
 20
123.999
 11
84.8242
 21
124.023
  0
LINE
  8
0
 10
84.8242
 20
124.023
 11
84.8115
 21
124.049
  0
LINE
  8
0
 10
84.8115
 20
124.049
 11
84.7881
 21
124.1
  0
LINE
  8
0
 10
84.7881
 20
124.1
 11
84.7666
 21
124.15
  0
LINE
  8
0
 10
84.7666
 20
124.15
 11
84.7559
 21
124.177
  0
LINE
  8
0
 10
84.7559
 20
124.177
 11
84.7461
 21
124.203
  0
LINE
  8
0
 10
84.7461
 20
124.203
 11
84.7197
 21
124.282
  0
LINE
  8
0
 10
84.7197
 20
124.282
 11
84.7119
 21
124.309
  0
LINE
  8
0
 10
84.7119
 20
124.309
 11
84.7041
 21
124.336
  0
LINE
  8
0
 10
84.7041
 20
124.336
 11
84.6973
 21
124.363
  0
LINE
  8
0
 10
84.6973
 20
124.363
 11
84.6914
 21
124.39
  0
LINE
  8
0
 10
84.6914
 20
124.39
 11
84.6846
 21
124.417
  0
LINE
  8
0
 10
84.6846
 20
124.417
 11
84.6797
 21
124.444
  0
LINE
  8
0
 10
84.6797
 20
124.444
 11
84.6738
 21
124.472
  0
LINE
  8
0
 10
84.6738
 20
124.472
 11
84.6699
 21
124.5
  0
LINE
  8
0
 10
84.6699
 20
124.5
 11
84.6621
 21
124.555
  0
LINE
  8
0
 10
84.6621
 20
124.555
 11
84.6592
 21
124.583
  0
LINE
  8
0
 10
84.6592
 20
124.583
 11
84.6562
 21
124.61
  0
LINE
  8
0
 10
84.6562
 20
124.61
 11
84.6543
 21
124.639
  0
LINE
  8
0
 10
84.6543
 20
124.639
 11
84.6523
 21
124.666
  0
LINE
  8
0
 10
84.6523
 20
124.666
 11
84.6504
 21
124.722
  0
LINE
  8
0
 10
84.6504
 20
124.722
 11
84.6504
 21
124.778
  0
LINE
  8
0
 10
84.6504
 20
124.778
 11
84.6523
 21
124.834
  0
LINE
  8
0
 10
84.6523
 20
124.834
 11
84.6543
 21
124.861
  0
LINE
  8
0
 10
84.6543
 20
124.861
 11
84.6562
 21
124.89
  0
LINE
  8
0
 10
84.6562
 20
124.89
 11
84.6592
 21
124.917
  0
LINE
  8
0
 10
84.6592
 20
124.917
 11
84.6621
 21
124.945
  0
LINE
  8
0
 10
84.6621
 20
124.945
 11
84.6699
 21
125
  0
LINE
  8
0
 10
84.6699
 20
125
 11
84.6738
 21
125.028
  0
LINE
  8
0
 10
84.6738
 20
125.028
 11
84.6797
 21
125.056
  0
LINE
  8
0
 10
84.6797
 20
125.056
 11
84.6846
 21
125.083
  0
LINE
  8
0
 10
84.6846
 20
125.083
 11
84.6914
 21
125.11
  0
LINE
  8
0
 10
84.6914
 20
125.11
 11
84.6973
 21
125.137
  0
LINE
  8
0
 10
84.6973
 20
125.137
 11
84.7041
 21
125.164
  0
LINE
  8
0
 10
84.7041
 20
125.164
 11
84.7119
 21
125.191
  0
LINE
  8
0
 10
84.7119
 20
125.191
 11
84.7197
 21
125.218
  0
LINE
  8
0
 10
84.7197
 20
125.218
 11
84.7461
 21
125.297
  0
LINE
  8
0
 10
84.7461
 20
125.297
 11
84.7559
 21
125.323
  0
LINE
  8
0
 10
84.7559
 20
125.323
 11
84.7666
 21
125.35
  0
LINE
  8
0
 10
84.7666
 20
125.35
 11
84.7881
 21
125.4
  0
LINE
  8
0
 10
84.7881
 20
125.4
 11
84.8115
 21
125.451
  0
LINE
  8
0
 10
84.8115
 20
125.451
 11
84.8242
 21
125.477
  0
LINE
  8
0
 10
84.8242
 20
125.477
 11
84.8369
 21
125.501
  0
LINE
  8
0
 10
84.8369
 20
125.501
 11
84.8643
 21
125.55
  0
LINE
  8
0
 10
84.8643
 20
125.55
 11
84.8789
 21
125.574
  0
LINE
  8
0
 10
84.8789
 20
125.574
 11
84.9082
 21
125.621
  0
LINE
  8
0
 10
84.9082
 20
125.621
 11
84.9395
 21
125.668
  0
LINE
  8
0
 10
84.9395
 20
125.668
 11
84.9893
 21
125.735
  0
LINE
  8
0
 10
84.9893
 20
125.735
 11
85.042
 21
125.8
  0
LINE
  8
0
 10
85.042
 20
125.8
 11
85.0605
 21
125.82
  0
LINE
  8
0
 10
85.0605
 20
125.82
 11
85.0801
 21
125.841
  0
LINE
  8
0
 10
85.0801
 20
125.841
 11
85.0986
 21
125.861
  0
LINE
  8
0
 10
85.0986
 20
125.861
 11
85.1182
 21
125.882
  0
LINE
  8
0
 10
85.1182
 20
125.882
 11
85.1387
 21
125.901
  0
LINE
  8
0
 10
85.1387
 20
125.901
 11
85.1592
 21
125.92
  0
LINE
  8
0
 10
85.1592
 20
125.92
 11
85.1797
 21
125.939
  0
LINE
  8
0
 10
85.1797
 20
125.939
 11
85.2002
 21
125.958
  0
LINE
  8
0
 10
85.2002
 20
125.958
 11
85.2646
 21
126.011
  0
LINE
  8
0
 10
85.2646
 20
126.011
 11
85.332
 21
126.061
  0
LINE
  8
0
 10
85.332
 20
126.061
 11
85.3789
 21
126.092
  0
LINE
  8
0
 10
85.3789
 20
126.092
 11
85.4258
 21
126.121
  0
LINE
  8
0
 10
85.4258
 20
126.121
 11
85.4502
 21
126.136
  0
LINE
  8
0
 10
85.4502
 20
126.136
 11
85.499
 21
126.163
  0
LINE
  8
0
 10
85.499
 20
126.163
 11
85.5234
 21
126.176
  0
LINE
  8
0
 10
85.5234
 20
126.176
 11
85.5488
 21
126.188
  0
LINE
  8
0
 10
85.5488
 20
126.188
 11
85.5996
 21
126.212
  0
LINE
  8
0
 10
85.5996
 20
126.212
 11
85.6504
 21
126.233
  0
LINE
  8
0
 10
85.6504
 20
126.233
 11
85.6768
 21
126.244
  0
LINE
  8
0
 10
85.6768
 20
126.244
 11
85.7031
 21
126.254
  0
LINE
  8
0
 10
85.7031
 20
126.254
 11
85.7822
 21
126.28
  0
LINE
  8
0
 10
85.7822
 20
126.28
 11
85.8086
 21
126.288
  0
LINE
  8
0
 10
85.8086
 20
126.288
 11
85.8359
 21
126.296
  0
LINE
  8
0
 10
85.8359
 20
126.296
 11
85.8633
 21
126.303
  0
LINE
  8
0
 10
85.8633
 20
126.303
 11
85.8896
 21
126.309
  0
LINE
  8
0
 10
85.8896
 20
126.309
 11
85.917
 21
126.315
  0
LINE
  8
0
 10
85.917
 20
126.315
 11
85.9443
 21
126.32
  0
LINE
  8
0
 10
85.9443
 20
126.32
 11
85.9717
 21
126.326
  0
LINE
  8
0
 10
85.9717
 20
126.326
 11
86
 21
126.33
  0
LINE
  8
0
 10
86
 20
126.33
 11
86.0547
 21
126.338
  0
LINE
  8
0
 10
86.0547
 20
126.338
 11
86.083
 21
126.341
  0
LINE
  8
0
 10
86.083
 20
126.341
 11
86.1104
 21
126.344
  0
LINE
  8
0
 10
86.1104
 20
126.344
 11
86.1387
 21
126.346
  0
LINE
  8
0
 10
86.1387
 20
126.346
 11
86.166
 21
126.348
  0
LINE
  8
0
 10
86.166
 20
126.348
 11
86.2217
 21
126.35
  0
LINE
  8
0
 10
86.2217
 20
126.35
 11
86.2783
 21
126.35
  0
LINE
  8
0
 10
86.2783
 20
126.35
 11
86.334
 21
126.348
  0
LINE
  8
0
 10
86.334
 20
126.348
 11
86.3613
 21
126.346
  0
LINE
  8
0
 10
86.3613
 20
126.346
 11
86.3896
 21
126.344
  0
LINE
  8
0
 10
86.3896
 20
126.344
 11
86.417
 21
126.341
  0
LINE
  8
0
 10
86.417
 20
126.341
 11
86.4453
 21
126.338
  0
LINE
  8
0
 10
86.4453
 20
126.338
 11
86.5
 21
126.33
  0
LINE
  8
0
 10
86.5
 20
126.33
 11
86.5283
 21
126.326
  0
LINE
  8
0
 10
86.5283
 20
126.326
 11
86.5557
 21
126.32
  0
LINE
  8
0
 10
86.5557
 20
126.32
 11
86.583
 21
126.315
  0
LINE
  8
0
 10
86.583
 20
126.315
 11
86.6104
 21
126.309
  0
LINE
  8
0
 10
86.6104
 20
126.309
 11
86.6367
 21
126.303
  0
LINE
  8
0
 10
86.6367
 20
126.303
 11
86.6641
 21
126.296
  0
LINE
  8
0
 10
86.6641
 20
126.296
 11
86.6914
 21
126.288
  0
LINE
  8
0
 10
86.6914
 20
126.288
 11
86.7178
 21
126.28
  0
LINE
  8
0
 10
86.7178
 20
126.28
 11
86.7969
 21
126.254
  0
LINE
  8
0
 10
86.7969
 20
126.254
 11
86.8232
 21
126.244
  0
LINE
  8
0
 10
86.8232
 20
126.244
 11
86.8496
 21
126.233
  0
LINE
  8
0
 10
86.8496
 20
126.233
 11
86.9004
 21
126.212
  0
LINE
  8
0
 10
86.9004
 20
126.212
 11
86.9512
 21
126.188
  0
LINE
  8
0
 10
86.9512
 20
126.188
 11
86.9766
 21
126.176
  0
LINE
  8
0
 10
86.9766
 20
126.176
 11
87.001
 21
126.163
  0
LINE
  8
0
 10
87.001
 20
126.163
 11
87.0498
 21
126.136
  0
LINE
  8
0
 10
87.0498
 20
126.136
 11
87.0742
 21
126.121
  0
LINE
  8
0
 10
87.0742
 20
126.121
 11
87.1211
 21
126.092
  0
LINE
  8
0
 10
87.1211
 20
126.092
 11
87.168
 21
126.061
  0
LINE
  8
0
 10
87.168
 20
126.061
 11
87.2354
 21
126.011
  0
LINE
  8
0
 10
87.2354
 20
126.011
 11
87.2998
 21
125.958
  0
LINE
  8
0
 10
87.2998
 20
125.958
 11
87.3203
 21
125.939
  0
LINE
  8
0
 10
87.3203
 20
125.939
 11
87.3408
 21
125.92
  0
LINE
  8
0
 10
87.3408
 20
125.92
 11
87.3613
 21
125.901
  0
LINE
  8
0
 10
87.3613
 20
125.901
 11
87.3818
 21
125.882
  0
LINE
  8
0
 10
87.3818
 20
125.882
 11
87.4014
 21
125.861
  0
LINE
  8
0
 10
87.4014
 20
125.861
 11
87.4199
 21
125.841
  0
LINE
  8
0
 10
87.4199
 20
125.841
 11
87.4395
 21
125.82
  0
LINE
  8
0
 10
87.4395
 20
125.82
 11
87.458
 21
125.8
  0
LINE
  8
0
 10
87.458
 20
125.8
 11
87.5107
 21
125.735
  0
LINE
  8
0
 10
87.5107
 20
125.735
 11
87.5605
 21
125.668
  0
LINE
  8
0
 10
87.5605
 20
125.668
 11
87.5918
 21
125.621
  0
LINE
  8
0
 10
87.5918
 20
125.621
 11
87.6211
 21
125.574
  0
LINE
  8
0
 10
87.6211
 20
125.574
 11
87.6357
 21
125.55
  0
LINE
  8
0
 10
87.6357
 20
125.55
 11
87.6631
 21
125.501
  0
LINE
  8
0
 10
87.6631
 20
125.501
 11
87.6758
 21
125.477
  0
LINE
  8
0
 10
87.6758
 20
125.477
 11
87.6885
 21
125.451
  0
LINE
  8
0
 10
87.6885
 20
125.451
 11
87.7119
 21
125.4
  0
LINE
  8
0
 10
87.7119
 20
125.4
 11
87.7334
 21
125.35
  0
LINE
  8
0
 10
87.7334
 20
125.35
 11
87.7441
 21
125.323
  0
LINE
  8
0
 10
87.7441
 20
125.323
 11
87.7539
 21
125.297
  0
LINE
  8
0
 10
87.7539
 20
125.297
 11
87.7803
 21
125.218
  0
LINE
  8
0
 10
87.7803
 20
125.218
 11
87.7881
 21
125.191
  0
LINE
  8
0
 10
87.7881
 20
125.191
 11
87.7959
 21
125.164
  0
LINE
  8
0
 10
87.7959
 20
125.164
 11
87.8027
 21
125.137
  0
LINE
  8
0
 10
87.8027
 20
125.137
 11
87.8086
 21
125.11
  0
LINE
  8
0
 10
87.8086
 20
125.11
 11
87.8154
 21
125.083
  0
LINE
  8
0
 10
87.8154
 20
125.083
 11
87.8203
 21
125.056
  0
LINE
  8
0
 10
87.8203
 20
125.056
 11
87.8262
 21
125.028
  0
LINE
  8
0
 10
87.8262
 20
125.028
 11
87.8301
 21
125
  0
LINE
  8
0
 10
87.8301
 20
125
 11
87.8379
 21
124.945
  0
LINE
  8
0
 10
87.8379
 20
124.945
 11
87.8408
 21
124.917
  0
LINE
  8
0
 10
87.8408
 20
124.917
 11
87.8438
 21
124.89
  0
LINE
  8
0
 10
87.8438
 20
124.89
 11
87.8457
 21
124.861
  0
LINE
  8
0
 10
87.8457
 20
124.861
 11
87.8477
 21
124.834
  0
LINE
  8
0
 10
87.8477
 20
124.834
 11
87.8496
 21
124.778
  0
LINE
  8
0
 10
87.8496
 20
124.778
 11
87.8496
 21
124.722
  0
LINE
  8
0
 10
87.8496
 20
124.722
 11
87.8477
 21
124.666
  0
LINE
  8
0
 10
87.8477
 20
124.666
 11
87.8457
 21
124.639
  0
LINE
  8
0
 10
87.8457
 20
124.639
 11
87.8438
 21
124.61
  0
LINE
  8
0
 10
87.8438
 20
124.61
 11
87.8408
 21
124.583
  0
LINE
  8
0
 10
87.8408
 20
124.583
 11
87.8379
 21
124.555
  0
LINE
  8
0
 10
87.8379
 20
124.555
 11
87.8301
 21
124.5
  0
LINE
  8
0
 10
87.8301
 20
124.5
 11
87.8262
 21
124.472
  0
LINE
  8
0
 10
87.8262
 20
124.472
 11
87.8203
 21
124.444
  0
LINE
  8
0
 10
87.8203
 20
124.444
 11
87.8154
 21
124.417
  0
LINE
  8
0
 10
87.8154
 20
124.417
 11
87.8086
 21
124.39
  0
LINE
  8
0
 10
87.8086
 20
124.39
 11
87.8027
 21
124.363
  0
LINE
  8
0
 10
87.8027
 20
124.363
 11
87.7959
 21
124.336
  0
LINE
  8
0
 10
87.7959
 20
124.336
 11
87.7881
 21
124.309
  0
LINE
  8
0
 10
87.7881
 20
124.309
 11
87.7803
 21
124.282
  0
LINE
  8
0
 10
87.7803
 20
124.282
 11
87.7539
 21
124.203
  0
LINE
  8
0
 10
87.7539
 20
124.203
 11
87.7441
 21
124.177
  0
LINE
  8
0
 10
87.7441
 20
124.177
 11
87.7334
 21
124.15
  0
LINE
  8
0
 10
87.7334
 20
124.15
 11
87.7119
 21
124.1
  0
LINE
  8
0
 10
87.7119
 20
124.1
 11
87.6885
 21
124.049
  0
LINE
  8
0
 10
87.6885
 20
124.049
 11
87.6758
 21
124.023
  0
LINE
  8
0
 10
87.6758
 20
124.023
 11
87.6631
 21
123.999
  0
LINE
  8
0
 10
87.6631
 20
123.999
 11
87.6357
 21
123.95
  0
LINE
  8
0
 10
87.6357
 20
123.95
 11
87.6211
 21
123.926
  0
LINE
  8
0
 10
87.6211
 20
123.926
 11
87.5918
 21
123.879
  0
LINE
  8
0
 10
87.5918
 20
123.879
 11
87.5605
 21
123.832
  0
LINE
  8
0
 10
87.5605
 20
123.832
 11
87.5107
 21
123.765
  0
LINE
  8
0
 10
87.5107
 20
123.765
 11
87.458
 21
123.7
  0
LINE
  8
0
 10
87.458
 20
123.7
 11
87.4395
 21
123.68
  0
LINE
  8
0
 10
87.4395
 20
123.68
 11
87.4199
 21
123.659
  0
LINE
  8
0
 10
87.4199
 20
123.659
 11
87.4014
 21
123.639
  0
LINE
  8
0
 10
87.4014
 20
123.639
 11
87.3818
 21
123.618
  0
LINE
  8
0
 10
87.3818
 20
123.618
 11
87.3613
 21
123.599
  0
LINE
  8
0
 10
87.3613
 20
123.599
 11
87.3408
 21
123.58
  0
LINE
  8
0
 10
87.3408
 20
123.58
 11
87.3203
 21
123.561
  0
LINE
  8
0
 10
87.3203
 20
123.561
 11
87.2998
 21
123.542
  0
LINE
  8
0
 10
87.2998
 20
123.542
 11
87.2354
 21
123.489
  0
LINE
  8
0
 10
87.2354
 20
123.489
 11
87.168
 21
123.439
  0
LINE
  8
0
 10
87.168
 20
123.439
 11
87.1211
 21
123.408
  0
LINE
  8
0
 10
87.1211
 20
123.408
 11
87.0742
 21
123.379
  0
LINE
  8
0
 10
87.0742
 20
123.379
 11
87.0498
 21
123.364
  0
LINE
  8
0
 10
87.0498
 20
123.364
 11
87.001
 21
123.337
  0
LINE
  8
0
 10
87.001
 20
123.337
 11
86.9766
 21
123.324
  0
LINE
  8
0
 10
86.9766
 20
123.324
 11
86.9512
 21
123.312
  0
LINE
  8
0
 10
86.9512
 20
123.312
 11
86.9004
 21
123.288
  0
LINE
  8
0
 10
86.9004
 20
123.288
 11
86.8496
 21
123.267
  0
LINE
  8
0
 10
86.8496
 20
123.267
 11
86.8232
 21
123.256
  0
LINE
  8
0
 10
86.8232
 20
123.256
 11
86.7969
 21
123.246
  0
LINE
  8
0
 10
86.7969
 20
123.246
 11
86.7178
 21
123.22
  0
LINE
  8
0
 10
86.7178
 20
123.22
 11
86.6914
 21
123.212
  0
LINE
  8
0
 10
86.6914
 20
123.212
 11
86.6641
 21
123.204
  0
LINE
  8
0
 10
86.6641
 20
123.204
 11
86.6367
 21
123.197
  0
LINE
  8
0
 10
86.6367
 20
123.197
 11
86.6104
 21
123.191
  0
LINE
  8
0
 10
86.6104
 20
123.191
 11
86.583
 21
123.185
  0
LINE
  8
0
 10
86.583
 20
123.185
 11
86.5557
 21
123.18
  0
LINE
  8
0
 10
86.5557
 20
123.18
 11
86.5283
 21
123.174
  0
LINE
  8
0
 10
86.5283
 20
123.174
 11
86.5
 21
123.17
  0
LINE
  8
0
 10
86.5
 20
123.17
 11
86.4453
 21
123.162
  0
LINE
  8
0
 10
86.4453
 20
123.162
 11
86.417
 21
123.159
  0
LINE
  8
0
 10
86.417
 20
123.159
 11
86.3896
 21
123.156
  0
LINE
  8
0
 10
86.3896
 20
123.156
 11
86.3613
 21
123.154
  0
LINE
  8
0
 10
86.3613
 20
123.154
 11
86.334
 21
123.152
  0
LINE
  8
0
 10
86.334
 20
123.152
 11
86.2783
 21
123.15
  0
LINE
  8
0
 10
86.2783
 20
123.15
 11
86.2217
 21
123.15
  0
LINE
  8
0
 10
86.2217
 20
51.6504
 11
86.166
 21
51.6523
  0
LINE
  8
0
 10
86.166
 20
51.6523
 11
86.1387
 21
51.6543
  0
LINE
  8
0
 10
86.1387
 20
51.6543
 11
86.1104
 21
51.6562
  0
LINE
  8
0
 10
86.1104
 20
51.6562
 11
86.083
 21
51.6592
  0
LINE
  8
0
 10
86.083
 20
51.6592
 11
86.0547
 21
51.6621
  0
LINE
  8
0
 10
86.0547
 20
51.6621
 11
86
 21
51.6699
  0
LINE
  8
0
 10
86
 20
51.6699
 11
85.9717
 21
51.6738
  0
LINE
  8
0
 10
85.9717
 20
51.6738
 11
85.9443
 21
51.6797
  0
LINE
  8
0
 10
85.9443
 20
51.6797
 11
85.917
 21
51.6846
  0
LINE
  8
0
 10
85.917
 20
51.6846
 11
85.8896
 21
51.6914
  0
LINE
  8
0
 10
85.8896
 20
51.6914
 11
85.8633
 21
51.6973
  0
LINE
  8
0
 10
85.8633
 20
51.6973
 11
85.8359
 21
51.7041
  0
LINE
  8
0
 10
85.8359
 20
51.7041
 11
85.8086
 21
51.7119
  0
LINE
  8
0
 10
85.8086
 20
51.7119
 11
85.7822
 21
51.7197
  0
LINE
  8
0
 10
85.7822
 20
51.7197
 11
85.7031
 21
51.7461
  0
LINE
  8
0
 10
85.7031
 20
51.7461
 11
85.6768
 21
51.7559
  0
LINE
  8
0
 10
85.6768
 20
51.7559
 11
85.6504
 21
51.7666
  0
LINE
  8
0
 10
85.6504
 20
51.7666
 11
85.5996
 21
51.7881
  0
LINE
  8
0
 10
85.5996
 20
51.7881
 11
85.5488
 21
51.8115
  0
LINE
  8
0
 10
85.5488
 20
51.8115
 11
85.5234
 21
51.8242
  0
LINE
  8
0
 10
85.5234
 20
51.8242
 11
85.499
 21
51.8369
  0
LINE
  8
0
 10
85.499
 20
51.8369
 11
85.4502
 21
51.8643
  0
LINE
  8
0
 10
85.4502
 20
51.8643
 11
85.4258
 21
51.8789
  0
LINE
  8
0
 10
85.4258
 20
51.8789
 11
85.3789
 21
51.9082
  0
LINE
  8
0
 10
85.3789
 20
51.9082
 11
85.332
 21
51.9395
  0
LINE
  8
0
 10
85.332
 20
51.9395
 11
85.2646
 21
51.9893
  0
LINE
  8
0
 10
85.2646
 20
51.9893
 11
85.2002
 21
52.042
  0
LINE
  8
0
 10
85.2002
 20
52.042
 11
85.1797
 21
52.0605
  0
LINE
  8
0
 10
85.1797
 20
52.0605
 11
85.1592
 21
52.0801
  0
LINE
  8
0
 10
85.1592
 20
52.0801
 11
85.1387
 21
52.0986
  0
LINE
  8
0
 10
85.1387
 20
52.0986
 11
85.1182
 21
52.1182
  0
LINE
  8
0
 10
85.1182
 20
52.1182
 11
85.0986
 21
52.1387
  0
LINE
  8
0
 10
85.0986
 20
52.1387
 11
85.0801
 21
52.1592
  0
LINE
  8
0
 10
85.0801
 20
52.1592
 11
85.0605
 21
52.1797
  0
LINE
  8
0
 10
85.0605
 20
52.1797
 11
85.042
 21
52.2002
  0
LINE
  8
0
 10
85.042
 20
52.2002
 11
84.9893
 21
52.2646
  0
LINE
  8
0
 10
84.9893
 20
52.2646
 11
84.9395
 21
52.332
  0
LINE
  8
0
 10
84.9395
 20
52.332
 11
84.9082
 21
52.3789
  0
LINE
  8
0
 10
84.9082
 20
52.3789
 11
84.8789
 21
52.4258
  0
LINE
  8
0
 10
84.8789
 20
52.4258
 11
84.8643
 21
52.4502
  0
LINE
  8
0
 10
84.8643
 20
52.4502
 11
84.8369
 21
52.499
  0
LINE
  8
0
 10
84.8369
 20
52.499
 11
84.8242
 21
52.5234
  0
LINE
  8
0
 10
84.8242
 20
52.5234
 11
84.8115
 21
52.5488
  0
LINE
  8
0
 10
84.8115
 20
52.5488
 11
84.7881
 21
52.5996
  0
LINE
  8
0
 10
84.7881
 20
52.5996
 11
84.7666
 21
52.6504
  0
LINE
  8
0
 10
84.7666
 20
52.6504
 11
84.7559
 21
52.6768
  0
LINE
  8
0
 10
84.7559
 20
52.6768
 11
84.7461
 21
52.7031
  0
LINE
  8
0
 10
84.7461
 20
52.7031
 11
84.7197
 21
52.7822
  0
LINE
  8
0
 10
84.7197
 20
52.7822
 11
84.7119
 21
52.8086
  0
LINE
  8
0
 10
84.7119
 20
52.8086
 11
84.7041
 21
52.8359
  0
LINE
  8
0
 10
84.7041
 20
52.8359
 11
84.6973
 21
52.8633
  0
LINE
  8
0
 10
84.6973
 20
52.8633
 11
84.6914
 21
52.8896
  0
LINE
  8
0
 10
84.6914
 20
52.8896
 11
84.6846
 21
52.917
  0
LINE
  8
0
 10
84.6846
 20
52.917
 11
84.6797
 21
52.9443
  0
LINE
  8
0
 10
84.6797
 20
52.9443
 11
84.6738
 21
52.9717
  0
LINE
  8
0
 10
84.6738
 20
52.9717
 11
84.6699
 21
53
  0
LINE
  8
0
 10
84.6699
 20
53
 11
84.6621
 21
53.0547
  0
LINE
  8
0
 10
84.6621
 20
53.0547
 11
84.6592
 21
53.083
  0
LINE
  8
0
 10
84.6592
 20
53.083
 11
84.6562
 21
53.1104
  0
LINE
  8
0
 10
84.6562
 20
53.1104
 11
84.6543
 21
53.1387
  0
LINE
  8
0
 10
84.6543
 20
53.1387
 11
84.6523
 21
53.166
  0
LINE
  8
0
 10
84.6523
 20
53.166
 11
84.6504
 21
53.2217
  0
LINE
  8
0
 10
84.6504
 20
53.2217
 11
84.6504
 21
53.2783
  0
LINE
  8
0
 10
84.6504
 20
53.2783
 11
84.6523
 21
53.334
  0
LINE
  8
0
 10
84.6523
 20
53.334
 11
84.6543
 21
53.3613
  0
LINE
  8
0
 10
84.6543
 20
53.3613
 11
84.6562
 21
53.3896
  0
LINE
  8
0
 10
84.6562
 20
53.3896
 11
84.6592
 21
53.417
  0
LINE
  8
0
 10
84.6592
 20
53.417
 11
84.6621
 21
53.4453
  0
LINE
  8
0
 10
84.6621
 20
53.4453
 11
84.6699
 21
53.5
  0
LINE
  8
0
 10
84.6699
 20
53.5
 11
84.6738
 21
53.5283
  0
LINE
  8
0
 10
84.6738
 20
53.5283
 11
84.6797
 21
53.5557
  0
LINE
  8
0
 10
84.6797
 20
53.5557
 11
84.6846
 21
53.583
  0
LINE
  8
0
 10
84.6846
 20
53.583
 11
84.6914
 21
53.6104
  0
LINE
  8
0
 10
84.6914
 20
53.6104
 11
84.6973
 21
53.6367
  0
LINE
  8
0
 10
84.6973
 20
53.6367
 11
84.7041
 21
53.6641
  0
LINE
  8
0
 10
84.7041
 20
53.6641
 11
84.7119
 21
53.6914
  0
LINE
  8
0
 10
84.7119
 20
53.6914
 11
84.7197
 21
53.7178
  0
LINE
  8
0
 10
84.7197
 20
53.7178
 11
84.7461
 21
53.7969
  0
LINE
  8
0
 10
84.7461
 20
53.7969
 11
84.7559
 21
53.8232
  0
LINE
  8
0
 10
84.7559
 20
53.8232
 11
84.7666
 21
53.8496
  0
LINE
  8
0
 10
84.7666
 20
53.8496
 11
84.7881
 21
53.9004
  0
LINE
  8
0
 10
84.7881
 20
53.9004
 11
84.8115
 21
53.9512
  0
LINE
  8
0
 10
84.8115
 20
53.9512
 11
84.8242
 21
53.9766
  0
LINE
  8
0
 10
84.8242
 20
53.9766
 11
84.8369
 21
54.001
  0
LINE
  8
0
 10
84.8369
 20
54.001
 11
84.8643
 21
54.0498
  0
LINE
  8
0
 10
84.8643
 20
54.0498
 11
84.8789
 21
54.0742
  0
LINE
  8
0
 10
84.8789
 20
54.0742
 11
84.9082
 21
54.1211
  0
LINE
  8
0
 10
84.9082
 20
54.1211
 11
84.9395
 21
54.168
  0
LINE
  8
0
 10
84.9395
 20
54.168
 11
84.9893
 21
54.2354
  0
LINE
  8
0
 10
84.9893
 20
54.2354
 11
85.042
 21
54.2998
  0
LINE
  8
0
 10
85.042
 20
54.2998
 11
85.0605
 21
54.3203
  0
LINE
  8
0
 10
85.0605
 20
54.3203
 11
85.0801
 21
54.3408
  0
LINE
  8
0
 10
85.0801
 20
54.3408
 11
85.0986
 21
54.3613
  0
LINE
  8
0
 10
85.0986
 20
54.3613
 11
85.1182
 21
54.3818
  0
LINE
  8
0
 10
85.1182
 20
54.3818
 11
85.1387
 21
54.4014
  0
LINE
  8
0
 10
85.1387
 20
54.4014
 11
85.1592
 21
54.4199
  0
LINE
  8
0
 10
85.1592
 20
54.4199
 11
85.1797
 21
54.4395
  0
LINE
  8
0
 10
85.1797
 20
54.4395
 11
85.2002
 21
54.458
  0
LINE
  8
0
 10
85.2002
 20
54.458
 11
85.2646
 21
54.5107
  0
LINE
  8
0
 10
85.2646
 20
54.5107
 11
85.332
 21
54.5605
  0
LINE
  8
0
 10
85.332
 20
54.5605
 11
85.3789
 21
54.5918
  0
LINE
  8
0
 10
85.3789
 20
54.5918
 11
85.4258
 21
54.6211
  0
LINE
  8
0
 10
85.4258
 20
54.6211
 11
85.4502
 21
54.6357
  0
LINE
  8
0
 10
85.4502
 20
54.6357
 11
85.499
 21
54.6631
  0
LINE
  8
0
 10
85.499
 20
54.6631
 11
85.5234
 21
54.6758
  0
LINE
  8
0
 10
85.5234
 20
54.6758
 11
85.5488
 21
54.6885
  0
LINE
  8
0
 10
85.5488
 20
54.6885
 11
85.5996
 21
54.7119
  0
LINE
  8
0
 10
85.5996
 20
54.7119
 11
85.6504
 21
54.7334
  0
LINE
  8
0
 10
85.6504
 20
54.7334
 11
85.6768
 21
54.7441
  0
LINE
  8
0
 10
85.6768
 20
54.7441
 11
85.7031
 21
54.7539
  0
LINE
  8
0
 10
85.7031
 20
54.7539
 11
85.7822
 21
54.7803
  0
LINE
  8
0
 10
85.7822
 20
54.7803
 11
85.8086
 21
54.7881
  0
LINE
  8
0
 10
85.8086
 20
54.7881
 11
85.8359
 21
54.7959
  0
LINE
  8
0
 10
85.8359
 20
54.7959
 11
85.8633
 21
54.8027
  0
LINE
  8
0
 10
85.8633
 20
54.8027
 11
85.8896
 21
54.8086
  0
LINE
  8
0
 10
85.8896
 20
54.8086
 11
85.917
 21
54.8154
  0
LINE
  8
0
 10
85.917
 20
54.8154
 11
85.9443
 21
54.8203
  0
LINE
  8
0
 10
85.9443
 20
54.8203
 11
85.9717
 21
54.8262
  0
LINE
  8
0
 10
85.9717
 20
54.8262
 11
86
 21
54.8301
  0
LINE
  8
0
 10
86
 20
54.8301
 11
86.0547
 21
54.8379
  0
LINE
  8
0
 10
86.0547
 20
54.8379
 11
86.083
 21
54.8408
  0
LINE
  8
0
 10
86.083
 20
54.8408
 11
86.1104
 21
54.8438
  0
LINE
  8
0
 10
86.1104
 20
54.8438
 11
86.1387
 21
54.8457
  0
LINE
  8
0
 10
86.1387
 20
54.8457
 11
86.166
 21
54.8477
  0
LINE
  8
0
 10
86.166
 20
54.8477
 11
86.2217
 21
54.8496
  0
LINE
  8
0
 10
86.2217
 20
54.8496
 11
86.2783
 21
54.8496
  0
LINE
  8
0
 10
86.2783
 20
54.8496
 11
86.334
 21
54.8477
  0
LINE
  8
0
 10
86.334
 20
54.8477
 11
86.3613
 21
54.8457
  0
LINE
  8
0
 10
86.3613
 20
54.8457
 11
86.3896
 21
54.8438
  0
LINE
  8
0
 10
86.3896
 20
54.8438
 11
86.417
 21
54.8408
  0
LINE
  8
0
 10
86.417
 20
54.8408
 11
86.4453
 21
54.8379
  0
LINE
  8
0
 10
86.4453
 20
54.8379
 11
86.5
 21
54.8301
  0
LINE
  8
0
 10
86.5
 20
54.8301
 11
86.5283
 21
54.8262
  0
LINE
  8
0
 10
86.5283
 20
54.8262
 11
86.5557
 21
54.8203
  0
LINE
  8
0
 10
86.5557
 20
54.8203
 11
86.583
 21
54.8154
  0
LINE
  8
0
 10
86.583
 20
54.8154
 11
86.6104
 21
54.8086
  0
LINE
  8
0
 10
86.6104
 20
54.8086
 11
86.6367
 21
54.8027
  0
LINE
  8
0
 10
86.6367
 20
54.8027
 11
86.6641
 21
54.7959
  0
LINE
  8
0
 10
86.6641
 20
54.7959
 11
86.6914
 21
54.7881
  0
LINE
  8
0
 10
86.6914
 20
54.7881
 11
86.7178
 21
54.7803
  0
LINE
  8
0
 10
86.7178
 20
54.7803
 11
86.7969
 21
54.7539
  0
LINE
  8
0
 10
86.7969
 20
54.7539
 11
86.8232
 21
54.7441
  0
LINE
  8
0
 10
86.8232
 20
54.7441
 11
86.8496
 21
54.7334
  0
LINE
  8
0
 10
86.8496
 20
54.7334
 11
86.9004
 21
54.7119
  0
LINE
  8
0
 10
86.9004
 20
54.7119
 11
86.9512
 21
54.6885
  0
LINE
  8
0
 10
86.9512
 20
54.6885
 11
86.9766
 21
54.6758
  0
LINE
  8
0
 10
86.9766
 20
54.6758
 11
87.001
 21
54.6631
  0
LINE
  8
0
 10
87.001
 20
54.6631
 11
87.0498
 21
54.6357
  0
LINE
  8
0
 10
87.0498
 20
54.6357
 11
87.0742
 21
54.6211
  0
LINE
  8
0
 10
87.0742
 20
54.6211
 11
87.1211
 21
54.5918
  0
LINE
  8
0
 10
87.1211
 20
54.5918
 11
87.168
 21
54.5605
  0
LINE
  8
0
 10
87.168
 20
54.5605
 11
87.2354
 21
54.5107
  0
LINE
  8
0
 10
87.2354
 20
54.5107
 11
87.2998
 21
54.458
  0
LINE
  8
0
 10
87.2998
 20
54.458
 11
87.3203
 21
54.4395
  0
LINE
  8
0
 10
87.3203
 20
54.4395
 11
87.3408
 21
54.4199
  0
LINE
  8
0
 10
87.3408
 20
54.4199
 11
87.3613
 21
54.4014
  0
LINE
  8
0
 10
87.3613
 20
54.4014
 11
87.3818
 21
54.3818
  0
LINE
  8
0
 10
87.3818
 20
54.3818
 11
87.4014
 21
54.3613
  0
LINE
  8
0
 10
87.4014
 20
54.3613
 11
87.4199
 21
54.3408
  0
LINE
  8
0
 10
87.4199
 20
54.3408
 11
87.4395
 21
54.3203
  0
LINE
  8
0
 10
87.4395
 20
54.3203
 11
87.458
 21
54.2998
  0
LINE
  8
0
 10
87.458
 20
54.2998
 11
87.5107
 21
54.2354
  0
LINE
  8
0
 10
87.5107
 20
54.2354
 11
87.5605
 21
54.168
  0
LINE
  8
0
 10
87.5605
 20
54.168
 11
87.5918
 21
54.1211
  0
LINE
  8
0
 10
87.5918
 20
54.1211
 11
87.6211
 21
54.0742
  0
LINE
  8
0
 10
87.6211
 20
54.0742
 11
87.6357
 21
54.0498
  0
LINE
  8
0
 10
87.6357
 20
54.0498
 11
87.6631
 21
54.001
  0
LINE
  8
0
 10
87.6631
 20
54.001
 11
87.6758
 21
53.9766
  0
LINE
  8
0
 10
87.6758
 20
53.9766
 11
87.6885
 21
53.9512
  0
LINE
  8
0
 10
87.6885
 20
53.9512
 11
87.7119
 21
53.9004
  0
LINE
  8
0
 10
87.7119
 20
53.9004
 11
87.7334
 21
53.8496
  0
LINE
  8
0
 10
87.7334
 20
53.8496
 11
87.7441
 21
53.8232
  0
LINE
  8
0
 10
87.7441
 20
53.8232
 11
87.7539
 21
53.7969
  0
LINE
  8
0
 10
87.7539
 20
53.7969
 11
87.7803
 21
53.7178
  0
LINE
  8
0
 10
87.7803
 20
53.7178
 11
87.7881
 21
53.6914
  0
LINE
  8
0
 10
87.7881
 20
53.6914
 11
87.7959
 21
53.6641
  0
LINE
  8
0
 10
87.7959
 20
53.6641
 11
87.8027
 21
53.6367
  0
LINE
  8
0
 10
87.8027
 20
53.6367
 11
87.8086
 21
53.6104
  0
LINE
  8
0
 10
87.8086
 20
53.6104
 11
87.8154
 21
53.583
  0
LINE
  8
0
 10
87.8154
 20
53.583
 11
87.8203
 21
53.5557
  0
LINE
  8
0
 10
87.8203
 20
53.5557
 11
87.8262
 21
53.5283
  0
LINE
  8
0
 10
87.8262
 20
53.5283
 11
87.8301
 21
53.5
  0
LINE
  8
0
 10
87.8301
 20
53.5
 11
87.8379
 21
53.4453
  0
LINE
  8
0
 10
87.8379
 20
53.4453
 11
87.8408
 21
53.417
  0
LINE
  8
0
 10
87.8408
 20
53.417
 11
87.8438
 21
53.3896
  0
LINE
  8
0
 10
87.8438
 20
53.3896
 11
87.8457
 21
53.3613
  0
LINE
  8
0
 10
87.8457
 20
53.3613
 11
87.8477
 21
53.334
  0
LINE
  8
0
 10
87.8477
 20
53.334
 11
87.8496
 21
53.2783
  0
LINE
  8
0
 10
87.8496
 20
53.2783
 11
87.8496
 21
53.2217
  0
LINE
  8
0
 10
87.8496
 20
53.2217
 11
87.8477
 21
53.166
  0
LINE
  8
0
 10
87.8477
 20
53.166
 11
87.8457
 21
53.1387
  0
LINE
  8
0
 10
87.8457
 20
53.1387
 11
87.8438
 21
53.1104
  0
LINE
  8
0
 10
87.8438
 20
53.1104
 11
87.8408
 21
53.083
  0
LINE
  8
0
 10
87.8408
 20
53.083
 11
87.8379
 21
53.0547
  0
LINE
  8
0
 10
87.8379
 20
53.0547
 11
87.8301
 21
53
  0
LINE
  8
0
 10
87.8301
 20
53
 11
87.8262
 21
52.9717
  0
LINE
  8
0
 10
87.8262
 20
52.9717
 11
87.8203
 21
52.9443
  0
LINE
  8
0
 10
87.8203
 20
52.9443
 11
87.8154
 21
52.917
  0
LINE
  8
0
 10
87.8154
 20
52.917
 11
87.8086
 21
52.8896
  0
LINE
  8
0
 10
87.8086
 20
52.8896
 11
87.8027
 21
52.8633
  0
LINE
  8
0
 10
87.8027
 20
52.8633
 11
87.7959
 21
52.8359
  0
LINE
  8
0
 10
87.7959
 20
52.8359
 11
87.7881
 21
52.8086
  0
LINE
  8
0
 10
87.7881
 20
52.8086
 11
87.7803
 21
52.7822
  0
LINE
  8
0
 10
87.7803
 20
52.7822
 11
87.7539
 21
52.7031
  0
LINE
  8
0
 10
87.7539
 20
52.7031
 11
87.7441
 21
52.6768
  0
LINE
  8
0
 10
87.7441
 20
52.6768
 11
87.7334
 21
52.6504
  0
LINE
  8
0
 10
87.7334
 20
52.6504
 11
87.7119
 21
52.5996
  0
LINE
  8
0
 10
87.7119
 20
52.5996
 11
87.6885
 21
52.5488
  0
LINE
  8
0
 10
87.6885
 20
52.5488
 11
87.6758
 21
52.5234
  0
LINE
  8
0
 10
87.6758
 20
52.5234
 11
87.6631
 21
52.499
  0
LINE
  8
0
 10
87.6631
 20
52.499
 11
87.6357
 21
52.4502
  0
LINE
  8
0
 10
87.6357
 20
52.4502
 11
87.6211
 21
52.4258
  0
LINE
  8
0
 10
87.6211
 20
52.4258
 11
87.5918
 21
52.3789
  0
LINE
  8
0
 10
87.5918
 20
52.3789
 11
87.5605
 21
52.332
  0
LINE
  8
0
 10
87.5605
 20
52.332
 11
87.5107
 21
52.2646
  0
LINE
  8
0
 10
87.5107
 20
52.2646
 11
87.458
 21
52.2002
  0
LINE
  8
0
 10
87.458
 20
52.2002
 11
87.4395
 21
52.1797
  0
LINE
  8
0
 10
87.4395
 20
52.1797
 11
87.4199
 21
52.1592
  0
LINE
  8
0
 10
87.4199
 20
52.1592
 11
87.4014
 21
52.1387
  0
LINE
  8
0
 10
87.4014
 20
52.1387
 11
87.3818
 21
52.1182
  0
LINE
  8
0
 10
87.3818
 20
52.1182
 11
87.3613
 21
52.0986
  0
LINE
  8
0
 10
87.3613
 20
52.0986
 11
87.3408
 21
52.0801
  0
LINE
  8
0
 10
87.3408
 20
52.0801
 11
87.3203
 21
52.0605
  0
LINE
  8
0
 10
87.3203
 20
52.0605
 11
87.2998
 21
52.042
  0
LINE
  8
0
 10
87.2998
 20
52.042
 11
87.2354
 21
51.9893
  0
LINE
  8
0
 10
87.2354
 20
51.9893
 11
87.168
 21
51.9395
  0
LINE
  8
0
 10
87.168
 20
51.9395
 11
87.1211
 21
51.9082
  0
LINE
  8
0
 10
87.1211
 20
51.9082
 11
87.0742
 21
51.8789
  0
LINE
  8
0
 10
87.0742
 20
51.8789
 11
87.0498
 21
51.8643
  0
LINE
  8
0
 10
87.0498
 20
51.8643
 11
87.001
 21
51.8369
  0
LINE
  8
0
 10
87.001
 20
51.8369
 11
86.9766
 21
51.8242
  0
LINE
  8
0
 10
86.9766
 20
51.8242
 11
86.9512
 21
51.8115
  0
LINE
  8
0
 10
86.9512
 20
51.8115
 11
86.9004
 21
51.7881
  0
LINE
  8
0
 10
86.9004
 20
51.7881
 11
86.8496
 21
51.7666
  0
LINE
  8
0
 10
86.8496
 20
51.7666
 11
86.8232
 21
51.7559
  0
LINE
  8
0
 10
86.8232
 20
51.7559
 11
86.7969
 21
51.7461
  0
LINE
  8
0
 10
86.7969
 20
51.7461
 11
86.7178
 21
51.7197
  0
LINE
  8
0
 10
86.7178
 20
51.7197
 11
86.6914
 21
51.7119
  0
LINE
  8
0
 10
86.6914
 20
51.7119
 11
86.6641
 21
51.7041
  0
LINE
  8
0
 10
86.6641
 20
51.7041
 11
86.6367
 21
51.6973
  0
LINE
  8
0
 10
86.6367
 20
51.6973
 11
86.6104
 21
51.6914
  0
LINE
  8
0
 10
86.6104
 20
51.6914
 11
86.583
 21
51.6846
  0
LINE
  8
0
 10
86.583
 20
51.6846
 11
86.5557
 21
51.6797
  0
LINE
  8
0
 10
86.5557
 20
51.6797
 11
86.5283
 21
51.6738
  0
LINE
  8
0
 10
86.5283
 20
51.6738
 11
86.5
 21
51.6699
  0
LINE
  8
0
 10
86.5
 20
51.6699
 11
86.4453
 21
51.6621
  0
LINE
  8
0
 10
86.4453
 20
51.6621
 11
86.417
 21
51.6592
  0
LINE
  8
0
 10
86.417
 20
51.6592
 11
86.3896
 21
51.6562
  0
LINE
  8
0
 10
86.3896
 20
51.6562
 11
86.3613
 21
51.6543
  0
LINE
  8
0
 10
86.3613
 20
51.6543
 11
86.334
 21
51.6523
  0
LINE
  8
0
 10
86.334
 20
51.6523
 11
86.2783
 21
51.6504
  0
LINE
  8
0
 10
86.2783
 20
51.6504
 11
86.2217
 21
51.6504
  0
LINE
  8
0
 10
14.7217
 20
51.6504
 11
14.666
 21
51.6523
  0
LINE
  8
0
 10
14.666
 20
51.6523
 11
14.6387
 21
51.6543
  0
LINE
  8
0
 10
14.6387
 20
51.6543
 11
14.6104
 21
51.6562
  0
LINE
  8
0
 10
14.6104
 20
51.6562
 11
14.583
 21
51.6592
  0
LINE
  8
0
 10
14.583
 20
51.6592
 11
14.5547
 21
51.6621
  0
LINE
  8
0
 10
14.5547
 20
51.6621
 11
14.5
 21
51.6699
  0
LINE
  8
0
 10
14.5
 20
51.6699
 11
14.4717
 21
51.6738
  0
LINE
  8
0
 10
14.4717
 20
51.6738
 11
14.4443
 21
51.6797
  0
LINE
  8
0
 10
14.4443
 20
51.6797
 11
14.417
 21
51.6846
  0
LINE
  8
0
 10
14.417
 20
51.6846
 11
14.3896
 21
51.6914
  0
LINE
  8
0
 10
14.3896
 20
51.6914
 11
14.3633
 21
51.6973
  0
LINE
  8
0
 10
14.3633
 20
51.6973
 11
14.3359
 21
51.7041
  0
LINE
  8
0
 10
14.3359
 20
51.7041
 11
14.3086
 21
51.7119
  0
LINE
  8
0
 10
14.3086
 20
51.7119
 11
14.2822
 21
51.7197
  0
LINE
  8
0
 10
14.2822
 20
51.7197
 11
14.2031
 21
51.7461
  0
LINE
  8
0
 10
14.2031
 20
51.7461
 11
14.1768
 21
51.7559
  0
LINE
  8
0
 10
14.1768
 20
51.7559
 11
14.1504
 21
51.7666
  0
LINE
  8
0
 10
14.1504
 20
51.7666
 11
14.0996
 21
51.7881
  0
LINE
  8
0
 10
14.0996
 20
51.7881
 11
14.0488
 21
51.8115
  0
LINE
  8
0
 10
14.0488
 20
51.8115
 11
14.0234
 21
51.8242
  0
LINE
  8
0
 10
14.0234
 20
51.8242
 11
13.999
 21
51.8369
  0
LINE
  8
0
 10
13.999
 20
51.8369
 11
13.9502
 21
51.8643
  0
LINE
  8
0
 10
13.9502
 20
51.8643
 11
13.9258
 21
51.8789
  0
LINE
  8
0
 10
13.9258
 20
51.8789
 11
13.8789
 21
51.9082
  0
LINE
  8
0
 10
13.8789
 20
51.9082
 11
13.832
 21
51.9395
  0
LINE
  8
0
 10
13.832
 20
51.9395
 11
13.7646
 21
51.9893
  0
LINE
  8
0
 10
13.7646
 20
51.9893
 11
13.7002
 21
52.042
  0
LINE
  8
0
 10
13.7002
 20
52.042
 11
13.6797
 21
52.0605
  0
LINE
  8
0
 10
13.6797
 20
52.0605
 11
13.6592
 21
52.0801
  0
LINE
  8
0
 10
13.6592
 20
52.0801
 11
13.6387
 21
52.0986
  0
LINE
  8
0
 10
13.6387
 20
52.0986
 11
13.6182
 21
52.1182
  0
LINE
  8
0
 10
13.6182
 20
52.1182
 11
13.5986
 21
52.1387
  0
LINE
  8
0
 10
13.5986
 20
52.1387
 11
13.5801
 21
52.1592
  0
LINE
  8
0
 10
13.5801
 20
52.1592
 11
13.5605
 21
52.1797
  0
LINE
  8
0
 10
13.5605
 20
52.1797
 11
13.542
 21
52.2002
  0
LINE
  8
0
 10
13.542
 20
52.2002
 11
13.4893
 21
52.2646
  0
LINE
  8
0
 10
13.4893
 20
52.2646
 11
13.4395
 21
52.332
  0
LINE
  8
0
 10
13.4395
 20
52.332
 11
13.4082
 21
52.3789
  0
LINE
  8
0
 10
13.4082
 20
52.3789
 11
13.3789
 21
52.4258
  0
LINE
  8
0
 10
13.3789
 20
52.4258
 11
13.3643
 21
52.4502
  0
LINE
  8
0
 10
13.3643
 20
52.4502
 11
13.3369
 21
52.499
  0
LINE
  8
0
 10
13.3369
 20
52.499
 11
13.3242
 21
52.5234
  0
LINE
  8
0
 10
13.3242
 20
52.5234
 11
13.3115
 21
52.5488
  0
LINE
  8
0
 10
13.3115
 20
52.5488
 11
13.2881
 21
52.5996
  0
LINE
  8
0
 10
13.2881
 20
52.5996
 11
13.2666
 21
52.6504
  0
LINE
  8
0
 10
13.2666
 20
52.6504
 11
13.2559
 21
52.6768
  0
LINE
  8
0
 10
13.2559
 20
52.6768
 11
13.2461
 21
52.7031
  0
LINE
  8
0
 10
13.2461
 20
52.7031
 11
13.2197
 21
52.7822
  0
LINE
  8
0
 10
13.2197
 20
52.7822
 11
13.2119
 21
52.8086
  0
LINE
  8
0
 10
13.2119
 20
52.8086
 11
13.2041
 21
52.8359
  0
LINE
  8
0
 10
13.2041
 20
52.8359
 11
13.1973
 21
52.8633
  0
LINE
  8
0
 10
13.1973
 20
52.8633
 11
13.1914
 21
52.8896
  0
LINE
  8
0
 10
13.1914
 20
52.8896
 11
13.1846
 21
52.917
  0
LINE
  8
0
 10
13.1846
 20
52.917
 11
13.1797
 21
52.9443
  0
LINE
  8
0
 10
13.1797
 20
52.9443
 11
13.1738
 21
52.9717
  0
LINE
  8
0
 10
13.1738
 20
52.9717
 11
13.1699
 21
53
  0
LINE
  8
0
 10
13.1699
 20
53
 11
13.1621
 21
53.0547
  0
LINE
  8
0
 10
13.1621
 20
53.0547
 11
13.1592
 21
53.083
  0
LINE
  8
0
 10
13.1592
 20
53.083
 11
13.1562
 21
53.1104
  0
LINE
  8
0
 10
13.1562
 20
53.1104
 11
13.1543
 21
53.1387
  0
LINE
  8
0
 10
13.1543
 20
53.1387
 11
13.1523
 21
53.166
  0
LINE
  8
0
 10
13.1523
 20
53.166
 11
13.1504
 21
53.2217
  0
LINE
  8
0
 10
13.1504
 20
53.2217
 11
13.1504
 21
53.2783
  0
LINE
  8
0
 10
13.1504
 20
53.2783
 11
13.1523
 21
53.334
  0
LINE
  8
0
 10
13.1523
 20
53.334
 11
13.1543
 21
53.3613
  0
LINE
  8
0
 10
13.1543
 20
53.3613
 11
13.1562
 21
53.3896
  0
LINE
  8
0
 10
13.1562
 20
53.3896
 11
13.1592
 21
53.417
  0
LINE
  8
0
 10
13.1592
 20
53.417
 11
13.1621
 21
53.4453
  0
LINE
  8
0
 10
13.1621
 20
53.4453
 11
13.1699
 21
53.5
  0
LINE
  8
0
 10
13.1699
 20
53.5
 11
13.1738
 21
53.5283
  0
LINE
  8
0
 10
13.1738
 20
53.5283
 11
13.1797
 21
53.5557
  0
LINE
  8
0
 10
13.1797
 20
53.5557
 11
13.1846
 21
53.583
  0
LINE
  8
0
 10
13.1846
 20
53.583
 11
13.1914
 21
53.6104
  0
LINE
  8
0
 10
13.1914
 20
53.6104
 11
13.1973
 21
53.6367
  0
LINE
  8
0
 10
13.1973
 20
53.6367
 11
13.2041
 21
53.6641
  0
LINE
  8
0
 10
13.2041
 20
53.6641
 11
13.2119
 21
53.6914
  0
LINE
  8
0
 10
13.2119
 20
53.6914
 11
13.2197
 21
53.7178
  0
LINE
  8
0
 10
13.2197
 20
53.7178
 11
13.2461
 21
53.7969
  0
LINE
  8
0
 10
13.2461
 20
53.7969
 11
13.2559
 21
53.8232
  0
LINE
  8
0
 10
13.2559
 20
53.8232
 11
13.2666
 21
53.8496
  0
LINE
  8
0
 10
13.2666
 20
53.8496
 11
13.2881
 21
53.9004
  0
LINE
  8
0
 10
13.2881
 20
53.9004
 11
13.3115
 21
53.9512
  0
LINE
  8
0
 10
13.3115
 20
53.9512
 11
13.3242
 21
53.9766
  0
LINE
  8
0
 10
13.3242
 20
53.9766
 11
13.3369
 21
54.001
  0
LINE
  8
0
 10
13.3369
 20
54.001
 11
13.3643
 21
54.0498
  0
LINE
  8
0
 10
13.3643
 20
54.0498
 11
13.3789
 21
54.0742
  0
LINE
  8
0
 10
13.3789
 20
54.0742
 11
13.4082
 21
54.1211
  0
LINE
  8
0
 10
13.4082
 20
54.1211
 11
13.4395
 21
54.168
  0
LINE
  8
0
 10
13.4395
 20
54.168
 11
13.4893
 21
54.2354
  0
LINE
  8
0
 10
13.4893
 20
54.2354
 11
13.542
 21
54.2998
  0
LINE
  8
0
 10
13.542
 20
54.2998
 11
13.5605
 21
54.3203
  0
LINE
  8
0
 10
13.5605
 20
54.3203
 11
13.5801
 21
54.3408
  0
LINE
  8
0
 10
13.5801
 20
54.3408
 11
13.5986
 21
54.3613
  0
LINE
  8
0
 10
13.5986
 20
54.3613
 11
13.6182
 21
54.3818
  0
LINE
  8
0
 10
13.6182
 20
54.3818
 11
13.6387
 21
54.4014
  0
LINE
  8
0
 10
13.6387
 20
54.4014
 11
13.6592
 21
54.4199
  0
LINE
  8
0
 10
13.6592
 20
54.4199
 11
13.6797
 21
54.4395
  0
LINE
  8
0
 10
13.6797
 20
54.4395
 11
13.7002
 21
54.458
  0
LINE
  8
0
 10
13.7002
 20
54.458
 11
13.7646
 21
54.5107
  0
LINE
  8
0
 10
13.7646
 20
54.5107
 11
13.832
 21
54.5605
  0
LINE
  8
0
 10
13.832
 20
54.5605
 11
13.8789
 21
54.5918
  0
LINE
  8
0
 10
13.8789
 20
54.5918
 11
13.9258
 21
54.6211
  0
LINE
  8
0
 10
13.9258
 20
54.6211
 11
13.9502
 21
54.6357
  0
LINE
  8
0
 10
13.9502
 20
54.6357
 11
13.999
 21
54.6631
  0
LINE
  8
0
 10
13.999
 20
54.6631
 11
14.0234
 21
54.6758
  0
LINE
  8
0
 10
14.0234
 20
54.6758
 11
14.0488
 21
54.6885
  0
LINE
  8
0
 10
14.0488
 20
54.6885
 11
14.0996
 21
54.7119
  0
LINE
  8
0
 10
14.0996
 20
54.7119
 11
14.1504
 21
54.7334
  0
LINE
  8
0
 10
14.1504
 20
54.7334
 11
14.1768
 21
54.7441
  0
LINE
  8
0
 10
14.1768
 20
54.7441
 11
14.2031
 21
54.7539
  0
LINE
  8
0
 10
14.2031
 20
54.7539
 11
14.2822
 21
54.7803
  0
LINE
  8
0
 10
14.2822
 20
54.7803
 11
14.3086
 21
54.7881
  0
LINE
  8
0
 10
14.3086
 20
54.7881
 11
14.3359
 21
54.7959
  0
LINE
  8
0
 10
14.3359
 20
54.7959
 11
14.3633
 21
54.8027
  0
LINE
  8
0
 10
14.3633
 20
54.8027
 11
14.3896
 21
54.8086
  0
LINE
  8
0
 10
14.3896
 20
54.8086
 11
14.417
 21
54.8154
  0
LINE
  8
0
 10
14.417
 20
54.8154
 11
14.4443
 21
54.8203
  0
LINE
  8
0
 10
14.4443
 20
54.8203
 11
14.4717
 21
54.8262
  0
LINE
  8
0
 10
14.4717
 20
54.8262
 11
14.5
 21
54.8301
  0
LINE
  8
0
 10
14.5
 20
54.8301
 11
14.5547
 21
54.8379
  0
LINE
  8
0
 10
14.5547
 20
54.8379
 11
14.583
 21
54.8408
  0
LINE
  8
0
 10
14.583
 20
54.8408
 11
14.6104
 21
54.8438
  0
LINE
  8
0
 10
14.6104
 20
54.8438
 11
14.6387
 21
54.8457
  0
LINE
  8
0
 10
14.6387
 20
54.8457
 11
14.666
 21
54.8477
  0
LINE
  8
0
 10
14.666
 20
54.8477
 11
14.7217
 21
54.8496
  0
LINE
  8
0
 10
14.7217
 20
54.8496
 11
14.7783
 21
54.8496
  0
LINE
  8
0
 10
14.7783
 20
54.8496
 11
14.834
 21
54.8477
  0
LINE
  8
0
 10
14.834
 20
54.8477
 11
14.8613
 21
54.8457
  0
LINE
  8
0
 10
14.8613
 20
54.8457
 11
14.8896
 21
54.8438
  0
LINE
  8
0
 10
14.8896
 20
54.8438
 11
14.917
 21
54.8408
  0
LINE
  8
0
 10
14.917
 20
54.8408
 11
14.9453
 21
54.8379
  0
LINE
  8
0
 10
14.9453
 20
54.8379
 11
15
 21
54.8301
  0
LINE
  8
0
 10
15
 20
54.8301
 11
15.0283
 21
54.8262
  0
LINE
  8
0
 10
15.0283
 20
54.8262
 11
15.0557
 21
54.8203
  0
LINE
  8
0
 10
15.0557
 20
54.8203
 11
15.083
 21
54.8154
  0
LINE
  8
0
 10
15.083
 20
54.8154
 11
15.1104
 21
54.8086
  0
LINE
  8
0
 10
15.1104
 20
54.8086
 11
15.1367
 21
54.8027
  0
LINE
  8
0
 10
15.1367
 20
54.8027
 11
15.1641
 21
54.7959
  0
LINE
  8
0
 10
15.1641
 20
54.7959
 11
15.1914
 21
54.7881
  0
LINE
  8
0
 10
15.1914
 20
54.7881
 11
15.2178
 21
54.7803
  0
LINE
  8
0
 10
15.2178
 20
54.7803
 11
15.2969
 21
54.7539
  0
LINE
  8
0
 10
15.2969
 20
54.7539
 11
15.3232
 21
54.7441
  0
LINE
  8
0
 10
15.3232
 20
54.7441
 11
15.3496
 21
54.7334
  0
LINE
  8
0
 10
15.3496
 20
54.7334
 11
15.4004
 21
54.7119
  0
LINE
  8
0
 10
15.4004
 20
54.7119
 11
15.4512
 21
54.6885
  0
LINE
  8
0
 10
15.4512
 20
54.6885
 11
15.4766
 21
54.6758
  0
LINE
  8
0
 10
15.4766
 20
54.6758
 11
15.501
 21
54.6631
  0
LINE
  8
0
 10
15.501
 20
54.6631
 11
15.5498
 21
54.6357
  0
LINE
  8
0
 10
15.5498
 20
54.6357
 11
15.5742
 21
54.6211
  0
LINE
  8
0
 10
15.5742
 20
54.6211
 11
15.6211
 21
54.5918
  0
LINE
  8
0
 10
15.6211
 20
54.5918
 11
15.668
 21
54.5605
  0
LINE
  8
0
 10
15.668
 20
54.5605
 11
15.7354
 21
54.5107
  0
LINE
  8
0
 10
15.7354
 20
54.5107
 11
15.7998
 21
54.458
  0
LINE
  8
0
 10
15.7998
 20
54.458
 11
15.8203
 21
54.4395
  0
LINE
  8
0
 10
15.8203
 20
54.4395
 11
15.8408
 21
54.4199
  0
LINE
  8
0
 10
15.8408
 20
54.4199
 11
15.8613
 21
54.4014
  0
LINE
  8
0
 10
15.8613
 20
54.4014
 11
15.8818
 21
54.3818
  0
LINE
  8
0
 10
15.8818
 20
54.3818
 11
15.9014
 21
54.3613
  0
LINE
  8
0
 10
15.9014
 20
54.3613
 11
15.9199
 21
54.3408
  0
LINE
  8
0
 10
15.9199
 20
54.3408
 11
15.9395
 21
54.3203
  0
LINE
  8
0
 10
15.9395
 20
54.3203
 11
15.958
 21
54.2998
  0
LINE
  8
0
 10
15.958
 20
54.2998
 11
16.0107
 21
54.2354
  0
LINE
  8
0
 10
16.0107
 20
54.2354
 11
16.0605
 21
54.168
  0
LINE
  8
0
 10
16.0605
 20
54.168
 11
16.0918
 21
54.1211
  0
LINE
  8
0
 10
16.0918
 20
54.1211
 11
16.1211
 21
54.0742
  0
LINE
  8
0
 10
16.1211
 20
54.0742
 11
16.1357
 21
54.0498
  0
LINE
  8
0
 10
16.1357
 20
54.0498
 11
16.1631
 21
54.001
  0
LINE
  8
0
 10
16.1631
 20
54.001
 11
16.1758
 21
53.9766
  0
LINE
  8
0
 10
16.1758
 20
53.9766
 11
16.1885
 21
53.9512
  0
LINE
  8
0
 10
16.1885
 20
53.9512
 11
16.2119
 21
53.9004
  0
LINE
  8
0
 10
16.2119
 20
53.9004
 11
16.2334
 21
53.8496
  0
LINE
  8
0
 10
16.2334
 20
53.8496
 11
16.2441
 21
53.8232
  0
LINE
  8
0
 10
16.2441
 20
53.8232
 11
16.2539
 21
53.7969
  0
LINE
  8
0
 10
16.2539
 20
53.7969
 11
16.2803
 21
53.7178
  0
LINE
  8
0
 10
16.2803
 20
53.7178
 11
16.2881
 21
53.6914
  0
LINE
  8
0
 10
16.2881
 20
53.6914
 11
16.2959
 21
53.6641
  0
LINE
  8
0
 10
16.2959
 20
53.6641
 11
16.3027
 21
53.6367
  0
LINE
  8
0
 10
16.3027
 20
53.6367
 11
16.3086
 21
53.6104
  0
LINE
  8
0
 10
16.3086
 20
53.6104
 11
16.3154
 21
53.583
  0
LINE
  8
0
 10
16.3154
 20
53.583
 11
16.3203
 21
53.5557
  0
LINE
  8
0
 10
16.3203
 20
53.5557
 11
16.3262
 21
53.5283
  0
LINE
  8
0
 10
16.3262
 20
53.5283
 11
16.3301
 21
53.5
  0
LINE
  8
0
 10
16.3301
 20
53.5
 11
16.3379
 21
53.4453
  0
LINE
  8
0
 10
16.3379
 20
53.4453
 11
16.3408
 21
53.417
  0
LINE
  8
0
 10
16.3408
 20
53.417
 11
16.3438
 21
53.3896
  0
LINE
  8
0
 10
16.3438
 20
53.3896
 11
16.3457
 21
53.3613
  0
LINE
  8
0
 10
16.3457
 20
53.3613
 11
16.3477
 21
53.334
  0
LINE
  8
0
 10
16.3477
 20
53.334
 11
16.3496
 21
53.2783
  0
LINE
  8
0
 10
16.3496
 20
53.2783
 11
16.3496
 21
53.2217
  0
LINE
  8
0
 10
16.3496
 20
53.2217
 11
16.3477
 21
53.166
  0
LINE
  8
0
 10
16.3477
 20
53.166
 11
16.3457
 21
53.1387
  0
LINE
  8
0
 10
16.3457
 20
53.1387
 11
16.3438
 21
53.1104
  0
LINE
  8
0
 10
16.3438
 20
53.1104
 11
16.3408
 21
53.083
  0
LINE
  8
0
 10
16.3408
 20
53.083
 11
16.3379
 21
53.0547
  0
LINE
  8
0
 10
16.3379
 20
53.0547
 11
16.3301
 21
53
  0
LINE
  8
0
 10
16.3301
 20
53
 11
16.3262
 21
52.9717
  0
LINE
  8
0
 10
16.3262
 20
52.9717
 11
16.3203
 21
52.9443
  0
LINE
  8
0
 10
16.3203
 20
52.9443
 11
16.3154
 21
52.917
  0
LINE
  8
0
 10
16.3154
 20
52.917
 11
16.3086
 21
52.8896
  0
LINE
  8
0
 10
16.3086
 20
52.8896
 11
16.3027
 21
52.8633
  0
LINE
  8
0
 10
16.3027
 20
52.8633
 11
16.2959
 21
52.8359
  0
LINE
  8
0
 10
16.2959
 20
52.8359
 11
16.2881
 21
52.8086
  0
LINE
  8
0
 10
16.2881
 20
52.8086
 11
16.2803
 21
52.7822
  0
LINE
  8
0
 10
16.2803
 20
52.7822
 11
16.2539
 21
52.7031
  0
LINE
  8
0
 10
16.2539
 20
52.7031
 11
16.2441
 21
52.6768
  0
LINE
  8
0
 10
16.2441
 20
52.6768
 11
16.2334
 21
52.6504
  0
LINE
  8
0
 10
16.2334
 20
52.6504
 11
16.2119
 21
52.5996
  0
LINE
  8
0
 10
16.2119
 20
52.5996
 11
16.1885
 21
52.5488
  0
LINE
  8
0
 10
16.1885
 20
52.5488
 11
16.1758
 21
52.5234
  0
LINE
  8
0
 10
16.1758
 20
52.5234
 11
16.1631
 21
52.499
  0
LINE
  8
0
 10
16.1631
 20
52.499
 11
16.1357
 21
52.4502
  0
LINE
  8
0
 10
16.1357
 20
52.4502
 11
16.1211
 21
52.4258
  0
LINE
  8
0
 10
16.1211
 20
52.4258
 11
16.0918
 21
52.3789
  0
LINE
  8
0
 10
16.0918
 20
52.3789
 11
16.0605
 21
52.332
  0
LINE
  8
0
 10
16.0605
 20
52.332
 11
16.0107
 21
52.2646
  0
LINE
  8
0
 10
16.0107
 20
52.2646
 11
15.958
 21
52.2002
  0
LINE
  8
0
 10
15.958
 20
52.2002
 11
15.9395
 21
52.1797
  0
LINE
  8
0
 10
15.9395
 20
52.1797
 11
15.9199
 21
52.1592
  0
LINE
  8
0
 10
15.9199
 20
52.1592
 11
15.9014
 21
52.1387
  0
LINE
  8
0
 10
15.9014
 20
52.1387
 11
15.8818
 21
52.1182
  0
LINE
  8
0
 10
15.8818
 20
52.1182
 11
15.8613
 21
52.0986
  0
LINE
  8
0
 10
15.8613
 20
52.0986
 11
15.8408
 21
52.0801
  0
LINE
  8
0
 10
15.8408
 20
52.0801
 11
15.8203
 21
52.0605
  0
LINE
  8
0
 10
15.8203
 20
52.0605
 11
15.7998
 21
52.042
  0
LINE
  8
0
 10
15.7998
 20
52.042
 11
15.7354
 21
51.9893
  0
LINE
  8
0
 10
15.7354
 20
51.9893
 11
15.668
 21
51.9395
  0
LINE
  8
0
 10
15.668
 20
51.9395
 11
15.6211
 21
51.9082
  0
LINE
  8
0
 10
15.6211
 20
51.9082
 11
15.5742
 21
51.8789
  0
LINE
  8
0
 10
15.5742
 20
51.8789
 11
15.5498
 21
51.8643
  0
LINE
  8
0
 10
15.5498
 20
51.8643
 11
15.501
 21
51.8369
  0
LINE
  8
0
 10
15.501
 20
51.8369
 11
15.4766
 21
51.8242
  0
LINE
  8
0
 10
15.4766
 20
51.8242
 11
15.4512
 21
51.8115
  0
LINE
  8
0
 10
15.4512
 20
51.8115
 11
15.4004
 21
51.7881
  0
LINE
  8
0
 10
15.4004
 20
51.7881
 11
15.3496
 21
51.7666
  0
LINE
  8
0
 10
15.3496
 20
51.7666
 11
15.3232
 21
51.7559
  0
LINE
  8
0
 10
15.3232
 20
51.7559
 11
15.2969
 21
51.7461
  0
LINE
  8
0
 10
15.2969
 20
51.7461
 11
15.2178
 21
51.7197
  0
LINE
  8
0
 10
15.2178
 20
51.7197
 11
15.1914
 21
51.7119
  0
LINE
  8
0
 10
15.1914
 20
51.7119
 11
15.1641
 21
51.7041
  0
LINE
  8
0
 10
15.1641
 20
51.7041
 11
15.1367
 21
51.6973
  0
LINE
  8
0
 10
15.1367
 20
51.6973
 11
15.1104
 21
51.6914
  0
LINE
  8
0
 10
15.1104
 20
51.6914
 11
15.083
 21
51.6846
  0
LINE
  8
0
 10
15.083
 20
51.6846
 11
15.0557
 21
51.6797
  0
LINE
  8
0
 10
15.0557
 20
51.6797
 11
15.0283
 21
51.6738
  0
LINE
  8
0
 10
15.0283
 20
51.6738
 11
15
 21
51.6699
  0
LINE
  8
0
 10
15
 20
51.6699
 11
14.9453
 21
51.6621
  0
LINE
  8
0
 10
14.9453
 20
51.6621
 11
14.917
 21
51.6592
  0
LINE
  8
0
 10
14.917
 20
51.6592
 11
14.8896
 21
51.6562
  0
LINE
  8
0
 10
14.8896
 20
51.6562
 11
14.8613
 21
51.6543
  0
LINE
  8
0
 10
14.8613
 20
51.6543
 11
14.834
 21
51.6523
  0
LINE
  8
0
 10
14.834
 20
51.6523
 11
14.7783
 21
51.6504
  0
LINE
  8
0
 10
14.7783
 20
51.6504
 11
14.7217
 21
51.6504
  0
ENDSEC
  0
SECTION
  2
OBJECTS
  0
DICTIONARY
  0
ENDSEC
  0
EOF
