  0
SECTION
  2
BLOCKS
  0
ENDSEC
  0
SECTION
  2
ENTITIES
  0
LINE
  8
0
 10
100.95
 20
55
 11
104.968
 21
55
  0
LINE
  8
0
 10
104.968
 20
55
 11
104.985
 21
55.001
  0
LINE
  8
0
 10
104.985
 20
55.001
 11
105.002
 21
55.001
  0
LINE
  8
0
 10
105.002
 20
55.001
 11
105.02
 21
55.002
  0
LINE
  8
0
 10
105.02
 20
55.002
 11
105.072
 21
55.0078
  0
LINE
  8
0
 10
105.072
 20
55.0078
 11
105.089
 21
55.0098
  0
LINE
  8
0
 10
105.089
 20
55.0098
 11
105.124
 21
55.0156
  0
LINE
  8
0
 10
105.124
 20
55.0156
 11
105.141
 21
55.0186
  0
LINE
  8
0
 10
105.141
 20
55.0186
 11
105.158
 21
55.0215
  0
LINE
  8
0
 10
105.158
 20
55.0215
 11
105.175
 21
55.0254
  0
LINE
  8
0
 10
105.175
 20
55.0254
 11
105.192
 21
55.0293
  0
LINE
  8
0
 10
105.192
 20
55.0293
 11
105.259
 21
55.0488
  0
LINE
  8
0
 10
105.259
 20
55.0488
 11
105.309
 21
55.0664
  0
LINE
  8
0
 10
105.309
 20
55.0664
 11
105.324
 21
55.0732
  0
LINE
  8
0
 10
105.324
 20
55.0732
 11
105.341
 21
55.0791
  0
LINE
  8
0
 10
105.341
 20
55.0791
 11
105.356
 21
55.0869
  0
LINE
  8
0
 10
105.356
 20
55.0869
 11
105.373
 21
55.0938
  0
LINE
  8
0
 10
105.373
 20
55.0938
 11
105.42
 21
55.1172
  0
LINE
  8
0
 10
105.42
 20
55.1172
 11
105.435
 21
55.125
  0
LINE
  8
0
 10
105.435
 20
55.125
 11
105.45
 21
55.1338
  0
LINE
  8
0
 10
105.45
 20
55.1338
 11
105.465
 21
55.1426
  0
LINE
  8
0
 10
105.465
 20
55.1426
 11
105.479
 21
55.1523
  0
LINE
  8
0
 10
105.479
 20
55.1523
 11
105.495
 21
55.1611
  0
LINE
  8
0
 10
105.495
 20
55.1611
 11
105.509
 21
55.1709
  0
LINE
  8
0
 10
105.509
 20
55.1709
 11
105.523
 21
55.1807
  0
LINE
  8
0
 10
105.523
 20
55.1807
 11
105.538
 21
55.1914
  0
LINE
  8
0
 10
105.538
 20
55.1914
 11
105.552
 21
55.2012
  0
LINE
  8
0
 10
105.552
 20
55.2012
 11
105.579
 21
55.2227
  0
LINE
  8
0
 10
105.579
 20
55.2227
 11
105.593
 21
55.2344
  0
LINE
  8
0
 10
105.593
 20
55.2344
 11
105.606
 21
55.2451
  0
LINE
  8
0
 10
105.606
 20
55.2451
 11
105.645
 21
55.2803
  0
LINE
  8
0
 10
105.645
 20
55.2803
 11
105.657
 21
55.293
  0
LINE
  8
0
 10
105.657
 20
55.293
 11
105.669
 21
55.3057
  0
LINE
  8
0
 10
105.669
 20
55.3057
 11
105.682
 21
55.3184
  0
LINE
  8
0
 10
105.682
 20
55.3184
 11
105.705
 21
55.3438
  0
LINE
  8
0
 10
105.705
 20
55.3438
 11
105.716
 21
55.3574
  0
LINE
  8
0
 10
105.716
 20
55.3574
 11
105.728
 21
55.3711
  0
LINE
  8
0
 10
105.728
 20
55.3711
 11
105.749
 21
55.3984
  0
LINE
  8
0
 10
105.749
 20
55.3984
 11
105.759
 21
55.4121
  0
LINE
  8
0
 10
105.759
 20
55.4121
 11
105.77
 21
55.4268
  0
LINE
  8
0
 10
105.77
 20
55.4268
 11
105.779
 21
55.4404
  0
LINE
  8
0
 10
105.779
 20
55.4404
 11
105.789
 21
55.4551
  0
LINE
  8
0
 10
105.789
 20
55.4551
 11
105.798
 21
55.4697
  0
LINE
  8
0
 10
105.798
 20
55.4697
 11
105.808
 21
55.4854
  0
LINE
  8
0
 10
105.808
 20
55.4854
 11
105.816
 21
55.5
  0
LINE
  8
0
 10
105.816
 20
55.5
 11
105.824
 21
55.5156
  0
LINE
  8
0
 10
105.824
 20
55.5156
 11
105.833
 21
55.5303
  0
LINE
  8
0
 10
105.833
 20
55.5303
 11
105.856
 21
55.5771
  0
LINE
  8
0
 10
105.856
 20
55.5771
 11
105.863
 21
55.5938
  0
LINE
  8
0
 10
105.863
 20
55.5938
 11
105.877
 21
55.625
  0
LINE
  8
0
 10
105.877
 20
55.625
 11
105.884
 21
55.6416
  0
LINE
  8
0
 10
105.884
 20
55.6416
 11
105.901
 21
55.6914
  0
LINE
  8
0
 10
105.901
 20
55.6914
 11
105.916
 21
55.7412
  0
LINE
  8
0
 10
105.916
 20
55.7412
 11
105.92
 21
55.7578
  0
LINE
  8
0
 10
105.92
 20
55.7578
 11
105.925
 21
55.7754
  0
LINE
  8
0
 10
105.925
 20
55.7754
 11
105.928
 21
55.792
  0
LINE
  8
0
 10
105.928
 20
55.792
 11
105.932
 21
55.8096
  0
LINE
  8
0
 10
105.932
 20
55.8096
 11
105.935
 21
55.8262
  0
LINE
  8
0
 10
105.935
 20
55.8262
 11
105.938
 21
55.8438
  0
LINE
  8
0
 10
105.938
 20
55.8438
 11
105.94
 21
55.8604
  0
LINE
  8
0
 10
105.94
 20
55.8604
 11
105.946
 21
55.9131
  0
LINE
  8
0
 10
105.946
 20
55.9131
 11
105.947
 21
55.9307
  0
LINE
  8
0
 10
105.947
 20
55.9307
 11
105.948
 21
55.9473
  0
LINE
  8
0
 10
105.948
 20
55.9473
 11
105.95
 21
55.9824
  0
LINE
  8
0
 10
105.95
 20
55.9824
 11
105.95
 21
64.0176
  0
LINE
  8
0
 10
105.95
 20
64.0176
 11
105.948
 21
64.0527
  0
LINE
  8
0
 10
105.948
 20
64.0527
 11
105.947
 21
64.0693
  0
LINE
  8
0
 10
105.947
 20
64.0693
 11
105.946
 21
64.0869
  0
LINE
  8
0
 10
105.946
 20
64.0869
 11
105.94
 21
64.1396
  0
LINE
  8
0
 10
105.94
 20
64.1396
 11
105.938
 21
64.1562
  0
LINE
  8
0
 10
105.938
 20
64.1562
 11
105.935
 21
64.1738
  0
LINE
  8
0
 10
105.935
 20
64.1738
 11
105.932
 21
64.1904
  0
LINE
  8
0
 10
105.932
 20
64.1904
 11
105.928
 21
64.208
  0
LINE
  8
0
 10
105.928
 20
64.208
 11
105.925
 21
64.2246
  0
LINE
  8
0
 10
105.925
 20
64.2246
 11
105.92
 21
64.2422
  0
LINE
  8
0
 10
105.92
 20
64.2422
 11
105.916
 21
64.2588
  0
LINE
  8
0
 10
105.916
 20
64.2588
 11
105.901
 21
64.3086
  0
LINE
  8
0
 10
105.901
 20
64.3086
 11
105.884
 21
64.3584
  0
LINE
  8
0
 10
105.884
 20
64.3584
 11
105.877
 21
64.375
  0
LINE
  8
0
 10
105.877
 20
64.375
 11
105.863
 21
64.4062
  0
LINE
  8
0
 10
105.863
 20
64.4062
 11
105.856
 21
64.4229
  0
LINE
  8
0
 10
105.856
 20
64.4229
 11
105.833
 21
64.4697
  0
LINE
  8
0
 10
105.833
 20
64.4697
 11
105.824
 21
64.4844
  0
LINE
  8
0
 10
105.824
 20
64.4844
 11
105.816
 21
64.5
  0
LINE
  8
0
 10
105.816
 20
64.5
 11
105.808
 21
64.5146
  0
LINE
  8
0
 10
105.808
 20
64.5146
 11
105.798
 21
64.5303
  0
LINE
  8
0
 10
105.798
 20
64.5303
 11
105.789
 21
64.5449
  0
LINE
  8
0
 10
105.789
 20
64.5449
 11
105.779
 21
64.5596
  0
LINE
  8
0
 10
105.779
 20
64.5596
 11
105.77
 21
64.5732
  0
LINE
  8
0
 10
105.77
 20
64.5732
 11
105.759
 21
64.5879
  0
LINE
  8
0
 10
105.759
 20
64.5879
 11
105.749
 21
64.6016
  0
LINE
  8
0
 10
105.749
 20
64.6016
 11
105.728
 21
64.6289
  0
LINE
  8
0
 10
105.728
 20
64.6289
 11
105.716
 21
64.6426
  0
LINE
  8
0
 10
105.716
 20
64.6426
 11
105.705
 21
64.6562
  0
LINE
  8
0
 10
105.705
 20
64.6562
 11
105.682
 21
64.6816
  0
LINE
  8
0
 10
105.682
 20
64.6816
 11
105.669
 21
64.6943
  0
LINE
  8
0
 10
105.669
 20
64.6943
 11
105.657
 21
64.707
  0
LINE
  8
0
 10
105.657
 20
64.707
 11
105.645
 21
64.7197
  0
LINE
  8
0
 10
105.645
 20
64.7197
 11
105.606
 21
64.7549
  0
LINE
  8
0
 10
105.606
 20
64.7549
 11
105.593
 21
64.7656
  0
LINE
  8
0
 10
105.593
 20
64.7656
 11
105.579
 21
64.7773
  0
LINE
  8
0
 10
105.579
 20
64.7773
 11
105.552
 21
64.7988
  0
LINE
  8
0
 10
105.552
 20
64.7988
 11
105.538
 21
64.8086
  0
LINE
  8
0
 10
105.538
 20
64.8086
 11
105.523
 21
64.8193
  0
LINE
  8
0
 10
105.523
 20
64.8193
 11
105.509
 21
64.8291
  0
LINE
  8
0
 10
105.509
 20
64.8291
 11
105.495
 21
64.8389
  0
LINE
  8
0
 10
105.495
 20
64.8389
 11
105.479
 21
64.8477
  0
LINE
  8
0
 10
105.479
 20
64.8477
 11
105.465
 21
64.8574
  0
LINE
  8
0
 10
105.465
 20
64.8574
 11
105.45
 21
64.8662
  0
LINE
  8
0
 10
105.45
 20
64.8662
 11
105.435
 21
64.875
  0
LINE
  8
0
 10
105.435
 20
64.875
 11
105.42
 21
64.8828
  0
LINE
  8
0
 10
105.42
 20
64.8828
 11
105.373
 21
64.9062
  0
LINE
  8
0
 10
105.373
 20
64.9062
 11
105.356
 21
64.9131
  0
LINE
  8
0
 10
105.356
 20
64.9131
 11
105.341
 21
64.9209
  0
LINE
  8
0
 10
105.341
 20
64.9209
 11
105.324
 21
64.9268
  0
LINE
  8
0
 10
105.324
 20
64.9268
 11
105.309
 21
64.9336
  0
LINE
  8
0
 10
105.309
 20
64.9336
 11
105.259
 21
64.9512
  0
LINE
  8
0
 10
105.259
 20
64.9512
 11
105.192
 21
64.9707
  0
LINE
  8
0
 10
105.192
 20
64.9707
 11
105.175
 21
64.9746
  0
LINE
  8
0
 10
105.175
 20
64.9746
 11
105.158
 21
64.9785
  0
LINE
  8
0
 10
105.158
 20
64.9785
 11
105.141
 21
64.9814
  0
LINE
  8
0
 10
105.141
 20
64.9814
 11
105.124
 21
64.9844
  0
LINE
  8
0
 10
105.124
 20
64.9844
 11
105.089
 21
64.9902
  0
LINE
  8
0
 10
105.089
 20
64.9902
 11
105.072
 21
64.9922
  0
LINE
  8
0
 10
105.072
 20
64.9922
 11
105.02
 21
64.998
  0
LINE
  8
0
 10
105.02
 20
64.998
 11
105.002
 21
64.999
  0
LINE
  8
0
 10
105.002
 20
64.999
 11
104.985
 21
64.999
  0
LINE
  8
0
 10
104.985
 20
64.999
 11
104.968
 21
65
  0
LINE
  8
0
 10
104.968
 20
65
 11
100.95
 21
65
  0
LINE
  8
0
 10
100.95
 20
65
 11
100.95
 21
125
  0
LINE
  8
0
 10
100.95
 20
125
 11
104.968
 21
125
  0
LINE
  8
0
 10
104.968
 20
125
 11
104.985
 21
125.001
  0
LINE
  8
0
 10
104.985
 20
125.001
 11
105.002
 21
125.001
  0
LINE
  8
0
 10
105.002
 20
125.001
 11
105.02
 21
125.002
  0
LINE
  8
0
 10
105.02
 20
125.002
 11
105.072
 21
125.008
  0
LINE
  8
0
 10
105.072
 20
125.008
 11
105.089
 21
125.01
  0
LINE
  8
0
 10
105.089
 20
125.01
 11
105.124
 21
125.016
  0
LINE
  8
0
 10
105.124
 20
125.016
 11
105.141
 21
125.019
  0
LINE
  8
0
 10
105.141
 20
125.019
 11
105.158
 21
125.021
  0
LINE
  8
0
 10
105.158
 20
125.021
 11
105.175
 21
125.025
  0
LINE
  8
0
 10
105.175
 20
125.025
 11
105.192
 21
125.029
  0
LINE
  8
0
 10
105.192
 20
125.029
 11
105.259
 21
125.049
  0
LINE
  8
0
 10
105.259
 20
125.049
 11
105.309
 21
125.066
  0
LINE
  8
0
 10
105.309
 20
125.066
 11
105.324
 21
125.073
  0
LINE
  8
0
 10
105.324
 20
125.073
 11
105.341
 21
125.079
  0
LINE
  8
0
 10
105.341
 20
125.079
 11
105.356
 21
125.087
  0
LINE
  8
0
 10
105.356
 20
125.087
 11
105.373
 21
125.094
  0
LINE
  8
0
 10
105.373
 20
125.094
 11
105.42
 21
125.117
  0
LINE
  8
0
 10
105.42
 20
125.117
 11
105.435
 21
125.125
  0
LINE
  8
0
 10
105.435
 20
125.125
 11
105.45
 21
125.134
  0
LINE
  8
0
 10
105.45
 20
125.134
 11
105.465
 21
125.143
  0
LINE
  8
0
 10
105.465
 20
125.143
 11
105.479
 21
125.152
  0
LINE
  8
0
 10
105.479
 20
125.152
 11
105.495
 21
125.161
  0
LINE
  8
0
 10
105.495
 20
125.161
 11
105.509
 21
125.171
  0
LINE
  8
0
 10
105.509
 20
125.171
 11
105.523
 21
125.181
  0
LINE
  8
0
 10
105.523
 20
125.181
 11
105.538
 21
125.191
  0
LINE
  8
0
 10
105.538
 20
125.191
 11
105.552
 21
125.201
  0
LINE
  8
0
 10
105.552
 20
125.201
 11
105.579
 21
125.223
  0
LINE
  8
0
 10
105.579
 20
125.223
 11
105.593
 21
125.234
  0
LINE
  8
0
 10
105.593
 20
125.234
 11
105.606
 21
125.245
  0
LINE
  8
0
 10
105.606
 20
125.245
 11
105.645
 21
125.28
  0
LINE
  8
0
 10
105.645
 20
125.28
 11
105.657
 21
125.293
  0
LINE
  8
0
 10
105.657
 20
125.293
 11
105.669
 21
125.306
  0
LINE
  8
0
 10
105.669
 20
125.306
 11
105.682
 21
125.318
  0
LINE
  8
0
 10
105.682
 20
125.318
 11
105.705
 21
125.344
  0
LINE
  8
0
 10
105.705
 20
125.344
 11
105.716
 21
125.357
  0
LINE
  8
0
 10
105.716
 20
125.357
 11
105.728
 21
125.371
  0
LINE
  8
0
 10
105.728
 20
125.371
 11
105.749
 21
125.398
  0
LINE
  8
0
 10
105.749
 20
125.398
 11
105.759
 21
125.412
  0
LINE
  8
0
 10
105.759
 20
125.412
 11
105.77
 21
125.427
  0
LINE
  8
0
 10
105.77
 20
125.427
 11
105.779
 21
125.44
  0
LINE
  8
0
 10
105.779
 20
125.44
 11
105.789
 21
125.455
  0
LINE
  8
0
 10
105.789
 20
125.455
 11
105.798
 21
125.47
  0
LINE
  8
0
 10
105.798
 20
125.47
 11
105.808
 21
125.485
  0
LINE
  8
0
 10
105.808
 20
125.485
 11
105.816
 21
125.5
  0
LINE
  8
0
 10
105.816
 20
125.5
 11
105.824
 21
125.516
  0
LINE
  8
0
 10
105.824
 20
125.516
 11
105.833
 21
125.53
  0
LINE
  8
0
 10
105.833
 20
125.53
 11
105.856
 21
125.577
  0
LINE
  8
0
 10
105.856
 20
125.577
 11
105.863
 21
125.594
  0
LINE
  8
0
 10
105.863
 20
125.594
 11
105.877
 21
125.625
  0
LINE
  8
0
 10
105.877
 20
125.625
 11
105.884
 21
125.642
  0
LINE
  8
0
 10
105.884
 20
125.642
 11
105.901
 21
125.691
  0
LINE
  8
0
 10
105.901
 20
125.691
 11
105.916
 21
125.741
  0
LINE
  8
0
 10
105.916
 20
125.741
 11
105.92
 21
125.758
  0
LINE
  8
0
 10
105.92
 20
125.758
 11
105.925
 21
125.775
  0
LINE
  8
0
 10
105.925
 20
125.775
 11
105.928
 21
125.792
  0
LINE
  8
0
 10
105.928
 20
125.792
 11
105.932
 21
125.81
  0
LINE
  8
0
 10
105.932
 20
125.81
 11
105.935
 21
125.826
  0
LINE
  8
0
 10
105.935
 20
125.826
 11
105.938
 21
125.844
  0
LINE
  8
0
 10
105.938
 20
125.844
 11
105.94
 21
125.86
  0
LINE
  8
0
 10
105.94
 20
125.86
 11
105.946
 21
125.913
  0
LINE
  8
0
 10
105.946
 20
125.913
 11
105.947
 21
125.931
  0
LINE
  8
0
 10
105.947
 20
125.931
 11
105.948
 21
125.947
  0
LINE
  8
0
 10
105.948
 20
125.947
 11
105.95
 21
125.982
  0
LINE
  8
0
 10
105.95
 20
125.982
 11
105.95
 21
134.018
  0
LINE
  8
0
 10
105.95
 20
134.018
 11
105.948
 21
134.053
  0
LINE
  8
0
 10
105.948
 20
134.053
 11
105.947
 21
134.069
  0
LINE
  8
0
 10
105.947
 20
134.069
 11
105.946
 21
134.087
  0
LINE
  8
0
 10
105.946
 20
134.087
 11
105.94
 21
134.14
  0
LINE
  8
0
 10
105.94
 20
134.14
 11
105.938
 21
134.156
  0
LINE
  8
0
 10
105.938
 20
134.156
 11
105.935
 21
134.174
  0
LINE
  8
0
 10
105.935
 20
134.174
 11
105.932
 21
134.19
  0
LINE
  8
0
 10
105.932
 20
134.19
 11
105.928
 21
134.208
  0
LINE
  8
0
 10
105.928
 20
134.208
 11
105.925
 21
134.225
  0
LINE
  8
0
 10
105.925
 20
134.225
 11
105.92
 21
134.242
  0
LINE
  8
0
 10
105.92
 20
134.242
 11
105.916
 21
134.259
  0
LINE
  8
0
 10
105.916
 20
134.259
 11
105.901
 21
134.309
  0
LINE
  8
0
 10
105.901
 20
134.309
 11
105.884
 21
134.358
  0
LINE
  8
0
 10
105.884
 20
134.358
 11
105.877
 21
134.375
  0
LINE
  8
0
 10
105.877
 20
134.375
 11
105.863
 21
134.406
  0
LINE
  8
0
 10
105.863
 20
134.406
 11
105.856
 21
134.423
  0
LINE
  8
0
 10
105.856
 20
134.423
 11
105.833
 21
134.47
  0
LINE
  8
0
 10
105.833
 20
134.47
 11
105.824
 21
134.484
  0
LINE
  8
0
 10
105.824
 20
134.484
 11
105.816
 21
134.5
  0
LINE
  8
0
 10
105.816
 20
134.5
 11
105.808
 21
134.515
  0
LINE
  8
0
 10
105.808
 20
134.515
 11
105.798
 21
134.53
  0
LINE
  8
0
 10
105.798
 20
134.53
 11
105.789
 21
134.545
  0
LINE
  8
0
 10
105.789
 20
134.545
 11
105.779
 21
134.56
  0
LINE
  8
0
 10
105.779
 20
134.56
 11
105.77
 21
134.573
  0
LINE
  8
0
 10
105.77
 20
134.573
 11
105.759
 21
134.588
  0
LINE
  8
0
 10
105.759
 20
134.588
 11
105.749
 21
134.602
  0
LINE
  8
0
 10
105.749
 20
134.602
 11
105.728
 21
134.629
  0
LINE
  8
0
 10
105.728
 20
134.629
 11
105.716
 21
134.643
  0
LINE
  8
0
 10
105.716
 20
134.643
 11
105.705
 21
134.656
  0
LINE
  8
0
 10
105.705
 20
134.656
 11
105.682
 21
134.682
  0
LINE
  8
0
 10
105.682
 20
134.682
 11
105.669
 21
134.694
  0
LINE
  8
0
 10
105.669
 20
134.694
 11
105.657
 21
134.707
  0
LINE
  8
0
 10
105.657
 20
134.707
 11
105.645
 21
134.72
  0
LINE
  8
0
 10
105.645
 20
134.72
 11
105.606
 21
134.755
  0
LINE
  8
0
 10
105.606
 20
134.755
 11
105.593
 21
134.766
  0
LINE
  8
0
 10
105.593
 20
134.766
 11
105.579
 21
134.777
  0
LINE
  8
0
 10
105.579
 20
134.777
 11
105.552
 21
134.799
  0
LINE
  8
0
 10
105.552
 20
134.799
 11
105.538
 21
134.809
  0
LINE
  8
0
 10
105.538
 20
134.809
 11
105.523
 21
134.819
  0
LINE
  8
0
 10
105.523
 20
134.819
 11
105.509
 21
134.829
  0
LINE
  8
0
 10
105.509
 20
134.829
 11
105.495
 21
134.839
  0
LINE
  8
0
 10
105.495
 20
134.839
 11
105.479
 21
134.848
  0
LINE
  8
0
 10
105.479
 20
134.848
 11
105.465
 21
134.857
  0
LINE
  8
0
 10
105.465
 20
134.857
 11
105.45
 21
134.866
  0
LINE
  8
0
 10
105.45
 20
134.866
 11
105.435
 21
134.875
  0
LINE
  8
0
 10
105.435
 20
134.875
 11
105.42
 21
134.883
  0
LINE
  8
0
 10
105.42
 20
134.883
 11
105.373
 21
134.906
  0
LINE
  8
0
 10
105.373
 20
134.906
 11
105.356
 21
134.913
  0
LINE
  8
0
 10
105.356
 20
134.913
 11
105.341
 21
134.921
  0
LINE
  8
0
 10
105.341
 20
134.921
 11
105.324
 21
134.927
  0
LINE
  8
0
 10
105.324
 20
134.927
 11
105.309
 21
134.934
  0
LINE
  8
0
 10
105.309
 20
134.934
 11
105.259
 21
134.951
  0
LINE
  8
0
 10
105.259
 20
134.951
 11
105.192
 21
134.971
  0
LINE
  8
0
 10
105.192
 20
134.971
 11
105.175
 21
134.975
  0
LINE
  8
0
 10
105.175
 20
134.975
 11
105.158
 21
134.979
  0
LINE
  8
0
 10
105.158
 20
134.979
 11
105.141
 21
134.981
  0
LINE
  8
0
 10
105.141
 20
134.981
 11
105.124
 21
134.984
  0
LINE
  8
0
 10
105.124
 20
134.984
 11
105.089
 21
134.99
  0
LINE
  8
0
 10
105.089
 20
134.99
 11
105.072
 21
134.992
  0
LINE
  8
0
 10
105.072
 20
134.992
 11
105.02
 21
134.998
  0
LINE
  8
0
 10
105.02
 20
134.998
 11
105.002
 21
134.999
  0
LINE
  8
0
 10
105.002
 20
134.999
 11
104.985
 21
134.999
  0
LINE
  8
0
 10
104.985
 20
134.999
 11
104.968
 21
135
  0
LINE
  8
0
 10
104.968
 20
135
 11
-4.01758
 21
135
  0
LINE
  8
0
 10
-4.01758
 20
135
 11
-4.03516
 21
134.999
  0
LINE
  8
0
 10
-4.03516
 20
134.999
 11
-4.05273
 21
134.999
  0
LINE
  8
0
 10
-4.05273
 20
134.999
 11
-4.06934
 21
134.998
  0
LINE
  8
0
 10
-4.06934
 20
134.998
 11
-4.13965
 21
134.99
  0
LINE
  8
0
 10
-4.13965
 20
134.99
 11
-4.15625
 21
134.987
  0
LINE
  8
0
 10
-4.15625
 20
134.987
 11
-4.17383
 21
134.984
  0
LINE
  8
0
 10
-4.17383
 20
134.984
 11
-4.19043
 21
134.981
  0
LINE
  8
0
 10
-4.19043
 20
134.981
 11
-4.20801
 21
134.979
  0
LINE
  8
0
 10
-4.20801
 20
134.979
 11
-4.22461
 21
134.975
  0
LINE
  8
0
 10
-4.22461
 20
134.975
 11
-4.24219
 21
134.971
  0
LINE
  8
0
 10
-4.24219
 20
134.971
 11
-4.30859
 21
134.951
  0
LINE
  8
0
 10
-4.30859
 20
134.951
 11
-4.3584
 21
134.934
  0
LINE
  8
0
 10
-4.3584
 20
134.934
 11
-4.375
 21
134.927
  0
LINE
  8
0
 10
-4.375
 20
134.927
 11
-4.39062
 21
134.921
  0
LINE
  8
0
 10
-4.39062
 20
134.921
 11
-4.40625
 21
134.913
  0
LINE
  8
0
 10
-4.40625
 20
134.913
 11
-4.42285
 21
134.906
  0
LINE
  8
0
 10
-4.42285
 20
134.906
 11
-4.46973
 21
134.883
  0
LINE
  8
0
 10
-4.46973
 20
134.883
 11
-4.48438
 21
134.875
  0
LINE
  8
0
 10
-4.48438
 20
134.875
 11
-4.5
 21
134.866
  0
LINE
  8
0
 10
-4.5
 20
134.866
 11
-4.51465
 21
134.857
  0
LINE
  8
0
 10
-4.51465
 20
134.857
 11
-4.53027
 21
134.848
  0
LINE
  8
0
 10
-4.53027
 20
134.848
 11
-4.54492
 21
134.839
  0
LINE
  8
0
 10
-4.54492
 20
134.839
 11
-4.55957
 21
134.829
  0
LINE
  8
0
 10
-4.55957
 20
134.829
 11
-4.57324
 21
134.819
  0
LINE
  8
0
 10
-4.57324
 20
134.819
 11
-4.58789
 21
134.809
  0
LINE
  8
0
 10
-4.58789
 20
134.809
 11
-4.60156
 21
134.799
  0
LINE
  8
0
 10
-4.60156
 20
134.799
 11
-4.62891
 21
134.777
  0
LINE
  8
0
 10
-4.62891
 20
134.777
 11
-4.64258
 21
134.766
  0
LINE
  8
0
 10
-4.64258
 20
134.766
 11
-4.65625
 21
134.755
  0
LINE
  8
0
 10
-4.65625
 20
134.755
 11
-4.69434
 21
134.72
  0
LINE
  8
0
 10
-4.69434
 20
134.72
 11
-4.71973
 21
134.694
  0
LINE
  8
0
 10
-4.71973
 20
134.694
 11
-4.75488
 21
134.656
  0
LINE
  8
0
 10
-4.75488
 20
134.656
 11
-4.76562
 21
134.643
  0
LINE
  8
0
 10
-4.76562
 20
134.643
 11
-4.77734
 21
134.629
  0
LINE
  8
0
 10
-4.77734
 20
134.629
 11
-4.79883
 21
134.602
  0
LINE
  8
0
 10
-4.79883
 20
134.602
 11
-4.80859
 21
134.588
  0
LINE
  8
0
 10
-4.80859
 20
134.588
 11
-4.81934
 21
134.573
  0
LINE
  8
0
 10
-4.81934
 20
134.573
 11
-4.8291
 21
134.56
  0
LINE
  8
0
 10
-4.8291
 20
134.56
 11
-4.83887
 21
134.545
  0
LINE
  8
0
 10
-4.83887
 20
134.545
 11
-4.84766
 21
134.53
  0
LINE
  8
0
 10
-4.84766
 20
134.53
 11
-4.85742
 21
134.515
  0
LINE
  8
0
 10
-4.85742
 20
134.515
 11
-4.86621
 21
134.5
  0
LINE
  8
0
 10
-4.86621
 20
134.5
 11
-4.875
 21
134.484
  0
LINE
  8
0
 10
-4.875
 20
134.484
 11
-4.88281
 21
134.47
  0
LINE
  8
0
 10
-4.88281
 20
134.47
 11
-4.90625
 21
134.423
  0
LINE
  8
0
 10
-4.90625
 20
134.423
 11
-4.91309
 21
134.406
  0
LINE
  8
0
 10
-4.91309
 20
134.406
 11
-4.9209
 21
134.391
  0
LINE
  8
0
 10
-4.9209
 20
134.391
 11
-4.92676
 21
134.375
  0
LINE
  8
0
 10
-4.92676
 20
134.375
 11
-4.93359
 21
134.358
  0
LINE
  8
0
 10
-4.93359
 20
134.358
 11
-4.95117
 21
134.309
  0
LINE
  8
0
 10
-4.95117
 20
134.309
 11
-4.9707
 21
134.242
  0
LINE
  8
0
 10
-4.9707
 20
134.242
 11
-4.97461
 21
134.225
  0
LINE
  8
0
 10
-4.97461
 20
134.225
 11
-4.97852
 21
134.208
  0
LINE
  8
0
 10
-4.97852
 20
134.208
 11
-4.98145
 21
134.19
  0
LINE
  8
0
 10
-4.98145
 20
134.19
 11
-4.98438
 21
134.174
  0
LINE
  8
0
 10
-4.98438
 20
134.174
 11
-4.9873
 21
134.156
  0
LINE
  8
0
 10
-4.9873
 20
134.156
 11
-4.99023
 21
134.14
  0
LINE
  8
0
 10
-4.99023
 20
134.14
 11
-4.99805
 21
134.069
  0
LINE
  8
0
 10
-4.99805
 20
134.069
 11
-4.99902
 21
134.053
  0
LINE
  8
0
 10
-4.99902
 20
134.053
 11
-4.99902
 21
134.035
  0
LINE
  8
0
 10
-4.99902
 20
134.035
 11
-5
 21
134.018
  0
LINE
  8
0
 10
-5
 20
134.018
 11
-5
 21
125.982
  0
LINE
  8
0
 10
-5
 20
125.982
 11
-4.99902
 21
125.965
  0
LINE
  8
0
 10
-4.99902
 20
125.965
 11
-4.99902
 21
125.947
  0
LINE
  8
0
 10
-4.99902
 20
125.947
 11
-4.99805
 21
125.931
  0
LINE
  8
0
 10
-4.99805
 20
125.931
 11
-4.99023
 21
125.86
  0
LINE
  8
0
 10
-4.99023
 20
125.86
 11
-4.9873
 21
125.844
  0
LINE
  8
0
 10
-4.9873
 20
125.844
 11
-4.98438
 21
125.826
  0
LINE
  8
0
 10
-4.98438
 20
125.826
 11
-4.98145
 21
125.81
  0
LINE
  8
0
 10
-4.98145
 20
125.81
 11
-4.97852
 21
125.792
  0
LINE
  8
0
 10
-4.97852
 20
125.792
 11
-4.97461
 21
125.775
  0
LINE
  8
0
 10
-4.97461
 20
125.775
 11
-4.9707
 21
125.758
  0
LINE
  8
0
 10
-4.9707
 20
125.758
 11
-4.95117
 21
125.691
  0
LINE
  8
0
 10
-4.95117
 20
125.691
 11
-4.93359
 21
125.642
  0
LINE
  8
0
 10
-4.93359
 20
125.642
 11
-4.92676
 21
125.625
  0
LINE
  8
0
 10
-4.92676
 20
125.625
 11
-4.9209
 21
125.609
  0
LINE
  8
0
 10
-4.9209
 20
125.609
 11
-4.91309
 21
125.594
  0
LINE
  8
0
 10
-4.91309
 20
125.594
 11
-4.90625
 21
125.577
  0
LINE
  8
0
 10
-4.90625
 20
125.577
 11
-4.88281
 21
125.53
  0
LINE
  8
0
 10
-4.88281
 20
125.53
 11
-4.875
 21
125.516
  0
LINE
  8
0
 10
-4.875
 20
125.516
 11
-4.86621
 21
125.5
  0
LINE
  8
0
 10
-4.86621
 20
125.5
 11
-4.85742
 21
125.485
  0
LINE
  8
0
 10
-4.85742
 20
125.485
 11
-4.84766
 21
125.47
  0
LINE
  8
0
 10
-4.84766
 20
125.47
 11
-4.83887
 21
125.455
  0
LINE
  8
0
 10
-4.83887
 20
125.455
 11
-4.8291
 21
125.44
  0
LINE
  8
0
 10
-4.8291
 20
125.44
 11
-4.81934
 21
125.427
  0
LINE
  8
0
 10
-4.81934
 20
125.427
 11
-4.80859
 21
125.412
  0
LINE
  8
0
 10
-4.80859
 20
125.412
 11
-4.79883
 21
125.398
  0
LINE
  8
0
 10
-4.79883
 20
125.398
 11
-4.77734
 21
125.371
  0
LINE
  8
0
 10
-4.77734
 20
125.371
 11
-4.76562
 21
125.357
  0
LINE
  8
0
 10
-4.76562
 20
125.357
 11
-4.75488
 21
125.344
  0
LINE
  8
0
 10
-4.75488
 20
125.344
 11
-4.71973
 21
125.306
  0
LINE
  8
0
 10
-4.71973
 20
125.306
 11
-4.69434
 21
125.28
  0
LINE
  8
0
 10
-4.69434
 20
125.28
 11
-4.65625
 21
125.245
  0
LINE
  8
0
 10
-4.65625
 20
125.245
 11
-4.64258
 21
125.234
  0
LINE
  8
0
 10
-4.64258
 20
125.234
 11
-4.62891
 21
125.223
  0
LINE
  8
0
 10
-4.62891
 20
125.223
 11
-4.60156
 21
125.201
  0
LINE
  8
0
 10
-4.60156
 20
125.201
 11
-4.58789
 21
125.191
  0
LINE
  8
0
 10
-4.58789
 20
125.191
 11
-4.57324
 21
125.181
  0
LINE
  8
0
 10
-4.57324
 20
125.181
 11
-4.55957
 21
125.171
  0
LINE
  8
0
 10
-4.55957
 20
125.171
 11
-4.54492
 21
125.161
  0
LINE
  8
0
 10
-4.54492
 20
125.161
 11
-4.53027
 21
125.152
  0
LINE
  8
0
 10
-4.53027
 20
125.152
 11
-4.51465
 21
125.143
  0
LINE
  8
0
 10
-4.51465
 20
125.143
 11
-4.5
 21
125.134
  0
LINE
  8
0
 10
-4.5
 20
125.134
 11
-4.48438
 21
125.125
  0
LINE
  8
0
 10
-4.48438
 20
125.125
 11
-4.46973
 21
125.117
  0
LINE
  8
0
 10
-4.46973
 20
125.117
 11
-4.42285
 21
125.094
  0
LINE
  8
0
 10
-4.42285
 20
125.094
 11
-4.40625
 21
125.087
  0
LINE
  8
0
 10
-4.40625
 20
125.087
 11
-4.39062
 21
125.079
  0
LINE
  8
0
 10
-4.39062
 20
125.079
 11
-4.375
 21
125.073
  0
LINE
  8
0
 10
-4.375
 20
125.073
 11
-4.3584
 21
125.066
  0
LINE
  8
0
 10
-4.3584
 20
125.066
 11
-4.30859
 21
125.049
  0
LINE
  8
0
 10
-4.30859
 20
125.049
 11
-4.24219
 21
125.029
  0
LINE
  8
0
 10
-4.24219
 20
125.029
 11
-4.22461
 21
125.025
  0
LINE
  8
0
 10
-4.22461
 20
125.025
 11
-4.20801
 21
125.021
  0
LINE
  8
0
 10
-4.20801
 20
125.021
 11
-4.19043
 21
125.019
  0
LINE
  8
0
 10
-4.19043
 20
125.019
 11
-4.17383
 21
125.016
  0
LINE
  8
0
 10
-4.17383
 20
125.016
 11
-4.15625
 21
125.013
  0
LINE
  8
0
 10
-4.15625
 20
125.013
 11
-4.13965
 21
125.01
  0
LINE
  8
0
 10
-4.13965
 20
125.01
 11
-4.06934
 21
125.002
  0
LINE
  8
0
 10
-4.06934
 20
125.002
 11
-4.05273
 21
125.001
  0
LINE
  8
0
 10
-4.05273
 20
125.001
 11
-4.03516
 21
125.001
  0
LINE
  8
0
 10
-4.03516
 20
125.001
 11
-4.01758
 21
125
  0
LINE
  8
0
 10
-4.01758
 20
125
 11
0
 21
125
  0
LINE
  8
0
 10
0
 20
125
 11
0
 21
65
  0
LINE
  8
0
 10
0
 20
65
 11
-4.01758
 21
65
  0
LINE
  8
0
 10
-4.01758
 20
65
 11
-4.03516
 21
64.999
  0
LINE
  8
0
 10
-4.03516
 20
64.999
 11
-4.05273
 21
64.999
  0
LINE
  8
0
 10
-4.05273
 20
64.999
 11
-4.06934
 21
64.998
  0
LINE
  8
0
 10
-4.06934
 20
64.998
 11
-4.13965
 21
64.9902
  0
LINE
  8
0
 10
-4.13965
 20
64.9902
 11
-4.15625
 21
64.9873
  0
LINE
  8
0
 10
-4.15625
 20
64.9873
 11
-4.17383
 21
64.9844
  0
LINE
  8
0
 10
-4.17383
 20
64.9844
 11
-4.19043
 21
64.9814
  0
LINE
  8
0
 10
-4.19043
 20
64.9814
 11
-4.20801
 21
64.9785
  0
LINE
  8
0
 10
-4.20801
 20
64.9785
 11
-4.22461
 21
64.9746
  0
LINE
  8
0
 10
-4.22461
 20
64.9746
 11
-4.24219
 21
64.9707
  0
LINE
  8
0
 10
-4.24219
 20
64.9707
 11
-4.30859
 21
64.9512
  0
LINE
  8
0
 10
-4.30859
 20
64.9512
 11
-4.3584
 21
64.9336
  0
LINE
  8
0
 10
-4.3584
 20
64.9336
 11
-4.375
 21
64.9268
  0
LINE
  8
0
 10
-4.375
 20
64.9268
 11
-4.39062
 21
64.9209
  0
LINE
  8
0
 10
-4.39062
 20
64.9209
 11
-4.40625
 21
64.9131
  0
LINE
  8
0
 10
-4.40625
 20
64.9131
 11
-4.42285
 21
64.9062
  0
LINE
  8
0
 10
-4.42285
 20
64.9062
 11
-4.46973
 21
64.8828
  0
LINE
  8
0
 10
-4.46973
 20
64.8828
 11
-4.48438
 21
64.875
  0
LINE
  8
0
 10
-4.48438
 20
64.875
 11
-4.5
 21
64.8662
  0
LINE
  8
0
 10
-4.5
 20
64.8662
 11
-4.51465
 21
64.8574
  0
LINE
  8
0
 10
-4.51465
 20
64.8574
 11
-4.53027
 21
64.8477
  0
LINE
  8
0
 10
-4.53027
 20
64.8477
 11
-4.54492
 21
64.8389
  0
LINE
  8
0
 10
-4.54492
 20
64.8389
 11
-4.55957
 21
64.8291
  0
LINE
  8
0
 10
-4.55957
 20
64.8291
 11
-4.57324
 21
64.8193
  0
LINE
  8
0
 10
-4.57324
 20
64.8193
 11
-4.58789
 21
64.8086
  0
LINE
  8
0
 10
-4.58789
 20
64.8086
 11
-4.60156
 21
64.7988
  0
LINE
  8
0
 10
-4.60156
 20
64.7988
 11
-4.62891
 21
64.7773
  0
LINE
  8
0
 10
-4.62891
 20
64.7773
 11
-4.64258
 21
64.7656
  0
LINE
  8
0
 10
-4.64258
 20
64.7656
 11
-4.65625
 21
64.7549
  0
LINE
  8
0
 10
-4.65625
 20
64.7549
 11
-4.69434
 21
64.7197
  0
LINE
  8
0
 10
-4.69434
 20
64.7197
 11
-4.71973
 21
64.6943
  0
LINE
  8
0
 10
-4.71973
 20
64.6943
 11
-4.75488
 21
64.6562
  0
LINE
  8
0
 10
-4.75488
 20
64.6562
 11
-4.76562
 21
64.6426
  0
LINE
  8
0
 10
-4.76562
 20
64.6426
 11
-4.77734
 21
64.6289
  0
LINE
  8
0
 10
-4.77734
 20
64.6289
 11
-4.79883
 21
64.6016
  0
LINE
  8
0
 10
-4.79883
 20
64.6016
 11
-4.80859
 21
64.5879
  0
LINE
  8
0
 10
-4.80859
 20
64.5879
 11
-4.81934
 21
64.5732
  0
LINE
  8
0
 10
-4.81934
 20
64.5732
 11
-4.8291
 21
64.5596
  0
LINE
  8
0
 10
-4.8291
 20
64.5596
 11
-4.83887
 21
64.5449
  0
LINE
  8
0
 10
-4.83887
 20
64.5449
 11
-4.84766
 21
64.5303
  0
LINE
  8
0
 10
-4.84766
 20
64.5303
 11
-4.85742
 21
64.5146
  0
LINE
  8
0
 10
-4.85742
 20
64.5146
 11
-4.86621
 21
64.5
  0
LINE
  8
0
 10
-4.86621
 20
64.5
 11
-4.875
 21
64.4844
  0
LINE
  8
0
 10
-4.875
 20
64.4844
 11
-4.88281
 21
64.4697
  0
LINE
  8
0
 10
-4.88281
 20
64.4697
 11
-4.90625
 21
64.4229
  0
LINE
  8
0
 10
-4.90625
 20
64.4229
 11
-4.91309
 21
64.4062
  0
LINE
  8
0
 10
-4.91309
 20
64.4062
 11
-4.9209
 21
64.3906
  0
LINE
  8
0
 10
-4.9209
 20
64.3906
 11
-4.92676
 21
64.375
  0
LINE
  8
0
 10
-4.92676
 20
64.375
 11
-4.93359
 21
64.3584
  0
LINE
  8
0
 10
-4.93359
 20
64.3584
 11
-4.95117
 21
64.3086
  0
LINE
  8
0
 10
-4.95117
 20
64.3086
 11
-4.9707
 21
64.2422
  0
LINE
  8
0
 10
-4.9707
 20
64.2422
 11
-4.97461
 21
64.2246
  0
LINE
  8
0
 10
-4.97461
 20
64.2246
 11
-4.97852
 21
64.208
  0
LINE
  8
0
 10
-4.97852
 20
64.208
 11
-4.98145
 21
64.1904
  0
LINE
  8
0
 10
-4.98145
 20
64.1904
 11
-4.98438
 21
64.1738
  0
LINE
  8
0
 10
-4.98438
 20
64.1738
 11
-4.9873
 21
64.1562
  0
LINE
  8
0
 10
-4.9873
 20
64.1562
 11
-4.99023
 21
64.1396
  0
LINE
  8
0
 10
-4.99023
 20
64.1396
 11
-4.99805
 21
64.0693
  0
LINE
  8
0
 10
-4.99805
 20
64.0693
 11
-4.99902
 21
64.0527
  0
LINE
  8
0
 10
-4.99902
 20
64.0527
 11
-4.99902
 21
64.0352
  0
LINE
  8
0
 10
-4.99902
 20
64.0352
 11
-5
 21
64.0176
  0
LINE
  8
0
 10
-5
 20
64.0176
 11
-5
 21
55.9824
  0
LINE
  8
0
 10
-5
 20
55.9824
 11
-4.99902
 21
55.9648
  0
LINE
  8
0
 10
-4.99902
 20
55.9648
 11
-4.99902
 21
55.9473
  0
LINE
  8
0
 10
-4.99902
 20
55.9473
 11
-4.99805
 21
55.9307
  0
LINE
  8
0
 10
-4.99805
 20
55.9307
 11
-4.99023
 21
55.8604
  0
LINE
  8
0
 10
-4.99023
 20
55.8604
 11
-4.9873
 21
55.8438
  0
LINE
  8
0
 10
-4.9873
 20
55.8438
 11
-4.98438
 21
55.8262
  0
LINE
  8
0
 10
-4.98438
 20
55.8262
 11
-4.98145
 21
55.8096
  0
LINE
  8
0
 10
-4.98145
 20
55.8096
 11
-4.97852
 21
55.792
  0
LINE
  8
0
 10
-4.97852
 20
55.792
 11
-4.97461
 21
55.7754
  0
LINE
  8
0
 10
-4.97461
 20
55.7754
 11
-4.9707
 21
55.7578
  0
LINE
  8
0
 10
-4.9707
 20
55.7578
 11
-4.95117
 21
55.6914
  0
LINE
  8
0
 10
-4.95117
 20
55.6914
 11
-4.93359
 21
55.6416
  0
LINE
  8
0
 10
-4.93359
 20
55.6416
 11
-4.92676
 21
55.625
  0
LINE
  8
0
 10
-4.92676
 20
55.625
 11
-4.9209
 21
55.6094
  0
LINE
  8
0
 10
-4.9209
 20
55.6094
 11
-4.91309
 21
55.5938
  0
LINE
  8
0
 10
-4.91309
 20
55.5938
 11
-4.90625
 21
55.5771
  0
LINE
  8
0
 10
-4.90625
 20
55.5771
 11
-4.88281
 21
55.5303
  0
LINE
  8
0
 10
-4.88281
 20
55.5303
 11
-4.875
 21
55.5156
  0
LINE
  8
0
 10
-4.875
 20
55.5156
 11
-4.86621
 21
55.5
  0
LINE
  8
0
 10
-4.86621
 20
55.5
 11
-4.85742
 21
55.4854
  0
LINE
  8
0
 10
-4.85742
 20
55.4854
 11
-4.84766
 21
55.4697
  0
LINE
  8
0
 10
-4.84766
 20
55.4697
 11
-4.83887
 21
55.4551
  0
LINE
  8
0
 10
-4.83887
 20
55.4551
 11
-4.8291
 21
55.4404
  0
LINE
  8
0
 10
-4.8291
 20
55.4404
 11
-4.81934
 21
55.4268
  0
LINE
  8
0
 10
-4.81934
 20
55.4268
 11
-4.80859
 21
55.4121
  0
LINE
  8
0
 10
-4.80859
 20
55.4121
 11
-4.79883
 21
55.3984
  0
LINE
  8
0
 10
-4.79883
 20
55.3984
 11
-4.77734
 21
55.3711
  0
LINE
  8
0
 10
-4.77734
 20
55.3711
 11
-4.76562
 21
55.3574
  0
LINE
  8
0
 10
-4.76562
 20
55.3574
 11
-4.75488
 21
55.3438
  0
LINE
  8
0
 10
-4.75488
 20
55.3438
 11
-4.71973
 21
55.3057
  0
LINE
  8
0
 10
-4.71973
 20
55.3057
 11
-4.69434
 21
55.2803
  0
LINE
  8
0
 10
-4.69434
 20
55.2803
 11
-4.65625
 21
55.2451
  0
LINE
  8
0
 10
-4.65625
 20
55.2451
 11
-4.64258
 21
55.2344
  0
LINE
  8
0
 10
-4.64258
 20
55.2344
 11
-4.62891
 21
55.2227
  0
LINE
  8
0
 10
-4.62891
 20
55.2227
 11
-4.60156
 21
55.2012
  0
LINE
  8
0
 10
-4.60156
 20
55.2012
 11
-4.58789
 21
55.1914
  0
LINE
  8
0
 10
-4.58789
 20
55.1914
 11
-4.57324
 21
55.1807
  0
LINE
  8
0
 10
-4.57324
 20
55.1807
 11
-4.55957
 21
55.1709
  0
LINE
  8
0
 10
-4.55957
 20
55.1709
 11
-4.54492
 21
55.1611
  0
LINE
  8
0
 10
-4.54492
 20
55.1611
 11
-4.53027
 21
55.1523
  0
LINE
  8
0
 10
-4.53027
 20
55.1523
 11
-4.51465
 21
55.1426
  0
LINE
  8
0
 10
-4.51465
 20
55.1426
 11
-4.5
 21
55.1338
  0
LINE
  8
0
 10
-4.5
 20
55.1338
 11
-4.48438
 21
55.125
  0
LINE
  8
0
 10
-4.48438
 20
55.125
 11
-4.46973
 21
55.1172
  0
LINE
  8
0
 10
-4.46973
 20
55.1172
 11
-4.42285
 21
55.0938
  0
LINE
  8
0
 10
-4.42285
 20
55.0938
 11
-4.40625
 21
55.0869
  0
LINE
  8
0
 10
-4.40625
 20
55.0869
 11
-4.39062
 21
55.0791
  0
LINE
  8
0
 10
-4.39062
 20
55.0791
 11
-4.375
 21
55.0732
  0
LINE
  8
0
 10
-4.375
 20
55.0732
 11
-4.3584
 21
55.0664
  0
LINE
  8
0
 10
-4.3584
 20
55.0664
 11
-4.30859
 21
55.0488
  0
LINE
  8
0
 10
-4.30859
 20
55.0488
 11
-4.24219
 21
55.0293
  0
LINE
  8
0
 10
-4.24219
 20
55.0293
 11
-4.22461
 21
55.0254
  0
LINE
  8
0
 10
-4.22461
 20
55.0254
 11
-4.20801
 21
55.0215
  0
LINE
  8
0
 10
-4.20801
 20
55.0215
 11
-4.19043
 21
55.0186
  0
LINE
  8
0
 10
-4.19043
 20
55.0186
 11
-4.17383
 21
55.0156
  0
LINE
  8
0
 10
-4.17383
 20
55.0156
 11
-4.15625
 21
55.0127
  0
LINE
  8
0
 10
-4.15625
 20
55.0127
 11
-4.13965
 21
55.0098
  0
LINE
  8
0
 10
-4.13965
 20
55.0098
 11
-4.06934
 21
55.002
  0
LINE
  8
0
 10
-4.06934
 20
55.002
 11
-4.05273
 21
55.001
  0
LINE
  8
0
 10
-4.05273
 20
55.001
 11
-4.03516
 21
55.001
  0
LINE
  8
0
 10
-4.03516
 20
55.001
 11
-4.01758
 21
55
  0
LINE
  8
0
 10
-4.01758
 20
55
 11
0
 21
55
  0
LINE
  8
0
 10
0
 20
55
 11
0
 21
0
  0
LINE
  8
0
 10
0
 20
0
 11
100.95
 21
0
  0
LINE
  8
0
 10
100.95
 20
0
 11
100.95
 21
55
  0
LINE
  8
0
 10
8.97168
 20
127.9
 11
8.91602
 21
127.902
  0
LINE
  8
0
 10
8.91602
 20
127.902
 11
8.88867
 21
127.904
  0
LINE
  8
0
 10
8.88867
 20
127.904
 11
8.86035
 21
127.906
  0
LINE
  8
0
 10
8.86035
 20
127.906
 11
8.83301
 21
127.909
  0
LINE
  8
0
 10
8.83301
 20
127.909
 11
8.80469
 21
127.912
  0
LINE
  8
0
 10
8.80469
 20
127.912
 11
8.75
 21
127.92
  0
LINE
  8
0
 10
8.75
 20
127.92
 11
8.72168
 21
127.924
  0
LINE
  8
0
 10
8.72168
 20
127.924
 11
8.69434
 21
127.93
  0
LINE
  8
0
 10
8.69434
 20
127.93
 11
8.66699
 21
127.935
  0
LINE
  8
0
 10
8.66699
 20
127.935
 11
8.63965
 21
127.941
  0
LINE
  8
0
 10
8.63965
 20
127.941
 11
8.61328
 21
127.947
  0
LINE
  8
0
 10
8.61328
 20
127.947
 11
8.58594
 21
127.954
  0
LINE
  8
0
 10
8.58594
 20
127.954
 11
8.55859
 21
127.962
  0
LINE
  8
0
 10
8.55859
 20
127.962
 11
8.53223
 21
127.97
  0
LINE
  8
0
 10
8.53223
 20
127.97
 11
8.45312
 21
127.996
  0
LINE
  8
0
 10
8.45312
 20
127.996
 11
8.42676
 21
128.006
  0
LINE
  8
0
 10
8.42676
 20
128.006
 11
8.40039
 21
128.017
  0
LINE
  8
0
 10
8.40039
 20
128.017
 11
8.34961
 21
128.038
  0
LINE
  8
0
 10
8.34961
 20
128.038
 11
8.29883
 21
128.062
  0
LINE
  8
0
 10
8.29883
 20
128.062
 11
8.27344
 21
128.074
  0
LINE
  8
0
 10
8.27344
 20
128.074
 11
8.24902
 21
128.087
  0
LINE
  8
0
 10
8.24902
 20
128.087
 11
8.2002
 21
128.114
  0
LINE
  8
0
 10
8.2002
 20
128.114
 11
8.17578
 21
128.129
  0
LINE
  8
0
 10
8.17578
 20
128.129
 11
8.12891
 21
128.158
  0
LINE
  8
0
 10
8.12891
 20
128.158
 11
8.08203
 21
128.189
  0
LINE
  8
0
 10
8.08203
 20
128.189
 11
8.01465
 21
128.239
  0
LINE
  8
0
 10
8.01465
 20
128.239
 11
7.9502
 21
128.292
  0
LINE
  8
0
 10
7.9502
 20
128.292
 11
7.92969
 21
128.311
  0
LINE
  8
0
 10
7.92969
 20
128.311
 11
7.90918
 21
128.33
  0
LINE
  8
0
 10
7.90918
 20
128.33
 11
7.88867
 21
128.349
  0
LINE
  8
0
 10
7.88867
 20
128.349
 11
7.86816
 21
128.368
  0
LINE
  8
0
 10
7.86816
 20
128.368
 11
7.84863
 21
128.389
  0
LINE
  8
0
 10
7.84863
 20
128.389
 11
7.83008
 21
128.409
  0
LINE
  8
0
 10
7.83008
 20
128.409
 11
7.81055
 21
128.43
  0
LINE
  8
0
 10
7.81055
 20
128.43
 11
7.79199
 21
128.45
  0
LINE
  8
0
 10
7.79199
 20
128.45
 11
7.73926
 21
128.515
  0
LINE
  8
0
 10
7.73926
 20
128.515
 11
7.68945
 21
128.582
  0
LINE
  8
0
 10
7.68945
 20
128.582
 11
7.6582
 21
128.629
  0
LINE
  8
0
 10
7.6582
 20
128.629
 11
7.62891
 21
128.676
  0
LINE
  8
0
 10
7.62891
 20
128.676
 11
7.61426
 21
128.7
  0
LINE
  8
0
 10
7.61426
 20
128.7
 11
7.58691
 21
128.749
  0
LINE
  8
0
 10
7.58691
 20
128.749
 11
7.57422
 21
128.773
  0
LINE
  8
0
 10
7.57422
 20
128.773
 11
7.56152
 21
128.799
  0
LINE
  8
0
 10
7.56152
 20
128.799
 11
7.53809
 21
128.85
  0
LINE
  8
0
 10
7.53809
 20
128.85
 11
7.5166
 21
128.9
  0
LINE
  8
0
 10
7.5166
 20
128.9
 11
7.50586
 21
128.927
  0
LINE
  8
0
 10
7.50586
 20
128.927
 11
7.49609
 21
128.953
  0
LINE
  8
0
 10
7.49609
 20
128.953
 11
7.46973
 21
129.032
  0
LINE
  8
0
 10
7.46973
 20
129.032
 11
7.46191
 21
129.059
  0
LINE
  8
0
 10
7.46191
 20
129.059
 11
7.4541
 21
129.086
  0
LINE
  8
0
 10
7.4541
 20
129.086
 11
7.44727
 21
129.113
  0
LINE
  8
0
 10
7.44727
 20
129.113
 11
7.44141
 21
129.14
  0
LINE
  8
0
 10
7.44141
 20
129.14
 11
7.43457
 21
129.167
  0
LINE
  8
0
 10
7.43457
 20
129.167
 11
7.42969
 21
129.194
  0
LINE
  8
0
 10
7.42969
 20
129.194
 11
7.42383
 21
129.222
  0
LINE
  8
0
 10
7.42383
 20
129.222
 11
7.41992
 21
129.25
  0
LINE
  8
0
 10
7.41992
 20
129.25
 11
7.41211
 21
129.305
  0
LINE
  8
0
 10
7.41211
 20
129.305
 11
7.40918
 21
129.333
  0
LINE
  8
0
 10
7.40918
 20
129.333
 11
7.40625
 21
129.36
  0
LINE
  8
0
 10
7.40625
 20
129.36
 11
7.4043
 21
129.389
  0
LINE
  8
0
 10
7.4043
 20
129.389
 11
7.40234
 21
129.416
  0
LINE
  8
0
 10
7.40234
 20
129.416
 11
7.40039
 21
129.472
  0
LINE
  8
0
 10
7.40039
 20
129.472
 11
7.40039
 21
129.528
  0
LINE
  8
0
 10
7.40039
 20
129.528
 11
7.40234
 21
129.584
  0
LINE
  8
0
 10
7.40234
 20
129.584
 11
7.4043
 21
129.611
  0
LINE
  8
0
 10
7.4043
 20
129.611
 11
7.40625
 21
129.64
  0
LINE
  8
0
 10
7.40625
 20
129.64
 11
7.40918
 21
129.667
  0
LINE
  8
0
 10
7.40918
 20
129.667
 11
7.41211
 21
129.695
  0
LINE
  8
0
 10
7.41211
 20
129.695
 11
7.41992
 21
129.75
  0
LINE
  8
0
 10
7.41992
 20
129.75
 11
7.42383
 21
129.778
  0
LINE
  8
0
 10
7.42383
 20
129.778
 11
7.42969
 21
129.806
  0
LINE
  8
0
 10
7.42969
 20
129.806
 11
7.43457
 21
129.833
  0
LINE
  8
0
 10
7.43457
 20
129.833
 11
7.44141
 21
129.86
  0
LINE
  8
0
 10
7.44141
 20
129.86
 11
7.44727
 21
129.887
  0
LINE
  8
0
 10
7.44727
 20
129.887
 11
7.4541
 21
129.914
  0
LINE
  8
0
 10
7.4541
 20
129.914
 11
7.46191
 21
129.941
  0
LINE
  8
0
 10
7.46191
 20
129.941
 11
7.46973
 21
129.968
  0
LINE
  8
0
 10
7.46973
 20
129.968
 11
7.49609
 21
130.047
  0
LINE
  8
0
 10
7.49609
 20
130.047
 11
7.50586
 21
130.073
  0
LINE
  8
0
 10
7.50586
 20
130.073
 11
7.5166
 21
130.1
  0
LINE
  8
0
 10
7.5166
 20
130.1
 11
7.53809
 21
130.15
  0
LINE
  8
0
 10
7.53809
 20
130.15
 11
7.56152
 21
130.201
  0
LINE
  8
0
 10
7.56152
 20
130.201
 11
7.57422
 21
130.227
  0
LINE
  8
0
 10
7.57422
 20
130.227
 11
7.58691
 21
130.251
  0
LINE
  8
0
 10
7.58691
 20
130.251
 11
7.61426
 21
130.3
  0
LINE
  8
0
 10
7.61426
 20
130.3
 11
7.62891
 21
130.324
  0
LINE
  8
0
 10
7.62891
 20
130.324
 11
7.6582
 21
130.371
  0
LINE
  8
0
 10
7.6582
 20
130.371
 11
7.68945
 21
130.418
  0
LINE
  8
0
 10
7.68945
 20
130.418
 11
7.73926
 21
130.485
  0
LINE
  8
0
 10
7.73926
 20
130.485
 11
7.79199
 21
130.55
  0
LINE
  8
0
 10
7.79199
 20
130.55
 11
7.81055
 21
130.57
  0
LINE
  8
0
 10
7.81055
 20
130.57
 11
7.83008
 21
130.591
  0
LINE
  8
0
 10
7.83008
 20
130.591
 11
7.84863
 21
130.611
  0
LINE
  8
0
 10
7.84863
 20
130.611
 11
7.86816
 21
130.632
  0
LINE
  8
0
 10
7.86816
 20
130.632
 11
7.88867
 21
130.651
  0
LINE
  8
0
 10
7.88867
 20
130.651
 11
7.90918
 21
130.67
  0
LINE
  8
0
 10
7.90918
 20
130.67
 11
7.92969
 21
130.689
  0
LINE
  8
0
 10
7.92969
 20
130.689
 11
7.9502
 21
130.708
  0
LINE
  8
0
 10
7.9502
 20
130.708
 11
8.01465
 21
130.761
  0
LINE
  8
0
 10
8.01465
 20
130.761
 11
8.08203
 21
130.811
  0
LINE
  8
0
 10
8.08203
 20
130.811
 11
8.12891
 21
130.842
  0
LINE
  8
0
 10
8.12891
 20
130.842
 11
8.17578
 21
130.871
  0
LINE
  8
0
 10
8.17578
 20
130.871
 11
8.2002
 21
130.886
  0
LINE
  8
0
 10
8.2002
 20
130.886
 11
8.24902
 21
130.913
  0
LINE
  8
0
 10
8.24902
 20
130.913
 11
8.27344
 21
130.926
  0
LINE
  8
0
 10
8.27344
 20
130.926
 11
8.29883
 21
130.938
  0
LINE
  8
0
 10
8.29883
 20
130.938
 11
8.34961
 21
130.962
  0
LINE
  8
0
 10
8.34961
 20
130.962
 11
8.40039
 21
130.983
  0
LINE
  8
0
 10
8.40039
 20
130.983
 11
8.42676
 21
130.994
  0
LINE
  8
0
 10
8.42676
 20
130.994
 11
8.45312
 21
131.004
  0
LINE
  8
0
 10
8.45312
 20
131.004
 11
8.53223
 21
131.03
  0
LINE
  8
0
 10
8.53223
 20
131.03
 11
8.55859
 21
131.038
  0
LINE
  8
0
 10
8.55859
 20
131.038
 11
8.58594
 21
131.046
  0
LINE
  8
0
 10
8.58594
 20
131.046
 11
8.61328
 21
131.053
  0
LINE
  8
0
 10
8.61328
 20
131.053
 11
8.63965
 21
131.059
  0
LINE
  8
0
 10
8.63965
 20
131.059
 11
8.66699
 21
131.065
  0
LINE
  8
0
 10
8.66699
 20
131.065
 11
8.69434
 21
131.07
  0
LINE
  8
0
 10
8.69434
 20
131.07
 11
8.72168
 21
131.076
  0
LINE
  8
0
 10
8.72168
 20
131.076
 11
8.75
 21
131.08
  0
LINE
  8
0
 10
8.75
 20
131.08
 11
8.80469
 21
131.088
  0
LINE
  8
0
 10
8.80469
 20
131.088
 11
8.83301
 21
131.091
  0
LINE
  8
0
 10
8.83301
 20
131.091
 11
8.86035
 21
131.094
  0
LINE
  8
0
 10
8.86035
 20
131.094
 11
8.88867
 21
131.096
  0
LINE
  8
0
 10
8.88867
 20
131.096
 11
8.91602
 21
131.098
  0
LINE
  8
0
 10
8.91602
 20
131.098
 11
8.97168
 21
131.1
  0
LINE
  8
0
 10
8.97168
 20
131.1
 11
9.02832
 21
131.1
  0
LINE
  8
0
 10
9.02832
 20
131.1
 11
9.08398
 21
131.098
  0
LINE
  8
0
 10
9.08398
 20
131.098
 11
9.11133
 21
131.096
  0
LINE
  8
0
 10
9.11133
 20
131.096
 11
9.13965
 21
131.094
  0
LINE
  8
0
 10
9.13965
 20
131.094
 11
9.16699
 21
131.091
  0
LINE
  8
0
 10
9.16699
 20
131.091
 11
9.19531
 21
131.088
  0
LINE
  8
0
 10
9.19531
 20
131.088
 11
9.25
 21
131.08
  0
LINE
  8
0
 10
9.25
 20
131.08
 11
9.27832
 21
131.076
  0
LINE
  8
0
 10
9.27832
 20
131.076
 11
9.30566
 21
131.07
  0
LINE
  8
0
 10
9.30566
 20
131.07
 11
9.33301
 21
131.065
  0
LINE
  8
0
 10
9.33301
 20
131.065
 11
9.36035
 21
131.059
  0
LINE
  8
0
 10
9.36035
 20
131.059
 11
9.38672
 21
131.053
  0
LINE
  8
0
 10
9.38672
 20
131.053
 11
9.41406
 21
131.046
  0
LINE
  8
0
 10
9.41406
 20
131.046
 11
9.44141
 21
131.038
  0
LINE
  8
0
 10
9.44141
 20
131.038
 11
9.46777
 21
131.03
  0
LINE
  8
0
 10
9.46777
 20
131.03
 11
9.54688
 21
131.004
  0
LINE
  8
0
 10
9.54688
 20
131.004
 11
9.57324
 21
130.994
  0
LINE
  8
0
 10
9.57324
 20
130.994
 11
9.59961
 21
130.983
  0
LINE
  8
0
 10
9.59961
 20
130.983
 11
9.65039
 21
130.962
  0
LINE
  8
0
 10
9.65039
 20
130.962
 11
9.70117
 21
130.938
  0
LINE
  8
0
 10
9.70117
 20
130.938
 11
9.72656
 21
130.926
  0
LINE
  8
0
 10
9.72656
 20
130.926
 11
9.75098
 21
130.913
  0
LINE
  8
0
 10
9.75098
 20
130.913
 11
9.7998
 21
130.886
  0
LINE
  8
0
 10
9.7998
 20
130.886
 11
9.82422
 21
130.871
  0
LINE
  8
0
 10
9.82422
 20
130.871
 11
9.87109
 21
130.842
  0
LINE
  8
0
 10
9.87109
 20
130.842
 11
9.91797
 21
130.811
  0
LINE
  8
0
 10
9.91797
 20
130.811
 11
9.98535
 21
130.761
  0
LINE
  8
0
 10
9.98535
 20
130.761
 11
10.0498
 21
130.708
  0
LINE
  8
0
 10
10.0498
 20
130.708
 11
10.0703
 21
130.689
  0
LINE
  8
0
 10
10.0703
 20
130.689
 11
10.0908
 21
130.67
  0
LINE
  8
0
 10
10.0908
 20
130.67
 11
10.1113
 21
130.651
  0
LINE
  8
0
 10
10.1113
 20
130.651
 11
10.1318
 21
130.632
  0
LINE
  8
0
 10
10.1318
 20
130.632
 11
10.1514
 21
130.611
  0
LINE
  8
0
 10
10.1514
 20
130.611
 11
10.1699
 21
130.591
  0
LINE
  8
0
 10
10.1699
 20
130.591
 11
10.1895
 21
130.57
  0
LINE
  8
0
 10
10.1895
 20
130.57
 11
10.208
 21
130.55
  0
LINE
  8
0
 10
10.208
 20
130.55
 11
10.2607
 21
130.485
  0
LINE
  8
0
 10
10.2607
 20
130.485
 11
10.3105
 21
130.418
  0
LINE
  8
0
 10
10.3105
 20
130.418
 11
10.3418
 21
130.371
  0
LINE
  8
0
 10
10.3418
 20
130.371
 11
10.3711
 21
130.324
  0
LINE
  8
0
 10
10.3711
 20
130.324
 11
10.3857
 21
130.3
  0
LINE
  8
0
 10
10.3857
 20
130.3
 11
10.4131
 21
130.251
  0
LINE
  8
0
 10
10.4131
 20
130.251
 11
10.4258
 21
130.227
  0
LINE
  8
0
 10
10.4258
 20
130.227
 11
10.4385
 21
130.201
  0
LINE
  8
0
 10
10.4385
 20
130.201
 11
10.4619
 21
130.15
  0
LINE
  8
0
 10
10.4619
 20
130.15
 11
10.4834
 21
130.1
  0
LINE
  8
0
 10
10.4834
 20
130.1
 11
10.4941
 21
130.073
  0
LINE
  8
0
 10
10.4941
 20
130.073
 11
10.5039
 21
130.047
  0
LINE
  8
0
 10
10.5039
 20
130.047
 11
10.5303
 21
129.968
  0
LINE
  8
0
 10
10.5303
 20
129.968
 11
10.5381
 21
129.941
  0
LINE
  8
0
 10
10.5381
 20
129.941
 11
10.5459
 21
129.914
  0
LINE
  8
0
 10
10.5459
 20
129.914
 11
10.5527
 21
129.887
  0
LINE
  8
0
 10
10.5527
 20
129.887
 11
10.5586
 21
129.86
  0
LINE
  8
0
 10
10.5586
 20
129.86
 11
10.5654
 21
129.833
  0
LINE
  8
0
 10
10.5654
 20
129.833
 11
10.5703
 21
129.806
  0
LINE
  8
0
 10
10.5703
 20
129.806
 11
10.5762
 21
129.778
  0
LINE
  8
0
 10
10.5762
 20
129.778
 11
10.5801
 21
129.75
  0
LINE
  8
0
 10
10.5801
 20
129.75
 11
10.5879
 21
129.695
  0
LINE
  8
0
 10
10.5879
 20
129.695
 11
10.5908
 21
129.667
  0
LINE
  8
0
 10
10.5908
 20
129.667
 11
10.5938
 21
129.64
  0
LINE
  8
0
 10
10.5938
 20
129.64
 11
10.5957
 21
129.611
  0
LINE
  8
0
 10
10.5957
 20
129.611
 11
10.5977
 21
129.584
  0
LINE
  8
0
 10
10.5977
 20
129.584
 11
10.5996
 21
129.528
  0
LINE
  8
0
 10
10.5996
 20
129.528
 11
10.5996
 21
129.472
  0
LINE
  8
0
 10
10.5996
 20
129.472
 11
10.5977
 21
129.416
  0
LINE
  8
0
 10
10.5977
 20
129.416
 11
10.5957
 21
129.389
  0
LINE
  8
0
 10
10.5957
 20
129.389
 11
10.5938
 21
129.36
  0
LINE
  8
0
 10
10.5938
 20
129.36
 11
10.5908
 21
129.333
  0
LINE
  8
0
 10
10.5908
 20
129.333
 11
10.5879
 21
129.305
  0
LINE
  8
0
 10
10.5879
 20
129.305
 11
10.5801
 21
129.25
  0
LINE
  8
0
 10
10.5801
 20
129.25
 11
10.5762
 21
129.222
  0
LINE
  8
0
 10
10.5762
 20
129.222
 11
10.5703
 21
129.194
  0
LINE
  8
0
 10
10.5703
 20
129.194
 11
10.5654
 21
129.167
  0
LINE
  8
0
 10
10.5654
 20
129.167
 11
10.5586
 21
129.14
  0
LINE
  8
0
 10
10.5586
 20
129.14
 11
10.5527
 21
129.113
  0
LINE
  8
0
 10
10.5527
 20
129.113
 11
10.5459
 21
129.086
  0
LINE
  8
0
 10
10.5459
 20
129.086
 11
10.5381
 21
129.059
  0
LINE
  8
0
 10
10.5381
 20
129.059
 11
10.5303
 21
129.032
  0
LINE
  8
0
 10
10.5303
 20
129.032
 11
10.5039
 21
128.953
  0
LINE
  8
0
 10
10.5039
 20
128.953
 11
10.4941
 21
128.927
  0
LINE
  8
0
 10
10.4941
 20
128.927
 11
10.4834
 21
128.9
  0
LINE
  8
0
 10
10.4834
 20
128.9
 11
10.4619
 21
128.85
  0
LINE
  8
0
 10
10.4619
 20
128.85
 11
10.4385
 21
128.799
  0
LINE
  8
0
 10
10.4385
 20
128.799
 11
10.4258
 21
128.773
  0
LINE
  8
0
 10
10.4258
 20
128.773
 11
10.4131
 21
128.749
  0
LINE
  8
0
 10
10.4131
 20
128.749
 11
10.3857
 21
128.7
  0
LINE
  8
0
 10
10.3857
 20
128.7
 11
10.3711
 21
128.676
  0
LINE
  8
0
 10
10.3711
 20
128.676
 11
10.3418
 21
128.629
  0
LINE
  8
0
 10
10.3418
 20
128.629
 11
10.3105
 21
128.582
  0
LINE
  8
0
 10
10.3105
 20
128.582
 11
10.2607
 21
128.515
  0
LINE
  8
0
 10
10.2607
 20
128.515
 11
10.208
 21
128.45
  0
LINE
  8
0
 10
10.208
 20
128.45
 11
10.1895
 21
128.43
  0
LINE
  8
0
 10
10.1895
 20
128.43
 11
10.1699
 21
128.409
  0
LINE
  8
0
 10
10.1699
 20
128.409
 11
10.1514
 21
128.389
  0
LINE
  8
0
 10
10.1514
 20
128.389
 11
10.1318
 21
128.368
  0
LINE
  8
0
 10
10.1318
 20
128.368
 11
10.1113
 21
128.349
  0
LINE
  8
0
 10
10.1113
 20
128.349
 11
10.0908
 21
128.33
  0
LINE
  8
0
 10
10.0908
 20
128.33
 11
10.0703
 21
128.311
  0
LINE
  8
0
 10
10.0703
 20
128.311
 11
10.0498
 21
128.292
  0
LINE
  8
0
 10
10.0498
 20
128.292
 11
9.98535
 21
128.239
  0
LINE
  8
0
 10
9.98535
 20
128.239
 11
9.91797
 21
128.189
  0
LINE
  8
0
 10
9.91797
 20
128.189
 11
9.87109
 21
128.158
  0
LINE
  8
0
 10
9.87109
 20
128.158
 11
9.82422
 21
128.129
  0
LINE
  8
0
 10
9.82422
 20
128.129
 11
9.7998
 21
128.114
  0
LINE
  8
0
 10
9.7998
 20
128.114
 11
9.75098
 21
128.087
  0
LINE
  8
0
 10
9.75098
 20
128.087
 11
9.72656
 21
128.074
  0
LINE
  8
0
 10
9.72656
 20
128.074
 11
9.70117
 21
128.062
  0
LINE
  8
0
 10
9.70117
 20
128.062
 11
9.65039
 21
128.038
  0
LINE
  8
0
 10
9.65039
 20
128.038
 11
9.59961
 21
128.017
  0
LINE
  8
0
 10
9.59961
 20
128.017
 11
9.57324
 21
128.006
  0
LINE
  8
0
 10
9.57324
 20
128.006
 11
9.54688
 21
127.996
  0
LINE
  8
0
 10
9.54688
 20
127.996
 11
9.46777
 21
127.97
  0
LINE
  8
0
 10
9.46777
 20
127.97
 11
9.44141
 21
127.962
  0
LINE
  8
0
 10
9.44141
 20
127.962
 11
9.41406
 21
127.954
  0
LINE
  8
0
 10
9.41406
 20
127.954
 11
9.38672
 21
127.947
  0
LINE
  8
0
 10
9.38672
 20
127.947
 11
9.36035
 21
127.941
  0
LINE
  8
0
 10
9.36035
 20
127.941
 11
9.33301
 21
127.935
  0
LINE
  8
0
 10
9.33301
 20
127.935
 11
9.30566
 21
127.93
  0
LINE
  8
0
 10
9.30566
 20
127.93
 11
9.27832
 21
127.924
  0
LINE
  8
0
 10
9.27832
 20
127.924
 11
9.25
 21
127.92
  0
LINE
  8
0
 10
9.25
 20
127.92
 11
9.19531
 21
127.912
  0
LINE
  8
0
 10
9.19531
 20
127.912
 11
9.16699
 21
127.909
  0
LINE
  8
0
 10
9.16699
 20
127.909
 11
9.13965
 21
127.906
  0
LINE
  8
0
 10
9.13965
 20
127.906
 11
9.11133
 21
127.904
  0
LINE
  8
0
 10
9.11133
 20
127.904
 11
9.08398
 21
127.902
  0
LINE
  8
0
 10
9.08398
 20
127.902
 11
9.02832
 21
127.9
  0
LINE
  8
0
 10
9.02832
 20
127.9
 11
8.97168
 21
127.9
  0
LINE
  8
0
 10
91.4717
 20
127.4
 11
91.416
 21
127.402
  0
LINE
  8
0
 10
91.416
 20
127.402
 11
91.3887
 21
127.404
  0
LINE
  8
0
 10
91.3887
 20
127.404
 11
91.3604
 21
127.406
  0
LINE
  8
0
 10
91.3604
 20
127.406
 11
91.333
 21
127.409
  0
LINE
  8
0
 10
91.333
 20
127.409
 11
91.3047
 21
127.412
  0
LINE
  8
0
 10
91.3047
 20
127.412
 11
91.25
 21
127.42
  0
LINE
  8
0
 10
91.25
 20
127.42
 11
91.2217
 21
127.424
  0
LINE
  8
0
 10
91.2217
 20
127.424
 11
91.1943
 21
127.43
  0
LINE
  8
0
 10
91.1943
 20
127.43
 11
91.167
 21
127.435
  0
LINE
  8
0
 10
91.167
 20
127.435
 11
91.1396
 21
127.441
  0
LINE
  8
0
 10
91.1396
 20
127.441
 11
91.1133
 21
127.447
  0
LINE
  8
0
 10
91.1133
 20
127.447
 11
91.0859
 21
127.454
  0
LINE
  8
0
 10
91.0859
 20
127.454
 11
91.0586
 21
127.462
  0
LINE
  8
0
 10
91.0586
 20
127.462
 11
91.0322
 21
127.47
  0
LINE
  8
0
 10
91.0322
 20
127.47
 11
90.9531
 21
127.496
  0
LINE
  8
0
 10
90.9531
 20
127.496
 11
90.9268
 21
127.506
  0
LINE
  8
0
 10
90.9268
 20
127.506
 11
90.9004
 21
127.517
  0
LINE
  8
0
 10
90.9004
 20
127.517
 11
90.8496
 21
127.538
  0
LINE
  8
0
 10
90.8496
 20
127.538
 11
90.7988
 21
127.562
  0
LINE
  8
0
 10
90.7988
 20
127.562
 11
90.7734
 21
127.574
  0
LINE
  8
0
 10
90.7734
 20
127.574
 11
90.749
 21
127.587
  0
LINE
  8
0
 10
90.749
 20
127.587
 11
90.7002
 21
127.614
  0
LINE
  8
0
 10
90.7002
 20
127.614
 11
90.6758
 21
127.629
  0
LINE
  8
0
 10
90.6758
 20
127.629
 11
90.6289
 21
127.658
  0
LINE
  8
0
 10
90.6289
 20
127.658
 11
90.582
 21
127.689
  0
LINE
  8
0
 10
90.582
 20
127.689
 11
90.5146
 21
127.739
  0
LINE
  8
0
 10
90.5146
 20
127.739
 11
90.4502
 21
127.792
  0
LINE
  8
0
 10
90.4502
 20
127.792
 11
90.4297
 21
127.811
  0
LINE
  8
0
 10
90.4297
 20
127.811
 11
90.4092
 21
127.83
  0
LINE
  8
0
 10
90.4092
 20
127.83
 11
90.3887
 21
127.849
  0
LINE
  8
0
 10
90.3887
 20
127.849
 11
90.3682
 21
127.868
  0
LINE
  8
0
 10
90.3682
 20
127.868
 11
90.3486
 21
127.889
  0
LINE
  8
0
 10
90.3486
 20
127.889
 11
90.3301
 21
127.909
  0
LINE
  8
0
 10
90.3301
 20
127.909
 11
90.3105
 21
127.93
  0
LINE
  8
0
 10
90.3105
 20
127.93
 11
90.292
 21
127.95
  0
LINE
  8
0
 10
90.292
 20
127.95
 11
90.2393
 21
128.015
  0
LINE
  8
0
 10
90.2393
 20
128.015
 11
90.1895
 21
128.082
  0
LINE
  8
0
 10
90.1895
 20
128.082
 11
90.1582
 21
128.129
  0
LINE
  8
0
 10
90.1582
 20
128.129
 11
90.1289
 21
128.176
  0
LINE
  8
0
 10
90.1289
 20
128.176
 11
90.1143
 21
128.2
  0
LINE
  8
0
 10
90.1143
 20
128.2
 11
90.0869
 21
128.249
  0
LINE
  8
0
 10
90.0869
 20
128.249
 11
90.0742
 21
128.273
  0
LINE
  8
0
 10
90.0742
 20
128.273
 11
90.0615
 21
128.299
  0
LINE
  8
0
 10
90.0615
 20
128.299
 11
90.0381
 21
128.35
  0
LINE
  8
0
 10
90.0381
 20
128.35
 11
90.0166
 21
128.4
  0
LINE
  8
0
 10
90.0166
 20
128.4
 11
90.0059
 21
128.427
  0
LINE
  8
0
 10
90.0059
 20
128.427
 11
89.9961
 21
128.453
  0
LINE
  8
0
 10
89.9961
 20
128.453
 11
89.9697
 21
128.532
  0
LINE
  8
0
 10
89.9697
 20
128.532
 11
89.9619
 21
128.559
  0
LINE
  8
0
 10
89.9619
 20
128.559
 11
89.9541
 21
128.586
  0
LINE
  8
0
 10
89.9541
 20
128.586
 11
89.9473
 21
128.613
  0
LINE
  8
0
 10
89.9473
 20
128.613
 11
89.9414
 21
128.64
  0
LINE
  8
0
 10
89.9414
 20
128.64
 11
89.9346
 21
128.667
  0
LINE
  8
0
 10
89.9346
 20
128.667
 11
89.9297
 21
128.694
  0
LINE
  8
0
 10
89.9297
 20
128.694
 11
89.9238
 21
128.722
  0
LINE
  8
0
 10
89.9238
 20
128.722
 11
89.9199
 21
128.75
  0
LINE
  8
0
 10
89.9199
 20
128.75
 11
89.9121
 21
128.805
  0
LINE
  8
0
 10
89.9121
 20
128.805
 11
89.9092
 21
128.833
  0
LINE
  8
0
 10
89.9092
 20
128.833
 11
89.9062
 21
128.86
  0
LINE
  8
0
 10
89.9062
 20
128.86
 11
89.9043
 21
128.889
  0
LINE
  8
0
 10
89.9043
 20
128.889
 11
89.9023
 21
128.916
  0
LINE
  8
0
 10
89.9023
 20
128.916
 11
89.9004
 21
128.972
  0
LINE
  8
0
 10
89.9004
 20
128.972
 11
89.9004
 21
129.028
  0
LINE
  8
0
 10
89.9004
 20
129.028
 11
89.9023
 21
129.084
  0
LINE
  8
0
 10
89.9023
 20
129.084
 11
89.9043
 21
129.111
  0
LINE
  8
0
 10
89.9043
 20
129.111
 11
89.9062
 21
129.14
  0
LINE
  8
0
 10
89.9062
 20
129.14
 11
89.9092
 21
129.167
  0
LINE
  8
0
 10
89.9092
 20
129.167
 11
89.9121
 21
129.195
  0
LINE
  8
0
 10
89.9121
 20
129.195
 11
89.9199
 21
129.25
  0
LINE
  8
0
 10
89.9199
 20
129.25
 11
89.9238
 21
129.278
  0
LINE
  8
0
 10
89.9238
 20
129.278
 11
89.9297
 21
129.306
  0
LINE
  8
0
 10
89.9297
 20
129.306
 11
89.9346
 21
129.333
  0
LINE
  8
0
 10
89.9346
 20
129.333
 11
89.9414
 21
129.36
  0
LINE
  8
0
 10
89.9414
 20
129.36
 11
89.9473
 21
129.387
  0
LINE
  8
0
 10
89.9473
 20
129.387
 11
89.9541
 21
129.414
  0
LINE
  8
0
 10
89.9541
 20
129.414
 11
89.9619
 21
129.441
  0
LINE
  8
0
 10
89.9619
 20
129.441
 11
89.9697
 21
129.468
  0
LINE
  8
0
 10
89.9697
 20
129.468
 11
89.9961
 21
129.547
  0
LINE
  8
0
 10
89.9961
 20
129.547
 11
90.0059
 21
129.573
  0
LINE
  8
0
 10
90.0059
 20
129.573
 11
90.0166
 21
129.6
  0
LINE
  8
0
 10
90.0166
 20
129.6
 11
90.0381
 21
129.65
  0
LINE
  8
0
 10
90.0381
 20
129.65
 11
90.0615
 21
129.701
  0
LINE
  8
0
 10
90.0615
 20
129.701
 11
90.0742
 21
129.727
  0
LINE
  8
0
 10
90.0742
 20
129.727
 11
90.0869
 21
129.751
  0
LINE
  8
0
 10
90.0869
 20
129.751
 11
90.1143
 21
129.8
  0
LINE
  8
0
 10
90.1143
 20
129.8
 11
90.1289
 21
129.824
  0
LINE
  8
0
 10
90.1289
 20
129.824
 11
90.1582
 21
129.871
  0
LINE
  8
0
 10
90.1582
 20
129.871
 11
90.1895
 21
129.918
  0
LINE
  8
0
 10
90.1895
 20
129.918
 11
90.2393
 21
129.985
  0
LINE
  8
0
 10
90.2393
 20
129.985
 11
90.292
 21
130.05
  0
LINE
  8
0
 10
90.292
 20
130.05
 11
90.3105
 21
130.07
  0
LINE
  8
0
 10
90.3105
 20
130.07
 11
90.3301
 21
130.091
  0
LINE
  8
0
 10
90.3301
 20
130.091
 11
90.3486
 21
130.111
  0
LINE
  8
0
 10
90.3486
 20
130.111
 11
90.3682
 21
130.132
  0
LINE
  8
0
 10
90.3682
 20
130.132
 11
90.3887
 21
130.151
  0
LINE
  8
0
 10
90.3887
 20
130.151
 11
90.4092
 21
130.17
  0
LINE
  8
0
 10
90.4092
 20
130.17
 11
90.4297
 21
130.189
  0
LINE
  8
0
 10
90.4297
 20
130.189
 11
90.4502
 21
130.208
  0
LINE
  8
0
 10
90.4502
 20
130.208
 11
90.5146
 21
130.261
  0
LINE
  8
0
 10
90.5146
 20
130.261
 11
90.582
 21
130.311
  0
LINE
  8
0
 10
90.582
 20
130.311
 11
90.6289
 21
130.342
  0
LINE
  8
0
 10
90.6289
 20
130.342
 11
90.6758
 21
130.371
  0
LINE
  8
0
 10
90.6758
 20
130.371
 11
90.7002
 21
130.386
  0
LINE
  8
0
 10
90.7002
 20
130.386
 11
90.749
 21
130.413
  0
LINE
  8
0
 10
90.749
 20
130.413
 11
90.7734
 21
130.426
  0
LINE
  8
0
 10
90.7734
 20
130.426
 11
90.7988
 21
130.438
  0
LINE
  8
0
 10
90.7988
 20
130.438
 11
90.8496
 21
130.462
  0
LINE
  8
0
 10
90.8496
 20
130.462
 11
90.9004
 21
130.483
  0
LINE
  8
0
 10
90.9004
 20
130.483
 11
90.9268
 21
130.494
  0
LINE
  8
0
 10
90.9268
 20
130.494
 11
90.9531
 21
130.504
  0
LINE
  8
0
 10
90.9531
 20
130.504
 11
91.0322
 21
130.53
  0
LINE
  8
0
 10
91.0322
 20
130.53
 11
91.0586
 21
130.538
  0
LINE
  8
0
 10
91.0586
 20
130.538
 11
91.0859
 21
130.546
  0
LINE
  8
0
 10
91.0859
 20
130.546
 11
91.1133
 21
130.553
  0
LINE
  8
0
 10
91.1133
 20
130.553
 11
91.1396
 21
130.559
  0
LINE
  8
0
 10
91.1396
 20
130.559
 11
91.167
 21
130.565
  0
LINE
  8
0
 10
91.167
 20
130.565
 11
91.1943
 21
130.57
  0
LINE
  8
0
 10
91.1943
 20
130.57
 11
91.2217
 21
130.576
  0
LINE
  8
0
 10
91.2217
 20
130.576
 11
91.25
 21
130.58
  0
LINE
  8
0
 10
91.25
 20
130.58
 11
91.3047
 21
130.588
  0
LINE
  8
0
 10
91.3047
 20
130.588
 11
91.333
 21
130.591
  0
LINE
  8
0
 10
91.333
 20
130.591
 11
91.3604
 21
130.594
  0
LINE
  8
0
 10
91.3604
 20
130.594
 11
91.3887
 21
130.596
  0
LINE
  8
0
 10
91.3887
 20
130.596
 11
91.416
 21
130.598
  0
LINE
  8
0
 10
91.416
 20
130.598
 11
91.4717
 21
130.6
  0
LINE
  8
0
 10
91.4717
 20
130.6
 11
91.5283
 21
130.6
  0
LINE
  8
0
 10
91.5283
 20
130.6
 11
91.584
 21
130.598
  0
LINE
  8
0
 10
91.584
 20
130.598
 11
91.6113
 21
130.596
  0
LINE
  8
0
 10
91.6113
 20
130.596
 11
91.6396
 21
130.594
  0
LINE
  8
0
 10
91.6396
 20
130.594
 11
91.667
 21
130.591
  0
LINE
  8
0
 10
91.667
 20
130.591
 11
91.6953
 21
130.588
  0
LINE
  8
0
 10
91.6953
 20
130.588
 11
91.75
 21
130.58
  0
LINE
  8
0
 10
91.75
 20
130.58
 11
91.7783
 21
130.576
  0
LINE
  8
0
 10
91.7783
 20
130.576
 11
91.8057
 21
130.57
  0
LINE
  8
0
 10
91.8057
 20
130.57
 11
91.833
 21
130.565
  0
LINE
  8
0
 10
91.833
 20
130.565
 11
91.8604
 21
130.559
  0
LINE
  8
0
 10
91.8604
 20
130.559
 11
91.8867
 21
130.553
  0
LINE
  8
0
 10
91.8867
 20
130.553
 11
91.9141
 21
130.546
  0
LINE
  8
0
 10
91.9141
 20
130.546
 11
91.9414
 21
130.538
  0
LINE
  8
0
 10
91.9414
 20
130.538
 11
91.9678
 21
130.53
  0
LINE
  8
0
 10
91.9678
 20
130.53
 11
92.0469
 21
130.504
  0
LINE
  8
0
 10
92.0469
 20
130.504
 11
92.0732
 21
130.494
  0
LINE
  8
0
 10
92.0732
 20
130.494
 11
92.0996
 21
130.483
  0
LINE
  8
0
 10
92.0996
 20
130.483
 11
92.1504
 21
130.462
  0
LINE
  8
0
 10
92.1504
 20
130.462
 11
92.2012
 21
130.438
  0
LINE
  8
0
 10
92.2012
 20
130.438
 11
92.2266
 21
130.426
  0
LINE
  8
0
 10
92.2266
 20
130.426
 11
92.251
 21
130.413
  0
LINE
  8
0
 10
92.251
 20
130.413
 11
92.2998
 21
130.386
  0
LINE
  8
0
 10
92.2998
 20
130.386
 11
92.3242
 21
130.371
  0
LINE
  8
0
 10
92.3242
 20
130.371
 11
92.3711
 21
130.342
  0
LINE
  8
0
 10
92.3711
 20
130.342
 11
92.418
 21
130.311
  0
LINE
  8
0
 10
92.418
 20
130.311
 11
92.4854
 21
130.261
  0
LINE
  8
0
 10
92.4854
 20
130.261
 11
92.5498
 21
130.208
  0
LINE
  8
0
 10
92.5498
 20
130.208
 11
92.5703
 21
130.189
  0
LINE
  8
0
 10
92.5703
 20
130.189
 11
92.5908
 21
130.17
  0
LINE
  8
0
 10
92.5908
 20
130.17
 11
92.6113
 21
130.151
  0
LINE
  8
0
 10
92.6113
 20
130.151
 11
92.6318
 21
130.132
  0
LINE
  8
0
 10
92.6318
 20
130.132
 11
92.6514
 21
130.111
  0
LINE
  8
0
 10
92.6514
 20
130.111
 11
92.6699
 21
130.091
  0
LINE
  8
0
 10
92.6699
 20
130.091
 11
92.6895
 21
130.07
  0
LINE
  8
0
 10
92.6895
 20
130.07
 11
92.708
 21
130.05
  0
LINE
  8
0
 10
92.708
 20
130.05
 11
92.7607
 21
129.985
  0
LINE
  8
0
 10
92.7607
 20
129.985
 11
92.8105
 21
129.918
  0
LINE
  8
0
 10
92.8105
 20
129.918
 11
92.8418
 21
129.871
  0
LINE
  8
0
 10
92.8418
 20
129.871
 11
92.8711
 21
129.824
  0
LINE
  8
0
 10
92.8711
 20
129.824
 11
92.8857
 21
129.8
  0
LINE
  8
0
 10
92.8857
 20
129.8
 11
92.9131
 21
129.751
  0
LINE
  8
0
 10
92.9131
 20
129.751
 11
92.9258
 21
129.727
  0
LINE
  8
0
 10
92.9258
 20
129.727
 11
92.9385
 21
129.701
  0
LINE
  8
0
 10
92.9385
 20
129.701
 11
92.9619
 21
129.65
  0
LINE
  8
0
 10
92.9619
 20
129.65
 11
92.9834
 21
129.6
  0
LINE
  8
0
 10
92.9834
 20
129.6
 11
92.9941
 21
129.573
  0
LINE
  8
0
 10
92.9941
 20
129.573
 11
93.0039
 21
129.547
  0
LINE
  8
0
 10
93.0039
 20
129.547
 11
93.0303
 21
129.468
  0
LINE
  8
0
 10
93.0303
 20
129.468
 11
93.0381
 21
129.441
  0
LINE
  8
0
 10
93.0381
 20
129.441
 11
93.0459
 21
129.414
  0
LINE
  8
0
 10
93.0459
 20
129.414
 11
93.0527
 21
129.387
  0
LINE
  8
0
 10
93.0527
 20
129.387
 11
93.0586
 21
129.36
  0
LINE
  8
0
 10
93.0586
 20
129.36
 11
93.0654
 21
129.333
  0
LINE
  8
0
 10
93.0654
 20
129.333
 11
93.0703
 21
129.306
  0
LINE
  8
0
 10
93.0703
 20
129.306
 11
93.0762
 21
129.278
  0
LINE
  8
0
 10
93.0762
 20
129.278
 11
93.0801
 21
129.25
  0
LINE
  8
0
 10
93.0801
 20
129.25
 11
93.0879
 21
129.195
  0
LINE
  8
0
 10
93.0879
 20
129.195
 11
93.0908
 21
129.167
  0
LINE
  8
0
 10
93.0908
 20
129.167
 11
93.0938
 21
129.14
  0
LINE
  8
0
 10
93.0938
 20
129.14
 11
93.0957
 21
129.111
  0
LINE
  8
0
 10
93.0957
 20
129.111
 11
93.0977
 21
129.084
  0
LINE
  8
0
 10
93.0977
 20
129.084
 11
93.0996
 21
129.028
  0
LINE
  8
0
 10
93.0996
 20
129.028
 11
93.0996
 21
128.972
  0
LINE
  8
0
 10
93.0996
 20
128.972
 11
93.0977
 21
128.916
  0
LINE
  8
0
 10
93.0977
 20
128.916
 11
93.0957
 21
128.889
  0
LINE
  8
0
 10
93.0957
 20
128.889
 11
93.0938
 21
128.86
  0
LINE
  8
0
 10
93.0938
 20
128.86
 11
93.0908
 21
128.833
  0
LINE
  8
0
 10
93.0908
 20
128.833
 11
93.0879
 21
128.805
  0
LINE
  8
0
 10
93.0879
 20
128.805
 11
93.0801
 21
128.75
  0
LINE
  8
0
 10
93.0801
 20
128.75
 11
93.0762
 21
128.722
  0
LINE
  8
0
 10
93.0762
 20
128.722
 11
93.0703
 21
128.694
  0
LINE
  8
0
 10
93.0703
 20
128.694
 11
93.0654
 21
128.667
  0
LINE
  8
0
 10
93.0654
 20
128.667
 11
93.0586
 21
128.64
  0
LINE
  8
0
 10
93.0586
 20
128.64
 11
93.0527
 21
128.613
  0
LINE
  8
0
 10
93.0527
 20
128.613
 11
93.0459
 21
128.586
  0
LINE
  8
0
 10
93.0459
 20
128.586
 11
93.0381
 21
128.559
  0
LINE
  8
0
 10
93.0381
 20
128.559
 11
93.0303
 21
128.532
  0
LINE
  8
0
 10
93.0303
 20
128.532
 11
93.0039
 21
128.453
  0
LINE
  8
0
 10
93.0039
 20
128.453
 11
92.9941
 21
128.427
  0
LINE
  8
0
 10
92.9941
 20
128.427
 11
92.9834
 21
128.4
  0
LINE
  8
0
 10
92.9834
 20
128.4
 11
92.9619
 21
128.35
  0
LINE
  8
0
 10
92.9619
 20
128.35
 11
92.9385
 21
128.299
  0
LINE
  8
0
 10
92.9385
 20
128.299
 11
92.9258
 21
128.273
  0
LINE
  8
0
 10
92.9258
 20
128.273
 11
92.9131
 21
128.249
  0
LINE
  8
0
 10
92.9131
 20
128.249
 11
92.8857
 21
128.2
  0
LINE
  8
0
 10
92.8857
 20
128.2
 11
92.8711
 21
128.176
  0
LINE
  8
0
 10
92.8711
 20
128.176
 11
92.8418
 21
128.129
  0
LINE
  8
0
 10
92.8418
 20
128.129
 11
92.8105
 21
128.082
  0
LINE
  8
0
 10
92.8105
 20
128.082
 11
92.7607
 21
128.015
  0
LINE
  8
0
 10
92.7607
 20
128.015
 11
92.708
 21
127.95
  0
LINE
  8
0
 10
92.708
 20
127.95
 11
92.6895
 21
127.93
  0
LINE
  8
0
 10
92.6895
 20
127.93
 11
92.6699
 21
127.909
  0
LINE
  8
0
 10
92.6699
 20
127.909
 11
92.6514
 21
127.889
  0
LINE
  8
0
 10
92.6514
 20
127.889
 11
92.6318
 21
127.868
  0
LINE
  8
0
 10
92.6318
 20
127.868
 11
92.6113
 21
127.849
  0
LINE
  8
0
 10
92.6113
 20
127.849
 11
92.5908
 21
127.83
  0
LINE
  8
0
 10
92.5908
 20
127.83
 11
92.5703
 21
127.811
  0
LINE
  8
0
 10
92.5703
 20
127.811
 11
92.5498
 21
127.792
  0
LINE
  8
0
 10
92.5498
 20
127.792
 11
92.4854
 21
127.739
  0
LINE
  8
0
 10
92.4854
 20
127.739
 11
92.418
 21
127.689
  0
LINE
  8
0
 10
92.418
 20
127.689
 11
92.3711
 21
127.658
  0
LINE
  8
0
 10
92.3711
 20
127.658
 11
92.3242
 21
127.629
  0
LINE
  8
0
 10
92.3242
 20
127.629
 11
92.2998
 21
127.614
  0
LINE
  8
0
 10
92.2998
 20
127.614
 11
92.251
 21
127.587
  0
LINE
  8
0
 10
92.251
 20
127.587
 11
92.2266
 21
127.574
  0
LINE
  8
0
 10
92.2266
 20
127.574
 11
92.2012
 21
127.562
  0
LINE
  8
0
 10
92.2012
 20
127.562
 11
92.1504
 21
127.538
  0
LINE
  8
0
 10
92.1504
 20
127.538
 11
92.0996
 21
127.517
  0
LINE
  8
0
 10
92.0996
 20
127.517
 11
92.0732
 21
127.506
  0
LINE
  8
0
 10
92.0732
 20
127.506
 11
92.0469
 21
127.496
  0
LINE
  8
0
 10
92.0469
 20
127.496
 11
91.9678
 21
127.47
  0
LINE
  8
0
 10
91.9678
 20
127.47
 11
91.9414
 21
127.462
  0
LINE
  8
0
 10
91.9414
 20
127.462
 11
91.9141
 21
127.454
  0
LINE
  8
0
 10
91.9141
 20
127.454
 11
91.8867
 21
127.447
  0
LINE
  8
0
 10
91.8867
 20
127.447
 11
91.8604
 21
127.441
  0
LINE
  8
0
 10
91.8604
 20
127.441
 11
91.833
 21
127.435
  0
LINE
  8
0
 10
91.833
 20
127.435
 11
91.8057
 21
127.43
  0
LINE
  8
0
 10
91.8057
 20
127.43
 11
91.7783
 21
127.424
  0
LINE
  8
0
 10
91.7783
 20
127.424
 11
91.75
 21
127.42
  0
LINE
  8
0
 10
91.75
 20
127.42
 11
91.6953
 21
127.412
  0
LINE
  8
0
 10
91.6953
 20
127.412
 11
91.667
 21
127.409
  0
LINE
  8
0
 10
91.667
 20
127.409
 11
91.6396
 21
127.406
  0
LINE
  8
0
 10
91.6396
 20
127.406
 11
91.6113
 21
127.404
  0
LINE
  8
0
 10
91.6113
 20
127.404
 11
91.584
 21
127.402
  0
LINE
  8
0
 10
91.584
 20
127.402
 11
91.5283
 21
127.4
  0
LINE
  8
0
 10
91.5283
 20
127.4
 11
91.4717
 21
127.4
  0
LINE
  8
0
 10
26.5
 20
66
 11
26.5
 21
100
  0
LINE
  8
0
 10
26.5
 20
100
 11
68.5
 21
100
  0
LINE
  8
0
 10
68.5
 20
100
 11
68.5
 21
66
  0
LINE
  8
0
 10
68.5
 20
66
 11
26.5
 21
66
  0
LINE
  8
0
 10
8.97168
 20
74.9004
 11
8.91602
 21
74.9023
  0
LINE
  8
0
 10
8.91602
 20
74.9023
 11
8.88867
 21
74.9043
  0
LINE
  8
0
 10
8.88867
 20
74.9043
 11
8.86035
 21
74.9062
  0
LINE
  8
0
 10
8.86035
 20
74.9062
 11
8.83301
 21
74.9092
  0
LINE
  8
0
 10
8.83301
 20
74.9092
 11
8.80469
 21
74.9121
  0
LINE
  8
0
 10
8.80469
 20
74.9121
 11
8.75
 21
74.9199
  0
LINE
  8
0
 10
8.75
 20
74.9199
 11
8.72168
 21
74.9238
  0
LINE
  8
0
 10
8.72168
 20
74.9238
 11
8.69434
 21
74.9297
  0
LINE
  8
0
 10
8.69434
 20
74.9297
 11
8.66699
 21
74.9346
  0
LINE
  8
0
 10
8.66699
 20
74.9346
 11
8.63965
 21
74.9414
  0
LINE
  8
0
 10
8.63965
 20
74.9414
 11
8.61328
 21
74.9473
  0
LINE
  8
0
 10
8.61328
 20
74.9473
 11
8.58594
 21
74.9541
  0
LINE
  8
0
 10
8.58594
 20
74.9541
 11
8.55859
 21
74.9619
  0
LINE
  8
0
 10
8.55859
 20
74.9619
 11
8.53223
 21
74.9697
  0
LINE
  8
0
 10
8.53223
 20
74.9697
 11
8.45312
 21
74.9961
  0
LINE
  8
0
 10
8.45312
 20
74.9961
 11
8.42676
 21
75.0059
  0
LINE
  8
0
 10
8.42676
 20
75.0059
 11
8.40039
 21
75.0166
  0
LINE
  8
0
 10
8.40039
 20
75.0166
 11
8.34961
 21
75.0381
  0
LINE
  8
0
 10
8.34961
 20
75.0381
 11
8.29883
 21
75.0615
  0
LINE
  8
0
 10
8.29883
 20
75.0615
 11
8.27344
 21
75.0742
  0
LINE
  8
0
 10
8.27344
 20
75.0742
 11
8.24902
 21
75.0869
  0
LINE
  8
0
 10
8.24902
 20
75.0869
 11
8.2002
 21
75.1143
  0
LINE
  8
0
 10
8.2002
 20
75.1143
 11
8.17578
 21
75.1289
  0
LINE
  8
0
 10
8.17578
 20
75.1289
 11
8.12891
 21
75.1582
  0
LINE
  8
0
 10
8.12891
 20
75.1582
 11
8.08203
 21
75.1895
  0
LINE
  8
0
 10
8.08203
 20
75.1895
 11
8.01465
 21
75.2393
  0
LINE
  8
0
 10
8.01465
 20
75.2393
 11
7.9502
 21
75.292
  0
LINE
  8
0
 10
7.9502
 20
75.292
 11
7.92969
 21
75.3105
  0
LINE
  8
0
 10
7.92969
 20
75.3105
 11
7.90918
 21
75.3301
  0
LINE
  8
0
 10
7.90918
 20
75.3301
 11
7.88867
 21
75.3486
  0
LINE
  8
0
 10
7.88867
 20
75.3486
 11
7.86816
 21
75.3682
  0
LINE
  8
0
 10
7.86816
 20
75.3682
 11
7.84863
 21
75.3887
  0
LINE
  8
0
 10
7.84863
 20
75.3887
 11
7.83008
 21
75.4092
  0
LINE
  8
0
 10
7.83008
 20
75.4092
 11
7.81055
 21
75.4297
  0
LINE
  8
0
 10
7.81055
 20
75.4297
 11
7.79199
 21
75.4502
  0
LINE
  8
0
 10
7.79199
 20
75.4502
 11
7.73926
 21
75.5146
  0
LINE
  8
0
 10
7.73926
 20
75.5146
 11
7.68945
 21
75.582
  0
LINE
  8
0
 10
7.68945
 20
75.582
 11
7.6582
 21
75.6289
  0
LINE
  8
0
 10
7.6582
 20
75.6289
 11
7.62891
 21
75.6758
  0
LINE
  8
0
 10
7.62891
 20
75.6758
 11
7.61426
 21
75.7002
  0
LINE
  8
0
 10
7.61426
 20
75.7002
 11
7.58691
 21
75.749
  0
LINE
  8
0
 10
7.58691
 20
75.749
 11
7.57422
 21
75.7734
  0
LINE
  8
0
 10
7.57422
 20
75.7734
 11
7.56152
 21
75.7988
  0
LINE
  8
0
 10
7.56152
 20
75.7988
 11
7.53809
 21
75.8496
  0
LINE
  8
0
 10
7.53809
 20
75.8496
 11
7.5166
 21
75.9004
  0
LINE
  8
0
 10
7.5166
 20
75.9004
 11
7.50586
 21
75.9268
  0
LINE
  8
0
 10
7.50586
 20
75.9268
 11
7.49609
 21
75.9531
  0
LINE
  8
0
 10
7.49609
 20
75.9531
 11
7.46973
 21
76.0322
  0
LINE
  8
0
 10
7.46973
 20
76.0322
 11
7.46191
 21
76.0586
  0
LINE
  8
0
 10
7.46191
 20
76.0586
 11
7.4541
 21
76.0859
  0
LINE
  8
0
 10
7.4541
 20
76.0859
 11
7.44727
 21
76.1133
  0
LINE
  8
0
 10
7.44727
 20
76.1133
 11
7.44141
 21
76.1396
  0
LINE
  8
0
 10
7.44141
 20
76.1396
 11
7.43457
 21
76.167
  0
LINE
  8
0
 10
7.43457
 20
76.167
 11
7.42969
 21
76.1943
  0
LINE
  8
0
 10
7.42969
 20
76.1943
 11
7.42383
 21
76.2217
  0
LINE
  8
0
 10
7.42383
 20
76.2217
 11
7.41992
 21
76.25
  0
LINE
  8
0
 10
7.41992
 20
76.25
 11
7.41211
 21
76.3047
  0
LINE
  8
0
 10
7.41211
 20
76.3047
 11
7.40918
 21
76.333
  0
LINE
  8
0
 10
7.40918
 20
76.333
 11
7.40625
 21
76.3604
  0
LINE
  8
0
 10
7.40625
 20
76.3604
 11
7.4043
 21
76.3887
  0
LINE
  8
0
 10
7.4043
 20
76.3887
 11
7.40234
 21
76.416
  0
LINE
  8
0
 10
7.40234
 20
76.416
 11
7.40039
 21
76.4717
  0
LINE
  8
0
 10
7.40039
 20
76.4717
 11
7.40039
 21
76.5283
  0
LINE
  8
0
 10
7.40039
 20
76.5283
 11
7.40234
 21
76.584
  0
LINE
  8
0
 10
7.40234
 20
76.584
 11
7.4043
 21
76.6113
  0
LINE
  8
0
 10
7.4043
 20
76.6113
 11
7.40625
 21
76.6396
  0
LINE
  8
0
 10
7.40625
 20
76.6396
 11
7.40918
 21
76.667
  0
LINE
  8
0
 10
7.40918
 20
76.667
 11
7.41211
 21
76.6953
  0
LINE
  8
0
 10
7.41211
 20
76.6953
 11
7.41992
 21
76.75
  0
LINE
  8
0
 10
7.41992
 20
76.75
 11
7.42383
 21
76.7783
  0
LINE
  8
0
 10
7.42383
 20
76.7783
 11
7.42969
 21
76.8057
  0
LINE
  8
0
 10
7.42969
 20
76.8057
 11
7.43457
 21
76.833
  0
LINE
  8
0
 10
7.43457
 20
76.833
 11
7.44141
 21
76.8604
  0
LINE
  8
0
 10
7.44141
 20
76.8604
 11
7.44727
 21
76.8867
  0
LINE
  8
0
 10
7.44727
 20
76.8867
 11
7.4541
 21
76.9141
  0
LINE
  8
0
 10
7.4541
 20
76.9141
 11
7.46191
 21
76.9414
  0
LINE
  8
0
 10
7.46191
 20
76.9414
 11
7.46973
 21
76.9678
  0
LINE
  8
0
 10
7.46973
 20
76.9678
 11
7.49609
 21
77.0469
  0
LINE
  8
0
 10
7.49609
 20
77.0469
 11
7.50586
 21
77.0732
  0
LINE
  8
0
 10
7.50586
 20
77.0732
 11
7.5166
 21
77.0996
  0
LINE
  8
0
 10
7.5166
 20
77.0996
 11
7.53809
 21
77.1504
  0
LINE
  8
0
 10
7.53809
 20
77.1504
 11
7.56152
 21
77.2012
  0
LINE
  8
0
 10
7.56152
 20
77.2012
 11
7.57422
 21
77.2266
  0
LINE
  8
0
 10
7.57422
 20
77.2266
 11
7.58691
 21
77.251
  0
LINE
  8
0
 10
7.58691
 20
77.251
 11
7.61426
 21
77.2998
  0
LINE
  8
0
 10
7.61426
 20
77.2998
 11
7.62891
 21
77.3242
  0
LINE
  8
0
 10
7.62891
 20
77.3242
 11
7.6582
 21
77.3711
  0
LINE
  8
0
 10
7.6582
 20
77.3711
 11
7.68945
 21
77.418
  0
LINE
  8
0
 10
7.68945
 20
77.418
 11
7.73926
 21
77.4854
  0
LINE
  8
0
 10
7.73926
 20
77.4854
 11
7.79199
 21
77.5498
  0
LINE
  8
0
 10
7.79199
 20
77.5498
 11
7.81055
 21
77.5703
  0
LINE
  8
0
 10
7.81055
 20
77.5703
 11
7.83008
 21
77.5908
  0
LINE
  8
0
 10
7.83008
 20
77.5908
 11
7.84863
 21
77.6113
  0
LINE
  8
0
 10
7.84863
 20
77.6113
 11
7.86816
 21
77.6318
  0
LINE
  8
0
 10
7.86816
 20
77.6318
 11
7.88867
 21
77.6514
  0
LINE
  8
0
 10
7.88867
 20
77.6514
 11
7.90918
 21
77.6699
  0
LINE
  8
0
 10
7.90918
 20
77.6699
 11
7.92969
 21
77.6895
  0
LINE
  8
0
 10
7.92969
 20
77.6895
 11
7.9502
 21
77.708
  0
LINE
  8
0
 10
7.9502
 20
77.708
 11
8.01465
 21
77.7607
  0
LINE
  8
0
 10
8.01465
 20
77.7607
 11
8.08203
 21
77.8105
  0
LINE
  8
0
 10
8.08203
 20
77.8105
 11
8.12891
 21
77.8418
  0
LINE
  8
0
 10
8.12891
 20
77.8418
 11
8.17578
 21
77.8711
  0
LINE
  8
0
 10
8.17578
 20
77.8711
 11
8.2002
 21
77.8857
  0
LINE
  8
0
 10
8.2002
 20
77.8857
 11
8.24902
 21
77.9131
  0
LINE
  8
0
 10
8.24902
 20
77.9131
 11
8.27344
 21
77.9258
  0
LINE
  8
0
 10
8.27344
 20
77.9258
 11
8.29883
 21
77.9385
  0
LINE
  8
0
 10
8.29883
 20
77.9385
 11
8.34961
 21
77.9619
  0
LINE
  8
0
 10
8.34961
 20
77.9619
 11
8.40039
 21
77.9834
  0
LINE
  8
0
 10
8.40039
 20
77.9834
 11
8.42676
 21
77.9941
  0
LINE
  8
0
 10
8.42676
 20
77.9941
 11
8.45312
 21
78.0039
  0
LINE
  8
0
 10
8.45312
 20
78.0039
 11
8.53223
 21
78.0303
  0
LINE
  8
0
 10
8.53223
 20
78.0303
 11
8.55859
 21
78.0381
  0
LINE
  8
0
 10
8.55859
 20
78.0381
 11
8.58594
 21
78.0459
  0
LINE
  8
0
 10
8.58594
 20
78.0459
 11
8.61328
 21
78.0527
  0
LINE
  8
0
 10
8.61328
 20
78.0527
 11
8.63965
 21
78.0586
  0
LINE
  8
0
 10
8.63965
 20
78.0586
 11
8.66699
 21
78.0654
  0
LINE
  8
0
 10
8.66699
 20
78.0654
 11
8.69434
 21
78.0703
  0
LINE
  8
0
 10
8.69434
 20
78.0703
 11
8.72168
 21
78.0762
  0
LINE
  8
0
 10
8.72168
 20
78.0762
 11
8.75
 21
78.0801
  0
LINE
  8
0
 10
8.75
 20
78.0801
 11
8.80469
 21
78.0879
  0
LINE
  8
0
 10
8.80469
 20
78.0879
 11
8.83301
 21
78.0908
  0
LINE
  8
0
 10
8.83301
 20
78.0908
 11
8.86035
 21
78.0938
  0
LINE
  8
0
 10
8.86035
 20
78.0938
 11
8.88867
 21
78.0957
  0
LINE
  8
0
 10
8.88867
 20
78.0957
 11
8.91602
 21
78.0977
  0
LINE
  8
0
 10
8.91602
 20
78.0977
 11
8.97168
 21
78.0996
  0
LINE
  8
0
 10
8.97168
 20
78.0996
 11
9.02832
 21
78.0996
  0
LINE
  8
0
 10
9.02832
 20
78.0996
 11
9.08398
 21
78.0977
  0
LINE
  8
0
 10
9.08398
 20
78.0977
 11
9.11133
 21
78.0957
  0
LINE
  8
0
 10
9.11133
 20
78.0957
 11
9.13965
 21
78.0938
  0
LINE
  8
0
 10
9.13965
 20
78.0938
 11
9.16699
 21
78.0908
  0
LINE
  8
0
 10
9.16699
 20
78.0908
 11
9.19531
 21
78.0879
  0
LINE
  8
0
 10
9.19531
 20
78.0879
 11
9.25
 21
78.0801
  0
LINE
  8
0
 10
9.25
 20
78.0801
 11
9.27832
 21
78.0762
  0
LINE
  8
0
 10
9.27832
 20
78.0762
 11
9.30566
 21
78.0703
  0
LINE
  8
0
 10
9.30566
 20
78.0703
 11
9.33301
 21
78.0654
  0
LINE
  8
0
 10
9.33301
 20
78.0654
 11
9.36035
 21
78.0586
  0
LINE
  8
0
 10
9.36035
 20
78.0586
 11
9.38672
 21
78.0527
  0
LINE
  8
0
 10
9.38672
 20
78.0527
 11
9.41406
 21
78.0459
  0
LINE
  8
0
 10
9.41406
 20
78.0459
 11
9.44141
 21
78.0381
  0
LINE
  8
0
 10
9.44141
 20
78.0381
 11
9.46777
 21
78.0303
  0
LINE
  8
0
 10
9.46777
 20
78.0303
 11
9.54688
 21
78.0039
  0
LINE
  8
0
 10
9.54688
 20
78.0039
 11
9.57324
 21
77.9941
  0
LINE
  8
0
 10
9.57324
 20
77.9941
 11
9.59961
 21
77.9834
  0
LINE
  8
0
 10
9.59961
 20
77.9834
 11
9.65039
 21
77.9619
  0
LINE
  8
0
 10
9.65039
 20
77.9619
 11
9.70117
 21
77.9385
  0
LINE
  8
0
 10
9.70117
 20
77.9385
 11
9.72656
 21
77.9258
  0
LINE
  8
0
 10
9.72656
 20
77.9258
 11
9.75098
 21
77.9131
  0
LINE
  8
0
 10
9.75098
 20
77.9131
 11
9.7998
 21
77.8857
  0
LINE
  8
0
 10
9.7998
 20
77.8857
 11
9.82422
 21
77.8711
  0
LINE
  8
0
 10
9.82422
 20
77.8711
 11
9.87109
 21
77.8418
  0
LINE
  8
0
 10
9.87109
 20
77.8418
 11
9.91797
 21
77.8105
  0
LINE
  8
0
 10
9.91797
 20
77.8105
 11
9.98535
 21
77.7607
  0
LINE
  8
0
 10
9.98535
 20
77.7607
 11
10.0498
 21
77.708
  0
LINE
  8
0
 10
10.0498
 20
77.708
 11
10.0703
 21
77.6895
  0
LINE
  8
0
 10
10.0703
 20
77.6895
 11
10.0908
 21
77.6699
  0
LINE
  8
0
 10
10.0908
 20
77.6699
 11
10.1113
 21
77.6514
  0
LINE
  8
0
 10
10.1113
 20
77.6514
 11
10.1318
 21
77.6318
  0
LINE
  8
0
 10
10.1318
 20
77.6318
 11
10.1514
 21
77.6113
  0
LINE
  8
0
 10
10.1514
 20
77.6113
 11
10.1699
 21
77.5908
  0
LINE
  8
0
 10
10.1699
 20
77.5908
 11
10.1895
 21
77.5703
  0
LINE
  8
0
 10
10.1895
 20
77.5703
 11
10.208
 21
77.5498
  0
LINE
  8
0
 10
10.208
 20
77.5498
 11
10.2607
 21
77.4854
  0
LINE
  8
0
 10
10.2607
 20
77.4854
 11
10.3105
 21
77.418
  0
LINE
  8
0
 10
10.3105
 20
77.418
 11
10.3418
 21
77.3711
  0
LINE
  8
0
 10
10.3418
 20
77.3711
 11
10.3711
 21
77.3242
  0
LINE
  8
0
 10
10.3711
 20
77.3242
 11
10.3857
 21
77.2998
  0
LINE
  8
0
 10
10.3857
 20
77.2998
 11
10.4131
 21
77.251
  0
LINE
  8
0
 10
10.4131
 20
77.251
 11
10.4258
 21
77.2266
  0
LINE
  8
0
 10
10.4258
 20
77.2266
 11
10.4385
 21
77.2012
  0
LINE
  8
0
 10
10.4385
 20
77.2012
 11
10.4619
 21
77.1504
  0
LINE
  8
0
 10
10.4619
 20
77.1504
 11
10.4834
 21
77.0996
  0
LINE
  8
0
 10
10.4834
 20
77.0996
 11
10.4941
 21
77.0732
  0
LINE
  8
0
 10
10.4941
 20
77.0732
 11
10.5039
 21
77.0469
  0
LINE
  8
0
 10
10.5039
 20
77.0469
 11
10.5303
 21
76.9678
  0
LINE
  8
0
 10
10.5303
 20
76.9678
 11
10.5381
 21
76.9414
  0
LINE
  8
0
 10
10.5381
 20
76.9414
 11
10.5459
 21
76.9141
  0
LINE
  8
0
 10
10.5459
 20
76.9141
 11
10.5527
 21
76.8867
  0
LINE
  8
0
 10
10.5527
 20
76.8867
 11
10.5586
 21
76.8604
  0
LINE
  8
0
 10
10.5586
 20
76.8604
 11
10.5654
 21
76.833
  0
LINE
  8
0
 10
10.5654
 20
76.833
 11
10.5703
 21
76.8057
  0
LINE
  8
0
 10
10.5703
 20
76.8057
 11
10.5762
 21
76.7783
  0
LINE
  8
0
 10
10.5762
 20
76.7783
 11
10.5801
 21
76.75
  0
LINE
  8
0
 10
10.5801
 20
76.75
 11
10.5879
 21
76.6953
  0
LINE
  8
0
 10
10.5879
 20
76.6953
 11
10.5908
 21
76.667
  0
LINE
  8
0
 10
10.5908
 20
76.667
 11
10.5938
 21
76.6396
  0
LINE
  8
0
 10
10.5938
 20
76.6396
 11
10.5957
 21
76.6113
  0
LINE
  8
0
 10
10.5957
 20
76.6113
 11
10.5977
 21
76.584
  0
LINE
  8
0
 10
10.5977
 20
76.584
 11
10.5996
 21
76.5283
  0
LINE
  8
0
 10
10.5996
 20
76.5283
 11
10.5996
 21
76.4717
  0
LINE
  8
0
 10
10.5996
 20
76.4717
 11
10.5977
 21
76.416
  0
LINE
  8
0
 10
10.5977
 20
76.416
 11
10.5957
 21
76.3887
  0
LINE
  8
0
 10
10.5957
 20
76.3887
 11
10.5938
 21
76.3604
  0
LINE
  8
0
 10
10.5938
 20
76.3604
 11
10.5908
 21
76.333
  0
LINE
  8
0
 10
10.5908
 20
76.333
 11
10.5879
 21
76.3047
  0
LINE
  8
0
 10
10.5879
 20
76.3047
 11
10.5801
 21
76.25
  0
LINE
  8
0
 10
10.5801
 20
76.25
 11
10.5762
 21
76.2217
  0
LINE
  8
0
 10
10.5762
 20
76.2217
 11
10.5703
 21
76.1943
  0
LINE
  8
0
 10
10.5703
 20
76.1943
 11
10.5654
 21
76.167
  0
LINE
  8
0
 10
10.5654
 20
76.167
 11
10.5586
 21
76.1396
  0
LINE
  8
0
 10
10.5586
 20
76.1396
 11
10.5527
 21
76.1133
  0
LINE
  8
0
 10
10.5527
 20
76.1133
 11
10.5459
 21
76.0859
  0
LINE
  8
0
 10
10.5459
 20
76.0859
 11
10.5381
 21
76.0586
  0
LINE
  8
0
 10
10.5381
 20
76.0586
 11
10.5303
 21
76.0322
  0
LINE
  8
0
 10
10.5303
 20
76.0322
 11
10.5039
 21
75.9531
  0
LINE
  8
0
 10
10.5039
 20
75.9531
 11
10.4941
 21
75.9268
  0
LINE
  8
0
 10
10.4941
 20
75.9268
 11
10.4834
 21
75.9004
  0
LINE
  8
0
 10
10.4834
 20
75.9004
 11
10.4619
 21
75.8496
  0
LINE
  8
0
 10
10.4619
 20
75.8496
 11
10.4385
 21
75.7988
  0
LINE
  8
0
 10
10.4385
 20
75.7988
 11
10.4258
 21
75.7734
  0
LINE
  8
0
 10
10.4258
 20
75.7734
 11
10.4131
 21
75.749
  0
LINE
  8
0
 10
10.4131
 20
75.749
 11
10.3857
 21
75.7002
  0
LINE
  8
0
 10
10.3857
 20
75.7002
 11
10.3711
 21
75.6758
  0
LINE
  8
0
 10
10.3711
 20
75.6758
 11
10.3418
 21
75.6289
  0
LINE
  8
0
 10
10.3418
 20
75.6289
 11
10.3105
 21
75.582
  0
LINE
  8
0
 10
10.3105
 20
75.582
 11
10.2607
 21
75.5146
  0
LINE
  8
0
 10
10.2607
 20
75.5146
 11
10.208
 21
75.4502
  0
LINE
  8
0
 10
10.208
 20
75.4502
 11
10.1895
 21
75.4297
  0
LINE
  8
0
 10
10.1895
 20
75.4297
 11
10.1699
 21
75.4092
  0
LINE
  8
0
 10
10.1699
 20
75.4092
 11
10.1514
 21
75.3887
  0
LINE
  8
0
 10
10.1514
 20
75.3887
 11
10.1318
 21
75.3682
  0
LINE
  8
0
 10
10.1318
 20
75.3682
 11
10.1113
 21
75.3486
  0
LINE
  8
0
 10
10.1113
 20
75.3486
 11
10.0908
 21
75.3301
  0
LINE
  8
0
 10
10.0908
 20
75.3301
 11
10.0703
 21
75.3105
  0
LINE
  8
0
 10
10.0703
 20
75.3105
 11
10.0498
 21
75.292
  0
LINE
  8
0
 10
10.0498
 20
75.292
 11
9.98535
 21
75.2393
  0
LINE
  8
0
 10
9.98535
 20
75.2393
 11
9.91797
 21
75.1895
  0
LINE
  8
0
 10
9.91797
 20
75.1895
 11
9.87109
 21
75.1582
  0
LINE
  8
0
 10
9.87109
 20
75.1582
 11
9.82422
 21
75.1289
  0
LINE
  8
0
 10
9.82422
 20
75.1289
 11
9.7998
 21
75.1143
  0
LINE
  8
0
 10
9.7998
 20
75.1143
 11
9.75098
 21
75.0869
  0
LINE
  8
0
 10
9.75098
 20
75.0869
 11
9.72656
 21
75.0742
  0
LINE
  8
0
 10
9.72656
 20
75.0742
 11
9.70117
 21
75.0615
  0
LINE
  8
0
 10
9.70117
 20
75.0615
 11
9.65039
 21
75.0381
  0
LINE
  8
0
 10
9.65039
 20
75.0381
 11
9.59961
 21
75.0166
  0
LINE
  8
0
 10
9.59961
 20
75.0166
 11
9.57324
 21
75.0059
  0
LINE
  8
0
 10
9.57324
 20
75.0059
 11
9.54688
 21
74.9961
  0
LINE
  8
0
 10
9.54688
 20
74.9961
 11
9.46777
 21
74.9697
  0
LINE
  8
0
 10
9.46777
 20
74.9697
 11
9.44141
 21
74.9619
  0
LINE
  8
0
 10
9.44141
 20
74.9619
 11
9.41406
 21
74.9541
  0
LINE
  8
0
 10
9.41406
 20
74.9541
 11
9.38672
 21
74.9473
  0
LINE
  8
0
 10
9.38672
 20
74.9473
 11
9.36035
 21
74.9414
  0
LINE
  8
0
 10
9.36035
 20
74.9414
 11
9.33301
 21
74.9346
  0
LINE
  8
0
 10
9.33301
 20
74.9346
 11
9.30566
 21
74.9297
  0
LINE
  8
0
 10
9.30566
 20
74.9297
 11
9.27832
 21
74.9238
  0
LINE
  8
0
 10
9.27832
 20
74.9238
 11
9.25
 21
74.9199
  0
LINE
  8
0
 10
9.25
 20
74.9199
 11
9.19531
 21
74.9121
  0
LINE
  8
0
 10
9.19531
 20
74.9121
 11
9.16699
 21
74.9092
  0
LINE
  8
0
 10
9.16699
 20
74.9092
 11
9.13965
 21
74.9062
  0
LINE
  8
0
 10
9.13965
 20
74.9062
 11
9.11133
 21
74.9043
  0
LINE
  8
0
 10
9.11133
 20
74.9043
 11
9.08398
 21
74.9023
  0
LINE
  8
0
 10
9.08398
 20
74.9023
 11
9.02832
 21
74.9004
  0
LINE
  8
0
 10
9.02832
 20
74.9004
 11
8.97168
 21
74.9004
  0
LINE
  8
0
 10
42.4111
 20
54.4521
 11
42.3662
 21
54.4541
  0
LINE
  8
0
 10
42.3662
 20
54.4541
 11
42.3223
 21
54.457
  0
LINE
  8
0
 10
42.3223
 20
54.457
 11
42.2773
 21
54.46
  0
LINE
  8
0
 10
42.2773
 20
54.46
 11
42.1895
 21
54.4697
  0
LINE
  8
0
 10
42.1895
 20
54.4697
 11
42.1016
 21
54.4814
  0
LINE
  8
0
 10
42.1016
 20
54.4814
 11
42.0137
 21
54.4971
  0
LINE
  8
0
 10
42.0137
 20
54.4971
 11
41.9697
 21
54.5059
  0
LINE
  8
0
 10
41.9697
 20
54.5059
 11
41.9268
 21
54.5156
  0
LINE
  8
0
 10
41.9268
 20
54.5156
 11
41.8828
 21
54.5264
  0
LINE
  8
0
 10
41.8828
 20
54.5264
 11
41.8398
 21
54.5371
  0
LINE
  8
0
 10
41.8398
 20
54.5371
 11
41.7969
 21
54.5488
  0
LINE
  8
0
 10
41.7969
 20
54.5488
 11
41.7549
 21
54.5615
  0
LINE
  8
0
 10
41.7549
 20
54.5615
 11
41.7119
 21
54.5752
  0
LINE
  8
0
 10
41.7119
 20
54.5752
 11
41.6279
 21
54.6045
  0
LINE
  8
0
 10
41.6279
 20
54.6045
 11
41.5859
 21
54.6201
  0
LINE
  8
0
 10
41.5859
 20
54.6201
 11
41.5449
 21
54.6357
  0
LINE
  8
0
 10
41.5449
 20
54.6357
 11
41.4629
 21
54.6709
  0
LINE
  8
0
 10
41.4629
 20
54.6709
 11
41.4229
 21
54.6895
  0
LINE
  8
0
 10
41.4229
 20
54.6895
 11
41.3428
 21
54.7285
  0
LINE
  8
0
 10
41.3428
 20
54.7285
 11
41.3027
 21
54.749
  0
LINE
  8
0
 10
41.3027
 20
54.749
 11
41.2637
 21
54.7705
  0
LINE
  8
0
 10
41.2637
 20
54.7705
 11
41.2256
 21
54.792
  0
LINE
  8
0
 10
41.2256
 20
54.792
 11
41.1865
 21
54.8145
  0
LINE
  8
0
 10
41.1865
 20
54.8145
 11
41.1494
 21
54.8379
  0
LINE
  8
0
 10
41.1494
 20
54.8379
 11
41.1113
 21
54.8613
  0
LINE
  8
0
 10
41.1113
 20
54.8613
 11
41.0742
 21
54.8867
  0
LINE
  8
0
 10
41.0742
 20
54.8867
 11
41.0381
 21
54.9111
  0
LINE
  8
0
 10
41.0381
 20
54.9111
 11
41.001
 21
54.9375
  0
LINE
  8
0
 10
41.001
 20
54.9375
 11
40.9658
 21
54.9639
  0
LINE
  8
0
 10
40.9658
 20
54.9639
 11
40.8955
 21
55.0186
  0
LINE
  8
0
 10
40.8955
 20
55.0186
 11
40.8613
 21
55.0469
  0
LINE
  8
0
 10
40.8613
 20
55.0469
 11
40.8271
 21
55.0762
  0
LINE
  8
0
 10
40.8271
 20
55.0762
 11
40.7939
 21
55.1055
  0
LINE
  8
0
 10
40.7939
 20
55.1055
 11
40.7617
 21
55.1357
  0
LINE
  8
0
 10
40.7617
 20
55.1357
 11
40.7285
 21
55.166
  0
LINE
  8
0
 10
40.7285
 20
55.166
 11
40.666
 21
55.2285
  0
LINE
  8
0
 10
40.666
 20
55.2285
 11
40.6357
 21
55.2617
  0
LINE
  8
0
 10
40.6357
 20
55.2617
 11
40.6055
 21
55.2939
  0
LINE
  8
0
 10
40.6055
 20
55.2939
 11
40.5762
 21
55.3271
  0
LINE
  8
0
 10
40.5762
 20
55.3271
 11
40.5469
 21
55.3613
  0
LINE
  8
0
 10
40.5469
 20
55.3613
 11
40.5186
 21
55.3955
  0
LINE
  8
0
 10
40.5186
 20
55.3955
 11
40.4639
 21
55.4658
  0
LINE
  8
0
 10
40.4639
 20
55.4658
 11
40.4375
 21
55.501
  0
LINE
  8
0
 10
40.4375
 20
55.501
 11
40.4111
 21
55.5381
  0
LINE
  8
0
 10
40.4111
 20
55.5381
 11
40.3867
 21
55.5742
  0
LINE
  8
0
 10
40.3867
 20
55.5742
 11
40.3613
 21
55.6113
  0
LINE
  8
0
 10
40.3613
 20
55.6113
 11
40.3379
 21
55.6494
  0
LINE
  8
0
 10
40.3379
 20
55.6494
 11
40.3145
 21
55.6865
  0
LINE
  8
0
 10
40.3145
 20
55.6865
 11
40.292
 21
55.7256
  0
LINE
  8
0
 10
40.292
 20
55.7256
 11
40.2705
 21
55.7637
  0
LINE
  8
0
 10
40.2705
 20
55.7637
 11
40.249
 21
55.8027
  0
LINE
  8
0
 10
40.249
 20
55.8027
 11
40.2285
 21
55.8428
  0
LINE
  8
0
 10
40.2285
 20
55.8428
 11
40.1895
 21
55.9229
  0
LINE
  8
0
 10
40.1895
 20
55.9229
 11
40.1709
 21
55.9629
  0
LINE
  8
0
 10
40.1709
 20
55.9629
 11
40.1357
 21
56.0449
  0
LINE
  8
0
 10
40.1357
 20
56.0449
 11
40.1201
 21
56.0859
  0
LINE
  8
0
 10
40.1201
 20
56.0859
 11
40.1045
 21
56.1279
  0
LINE
  8
0
 10
40.1045
 20
56.1279
 11
40.0752
 21
56.2119
  0
LINE
  8
0
 10
40.0752
 20
56.2119
 11
40.0615
 21
56.2549
  0
LINE
  8
0
 10
40.0615
 20
56.2549
 11
40.0488
 21
56.2969
  0
LINE
  8
0
 10
40.0488
 20
56.2969
 11
40.0371
 21
56.3398
  0
LINE
  8
0
 10
40.0371
 20
56.3398
 11
40.0264
 21
56.3828
  0
LINE
  8
0
 10
40.0264
 20
56.3828
 11
40.0156
 21
56.4268
  0
LINE
  8
0
 10
40.0156
 20
56.4268
 11
40.0059
 21
56.4697
  0
LINE
  8
0
 10
40.0059
 20
56.4697
 11
39.9971
 21
56.5137
  0
LINE
  8
0
 10
39.9971
 20
56.5137
 11
39.9814
 21
56.6016
  0
LINE
  8
0
 10
39.9814
 20
56.6016
 11
39.9697
 21
56.6895
  0
LINE
  8
0
 10
39.9697
 20
56.6895
 11
39.96
 21
56.7773
  0
LINE
  8
0
 10
39.96
 20
56.7773
 11
39.957
 21
56.8223
  0
LINE
  8
0
 10
39.957
 20
56.8223
 11
39.9541
 21
56.8662
  0
LINE
  8
0
 10
39.9541
 20
56.8662
 11
39.9521
 21
56.9111
  0
LINE
  8
0
 10
39.9521
 20
56.9111
 11
39.9502
 21
57
  0
LINE
  8
0
 10
39.9502
 20
57
 11
39.9521
 21
57.0889
  0
LINE
  8
0
 10
39.9521
 20
57.0889
 11
39.9541
 21
57.1338
  0
LINE
  8
0
 10
39.9541
 20
57.1338
 11
39.957
 21
57.1777
  0
LINE
  8
0
 10
39.957
 20
57.1777
 11
39.96
 21
57.2227
  0
LINE
  8
0
 10
39.96
 20
57.2227
 11
39.9697
 21
57.3105
  0
LINE
  8
0
 10
39.9697
 20
57.3105
 11
39.9814
 21
57.3984
  0
LINE
  8
0
 10
39.9814
 20
57.3984
 11
39.9971
 21
57.4863
  0
LINE
  8
0
 10
39.9971
 20
57.4863
 11
40.0059
 21
57.5303
  0
LINE
  8
0
 10
40.0059
 20
57.5303
 11
40.0156
 21
57.5732
  0
LINE
  8
0
 10
40.0156
 20
57.5732
 11
40.0264
 21
57.6172
  0
LINE
  8
0
 10
40.0264
 20
57.6172
 11
40.0371
 21
57.6602
  0
LINE
  8
0
 10
40.0371
 20
57.6602
 11
40.0488
 21
57.7031
  0
LINE
  8
0
 10
40.0488
 20
57.7031
 11
40.0615
 21
57.7451
  0
LINE
  8
0
 10
40.0615
 20
57.7451
 11
40.0752
 21
57.7881
  0
LINE
  8
0
 10
40.0752
 20
57.7881
 11
40.1045
 21
57.8721
  0
LINE
  8
0
 10
40.1045
 20
57.8721
 11
40.1201
 21
57.9141
  0
LINE
  8
0
 10
40.1201
 20
57.9141
 11
40.1357
 21
57.9551
  0
LINE
  8
0
 10
40.1357
 20
57.9551
 11
40.1709
 21
58.0371
  0
LINE
  8
0
 10
40.1709
 20
58.0371
 11
40.1895
 21
58.0771
  0
LINE
  8
0
 10
40.1895
 20
58.0771
 11
40.2285
 21
58.1572
  0
LINE
  8
0
 10
40.2285
 20
58.1572
 11
40.249
 21
58.1973
  0
LINE
  8
0
 10
40.249
 20
58.1973
 11
40.2705
 21
58.2363
  0
LINE
  8
0
 10
40.2705
 20
58.2363
 11
40.292
 21
58.2744
  0
LINE
  8
0
 10
40.292
 20
58.2744
 11
40.3145
 21
58.3135
  0
LINE
  8
0
 10
40.3145
 20
58.3135
 11
40.3379
 21
58.3506
  0
LINE
  8
0
 10
40.3379
 20
58.3506
 11
40.3613
 21
58.3887
  0
LINE
  8
0
 10
40.3613
 20
58.3887
 11
40.3867
 21
58.4258
  0
LINE
  8
0
 10
40.3867
 20
58.4258
 11
40.4111
 21
58.4619
  0
LINE
  8
0
 10
40.4111
 20
58.4619
 11
40.4375
 21
58.499
  0
LINE
  8
0
 10
40.4375
 20
58.499
 11
40.4639
 21
58.5342
  0
LINE
  8
0
 10
40.4639
 20
58.5342
 11
40.5186
 21
58.6045
  0
LINE
  8
0
 10
40.5186
 20
58.6045
 11
40.5469
 21
58.6387
  0
LINE
  8
0
 10
40.5469
 20
58.6387
 11
40.5762
 21
58.6729
  0
LINE
  8
0
 10
40.5762
 20
58.6729
 11
40.6055
 21
58.7061
  0
LINE
  8
0
 10
40.6055
 20
58.7061
 11
40.6357
 21
58.7383
  0
LINE
  8
0
 10
40.6357
 20
58.7383
 11
40.666
 21
58.7715
  0
LINE
  8
0
 10
40.666
 20
58.7715
 11
40.7285
 21
58.834
  0
LINE
  8
0
 10
40.7285
 20
58.834
 11
40.7617
 21
58.8643
  0
LINE
  8
0
 10
40.7617
 20
58.8643
 11
40.7939
 21
58.8945
  0
LINE
  8
0
 10
40.7939
 20
58.8945
 11
40.8271
 21
58.9238
  0
LINE
  8
0
 10
40.8271
 20
58.9238
 11
40.8613
 21
58.9531
  0
LINE
  8
0
 10
40.8613
 20
58.9531
 11
40.8955
 21
58.9814
  0
LINE
  8
0
 10
40.8955
 20
58.9814
 11
40.9658
 21
59.0361
  0
LINE
  8
0
 10
40.9658
 20
59.0361
 11
41.001
 21
59.0625
  0
LINE
  8
0
 10
41.001
 20
59.0625
 11
41.0381
 21
59.0889
  0
LINE
  8
0
 10
41.0381
 20
59.0889
 11
41.0742
 21
59.1133
  0
LINE
  8
0
 10
41.0742
 20
59.1133
 11
41.1113
 21
59.1387
  0
LINE
  8
0
 10
41.1113
 20
59.1387
 11
41.1494
 21
59.1621
  0
LINE
  8
0
 10
41.1494
 20
59.1621
 11
41.1865
 21
59.1855
  0
LINE
  8
0
 10
41.1865
 20
59.1855
 11
41.2256
 21
59.208
  0
LINE
  8
0
 10
41.2256
 20
59.208
 11
41.2637
 21
59.2295
  0
LINE
  8
0
 10
41.2637
 20
59.2295
 11
41.3027
 21
59.251
  0
LINE
  8
0
 10
41.3027
 20
59.251
 11
41.3428
 21
59.2715
  0
LINE
  8
0
 10
41.3428
 20
59.2715
 11
41.4229
 21
59.3105
  0
LINE
  8
0
 10
41.4229
 20
59.3105
 11
41.4629
 21
59.3291
  0
LINE
  8
0
 10
41.4629
 20
59.3291
 11
41.5449
 21
59.3643
  0
LINE
  8
0
 10
41.5449
 20
59.3643
 11
41.5859
 21
59.3799
  0
LINE
  8
0
 10
41.5859
 20
59.3799
 11
41.6279
 21
59.3955
  0
LINE
  8
0
 10
41.6279
 20
59.3955
 11
41.7119
 21
59.4248
  0
LINE
  8
0
 10
41.7119
 20
59.4248
 11
41.7549
 21
59.4385
  0
LINE
  8
0
 10
41.7549
 20
59.4385
 11
41.7969
 21
59.4512
  0
LINE
  8
0
 10
41.7969
 20
59.4512
 11
41.8398
 21
59.4629
  0
LINE
  8
0
 10
41.8398
 20
59.4629
 11
41.8828
 21
59.4736
  0
LINE
  8
0
 10
41.8828
 20
59.4736
 11
41.9268
 21
59.4844
  0
LINE
  8
0
 10
41.9268
 20
59.4844
 11
41.9697
 21
59.4941
  0
LINE
  8
0
 10
41.9697
 20
59.4941
 11
42.0137
 21
59.5029
  0
LINE
  8
0
 10
42.0137
 20
59.5029
 11
42.1016
 21
59.5186
  0
LINE
  8
0
 10
42.1016
 20
59.5186
 11
42.1895
 21
59.5303
  0
LINE
  8
0
 10
42.1895
 20
59.5303
 11
42.2773
 21
59.54
  0
LINE
  8
0
 10
42.2773
 20
59.54
 11
42.3223
 21
59.543
  0
LINE
  8
0
 10
42.3223
 20
59.543
 11
42.3662
 21
59.5459
  0
LINE
  8
0
 10
42.3662
 20
59.5459
 11
42.4111
 21
59.5479
  0
LINE
  8
0
 10
42.4111
 20
59.5479
 11
42.5
 21
59.5498
  0
LINE
  8
0
 10
42.5
 20
59.5498
 11
42.5889
 21
59.5479
  0
LINE
  8
0
 10
42.5889
 20
59.5479
 11
42.6338
 21
59.5459
  0
LINE
  8
0
 10
42.6338
 20
59.5459
 11
42.6777
 21
59.543
  0
LINE
  8
0
 10
42.6777
 20
59.543
 11
42.7227
 21
59.54
  0
LINE
  8
0
 10
42.7227
 20
59.54
 11
42.8105
 21
59.5303
  0
LINE
  8
0
 10
42.8105
 20
59.5303
 11
42.8984
 21
59.5186
  0
LINE
  8
0
 10
42.8984
 20
59.5186
 11
42.9863
 21
59.5029
  0
LINE
  8
0
 10
42.9863
 20
59.5029
 11
43.0303
 21
59.4941
  0
LINE
  8
0
 10
43.0303
 20
59.4941
 11
43.0732
 21
59.4844
  0
LINE
  8
0
 10
43.0732
 20
59.4844
 11
43.1172
 21
59.4736
  0
LINE
  8
0
 10
43.1172
 20
59.4736
 11
43.1602
 21
59.4629
  0
LINE
  8
0
 10
43.1602
 20
59.4629
 11
43.2031
 21
59.4512
  0
LINE
  8
0
 10
43.2031
 20
59.4512
 11
43.2451
 21
59.4385
  0
LINE
  8
0
 10
43.2451
 20
59.4385
 11
43.2881
 21
59.4248
  0
LINE
  8
0
 10
43.2881
 20
59.4248
 11
43.3721
 21
59.3955
  0
LINE
  8
0
 10
43.3721
 20
59.3955
 11
43.4141
 21
59.3799
  0
LINE
  8
0
 10
43.4141
 20
59.3799
 11
43.4551
 21
59.3643
  0
LINE
  8
0
 10
43.4551
 20
59.3643
 11
43.5371
 21
59.3291
  0
LINE
  8
0
 10
43.5371
 20
59.3291
 11
43.5771
 21
59.3105
  0
LINE
  8
0
 10
43.5771
 20
59.3105
 11
43.6572
 21
59.2715
  0
LINE
  8
0
 10
43.6572
 20
59.2715
 11
43.6973
 21
59.251
  0
LINE
  8
0
 10
43.6973
 20
59.251
 11
43.7363
 21
59.2295
  0
LINE
  8
0
 10
43.7363
 20
59.2295
 11
43.7744
 21
59.208
  0
LINE
  8
0
 10
43.7744
 20
59.208
 11
43.8135
 21
59.1855
  0
LINE
  8
0
 10
43.8135
 20
59.1855
 11
43.8506
 21
59.1621
  0
LINE
  8
0
 10
43.8506
 20
59.1621
 11
43.8887
 21
59.1387
  0
LINE
  8
0
 10
43.8887
 20
59.1387
 11
43.9258
 21
59.1133
  0
LINE
  8
0
 10
43.9258
 20
59.1133
 11
43.9619
 21
59.0889
  0
LINE
  8
0
 10
43.9619
 20
59.0889
 11
43.999
 21
59.0625
  0
LINE
  8
0
 10
43.999
 20
59.0625
 11
44.0342
 21
59.0361
  0
LINE
  8
0
 10
44.0342
 20
59.0361
 11
44.1045
 21
58.9814
  0
LINE
  8
0
 10
44.1045
 20
58.9814
 11
44.1387
 21
58.9531
  0
LINE
  8
0
 10
44.1387
 20
58.9531
 11
44.1729
 21
58.9238
  0
LINE
  8
0
 10
44.1729
 20
58.9238
 11
44.2061
 21
58.8945
  0
LINE
  8
0
 10
44.2061
 20
58.8945
 11
44.2383
 21
58.8643
  0
LINE
  8
0
 10
44.2383
 20
58.8643
 11
44.2715
 21
58.834
  0
LINE
  8
0
 10
44.2715
 20
58.834
 11
44.334
 21
58.7715
  0
LINE
  8
0
 10
44.334
 20
58.7715
 11
44.3643
 21
58.7383
  0
LINE
  8
0
 10
44.3643
 20
58.7383
 11
44.3945
 21
58.7061
  0
LINE
  8
0
 10
44.3945
 20
58.7061
 11
44.4238
 21
58.6729
  0
LINE
  8
0
 10
44.4238
 20
58.6729
 11
44.4531
 21
58.6387
  0
LINE
  8
0
 10
44.4531
 20
58.6387
 11
44.4814
 21
58.6045
  0
LINE
  8
0
 10
44.4814
 20
58.6045
 11
44.5361
 21
58.5342
  0
LINE
  8
0
 10
44.5361
 20
58.5342
 11
44.5625
 21
58.499
  0
LINE
  8
0
 10
44.5625
 20
58.499
 11
44.5889
 21
58.4619
  0
LINE
  8
0
 10
44.5889
 20
58.4619
 11
44.6133
 21
58.4258
  0
LINE
  8
0
 10
44.6133
 20
58.4258
 11
44.6387
 21
58.3887
  0
LINE
  8
0
 10
44.6387
 20
58.3887
 11
44.6621
 21
58.3506
  0
LINE
  8
0
 10
44.6621
 20
58.3506
 11
44.6855
 21
58.3135
  0
LINE
  8
0
 10
44.6855
 20
58.3135
 11
44.708
 21
58.2744
  0
LINE
  8
0
 10
44.708
 20
58.2744
 11
44.7295
 21
58.2363
  0
LINE
  8
0
 10
44.7295
 20
58.2363
 11
44.751
 21
58.1973
  0
LINE
  8
0
 10
44.751
 20
58.1973
 11
44.7715
 21
58.1572
  0
LINE
  8
0
 10
44.7715
 20
58.1572
 11
44.8105
 21
58.0771
  0
LINE
  8
0
 10
44.8105
 20
58.0771
 11
44.8291
 21
58.0371
  0
LINE
  8
0
 10
44.8291
 20
58.0371
 11
44.8643
 21
57.9551
  0
LINE
  8
0
 10
44.8643
 20
57.9551
 11
44.8799
 21
57.9141
  0
LINE
  8
0
 10
44.8799
 20
57.9141
 11
44.8955
 21
57.8721
  0
LINE
  8
0
 10
44.8955
 20
57.8721
 11
44.9248
 21
57.7881
  0
LINE
  8
0
 10
44.9248
 20
57.7881
 11
44.9385
 21
57.7451
  0
LINE
  8
0
 10
44.9385
 20
57.7451
 11
44.9512
 21
57.7031
  0
LINE
  8
0
 10
44.9512
 20
57.7031
 11
44.9629
 21
57.6602
  0
LINE
  8
0
 10
44.9629
 20
57.6602
 11
44.9736
 21
57.6172
  0
LINE
  8
0
 10
44.9736
 20
57.6172
 11
44.9844
 21
57.5732
  0
LINE
  8
0
 10
44.9844
 20
57.5732
 11
44.9941
 21
57.5303
  0
LINE
  8
0
 10
44.9941
 20
57.5303
 11
45.0029
 21
57.4863
  0
LINE
  8
0
 10
45.0029
 20
57.4863
 11
45.0186
 21
57.3984
  0
LINE
  8
0
 10
45.0186
 20
57.3984
 11
45.0303
 21
57.3105
  0
LINE
  8
0
 10
45.0303
 20
57.3105
 11
45.04
 21
57.2227
  0
LINE
  8
0
 10
45.04
 20
57.2227
 11
45.043
 21
57.1777
  0
LINE
  8
0
 10
45.043
 20
57.1777
 11
45.0459
 21
57.1338
  0
LINE
  8
0
 10
45.0459
 20
57.1338
 11
45.0479
 21
57.0889
  0
LINE
  8
0
 10
45.0479
 20
57.0889
 11
45.0498
 21
57
  0
LINE
  8
0
 10
45.0498
 20
57
 11
45.0479
 21
56.9111
  0
LINE
  8
0
 10
45.0479
 20
56.9111
 11
45.0459
 21
56.8662
  0
LINE
  8
0
 10
45.0459
 20
56.8662
 11
45.043
 21
56.8223
  0
LINE
  8
0
 10
45.043
 20
56.8223
 11
45.04
 21
56.7773
  0
LINE
  8
0
 10
45.04
 20
56.7773
 11
45.0303
 21
56.6895
  0
LINE
  8
0
 10
45.0303
 20
56.6895
 11
45.0186
 21
56.6016
  0
LINE
  8
0
 10
45.0186
 20
56.6016
 11
45.0029
 21
56.5137
  0
LINE
  8
0
 10
45.0029
 20
56.5137
 11
44.9941
 21
56.4697
  0
LINE
  8
0
 10
44.9941
 20
56.4697
 11
44.9844
 21
56.4268
  0
LINE
  8
0
 10
44.9844
 20
56.4268
 11
44.9736
 21
56.3828
  0
LINE
  8
0
 10
44.9736
 20
56.3828
 11
44.9629
 21
56.3398
  0
LINE
  8
0
 10
44.9629
 20
56.3398
 11
44.9512
 21
56.2969
  0
LINE
  8
0
 10
44.9512
 20
56.2969
 11
44.9385
 21
56.2549
  0
LINE
  8
0
 10
44.9385
 20
56.2549
 11
44.9248
 21
56.2119
  0
LINE
  8
0
 10
44.9248
 20
56.2119
 11
44.8955
 21
56.1279
  0
LINE
  8
0
 10
44.8955
 20
56.1279
 11
44.8799
 21
56.0859
  0
LINE
  8
0
 10
44.8799
 20
56.0859
 11
44.8643
 21
56.0449
  0
LINE
  8
0
 10
44.8643
 20
56.0449
 11
44.8291
 21
55.9629
  0
LINE
  8
0
 10
44.8291
 20
55.9629
 11
44.8105
 21
55.9229
  0
LINE
  8
0
 10
44.8105
 20
55.9229
 11
44.7715
 21
55.8428
  0
LINE
  8
0
 10
44.7715
 20
55.8428
 11
44.751
 21
55.8027
  0
LINE
  8
0
 10
44.751
 20
55.8027
 11
44.7295
 21
55.7637
  0
LINE
  8
0
 10
44.7295
 20
55.7637
 11
44.708
 21
55.7256
  0
LINE
  8
0
 10
44.708
 20
55.7256
 11
44.6855
 21
55.6865
  0
LINE
  8
0
 10
44.6855
 20
55.6865
 11
44.6621
 21
55.6494
  0
LINE
  8
0
 10
44.6621
 20
55.6494
 11
44.6387
 21
55.6113
  0
LINE
  8
0
 10
44.6387
 20
55.6113
 11
44.6133
 21
55.5742
  0
LINE
  8
0
 10
44.6133
 20
55.5742
 11
44.5889
 21
55.5381
  0
LINE
  8
0
 10
44.5889
 20
55.5381
 11
44.5625
 21
55.501
  0
LINE
  8
0
 10
44.5625
 20
55.501
 11
44.5361
 21
55.4658
  0
LINE
  8
0
 10
44.5361
 20
55.4658
 11
44.4814
 21
55.3955
  0
LINE
  8
0
 10
44.4814
 20
55.3955
 11
44.4531
 21
55.3613
  0
LINE
  8
0
 10
44.4531
 20
55.3613
 11
44.4238
 21
55.3271
  0
LINE
  8
0
 10
44.4238
 20
55.3271
 11
44.3945
 21
55.2939
  0
LINE
  8
0
 10
44.3945
 20
55.2939
 11
44.3643
 21
55.2617
  0
LINE
  8
0
 10
44.3643
 20
55.2617
 11
44.334
 21
55.2285
  0
LINE
  8
0
 10
44.334
 20
55.2285
 11
44.2715
 21
55.166
  0
LINE
  8
0
 10
44.2715
 20
55.166
 11
44.2383
 21
55.1357
  0
LINE
  8
0
 10
44.2383
 20
55.1357
 11
44.2061
 21
55.1055
  0
LINE
  8
0
 10
44.2061
 20
55.1055
 11
44.1729
 21
55.0762
  0
LINE
  8
0
 10
44.1729
 20
55.0762
 11
44.1387
 21
55.0469
  0
LINE
  8
0
 10
44.1387
 20
55.0469
 11
44.1045
 21
55.0186
  0
LINE
  8
0
 10
44.1045
 20
55.0186
 11
44.0342
 21
54.9639
  0
LINE
  8
0
 10
44.0342
 20
54.9639
 11
43.999
 21
54.9375
  0
LINE
  8
0
 10
43.999
 20
54.9375
 11
43.9619
 21
54.9111
  0
LINE
  8
0
 10
43.9619
 20
54.9111
 11
43.9258
 21
54.8867
  0
LINE
  8
0
 10
43.9258
 20
54.8867
 11
43.8887
 21
54.8613
  0
LINE
  8
0
 10
43.8887
 20
54.8613
 11
43.8506
 21
54.8379
  0
LINE
  8
0
 10
43.8506
 20
54.8379
 11
43.8135
 21
54.8145
  0
LINE
  8
0
 10
43.8135
 20
54.8145
 11
43.7744
 21
54.792
  0
LINE
  8
0
 10
43.7744
 20
54.792
 11
43.7363
 21
54.7705
  0
LINE
  8
0
 10
43.7363
 20
54.7705
 11
43.6973
 21
54.749
  0
LINE
  8
0
 10
43.6973
 20
54.749
 11
43.6572
 21
54.7285
  0
LINE
  8
0
 10
43.6572
 20
54.7285
 11
43.5771
 21
54.6895
  0
LINE
  8
0
 10
43.5771
 20
54.6895
 11
43.5371
 21
54.6709
  0
LINE
  8
0
 10
43.5371
 20
54.6709
 11
43.4551
 21
54.6357
  0
LINE
  8
0
 10
43.4551
 20
54.6357
 11
43.4141
 21
54.6201
  0
LINE
  8
0
 10
43.4141
 20
54.6201
 11
43.3721
 21
54.6045
  0
LINE
  8
0
 10
43.3721
 20
54.6045
 11
43.2881
 21
54.5752
  0
LINE
  8
0
 10
43.2881
 20
54.5752
 11
43.2451
 21
54.5615
  0
LINE
  8
0
 10
43.2451
 20
54.5615
 11
43.2031
 21
54.5488
  0
LINE
  8
0
 10
43.2031
 20
54.5488
 11
43.1602
 21
54.5371
  0
LINE
  8
0
 10
43.1602
 20
54.5371
 11
43.1172
 21
54.5264
  0
LINE
  8
0
 10
43.1172
 20
54.5264
 11
43.0732
 21
54.5156
  0
LINE
  8
0
 10
43.0732
 20
54.5156
 11
43.0303
 21
54.5059
  0
LINE
  8
0
 10
43.0303
 20
54.5059
 11
42.9863
 21
54.4971
  0
LINE
  8
0
 10
42.9863
 20
54.4971
 11
42.8984
 21
54.4814
  0
LINE
  8
0
 10
42.8984
 20
54.4814
 11
42.8105
 21
54.4697
  0
LINE
  8
0
 10
42.8105
 20
54.4697
 11
42.7227
 21
54.46
  0
LINE
  8
0
 10
42.7227
 20
54.46
 11
42.6777
 21
54.457
  0
LINE
  8
0
 10
42.6777
 20
54.457
 11
42.6338
 21
54.4541
  0
LINE
  8
0
 10
42.6338
 20
54.4541
 11
42.5889
 21
54.4521
  0
LINE
  8
0
 10
42.5889
 20
54.4521
 11
42.5
 21
54.4502
  0
LINE
  8
0
 10
42.5
 20
54.4502
 11
42.4111
 21
54.4521
  0
LINE
  8
0
 10
91.9717
 20
54.9004
 11
91.916
 21
54.9023
  0
LINE
  8
0
 10
91.916
 20
54.9023
 11
91.8887
 21
54.9043
  0
LINE
  8
0
 10
91.8887
 20
54.9043
 11
91.8604
 21
54.9062
  0
LINE
  8
0
 10
91.8604
 20
54.9062
 11
91.833
 21
54.9092
  0
LINE
  8
0
 10
91.833
 20
54.9092
 11
91.8047
 21
54.9121
  0
LINE
  8
0
 10
91.8047
 20
54.9121
 11
91.75
 21
54.9199
  0
LINE
  8
0
 10
91.75
 20
54.9199
 11
91.7217
 21
54.9238
  0
LINE
  8
0
 10
91.7217
 20
54.9238
 11
91.6943
 21
54.9297
  0
LINE
  8
0
 10
91.6943
 20
54.9297
 11
91.667
 21
54.9346
  0
LINE
  8
0
 10
91.667
 20
54.9346
 11
91.6396
 21
54.9414
  0
LINE
  8
0
 10
91.6396
 20
54.9414
 11
91.6133
 21
54.9473
  0
LINE
  8
0
 10
91.6133
 20
54.9473
 11
91.5859
 21
54.9541
  0
LINE
  8
0
 10
91.5859
 20
54.9541
 11
91.5586
 21
54.9619
  0
LINE
  8
0
 10
91.5586
 20
54.9619
 11
91.5322
 21
54.9697
  0
LINE
  8
0
 10
91.5322
 20
54.9697
 11
91.4531
 21
54.9961
  0
LINE
  8
0
 10
91.4531
 20
54.9961
 11
91.4268
 21
55.0059
  0
LINE
  8
0
 10
91.4268
 20
55.0059
 11
91.4004
 21
55.0166
  0
LINE
  8
0
 10
91.4004
 20
55.0166
 11
91.3496
 21
55.0381
  0
LINE
  8
0
 10
91.3496
 20
55.0381
 11
91.2988
 21
55.0615
  0
LINE
  8
0
 10
91.2988
 20
55.0615
 11
91.2734
 21
55.0742
  0
LINE
  8
0
 10
91.2734
 20
55.0742
 11
91.249
 21
55.0869
  0
LINE
  8
0
 10
91.249
 20
55.0869
 11
91.2002
 21
55.1143
  0
LINE
  8
0
 10
91.2002
 20
55.1143
 11
91.1758
 21
55.1289
  0
LINE
  8
0
 10
91.1758
 20
55.1289
 11
91.1289
 21
55.1582
  0
LINE
  8
0
 10
91.1289
 20
55.1582
 11
91.082
 21
55.1895
  0
LINE
  8
0
 10
91.082
 20
55.1895
 11
91.0146
 21
55.2393
  0
LINE
  8
0
 10
91.0146
 20
55.2393
 11
90.9502
 21
55.292
  0
LINE
  8
0
 10
90.9502
 20
55.292
 11
90.9297
 21
55.3105
  0
LINE
  8
0
 10
90.9297
 20
55.3105
 11
90.9092
 21
55.3301
  0
LINE
  8
0
 10
90.9092
 20
55.3301
 11
90.8887
 21
55.3486
  0
LINE
  8
0
 10
90.8887
 20
55.3486
 11
90.8682
 21
55.3682
  0
LINE
  8
0
 10
90.8682
 20
55.3682
 11
90.8486
 21
55.3887
  0
LINE
  8
0
 10
90.8486
 20
55.3887
 11
90.8301
 21
55.4092
  0
LINE
  8
0
 10
90.8301
 20
55.4092
 11
90.8105
 21
55.4297
  0
LINE
  8
0
 10
90.8105
 20
55.4297
 11
90.792
 21
55.4502
  0
LINE
  8
0
 10
90.792
 20
55.4502
 11
90.7393
 21
55.5146
  0
LINE
  8
0
 10
90.7393
 20
55.5146
 11
90.6895
 21
55.582
  0
LINE
  8
0
 10
90.6895
 20
55.582
 11
90.6582
 21
55.6289
  0
LINE
  8
0
 10
90.6582
 20
55.6289
 11
90.6289
 21
55.6758
  0
LINE
  8
0
 10
90.6289
 20
55.6758
 11
90.6143
 21
55.7002
  0
LINE
  8
0
 10
90.6143
 20
55.7002
 11
90.5869
 21
55.749
  0
LINE
  8
0
 10
90.5869
 20
55.749
 11
90.5742
 21
55.7734
  0
LINE
  8
0
 10
90.5742
 20
55.7734
 11
90.5615
 21
55.7988
  0
LINE
  8
0
 10
90.5615
 20
55.7988
 11
90.5381
 21
55.8496
  0
LINE
  8
0
 10
90.5381
 20
55.8496
 11
90.5166
 21
55.9004
  0
LINE
  8
0
 10
90.5166
 20
55.9004
 11
90.5059
 21
55.9268
  0
LINE
  8
0
 10
90.5059
 20
55.9268
 11
90.4961
 21
55.9531
  0
LINE
  8
0
 10
90.4961
 20
55.9531
 11
90.4697
 21
56.0322
  0
LINE
  8
0
 10
90.4697
 20
56.0322
 11
90.4619
 21
56.0586
  0
LINE
  8
0
 10
90.4619
 20
56.0586
 11
90.4541
 21
56.0859
  0
LINE
  8
0
 10
90.4541
 20
56.0859
 11
90.4473
 21
56.1133
  0
LINE
  8
0
 10
90.4473
 20
56.1133
 11
90.4414
 21
56.1396
  0
LINE
  8
0
 10
90.4414
 20
56.1396
 11
90.4346
 21
56.167
  0
LINE
  8
0
 10
90.4346
 20
56.167
 11
90.4297
 21
56.1943
  0
LINE
  8
0
 10
90.4297
 20
56.1943
 11
90.4238
 21
56.2217
  0
LINE
  8
0
 10
90.4238
 20
56.2217
 11
90.4199
 21
56.25
  0
LINE
  8
0
 10
90.4199
 20
56.25
 11
90.4121
 21
56.3047
  0
LINE
  8
0
 10
90.4121
 20
56.3047
 11
90.4092
 21
56.333
  0
LINE
  8
0
 10
90.4092
 20
56.333
 11
90.4062
 21
56.3604
  0
LINE
  8
0
 10
90.4062
 20
56.3604
 11
90.4043
 21
56.3887
  0
LINE
  8
0
 10
90.4043
 20
56.3887
 11
90.4023
 21
56.416
  0
LINE
  8
0
 10
90.4023
 20
56.416
 11
90.4004
 21
56.4717
  0
LINE
  8
0
 10
90.4004
 20
56.4717
 11
90.4004
 21
56.5283
  0
LINE
  8
0
 10
90.4004
 20
56.5283
 11
90.4023
 21
56.584
  0
LINE
  8
0
 10
90.4023
 20
56.584
 11
90.4043
 21
56.6113
  0
LINE
  8
0
 10
90.4043
 20
56.6113
 11
90.4062
 21
56.6396
  0
LINE
  8
0
 10
90.4062
 20
56.6396
 11
90.4092
 21
56.667
  0
LINE
  8
0
 10
90.4092
 20
56.667
 11
90.4121
 21
56.6953
  0
LINE
  8
0
 10
90.4121
 20
56.6953
 11
90.4199
 21
56.75
  0
LINE
  8
0
 10
90.4199
 20
56.75
 11
90.4238
 21
56.7783
  0
LINE
  8
0
 10
90.4238
 20
56.7783
 11
90.4297
 21
56.8057
  0
LINE
  8
0
 10
90.4297
 20
56.8057
 11
90.4346
 21
56.833
  0
LINE
  8
0
 10
90.4346
 20
56.833
 11
90.4414
 21
56.8604
  0
LINE
  8
0
 10
90.4414
 20
56.8604
 11
90.4473
 21
56.8867
  0
LINE
  8
0
 10
90.4473
 20
56.8867
 11
90.4541
 21
56.9141
  0
LINE
  8
0
 10
90.4541
 20
56.9141
 11
90.4619
 21
56.9414
  0
LINE
  8
0
 10
90.4619
 20
56.9414
 11
90.4697
 21
56.9678
  0
LINE
  8
0
 10
90.4697
 20
56.9678
 11
90.4961
 21
57.0469
  0
LINE
  8
0
 10
90.4961
 20
57.0469
 11
90.5059
 21
57.0732
  0
LINE
  8
0
 10
90.5059
 20
57.0732
 11
90.5166
 21
57.0996
  0
LINE
  8
0
 10
90.5166
 20
57.0996
 11
90.5381
 21
57.1504
  0
LINE
  8
0
 10
90.5381
 20
57.1504
 11
90.5615
 21
57.2012
  0
LINE
  8
0
 10
90.5615
 20
57.2012
 11
90.5742
 21
57.2266
  0
LINE
  8
0
 10
90.5742
 20
57.2266
 11
90.5869
 21
57.251
  0
LINE
  8
0
 10
90.5869
 20
57.251
 11
90.6143
 21
57.2998
  0
LINE
  8
0
 10
90.6143
 20
57.2998
 11
90.6289
 21
57.3242
  0
LINE
  8
0
 10
90.6289
 20
57.3242
 11
90.6582
 21
57.3711
  0
LINE
  8
0
 10
90.6582
 20
57.3711
 11
90.6895
 21
57.418
  0
LINE
  8
0
 10
90.6895
 20
57.418
 11
90.7393
 21
57.4854
  0
LINE
  8
0
 10
90.7393
 20
57.4854
 11
90.792
 21
57.5498
  0
LINE
  8
0
 10
90.792
 20
57.5498
 11
90.8105
 21
57.5703
  0
LINE
  8
0
 10
90.8105
 20
57.5703
 11
90.8301
 21
57.5908
  0
LINE
  8
0
 10
90.8301
 20
57.5908
 11
90.8486
 21
57.6113
  0
LINE
  8
0
 10
90.8486
 20
57.6113
 11
90.8682
 21
57.6318
  0
LINE
  8
0
 10
90.8682
 20
57.6318
 11
90.8887
 21
57.6514
  0
LINE
  8
0
 10
90.8887
 20
57.6514
 11
90.9092
 21
57.6699
  0
LINE
  8
0
 10
90.9092
 20
57.6699
 11
90.9297
 21
57.6895
  0
LINE
  8
0
 10
90.9297
 20
57.6895
 11
90.9502
 21
57.708
  0
LINE
  8
0
 10
90.9502
 20
57.708
 11
91.0146
 21
57.7607
  0
LINE
  8
0
 10
91.0146
 20
57.7607
 11
91.082
 21
57.8105
  0
LINE
  8
0
 10
91.082
 20
57.8105
 11
91.1289
 21
57.8418
  0
LINE
  8
0
 10
91.1289
 20
57.8418
 11
91.1758
 21
57.8711
  0
LINE
  8
0
 10
91.1758
 20
57.8711
 11
91.2002
 21
57.8857
  0
LINE
  8
0
 10
91.2002
 20
57.8857
 11
91.249
 21
57.9131
  0
LINE
  8
0
 10
91.249
 20
57.9131
 11
91.2734
 21
57.9258
  0
LINE
  8
0
 10
91.2734
 20
57.9258
 11
91.2988
 21
57.9385
  0
LINE
  8
0
 10
91.2988
 20
57.9385
 11
91.3496
 21
57.9619
  0
LINE
  8
0
 10
91.3496
 20
57.9619
 11
91.4004
 21
57.9834
  0
LINE
  8
0
 10
91.4004
 20
57.9834
 11
91.4268
 21
57.9941
  0
LINE
  8
0
 10
91.4268
 20
57.9941
 11
91.4531
 21
58.0039
  0
LINE
  8
0
 10
91.4531
 20
58.0039
 11
91.5322
 21
58.0303
  0
LINE
  8
0
 10
91.5322
 20
58.0303
 11
91.5586
 21
58.0381
  0
LINE
  8
0
 10
91.5586
 20
58.0381
 11
91.5859
 21
58.0459
  0
LINE
  8
0
 10
91.5859
 20
58.0459
 11
91.6133
 21
58.0527
  0
LINE
  8
0
 10
91.6133
 20
58.0527
 11
91.6396
 21
58.0586
  0
LINE
  8
0
 10
91.6396
 20
58.0586
 11
91.667
 21
58.0654
  0
LINE
  8
0
 10
91.667
 20
58.0654
 11
91.6943
 21
58.0703
  0
LINE
  8
0
 10
91.6943
 20
58.0703
 11
91.7217
 21
58.0762
  0
LINE
  8
0
 10
91.7217
 20
58.0762
 11
91.75
 21
58.0801
  0
LINE
  8
0
 10
91.75
 20
58.0801
 11
91.8047
 21
58.0879
  0
LINE
  8
0
 10
91.8047
 20
58.0879
 11
91.833
 21
58.0908
  0
LINE
  8
0
 10
91.833
 20
58.0908
 11
91.8604
 21
58.0938
  0
LINE
  8
0
 10
91.8604
 20
58.0938
 11
91.8887
 21
58.0957
  0
LINE
  8
0
 10
91.8887
 20
58.0957
 11
91.916
 21
58.0977
  0
LINE
  8
0
 10
91.916
 20
58.0977
 11
91.9717
 21
58.0996
  0
LINE
  8
0
 10
91.9717
 20
58.0996
 11
92.0283
 21
58.0996
  0
LINE
  8
0
 10
92.0283
 20
58.0996
 11
92.084
 21
58.0977
  0
LINE
  8
0
 10
92.084
 20
58.0977
 11
92.1113
 21
58.0957
  0
LINE
  8
0
 10
92.1113
 20
58.0957
 11
92.1396
 21
58.0938
  0
LINE
  8
0
 10
92.1396
 20
58.0938
 11
92.167
 21
58.0908
  0
LINE
  8
0
 10
92.167
 20
58.0908
 11
92.1953
 21
58.0879
  0
LINE
  8
0
 10
92.1953
 20
58.0879
 11
92.25
 21
58.0801
  0
LINE
  8
0
 10
92.25
 20
58.0801
 11
92.2783
 21
58.0762
  0
LINE
  8
0
 10
92.2783
 20
58.0762
 11
92.3057
 21
58.0703
  0
LINE
  8
0
 10
92.3057
 20
58.0703
 11
92.333
 21
58.0654
  0
LINE
  8
0
 10
92.333
 20
58.0654
 11
92.3604
 21
58.0586
  0
LINE
  8
0
 10
92.3604
 20
58.0586
 11
92.3867
 21
58.0527
  0
LINE
  8
0
 10
92.3867
 20
58.0527
 11
92.4141
 21
58.0459
  0
LINE
  8
0
 10
92.4141
 20
58.0459
 11
92.4414
 21
58.0381
  0
LINE
  8
0
 10
92.4414
 20
58.0381
 11
92.4678
 21
58.0303
  0
LINE
  8
0
 10
92.4678
 20
58.0303
 11
92.5469
 21
58.0039
  0
LINE
  8
0
 10
92.5469
 20
58.0039
 11
92.5732
 21
57.9941
  0
LINE
  8
0
 10
92.5732
 20
57.9941
 11
92.5996
 21
57.9834
  0
LINE
  8
0
 10
92.5996
 20
57.9834
 11
92.6504
 21
57.9619
  0
LINE
  8
0
 10
92.6504
 20
57.9619
 11
92.7012
 21
57.9385
  0
LINE
  8
0
 10
92.7012
 20
57.9385
 11
92.7266
 21
57.9258
  0
LINE
  8
0
 10
92.7266
 20
57.9258
 11
92.751
 21
57.9131
  0
LINE
  8
0
 10
92.751
 20
57.9131
 11
92.7998
 21
57.8857
  0
LINE
  8
0
 10
92.7998
 20
57.8857
 11
92.8242
 21
57.8711
  0
LINE
  8
0
 10
92.8242
 20
57.8711
 11
92.8711
 21
57.8418
  0
LINE
  8
0
 10
92.8711
 20
57.8418
 11
92.918
 21
57.8105
  0
LINE
  8
0
 10
92.918
 20
57.8105
 11
92.9854
 21
57.7607
  0
LINE
  8
0
 10
92.9854
 20
57.7607
 11
93.0498
 21
57.708
  0
LINE
  8
0
 10
93.0498
 20
57.708
 11
93.0703
 21
57.6895
  0
LINE
  8
0
 10
93.0703
 20
57.6895
 11
93.0908
 21
57.6699
  0
LINE
  8
0
 10
93.0908
 20
57.6699
 11
93.1113
 21
57.6514
  0
LINE
  8
0
 10
93.1113
 20
57.6514
 11
93.1318
 21
57.6318
  0
LINE
  8
0
 10
93.1318
 20
57.6318
 11
93.1514
 21
57.6113
  0
LINE
  8
0
 10
93.1514
 20
57.6113
 11
93.1699
 21
57.5908
  0
LINE
  8
0
 10
93.1699
 20
57.5908
 11
93.1895
 21
57.5703
  0
LINE
  8
0
 10
93.1895
 20
57.5703
 11
93.208
 21
57.5498
  0
LINE
  8
0
 10
93.208
 20
57.5498
 11
93.2607
 21
57.4854
  0
LINE
  8
0
 10
93.2607
 20
57.4854
 11
93.3105
 21
57.418
  0
LINE
  8
0
 10
93.3105
 20
57.418
 11
93.3418
 21
57.3711
  0
LINE
  8
0
 10
93.3418
 20
57.3711
 11
93.3711
 21
57.3242
  0
LINE
  8
0
 10
93.3711
 20
57.3242
 11
93.3857
 21
57.2998
  0
LINE
  8
0
 10
93.3857
 20
57.2998
 11
93.4131
 21
57.251
  0
LINE
  8
0
 10
93.4131
 20
57.251
 11
93.4258
 21
57.2266
  0
LINE
  8
0
 10
93.4258
 20
57.2266
 11
93.4385
 21
57.2012
  0
LINE
  8
0
 10
93.4385
 20
57.2012
 11
93.4619
 21
57.1504
  0
LINE
  8
0
 10
93.4619
 20
57.1504
 11
93.4834
 21
57.0996
  0
LINE
  8
0
 10
93.4834
 20
57.0996
 11
93.4941
 21
57.0732
  0
LINE
  8
0
 10
93.4941
 20
57.0732
 11
93.5039
 21
57.0469
  0
LINE
  8
0
 10
93.5039
 20
57.0469
 11
93.5303
 21
56.9678
  0
LINE
  8
0
 10
93.5303
 20
56.9678
 11
93.5381
 21
56.9414
  0
LINE
  8
0
 10
93.5381
 20
56.9414
 11
93.5459
 21
56.9141
  0
LINE
  8
0
 10
93.5459
 20
56.9141
 11
93.5527
 21
56.8867
  0
LINE
  8
0
 10
93.5527
 20
56.8867
 11
93.5586
 21
56.8604
  0
LINE
  8
0
 10
93.5586
 20
56.8604
 11
93.5654
 21
56.833
  0
LINE
  8
0
 10
93.5654
 20
56.833
 11
93.5703
 21
56.8057
  0
LINE
  8
0
 10
93.5703
 20
56.8057
 11
93.5762
 21
56.7783
  0
LINE
  8
0
 10
93.5762
 20
56.7783
 11
93.5801
 21
56.75
  0
LINE
  8
0
 10
93.5801
 20
56.75
 11
93.5879
 21
56.6953
  0
LINE
  8
0
 10
93.5879
 20
56.6953
 11
93.5908
 21
56.667
  0
LINE
  8
0
 10
93.5908
 20
56.667
 11
93.5938
 21
56.6396
  0
LINE
  8
0
 10
93.5938
 20
56.6396
 11
93.5957
 21
56.6113
  0
LINE
  8
0
 10
93.5957
 20
56.6113
 11
93.5977
 21
56.584
  0
LINE
  8
0
 10
93.5977
 20
56.584
 11
93.5996
 21
56.5283
  0
LINE
  8
0
 10
93.5996
 20
56.5283
 11
93.5996
 21
56.4717
  0
LINE
  8
0
 10
93.5996
 20
56.4717
 11
93.5977
 21
56.416
  0
LINE
  8
0
 10
93.5977
 20
56.416
 11
93.5957
 21
56.3887
  0
LINE
  8
0
 10
93.5957
 20
56.3887
 11
93.5938
 21
56.3604
  0
LINE
  8
0
 10
93.5938
 20
56.3604
 11
93.5908
 21
56.333
  0
LINE
  8
0
 10
93.5908
 20
56.333
 11
93.5879
 21
56.3047
  0
LINE
  8
0
 10
93.5879
 20
56.3047
 11
93.5801
 21
56.25
  0
LINE
  8
0
 10
93.5801
 20
56.25
 11
93.5762
 21
56.2217
  0
LINE
  8
0
 10
93.5762
 20
56.2217
 11
93.5703
 21
56.1943
  0
LINE
  8
0
 10
93.5703
 20
56.1943
 11
93.5654
 21
56.167
  0
LINE
  8
0
 10
93.5654
 20
56.167
 11
93.5586
 21
56.1396
  0
LINE
  8
0
 10
93.5586
 20
56.1396
 11
93.5527
 21
56.1133
  0
LINE
  8
0
 10
93.5527
 20
56.1133
 11
93.5459
 21
56.0859
  0
LINE
  8
0
 10
93.5459
 20
56.0859
 11
93.5381
 21
56.0586
  0
LINE
  8
0
 10
93.5381
 20
56.0586
 11
93.5303
 21
56.0322
  0
LINE
  8
0
 10
93.5303
 20
56.0322
 11
93.5039
 21
55.9531
  0
LINE
  8
0
 10
93.5039
 20
55.9531
 11
93.4941
 21
55.9268
  0
LINE
  8
0
 10
93.4941
 20
55.9268
 11
93.4834
 21
55.9004
  0
LINE
  8
0
 10
93.4834
 20
55.9004
 11
93.4619
 21
55.8496
  0
LINE
  8
0
 10
93.4619
 20
55.8496
 11
93.4385
 21
55.7988
  0
LINE
  8
0
 10
93.4385
 20
55.7988
 11
93.4258
 21
55.7734
  0
LINE
  8
0
 10
93.4258
 20
55.7734
 11
93.4131
 21
55.749
  0
LINE
  8
0
 10
93.4131
 20
55.749
 11
93.3857
 21
55.7002
  0
LINE
  8
0
 10
93.3857
 20
55.7002
 11
93.3711
 21
55.6758
  0
LINE
  8
0
 10
93.3711
 20
55.6758
 11
93.3418
 21
55.6289
  0
LINE
  8
0
 10
93.3418
 20
55.6289
 11
93.3105
 21
55.582
  0
LINE
  8
0
 10
93.3105
 20
55.582
 11
93.2607
 21
55.5146
  0
LINE
  8
0
 10
93.2607
 20
55.5146
 11
93.208
 21
55.4502
  0
LINE
  8
0
 10
93.208
 20
55.4502
 11
93.1895
 21
55.4297
  0
LINE
  8
0
 10
93.1895
 20
55.4297
 11
93.1699
 21
55.4092
  0
LINE
  8
0
 10
93.1699
 20
55.4092
 11
93.1514
 21
55.3887
  0
LINE
  8
0
 10
93.1514
 20
55.3887
 11
93.1318
 21
55.3682
  0
LINE
  8
0
 10
93.1318
 20
55.3682
 11
93.1113
 21
55.3486
  0
LINE
  8
0
 10
93.1113
 20
55.3486
 11
93.0908
 21
55.3301
  0
LINE
  8
0
 10
93.0908
 20
55.3301
 11
93.0703
 21
55.3105
  0
LINE
  8
0
 10
93.0703
 20
55.3105
 11
93.0498
 21
55.292
  0
LINE
  8
0
 10
93.0498
 20
55.292
 11
92.9854
 21
55.2393
  0
LINE
  8
0
 10
92.9854
 20
55.2393
 11
92.918
 21
55.1895
  0
LINE
  8
0
 10
92.918
 20
55.1895
 11
92.8711
 21
55.1582
  0
LINE
  8
0
 10
92.8711
 20
55.1582
 11
92.8242
 21
55.1289
  0
LINE
  8
0
 10
92.8242
 20
55.1289
 11
92.7998
 21
55.1143
  0
LINE
  8
0
 10
92.7998
 20
55.1143
 11
92.751
 21
55.0869
  0
LINE
  8
0
 10
92.751
 20
55.0869
 11
92.7266
 21
55.0742
  0
LINE
  8
0
 10
92.7266
 20
55.0742
 11
92.7012
 21
55.0615
  0
LINE
  8
0
 10
92.7012
 20
55.0615
 11
92.6504
 21
55.0381
  0
LINE
  8
0
 10
92.6504
 20
55.0381
 11
92.5996
 21
55.0166
  0
LINE
  8
0
 10
92.5996
 20
55.0166
 11
92.5732
 21
55.0059
  0
LINE
  8
0
 10
92.5732
 20
55.0059
 11
92.5469
 21
54.9961
  0
LINE
  8
0
 10
92.5469
 20
54.9961
 11
92.4678
 21
54.9697
  0
LINE
  8
0
 10
92.4678
 20
54.9697
 11
92.4414
 21
54.9619
  0
LINE
  8
0
 10
92.4414
 20
54.9619
 11
92.4141
 21
54.9541
  0
LINE
  8
0
 10
92.4141
 20
54.9541
 11
92.3867
 21
54.9473
  0
LINE
  8
0
 10
92.3867
 20
54.9473
 11
92.3604
 21
54.9414
  0
LINE
  8
0
 10
92.3604
 20
54.9414
 11
92.333
 21
54.9346
  0
LINE
  8
0
 10
92.333
 20
54.9346
 11
92.3057
 21
54.9297
  0
LINE
  8
0
 10
92.3057
 20
54.9297
 11
92.2783
 21
54.9238
  0
LINE
  8
0
 10
92.2783
 20
54.9238
 11
92.25
 21
54.9199
  0
LINE
  8
0
 10
92.25
 20
54.9199
 11
92.1953
 21
54.9121
  0
LINE
  8
0
 10
92.1953
 20
54.9121
 11
92.167
 21
54.9092
  0
LINE
  8
0
 10
92.167
 20
54.9092
 11
92.1396
 21
54.9062
  0
LINE
  8
0
 10
92.1396
 20
54.9062
 11
92.1113
 21
54.9043
  0
LINE
  8
0
 10
92.1113
 20
54.9043
 11
92.084
 21
54.9023
  0
LINE
  8
0
 10
92.084
 20
54.9023
 11
92.0283
 21
54.9004
  0
LINE
  8
0
 10
92.0283
 20
54.9004
 11
91.9717
 21
54.9004
  0
ENDSEC
  0
SECTION
  2
OBJECTS
  0
DICTIONARY
  0
ENDSEC
  0
EOF
