  0
SECTION
  2
BLOCKS
  0
ENDSEC
  0
SECTION
  2
ENTITIES
  0
LINE
  8
0
 10
16.0693
 20
0.000976562
 11
16.1396
 21
0.00488281
  0
LINE
  8
0
 10
16.1396
 20
0.00488281
 11
16.1738
 21
0.0078125
  0
LINE
  8
0
 10
16.1738
 20
0.0078125
 11
16.209
 21
0.0107422
  0
LINE
  8
0
 10
16.209
 20
0.0107422
 11
16.2441
 21
0.0146484
  0
LINE
  8
0
 10
16.2441
 20
0.0146484
 11
16.3125
 21
0.0244141
  0
LINE
  8
0
 10
16.3125
 20
0.0244141
 11
16.3477
 21
0.0302734
  0
LINE
  8
0
 10
16.3477
 20
0.0302734
 11
16.4502
 21
0.0507812
  0
LINE
  8
0
 10
16.4502
 20
0.0507812
 11
16.4834
 21
0.0595703
  0
LINE
  8
0
 10
16.4834
 20
0.0595703
 11
16.5518
 21
0.0771484
  0
LINE
  8
0
 10
16.5518
 20
0.0771484
 11
16.585
 21
0.0869141
  0
LINE
  8
0
 10
16.585
 20
0.0869141
 11
16.6182
 21
0.0976562
  0
LINE
  8
0
 10
16.6182
 20
0.0976562
 11
16.6514
 21
0.109375
  0
LINE
  8
0
 10
16.6514
 20
0.109375
 11
16.6836
 21
0.121094
  0
LINE
  8
0
 10
16.6836
 20
0.121094
 11
16.7168
 21
0.132812
  0
LINE
  8
0
 10
16.7168
 20
0.132812
 11
16.749
 21
0.145508
  0
LINE
  8
0
 10
16.749
 20
0.145508
 11
16.8135
 21
0.172852
  0
LINE
  8
0
 10
16.8135
 20
0.172852
 11
16.8457
 21
0.1875
  0
LINE
  8
0
 10
16.8457
 20
0.1875
 11
16.877
 21
0.202148
  0
LINE
  8
0
 10
16.877
 20
0.202148
 11
16.9082
 21
0.217773
  0
LINE
  8
0
 10
16.9082
 20
0.217773
 11
16.9385
 21
0.234375
  0
LINE
  8
0
 10
16.9385
 20
0.234375
 11
16.9697
 21
0.250977
  0
LINE
  8
0
 10
16.9697
 20
0.250977
 11
17
 21
0.267578
  0
LINE
  8
0
 10
17
 20
0.267578
 11
17.0303
 21
0.286133
  0
LINE
  8
0
 10
17.0303
 20
0.286133
 11
17.0596
 21
0.303711
  0
LINE
  8
0
 10
17.0596
 20
0.303711
 11
17.0889
 21
0.322266
  0
LINE
  8
0
 10
17.0889
 20
0.322266
 11
17.1475
 21
0.361328
  0
LINE
  8
0
 10
17.1475
 20
0.361328
 11
17.2041
 21
0.402344
  0
LINE
  8
0
 10
17.2041
 20
0.402344
 11
17.2588
 21
0.445312
  0
LINE
  8
0
 10
17.2588
 20
0.445312
 11
17.2852
 21
0.467773
  0
LINE
  8
0
 10
17.2852
 20
0.467773
 11
17.3125
 21
0.490234
  0
LINE
  8
0
 10
17.3125
 20
0.490234
 11
17.3379
 21
0.513672
  0
LINE
  8
0
 10
17.3379
 20
0.513672
 11
17.3643
 21
0.537109
  0
LINE
  8
0
 10
17.3643
 20
0.537109
 11
17.3896
 21
0.561523
  0
LINE
  8
0
 10
17.3896
 20
0.561523
 11
17.4385
 21
0.610352
  0
LINE
  8
0
 10
17.4385
 20
0.610352
 11
17.4629
 21
0.635742
  0
LINE
  8
0
 10
17.4629
 20
0.635742
 11
17.4863
 21
0.662109
  0
LINE
  8
0
 10
17.4863
 20
0.662109
 11
17.5098
 21
0.6875
  0
LINE
  8
0
 10
17.5098
 20
0.6875
 11
17.5322
 21
0.714844
  0
LINE
  8
0
 10
17.5322
 20
0.714844
 11
17.5547
 21
0.741211
  0
LINE
  8
0
 10
17.5547
 20
0.741211
 11
17.5977
 21
0.795898
  0
LINE
  8
0
 10
17.5977
 20
0.795898
 11
17.6387
 21
0.852539
  0
LINE
  8
0
 10
17.6387
 20
0.852539
 11
17.6777
 21
0.911133
  0
LINE
  8
0
 10
17.6777
 20
0.911133
 11
17.6963
 21
0.94043
  0
LINE
  8
0
 10
17.6963
 20
0.94043
 11
17.7139
 21
0.969727
  0
LINE
  8
0
 10
17.7139
 20
0.969727
 11
17.7324
 21
1
  0
LINE
  8
0
 10
17.7324
 20
1
 11
17.749
 21
1.03027
  0
LINE
  8
0
 10
17.749
 20
1.03027
 11
17.7656
 21
1.06152
  0
LINE
  8
0
 10
17.7656
 20
1.06152
 11
17.7822
 21
1.0918
  0
LINE
  8
0
 10
17.7822
 20
1.0918
 11
17.7979
 21
1.12305
  0
LINE
  8
0
 10
17.7979
 20
1.12305
 11
17.8125
 21
1.1543
  0
LINE
  8
0
 10
17.8125
 20
1.1543
 11
17.8271
 21
1.18652
  0
LINE
  8
0
 10
17.8271
 20
1.18652
 11
17.8545
 21
1.25098
  0
LINE
  8
0
 10
17.8545
 20
1.25098
 11
17.8672
 21
1.2832
  0
LINE
  8
0
 10
17.8672
 20
1.2832
 11
17.8789
 21
1.31641
  0
LINE
  8
0
 10
17.8789
 20
1.31641
 11
17.8906
 21
1.34863
  0
LINE
  8
0
 10
17.8906
 20
1.34863
 11
17.9023
 21
1.38184
  0
LINE
  8
0
 10
17.9023
 20
1.38184
 11
17.9131
 21
1.41504
  0
LINE
  8
0
 10
17.9131
 20
1.41504
 11
17.9229
 21
1.44824
  0
LINE
  8
0
 10
17.9229
 20
1.44824
 11
17.9404
 21
1.5166
  0
LINE
  8
0
 10
17.9404
 20
1.5166
 11
17.9492
 21
1.5498
  0
LINE
  8
0
 10
17.9492
 20
1.5498
 11
17.9697
 21
1.65234
  0
LINE
  8
0
 10
17.9697
 20
1.65234
 11
17.9756
 21
1.6875
  0
LINE
  8
0
 10
17.9756
 20
1.6875
 11
17.9854
 21
1.75586
  0
LINE
  8
0
 10
17.9854
 20
1.75586
 11
17.9893
 21
1.79102
  0
LINE
  8
0
 10
17.9893
 20
1.79102
 11
17.9922
 21
1.82617
  0
LINE
  8
0
 10
17.9922
 20
1.82617
 11
17.9951
 21
1.86035
  0
LINE
  8
0
 10
17.9951
 20
1.86035
 11
17.999
 21
1.93066
  0
LINE
  8
0
 10
17.999
 20
1.93066
 11
18
 21
1.96484
  0
LINE
  8
0
 10
18
 20
1.96484
 11
18
 21
2.53516
  0
LINE
  8
0
 10
18
 20
2.53516
 11
18.001
 21
2.56934
  0
LINE
  8
0
 10
18.001
 20
2.56934
 11
18.0049
 21
2.63965
  0
LINE
  8
0
 10
18.0049
 20
2.63965
 11
18.0078
 21
2.67383
  0
LINE
  8
0
 10
18.0078
 20
2.67383
 11
18.0107
 21
2.70898
  0
LINE
  8
0
 10
18.0107
 20
2.70898
 11
18.0146
 21
2.74414
  0
LINE
  8
0
 10
18.0146
 20
2.74414
 11
18.0244
 21
2.8125
  0
LINE
  8
0
 10
18.0244
 20
2.8125
 11
18.0303
 21
2.84766
  0
LINE
  8
0
 10
18.0303
 20
2.84766
 11
18.0508
 21
2.9502
  0
LINE
  8
0
 10
18.0508
 20
2.9502
 11
18.0596
 21
2.9834
  0
LINE
  8
0
 10
18.0596
 20
2.9834
 11
18.0771
 21
3.05176
  0
LINE
  8
0
 10
18.0771
 20
3.05176
 11
18.0869
 21
3.08496
  0
LINE
  8
0
 10
18.0869
 20
3.08496
 11
18.0977
 21
3.11816
  0
LINE
  8
0
 10
18.0977
 20
3.11816
 11
18.1094
 21
3.15137
  0
LINE
  8
0
 10
18.1094
 20
3.15137
 11
18.1211
 21
3.18359
  0
LINE
  8
0
 10
18.1211
 20
3.18359
 11
18.1328
 21
3.2168
  0
LINE
  8
0
 10
18.1328
 20
3.2168
 11
18.1455
 21
3.24902
  0
LINE
  8
0
 10
18.1455
 20
3.24902
 11
18.1729
 21
3.31348
  0
LINE
  8
0
 10
18.1729
 20
3.31348
 11
18.1875
 21
3.3457
  0
LINE
  8
0
 10
18.1875
 20
3.3457
 11
18.2021
 21
3.37695
  0
LINE
  8
0
 10
18.2021
 20
3.37695
 11
18.2178
 21
3.4082
  0
LINE
  8
0
 10
18.2178
 20
3.4082
 11
18.2344
 21
3.43848
  0
LINE
  8
0
 10
18.2344
 20
3.43848
 11
18.251
 21
3.46973
  0
LINE
  8
0
 10
18.251
 20
3.46973
 11
18.2676
 21
3.5
  0
LINE
  8
0
 10
18.2676
 20
3.5
 11
18.2861
 21
3.53027
  0
LINE
  8
0
 10
18.2861
 20
3.53027
 11
18.3037
 21
3.55957
  0
LINE
  8
0
 10
18.3037
 20
3.55957
 11
18.3223
 21
3.58887
  0
LINE
  8
0
 10
18.3223
 20
3.58887
 11
18.3613
 21
3.64746
  0
LINE
  8
0
 10
18.3613
 20
3.64746
 11
18.4023
 21
3.7041
  0
LINE
  8
0
 10
18.4023
 20
3.7041
 11
18.4453
 21
3.75879
  0
LINE
  8
0
 10
18.4453
 20
3.75879
 11
18.4678
 21
3.78516
  0
LINE
  8
0
 10
18.4678
 20
3.78516
 11
18.4902
 21
3.8125
  0
LINE
  8
0
 10
18.4902
 20
3.8125
 11
18.5137
 21
3.83789
  0
LINE
  8
0
 10
18.5137
 20
3.83789
 11
18.5371
 21
3.86426
  0
LINE
  8
0
 10
18.5371
 20
3.86426
 11
18.5615
 21
3.88965
  0
LINE
  8
0
 10
18.5615
 20
3.88965
 11
18.6104
 21
3.93848
  0
LINE
  8
0
 10
18.6104
 20
3.93848
 11
18.6357
 21
3.96289
  0
LINE
  8
0
 10
18.6357
 20
3.96289
 11
18.6621
 21
3.98633
  0
LINE
  8
0
 10
18.6621
 20
3.98633
 11
18.6875
 21
4.00977
  0
LINE
  8
0
 10
18.6875
 20
4.00977
 11
18.7148
 21
4.03223
  0
LINE
  8
0
 10
18.7148
 20
4.03223
 11
18.7412
 21
4.05469
  0
LINE
  8
0
 10
18.7412
 20
4.05469
 11
18.7959
 21
4.09766
  0
LINE
  8
0
 10
18.7959
 20
4.09766
 11
18.8525
 21
4.13867
  0
LINE
  8
0
 10
18.8525
 20
4.13867
 11
18.9111
 21
4.17773
  0
LINE
  8
0
 10
18.9111
 20
4.17773
 11
18.9404
 21
4.19629
  0
LINE
  8
0
 10
18.9404
 20
4.19629
 11
18.9697
 21
4.21387
  0
LINE
  8
0
 10
18.9697
 20
4.21387
 11
19
 21
4.23242
  0
LINE
  8
0
 10
19
 20
4.23242
 11
19.0303
 21
4.24902
  0
LINE
  8
0
 10
19.0303
 20
4.24902
 11
19.0615
 21
4.26562
  0
LINE
  8
0
 10
19.0615
 20
4.26562
 11
19.0918
 21
4.28223
  0
LINE
  8
0
 10
19.0918
 20
4.28223
 11
19.123
 21
4.29785
  0
LINE
  8
0
 10
19.123
 20
4.29785
 11
19.1543
 21
4.3125
  0
LINE
  8
0
 10
19.1543
 20
4.3125
 11
19.1865
 21
4.32715
  0
LINE
  8
0
 10
19.1865
 20
4.32715
 11
19.251
 21
4.35449
  0
LINE
  8
0
 10
19.251
 20
4.35449
 11
19.2832
 21
4.36719
  0
LINE
  8
0
 10
19.2832
 20
4.36719
 11
19.3164
 21
4.37891
  0
LINE
  8
0
 10
19.3164
 20
4.37891
 11
19.3486
 21
4.39062
  0
LINE
  8
0
 10
19.3486
 20
4.39062
 11
19.3818
 21
4.40234
  0
LINE
  8
0
 10
19.3818
 20
4.40234
 11
19.415
 21
4.41309
  0
LINE
  8
0
 10
19.415
 20
4.41309
 11
19.4482
 21
4.42285
  0
LINE
  8
0
 10
19.4482
 20
4.42285
 11
19.5166
 21
4.44043
  0
LINE
  8
0
 10
19.5166
 20
4.44043
 11
19.5498
 21
4.44922
  0
LINE
  8
0
 10
19.5498
 20
4.44922
 11
19.6523
 21
4.46973
  0
LINE
  8
0
 10
19.6523
 20
4.46973
 11
19.6875
 21
4.47559
  0
LINE
  8
0
 10
19.6875
 20
4.47559
 11
19.7559
 21
4.48535
  0
LINE
  8
0
 10
19.7559
 20
4.48535
 11
19.791
 21
4.48926
  0
LINE
  8
0
 10
19.791
 20
4.48926
 11
19.8262
 21
4.49219
  0
LINE
  8
0
 10
19.8262
 20
4.49219
 11
19.8604
 21
4.49512
  0
LINE
  8
0
 10
19.8604
 20
4.49512
 11
19.9307
 21
4.49902
  0
LINE
  8
0
 10
19.9307
 20
4.49902
 11
19.9648
 21
4.5
  0
LINE
  8
0
 10
19.9648
 20
4.5
 11
65.9854
 21
4.5
  0
LINE
  8
0
 10
65.9854
 20
4.5
 11
66.0195
 21
4.49902
  0
LINE
  8
0
 10
66.0195
 20
4.49902
 11
66.0898
 21
4.49512
  0
LINE
  8
0
 10
66.0898
 20
4.49512
 11
66.124
 21
4.49219
  0
LINE
  8
0
 10
66.124
 20
4.49219
 11
66.1592
 21
4.48926
  0
LINE
  8
0
 10
66.1592
 20
4.48926
 11
66.1934
 21
4.48535
  0
LINE
  8
0
 10
66.1934
 20
4.48535
 11
66.2285
 21
4.48047
  0
LINE
  8
0
 10
66.2285
 20
4.48047
 11
66.2627
 21
4.47559
  0
LINE
  8
0
 10
66.2627
 20
4.47559
 11
66.2969
 21
4.46973
  0
LINE
  8
0
 10
66.2969
 20
4.46973
 11
66.332
 21
4.46289
  0
LINE
  8
0
 10
66.332
 20
4.46289
 11
66.3662
 21
4.45605
  0
LINE
  8
0
 10
66.3662
 20
4.45605
 11
66.3994
 21
4.44922
  0
LINE
  8
0
 10
66.3994
 20
4.44922
 11
66.4678
 21
4.43164
  0
LINE
  8
0
 10
66.4678
 20
4.43164
 11
66.501
 21
4.42285
  0
LINE
  8
0
 10
66.501
 20
4.42285
 11
66.5352
 21
4.41309
  0
LINE
  8
0
 10
66.5352
 20
4.41309
 11
66.5684
 21
4.40234
  0
LINE
  8
0
 10
66.5684
 20
4.40234
 11
66.6016
 21
4.39062
  0
LINE
  8
0
 10
66.6016
 20
4.39062
 11
66.6338
 21
4.37891
  0
LINE
  8
0
 10
66.6338
 20
4.37891
 11
66.667
 21
4.36719
  0
LINE
  8
0
 10
66.667
 20
4.36719
 11
66.6992
 21
4.35449
  0
LINE
  8
0
 10
66.6992
 20
4.35449
 11
66.7637
 21
4.32715
  0
LINE
  8
0
 10
66.7637
 20
4.32715
 11
66.7949
 21
4.3125
  0
LINE
  8
0
 10
66.7949
 20
4.3125
 11
66.8271
 21
4.29785
  0
LINE
  8
0
 10
66.8271
 20
4.29785
 11
66.8584
 21
4.28223
  0
LINE
  8
0
 10
66.8584
 20
4.28223
 11
66.8887
 21
4.26562
  0
LINE
  8
0
 10
66.8887
 20
4.26562
 11
66.9199
 21
4.24902
  0
LINE
  8
0
 10
66.9199
 20
4.24902
 11
66.9502
 21
4.23242
  0
LINE
  8
0
 10
66.9502
 20
4.23242
 11
66.9805
 21
4.21387
  0
LINE
  8
0
 10
66.9805
 20
4.21387
 11
67.0098
 21
4.19629
  0
LINE
  8
0
 10
67.0098
 20
4.19629
 11
67.0391
 21
4.17773
  0
LINE
  8
0
 10
67.0391
 20
4.17773
 11
67.0684
 21
4.1582
  0
LINE
  8
0
 10
67.0684
 20
4.1582
 11
67.0967
 21
4.13867
  0
LINE
  8
0
 10
67.0967
 20
4.13867
 11
67.126
 21
4.11816
  0
LINE
  8
0
 10
67.126
 20
4.11816
 11
67.1533
 21
4.09766
  0
LINE
  8
0
 10
67.1533
 20
4.09766
 11
67.1816
 21
4.07617
  0
LINE
  8
0
 10
67.1816
 20
4.07617
 11
67.209
 21
4.05469
  0
LINE
  8
0
 10
67.209
 20
4.05469
 11
67.2617
 21
4.00977
  0
LINE
  8
0
 10
67.2617
 20
4.00977
 11
67.3145
 21
3.96289
  0
LINE
  8
0
 10
67.3145
 20
3.96289
 11
67.3389
 21
3.93848
  0
LINE
  8
0
 10
67.3389
 20
3.93848
 11
67.3643
 21
3.91406
  0
LINE
  8
0
 10
67.3643
 20
3.91406
 11
67.3887
 21
3.88965
  0
LINE
  8
0
 10
67.3887
 20
3.88965
 11
67.4131
 21
3.86426
  0
LINE
  8
0
 10
67.4131
 20
3.86426
 11
67.4365
 21
3.83789
  0
LINE
  8
0
 10
67.4365
 20
3.83789
 11
67.459
 21
3.8125
  0
LINE
  8
0
 10
67.459
 20
3.8125
 11
67.4824
 21
3.78516
  0
LINE
  8
0
 10
67.4824
 20
3.78516
 11
67.5039
 21
3.75879
  0
LINE
  8
0
 10
67.5039
 20
3.75879
 11
67.5264
 21
3.73145
  0
LINE
  8
0
 10
67.5264
 20
3.73145
 11
67.5469
 21
3.7041
  0
LINE
  8
0
 10
67.5469
 20
3.7041
 11
67.5684
 21
3.67578
  0
LINE
  8
0
 10
67.5684
 20
3.67578
 11
67.5879
 21
3.64746
  0
LINE
  8
0
 10
67.5879
 20
3.64746
 11
67.6084
 21
3.61816
  0
LINE
  8
0
 10
67.6084
 20
3.61816
 11
67.627
 21
3.58887
  0
LINE
  8
0
 10
67.627
 20
3.58887
 11
67.6465
 21
3.55957
  0
LINE
  8
0
 10
67.6465
 20
3.55957
 11
67.6641
 21
3.53027
  0
LINE
  8
0
 10
67.6641
 20
3.53027
 11
67.6992
 21
3.46973
  0
LINE
  8
0
 10
67.6992
 20
3.46973
 11
67.7158
 21
3.43848
  0
LINE
  8
0
 10
67.7158
 20
3.43848
 11
67.7324
 21
3.4082
  0
LINE
  8
0
 10
67.7324
 20
3.4082
 11
67.748
 21
3.37695
  0
LINE
  8
0
 10
67.748
 20
3.37695
 11
67.7627
 21
3.3457
  0
LINE
  8
0
 10
67.7627
 20
3.3457
 11
67.7773
 21
3.31348
  0
LINE
  8
0
 10
67.7773
 20
3.31348
 11
67.8047
 21
3.24902
  0
LINE
  8
0
 10
67.8047
 20
3.24902
 11
67.8174
 21
3.2168
  0
LINE
  8
0
 10
67.8174
 20
3.2168
 11
67.8291
 21
3.18359
  0
LINE
  8
0
 10
67.8291
 20
3.18359
 11
67.8408
 21
3.15137
  0
LINE
  8
0
 10
67.8408
 20
3.15137
 11
67.8525
 21
3.11816
  0
LINE
  8
0
 10
67.8525
 20
3.11816
 11
67.8721
 21
3.05176
  0
LINE
  8
0
 10
67.8721
 20
3.05176
 11
67.8818
 21
3.01758
  0
LINE
  8
0
 10
67.8818
 20
3.01758
 11
67.8906
 21
2.9834
  0
LINE
  8
0
 10
67.8906
 20
2.9834
 11
67.8984
 21
2.9502
  0
LINE
  8
0
 10
67.8984
 20
2.9502
 11
67.9062
 21
2.91602
  0
LINE
  8
0
 10
67.9062
 20
2.91602
 11
67.9199
 21
2.84766
  0
LINE
  8
0
 10
67.9199
 20
2.84766
 11
67.9258
 21
2.8125
  0
LINE
  8
0
 10
67.9258
 20
2.8125
 11
67.9355
 21
2.74414
  0
LINE
  8
0
 10
67.9355
 20
2.74414
 11
67.9395
 21
2.70898
  0
LINE
  8
0
 10
67.9395
 20
2.70898
 11
67.9424
 21
2.67383
  0
LINE
  8
0
 10
67.9424
 20
2.67383
 11
67.9453
 21
2.63965
  0
LINE
  8
0
 10
67.9453
 20
2.63965
 11
67.9492
 21
2.56934
  0
LINE
  8
0
 10
67.9492
 20
2.56934
 11
67.9492
 21
2.53516
  0
LINE
  8
0
 10
67.9492
 20
2.53516
 11
67.9502
 21
2.5
  0
LINE
  8
0
 10
67.9502
 20
2.5
 11
67.9502
 21
1.96484
  0
LINE
  8
0
 10
67.9502
 20
1.96484
 11
67.9512
 21
1.93066
  0
LINE
  8
0
 10
67.9512
 20
1.93066
 11
67.9551
 21
1.86035
  0
LINE
  8
0
 10
67.9551
 20
1.86035
 11
67.958
 21
1.82617
  0
LINE
  8
0
 10
67.958
 20
1.82617
 11
67.9609
 21
1.79102
  0
LINE
  8
0
 10
67.9609
 20
1.79102
 11
67.9648
 21
1.75586
  0
LINE
  8
0
 10
67.9648
 20
1.75586
 11
67.9746
 21
1.6875
  0
LINE
  8
0
 10
67.9746
 20
1.6875
 11
67.9805
 21
1.65234
  0
LINE
  8
0
 10
67.9805
 20
1.65234
 11
67.9863
 21
1.61816
  0
LINE
  8
0
 10
67.9863
 20
1.61816
 11
67.9941
 21
1.58398
  0
LINE
  8
0
 10
67.9941
 20
1.58398
 11
68.001
 21
1.5498
  0
LINE
  8
0
 10
68.001
 20
1.5498
 11
68.0098
 21
1.5166
  0
LINE
  8
0
 10
68.0098
 20
1.5166
 11
68.0273
 21
1.44824
  0
LINE
  8
0
 10
68.0273
 20
1.44824
 11
68.0371
 21
1.41504
  0
LINE
  8
0
 10
68.0371
 20
1.41504
 11
68.0586
 21
1.34863
  0
LINE
  8
0
 10
68.0586
 20
1.34863
 11
68.0703
 21
1.31641
  0
LINE
  8
0
 10
68.0703
 20
1.31641
 11
68.083
 21
1.2832
  0
LINE
  8
0
 10
68.083
 20
1.2832
 11
68.0957
 21
1.25098
  0
LINE
  8
0
 10
68.0957
 20
1.25098
 11
68.123
 21
1.18652
  0
LINE
  8
0
 10
68.123
 20
1.18652
 11
68.1377
 21
1.1543
  0
LINE
  8
0
 10
68.1377
 20
1.1543
 11
68.1523
 21
1.12305
  0
LINE
  8
0
 10
68.1523
 20
1.12305
 11
68.168
 21
1.0918
  0
LINE
  8
0
 10
68.168
 20
1.0918
 11
68.1846
 21
1.06152
  0
LINE
  8
0
 10
68.1846
 20
1.06152
 11
68.2012
 21
1.03027
  0
LINE
  8
0
 10
68.2012
 20
1.03027
 11
68.2178
 21
1
  0
LINE
  8
0
 10
68.2178
 20
1
 11
68.2354
 21
0.969727
  0
LINE
  8
0
 10
68.2354
 20
0.969727
 11
68.2725
 21
0.911133
  0
LINE
  8
0
 10
68.2725
 20
0.911133
 11
68.3115
 21
0.852539
  0
LINE
  8
0
 10
68.3115
 20
0.852539
 11
68.3525
 21
0.795898
  0
LINE
  8
0
 10
68.3525
 20
0.795898
 11
68.3955
 21
0.741211
  0
LINE
  8
0
 10
68.3955
 20
0.741211
 11
68.418
 21
0.714844
  0
LINE
  8
0
 10
68.418
 20
0.714844
 11
68.4404
 21
0.6875
  0
LINE
  8
0
 10
68.4404
 20
0.6875
 11
68.4639
 21
0.662109
  0
LINE
  8
0
 10
68.4639
 20
0.662109
 11
68.4873
 21
0.635742
  0
LINE
  8
0
 10
68.4873
 20
0.635742
 11
68.5117
 21
0.610352
  0
LINE
  8
0
 10
68.5117
 20
0.610352
 11
68.5605
 21
0.561523
  0
LINE
  8
0
 10
68.5605
 20
0.561523
 11
68.5859
 21
0.537109
  0
LINE
  8
0
 10
68.5859
 20
0.537109
 11
68.6113
 21
0.513672
  0
LINE
  8
0
 10
68.6113
 20
0.513672
 11
68.6377
 21
0.490234
  0
LINE
  8
0
 10
68.6377
 20
0.490234
 11
68.6641
 21
0.467773
  0
LINE
  8
0
 10
68.6641
 20
0.467773
 11
68.6914
 21
0.445312
  0
LINE
  8
0
 10
68.6914
 20
0.445312
 11
68.7461
 21
0.402344
  0
LINE
  8
0
 10
68.7461
 20
0.402344
 11
68.8027
 21
0.361328
  0
LINE
  8
0
 10
68.8027
 20
0.361328
 11
68.832
 21
0.341797
  0
LINE
  8
0
 10
68.832
 20
0.341797
 11
68.8604
 21
0.322266
  0
LINE
  8
0
 10
68.8604
 20
0.322266
 11
68.8906
 21
0.303711
  0
LINE
  8
0
 10
68.8906
 20
0.303711
 11
68.9199
 21
0.286133
  0
LINE
  8
0
 10
68.9199
 20
0.286133
 11
68.9502
 21
0.267578
  0
LINE
  8
0
 10
68.9502
 20
0.267578
 11
69.0107
 21
0.234375
  0
LINE
  8
0
 10
69.0107
 20
0.234375
 11
69.042
 21
0.217773
  0
LINE
  8
0
 10
69.042
 20
0.217773
 11
69.0732
 21
0.202148
  0
LINE
  8
0
 10
69.0732
 20
0.202148
 11
69.1045
 21
0.1875
  0
LINE
  8
0
 10
69.1045
 20
0.1875
 11
69.1367
 21
0.172852
  0
LINE
  8
0
 10
69.1367
 20
0.172852
 11
69.2012
 21
0.145508
  0
LINE
  8
0
 10
69.2012
 20
0.145508
 11
69.2334
 21
0.132812
  0
LINE
  8
0
 10
69.2334
 20
0.132812
 11
69.2656
 21
0.121094
  0
LINE
  8
0
 10
69.2656
 20
0.121094
 11
69.332
 21
0.0976562
  0
LINE
  8
0
 10
69.332
 20
0.0976562
 11
69.3652
 21
0.0869141
  0
LINE
  8
0
 10
69.3652
 20
0.0869141
 11
69.3984
 21
0.0771484
  0
LINE
  8
0
 10
69.3984
 20
0.0771484
 11
69.4326
 21
0.0683594
  0
LINE
  8
0
 10
69.4326
 20
0.0683594
 11
69.4658
 21
0.0595703
  0
LINE
  8
0
 10
69.4658
 20
0.0595703
 11
69.5
 21
0.0507812
  0
LINE
  8
0
 10
69.5
 20
0.0507812
 11
69.6025
 21
0.0302734
  0
LINE
  8
0
 10
69.6025
 20
0.0302734
 11
69.6367
 21
0.0244141
  0
LINE
  8
0
 10
69.6367
 20
0.0244141
 11
69.6719
 21
0.0195312
  0
LINE
  8
0
 10
69.6719
 20
0.0195312
 11
69.7061
 21
0.0146484
  0
LINE
  8
0
 10
69.7061
 20
0.0146484
 11
69.7412
 21
0.0107422
  0
LINE
  8
0
 10
69.7412
 20
0.0107422
 11
69.7754
 21
0.0078125
  0
LINE
  8
0
 10
69.7754
 20
0.0078125
 11
69.8105
 21
0.00488281
  0
LINE
  8
0
 10
69.8105
 20
0.00488281
 11
69.8457
 21
0.00292969
  0
LINE
  8
0
 10
69.8457
 20
0.00292969
 11
69.8799
 21
0.000976562
  0
LINE
  8
0
 10
69.8799
 20
0.000976562
 11
69.915
 21
0
  0
LINE
  8
0
 10
69.915
 20
0
 11
99.9678
 21
0
  0
LINE
  8
0
 10
99.9678
 20
0
 11
99.9854
 21
0.000976562
  0
LINE
  8
0
 10
99.9854
 20
0.000976562
 11
100.002
 21
0.000976562
  0
LINE
  8
0
 10
100.002
 20
0.000976562
 11
100.02
 21
0.00195312
  0
LINE
  8
0
 10
100.02
 20
0.00195312
 11
100.072
 21
0.0078125
  0
LINE
  8
0
 10
100.072
 20
0.0078125
 11
100.089
 21
0.00976562
  0
LINE
  8
0
 10
100.089
 20
0.00976562
 11
100.124
 21
0.015625
  0
LINE
  8
0
 10
100.124
 20
0.015625
 11
100.141
 21
0.0185547
  0
LINE
  8
0
 10
100.141
 20
0.0185547
 11
100.158
 21
0.0214844
  0
LINE
  8
0
 10
100.158
 20
0.0214844
 11
100.175
 21
0.0253906
  0
LINE
  8
0
 10
100.175
 20
0.0253906
 11
100.192
 21
0.0292969
  0
LINE
  8
0
 10
100.192
 20
0.0292969
 11
100.259
 21
0.0488281
  0
LINE
  8
0
 10
100.259
 20
0.0488281
 11
100.309
 21
0.0664062
  0
LINE
  8
0
 10
100.309
 20
0.0664062
 11
100.324
 21
0.0732422
  0
LINE
  8
0
 10
100.324
 20
0.0732422
 11
100.341
 21
0.0791016
  0
LINE
  8
0
 10
100.341
 20
0.0791016
 11
100.356
 21
0.0869141
  0
LINE
  8
0
 10
100.356
 20
0.0869141
 11
100.373
 21
0.09375
  0
LINE
  8
0
 10
100.373
 20
0.09375
 11
100.42
 21
0.117188
  0
LINE
  8
0
 10
100.42
 20
0.117188
 11
100.435
 21
0.125
  0
LINE
  8
0
 10
100.435
 20
0.125
 11
100.45
 21
0.133789
  0
LINE
  8
0
 10
100.45
 20
0.133789
 11
100.465
 21
0.142578
  0
LINE
  8
0
 10
100.465
 20
0.142578
 11
100.479
 21
0.152344
  0
LINE
  8
0
 10
100.479
 20
0.152344
 11
100.495
 21
0.161133
  0
LINE
  8
0
 10
100.495
 20
0.161133
 11
100.509
 21
0.170898
  0
LINE
  8
0
 10
100.509
 20
0.170898
 11
100.523
 21
0.180664
  0
LINE
  8
0
 10
100.523
 20
0.180664
 11
100.538
 21
0.191406
  0
LINE
  8
0
 10
100.538
 20
0.191406
 11
100.552
 21
0.201172
  0
LINE
  8
0
 10
100.552
 20
0.201172
 11
100.579
 21
0.222656
  0
LINE
  8
0
 10
100.579
 20
0.222656
 11
100.593
 21
0.234375
  0
LINE
  8
0
 10
100.593
 20
0.234375
 11
100.606
 21
0.245117
  0
LINE
  8
0
 10
100.606
 20
0.245117
 11
100.645
 21
0.280273
  0
LINE
  8
0
 10
100.645
 20
0.280273
 11
100.657
 21
0.292969
  0
LINE
  8
0
 10
100.657
 20
0.292969
 11
100.669
 21
0.305664
  0
LINE
  8
0
 10
100.669
 20
0.305664
 11
100.682
 21
0.318359
  0
LINE
  8
0
 10
100.682
 20
0.318359
 11
100.705
 21
0.34375
  0
LINE
  8
0
 10
100.705
 20
0.34375
 11
100.716
 21
0.357422
  0
LINE
  8
0
 10
100.716
 20
0.357422
 11
100.728
 21
0.371094
  0
LINE
  8
0
 10
100.728
 20
0.371094
 11
100.749
 21
0.398438
  0
LINE
  8
0
 10
100.749
 20
0.398438
 11
100.759
 21
0.412109
  0
LINE
  8
0
 10
100.759
 20
0.412109
 11
100.77
 21
0.426758
  0
LINE
  8
0
 10
100.77
 20
0.426758
 11
100.779
 21
0.44043
  0
LINE
  8
0
 10
100.779
 20
0.44043
 11
100.789
 21
0.455078
  0
LINE
  8
0
 10
100.789
 20
0.455078
 11
100.798
 21
0.469727
  0
LINE
  8
0
 10
100.798
 20
0.469727
 11
100.808
 21
0.485352
  0
LINE
  8
0
 10
100.808
 20
0.485352
 11
100.816
 21
0.5
  0
LINE
  8
0
 10
100.816
 20
0.5
 11
100.824
 21
0.515625
  0
LINE
  8
0
 10
100.824
 20
0.515625
 11
100.833
 21
0.530273
  0
LINE
  8
0
 10
100.833
 20
0.530273
 11
100.856
 21
0.577148
  0
LINE
  8
0
 10
100.856
 20
0.577148
 11
100.863
 21
0.59375
  0
LINE
  8
0
 10
100.863
 20
0.59375
 11
100.877
 21
0.625
  0
LINE
  8
0
 10
100.877
 20
0.625
 11
100.884
 21
0.641602
  0
LINE
  8
0
 10
100.884
 20
0.641602
 11
100.901
 21
0.691406
  0
LINE
  8
0
 10
100.901
 20
0.691406
 11
100.916
 21
0.741211
  0
LINE
  8
0
 10
100.916
 20
0.741211
 11
100.92
 21
0.757812
  0
LINE
  8
0
 10
100.92
 20
0.757812
 11
100.925
 21
0.775391
  0
LINE
  8
0
 10
100.925
 20
0.775391
 11
100.928
 21
0.791992
  0
LINE
  8
0
 10
100.928
 20
0.791992
 11
100.932
 21
0.80957
  0
LINE
  8
0
 10
100.932
 20
0.80957
 11
100.935
 21
0.826172
  0
LINE
  8
0
 10
100.935
 20
0.826172
 11
100.938
 21
0.84375
  0
LINE
  8
0
 10
100.938
 20
0.84375
 11
100.94
 21
0.860352
  0
LINE
  8
0
 10
100.94
 20
0.860352
 11
100.946
 21
0.913086
  0
LINE
  8
0
 10
100.946
 20
0.913086
 11
100.947
 21
0.930664
  0
LINE
  8
0
 10
100.947
 20
0.930664
 11
100.948
 21
0.947266
  0
LINE
  8
0
 10
100.948
 20
0.947266
 11
100.95
 21
0.982422
  0
LINE
  8
0
 10
100.95
 20
0.982422
 11
100.95
 21
3.96777
  0
LINE
  8
0
 10
100.95
 20
3.96777
 11
100.949
 21
3.98535
  0
LINE
  8
0
 10
100.949
 20
3.98535
 11
100.948
 21
4.00195
  0
LINE
  8
0
 10
100.948
 20
4.00195
 11
100.946
 21
4.03711
  0
LINE
  8
0
 10
100.946
 20
4.03711
 11
100.942
 21
4.07227
  0
LINE
  8
0
 10
100.942
 20
4.07227
 11
100.94
 21
4.08887
  0
LINE
  8
0
 10
100.94
 20
4.08887
 11
100.935
 21
4.12402
  0
LINE
  8
0
 10
100.935
 20
4.12402
 11
100.932
 21
4.14062
  0
LINE
  8
0
 10
100.932
 20
4.14062
 11
100.928
 21
4.1582
  0
LINE
  8
0
 10
100.928
 20
4.1582
 11
100.925
 21
4.1748
  0
LINE
  8
0
 10
100.925
 20
4.1748
 11
100.92
 21
4.19238
  0
LINE
  8
0
 10
100.92
 20
4.19238
 11
100.916
 21
4.20898
  0
LINE
  8
0
 10
100.916
 20
4.20898
 11
100.901
 21
4.25879
  0
LINE
  8
0
 10
100.901
 20
4.25879
 11
100.884
 21
4.30859
  0
LINE
  8
0
 10
100.884
 20
4.30859
 11
100.877
 21
4.32422
  0
LINE
  8
0
 10
100.877
 20
4.32422
 11
100.87
 21
4.34082
  0
LINE
  8
0
 10
100.87
 20
4.34082
 11
100.863
 21
4.35645
  0
LINE
  8
0
 10
100.863
 20
4.35645
 11
100.856
 21
4.37305
  0
LINE
  8
0
 10
100.856
 20
4.37305
 11
100.833
 21
4.41992
  0
LINE
  8
0
 10
100.833
 20
4.41992
 11
100.824
 21
4.43457
  0
LINE
  8
0
 10
100.824
 20
4.43457
 11
100.816
 21
4.4502
  0
LINE
  8
0
 10
100.816
 20
4.4502
 11
100.808
 21
4.46484
  0
LINE
  8
0
 10
100.808
 20
4.46484
 11
100.798
 21
4.47949
  0
LINE
  8
0
 10
100.798
 20
4.47949
 11
100.789
 21
4.49512
  0
LINE
  8
0
 10
100.789
 20
4.49512
 11
100.779
 21
4.50879
  0
LINE
  8
0
 10
100.779
 20
4.50879
 11
100.77
 21
4.52344
  0
LINE
  8
0
 10
100.77
 20
4.52344
 11
100.759
 21
4.53809
  0
LINE
  8
0
 10
100.759
 20
4.53809
 11
100.749
 21
4.55176
  0
LINE
  8
0
 10
100.749
 20
4.55176
 11
100.728
 21
4.5791
  0
LINE
  8
0
 10
100.728
 20
4.5791
 11
100.716
 21
4.59277
  0
LINE
  8
0
 10
100.716
 20
4.59277
 11
100.705
 21
4.60645
  0
LINE
  8
0
 10
100.705
 20
4.60645
 11
100.682
 21
4.63184
  0
LINE
  8
0
 10
100.682
 20
4.63184
 11
100.669
 21
4.64453
  0
LINE
  8
0
 10
100.669
 20
4.64453
 11
100.657
 21
4.65723
  0
LINE
  8
0
 10
100.657
 20
4.65723
 11
100.645
 21
4.66895
  0
LINE
  8
0
 10
100.645
 20
4.66895
 11
100.632
 21
4.68164
  0
LINE
  8
0
 10
100.632
 20
4.68164
 11
100.606
 21
4.70508
  0
LINE
  8
0
 10
100.606
 20
4.70508
 11
100.593
 21
4.71582
  0
LINE
  8
0
 10
100.593
 20
4.71582
 11
100.579
 21
4.72754
  0
LINE
  8
0
 10
100.579
 20
4.72754
 11
100.552
 21
4.74902
  0
LINE
  8
0
 10
100.552
 20
4.74902
 11
100.538
 21
4.75879
  0
LINE
  8
0
 10
100.538
 20
4.75879
 11
100.523
 21
4.76953
  0
LINE
  8
0
 10
100.523
 20
4.76953
 11
100.509
 21
4.7793
  0
LINE
  8
0
 10
100.509
 20
4.7793
 11
100.495
 21
4.78906
  0
LINE
  8
0
 10
100.495
 20
4.78906
 11
100.479
 21
4.79785
  0
LINE
  8
0
 10
100.479
 20
4.79785
 11
100.465
 21
4.80762
  0
LINE
  8
0
 10
100.465
 20
4.80762
 11
100.45
 21
4.81641
  0
LINE
  8
0
 10
100.45
 20
4.81641
 11
100.435
 21
4.82422
  0
LINE
  8
0
 10
100.435
 20
4.82422
 11
100.42
 21
4.83301
  0
LINE
  8
0
 10
100.42
 20
4.83301
 11
100.373
 21
4.85645
  0
LINE
  8
0
 10
100.373
 20
4.85645
 11
100.356
 21
4.86328
  0
LINE
  8
0
 10
100.356
 20
4.86328
 11
100.341
 21
4.87012
  0
LINE
  8
0
 10
100.341
 20
4.87012
 11
100.324
 21
4.87695
  0
LINE
  8
0
 10
100.324
 20
4.87695
 11
100.309
 21
4.88379
  0
LINE
  8
0
 10
100.309
 20
4.88379
 11
100.259
 21
4.90137
  0
LINE
  8
0
 10
100.259
 20
4.90137
 11
100.209
 21
4.91602
  0
LINE
  8
0
 10
100.209
 20
4.91602
 11
100.192
 21
4.91992
  0
LINE
  8
0
 10
100.192
 20
4.91992
 11
100.175
 21
4.9248
  0
LINE
  8
0
 10
100.175
 20
4.9248
 11
100.158
 21
4.92773
  0
LINE
  8
0
 10
100.158
 20
4.92773
 11
100.141
 21
4.93164
  0
LINE
  8
0
 10
100.141
 20
4.93164
 11
100.124
 21
4.93457
  0
LINE
  8
0
 10
100.124
 20
4.93457
 11
100.089
 21
4.94043
  0
LINE
  8
0
 10
100.089
 20
4.94043
 11
100.072
 21
4.94238
  0
LINE
  8
0
 10
100.072
 20
4.94238
 11
100.037
 21
4.94629
  0
LINE
  8
0
 10
100.037
 20
4.94629
 11
100.002
 21
4.94824
  0
LINE
  8
0
 10
100.002
 20
4.94824
 11
99.9854
 21
4.94922
  0
LINE
  8
0
 10
99.9854
 20
4.94922
 11
99.9678
 21
4.9502
  0
LINE
  8
0
 10
99.9678
 20
4.9502
 11
87.915
 21
4.9502
  0
LINE
  8
0
 10
87.915
 20
4.9502
 11
87.8799
 21
4.95215
  0
LINE
  8
0
 10
87.8799
 20
4.95215
 11
87.8633
 21
4.9541
  0
LINE
  8
0
 10
87.8633
 20
4.9541
 11
87.8457
 21
4.95508
  0
LINE
  8
0
 10
87.8457
 20
4.95508
 11
87.8281
 21
4.95703
  0
LINE
  8
0
 10
87.8281
 20
4.95703
 11
87.8105
 21
4.95996
  0
LINE
  8
0
 10
87.8105
 20
4.95996
 11
87.7939
 21
4.96191
  0
LINE
  8
0
 10
87.7939
 20
4.96191
 11
87.7764
 21
4.96484
  0
LINE
  8
0
 10
87.7764
 20
4.96484
 11
87.7588
 21
4.96875
  0
LINE
  8
0
 10
87.7588
 20
4.96875
 11
87.7422
 21
4.97168
  0
LINE
  8
0
 10
87.7422
 20
4.97168
 11
87.7246
 21
4.97559
  0
LINE
  8
0
 10
87.7246
 20
4.97559
 11
87.708
 21
4.97949
  0
LINE
  8
0
 10
87.708
 20
4.97949
 11
87.6914
 21
4.98438
  0
LINE
  8
0
 10
87.6914
 20
4.98438
 11
87.6748
 21
4.98828
  0
LINE
  8
0
 10
87.6748
 20
4.98828
 11
87.6572
 21
4.99414
  0
LINE
  8
0
 10
87.6572
 20
4.99414
 11
87.6406
 21
4.99902
  0
LINE
  8
0
 10
87.6406
 20
4.99902
 11
87.624
 21
5.00488
  0
LINE
  8
0
 10
87.624
 20
5.00488
 11
87.6084
 21
5.01074
  0
LINE
  8
0
 10
87.6084
 20
5.01074
 11
87.5752
 21
5.02246
  0
LINE
  8
0
 10
87.5752
 20
5.02246
 11
87.5596
 21
5.0293
  0
LINE
  8
0
 10
87.5596
 20
5.0293
 11
87.543
 21
5.03613
  0
LINE
  8
0
 10
87.543
 20
5.03613
 11
87.5273
 21
5.04395
  0
LINE
  8
0
 10
87.5273
 20
5.04395
 11
87.5117
 21
5.05078
  0
LINE
  8
0
 10
87.5117
 20
5.05078
 11
87.4961
 21
5.05859
  0
LINE
  8
0
 10
87.4961
 20
5.05859
 11
87.4805
 21
5.06738
  0
LINE
  8
0
 10
87.4805
 20
5.06738
 11
87.4648
 21
5.0752
  0
LINE
  8
0
 10
87.4648
 20
5.0752
 11
87.4502
 21
5.08398
  0
LINE
  8
0
 10
87.4502
 20
5.08398
 11
87.4346
 21
5.09277
  0
LINE
  8
0
 10
87.4346
 20
5.09277
 11
87.4199
 21
5.10156
  0
LINE
  8
0
 10
87.4199
 20
5.10156
 11
87.376
 21
5.13086
  0
LINE
  8
0
 10
87.376
 20
5.13086
 11
87.3623
 21
5.14062
  0
LINE
  8
0
 10
87.3623
 20
5.14062
 11
87.3486
 21
5.15137
  0
LINE
  8
0
 10
87.3486
 20
5.15137
 11
87.334
 21
5.16211
  0
LINE
  8
0
 10
87.334
 20
5.16211
 11
87.3203
 21
5.17285
  0
LINE
  8
0
 10
87.3203
 20
5.17285
 11
87.3076
 21
5.18359
  0
LINE
  8
0
 10
87.3076
 20
5.18359
 11
87.2939
 21
5.19531
  0
LINE
  8
0
 10
87.2939
 20
5.19531
 11
87.2812
 21
5.20703
  0
LINE
  8
0
 10
87.2812
 20
5.20703
 11
87.2676
 21
5.21875
  0
LINE
  8
0
 10
87.2676
 20
5.21875
 11
87.2549
 21
5.23047
  0
LINE
  8
0
 10
87.2549
 20
5.23047
 11
87.2432
 21
5.24316
  0
LINE
  8
0
 10
87.2432
 20
5.24316
 11
87.2305
 21
5.25488
  0
LINE
  8
0
 10
87.2305
 20
5.25488
 11
87.2188
 21
5.26758
  0
LINE
  8
0
 10
87.2188
 20
5.26758
 11
87.207
 21
5.28125
  0
LINE
  8
0
 10
87.207
 20
5.28125
 11
87.1953
 21
5.29395
  0
LINE
  8
0
 10
87.1953
 20
5.29395
 11
87.1836
 21
5.30762
  0
LINE
  8
0
 10
87.1836
 20
5.30762
 11
87.1729
 21
5.32031
  0
LINE
  8
0
 10
87.1729
 20
5.32031
 11
87.1621
 21
5.33398
  0
LINE
  8
0
 10
87.1621
 20
5.33398
 11
87.1514
 21
5.34863
  0
LINE
  8
0
 10
87.1514
 20
5.34863
 11
87.1406
 21
5.3623
  0
LINE
  8
0
 10
87.1406
 20
5.3623
 11
87.1309
 21
5.37598
  0
LINE
  8
0
 10
87.1309
 20
5.37598
 11
87.1016
 21
5.41992
  0
LINE
  8
0
 10
87.1016
 20
5.41992
 11
87.0928
 21
5.43457
  0
LINE
  8
0
 10
87.0928
 20
5.43457
 11
87.084
 21
5.4502
  0
LINE
  8
0
 10
87.084
 20
5.4502
 11
87.0752
 21
5.46484
  0
LINE
  8
0
 10
87.0752
 20
5.46484
 11
87.0674
 21
5.48047
  0
LINE
  8
0
 10
87.0674
 20
5.48047
 11
87.0586
 21
5.49609
  0
LINE
  8
0
 10
87.0586
 20
5.49609
 11
87.0508
 21
5.51172
  0
LINE
  8
0
 10
87.0508
 20
5.51172
 11
87.0439
 21
5.52734
  0
LINE
  8
0
 10
87.0439
 20
5.52734
 11
87.0361
 21
5.54297
  0
LINE
  8
0
 10
87.0361
 20
5.54297
 11
87.0293
 21
5.55957
  0
LINE
  8
0
 10
87.0293
 20
5.55957
 11
87.0225
 21
5.5752
  0
LINE
  8
0
 10
87.0225
 20
5.5752
 11
87.0107
 21
5.6084
  0
LINE
  8
0
 10
87.0107
 20
5.6084
 11
87.0049
 21
5.62402
  0
LINE
  8
0
 10
87.0049
 20
5.62402
 11
86.999
 21
5.64062
  0
LINE
  8
0
 10
86.999
 20
5.64062
 11
86.9941
 21
5.65723
  0
LINE
  8
0
 10
86.9941
 20
5.65723
 11
86.9883
 21
5.6748
  0
LINE
  8
0
 10
86.9883
 20
5.6748
 11
86.9844
 21
5.69141
  0
LINE
  8
0
 10
86.9844
 20
5.69141
 11
86.9795
 21
5.70801
  0
LINE
  8
0
 10
86.9795
 20
5.70801
 11
86.9756
 21
5.72461
  0
LINE
  8
0
 10
86.9756
 20
5.72461
 11
86.9717
 21
5.74219
  0
LINE
  8
0
 10
86.9717
 20
5.74219
 11
86.9688
 21
5.75879
  0
LINE
  8
0
 10
86.9688
 20
5.75879
 11
86.9648
 21
5.77637
  0
LINE
  8
0
 10
86.9648
 20
5.77637
 11
86.9619
 21
5.79395
  0
LINE
  8
0
 10
86.9619
 20
5.79395
 11
86.96
 21
5.81055
  0
LINE
  8
0
 10
86.96
 20
5.81055
 11
86.957
 21
5.82812
  0
LINE
  8
0
 10
86.957
 20
5.82812
 11
86.9551
 21
5.8457
  0
LINE
  8
0
 10
86.9551
 20
5.8457
 11
86.9541
 21
5.86328
  0
LINE
  8
0
 10
86.9541
 20
5.86328
 11
86.9521
 21
5.87988
  0
LINE
  8
0
 10
86.9521
 20
5.87988
 11
86.9502
 21
5.91504
  0
LINE
  8
0
 10
86.9502
 20
5.91504
 11
86.9502
 21
7.68457
  0
LINE
  8
0
 10
86.9502
 20
7.68457
 11
86.9521
 21
7.71973
  0
LINE
  8
0
 10
86.9521
 20
7.71973
 11
86.9541
 21
7.7373
  0
LINE
  8
0
 10
86.9541
 20
7.7373
 11
86.9551
 21
7.75488
  0
LINE
  8
0
 10
86.9551
 20
7.75488
 11
86.957
 21
7.77148
  0
LINE
  8
0
 10
86.957
 20
7.77148
 11
86.96
 21
7.78906
  0
LINE
  8
0
 10
86.96
 20
7.78906
 11
86.9619
 21
7.80664
  0
LINE
  8
0
 10
86.9619
 20
7.80664
 11
86.9648
 21
7.82324
  0
LINE
  8
0
 10
86.9648
 20
7.82324
 11
86.9688
 21
7.84082
  0
LINE
  8
0
 10
86.9688
 20
7.84082
 11
86.9717
 21
7.8584
  0
LINE
  8
0
 10
86.9717
 20
7.8584
 11
86.9795
 21
7.8916
  0
LINE
  8
0
 10
86.9795
 20
7.8916
 11
86.9844
 21
7.90918
  0
LINE
  8
0
 10
86.9844
 20
7.90918
 11
86.9883
 21
7.92578
  0
LINE
  8
0
 10
86.9883
 20
7.92578
 11
86.9941
 21
7.94238
  0
LINE
  8
0
 10
86.9941
 20
7.94238
 11
86.999
 21
7.95898
  0
LINE
  8
0
 10
86.999
 20
7.95898
 11
87.0166
 21
8.00879
  0
LINE
  8
0
 10
87.0166
 20
8.00879
 11
87.0225
 21
8.02441
  0
LINE
  8
0
 10
87.0225
 20
8.02441
 11
87.0293
 21
8.04102
  0
LINE
  8
0
 10
87.0293
 20
8.04102
 11
87.0361
 21
8.05664
  0
LINE
  8
0
 10
87.0361
 20
8.05664
 11
87.0439
 21
8.07227
  0
LINE
  8
0
 10
87.0439
 20
8.07227
 11
87.0508
 21
8.08789
  0
LINE
  8
0
 10
87.0508
 20
8.08789
 11
87.0586
 21
8.10352
  0
LINE
  8
0
 10
87.0586
 20
8.10352
 11
87.0674
 21
8.11914
  0
LINE
  8
0
 10
87.0674
 20
8.11914
 11
87.0752
 21
8.13477
  0
LINE
  8
0
 10
87.0752
 20
8.13477
 11
87.084
 21
8.15039
  0
LINE
  8
0
 10
87.084
 20
8.15039
 11
87.1016
 21
8.17969
  0
LINE
  8
0
 10
87.1016
 20
8.17969
 11
87.1309
 21
8.22363
  0
LINE
  8
0
 10
87.1309
 20
8.22363
 11
87.1406
 21
8.2373
  0
LINE
  8
0
 10
87.1406
 20
8.2373
 11
87.1514
 21
8.25195
  0
LINE
  8
0
 10
87.1514
 20
8.25195
 11
87.1836
 21
8.29297
  0
LINE
  8
0
 10
87.1836
 20
8.29297
 11
87.1953
 21
8.30566
  0
LINE
  8
0
 10
87.1953
 20
8.30566
 11
87.207
 21
8.31934
  0
LINE
  8
0
 10
87.207
 20
8.31934
 11
87.2305
 21
8.34473
  0
LINE
  8
0
 10
87.2305
 20
8.34473
 11
87.2676
 21
8.38184
  0
LINE
  8
0
 10
87.2676
 20
8.38184
 11
87.2812
 21
8.39355
  0
LINE
  8
0
 10
87.2812
 20
8.39355
 11
87.2939
 21
8.4043
  0
LINE
  8
0
 10
87.2939
 20
8.4043
 11
87.3076
 21
8.41602
  0
LINE
  8
0
 10
87.3076
 20
8.41602
 11
87.3203
 21
8.42676
  0
LINE
  8
0
 10
87.3203
 20
8.42676
 11
87.334
 21
8.43848
  0
LINE
  8
0
 10
87.334
 20
8.43848
 11
87.3486
 21
8.44824
  0
LINE
  8
0
 10
87.3486
 20
8.44824
 11
87.3623
 21
8.45898
  0
LINE
  8
0
 10
87.3623
 20
8.45898
 11
87.376
 21
8.46875
  0
LINE
  8
0
 10
87.376
 20
8.46875
 11
87.3906
 21
8.47949
  0
LINE
  8
0
 10
87.3906
 20
8.47949
 11
87.4053
 21
8.48828
  0
LINE
  8
0
 10
87.4053
 20
8.48828
 11
87.4199
 21
8.49805
  0
LINE
  8
0
 10
87.4199
 20
8.49805
 11
87.4346
 21
8.50684
  0
LINE
  8
0
 10
87.4346
 20
8.50684
 11
87.4502
 21
8.51562
  0
LINE
  8
0
 10
87.4502
 20
8.51562
 11
87.4648
 21
8.52441
  0
LINE
  8
0
 10
87.4648
 20
8.52441
 11
87.4805
 21
8.5332
  0
LINE
  8
0
 10
87.4805
 20
8.5332
 11
87.5273
 21
8.55664
  0
LINE
  8
0
 10
87.5273
 20
8.55664
 11
87.543
 21
8.56348
  0
LINE
  8
0
 10
87.543
 20
8.56348
 11
87.5596
 21
8.57031
  0
LINE
  8
0
 10
87.5596
 20
8.57031
 11
87.5752
 21
8.57715
  0
LINE
  8
0
 10
87.5752
 20
8.57715
 11
87.5918
 21
8.58398
  0
LINE
  8
0
 10
87.5918
 20
8.58398
 11
87.6084
 21
8.58984
  0
LINE
  8
0
 10
87.6084
 20
8.58984
 11
87.624
 21
8.5957
  0
LINE
  8
0
 10
87.624
 20
8.5957
 11
87.6406
 21
8.60059
  0
LINE
  8
0
 10
87.6406
 20
8.60059
 11
87.6572
 21
8.60645
  0
LINE
  8
0
 10
87.6572
 20
8.60645
 11
87.6748
 21
8.61133
  0
LINE
  8
0
 10
87.6748
 20
8.61133
 11
87.6914
 21
8.61621
  0
LINE
  8
0
 10
87.6914
 20
8.61621
 11
87.7246
 21
8.62402
  0
LINE
  8
0
 10
87.7246
 20
8.62402
 11
87.7422
 21
8.62793
  0
LINE
  8
0
 10
87.7422
 20
8.62793
 11
87.7588
 21
8.63184
  0
LINE
  8
0
 10
87.7588
 20
8.63184
 11
87.7939
 21
8.6377
  0
LINE
  8
0
 10
87.7939
 20
8.6377
 11
87.8105
 21
8.64062
  0
LINE
  8
0
 10
87.8105
 20
8.64062
 11
87.8633
 21
8.64648
  0
LINE
  8
0
 10
87.8633
 20
8.64648
 11
87.8799
 21
8.64746
  0
LINE
  8
0
 10
87.8799
 20
8.64746
 11
87.915
 21
8.64941
  0
LINE
  8
0
 10
87.915
 20
8.64941
 11
87.9326
 21
8.64941
  0
LINE
  8
0
 10
87.9326
 20
8.64941
 11
87.9502
 21
8.65039
  0
LINE
  8
0
 10
87.9502
 20
8.65039
 11
99.9854
 21
8.65039
  0
LINE
  8
0
 10
99.9854
 20
8.65039
 11
100.002
 21
8.65137
  0
LINE
  8
0
 10
100.002
 20
8.65137
 11
100.037
 21
8.65332
  0
LINE
  8
0
 10
100.037
 20
8.65332
 11
100.072
 21
8.65723
  0
LINE
  8
0
 10
100.072
 20
8.65723
 11
100.089
 21
8.66016
  0
LINE
  8
0
 10
100.089
 20
8.66016
 11
100.106
 21
8.66211
  0
LINE
  8
0
 10
100.106
 20
8.66211
 11
100.124
 21
8.66504
  0
LINE
  8
0
 10
100.124
 20
8.66504
 11
100.141
 21
8.66797
  0
LINE
  8
0
 10
100.141
 20
8.66797
 11
100.158
 21
8.67188
  0
LINE
  8
0
 10
100.158
 20
8.67188
 11
100.175
 21
8.67578
  0
LINE
  8
0
 10
100.175
 20
8.67578
 11
100.192
 21
8.67969
  0
LINE
  8
0
 10
100.192
 20
8.67969
 11
100.209
 21
8.68359
  0
LINE
  8
0
 10
100.209
 20
8.68359
 11
100.242
 21
8.69336
  0
LINE
  8
0
 10
100.242
 20
8.69336
 11
100.259
 21
8.69922
  0
LINE
  8
0
 10
100.259
 20
8.69922
 11
100.275
 21
8.7041
  0
LINE
  8
0
 10
100.275
 20
8.7041
 11
100.292
 21
8.70996
  0
LINE
  8
0
 10
100.292
 20
8.70996
 11
100.309
 21
8.7168
  0
LINE
  8
0
 10
100.309
 20
8.7168
 11
100.324
 21
8.72266
  0
LINE
  8
0
 10
100.324
 20
8.72266
 11
100.341
 21
8.72949
  0
LINE
  8
0
 10
100.341
 20
8.72949
 11
100.356
 21
8.73633
  0
LINE
  8
0
 10
100.356
 20
8.73633
 11
100.373
 21
8.74414
  0
LINE
  8
0
 10
100.373
 20
8.74414
 11
100.389
 21
8.75098
  0
LINE
  8
0
 10
100.389
 20
8.75098
 11
100.42
 21
8.7666
  0
LINE
  8
0
 10
100.42
 20
8.7666
 11
100.435
 21
8.77539
  0
LINE
  8
0
 10
100.435
 20
8.77539
 11
100.45
 21
8.78418
  0
LINE
  8
0
 10
100.45
 20
8.78418
 11
100.479
 21
8.80176
  0
LINE
  8
0
 10
100.479
 20
8.80176
 11
100.495
 21
8.81152
  0
LINE
  8
0
 10
100.495
 20
8.81152
 11
100.509
 21
8.82129
  0
LINE
  8
0
 10
100.509
 20
8.82129
 11
100.538
 21
8.84082
  0
LINE
  8
0
 10
100.538
 20
8.84082
 11
100.593
 21
8.88379
  0
LINE
  8
0
 10
100.593
 20
8.88379
 11
100.606
 21
8.89551
  0
LINE
  8
0
 10
100.606
 20
8.89551
 11
100.645
 21
8.93066
  0
LINE
  8
0
 10
100.645
 20
8.93066
 11
100.682
 21
8.96777
  0
LINE
  8
0
 10
100.682
 20
8.96777
 11
100.693
 21
8.98047
  0
LINE
  8
0
 10
100.693
 20
8.98047
 11
100.705
 21
8.99414
  0
LINE
  8
0
 10
100.705
 20
8.99414
 11
100.716
 21
9.00684
  0
LINE
  8
0
 10
100.716
 20
9.00684
 11
100.728
 21
9.02051
  0
LINE
  8
0
 10
100.728
 20
9.02051
 11
100.749
 21
9.04785
  0
LINE
  8
0
 10
100.749
 20
9.04785
 11
100.759
 21
9.0625
  0
LINE
  8
0
 10
100.759
 20
9.0625
 11
100.77
 21
9.07617
  0
LINE
  8
0
 10
100.77
 20
9.07617
 11
100.789
 21
9.10547
  0
LINE
  8
0
 10
100.789
 20
9.10547
 11
100.798
 21
9.12012
  0
LINE
  8
0
 10
100.798
 20
9.12012
 11
100.808
 21
9.13477
  0
LINE
  8
0
 10
100.808
 20
9.13477
 11
100.816
 21
9.15039
  0
LINE
  8
0
 10
100.816
 20
9.15039
 11
100.824
 21
9.16504
  0
LINE
  8
0
 10
100.824
 20
9.16504
 11
100.833
 21
9.18066
  0
LINE
  8
0
 10
100.833
 20
9.18066
 11
100.856
 21
9.22754
  0
LINE
  8
0
 10
100.856
 20
9.22754
 11
100.87
 21
9.25879
  0
LINE
  8
0
 10
100.87
 20
9.25879
 11
100.884
 21
9.29199
  0
LINE
  8
0
 10
100.884
 20
9.29199
 11
100.89
 21
9.30762
  0
LINE
  8
0
 10
100.89
 20
9.30762
 11
100.901
 21
9.34082
  0
LINE
  8
0
 10
100.901
 20
9.34082
 11
100.911
 21
9.37402
  0
LINE
  8
0
 10
100.911
 20
9.37402
 11
100.916
 21
9.3916
  0
LINE
  8
0
 10
100.916
 20
9.3916
 11
100.92
 21
9.4082
  0
LINE
  8
0
 10
100.92
 20
9.4082
 11
100.925
 21
9.4248
  0
LINE
  8
0
 10
100.925
 20
9.4248
 11
100.928
 21
9.44238
  0
LINE
  8
0
 10
100.928
 20
9.44238
 11
100.932
 21
9.45898
  0
LINE
  8
0
 10
100.932
 20
9.45898
 11
100.935
 21
9.47656
  0
LINE
  8
0
 10
100.935
 20
9.47656
 11
100.938
 21
9.49316
  0
LINE
  8
0
 10
100.938
 20
9.49316
 11
100.94
 21
9.51074
  0
LINE
  8
0
 10
100.94
 20
9.51074
 11
100.944
 21
9.5459
  0
LINE
  8
0
 10
100.944
 20
9.5459
 11
100.946
 21
9.5625
  0
LINE
  8
0
 10
100.946
 20
9.5625
 11
100.95
 21
9.63281
  0
LINE
  8
0
 10
100.95
 20
9.63281
 11
100.95
 21
17
  0
LINE
  8
0
 10
100.95
 20
17
 11
104.968
 21
17
  0
LINE
  8
0
 10
104.968
 20
17
 11
104.985
 21
17.001
  0
LINE
  8
0
 10
104.985
 20
17.001
 11
105.002
 21
17.001
  0
LINE
  8
0
 10
105.002
 20
17.001
 11
105.02
 21
17.002
  0
LINE
  8
0
 10
105.02
 20
17.002
 11
105.072
 21
17.0078
  0
LINE
  8
0
 10
105.072
 20
17.0078
 11
105.089
 21
17.0098
  0
LINE
  8
0
 10
105.089
 20
17.0098
 11
105.124
 21
17.0156
  0
LINE
  8
0
 10
105.124
 20
17.0156
 11
105.141
 21
17.0186
  0
LINE
  8
0
 10
105.141
 20
17.0186
 11
105.158
 21
17.0215
  0
LINE
  8
0
 10
105.158
 20
17.0215
 11
105.175
 21
17.0254
  0
LINE
  8
0
 10
105.175
 20
17.0254
 11
105.192
 21
17.0293
  0
LINE
  8
0
 10
105.192
 20
17.0293
 11
105.259
 21
17.0488
  0
LINE
  8
0
 10
105.259
 20
17.0488
 11
105.309
 21
17.0664
  0
LINE
  8
0
 10
105.309
 20
17.0664
 11
105.324
 21
17.0732
  0
LINE
  8
0
 10
105.324
 20
17.0732
 11
105.341
 21
17.0791
  0
LINE
  8
0
 10
105.341
 20
17.0791
 11
105.356
 21
17.0869
  0
LINE
  8
0
 10
105.356
 20
17.0869
 11
105.373
 21
17.0938
  0
LINE
  8
0
 10
105.373
 20
17.0938
 11
105.42
 21
17.1172
  0
LINE
  8
0
 10
105.42
 20
17.1172
 11
105.435
 21
17.125
  0
LINE
  8
0
 10
105.435
 20
17.125
 11
105.45
 21
17.1338
  0
LINE
  8
0
 10
105.45
 20
17.1338
 11
105.465
 21
17.1426
  0
LINE
  8
0
 10
105.465
 20
17.1426
 11
105.479
 21
17.1523
  0
LINE
  8
0
 10
105.479
 20
17.1523
 11
105.495
 21
17.1611
  0
LINE
  8
0
 10
105.495
 20
17.1611
 11
105.509
 21
17.1709
  0
LINE
  8
0
 10
105.509
 20
17.1709
 11
105.523
 21
17.1807
  0
LINE
  8
0
 10
105.523
 20
17.1807
 11
105.538
 21
17.1914
  0
LINE
  8
0
 10
105.538
 20
17.1914
 11
105.552
 21
17.2012
  0
LINE
  8
0
 10
105.552
 20
17.2012
 11
105.579
 21
17.2227
  0
LINE
  8
0
 10
105.579
 20
17.2227
 11
105.593
 21
17.2344
  0
LINE
  8
0
 10
105.593
 20
17.2344
 11
105.606
 21
17.2451
  0
LINE
  8
0
 10
105.606
 20
17.2451
 11
105.645
 21
17.2803
  0
LINE
  8
0
 10
105.645
 20
17.2803
 11
105.657
 21
17.293
  0
LINE
  8
0
 10
105.657
 20
17.293
 11
105.669
 21
17.3057
  0
LINE
  8
0
 10
105.669
 20
17.3057
 11
105.682
 21
17.3184
  0
LINE
  8
0
 10
105.682
 20
17.3184
 11
105.705
 21
17.3438
  0
LINE
  8
0
 10
105.705
 20
17.3438
 11
105.716
 21
17.3574
  0
LINE
  8
0
 10
105.716
 20
17.3574
 11
105.728
 21
17.3711
  0
LINE
  8
0
 10
105.728
 20
17.3711
 11
105.749
 21
17.3984
  0
LINE
  8
0
 10
105.749
 20
17.3984
 11
105.759
 21
17.4121
  0
LINE
  8
0
 10
105.759
 20
17.4121
 11
105.77
 21
17.4268
  0
LINE
  8
0
 10
105.77
 20
17.4268
 11
105.779
 21
17.4404
  0
LINE
  8
0
 10
105.779
 20
17.4404
 11
105.789
 21
17.4551
  0
LINE
  8
0
 10
105.789
 20
17.4551
 11
105.798
 21
17.4697
  0
LINE
  8
0
 10
105.798
 20
17.4697
 11
105.808
 21
17.4854
  0
LINE
  8
0
 10
105.808
 20
17.4854
 11
105.816
 21
17.5
  0
LINE
  8
0
 10
105.816
 20
17.5
 11
105.824
 21
17.5156
  0
LINE
  8
0
 10
105.824
 20
17.5156
 11
105.833
 21
17.5303
  0
LINE
  8
0
 10
105.833
 20
17.5303
 11
105.856
 21
17.5771
  0
LINE
  8
0
 10
105.856
 20
17.5771
 11
105.863
 21
17.5938
  0
LINE
  8
0
 10
105.863
 20
17.5938
 11
105.877
 21
17.625
  0
LINE
  8
0
 10
105.877
 20
17.625
 11
105.884
 21
17.6416
  0
LINE
  8
0
 10
105.884
 20
17.6416
 11
105.901
 21
17.6914
  0
LINE
  8
0
 10
105.901
 20
17.6914
 11
105.916
 21
17.7412
  0
LINE
  8
0
 10
105.916
 20
17.7412
 11
105.92
 21
17.7578
  0
LINE
  8
0
 10
105.92
 20
17.7578
 11
105.925
 21
17.7754
  0
LINE
  8
0
 10
105.925
 20
17.7754
 11
105.928
 21
17.792
  0
LINE
  8
0
 10
105.928
 20
17.792
 11
105.932
 21
17.8096
  0
LINE
  8
0
 10
105.932
 20
17.8096
 11
105.935
 21
17.8262
  0
LINE
  8
0
 10
105.935
 20
17.8262
 11
105.938
 21
17.8438
  0
LINE
  8
0
 10
105.938
 20
17.8438
 11
105.94
 21
17.8604
  0
LINE
  8
0
 10
105.94
 20
17.8604
 11
105.946
 21
17.9131
  0
LINE
  8
0
 10
105.946
 20
17.9131
 11
105.947
 21
17.9307
  0
LINE
  8
0
 10
105.947
 20
17.9307
 11
105.948
 21
17.9473
  0
LINE
  8
0
 10
105.948
 20
17.9473
 11
105.95
 21
17.9824
  0
LINE
  8
0
 10
105.95
 20
17.9824
 11
105.95
 21
36.0176
  0
LINE
  8
0
 10
105.95
 20
36.0176
 11
105.948
 21
36.0527
  0
LINE
  8
0
 10
105.948
 20
36.0527
 11
105.947
 21
36.0693
  0
LINE
  8
0
 10
105.947
 20
36.0693
 11
105.946
 21
36.0869
  0
LINE
  8
0
 10
105.946
 20
36.0869
 11
105.94
 21
36.1396
  0
LINE
  8
0
 10
105.94
 20
36.1396
 11
105.938
 21
36.1562
  0
LINE
  8
0
 10
105.938
 20
36.1562
 11
105.935
 21
36.1738
  0
LINE
  8
0
 10
105.935
 20
36.1738
 11
105.932
 21
36.1904
  0
LINE
  8
0
 10
105.932
 20
36.1904
 11
105.928
 21
36.208
  0
LINE
  8
0
 10
105.928
 20
36.208
 11
105.925
 21
36.2246
  0
LINE
  8
0
 10
105.925
 20
36.2246
 11
105.92
 21
36.2422
  0
LINE
  8
0
 10
105.92
 20
36.2422
 11
105.916
 21
36.2588
  0
LINE
  8
0
 10
105.916
 20
36.2588
 11
105.901
 21
36.3086
  0
LINE
  8
0
 10
105.901
 20
36.3086
 11
105.884
 21
36.3584
  0
LINE
  8
0
 10
105.884
 20
36.3584
 11
105.877
 21
36.375
  0
LINE
  8
0
 10
105.877
 20
36.375
 11
105.863
 21
36.4062
  0
LINE
  8
0
 10
105.863
 20
36.4062
 11
105.856
 21
36.4229
  0
LINE
  8
0
 10
105.856
 20
36.4229
 11
105.833
 21
36.4697
  0
LINE
  8
0
 10
105.833
 20
36.4697
 11
105.824
 21
36.4844
  0
LINE
  8
0
 10
105.824
 20
36.4844
 11
105.816
 21
36.5
  0
LINE
  8
0
 10
105.816
 20
36.5
 11
105.808
 21
36.5146
  0
LINE
  8
0
 10
105.808
 20
36.5146
 11
105.798
 21
36.5303
  0
LINE
  8
0
 10
105.798
 20
36.5303
 11
105.789
 21
36.5449
  0
LINE
  8
0
 10
105.789
 20
36.5449
 11
105.779
 21
36.5596
  0
LINE
  8
0
 10
105.779
 20
36.5596
 11
105.77
 21
36.5732
  0
LINE
  8
0
 10
105.77
 20
36.5732
 11
105.759
 21
36.5879
  0
LINE
  8
0
 10
105.759
 20
36.5879
 11
105.749
 21
36.6016
  0
LINE
  8
0
 10
105.749
 20
36.6016
 11
105.728
 21
36.6289
  0
LINE
  8
0
 10
105.728
 20
36.6289
 11
105.716
 21
36.6426
  0
LINE
  8
0
 10
105.716
 20
36.6426
 11
105.705
 21
36.6562
  0
LINE
  8
0
 10
105.705
 20
36.6562
 11
105.682
 21
36.6816
  0
LINE
  8
0
 10
105.682
 20
36.6816
 11
105.669
 21
36.6943
  0
LINE
  8
0
 10
105.669
 20
36.6943
 11
105.657
 21
36.707
  0
LINE
  8
0
 10
105.657
 20
36.707
 11
105.645
 21
36.7197
  0
LINE
  8
0
 10
105.645
 20
36.7197
 11
105.606
 21
36.7549
  0
LINE
  8
0
 10
105.606
 20
36.7549
 11
105.593
 21
36.7656
  0
LINE
  8
0
 10
105.593
 20
36.7656
 11
105.579
 21
36.7773
  0
LINE
  8
0
 10
105.579
 20
36.7773
 11
105.552
 21
36.7988
  0
LINE
  8
0
 10
105.552
 20
36.7988
 11
105.538
 21
36.8086
  0
LINE
  8
0
 10
105.538
 20
36.8086
 11
105.523
 21
36.8193
  0
LINE
  8
0
 10
105.523
 20
36.8193
 11
105.509
 21
36.8291
  0
LINE
  8
0
 10
105.509
 20
36.8291
 11
105.495
 21
36.8389
  0
LINE
  8
0
 10
105.495
 20
36.8389
 11
105.479
 21
36.8477
  0
LINE
  8
0
 10
105.479
 20
36.8477
 11
105.465
 21
36.8574
  0
LINE
  8
0
 10
105.465
 20
36.8574
 11
105.45
 21
36.8662
  0
LINE
  8
0
 10
105.45
 20
36.8662
 11
105.435
 21
36.875
  0
LINE
  8
0
 10
105.435
 20
36.875
 11
105.42
 21
36.8828
  0
LINE
  8
0
 10
105.42
 20
36.8828
 11
105.373
 21
36.9062
  0
LINE
  8
0
 10
105.373
 20
36.9062
 11
105.356
 21
36.9131
  0
LINE
  8
0
 10
105.356
 20
36.9131
 11
105.341
 21
36.9209
  0
LINE
  8
0
 10
105.341
 20
36.9209
 11
105.324
 21
36.9268
  0
LINE
  8
0
 10
105.324
 20
36.9268
 11
105.309
 21
36.9336
  0
LINE
  8
0
 10
105.309
 20
36.9336
 11
105.259
 21
36.9512
  0
LINE
  8
0
 10
105.259
 20
36.9512
 11
105.192
 21
36.9707
  0
LINE
  8
0
 10
105.192
 20
36.9707
 11
105.175
 21
36.9746
  0
LINE
  8
0
 10
105.175
 20
36.9746
 11
105.158
 21
36.9785
  0
LINE
  8
0
 10
105.158
 20
36.9785
 11
105.141
 21
36.9814
  0
LINE
  8
0
 10
105.141
 20
36.9814
 11
105.124
 21
36.9844
  0
LINE
  8
0
 10
105.124
 20
36.9844
 11
105.089
 21
36.9902
  0
LINE
  8
0
 10
105.089
 20
36.9902
 11
105.072
 21
36.9922
  0
LINE
  8
0
 10
105.072
 20
36.9922
 11
105.02
 21
36.998
  0
LINE
  8
0
 10
105.02
 20
36.998
 11
105.002
 21
36.999
  0
LINE
  8
0
 10
105.002
 20
36.999
 11
104.985
 21
36.999
  0
LINE
  8
0
 10
104.985
 20
36.999
 11
104.968
 21
37
  0
LINE
  8
0
 10
104.968
 20
37
 11
50.3828
 21
37
  0
LINE
  8
0
 10
50.3828
 20
37
 11
50.3652
 21
36.999
  0
LINE
  8
0
 10
50.3652
 20
36.999
 11
50.3477
 21
36.999
  0
LINE
  8
0
 10
50.3477
 20
36.999
 11
50.3311
 21
36.9971
  0
LINE
  8
0
 10
50.3311
 20
36.9971
 11
50.3135
 21
36.9961
  0
LINE
  8
0
 10
50.3135
 20
36.9961
 11
50.2969
 21
36.9941
  0
LINE
  8
0
 10
50.2969
 20
36.9941
 11
50.2793
 21
36.9922
  0
LINE
  8
0
 10
50.2793
 20
36.9922
 11
50.2627
 21
36.9902
  0
LINE
  8
0
 10
50.2627
 20
36.9902
 11
50.2451
 21
36.9873
  0
LINE
  8
0
 10
50.2451
 20
36.9873
 11
50.2119
 21
36.9814
  0
LINE
  8
0
 10
50.2119
 20
36.9814
 11
50.1943
 21
36.9775
  0
LINE
  8
0
 10
50.1943
 20
36.9775
 11
50.1777
 21
36.9746
  0
LINE
  8
0
 10
50.1777
 20
36.9746
 11
50.1611
 21
36.9697
  0
LINE
  8
0
 10
50.1611
 20
36.9697
 11
50.1445
 21
36.9658
  0
LINE
  8
0
 10
50.1445
 20
36.9658
 11
50.0947
 21
36.9512
  0
LINE
  8
0
 10
50.0947
 20
36.9512
 11
50.0791
 21
36.9453
  0
LINE
  8
0
 10
50.0791
 20
36.9453
 11
50.0625
 21
36.9395
  0
LINE
  8
0
 10
50.0625
 20
36.9395
 11
50.0469
 21
36.9336
  0
LINE
  8
0
 10
50.0469
 20
36.9336
 11
50.0303
 21
36.9268
  0
LINE
  8
0
 10
50.0303
 20
36.9268
 11
50.0146
 21
36.9209
  0
LINE
  8
0
 10
50.0146
 20
36.9209
 11
49.999
 21
36.9141
  0
LINE
  8
0
 10
49.999
 20
36.9141
 11
49.9834
 21
36.9062
  0
LINE
  8
0
 10
49.9834
 20
36.9062
 11
49.9678
 21
36.8994
  0
LINE
  8
0
 10
49.9678
 20
36.8994
 11
49.9521
 21
36.8916
  0
LINE
  8
0
 10
49.9521
 20
36.8916
 11
49.9375
 21
36.8838
  0
LINE
  8
0
 10
49.9375
 20
36.8838
 11
49.9219
 21
36.875
  0
LINE
  8
0
 10
49.9219
 20
36.875
 11
49.8633
 21
36.8398
  0
LINE
  8
0
 10
49.8633
 20
36.8398
 11
49.8486
 21
36.8301
  0
LINE
  8
0
 10
49.8486
 20
36.8301
 11
49.835
 21
36.8203
  0
LINE
  8
0
 10
49.835
 20
36.8203
 11
49.8203
 21
36.8105
  0
LINE
  8
0
 10
49.8203
 20
36.8105
 11
49.793
 21
36.7891
  0
LINE
  8
0
 10
49.793
 20
36.7891
 11
49.7803
 21
36.7783
  0
LINE
  8
0
 10
49.7803
 20
36.7783
 11
49.7666
 21
36.7676
  0
LINE
  8
0
 10
49.7666
 20
36.7676
 11
49.7539
 21
36.7568
  0
LINE
  8
0
 10
49.7539
 20
36.7568
 11
49.7402
 21
36.7451
  0
LINE
  8
0
 10
49.7402
 20
36.7451
 11
49.7275
 21
36.7334
  0
LINE
  8
0
 10
49.7275
 20
36.7334
 11
49.6914
 21
36.6973
  0
LINE
  8
0
 10
49.6914
 20
36.6973
 11
49.6562
 21
36.6592
  0
LINE
  8
0
 10
49.6562
 20
36.6592
 11
49.6455
 21
36.6455
  0
LINE
  8
0
 10
49.6455
 20
36.6455
 11
49.6348
 21
36.6328
  0
LINE
  8
0
 10
49.6348
 20
36.6328
 11
49.6133
 21
36.6055
  0
LINE
  8
0
 10
49.6133
 20
36.6055
 11
49.6035
 21
36.5918
  0
LINE
  8
0
 10
49.6035
 20
36.5918
 11
49.5938
 21
36.5771
  0
LINE
  8
0
 10
49.5938
 20
36.5771
 11
49.584
 21
36.5635
  0
LINE
  8
0
 10
49.584
 20
36.5635
 11
49.5645
 21
36.5342
  0
LINE
  8
0
 10
49.5645
 20
36.5342
 11
49.5469
 21
36.5049
  0
LINE
  8
0
 10
49.5469
 20
36.5049
 11
49.5391
 21
36.4893
  0
LINE
  8
0
 10
49.5391
 20
36.4893
 11
49.5303
 21
36.4746
  0
LINE
  8
0
 10
49.5303
 20
36.4746
 11
49.5225
 21
36.459
  0
LINE
  8
0
 10
49.5225
 20
36.459
 11
49.5156
 21
36.4443
  0
LINE
  8
0
 10
49.5156
 20
36.4443
 11
49.5078
 21
36.4287
  0
LINE
  8
0
 10
49.5078
 20
36.4287
 11
49.501
 21
36.4131
  0
LINE
  8
0
 10
49.501
 20
36.4131
 11
49.4941
 21
36.3965
  0
LINE
  8
0
 10
49.4941
 20
36.3965
 11
49.4873
 21
36.3809
  0
LINE
  8
0
 10
49.4873
 20
36.3809
 11
49.4814
 21
36.3652
  0
LINE
  8
0
 10
49.4814
 20
36.3652
 11
49.4697
 21
36.332
  0
LINE
  8
0
 10
49.4697
 20
36.332
 11
49.4639
 21
36.3164
  0
LINE
  8
0
 10
49.4639
 20
36.3164
 11
49.4492
 21
36.2666
  0
LINE
  8
0
 10
49.4492
 20
36.2666
 11
49.4375
 21
36.2168
  0
LINE
  8
0
 10
49.4375
 20
36.2168
 11
49.4346
 21
36.1992
  0
LINE
  8
0
 10
49.4346
 20
36.1992
 11
49.4307
 21
36.1826
  0
LINE
  8
0
 10
49.4307
 20
36.1826
 11
49.4287
 21
36.166
  0
LINE
  8
0
 10
49.4287
 20
36.166
 11
49.4258
 21
36.1484
  0
LINE
  8
0
 10
49.4258
 20
36.1484
 11
49.4238
 21
36.1318
  0
LINE
  8
0
 10
49.4238
 20
36.1318
 11
49.4219
 21
36.1143
  0
LINE
  8
0
 10
49.4219
 20
36.1143
 11
49.4199
 21
36.0977
  0
LINE
  8
0
 10
49.4199
 20
36.0977
 11
49.4189
 21
36.0801
  0
LINE
  8
0
 10
49.4189
 20
36.0801
 11
49.418
 21
36.0635
  0
LINE
  8
0
 10
49.418
 20
36.0635
 11
49.417
 21
36.0459
  0
LINE
  8
0
 10
49.417
 20
36.0459
 11
49.4082
 21
26.0107
  0
LINE
  8
0
 10
49.4082
 20
26.0107
 11
49.4072
 21
25.9941
  0
LINE
  8
0
 10
49.4072
 20
25.9941
 11
49.4043
 21
25.9414
  0
LINE
  8
0
 10
49.4043
 20
25.9414
 11
49.4023
 21
25.9238
  0
LINE
  8
0
 10
49.4023
 20
25.9238
 11
49.4004
 21
25.9072
  0
LINE
  8
0
 10
49.4004
 20
25.9072
 11
49.3984
 21
25.8896
  0
LINE
  8
0
 10
49.3984
 20
25.8896
 11
49.3926
 21
25.8545
  0
LINE
  8
0
 10
49.3926
 20
25.8545
 11
49.3896
 21
25.8379
  0
LINE
  8
0
 10
49.3896
 20
25.8379
 11
49.3857
 21
25.8203
  0
LINE
  8
0
 10
49.3857
 20
25.8203
 11
49.3828
 21
25.8037
  0
LINE
  8
0
 10
49.3828
 20
25.8037
 11
49.3779
 21
25.7871
  0
LINE
  8
0
 10
49.3779
 20
25.7871
 11
49.374
 21
25.7695
  0
LINE
  8
0
 10
49.374
 20
25.7695
 11
49.3594
 21
25.7197
  0
LINE
  8
0
 10
49.3594
 20
25.7197
 11
49.3418
 21
25.6699
  0
LINE
  8
0
 10
49.3418
 20
25.6699
 11
49.335
 21
25.6543
  0
LINE
  8
0
 10
49.335
 20
25.6543
 11
49.3281
 21
25.6377
  0
LINE
  8
0
 10
49.3281
 20
25.6377
 11
49.3145
 21
25.6064
  0
LINE
  8
0
 10
49.3145
 20
25.6064
 11
49.3066
 21
25.5898
  0
LINE
  8
0
 10
49.3066
 20
25.5898
 11
49.2988
 21
25.5742
  0
LINE
  8
0
 10
49.2988
 20
25.5742
 11
49.291
 21
25.5596
  0
LINE
  8
0
 10
49.291
 20
25.5596
 11
49.2822
 21
25.5439
  0
LINE
  8
0
 10
49.2822
 20
25.5439
 11
49.2744
 21
25.5283
  0
LINE
  8
0
 10
49.2744
 20
25.5283
 11
49.2656
 21
25.5137
  0
LINE
  8
0
 10
49.2656
 20
25.5137
 11
49.2559
 21
25.499
  0
LINE
  8
0
 10
49.2559
 20
25.499
 11
49.2471
 21
25.4844
  0
LINE
  8
0
 10
49.2471
 20
25.4844
 11
49.2275
 21
25.4551
  0
LINE
  8
0
 10
49.2275
 20
25.4551
 11
49.2168
 21
25.4404
  0
LINE
  8
0
 10
49.2168
 20
25.4404
 11
49.207
 21
25.4268
  0
LINE
  8
0
 10
49.207
 20
25.4268
 11
49.1855
 21
25.3994
  0
LINE
  8
0
 10
49.1855
 20
25.3994
 11
49.1738
 21
25.3857
  0
LINE
  8
0
 10
49.1738
 20
25.3857
 11
49.1631
 21
25.3721
  0
LINE
  8
0
 10
49.1631
 20
25.3721
 11
49.1396
 21
25.3467
  0
LINE
  8
0
 10
49.1396
 20
25.3467
 11
49.127
 21
25.334
  0
LINE
  8
0
 10
49.127
 20
25.334
 11
49.1152
 21
25.3213
  0
LINE
  8
0
 10
49.1152
 20
25.3213
 11
49.1025
 21
25.3096
  0
LINE
  8
0
 10
49.1025
 20
25.3096
 11
49.0898
 21
25.2969
  0
LINE
  8
0
 10
49.0898
 20
25.2969
 11
49.0645
 21
25.2734
  0
LINE
  8
0
 10
49.0645
 20
25.2734
 11
49.0371
 21
25.252
  0
LINE
  8
0
 10
49.0371
 20
25.252
 11
49.0234
 21
25.2402
  0
LINE
  8
0
 10
49.0234
 20
25.2402
 11
49.0098
 21
25.2305
  0
LINE
  8
0
 10
49.0098
 20
25.2305
 11
48.9961
 21
25.2197
  0
LINE
  8
0
 10
48.9961
 20
25.2197
 11
48.9814
 21
25.209
  0
LINE
  8
0
 10
48.9814
 20
25.209
 11
48.9668
 21
25.1992
  0
LINE
  8
0
 10
48.9668
 20
25.1992
 11
48.9531
 21
25.1904
  0
LINE
  8
0
 10
48.9531
 20
25.1904
 11
48.9375
 21
25.1807
  0
LINE
  8
0
 10
48.9375
 20
25.1807
 11
48.9229
 21
25.1719
  0
LINE
  8
0
 10
48.9229
 20
25.1719
 11
48.9082
 21
25.1621
  0
LINE
  8
0
 10
48.9082
 20
25.1621
 11
48.8926
 21
25.1543
  0
LINE
  8
0
 10
48.8926
 20
25.1543
 11
48.8779
 21
25.1455
  0
LINE
  8
0
 10
48.8779
 20
25.1455
 11
48.8311
 21
25.1221
  0
LINE
  8
0
 10
48.8311
 20
25.1221
 11
48.8145
 21
25.1152
  0
LINE
  8
0
 10
48.8145
 20
25.1152
 11
48.7988
 21
25.1084
  0
LINE
  8
0
 10
48.7988
 20
25.1084
 11
48.7822
 21
25.1016
  0
LINE
  8
0
 10
48.7822
 20
25.1016
 11
48.7666
 21
25.0947
  0
LINE
  8
0
 10
48.7666
 20
25.0947
 11
48.7168
 21
25.0771
  0
LINE
  8
0
 10
48.7168
 20
25.0771
 11
48.667
 21
25.0625
  0
LINE
  8
0
 10
48.667
 20
25.0625
 11
48.6504
 21
25.0586
  0
LINE
  8
0
 10
48.6504
 20
25.0586
 11
48.6328
 21
25.0547
  0
LINE
  8
0
 10
48.6328
 20
25.0547
 11
48.6162
 21
25.0508
  0
LINE
  8
0
 10
48.6162
 20
25.0508
 11
48.5986
 21
25.0469
  0
LINE
  8
0
 10
48.5986
 20
25.0469
 11
48.582
 21
25.0439
  0
LINE
  8
0
 10
48.582
 20
25.0439
 11
48.5469
 21
25.0381
  0
LINE
  8
0
 10
48.5469
 20
25.0381
 11
48.5303
 21
25.0361
  0
LINE
  8
0
 10
48.5303
 20
25.0361
 11
48.4951
 21
25.0322
  0
LINE
  8
0
 10
48.4951
 20
25.0322
 11
48.46
 21
25.0303
  0
LINE
  8
0
 10
48.46
 20
25.0303
 11
48.4434
 21
25.0293
  0
LINE
  8
0
 10
48.4434
 20
25.0293
 11
48.4258
 21
25.0283
  0
LINE
  8
0
 10
48.4258
 20
25.0283
 11
32.8994
 21
25.0283
  0
LINE
  8
0
 10
32.8994
 20
25.0283
 11
32.8467
 21
25.0312
  0
LINE
  8
0
 10
32.8467
 20
25.0312
 11
32.8301
 21
25.0322
  0
LINE
  8
0
 10
32.8301
 20
25.0322
 11
32.7773
 21
25.0381
  0
LINE
  8
0
 10
32.7773
 20
25.0381
 11
32.7607
 21
25.041
  0
LINE
  8
0
 10
32.7607
 20
25.041
 11
32.7256
 21
25.0469
  0
LINE
  8
0
 10
32.7256
 20
25.0469
 11
32.709
 21
25.0508
  0
LINE
  8
0
 10
32.709
 20
25.0508
 11
32.6914
 21
25.0547
  0
LINE
  8
0
 10
32.6914
 20
25.0547
 11
32.6582
 21
25.0625
  0
LINE
  8
0
 10
32.6582
 20
25.0625
 11
32.6416
 21
25.0674
  0
LINE
  8
0
 10
32.6416
 20
25.0674
 11
32.624
 21
25.0723
  0
LINE
  8
0
 10
32.624
 20
25.0723
 11
32.6074
 21
25.0771
  0
LINE
  8
0
 10
32.6074
 20
25.0771
 11
32.5908
 21
25.083
  0
LINE
  8
0
 10
32.5908
 20
25.083
 11
32.5752
 21
25.0889
  0
LINE
  8
0
 10
32.5752
 20
25.0889
 11
32.5586
 21
25.0947
  0
LINE
  8
0
 10
32.5586
 20
25.0947
 11
32.542
 21
25.1016
  0
LINE
  8
0
 10
32.542
 20
25.1016
 11
32.5264
 21
25.1084
  0
LINE
  8
0
 10
32.5264
 20
25.1084
 11
32.5098
 21
25.1152
  0
LINE
  8
0
 10
32.5098
 20
25.1152
 11
32.4941
 21
25.1221
  0
LINE
  8
0
 10
32.4941
 20
25.1221
 11
32.4473
 21
25.1455
  0
LINE
  8
0
 10
32.4473
 20
25.1455
 11
32.4316
 21
25.1543
  0
LINE
  8
0
 10
32.4316
 20
25.1543
 11
32.417
 21
25.1621
  0
LINE
  8
0
 10
32.417
 20
25.1621
 11
32.4014
 21
25.1719
  0
LINE
  8
0
 10
32.4014
 20
25.1719
 11
32.3867
 21
25.1807
  0
LINE
  8
0
 10
32.3867
 20
25.1807
 11
32.3721
 21
25.1904
  0
LINE
  8
0
 10
32.3721
 20
25.1904
 11
32.3574
 21
25.1992
  0
LINE
  8
0
 10
32.3574
 20
25.1992
 11
32.3428
 21
25.209
  0
LINE
  8
0
 10
32.3428
 20
25.209
 11
32.3291
 21
25.2197
  0
LINE
  8
0
 10
32.3291
 20
25.2197
 11
32.3145
 21
25.2305
  0
LINE
  8
0
 10
32.3145
 20
25.2305
 11
32.3008
 21
25.2402
  0
LINE
  8
0
 10
32.3008
 20
25.2402
 11
32.2871
 21
25.252
  0
LINE
  8
0
 10
32.2871
 20
25.252
 11
32.2744
 21
25.2627
  0
LINE
  8
0
 10
32.2744
 20
25.2627
 11
32.2607
 21
25.2734
  0
LINE
  8
0
 10
32.2607
 20
25.2734
 11
32.248
 21
25.2852
  0
LINE
  8
0
 10
32.248
 20
25.2852
 11
32.2344
 21
25.2969
  0
LINE
  8
0
 10
32.2344
 20
25.2969
 11
32.1973
 21
25.334
  0
LINE
  8
0
 10
32.1973
 20
25.334
 11
32.1621
 21
25.3721
  0
LINE
  8
0
 10
32.1621
 20
25.3721
 11
32.1504
 21
25.3857
  0
LINE
  8
0
 10
32.1504
 20
25.3857
 11
32.1074
 21
25.4404
  0
LINE
  8
0
 10
32.1074
 20
25.4404
 11
32.0684
 21
25.499
  0
LINE
  8
0
 10
32.0684
 20
25.499
 11
32.0508
 21
25.5283
  0
LINE
  8
0
 10
32.0508
 20
25.5283
 11
32.042
 21
25.5439
  0
LINE
  8
0
 10
32.042
 20
25.5439
 11
32.0342
 21
25.5596
  0
LINE
  8
0
 10
32.0342
 20
25.5596
 11
32.0254
 21
25.5742
  0
LINE
  8
0
 10
32.0254
 20
25.5742
 11
32.0176
 21
25.5898
  0
LINE
  8
0
 10
32.0176
 20
25.5898
 11
32.0107
 21
25.6064
  0
LINE
  8
0
 10
32.0107
 20
25.6064
 11
32.0029
 21
25.6221
  0
LINE
  8
0
 10
32.0029
 20
25.6221
 11
31.9961
 21
25.6377
  0
LINE
  8
0
 10
31.9961
 20
25.6377
 11
31.9893
 21
25.6543
  0
LINE
  8
0
 10
31.9893
 20
25.6543
 11
31.9834
 21
25.6699
  0
LINE
  8
0
 10
31.9834
 20
25.6699
 11
31.9658
 21
25.7197
  0
LINE
  8
0
 10
31.9658
 20
25.7197
 11
31.9609
 21
25.7363
  0
LINE
  8
0
 10
31.9609
 20
25.7363
 11
31.9551
 21
25.7529
  0
LINE
  8
0
 10
31.9551
 20
25.7529
 11
31.9512
 21
25.7695
  0
LINE
  8
0
 10
31.9512
 20
25.7695
 11
31.9463
 21
25.7871
  0
LINE
  8
0
 10
31.9463
 20
25.7871
 11
31.9385
 21
25.8203
  0
LINE
  8
0
 10
31.9385
 20
25.8203
 11
31.9355
 21
25.8379
  0
LINE
  8
0
 10
31.9355
 20
25.8379
 11
31.9316
 21
25.8545
  0
LINE
  8
0
 10
31.9316
 20
25.8545
 11
31.9287
 21
25.8721
  0
LINE
  8
0
 10
31.9287
 20
25.8721
 11
31.9268
 21
25.8896
  0
LINE
  8
0
 10
31.9268
 20
25.8896
 11
31.9238
 21
25.9072
  0
LINE
  8
0
 10
31.9238
 20
25.9072
 11
31.9219
 21
25.9238
  0
LINE
  8
0
 10
31.9219
 20
25.9238
 11
31.9209
 21
25.9414
  0
LINE
  8
0
 10
31.9209
 20
25.9414
 11
31.9189
 21
25.959
  0
LINE
  8
0
 10
31.9189
 20
25.959
 11
31.917
 21
25.9941
  0
LINE
  8
0
 10
31.917
 20
25.9941
 11
31.9189
 21
36.0459
  0
LINE
  8
0
 10
31.9189
 20
36.0459
 11
31.918
 21
36.0625
  0
LINE
  8
0
 10
31.918
 20
36.0625
 11
31.917
 21
36.0801
  0
LINE
  8
0
 10
31.917
 20
36.0801
 11
31.915
 21
36.0967
  0
LINE
  8
0
 10
31.915
 20
36.0967
 11
31.9141
 21
36.1133
  0
LINE
  8
0
 10
31.9141
 20
36.1133
 11
31.9121
 21
36.1309
  0
LINE
  8
0
 10
31.9121
 20
36.1309
 11
31.9102
 21
36.1475
  0
LINE
  8
0
 10
31.9102
 20
36.1475
 11
31.9043
 21
36.1807
  0
LINE
  8
0
 10
31.9043
 20
36.1807
 11
31.9014
 21
36.1982
  0
LINE
  8
0
 10
31.9014
 20
36.1982
 11
31.8984
 21
36.2148
  0
LINE
  8
0
 10
31.8984
 20
36.2148
 11
31.8906
 21
36.248
  0
LINE
  8
0
 10
31.8906
 20
36.248
 11
31.8867
 21
36.2637
  0
LINE
  8
0
 10
31.8867
 20
36.2637
 11
31.8828
 21
36.2803
  0
LINE
  8
0
 10
31.8828
 20
36.2803
 11
31.873
 21
36.3135
  0
LINE
  8
0
 10
31.873
 20
36.3135
 11
31.8672
 21
36.3291
  0
LINE
  8
0
 10
31.8672
 20
36.3291
 11
31.8613
 21
36.3457
  0
LINE
  8
0
 10
31.8613
 20
36.3457
 11
31.8438
 21
36.3926
  0
LINE
  8
0
 10
31.8438
 20
36.3926
 11
31.8369
 21
36.4092
  0
LINE
  8
0
 10
31.8369
 20
36.4092
 11
31.8301
 21
36.4238
  0
LINE
  8
0
 10
31.8301
 20
36.4238
 11
31.8223
 21
36.4395
  0
LINE
  8
0
 10
31.8223
 20
36.4395
 11
31.8154
 21
36.4551
  0
LINE
  8
0
 10
31.8154
 20
36.4551
 11
31.8076
 21
36.4697
  0
LINE
  8
0
 10
31.8076
 20
36.4697
 11
31.7988
 21
36.4854
  0
LINE
  8
0
 10
31.7988
 20
36.4854
 11
31.791
 21
36.5
  0
LINE
  8
0
 10
31.791
 20
36.5
 11
31.7646
 21
36.5439
  0
LINE
  8
0
 10
31.7646
 20
36.5439
 11
31.7559
 21
36.5576
  0
LINE
  8
0
 10
31.7559
 20
36.5576
 11
31.7461
 21
36.5723
  0
LINE
  8
0
 10
31.7461
 20
36.5723
 11
31.7266
 21
36.5996
  0
LINE
  8
0
 10
31.7266
 20
36.5996
 11
31.7158
 21
36.6133
  0
LINE
  8
0
 10
31.7158
 20
36.6133
 11
31.7061
 21
36.627
  0
LINE
  8
0
 10
31.7061
 20
36.627
 11
31.6953
 21
36.6396
  0
LINE
  8
0
 10
31.6953
 20
36.6396
 11
31.6836
 21
36.6533
  0
LINE
  8
0
 10
31.6836
 20
36.6533
 11
31.6729
 21
36.666
  0
LINE
  8
0
 10
31.6729
 20
36.666
 11
31.6611
 21
36.6787
  0
LINE
  8
0
 10
31.6611
 20
36.6787
 11
31.6504
 21
36.6914
  0
LINE
  8
0
 10
31.6504
 20
36.6914
 11
31.6377
 21
36.7031
  0
LINE
  8
0
 10
31.6377
 20
36.7031
 11
31.626
 21
36.7158
  0
LINE
  8
0
 10
31.626
 20
36.7158
 11
31.6143
 21
36.7275
  0
LINE
  8
0
 10
31.6143
 20
36.7275
 11
31.6016
 21
36.7393
  0
LINE
  8
0
 10
31.6016
 20
36.7393
 11
31.5889
 21
36.75
  0
LINE
  8
0
 10
31.5889
 20
36.75
 11
31.5762
 21
36.7617
  0
LINE
  8
0
 10
31.5762
 20
36.7617
 11
31.5635
 21
36.7725
  0
LINE
  8
0
 10
31.5635
 20
36.7725
 11
31.5361
 21
36.7939
  0
LINE
  8
0
 10
31.5361
 20
36.7939
 11
31.5234
 21
36.8047
  0
LINE
  8
0
 10
31.5234
 20
36.8047
 11
31.5098
 21
36.8145
  0
LINE
  8
0
 10
31.5098
 20
36.8145
 11
31.4951
 21
36.8242
  0
LINE
  8
0
 10
31.4951
 20
36.8242
 11
31.4814
 21
36.834
  0
LINE
  8
0
 10
31.4814
 20
36.834
 11
31.4668
 21
36.8428
  0
LINE
  8
0
 10
31.4668
 20
36.8428
 11
31.4531
 21
36.8525
  0
LINE
  8
0
 10
31.4531
 20
36.8525
 11
31.4385
 21
36.8613
  0
LINE
  8
0
 10
31.4385
 20
36.8613
 11
31.4238
 21
36.8691
  0
LINE
  8
0
 10
31.4238
 20
36.8691
 11
31.4082
 21
36.8779
  0
LINE
  8
0
 10
31.4082
 20
36.8779
 11
31.3789
 21
36.8936
  0
LINE
  8
0
 10
31.3789
 20
36.8936
 11
31.3633
 21
36.9014
  0
LINE
  8
0
 10
31.3633
 20
36.9014
 11
31.3477
 21
36.9082
  0
LINE
  8
0
 10
31.3477
 20
36.9082
 11
31.332
 21
36.916
  0
LINE
  8
0
 10
31.332
 20
36.916
 11
31.3164
 21
36.9229
  0
LINE
  8
0
 10
31.3164
 20
36.9229
 11
31.3008
 21
36.9287
  0
LINE
  8
0
 10
31.3008
 20
36.9287
 11
31.2852
 21
36.9355
  0
LINE
  8
0
 10
31.2852
 20
36.9355
 11
31.2695
 21
36.9414
  0
LINE
  8
0
 10
31.2695
 20
36.9414
 11
31.2529
 21
36.9463
  0
LINE
  8
0
 10
31.2529
 20
36.9463
 11
31.2373
 21
36.9521
  0
LINE
  8
0
 10
31.2373
 20
36.9521
 11
31.2041
 21
36.9619
  0
LINE
  8
0
 10
31.2041
 20
36.9619
 11
31.1885
 21
36.9668
  0
LINE
  8
0
 10
31.1885
 20
36.9668
 11
31.1387
 21
36.9785
  0
LINE
  8
0
 10
31.1387
 20
36.9785
 11
31.1221
 21
36.9814
  0
LINE
  8
0
 10
31.1221
 20
36.9814
 11
31.1055
 21
36.9854
  0
LINE
  8
0
 10
31.1055
 20
36.9854
 11
31.0879
 21
36.9883
  0
LINE
  8
0
 10
31.0879
 20
36.9883
 11
31.0381
 21
36.9941
  0
LINE
  8
0
 10
31.0381
 20
36.9941
 11
31.0205
 21
36.9961
  0
LINE
  8
0
 10
31.0205
 20
36.9961
 11
31.0039
 21
36.998
  0
LINE
  8
0
 10
31.0039
 20
36.998
 11
30.9873
 21
36.999
  0
LINE
  8
0
 10
30.9873
 20
36.999
 11
30.9697
 21
36.999
  0
LINE
  8
0
 10
30.9697
 20
36.999
 11
30.9531
 21
37
  0
LINE
  8
0
 10
30.9531
 20
37
 11
-4.01758
 21
37
  0
LINE
  8
0
 10
-4.01758
 20
37
 11
-4.03516
 21
36.999
  0
LINE
  8
0
 10
-4.03516
 20
36.999
 11
-4.05273
 21
36.999
  0
LINE
  8
0
 10
-4.05273
 20
36.999
 11
-4.06934
 21
36.998
  0
LINE
  8
0
 10
-4.06934
 20
36.998
 11
-4.13965
 21
36.9902
  0
LINE
  8
0
 10
-4.13965
 20
36.9902
 11
-4.15625
 21
36.9873
  0
LINE
  8
0
 10
-4.15625
 20
36.9873
 11
-4.17383
 21
36.9844
  0
LINE
  8
0
 10
-4.17383
 20
36.9844
 11
-4.19043
 21
36.9814
  0
LINE
  8
0
 10
-4.19043
 20
36.9814
 11
-4.20801
 21
36.9785
  0
LINE
  8
0
 10
-4.20801
 20
36.9785
 11
-4.22461
 21
36.9746
  0
LINE
  8
0
 10
-4.22461
 20
36.9746
 11
-4.24219
 21
36.9707
  0
LINE
  8
0
 10
-4.24219
 20
36.9707
 11
-4.30859
 21
36.9512
  0
LINE
  8
0
 10
-4.30859
 20
36.9512
 11
-4.3584
 21
36.9336
  0
LINE
  8
0
 10
-4.3584
 20
36.9336
 11
-4.375
 21
36.9268
  0
LINE
  8
0
 10
-4.375
 20
36.9268
 11
-4.39062
 21
36.9209
  0
LINE
  8
0
 10
-4.39062
 20
36.9209
 11
-4.40625
 21
36.9131
  0
LINE
  8
0
 10
-4.40625
 20
36.9131
 11
-4.42285
 21
36.9062
  0
LINE
  8
0
 10
-4.42285
 20
36.9062
 11
-4.46973
 21
36.8828
  0
LINE
  8
0
 10
-4.46973
 20
36.8828
 11
-4.48438
 21
36.875
  0
LINE
  8
0
 10
-4.48438
 20
36.875
 11
-4.5
 21
36.8662
  0
LINE
  8
0
 10
-4.5
 20
36.8662
 11
-4.51465
 21
36.8574
  0
LINE
  8
0
 10
-4.51465
 20
36.8574
 11
-4.53027
 21
36.8477
  0
LINE
  8
0
 10
-4.53027
 20
36.8477
 11
-4.54492
 21
36.8389
  0
LINE
  8
0
 10
-4.54492
 20
36.8389
 11
-4.55957
 21
36.8291
  0
LINE
  8
0
 10
-4.55957
 20
36.8291
 11
-4.57324
 21
36.8193
  0
LINE
  8
0
 10
-4.57324
 20
36.8193
 11
-4.58789
 21
36.8086
  0
LINE
  8
0
 10
-4.58789
 20
36.8086
 11
-4.60156
 21
36.7988
  0
LINE
  8
0
 10
-4.60156
 20
36.7988
 11
-4.62891
 21
36.7773
  0
LINE
  8
0
 10
-4.62891
 20
36.7773
 11
-4.64258
 21
36.7656
  0
LINE
  8
0
 10
-4.64258
 20
36.7656
 11
-4.65625
 21
36.7549
  0
LINE
  8
0
 10
-4.65625
 20
36.7549
 11
-4.69434
 21
36.7197
  0
LINE
  8
0
 10
-4.69434
 20
36.7197
 11
-4.71973
 21
36.6943
  0
LINE
  8
0
 10
-4.71973
 20
36.6943
 11
-4.75488
 21
36.6562
  0
LINE
  8
0
 10
-4.75488
 20
36.6562
 11
-4.76562
 21
36.6426
  0
LINE
  8
0
 10
-4.76562
 20
36.6426
 11
-4.77734
 21
36.6289
  0
LINE
  8
0
 10
-4.77734
 20
36.6289
 11
-4.79883
 21
36.6016
  0
LINE
  8
0
 10
-4.79883
 20
36.6016
 11
-4.80859
 21
36.5879
  0
LINE
  8
0
 10
-4.80859
 20
36.5879
 11
-4.81934
 21
36.5732
  0
LINE
  8
0
 10
-4.81934
 20
36.5732
 11
-4.8291
 21
36.5596
  0
LINE
  8
0
 10
-4.8291
 20
36.5596
 11
-4.83887
 21
36.5449
  0
LINE
  8
0
 10
-4.83887
 20
36.5449
 11
-4.84766
 21
36.5303
  0
LINE
  8
0
 10
-4.84766
 20
36.5303
 11
-4.85742
 21
36.5146
  0
LINE
  8
0
 10
-4.85742
 20
36.5146
 11
-4.86621
 21
36.5
  0
LINE
  8
0
 10
-4.86621
 20
36.5
 11
-4.875
 21
36.4844
  0
LINE
  8
0
 10
-4.875
 20
36.4844
 11
-4.88281
 21
36.4697
  0
LINE
  8
0
 10
-4.88281
 20
36.4697
 11
-4.90625
 21
36.4229
  0
LINE
  8
0
 10
-4.90625
 20
36.4229
 11
-4.91309
 21
36.4062
  0
LINE
  8
0
 10
-4.91309
 20
36.4062
 11
-4.9209
 21
36.3906
  0
LINE
  8
0
 10
-4.9209
 20
36.3906
 11
-4.92676
 21
36.375
  0
LINE
  8
0
 10
-4.92676
 20
36.375
 11
-4.93359
 21
36.3584
  0
LINE
  8
0
 10
-4.93359
 20
36.3584
 11
-4.95117
 21
36.3086
  0
LINE
  8
0
 10
-4.95117
 20
36.3086
 11
-4.9707
 21
36.2422
  0
LINE
  8
0
 10
-4.9707
 20
36.2422
 11
-4.97461
 21
36.2246
  0
LINE
  8
0
 10
-4.97461
 20
36.2246
 11
-4.97852
 21
36.208
  0
LINE
  8
0
 10
-4.97852
 20
36.208
 11
-4.98145
 21
36.1904
  0
LINE
  8
0
 10
-4.98145
 20
36.1904
 11
-4.98438
 21
36.1738
  0
LINE
  8
0
 10
-4.98438
 20
36.1738
 11
-4.9873
 21
36.1562
  0
LINE
  8
0
 10
-4.9873
 20
36.1562
 11
-4.99023
 21
36.1396
  0
LINE
  8
0
 10
-4.99023
 20
36.1396
 11
-4.99805
 21
36.0693
  0
LINE
  8
0
 10
-4.99805
 20
36.0693
 11
-4.99902
 21
36.0527
  0
LINE
  8
0
 10
-4.99902
 20
36.0527
 11
-4.99902
 21
36.0352
  0
LINE
  8
0
 10
-4.99902
 20
36.0352
 11
-5
 21
36.0176
  0
LINE
  8
0
 10
-5
 20
36.0176
 11
-5
 21
17.9824
  0
LINE
  8
0
 10
-5
 20
17.9824
 11
-4.99902
 21
17.9648
  0
LINE
  8
0
 10
-4.99902
 20
17.9648
 11
-4.99902
 21
17.9473
  0
LINE
  8
0
 10
-4.99902
 20
17.9473
 11
-4.99805
 21
17.9307
  0
LINE
  8
0
 10
-4.99805
 20
17.9307
 11
-4.99023
 21
17.8604
  0
LINE
  8
0
 10
-4.99023
 20
17.8604
 11
-4.9873
 21
17.8438
  0
LINE
  8
0
 10
-4.9873
 20
17.8438
 11
-4.98438
 21
17.8262
  0
LINE
  8
0
 10
-4.98438
 20
17.8262
 11
-4.98145
 21
17.8096
  0
LINE
  8
0
 10
-4.98145
 20
17.8096
 11
-4.97852
 21
17.792
  0
LINE
  8
0
 10
-4.97852
 20
17.792
 11
-4.97461
 21
17.7754
  0
LINE
  8
0
 10
-4.97461
 20
17.7754
 11
-4.9707
 21
17.7578
  0
LINE
  8
0
 10
-4.9707
 20
17.7578
 11
-4.95117
 21
17.6914
  0
LINE
  8
0
 10
-4.95117
 20
17.6914
 11
-4.93359
 21
17.6416
  0
LINE
  8
0
 10
-4.93359
 20
17.6416
 11
-4.92676
 21
17.625
  0
LINE
  8
0
 10
-4.92676
 20
17.625
 11
-4.9209
 21
17.6094
  0
LINE
  8
0
 10
-4.9209
 20
17.6094
 11
-4.91309
 21
17.5938
  0
LINE
  8
0
 10
-4.91309
 20
17.5938
 11
-4.90625
 21
17.5771
  0
LINE
  8
0
 10
-4.90625
 20
17.5771
 11
-4.88281
 21
17.5303
  0
LINE
  8
0
 10
-4.88281
 20
17.5303
 11
-4.875
 21
17.5156
  0
LINE
  8
0
 10
-4.875
 20
17.5156
 11
-4.86621
 21
17.5
  0
LINE
  8
0
 10
-4.86621
 20
17.5
 11
-4.85742
 21
17.4854
  0
LINE
  8
0
 10
-4.85742
 20
17.4854
 11
-4.84766
 21
17.4697
  0
LINE
  8
0
 10
-4.84766
 20
17.4697
 11
-4.83887
 21
17.4551
  0
LINE
  8
0
 10
-4.83887
 20
17.4551
 11
-4.8291
 21
17.4404
  0
LINE
  8
0
 10
-4.8291
 20
17.4404
 11
-4.81934
 21
17.4268
  0
LINE
  8
0
 10
-4.81934
 20
17.4268
 11
-4.80859
 21
17.4121
  0
LINE
  8
0
 10
-4.80859
 20
17.4121
 11
-4.79883
 21
17.3984
  0
LINE
  8
0
 10
-4.79883
 20
17.3984
 11
-4.77734
 21
17.3711
  0
LINE
  8
0
 10
-4.77734
 20
17.3711
 11
-4.76562
 21
17.3574
  0
LINE
  8
0
 10
-4.76562
 20
17.3574
 11
-4.75488
 21
17.3438
  0
LINE
  8
0
 10
-4.75488
 20
17.3438
 11
-4.71973
 21
17.3057
  0
LINE
  8
0
 10
-4.71973
 20
17.3057
 11
-4.69434
 21
17.2803
  0
LINE
  8
0
 10
-4.69434
 20
17.2803
 11
-4.65625
 21
17.2451
  0
LINE
  8
0
 10
-4.65625
 20
17.2451
 11
-4.64258
 21
17.2344
  0
LINE
  8
0
 10
-4.64258
 20
17.2344
 11
-4.62891
 21
17.2227
  0
LINE
  8
0
 10
-4.62891
 20
17.2227
 11
-4.60156
 21
17.2012
  0
LINE
  8
0
 10
-4.60156
 20
17.2012
 11
-4.58789
 21
17.1914
  0
LINE
  8
0
 10
-4.58789
 20
17.1914
 11
-4.57324
 21
17.1807
  0
LINE
  8
0
 10
-4.57324
 20
17.1807
 11
-4.55957
 21
17.1709
  0
LINE
  8
0
 10
-4.55957
 20
17.1709
 11
-4.54492
 21
17.1611
  0
LINE
  8
0
 10
-4.54492
 20
17.1611
 11
-4.53027
 21
17.1523
  0
LINE
  8
0
 10
-4.53027
 20
17.1523
 11
-4.51465
 21
17.1426
  0
LINE
  8
0
 10
-4.51465
 20
17.1426
 11
-4.5
 21
17.1338
  0
LINE
  8
0
 10
-4.5
 20
17.1338
 11
-4.48438
 21
17.125
  0
LINE
  8
0
 10
-4.48438
 20
17.125
 11
-4.46973
 21
17.1172
  0
LINE
  8
0
 10
-4.46973
 20
17.1172
 11
-4.42285
 21
17.0938
  0
LINE
  8
0
 10
-4.42285
 20
17.0938
 11
-4.40625
 21
17.0869
  0
LINE
  8
0
 10
-4.40625
 20
17.0869
 11
-4.39062
 21
17.0791
  0
LINE
  8
0
 10
-4.39062
 20
17.0791
 11
-4.375
 21
17.0732
  0
LINE
  8
0
 10
-4.375
 20
17.0732
 11
-4.3584
 21
17.0664
  0
LINE
  8
0
 10
-4.3584
 20
17.0664
 11
-4.30859
 21
17.0488
  0
LINE
  8
0
 10
-4.30859
 20
17.0488
 11
-4.24219
 21
17.0293
  0
LINE
  8
0
 10
-4.24219
 20
17.0293
 11
-4.22461
 21
17.0254
  0
LINE
  8
0
 10
-4.22461
 20
17.0254
 11
-4.20801
 21
17.0215
  0
LINE
  8
0
 10
-4.20801
 20
17.0215
 11
-4.19043
 21
17.0186
  0
LINE
  8
0
 10
-4.19043
 20
17.0186
 11
-4.17383
 21
17.0156
  0
LINE
  8
0
 10
-4.17383
 20
17.0156
 11
-4.15625
 21
17.0127
  0
LINE
  8
0
 10
-4.15625
 20
17.0127
 11
-4.13965
 21
17.0098
  0
LINE
  8
0
 10
-4.13965
 20
17.0098
 11
-4.06934
 21
17.002
  0
LINE
  8
0
 10
-4.06934
 20
17.002
 11
-4.05273
 21
17.001
  0
LINE
  8
0
 10
-4.05273
 20
17.001
 11
-4.03516
 21
17.001
  0
LINE
  8
0
 10
-4.03516
 20
17.001
 11
-4.01758
 21
17
  0
LINE
  8
0
 10
-4.01758
 20
17
 11
0
 21
17
  0
LINE
  8
0
 10
0
 20
17
 11
0
 21
9.63281
  0
LINE
  8
0
 10
0
 20
9.63281
 11
0.000976562
 21
9.61523
  0
LINE
  8
0
 10
0.000976562
 20
9.61523
 11
0.000976562
 21
9.59766
  0
LINE
  8
0
 10
0.000976562
 20
9.59766
 11
0.00195312
 21
9.58008
  0
LINE
  8
0
 10
0.00195312
 20
9.58008
 11
0.00390625
 21
9.5625
  0
LINE
  8
0
 10
0.00390625
 20
9.5625
 11
0.00585938
 21
9.5459
  0
LINE
  8
0
 10
0.00585938
 20
9.5459
 11
0.00976562
 21
9.51074
  0
LINE
  8
0
 10
0.00976562
 20
9.51074
 11
0.0126953
 21
9.49316
  0
LINE
  8
0
 10
0.0126953
 20
9.49316
 11
0.015625
 21
9.47656
  0
LINE
  8
0
 10
0.015625
 20
9.47656
 11
0.0185547
 21
9.45898
  0
LINE
  8
0
 10
0.0185547
 20
9.45898
 11
0.0214844
 21
9.44238
  0
LINE
  8
0
 10
0.0214844
 20
9.44238
 11
0.0253906
 21
9.4248
  0
LINE
  8
0
 10
0.0253906
 20
9.4248
 11
0.0292969
 21
9.4082
  0
LINE
  8
0
 10
0.0292969
 20
9.4082
 11
0.0341797
 21
9.3916
  0
LINE
  8
0
 10
0.0341797
 20
9.3916
 11
0.0390625
 21
9.37402
  0
LINE
  8
0
 10
0.0390625
 20
9.37402
 11
0.0488281
 21
9.34082
  0
LINE
  8
0
 10
0.0488281
 20
9.34082
 11
0.0605469
 21
9.30762
  0
LINE
  8
0
 10
0.0605469
 20
9.30762
 11
0.0664062
 21
9.29199
  0
LINE
  8
0
 10
0.0664062
 20
9.29199
 11
0.0732422
 21
9.27539
  0
LINE
  8
0
 10
0.0732422
 20
9.27539
 11
0.0791016
 21
9.25879
  0
LINE
  8
0
 10
0.0791016
 20
9.25879
 11
0.0869141
 21
9.24316
  0
LINE
  8
0
 10
0.0869141
 20
9.24316
 11
0.09375
 21
9.22754
  0
LINE
  8
0
 10
0.09375
 20
9.22754
 11
0.125
 21
9.16504
  0
LINE
  8
0
 10
0.125
 20
9.16504
 11
0.133789
 21
9.15039
  0
LINE
  8
0
 10
0.133789
 20
9.15039
 11
0.142578
 21
9.13477
  0
LINE
  8
0
 10
0.142578
 20
9.13477
 11
0.152344
 21
9.12012
  0
LINE
  8
0
 10
0.152344
 20
9.12012
 11
0.161133
 21
9.10547
  0
LINE
  8
0
 10
0.161133
 20
9.10547
 11
0.180664
 21
9.07617
  0
LINE
  8
0
 10
0.180664
 20
9.07617
 11
0.191406
 21
9.0625
  0
LINE
  8
0
 10
0.191406
 20
9.0625
 11
0.201172
 21
9.04785
  0
LINE
  8
0
 10
0.201172
 20
9.04785
 11
0.222656
 21
9.02051
  0
LINE
  8
0
 10
0.222656
 20
9.02051
 11
0.234375
 21
9.00684
  0
LINE
  8
0
 10
0.234375
 20
9.00684
 11
0.245117
 21
8.99414
  0
LINE
  8
0
 10
0.245117
 20
8.99414
 11
0.256836
 21
8.98047
  0
LINE
  8
0
 10
0.256836
 20
8.98047
 11
0.280273
 21
8.95508
  0
LINE
  8
0
 10
0.280273
 20
8.95508
 11
0.292969
 21
8.94336
  0
LINE
  8
0
 10
0.292969
 20
8.94336
 11
0.305664
 21
8.93066
  0
LINE
  8
0
 10
0.305664
 20
8.93066
 11
0.34375
 21
8.89551
  0
LINE
  8
0
 10
0.34375
 20
8.89551
 11
0.357422
 21
8.88379
  0
LINE
  8
0
 10
0.357422
 20
8.88379
 11
0.412109
 21
8.84082
  0
LINE
  8
0
 10
0.412109
 20
8.84082
 11
0.426758
 21
8.83105
  0
LINE
  8
0
 10
0.426758
 20
8.83105
 11
0.44043
 21
8.82129
  0
LINE
  8
0
 10
0.44043
 20
8.82129
 11
0.469727
 21
8.80176
  0
LINE
  8
0
 10
0.469727
 20
8.80176
 11
0.485352
 21
8.79297
  0
LINE
  8
0
 10
0.485352
 20
8.79297
 11
0.5
 21
8.78418
  0
LINE
  8
0
 10
0.5
 20
8.78418
 11
0.515625
 21
8.77539
  0
LINE
  8
0
 10
0.515625
 20
8.77539
 11
0.530273
 21
8.7666
  0
LINE
  8
0
 10
0.530273
 20
8.7666
 11
0.561523
 21
8.75098
  0
LINE
  8
0
 10
0.561523
 20
8.75098
 11
0.577148
 21
8.74414
  0
LINE
  8
0
 10
0.577148
 20
8.74414
 11
0.59375
 21
8.73633
  0
LINE
  8
0
 10
0.59375
 20
8.73633
 11
0.625
 21
8.72266
  0
LINE
  8
0
 10
0.625
 20
8.72266
 11
0.641602
 21
8.7168
  0
LINE
  8
0
 10
0.641602
 20
8.7168
 11
0.658203
 21
8.70996
  0
LINE
  8
0
 10
0.658203
 20
8.70996
 11
0.674805
 21
8.7041
  0
LINE
  8
0
 10
0.674805
 20
8.7041
 11
0.691406
 21
8.69922
  0
LINE
  8
0
 10
0.691406
 20
8.69922
 11
0.708008
 21
8.69336
  0
LINE
  8
0
 10
0.708008
 20
8.69336
 11
0.741211
 21
8.68359
  0
LINE
  8
0
 10
0.741211
 20
8.68359
 11
0.757812
 21
8.67969
  0
LINE
  8
0
 10
0.757812
 20
8.67969
 11
0.775391
 21
8.67578
  0
LINE
  8
0
 10
0.775391
 20
8.67578
 11
0.791992
 21
8.67188
  0
LINE
  8
0
 10
0.791992
 20
8.67188
 11
0.80957
 21
8.66797
  0
LINE
  8
0
 10
0.80957
 20
8.66797
 11
0.826172
 21
8.66504
  0
LINE
  8
0
 10
0.826172
 20
8.66504
 11
0.84375
 21
8.66211
  0
LINE
  8
0
 10
0.84375
 20
8.66211
 11
0.860352
 21
8.66016
  0
LINE
  8
0
 10
0.860352
 20
8.66016
 11
0.87793
 21
8.65723
  0
LINE
  8
0
 10
0.87793
 20
8.65723
 11
0.913086
 21
8.65332
  0
LINE
  8
0
 10
0.913086
 20
8.65332
 11
0.930664
 21
8.65234
  0
LINE
  8
0
 10
0.930664
 20
8.65234
 11
0.947266
 21
8.65137
  0
LINE
  8
0
 10
0.947266
 20
8.65137
 11
0.964844
 21
8.65039
  0
LINE
  8
0
 10
0.964844
 20
8.65039
 11
12
 21
8.65039
  0
LINE
  8
0
 10
12
 20
8.65039
 11
12.0176
 21
8.64941
  0
LINE
  8
0
 10
12.0176
 20
8.64941
 11
12.0352
 21
8.64941
  0
LINE
  8
0
 10
12.0352
 20
8.64941
 11
12.0527
 21
8.64844
  0
LINE
  8
0
 10
12.0527
 20
8.64844
 11
12.0693
 21
8.64746
  0
LINE
  8
0
 10
12.0693
 20
8.64746
 11
12.0869
 21
8.64648
  0
LINE
  8
0
 10
12.0869
 20
8.64648
 11
12.1396
 21
8.64062
  0
LINE
  8
0
 10
12.1396
 20
8.64062
 11
12.1562
 21
8.6377
  0
LINE
  8
0
 10
12.1562
 20
8.6377
 11
12.1738
 21
8.63477
  0
LINE
  8
0
 10
12.1738
 20
8.63477
 11
12.1904
 21
8.63184
  0
LINE
  8
0
 10
12.1904
 20
8.63184
 11
12.208
 21
8.62793
  0
LINE
  8
0
 10
12.208
 20
8.62793
 11
12.2246
 21
8.62402
  0
LINE
  8
0
 10
12.2246
 20
8.62402
 11
12.2422
 21
8.62012
  0
LINE
  8
0
 10
12.2422
 20
8.62012
 11
12.2588
 21
8.61621
  0
LINE
  8
0
 10
12.2588
 20
8.61621
 11
12.292
 21
8.60645
  0
LINE
  8
0
 10
12.292
 20
8.60645
 11
12.3086
 21
8.60059
  0
LINE
  8
0
 10
12.3086
 20
8.60059
 11
12.3252
 21
8.5957
  0
LINE
  8
0
 10
12.3252
 20
8.5957
 11
12.3584
 21
8.58398
  0
LINE
  8
0
 10
12.3584
 20
8.58398
 11
12.375
 21
8.57715
  0
LINE
  8
0
 10
12.375
 20
8.57715
 11
12.4062
 21
8.56348
  0
LINE
  8
0
 10
12.4062
 20
8.56348
 11
12.4229
 21
8.55664
  0
LINE
  8
0
 10
12.4229
 20
8.55664
 11
12.4697
 21
8.5332
  0
LINE
  8
0
 10
12.4697
 20
8.5332
 11
12.4844
 21
8.52441
  0
LINE
  8
0
 10
12.4844
 20
8.52441
 11
12.5
 21
8.51562
  0
LINE
  8
0
 10
12.5
 20
8.51562
 11
12.5146
 21
8.50684
  0
LINE
  8
0
 10
12.5146
 20
8.50684
 11
12.5303
 21
8.49805
  0
LINE
  8
0
 10
12.5303
 20
8.49805
 11
12.5449
 21
8.48828
  0
LINE
  8
0
 10
12.5449
 20
8.48828
 11
12.5596
 21
8.47949
  0
LINE
  8
0
 10
12.5596
 20
8.47949
 11
12.5732
 21
8.46875
  0
LINE
  8
0
 10
12.5732
 20
8.46875
 11
12.5879
 21
8.45898
  0
LINE
  8
0
 10
12.5879
 20
8.45898
 11
12.6016
 21
8.44824
  0
LINE
  8
0
 10
12.6016
 20
8.44824
 11
12.6152
 21
8.43848
  0
LINE
  8
0
 10
12.6152
 20
8.43848
 11
12.6289
 21
8.42676
  0
LINE
  8
0
 10
12.6289
 20
8.42676
 11
12.6426
 21
8.41602
  0
LINE
  8
0
 10
12.6426
 20
8.41602
 11
12.6562
 21
8.4043
  0
LINE
  8
0
 10
12.6562
 20
8.4043
 11
12.6689
 21
8.39355
  0
LINE
  8
0
 10
12.6689
 20
8.39355
 11
12.6816
 21
8.38184
  0
LINE
  8
0
 10
12.6816
 20
8.38184
 11
12.6943
 21
8.36914
  0
LINE
  8
0
 10
12.6943
 20
8.36914
 11
12.707
 21
8.35742
  0
LINE
  8
0
 10
12.707
 20
8.35742
 11
12.7197
 21
8.34473
  0
LINE
  8
0
 10
12.7197
 20
8.34473
 11
12.7432
 21
8.31934
  0
LINE
  8
0
 10
12.7432
 20
8.31934
 11
12.7549
 21
8.30566
  0
LINE
  8
0
 10
12.7549
 20
8.30566
 11
12.7656
 21
8.29297
  0
LINE
  8
0
 10
12.7656
 20
8.29297
 11
12.7773
 21
8.2793
  0
LINE
  8
0
 10
12.7773
 20
8.2793
 11
12.7988
 21
8.25195
  0
LINE
  8
0
 10
12.7988
 20
8.25195
 11
12.8086
 21
8.2373
  0
LINE
  8
0
 10
12.8086
 20
8.2373
 11
12.8193
 21
8.22363
  0
LINE
  8
0
 10
12.8193
 20
8.22363
 11
12.8389
 21
8.19434
  0
LINE
  8
0
 10
12.8389
 20
8.19434
 11
12.8477
 21
8.17969
  0
LINE
  8
0
 10
12.8477
 20
8.17969
 11
12.8574
 21
8.16504
  0
LINE
  8
0
 10
12.8574
 20
8.16504
 11
12.8662
 21
8.15039
  0
LINE
  8
0
 10
12.8662
 20
8.15039
 11
12.875
 21
8.13477
  0
LINE
  8
0
 10
12.875
 20
8.13477
 11
12.9062
 21
8.07227
  0
LINE
  8
0
 10
12.9062
 20
8.07227
 11
12.9131
 21
8.05664
  0
LINE
  8
0
 10
12.9131
 20
8.05664
 11
12.9209
 21
8.04102
  0
LINE
  8
0
 10
12.9209
 20
8.04102
 11
12.9268
 21
8.02441
  0
LINE
  8
0
 10
12.9268
 20
8.02441
 11
12.9336
 21
8.00879
  0
LINE
  8
0
 10
12.9336
 20
8.00879
 11
12.9512
 21
7.95898
  0
LINE
  8
0
 10
12.9512
 20
7.95898
 11
12.9658
 21
7.90918
  0
LINE
  8
0
 10
12.9658
 20
7.90918
 11
12.9707
 21
7.8916
  0
LINE
  8
0
 10
12.9707
 20
7.8916
 11
12.9785
 21
7.8584
  0
LINE
  8
0
 10
12.9785
 20
7.8584
 11
12.9844
 21
7.82324
  0
LINE
  8
0
 10
12.9844
 20
7.82324
 11
12.9873
 21
7.80664
  0
LINE
  8
0
 10
12.9873
 20
7.80664
 11
12.9902
 21
7.78906
  0
LINE
  8
0
 10
12.9902
 20
7.78906
 11
12.9922
 21
7.77148
  0
LINE
  8
0
 10
12.9922
 20
7.77148
 11
12.9941
 21
7.75488
  0
LINE
  8
0
 10
12.9941
 20
7.75488
 11
12.998
 21
7.71973
  0
LINE
  8
0
 10
12.998
 20
7.71973
 11
12.999
 21
7.70215
  0
LINE
  8
0
 10
12.999
 20
7.70215
 11
12.999
 21
7.68457
  0
LINE
  8
0
 10
12.999
 20
7.68457
 11
13
 21
7.66699
  0
LINE
  8
0
 10
13
 20
7.66699
 11
13
 21
5.93262
  0
LINE
  8
0
 10
13
 20
5.93262
 11
12.999
 21
5.91504
  0
LINE
  8
0
 10
12.999
 20
5.91504
 11
12.999
 21
5.89746
  0
LINE
  8
0
 10
12.999
 20
5.89746
 11
12.998
 21
5.87988
  0
LINE
  8
0
 10
12.998
 20
5.87988
 11
12.9961
 21
5.86328
  0
LINE
  8
0
 10
12.9961
 20
5.86328
 11
12.9902
 21
5.81055
  0
LINE
  8
0
 10
12.9902
 20
5.81055
 11
12.9873
 21
5.79395
  0
LINE
  8
0
 10
12.9873
 20
5.79395
 11
12.9814
 21
5.75879
  0
LINE
  8
0
 10
12.9814
 20
5.75879
 11
12.9785
 21
5.74219
  0
LINE
  8
0
 10
12.9785
 20
5.74219
 11
12.9746
 21
5.72461
  0
LINE
  8
0
 10
12.9746
 20
5.72461
 11
12.9707
 21
5.70801
  0
LINE
  8
0
 10
12.9707
 20
5.70801
 11
12.9609
 21
5.6748
  0
LINE
  8
0
 10
12.9609
 20
5.6748
 11
12.9561
 21
5.65723
  0
LINE
  8
0
 10
12.9561
 20
5.65723
 11
12.9512
 21
5.64062
  0
LINE
  8
0
 10
12.9512
 20
5.64062
 11
12.9453
 21
5.62402
  0
LINE
  8
0
 10
12.9453
 20
5.62402
 11
12.9395
 21
5.6084
  0
LINE
  8
0
 10
12.9395
 20
5.6084
 11
12.9336
 21
5.5918
  0
LINE
  8
0
 10
12.9336
 20
5.5918
 11
12.9268
 21
5.5752
  0
LINE
  8
0
 10
12.9268
 20
5.5752
 11
12.9209
 21
5.55957
  0
LINE
  8
0
 10
12.9209
 20
5.55957
 11
12.9131
 21
5.54297
  0
LINE
  8
0
 10
12.9131
 20
5.54297
 11
12.9062
 21
5.52734
  0
LINE
  8
0
 10
12.9062
 20
5.52734
 11
12.875
 21
5.46484
  0
LINE
  8
0
 10
12.875
 20
5.46484
 11
12.8662
 21
5.4502
  0
LINE
  8
0
 10
12.8662
 20
5.4502
 11
12.8574
 21
5.43457
  0
LINE
  8
0
 10
12.8574
 20
5.43457
 11
12.8477
 21
5.41992
  0
LINE
  8
0
 10
12.8477
 20
5.41992
 11
12.8389
 21
5.40527
  0
LINE
  8
0
 10
12.8389
 20
5.40527
 11
12.8193
 21
5.37598
  0
LINE
  8
0
 10
12.8193
 20
5.37598
 11
12.8086
 21
5.3623
  0
LINE
  8
0
 10
12.8086
 20
5.3623
 11
12.7988
 21
5.34863
  0
LINE
  8
0
 10
12.7988
 20
5.34863
 11
12.7881
 21
5.33398
  0
LINE
  8
0
 10
12.7881
 20
5.33398
 11
12.7773
 21
5.32031
  0
LINE
  8
0
 10
12.7773
 20
5.32031
 11
12.7656
 21
5.30762
  0
LINE
  8
0
 10
12.7656
 20
5.30762
 11
12.7549
 21
5.29395
  0
LINE
  8
0
 10
12.7549
 20
5.29395
 11
12.7432
 21
5.28125
  0
LINE
  8
0
 10
12.7432
 20
5.28125
 11
12.7314
 21
5.26758
  0
LINE
  8
0
 10
12.7314
 20
5.26758
 11
12.7197
 21
5.25488
  0
LINE
  8
0
 10
12.7197
 20
5.25488
 11
12.707
 21
5.24316
  0
LINE
  8
0
 10
12.707
 20
5.24316
 11
12.6943
 21
5.23047
  0
LINE
  8
0
 10
12.6943
 20
5.23047
 11
12.6562
 21
5.19531
  0
LINE
  8
0
 10
12.6562
 20
5.19531
 11
12.6426
 21
5.18359
  0
LINE
  8
0
 10
12.6426
 20
5.18359
 11
12.5879
 21
5.14062
  0
LINE
  8
0
 10
12.5879
 20
5.14062
 11
12.5732
 21
5.13086
  0
LINE
  8
0
 10
12.5732
 20
5.13086
 11
12.5596
 21
5.12109
  0
LINE
  8
0
 10
12.5596
 20
5.12109
 11
12.5303
 21
5.10156
  0
LINE
  8
0
 10
12.5303
 20
5.10156
 11
12.5146
 21
5.09277
  0
LINE
  8
0
 10
12.5146
 20
5.09277
 11
12.5
 21
5.08398
  0
LINE
  8
0
 10
12.5
 20
5.08398
 11
12.4844
 21
5.0752
  0
LINE
  8
0
 10
12.4844
 20
5.0752
 11
12.4697
 21
5.06738
  0
LINE
  8
0
 10
12.4697
 20
5.06738
 11
12.4541
 21
5.05859
  0
LINE
  8
0
 10
12.4541
 20
5.05859
 11
12.4385
 21
5.05078
  0
LINE
  8
0
 10
12.4385
 20
5.05078
 11
12.4229
 21
5.04395
  0
LINE
  8
0
 10
12.4229
 20
5.04395
 11
12.4062
 21
5.03613
  0
LINE
  8
0
 10
12.4062
 20
5.03613
 11
12.375
 21
5.02246
  0
LINE
  8
0
 10
12.375
 20
5.02246
 11
12.3086
 21
4.99902
  0
LINE
  8
0
 10
12.3086
 20
4.99902
 11
12.292
 21
4.99414
  0
LINE
  8
0
 10
12.292
 20
4.99414
 11
12.2754
 21
4.98828
  0
LINE
  8
0
 10
12.2754
 20
4.98828
 11
12.2588
 21
4.98438
  0
LINE
  8
0
 10
12.2588
 20
4.98438
 11
12.2422
 21
4.97949
  0
LINE
  8
0
 10
12.2422
 20
4.97949
 11
12.2246
 21
4.97559
  0
LINE
  8
0
 10
12.2246
 20
4.97559
 11
12.208
 21
4.97168
  0
LINE
  8
0
 10
12.208
 20
4.97168
 11
12.1904
 21
4.96875
  0
LINE
  8
0
 10
12.1904
 20
4.96875
 11
12.1738
 21
4.96484
  0
LINE
  8
0
 10
12.1738
 20
4.96484
 11
12.1562
 21
4.96191
  0
LINE
  8
0
 10
12.1562
 20
4.96191
 11
12.1396
 21
4.95996
  0
LINE
  8
0
 10
12.1396
 20
4.95996
 11
12.1221
 21
4.95703
  0
LINE
  8
0
 10
12.1221
 20
4.95703
 11
12.1045
 21
4.95508
  0
LINE
  8
0
 10
12.1045
 20
4.95508
 11
12.0869
 21
4.9541
  0
LINE
  8
0
 10
12.0869
 20
4.9541
 11
12.0693
 21
4.95215
  0
LINE
  8
0
 10
12.0693
 20
4.95215
 11
12.0527
 21
4.95117
  0
LINE
  8
0
 10
12.0527
 20
4.95117
 11
12.0352
 21
4.9502
  0
LINE
  8
0
 10
12.0352
 20
4.9502
 11
0.982422
 21
4.9502
  0
LINE
  8
0
 10
0.982422
 20
4.9502
 11
0.947266
 21
4.94824
  0
LINE
  8
0
 10
0.947266
 20
4.94824
 11
0.930664
 21
4.94727
  0
LINE
  8
0
 10
0.930664
 20
4.94727
 11
0.913086
 21
4.94629
  0
LINE
  8
0
 10
0.913086
 20
4.94629
 11
0.860352
 21
4.94043
  0
LINE
  8
0
 10
0.860352
 20
4.94043
 11
0.84375
 21
4.9375
  0
LINE
  8
0
 10
0.84375
 20
4.9375
 11
0.826172
 21
4.93457
  0
LINE
  8
0
 10
0.826172
 20
4.93457
 11
0.80957
 21
4.93164
  0
LINE
  8
0
 10
0.80957
 20
4.93164
 11
0.791992
 21
4.92773
  0
LINE
  8
0
 10
0.791992
 20
4.92773
 11
0.775391
 21
4.9248
  0
LINE
  8
0
 10
0.775391
 20
4.9248
 11
0.757812
 21
4.91992
  0
LINE
  8
0
 10
0.757812
 20
4.91992
 11
0.741211
 21
4.91602
  0
LINE
  8
0
 10
0.741211
 20
4.91602
 11
0.691406
 21
4.90137
  0
LINE
  8
0
 10
0.691406
 20
4.90137
 11
0.641602
 21
4.88379
  0
LINE
  8
0
 10
0.641602
 20
4.88379
 11
0.625
 21
4.87695
  0
LINE
  8
0
 10
0.625
 20
4.87695
 11
0.59375
 21
4.86328
  0
LINE
  8
0
 10
0.59375
 20
4.86328
 11
0.577148
 21
4.85645
  0
LINE
  8
0
 10
0.577148
 20
4.85645
 11
0.530273
 21
4.83301
  0
LINE
  8
0
 10
0.530273
 20
4.83301
 11
0.515625
 21
4.82422
  0
LINE
  8
0
 10
0.515625
 20
4.82422
 11
0.5
 21
4.81641
  0
LINE
  8
0
 10
0.5
 20
4.81641
 11
0.485352
 21
4.80762
  0
LINE
  8
0
 10
0.485352
 20
4.80762
 11
0.469727
 21
4.79785
  0
LINE
  8
0
 10
0.469727
 20
4.79785
 11
0.455078
 21
4.78906
  0
LINE
  8
0
 10
0.455078
 20
4.78906
 11
0.44043
 21
4.7793
  0
LINE
  8
0
 10
0.44043
 20
4.7793
 11
0.426758
 21
4.76953
  0
LINE
  8
0
 10
0.426758
 20
4.76953
 11
0.412109
 21
4.75879
  0
LINE
  8
0
 10
0.412109
 20
4.75879
 11
0.398438
 21
4.74902
  0
LINE
  8
0
 10
0.398438
 20
4.74902
 11
0.371094
 21
4.72754
  0
LINE
  8
0
 10
0.371094
 20
4.72754
 11
0.357422
 21
4.71582
  0
LINE
  8
0
 10
0.357422
 20
4.71582
 11
0.34375
 21
4.70508
  0
LINE
  8
0
 10
0.34375
 20
4.70508
 11
0.318359
 21
4.68164
  0
LINE
  8
0
 10
0.318359
 20
4.68164
 11
0.305664
 21
4.66895
  0
LINE
  8
0
 10
0.305664
 20
4.66895
 11
0.292969
 21
4.65723
  0
LINE
  8
0
 10
0.292969
 20
4.65723
 11
0.280273
 21
4.64453
  0
LINE
  8
0
 10
0.280273
 20
4.64453
 11
0.245117
 21
4.60645
  0
LINE
  8
0
 10
0.245117
 20
4.60645
 11
0.234375
 21
4.59277
  0
LINE
  8
0
 10
0.234375
 20
4.59277
 11
0.222656
 21
4.5791
  0
LINE
  8
0
 10
0.222656
 20
4.5791
 11
0.201172
 21
4.55176
  0
LINE
  8
0
 10
0.201172
 20
4.55176
 11
0.191406
 21
4.53809
  0
LINE
  8
0
 10
0.191406
 20
4.53809
 11
0.180664
 21
4.52344
  0
LINE
  8
0
 10
0.180664
 20
4.52344
 11
0.170898
 21
4.50879
  0
LINE
  8
0
 10
0.170898
 20
4.50879
 11
0.161133
 21
4.49512
  0
LINE
  8
0
 10
0.161133
 20
4.49512
 11
0.152344
 21
4.47949
  0
LINE
  8
0
 10
0.152344
 20
4.47949
 11
0.142578
 21
4.46484
  0
LINE
  8
0
 10
0.142578
 20
4.46484
 11
0.133789
 21
4.4502
  0
LINE
  8
0
 10
0.133789
 20
4.4502
 11
0.125
 21
4.43457
  0
LINE
  8
0
 10
0.125
 20
4.43457
 11
0.117188
 21
4.41992
  0
LINE
  8
0
 10
0.117188
 20
4.41992
 11
0.09375
 21
4.37305
  0
LINE
  8
0
 10
0.09375
 20
4.37305
 11
0.0869141
 21
4.35645
  0
LINE
  8
0
 10
0.0869141
 20
4.35645
 11
0.0791016
 21
4.34082
  0
LINE
  8
0
 10
0.0791016
 20
4.34082
 11
0.0732422
 21
4.32422
  0
LINE
  8
0
 10
0.0732422
 20
4.32422
 11
0.0664062
 21
4.30859
  0
LINE
  8
0
 10
0.0664062
 20
4.30859
 11
0.0488281
 21
4.25879
  0
LINE
  8
0
 10
0.0488281
 20
4.25879
 11
0.0292969
 21
4.19238
  0
LINE
  8
0
 10
0.0292969
 20
4.19238
 11
0.0253906
 21
4.1748
  0
LINE
  8
0
 10
0.0253906
 20
4.1748
 11
0.0214844
 21
4.1582
  0
LINE
  8
0
 10
0.0214844
 20
4.1582
 11
0.0185547
 21
4.14062
  0
LINE
  8
0
 10
0.0185547
 20
4.14062
 11
0.015625
 21
4.12402
  0
LINE
  8
0
 10
0.015625
 20
4.12402
 11
0.00976562
 21
4.08887
  0
LINE
  8
0
 10
0.00976562
 20
4.08887
 11
0.0078125
 21
4.07227
  0
LINE
  8
0
 10
0.0078125
 20
4.07227
 11
0.00195312
 21
4.01953
  0
LINE
  8
0
 10
0.00195312
 20
4.01953
 11
0.000976562
 21
4.00195
  0
LINE
  8
0
 10
0.000976562
 20
4.00195
 11
0.000976562
 21
3.98535
  0
LINE
  8
0
 10
0.000976562
 20
3.98535
 11
0
 21
3.96777
  0
LINE
  8
0
 10
0
 20
3.96777
 11
0
 21
0.982422
  0
LINE
  8
0
 10
0
 20
0.982422
 11
0.000976562
 21
0.964844
  0
LINE
  8
0
 10
0.000976562
 20
0.964844
 11
0.000976562
 21
0.947266
  0
LINE
  8
0
 10
0.000976562
 20
0.947266
 11
0.00195312
 21
0.930664
  0
LINE
  8
0
 10
0.00195312
 20
0.930664
 11
0.00976562
 21
0.860352
  0
LINE
  8
0
 10
0.00976562
 20
0.860352
 11
0.0126953
 21
0.84375
  0
LINE
  8
0
 10
0.0126953
 20
0.84375
 11
0.015625
 21
0.826172
  0
LINE
  8
0
 10
0.015625
 20
0.826172
 11
0.0185547
 21
0.80957
  0
LINE
  8
0
 10
0.0185547
 20
0.80957
 11
0.0214844
 21
0.791992
  0
LINE
  8
0
 10
0.0214844
 20
0.791992
 11
0.0253906
 21
0.775391
  0
LINE
  8
0
 10
0.0253906
 20
0.775391
 11
0.0292969
 21
0.757812
  0
LINE
  8
0
 10
0.0292969
 20
0.757812
 11
0.0488281
 21
0.691406
  0
LINE
  8
0
 10
0.0488281
 20
0.691406
 11
0.0664062
 21
0.641602
  0
LINE
  8
0
 10
0.0664062
 20
0.641602
 11
0.0732422
 21
0.625
  0
LINE
  8
0
 10
0.0732422
 20
0.625
 11
0.0791016
 21
0.609375
  0
LINE
  8
0
 10
0.0791016
 20
0.609375
 11
0.0869141
 21
0.59375
  0
LINE
  8
0
 10
0.0869141
 20
0.59375
 11
0.09375
 21
0.577148
  0
LINE
  8
0
 10
0.09375
 20
0.577148
 11
0.117188
 21
0.530273
  0
LINE
  8
0
 10
0.117188
 20
0.530273
 11
0.125
 21
0.515625
  0
LINE
  8
0
 10
0.125
 20
0.515625
 11
0.133789
 21
0.5
  0
LINE
  8
0
 10
0.133789
 20
0.5
 11
0.142578
 21
0.485352
  0
LINE
  8
0
 10
0.142578
 20
0.485352
 11
0.152344
 21
0.469727
  0
LINE
  8
0
 10
0.152344
 20
0.469727
 11
0.161133
 21
0.455078
  0
LINE
  8
0
 10
0.161133
 20
0.455078
 11
0.170898
 21
0.44043
  0
LINE
  8
0
 10
0.170898
 20
0.44043
 11
0.180664
 21
0.426758
  0
LINE
  8
0
 10
0.180664
 20
0.426758
 11
0.191406
 21
0.412109
  0
LINE
  8
0
 10
0.191406
 20
0.412109
 11
0.201172
 21
0.398438
  0
LINE
  8
0
 10
0.201172
 20
0.398438
 11
0.222656
 21
0.371094
  0
LINE
  8
0
 10
0.222656
 20
0.371094
 11
0.234375
 21
0.357422
  0
LINE
  8
0
 10
0.234375
 20
0.357422
 11
0.245117
 21
0.34375
  0
LINE
  8
0
 10
0.245117
 20
0.34375
 11
0.280273
 21
0.305664
  0
LINE
  8
0
 10
0.280273
 20
0.305664
 11
0.305664
 21
0.280273
  0
LINE
  8
0
 10
0.305664
 20
0.280273
 11
0.34375
 21
0.245117
  0
LINE
  8
0
 10
0.34375
 20
0.245117
 11
0.357422
 21
0.234375
  0
LINE
  8
0
 10
0.357422
 20
0.234375
 11
0.371094
 21
0.222656
  0
LINE
  8
0
 10
0.371094
 20
0.222656
 11
0.398438
 21
0.201172
  0
LINE
  8
0
 10
0.398438
 20
0.201172
 11
0.412109
 21
0.191406
  0
LINE
  8
0
 10
0.412109
 20
0.191406
 11
0.426758
 21
0.180664
  0
LINE
  8
0
 10
0.426758
 20
0.180664
 11
0.44043
 21
0.170898
  0
LINE
  8
0
 10
0.44043
 20
0.170898
 11
0.455078
 21
0.161133
  0
LINE
  8
0
 10
0.455078
 20
0.161133
 11
0.469727
 21
0.152344
  0
LINE
  8
0
 10
0.469727
 20
0.152344
 11
0.485352
 21
0.142578
  0
LINE
  8
0
 10
0.485352
 20
0.142578
 11
0.5
 21
0.133789
  0
LINE
  8
0
 10
0.5
 20
0.133789
 11
0.515625
 21
0.125
  0
LINE
  8
0
 10
0.515625
 20
0.125
 11
0.530273
 21
0.117188
  0
LINE
  8
0
 10
0.530273
 20
0.117188
 11
0.577148
 21
0.09375
  0
LINE
  8
0
 10
0.577148
 20
0.09375
 11
0.59375
 21
0.0869141
  0
LINE
  8
0
 10
0.59375
 20
0.0869141
 11
0.609375
 21
0.0791016
  0
LINE
  8
0
 10
0.609375
 20
0.0791016
 11
0.625
 21
0.0732422
  0
LINE
  8
0
 10
0.625
 20
0.0732422
 11
0.641602
 21
0.0664062
  0
LINE
  8
0
 10
0.641602
 20
0.0664062
 11
0.691406
 21
0.0488281
  0
LINE
  8
0
 10
0.691406
 20
0.0488281
 11
0.757812
 21
0.0292969
  0
LINE
  8
0
 10
0.757812
 20
0.0292969
 11
0.775391
 21
0.0253906
  0
LINE
  8
0
 10
0.775391
 20
0.0253906
 11
0.791992
 21
0.0214844
  0
LINE
  8
0
 10
0.791992
 20
0.0214844
 11
0.80957
 21
0.0185547
  0
LINE
  8
0
 10
0.80957
 20
0.0185547
 11
0.826172
 21
0.015625
  0
LINE
  8
0
 10
0.826172
 20
0.015625
 11
0.84375
 21
0.0126953
  0
LINE
  8
0
 10
0.84375
 20
0.0126953
 11
0.860352
 21
0.00976562
  0
LINE
  8
0
 10
0.860352
 20
0.00976562
 11
0.930664
 21
0.00195312
  0
LINE
  8
0
 10
0.930664
 20
0.00195312
 11
0.947266
 21
0.000976562
  0
LINE
  8
0
 10
0.947266
 20
0.000976562
 11
0.964844
 21
0.000976562
  0
LINE
  8
0
 10
0.964844
 20
0.000976562
 11
0.982422
 21
0
  0
LINE
  8
0
 10
0.982422
 20
0
 11
16.0352
 21
0
  0
LINE
  8
0
 10
16.0352
 20
0
 11
16.0693
 21
0.000976562
  0
LINE
  8
0
 10
53.4824
 20
9
 11
53.4648
 21
9.00098
  0
LINE
  8
0
 10
53.4648
 20
9.00098
 11
53.4473
 21
9.00098
  0
LINE
  8
0
 10
53.4473
 20
9.00098
 11
53.4307
 21
9.00195
  0
LINE
  8
0
 10
53.4307
 20
9.00195
 11
53.3604
 21
9.00977
  0
LINE
  8
0
 10
53.3604
 20
9.00977
 11
53.3438
 21
9.0127
  0
LINE
  8
0
 10
53.3438
 20
9.0127
 11
53.3262
 21
9.01562
  0
LINE
  8
0
 10
53.3262
 20
9.01562
 11
53.3096
 21
9.01855
  0
LINE
  8
0
 10
53.3096
 20
9.01855
 11
53.292
 21
9.02148
  0
LINE
  8
0
 10
53.292
 20
9.02148
 11
53.2754
 21
9.02539
  0
LINE
  8
0
 10
53.2754
 20
9.02539
 11
53.2578
 21
9.0293
  0
LINE
  8
0
 10
53.2578
 20
9.0293
 11
53.1914
 21
9.04883
  0
LINE
  8
0
 10
53.1914
 20
9.04883
 11
53.1416
 21
9.06641
  0
LINE
  8
0
 10
53.1416
 20
9.06641
 11
53.125
 21
9.07324
  0
LINE
  8
0
 10
53.125
 20
9.07324
 11
53.1094
 21
9.0791
  0
LINE
  8
0
 10
53.1094
 20
9.0791
 11
53.0938
 21
9.08691
  0
LINE
  8
0
 10
53.0938
 20
9.08691
 11
53.0771
 21
9.09375
  0
LINE
  8
0
 10
53.0771
 20
9.09375
 11
53.0303
 21
9.11719
  0
LINE
  8
0
 10
53.0303
 20
9.11719
 11
53.0156
 21
9.125
  0
LINE
  8
0
 10
53.0156
 20
9.125
 11
53
 21
9.13379
  0
LINE
  8
0
 10
53
 20
9.13379
 11
52.9854
 21
9.14258
  0
LINE
  8
0
 10
52.9854
 20
9.14258
 11
52.9697
 21
9.15234
  0
LINE
  8
0
 10
52.9697
 20
9.15234
 11
52.9551
 21
9.16113
  0
LINE
  8
0
 10
52.9551
 20
9.16113
 11
52.9404
 21
9.1709
  0
LINE
  8
0
 10
52.9404
 20
9.1709
 11
52.9268
 21
9.18066
  0
LINE
  8
0
 10
52.9268
 20
9.18066
 11
52.9121
 21
9.19141
  0
LINE
  8
0
 10
52.9121
 20
9.19141
 11
52.8984
 21
9.20117
  0
LINE
  8
0
 10
52.8984
 20
9.20117
 11
52.8711
 21
9.22266
  0
LINE
  8
0
 10
52.8711
 20
9.22266
 11
52.8574
 21
9.23438
  0
LINE
  8
0
 10
52.8574
 20
9.23438
 11
52.8438
 21
9.24512
  0
LINE
  8
0
 10
52.8438
 20
9.24512
 11
52.8057
 21
9.28027
  0
LINE
  8
0
 10
52.8057
 20
9.28027
 11
52.7803
 21
9.30566
  0
LINE
  8
0
 10
52.7803
 20
9.30566
 11
52.7451
 21
9.34375
  0
LINE
  8
0
 10
52.7451
 20
9.34375
 11
52.7344
 21
9.35742
  0
LINE
  8
0
 10
52.7344
 20
9.35742
 11
52.7227
 21
9.37109
  0
LINE
  8
0
 10
52.7227
 20
9.37109
 11
52.7012
 21
9.39844
  0
LINE
  8
0
 10
52.7012
 20
9.39844
 11
52.6914
 21
9.41211
  0
LINE
  8
0
 10
52.6914
 20
9.41211
 11
52.6807
 21
9.42676
  0
LINE
  8
0
 10
52.6807
 20
9.42676
 11
52.6709
 21
9.44043
  0
LINE
  8
0
 10
52.6709
 20
9.44043
 11
52.6611
 21
9.45508
  0
LINE
  8
0
 10
52.6611
 20
9.45508
 11
52.6523
 21
9.46973
  0
LINE
  8
0
 10
52.6523
 20
9.46973
 11
52.6426
 21
9.48535
  0
LINE
  8
0
 10
52.6426
 20
9.48535
 11
52.6338
 21
9.5
  0
LINE
  8
0
 10
52.6338
 20
9.5
 11
52.625
 21
9.51562
  0
LINE
  8
0
 10
52.625
 20
9.51562
 11
52.6172
 21
9.53027
  0
LINE
  8
0
 10
52.6172
 20
9.53027
 11
52.5938
 21
9.57715
  0
LINE
  8
0
 10
52.5938
 20
9.57715
 11
52.5869
 21
9.59375
  0
LINE
  8
0
 10
52.5869
 20
9.59375
 11
52.5791
 21
9.60938
  0
LINE
  8
0
 10
52.5791
 20
9.60938
 11
52.5732
 21
9.625
  0
LINE
  8
0
 10
52.5732
 20
9.625
 11
52.5664
 21
9.6416
  0
LINE
  8
0
 10
52.5664
 20
9.6416
 11
52.5488
 21
9.69141
  0
LINE
  8
0
 10
52.5488
 20
9.69141
 11
52.5293
 21
9.75781
  0
LINE
  8
0
 10
52.5293
 20
9.75781
 11
52.5254
 21
9.77539
  0
LINE
  8
0
 10
52.5254
 20
9.77539
 11
52.5215
 21
9.79199
  0
LINE
  8
0
 10
52.5215
 20
9.79199
 11
52.5186
 21
9.80957
  0
LINE
  8
0
 10
52.5186
 20
9.80957
 11
52.5156
 21
9.82617
  0
LINE
  8
0
 10
52.5156
 20
9.82617
 11
52.5127
 21
9.84375
  0
LINE
  8
0
 10
52.5127
 20
9.84375
 11
52.5098
 21
9.86035
  0
LINE
  8
0
 10
52.5098
 20
9.86035
 11
52.502
 21
9.93066
  0
LINE
  8
0
 10
52.502
 20
9.93066
 11
52.501
 21
9.94727
  0
LINE
  8
0
 10
52.501
 20
9.94727
 11
52.501
 21
9.96484
  0
LINE
  8
0
 10
52.501
 20
9.96484
 11
52.5
 21
9.98242
  0
LINE
  8
0
 10
52.5
 20
9.98242
 11
52.5
 21
23.0664
  0
LINE
  8
0
 10
52.5
 20
23.0664
 11
52.501
 21
23.084
  0
LINE
  8
0
 10
52.501
 20
23.084
 11
52.501
 21
23.1016
  0
LINE
  8
0
 10
52.501
 20
23.1016
 11
52.502
 21
23.1191
  0
LINE
  8
0
 10
52.502
 20
23.1191
 11
52.5039
 21
23.1367
  0
LINE
  8
0
 10
52.5039
 20
23.1367
 11
52.5059
 21
23.1533
  0
LINE
  8
0
 10
52.5059
 20
23.1533
 11
52.5098
 21
23.1885
  0
LINE
  8
0
 10
52.5098
 20
23.1885
 11
52.5127
 21
23.2061
  0
LINE
  8
0
 10
52.5127
 20
23.2061
 11
52.5156
 21
23.2227
  0
LINE
  8
0
 10
52.5156
 20
23.2227
 11
52.5186
 21
23.2402
  0
LINE
  8
0
 10
52.5186
 20
23.2402
 11
52.5215
 21
23.2568
  0
LINE
  8
0
 10
52.5215
 20
23.2568
 11
52.5254
 21
23.2744
  0
LINE
  8
0
 10
52.5254
 20
23.2744
 11
52.5293
 21
23.291
  0
LINE
  8
0
 10
52.5293
 20
23.291
 11
52.5342
 21
23.3076
  0
LINE
  8
0
 10
52.5342
 20
23.3076
 11
52.5391
 21
23.3252
  0
LINE
  8
0
 10
52.5391
 20
23.3252
 11
52.5488
 21
23.3584
  0
LINE
  8
0
 10
52.5488
 20
23.3584
 11
52.5605
 21
23.3916
  0
LINE
  8
0
 10
52.5605
 20
23.3916
 11
52.5664
 21
23.4072
  0
LINE
  8
0
 10
52.5664
 20
23.4072
 11
52.5732
 21
23.4238
  0
LINE
  8
0
 10
52.5732
 20
23.4238
 11
52.5791
 21
23.4395
  0
LINE
  8
0
 10
52.5791
 20
23.4395
 11
52.5869
 21
23.4561
  0
LINE
  8
0
 10
52.5869
 20
23.4561
 11
52.5938
 21
23.4717
  0
LINE
  8
0
 10
52.5938
 20
23.4717
 11
52.625
 21
23.5342
  0
LINE
  8
0
 10
52.625
 20
23.5342
 11
52.6338
 21
23.5488
  0
LINE
  8
0
 10
52.6338
 20
23.5488
 11
52.6426
 21
23.5645
  0
LINE
  8
0
 10
52.6426
 20
23.5645
 11
52.6523
 21
23.5791
  0
LINE
  8
0
 10
52.6523
 20
23.5791
 11
52.6611
 21
23.5938
  0
LINE
  8
0
 10
52.6611
 20
23.5938
 11
52.6807
 21
23.623
  0
LINE
  8
0
 10
52.6807
 20
23.623
 11
52.6914
 21
23.6367
  0
LINE
  8
0
 10
52.6914
 20
23.6367
 11
52.7012
 21
23.6514
  0
LINE
  8
0
 10
52.7012
 20
23.6514
 11
52.7227
 21
23.6787
  0
LINE
  8
0
 10
52.7227
 20
23.6787
 11
52.7344
 21
23.6924
  0
LINE
  8
0
 10
52.7344
 20
23.6924
 11
52.7451
 21
23.7051
  0
LINE
  8
0
 10
52.7451
 20
23.7051
 11
52.7568
 21
23.7188
  0
LINE
  8
0
 10
52.7568
 20
23.7188
 11
52.7803
 21
23.7441
  0
LINE
  8
0
 10
52.7803
 20
23.7441
 11
52.793
 21
23.7559
  0
LINE
  8
0
 10
52.793
 20
23.7559
 11
52.8057
 21
23.7686
  0
LINE
  8
0
 10
52.8057
 20
23.7686
 11
52.8438
 21
23.8037
  0
LINE
  8
0
 10
52.8438
 20
23.8037
 11
52.8574
 21
23.8154
  0
LINE
  8
0
 10
52.8574
 20
23.8154
 11
52.9121
 21
23.8584
  0
LINE
  8
0
 10
52.9121
 20
23.8584
 11
52.9268
 21
23.8682
  0
LINE
  8
0
 10
52.9268
 20
23.8682
 11
52.9404
 21
23.8779
  0
LINE
  8
0
 10
52.9404
 20
23.8779
 11
52.9697
 21
23.8975
  0
LINE
  8
0
 10
52.9697
 20
23.8975
 11
52.9854
 21
23.9062
  0
LINE
  8
0
 10
52.9854
 20
23.9062
 11
53
 21
23.915
  0
LINE
  8
0
 10
53
 20
23.915
 11
53.0156
 21
23.9238
  0
LINE
  8
0
 10
53.0156
 20
23.9238
 11
53.0303
 21
23.9326
  0
LINE
  8
0
 10
53.0303
 20
23.9326
 11
53.0615
 21
23.9482
  0
LINE
  8
0
 10
53.0615
 20
23.9482
 11
53.0771
 21
23.9551
  0
LINE
  8
0
 10
53.0771
 20
23.9551
 11
53.0938
 21
23.9629
  0
LINE
  8
0
 10
53.0938
 20
23.9629
 11
53.125
 21
23.9766
  0
LINE
  8
0
 10
53.125
 20
23.9766
 11
53.1416
 21
23.9824
  0
LINE
  8
0
 10
53.1416
 20
23.9824
 11
53.1582
 21
23.9893
  0
LINE
  8
0
 10
53.1582
 20
23.9893
 11
53.1748
 21
23.9951
  0
LINE
  8
0
 10
53.1748
 20
23.9951
 11
53.1914
 21
24
  0
LINE
  8
0
 10
53.1914
 20
24
 11
53.208
 21
24.0059
  0
LINE
  8
0
 10
53.208
 20
24.0059
 11
53.2246
 21
24.0107
  0
LINE
  8
0
 10
53.2246
 20
24.0107
 11
53.2412
 21
24.0146
  0
LINE
  8
0
 10
53.2412
 20
24.0146
 11
53.2578
 21
24.0195
  0
LINE
  8
0
 10
53.2578
 20
24.0195
 11
53.2754
 21
24.0234
  0
LINE
  8
0
 10
53.2754
 20
24.0234
 11
53.292
 21
24.0273
  0
LINE
  8
0
 10
53.292
 20
24.0273
 11
53.3096
 21
24.0312
  0
LINE
  8
0
 10
53.3096
 20
24.0312
 11
53.3262
 21
24.0342
  0
LINE
  8
0
 10
53.3262
 20
24.0342
 11
53.3438
 21
24.0371
  0
LINE
  8
0
 10
53.3438
 20
24.0371
 11
53.3604
 21
24.0391
  0
LINE
  8
0
 10
53.3604
 20
24.0391
 11
53.3779
 21
24.042
  0
LINE
  8
0
 10
53.3779
 20
24.042
 11
53.3955
 21
24.0439
  0
LINE
  8
0
 10
53.3955
 20
24.0439
 11
53.4131
 21
24.0449
  0
LINE
  8
0
 10
53.4131
 20
24.0449
 11
53.4307
 21
24.0469
  0
LINE
  8
0
 10
53.4307
 20
24.0469
 11
53.4473
 21
24.0479
  0
LINE
  8
0
 10
53.4473
 20
24.0479
 11
53.4648
 21
24.0488
  0
LINE
  8
0
 10
53.4648
 20
24.0488
 11
60.0381
 21
24.0488
  0
LINE
  8
0
 10
60.0381
 20
24.0488
 11
60.0732
 21
24.0469
  0
LINE
  8
0
 10
60.0732
 20
24.0469
 11
60.0908
 21
24.0449
  0
LINE
  8
0
 10
60.0908
 20
24.0449
 11
60.1074
 21
24.0439
  0
LINE
  8
0
 10
60.1074
 20
24.0439
 11
60.125
 21
24.042
  0
LINE
  8
0
 10
60.125
 20
24.042
 11
60.1426
 21
24.0391
  0
LINE
  8
0
 10
60.1426
 20
24.0391
 11
60.1602
 21
24.0371
  0
LINE
  8
0
 10
60.1602
 20
24.0371
 11
60.1768
 21
24.0342
  0
LINE
  8
0
 10
60.1768
 20
24.0342
 11
60.1943
 21
24.0312
  0
LINE
  8
0
 10
60.1943
 20
24.0312
 11
60.2109
 21
24.0273
  0
LINE
  8
0
 10
60.2109
 20
24.0273
 11
60.2285
 21
24.0234
  0
LINE
  8
0
 10
60.2285
 20
24.0234
 11
60.2451
 21
24.0195
  0
LINE
  8
0
 10
60.2451
 20
24.0195
 11
60.2617
 21
24.0146
  0
LINE
  8
0
 10
60.2617
 20
24.0146
 11
60.2793
 21
24.0107
  0
LINE
  8
0
 10
60.2793
 20
24.0107
 11
60.2959
 21
24.0059
  0
LINE
  8
0
 10
60.2959
 20
24.0059
 11
60.3125
 21
24
  0
LINE
  8
0
 10
60.3125
 20
24
 11
60.3291
 21
23.9951
  0
LINE
  8
0
 10
60.3291
 20
23.9951
 11
60.3457
 21
23.9893
  0
LINE
  8
0
 10
60.3457
 20
23.9893
 11
60.3613
 21
23.9824
  0
LINE
  8
0
 10
60.3613
 20
23.9824
 11
60.3779
 21
23.9766
  0
LINE
  8
0
 10
60.3779
 20
23.9766
 11
60.3945
 21
23.9697
  0
LINE
  8
0
 10
60.3945
 20
23.9697
 11
60.4102
 21
23.9629
  0
LINE
  8
0
 10
60.4102
 20
23.9629
 11
60.4258
 21
23.9551
  0
LINE
  8
0
 10
60.4258
 20
23.9551
 11
60.4414
 21
23.9482
  0
LINE
  8
0
 10
60.4414
 20
23.9482
 11
60.4727
 21
23.9326
  0
LINE
  8
0
 10
60.4727
 20
23.9326
 11
60.4883
 21
23.9238
  0
LINE
  8
0
 10
60.4883
 20
23.9238
 11
60.5029
 21
23.915
  0
LINE
  8
0
 10
60.5029
 20
23.915
 11
60.5186
 21
23.9062
  0
LINE
  8
0
 10
60.5186
 20
23.9062
 11
60.5332
 21
23.8975
  0
LINE
  8
0
 10
60.5332
 20
23.8975
 11
60.5771
 21
23.8682
  0
LINE
  8
0
 10
60.5771
 20
23.8682
 11
60.5908
 21
23.8584
  0
LINE
  8
0
 10
60.5908
 20
23.8584
 11
60.6055
 21
23.8477
  0
LINE
  8
0
 10
60.6055
 20
23.8477
 11
60.6465
 21
23.8154
  0
LINE
  8
0
 10
60.6465
 20
23.8154
 11
60.6592
 21
23.8037
  0
LINE
  8
0
 10
60.6592
 20
23.8037
 11
60.6729
 21
23.792
  0
LINE
  8
0
 10
60.6729
 20
23.792
 11
60.6982
 21
23.7686
  0
LINE
  8
0
 10
60.6982
 20
23.7686
 11
60.7227
 21
23.7441
  0
LINE
  8
0
 10
60.7227
 20
23.7441
 11
60.7461
 21
23.7188
  0
LINE
  8
0
 10
60.7461
 20
23.7188
 11
60.7578
 21
23.7051
  0
LINE
  8
0
 10
60.7578
 20
23.7051
 11
60.7695
 21
23.6924
  0
LINE
  8
0
 10
60.7695
 20
23.6924
 11
60.8018
 21
23.6514
  0
LINE
  8
0
 10
60.8018
 20
23.6514
 11
60.8125
 21
23.6367
  0
LINE
  8
0
 10
60.8125
 20
23.6367
 11
60.8223
 21
23.623
  0
LINE
  8
0
 10
60.8223
 20
23.623
 11
60.8516
 21
23.5791
  0
LINE
  8
0
 10
60.8516
 20
23.5791
 11
60.8604
 21
23.5645
  0
LINE
  8
0
 10
60.8604
 20
23.5645
 11
60.8691
 21
23.5488
  0
LINE
  8
0
 10
60.8691
 20
23.5488
 11
60.8779
 21
23.5342
  0
LINE
  8
0
 10
60.8779
 20
23.5342
 11
60.8867
 21
23.5186
  0
LINE
  8
0
 10
60.8867
 20
23.5186
 11
60.9023
 21
23.4873
  0
LINE
  8
0
 10
60.9023
 20
23.4873
 11
60.9092
 21
23.4717
  0
LINE
  8
0
 10
60.9092
 20
23.4717
 11
60.917
 21
23.4561
  0
LINE
  8
0
 10
60.917
 20
23.4561
 11
60.9238
 21
23.4395
  0
LINE
  8
0
 10
60.9238
 20
23.4395
 11
60.9307
 21
23.4238
  0
LINE
  8
0
 10
60.9307
 20
23.4238
 11
60.9365
 21
23.4072
  0
LINE
  8
0
 10
60.9365
 20
23.4072
 11
60.9434
 21
23.3916
  0
LINE
  8
0
 10
60.9434
 20
23.3916
 11
60.9492
 21
23.375
  0
LINE
  8
0
 10
60.9492
 20
23.375
 11
60.9541
 21
23.3584
  0
LINE
  8
0
 10
60.9541
 20
23.3584
 11
60.96
 21
23.3418
  0
LINE
  8
0
 10
60.96
 20
23.3418
 11
60.9648
 21
23.3252
  0
LINE
  8
0
 10
60.9648
 20
23.3252
 11
60.9697
 21
23.3076
  0
LINE
  8
0
 10
60.9697
 20
23.3076
 11
60.9775
 21
23.2744
  0
LINE
  8
0
 10
60.9775
 20
23.2744
 11
60.9814
 21
23.2568
  0
LINE
  8
0
 10
60.9814
 20
23.2568
 11
60.9854
 21
23.2402
  0
LINE
  8
0
 10
60.9854
 20
23.2402
 11
60.9883
 21
23.2227
  0
LINE
  8
0
 10
60.9883
 20
23.2227
 11
60.9912
 21
23.2061
  0
LINE
  8
0
 10
60.9912
 20
23.2061
 11
60.9932
 21
23.1885
  0
LINE
  8
0
 10
60.9932
 20
23.1885
 11
60.9961
 21
23.1709
  0
LINE
  8
0
 10
60.9961
 20
23.1709
 11
60.998
 21
23.1533
  0
LINE
  8
0
 10
60.998
 20
23.1533
 11
61
 21
23.1367
  0
LINE
  8
0
 10
61
 20
23.1367
 11
61.0029
 21
23.084
  0
LINE
  8
0
 10
61.0029
 20
23.084
 11
61.0029
 21
9.96484
  0
LINE
  8
0
 10
61.0029
 20
9.96484
 11
61.002
 21
9.94727
  0
LINE
  8
0
 10
61.002
 20
9.94727
 11
61.001
 21
9.93066
  0
LINE
  8
0
 10
61.001
 20
9.93066
 11
61
 21
9.91309
  0
LINE
  8
0
 10
61
 20
9.91309
 11
60.9961
 21
9.87793
  0
LINE
  8
0
 10
60.9961
 20
9.87793
 11
60.9932
 21
9.86035
  0
LINE
  8
0
 10
60.9932
 20
9.86035
 11
60.9912
 21
9.84375
  0
LINE
  8
0
 10
60.9912
 20
9.84375
 11
60.9883
 21
9.82617
  0
LINE
  8
0
 10
60.9883
 20
9.82617
 11
60.9854
 21
9.80957
  0
LINE
  8
0
 10
60.9854
 20
9.80957
 11
60.9814
 21
9.79199
  0
LINE
  8
0
 10
60.9814
 20
9.79199
 11
60.9775
 21
9.77539
  0
LINE
  8
0
 10
60.9775
 20
9.77539
 11
60.9736
 21
9.75781
  0
LINE
  8
0
 10
60.9736
 20
9.75781
 11
60.9697
 21
9.74121
  0
LINE
  8
0
 10
60.9697
 20
9.74121
 11
60.96
 21
9.70801
  0
LINE
  8
0
 10
60.96
 20
9.70801
 11
60.9541
 21
9.69141
  0
LINE
  8
0
 10
60.9541
 20
9.69141
 11
60.9492
 21
9.6748
  0
LINE
  8
0
 10
60.9492
 20
9.6748
 11
60.9434
 21
9.6582
  0
LINE
  8
0
 10
60.9434
 20
9.6582
 11
60.9365
 21
9.6416
  0
LINE
  8
0
 10
60.9365
 20
9.6416
 11
60.9307
 21
9.625
  0
LINE
  8
0
 10
60.9307
 20
9.625
 11
60.917
 21
9.59375
  0
LINE
  8
0
 10
60.917
 20
9.59375
 11
60.9092
 21
9.57715
  0
LINE
  8
0
 10
60.9092
 20
9.57715
 11
60.9023
 21
9.56152
  0
LINE
  8
0
 10
60.9023
 20
9.56152
 11
60.8867
 21
9.53027
  0
LINE
  8
0
 10
60.8867
 20
9.53027
 11
60.8779
 21
9.51562
  0
LINE
  8
0
 10
60.8779
 20
9.51562
 11
60.8691
 21
9.5
  0
LINE
  8
0
 10
60.8691
 20
9.5
 11
60.8604
 21
9.48535
  0
LINE
  8
0
 10
60.8604
 20
9.48535
 11
60.8516
 21
9.46973
  0
LINE
  8
0
 10
60.8516
 20
9.46973
 11
60.832
 21
9.44043
  0
LINE
  8
0
 10
60.832
 20
9.44043
 11
60.8223
 21
9.42676
  0
LINE
  8
0
 10
60.8223
 20
9.42676
 11
60.8125
 21
9.41211
  0
LINE
  8
0
 10
60.8125
 20
9.41211
 11
60.7695
 21
9.35742
  0
LINE
  8
0
 10
60.7695
 20
9.35742
 11
60.7578
 21
9.34375
  0
LINE
  8
0
 10
60.7578
 20
9.34375
 11
60.7109
 21
9.29297
  0
LINE
  8
0
 10
60.7109
 20
9.29297
 11
60.6982
 21
9.28027
  0
LINE
  8
0
 10
60.6982
 20
9.28027
 11
60.6729
 21
9.25684
  0
LINE
  8
0
 10
60.6729
 20
9.25684
 11
60.6592
 21
9.24512
  0
LINE
  8
0
 10
60.6592
 20
9.24512
 11
60.6465
 21
9.23438
  0
LINE
  8
0
 10
60.6465
 20
9.23438
 11
60.6328
 21
9.22266
  0
LINE
  8
0
 10
60.6328
 20
9.22266
 11
60.6055
 21
9.20117
  0
LINE
  8
0
 10
60.6055
 20
9.20117
 11
60.5908
 21
9.19141
  0
LINE
  8
0
 10
60.5908
 20
9.19141
 11
60.5771
 21
9.18066
  0
LINE
  8
0
 10
60.5771
 20
9.18066
 11
60.5479
 21
9.16113
  0
LINE
  8
0
 10
60.5479
 20
9.16113
 11
60.5332
 21
9.15234
  0
LINE
  8
0
 10
60.5332
 20
9.15234
 11
60.5186
 21
9.14258
  0
LINE
  8
0
 10
60.5186
 20
9.14258
 11
60.5029
 21
9.13379
  0
LINE
  8
0
 10
60.5029
 20
9.13379
 11
60.4883
 21
9.125
  0
LINE
  8
0
 10
60.4883
 20
9.125
 11
60.4258
 21
9.09375
  0
LINE
  8
0
 10
60.4258
 20
9.09375
 11
60.4102
 21
9.08691
  0
LINE
  8
0
 10
60.4102
 20
9.08691
 11
60.3945
 21
9.0791
  0
LINE
  8
0
 10
60.3945
 20
9.0791
 11
60.3779
 21
9.07324
  0
LINE
  8
0
 10
60.3779
 20
9.07324
 11
60.3613
 21
9.06641
  0
LINE
  8
0
 10
60.3613
 20
9.06641
 11
60.3457
 21
9.06055
  0
LINE
  8
0
 10
60.3457
 20
9.06055
 11
60.3125
 21
9.04883
  0
LINE
  8
0
 10
60.3125
 20
9.04883
 11
60.2793
 21
9.03906
  0
LINE
  8
0
 10
60.2793
 20
9.03906
 11
60.2617
 21
9.03418
  0
LINE
  8
0
 10
60.2617
 20
9.03418
 11
60.2451
 21
9.0293
  0
LINE
  8
0
 10
60.2451
 20
9.0293
 11
60.2285
 21
9.02539
  0
LINE
  8
0
 10
60.2285
 20
9.02539
 11
60.2109
 21
9.02148
  0
LINE
  8
0
 10
60.2109
 20
9.02148
 11
60.1943
 21
9.01855
  0
LINE
  8
0
 10
60.1943
 20
9.01855
 11
60.1768
 21
9.01562
  0
LINE
  8
0
 10
60.1768
 20
9.01562
 11
60.1602
 21
9.0127
  0
LINE
  8
0
 10
60.1602
 20
9.0127
 11
60.1426
 21
9.00977
  0
LINE
  8
0
 10
60.1426
 20
9.00977
 11
60.1074
 21
9.00586
  0
LINE
  8
0
 10
60.1074
 20
9.00586
 11
60.0908
 21
9.00391
  0
LINE
  8
0
 10
60.0908
 20
9.00391
 11
60.0732
 21
9.00195
  0
LINE
  8
0
 10
60.0732
 20
9.00195
 11
60.0557
 21
9.00098
  0
LINE
  8
0
 10
60.0557
 20
9.00098
 11
60.0381
 21
9.00098
  0
LINE
  8
0
 10
60.0381
 20
9.00098
 11
60.0205
 21
9
  0
LINE
  8
0
 10
60.0205
 20
9
 11
53.4824
 21
9
  0
LINE
  8
0
 10
81.4824
 20
13.6064
 11
81.4473
 21
13.6084
  0
LINE
  8
0
 10
81.4473
 20
13.6084
 11
81.4307
 21
13.6094
  0
LINE
  8
0
 10
81.4307
 20
13.6094
 11
81.4131
 21
13.6104
  0
LINE
  8
0
 10
81.4131
 20
13.6104
 11
81.3604
 21
13.6162
  0
LINE
  8
0
 10
81.3604
 20
13.6162
 11
81.3438
 21
13.6191
  0
LINE
  8
0
 10
81.3438
 20
13.6191
 11
81.3262
 21
13.6221
  0
LINE
  8
0
 10
81.3262
 20
13.6221
 11
81.3096
 21
13.625
  0
LINE
  8
0
 10
81.3096
 20
13.625
 11
81.292
 21
13.6289
  0
LINE
  8
0
 10
81.292
 20
13.6289
 11
81.2754
 21
13.6328
  0
LINE
  8
0
 10
81.2754
 20
13.6328
 11
81.2578
 21
13.6367
  0
LINE
  8
0
 10
81.2578
 20
13.6367
 11
81.2412
 21
13.6406
  0
LINE
  8
0
 10
81.2412
 20
13.6406
 11
81.1914
 21
13.6553
  0
LINE
  8
0
 10
81.1914
 20
13.6553
 11
81.1416
 21
13.6729
  0
LINE
  8
0
 10
81.1416
 20
13.6729
 11
81.125
 21
13.6797
  0
LINE
  8
0
 10
81.125
 20
13.6797
 11
81.0938
 21
13.6934
  0
LINE
  8
0
 10
81.0938
 20
13.6934
 11
81.0771
 21
13.7002
  0
LINE
  8
0
 10
81.0771
 20
13.7002
 11
81.0303
 21
13.7236
  0
LINE
  8
0
 10
81.0303
 20
13.7236
 11
81.0156
 21
13.7324
  0
LINE
  8
0
 10
81.0156
 20
13.7324
 11
81
 21
13.7402
  0
LINE
  8
0
 10
81
 20
13.7402
 11
80.9854
 21
13.75
  0
LINE
  8
0
 10
80.9854
 20
13.75
 11
80.9697
 21
13.7588
  0
LINE
  8
0
 10
80.9697
 20
13.7588
 11
80.9551
 21
13.7686
  0
LINE
  8
0
 10
80.9551
 20
13.7686
 11
80.9404
 21
13.7773
  0
LINE
  8
0
 10
80.9404
 20
13.7773
 11
80.9268
 21
13.7871
  0
LINE
  8
0
 10
80.9268
 20
13.7871
 11
80.9121
 21
13.7979
  0
LINE
  8
0
 10
80.9121
 20
13.7979
 11
80.8984
 21
13.8086
  0
LINE
  8
0
 10
80.8984
 20
13.8086
 11
80.8848
 21
13.8184
  0
LINE
  8
0
 10
80.8848
 20
13.8184
 11
80.8711
 21
13.8301
  0
LINE
  8
0
 10
80.8711
 20
13.8301
 11
80.8438
 21
13.8516
  0
LINE
  8
0
 10
80.8438
 20
13.8516
 11
80.8184
 21
13.875
  0
LINE
  8
0
 10
80.8184
 20
13.875
 11
80.8057
 21
13.8877
  0
LINE
  8
0
 10
80.8057
 20
13.8877
 11
80.793
 21
13.8994
  0
LINE
  8
0
 10
80.793
 20
13.8994
 11
80.7803
 21
13.9121
  0
LINE
  8
0
 10
80.7803
 20
13.9121
 11
80.7451
 21
13.9502
  0
LINE
  8
0
 10
80.7451
 20
13.9502
 11
80.7344
 21
13.9639
  0
LINE
  8
0
 10
80.7344
 20
13.9639
 11
80.7227
 21
13.9775
  0
LINE
  8
0
 10
80.7227
 20
13.9775
 11
80.7012
 21
14.0049
  0
LINE
  8
0
 10
80.7012
 20
14.0049
 11
80.6914
 21
14.0186
  0
LINE
  8
0
 10
80.6914
 20
14.0186
 11
80.6807
 21
14.0332
  0
LINE
  8
0
 10
80.6807
 20
14.0332
 11
80.6611
 21
14.0625
  0
LINE
  8
0
 10
80.6611
 20
14.0625
 11
80.6523
 21
14.0771
  0
LINE
  8
0
 10
80.6523
 20
14.0771
 11
80.6426
 21
14.0918
  0
LINE
  8
0
 10
80.6426
 20
14.0918
 11
80.6338
 21
14.1064
  0
LINE
  8
0
 10
80.6338
 20
14.1064
 11
80.625
 21
14.1221
  0
LINE
  8
0
 10
80.625
 20
14.1221
 11
80.6172
 21
14.1377
  0
LINE
  8
0
 10
80.6172
 20
14.1377
 11
80.6094
 21
14.1523
  0
LINE
  8
0
 10
80.6094
 20
14.1523
 11
80.6016
 21
14.168
  0
LINE
  8
0
 10
80.6016
 20
14.168
 11
80.5938
 21
14.1846
  0
LINE
  8
0
 10
80.5938
 20
14.1846
 11
80.5869
 21
14.2002
  0
LINE
  8
0
 10
80.5869
 20
14.2002
 11
80.5791
 21
14.2158
  0
LINE
  8
0
 10
80.5791
 20
14.2158
 11
80.5732
 21
14.2324
  0
LINE
  8
0
 10
80.5732
 20
14.2324
 11
80.5664
 21
14.248
  0
LINE
  8
0
 10
80.5664
 20
14.248
 11
80.5488
 21
14.2979
  0
LINE
  8
0
 10
80.5488
 20
14.2979
 11
80.5342
 21
14.3477
  0
LINE
  8
0
 10
80.5342
 20
14.3477
 11
80.5293
 21
14.3652
  0
LINE
  8
0
 10
80.5293
 20
14.3652
 11
80.5215
 21
14.3984
  0
LINE
  8
0
 10
80.5215
 20
14.3984
 11
80.5186
 21
14.416
  0
LINE
  8
0
 10
80.5186
 20
14.416
 11
80.5156
 21
14.4326
  0
LINE
  8
0
 10
80.5156
 20
14.4326
 11
80.5098
 21
14.4678
  0
LINE
  8
0
 10
80.5098
 20
14.4678
 11
80.5078
 21
14.4854
  0
LINE
  8
0
 10
80.5078
 20
14.4854
 11
80.5059
 21
14.502
  0
LINE
  8
0
 10
80.5059
 20
14.502
 11
80.502
 21
14.5371
  0
LINE
  8
0
 10
80.502
 20
14.5371
 11
80.501
 21
14.5547
  0
LINE
  8
0
 10
80.501
 20
14.5547
 11
80.501
 21
14.5723
  0
LINE
  8
0
 10
80.501
 20
14.5723
 11
80.5
 21
14.5889
  0
LINE
  8
0
 10
80.5
 20
14.5889
 11
80.5
 21
22.6738
  0
LINE
  8
0
 10
80.5
 20
22.6738
 11
80.501
 21
22.6904
  0
LINE
  8
0
 10
80.501
 20
22.6904
 11
80.501
 21
22.708
  0
LINE
  8
0
 10
80.501
 20
22.708
 11
80.502
 21
22.7256
  0
LINE
  8
0
 10
80.502
 20
22.7256
 11
80.5059
 21
22.7607
  0
LINE
  8
0
 10
80.5059
 20
22.7607
 11
80.5078
 21
22.7773
  0
LINE
  8
0
 10
80.5078
 20
22.7773
 11
80.5098
 21
22.7949
  0
LINE
  8
0
 10
80.5098
 20
22.7949
 11
80.5156
 21
22.8301
  0
LINE
  8
0
 10
80.5156
 20
22.8301
 11
80.5186
 21
22.8467
  0
LINE
  8
0
 10
80.5186
 20
22.8467
 11
80.5215
 21
22.8643
  0
LINE
  8
0
 10
80.5215
 20
22.8643
 11
80.5293
 21
22.8975
  0
LINE
  8
0
 10
80.5293
 20
22.8975
 11
80.5342
 21
22.915
  0
LINE
  8
0
 10
80.5342
 20
22.915
 11
80.5488
 21
22.9648
  0
LINE
  8
0
 10
80.5488
 20
22.9648
 11
80.5664
 21
23.0146
  0
LINE
  8
0
 10
80.5664
 20
23.0146
 11
80.5732
 21
23.0303
  0
LINE
  8
0
 10
80.5732
 20
23.0303
 11
80.5791
 21
23.0469
  0
LINE
  8
0
 10
80.5791
 20
23.0469
 11
80.5869
 21
23.0625
  0
LINE
  8
0
 10
80.5869
 20
23.0625
 11
80.5938
 21
23.0781
  0
LINE
  8
0
 10
80.5938
 20
23.0781
 11
80.6016
 21
23.0947
  0
LINE
  8
0
 10
80.6016
 20
23.0947
 11
80.6094
 21
23.1104
  0
LINE
  8
0
 10
80.6094
 20
23.1104
 11
80.6172
 21
23.125
  0
LINE
  8
0
 10
80.6172
 20
23.125
 11
80.625
 21
23.1406
  0
LINE
  8
0
 10
80.625
 20
23.1406
 11
80.6338
 21
23.1562
  0
LINE
  8
0
 10
80.6338
 20
23.1562
 11
80.6426
 21
23.1709
  0
LINE
  8
0
 10
80.6426
 20
23.1709
 11
80.6523
 21
23.1855
  0
LINE
  8
0
 10
80.6523
 20
23.1855
 11
80.6611
 21
23.2002
  0
LINE
  8
0
 10
80.6611
 20
23.2002
 11
80.6807
 21
23.2295
  0
LINE
  8
0
 10
80.6807
 20
23.2295
 11
80.6914
 21
23.2441
  0
LINE
  8
0
 10
80.6914
 20
23.2441
 11
80.7012
 21
23.2578
  0
LINE
  8
0
 10
80.7012
 20
23.2578
 11
80.7227
 21
23.2852
  0
LINE
  8
0
 10
80.7227
 20
23.2852
 11
80.7344
 21
23.2988
  0
LINE
  8
0
 10
80.7344
 20
23.2988
 11
80.7451
 21
23.3115
  0
LINE
  8
0
 10
80.7451
 20
23.3115
 11
80.7568
 21
23.3252
  0
LINE
  8
0
 10
80.7568
 20
23.3252
 11
80.7803
 21
23.3506
  0
LINE
  8
0
 10
80.7803
 20
23.3506
 11
80.793
 21
23.3633
  0
LINE
  8
0
 10
80.793
 20
23.3633
 11
80.8057
 21
23.375
  0
LINE
  8
0
 10
80.8057
 20
23.375
 11
80.8184
 21
23.3877
  0
LINE
  8
0
 10
80.8184
 20
23.3877
 11
80.8438
 21
23.4111
  0
LINE
  8
0
 10
80.8438
 20
23.4111
 11
80.8711
 21
23.4326
  0
LINE
  8
0
 10
80.8711
 20
23.4326
 11
80.8848
 21
23.4443
  0
LINE
  8
0
 10
80.8848
 20
23.4443
 11
80.8984
 21
23.4541
  0
LINE
  8
0
 10
80.8984
 20
23.4541
 11
80.9121
 21
23.4648
  0
LINE
  8
0
 10
80.9121
 20
23.4648
 11
80.9268
 21
23.4756
  0
LINE
  8
0
 10
80.9268
 20
23.4756
 11
80.9404
 21
23.4854
  0
LINE
  8
0
 10
80.9404
 20
23.4854
 11
80.9551
 21
23.4941
  0
LINE
  8
0
 10
80.9551
 20
23.4941
 11
80.9697
 21
23.5039
  0
LINE
  8
0
 10
80.9697
 20
23.5039
 11
80.9854
 21
23.5127
  0
LINE
  8
0
 10
80.9854
 20
23.5127
 11
81
 21
23.5225
  0
LINE
  8
0
 10
81
 20
23.5225
 11
81.0156
 21
23.5303
  0
LINE
  8
0
 10
81.0156
 20
23.5303
 11
81.0303
 21
23.5391
  0
LINE
  8
0
 10
81.0303
 20
23.5391
 11
81.0771
 21
23.5625
  0
LINE
  8
0
 10
81.0771
 20
23.5625
 11
81.0938
 21
23.5693
  0
LINE
  8
0
 10
81.0938
 20
23.5693
 11
81.125
 21
23.583
  0
LINE
  8
0
 10
81.125
 20
23.583
 11
81.1416
 21
23.5898
  0
LINE
  8
0
 10
81.1416
 20
23.5898
 11
81.1914
 21
23.6074
  0
LINE
  8
0
 10
81.1914
 20
23.6074
 11
81.2412
 21
23.6221
  0
LINE
  8
0
 10
81.2412
 20
23.6221
 11
81.2578
 21
23.626
  0
LINE
  8
0
 10
81.2578
 20
23.626
 11
81.2754
 21
23.6299
  0
LINE
  8
0
 10
81.2754
 20
23.6299
 11
81.292
 21
23.6338
  0
LINE
  8
0
 10
81.292
 20
23.6338
 11
81.3096
 21
23.6377
  0
LINE
  8
0
 10
81.3096
 20
23.6377
 11
81.3262
 21
23.6406
  0
LINE
  8
0
 10
81.3262
 20
23.6406
 11
81.3438
 21
23.6436
  0
LINE
  8
0
 10
81.3438
 20
23.6436
 11
81.3604
 21
23.6465
  0
LINE
  8
0
 10
81.3604
 20
23.6465
 11
81.4131
 21
23.6523
  0
LINE
  8
0
 10
81.4131
 20
23.6523
 11
81.4307
 21
23.6533
  0
LINE
  8
0
 10
81.4307
 20
23.6533
 11
81.4473
 21
23.6543
  0
LINE
  8
0
 10
81.4473
 20
23.6543
 11
81.4824
 21
23.6562
  0
LINE
  8
0
 10
81.4824
 20
23.6562
 11
88.0137
 21
23.6562
  0
LINE
  8
0
 10
88.0137
 20
23.6562
 11
88.084
 21
23.6523
  0
LINE
  8
0
 10
88.084
 20
23.6523
 11
88.1016
 21
23.6504
  0
LINE
  8
0
 10
88.1016
 20
23.6504
 11
88.1182
 21
23.6484
  0
LINE
  8
0
 10
88.1182
 20
23.6484
 11
88.1357
 21
23.6465
  0
LINE
  8
0
 10
88.1357
 20
23.6465
 11
88.1533
 21
23.6436
  0
LINE
  8
0
 10
88.1533
 20
23.6436
 11
88.1699
 21
23.6406
  0
LINE
  8
0
 10
88.1699
 20
23.6406
 11
88.1875
 21
23.6377
  0
LINE
  8
0
 10
88.1875
 20
23.6377
 11
88.2041
 21
23.6338
  0
LINE
  8
0
 10
88.2041
 20
23.6338
 11
88.2217
 21
23.6299
  0
LINE
  8
0
 10
88.2217
 20
23.6299
 11
88.2383
 21
23.626
  0
LINE
  8
0
 10
88.2383
 20
23.626
 11
88.2559
 21
23.6221
  0
LINE
  8
0
 10
88.2559
 20
23.6221
 11
88.3057
 21
23.6074
  0
LINE
  8
0
 10
88.3057
 20
23.6074
 11
88.3555
 21
23.5898
  0
LINE
  8
0
 10
88.3555
 20
23.5898
 11
88.3711
 21
23.583
  0
LINE
  8
0
 10
88.3711
 20
23.583
 11
88.3877
 21
23.5762
  0
LINE
  8
0
 10
88.3877
 20
23.5762
 11
88.4189
 21
23.5625
  0
LINE
  8
0
 10
88.4189
 20
23.5625
 11
88.4658
 21
23.5391
  0
LINE
  8
0
 10
88.4658
 20
23.5391
 11
88.4814
 21
23.5303
  0
LINE
  8
0
 10
88.4814
 20
23.5303
 11
88.4971
 21
23.5225
  0
LINE
  8
0
 10
88.4971
 20
23.5225
 11
88.5117
 21
23.5127
  0
LINE
  8
0
 10
88.5117
 20
23.5127
 11
88.5264
 21
23.5039
  0
LINE
  8
0
 10
88.5264
 20
23.5039
 11
88.541
 21
23.4941
  0
LINE
  8
0
 10
88.541
 20
23.4941
 11
88.5557
 21
23.4854
  0
LINE
  8
0
 10
88.5557
 20
23.4854
 11
88.5703
 21
23.4756
  0
LINE
  8
0
 10
88.5703
 20
23.4756
 11
88.584
 21
23.4648
  0
LINE
  8
0
 10
88.584
 20
23.4648
 11
88.5986
 21
23.4541
  0
LINE
  8
0
 10
88.5986
 20
23.4541
 11
88.6123
 21
23.4443
  0
LINE
  8
0
 10
88.6123
 20
23.4443
 11
88.626
 21
23.4326
  0
LINE
  8
0
 10
88.626
 20
23.4326
 11
88.6396
 21
23.4219
  0
LINE
  8
0
 10
88.6396
 20
23.4219
 11
88.6523
 21
23.4111
  0
LINE
  8
0
 10
88.6523
 20
23.4111
 11
88.666
 21
23.3994
  0
LINE
  8
0
 10
88.666
 20
23.3994
 11
88.6787
 21
23.3877
  0
LINE
  8
0
 10
88.6787
 20
23.3877
 11
88.6914
 21
23.375
  0
LINE
  8
0
 10
88.6914
 20
23.375
 11
88.7041
 21
23.3633
  0
LINE
  8
0
 10
88.7041
 20
23.3633
 11
88.7275
 21
23.3379
  0
LINE
  8
0
 10
88.7275
 20
23.3379
 11
88.7402
 21
23.3252
  0
LINE
  8
0
 10
88.7402
 20
23.3252
 11
88.751
 21
23.3115
  0
LINE
  8
0
 10
88.751
 20
23.3115
 11
88.7627
 21
23.2988
  0
LINE
  8
0
 10
88.7627
 20
23.2988
 11
88.8057
 21
23.2441
  0
LINE
  8
0
 10
88.8057
 20
23.2441
 11
88.8154
 21
23.2295
  0
LINE
  8
0
 10
88.8154
 20
23.2295
 11
88.8262
 21
23.2148
  0
LINE
  8
0
 10
88.8262
 20
23.2148
 11
88.835
 21
23.2002
  0
LINE
  8
0
 10
88.835
 20
23.2002
 11
88.8447
 21
23.1855
  0
LINE
  8
0
 10
88.8447
 20
23.1855
 11
88.8623
 21
23.1562
  0
LINE
  8
0
 10
88.8623
 20
23.1562
 11
88.8799
 21
23.125
  0
LINE
  8
0
 10
88.8799
 20
23.125
 11
88.8877
 21
23.1104
  0
LINE
  8
0
 10
88.8877
 20
23.1104
 11
88.8955
 21
23.0947
  0
LINE
  8
0
 10
88.8955
 20
23.0947
 11
88.9033
 21
23.0781
  0
LINE
  8
0
 10
88.9033
 20
23.0781
 11
88.917
 21
23.0469
  0
LINE
  8
0
 10
88.917
 20
23.0469
 11
88.9238
 21
23.0303
  0
LINE
  8
0
 10
88.9238
 20
23.0303
 11
88.9307
 21
23.0146
  0
LINE
  8
0
 10
88.9307
 20
23.0146
 11
88.9424
 21
22.9814
  0
LINE
  8
0
 10
88.9424
 20
22.9814
 11
88.9473
 21
22.9648
  0
LINE
  8
0
 10
88.9473
 20
22.9648
 11
88.9531
 21
22.9482
  0
LINE
  8
0
 10
88.9531
 20
22.9482
 11
88.9629
 21
22.915
  0
LINE
  8
0
 10
88.9629
 20
22.915
 11
88.9668
 21
22.8975
  0
LINE
  8
0
 10
88.9668
 20
22.8975
 11
88.9746
 21
22.8643
  0
LINE
  8
0
 10
88.9746
 20
22.8643
 11
88.9785
 21
22.8467
  0
LINE
  8
0
 10
88.9785
 20
22.8467
 11
88.9814
 21
22.8301
  0
LINE
  8
0
 10
88.9814
 20
22.8301
 11
88.9873
 21
22.7949
  0
LINE
  8
0
 10
88.9873
 20
22.7949
 11
88.9893
 21
22.7773
  0
LINE
  8
0
 10
88.9893
 20
22.7773
 11
88.9912
 21
22.7607
  0
LINE
  8
0
 10
88.9912
 20
22.7607
 11
88.9932
 21
22.7432
  0
LINE
  8
0
 10
88.9932
 20
22.7432
 11
88.9961
 21
22.6904
  0
LINE
  8
0
 10
88.9961
 20
22.6904
 11
88.9961
 21
22.6738
  0
LINE
  8
0
 10
88.9961
 20
22.6738
 11
88.9971
 21
22.6562
  0
LINE
  8
0
 10
88.9971
 20
22.6562
 11
88.9971
 21
14.6064
  0
LINE
  8
0
 10
88.9971
 20
14.6064
 11
88.9961
 21
14.5889
  0
LINE
  8
0
 10
88.9961
 20
14.5889
 11
88.9961
 21
14.5723
  0
LINE
  8
0
 10
88.9961
 20
14.5723
 11
88.9932
 21
14.5195
  0
LINE
  8
0
 10
88.9932
 20
14.5195
 11
88.9912
 21
14.502
  0
LINE
  8
0
 10
88.9912
 20
14.502
 11
88.9893
 21
14.4854
  0
LINE
  8
0
 10
88.9893
 20
14.4854
 11
88.9873
 21
14.4678
  0
LINE
  8
0
 10
88.9873
 20
14.4678
 11
88.9814
 21
14.4326
  0
LINE
  8
0
 10
88.9814
 20
14.4326
 11
88.9785
 21
14.416
  0
LINE
  8
0
 10
88.9785
 20
14.416
 11
88.9746
 21
14.3984
  0
LINE
  8
0
 10
88.9746
 20
14.3984
 11
88.9668
 21
14.3652
  0
LINE
  8
0
 10
88.9668
 20
14.3652
 11
88.9629
 21
14.3477
  0
LINE
  8
0
 10
88.9629
 20
14.3477
 11
88.9531
 21
14.3145
  0
LINE
  8
0
 10
88.9531
 20
14.3145
 11
88.9473
 21
14.2979
  0
LINE
  8
0
 10
88.9473
 20
14.2979
 11
88.9424
 21
14.2812
  0
LINE
  8
0
 10
88.9424
 20
14.2812
 11
88.9307
 21
14.248
  0
LINE
  8
0
 10
88.9307
 20
14.248
 11
88.9238
 21
14.2324
  0
LINE
  8
0
 10
88.9238
 20
14.2324
 11
88.917
 21
14.2158
  0
LINE
  8
0
 10
88.917
 20
14.2158
 11
88.9033
 21
14.1846
  0
LINE
  8
0
 10
88.9033
 20
14.1846
 11
88.8955
 21
14.168
  0
LINE
  8
0
 10
88.8955
 20
14.168
 11
88.8877
 21
14.1523
  0
LINE
  8
0
 10
88.8877
 20
14.1523
 11
88.8799
 21
14.1377
  0
LINE
  8
0
 10
88.8799
 20
14.1377
 11
88.8623
 21
14.1064
  0
LINE
  8
0
 10
88.8623
 20
14.1064
 11
88.8447
 21
14.0771
  0
LINE
  8
0
 10
88.8447
 20
14.0771
 11
88.835
 21
14.0625
  0
LINE
  8
0
 10
88.835
 20
14.0625
 11
88.8262
 21
14.0479
  0
LINE
  8
0
 10
88.8262
 20
14.0479
 11
88.8154
 21
14.0332
  0
LINE
  8
0
 10
88.8154
 20
14.0332
 11
88.8057
 21
14.0186
  0
LINE
  8
0
 10
88.8057
 20
14.0186
 11
88.7627
 21
13.9639
  0
LINE
  8
0
 10
88.7627
 20
13.9639
 11
88.751
 21
13.9502
  0
LINE
  8
0
 10
88.751
 20
13.9502
 11
88.7402
 21
13.9375
  0
LINE
  8
0
 10
88.7402
 20
13.9375
 11
88.7275
 21
13.9248
  0
LINE
  8
0
 10
88.7275
 20
13.9248
 11
88.7041
 21
13.8994
  0
LINE
  8
0
 10
88.7041
 20
13.8994
 11
88.6914
 21
13.8877
  0
LINE
  8
0
 10
88.6914
 20
13.8877
 11
88.6787
 21
13.875
  0
LINE
  8
0
 10
88.6787
 20
13.875
 11
88.666
 21
13.8633
  0
LINE
  8
0
 10
88.666
 20
13.8633
 11
88.6523
 21
13.8516
  0
LINE
  8
0
 10
88.6523
 20
13.8516
 11
88.6396
 21
13.8408
  0
LINE
  8
0
 10
88.6396
 20
13.8408
 11
88.626
 21
13.8301
  0
LINE
  8
0
 10
88.626
 20
13.8301
 11
88.6123
 21
13.8184
  0
LINE
  8
0
 10
88.6123
 20
13.8184
 11
88.5986
 21
13.8086
  0
LINE
  8
0
 10
88.5986
 20
13.8086
 11
88.584
 21
13.7979
  0
LINE
  8
0
 10
88.584
 20
13.7979
 11
88.5703
 21
13.7871
  0
LINE
  8
0
 10
88.5703
 20
13.7871
 11
88.5557
 21
13.7773
  0
LINE
  8
0
 10
88.5557
 20
13.7773
 11
88.541
 21
13.7686
  0
LINE
  8
0
 10
88.541
 20
13.7686
 11
88.5264
 21
13.7588
  0
LINE
  8
0
 10
88.5264
 20
13.7588
 11
88.5117
 21
13.75
  0
LINE
  8
0
 10
88.5117
 20
13.75
 11
88.4971
 21
13.7402
  0
LINE
  8
0
 10
88.4971
 20
13.7402
 11
88.4814
 21
13.7324
  0
LINE
  8
0
 10
88.4814
 20
13.7324
 11
88.4658
 21
13.7236
  0
LINE
  8
0
 10
88.4658
 20
13.7236
 11
88.4189
 21
13.7002
  0
LINE
  8
0
 10
88.4189
 20
13.7002
 11
88.3877
 21
13.6865
  0
LINE
  8
0
 10
88.3877
 20
13.6865
 11
88.3711
 21
13.6797
  0
LINE
  8
0
 10
88.3711
 20
13.6797
 11
88.3555
 21
13.6729
  0
LINE
  8
0
 10
88.3555
 20
13.6729
 11
88.3057
 21
13.6553
  0
LINE
  8
0
 10
88.3057
 20
13.6553
 11
88.2559
 21
13.6406
  0
LINE
  8
0
 10
88.2559
 20
13.6406
 11
88.2383
 21
13.6367
  0
LINE
  8
0
 10
88.2383
 20
13.6367
 11
88.2217
 21
13.6328
  0
LINE
  8
0
 10
88.2217
 20
13.6328
 11
88.2041
 21
13.6289
  0
LINE
  8
0
 10
88.2041
 20
13.6289
 11
88.1875
 21
13.625
  0
LINE
  8
0
 10
88.1875
 20
13.625
 11
88.1699
 21
13.6221
  0
LINE
  8
0
 10
88.1699
 20
13.6221
 11
88.1533
 21
13.6191
  0
LINE
  8
0
 10
88.1533
 20
13.6191
 11
88.1357
 21
13.6162
  0
LINE
  8
0
 10
88.1357
 20
13.6162
 11
88.1182
 21
13.6143
  0
LINE
  8
0
 10
88.1182
 20
13.6143
 11
88.1016
 21
13.6123
  0
LINE
  8
0
 10
88.1016
 20
13.6123
 11
88.084
 21
13.6104
  0
LINE
  8
0
 10
88.084
 20
13.6104
 11
88.0137
 21
13.6064
  0
LINE
  8
0
 10
88.0137
 20
13.6064
 11
81.4824
 21
13.6064
  0
LINE
  8
0
 10
13.4756
 20
10
 11
13.458
 21
10.001
  0
LINE
  8
0
 10
13.458
 20
10.001
 11
13.4404
 21
10.001
  0
LINE
  8
0
 10
13.4404
 20
10.001
 11
13.4229
 21
10.002
  0
LINE
  8
0
 10
13.4229
 20
10.002
 11
13.4053
 21
10.0039
  0
LINE
  8
0
 10
13.4053
 20
10.0039
 11
13.3887
 21
10.0059
  0
LINE
  8
0
 10
13.3887
 20
10.0059
 11
13.3535
 21
10.0098
  0
LINE
  8
0
 10
13.3535
 20
10.0098
 11
13.3359
 21
10.0127
  0
LINE
  8
0
 10
13.3359
 20
10.0127
 11
13.3193
 21
10.0156
  0
LINE
  8
0
 10
13.3193
 20
10.0156
 11
13.3018
 21
10.0186
  0
LINE
  8
0
 10
13.3018
 20
10.0186
 11
13.2852
 21
10.0215
  0
LINE
  8
0
 10
13.2852
 20
10.0215
 11
13.2676
 21
10.0254
  0
LINE
  8
0
 10
13.2676
 20
10.0254
 11
13.251
 21
10.0293
  0
LINE
  8
0
 10
13.251
 20
10.0293
 11
13.2344
 21
10.0342
  0
LINE
  8
0
 10
13.2344
 20
10.0342
 11
13.2168
 21
10.0391
  0
LINE
  8
0
 10
13.2168
 20
10.0391
 11
13.1836
 21
10.0488
  0
LINE
  8
0
 10
13.1836
 20
10.0488
 11
13.1504
 21
10.0605
  0
LINE
  8
0
 10
13.1504
 20
10.0605
 11
13.1348
 21
10.0664
  0
LINE
  8
0
 10
13.1348
 20
10.0664
 11
13.1182
 21
10.0732
  0
LINE
  8
0
 10
13.1182
 20
10.0732
 11
13.1016
 21
10.0791
  0
LINE
  8
0
 10
13.1016
 20
10.0791
 11
13.0859
 21
10.0869
  0
LINE
  8
0
 10
13.0859
 20
10.0869
 11
13.0703
 21
10.0938
  0
LINE
  8
0
 10
13.0703
 20
10.0938
 11
13.0078
 21
10.125
  0
LINE
  8
0
 10
13.0078
 20
10.125
 11
12.9932
 21
10.1338
  0
LINE
  8
0
 10
12.9932
 20
10.1338
 11
12.9775
 21
10.1426
  0
LINE
  8
0
 10
12.9775
 20
10.1426
 11
12.9629
 21
10.1523
  0
LINE
  8
0
 10
12.9629
 20
10.1523
 11
12.9482
 21
10.1611
  0
LINE
  8
0
 10
12.9482
 20
10.1611
 11
12.9189
 21
10.1807
  0
LINE
  8
0
 10
12.9189
 20
10.1807
 11
12.9053
 21
10.1914
  0
LINE
  8
0
 10
12.9053
 20
10.1914
 11
12.8906
 21
10.2012
  0
LINE
  8
0
 10
12.8906
 20
10.2012
 11
12.8633
 21
10.2227
  0
LINE
  8
0
 10
12.8633
 20
10.2227
 11
12.8496
 21
10.2344
  0
LINE
  8
0
 10
12.8496
 20
10.2344
 11
12.8369
 21
10.2451
  0
LINE
  8
0
 10
12.8369
 20
10.2451
 11
12.8232
 21
10.2568
  0
LINE
  8
0
 10
12.8232
 20
10.2568
 11
12.7979
 21
10.2803
  0
LINE
  8
0
 10
12.7979
 20
10.2803
 11
12.7852
 21
10.293
  0
LINE
  8
0
 10
12.7852
 20
10.293
 11
12.7383
 21
10.3438
  0
LINE
  8
0
 10
12.7383
 20
10.3438
 11
12.7266
 21
10.3574
  0
LINE
  8
0
 10
12.7266
 20
10.3574
 11
12.6836
 21
10.4121
  0
LINE
  8
0
 10
12.6836
 20
10.4121
 11
12.6738
 21
10.4268
  0
LINE
  8
0
 10
12.6738
 20
10.4268
 11
12.6641
 21
10.4404
  0
LINE
  8
0
 10
12.6641
 20
10.4404
 11
12.6445
 21
10.4697
  0
LINE
  8
0
 10
12.6445
 20
10.4697
 11
12.6357
 21
10.4854
  0
LINE
  8
0
 10
12.6357
 20
10.4854
 11
12.627
 21
10.5
  0
LINE
  8
0
 10
12.627
 20
10.5
 11
12.6182
 21
10.5156
  0
LINE
  8
0
 10
12.6182
 20
10.5156
 11
12.6094
 21
10.5303
  0
LINE
  8
0
 10
12.6094
 20
10.5303
 11
12.5938
 21
10.5615
  0
LINE
  8
0
 10
12.5938
 20
10.5615
 11
12.5869
 21
10.5771
  0
LINE
  8
0
 10
12.5869
 20
10.5771
 11
12.5791
 21
10.5938
  0
LINE
  8
0
 10
12.5791
 20
10.5938
 11
12.5654
 21
10.625
  0
LINE
  8
0
 10
12.5654
 20
10.625
 11
12.5596
 21
10.6416
  0
LINE
  8
0
 10
12.5596
 20
10.6416
 11
12.5527
 21
10.6582
  0
LINE
  8
0
 10
12.5527
 20
10.6582
 11
12.5469
 21
10.6748
  0
LINE
  8
0
 10
12.5469
 20
10.6748
 11
12.542
 21
10.6914
  0
LINE
  8
0
 10
12.542
 20
10.6914
 11
12.5361
 21
10.708
  0
LINE
  8
0
 10
12.5361
 20
10.708
 11
12.5264
 21
10.7412
  0
LINE
  8
0
 10
12.5264
 20
10.7412
 11
12.5225
 21
10.7578
  0
LINE
  8
0
 10
12.5225
 20
10.7578
 11
12.5186
 21
10.7754
  0
LINE
  8
0
 10
12.5186
 20
10.7754
 11
12.5146
 21
10.792
  0
LINE
  8
0
 10
12.5146
 20
10.792
 11
12.5107
 21
10.8096
  0
LINE
  8
0
 10
12.5107
 20
10.8096
 11
12.5078
 21
10.8262
  0
LINE
  8
0
 10
12.5078
 20
10.8262
 11
12.5049
 21
10.8438
  0
LINE
  8
0
 10
12.5049
 20
10.8438
 11
12.5029
 21
10.8604
  0
LINE
  8
0
 10
12.5029
 20
10.8604
 11
12.5
 21
10.8779
  0
LINE
  8
0
 10
12.5
 20
10.8779
 11
12.4961
 21
10.9131
  0
LINE
  8
0
 10
12.4961
 20
10.9131
 11
12.4951
 21
10.9307
  0
LINE
  8
0
 10
12.4951
 20
10.9307
 11
12.4941
 21
10.9473
  0
LINE
  8
0
 10
12.4941
 20
10.9473
 11
12.4932
 21
10.9648
  0
LINE
  8
0
 10
12.4932
 20
10.9648
 11
12.4932
 21
11
  0
LINE
  8
0
 10
12.4932
 20
11
 11
12.4814
 21
22.5186
  0
LINE
  8
0
 10
12.4814
 20
22.5186
 11
12.4824
 21
22.5361
  0
LINE
  8
0
 10
12.4824
 20
22.5361
 11
12.4824
 21
22.5537
  0
LINE
  8
0
 10
12.4824
 20
22.5537
 11
12.4844
 21
22.5713
  0
LINE
  8
0
 10
12.4844
 20
22.5713
 11
12.4854
 21
22.5889
  0
LINE
  8
0
 10
12.4854
 20
22.5889
 11
12.4873
 21
22.6055
  0
LINE
  8
0
 10
12.4873
 20
22.6055
 11
12.4912
 21
22.6406
  0
LINE
  8
0
 10
12.4912
 20
22.6406
 11
12.4941
 21
22.6582
  0
LINE
  8
0
 10
12.4941
 20
22.6582
 11
12.4971
 21
22.6748
  0
LINE
  8
0
 10
12.4971
 20
22.6748
 11
12.5
 21
22.6924
  0
LINE
  8
0
 10
12.5
 20
22.6924
 11
12.5029
 21
22.709
  0
LINE
  8
0
 10
12.5029
 20
22.709
 11
12.5068
 21
22.7266
  0
LINE
  8
0
 10
12.5068
 20
22.7266
 11
12.5107
 21
22.7432
  0
LINE
  8
0
 10
12.5107
 20
22.7432
 11
12.5156
 21
22.7598
  0
LINE
  8
0
 10
12.5156
 20
22.7598
 11
12.5205
 21
22.7773
  0
LINE
  8
0
 10
12.5205
 20
22.7773
 11
12.5303
 21
22.8105
  0
LINE
  8
0
 10
12.5303
 20
22.8105
 11
12.542
 21
22.8438
  0
LINE
  8
0
 10
12.542
 20
22.8438
 11
12.5479
 21
22.8594
  0
LINE
  8
0
 10
12.5479
 20
22.8594
 11
12.5547
 21
22.876
  0
LINE
  8
0
 10
12.5547
 20
22.876
 11
12.5605
 21
22.8916
  0
LINE
  8
0
 10
12.5605
 20
22.8916
 11
12.5684
 21
22.9082
  0
LINE
  8
0
 10
12.5684
 20
22.9082
 11
12.5752
 21
22.9238
  0
LINE
  8
0
 10
12.5752
 20
22.9238
 11
12.6064
 21
22.9863
  0
LINE
  8
0
 10
12.6064
 20
22.9863
 11
12.6152
 21
23.001
  0
LINE
  8
0
 10
12.6152
 20
23.001
 11
12.624
 21
23.0166
  0
LINE
  8
0
 10
12.624
 20
23.0166
 11
12.6338
 21
23.0312
  0
LINE
  8
0
 10
12.6338
 20
23.0312
 11
12.6426
 21
23.0459
  0
LINE
  8
0
 10
12.6426
 20
23.0459
 11
12.6621
 21
23.0752
  0
LINE
  8
0
 10
12.6621
 20
23.0752
 11
12.6729
 21
23.0889
  0
LINE
  8
0
 10
12.6729
 20
23.0889
 11
12.6826
 21
23.1035
  0
LINE
  8
0
 10
12.6826
 20
23.1035
 11
12.7041
 21
23.1309
  0
LINE
  8
0
 10
12.7041
 20
23.1309
 11
12.7158
 21
23.1445
  0
LINE
  8
0
 10
12.7158
 20
23.1445
 11
12.7266
 21
23.1572
  0
LINE
  8
0
 10
12.7266
 20
23.1572
 11
12.7383
 21
23.1709
  0
LINE
  8
0
 10
12.7383
 20
23.1709
 11
12.7617
 21
23.1963
  0
LINE
  8
0
 10
12.7617
 20
23.1963
 11
12.7744
 21
23.208
  0
LINE
  8
0
 10
12.7744
 20
23.208
 11
12.7871
 21
23.2207
  0
LINE
  8
0
 10
12.7871
 20
23.2207
 11
12.8252
 21
23.2559
  0
LINE
  8
0
 10
12.8252
 20
23.2559
 11
12.8389
 21
23.2676
  0
LINE
  8
0
 10
12.8389
 20
23.2676
 11
12.8936
 21
23.3105
  0
LINE
  8
0
 10
12.8936
 20
23.3105
 11
12.9082
 21
23.3203
  0
LINE
  8
0
 10
12.9082
 20
23.3203
 11
12.9219
 21
23.3301
  0
LINE
  8
0
 10
12.9219
 20
23.3301
 11
12.9512
 21
23.3496
  0
LINE
  8
0
 10
12.9512
 20
23.3496
 11
12.9668
 21
23.3584
  0
LINE
  8
0
 10
12.9668
 20
23.3584
 11
12.9814
 21
23.3672
  0
LINE
  8
0
 10
12.9814
 20
23.3672
 11
12.9971
 21
23.376
  0
LINE
  8
0
 10
12.9971
 20
23.376
 11
13.0117
 21
23.3838
  0
LINE
  8
0
 10
13.0117
 20
23.3838
 11
13.0273
 21
23.3926
  0
LINE
  8
0
 10
13.0273
 20
23.3926
 11
13.043
 21
23.4004
  0
LINE
  8
0
 10
13.043
 20
23.4004
 11
13.0586
 21
23.4072
  0
LINE
  8
0
 10
13.0586
 20
23.4072
 11
13.0752
 21
23.415
  0
LINE
  8
0
 10
13.0752
 20
23.415
 11
13.1064
 21
23.4287
  0
LINE
  8
0
 10
13.1064
 20
23.4287
 11
13.123
 21
23.4346
  0
LINE
  8
0
 10
13.123
 20
23.4346
 11
13.1396
 21
23.4414
  0
LINE
  8
0
 10
13.1396
 20
23.4414
 11
13.1562
 21
23.4473
  0
LINE
  8
0
 10
13.1562
 20
23.4473
 11
13.1729
 21
23.4521
  0
LINE
  8
0
 10
13.1729
 20
23.4521
 11
13.1895
 21
23.458
  0
LINE
  8
0
 10
13.1895
 20
23.458
 11
13.2061
 21
23.4629
  0
LINE
  8
0
 10
13.2061
 20
23.4629
 11
13.2227
 21
23.4668
  0
LINE
  8
0
 10
13.2227
 20
23.4668
 11
13.2393
 21
23.4717
  0
LINE
  8
0
 10
13.2393
 20
23.4717
 11
13.2568
 21
23.4756
  0
LINE
  8
0
 10
13.2568
 20
23.4756
 11
13.2734
 21
23.4795
  0
LINE
  8
0
 10
13.2734
 20
23.4795
 11
13.291
 21
23.4834
  0
LINE
  8
0
 10
13.291
 20
23.4834
 11
13.3076
 21
23.4863
  0
LINE
  8
0
 10
13.3076
 20
23.4863
 11
13.3252
 21
23.4893
  0
LINE
  8
0
 10
13.3252
 20
23.4893
 11
13.3428
 21
23.4912
  0
LINE
  8
0
 10
13.3428
 20
23.4912
 11
13.3594
 21
23.4941
  0
LINE
  8
0
 10
13.3594
 20
23.4941
 11
13.377
 21
23.4961
  0
LINE
  8
0
 10
13.377
 20
23.4961
 11
13.3945
 21
23.4971
  0
LINE
  8
0
 10
13.3945
 20
23.4971
 11
13.4121
 21
23.499
  0
LINE
  8
0
 10
13.4121
 20
23.499
 11
13.4287
 21
23.5
  0
LINE
  8
0
 10
13.4287
 20
23.5
 11
13.4463
 21
23.501
  0
LINE
  8
0
 10
13.4463
 20
23.501
 11
26.9756
 21
23.502
  0
LINE
  8
0
 10
26.9756
 20
23.502
 11
26.9932
 21
23.501
  0
LINE
  8
0
 10
26.9932
 20
23.501
 11
27.0098
 21
23.501
  0
LINE
  8
0
 10
27.0098
 20
23.501
 11
27.0625
 21
23.498
  0
LINE
  8
0
 10
27.0625
 20
23.498
 11
27.0977
 21
23.4941
  0
LINE
  8
0
 10
27.0977
 20
23.4941
 11
27.1143
 21
23.4922
  0
LINE
  8
0
 10
27.1143
 20
23.4922
 11
27.1494
 21
23.4863
  0
LINE
  8
0
 10
27.1494
 20
23.4863
 11
27.166
 21
23.4834
  0
LINE
  8
0
 10
27.166
 20
23.4834
 11
27.1836
 21
23.4795
  0
LINE
  8
0
 10
27.1836
 20
23.4795
 11
27.2168
 21
23.4717
  0
LINE
  8
0
 10
27.2168
 20
23.4717
 11
27.2344
 21
23.4678
  0
LINE
  8
0
 10
27.2344
 20
23.4678
 11
27.2676
 21
23.458
  0
LINE
  8
0
 10
27.2676
 20
23.458
 11
27.2842
 21
23.4521
  0
LINE
  8
0
 10
27.2842
 20
23.4521
 11
27.3008
 21
23.4473
  0
LINE
  8
0
 10
27.3008
 20
23.4473
 11
27.3174
 21
23.4414
  0
LINE
  8
0
 10
27.3174
 20
23.4414
 11
27.334
 21
23.4346
  0
LINE
  8
0
 10
27.334
 20
23.4346
 11
27.3496
 21
23.4287
  0
LINE
  8
0
 10
27.3496
 20
23.4287
 11
27.3662
 21
23.4219
  0
LINE
  8
0
 10
27.3662
 20
23.4219
 11
27.3975
 21
23.4082
  0
LINE
  8
0
 10
27.3975
 20
23.4082
 11
27.4141
 21
23.4004
  0
LINE
  8
0
 10
27.4141
 20
23.4004
 11
27.4297
 21
23.3926
  0
LINE
  8
0
 10
27.4297
 20
23.3926
 11
27.4443
 21
23.3848
  0
LINE
  8
0
 10
27.4443
 20
23.3848
 11
27.4756
 21
23.3672
  0
LINE
  8
0
 10
27.4756
 20
23.3672
 11
27.5049
 21
23.3496
  0
LINE
  8
0
 10
27.5049
 20
23.3496
 11
27.5635
 21
23.3105
  0
LINE
  8
0
 10
27.5635
 20
23.3105
 11
27.6182
 21
23.2676
  0
LINE
  8
0
 10
27.6182
 20
23.2676
 11
27.6318
 21
23.2559
  0
LINE
  8
0
 10
27.6318
 20
23.2559
 11
27.6826
 21
23.209
  0
LINE
  8
0
 10
27.6826
 20
23.209
 11
27.6943
 21
23.1963
  0
LINE
  8
0
 10
27.6943
 20
23.1963
 11
27.707
 21
23.1836
  0
LINE
  8
0
 10
27.707
 20
23.1836
 11
27.7188
 21
23.1709
  0
LINE
  8
0
 10
27.7188
 20
23.1709
 11
27.7305
 21
23.1572
  0
LINE
  8
0
 10
27.7305
 20
23.1572
 11
27.7412
 21
23.1445
  0
LINE
  8
0
 10
27.7412
 20
23.1445
 11
27.7529
 21
23.1309
  0
LINE
  8
0
 10
27.7529
 20
23.1309
 11
27.7744
 21
23.1035
  0
LINE
  8
0
 10
27.7744
 20
23.1035
 11
27.7842
 21
23.0889
  0
LINE
  8
0
 10
27.7842
 20
23.0889
 11
27.7949
 21
23.0752
  0
LINE
  8
0
 10
27.7949
 20
23.0752
 11
27.8145
 21
23.0459
  0
LINE
  8
0
 10
27.8145
 20
23.0459
 11
27.832
 21
23.0166
  0
LINE
  8
0
 10
27.832
 20
23.0166
 11
27.8418
 21
23.002
  0
LINE
  8
0
 10
27.8418
 20
23.002
 11
27.8496
 21
22.9863
  0
LINE
  8
0
 10
27.8496
 20
22.9863
 11
27.8584
 21
22.9707
  0
LINE
  8
0
 10
27.8584
 20
22.9707
 11
27.8818
 21
22.9238
  0
LINE
  8
0
 10
27.8818
 20
22.9238
 11
27.8955
 21
22.8926
  0
LINE
  8
0
 10
27.8955
 20
22.8926
 11
27.9092
 21
22.8594
  0
LINE
  8
0
 10
27.9092
 20
22.8594
 11
27.915
 21
22.8438
  0
LINE
  8
0
 10
27.915
 20
22.8438
 11
27.9268
 21
22.8105
  0
LINE
  8
0
 10
27.9268
 20
22.8105
 11
27.9414
 21
22.7607
  0
LINE
  8
0
 10
27.9414
 20
22.7607
 11
27.9453
 21
22.7432
  0
LINE
  8
0
 10
27.9453
 20
22.7432
 11
27.9492
 21
22.7266
  0
LINE
  8
0
 10
27.9492
 20
22.7266
 11
27.9531
 21
22.709
  0
LINE
  8
0
 10
27.9531
 20
22.709
 11
27.957
 21
22.6924
  0
LINE
  8
0
 10
27.957
 20
22.6924
 11
27.96
 21
22.6748
  0
LINE
  8
0
 10
27.96
 20
22.6748
 11
27.9629
 21
22.6582
  0
LINE
  8
0
 10
27.9629
 20
22.6582
 11
27.9658
 21
22.6406
  0
LINE
  8
0
 10
27.9658
 20
22.6406
 11
27.9678
 21
22.623
  0
LINE
  8
0
 10
27.9678
 20
22.623
 11
27.9697
 21
22.6064
  0
LINE
  8
0
 10
27.9697
 20
22.6064
 11
27.9717
 21
22.5889
  0
LINE
  8
0
 10
27.9717
 20
22.5889
 11
27.9756
 21
22.5186
  0
LINE
  8
0
 10
27.9756
 20
22.5186
 11
27.9756
 21
10.9648
  0
LINE
  8
0
 10
27.9756
 20
10.9648
 11
27.9746
 21
10.9473
  0
LINE
  8
0
 10
27.9746
 20
10.9473
 11
27.9736
 21
10.9307
  0
LINE
  8
0
 10
27.9736
 20
10.9307
 11
27.9727
 21
10.9131
  0
LINE
  8
0
 10
27.9727
 20
10.9131
 11
27.9688
 21
10.8779
  0
LINE
  8
0
 10
27.9688
 20
10.8779
 11
27.9658
 21
10.8604
  0
LINE
  8
0
 10
27.9658
 20
10.8604
 11
27.9639
 21
10.8438
  0
LINE
  8
0
 10
27.9639
 20
10.8438
 11
27.9609
 21
10.8262
  0
LINE
  8
0
 10
27.9609
 20
10.8262
 11
27.958
 21
10.8096
  0
LINE
  8
0
 10
27.958
 20
10.8096
 11
27.9541
 21
10.792
  0
LINE
  8
0
 10
27.9541
 20
10.792
 11
27.9502
 21
10.7754
  0
LINE
  8
0
 10
27.9502
 20
10.7754
 11
27.9463
 21
10.7578
  0
LINE
  8
0
 10
27.9463
 20
10.7578
 11
27.9424
 21
10.7412
  0
LINE
  8
0
 10
27.9424
 20
10.7412
 11
27.9326
 21
10.708
  0
LINE
  8
0
 10
27.9326
 20
10.708
 11
27.9268
 21
10.6914
  0
LINE
  8
0
 10
27.9268
 20
10.6914
 11
27.9219
 21
10.6748
  0
LINE
  8
0
 10
27.9219
 20
10.6748
 11
27.916
 21
10.6582
  0
LINE
  8
0
 10
27.916
 20
10.6582
 11
27.9092
 21
10.6416
  0
LINE
  8
0
 10
27.9092
 20
10.6416
 11
27.9033
 21
10.625
  0
LINE
  8
0
 10
27.9033
 20
10.625
 11
27.8896
 21
10.5938
  0
LINE
  8
0
 10
27.8896
 20
10.5938
 11
27.8818
 21
10.5771
  0
LINE
  8
0
 10
27.8818
 20
10.5771
 11
27.875
 21
10.5615
  0
LINE
  8
0
 10
27.875
 20
10.5615
 11
27.8594
 21
10.5303
  0
LINE
  8
0
 10
27.8594
 20
10.5303
 11
27.8506
 21
10.5156
  0
LINE
  8
0
 10
27.8506
 20
10.5156
 11
27.8418
 21
10.5
  0
LINE
  8
0
 10
27.8418
 20
10.5
 11
27.833
 21
10.4854
  0
LINE
  8
0
 10
27.833
 20
10.4854
 11
27.8242
 21
10.4697
  0
LINE
  8
0
 10
27.8242
 20
10.4697
 11
27.8047
 21
10.4404
  0
LINE
  8
0
 10
27.8047
 20
10.4404
 11
27.7949
 21
10.4268
  0
LINE
  8
0
 10
27.7949
 20
10.4268
 11
27.7852
 21
10.4121
  0
LINE
  8
0
 10
27.7852
 20
10.4121
 11
27.7422
 21
10.3574
  0
LINE
  8
0
 10
27.7422
 20
10.3574
 11
27.7305
 21
10.3438
  0
LINE
  8
0
 10
27.7305
 20
10.3438
 11
27.6836
 21
10.293
  0
LINE
  8
0
 10
27.6836
 20
10.293
 11
27.6709
 21
10.2803
  0
LINE
  8
0
 10
27.6709
 20
10.2803
 11
27.6455
 21
10.2568
  0
LINE
  8
0
 10
27.6455
 20
10.2568
 11
27.6318
 21
10.2451
  0
LINE
  8
0
 10
27.6318
 20
10.2451
 11
27.6191
 21
10.2344
  0
LINE
  8
0
 10
27.6191
 20
10.2344
 11
27.6055
 21
10.2227
  0
LINE
  8
0
 10
27.6055
 20
10.2227
 11
27.5781
 21
10.2012
  0
LINE
  8
0
 10
27.5781
 20
10.2012
 11
27.5635
 21
10.1914
  0
LINE
  8
0
 10
27.5635
 20
10.1914
 11
27.5498
 21
10.1807
  0
LINE
  8
0
 10
27.5498
 20
10.1807
 11
27.5205
 21
10.1611
  0
LINE
  8
0
 10
27.5205
 20
10.1611
 11
27.5059
 21
10.1523
  0
LINE
  8
0
 10
27.5059
 20
10.1523
 11
27.4912
 21
10.1426
  0
LINE
  8
0
 10
27.4912
 20
10.1426
 11
27.4756
 21
10.1338
  0
LINE
  8
0
 10
27.4756
 20
10.1338
 11
27.4609
 21
10.125
  0
LINE
  8
0
 10
27.4609
 20
10.125
 11
27.3984
 21
10.0938
  0
LINE
  8
0
 10
27.3984
 20
10.0938
 11
27.3828
 21
10.0869
  0
LINE
  8
0
 10
27.3828
 20
10.0869
 11
27.3672
 21
10.0791
  0
LINE
  8
0
 10
27.3672
 20
10.0791
 11
27.3506
 21
10.0732
  0
LINE
  8
0
 10
27.3506
 20
10.0732
 11
27.334
 21
10.0664
  0
LINE
  8
0
 10
27.334
 20
10.0664
 11
27.3184
 21
10.0605
  0
LINE
  8
0
 10
27.3184
 20
10.0605
 11
27.2852
 21
10.0488
  0
LINE
  8
0
 10
27.2852
 20
10.0488
 11
27.252
 21
10.0391
  0
LINE
  8
0
 10
27.252
 20
10.0391
 11
27.2344
 21
10.0342
  0
LINE
  8
0
 10
27.2344
 20
10.0342
 11
27.2178
 21
10.0293
  0
LINE
  8
0
 10
27.2178
 20
10.0293
 11
27.2012
 21
10.0254
  0
LINE
  8
0
 10
27.2012
 20
10.0254
 11
27.1836
 21
10.0215
  0
LINE
  8
0
 10
27.1836
 20
10.0215
 11
27.167
 21
10.0186
  0
LINE
  8
0
 10
27.167
 20
10.0186
 11
27.1494
 21
10.0156
  0
LINE
  8
0
 10
27.1494
 20
10.0156
 11
27.1328
 21
10.0127
  0
LINE
  8
0
 10
27.1328
 20
10.0127
 11
27.1152
 21
10.0098
  0
LINE
  8
0
 10
27.1152
 20
10.0098
 11
27.0801
 21
10.0059
  0
LINE
  8
0
 10
27.0801
 20
10.0059
 11
27.0635
 21
10.0039
  0
LINE
  8
0
 10
27.0635
 20
10.0039
 11
27.0459
 21
10.002
  0
LINE
  8
0
 10
27.0459
 20
10.002
 11
27.0283
 21
10.001
  0
LINE
  8
0
 10
27.0283
 20
10.001
 11
27.0107
 21
10.001
  0
LINE
  8
0
 10
27.0107
 20
10.001
 11
26.9932
 21
10
  0
LINE
  8
0
 10
26.9932
 20
10
 11
13.4756
 21
10
  0
LINE
  8
0
 10
64
 20
20.0049
 11
63.9648
 21
20.0049
  0
LINE
  8
0
 10
63.9648
 20
20.0049
 11
63.9473
 21
20.0059
  0
LINE
  8
0
 10
63.9473
 20
20.0059
 11
63.9307
 21
20.0068
  0
LINE
  8
0
 10
63.9307
 20
20.0068
 11
63.9131
 21
20.0078
  0
LINE
  8
0
 10
63.9131
 20
20.0078
 11
63.8604
 21
20.0137
  0
LINE
  8
0
 10
63.8604
 20
20.0137
 11
63.8438
 21
20.0166
  0
LINE
  8
0
 10
63.8438
 20
20.0166
 11
63.8262
 21
20.0195
  0
LINE
  8
0
 10
63.8262
 20
20.0195
 11
63.8096
 21
20.0225
  0
LINE
  8
0
 10
63.8096
 20
20.0225
 11
63.792
 21
20.0264
  0
LINE
  8
0
 10
63.792
 20
20.0264
 11
63.7754
 21
20.0303
  0
LINE
  8
0
 10
63.7754
 20
20.0303
 11
63.7578
 21
20.0342
  0
LINE
  8
0
 10
63.7578
 20
20.0342
 11
63.7412
 21
20.0381
  0
LINE
  8
0
 10
63.7412
 20
20.0381
 11
63.708
 21
20.0479
  0
LINE
  8
0
 10
63.708
 20
20.0479
 11
63.6914
 21
20.0537
  0
LINE
  8
0
 10
63.6914
 20
20.0537
 11
63.6748
 21
20.0586
  0
LINE
  8
0
 10
63.6748
 20
20.0586
 11
63.6582
 21
20.0645
  0
LINE
  8
0
 10
63.6582
 20
20.0645
 11
63.6416
 21
20.0713
  0
LINE
  8
0
 10
63.6416
 20
20.0713
 11
63.625
 21
20.0771
  0
LINE
  8
0
 10
63.625
 20
20.0771
 11
63.5938
 21
20.0908
  0
LINE
  8
0
 10
63.5938
 20
20.0908
 11
63.5771
 21
20.0977
  0
LINE
  8
0
 10
63.5771
 20
20.0977
 11
63.5303
 21
20.1211
  0
LINE
  8
0
 10
63.5303
 20
20.1211
 11
63.5156
 21
20.1299
  0
LINE
  8
0
 10
63.5156
 20
20.1299
 11
63.5
 21
20.1387
  0
LINE
  8
0
 10
63.5
 20
20.1387
 11
63.4854
 21
20.1475
  0
LINE
  8
0
 10
63.4854
 20
20.1475
 11
63.4697
 21
20.1562
  0
LINE
  8
0
 10
63.4697
 20
20.1562
 11
63.4404
 21
20.1758
  0
LINE
  8
0
 10
63.4404
 20
20.1758
 11
63.4268
 21
20.1855
  0
LINE
  8
0
 10
63.4268
 20
20.1855
 11
63.4121
 21
20.1953
  0
LINE
  8
0
 10
63.4121
 20
20.1953
 11
63.3574
 21
20.2383
  0
LINE
  8
0
 10
63.3574
 20
20.2383
 11
63.3438
 21
20.25
  0
LINE
  8
0
 10
63.3438
 20
20.25
 11
63.293
 21
20.2969
  0
LINE
  8
0
 10
63.293
 20
20.2969
 11
63.2803
 21
20.3096
  0
LINE
  8
0
 10
63.2803
 20
20.3096
 11
63.2568
 21
20.335
  0
LINE
  8
0
 10
63.2568
 20
20.335
 11
63.2451
 21
20.3486
  0
LINE
  8
0
 10
63.2451
 20
20.3486
 11
63.2344
 21
20.3613
  0
LINE
  8
0
 10
63.2344
 20
20.3613
 11
63.2227
 21
20.375
  0
LINE
  8
0
 10
63.2227
 20
20.375
 11
63.2012
 21
20.4023
  0
LINE
  8
0
 10
63.2012
 20
20.4023
 11
63.1914
 21
20.417
  0
LINE
  8
0
 10
63.1914
 20
20.417
 11
63.1807
 21
20.4307
  0
LINE
  8
0
 10
63.1807
 20
20.4307
 11
63.1611
 21
20.46
  0
LINE
  8
0
 10
63.1611
 20
20.46
 11
63.1523
 21
20.4746
  0
LINE
  8
0
 10
63.1523
 20
20.4746
 11
63.1426
 21
20.4893
  0
LINE
  8
0
 10
63.1426
 20
20.4893
 11
63.1338
 21
20.5049
  0
LINE
  8
0
 10
63.1338
 20
20.5049
 11
63.125
 21
20.5195
  0
LINE
  8
0
 10
63.125
 20
20.5195
 11
63.0938
 21
20.582
  0
LINE
  8
0
 10
63.0938
 20
20.582
 11
63.0869
 21
20.5977
  0
LINE
  8
0
 10
63.0869
 20
20.5977
 11
63.0791
 21
20.6133
  0
LINE
  8
0
 10
63.0791
 20
20.6133
 11
63.0732
 21
20.6299
  0
LINE
  8
0
 10
63.0732
 20
20.6299
 11
63.0664
 21
20.6465
  0
LINE
  8
0
 10
63.0664
 20
20.6465
 11
63.0605
 21
20.6621
  0
LINE
  8
0
 10
63.0605
 20
20.6621
 11
63.0488
 21
20.6953
  0
LINE
  8
0
 10
63.0488
 20
20.6953
 11
63.0342
 21
20.7451
  0
LINE
  8
0
 10
63.0342
 20
20.7451
 11
63.0293
 21
20.7627
  0
LINE
  8
0
 10
63.0293
 20
20.7627
 11
63.0254
 21
20.7793
  0
LINE
  8
0
 10
63.0254
 20
20.7793
 11
63.0215
 21
20.7969
  0
LINE
  8
0
 10
63.0215
 20
20.7969
 11
63.0186
 21
20.8135
  0
LINE
  8
0
 10
63.0186
 20
20.8135
 11
63.0156
 21
20.8311
  0
LINE
  8
0
 10
63.0156
 20
20.8311
 11
63.0127
 21
20.8477
  0
LINE
  8
0
 10
63.0127
 20
20.8477
 11
63.0098
 21
20.8652
  0
LINE
  8
0
 10
63.0098
 20
20.8652
 11
63.0078
 21
20.8828
  0
LINE
  8
0
 10
63.0078
 20
20.8828
 11
63.0059
 21
20.8994
  0
LINE
  8
0
 10
63.0059
 20
20.8994
 11
63.002
 21
20.9346
  0
LINE
  8
0
 10
63.002
 20
20.9346
 11
63.001
 21
20.9521
  0
LINE
  8
0
 10
63.001
 20
20.9521
 11
63.001
 21
20.9697
  0
LINE
  8
0
 10
63.001
 20
20.9697
 11
63
 21
20.9873
  0
LINE
  8
0
 10
63
 20
20.9873
 11
63
 21
22.0176
  0
LINE
  8
0
 10
63
 20
22.0176
 11
63.001
 21
22.0352
  0
LINE
  8
0
 10
63.001
 20
22.0352
 11
63.001
 21
22.0527
  0
LINE
  8
0
 10
63.001
 20
22.0527
 11
63.002
 21
22.0693
  0
LINE
  8
0
 10
63.002
 20
22.0693
 11
63.0098
 21
22.1396
  0
LINE
  8
0
 10
63.0098
 20
22.1396
 11
63.0127
 21
22.1562
  0
LINE
  8
0
 10
63.0127
 20
22.1562
 11
63.0156
 21
22.1738
  0
LINE
  8
0
 10
63.0156
 20
22.1738
 11
63.0186
 21
22.1904
  0
LINE
  8
0
 10
63.0186
 20
22.1904
 11
63.0215
 21
22.208
  0
LINE
  8
0
 10
63.0215
 20
22.208
 11
63.0254
 21
22.2246
  0
LINE
  8
0
 10
63.0254
 20
22.2246
 11
63.0293
 21
22.2422
  0
LINE
  8
0
 10
63.0293
 20
22.2422
 11
63.0488
 21
22.3086
  0
LINE
  8
0
 10
63.0488
 20
22.3086
 11
63.0664
 21
22.3584
  0
LINE
  8
0
 10
63.0664
 20
22.3584
 11
63.0732
 21
22.375
  0
LINE
  8
0
 10
63.0732
 20
22.375
 11
63.0791
 21
22.3906
  0
LINE
  8
0
 10
63.0791
 20
22.3906
 11
63.0869
 21
22.4062
  0
LINE
  8
0
 10
63.0869
 20
22.4062
 11
63.0938
 21
22.4229
  0
LINE
  8
0
 10
63.0938
 20
22.4229
 11
63.1172
 21
22.4697
  0
LINE
  8
0
 10
63.1172
 20
22.4697
 11
63.125
 21
22.4844
  0
LINE
  8
0
 10
63.125
 20
22.4844
 11
63.1338
 21
22.5
  0
LINE
  8
0
 10
63.1338
 20
22.5
 11
63.1426
 21
22.5146
  0
LINE
  8
0
 10
63.1426
 20
22.5146
 11
63.1523
 21
22.5303
  0
LINE
  8
0
 10
63.1523
 20
22.5303
 11
63.1611
 21
22.5449
  0
LINE
  8
0
 10
63.1611
 20
22.5449
 11
63.1709
 21
22.5596
  0
LINE
  8
0
 10
63.1709
 20
22.5596
 11
63.1807
 21
22.5732
  0
LINE
  8
0
 10
63.1807
 20
22.5732
 11
63.1914
 21
22.5879
  0
LINE
  8
0
 10
63.1914
 20
22.5879
 11
63.2012
 21
22.6016
  0
LINE
  8
0
 10
63.2012
 20
22.6016
 11
63.2227
 21
22.6289
  0
LINE
  8
0
 10
63.2227
 20
22.6289
 11
63.2344
 21
22.6426
  0
LINE
  8
0
 10
63.2344
 20
22.6426
 11
63.2451
 21
22.6562
  0
LINE
  8
0
 10
63.2451
 20
22.6562
 11
63.2803
 21
22.6943
  0
LINE
  8
0
 10
63.2803
 20
22.6943
 11
63.3057
 21
22.7197
  0
LINE
  8
0
 10
63.3057
 20
22.7197
 11
63.3438
 21
22.7549
  0
LINE
  8
0
 10
63.3438
 20
22.7549
 11
63.3574
 21
22.7656
  0
LINE
  8
0
 10
63.3574
 20
22.7656
 11
63.3711
 21
22.7773
  0
LINE
  8
0
 10
63.3711
 20
22.7773
 11
63.3984
 21
22.7988
  0
LINE
  8
0
 10
63.3984
 20
22.7988
 11
63.4121
 21
22.8086
  0
LINE
  8
0
 10
63.4121
 20
22.8086
 11
63.4268
 21
22.8193
  0
LINE
  8
0
 10
63.4268
 20
22.8193
 11
63.4404
 21
22.8291
  0
LINE
  8
0
 10
63.4404
 20
22.8291
 11
63.4551
 21
22.8389
  0
LINE
  8
0
 10
63.4551
 20
22.8389
 11
63.4697
 21
22.8477
  0
LINE
  8
0
 10
63.4697
 20
22.8477
 11
63.4854
 21
22.8574
  0
LINE
  8
0
 10
63.4854
 20
22.8574
 11
63.5
 21
22.8662
  0
LINE
  8
0
 10
63.5
 20
22.8662
 11
63.5156
 21
22.875
  0
LINE
  8
0
 10
63.5156
 20
22.875
 11
63.5303
 21
22.8828
  0
LINE
  8
0
 10
63.5303
 20
22.8828
 11
63.5771
 21
22.9062
  0
LINE
  8
0
 10
63.5771
 20
22.9062
 11
63.5938
 21
22.9131
  0
LINE
  8
0
 10
63.5938
 20
22.9131
 11
63.6094
 21
22.9209
  0
LINE
  8
0
 10
63.6094
 20
22.9209
 11
63.625
 21
22.9268
  0
LINE
  8
0
 10
63.625
 20
22.9268
 11
63.6416
 21
22.9336
  0
LINE
  8
0
 10
63.6416
 20
22.9336
 11
63.6914
 21
22.9512
  0
LINE
  8
0
 10
63.6914
 20
22.9512
 11
63.7578
 21
22.9707
  0
LINE
  8
0
 10
63.7578
 20
22.9707
 11
63.7754
 21
22.9746
  0
LINE
  8
0
 10
63.7754
 20
22.9746
 11
63.792
 21
22.9785
  0
LINE
  8
0
 10
63.792
 20
22.9785
 11
63.8096
 21
22.9814
  0
LINE
  8
0
 10
63.8096
 20
22.9814
 11
63.8262
 21
22.9844
  0
LINE
  8
0
 10
63.8262
 20
22.9844
 11
63.8438
 21
22.9873
  0
LINE
  8
0
 10
63.8438
 20
22.9873
 11
63.8604
 21
22.9902
  0
LINE
  8
0
 10
63.8604
 20
22.9902
 11
63.9307
 21
22.998
  0
LINE
  8
0
 10
63.9307
 20
22.998
 11
63.9473
 21
22.999
  0
LINE
  8
0
 10
63.9473
 20
22.999
 11
63.9648
 21
22.999
  0
LINE
  8
0
 10
63.9648
 20
22.999
 11
63.9824
 21
23
  0
LINE
  8
0
 10
63.9824
 20
23
 11
64
 21
23
  0
LINE
  8
0
 10
64
 20
23
 11
64
 21
22.9805
  0
LINE
  8
0
 10
64
 20
22.9805
 11
77.5
 21
23.0117
  0
LINE
  8
0
 10
77.5
 20
23.0117
 11
77.5176
 21
23.0117
  0
LINE
  8
0
 10
77.5176
 20
23.0117
 11
77.5527
 21
23.0098
  0
LINE
  8
0
 10
77.5527
 20
23.0098
 11
77.5693
 21
23.0088
  0
LINE
  8
0
 10
77.5693
 20
23.0088
 11
77.5869
 21
23.0078
  0
LINE
  8
0
 10
77.5869
 20
23.0078
 11
77.6396
 21
23.002
  0
LINE
  8
0
 10
77.6396
 20
23.002
 11
77.6562
 21
22.999
  0
LINE
  8
0
 10
77.6562
 20
22.999
 11
77.6738
 21
22.9961
  0
LINE
  8
0
 10
77.6738
 20
22.9961
 11
77.6904
 21
22.9932
  0
LINE
  8
0
 10
77.6904
 20
22.9932
 11
77.708
 21
22.9902
  0
LINE
  8
0
 10
77.708
 20
22.9902
 11
77.7246
 21
22.9863
  0
LINE
  8
0
 10
77.7246
 20
22.9863
 11
77.7422
 21
22.9814
  0
LINE
  8
0
 10
77.7422
 20
22.9814
 11
77.7588
 21
22.9775
  0
LINE
  8
0
 10
77.7588
 20
22.9775
 11
77.8086
 21
22.9629
  0
LINE
  8
0
 10
77.8086
 20
22.9629
 11
77.8584
 21
22.9453
  0
LINE
  8
0
 10
77.8584
 20
22.9453
 11
77.875
 21
22.9385
  0
LINE
  8
0
 10
77.875
 20
22.9385
 11
77.9062
 21
22.9248
  0
LINE
  8
0
 10
77.9062
 20
22.9248
 11
77.9229
 21
22.918
  0
LINE
  8
0
 10
77.9229
 20
22.918
 11
77.9697
 21
22.8945
  0
LINE
  8
0
 10
77.9697
 20
22.8945
 11
77.9844
 21
22.8857
  0
LINE
  8
0
 10
77.9844
 20
22.8857
 11
78
 21
22.8779
  0
LINE
  8
0
 10
78
 20
22.8779
 11
78.0146
 21
22.8691
  0
LINE
  8
0
 10
78.0146
 20
22.8691
 11
78.0303
 21
22.8594
  0
LINE
  8
0
 10
78.0303
 20
22.8594
 11
78.0449
 21
22.8506
  0
LINE
  8
0
 10
78.0449
 20
22.8506
 11
78.0596
 21
22.8408
  0
LINE
  8
0
 10
78.0596
 20
22.8408
 11
78.0732
 21
22.8311
  0
LINE
  8
0
 10
78.0732
 20
22.8311
 11
78.0879
 21
22.8203
  0
LINE
  8
0
 10
78.0879
 20
22.8203
 11
78.1016
 21
22.8105
  0
LINE
  8
0
 10
78.1016
 20
22.8105
 11
78.1289
 21
22.7891
  0
LINE
  8
0
 10
78.1289
 20
22.7891
 11
78.1426
 21
22.7773
  0
LINE
  8
0
 10
78.1426
 20
22.7773
 11
78.1562
 21
22.7666
  0
LINE
  8
0
 10
78.1562
 20
22.7666
 11
78.1816
 21
22.7432
  0
LINE
  8
0
 10
78.1816
 20
22.7432
 11
78.1943
 21
22.7305
  0
LINE
  8
0
 10
78.1943
 20
22.7305
 11
78.207
 21
22.7188
  0
LINE
  8
0
 10
78.207
 20
22.7188
 11
78.2197
 21
22.7061
  0
LINE
  8
0
 10
78.2197
 20
22.7061
 11
78.2549
 21
22.668
  0
LINE
  8
0
 10
78.2549
 20
22.668
 11
78.2656
 21
22.6543
  0
LINE
  8
0
 10
78.2656
 20
22.6543
 11
78.2773
 21
22.6406
  0
LINE
  8
0
 10
78.2773
 20
22.6406
 11
78.2988
 21
22.6133
  0
LINE
  8
0
 10
78.2988
 20
22.6133
 11
78.3086
 21
22.5996
  0
LINE
  8
0
 10
78.3086
 20
22.5996
 11
78.3193
 21
22.585
  0
LINE
  8
0
 10
78.3193
 20
22.585
 11
78.3291
 21
22.5713
  0
LINE
  8
0
 10
78.3291
 20
22.5713
 11
78.3389
 21
22.5566
  0
LINE
  8
0
 10
78.3389
 20
22.5566
 11
78.3477
 21
22.542
  0
LINE
  8
0
 10
78.3477
 20
22.542
 11
78.3574
 21
22.5264
  0
LINE
  8
0
 10
78.3574
 20
22.5264
 11
78.3662
 21
22.5117
  0
LINE
  8
0
 10
78.3662
 20
22.5117
 11
78.375
 21
22.4961
  0
LINE
  8
0
 10
78.375
 20
22.4961
 11
78.3828
 21
22.4814
  0
LINE
  8
0
 10
78.3828
 20
22.4814
 11
78.4062
 21
22.4346
  0
LINE
  8
0
 10
78.4062
 20
22.4346
 11
78.4131
 21
22.418
  0
LINE
  8
0
 10
78.4131
 20
22.418
 11
78.4209
 21
22.4023
  0
LINE
  8
0
 10
78.4209
 20
22.4023
 11
78.4268
 21
22.3857
  0
LINE
  8
0
 10
78.4268
 20
22.3857
 11
78.4336
 21
22.3701
  0
LINE
  8
0
 10
78.4336
 20
22.3701
 11
78.4512
 21
22.3203
  0
LINE
  8
0
 10
78.4512
 20
22.3203
 11
78.4707
 21
22.2539
  0
LINE
  8
0
 10
78.4707
 20
22.2539
 11
78.4746
 21
22.2363
  0
LINE
  8
0
 10
78.4746
 20
22.2363
 11
78.4785
 21
22.2197
  0
LINE
  8
0
 10
78.4785
 20
22.2197
 11
78.4814
 21
22.2021
  0
LINE
  8
0
 10
78.4814
 20
22.2021
 11
78.4844
 21
22.1855
  0
LINE
  8
0
 10
78.4844
 20
22.1855
 11
78.4902
 21
22.1504
  0
LINE
  8
0
 10
78.4902
 20
22.1504
 11
78.4922
 21
22.1338
  0
LINE
  8
0
 10
78.4922
 20
22.1338
 11
78.498
 21
22.0811
  0
LINE
  8
0
 10
78.498
 20
22.0811
 11
78.499
 21
22.0635
  0
LINE
  8
0
 10
78.499
 20
22.0635
 11
78.499
 21
22.0469
  0
LINE
  8
0
 10
78.499
 20
22.0469
 11
78.5
 21
22.0293
  0
LINE
  8
0
 10
78.5
 20
22.0293
 11
78.5
 21
20.999
  0
LINE
  8
0
 10
78.5
 20
20.999
 11
78.499
 21
20.9814
  0
LINE
  8
0
 10
78.499
 20
20.9814
 11
78.499
 21
20.9639
  0
LINE
  8
0
 10
78.499
 20
20.9639
 11
78.498
 21
20.9463
  0
LINE
  8
0
 10
78.498
 20
20.9463
 11
78.4941
 21
20.9111
  0
LINE
  8
0
 10
78.4941
 20
20.9111
 11
78.4922
 21
20.8945
  0
LINE
  8
0
 10
78.4922
 20
20.8945
 11
78.4902
 21
20.877
  0
LINE
  8
0
 10
78.4902
 20
20.877
 11
78.4873
 21
20.8594
  0
LINE
  8
0
 10
78.4873
 20
20.8594
 11
78.4844
 21
20.8428
  0
LINE
  8
0
 10
78.4844
 20
20.8428
 11
78.4785
 21
20.8076
  0
LINE
  8
0
 10
78.4785
 20
20.8076
 11
78.4707
 21
20.7744
  0
LINE
  8
0
 10
78.4707
 20
20.7744
 11
78.4658
 21
20.7568
  0
LINE
  8
0
 10
78.4658
 20
20.7568
 11
78.4512
 21
20.707
  0
LINE
  8
0
 10
78.4512
 20
20.707
 11
78.4336
 21
20.6572
  0
LINE
  8
0
 10
78.4336
 20
20.6572
 11
78.4268
 21
20.6416
  0
LINE
  8
0
 10
78.4268
 20
20.6416
 11
78.4209
 21
20.625
  0
LINE
  8
0
 10
78.4209
 20
20.625
 11
78.4131
 21
20.6094
  0
LINE
  8
0
 10
78.4131
 20
20.6094
 11
78.4062
 21
20.5938
  0
LINE
  8
0
 10
78.4062
 20
20.5938
 11
78.3984
 21
20.5771
  0
LINE
  8
0
 10
78.3984
 20
20.5771
 11
78.3906
 21
20.5625
  0
LINE
  8
0
 10
78.3906
 20
20.5625
 11
78.375
 21
20.5312
  0
LINE
  8
0
 10
78.375
 20
20.5312
 11
78.3662
 21
20.5156
  0
LINE
  8
0
 10
78.3662
 20
20.5156
 11
78.3574
 21
20.501
  0
LINE
  8
0
 10
78.3574
 20
20.501
 11
78.3477
 21
20.4863
  0
LINE
  8
0
 10
78.3477
 20
20.4863
 11
78.3389
 21
20.4717
  0
LINE
  8
0
 10
78.3389
 20
20.4717
 11
78.3193
 21
20.4424
  0
LINE
  8
0
 10
78.3193
 20
20.4424
 11
78.3086
 21
20.4277
  0
LINE
  8
0
 10
78.3086
 20
20.4277
 11
78.2988
 21
20.4141
  0
LINE
  8
0
 10
78.2988
 20
20.4141
 11
78.2773
 21
20.3867
  0
LINE
  8
0
 10
78.2773
 20
20.3867
 11
78.2656
 21
20.373
  0
LINE
  8
0
 10
78.2656
 20
20.373
 11
78.2549
 21
20.3604
  0
LINE
  8
0
 10
78.2549
 20
20.3604
 11
78.2432
 21
20.3467
  0
LINE
  8
0
 10
78.2432
 20
20.3467
 11
78.2197
 21
20.3213
  0
LINE
  8
0
 10
78.2197
 20
20.3213
 11
78.207
 21
20.3086
  0
LINE
  8
0
 10
78.207
 20
20.3086
 11
78.1943
 21
20.2969
  0
LINE
  8
0
 10
78.1943
 20
20.2969
 11
78.1816
 21
20.2842
  0
LINE
  8
0
 10
78.1816
 20
20.2842
 11
78.1689
 21
20.2725
  0
LINE
  8
0
 10
78.1689
 20
20.2725
 11
78.1562
 21
20.2617
  0
LINE
  8
0
 10
78.1562
 20
20.2617
 11
78.1426
 21
20.25
  0
LINE
  8
0
 10
78.1426
 20
20.25
 11
78.1289
 21
20.2393
  0
LINE
  8
0
 10
78.1289
 20
20.2393
 11
78.1152
 21
20.2275
  0
LINE
  8
0
 10
78.1152
 20
20.2275
 11
78.1016
 21
20.2178
  0
LINE
  8
0
 10
78.1016
 20
20.2178
 11
78.0879
 21
20.207
  0
LINE
  8
0
 10
78.0879
 20
20.207
 11
78.0732
 21
20.1973
  0
LINE
  8
0
 10
78.0732
 20
20.1973
 11
78.0596
 21
20.1865
  0
LINE
  8
0
 10
78.0596
 20
20.1865
 11
78.0449
 21
20.1777
  0
LINE
  8
0
 10
78.0449
 20
20.1777
 11
78.0303
 21
20.168
  0
LINE
  8
0
 10
78.0303
 20
20.168
 11
78.0146
 21
20.1592
  0
LINE
  8
0
 10
78.0146
 20
20.1592
 11
78
 21
20.1504
  0
LINE
  8
0
 10
78
 20
20.1504
 11
77.9844
 21
20.1416
  0
LINE
  8
0
 10
77.9844
 20
20.1416
 11
77.9697
 21
20.1328
  0
LINE
  8
0
 10
77.9697
 20
20.1328
 11
77.9229
 21
20.1094
  0
LINE
  8
0
 10
77.9229
 20
20.1094
 11
77.9062
 21
20.1025
  0
LINE
  8
0
 10
77.9062
 20
20.1025
 11
77.875
 21
20.0889
  0
LINE
  8
0
 10
77.875
 20
20.0889
 11
77.8584
 21
20.082
  0
LINE
  8
0
 10
77.8584
 20
20.082
 11
77.8252
 21
20.0703
  0
LINE
  8
0
 10
77.8252
 20
20.0703
 11
77.8086
 21
20.0654
  0
LINE
  8
0
 10
77.8086
 20
20.0654
 11
77.792
 21
20.0596
  0
LINE
  8
0
 10
77.792
 20
20.0596
 11
77.7588
 21
20.0498
  0
LINE
  8
0
 10
77.7588
 20
20.0498
 11
77.7422
 21
20.0459
  0
LINE
  8
0
 10
77.7422
 20
20.0459
 11
77.7246
 21
20.042
  0
LINE
  8
0
 10
77.7246
 20
20.042
 11
77.708
 21
20.0381
  0
LINE
  8
0
 10
77.708
 20
20.0381
 11
77.6904
 21
20.0342
  0
LINE
  8
0
 10
77.6904
 20
20.0342
 11
77.6738
 21
20.0312
  0
LINE
  8
0
 10
77.6738
 20
20.0312
 11
77.6562
 21
20.0283
  0
LINE
  8
0
 10
77.6562
 20
20.0283
 11
77.6396
 21
20.0254
  0
LINE
  8
0
 10
77.6396
 20
20.0254
 11
77.5869
 21
20.0195
  0
LINE
  8
0
 10
77.5869
 20
20.0195
 11
77.5693
 21
20.0186
  0
LINE
  8
0
 10
77.5693
 20
20.0186
 11
77.5527
 21
20.0176
  0
LINE
  8
0
 10
77.5527
 20
20.0176
 11
77.5352
 21
20.0166
  0
LINE
  8
0
 10
77.5352
 20
20.0166
 11
77.5176
 21
20.0166
  0
LINE
  8
0
 10
77.5176
 20
20.0166
 11
77.5
 21
20.0156
  0
LINE
  8
0
 10
77.5
 20
20.0156
 11
64
 21
19.9844
  0
LINE
  8
0
 10
64
 20
19.9844
 11
64
 21
20.0049
  0
ENDSEC
  0
SECTION
  2
OBJECTS
  0
DICTIONARY
  0
ENDSEC
  0
EOF
