  0
SECTION
  2
BLOCKS
  0
ENDSEC
  0
SECTION
  2
ENTITIES
  0
LINE
  8
0
 10
100.95
 20
0
 11
103.018
 21
0
  0
LINE
  8
0
 10
103.018
 20
0
 11
103.035
 21
0.000976562
  0
LINE
  8
0
 10
103.035
 20
0.000976562
 11
103.053
 21
0.000976562
  0
LINE
  8
0
 10
103.053
 20
0.000976562
 11
103.069
 21
0.00195312
  0
LINE
  8
0
 10
103.069
 20
0.00195312
 11
103.14
 21
0.00976562
  0
LINE
  8
0
 10
103.14
 20
0.00976562
 11
103.156
 21
0.0126953
  0
LINE
  8
0
 10
103.156
 20
0.0126953
 11
103.174
 21
0.015625
  0
LINE
  8
0
 10
103.174
 20
0.015625
 11
103.19
 21
0.0185547
  0
LINE
  8
0
 10
103.19
 20
0.0185547
 11
103.208
 21
0.0214844
  0
LINE
  8
0
 10
103.208
 20
0.0214844
 11
103.225
 21
0.0253906
  0
LINE
  8
0
 10
103.225
 20
0.0253906
 11
103.242
 21
0.0292969
  0
LINE
  8
0
 10
103.242
 20
0.0292969
 11
103.309
 21
0.0488281
  0
LINE
  8
0
 10
103.309
 20
0.0488281
 11
103.358
 21
0.0664062
  0
LINE
  8
0
 10
103.358
 20
0.0664062
 11
103.375
 21
0.0732422
  0
LINE
  8
0
 10
103.375
 20
0.0732422
 11
103.391
 21
0.0791016
  0
LINE
  8
0
 10
103.391
 20
0.0791016
 11
103.406
 21
0.0869141
  0
LINE
  8
0
 10
103.406
 20
0.0869141
 11
103.423
 21
0.09375
  0
LINE
  8
0
 10
103.423
 20
0.09375
 11
103.47
 21
0.117188
  0
LINE
  8
0
 10
103.47
 20
0.117188
 11
103.484
 21
0.125
  0
LINE
  8
0
 10
103.484
 20
0.125
 11
103.5
 21
0.133789
  0
LINE
  8
0
 10
103.5
 20
0.133789
 11
103.515
 21
0.142578
  0
LINE
  8
0
 10
103.515
 20
0.142578
 11
103.53
 21
0.152344
  0
LINE
  8
0
 10
103.53
 20
0.152344
 11
103.545
 21
0.161133
  0
LINE
  8
0
 10
103.545
 20
0.161133
 11
103.56
 21
0.170898
  0
LINE
  8
0
 10
103.56
 20
0.170898
 11
103.573
 21
0.180664
  0
LINE
  8
0
 10
103.573
 20
0.180664
 11
103.588
 21
0.191406
  0
LINE
  8
0
 10
103.588
 20
0.191406
 11
103.602
 21
0.201172
  0
LINE
  8
0
 10
103.602
 20
0.201172
 11
103.629
 21
0.222656
  0
LINE
  8
0
 10
103.629
 20
0.222656
 11
103.643
 21
0.234375
  0
LINE
  8
0
 10
103.643
 20
0.234375
 11
103.656
 21
0.245117
  0
LINE
  8
0
 10
103.656
 20
0.245117
 11
103.694
 21
0.280273
  0
LINE
  8
0
 10
103.694
 20
0.280273
 11
103.72
 21
0.305664
  0
LINE
  8
0
 10
103.72
 20
0.305664
 11
103.755
 21
0.34375
  0
LINE
  8
0
 10
103.755
 20
0.34375
 11
103.766
 21
0.357422
  0
LINE
  8
0
 10
103.766
 20
0.357422
 11
103.777
 21
0.371094
  0
LINE
  8
0
 10
103.777
 20
0.371094
 11
103.799
 21
0.398438
  0
LINE
  8
0
 10
103.799
 20
0.398438
 11
103.809
 21
0.412109
  0
LINE
  8
0
 10
103.809
 20
0.412109
 11
103.819
 21
0.426758
  0
LINE
  8
0
 10
103.819
 20
0.426758
 11
103.829
 21
0.44043
  0
LINE
  8
0
 10
103.829
 20
0.44043
 11
103.839
 21
0.455078
  0
LINE
  8
0
 10
103.839
 20
0.455078
 11
103.848
 21
0.469727
  0
LINE
  8
0
 10
103.848
 20
0.469727
 11
103.857
 21
0.485352
  0
LINE
  8
0
 10
103.857
 20
0.485352
 11
103.866
 21
0.5
  0
LINE
  8
0
 10
103.866
 20
0.5
 11
103.875
 21
0.515625
  0
LINE
  8
0
 10
103.875
 20
0.515625
 11
103.883
 21
0.530273
  0
LINE
  8
0
 10
103.883
 20
0.530273
 11
103.906
 21
0.577148
  0
LINE
  8
0
 10
103.906
 20
0.577148
 11
103.913
 21
0.59375
  0
LINE
  8
0
 10
103.913
 20
0.59375
 11
103.921
 21
0.609375
  0
LINE
  8
0
 10
103.921
 20
0.609375
 11
103.927
 21
0.625
  0
LINE
  8
0
 10
103.927
 20
0.625
 11
103.934
 21
0.641602
  0
LINE
  8
0
 10
103.934
 20
0.641602
 11
103.951
 21
0.691406
  0
LINE
  8
0
 10
103.951
 20
0.691406
 11
103.971
 21
0.757812
  0
LINE
  8
0
 10
103.971
 20
0.757812
 11
103.975
 21
0.775391
  0
LINE
  8
0
 10
103.975
 20
0.775391
 11
103.979
 21
0.791992
  0
LINE
  8
0
 10
103.979
 20
0.791992
 11
103.981
 21
0.80957
  0
LINE
  8
0
 10
103.981
 20
0.80957
 11
103.984
 21
0.826172
  0
LINE
  8
0
 10
103.984
 20
0.826172
 11
103.987
 21
0.84375
  0
LINE
  8
0
 10
103.987
 20
0.84375
 11
103.99
 21
0.860352
  0
LINE
  8
0
 10
103.99
 20
0.860352
 11
103.998
 21
0.930664
  0
LINE
  8
0
 10
103.998
 20
0.930664
 11
103.999
 21
0.947266
  0
LINE
  8
0
 10
103.999
 20
0.947266
 11
103.999
 21
0.964844
  0
LINE
  8
0
 10
103.999
 20
0.964844
 11
104
 21
0.982422
  0
LINE
  8
0
 10
104
 20
0.982422
 11
104
 21
9.01758
  0
LINE
  8
0
 10
104
 20
9.01758
 11
103.999
 21
9.03516
  0
LINE
  8
0
 10
103.999
 20
9.03516
 11
103.999
 21
9.05273
  0
LINE
  8
0
 10
103.999
 20
9.05273
 11
103.998
 21
9.06934
  0
LINE
  8
0
 10
103.998
 20
9.06934
 11
103.99
 21
9.13965
  0
LINE
  8
0
 10
103.99
 20
9.13965
 11
103.987
 21
9.15625
  0
LINE
  8
0
 10
103.987
 20
9.15625
 11
103.984
 21
9.17383
  0
LINE
  8
0
 10
103.984
 20
9.17383
 11
103.981
 21
9.19043
  0
LINE
  8
0
 10
103.981
 20
9.19043
 11
103.979
 21
9.20801
  0
LINE
  8
0
 10
103.979
 20
9.20801
 11
103.975
 21
9.22461
  0
LINE
  8
0
 10
103.975
 20
9.22461
 11
103.971
 21
9.24219
  0
LINE
  8
0
 10
103.971
 20
9.24219
 11
103.951
 21
9.30859
  0
LINE
  8
0
 10
103.951
 20
9.30859
 11
103.934
 21
9.3584
  0
LINE
  8
0
 10
103.934
 20
9.3584
 11
103.927
 21
9.375
  0
LINE
  8
0
 10
103.927
 20
9.375
 11
103.921
 21
9.39062
  0
LINE
  8
0
 10
103.921
 20
9.39062
 11
103.913
 21
9.40625
  0
LINE
  8
0
 10
103.913
 20
9.40625
 11
103.906
 21
9.42285
  0
LINE
  8
0
 10
103.906
 20
9.42285
 11
103.883
 21
9.46973
  0
LINE
  8
0
 10
103.883
 20
9.46973
 11
103.875
 21
9.48438
  0
LINE
  8
0
 10
103.875
 20
9.48438
 11
103.866
 21
9.5
  0
LINE
  8
0
 10
103.866
 20
9.5
 11
103.857
 21
9.51465
  0
LINE
  8
0
 10
103.857
 20
9.51465
 11
103.848
 21
9.53027
  0
LINE
  8
0
 10
103.848
 20
9.53027
 11
103.839
 21
9.54492
  0
LINE
  8
0
 10
103.839
 20
9.54492
 11
103.829
 21
9.55957
  0
LINE
  8
0
 10
103.829
 20
9.55957
 11
103.819
 21
9.57324
  0
LINE
  8
0
 10
103.819
 20
9.57324
 11
103.809
 21
9.58789
  0
LINE
  8
0
 10
103.809
 20
9.58789
 11
103.799
 21
9.60156
  0
LINE
  8
0
 10
103.799
 20
9.60156
 11
103.777
 21
9.62891
  0
LINE
  8
0
 10
103.777
 20
9.62891
 11
103.766
 21
9.64258
  0
LINE
  8
0
 10
103.766
 20
9.64258
 11
103.755
 21
9.65625
  0
LINE
  8
0
 10
103.755
 20
9.65625
 11
103.72
 21
9.69434
  0
LINE
  8
0
 10
103.72
 20
9.69434
 11
103.694
 21
9.71973
  0
LINE
  8
0
 10
103.694
 20
9.71973
 11
103.656
 21
9.75488
  0
LINE
  8
0
 10
103.656
 20
9.75488
 11
103.643
 21
9.76562
  0
LINE
  8
0
 10
103.643
 20
9.76562
 11
103.629
 21
9.77734
  0
LINE
  8
0
 10
103.629
 20
9.77734
 11
103.602
 21
9.79883
  0
LINE
  8
0
 10
103.602
 20
9.79883
 11
103.588
 21
9.80859
  0
LINE
  8
0
 10
103.588
 20
9.80859
 11
103.573
 21
9.81934
  0
LINE
  8
0
 10
103.573
 20
9.81934
 11
103.56
 21
9.8291
  0
LINE
  8
0
 10
103.56
 20
9.8291
 11
103.545
 21
9.83887
  0
LINE
  8
0
 10
103.545
 20
9.83887
 11
103.53
 21
9.84766
  0
LINE
  8
0
 10
103.53
 20
9.84766
 11
103.515
 21
9.85742
  0
LINE
  8
0
 10
103.515
 20
9.85742
 11
103.5
 21
9.86621
  0
LINE
  8
0
 10
103.5
 20
9.86621
 11
103.484
 21
9.875
  0
LINE
  8
0
 10
103.484
 20
9.875
 11
103.47
 21
9.88281
  0
LINE
  8
0
 10
103.47
 20
9.88281
 11
103.423
 21
9.90625
  0
LINE
  8
0
 10
103.423
 20
9.90625
 11
103.406
 21
9.91309
  0
LINE
  8
0
 10
103.406
 20
9.91309
 11
103.391
 21
9.9209
  0
LINE
  8
0
 10
103.391
 20
9.9209
 11
103.375
 21
9.92676
  0
LINE
  8
0
 10
103.375
 20
9.92676
 11
103.358
 21
9.93359
  0
LINE
  8
0
 10
103.358
 20
9.93359
 11
103.309
 21
9.95117
  0
LINE
  8
0
 10
103.309
 20
9.95117
 11
103.242
 21
9.9707
  0
LINE
  8
0
 10
103.242
 20
9.9707
 11
103.225
 21
9.97461
  0
LINE
  8
0
 10
103.225
 20
9.97461
 11
103.208
 21
9.97852
  0
LINE
  8
0
 10
103.208
 20
9.97852
 11
103.19
 21
9.98145
  0
LINE
  8
0
 10
103.19
 20
9.98145
 11
103.174
 21
9.98438
  0
LINE
  8
0
 10
103.174
 20
9.98438
 11
103.156
 21
9.9873
  0
LINE
  8
0
 10
103.156
 20
9.9873
 11
103.14
 21
9.99023
  0
LINE
  8
0
 10
103.14
 20
9.99023
 11
103.069
 21
9.99805
  0
LINE
  8
0
 10
103.069
 20
9.99805
 11
103.053
 21
9.99902
  0
LINE
  8
0
 10
103.053
 20
9.99902
 11
103.035
 21
9.99902
  0
LINE
  8
0
 10
103.035
 20
9.99902
 11
103.018
 21
10
  0
LINE
  8
0
 10
103.018
 20
10
 11
100.95
 21
10
  0
LINE
  8
0
 10
100.95
 20
10
 11
100.95
 21
138.25
  0
LINE
  8
0
 10
100.95
 20
138.25
 11
103.018
 21
138.25
  0
LINE
  8
0
 10
103.018
 20
138.25
 11
103.035
 21
138.251
  0
LINE
  8
0
 10
103.035
 20
138.251
 11
103.053
 21
138.251
  0
LINE
  8
0
 10
103.053
 20
138.251
 11
103.069
 21
138.252
  0
LINE
  8
0
 10
103.069
 20
138.252
 11
103.14
 21
138.26
  0
LINE
  8
0
 10
103.14
 20
138.26
 11
103.156
 21
138.263
  0
LINE
  8
0
 10
103.156
 20
138.263
 11
103.174
 21
138.266
  0
LINE
  8
0
 10
103.174
 20
138.266
 11
103.19
 21
138.269
  0
LINE
  8
0
 10
103.19
 20
138.269
 11
103.208
 21
138.271
  0
LINE
  8
0
 10
103.208
 20
138.271
 11
103.225
 21
138.275
  0
LINE
  8
0
 10
103.225
 20
138.275
 11
103.242
 21
138.279
  0
LINE
  8
0
 10
103.242
 20
138.279
 11
103.309
 21
138.299
  0
LINE
  8
0
 10
103.309
 20
138.299
 11
103.358
 21
138.316
  0
LINE
  8
0
 10
103.358
 20
138.316
 11
103.375
 21
138.323
  0
LINE
  8
0
 10
103.375
 20
138.323
 11
103.391
 21
138.329
  0
LINE
  8
0
 10
103.391
 20
138.329
 11
103.406
 21
138.337
  0
LINE
  8
0
 10
103.406
 20
138.337
 11
103.423
 21
138.344
  0
LINE
  8
0
 10
103.423
 20
138.344
 11
103.47
 21
138.367
  0
LINE
  8
0
 10
103.47
 20
138.367
 11
103.484
 21
138.375
  0
LINE
  8
0
 10
103.484
 20
138.375
 11
103.5
 21
138.384
  0
LINE
  8
0
 10
103.5
 20
138.384
 11
103.515
 21
138.393
  0
LINE
  8
0
 10
103.515
 20
138.393
 11
103.53
 21
138.402
  0
LINE
  8
0
 10
103.53
 20
138.402
 11
103.545
 21
138.411
  0
LINE
  8
0
 10
103.545
 20
138.411
 11
103.56
 21
138.421
  0
LINE
  8
0
 10
103.56
 20
138.421
 11
103.573
 21
138.431
  0
LINE
  8
0
 10
103.573
 20
138.431
 11
103.588
 21
138.441
  0
LINE
  8
0
 10
103.588
 20
138.441
 11
103.602
 21
138.451
  0
LINE
  8
0
 10
103.602
 20
138.451
 11
103.629
 21
138.473
  0
LINE
  8
0
 10
103.629
 20
138.473
 11
103.643
 21
138.484
  0
LINE
  8
0
 10
103.643
 20
138.484
 11
103.656
 21
138.495
  0
LINE
  8
0
 10
103.656
 20
138.495
 11
103.694
 21
138.53
  0
LINE
  8
0
 10
103.694
 20
138.53
 11
103.72
 21
138.556
  0
LINE
  8
0
 10
103.72
 20
138.556
 11
103.755
 21
138.594
  0
LINE
  8
0
 10
103.755
 20
138.594
 11
103.766
 21
138.607
  0
LINE
  8
0
 10
103.766
 20
138.607
 11
103.777
 21
138.621
  0
LINE
  8
0
 10
103.777
 20
138.621
 11
103.799
 21
138.648
  0
LINE
  8
0
 10
103.799
 20
138.648
 11
103.809
 21
138.662
  0
LINE
  8
0
 10
103.809
 20
138.662
 11
103.819
 21
138.677
  0
LINE
  8
0
 10
103.819
 20
138.677
 11
103.829
 21
138.69
  0
LINE
  8
0
 10
103.829
 20
138.69
 11
103.839
 21
138.705
  0
LINE
  8
0
 10
103.839
 20
138.705
 11
103.848
 21
138.72
  0
LINE
  8
0
 10
103.848
 20
138.72
 11
103.857
 21
138.735
  0
LINE
  8
0
 10
103.857
 20
138.735
 11
103.866
 21
138.75
  0
LINE
  8
0
 10
103.866
 20
138.75
 11
103.875
 21
138.766
  0
LINE
  8
0
 10
103.875
 20
138.766
 11
103.883
 21
138.78
  0
LINE
  8
0
 10
103.883
 20
138.78
 11
103.906
 21
138.827
  0
LINE
  8
0
 10
103.906
 20
138.827
 11
103.913
 21
138.844
  0
LINE
  8
0
 10
103.913
 20
138.844
 11
103.921
 21
138.859
  0
LINE
  8
0
 10
103.921
 20
138.859
 11
103.927
 21
138.875
  0
LINE
  8
0
 10
103.927
 20
138.875
 11
103.934
 21
138.892
  0
LINE
  8
0
 10
103.934
 20
138.892
 11
103.951
 21
138.941
  0
LINE
  8
0
 10
103.951
 20
138.941
 11
103.971
 21
139.008
  0
LINE
  8
0
 10
103.971
 20
139.008
 11
103.975
 21
139.025
  0
LINE
  8
0
 10
103.975
 20
139.025
 11
103.979
 21
139.042
  0
LINE
  8
0
 10
103.979
 20
139.042
 11
103.981
 21
139.06
  0
LINE
  8
0
 10
103.981
 20
139.06
 11
103.984
 21
139.076
  0
LINE
  8
0
 10
103.984
 20
139.076
 11
103.987
 21
139.094
  0
LINE
  8
0
 10
103.987
 20
139.094
 11
103.99
 21
139.11
  0
LINE
  8
0
 10
103.99
 20
139.11
 11
103.998
 21
139.181
  0
LINE
  8
0
 10
103.998
 20
139.181
 11
103.999
 21
139.197
  0
LINE
  8
0
 10
103.999
 20
139.197
 11
103.999
 21
139.215
  0
LINE
  8
0
 10
103.999
 20
139.215
 11
104
 21
139.232
  0
LINE
  8
0
 10
104
 20
139.232
 11
104
 21
147.268
  0
LINE
  8
0
 10
104
 20
147.268
 11
103.999
 21
147.285
  0
LINE
  8
0
 10
103.999
 20
147.285
 11
103.999
 21
147.303
  0
LINE
  8
0
 10
103.999
 20
147.303
 11
103.998
 21
147.319
  0
LINE
  8
0
 10
103.998
 20
147.319
 11
103.99
 21
147.39
  0
LINE
  8
0
 10
103.99
 20
147.39
 11
103.987
 21
147.406
  0
LINE
  8
0
 10
103.987
 20
147.406
 11
103.984
 21
147.424
  0
LINE
  8
0
 10
103.984
 20
147.424
 11
103.981
 21
147.44
  0
LINE
  8
0
 10
103.981
 20
147.44
 11
103.979
 21
147.458
  0
LINE
  8
0
 10
103.979
 20
147.458
 11
103.975
 21
147.475
  0
LINE
  8
0
 10
103.975
 20
147.475
 11
103.971
 21
147.492
  0
LINE
  8
0
 10
103.971
 20
147.492
 11
103.951
 21
147.559
  0
LINE
  8
0
 10
103.951
 20
147.559
 11
103.934
 21
147.608
  0
LINE
  8
0
 10
103.934
 20
147.608
 11
103.927
 21
147.625
  0
LINE
  8
0
 10
103.927
 20
147.625
 11
103.921
 21
147.641
  0
LINE
  8
0
 10
103.921
 20
147.641
 11
103.913
 21
147.656
  0
LINE
  8
0
 10
103.913
 20
147.656
 11
103.906
 21
147.673
  0
LINE
  8
0
 10
103.906
 20
147.673
 11
103.883
 21
147.72
  0
LINE
  8
0
 10
103.883
 20
147.72
 11
103.875
 21
147.734
  0
LINE
  8
0
 10
103.875
 20
147.734
 11
103.866
 21
147.75
  0
LINE
  8
0
 10
103.866
 20
147.75
 11
103.857
 21
147.765
  0
LINE
  8
0
 10
103.857
 20
147.765
 11
103.848
 21
147.78
  0
LINE
  8
0
 10
103.848
 20
147.78
 11
103.839
 21
147.795
  0
LINE
  8
0
 10
103.839
 20
147.795
 11
103.829
 21
147.81
  0
LINE
  8
0
 10
103.829
 20
147.81
 11
103.819
 21
147.823
  0
LINE
  8
0
 10
103.819
 20
147.823
 11
103.809
 21
147.838
  0
LINE
  8
0
 10
103.809
 20
147.838
 11
103.799
 21
147.852
  0
LINE
  8
0
 10
103.799
 20
147.852
 11
103.777
 21
147.879
  0
LINE
  8
0
 10
103.777
 20
147.879
 11
103.766
 21
147.893
  0
LINE
  8
0
 10
103.766
 20
147.893
 11
103.755
 21
147.906
  0
LINE
  8
0
 10
103.755
 20
147.906
 11
103.72
 21
147.944
  0
LINE
  8
0
 10
103.72
 20
147.944
 11
103.694
 21
147.97
  0
LINE
  8
0
 10
103.694
 20
147.97
 11
103.656
 21
148.005
  0
LINE
  8
0
 10
103.656
 20
148.005
 11
103.643
 21
148.016
  0
LINE
  8
0
 10
103.643
 20
148.016
 11
103.629
 21
148.027
  0
LINE
  8
0
 10
103.629
 20
148.027
 11
103.602
 21
148.049
  0
LINE
  8
0
 10
103.602
 20
148.049
 11
103.588
 21
148.059
  0
LINE
  8
0
 10
103.588
 20
148.059
 11
103.573
 21
148.069
  0
LINE
  8
0
 10
103.573
 20
148.069
 11
103.56
 21
148.079
  0
LINE
  8
0
 10
103.56
 20
148.079
 11
103.545
 21
148.089
  0
LINE
  8
0
 10
103.545
 20
148.089
 11
103.53
 21
148.098
  0
LINE
  8
0
 10
103.53
 20
148.098
 11
103.515
 21
148.107
  0
LINE
  8
0
 10
103.515
 20
148.107
 11
103.5
 21
148.116
  0
LINE
  8
0
 10
103.5
 20
148.116
 11
103.484
 21
148.125
  0
LINE
  8
0
 10
103.484
 20
148.125
 11
103.47
 21
148.133
  0
LINE
  8
0
 10
103.47
 20
148.133
 11
103.423
 21
148.156
  0
LINE
  8
0
 10
103.423
 20
148.156
 11
103.406
 21
148.163
  0
LINE
  8
0
 10
103.406
 20
148.163
 11
103.391
 21
148.171
  0
LINE
  8
0
 10
103.391
 20
148.171
 11
103.375
 21
148.177
  0
LINE
  8
0
 10
103.375
 20
148.177
 11
103.358
 21
148.184
  0
LINE
  8
0
 10
103.358
 20
148.184
 11
103.309
 21
148.201
  0
LINE
  8
0
 10
103.309
 20
148.201
 11
103.242
 21
148.221
  0
LINE
  8
0
 10
103.242
 20
148.221
 11
103.225
 21
148.225
  0
LINE
  8
0
 10
103.225
 20
148.225
 11
103.208
 21
148.229
  0
LINE
  8
0
 10
103.208
 20
148.229
 11
103.19
 21
148.231
  0
LINE
  8
0
 10
103.19
 20
148.231
 11
103.174
 21
148.234
  0
LINE
  8
0
 10
103.174
 20
148.234
 11
103.156
 21
148.237
  0
LINE
  8
0
 10
103.156
 20
148.237
 11
103.14
 21
148.24
  0
LINE
  8
0
 10
103.14
 20
148.24
 11
103.069
 21
148.248
  0
LINE
  8
0
 10
103.069
 20
148.248
 11
103.053
 21
148.249
  0
LINE
  8
0
 10
103.053
 20
148.249
 11
103.035
 21
148.249
  0
LINE
  8
0
 10
103.035
 20
148.249
 11
103.018
 21
148.25
  0
LINE
  8
0
 10
103.018
 20
148.25
 11
-2.01758
 21
148.25
  0
LINE
  8
0
 10
-2.01758
 20
148.25
 11
-2.03516
 21
148.249
  0
LINE
  8
0
 10
-2.03516
 20
148.249
 11
-2.05273
 21
148.249
  0
LINE
  8
0
 10
-2.05273
 20
148.249
 11
-2.06934
 21
148.248
  0
LINE
  8
0
 10
-2.06934
 20
148.248
 11
-2.13965
 21
148.24
  0
LINE
  8
0
 10
-2.13965
 20
148.24
 11
-2.15625
 21
148.237
  0
LINE
  8
0
 10
-2.15625
 20
148.237
 11
-2.17383
 21
148.234
  0
LINE
  8
0
 10
-2.17383
 20
148.234
 11
-2.19043
 21
148.231
  0
LINE
  8
0
 10
-2.19043
 20
148.231
 11
-2.20801
 21
148.229
  0
LINE
  8
0
 10
-2.20801
 20
148.229
 11
-2.22461
 21
148.225
  0
LINE
  8
0
 10
-2.22461
 20
148.225
 11
-2.24219
 21
148.221
  0
LINE
  8
0
 10
-2.24219
 20
148.221
 11
-2.30859
 21
148.201
  0
LINE
  8
0
 10
-2.30859
 20
148.201
 11
-2.3584
 21
148.184
  0
LINE
  8
0
 10
-2.3584
 20
148.184
 11
-2.375
 21
148.177
  0
LINE
  8
0
 10
-2.375
 20
148.177
 11
-2.39062
 21
148.171
  0
LINE
  8
0
 10
-2.39062
 20
148.171
 11
-2.40625
 21
148.163
  0
LINE
  8
0
 10
-2.40625
 20
148.163
 11
-2.42285
 21
148.156
  0
LINE
  8
0
 10
-2.42285
 20
148.156
 11
-2.46973
 21
148.133
  0
LINE
  8
0
 10
-2.46973
 20
148.133
 11
-2.48438
 21
148.125
  0
LINE
  8
0
 10
-2.48438
 20
148.125
 11
-2.5
 21
148.116
  0
LINE
  8
0
 10
-2.5
 20
148.116
 11
-2.51465
 21
148.107
  0
LINE
  8
0
 10
-2.51465
 20
148.107
 11
-2.53027
 21
148.098
  0
LINE
  8
0
 10
-2.53027
 20
148.098
 11
-2.54492
 21
148.089
  0
LINE
  8
0
 10
-2.54492
 20
148.089
 11
-2.55957
 21
148.079
  0
LINE
  8
0
 10
-2.55957
 20
148.079
 11
-2.57324
 21
148.069
  0
LINE
  8
0
 10
-2.57324
 20
148.069
 11
-2.58789
 21
148.059
  0
LINE
  8
0
 10
-2.58789
 20
148.059
 11
-2.60156
 21
148.049
  0
LINE
  8
0
 10
-2.60156
 20
148.049
 11
-2.62891
 21
148.027
  0
LINE
  8
0
 10
-2.62891
 20
148.027
 11
-2.64258
 21
148.016
  0
LINE
  8
0
 10
-2.64258
 20
148.016
 11
-2.65625
 21
148.005
  0
LINE
  8
0
 10
-2.65625
 20
148.005
 11
-2.69434
 21
147.97
  0
LINE
  8
0
 10
-2.69434
 20
147.97
 11
-2.71973
 21
147.944
  0
LINE
  8
0
 10
-2.71973
 20
147.944
 11
-2.75488
 21
147.906
  0
LINE
  8
0
 10
-2.75488
 20
147.906
 11
-2.76562
 21
147.893
  0
LINE
  8
0
 10
-2.76562
 20
147.893
 11
-2.77734
 21
147.879
  0
LINE
  8
0
 10
-2.77734
 20
147.879
 11
-2.79883
 21
147.852
  0
LINE
  8
0
 10
-2.79883
 20
147.852
 11
-2.80859
 21
147.838
  0
LINE
  8
0
 10
-2.80859
 20
147.838
 11
-2.81934
 21
147.823
  0
LINE
  8
0
 10
-2.81934
 20
147.823
 11
-2.8291
 21
147.81
  0
LINE
  8
0
 10
-2.8291
 20
147.81
 11
-2.83887
 21
147.795
  0
LINE
  8
0
 10
-2.83887
 20
147.795
 11
-2.84766
 21
147.78
  0
LINE
  8
0
 10
-2.84766
 20
147.78
 11
-2.85742
 21
147.765
  0
LINE
  8
0
 10
-2.85742
 20
147.765
 11
-2.86621
 21
147.75
  0
LINE
  8
0
 10
-2.86621
 20
147.75
 11
-2.875
 21
147.734
  0
LINE
  8
0
 10
-2.875
 20
147.734
 11
-2.88281
 21
147.72
  0
LINE
  8
0
 10
-2.88281
 20
147.72
 11
-2.90625
 21
147.673
  0
LINE
  8
0
 10
-2.90625
 20
147.673
 11
-2.91309
 21
147.656
  0
LINE
  8
0
 10
-2.91309
 20
147.656
 11
-2.9209
 21
147.641
  0
LINE
  8
0
 10
-2.9209
 20
147.641
 11
-2.92676
 21
147.625
  0
LINE
  8
0
 10
-2.92676
 20
147.625
 11
-2.93359
 21
147.608
  0
LINE
  8
0
 10
-2.93359
 20
147.608
 11
-2.95117
 21
147.559
  0
LINE
  8
0
 10
-2.95117
 20
147.559
 11
-2.9707
 21
147.492
  0
LINE
  8
0
 10
-2.9707
 20
147.492
 11
-2.97461
 21
147.475
  0
LINE
  8
0
 10
-2.97461
 20
147.475
 11
-2.97852
 21
147.458
  0
LINE
  8
0
 10
-2.97852
 20
147.458
 11
-2.98145
 21
147.44
  0
LINE
  8
0
 10
-2.98145
 20
147.44
 11
-2.98438
 21
147.424
  0
LINE
  8
0
 10
-2.98438
 20
147.424
 11
-2.9873
 21
147.406
  0
LINE
  8
0
 10
-2.9873
 20
147.406
 11
-2.99023
 21
147.39
  0
LINE
  8
0
 10
-2.99023
 20
147.39
 11
-2.99805
 21
147.319
  0
LINE
  8
0
 10
-2.99805
 20
147.319
 11
-2.99902
 21
147.303
  0
LINE
  8
0
 10
-2.99902
 20
147.303
 11
-2.99902
 21
147.285
  0
LINE
  8
0
 10
-2.99902
 20
147.285
 11
-3
 21
147.268
  0
LINE
  8
0
 10
-3
 20
147.268
 11
-3
 21
139.232
  0
LINE
  8
0
 10
-3
 20
139.232
 11
-2.99902
 21
139.215
  0
LINE
  8
0
 10
-2.99902
 20
139.215
 11
-2.99902
 21
139.197
  0
LINE
  8
0
 10
-2.99902
 20
139.197
 11
-2.99805
 21
139.181
  0
LINE
  8
0
 10
-2.99805
 20
139.181
 11
-2.99023
 21
139.11
  0
LINE
  8
0
 10
-2.99023
 20
139.11
 11
-2.9873
 21
139.094
  0
LINE
  8
0
 10
-2.9873
 20
139.094
 11
-2.98438
 21
139.076
  0
LINE
  8
0
 10
-2.98438
 20
139.076
 11
-2.98145
 21
139.06
  0
LINE
  8
0
 10
-2.98145
 20
139.06
 11
-2.97852
 21
139.042
  0
LINE
  8
0
 10
-2.97852
 20
139.042
 11
-2.97461
 21
139.025
  0
LINE
  8
0
 10
-2.97461
 20
139.025
 11
-2.9707
 21
139.008
  0
LINE
  8
0
 10
-2.9707
 20
139.008
 11
-2.95117
 21
138.941
  0
LINE
  8
0
 10
-2.95117
 20
138.941
 11
-2.93359
 21
138.892
  0
LINE
  8
0
 10
-2.93359
 20
138.892
 11
-2.92676
 21
138.875
  0
LINE
  8
0
 10
-2.92676
 20
138.875
 11
-2.9209
 21
138.859
  0
LINE
  8
0
 10
-2.9209
 20
138.859
 11
-2.91309
 21
138.844
  0
LINE
  8
0
 10
-2.91309
 20
138.844
 11
-2.90625
 21
138.827
  0
LINE
  8
0
 10
-2.90625
 20
138.827
 11
-2.88281
 21
138.78
  0
LINE
  8
0
 10
-2.88281
 20
138.78
 11
-2.875
 21
138.766
  0
LINE
  8
0
 10
-2.875
 20
138.766
 11
-2.86621
 21
138.75
  0
LINE
  8
0
 10
-2.86621
 20
138.75
 11
-2.85742
 21
138.735
  0
LINE
  8
0
 10
-2.85742
 20
138.735
 11
-2.84766
 21
138.72
  0
LINE
  8
0
 10
-2.84766
 20
138.72
 11
-2.83887
 21
138.705
  0
LINE
  8
0
 10
-2.83887
 20
138.705
 11
-2.8291
 21
138.69
  0
LINE
  8
0
 10
-2.8291
 20
138.69
 11
-2.81934
 21
138.677
  0
LINE
  8
0
 10
-2.81934
 20
138.677
 11
-2.80859
 21
138.662
  0
LINE
  8
0
 10
-2.80859
 20
138.662
 11
-2.79883
 21
138.648
  0
LINE
  8
0
 10
-2.79883
 20
138.648
 11
-2.77734
 21
138.621
  0
LINE
  8
0
 10
-2.77734
 20
138.621
 11
-2.76562
 21
138.607
  0
LINE
  8
0
 10
-2.76562
 20
138.607
 11
-2.75488
 21
138.594
  0
LINE
  8
0
 10
-2.75488
 20
138.594
 11
-2.71973
 21
138.556
  0
LINE
  8
0
 10
-2.71973
 20
138.556
 11
-2.69434
 21
138.53
  0
LINE
  8
0
 10
-2.69434
 20
138.53
 11
-2.65625
 21
138.495
  0
LINE
  8
0
 10
-2.65625
 20
138.495
 11
-2.64258
 21
138.484
  0
LINE
  8
0
 10
-2.64258
 20
138.484
 11
-2.62891
 21
138.473
  0
LINE
  8
0
 10
-2.62891
 20
138.473
 11
-2.60156
 21
138.451
  0
LINE
  8
0
 10
-2.60156
 20
138.451
 11
-2.58789
 21
138.441
  0
LINE
  8
0
 10
-2.58789
 20
138.441
 11
-2.57324
 21
138.431
  0
LINE
  8
0
 10
-2.57324
 20
138.431
 11
-2.55957
 21
138.421
  0
LINE
  8
0
 10
-2.55957
 20
138.421
 11
-2.54492
 21
138.411
  0
LINE
  8
0
 10
-2.54492
 20
138.411
 11
-2.53027
 21
138.402
  0
LINE
  8
0
 10
-2.53027
 20
138.402
 11
-2.51465
 21
138.393
  0
LINE
  8
0
 10
-2.51465
 20
138.393
 11
-2.5
 21
138.384
  0
LINE
  8
0
 10
-2.5
 20
138.384
 11
-2.48438
 21
138.375
  0
LINE
  8
0
 10
-2.48438
 20
138.375
 11
-2.46973
 21
138.367
  0
LINE
  8
0
 10
-2.46973
 20
138.367
 11
-2.42285
 21
138.344
  0
LINE
  8
0
 10
-2.42285
 20
138.344
 11
-2.40625
 21
138.337
  0
LINE
  8
0
 10
-2.40625
 20
138.337
 11
-2.39062
 21
138.329
  0
LINE
  8
0
 10
-2.39062
 20
138.329
 11
-2.375
 21
138.323
  0
LINE
  8
0
 10
-2.375
 20
138.323
 11
-2.3584
 21
138.316
  0
LINE
  8
0
 10
-2.3584
 20
138.316
 11
-2.30859
 21
138.299
  0
LINE
  8
0
 10
-2.30859
 20
138.299
 11
-2.24219
 21
138.279
  0
LINE
  8
0
 10
-2.24219
 20
138.279
 11
-2.22461
 21
138.275
  0
LINE
  8
0
 10
-2.22461
 20
138.275
 11
-2.20801
 21
138.271
  0
LINE
  8
0
 10
-2.20801
 20
138.271
 11
-2.19043
 21
138.269
  0
LINE
  8
0
 10
-2.19043
 20
138.269
 11
-2.17383
 21
138.266
  0
LINE
  8
0
 10
-2.17383
 20
138.266
 11
-2.15625
 21
138.263
  0
LINE
  8
0
 10
-2.15625
 20
138.263
 11
-2.13965
 21
138.26
  0
LINE
  8
0
 10
-2.13965
 20
138.26
 11
-2.06934
 21
138.252
  0
LINE
  8
0
 10
-2.06934
 20
138.252
 11
-2.05273
 21
138.251
  0
LINE
  8
0
 10
-2.05273
 20
138.251
 11
-2.03516
 21
138.251
  0
LINE
  8
0
 10
-2.03516
 20
138.251
 11
-2.01758
 21
138.25
  0
LINE
  8
0
 10
-2.01758
 20
138.25
 11
0
 21
138.25
  0
LINE
  8
0
 10
0
 20
138.25
 11
0
 21
10
  0
LINE
  8
0
 10
0
 20
10
 11
-2.01758
 21
10
  0
LINE
  8
0
 10
-2.01758
 20
10
 11
-2.03516
 21
9.99902
  0
LINE
  8
0
 10
-2.03516
 20
9.99902
 11
-2.05273
 21
9.99902
  0
LINE
  8
0
 10
-2.05273
 20
9.99902
 11
-2.06934
 21
9.99805
  0
LINE
  8
0
 10
-2.06934
 20
9.99805
 11
-2.13965
 21
9.99023
  0
LINE
  8
0
 10
-2.13965
 20
9.99023
 11
-2.15625
 21
9.9873
  0
LINE
  8
0
 10
-2.15625
 20
9.9873
 11
-2.17383
 21
9.98438
  0
LINE
  8
0
 10
-2.17383
 20
9.98438
 11
-2.19043
 21
9.98145
  0
LINE
  8
0
 10
-2.19043
 20
9.98145
 11
-2.20801
 21
9.97852
  0
LINE
  8
0
 10
-2.20801
 20
9.97852
 11
-2.22461
 21
9.97461
  0
LINE
  8
0
 10
-2.22461
 20
9.97461
 11
-2.24219
 21
9.9707
  0
LINE
  8
0
 10
-2.24219
 20
9.9707
 11
-2.30859
 21
9.95117
  0
LINE
  8
0
 10
-2.30859
 20
9.95117
 11
-2.3584
 21
9.93359
  0
LINE
  8
0
 10
-2.3584
 20
9.93359
 11
-2.375
 21
9.92676
  0
LINE
  8
0
 10
-2.375
 20
9.92676
 11
-2.39062
 21
9.9209
  0
LINE
  8
0
 10
-2.39062
 20
9.9209
 11
-2.40625
 21
9.91309
  0
LINE
  8
0
 10
-2.40625
 20
9.91309
 11
-2.42285
 21
9.90625
  0
LINE
  8
0
 10
-2.42285
 20
9.90625
 11
-2.46973
 21
9.88281
  0
LINE
  8
0
 10
-2.46973
 20
9.88281
 11
-2.48438
 21
9.875
  0
LINE
  8
0
 10
-2.48438
 20
9.875
 11
-2.5
 21
9.86621
  0
LINE
  8
0
 10
-2.5
 20
9.86621
 11
-2.51465
 21
9.85742
  0
LINE
  8
0
 10
-2.51465
 20
9.85742
 11
-2.53027
 21
9.84766
  0
LINE
  8
0
 10
-2.53027
 20
9.84766
 11
-2.54492
 21
9.83887
  0
LINE
  8
0
 10
-2.54492
 20
9.83887
 11
-2.55957
 21
9.8291
  0
LINE
  8
0
 10
-2.55957
 20
9.8291
 11
-2.57324
 21
9.81934
  0
LINE
  8
0
 10
-2.57324
 20
9.81934
 11
-2.58789
 21
9.80859
  0
LINE
  8
0
 10
-2.58789
 20
9.80859
 11
-2.60156
 21
9.79883
  0
LINE
  8
0
 10
-2.60156
 20
9.79883
 11
-2.62891
 21
9.77734
  0
LINE
  8
0
 10
-2.62891
 20
9.77734
 11
-2.64258
 21
9.76562
  0
LINE
  8
0
 10
-2.64258
 20
9.76562
 11
-2.65625
 21
9.75488
  0
LINE
  8
0
 10
-2.65625
 20
9.75488
 11
-2.69434
 21
9.71973
  0
LINE
  8
0
 10
-2.69434
 20
9.71973
 11
-2.71973
 21
9.69434
  0
LINE
  8
0
 10
-2.71973
 20
9.69434
 11
-2.75488
 21
9.65625
  0
LINE
  8
0
 10
-2.75488
 20
9.65625
 11
-2.76562
 21
9.64258
  0
LINE
  8
0
 10
-2.76562
 20
9.64258
 11
-2.77734
 21
9.62891
  0
LINE
  8
0
 10
-2.77734
 20
9.62891
 11
-2.79883
 21
9.60156
  0
LINE
  8
0
 10
-2.79883
 20
9.60156
 11
-2.80859
 21
9.58789
  0
LINE
  8
0
 10
-2.80859
 20
9.58789
 11
-2.81934
 21
9.57324
  0
LINE
  8
0
 10
-2.81934
 20
9.57324
 11
-2.8291
 21
9.55957
  0
LINE
  8
0
 10
-2.8291
 20
9.55957
 11
-2.83887
 21
9.54492
  0
LINE
  8
0
 10
-2.83887
 20
9.54492
 11
-2.84766
 21
9.53027
  0
LINE
  8
0
 10
-2.84766
 20
9.53027
 11
-2.85742
 21
9.51465
  0
LINE
  8
0
 10
-2.85742
 20
9.51465
 11
-2.86621
 21
9.5
  0
LINE
  8
0
 10
-2.86621
 20
9.5
 11
-2.875
 21
9.48438
  0
LINE
  8
0
 10
-2.875
 20
9.48438
 11
-2.88281
 21
9.46973
  0
LINE
  8
0
 10
-2.88281
 20
9.46973
 11
-2.90625
 21
9.42285
  0
LINE
  8
0
 10
-2.90625
 20
9.42285
 11
-2.91309
 21
9.40625
  0
LINE
  8
0
 10
-2.91309
 20
9.40625
 11
-2.9209
 21
9.39062
  0
LINE
  8
0
 10
-2.9209
 20
9.39062
 11
-2.92676
 21
9.375
  0
LINE
  8
0
 10
-2.92676
 20
9.375
 11
-2.93359
 21
9.3584
  0
LINE
  8
0
 10
-2.93359
 20
9.3584
 11
-2.95117
 21
9.30859
  0
LINE
  8
0
 10
-2.95117
 20
9.30859
 11
-2.9707
 21
9.24219
  0
LINE
  8
0
 10
-2.9707
 20
9.24219
 11
-2.97461
 21
9.22461
  0
LINE
  8
0
 10
-2.97461
 20
9.22461
 11
-2.97852
 21
9.20801
  0
LINE
  8
0
 10
-2.97852
 20
9.20801
 11
-2.98145
 21
9.19043
  0
LINE
  8
0
 10
-2.98145
 20
9.19043
 11
-2.98438
 21
9.17383
  0
LINE
  8
0
 10
-2.98438
 20
9.17383
 11
-2.9873
 21
9.15625
  0
LINE
  8
0
 10
-2.9873
 20
9.15625
 11
-2.99023
 21
9.13965
  0
LINE
  8
0
 10
-2.99023
 20
9.13965
 11
-2.99805
 21
9.06934
  0
LINE
  8
0
 10
-2.99805
 20
9.06934
 11
-2.99902
 21
9.05273
  0
LINE
  8
0
 10
-2.99902
 20
9.05273
 11
-2.99902
 21
9.03516
  0
LINE
  8
0
 10
-2.99902
 20
9.03516
 11
-3
 21
9.01758
  0
LINE
  8
0
 10
-3
 20
9.01758
 11
-3
 21
0.982422
  0
LINE
  8
0
 10
-3
 20
0.982422
 11
-2.99902
 21
0.964844
  0
LINE
  8
0
 10
-2.99902
 20
0.964844
 11
-2.99902
 21
0.947266
  0
LINE
  8
0
 10
-2.99902
 20
0.947266
 11
-2.99805
 21
0.930664
  0
LINE
  8
0
 10
-2.99805
 20
0.930664
 11
-2.99023
 21
0.860352
  0
LINE
  8
0
 10
-2.99023
 20
0.860352
 11
-2.9873
 21
0.84375
  0
LINE
  8
0
 10
-2.9873
 20
0.84375
 11
-2.98438
 21
0.826172
  0
LINE
  8
0
 10
-2.98438
 20
0.826172
 11
-2.98145
 21
0.80957
  0
LINE
  8
0
 10
-2.98145
 20
0.80957
 11
-2.97852
 21
0.791992
  0
LINE
  8
0
 10
-2.97852
 20
0.791992
 11
-2.97461
 21
0.775391
  0
LINE
  8
0
 10
-2.97461
 20
0.775391
 11
-2.9707
 21
0.757812
  0
LINE
  8
0
 10
-2.9707
 20
0.757812
 11
-2.95117
 21
0.691406
  0
LINE
  8
0
 10
-2.95117
 20
0.691406
 11
-2.93359
 21
0.641602
  0
LINE
  8
0
 10
-2.93359
 20
0.641602
 11
-2.92676
 21
0.625
  0
LINE
  8
0
 10
-2.92676
 20
0.625
 11
-2.9209
 21
0.609375
  0
LINE
  8
0
 10
-2.9209
 20
0.609375
 11
-2.91309
 21
0.59375
  0
LINE
  8
0
 10
-2.91309
 20
0.59375
 11
-2.90625
 21
0.577148
  0
LINE
  8
0
 10
-2.90625
 20
0.577148
 11
-2.88281
 21
0.530273
  0
LINE
  8
0
 10
-2.88281
 20
0.530273
 11
-2.875
 21
0.515625
  0
LINE
  8
0
 10
-2.875
 20
0.515625
 11
-2.86621
 21
0.5
  0
LINE
  8
0
 10
-2.86621
 20
0.5
 11
-2.85742
 21
0.485352
  0
LINE
  8
0
 10
-2.85742
 20
0.485352
 11
-2.84766
 21
0.469727
  0
LINE
  8
0
 10
-2.84766
 20
0.469727
 11
-2.83887
 21
0.455078
  0
LINE
  8
0
 10
-2.83887
 20
0.455078
 11
-2.8291
 21
0.44043
  0
LINE
  8
0
 10
-2.8291
 20
0.44043
 11
-2.81934
 21
0.426758
  0
LINE
  8
0
 10
-2.81934
 20
0.426758
 11
-2.80859
 21
0.412109
  0
LINE
  8
0
 10
-2.80859
 20
0.412109
 11
-2.79883
 21
0.398438
  0
LINE
  8
0
 10
-2.79883
 20
0.398438
 11
-2.77734
 21
0.371094
  0
LINE
  8
0
 10
-2.77734
 20
0.371094
 11
-2.76562
 21
0.357422
  0
LINE
  8
0
 10
-2.76562
 20
0.357422
 11
-2.75488
 21
0.34375
  0
LINE
  8
0
 10
-2.75488
 20
0.34375
 11
-2.71973
 21
0.305664
  0
LINE
  8
0
 10
-2.71973
 20
0.305664
 11
-2.69434
 21
0.280273
  0
LINE
  8
0
 10
-2.69434
 20
0.280273
 11
-2.65625
 21
0.245117
  0
LINE
  8
0
 10
-2.65625
 20
0.245117
 11
-2.64258
 21
0.234375
  0
LINE
  8
0
 10
-2.64258
 20
0.234375
 11
-2.62891
 21
0.222656
  0
LINE
  8
0
 10
-2.62891
 20
0.222656
 11
-2.60156
 21
0.201172
  0
LINE
  8
0
 10
-2.60156
 20
0.201172
 11
-2.58789
 21
0.191406
  0
LINE
  8
0
 10
-2.58789
 20
0.191406
 11
-2.57324
 21
0.180664
  0
LINE
  8
0
 10
-2.57324
 20
0.180664
 11
-2.55957
 21
0.170898
  0
LINE
  8
0
 10
-2.55957
 20
0.170898
 11
-2.54492
 21
0.161133
  0
LINE
  8
0
 10
-2.54492
 20
0.161133
 11
-2.53027
 21
0.152344
  0
LINE
  8
0
 10
-2.53027
 20
0.152344
 11
-2.51465
 21
0.142578
  0
LINE
  8
0
 10
-2.51465
 20
0.142578
 11
-2.5
 21
0.133789
  0
LINE
  8
0
 10
-2.5
 20
0.133789
 11
-2.48438
 21
0.125
  0
LINE
  8
0
 10
-2.48438
 20
0.125
 11
-2.46973
 21
0.117188
  0
LINE
  8
0
 10
-2.46973
 20
0.117188
 11
-2.42285
 21
0.09375
  0
LINE
  8
0
 10
-2.42285
 20
0.09375
 11
-2.40625
 21
0.0869141
  0
LINE
  8
0
 10
-2.40625
 20
0.0869141
 11
-2.39062
 21
0.0791016
  0
LINE
  8
0
 10
-2.39062
 20
0.0791016
 11
-2.375
 21
0.0732422
  0
LINE
  8
0
 10
-2.375
 20
0.0732422
 11
-2.3584
 21
0.0664062
  0
LINE
  8
0
 10
-2.3584
 20
0.0664062
 11
-2.30859
 21
0.0488281
  0
LINE
  8
0
 10
-2.30859
 20
0.0488281
 11
-2.24219
 21
0.0292969
  0
LINE
  8
0
 10
-2.24219
 20
0.0292969
 11
-2.22461
 21
0.0253906
  0
LINE
  8
0
 10
-2.22461
 20
0.0253906
 11
-2.20801
 21
0.0214844
  0
LINE
  8
0
 10
-2.20801
 20
0.0214844
 11
-2.19043
 21
0.0185547
  0
LINE
  8
0
 10
-2.19043
 20
0.0185547
 11
-2.17383
 21
0.015625
  0
LINE
  8
0
 10
-2.17383
 20
0.015625
 11
-2.15625
 21
0.0126953
  0
LINE
  8
0
 10
-2.15625
 20
0.0126953
 11
-2.13965
 21
0.00976562
  0
LINE
  8
0
 10
-2.13965
 20
0.00976562
 11
-2.06934
 21
0.00195312
  0
LINE
  8
0
 10
-2.06934
 20
0.00195312
 11
-2.05273
 21
0.000976562
  0
LINE
  8
0
 10
-2.05273
 20
0.000976562
 11
-2.03516
 21
0.000976562
  0
LINE
  8
0
 10
-2.03516
 20
0.000976562
 11
-2.01758
 21
0
  0
LINE
  8
0
 10
-2.01758
 20
0
 11
0
 21
0
  0
LINE
  8
0
 10
0
 20
0
 11
0
 21
-8
  0
LINE
  8
0
 10
0
 20
-8
 11
100.95
 21
-8
  0
LINE
  8
0
 10
100.95
 20
-8
 11
100.95
 21
0
  0
ENDSEC
  0
SECTION
  2
OBJECTS
  0
DICTIONARY
  0
ENDSEC
  0
EOF
