  0
SECTION
  2
BLOCKS
  0
ENDSEC
  0
SECTION
  2
ENTITIES
  0
LINE
  8
0
 10
100.95
 20
30
 11
103.018
 21
30
  0
LINE
  8
0
 10
103.018
 20
30
 11
103.035
 21
30.001
  0
LINE
  8
0
 10
103.035
 20
30.001
 11
103.053
 21
30.001
  0
LINE
  8
0
 10
103.053
 20
30.001
 11
103.069
 21
30.002
  0
LINE
  8
0
 10
103.069
 20
30.002
 11
103.14
 21
30.0098
  0
LINE
  8
0
 10
103.14
 20
30.0098
 11
103.156
 21
30.0127
  0
LINE
  8
0
 10
103.156
 20
30.0127
 11
103.174
 21
30.0156
  0
LINE
  8
0
 10
103.174
 20
30.0156
 11
103.19
 21
30.0186
  0
LINE
  8
0
 10
103.19
 20
30.0186
 11
103.208
 21
30.0215
  0
LINE
  8
0
 10
103.208
 20
30.0215
 11
103.225
 21
30.0254
  0
LINE
  8
0
 10
103.225
 20
30.0254
 11
103.242
 21
30.0293
  0
LINE
  8
0
 10
103.242
 20
30.0293
 11
103.309
 21
30.0488
  0
LINE
  8
0
 10
103.309
 20
30.0488
 11
103.358
 21
30.0664
  0
LINE
  8
0
 10
103.358
 20
30.0664
 11
103.375
 21
30.0732
  0
LINE
  8
0
 10
103.375
 20
30.0732
 11
103.391
 21
30.0791
  0
LINE
  8
0
 10
103.391
 20
30.0791
 11
103.406
 21
30.0869
  0
LINE
  8
0
 10
103.406
 20
30.0869
 11
103.423
 21
30.0938
  0
LINE
  8
0
 10
103.423
 20
30.0938
 11
103.47
 21
30.1172
  0
LINE
  8
0
 10
103.47
 20
30.1172
 11
103.484
 21
30.125
  0
LINE
  8
0
 10
103.484
 20
30.125
 11
103.5
 21
30.1338
  0
LINE
  8
0
 10
103.5
 20
30.1338
 11
103.515
 21
30.1426
  0
LINE
  8
0
 10
103.515
 20
30.1426
 11
103.53
 21
30.1523
  0
LINE
  8
0
 10
103.53
 20
30.1523
 11
103.545
 21
30.1611
  0
LINE
  8
0
 10
103.545
 20
30.1611
 11
103.56
 21
30.1709
  0
LINE
  8
0
 10
103.56
 20
30.1709
 11
103.573
 21
30.1807
  0
LINE
  8
0
 10
103.573
 20
30.1807
 11
103.588
 21
30.1914
  0
LINE
  8
0
 10
103.588
 20
30.1914
 11
103.602
 21
30.2012
  0
LINE
  8
0
 10
103.602
 20
30.2012
 11
103.629
 21
30.2227
  0
LINE
  8
0
 10
103.629
 20
30.2227
 11
103.643
 21
30.2344
  0
LINE
  8
0
 10
103.643
 20
30.2344
 11
103.656
 21
30.2451
  0
LINE
  8
0
 10
103.656
 20
30.2451
 11
103.694
 21
30.2803
  0
LINE
  8
0
 10
103.694
 20
30.2803
 11
103.72
 21
30.3057
  0
LINE
  8
0
 10
103.72
 20
30.3057
 11
103.755
 21
30.3438
  0
LINE
  8
0
 10
103.755
 20
30.3438
 11
103.766
 21
30.3574
  0
LINE
  8
0
 10
103.766
 20
30.3574
 11
103.777
 21
30.3711
  0
LINE
  8
0
 10
103.777
 20
30.3711
 11
103.799
 21
30.3984
  0
LINE
  8
0
 10
103.799
 20
30.3984
 11
103.809
 21
30.4121
  0
LINE
  8
0
 10
103.809
 20
30.4121
 11
103.819
 21
30.4268
  0
LINE
  8
0
 10
103.819
 20
30.4268
 11
103.829
 21
30.4404
  0
LINE
  8
0
 10
103.829
 20
30.4404
 11
103.839
 21
30.4551
  0
LINE
  8
0
 10
103.839
 20
30.4551
 11
103.848
 21
30.4697
  0
LINE
  8
0
 10
103.848
 20
30.4697
 11
103.857
 21
30.4854
  0
LINE
  8
0
 10
103.857
 20
30.4854
 11
103.866
 21
30.5
  0
LINE
  8
0
 10
103.866
 20
30.5
 11
103.875
 21
30.5156
  0
LINE
  8
0
 10
103.875
 20
30.5156
 11
103.883
 21
30.5303
  0
LINE
  8
0
 10
103.883
 20
30.5303
 11
103.906
 21
30.5771
  0
LINE
  8
0
 10
103.906
 20
30.5771
 11
103.913
 21
30.5938
  0
LINE
  8
0
 10
103.913
 20
30.5938
 11
103.921
 21
30.6094
  0
LINE
  8
0
 10
103.921
 20
30.6094
 11
103.927
 21
30.625
  0
LINE
  8
0
 10
103.927
 20
30.625
 11
103.934
 21
30.6416
  0
LINE
  8
0
 10
103.934
 20
30.6416
 11
103.951
 21
30.6914
  0
LINE
  8
0
 10
103.951
 20
30.6914
 11
103.971
 21
30.7578
  0
LINE
  8
0
 10
103.971
 20
30.7578
 11
103.975
 21
30.7754
  0
LINE
  8
0
 10
103.975
 20
30.7754
 11
103.979
 21
30.792
  0
LINE
  8
0
 10
103.979
 20
30.792
 11
103.981
 21
30.8096
  0
LINE
  8
0
 10
103.981
 20
30.8096
 11
103.984
 21
30.8262
  0
LINE
  8
0
 10
103.984
 20
30.8262
 11
103.987
 21
30.8438
  0
LINE
  8
0
 10
103.987
 20
30.8438
 11
103.99
 21
30.8604
  0
LINE
  8
0
 10
103.99
 20
30.8604
 11
103.998
 21
30.9307
  0
LINE
  8
0
 10
103.998
 20
30.9307
 11
103.999
 21
30.9473
  0
LINE
  8
0
 10
103.999
 20
30.9473
 11
103.999
 21
30.9648
  0
LINE
  8
0
 10
103.999
 20
30.9648
 11
104
 21
30.9824
  0
LINE
  8
0
 10
104
 20
30.9824
 11
104
 21
39.0176
  0
LINE
  8
0
 10
104
 20
39.0176
 11
103.999
 21
39.0352
  0
LINE
  8
0
 10
103.999
 20
39.0352
 11
103.999
 21
39.0527
  0
LINE
  8
0
 10
103.999
 20
39.0527
 11
103.998
 21
39.0693
  0
LINE
  8
0
 10
103.998
 20
39.0693
 11
103.99
 21
39.1396
  0
LINE
  8
0
 10
103.99
 20
39.1396
 11
103.987
 21
39.1562
  0
LINE
  8
0
 10
103.987
 20
39.1562
 11
103.984
 21
39.1738
  0
LINE
  8
0
 10
103.984
 20
39.1738
 11
103.981
 21
39.1904
  0
LINE
  8
0
 10
103.981
 20
39.1904
 11
103.979
 21
39.208
  0
LINE
  8
0
 10
103.979
 20
39.208
 11
103.975
 21
39.2246
  0
LINE
  8
0
 10
103.975
 20
39.2246
 11
103.971
 21
39.2422
  0
LINE
  8
0
 10
103.971
 20
39.2422
 11
103.951
 21
39.3086
  0
LINE
  8
0
 10
103.951
 20
39.3086
 11
103.934
 21
39.3584
  0
LINE
  8
0
 10
103.934
 20
39.3584
 11
103.927
 21
39.375
  0
LINE
  8
0
 10
103.927
 20
39.375
 11
103.921
 21
39.3906
  0
LINE
  8
0
 10
103.921
 20
39.3906
 11
103.913
 21
39.4062
  0
LINE
  8
0
 10
103.913
 20
39.4062
 11
103.906
 21
39.4229
  0
LINE
  8
0
 10
103.906
 20
39.4229
 11
103.883
 21
39.4697
  0
LINE
  8
0
 10
103.883
 20
39.4697
 11
103.875
 21
39.4844
  0
LINE
  8
0
 10
103.875
 20
39.4844
 11
103.866
 21
39.5
  0
LINE
  8
0
 10
103.866
 20
39.5
 11
103.857
 21
39.5146
  0
LINE
  8
0
 10
103.857
 20
39.5146
 11
103.848
 21
39.5303
  0
LINE
  8
0
 10
103.848
 20
39.5303
 11
103.839
 21
39.5449
  0
LINE
  8
0
 10
103.839
 20
39.5449
 11
103.829
 21
39.5596
  0
LINE
  8
0
 10
103.829
 20
39.5596
 11
103.819
 21
39.5732
  0
LINE
  8
0
 10
103.819
 20
39.5732
 11
103.809
 21
39.5879
  0
LINE
  8
0
 10
103.809
 20
39.5879
 11
103.799
 21
39.6016
  0
LINE
  8
0
 10
103.799
 20
39.6016
 11
103.777
 21
39.6289
  0
LINE
  8
0
 10
103.777
 20
39.6289
 11
103.766
 21
39.6426
  0
LINE
  8
0
 10
103.766
 20
39.6426
 11
103.755
 21
39.6562
  0
LINE
  8
0
 10
103.755
 20
39.6562
 11
103.72
 21
39.6943
  0
LINE
  8
0
 10
103.72
 20
39.6943
 11
103.694
 21
39.7197
  0
LINE
  8
0
 10
103.694
 20
39.7197
 11
103.656
 21
39.7549
  0
LINE
  8
0
 10
103.656
 20
39.7549
 11
103.643
 21
39.7656
  0
LINE
  8
0
 10
103.643
 20
39.7656
 11
103.629
 21
39.7773
  0
LINE
  8
0
 10
103.629
 20
39.7773
 11
103.602
 21
39.7988
  0
LINE
  8
0
 10
103.602
 20
39.7988
 11
103.588
 21
39.8086
  0
LINE
  8
0
 10
103.588
 20
39.8086
 11
103.573
 21
39.8193
  0
LINE
  8
0
 10
103.573
 20
39.8193
 11
103.56
 21
39.8291
  0
LINE
  8
0
 10
103.56
 20
39.8291
 11
103.545
 21
39.8389
  0
LINE
  8
0
 10
103.545
 20
39.8389
 11
103.53
 21
39.8477
  0
LINE
  8
0
 10
103.53
 20
39.8477
 11
103.515
 21
39.8574
  0
LINE
  8
0
 10
103.515
 20
39.8574
 11
103.5
 21
39.8662
  0
LINE
  8
0
 10
103.5
 20
39.8662
 11
103.484
 21
39.875
  0
LINE
  8
0
 10
103.484
 20
39.875
 11
103.47
 21
39.8828
  0
LINE
  8
0
 10
103.47
 20
39.8828
 11
103.423
 21
39.9062
  0
LINE
  8
0
 10
103.423
 20
39.9062
 11
103.406
 21
39.9131
  0
LINE
  8
0
 10
103.406
 20
39.9131
 11
103.391
 21
39.9209
  0
LINE
  8
0
 10
103.391
 20
39.9209
 11
103.375
 21
39.9268
  0
LINE
  8
0
 10
103.375
 20
39.9268
 11
103.358
 21
39.9336
  0
LINE
  8
0
 10
103.358
 20
39.9336
 11
103.309
 21
39.9512
  0
LINE
  8
0
 10
103.309
 20
39.9512
 11
103.242
 21
39.9707
  0
LINE
  8
0
 10
103.242
 20
39.9707
 11
103.225
 21
39.9746
  0
LINE
  8
0
 10
103.225
 20
39.9746
 11
103.208
 21
39.9785
  0
LINE
  8
0
 10
103.208
 20
39.9785
 11
103.19
 21
39.9814
  0
LINE
  8
0
 10
103.19
 20
39.9814
 11
103.174
 21
39.9844
  0
LINE
  8
0
 10
103.174
 20
39.9844
 11
103.156
 21
39.9873
  0
LINE
  8
0
 10
103.156
 20
39.9873
 11
103.14
 21
39.9902
  0
LINE
  8
0
 10
103.14
 20
39.9902
 11
103.069
 21
39.998
  0
LINE
  8
0
 10
103.069
 20
39.998
 11
103.053
 21
39.999
  0
LINE
  8
0
 10
103.053
 20
39.999
 11
103.035
 21
39.999
  0
LINE
  8
0
 10
103.035
 20
39.999
 11
103.018
 21
40
  0
LINE
  8
0
 10
103.018
 20
40
 11
100.95
 21
40
  0
LINE
  8
0
 10
100.95
 20
40
 11
100.95
 21
100
  0
LINE
  8
0
 10
100.95
 20
100
 11
103.018
 21
100
  0
LINE
  8
0
 10
103.018
 20
100
 11
103.035
 21
100.001
  0
LINE
  8
0
 10
103.035
 20
100.001
 11
103.053
 21
100.001
  0
LINE
  8
0
 10
103.053
 20
100.001
 11
103.069
 21
100.002
  0
LINE
  8
0
 10
103.069
 20
100.002
 11
103.14
 21
100.01
  0
LINE
  8
0
 10
103.14
 20
100.01
 11
103.156
 21
100.013
  0
LINE
  8
0
 10
103.156
 20
100.013
 11
103.174
 21
100.016
  0
LINE
  8
0
 10
103.174
 20
100.016
 11
103.19
 21
100.019
  0
LINE
  8
0
 10
103.19
 20
100.019
 11
103.208
 21
100.021
  0
LINE
  8
0
 10
103.208
 20
100.021
 11
103.225
 21
100.025
  0
LINE
  8
0
 10
103.225
 20
100.025
 11
103.242
 21
100.029
  0
LINE
  8
0
 10
103.242
 20
100.029
 11
103.309
 21
100.049
  0
LINE
  8
0
 10
103.309
 20
100.049
 11
103.358
 21
100.066
  0
LINE
  8
0
 10
103.358
 20
100.066
 11
103.375
 21
100.073
  0
LINE
  8
0
 10
103.375
 20
100.073
 11
103.391
 21
100.079
  0
LINE
  8
0
 10
103.391
 20
100.079
 11
103.406
 21
100.087
  0
LINE
  8
0
 10
103.406
 20
100.087
 11
103.423
 21
100.094
  0
LINE
  8
0
 10
103.423
 20
100.094
 11
103.47
 21
100.117
  0
LINE
  8
0
 10
103.47
 20
100.117
 11
103.484
 21
100.125
  0
LINE
  8
0
 10
103.484
 20
100.125
 11
103.5
 21
100.134
  0
LINE
  8
0
 10
103.5
 20
100.134
 11
103.515
 21
100.143
  0
LINE
  8
0
 10
103.515
 20
100.143
 11
103.53
 21
100.152
  0
LINE
  8
0
 10
103.53
 20
100.152
 11
103.545
 21
100.161
  0
LINE
  8
0
 10
103.545
 20
100.161
 11
103.56
 21
100.171
  0
LINE
  8
0
 10
103.56
 20
100.171
 11
103.573
 21
100.181
  0
LINE
  8
0
 10
103.573
 20
100.181
 11
103.588
 21
100.191
  0
LINE
  8
0
 10
103.588
 20
100.191
 11
103.602
 21
100.201
  0
LINE
  8
0
 10
103.602
 20
100.201
 11
103.629
 21
100.223
  0
LINE
  8
0
 10
103.629
 20
100.223
 11
103.643
 21
100.234
  0
LINE
  8
0
 10
103.643
 20
100.234
 11
103.656
 21
100.245
  0
LINE
  8
0
 10
103.656
 20
100.245
 11
103.694
 21
100.28
  0
LINE
  8
0
 10
103.694
 20
100.28
 11
103.72
 21
100.306
  0
LINE
  8
0
 10
103.72
 20
100.306
 11
103.755
 21
100.344
  0
LINE
  8
0
 10
103.755
 20
100.344
 11
103.766
 21
100.357
  0
LINE
  8
0
 10
103.766
 20
100.357
 11
103.777
 21
100.371
  0
LINE
  8
0
 10
103.777
 20
100.371
 11
103.799
 21
100.398
  0
LINE
  8
0
 10
103.799
 20
100.398
 11
103.809
 21
100.412
  0
LINE
  8
0
 10
103.809
 20
100.412
 11
103.819
 21
100.427
  0
LINE
  8
0
 10
103.819
 20
100.427
 11
103.829
 21
100.44
  0
LINE
  8
0
 10
103.829
 20
100.44
 11
103.839
 21
100.455
  0
LINE
  8
0
 10
103.839
 20
100.455
 11
103.848
 21
100.47
  0
LINE
  8
0
 10
103.848
 20
100.47
 11
103.857
 21
100.485
  0
LINE
  8
0
 10
103.857
 20
100.485
 11
103.866
 21
100.5
  0
LINE
  8
0
 10
103.866
 20
100.5
 11
103.875
 21
100.516
  0
LINE
  8
0
 10
103.875
 20
100.516
 11
103.883
 21
100.53
  0
LINE
  8
0
 10
103.883
 20
100.53
 11
103.906
 21
100.577
  0
LINE
  8
0
 10
103.906
 20
100.577
 11
103.913
 21
100.594
  0
LINE
  8
0
 10
103.913
 20
100.594
 11
103.921
 21
100.609
  0
LINE
  8
0
 10
103.921
 20
100.609
 11
103.927
 21
100.625
  0
LINE
  8
0
 10
103.927
 20
100.625
 11
103.934
 21
100.642
  0
LINE
  8
0
 10
103.934
 20
100.642
 11
103.951
 21
100.691
  0
LINE
  8
0
 10
103.951
 20
100.691
 11
103.971
 21
100.758
  0
LINE
  8
0
 10
103.971
 20
100.758
 11
103.975
 21
100.775
  0
LINE
  8
0
 10
103.975
 20
100.775
 11
103.979
 21
100.792
  0
LINE
  8
0
 10
103.979
 20
100.792
 11
103.981
 21
100.81
  0
LINE
  8
0
 10
103.981
 20
100.81
 11
103.984
 21
100.826
  0
LINE
  8
0
 10
103.984
 20
100.826
 11
103.987
 21
100.844
  0
LINE
  8
0
 10
103.987
 20
100.844
 11
103.99
 21
100.86
  0
LINE
  8
0
 10
103.99
 20
100.86
 11
103.998
 21
100.931
  0
LINE
  8
0
 10
103.998
 20
100.931
 11
103.999
 21
100.947
  0
LINE
  8
0
 10
103.999
 20
100.947
 11
103.999
 21
100.965
  0
LINE
  8
0
 10
103.999
 20
100.965
 11
104
 21
100.982
  0
LINE
  8
0
 10
104
 20
100.982
 11
104
 21
109.018
  0
LINE
  8
0
 10
104
 20
109.018
 11
103.999
 21
109.035
  0
LINE
  8
0
 10
103.999
 20
109.035
 11
103.999
 21
109.053
  0
LINE
  8
0
 10
103.999
 20
109.053
 11
103.998
 21
109.069
  0
LINE
  8
0
 10
103.998
 20
109.069
 11
103.99
 21
109.14
  0
LINE
  8
0
 10
103.99
 20
109.14
 11
103.987
 21
109.156
  0
LINE
  8
0
 10
103.987
 20
109.156
 11
103.984
 21
109.174
  0
LINE
  8
0
 10
103.984
 20
109.174
 11
103.981
 21
109.19
  0
LINE
  8
0
 10
103.981
 20
109.19
 11
103.979
 21
109.208
  0
LINE
  8
0
 10
103.979
 20
109.208
 11
103.975
 21
109.225
  0
LINE
  8
0
 10
103.975
 20
109.225
 11
103.971
 21
109.242
  0
LINE
  8
0
 10
103.971
 20
109.242
 11
103.951
 21
109.309
  0
LINE
  8
0
 10
103.951
 20
109.309
 11
103.934
 21
109.358
  0
LINE
  8
0
 10
103.934
 20
109.358
 11
103.927
 21
109.375
  0
LINE
  8
0
 10
103.927
 20
109.375
 11
103.921
 21
109.391
  0
LINE
  8
0
 10
103.921
 20
109.391
 11
103.913
 21
109.406
  0
LINE
  8
0
 10
103.913
 20
109.406
 11
103.906
 21
109.423
  0
LINE
  8
0
 10
103.906
 20
109.423
 11
103.883
 21
109.47
  0
LINE
  8
0
 10
103.883
 20
109.47
 11
103.875
 21
109.484
  0
LINE
  8
0
 10
103.875
 20
109.484
 11
103.866
 21
109.5
  0
LINE
  8
0
 10
103.866
 20
109.5
 11
103.857
 21
109.515
  0
LINE
  8
0
 10
103.857
 20
109.515
 11
103.848
 21
109.53
  0
LINE
  8
0
 10
103.848
 20
109.53
 11
103.839
 21
109.545
  0
LINE
  8
0
 10
103.839
 20
109.545
 11
103.829
 21
109.56
  0
LINE
  8
0
 10
103.829
 20
109.56
 11
103.819
 21
109.573
  0
LINE
  8
0
 10
103.819
 20
109.573
 11
103.809
 21
109.588
  0
LINE
  8
0
 10
103.809
 20
109.588
 11
103.799
 21
109.602
  0
LINE
  8
0
 10
103.799
 20
109.602
 11
103.777
 21
109.629
  0
LINE
  8
0
 10
103.777
 20
109.629
 11
103.766
 21
109.643
  0
LINE
  8
0
 10
103.766
 20
109.643
 11
103.755
 21
109.656
  0
LINE
  8
0
 10
103.755
 20
109.656
 11
103.72
 21
109.694
  0
LINE
  8
0
 10
103.72
 20
109.694
 11
103.694
 21
109.72
  0
LINE
  8
0
 10
103.694
 20
109.72
 11
103.656
 21
109.755
  0
LINE
  8
0
 10
103.656
 20
109.755
 11
103.643
 21
109.766
  0
LINE
  8
0
 10
103.643
 20
109.766
 11
103.629
 21
109.777
  0
LINE
  8
0
 10
103.629
 20
109.777
 11
103.602
 21
109.799
  0
LINE
  8
0
 10
103.602
 20
109.799
 11
103.588
 21
109.809
  0
LINE
  8
0
 10
103.588
 20
109.809
 11
103.573
 21
109.819
  0
LINE
  8
0
 10
103.573
 20
109.819
 11
103.56
 21
109.829
  0
LINE
  8
0
 10
103.56
 20
109.829
 11
103.545
 21
109.839
  0
LINE
  8
0
 10
103.545
 20
109.839
 11
103.53
 21
109.848
  0
LINE
  8
0
 10
103.53
 20
109.848
 11
103.515
 21
109.857
  0
LINE
  8
0
 10
103.515
 20
109.857
 11
103.5
 21
109.866
  0
LINE
  8
0
 10
103.5
 20
109.866
 11
103.484
 21
109.875
  0
LINE
  8
0
 10
103.484
 20
109.875
 11
103.47
 21
109.883
  0
LINE
  8
0
 10
103.47
 20
109.883
 11
103.423
 21
109.906
  0
LINE
  8
0
 10
103.423
 20
109.906
 11
103.406
 21
109.913
  0
LINE
  8
0
 10
103.406
 20
109.913
 11
103.391
 21
109.921
  0
LINE
  8
0
 10
103.391
 20
109.921
 11
103.375
 21
109.927
  0
LINE
  8
0
 10
103.375
 20
109.927
 11
103.358
 21
109.934
  0
LINE
  8
0
 10
103.358
 20
109.934
 11
103.309
 21
109.951
  0
LINE
  8
0
 10
103.309
 20
109.951
 11
103.242
 21
109.971
  0
LINE
  8
0
 10
103.242
 20
109.971
 11
103.225
 21
109.975
  0
LINE
  8
0
 10
103.225
 20
109.975
 11
103.208
 21
109.979
  0
LINE
  8
0
 10
103.208
 20
109.979
 11
103.19
 21
109.981
  0
LINE
  8
0
 10
103.19
 20
109.981
 11
103.174
 21
109.984
  0
LINE
  8
0
 10
103.174
 20
109.984
 11
103.156
 21
109.987
  0
LINE
  8
0
 10
103.156
 20
109.987
 11
103.14
 21
109.99
  0
LINE
  8
0
 10
103.14
 20
109.99
 11
103.069
 21
109.998
  0
LINE
  8
0
 10
103.069
 20
109.998
 11
103.053
 21
109.999
  0
LINE
  8
0
 10
103.053
 20
109.999
 11
103.035
 21
109.999
  0
LINE
  8
0
 10
103.035
 20
109.999
 11
103.018
 21
110
  0
LINE
  8
0
 10
103.018
 20
110
 11
-2.01758
 21
110
  0
LINE
  8
0
 10
-2.01758
 20
110
 11
-2.03516
 21
109.999
  0
LINE
  8
0
 10
-2.03516
 20
109.999
 11
-2.05273
 21
109.999
  0
LINE
  8
0
 10
-2.05273
 20
109.999
 11
-2.06934
 21
109.998
  0
LINE
  8
0
 10
-2.06934
 20
109.998
 11
-2.13965
 21
109.99
  0
LINE
  8
0
 10
-2.13965
 20
109.99
 11
-2.15625
 21
109.987
  0
LINE
  8
0
 10
-2.15625
 20
109.987
 11
-2.17383
 21
109.984
  0
LINE
  8
0
 10
-2.17383
 20
109.984
 11
-2.19043
 21
109.981
  0
LINE
  8
0
 10
-2.19043
 20
109.981
 11
-2.20801
 21
109.979
  0
LINE
  8
0
 10
-2.20801
 20
109.979
 11
-2.22461
 21
109.975
  0
LINE
  8
0
 10
-2.22461
 20
109.975
 11
-2.24219
 21
109.971
  0
LINE
  8
0
 10
-2.24219
 20
109.971
 11
-2.30859
 21
109.951
  0
LINE
  8
0
 10
-2.30859
 20
109.951
 11
-2.3584
 21
109.934
  0
LINE
  8
0
 10
-2.3584
 20
109.934
 11
-2.375
 21
109.927
  0
LINE
  8
0
 10
-2.375
 20
109.927
 11
-2.39062
 21
109.921
  0
LINE
  8
0
 10
-2.39062
 20
109.921
 11
-2.40625
 21
109.913
  0
LINE
  8
0
 10
-2.40625
 20
109.913
 11
-2.42285
 21
109.906
  0
LINE
  8
0
 10
-2.42285
 20
109.906
 11
-2.46973
 21
109.883
  0
LINE
  8
0
 10
-2.46973
 20
109.883
 11
-2.48438
 21
109.875
  0
LINE
  8
0
 10
-2.48438
 20
109.875
 11
-2.5
 21
109.866
  0
LINE
  8
0
 10
-2.5
 20
109.866
 11
-2.51465
 21
109.857
  0
LINE
  8
0
 10
-2.51465
 20
109.857
 11
-2.53027
 21
109.848
  0
LINE
  8
0
 10
-2.53027
 20
109.848
 11
-2.54492
 21
109.839
  0
LINE
  8
0
 10
-2.54492
 20
109.839
 11
-2.55957
 21
109.829
  0
LINE
  8
0
 10
-2.55957
 20
109.829
 11
-2.57324
 21
109.819
  0
LINE
  8
0
 10
-2.57324
 20
109.819
 11
-2.58789
 21
109.809
  0
LINE
  8
0
 10
-2.58789
 20
109.809
 11
-2.60156
 21
109.799
  0
LINE
  8
0
 10
-2.60156
 20
109.799
 11
-2.62891
 21
109.777
  0
LINE
  8
0
 10
-2.62891
 20
109.777
 11
-2.64258
 21
109.766
  0
LINE
  8
0
 10
-2.64258
 20
109.766
 11
-2.65625
 21
109.755
  0
LINE
  8
0
 10
-2.65625
 20
109.755
 11
-2.69434
 21
109.72
  0
LINE
  8
0
 10
-2.69434
 20
109.72
 11
-2.71973
 21
109.694
  0
LINE
  8
0
 10
-2.71973
 20
109.694
 11
-2.75488
 21
109.656
  0
LINE
  8
0
 10
-2.75488
 20
109.656
 11
-2.76562
 21
109.643
  0
LINE
  8
0
 10
-2.76562
 20
109.643
 11
-2.77734
 21
109.629
  0
LINE
  8
0
 10
-2.77734
 20
109.629
 11
-2.79883
 21
109.602
  0
LINE
  8
0
 10
-2.79883
 20
109.602
 11
-2.80859
 21
109.588
  0
LINE
  8
0
 10
-2.80859
 20
109.588
 11
-2.81934
 21
109.573
  0
LINE
  8
0
 10
-2.81934
 20
109.573
 11
-2.8291
 21
109.56
  0
LINE
  8
0
 10
-2.8291
 20
109.56
 11
-2.83887
 21
109.545
  0
LINE
  8
0
 10
-2.83887
 20
109.545
 11
-2.84766
 21
109.53
  0
LINE
  8
0
 10
-2.84766
 20
109.53
 11
-2.85742
 21
109.515
  0
LINE
  8
0
 10
-2.85742
 20
109.515
 11
-2.86621
 21
109.5
  0
LINE
  8
0
 10
-2.86621
 20
109.5
 11
-2.875
 21
109.484
  0
LINE
  8
0
 10
-2.875
 20
109.484
 11
-2.88281
 21
109.47
  0
LINE
  8
0
 10
-2.88281
 20
109.47
 11
-2.90625
 21
109.423
  0
LINE
  8
0
 10
-2.90625
 20
109.423
 11
-2.91309
 21
109.406
  0
LINE
  8
0
 10
-2.91309
 20
109.406
 11
-2.9209
 21
109.391
  0
LINE
  8
0
 10
-2.9209
 20
109.391
 11
-2.92676
 21
109.375
  0
LINE
  8
0
 10
-2.92676
 20
109.375
 11
-2.93359
 21
109.358
  0
LINE
  8
0
 10
-2.93359
 20
109.358
 11
-2.95117
 21
109.309
  0
LINE
  8
0
 10
-2.95117
 20
109.309
 11
-2.9707
 21
109.242
  0
LINE
  8
0
 10
-2.9707
 20
109.242
 11
-2.97461
 21
109.225
  0
LINE
  8
0
 10
-2.97461
 20
109.225
 11
-2.97852
 21
109.208
  0
LINE
  8
0
 10
-2.97852
 20
109.208
 11
-2.98145
 21
109.19
  0
LINE
  8
0
 10
-2.98145
 20
109.19
 11
-2.98438
 21
109.174
  0
LINE
  8
0
 10
-2.98438
 20
109.174
 11
-2.9873
 21
109.156
  0
LINE
  8
0
 10
-2.9873
 20
109.156
 11
-2.99023
 21
109.14
  0
LINE
  8
0
 10
-2.99023
 20
109.14
 11
-2.99805
 21
109.069
  0
LINE
  8
0
 10
-2.99805
 20
109.069
 11
-2.99902
 21
109.053
  0
LINE
  8
0
 10
-2.99902
 20
109.053
 11
-2.99902
 21
109.035
  0
LINE
  8
0
 10
-2.99902
 20
109.035
 11
-3
 21
109.018
  0
LINE
  8
0
 10
-3
 20
109.018
 11
-3
 21
100.982
  0
LINE
  8
0
 10
-3
 20
100.982
 11
-2.99902
 21
100.965
  0
LINE
  8
0
 10
-2.99902
 20
100.965
 11
-2.99902
 21
100.947
  0
LINE
  8
0
 10
-2.99902
 20
100.947
 11
-2.99805
 21
100.931
  0
LINE
  8
0
 10
-2.99805
 20
100.931
 11
-2.99023
 21
100.86
  0
LINE
  8
0
 10
-2.99023
 20
100.86
 11
-2.9873
 21
100.844
  0
LINE
  8
0
 10
-2.9873
 20
100.844
 11
-2.98438
 21
100.826
  0
LINE
  8
0
 10
-2.98438
 20
100.826
 11
-2.98145
 21
100.81
  0
LINE
  8
0
 10
-2.98145
 20
100.81
 11
-2.97852
 21
100.792
  0
LINE
  8
0
 10
-2.97852
 20
100.792
 11
-2.97461
 21
100.775
  0
LINE
  8
0
 10
-2.97461
 20
100.775
 11
-2.9707
 21
100.758
  0
LINE
  8
0
 10
-2.9707
 20
100.758
 11
-2.95117
 21
100.691
  0
LINE
  8
0
 10
-2.95117
 20
100.691
 11
-2.93359
 21
100.642
  0
LINE
  8
0
 10
-2.93359
 20
100.642
 11
-2.92676
 21
100.625
  0
LINE
  8
0
 10
-2.92676
 20
100.625
 11
-2.9209
 21
100.609
  0
LINE
  8
0
 10
-2.9209
 20
100.609
 11
-2.91309
 21
100.594
  0
LINE
  8
0
 10
-2.91309
 20
100.594
 11
-2.90625
 21
100.577
  0
LINE
  8
0
 10
-2.90625
 20
100.577
 11
-2.88281
 21
100.53
  0
LINE
  8
0
 10
-2.88281
 20
100.53
 11
-2.875
 21
100.516
  0
LINE
  8
0
 10
-2.875
 20
100.516
 11
-2.86621
 21
100.5
  0
LINE
  8
0
 10
-2.86621
 20
100.5
 11
-2.85742
 21
100.485
  0
LINE
  8
0
 10
-2.85742
 20
100.485
 11
-2.84766
 21
100.47
  0
LINE
  8
0
 10
-2.84766
 20
100.47
 11
-2.83887
 21
100.455
  0
LINE
  8
0
 10
-2.83887
 20
100.455
 11
-2.8291
 21
100.44
  0
LINE
  8
0
 10
-2.8291
 20
100.44
 11
-2.81934
 21
100.427
  0
LINE
  8
0
 10
-2.81934
 20
100.427
 11
-2.80859
 21
100.412
  0
LINE
  8
0
 10
-2.80859
 20
100.412
 11
-2.79883
 21
100.398
  0
LINE
  8
0
 10
-2.79883
 20
100.398
 11
-2.77734
 21
100.371
  0
LINE
  8
0
 10
-2.77734
 20
100.371
 11
-2.76562
 21
100.357
  0
LINE
  8
0
 10
-2.76562
 20
100.357
 11
-2.75488
 21
100.344
  0
LINE
  8
0
 10
-2.75488
 20
100.344
 11
-2.71973
 21
100.306
  0
LINE
  8
0
 10
-2.71973
 20
100.306
 11
-2.69434
 21
100.28
  0
LINE
  8
0
 10
-2.69434
 20
100.28
 11
-2.65625
 21
100.245
  0
LINE
  8
0
 10
-2.65625
 20
100.245
 11
-2.64258
 21
100.234
  0
LINE
  8
0
 10
-2.64258
 20
100.234
 11
-2.62891
 21
100.223
  0
LINE
  8
0
 10
-2.62891
 20
100.223
 11
-2.60156
 21
100.201
  0
LINE
  8
0
 10
-2.60156
 20
100.201
 11
-2.58789
 21
100.191
  0
LINE
  8
0
 10
-2.58789
 20
100.191
 11
-2.57324
 21
100.181
  0
LINE
  8
0
 10
-2.57324
 20
100.181
 11
-2.55957
 21
100.171
  0
LINE
  8
0
 10
-2.55957
 20
100.171
 11
-2.54492
 21
100.161
  0
LINE
  8
0
 10
-2.54492
 20
100.161
 11
-2.53027
 21
100.152
  0
LINE
  8
0
 10
-2.53027
 20
100.152
 11
-2.51465
 21
100.143
  0
LINE
  8
0
 10
-2.51465
 20
100.143
 11
-2.5
 21
100.134
  0
LINE
  8
0
 10
-2.5
 20
100.134
 11
-2.48438
 21
100.125
  0
LINE
  8
0
 10
-2.48438
 20
100.125
 11
-2.46973
 21
100.117
  0
LINE
  8
0
 10
-2.46973
 20
100.117
 11
-2.42285
 21
100.094
  0
LINE
  8
0
 10
-2.42285
 20
100.094
 11
-2.40625
 21
100.087
  0
LINE
  8
0
 10
-2.40625
 20
100.087
 11
-2.39062
 21
100.079
  0
LINE
  8
0
 10
-2.39062
 20
100.079
 11
-2.375
 21
100.073
  0
LINE
  8
0
 10
-2.375
 20
100.073
 11
-2.3584
 21
100.066
  0
LINE
  8
0
 10
-2.3584
 20
100.066
 11
-2.30859
 21
100.049
  0
LINE
  8
0
 10
-2.30859
 20
100.049
 11
-2.24219
 21
100.029
  0
LINE
  8
0
 10
-2.24219
 20
100.029
 11
-2.22461
 21
100.025
  0
LINE
  8
0
 10
-2.22461
 20
100.025
 11
-2.20801
 21
100.021
  0
LINE
  8
0
 10
-2.20801
 20
100.021
 11
-2.19043
 21
100.019
  0
LINE
  8
0
 10
-2.19043
 20
100.019
 11
-2.17383
 21
100.016
  0
LINE
  8
0
 10
-2.17383
 20
100.016
 11
-2.15625
 21
100.013
  0
LINE
  8
0
 10
-2.15625
 20
100.013
 11
-2.13965
 21
100.01
  0
LINE
  8
0
 10
-2.13965
 20
100.01
 11
-2.06934
 21
100.002
  0
LINE
  8
0
 10
-2.06934
 20
100.002
 11
-2.05273
 21
100.001
  0
LINE
  8
0
 10
-2.05273
 20
100.001
 11
-2.03516
 21
100.001
  0
LINE
  8
0
 10
-2.03516
 20
100.001
 11
-2.01758
 21
100
  0
LINE
  8
0
 10
-2.01758
 20
100
 11
0
 21
100
  0
LINE
  8
0
 10
0
 20
100
 11
0
 21
40
  0
LINE
  8
0
 10
0
 20
40
 11
-2.01758
 21
40
  0
LINE
  8
0
 10
-2.01758
 20
40
 11
-2.03516
 21
39.999
  0
LINE
  8
0
 10
-2.03516
 20
39.999
 11
-2.05273
 21
39.999
  0
LINE
  8
0
 10
-2.05273
 20
39.999
 11
-2.06934
 21
39.998
  0
LINE
  8
0
 10
-2.06934
 20
39.998
 11
-2.13965
 21
39.9902
  0
LINE
  8
0
 10
-2.13965
 20
39.9902
 11
-2.15625
 21
39.9873
  0
LINE
  8
0
 10
-2.15625
 20
39.9873
 11
-2.17383
 21
39.9844
  0
LINE
  8
0
 10
-2.17383
 20
39.9844
 11
-2.19043
 21
39.9814
  0
LINE
  8
0
 10
-2.19043
 20
39.9814
 11
-2.20801
 21
39.9785
  0
LINE
  8
0
 10
-2.20801
 20
39.9785
 11
-2.22461
 21
39.9746
  0
LINE
  8
0
 10
-2.22461
 20
39.9746
 11
-2.24219
 21
39.9707
  0
LINE
  8
0
 10
-2.24219
 20
39.9707
 11
-2.30859
 21
39.9512
  0
LINE
  8
0
 10
-2.30859
 20
39.9512
 11
-2.3584
 21
39.9336
  0
LINE
  8
0
 10
-2.3584
 20
39.9336
 11
-2.375
 21
39.9268
  0
LINE
  8
0
 10
-2.375
 20
39.9268
 11
-2.39062
 21
39.9209
  0
LINE
  8
0
 10
-2.39062
 20
39.9209
 11
-2.40625
 21
39.9131
  0
LINE
  8
0
 10
-2.40625
 20
39.9131
 11
-2.42285
 21
39.9062
  0
LINE
  8
0
 10
-2.42285
 20
39.9062
 11
-2.46973
 21
39.8828
  0
LINE
  8
0
 10
-2.46973
 20
39.8828
 11
-2.48438
 21
39.875
  0
LINE
  8
0
 10
-2.48438
 20
39.875
 11
-2.5
 21
39.8662
  0
LINE
  8
0
 10
-2.5
 20
39.8662
 11
-2.51465
 21
39.8574
  0
LINE
  8
0
 10
-2.51465
 20
39.8574
 11
-2.53027
 21
39.8477
  0
LINE
  8
0
 10
-2.53027
 20
39.8477
 11
-2.54492
 21
39.8389
  0
LINE
  8
0
 10
-2.54492
 20
39.8389
 11
-2.55957
 21
39.8291
  0
LINE
  8
0
 10
-2.55957
 20
39.8291
 11
-2.57324
 21
39.8193
  0
LINE
  8
0
 10
-2.57324
 20
39.8193
 11
-2.58789
 21
39.8086
  0
LINE
  8
0
 10
-2.58789
 20
39.8086
 11
-2.60156
 21
39.7988
  0
LINE
  8
0
 10
-2.60156
 20
39.7988
 11
-2.62891
 21
39.7773
  0
LINE
  8
0
 10
-2.62891
 20
39.7773
 11
-2.64258
 21
39.7656
  0
LINE
  8
0
 10
-2.64258
 20
39.7656
 11
-2.65625
 21
39.7549
  0
LINE
  8
0
 10
-2.65625
 20
39.7549
 11
-2.69434
 21
39.7197
  0
LINE
  8
0
 10
-2.69434
 20
39.7197
 11
-2.71973
 21
39.6943
  0
LINE
  8
0
 10
-2.71973
 20
39.6943
 11
-2.75488
 21
39.6562
  0
LINE
  8
0
 10
-2.75488
 20
39.6562
 11
-2.76562
 21
39.6426
  0
LINE
  8
0
 10
-2.76562
 20
39.6426
 11
-2.77734
 21
39.6289
  0
LINE
  8
0
 10
-2.77734
 20
39.6289
 11
-2.79883
 21
39.6016
  0
LINE
  8
0
 10
-2.79883
 20
39.6016
 11
-2.80859
 21
39.5879
  0
LINE
  8
0
 10
-2.80859
 20
39.5879
 11
-2.81934
 21
39.5732
  0
LINE
  8
0
 10
-2.81934
 20
39.5732
 11
-2.8291
 21
39.5596
  0
LINE
  8
0
 10
-2.8291
 20
39.5596
 11
-2.83887
 21
39.5449
  0
LINE
  8
0
 10
-2.83887
 20
39.5449
 11
-2.84766
 21
39.5303
  0
LINE
  8
0
 10
-2.84766
 20
39.5303
 11
-2.85742
 21
39.5146
  0
LINE
  8
0
 10
-2.85742
 20
39.5146
 11
-2.86621
 21
39.5
  0
LINE
  8
0
 10
-2.86621
 20
39.5
 11
-2.875
 21
39.4844
  0
LINE
  8
0
 10
-2.875
 20
39.4844
 11
-2.88281
 21
39.4697
  0
LINE
  8
0
 10
-2.88281
 20
39.4697
 11
-2.90625
 21
39.4229
  0
LINE
  8
0
 10
-2.90625
 20
39.4229
 11
-2.91309
 21
39.4062
  0
LINE
  8
0
 10
-2.91309
 20
39.4062
 11
-2.9209
 21
39.3906
  0
LINE
  8
0
 10
-2.9209
 20
39.3906
 11
-2.92676
 21
39.375
  0
LINE
  8
0
 10
-2.92676
 20
39.375
 11
-2.93359
 21
39.3584
  0
LINE
  8
0
 10
-2.93359
 20
39.3584
 11
-2.95117
 21
39.3086
  0
LINE
  8
0
 10
-2.95117
 20
39.3086
 11
-2.9707
 21
39.2422
  0
LINE
  8
0
 10
-2.9707
 20
39.2422
 11
-2.97461
 21
39.2246
  0
LINE
  8
0
 10
-2.97461
 20
39.2246
 11
-2.97852
 21
39.208
  0
LINE
  8
0
 10
-2.97852
 20
39.208
 11
-2.98145
 21
39.1904
  0
LINE
  8
0
 10
-2.98145
 20
39.1904
 11
-2.98438
 21
39.1738
  0
LINE
  8
0
 10
-2.98438
 20
39.1738
 11
-2.9873
 21
39.1562
  0
LINE
  8
0
 10
-2.9873
 20
39.1562
 11
-2.99023
 21
39.1396
  0
LINE
  8
0
 10
-2.99023
 20
39.1396
 11
-2.99805
 21
39.0693
  0
LINE
  8
0
 10
-2.99805
 20
39.0693
 11
-2.99902
 21
39.0527
  0
LINE
  8
0
 10
-2.99902
 20
39.0527
 11
-2.99902
 21
39.0352
  0
LINE
  8
0
 10
-2.99902
 20
39.0352
 11
-3
 21
39.0176
  0
LINE
  8
0
 10
-3
 20
39.0176
 11
-3
 21
30.9824
  0
LINE
  8
0
 10
-3
 20
30.9824
 11
-2.99902
 21
30.9648
  0
LINE
  8
0
 10
-2.99902
 20
30.9648
 11
-2.99902
 21
30.9473
  0
LINE
  8
0
 10
-2.99902
 20
30.9473
 11
-2.99805
 21
30.9307
  0
LINE
  8
0
 10
-2.99805
 20
30.9307
 11
-2.99023
 21
30.8604
  0
LINE
  8
0
 10
-2.99023
 20
30.8604
 11
-2.9873
 21
30.8438
  0
LINE
  8
0
 10
-2.9873
 20
30.8438
 11
-2.98438
 21
30.8262
  0
LINE
  8
0
 10
-2.98438
 20
30.8262
 11
-2.98145
 21
30.8096
  0
LINE
  8
0
 10
-2.98145
 20
30.8096
 11
-2.97852
 21
30.792
  0
LINE
  8
0
 10
-2.97852
 20
30.792
 11
-2.97461
 21
30.7754
  0
LINE
  8
0
 10
-2.97461
 20
30.7754
 11
-2.9707
 21
30.7578
  0
LINE
  8
0
 10
-2.9707
 20
30.7578
 11
-2.95117
 21
30.6914
  0
LINE
  8
0
 10
-2.95117
 20
30.6914
 11
-2.93359
 21
30.6416
  0
LINE
  8
0
 10
-2.93359
 20
30.6416
 11
-2.92676
 21
30.625
  0
LINE
  8
0
 10
-2.92676
 20
30.625
 11
-2.9209
 21
30.6094
  0
LINE
  8
0
 10
-2.9209
 20
30.6094
 11
-2.91309
 21
30.5938
  0
LINE
  8
0
 10
-2.91309
 20
30.5938
 11
-2.90625
 21
30.5771
  0
LINE
  8
0
 10
-2.90625
 20
30.5771
 11
-2.88281
 21
30.5303
  0
LINE
  8
0
 10
-2.88281
 20
30.5303
 11
-2.875
 21
30.5156
  0
LINE
  8
0
 10
-2.875
 20
30.5156
 11
-2.86621
 21
30.5
  0
LINE
  8
0
 10
-2.86621
 20
30.5
 11
-2.85742
 21
30.4854
  0
LINE
  8
0
 10
-2.85742
 20
30.4854
 11
-2.84766
 21
30.4697
  0
LINE
  8
0
 10
-2.84766
 20
30.4697
 11
-2.83887
 21
30.4551
  0
LINE
  8
0
 10
-2.83887
 20
30.4551
 11
-2.8291
 21
30.4404
  0
LINE
  8
0
 10
-2.8291
 20
30.4404
 11
-2.81934
 21
30.4268
  0
LINE
  8
0
 10
-2.81934
 20
30.4268
 11
-2.80859
 21
30.4121
  0
LINE
  8
0
 10
-2.80859
 20
30.4121
 11
-2.79883
 21
30.3984
  0
LINE
  8
0
 10
-2.79883
 20
30.3984
 11
-2.77734
 21
30.3711
  0
LINE
  8
0
 10
-2.77734
 20
30.3711
 11
-2.76562
 21
30.3574
  0
LINE
  8
0
 10
-2.76562
 20
30.3574
 11
-2.75488
 21
30.3438
  0
LINE
  8
0
 10
-2.75488
 20
30.3438
 11
-2.71973
 21
30.3057
  0
LINE
  8
0
 10
-2.71973
 20
30.3057
 11
-2.69434
 21
30.2803
  0
LINE
  8
0
 10
-2.69434
 20
30.2803
 11
-2.65625
 21
30.2451
  0
LINE
  8
0
 10
-2.65625
 20
30.2451
 11
-2.64258
 21
30.2344
  0
LINE
  8
0
 10
-2.64258
 20
30.2344
 11
-2.62891
 21
30.2227
  0
LINE
  8
0
 10
-2.62891
 20
30.2227
 11
-2.60156
 21
30.2012
  0
LINE
  8
0
 10
-2.60156
 20
30.2012
 11
-2.58789
 21
30.1914
  0
LINE
  8
0
 10
-2.58789
 20
30.1914
 11
-2.57324
 21
30.1807
  0
LINE
  8
0
 10
-2.57324
 20
30.1807
 11
-2.55957
 21
30.1709
  0
LINE
  8
0
 10
-2.55957
 20
30.1709
 11
-2.54492
 21
30.1611
  0
LINE
  8
0
 10
-2.54492
 20
30.1611
 11
-2.53027
 21
30.1523
  0
LINE
  8
0
 10
-2.53027
 20
30.1523
 11
-2.51465
 21
30.1426
  0
LINE
  8
0
 10
-2.51465
 20
30.1426
 11
-2.5
 21
30.1338
  0
LINE
  8
0
 10
-2.5
 20
30.1338
 11
-2.48438
 21
30.125
  0
LINE
  8
0
 10
-2.48438
 20
30.125
 11
-2.46973
 21
30.1172
  0
LINE
  8
0
 10
-2.46973
 20
30.1172
 11
-2.42285
 21
30.0938
  0
LINE
  8
0
 10
-2.42285
 20
30.0938
 11
-2.40625
 21
30.0869
  0
LINE
  8
0
 10
-2.40625
 20
30.0869
 11
-2.39062
 21
30.0791
  0
LINE
  8
0
 10
-2.39062
 20
30.0791
 11
-2.375
 21
30.0732
  0
LINE
  8
0
 10
-2.375
 20
30.0732
 11
-2.3584
 21
30.0664
  0
LINE
  8
0
 10
-2.3584
 20
30.0664
 11
-2.30859
 21
30.0488
  0
LINE
  8
0
 10
-2.30859
 20
30.0488
 11
-2.24219
 21
30.0293
  0
LINE
  8
0
 10
-2.24219
 20
30.0293
 11
-2.22461
 21
30.0254
  0
LINE
  8
0
 10
-2.22461
 20
30.0254
 11
-2.20801
 21
30.0215
  0
LINE
  8
0
 10
-2.20801
 20
30.0215
 11
-2.19043
 21
30.0186
  0
LINE
  8
0
 10
-2.19043
 20
30.0186
 11
-2.17383
 21
30.0156
  0
LINE
  8
0
 10
-2.17383
 20
30.0156
 11
-2.15625
 21
30.0127
  0
LINE
  8
0
 10
-2.15625
 20
30.0127
 11
-2.13965
 21
30.0098
  0
LINE
  8
0
 10
-2.13965
 20
30.0098
 11
-2.06934
 21
30.002
  0
LINE
  8
0
 10
-2.06934
 20
30.002
 11
-2.05273
 21
30.001
  0
LINE
  8
0
 10
-2.05273
 20
30.001
 11
-2.03516
 21
30.001
  0
LINE
  8
0
 10
-2.03516
 20
30.001
 11
-2.01758
 21
30
  0
LINE
  8
0
 10
-2.01758
 20
30
 11
0
 21
30
  0
LINE
  8
0
 10
0
 20
30
 11
0
 21
0
  0
LINE
  8
0
 10
0
 20
0
 11
100.95
 21
0
  0
LINE
  8
0
 10
100.95
 20
0
 11
100.95
 21
30
  0
LINE
  8
0
 10
92.4717
 20
79.4004
 11
92.416
 21
79.4023
  0
LINE
  8
0
 10
92.416
 20
79.4023
 11
92.3887
 21
79.4043
  0
LINE
  8
0
 10
92.3887
 20
79.4043
 11
92.3604
 21
79.4062
  0
LINE
  8
0
 10
92.3604
 20
79.4062
 11
92.333
 21
79.4092
  0
LINE
  8
0
 10
92.333
 20
79.4092
 11
92.3047
 21
79.4121
  0
LINE
  8
0
 10
92.3047
 20
79.4121
 11
92.25
 21
79.4199
  0
LINE
  8
0
 10
92.25
 20
79.4199
 11
92.2217
 21
79.4238
  0
LINE
  8
0
 10
92.2217
 20
79.4238
 11
92.1943
 21
79.4297
  0
LINE
  8
0
 10
92.1943
 20
79.4297
 11
92.167
 21
79.4346
  0
LINE
  8
0
 10
92.167
 20
79.4346
 11
92.1396
 21
79.4414
  0
LINE
  8
0
 10
92.1396
 20
79.4414
 11
92.1133
 21
79.4473
  0
LINE
  8
0
 10
92.1133
 20
79.4473
 11
92.0859
 21
79.4541
  0
LINE
  8
0
 10
92.0859
 20
79.4541
 11
92.0586
 21
79.4619
  0
LINE
  8
0
 10
92.0586
 20
79.4619
 11
92.0322
 21
79.4697
  0
LINE
  8
0
 10
92.0322
 20
79.4697
 11
91.9531
 21
79.4961
  0
LINE
  8
0
 10
91.9531
 20
79.4961
 11
91.9268
 21
79.5059
  0
LINE
  8
0
 10
91.9268
 20
79.5059
 11
91.9004
 21
79.5166
  0
LINE
  8
0
 10
91.9004
 20
79.5166
 11
91.8496
 21
79.5381
  0
LINE
  8
0
 10
91.8496
 20
79.5381
 11
91.7988
 21
79.5615
  0
LINE
  8
0
 10
91.7988
 20
79.5615
 11
91.7734
 21
79.5742
  0
LINE
  8
0
 10
91.7734
 20
79.5742
 11
91.749
 21
79.5869
  0
LINE
  8
0
 10
91.749
 20
79.5869
 11
91.7002
 21
79.6143
  0
LINE
  8
0
 10
91.7002
 20
79.6143
 11
91.6758
 21
79.6289
  0
LINE
  8
0
 10
91.6758
 20
79.6289
 11
91.6289
 21
79.6582
  0
LINE
  8
0
 10
91.6289
 20
79.6582
 11
91.582
 21
79.6895
  0
LINE
  8
0
 10
91.582
 20
79.6895
 11
91.5146
 21
79.7393
  0
LINE
  8
0
 10
91.5146
 20
79.7393
 11
91.4502
 21
79.792
  0
LINE
  8
0
 10
91.4502
 20
79.792
 11
91.4297
 21
79.8105
  0
LINE
  8
0
 10
91.4297
 20
79.8105
 11
91.4092
 21
79.8301
  0
LINE
  8
0
 10
91.4092
 20
79.8301
 11
91.3887
 21
79.8486
  0
LINE
  8
0
 10
91.3887
 20
79.8486
 11
91.3682
 21
79.8682
  0
LINE
  8
0
 10
91.3682
 20
79.8682
 11
91.3486
 21
79.8887
  0
LINE
  8
0
 10
91.3486
 20
79.8887
 11
91.3301
 21
79.9092
  0
LINE
  8
0
 10
91.3301
 20
79.9092
 11
91.3105
 21
79.9297
  0
LINE
  8
0
 10
91.3105
 20
79.9297
 11
91.292
 21
79.9502
  0
LINE
  8
0
 10
91.292
 20
79.9502
 11
91.2393
 21
80.0146
  0
LINE
  8
0
 10
91.2393
 20
80.0146
 11
91.1895
 21
80.082
  0
LINE
  8
0
 10
91.1895
 20
80.082
 11
91.1582
 21
80.1289
  0
LINE
  8
0
 10
91.1582
 20
80.1289
 11
91.1289
 21
80.1758
  0
LINE
  8
0
 10
91.1289
 20
80.1758
 11
91.1143
 21
80.2002
  0
LINE
  8
0
 10
91.1143
 20
80.2002
 11
91.0869
 21
80.249
  0
LINE
  8
0
 10
91.0869
 20
80.249
 11
91.0742
 21
80.2734
  0
LINE
  8
0
 10
91.0742
 20
80.2734
 11
91.0615
 21
80.2988
  0
LINE
  8
0
 10
91.0615
 20
80.2988
 11
91.0381
 21
80.3496
  0
LINE
  8
0
 10
91.0381
 20
80.3496
 11
91.0166
 21
80.4004
  0
LINE
  8
0
 10
91.0166
 20
80.4004
 11
91.0059
 21
80.4268
  0
LINE
  8
0
 10
91.0059
 20
80.4268
 11
90.9961
 21
80.4531
  0
LINE
  8
0
 10
90.9961
 20
80.4531
 11
90.9697
 21
80.5322
  0
LINE
  8
0
 10
90.9697
 20
80.5322
 11
90.9619
 21
80.5586
  0
LINE
  8
0
 10
90.9619
 20
80.5586
 11
90.9541
 21
80.5859
  0
LINE
  8
0
 10
90.9541
 20
80.5859
 11
90.9473
 21
80.6133
  0
LINE
  8
0
 10
90.9473
 20
80.6133
 11
90.9414
 21
80.6396
  0
LINE
  8
0
 10
90.9414
 20
80.6396
 11
90.9346
 21
80.667
  0
LINE
  8
0
 10
90.9346
 20
80.667
 11
90.9297
 21
80.6943
  0
LINE
  8
0
 10
90.9297
 20
80.6943
 11
90.9238
 21
80.7217
  0
LINE
  8
0
 10
90.9238
 20
80.7217
 11
90.9199
 21
80.75
  0
LINE
  8
0
 10
90.9199
 20
80.75
 11
90.9121
 21
80.8047
  0
LINE
  8
0
 10
90.9121
 20
80.8047
 11
90.9092
 21
80.833
  0
LINE
  8
0
 10
90.9092
 20
80.833
 11
90.9062
 21
80.8604
  0
LINE
  8
0
 10
90.9062
 20
80.8604
 11
90.9043
 21
80.8887
  0
LINE
  8
0
 10
90.9043
 20
80.8887
 11
90.9023
 21
80.916
  0
LINE
  8
0
 10
90.9023
 20
80.916
 11
90.9004
 21
80.9717
  0
LINE
  8
0
 10
90.9004
 20
80.9717
 11
90.9004
 21
81.0283
  0
LINE
  8
0
 10
90.9004
 20
81.0283
 11
90.9023
 21
81.084
  0
LINE
  8
0
 10
90.9023
 20
81.084
 11
90.9043
 21
81.1113
  0
LINE
  8
0
 10
90.9043
 20
81.1113
 11
90.9062
 21
81.1396
  0
LINE
  8
0
 10
90.9062
 20
81.1396
 11
90.9092
 21
81.167
  0
LINE
  8
0
 10
90.9092
 20
81.167
 11
90.9121
 21
81.1953
  0
LINE
  8
0
 10
90.9121
 20
81.1953
 11
90.9199
 21
81.25
  0
LINE
  8
0
 10
90.9199
 20
81.25
 11
90.9238
 21
81.2783
  0
LINE
  8
0
 10
90.9238
 20
81.2783
 11
90.9297
 21
81.3057
  0
LINE
  8
0
 10
90.9297
 20
81.3057
 11
90.9346
 21
81.333
  0
LINE
  8
0
 10
90.9346
 20
81.333
 11
90.9414
 21
81.3604
  0
LINE
  8
0
 10
90.9414
 20
81.3604
 11
90.9473
 21
81.3867
  0
LINE
  8
0
 10
90.9473
 20
81.3867
 11
90.9541
 21
81.4141
  0
LINE
  8
0
 10
90.9541
 20
81.4141
 11
90.9619
 21
81.4414
  0
LINE
  8
0
 10
90.9619
 20
81.4414
 11
90.9697
 21
81.4678
  0
LINE
  8
0
 10
90.9697
 20
81.4678
 11
90.9961
 21
81.5469
  0
LINE
  8
0
 10
90.9961
 20
81.5469
 11
91.0059
 21
81.5732
  0
LINE
  8
0
 10
91.0059
 20
81.5732
 11
91.0166
 21
81.5996
  0
LINE
  8
0
 10
91.0166
 20
81.5996
 11
91.0381
 21
81.6504
  0
LINE
  8
0
 10
91.0381
 20
81.6504
 11
91.0615
 21
81.7012
  0
LINE
  8
0
 10
91.0615
 20
81.7012
 11
91.0742
 21
81.7266
  0
LINE
  8
0
 10
91.0742
 20
81.7266
 11
91.0869
 21
81.751
  0
LINE
  8
0
 10
91.0869
 20
81.751
 11
91.1143
 21
81.7998
  0
LINE
  8
0
 10
91.1143
 20
81.7998
 11
91.1289
 21
81.8242
  0
LINE
  8
0
 10
91.1289
 20
81.8242
 11
91.1582
 21
81.8711
  0
LINE
  8
0
 10
91.1582
 20
81.8711
 11
91.1895
 21
81.918
  0
LINE
  8
0
 10
91.1895
 20
81.918
 11
91.2393
 21
81.9854
  0
LINE
  8
0
 10
91.2393
 20
81.9854
 11
91.292
 21
82.0498
  0
LINE
  8
0
 10
91.292
 20
82.0498
 11
91.3105
 21
82.0703
  0
LINE
  8
0
 10
91.3105
 20
82.0703
 11
91.3301
 21
82.0908
  0
LINE
  8
0
 10
91.3301
 20
82.0908
 11
91.3486
 21
82.1113
  0
LINE
  8
0
 10
91.3486
 20
82.1113
 11
91.3682
 21
82.1318
  0
LINE
  8
0
 10
91.3682
 20
82.1318
 11
91.3887
 21
82.1514
  0
LINE
  8
0
 10
91.3887
 20
82.1514
 11
91.4092
 21
82.1699
  0
LINE
  8
0
 10
91.4092
 20
82.1699
 11
91.4297
 21
82.1895
  0
LINE
  8
0
 10
91.4297
 20
82.1895
 11
91.4502
 21
82.208
  0
LINE
  8
0
 10
91.4502
 20
82.208
 11
91.5146
 21
82.2607
  0
LINE
  8
0
 10
91.5146
 20
82.2607
 11
91.582
 21
82.3105
  0
LINE
  8
0
 10
91.582
 20
82.3105
 11
91.6289
 21
82.3418
  0
LINE
  8
0
 10
91.6289
 20
82.3418
 11
91.6758
 21
82.3711
  0
LINE
  8
0
 10
91.6758
 20
82.3711
 11
91.7002
 21
82.3857
  0
LINE
  8
0
 10
91.7002
 20
82.3857
 11
91.749
 21
82.4131
  0
LINE
  8
0
 10
91.749
 20
82.4131
 11
91.7734
 21
82.4258
  0
LINE
  8
0
 10
91.7734
 20
82.4258
 11
91.7988
 21
82.4385
  0
LINE
  8
0
 10
91.7988
 20
82.4385
 11
91.8496
 21
82.4619
  0
LINE
  8
0
 10
91.8496
 20
82.4619
 11
91.9004
 21
82.4834
  0
LINE
  8
0
 10
91.9004
 20
82.4834
 11
91.9268
 21
82.4941
  0
LINE
  8
0
 10
91.9268
 20
82.4941
 11
91.9531
 21
82.5039
  0
LINE
  8
0
 10
91.9531
 20
82.5039
 11
92.0322
 21
82.5303
  0
LINE
  8
0
 10
92.0322
 20
82.5303
 11
92.0586
 21
82.5381
  0
LINE
  8
0
 10
92.0586
 20
82.5381
 11
92.0859
 21
82.5459
  0
LINE
  8
0
 10
92.0859
 20
82.5459
 11
92.1133
 21
82.5527
  0
LINE
  8
0
 10
92.1133
 20
82.5527
 11
92.1396
 21
82.5586
  0
LINE
  8
0
 10
92.1396
 20
82.5586
 11
92.167
 21
82.5654
  0
LINE
  8
0
 10
92.167
 20
82.5654
 11
92.1943
 21
82.5703
  0
LINE
  8
0
 10
92.1943
 20
82.5703
 11
92.2217
 21
82.5762
  0
LINE
  8
0
 10
92.2217
 20
82.5762
 11
92.25
 21
82.5801
  0
LINE
  8
0
 10
92.25
 20
82.5801
 11
92.3047
 21
82.5879
  0
LINE
  8
0
 10
92.3047
 20
82.5879
 11
92.333
 21
82.5908
  0
LINE
  8
0
 10
92.333
 20
82.5908
 11
92.3604
 21
82.5938
  0
LINE
  8
0
 10
92.3604
 20
82.5938
 11
92.3887
 21
82.5957
  0
LINE
  8
0
 10
92.3887
 20
82.5957
 11
92.416
 21
82.5977
  0
LINE
  8
0
 10
92.416
 20
82.5977
 11
92.4717
 21
82.5996
  0
LINE
  8
0
 10
92.4717
 20
82.5996
 11
92.5283
 21
82.5996
  0
LINE
  8
0
 10
92.5283
 20
82.5996
 11
92.584
 21
82.5977
  0
LINE
  8
0
 10
92.584
 20
82.5977
 11
92.6113
 21
82.5957
  0
LINE
  8
0
 10
92.6113
 20
82.5957
 11
92.6396
 21
82.5938
  0
LINE
  8
0
 10
92.6396
 20
82.5938
 11
92.667
 21
82.5908
  0
LINE
  8
0
 10
92.667
 20
82.5908
 11
92.6953
 21
82.5879
  0
LINE
  8
0
 10
92.6953
 20
82.5879
 11
92.75
 21
82.5801
  0
LINE
  8
0
 10
92.75
 20
82.5801
 11
92.7783
 21
82.5762
  0
LINE
  8
0
 10
92.7783
 20
82.5762
 11
92.8057
 21
82.5703
  0
LINE
  8
0
 10
92.8057
 20
82.5703
 11
92.833
 21
82.5654
  0
LINE
  8
0
 10
92.833
 20
82.5654
 11
92.8604
 21
82.5586
  0
LINE
  8
0
 10
92.8604
 20
82.5586
 11
92.8867
 21
82.5527
  0
LINE
  8
0
 10
92.8867
 20
82.5527
 11
92.9141
 21
82.5459
  0
LINE
  8
0
 10
92.9141
 20
82.5459
 11
92.9414
 21
82.5381
  0
LINE
  8
0
 10
92.9414
 20
82.5381
 11
92.9678
 21
82.5303
  0
LINE
  8
0
 10
92.9678
 20
82.5303
 11
93.0469
 21
82.5039
  0
LINE
  8
0
 10
93.0469
 20
82.5039
 11
93.0732
 21
82.4941
  0
LINE
  8
0
 10
93.0732
 20
82.4941
 11
93.0996
 21
82.4834
  0
LINE
  8
0
 10
93.0996
 20
82.4834
 11
93.1504
 21
82.4619
  0
LINE
  8
0
 10
93.1504
 20
82.4619
 11
93.2012
 21
82.4385
  0
LINE
  8
0
 10
93.2012
 20
82.4385
 11
93.2266
 21
82.4258
  0
LINE
  8
0
 10
93.2266
 20
82.4258
 11
93.251
 21
82.4131
  0
LINE
  8
0
 10
93.251
 20
82.4131
 11
93.2998
 21
82.3857
  0
LINE
  8
0
 10
93.2998
 20
82.3857
 11
93.3242
 21
82.3711
  0
LINE
  8
0
 10
93.3242
 20
82.3711
 11
93.3711
 21
82.3418
  0
LINE
  8
0
 10
93.3711
 20
82.3418
 11
93.418
 21
82.3105
  0
LINE
  8
0
 10
93.418
 20
82.3105
 11
93.4854
 21
82.2607
  0
LINE
  8
0
 10
93.4854
 20
82.2607
 11
93.5498
 21
82.208
  0
LINE
  8
0
 10
93.5498
 20
82.208
 11
93.5703
 21
82.1895
  0
LINE
  8
0
 10
93.5703
 20
82.1895
 11
93.5908
 21
82.1699
  0
LINE
  8
0
 10
93.5908
 20
82.1699
 11
93.6113
 21
82.1514
  0
LINE
  8
0
 10
93.6113
 20
82.1514
 11
93.6318
 21
82.1318
  0
LINE
  8
0
 10
93.6318
 20
82.1318
 11
93.6514
 21
82.1113
  0
LINE
  8
0
 10
93.6514
 20
82.1113
 11
93.6699
 21
82.0908
  0
LINE
  8
0
 10
93.6699
 20
82.0908
 11
93.6895
 21
82.0703
  0
LINE
  8
0
 10
93.6895
 20
82.0703
 11
93.708
 21
82.0498
  0
LINE
  8
0
 10
93.708
 20
82.0498
 11
93.7607
 21
81.9854
  0
LINE
  8
0
 10
93.7607
 20
81.9854
 11
93.8105
 21
81.918
  0
LINE
  8
0
 10
93.8105
 20
81.918
 11
93.8418
 21
81.8711
  0
LINE
  8
0
 10
93.8418
 20
81.8711
 11
93.8711
 21
81.8242
  0
LINE
  8
0
 10
93.8711
 20
81.8242
 11
93.8857
 21
81.7998
  0
LINE
  8
0
 10
93.8857
 20
81.7998
 11
93.9131
 21
81.751
  0
LINE
  8
0
 10
93.9131
 20
81.751
 11
93.9258
 21
81.7266
  0
LINE
  8
0
 10
93.9258
 20
81.7266
 11
93.9385
 21
81.7012
  0
LINE
  8
0
 10
93.9385
 20
81.7012
 11
93.9619
 21
81.6504
  0
LINE
  8
0
 10
93.9619
 20
81.6504
 11
93.9834
 21
81.5996
  0
LINE
  8
0
 10
93.9834
 20
81.5996
 11
93.9941
 21
81.5732
  0
LINE
  8
0
 10
93.9941
 20
81.5732
 11
94.0039
 21
81.5469
  0
LINE
  8
0
 10
94.0039
 20
81.5469
 11
94.0303
 21
81.4678
  0
LINE
  8
0
 10
94.0303
 20
81.4678
 11
94.0381
 21
81.4414
  0
LINE
  8
0
 10
94.0381
 20
81.4414
 11
94.0459
 21
81.4141
  0
LINE
  8
0
 10
94.0459
 20
81.4141
 11
94.0527
 21
81.3867
  0
LINE
  8
0
 10
94.0527
 20
81.3867
 11
94.0586
 21
81.3604
  0
LINE
  8
0
 10
94.0586
 20
81.3604
 11
94.0654
 21
81.333
  0
LINE
  8
0
 10
94.0654
 20
81.333
 11
94.0703
 21
81.3057
  0
LINE
  8
0
 10
94.0703
 20
81.3057
 11
94.0762
 21
81.2783
  0
LINE
  8
0
 10
94.0762
 20
81.2783
 11
94.0801
 21
81.25
  0
LINE
  8
0
 10
94.0801
 20
81.25
 11
94.0879
 21
81.1953
  0
LINE
  8
0
 10
94.0879
 20
81.1953
 11
94.0908
 21
81.167
  0
LINE
  8
0
 10
94.0908
 20
81.167
 11
94.0938
 21
81.1396
  0
LINE
  8
0
 10
94.0938
 20
81.1396
 11
94.0957
 21
81.1113
  0
LINE
  8
0
 10
94.0957
 20
81.1113
 11
94.0977
 21
81.084
  0
LINE
  8
0
 10
94.0977
 20
81.084
 11
94.0996
 21
81.0283
  0
LINE
  8
0
 10
94.0996
 20
81.0283
 11
94.0996
 21
80.9717
  0
LINE
  8
0
 10
94.0996
 20
80.9717
 11
94.0977
 21
80.916
  0
LINE
  8
0
 10
94.0977
 20
80.916
 11
94.0957
 21
80.8887
  0
LINE
  8
0
 10
94.0957
 20
80.8887
 11
94.0938
 21
80.8604
  0
LINE
  8
0
 10
94.0938
 20
80.8604
 11
94.0908
 21
80.833
  0
LINE
  8
0
 10
94.0908
 20
80.833
 11
94.0879
 21
80.8047
  0
LINE
  8
0
 10
94.0879
 20
80.8047
 11
94.0801
 21
80.75
  0
LINE
  8
0
 10
94.0801
 20
80.75
 11
94.0762
 21
80.7217
  0
LINE
  8
0
 10
94.0762
 20
80.7217
 11
94.0703
 21
80.6943
  0
LINE
  8
0
 10
94.0703
 20
80.6943
 11
94.0654
 21
80.667
  0
LINE
  8
0
 10
94.0654
 20
80.667
 11
94.0586
 21
80.6396
  0
LINE
  8
0
 10
94.0586
 20
80.6396
 11
94.0527
 21
80.6133
  0
LINE
  8
0
 10
94.0527
 20
80.6133
 11
94.0459
 21
80.5859
  0
LINE
  8
0
 10
94.0459
 20
80.5859
 11
94.0381
 21
80.5586
  0
LINE
  8
0
 10
94.0381
 20
80.5586
 11
94.0303
 21
80.5322
  0
LINE
  8
0
 10
94.0303
 20
80.5322
 11
94.0039
 21
80.4531
  0
LINE
  8
0
 10
94.0039
 20
80.4531
 11
93.9941
 21
80.4268
  0
LINE
  8
0
 10
93.9941
 20
80.4268
 11
93.9834
 21
80.4004
  0
LINE
  8
0
 10
93.9834
 20
80.4004
 11
93.9619
 21
80.3496
  0
LINE
  8
0
 10
93.9619
 20
80.3496
 11
93.9385
 21
80.2988
  0
LINE
  8
0
 10
93.9385
 20
80.2988
 11
93.9258
 21
80.2734
  0
LINE
  8
0
 10
93.9258
 20
80.2734
 11
93.9131
 21
80.249
  0
LINE
  8
0
 10
93.9131
 20
80.249
 11
93.8857
 21
80.2002
  0
LINE
  8
0
 10
93.8857
 20
80.2002
 11
93.8711
 21
80.1758
  0
LINE
  8
0
 10
93.8711
 20
80.1758
 11
93.8418
 21
80.1289
  0
LINE
  8
0
 10
93.8418
 20
80.1289
 11
93.8105
 21
80.082
  0
LINE
  8
0
 10
93.8105
 20
80.082
 11
93.7607
 21
80.0146
  0
LINE
  8
0
 10
93.7607
 20
80.0146
 11
93.708
 21
79.9502
  0
LINE
  8
0
 10
93.708
 20
79.9502
 11
93.6895
 21
79.9297
  0
LINE
  8
0
 10
93.6895
 20
79.9297
 11
93.6699
 21
79.9092
  0
LINE
  8
0
 10
93.6699
 20
79.9092
 11
93.6514
 21
79.8887
  0
LINE
  8
0
 10
93.6514
 20
79.8887
 11
93.6318
 21
79.8682
  0
LINE
  8
0
 10
93.6318
 20
79.8682
 11
93.6113
 21
79.8486
  0
LINE
  8
0
 10
93.6113
 20
79.8486
 11
93.5908
 21
79.8301
  0
LINE
  8
0
 10
93.5908
 20
79.8301
 11
93.5703
 21
79.8105
  0
LINE
  8
0
 10
93.5703
 20
79.8105
 11
93.5498
 21
79.792
  0
LINE
  8
0
 10
93.5498
 20
79.792
 11
93.4854
 21
79.7393
  0
LINE
  8
0
 10
93.4854
 20
79.7393
 11
93.418
 21
79.6895
  0
LINE
  8
0
 10
93.418
 20
79.6895
 11
93.3711
 21
79.6582
  0
LINE
  8
0
 10
93.3711
 20
79.6582
 11
93.3242
 21
79.6289
  0
LINE
  8
0
 10
93.3242
 20
79.6289
 11
93.2998
 21
79.6143
  0
LINE
  8
0
 10
93.2998
 20
79.6143
 11
93.251
 21
79.5869
  0
LINE
  8
0
 10
93.251
 20
79.5869
 11
93.2266
 21
79.5742
  0
LINE
  8
0
 10
93.2266
 20
79.5742
 11
93.2012
 21
79.5615
  0
LINE
  8
0
 10
93.2012
 20
79.5615
 11
93.1504
 21
79.5381
  0
LINE
  8
0
 10
93.1504
 20
79.5381
 11
93.0996
 21
79.5166
  0
LINE
  8
0
 10
93.0996
 20
79.5166
 11
93.0732
 21
79.5059
  0
LINE
  8
0
 10
93.0732
 20
79.5059
 11
93.0469
 21
79.4961
  0
LINE
  8
0
 10
93.0469
 20
79.4961
 11
92.9678
 21
79.4697
  0
LINE
  8
0
 10
92.9678
 20
79.4697
 11
92.9414
 21
79.4619
  0
LINE
  8
0
 10
92.9414
 20
79.4619
 11
92.9141
 21
79.4541
  0
LINE
  8
0
 10
92.9141
 20
79.4541
 11
92.8867
 21
79.4473
  0
LINE
  8
0
 10
92.8867
 20
79.4473
 11
92.8604
 21
79.4414
  0
LINE
  8
0
 10
92.8604
 20
79.4414
 11
92.833
 21
79.4346
  0
LINE
  8
0
 10
92.833
 20
79.4346
 11
92.8057
 21
79.4297
  0
LINE
  8
0
 10
92.8057
 20
79.4297
 11
92.7783
 21
79.4238
  0
LINE
  8
0
 10
92.7783
 20
79.4238
 11
92.75
 21
79.4199
  0
LINE
  8
0
 10
92.75
 20
79.4199
 11
92.6953
 21
79.4121
  0
LINE
  8
0
 10
92.6953
 20
79.4121
 11
92.667
 21
79.4092
  0
LINE
  8
0
 10
92.667
 20
79.4092
 11
92.6396
 21
79.4062
  0
LINE
  8
0
 10
92.6396
 20
79.4062
 11
92.6113
 21
79.4043
  0
LINE
  8
0
 10
92.6113
 20
79.4043
 11
92.584
 21
79.4023
  0
LINE
  8
0
 10
92.584
 20
79.4023
 11
92.5283
 21
79.4004
  0
LINE
  8
0
 10
92.5283
 20
79.4004
 11
92.4717
 21
79.4004
  0
LINE
  8
0
 10
67.5
 20
44.0283
 11
67.5
 21
75
  0
LINE
  8
0
 10
67.5
 20
75
 11
95
 21
75
  0
LINE
  8
0
 10
95
 20
75
 11
95
 21
43.9512
  0
LINE
  8
0
 10
95
 20
43.9512
 11
67.5
 21
44.0283
  0
LINE
  8
0
 10
17.4717
 20
64.9004
 11
17.416
 21
64.9023
  0
LINE
  8
0
 10
17.416
 20
64.9023
 11
17.3887
 21
64.9043
  0
LINE
  8
0
 10
17.3887
 20
64.9043
 11
17.3604
 21
64.9062
  0
LINE
  8
0
 10
17.3604
 20
64.9062
 11
17.333
 21
64.9092
  0
LINE
  8
0
 10
17.333
 20
64.9092
 11
17.3047
 21
64.9121
  0
LINE
  8
0
 10
17.3047
 20
64.9121
 11
17.25
 21
64.9199
  0
LINE
  8
0
 10
17.25
 20
64.9199
 11
17.2217
 21
64.9238
  0
LINE
  8
0
 10
17.2217
 20
64.9238
 11
17.1943
 21
64.9297
  0
LINE
  8
0
 10
17.1943
 20
64.9297
 11
17.167
 21
64.9346
  0
LINE
  8
0
 10
17.167
 20
64.9346
 11
17.1396
 21
64.9414
  0
LINE
  8
0
 10
17.1396
 20
64.9414
 11
17.1133
 21
64.9473
  0
LINE
  8
0
 10
17.1133
 20
64.9473
 11
17.0859
 21
64.9541
  0
LINE
  8
0
 10
17.0859
 20
64.9541
 11
17.0586
 21
64.9619
  0
LINE
  8
0
 10
17.0586
 20
64.9619
 11
17.0322
 21
64.9697
  0
LINE
  8
0
 10
17.0322
 20
64.9697
 11
16.9531
 21
64.9961
  0
LINE
  8
0
 10
16.9531
 20
64.9961
 11
16.9268
 21
65.0059
  0
LINE
  8
0
 10
16.9268
 20
65.0059
 11
16.9004
 21
65.0166
  0
LINE
  8
0
 10
16.9004
 20
65.0166
 11
16.8496
 21
65.0381
  0
LINE
  8
0
 10
16.8496
 20
65.0381
 11
16.7988
 21
65.0615
  0
LINE
  8
0
 10
16.7988
 20
65.0615
 11
16.7734
 21
65.0742
  0
LINE
  8
0
 10
16.7734
 20
65.0742
 11
16.749
 21
65.0869
  0
LINE
  8
0
 10
16.749
 20
65.0869
 11
16.7002
 21
65.1143
  0
LINE
  8
0
 10
16.7002
 20
65.1143
 11
16.6758
 21
65.1289
  0
LINE
  8
0
 10
16.6758
 20
65.1289
 11
16.6289
 21
65.1582
  0
LINE
  8
0
 10
16.6289
 20
65.1582
 11
16.582
 21
65.1895
  0
LINE
  8
0
 10
16.582
 20
65.1895
 11
16.5146
 21
65.2393
  0
LINE
  8
0
 10
16.5146
 20
65.2393
 11
16.4502
 21
65.292
  0
LINE
  8
0
 10
16.4502
 20
65.292
 11
16.4297
 21
65.3105
  0
LINE
  8
0
 10
16.4297
 20
65.3105
 11
16.4092
 21
65.3301
  0
LINE
  8
0
 10
16.4092
 20
65.3301
 11
16.3887
 21
65.3486
  0
LINE
  8
0
 10
16.3887
 20
65.3486
 11
16.3682
 21
65.3682
  0
LINE
  8
0
 10
16.3682
 20
65.3682
 11
16.3486
 21
65.3887
  0
LINE
  8
0
 10
16.3486
 20
65.3887
 11
16.3301
 21
65.4092
  0
LINE
  8
0
 10
16.3301
 20
65.4092
 11
16.3105
 21
65.4297
  0
LINE
  8
0
 10
16.3105
 20
65.4297
 11
16.292
 21
65.4502
  0
LINE
  8
0
 10
16.292
 20
65.4502
 11
16.2393
 21
65.5146
  0
LINE
  8
0
 10
16.2393
 20
65.5146
 11
16.1895
 21
65.582
  0
LINE
  8
0
 10
16.1895
 20
65.582
 11
16.1582
 21
65.6289
  0
LINE
  8
0
 10
16.1582
 20
65.6289
 11
16.1289
 21
65.6758
  0
LINE
  8
0
 10
16.1289
 20
65.6758
 11
16.1143
 21
65.7002
  0
LINE
  8
0
 10
16.1143
 20
65.7002
 11
16.0869
 21
65.749
  0
LINE
  8
0
 10
16.0869
 20
65.749
 11
16.0742
 21
65.7734
  0
LINE
  8
0
 10
16.0742
 20
65.7734
 11
16.0615
 21
65.7988
  0
LINE
  8
0
 10
16.0615
 20
65.7988
 11
16.0381
 21
65.8496
  0
LINE
  8
0
 10
16.0381
 20
65.8496
 11
16.0166
 21
65.9004
  0
LINE
  8
0
 10
16.0166
 20
65.9004
 11
16.0059
 21
65.9268
  0
LINE
  8
0
 10
16.0059
 20
65.9268
 11
15.9961
 21
65.9531
  0
LINE
  8
0
 10
15.9961
 20
65.9531
 11
15.9697
 21
66.0322
  0
LINE
  8
0
 10
15.9697
 20
66.0322
 11
15.9619
 21
66.0586
  0
LINE
  8
0
 10
15.9619
 20
66.0586
 11
15.9541
 21
66.0859
  0
LINE
  8
0
 10
15.9541
 20
66.0859
 11
15.9473
 21
66.1133
  0
LINE
  8
0
 10
15.9473
 20
66.1133
 11
15.9414
 21
66.1396
  0
LINE
  8
0
 10
15.9414
 20
66.1396
 11
15.9346
 21
66.167
  0
LINE
  8
0
 10
15.9346
 20
66.167
 11
15.9297
 21
66.1943
  0
LINE
  8
0
 10
15.9297
 20
66.1943
 11
15.9238
 21
66.2217
  0
LINE
  8
0
 10
15.9238
 20
66.2217
 11
15.9199
 21
66.25
  0
LINE
  8
0
 10
15.9199
 20
66.25
 11
15.9121
 21
66.3047
  0
LINE
  8
0
 10
15.9121
 20
66.3047
 11
15.9092
 21
66.333
  0
LINE
  8
0
 10
15.9092
 20
66.333
 11
15.9062
 21
66.3604
  0
LINE
  8
0
 10
15.9062
 20
66.3604
 11
15.9043
 21
66.3887
  0
LINE
  8
0
 10
15.9043
 20
66.3887
 11
15.9023
 21
66.416
  0
LINE
  8
0
 10
15.9023
 20
66.416
 11
15.9004
 21
66.4717
  0
LINE
  8
0
 10
15.9004
 20
66.4717
 11
15.9004
 21
66.5283
  0
LINE
  8
0
 10
15.9004
 20
66.5283
 11
15.9023
 21
66.584
  0
LINE
  8
0
 10
15.9023
 20
66.584
 11
15.9043
 21
66.6113
  0
LINE
  8
0
 10
15.9043
 20
66.6113
 11
15.9062
 21
66.6396
  0
LINE
  8
0
 10
15.9062
 20
66.6396
 11
15.9092
 21
66.667
  0
LINE
  8
0
 10
15.9092
 20
66.667
 11
15.9121
 21
66.6953
  0
LINE
  8
0
 10
15.9121
 20
66.6953
 11
15.9199
 21
66.75
  0
LINE
  8
0
 10
15.9199
 20
66.75
 11
15.9238
 21
66.7783
  0
LINE
  8
0
 10
15.9238
 20
66.7783
 11
15.9297
 21
66.8057
  0
LINE
  8
0
 10
15.9297
 20
66.8057
 11
15.9346
 21
66.833
  0
LINE
  8
0
 10
15.9346
 20
66.833
 11
15.9414
 21
66.8604
  0
LINE
  8
0
 10
15.9414
 20
66.8604
 11
15.9473
 21
66.8867
  0
LINE
  8
0
 10
15.9473
 20
66.8867
 11
15.9541
 21
66.9141
  0
LINE
  8
0
 10
15.9541
 20
66.9141
 11
15.9619
 21
66.9414
  0
LINE
  8
0
 10
15.9619
 20
66.9414
 11
15.9697
 21
66.9678
  0
LINE
  8
0
 10
15.9697
 20
66.9678
 11
15.9961
 21
67.0469
  0
LINE
  8
0
 10
15.9961
 20
67.0469
 11
16.0059
 21
67.0732
  0
LINE
  8
0
 10
16.0059
 20
67.0732
 11
16.0166
 21
67.0996
  0
LINE
  8
0
 10
16.0166
 20
67.0996
 11
16.0381
 21
67.1504
  0
LINE
  8
0
 10
16.0381
 20
67.1504
 11
16.0615
 21
67.2012
  0
LINE
  8
0
 10
16.0615
 20
67.2012
 11
16.0742
 21
67.2266
  0
LINE
  8
0
 10
16.0742
 20
67.2266
 11
16.0869
 21
67.251
  0
LINE
  8
0
 10
16.0869
 20
67.251
 11
16.1143
 21
67.2998
  0
LINE
  8
0
 10
16.1143
 20
67.2998
 11
16.1289
 21
67.3242
  0
LINE
  8
0
 10
16.1289
 20
67.3242
 11
16.1582
 21
67.3711
  0
LINE
  8
0
 10
16.1582
 20
67.3711
 11
16.1895
 21
67.418
  0
LINE
  8
0
 10
16.1895
 20
67.418
 11
16.2393
 21
67.4854
  0
LINE
  8
0
 10
16.2393
 20
67.4854
 11
16.292
 21
67.5498
  0
LINE
  8
0
 10
16.292
 20
67.5498
 11
16.3105
 21
67.5703
  0
LINE
  8
0
 10
16.3105
 20
67.5703
 11
16.3301
 21
67.5908
  0
LINE
  8
0
 10
16.3301
 20
67.5908
 11
16.3486
 21
67.6113
  0
LINE
  8
0
 10
16.3486
 20
67.6113
 11
16.3682
 21
67.6318
  0
LINE
  8
0
 10
16.3682
 20
67.6318
 11
16.3887
 21
67.6514
  0
LINE
  8
0
 10
16.3887
 20
67.6514
 11
16.4092
 21
67.6699
  0
LINE
  8
0
 10
16.4092
 20
67.6699
 11
16.4297
 21
67.6895
  0
LINE
  8
0
 10
16.4297
 20
67.6895
 11
16.4502
 21
67.708
  0
LINE
  8
0
 10
16.4502
 20
67.708
 11
16.5146
 21
67.7607
  0
LINE
  8
0
 10
16.5146
 20
67.7607
 11
16.582
 21
67.8105
  0
LINE
  8
0
 10
16.582
 20
67.8105
 11
16.6289
 21
67.8418
  0
LINE
  8
0
 10
16.6289
 20
67.8418
 11
16.6758
 21
67.8711
  0
LINE
  8
0
 10
16.6758
 20
67.8711
 11
16.7002
 21
67.8857
  0
LINE
  8
0
 10
16.7002
 20
67.8857
 11
16.749
 21
67.9131
  0
LINE
  8
0
 10
16.749
 20
67.9131
 11
16.7734
 21
67.9258
  0
LINE
  8
0
 10
16.7734
 20
67.9258
 11
16.7988
 21
67.9385
  0
LINE
  8
0
 10
16.7988
 20
67.9385
 11
16.8496
 21
67.9619
  0
LINE
  8
0
 10
16.8496
 20
67.9619
 11
16.9004
 21
67.9834
  0
LINE
  8
0
 10
16.9004
 20
67.9834
 11
16.9268
 21
67.9941
  0
LINE
  8
0
 10
16.9268
 20
67.9941
 11
16.9531
 21
68.0039
  0
LINE
  8
0
 10
16.9531
 20
68.0039
 11
17.0322
 21
68.0303
  0
LINE
  8
0
 10
17.0322
 20
68.0303
 11
17.0586
 21
68.0381
  0
LINE
  8
0
 10
17.0586
 20
68.0381
 11
17.0859
 21
68.0459
  0
LINE
  8
0
 10
17.0859
 20
68.0459
 11
17.1133
 21
68.0527
  0
LINE
  8
0
 10
17.1133
 20
68.0527
 11
17.1396
 21
68.0586
  0
LINE
  8
0
 10
17.1396
 20
68.0586
 11
17.167
 21
68.0654
  0
LINE
  8
0
 10
17.167
 20
68.0654
 11
17.1943
 21
68.0703
  0
LINE
  8
0
 10
17.1943
 20
68.0703
 11
17.2217
 21
68.0762
  0
LINE
  8
0
 10
17.2217
 20
68.0762
 11
17.25
 21
68.0801
  0
LINE
  8
0
 10
17.25
 20
68.0801
 11
17.3047
 21
68.0879
  0
LINE
  8
0
 10
17.3047
 20
68.0879
 11
17.333
 21
68.0908
  0
LINE
  8
0
 10
17.333
 20
68.0908
 11
17.3604
 21
68.0938
  0
LINE
  8
0
 10
17.3604
 20
68.0938
 11
17.3887
 21
68.0957
  0
LINE
  8
0
 10
17.3887
 20
68.0957
 11
17.416
 21
68.0977
  0
LINE
  8
0
 10
17.416
 20
68.0977
 11
17.4717
 21
68.0996
  0
LINE
  8
0
 10
17.4717
 20
68.0996
 11
17.5283
 21
68.0996
  0
LINE
  8
0
 10
17.5283
 20
68.0996
 11
17.584
 21
68.0977
  0
LINE
  8
0
 10
17.584
 20
68.0977
 11
17.6113
 21
68.0957
  0
LINE
  8
0
 10
17.6113
 20
68.0957
 11
17.6396
 21
68.0938
  0
LINE
  8
0
 10
17.6396
 20
68.0938
 11
17.667
 21
68.0908
  0
LINE
  8
0
 10
17.667
 20
68.0908
 11
17.6953
 21
68.0879
  0
LINE
  8
0
 10
17.6953
 20
68.0879
 11
17.75
 21
68.0801
  0
LINE
  8
0
 10
17.75
 20
68.0801
 11
17.7783
 21
68.0762
  0
LINE
  8
0
 10
17.7783
 20
68.0762
 11
17.8057
 21
68.0703
  0
LINE
  8
0
 10
17.8057
 20
68.0703
 11
17.833
 21
68.0654
  0
LINE
  8
0
 10
17.833
 20
68.0654
 11
17.8604
 21
68.0586
  0
LINE
  8
0
 10
17.8604
 20
68.0586
 11
17.8867
 21
68.0527
  0
LINE
  8
0
 10
17.8867
 20
68.0527
 11
17.9141
 21
68.0459
  0
LINE
  8
0
 10
17.9141
 20
68.0459
 11
17.9414
 21
68.0381
  0
LINE
  8
0
 10
17.9414
 20
68.0381
 11
17.9678
 21
68.0303
  0
LINE
  8
0
 10
17.9678
 20
68.0303
 11
18.0469
 21
68.0039
  0
LINE
  8
0
 10
18.0469
 20
68.0039
 11
18.0732
 21
67.9941
  0
LINE
  8
0
 10
18.0732
 20
67.9941
 11
18.0996
 21
67.9834
  0
LINE
  8
0
 10
18.0996
 20
67.9834
 11
18.1504
 21
67.9619
  0
LINE
  8
0
 10
18.1504
 20
67.9619
 11
18.2012
 21
67.9385
  0
LINE
  8
0
 10
18.2012
 20
67.9385
 11
18.2266
 21
67.9258
  0
LINE
  8
0
 10
18.2266
 20
67.9258
 11
18.251
 21
67.9131
  0
LINE
  8
0
 10
18.251
 20
67.9131
 11
18.2998
 21
67.8857
  0
LINE
  8
0
 10
18.2998
 20
67.8857
 11
18.3242
 21
67.8711
  0
LINE
  8
0
 10
18.3242
 20
67.8711
 11
18.3711
 21
67.8418
  0
LINE
  8
0
 10
18.3711
 20
67.8418
 11
18.418
 21
67.8105
  0
LINE
  8
0
 10
18.418
 20
67.8105
 11
18.4854
 21
67.7607
  0
LINE
  8
0
 10
18.4854
 20
67.7607
 11
18.5498
 21
67.708
  0
LINE
  8
0
 10
18.5498
 20
67.708
 11
18.5703
 21
67.6895
  0
LINE
  8
0
 10
18.5703
 20
67.6895
 11
18.5908
 21
67.6699
  0
LINE
  8
0
 10
18.5908
 20
67.6699
 11
18.6113
 21
67.6514
  0
LINE
  8
0
 10
18.6113
 20
67.6514
 11
18.6318
 21
67.6318
  0
LINE
  8
0
 10
18.6318
 20
67.6318
 11
18.6514
 21
67.6113
  0
LINE
  8
0
 10
18.6514
 20
67.6113
 11
18.6699
 21
67.5908
  0
LINE
  8
0
 10
18.6699
 20
67.5908
 11
18.6895
 21
67.5703
  0
LINE
  8
0
 10
18.6895
 20
67.5703
 11
18.708
 21
67.5498
  0
LINE
  8
0
 10
18.708
 20
67.5498
 11
18.7607
 21
67.4854
  0
LINE
  8
0
 10
18.7607
 20
67.4854
 11
18.8105
 21
67.418
  0
LINE
  8
0
 10
18.8105
 20
67.418
 11
18.8418
 21
67.3711
  0
LINE
  8
0
 10
18.8418
 20
67.3711
 11
18.8711
 21
67.3242
  0
LINE
  8
0
 10
18.8711
 20
67.3242
 11
18.8857
 21
67.2998
  0
LINE
  8
0
 10
18.8857
 20
67.2998
 11
18.9131
 21
67.251
  0
LINE
  8
0
 10
18.9131
 20
67.251
 11
18.9258
 21
67.2266
  0
LINE
  8
0
 10
18.9258
 20
67.2266
 11
18.9385
 21
67.2012
  0
LINE
  8
0
 10
18.9385
 20
67.2012
 11
18.9619
 21
67.1504
  0
LINE
  8
0
 10
18.9619
 20
67.1504
 11
18.9834
 21
67.0996
  0
LINE
  8
0
 10
18.9834
 20
67.0996
 11
18.9941
 21
67.0732
  0
LINE
  8
0
 10
18.9941
 20
67.0732
 11
19.0039
 21
67.0469
  0
LINE
  8
0
 10
19.0039
 20
67.0469
 11
19.0303
 21
66.9678
  0
LINE
  8
0
 10
19.0303
 20
66.9678
 11
19.0381
 21
66.9414
  0
LINE
  8
0
 10
19.0381
 20
66.9414
 11
19.0459
 21
66.9141
  0
LINE
  8
0
 10
19.0459
 20
66.9141
 11
19.0527
 21
66.8867
  0
LINE
  8
0
 10
19.0527
 20
66.8867
 11
19.0586
 21
66.8604
  0
LINE
  8
0
 10
19.0586
 20
66.8604
 11
19.0654
 21
66.833
  0
LINE
  8
0
 10
19.0654
 20
66.833
 11
19.0703
 21
66.8057
  0
LINE
  8
0
 10
19.0703
 20
66.8057
 11
19.0762
 21
66.7783
  0
LINE
  8
0
 10
19.0762
 20
66.7783
 11
19.0801
 21
66.75
  0
LINE
  8
0
 10
19.0801
 20
66.75
 11
19.0879
 21
66.6953
  0
LINE
  8
0
 10
19.0879
 20
66.6953
 11
19.0908
 21
66.667
  0
LINE
  8
0
 10
19.0908
 20
66.667
 11
19.0938
 21
66.6396
  0
LINE
  8
0
 10
19.0938
 20
66.6396
 11
19.0957
 21
66.6113
  0
LINE
  8
0
 10
19.0957
 20
66.6113
 11
19.0977
 21
66.584
  0
LINE
  8
0
 10
19.0977
 20
66.584
 11
19.0996
 21
66.5283
  0
LINE
  8
0
 10
19.0996
 20
66.5283
 11
19.0996
 21
66.4717
  0
LINE
  8
0
 10
19.0996
 20
66.4717
 11
19.0977
 21
66.416
  0
LINE
  8
0
 10
19.0977
 20
66.416
 11
19.0957
 21
66.3887
  0
LINE
  8
0
 10
19.0957
 20
66.3887
 11
19.0938
 21
66.3604
  0
LINE
  8
0
 10
19.0938
 20
66.3604
 11
19.0908
 21
66.333
  0
LINE
  8
0
 10
19.0908
 20
66.333
 11
19.0879
 21
66.3047
  0
LINE
  8
0
 10
19.0879
 20
66.3047
 11
19.0801
 21
66.25
  0
LINE
  8
0
 10
19.0801
 20
66.25
 11
19.0762
 21
66.2217
  0
LINE
  8
0
 10
19.0762
 20
66.2217
 11
19.0703
 21
66.1943
  0
LINE
  8
0
 10
19.0703
 20
66.1943
 11
19.0654
 21
66.167
  0
LINE
  8
0
 10
19.0654
 20
66.167
 11
19.0586
 21
66.1396
  0
LINE
  8
0
 10
19.0586
 20
66.1396
 11
19.0527
 21
66.1133
  0
LINE
  8
0
 10
19.0527
 20
66.1133
 11
19.0459
 21
66.0859
  0
LINE
  8
0
 10
19.0459
 20
66.0859
 11
19.0381
 21
66.0586
  0
LINE
  8
0
 10
19.0381
 20
66.0586
 11
19.0303
 21
66.0322
  0
LINE
  8
0
 10
19.0303
 20
66.0322
 11
19.0039
 21
65.9531
  0
LINE
  8
0
 10
19.0039
 20
65.9531
 11
18.9941
 21
65.9268
  0
LINE
  8
0
 10
18.9941
 20
65.9268
 11
18.9834
 21
65.9004
  0
LINE
  8
0
 10
18.9834
 20
65.9004
 11
18.9619
 21
65.8496
  0
LINE
  8
0
 10
18.9619
 20
65.8496
 11
18.9385
 21
65.7988
  0
LINE
  8
0
 10
18.9385
 20
65.7988
 11
18.9258
 21
65.7734
  0
LINE
  8
0
 10
18.9258
 20
65.7734
 11
18.9131
 21
65.749
  0
LINE
  8
0
 10
18.9131
 20
65.749
 11
18.8857
 21
65.7002
  0
LINE
  8
0
 10
18.8857
 20
65.7002
 11
18.8711
 21
65.6758
  0
LINE
  8
0
 10
18.8711
 20
65.6758
 11
18.8418
 21
65.6289
  0
LINE
  8
0
 10
18.8418
 20
65.6289
 11
18.8105
 21
65.582
  0
LINE
  8
0
 10
18.8105
 20
65.582
 11
18.7607
 21
65.5146
  0
LINE
  8
0
 10
18.7607
 20
65.5146
 11
18.708
 21
65.4502
  0
LINE
  8
0
 10
18.708
 20
65.4502
 11
18.6895
 21
65.4297
  0
LINE
  8
0
 10
18.6895
 20
65.4297
 11
18.6699
 21
65.4092
  0
LINE
  8
0
 10
18.6699
 20
65.4092
 11
18.6514
 21
65.3887
  0
LINE
  8
0
 10
18.6514
 20
65.3887
 11
18.6318
 21
65.3682
  0
LINE
  8
0
 10
18.6318
 20
65.3682
 11
18.6113
 21
65.3486
  0
LINE
  8
0
 10
18.6113
 20
65.3486
 11
18.5908
 21
65.3301
  0
LINE
  8
0
 10
18.5908
 20
65.3301
 11
18.5703
 21
65.3105
  0
LINE
  8
0
 10
18.5703
 20
65.3105
 11
18.5498
 21
65.292
  0
LINE
  8
0
 10
18.5498
 20
65.292
 11
18.4854
 21
65.2393
  0
LINE
  8
0
 10
18.4854
 20
65.2393
 11
18.418
 21
65.1895
  0
LINE
  8
0
 10
18.418
 20
65.1895
 11
18.3711
 21
65.1582
  0
LINE
  8
0
 10
18.3711
 20
65.1582
 11
18.3242
 21
65.1289
  0
LINE
  8
0
 10
18.3242
 20
65.1289
 11
18.2998
 21
65.1143
  0
LINE
  8
0
 10
18.2998
 20
65.1143
 11
18.251
 21
65.0869
  0
LINE
  8
0
 10
18.251
 20
65.0869
 11
18.2266
 21
65.0742
  0
LINE
  8
0
 10
18.2266
 20
65.0742
 11
18.2012
 21
65.0615
  0
LINE
  8
0
 10
18.2012
 20
65.0615
 11
18.1504
 21
65.0381
  0
LINE
  8
0
 10
18.1504
 20
65.0381
 11
18.0996
 21
65.0166
  0
LINE
  8
0
 10
18.0996
 20
65.0166
 11
18.0732
 21
65.0059
  0
LINE
  8
0
 10
18.0732
 20
65.0059
 11
18.0469
 21
64.9961
  0
LINE
  8
0
 10
18.0469
 20
64.9961
 11
17.9678
 21
64.9697
  0
LINE
  8
0
 10
17.9678
 20
64.9697
 11
17.9414
 21
64.9619
  0
LINE
  8
0
 10
17.9414
 20
64.9619
 11
17.9141
 21
64.9541
  0
LINE
  8
0
 10
17.9141
 20
64.9541
 11
17.8867
 21
64.9473
  0
LINE
  8
0
 10
17.8867
 20
64.9473
 11
17.8604
 21
64.9414
  0
LINE
  8
0
 10
17.8604
 20
64.9414
 11
17.833
 21
64.9346
  0
LINE
  8
0
 10
17.833
 20
64.9346
 11
17.8057
 21
64.9297
  0
LINE
  8
0
 10
17.8057
 20
64.9297
 11
17.7783
 21
64.9238
  0
LINE
  8
0
 10
17.7783
 20
64.9238
 11
17.75
 21
64.9199
  0
LINE
  8
0
 10
17.75
 20
64.9199
 11
17.6953
 21
64.9121
  0
LINE
  8
0
 10
17.6953
 20
64.9121
 11
17.667
 21
64.9092
  0
LINE
  8
0
 10
17.667
 20
64.9092
 11
17.6396
 21
64.9062
  0
LINE
  8
0
 10
17.6396
 20
64.9062
 11
17.6113
 21
64.9043
  0
LINE
  8
0
 10
17.6113
 20
64.9043
 11
17.584
 21
64.9023
  0
LINE
  8
0
 10
17.584
 20
64.9023
 11
17.5283
 21
64.9004
  0
LINE
  8
0
 10
17.5283
 20
64.9004
 11
17.4717
 21
64.9004
  0
LINE
  8
0
 10
9.47168
 20
20.9004
 11
9.41602
 21
20.9023
  0
LINE
  8
0
 10
9.41602
 20
20.9023
 11
9.38867
 21
20.9043
  0
LINE
  8
0
 10
9.38867
 20
20.9043
 11
9.36035
 21
20.9062
  0
LINE
  8
0
 10
9.36035
 20
20.9062
 11
9.33301
 21
20.9092
  0
LINE
  8
0
 10
9.33301
 20
20.9092
 11
9.30469
 21
20.9121
  0
LINE
  8
0
 10
9.30469
 20
20.9121
 11
9.25
 21
20.9199
  0
LINE
  8
0
 10
9.25
 20
20.9199
 11
9.22168
 21
20.9238
  0
LINE
  8
0
 10
9.22168
 20
20.9238
 11
9.19434
 21
20.9297
  0
LINE
  8
0
 10
9.19434
 20
20.9297
 11
9.16699
 21
20.9346
  0
LINE
  8
0
 10
9.16699
 20
20.9346
 11
9.13965
 21
20.9414
  0
LINE
  8
0
 10
9.13965
 20
20.9414
 11
9.11328
 21
20.9473
  0
LINE
  8
0
 10
9.11328
 20
20.9473
 11
9.08594
 21
20.9541
  0
LINE
  8
0
 10
9.08594
 20
20.9541
 11
9.05859
 21
20.9619
  0
LINE
  8
0
 10
9.05859
 20
20.9619
 11
9.03223
 21
20.9697
  0
LINE
  8
0
 10
9.03223
 20
20.9697
 11
8.95312
 21
20.9961
  0
LINE
  8
0
 10
8.95312
 20
20.9961
 11
8.92676
 21
21.0059
  0
LINE
  8
0
 10
8.92676
 20
21.0059
 11
8.90039
 21
21.0166
  0
LINE
  8
0
 10
8.90039
 20
21.0166
 11
8.84961
 21
21.0381
  0
LINE
  8
0
 10
8.84961
 20
21.0381
 11
8.79883
 21
21.0615
  0
LINE
  8
0
 10
8.79883
 20
21.0615
 11
8.77344
 21
21.0742
  0
LINE
  8
0
 10
8.77344
 20
21.0742
 11
8.74902
 21
21.0869
  0
LINE
  8
0
 10
8.74902
 20
21.0869
 11
8.7002
 21
21.1143
  0
LINE
  8
0
 10
8.7002
 20
21.1143
 11
8.67578
 21
21.1289
  0
LINE
  8
0
 10
8.67578
 20
21.1289
 11
8.62891
 21
21.1582
  0
LINE
  8
0
 10
8.62891
 20
21.1582
 11
8.58203
 21
21.1895
  0
LINE
  8
0
 10
8.58203
 20
21.1895
 11
8.51465
 21
21.2393
  0
LINE
  8
0
 10
8.51465
 20
21.2393
 11
8.4502
 21
21.292
  0
LINE
  8
0
 10
8.4502
 20
21.292
 11
8.42969
 21
21.3105
  0
LINE
  8
0
 10
8.42969
 20
21.3105
 11
8.40918
 21
21.3301
  0
LINE
  8
0
 10
8.40918
 20
21.3301
 11
8.38867
 21
21.3486
  0
LINE
  8
0
 10
8.38867
 20
21.3486
 11
8.36816
 21
21.3682
  0
LINE
  8
0
 10
8.36816
 20
21.3682
 11
8.34863
 21
21.3887
  0
LINE
  8
0
 10
8.34863
 20
21.3887
 11
8.33008
 21
21.4092
  0
LINE
  8
0
 10
8.33008
 20
21.4092
 11
8.31055
 21
21.4297
  0
LINE
  8
0
 10
8.31055
 20
21.4297
 11
8.29199
 21
21.4502
  0
LINE
  8
0
 10
8.29199
 20
21.4502
 11
8.23926
 21
21.5146
  0
LINE
  8
0
 10
8.23926
 20
21.5146
 11
8.18945
 21
21.582
  0
LINE
  8
0
 10
8.18945
 20
21.582
 11
8.1582
 21
21.6289
  0
LINE
  8
0
 10
8.1582
 20
21.6289
 11
8.12891
 21
21.6758
  0
LINE
  8
0
 10
8.12891
 20
21.6758
 11
8.11426
 21
21.7002
  0
LINE
  8
0
 10
8.11426
 20
21.7002
 11
8.08691
 21
21.749
  0
LINE
  8
0
 10
8.08691
 20
21.749
 11
8.07422
 21
21.7734
  0
LINE
  8
0
 10
8.07422
 20
21.7734
 11
8.06152
 21
21.7988
  0
LINE
  8
0
 10
8.06152
 20
21.7988
 11
8.03809
 21
21.8496
  0
LINE
  8
0
 10
8.03809
 20
21.8496
 11
8.0166
 21
21.9004
  0
LINE
  8
0
 10
8.0166
 20
21.9004
 11
8.00586
 21
21.9268
  0
LINE
  8
0
 10
8.00586
 20
21.9268
 11
7.99609
 21
21.9531
  0
LINE
  8
0
 10
7.99609
 20
21.9531
 11
7.96973
 21
22.0322
  0
LINE
  8
0
 10
7.96973
 20
22.0322
 11
7.96191
 21
22.0586
  0
LINE
  8
0
 10
7.96191
 20
22.0586
 11
7.9541
 21
22.0859
  0
LINE
  8
0
 10
7.9541
 20
22.0859
 11
7.94727
 21
22.1133
  0
LINE
  8
0
 10
7.94727
 20
22.1133
 11
7.94141
 21
22.1396
  0
LINE
  8
0
 10
7.94141
 20
22.1396
 11
7.93457
 21
22.167
  0
LINE
  8
0
 10
7.93457
 20
22.167
 11
7.92969
 21
22.1943
  0
LINE
  8
0
 10
7.92969
 20
22.1943
 11
7.92383
 21
22.2217
  0
LINE
  8
0
 10
7.92383
 20
22.2217
 11
7.91992
 21
22.25
  0
LINE
  8
0
 10
7.91992
 20
22.25
 11
7.91211
 21
22.3047
  0
LINE
  8
0
 10
7.91211
 20
22.3047
 11
7.90918
 21
22.333
  0
LINE
  8
0
 10
7.90918
 20
22.333
 11
7.90625
 21
22.3604
  0
LINE
  8
0
 10
7.90625
 20
22.3604
 11
7.9043
 21
22.3887
  0
LINE
  8
0
 10
7.9043
 20
22.3887
 11
7.90234
 21
22.416
  0
LINE
  8
0
 10
7.90234
 20
22.416
 11
7.90039
 21
22.4717
  0
LINE
  8
0
 10
7.90039
 20
22.4717
 11
7.90039
 21
22.5283
  0
LINE
  8
0
 10
7.90039
 20
22.5283
 11
7.90234
 21
22.584
  0
LINE
  8
0
 10
7.90234
 20
22.584
 11
7.9043
 21
22.6113
  0
LINE
  8
0
 10
7.9043
 20
22.6113
 11
7.90625
 21
22.6396
  0
LINE
  8
0
 10
7.90625
 20
22.6396
 11
7.90918
 21
22.667
  0
LINE
  8
0
 10
7.90918
 20
22.667
 11
7.91211
 21
22.6953
  0
LINE
  8
0
 10
7.91211
 20
22.6953
 11
7.91992
 21
22.75
  0
LINE
  8
0
 10
7.91992
 20
22.75
 11
7.92383
 21
22.7783
  0
LINE
  8
0
 10
7.92383
 20
22.7783
 11
7.92969
 21
22.8057
  0
LINE
  8
0
 10
7.92969
 20
22.8057
 11
7.93457
 21
22.833
  0
LINE
  8
0
 10
7.93457
 20
22.833
 11
7.94141
 21
22.8604
  0
LINE
  8
0
 10
7.94141
 20
22.8604
 11
7.94727
 21
22.8867
  0
LINE
  8
0
 10
7.94727
 20
22.8867
 11
7.9541
 21
22.9141
  0
LINE
  8
0
 10
7.9541
 20
22.9141
 11
7.96191
 21
22.9414
  0
LINE
  8
0
 10
7.96191
 20
22.9414
 11
7.96973
 21
22.9678
  0
LINE
  8
0
 10
7.96973
 20
22.9678
 11
7.99609
 21
23.0469
  0
LINE
  8
0
 10
7.99609
 20
23.0469
 11
8.00586
 21
23.0732
  0
LINE
  8
0
 10
8.00586
 20
23.0732
 11
8.0166
 21
23.0996
  0
LINE
  8
0
 10
8.0166
 20
23.0996
 11
8.03809
 21
23.1504
  0
LINE
  8
0
 10
8.03809
 20
23.1504
 11
8.06152
 21
23.2012
  0
LINE
  8
0
 10
8.06152
 20
23.2012
 11
8.07422
 21
23.2266
  0
LINE
  8
0
 10
8.07422
 20
23.2266
 11
8.08691
 21
23.251
  0
LINE
  8
0
 10
8.08691
 20
23.251
 11
8.11426
 21
23.2998
  0
LINE
  8
0
 10
8.11426
 20
23.2998
 11
8.12891
 21
23.3242
  0
LINE
  8
0
 10
8.12891
 20
23.3242
 11
8.1582
 21
23.3711
  0
LINE
  8
0
 10
8.1582
 20
23.3711
 11
8.18945
 21
23.418
  0
LINE
  8
0
 10
8.18945
 20
23.418
 11
8.23926
 21
23.4854
  0
LINE
  8
0
 10
8.23926
 20
23.4854
 11
8.29199
 21
23.5498
  0
LINE
  8
0
 10
8.29199
 20
23.5498
 11
8.31055
 21
23.5703
  0
LINE
  8
0
 10
8.31055
 20
23.5703
 11
8.33008
 21
23.5908
  0
LINE
  8
0
 10
8.33008
 20
23.5908
 11
8.34863
 21
23.6113
  0
LINE
  8
0
 10
8.34863
 20
23.6113
 11
8.36816
 21
23.6318
  0
LINE
  8
0
 10
8.36816
 20
23.6318
 11
8.38867
 21
23.6514
  0
LINE
  8
0
 10
8.38867
 20
23.6514
 11
8.40918
 21
23.6699
  0
LINE
  8
0
 10
8.40918
 20
23.6699
 11
8.42969
 21
23.6895
  0
LINE
  8
0
 10
8.42969
 20
23.6895
 11
8.4502
 21
23.708
  0
LINE
  8
0
 10
8.4502
 20
23.708
 11
8.51465
 21
23.7607
  0
LINE
  8
0
 10
8.51465
 20
23.7607
 11
8.58203
 21
23.8105
  0
LINE
  8
0
 10
8.58203
 20
23.8105
 11
8.62891
 21
23.8418
  0
LINE
  8
0
 10
8.62891
 20
23.8418
 11
8.67578
 21
23.8711
  0
LINE
  8
0
 10
8.67578
 20
23.8711
 11
8.7002
 21
23.8857
  0
LINE
  8
0
 10
8.7002
 20
23.8857
 11
8.74902
 21
23.9131
  0
LINE
  8
0
 10
8.74902
 20
23.9131
 11
8.77344
 21
23.9258
  0
LINE
  8
0
 10
8.77344
 20
23.9258
 11
8.79883
 21
23.9385
  0
LINE
  8
0
 10
8.79883
 20
23.9385
 11
8.84961
 21
23.9619
  0
LINE
  8
0
 10
8.84961
 20
23.9619
 11
8.90039
 21
23.9834
  0
LINE
  8
0
 10
8.90039
 20
23.9834
 11
8.92676
 21
23.9941
  0
LINE
  8
0
 10
8.92676
 20
23.9941
 11
8.95312
 21
24.0039
  0
LINE
  8
0
 10
8.95312
 20
24.0039
 11
9.03223
 21
24.0303
  0
LINE
  8
0
 10
9.03223
 20
24.0303
 11
9.05859
 21
24.0381
  0
LINE
  8
0
 10
9.05859
 20
24.0381
 11
9.08594
 21
24.0459
  0
LINE
  8
0
 10
9.08594
 20
24.0459
 11
9.11328
 21
24.0527
  0
LINE
  8
0
 10
9.11328
 20
24.0527
 11
9.13965
 21
24.0586
  0
LINE
  8
0
 10
9.13965
 20
24.0586
 11
9.16699
 21
24.0654
  0
LINE
  8
0
 10
9.16699
 20
24.0654
 11
9.19434
 21
24.0703
  0
LINE
  8
0
 10
9.19434
 20
24.0703
 11
9.22168
 21
24.0762
  0
LINE
  8
0
 10
9.22168
 20
24.0762
 11
9.25
 21
24.0801
  0
LINE
  8
0
 10
9.25
 20
24.0801
 11
9.30469
 21
24.0879
  0
LINE
  8
0
 10
9.30469
 20
24.0879
 11
9.33301
 21
24.0908
  0
LINE
  8
0
 10
9.33301
 20
24.0908
 11
9.36035
 21
24.0938
  0
LINE
  8
0
 10
9.36035
 20
24.0938
 11
9.38867
 21
24.0957
  0
LINE
  8
0
 10
9.38867
 20
24.0957
 11
9.41602
 21
24.0977
  0
LINE
  8
0
 10
9.41602
 20
24.0977
 11
9.47168
 21
24.0996
  0
LINE
  8
0
 10
9.47168
 20
24.0996
 11
9.52832
 21
24.0996
  0
LINE
  8
0
 10
9.52832
 20
24.0996
 11
9.58398
 21
24.0977
  0
LINE
  8
0
 10
9.58398
 20
24.0977
 11
9.61133
 21
24.0957
  0
LINE
  8
0
 10
9.61133
 20
24.0957
 11
9.63965
 21
24.0938
  0
LINE
  8
0
 10
9.63965
 20
24.0938
 11
9.66699
 21
24.0908
  0
LINE
  8
0
 10
9.66699
 20
24.0908
 11
9.69531
 21
24.0879
  0
LINE
  8
0
 10
9.69531
 20
24.0879
 11
9.75
 21
24.0801
  0
LINE
  8
0
 10
9.75
 20
24.0801
 11
9.77832
 21
24.0762
  0
LINE
  8
0
 10
9.77832
 20
24.0762
 11
9.80566
 21
24.0703
  0
LINE
  8
0
 10
9.80566
 20
24.0703
 11
9.83301
 21
24.0654
  0
LINE
  8
0
 10
9.83301
 20
24.0654
 11
9.86035
 21
24.0586
  0
LINE
  8
0
 10
9.86035
 20
24.0586
 11
9.88672
 21
24.0527
  0
LINE
  8
0
 10
9.88672
 20
24.0527
 11
9.91406
 21
24.0459
  0
LINE
  8
0
 10
9.91406
 20
24.0459
 11
9.94141
 21
24.0381
  0
LINE
  8
0
 10
9.94141
 20
24.0381
 11
9.96777
 21
24.0303
  0
LINE
  8
0
 10
9.96777
 20
24.0303
 11
10.0469
 21
24.0039
  0
LINE
  8
0
 10
10.0469
 20
24.0039
 11
10.0732
 21
23.9941
  0
LINE
  8
0
 10
10.0732
 20
23.9941
 11
10.0996
 21
23.9834
  0
LINE
  8
0
 10
10.0996
 20
23.9834
 11
10.1504
 21
23.9619
  0
LINE
  8
0
 10
10.1504
 20
23.9619
 11
10.2012
 21
23.9385
  0
LINE
  8
0
 10
10.2012
 20
23.9385
 11
10.2266
 21
23.9258
  0
LINE
  8
0
 10
10.2266
 20
23.9258
 11
10.251
 21
23.9131
  0
LINE
  8
0
 10
10.251
 20
23.9131
 11
10.2998
 21
23.8857
  0
LINE
  8
0
 10
10.2998
 20
23.8857
 11
10.3242
 21
23.8711
  0
LINE
  8
0
 10
10.3242
 20
23.8711
 11
10.3711
 21
23.8418
  0
LINE
  8
0
 10
10.3711
 20
23.8418
 11
10.418
 21
23.8105
  0
LINE
  8
0
 10
10.418
 20
23.8105
 11
10.4854
 21
23.7607
  0
LINE
  8
0
 10
10.4854
 20
23.7607
 11
10.5498
 21
23.708
  0
LINE
  8
0
 10
10.5498
 20
23.708
 11
10.5703
 21
23.6895
  0
LINE
  8
0
 10
10.5703
 20
23.6895
 11
10.5908
 21
23.6699
  0
LINE
  8
0
 10
10.5908
 20
23.6699
 11
10.6113
 21
23.6514
  0
LINE
  8
0
 10
10.6113
 20
23.6514
 11
10.6318
 21
23.6318
  0
LINE
  8
0
 10
10.6318
 20
23.6318
 11
10.6514
 21
23.6113
  0
LINE
  8
0
 10
10.6514
 20
23.6113
 11
10.6699
 21
23.5908
  0
LINE
  8
0
 10
10.6699
 20
23.5908
 11
10.6895
 21
23.5703
  0
LINE
  8
0
 10
10.6895
 20
23.5703
 11
10.708
 21
23.5498
  0
LINE
  8
0
 10
10.708
 20
23.5498
 11
10.7607
 21
23.4854
  0
LINE
  8
0
 10
10.7607
 20
23.4854
 11
10.8105
 21
23.418
  0
LINE
  8
0
 10
10.8105
 20
23.418
 11
10.8418
 21
23.3711
  0
LINE
  8
0
 10
10.8418
 20
23.3711
 11
10.8711
 21
23.3242
  0
LINE
  8
0
 10
10.8711
 20
23.3242
 11
10.8857
 21
23.2998
  0
LINE
  8
0
 10
10.8857
 20
23.2998
 11
10.9131
 21
23.251
  0
LINE
  8
0
 10
10.9131
 20
23.251
 11
10.9258
 21
23.2266
  0
LINE
  8
0
 10
10.9258
 20
23.2266
 11
10.9385
 21
23.2012
  0
LINE
  8
0
 10
10.9385
 20
23.2012
 11
10.9619
 21
23.1504
  0
LINE
  8
0
 10
10.9619
 20
23.1504
 11
10.9834
 21
23.0996
  0
LINE
  8
0
 10
10.9834
 20
23.0996
 11
10.9941
 21
23.0732
  0
LINE
  8
0
 10
10.9941
 20
23.0732
 11
11.0039
 21
23.0469
  0
LINE
  8
0
 10
11.0039
 20
23.0469
 11
11.0303
 21
22.9678
  0
LINE
  8
0
 10
11.0303
 20
22.9678
 11
11.0381
 21
22.9414
  0
LINE
  8
0
 10
11.0381
 20
22.9414
 11
11.0459
 21
22.9141
  0
LINE
  8
0
 10
11.0459
 20
22.9141
 11
11.0527
 21
22.8867
  0
LINE
  8
0
 10
11.0527
 20
22.8867
 11
11.0586
 21
22.8604
  0
LINE
  8
0
 10
11.0586
 20
22.8604
 11
11.0654
 21
22.833
  0
LINE
  8
0
 10
11.0654
 20
22.833
 11
11.0703
 21
22.8057
  0
LINE
  8
0
 10
11.0703
 20
22.8057
 11
11.0762
 21
22.7783
  0
LINE
  8
0
 10
11.0762
 20
22.7783
 11
11.0801
 21
22.75
  0
LINE
  8
0
 10
11.0801
 20
22.75
 11
11.0879
 21
22.6953
  0
LINE
  8
0
 10
11.0879
 20
22.6953
 11
11.0908
 21
22.667
  0
LINE
  8
0
 10
11.0908
 20
22.667
 11
11.0938
 21
22.6396
  0
LINE
  8
0
 10
11.0938
 20
22.6396
 11
11.0957
 21
22.6113
  0
LINE
  8
0
 10
11.0957
 20
22.6113
 11
11.0977
 21
22.584
  0
LINE
  8
0
 10
11.0977
 20
22.584
 11
11.0996
 21
22.5283
  0
LINE
  8
0
 10
11.0996
 20
22.5283
 11
11.0996
 21
22.4717
  0
LINE
  8
0
 10
11.0996
 20
22.4717
 11
11.0977
 21
22.416
  0
LINE
  8
0
 10
11.0977
 20
22.416
 11
11.0957
 21
22.3887
  0
LINE
  8
0
 10
11.0957
 20
22.3887
 11
11.0938
 21
22.3604
  0
LINE
  8
0
 10
11.0938
 20
22.3604
 11
11.0908
 21
22.333
  0
LINE
  8
0
 10
11.0908
 20
22.333
 11
11.0879
 21
22.3047
  0
LINE
  8
0
 10
11.0879
 20
22.3047
 11
11.0801
 21
22.25
  0
LINE
  8
0
 10
11.0801
 20
22.25
 11
11.0762
 21
22.2217
  0
LINE
  8
0
 10
11.0762
 20
22.2217
 11
11.0703
 21
22.1943
  0
LINE
  8
0
 10
11.0703
 20
22.1943
 11
11.0654
 21
22.167
  0
LINE
  8
0
 10
11.0654
 20
22.167
 11
11.0586
 21
22.1396
  0
LINE
  8
0
 10
11.0586
 20
22.1396
 11
11.0527
 21
22.1133
  0
LINE
  8
0
 10
11.0527
 20
22.1133
 11
11.0459
 21
22.0859
  0
LINE
  8
0
 10
11.0459
 20
22.0859
 11
11.0381
 21
22.0586
  0
LINE
  8
0
 10
11.0381
 20
22.0586
 11
11.0303
 21
22.0322
  0
LINE
  8
0
 10
11.0303
 20
22.0322
 11
11.0039
 21
21.9531
  0
LINE
  8
0
 10
11.0039
 20
21.9531
 11
10.9941
 21
21.9268
  0
LINE
  8
0
 10
10.9941
 20
21.9268
 11
10.9834
 21
21.9004
  0
LINE
  8
0
 10
10.9834
 20
21.9004
 11
10.9619
 21
21.8496
  0
LINE
  8
0
 10
10.9619
 20
21.8496
 11
10.9385
 21
21.7988
  0
LINE
  8
0
 10
10.9385
 20
21.7988
 11
10.9258
 21
21.7734
  0
LINE
  8
0
 10
10.9258
 20
21.7734
 11
10.9131
 21
21.749
  0
LINE
  8
0
 10
10.9131
 20
21.749
 11
10.8857
 21
21.7002
  0
LINE
  8
0
 10
10.8857
 20
21.7002
 11
10.8711
 21
21.6758
  0
LINE
  8
0
 10
10.8711
 20
21.6758
 11
10.8418
 21
21.6289
  0
LINE
  8
0
 10
10.8418
 20
21.6289
 11
10.8105
 21
21.582
  0
LINE
  8
0
 10
10.8105
 20
21.582
 11
10.7607
 21
21.5146
  0
LINE
  8
0
 10
10.7607
 20
21.5146
 11
10.708
 21
21.4502
  0
LINE
  8
0
 10
10.708
 20
21.4502
 11
10.6895
 21
21.4297
  0
LINE
  8
0
 10
10.6895
 20
21.4297
 11
10.6699
 21
21.4092
  0
LINE
  8
0
 10
10.6699
 20
21.4092
 11
10.6514
 21
21.3887
  0
LINE
  8
0
 10
10.6514
 20
21.3887
 11
10.6318
 21
21.3682
  0
LINE
  8
0
 10
10.6318
 20
21.3682
 11
10.6113
 21
21.3486
  0
LINE
  8
0
 10
10.6113
 20
21.3486
 11
10.5908
 21
21.3301
  0
LINE
  8
0
 10
10.5908
 20
21.3301
 11
10.5703
 21
21.3105
  0
LINE
  8
0
 10
10.5703
 20
21.3105
 11
10.5498
 21
21.292
  0
LINE
  8
0
 10
10.5498
 20
21.292
 11
10.4854
 21
21.2393
  0
LINE
  8
0
 10
10.4854
 20
21.2393
 11
10.418
 21
21.1895
  0
LINE
  8
0
 10
10.418
 20
21.1895
 11
10.3711
 21
21.1582
  0
LINE
  8
0
 10
10.3711
 20
21.1582
 11
10.3242
 21
21.1289
  0
LINE
  8
0
 10
10.3242
 20
21.1289
 11
10.2998
 21
21.1143
  0
LINE
  8
0
 10
10.2998
 20
21.1143
 11
10.251
 21
21.0869
  0
LINE
  8
0
 10
10.251
 20
21.0869
 11
10.2266
 21
21.0742
  0
LINE
  8
0
 10
10.2266
 20
21.0742
 11
10.2012
 21
21.0615
  0
LINE
  8
0
 10
10.2012
 20
21.0615
 11
10.1504
 21
21.0381
  0
LINE
  8
0
 10
10.1504
 20
21.0381
 11
10.0996
 21
21.0166
  0
LINE
  8
0
 10
10.0996
 20
21.0166
 11
10.0732
 21
21.0059
  0
LINE
  8
0
 10
10.0732
 20
21.0059
 11
10.0469
 21
20.9961
  0
LINE
  8
0
 10
10.0469
 20
20.9961
 11
9.96777
 21
20.9697
  0
LINE
  8
0
 10
9.96777
 20
20.9697
 11
9.94141
 21
20.9619
  0
LINE
  8
0
 10
9.94141
 20
20.9619
 11
9.91406
 21
20.9541
  0
LINE
  8
0
 10
9.91406
 20
20.9541
 11
9.88672
 21
20.9473
  0
LINE
  8
0
 10
9.88672
 20
20.9473
 11
9.86035
 21
20.9414
  0
LINE
  8
0
 10
9.86035
 20
20.9414
 11
9.83301
 21
20.9346
  0
LINE
  8
0
 10
9.83301
 20
20.9346
 11
9.80566
 21
20.9297
  0
LINE
  8
0
 10
9.80566
 20
20.9297
 11
9.77832
 21
20.9238
  0
LINE
  8
0
 10
9.77832
 20
20.9238
 11
9.75
 21
20.9199
  0
LINE
  8
0
 10
9.75
 20
20.9199
 11
9.69531
 21
20.9121
  0
LINE
  8
0
 10
9.69531
 20
20.9121
 11
9.66699
 21
20.9092
  0
LINE
  8
0
 10
9.66699
 20
20.9092
 11
9.63965
 21
20.9062
  0
LINE
  8
0
 10
9.63965
 20
20.9062
 11
9.61133
 21
20.9043
  0
LINE
  8
0
 10
9.61133
 20
20.9043
 11
9.58398
 21
20.9023
  0
LINE
  8
0
 10
9.58398
 20
20.9023
 11
9.52832
 21
20.9004
  0
LINE
  8
0
 10
9.52832
 20
20.9004
 11
9.47168
 21
20.9004
  0
LINE
  8
0
 10
91.9717
 20
20.9004
 11
91.916
 21
20.9023
  0
LINE
  8
0
 10
91.916
 20
20.9023
 11
91.8887
 21
20.9043
  0
LINE
  8
0
 10
91.8887
 20
20.9043
 11
91.8604
 21
20.9062
  0
LINE
  8
0
 10
91.8604
 20
20.9062
 11
91.833
 21
20.9092
  0
LINE
  8
0
 10
91.833
 20
20.9092
 11
91.8047
 21
20.9121
  0
LINE
  8
0
 10
91.8047
 20
20.9121
 11
91.75
 21
20.9199
  0
LINE
  8
0
 10
91.75
 20
20.9199
 11
91.7217
 21
20.9238
  0
LINE
  8
0
 10
91.7217
 20
20.9238
 11
91.6943
 21
20.9297
  0
LINE
  8
0
 10
91.6943
 20
20.9297
 11
91.667
 21
20.9346
  0
LINE
  8
0
 10
91.667
 20
20.9346
 11
91.6396
 21
20.9414
  0
LINE
  8
0
 10
91.6396
 20
20.9414
 11
91.6133
 21
20.9473
  0
LINE
  8
0
 10
91.6133
 20
20.9473
 11
91.5859
 21
20.9541
  0
LINE
  8
0
 10
91.5859
 20
20.9541
 11
91.5586
 21
20.9619
  0
LINE
  8
0
 10
91.5586
 20
20.9619
 11
91.5322
 21
20.9697
  0
LINE
  8
0
 10
91.5322
 20
20.9697
 11
91.4531
 21
20.9961
  0
LINE
  8
0
 10
91.4531
 20
20.9961
 11
91.4268
 21
21.0059
  0
LINE
  8
0
 10
91.4268
 20
21.0059
 11
91.4004
 21
21.0166
  0
LINE
  8
0
 10
91.4004
 20
21.0166
 11
91.3496
 21
21.0381
  0
LINE
  8
0
 10
91.3496
 20
21.0381
 11
91.2988
 21
21.0615
  0
LINE
  8
0
 10
91.2988
 20
21.0615
 11
91.2734
 21
21.0742
  0
LINE
  8
0
 10
91.2734
 20
21.0742
 11
91.249
 21
21.0869
  0
LINE
  8
0
 10
91.249
 20
21.0869
 11
91.2002
 21
21.1143
  0
LINE
  8
0
 10
91.2002
 20
21.1143
 11
91.1758
 21
21.1289
  0
LINE
  8
0
 10
91.1758
 20
21.1289
 11
91.1289
 21
21.1582
  0
LINE
  8
0
 10
91.1289
 20
21.1582
 11
91.082
 21
21.1895
  0
LINE
  8
0
 10
91.082
 20
21.1895
 11
91.0146
 21
21.2393
  0
LINE
  8
0
 10
91.0146
 20
21.2393
 11
90.9502
 21
21.292
  0
LINE
  8
0
 10
90.9502
 20
21.292
 11
90.9297
 21
21.3105
  0
LINE
  8
0
 10
90.9297
 20
21.3105
 11
90.9092
 21
21.3301
  0
LINE
  8
0
 10
90.9092
 20
21.3301
 11
90.8887
 21
21.3486
  0
LINE
  8
0
 10
90.8887
 20
21.3486
 11
90.8682
 21
21.3682
  0
LINE
  8
0
 10
90.8682
 20
21.3682
 11
90.8486
 21
21.3887
  0
LINE
  8
0
 10
90.8486
 20
21.3887
 11
90.8301
 21
21.4092
  0
LINE
  8
0
 10
90.8301
 20
21.4092
 11
90.8105
 21
21.4297
  0
LINE
  8
0
 10
90.8105
 20
21.4297
 11
90.792
 21
21.4502
  0
LINE
  8
0
 10
90.792
 20
21.4502
 11
90.7393
 21
21.5146
  0
LINE
  8
0
 10
90.7393
 20
21.5146
 11
90.6895
 21
21.582
  0
LINE
  8
0
 10
90.6895
 20
21.582
 11
90.6582
 21
21.6289
  0
LINE
  8
0
 10
90.6582
 20
21.6289
 11
90.6289
 21
21.6758
  0
LINE
  8
0
 10
90.6289
 20
21.6758
 11
90.6143
 21
21.7002
  0
LINE
  8
0
 10
90.6143
 20
21.7002
 11
90.5869
 21
21.749
  0
LINE
  8
0
 10
90.5869
 20
21.749
 11
90.5742
 21
21.7734
  0
LINE
  8
0
 10
90.5742
 20
21.7734
 11
90.5615
 21
21.7988
  0
LINE
  8
0
 10
90.5615
 20
21.7988
 11
90.5381
 21
21.8496
  0
LINE
  8
0
 10
90.5381
 20
21.8496
 11
90.5166
 21
21.9004
  0
LINE
  8
0
 10
90.5166
 20
21.9004
 11
90.5059
 21
21.9268
  0
LINE
  8
0
 10
90.5059
 20
21.9268
 11
90.4961
 21
21.9531
  0
LINE
  8
0
 10
90.4961
 20
21.9531
 11
90.4697
 21
22.0322
  0
LINE
  8
0
 10
90.4697
 20
22.0322
 11
90.4619
 21
22.0586
  0
LINE
  8
0
 10
90.4619
 20
22.0586
 11
90.4541
 21
22.0859
  0
LINE
  8
0
 10
90.4541
 20
22.0859
 11
90.4473
 21
22.1133
  0
LINE
  8
0
 10
90.4473
 20
22.1133
 11
90.4414
 21
22.1396
  0
LINE
  8
0
 10
90.4414
 20
22.1396
 11
90.4346
 21
22.167
  0
LINE
  8
0
 10
90.4346
 20
22.167
 11
90.4297
 21
22.1943
  0
LINE
  8
0
 10
90.4297
 20
22.1943
 11
90.4238
 21
22.2217
  0
LINE
  8
0
 10
90.4238
 20
22.2217
 11
90.4199
 21
22.25
  0
LINE
  8
0
 10
90.4199
 20
22.25
 11
90.4121
 21
22.3047
  0
LINE
  8
0
 10
90.4121
 20
22.3047
 11
90.4092
 21
22.333
  0
LINE
  8
0
 10
90.4092
 20
22.333
 11
90.4062
 21
22.3604
  0
LINE
  8
0
 10
90.4062
 20
22.3604
 11
90.4043
 21
22.3887
  0
LINE
  8
0
 10
90.4043
 20
22.3887
 11
90.4023
 21
22.416
  0
LINE
  8
0
 10
90.4023
 20
22.416
 11
90.4004
 21
22.4717
  0
LINE
  8
0
 10
90.4004
 20
22.4717
 11
90.4004
 21
22.5283
  0
LINE
  8
0
 10
90.4004
 20
22.5283
 11
90.4023
 21
22.584
  0
LINE
  8
0
 10
90.4023
 20
22.584
 11
90.4043
 21
22.6113
  0
LINE
  8
0
 10
90.4043
 20
22.6113
 11
90.4062
 21
22.6396
  0
LINE
  8
0
 10
90.4062
 20
22.6396
 11
90.4092
 21
22.667
  0
LINE
  8
0
 10
90.4092
 20
22.667
 11
90.4121
 21
22.6953
  0
LINE
  8
0
 10
90.4121
 20
22.6953
 11
90.4199
 21
22.75
  0
LINE
  8
0
 10
90.4199
 20
22.75
 11
90.4238
 21
22.7783
  0
LINE
  8
0
 10
90.4238
 20
22.7783
 11
90.4297
 21
22.8057
  0
LINE
  8
0
 10
90.4297
 20
22.8057
 11
90.4346
 21
22.833
  0
LINE
  8
0
 10
90.4346
 20
22.833
 11
90.4414
 21
22.8604
  0
LINE
  8
0
 10
90.4414
 20
22.8604
 11
90.4473
 21
22.8867
  0
LINE
  8
0
 10
90.4473
 20
22.8867
 11
90.4541
 21
22.9141
  0
LINE
  8
0
 10
90.4541
 20
22.9141
 11
90.4619
 21
22.9414
  0
LINE
  8
0
 10
90.4619
 20
22.9414
 11
90.4697
 21
22.9678
  0
LINE
  8
0
 10
90.4697
 20
22.9678
 11
90.4961
 21
23.0469
  0
LINE
  8
0
 10
90.4961
 20
23.0469
 11
90.5059
 21
23.0732
  0
LINE
  8
0
 10
90.5059
 20
23.0732
 11
90.5166
 21
23.0996
  0
LINE
  8
0
 10
90.5166
 20
23.0996
 11
90.5381
 21
23.1504
  0
LINE
  8
0
 10
90.5381
 20
23.1504
 11
90.5615
 21
23.2012
  0
LINE
  8
0
 10
90.5615
 20
23.2012
 11
90.5742
 21
23.2266
  0
LINE
  8
0
 10
90.5742
 20
23.2266
 11
90.5869
 21
23.251
  0
LINE
  8
0
 10
90.5869
 20
23.251
 11
90.6143
 21
23.2998
  0
LINE
  8
0
 10
90.6143
 20
23.2998
 11
90.6289
 21
23.3242
  0
LINE
  8
0
 10
90.6289
 20
23.3242
 11
90.6582
 21
23.3711
  0
LINE
  8
0
 10
90.6582
 20
23.3711
 11
90.6895
 21
23.418
  0
LINE
  8
0
 10
90.6895
 20
23.418
 11
90.7393
 21
23.4854
  0
LINE
  8
0
 10
90.7393
 20
23.4854
 11
90.792
 21
23.5498
  0
LINE
  8
0
 10
90.792
 20
23.5498
 11
90.8105
 21
23.5703
  0
LINE
  8
0
 10
90.8105
 20
23.5703
 11
90.8301
 21
23.5908
  0
LINE
  8
0
 10
90.8301
 20
23.5908
 11
90.8486
 21
23.6113
  0
LINE
  8
0
 10
90.8486
 20
23.6113
 11
90.8682
 21
23.6318
  0
LINE
  8
0
 10
90.8682
 20
23.6318
 11
90.8887
 21
23.6514
  0
LINE
  8
0
 10
90.8887
 20
23.6514
 11
90.9092
 21
23.6699
  0
LINE
  8
0
 10
90.9092
 20
23.6699
 11
90.9297
 21
23.6895
  0
LINE
  8
0
 10
90.9297
 20
23.6895
 11
90.9502
 21
23.708
  0
LINE
  8
0
 10
90.9502
 20
23.708
 11
91.0146
 21
23.7607
  0
LINE
  8
0
 10
91.0146
 20
23.7607
 11
91.082
 21
23.8105
  0
LINE
  8
0
 10
91.082
 20
23.8105
 11
91.1289
 21
23.8418
  0
LINE
  8
0
 10
91.1289
 20
23.8418
 11
91.1758
 21
23.8711
  0
LINE
  8
0
 10
91.1758
 20
23.8711
 11
91.2002
 21
23.8857
  0
LINE
  8
0
 10
91.2002
 20
23.8857
 11
91.249
 21
23.9131
  0
LINE
  8
0
 10
91.249
 20
23.9131
 11
91.2734
 21
23.9258
  0
LINE
  8
0
 10
91.2734
 20
23.9258
 11
91.2988
 21
23.9385
  0
LINE
  8
0
 10
91.2988
 20
23.9385
 11
91.3496
 21
23.9619
  0
LINE
  8
0
 10
91.3496
 20
23.9619
 11
91.4004
 21
23.9834
  0
LINE
  8
0
 10
91.4004
 20
23.9834
 11
91.4268
 21
23.9941
  0
LINE
  8
0
 10
91.4268
 20
23.9941
 11
91.4531
 21
24.0039
  0
LINE
  8
0
 10
91.4531
 20
24.0039
 11
91.5322
 21
24.0303
  0
LINE
  8
0
 10
91.5322
 20
24.0303
 11
91.5586
 21
24.0381
  0
LINE
  8
0
 10
91.5586
 20
24.0381
 11
91.5859
 21
24.0459
  0
LINE
  8
0
 10
91.5859
 20
24.0459
 11
91.6133
 21
24.0527
  0
LINE
  8
0
 10
91.6133
 20
24.0527
 11
91.6396
 21
24.0586
  0
LINE
  8
0
 10
91.6396
 20
24.0586
 11
91.667
 21
24.0654
  0
LINE
  8
0
 10
91.667
 20
24.0654
 11
91.6943
 21
24.0703
  0
LINE
  8
0
 10
91.6943
 20
24.0703
 11
91.7217
 21
24.0762
  0
LINE
  8
0
 10
91.7217
 20
24.0762
 11
91.75
 21
24.0801
  0
LINE
  8
0
 10
91.75
 20
24.0801
 11
91.8047
 21
24.0879
  0
LINE
  8
0
 10
91.8047
 20
24.0879
 11
91.833
 21
24.0908
  0
LINE
  8
0
 10
91.833
 20
24.0908
 11
91.8604
 21
24.0938
  0
LINE
  8
0
 10
91.8604
 20
24.0938
 11
91.8887
 21
24.0957
  0
LINE
  8
0
 10
91.8887
 20
24.0957
 11
91.916
 21
24.0977
  0
LINE
  8
0
 10
91.916
 20
24.0977
 11
91.9717
 21
24.0996
  0
LINE
  8
0
 10
91.9717
 20
24.0996
 11
92.0283
 21
24.0996
  0
LINE
  8
0
 10
92.0283
 20
24.0996
 11
92.084
 21
24.0977
  0
LINE
  8
0
 10
92.084
 20
24.0977
 11
92.1113
 21
24.0957
  0
LINE
  8
0
 10
92.1113
 20
24.0957
 11
92.1396
 21
24.0938
  0
LINE
  8
0
 10
92.1396
 20
24.0938
 11
92.167
 21
24.0908
  0
LINE
  8
0
 10
92.167
 20
24.0908
 11
92.1953
 21
24.0879
  0
LINE
  8
0
 10
92.1953
 20
24.0879
 11
92.25
 21
24.0801
  0
LINE
  8
0
 10
92.25
 20
24.0801
 11
92.2783
 21
24.0762
  0
LINE
  8
0
 10
92.2783
 20
24.0762
 11
92.3057
 21
24.0703
  0
LINE
  8
0
 10
92.3057
 20
24.0703
 11
92.333
 21
24.0654
  0
LINE
  8
0
 10
92.333
 20
24.0654
 11
92.3604
 21
24.0586
  0
LINE
  8
0
 10
92.3604
 20
24.0586
 11
92.3867
 21
24.0527
  0
LINE
  8
0
 10
92.3867
 20
24.0527
 11
92.4141
 21
24.0459
  0
LINE
  8
0
 10
92.4141
 20
24.0459
 11
92.4414
 21
24.0381
  0
LINE
  8
0
 10
92.4414
 20
24.0381
 11
92.4678
 21
24.0303
  0
LINE
  8
0
 10
92.4678
 20
24.0303
 11
92.5469
 21
24.0039
  0
LINE
  8
0
 10
92.5469
 20
24.0039
 11
92.5732
 21
23.9941
  0
LINE
  8
0
 10
92.5732
 20
23.9941
 11
92.5996
 21
23.9834
  0
LINE
  8
0
 10
92.5996
 20
23.9834
 11
92.6504
 21
23.9619
  0
LINE
  8
0
 10
92.6504
 20
23.9619
 11
92.7012
 21
23.9385
  0
LINE
  8
0
 10
92.7012
 20
23.9385
 11
92.7266
 21
23.9258
  0
LINE
  8
0
 10
92.7266
 20
23.9258
 11
92.751
 21
23.9131
  0
LINE
  8
0
 10
92.751
 20
23.9131
 11
92.7998
 21
23.8857
  0
LINE
  8
0
 10
92.7998
 20
23.8857
 11
92.8242
 21
23.8711
  0
LINE
  8
0
 10
92.8242
 20
23.8711
 11
92.8711
 21
23.8418
  0
LINE
  8
0
 10
92.8711
 20
23.8418
 11
92.918
 21
23.8105
  0
LINE
  8
0
 10
92.918
 20
23.8105
 11
92.9854
 21
23.7607
  0
LINE
  8
0
 10
92.9854
 20
23.7607
 11
93.0498
 21
23.708
  0
LINE
  8
0
 10
93.0498
 20
23.708
 11
93.0703
 21
23.6895
  0
LINE
  8
0
 10
93.0703
 20
23.6895
 11
93.0908
 21
23.6699
  0
LINE
  8
0
 10
93.0908
 20
23.6699
 11
93.1113
 21
23.6514
  0
LINE
  8
0
 10
93.1113
 20
23.6514
 11
93.1318
 21
23.6318
  0
LINE
  8
0
 10
93.1318
 20
23.6318
 11
93.1514
 21
23.6113
  0
LINE
  8
0
 10
93.1514
 20
23.6113
 11
93.1699
 21
23.5908
  0
LINE
  8
0
 10
93.1699
 20
23.5908
 11
93.1895
 21
23.5703
  0
LINE
  8
0
 10
93.1895
 20
23.5703
 11
93.208
 21
23.5498
  0
LINE
  8
0
 10
93.208
 20
23.5498
 11
93.2607
 21
23.4854
  0
LINE
  8
0
 10
93.2607
 20
23.4854
 11
93.3105
 21
23.418
  0
LINE
  8
0
 10
93.3105
 20
23.418
 11
93.3418
 21
23.3711
  0
LINE
  8
0
 10
93.3418
 20
23.3711
 11
93.3711
 21
23.3242
  0
LINE
  8
0
 10
93.3711
 20
23.3242
 11
93.3857
 21
23.2998
  0
LINE
  8
0
 10
93.3857
 20
23.2998
 11
93.4131
 21
23.251
  0
LINE
  8
0
 10
93.4131
 20
23.251
 11
93.4258
 21
23.2266
  0
LINE
  8
0
 10
93.4258
 20
23.2266
 11
93.4385
 21
23.2012
  0
LINE
  8
0
 10
93.4385
 20
23.2012
 11
93.4619
 21
23.1504
  0
LINE
  8
0
 10
93.4619
 20
23.1504
 11
93.4834
 21
23.0996
  0
LINE
  8
0
 10
93.4834
 20
23.0996
 11
93.4941
 21
23.0732
  0
LINE
  8
0
 10
93.4941
 20
23.0732
 11
93.5039
 21
23.0469
  0
LINE
  8
0
 10
93.5039
 20
23.0469
 11
93.5303
 21
22.9678
  0
LINE
  8
0
 10
93.5303
 20
22.9678
 11
93.5381
 21
22.9414
  0
LINE
  8
0
 10
93.5381
 20
22.9414
 11
93.5459
 21
22.9141
  0
LINE
  8
0
 10
93.5459
 20
22.9141
 11
93.5527
 21
22.8867
  0
LINE
  8
0
 10
93.5527
 20
22.8867
 11
93.5586
 21
22.8604
  0
LINE
  8
0
 10
93.5586
 20
22.8604
 11
93.5654
 21
22.833
  0
LINE
  8
0
 10
93.5654
 20
22.833
 11
93.5703
 21
22.8057
  0
LINE
  8
0
 10
93.5703
 20
22.8057
 11
93.5762
 21
22.7783
  0
LINE
  8
0
 10
93.5762
 20
22.7783
 11
93.5801
 21
22.75
  0
LINE
  8
0
 10
93.5801
 20
22.75
 11
93.5879
 21
22.6953
  0
LINE
  8
0
 10
93.5879
 20
22.6953
 11
93.5908
 21
22.667
  0
LINE
  8
0
 10
93.5908
 20
22.667
 11
93.5938
 21
22.6396
  0
LINE
  8
0
 10
93.5938
 20
22.6396
 11
93.5957
 21
22.6113
  0
LINE
  8
0
 10
93.5957
 20
22.6113
 11
93.5977
 21
22.584
  0
LINE
  8
0
 10
93.5977
 20
22.584
 11
93.5996
 21
22.5283
  0
LINE
  8
0
 10
93.5996
 20
22.5283
 11
93.5996
 21
22.4717
  0
LINE
  8
0
 10
93.5996
 20
22.4717
 11
93.5977
 21
22.416
  0
LINE
  8
0
 10
93.5977
 20
22.416
 11
93.5957
 21
22.3887
  0
LINE
  8
0
 10
93.5957
 20
22.3887
 11
93.5938
 21
22.3604
  0
LINE
  8
0
 10
93.5938
 20
22.3604
 11
93.5908
 21
22.333
  0
LINE
  8
0
 10
93.5908
 20
22.333
 11
93.5879
 21
22.3047
  0
LINE
  8
0
 10
93.5879
 20
22.3047
 11
93.5801
 21
22.25
  0
LINE
  8
0
 10
93.5801
 20
22.25
 11
93.5762
 21
22.2217
  0
LINE
  8
0
 10
93.5762
 20
22.2217
 11
93.5703
 21
22.1943
  0
LINE
  8
0
 10
93.5703
 20
22.1943
 11
93.5654
 21
22.167
  0
LINE
  8
0
 10
93.5654
 20
22.167
 11
93.5586
 21
22.1396
  0
LINE
  8
0
 10
93.5586
 20
22.1396
 11
93.5527
 21
22.1133
  0
LINE
  8
0
 10
93.5527
 20
22.1133
 11
93.5459
 21
22.0859
  0
LINE
  8
0
 10
93.5459
 20
22.0859
 11
93.5381
 21
22.0586
  0
LINE
  8
0
 10
93.5381
 20
22.0586
 11
93.5303
 21
22.0322
  0
LINE
  8
0
 10
93.5303
 20
22.0322
 11
93.5039
 21
21.9531
  0
LINE
  8
0
 10
93.5039
 20
21.9531
 11
93.4941
 21
21.9268
  0
LINE
  8
0
 10
93.4941
 20
21.9268
 11
93.4834
 21
21.9004
  0
LINE
  8
0
 10
93.4834
 20
21.9004
 11
93.4619
 21
21.8496
  0
LINE
  8
0
 10
93.4619
 20
21.8496
 11
93.4385
 21
21.7988
  0
LINE
  8
0
 10
93.4385
 20
21.7988
 11
93.4258
 21
21.7734
  0
LINE
  8
0
 10
93.4258
 20
21.7734
 11
93.4131
 21
21.749
  0
LINE
  8
0
 10
93.4131
 20
21.749
 11
93.3857
 21
21.7002
  0
LINE
  8
0
 10
93.3857
 20
21.7002
 11
93.3711
 21
21.6758
  0
LINE
  8
0
 10
93.3711
 20
21.6758
 11
93.3418
 21
21.6289
  0
LINE
  8
0
 10
93.3418
 20
21.6289
 11
93.3105
 21
21.582
  0
LINE
  8
0
 10
93.3105
 20
21.582
 11
93.2607
 21
21.5146
  0
LINE
  8
0
 10
93.2607
 20
21.5146
 11
93.208
 21
21.4502
  0
LINE
  8
0
 10
93.208
 20
21.4502
 11
93.1895
 21
21.4297
  0
LINE
  8
0
 10
93.1895
 20
21.4297
 11
93.1699
 21
21.4092
  0
LINE
  8
0
 10
93.1699
 20
21.4092
 11
93.1514
 21
21.3887
  0
LINE
  8
0
 10
93.1514
 20
21.3887
 11
93.1318
 21
21.3682
  0
LINE
  8
0
 10
93.1318
 20
21.3682
 11
93.1113
 21
21.3486
  0
LINE
  8
0
 10
93.1113
 20
21.3486
 11
93.0908
 21
21.3301
  0
LINE
  8
0
 10
93.0908
 20
21.3301
 11
93.0703
 21
21.3105
  0
LINE
  8
0
 10
93.0703
 20
21.3105
 11
93.0498
 21
21.292
  0
LINE
  8
0
 10
93.0498
 20
21.292
 11
92.9854
 21
21.2393
  0
LINE
  8
0
 10
92.9854
 20
21.2393
 11
92.918
 21
21.1895
  0
LINE
  8
0
 10
92.918
 20
21.1895
 11
92.8711
 21
21.1582
  0
LINE
  8
0
 10
92.8711
 20
21.1582
 11
92.8242
 21
21.1289
  0
LINE
  8
0
 10
92.8242
 20
21.1289
 11
92.7998
 21
21.1143
  0
LINE
  8
0
 10
92.7998
 20
21.1143
 11
92.751
 21
21.0869
  0
LINE
  8
0
 10
92.751
 20
21.0869
 11
92.7266
 21
21.0742
  0
LINE
  8
0
 10
92.7266
 20
21.0742
 11
92.7012
 21
21.0615
  0
LINE
  8
0
 10
92.7012
 20
21.0615
 11
92.6504
 21
21.0381
  0
LINE
  8
0
 10
92.6504
 20
21.0381
 11
92.5996
 21
21.0166
  0
LINE
  8
0
 10
92.5996
 20
21.0166
 11
92.5732
 21
21.0059
  0
LINE
  8
0
 10
92.5732
 20
21.0059
 11
92.5469
 21
20.9961
  0
LINE
  8
0
 10
92.5469
 20
20.9961
 11
92.4678
 21
20.9697
  0
LINE
  8
0
 10
92.4678
 20
20.9697
 11
92.4414
 21
20.9619
  0
LINE
  8
0
 10
92.4414
 20
20.9619
 11
92.4141
 21
20.9541
  0
LINE
  8
0
 10
92.4141
 20
20.9541
 11
92.3867
 21
20.9473
  0
LINE
  8
0
 10
92.3867
 20
20.9473
 11
92.3604
 21
20.9414
  0
LINE
  8
0
 10
92.3604
 20
20.9414
 11
92.333
 21
20.9346
  0
LINE
  8
0
 10
92.333
 20
20.9346
 11
92.3057
 21
20.9297
  0
LINE
  8
0
 10
92.3057
 20
20.9297
 11
92.2783
 21
20.9238
  0
LINE
  8
0
 10
92.2783
 20
20.9238
 11
92.25
 21
20.9199
  0
LINE
  8
0
 10
92.25
 20
20.9199
 11
92.1953
 21
20.9121
  0
LINE
  8
0
 10
92.1953
 20
20.9121
 11
92.167
 21
20.9092
  0
LINE
  8
0
 10
92.167
 20
20.9092
 11
92.1396
 21
20.9062
  0
LINE
  8
0
 10
92.1396
 20
20.9062
 11
92.1113
 21
20.9043
  0
LINE
  8
0
 10
92.1113
 20
20.9043
 11
92.084
 21
20.9023
  0
LINE
  8
0
 10
92.084
 20
20.9023
 11
92.0283
 21
20.9004
  0
LINE
  8
0
 10
92.0283
 20
20.9004
 11
91.9717
 21
20.9004
  0
ENDSEC
  0
SECTION
  2
OBJECTS
  0
DICTIONARY
  0
ENDSEC
  0
EOF
