  0
SECTION
  2
BLOCKS
  0
ENDSEC
  0
SECTION
  2
ENTITIES
  0
LINE
  8
0
 10
10.0693
 20
0.000976562
 11
10.1396
 21
0.00488281
  0
LINE
  8
0
 10
10.1396
 20
0.00488281
 11
10.1738
 21
0.0078125
  0
LINE
  8
0
 10
10.1738
 20
0.0078125
 11
10.209
 21
0.0107422
  0
LINE
  8
0
 10
10.209
 20
0.0107422
 11
10.2441
 21
0.0146484
  0
LINE
  8
0
 10
10.2441
 20
0.0146484
 11
10.3125
 21
0.0244141
  0
LINE
  8
0
 10
10.3125
 20
0.0244141
 11
10.3477
 21
0.0302734
  0
LINE
  8
0
 10
10.3477
 20
0.0302734
 11
10.4502
 21
0.0507812
  0
LINE
  8
0
 10
10.4502
 20
0.0507812
 11
10.4834
 21
0.0595703
  0
LINE
  8
0
 10
10.4834
 20
0.0595703
 11
10.5518
 21
0.0771484
  0
LINE
  8
0
 10
10.5518
 20
0.0771484
 11
10.585
 21
0.0869141
  0
LINE
  8
0
 10
10.585
 20
0.0869141
 11
10.6182
 21
0.0976562
  0
LINE
  8
0
 10
10.6182
 20
0.0976562
 11
10.6514
 21
0.109375
  0
LINE
  8
0
 10
10.6514
 20
0.109375
 11
10.6836
 21
0.121094
  0
LINE
  8
0
 10
10.6836
 20
0.121094
 11
10.7168
 21
0.132812
  0
LINE
  8
0
 10
10.7168
 20
0.132812
 11
10.749
 21
0.145508
  0
LINE
  8
0
 10
10.749
 20
0.145508
 11
10.8135
 21
0.172852
  0
LINE
  8
0
 10
10.8135
 20
0.172852
 11
10.8457
 21
0.1875
  0
LINE
  8
0
 10
10.8457
 20
0.1875
 11
10.877
 21
0.202148
  0
LINE
  8
0
 10
10.877
 20
0.202148
 11
10.9082
 21
0.217773
  0
LINE
  8
0
 10
10.9082
 20
0.217773
 11
10.9385
 21
0.234375
  0
LINE
  8
0
 10
10.9385
 20
0.234375
 11
10.9697
 21
0.250977
  0
LINE
  8
0
 10
10.9697
 20
0.250977
 11
11
 21
0.267578
  0
LINE
  8
0
 10
11
 20
0.267578
 11
11.0303
 21
0.286133
  0
LINE
  8
0
 10
11.0303
 20
0.286133
 11
11.0596
 21
0.303711
  0
LINE
  8
0
 10
11.0596
 20
0.303711
 11
11.0889
 21
0.322266
  0
LINE
  8
0
 10
11.0889
 20
0.322266
 11
11.1475
 21
0.361328
  0
LINE
  8
0
 10
11.1475
 20
0.361328
 11
11.2041
 21
0.402344
  0
LINE
  8
0
 10
11.2041
 20
0.402344
 11
11.2588
 21
0.445312
  0
LINE
  8
0
 10
11.2588
 20
0.445312
 11
11.2852
 21
0.467773
  0
LINE
  8
0
 10
11.2852
 20
0.467773
 11
11.3125
 21
0.490234
  0
LINE
  8
0
 10
11.3125
 20
0.490234
 11
11.3379
 21
0.513672
  0
LINE
  8
0
 10
11.3379
 20
0.513672
 11
11.3643
 21
0.537109
  0
LINE
  8
0
 10
11.3643
 20
0.537109
 11
11.3896
 21
0.561523
  0
LINE
  8
0
 10
11.3896
 20
0.561523
 11
11.4385
 21
0.610352
  0
LINE
  8
0
 10
11.4385
 20
0.610352
 11
11.4629
 21
0.635742
  0
LINE
  8
0
 10
11.4629
 20
0.635742
 11
11.4863
 21
0.662109
  0
LINE
  8
0
 10
11.4863
 20
0.662109
 11
11.5098
 21
0.6875
  0
LINE
  8
0
 10
11.5098
 20
0.6875
 11
11.5322
 21
0.714844
  0
LINE
  8
0
 10
11.5322
 20
0.714844
 11
11.5547
 21
0.741211
  0
LINE
  8
0
 10
11.5547
 20
0.741211
 11
11.5977
 21
0.795898
  0
LINE
  8
0
 10
11.5977
 20
0.795898
 11
11.6387
 21
0.852539
  0
LINE
  8
0
 10
11.6387
 20
0.852539
 11
11.6777
 21
0.911133
  0
LINE
  8
0
 10
11.6777
 20
0.911133
 11
11.6963
 21
0.94043
  0
LINE
  8
0
 10
11.6963
 20
0.94043
 11
11.7139
 21
0.969727
  0
LINE
  8
0
 10
11.7139
 20
0.969727
 11
11.7324
 21
1
  0
LINE
  8
0
 10
11.7324
 20
1
 11
11.749
 21
1.03027
  0
LINE
  8
0
 10
11.749
 20
1.03027
 11
11.7656
 21
1.06152
  0
LINE
  8
0
 10
11.7656
 20
1.06152
 11
11.7822
 21
1.0918
  0
LINE
  8
0
 10
11.7822
 20
1.0918
 11
11.7979
 21
1.12305
  0
LINE
  8
0
 10
11.7979
 20
1.12305
 11
11.8125
 21
1.1543
  0
LINE
  8
0
 10
11.8125
 20
1.1543
 11
11.8271
 21
1.18652
  0
LINE
  8
0
 10
11.8271
 20
1.18652
 11
11.8545
 21
1.25098
  0
LINE
  8
0
 10
11.8545
 20
1.25098
 11
11.8672
 21
1.2832
  0
LINE
  8
0
 10
11.8672
 20
1.2832
 11
11.8789
 21
1.31641
  0
LINE
  8
0
 10
11.8789
 20
1.31641
 11
11.8906
 21
1.34863
  0
LINE
  8
0
 10
11.8906
 20
1.34863
 11
11.9023
 21
1.38184
  0
LINE
  8
0
 10
11.9023
 20
1.38184
 11
11.9131
 21
1.41504
  0
LINE
  8
0
 10
11.9131
 20
1.41504
 11
11.9229
 21
1.44824
  0
LINE
  8
0
 10
11.9229
 20
1.44824
 11
11.9404
 21
1.5166
  0
LINE
  8
0
 10
11.9404
 20
1.5166
 11
11.9492
 21
1.5498
  0
LINE
  8
0
 10
11.9492
 20
1.5498
 11
11.9697
 21
1.65234
  0
LINE
  8
0
 10
11.9697
 20
1.65234
 11
11.9756
 21
1.6875
  0
LINE
  8
0
 10
11.9756
 20
1.6875
 11
11.9854
 21
1.75586
  0
LINE
  8
0
 10
11.9854
 20
1.75586
 11
11.9893
 21
1.79102
  0
LINE
  8
0
 10
11.9893
 20
1.79102
 11
11.9922
 21
1.82617
  0
LINE
  8
0
 10
11.9922
 20
1.82617
 11
11.9951
 21
1.86035
  0
LINE
  8
0
 10
11.9951
 20
1.86035
 11
11.999
 21
1.93066
  0
LINE
  8
0
 10
11.999
 20
1.93066
 11
12
 21
1.96484
  0
LINE
  8
0
 10
12
 20
1.96484
 11
12
 21
8
  0
LINE
  8
0
 10
12
 20
8
 11
88.9502
 21
8
  0
LINE
  8
0
 10
88.9502
 20
8
 11
88.9502
 21
1.96484
  0
LINE
  8
0
 10
88.9502
 20
1.96484
 11
88.9512
 21
1.93066
  0
LINE
  8
0
 10
88.9512
 20
1.93066
 11
88.9551
 21
1.86035
  0
LINE
  8
0
 10
88.9551
 20
1.86035
 11
88.958
 21
1.82617
  0
LINE
  8
0
 10
88.958
 20
1.82617
 11
88.9609
 21
1.79102
  0
LINE
  8
0
 10
88.9609
 20
1.79102
 11
88.9648
 21
1.75586
  0
LINE
  8
0
 10
88.9648
 20
1.75586
 11
88.9746
 21
1.6875
  0
LINE
  8
0
 10
88.9746
 20
1.6875
 11
88.9805
 21
1.65234
  0
LINE
  8
0
 10
88.9805
 20
1.65234
 11
88.9863
 21
1.61816
  0
LINE
  8
0
 10
88.9863
 20
1.61816
 11
88.9941
 21
1.58398
  0
LINE
  8
0
 10
88.9941
 20
1.58398
 11
89.001
 21
1.5498
  0
LINE
  8
0
 10
89.001
 20
1.5498
 11
89.0098
 21
1.5166
  0
LINE
  8
0
 10
89.0098
 20
1.5166
 11
89.0273
 21
1.44824
  0
LINE
  8
0
 10
89.0273
 20
1.44824
 11
89.0371
 21
1.41504
  0
LINE
  8
0
 10
89.0371
 20
1.41504
 11
89.0586
 21
1.34863
  0
LINE
  8
0
 10
89.0586
 20
1.34863
 11
89.0703
 21
1.31641
  0
LINE
  8
0
 10
89.0703
 20
1.31641
 11
89.083
 21
1.2832
  0
LINE
  8
0
 10
89.083
 20
1.2832
 11
89.0957
 21
1.25098
  0
LINE
  8
0
 10
89.0957
 20
1.25098
 11
89.123
 21
1.18652
  0
LINE
  8
0
 10
89.123
 20
1.18652
 11
89.1377
 21
1.1543
  0
LINE
  8
0
 10
89.1377
 20
1.1543
 11
89.1523
 21
1.12305
  0
LINE
  8
0
 10
89.1523
 20
1.12305
 11
89.168
 21
1.0918
  0
LINE
  8
0
 10
89.168
 20
1.0918
 11
89.1846
 21
1.06152
  0
LINE
  8
0
 10
89.1846
 20
1.06152
 11
89.2012
 21
1.03027
  0
LINE
  8
0
 10
89.2012
 20
1.03027
 11
89.2178
 21
1
  0
LINE
  8
0
 10
89.2178
 20
1
 11
89.2354
 21
0.969727
  0
LINE
  8
0
 10
89.2354
 20
0.969727
 11
89.2725
 21
0.911133
  0
LINE
  8
0
 10
89.2725
 20
0.911133
 11
89.3115
 21
0.852539
  0
LINE
  8
0
 10
89.3115
 20
0.852539
 11
89.3525
 21
0.795898
  0
LINE
  8
0
 10
89.3525
 20
0.795898
 11
89.3955
 21
0.741211
  0
LINE
  8
0
 10
89.3955
 20
0.741211
 11
89.418
 21
0.714844
  0
LINE
  8
0
 10
89.418
 20
0.714844
 11
89.4404
 21
0.6875
  0
LINE
  8
0
 10
89.4404
 20
0.6875
 11
89.4639
 21
0.662109
  0
LINE
  8
0
 10
89.4639
 20
0.662109
 11
89.4873
 21
0.635742
  0
LINE
  8
0
 10
89.4873
 20
0.635742
 11
89.5117
 21
0.610352
  0
LINE
  8
0
 10
89.5117
 20
0.610352
 11
89.5605
 21
0.561523
  0
LINE
  8
0
 10
89.5605
 20
0.561523
 11
89.5859
 21
0.537109
  0
LINE
  8
0
 10
89.5859
 20
0.537109
 11
89.6113
 21
0.513672
  0
LINE
  8
0
 10
89.6113
 20
0.513672
 11
89.6377
 21
0.490234
  0
LINE
  8
0
 10
89.6377
 20
0.490234
 11
89.6641
 21
0.467773
  0
LINE
  8
0
 10
89.6641
 20
0.467773
 11
89.6914
 21
0.445312
  0
LINE
  8
0
 10
89.6914
 20
0.445312
 11
89.7461
 21
0.402344
  0
LINE
  8
0
 10
89.7461
 20
0.402344
 11
89.8027
 21
0.361328
  0
LINE
  8
0
 10
89.8027
 20
0.361328
 11
89.832
 21
0.341797
  0
LINE
  8
0
 10
89.832
 20
0.341797
 11
89.8604
 21
0.322266
  0
LINE
  8
0
 10
89.8604
 20
0.322266
 11
89.8906
 21
0.303711
  0
LINE
  8
0
 10
89.8906
 20
0.303711
 11
89.9199
 21
0.286133
  0
LINE
  8
0
 10
89.9199
 20
0.286133
 11
89.9502
 21
0.267578
  0
LINE
  8
0
 10
89.9502
 20
0.267578
 11
90.0107
 21
0.234375
  0
LINE
  8
0
 10
90.0107
 20
0.234375
 11
90.042
 21
0.217773
  0
LINE
  8
0
 10
90.042
 20
0.217773
 11
90.0732
 21
0.202148
  0
LINE
  8
0
 10
90.0732
 20
0.202148
 11
90.1045
 21
0.1875
  0
LINE
  8
0
 10
90.1045
 20
0.1875
 11
90.1367
 21
0.172852
  0
LINE
  8
0
 10
90.1367
 20
0.172852
 11
90.2012
 21
0.145508
  0
LINE
  8
0
 10
90.2012
 20
0.145508
 11
90.2334
 21
0.132812
  0
LINE
  8
0
 10
90.2334
 20
0.132812
 11
90.2656
 21
0.121094
  0
LINE
  8
0
 10
90.2656
 20
0.121094
 11
90.332
 21
0.0976562
  0
LINE
  8
0
 10
90.332
 20
0.0976562
 11
90.3652
 21
0.0869141
  0
LINE
  8
0
 10
90.3652
 20
0.0869141
 11
90.3984
 21
0.0771484
  0
LINE
  8
0
 10
90.3984
 20
0.0771484
 11
90.4326
 21
0.0683594
  0
LINE
  8
0
 10
90.4326
 20
0.0683594
 11
90.4658
 21
0.0595703
  0
LINE
  8
0
 10
90.4658
 20
0.0595703
 11
90.5
 21
0.0507812
  0
LINE
  8
0
 10
90.5
 20
0.0507812
 11
90.6025
 21
0.0302734
  0
LINE
  8
0
 10
90.6025
 20
0.0302734
 11
90.6367
 21
0.0244141
  0
LINE
  8
0
 10
90.6367
 20
0.0244141
 11
90.6719
 21
0.0195312
  0
LINE
  8
0
 10
90.6719
 20
0.0195312
 11
90.7061
 21
0.0146484
  0
LINE
  8
0
 10
90.7061
 20
0.0146484
 11
90.7412
 21
0.0107422
  0
LINE
  8
0
 10
90.7412
 20
0.0107422
 11
90.7754
 21
0.0078125
  0
LINE
  8
0
 10
90.7754
 20
0.0078125
 11
90.8105
 21
0.00488281
  0
LINE
  8
0
 10
90.8105
 20
0.00488281
 11
90.8457
 21
0.00292969
  0
LINE
  8
0
 10
90.8457
 20
0.00292969
 11
90.8799
 21
0.000976562
  0
LINE
  8
0
 10
90.8799
 20
0.000976562
 11
90.915
 21
0
  0
LINE
  8
0
 10
90.915
 20
0
 11
98.9854
 21
0
  0
LINE
  8
0
 10
98.9854
 20
0
 11
99.0195
 21
0.000976562
  0
LINE
  8
0
 10
99.0195
 20
0.000976562
 11
99.0898
 21
0.00488281
  0
LINE
  8
0
 10
99.0898
 20
0.00488281
 11
99.124
 21
0.0078125
  0
LINE
  8
0
 10
99.124
 20
0.0078125
 11
99.1592
 21
0.0107422
  0
LINE
  8
0
 10
99.1592
 20
0.0107422
 11
99.1934
 21
0.0146484
  0
LINE
  8
0
 10
99.1934
 20
0.0146484
 11
99.2285
 21
0.0195312
  0
LINE
  8
0
 10
99.2285
 20
0.0195312
 11
99.2627
 21
0.0244141
  0
LINE
  8
0
 10
99.2627
 20
0.0244141
 11
99.2969
 21
0.0302734
  0
LINE
  8
0
 10
99.2969
 20
0.0302734
 11
99.332
 21
0.0371094
  0
LINE
  8
0
 10
99.332
 20
0.0371094
 11
99.3662
 21
0.0439453
  0
LINE
  8
0
 10
99.3662
 20
0.0439453
 11
99.3994
 21
0.0507812
  0
LINE
  8
0
 10
99.3994
 20
0.0507812
 11
99.4678
 21
0.0683594
  0
LINE
  8
0
 10
99.4678
 20
0.0683594
 11
99.501
 21
0.0771484
  0
LINE
  8
0
 10
99.501
 20
0.0771484
 11
99.5352
 21
0.0869141
  0
LINE
  8
0
 10
99.5352
 20
0.0869141
 11
99.5684
 21
0.0976562
  0
LINE
  8
0
 10
99.5684
 20
0.0976562
 11
99.6016
 21
0.109375
  0
LINE
  8
0
 10
99.6016
 20
0.109375
 11
99.6338
 21
0.121094
  0
LINE
  8
0
 10
99.6338
 20
0.121094
 11
99.667
 21
0.132812
  0
LINE
  8
0
 10
99.667
 20
0.132812
 11
99.6992
 21
0.145508
  0
LINE
  8
0
 10
99.6992
 20
0.145508
 11
99.7637
 21
0.172852
  0
LINE
  8
0
 10
99.7637
 20
0.172852
 11
99.7949
 21
0.1875
  0
LINE
  8
0
 10
99.7949
 20
0.1875
 11
99.8271
 21
0.202148
  0
LINE
  8
0
 10
99.8271
 20
0.202148
 11
99.8584
 21
0.217773
  0
LINE
  8
0
 10
99.8584
 20
0.217773
 11
99.8887
 21
0.234375
  0
LINE
  8
0
 10
99.8887
 20
0.234375
 11
99.9199
 21
0.250977
  0
LINE
  8
0
 10
99.9199
 20
0.250977
 11
99.9502
 21
0.267578
  0
LINE
  8
0
 10
99.9502
 20
0.267578
 11
99.9805
 21
0.286133
  0
LINE
  8
0
 10
99.9805
 20
0.286133
 11
100.01
 21
0.303711
  0
LINE
  8
0
 10
100.01
 20
0.303711
 11
100.039
 21
0.322266
  0
LINE
  8
0
 10
100.039
 20
0.322266
 11
100.068
 21
0.341797
  0
LINE
  8
0
 10
100.068
 20
0.341797
 11
100.097
 21
0.361328
  0
LINE
  8
0
 10
100.097
 20
0.361328
 11
100.126
 21
0.381836
  0
LINE
  8
0
 10
100.126
 20
0.381836
 11
100.153
 21
0.402344
  0
LINE
  8
0
 10
100.153
 20
0.402344
 11
100.182
 21
0.423828
  0
LINE
  8
0
 10
100.182
 20
0.423828
 11
100.209
 21
0.445312
  0
LINE
  8
0
 10
100.209
 20
0.445312
 11
100.262
 21
0.490234
  0
LINE
  8
0
 10
100.262
 20
0.490234
 11
100.314
 21
0.537109
  0
LINE
  8
0
 10
100.314
 20
0.537109
 11
100.339
 21
0.561523
  0
LINE
  8
0
 10
100.339
 20
0.561523
 11
100.364
 21
0.585938
  0
LINE
  8
0
 10
100.364
 20
0.585938
 11
100.389
 21
0.610352
  0
LINE
  8
0
 10
100.389
 20
0.610352
 11
100.413
 21
0.635742
  0
LINE
  8
0
 10
100.413
 20
0.635742
 11
100.437
 21
0.662109
  0
LINE
  8
0
 10
100.437
 20
0.662109
 11
100.459
 21
0.6875
  0
LINE
  8
0
 10
100.459
 20
0.6875
 11
100.482
 21
0.714844
  0
LINE
  8
0
 10
100.482
 20
0.714844
 11
100.504
 21
0.741211
  0
LINE
  8
0
 10
100.504
 20
0.741211
 11
100.526
 21
0.768555
  0
LINE
  8
0
 10
100.526
 20
0.768555
 11
100.547
 21
0.795898
  0
LINE
  8
0
 10
100.547
 20
0.795898
 11
100.568
 21
0.824219
  0
LINE
  8
0
 10
100.568
 20
0.824219
 11
100.588
 21
0.852539
  0
LINE
  8
0
 10
100.588
 20
0.852539
 11
100.608
 21
0.881836
  0
LINE
  8
0
 10
100.608
 20
0.881836
 11
100.627
 21
0.911133
  0
LINE
  8
0
 10
100.627
 20
0.911133
 11
100.646
 21
0.94043
  0
LINE
  8
0
 10
100.646
 20
0.94043
 11
100.664
 21
0.969727
  0
LINE
  8
0
 10
100.664
 20
0.969727
 11
100.699
 21
1.03027
  0
LINE
  8
0
 10
100.699
 20
1.03027
 11
100.716
 21
1.06152
  0
LINE
  8
0
 10
100.716
 20
1.06152
 11
100.732
 21
1.0918
  0
LINE
  8
0
 10
100.732
 20
1.0918
 11
100.748
 21
1.12305
  0
LINE
  8
0
 10
100.748
 20
1.12305
 11
100.763
 21
1.1543
  0
LINE
  8
0
 10
100.763
 20
1.1543
 11
100.777
 21
1.18652
  0
LINE
  8
0
 10
100.777
 20
1.18652
 11
100.805
 21
1.25098
  0
LINE
  8
0
 10
100.805
 20
1.25098
 11
100.817
 21
1.2832
  0
LINE
  8
0
 10
100.817
 20
1.2832
 11
100.829
 21
1.31641
  0
LINE
  8
0
 10
100.829
 20
1.31641
 11
100.841
 21
1.34863
  0
LINE
  8
0
 10
100.841
 20
1.34863
 11
100.853
 21
1.38184
  0
LINE
  8
0
 10
100.853
 20
1.38184
 11
100.872
 21
1.44824
  0
LINE
  8
0
 10
100.872
 20
1.44824
 11
100.882
 21
1.48242
  0
LINE
  8
0
 10
100.882
 20
1.48242
 11
100.891
 21
1.5166
  0
LINE
  8
0
 10
100.891
 20
1.5166
 11
100.898
 21
1.5498
  0
LINE
  8
0
 10
100.898
 20
1.5498
 11
100.906
 21
1.58398
  0
LINE
  8
0
 10
100.906
 20
1.58398
 11
100.92
 21
1.65234
  0
LINE
  8
0
 10
100.92
 20
1.65234
 11
100.926
 21
1.6875
  0
LINE
  8
0
 10
100.926
 20
1.6875
 11
100.936
 21
1.75586
  0
LINE
  8
0
 10
100.936
 20
1.75586
 11
100.939
 21
1.79102
  0
LINE
  8
0
 10
100.939
 20
1.79102
 11
100.942
 21
1.82617
  0
LINE
  8
0
 10
100.942
 20
1.82617
 11
100.945
 21
1.86035
  0
LINE
  8
0
 10
100.945
 20
1.86035
 11
100.949
 21
1.93066
  0
LINE
  8
0
 10
100.949
 20
1.93066
 11
100.949
 21
1.96484
  0
LINE
  8
0
 10
100.949
 20
1.96484
 11
100.95
 21
2
  0
LINE
  8
0
 10
100.95
 20
2
 11
100.95
 21
38.25
  0
LINE
  8
0
 10
100.95
 20
38.25
 11
103.018
 21
38.25
  0
LINE
  8
0
 10
103.018
 20
38.25
 11
103.035
 21
38.251
  0
LINE
  8
0
 10
103.035
 20
38.251
 11
103.053
 21
38.251
  0
LINE
  8
0
 10
103.053
 20
38.251
 11
103.069
 21
38.252
  0
LINE
  8
0
 10
103.069
 20
38.252
 11
103.14
 21
38.2598
  0
LINE
  8
0
 10
103.14
 20
38.2598
 11
103.156
 21
38.2627
  0
LINE
  8
0
 10
103.156
 20
38.2627
 11
103.174
 21
38.2656
  0
LINE
  8
0
 10
103.174
 20
38.2656
 11
103.19
 21
38.2686
  0
LINE
  8
0
 10
103.19
 20
38.2686
 11
103.208
 21
38.2715
  0
LINE
  8
0
 10
103.208
 20
38.2715
 11
103.225
 21
38.2754
  0
LINE
  8
0
 10
103.225
 20
38.2754
 11
103.242
 21
38.2793
  0
LINE
  8
0
 10
103.242
 20
38.2793
 11
103.309
 21
38.2988
  0
LINE
  8
0
 10
103.309
 20
38.2988
 11
103.358
 21
38.3164
  0
LINE
  8
0
 10
103.358
 20
38.3164
 11
103.375
 21
38.3232
  0
LINE
  8
0
 10
103.375
 20
38.3232
 11
103.391
 21
38.3291
  0
LINE
  8
0
 10
103.391
 20
38.3291
 11
103.406
 21
38.3369
  0
LINE
  8
0
 10
103.406
 20
38.3369
 11
103.423
 21
38.3438
  0
LINE
  8
0
 10
103.423
 20
38.3438
 11
103.47
 21
38.3672
  0
LINE
  8
0
 10
103.47
 20
38.3672
 11
103.484
 21
38.375
  0
LINE
  8
0
 10
103.484
 20
38.375
 11
103.5
 21
38.3838
  0
LINE
  8
0
 10
103.5
 20
38.3838
 11
103.515
 21
38.3926
  0
LINE
  8
0
 10
103.515
 20
38.3926
 11
103.53
 21
38.4023
  0
LINE
  8
0
 10
103.53
 20
38.4023
 11
103.545
 21
38.4111
  0
LINE
  8
0
 10
103.545
 20
38.4111
 11
103.56
 21
38.4209
  0
LINE
  8
0
 10
103.56
 20
38.4209
 11
103.573
 21
38.4307
  0
LINE
  8
0
 10
103.573
 20
38.4307
 11
103.588
 21
38.4414
  0
LINE
  8
0
 10
103.588
 20
38.4414
 11
103.602
 21
38.4512
  0
LINE
  8
0
 10
103.602
 20
38.4512
 11
103.629
 21
38.4727
  0
LINE
  8
0
 10
103.629
 20
38.4727
 11
103.643
 21
38.4844
  0
LINE
  8
0
 10
103.643
 20
38.4844
 11
103.656
 21
38.4951
  0
LINE
  8
0
 10
103.656
 20
38.4951
 11
103.694
 21
38.5303
  0
LINE
  8
0
 10
103.694
 20
38.5303
 11
103.72
 21
38.5557
  0
LINE
  8
0
 10
103.72
 20
38.5557
 11
103.755
 21
38.5938
  0
LINE
  8
0
 10
103.755
 20
38.5938
 11
103.766
 21
38.6074
  0
LINE
  8
0
 10
103.766
 20
38.6074
 11
103.777
 21
38.6211
  0
LINE
  8
0
 10
103.777
 20
38.6211
 11
103.799
 21
38.6484
  0
LINE
  8
0
 10
103.799
 20
38.6484
 11
103.809
 21
38.6621
  0
LINE
  8
0
 10
103.809
 20
38.6621
 11
103.819
 21
38.6768
  0
LINE
  8
0
 10
103.819
 20
38.6768
 11
103.829
 21
38.6904
  0
LINE
  8
0
 10
103.829
 20
38.6904
 11
103.839
 21
38.7051
  0
LINE
  8
0
 10
103.839
 20
38.7051
 11
103.848
 21
38.7197
  0
LINE
  8
0
 10
103.848
 20
38.7197
 11
103.857
 21
38.7354
  0
LINE
  8
0
 10
103.857
 20
38.7354
 11
103.866
 21
38.75
  0
LINE
  8
0
 10
103.866
 20
38.75
 11
103.875
 21
38.7656
  0
LINE
  8
0
 10
103.875
 20
38.7656
 11
103.883
 21
38.7803
  0
LINE
  8
0
 10
103.883
 20
38.7803
 11
103.906
 21
38.8271
  0
LINE
  8
0
 10
103.906
 20
38.8271
 11
103.913
 21
38.8438
  0
LINE
  8
0
 10
103.913
 20
38.8438
 11
103.921
 21
38.8594
  0
LINE
  8
0
 10
103.921
 20
38.8594
 11
103.927
 21
38.875
  0
LINE
  8
0
 10
103.927
 20
38.875
 11
103.934
 21
38.8916
  0
LINE
  8
0
 10
103.934
 20
38.8916
 11
103.951
 21
38.9414
  0
LINE
  8
0
 10
103.951
 20
38.9414
 11
103.971
 21
39.0078
  0
LINE
  8
0
 10
103.971
 20
39.0078
 11
103.975
 21
39.0254
  0
LINE
  8
0
 10
103.975
 20
39.0254
 11
103.979
 21
39.042
  0
LINE
  8
0
 10
103.979
 20
39.042
 11
103.981
 21
39.0596
  0
LINE
  8
0
 10
103.981
 20
39.0596
 11
103.984
 21
39.0762
  0
LINE
  8
0
 10
103.984
 20
39.0762
 11
103.987
 21
39.0938
  0
LINE
  8
0
 10
103.987
 20
39.0938
 11
103.99
 21
39.1104
  0
LINE
  8
0
 10
103.99
 20
39.1104
 11
103.998
 21
39.1807
  0
LINE
  8
0
 10
103.998
 20
39.1807
 11
103.999
 21
39.1973
  0
LINE
  8
0
 10
103.999
 20
39.1973
 11
103.999
 21
39.2148
  0
LINE
  8
0
 10
103.999
 20
39.2148
 11
104
 21
39.2324
  0
LINE
  8
0
 10
104
 20
39.2324
 11
104
 21
60.5176
  0
LINE
  8
0
 10
104
 20
60.5176
 11
103.999
 21
60.5352
  0
LINE
  8
0
 10
103.999
 20
60.5352
 11
103.999
 21
60.5527
  0
LINE
  8
0
 10
103.999
 20
60.5527
 11
103.998
 21
60.5693
  0
LINE
  8
0
 10
103.998
 20
60.5693
 11
103.99
 21
60.6396
  0
LINE
  8
0
 10
103.99
 20
60.6396
 11
103.987
 21
60.6562
  0
LINE
  8
0
 10
103.987
 20
60.6562
 11
103.984
 21
60.6738
  0
LINE
  8
0
 10
103.984
 20
60.6738
 11
103.981
 21
60.6904
  0
LINE
  8
0
 10
103.981
 20
60.6904
 11
103.979
 21
60.708
  0
LINE
  8
0
 10
103.979
 20
60.708
 11
103.975
 21
60.7246
  0
LINE
  8
0
 10
103.975
 20
60.7246
 11
103.971
 21
60.7422
  0
LINE
  8
0
 10
103.971
 20
60.7422
 11
103.951
 21
60.8086
  0
LINE
  8
0
 10
103.951
 20
60.8086
 11
103.934
 21
60.8584
  0
LINE
  8
0
 10
103.934
 20
60.8584
 11
103.927
 21
60.875
  0
LINE
  8
0
 10
103.927
 20
60.875
 11
103.921
 21
60.8906
  0
LINE
  8
0
 10
103.921
 20
60.8906
 11
103.913
 21
60.9062
  0
LINE
  8
0
 10
103.913
 20
60.9062
 11
103.906
 21
60.9229
  0
LINE
  8
0
 10
103.906
 20
60.9229
 11
103.883
 21
60.9697
  0
LINE
  8
0
 10
103.883
 20
60.9697
 11
103.875
 21
60.9844
  0
LINE
  8
0
 10
103.875
 20
60.9844
 11
103.866
 21
61
  0
LINE
  8
0
 10
103.866
 20
61
 11
103.857
 21
61.0146
  0
LINE
  8
0
 10
103.857
 20
61.0146
 11
103.848
 21
61.0303
  0
LINE
  8
0
 10
103.848
 20
61.0303
 11
103.839
 21
61.0449
  0
LINE
  8
0
 10
103.839
 20
61.0449
 11
103.829
 21
61.0596
  0
LINE
  8
0
 10
103.829
 20
61.0596
 11
103.819
 21
61.0732
  0
LINE
  8
0
 10
103.819
 20
61.0732
 11
103.809
 21
61.0879
  0
LINE
  8
0
 10
103.809
 20
61.0879
 11
103.799
 21
61.1016
  0
LINE
  8
0
 10
103.799
 20
61.1016
 11
103.777
 21
61.1289
  0
LINE
  8
0
 10
103.777
 20
61.1289
 11
103.766
 21
61.1426
  0
LINE
  8
0
 10
103.766
 20
61.1426
 11
103.755
 21
61.1562
  0
LINE
  8
0
 10
103.755
 20
61.1562
 11
103.72
 21
61.1943
  0
LINE
  8
0
 10
103.72
 20
61.1943
 11
103.694
 21
61.2197
  0
LINE
  8
0
 10
103.694
 20
61.2197
 11
103.656
 21
61.2549
  0
LINE
  8
0
 10
103.656
 20
61.2549
 11
103.643
 21
61.2656
  0
LINE
  8
0
 10
103.643
 20
61.2656
 11
103.629
 21
61.2773
  0
LINE
  8
0
 10
103.629
 20
61.2773
 11
103.602
 21
61.2988
  0
LINE
  8
0
 10
103.602
 20
61.2988
 11
103.588
 21
61.3086
  0
LINE
  8
0
 10
103.588
 20
61.3086
 11
103.573
 21
61.3193
  0
LINE
  8
0
 10
103.573
 20
61.3193
 11
103.56
 21
61.3291
  0
LINE
  8
0
 10
103.56
 20
61.3291
 11
103.545
 21
61.3389
  0
LINE
  8
0
 10
103.545
 20
61.3389
 11
103.53
 21
61.3477
  0
LINE
  8
0
 10
103.53
 20
61.3477
 11
103.515
 21
61.3574
  0
LINE
  8
0
 10
103.515
 20
61.3574
 11
103.5
 21
61.3662
  0
LINE
  8
0
 10
103.5
 20
61.3662
 11
103.484
 21
61.375
  0
LINE
  8
0
 10
103.484
 20
61.375
 11
103.47
 21
61.3828
  0
LINE
  8
0
 10
103.47
 20
61.3828
 11
103.423
 21
61.4062
  0
LINE
  8
0
 10
103.423
 20
61.4062
 11
103.406
 21
61.4131
  0
LINE
  8
0
 10
103.406
 20
61.4131
 11
103.391
 21
61.4209
  0
LINE
  8
0
 10
103.391
 20
61.4209
 11
103.375
 21
61.4268
  0
LINE
  8
0
 10
103.375
 20
61.4268
 11
103.358
 21
61.4336
  0
LINE
  8
0
 10
103.358
 20
61.4336
 11
103.309
 21
61.4512
  0
LINE
  8
0
 10
103.309
 20
61.4512
 11
103.242
 21
61.4707
  0
LINE
  8
0
 10
103.242
 20
61.4707
 11
103.225
 21
61.4746
  0
LINE
  8
0
 10
103.225
 20
61.4746
 11
103.208
 21
61.4785
  0
LINE
  8
0
 10
103.208
 20
61.4785
 11
103.19
 21
61.4814
  0
LINE
  8
0
 10
103.19
 20
61.4814
 11
103.174
 21
61.4844
  0
LINE
  8
0
 10
103.174
 20
61.4844
 11
103.156
 21
61.4873
  0
LINE
  8
0
 10
103.156
 20
61.4873
 11
103.14
 21
61.4902
  0
LINE
  8
0
 10
103.14
 20
61.4902
 11
103.069
 21
61.498
  0
LINE
  8
0
 10
103.069
 20
61.498
 11
103.053
 21
61.499
  0
LINE
  8
0
 10
103.053
 20
61.499
 11
103.035
 21
61.499
  0
LINE
  8
0
 10
103.035
 20
61.499
 11
103.018
 21
61.5
  0
LINE
  8
0
 10
103.018
 20
61.5
 11
-2.01758
 21
61.5
  0
LINE
  8
0
 10
-2.01758
 20
61.5
 11
-2.03516
 21
61.499
  0
LINE
  8
0
 10
-2.03516
 20
61.499
 11
-2.05273
 21
61.499
  0
LINE
  8
0
 10
-2.05273
 20
61.499
 11
-2.06934
 21
61.498
  0
LINE
  8
0
 10
-2.06934
 20
61.498
 11
-2.13965
 21
61.4902
  0
LINE
  8
0
 10
-2.13965
 20
61.4902
 11
-2.15625
 21
61.4873
  0
LINE
  8
0
 10
-2.15625
 20
61.4873
 11
-2.17383
 21
61.4844
  0
LINE
  8
0
 10
-2.17383
 20
61.4844
 11
-2.19043
 21
61.4814
  0
LINE
  8
0
 10
-2.19043
 20
61.4814
 11
-2.20801
 21
61.4785
  0
LINE
  8
0
 10
-2.20801
 20
61.4785
 11
-2.22461
 21
61.4746
  0
LINE
  8
0
 10
-2.22461
 20
61.4746
 11
-2.24219
 21
61.4707
  0
LINE
  8
0
 10
-2.24219
 20
61.4707
 11
-2.30859
 21
61.4512
  0
LINE
  8
0
 10
-2.30859
 20
61.4512
 11
-2.3584
 21
61.4336
  0
LINE
  8
0
 10
-2.3584
 20
61.4336
 11
-2.375
 21
61.4268
  0
LINE
  8
0
 10
-2.375
 20
61.4268
 11
-2.39062
 21
61.4209
  0
LINE
  8
0
 10
-2.39062
 20
61.4209
 11
-2.40625
 21
61.4131
  0
LINE
  8
0
 10
-2.40625
 20
61.4131
 11
-2.42285
 21
61.4062
  0
LINE
  8
0
 10
-2.42285
 20
61.4062
 11
-2.46973
 21
61.3828
  0
LINE
  8
0
 10
-2.46973
 20
61.3828
 11
-2.48438
 21
61.375
  0
LINE
  8
0
 10
-2.48438
 20
61.375
 11
-2.5
 21
61.3662
  0
LINE
  8
0
 10
-2.5
 20
61.3662
 11
-2.51465
 21
61.3574
  0
LINE
  8
0
 10
-2.51465
 20
61.3574
 11
-2.53027
 21
61.3477
  0
LINE
  8
0
 10
-2.53027
 20
61.3477
 11
-2.54492
 21
61.3389
  0
LINE
  8
0
 10
-2.54492
 20
61.3389
 11
-2.55957
 21
61.3291
  0
LINE
  8
0
 10
-2.55957
 20
61.3291
 11
-2.57324
 21
61.3193
  0
LINE
  8
0
 10
-2.57324
 20
61.3193
 11
-2.58789
 21
61.3086
  0
LINE
  8
0
 10
-2.58789
 20
61.3086
 11
-2.60156
 21
61.2988
  0
LINE
  8
0
 10
-2.60156
 20
61.2988
 11
-2.62891
 21
61.2773
  0
LINE
  8
0
 10
-2.62891
 20
61.2773
 11
-2.64258
 21
61.2656
  0
LINE
  8
0
 10
-2.64258
 20
61.2656
 11
-2.65625
 21
61.2549
  0
LINE
  8
0
 10
-2.65625
 20
61.2549
 11
-2.69434
 21
61.2197
  0
LINE
  8
0
 10
-2.69434
 20
61.2197
 11
-2.71973
 21
61.1943
  0
LINE
  8
0
 10
-2.71973
 20
61.1943
 11
-2.75488
 21
61.1562
  0
LINE
  8
0
 10
-2.75488
 20
61.1562
 11
-2.76562
 21
61.1426
  0
LINE
  8
0
 10
-2.76562
 20
61.1426
 11
-2.77734
 21
61.1289
  0
LINE
  8
0
 10
-2.77734
 20
61.1289
 11
-2.79883
 21
61.1016
  0
LINE
  8
0
 10
-2.79883
 20
61.1016
 11
-2.80859
 21
61.0879
  0
LINE
  8
0
 10
-2.80859
 20
61.0879
 11
-2.81934
 21
61.0732
  0
LINE
  8
0
 10
-2.81934
 20
61.0732
 11
-2.8291
 21
61.0596
  0
LINE
  8
0
 10
-2.8291
 20
61.0596
 11
-2.83887
 21
61.0449
  0
LINE
  8
0
 10
-2.83887
 20
61.0449
 11
-2.84766
 21
61.0303
  0
LINE
  8
0
 10
-2.84766
 20
61.0303
 11
-2.85742
 21
61.0146
  0
LINE
  8
0
 10
-2.85742
 20
61.0146
 11
-2.86621
 21
61
  0
LINE
  8
0
 10
-2.86621
 20
61
 11
-2.875
 21
60.9844
  0
LINE
  8
0
 10
-2.875
 20
60.9844
 11
-2.88281
 21
60.9697
  0
LINE
  8
0
 10
-2.88281
 20
60.9697
 11
-2.90625
 21
60.9229
  0
LINE
  8
0
 10
-2.90625
 20
60.9229
 11
-2.91309
 21
60.9062
  0
LINE
  8
0
 10
-2.91309
 20
60.9062
 11
-2.9209
 21
60.8906
  0
LINE
  8
0
 10
-2.9209
 20
60.8906
 11
-2.92676
 21
60.875
  0
LINE
  8
0
 10
-2.92676
 20
60.875
 11
-2.93359
 21
60.8584
  0
LINE
  8
0
 10
-2.93359
 20
60.8584
 11
-2.95117
 21
60.8086
  0
LINE
  8
0
 10
-2.95117
 20
60.8086
 11
-2.9707
 21
60.7422
  0
LINE
  8
0
 10
-2.9707
 20
60.7422
 11
-2.97461
 21
60.7246
  0
LINE
  8
0
 10
-2.97461
 20
60.7246
 11
-2.97852
 21
60.708
  0
LINE
  8
0
 10
-2.97852
 20
60.708
 11
-2.98145
 21
60.6904
  0
LINE
  8
0
 10
-2.98145
 20
60.6904
 11
-2.98438
 21
60.6738
  0
LINE
  8
0
 10
-2.98438
 20
60.6738
 11
-2.9873
 21
60.6562
  0
LINE
  8
0
 10
-2.9873
 20
60.6562
 11
-2.99023
 21
60.6396
  0
LINE
  8
0
 10
-2.99023
 20
60.6396
 11
-2.99805
 21
60.5693
  0
LINE
  8
0
 10
-2.99805
 20
60.5693
 11
-2.99902
 21
60.5527
  0
LINE
  8
0
 10
-2.99902
 20
60.5527
 11
-2.99902
 21
60.5352
  0
LINE
  8
0
 10
-2.99902
 20
60.5352
 11
-3
 21
60.5176
  0
LINE
  8
0
 10
-3
 20
60.5176
 11
-3
 21
39.2324
  0
LINE
  8
0
 10
-3
 20
39.2324
 11
-2.99902
 21
39.2148
  0
LINE
  8
0
 10
-2.99902
 20
39.2148
 11
-2.99902
 21
39.1973
  0
LINE
  8
0
 10
-2.99902
 20
39.1973
 11
-2.99805
 21
39.1807
  0
LINE
  8
0
 10
-2.99805
 20
39.1807
 11
-2.99023
 21
39.1104
  0
LINE
  8
0
 10
-2.99023
 20
39.1104
 11
-2.9873
 21
39.0938
  0
LINE
  8
0
 10
-2.9873
 20
39.0938
 11
-2.98438
 21
39.0762
  0
LINE
  8
0
 10
-2.98438
 20
39.0762
 11
-2.98145
 21
39.0596
  0
LINE
  8
0
 10
-2.98145
 20
39.0596
 11
-2.97852
 21
39.042
  0
LINE
  8
0
 10
-2.97852
 20
39.042
 11
-2.97461
 21
39.0254
  0
LINE
  8
0
 10
-2.97461
 20
39.0254
 11
-2.9707
 21
39.0078
  0
LINE
  8
0
 10
-2.9707
 20
39.0078
 11
-2.95117
 21
38.9414
  0
LINE
  8
0
 10
-2.95117
 20
38.9414
 11
-2.93359
 21
38.8916
  0
LINE
  8
0
 10
-2.93359
 20
38.8916
 11
-2.92676
 21
38.875
  0
LINE
  8
0
 10
-2.92676
 20
38.875
 11
-2.9209
 21
38.8594
  0
LINE
  8
0
 10
-2.9209
 20
38.8594
 11
-2.91309
 21
38.8438
  0
LINE
  8
0
 10
-2.91309
 20
38.8438
 11
-2.90625
 21
38.8271
  0
LINE
  8
0
 10
-2.90625
 20
38.8271
 11
-2.88281
 21
38.7803
  0
LINE
  8
0
 10
-2.88281
 20
38.7803
 11
-2.875
 21
38.7656
  0
LINE
  8
0
 10
-2.875
 20
38.7656
 11
-2.86621
 21
38.75
  0
LINE
  8
0
 10
-2.86621
 20
38.75
 11
-2.85742
 21
38.7354
  0
LINE
  8
0
 10
-2.85742
 20
38.7354
 11
-2.84766
 21
38.7197
  0
LINE
  8
0
 10
-2.84766
 20
38.7197
 11
-2.83887
 21
38.7051
  0
LINE
  8
0
 10
-2.83887
 20
38.7051
 11
-2.8291
 21
38.6904
  0
LINE
  8
0
 10
-2.8291
 20
38.6904
 11
-2.81934
 21
38.6768
  0
LINE
  8
0
 10
-2.81934
 20
38.6768
 11
-2.80859
 21
38.6621
  0
LINE
  8
0
 10
-2.80859
 20
38.6621
 11
-2.79883
 21
38.6484
  0
LINE
  8
0
 10
-2.79883
 20
38.6484
 11
-2.77734
 21
38.6211
  0
LINE
  8
0
 10
-2.77734
 20
38.6211
 11
-2.76562
 21
38.6074
  0
LINE
  8
0
 10
-2.76562
 20
38.6074
 11
-2.75488
 21
38.5938
  0
LINE
  8
0
 10
-2.75488
 20
38.5938
 11
-2.71973
 21
38.5557
  0
LINE
  8
0
 10
-2.71973
 20
38.5557
 11
-2.69434
 21
38.5303
  0
LINE
  8
0
 10
-2.69434
 20
38.5303
 11
-2.65625
 21
38.4951
  0
LINE
  8
0
 10
-2.65625
 20
38.4951
 11
-2.64258
 21
38.4844
  0
LINE
  8
0
 10
-2.64258
 20
38.4844
 11
-2.62891
 21
38.4727
  0
LINE
  8
0
 10
-2.62891
 20
38.4727
 11
-2.60156
 21
38.4512
  0
LINE
  8
0
 10
-2.60156
 20
38.4512
 11
-2.58789
 21
38.4414
  0
LINE
  8
0
 10
-2.58789
 20
38.4414
 11
-2.57324
 21
38.4307
  0
LINE
  8
0
 10
-2.57324
 20
38.4307
 11
-2.55957
 21
38.4209
  0
LINE
  8
0
 10
-2.55957
 20
38.4209
 11
-2.54492
 21
38.4111
  0
LINE
  8
0
 10
-2.54492
 20
38.4111
 11
-2.53027
 21
38.4023
  0
LINE
  8
0
 10
-2.53027
 20
38.4023
 11
-2.51465
 21
38.3926
  0
LINE
  8
0
 10
-2.51465
 20
38.3926
 11
-2.5
 21
38.3838
  0
LINE
  8
0
 10
-2.5
 20
38.3838
 11
-2.48438
 21
38.375
  0
LINE
  8
0
 10
-2.48438
 20
38.375
 11
-2.46973
 21
38.3672
  0
LINE
  8
0
 10
-2.46973
 20
38.3672
 11
-2.42285
 21
38.3438
  0
LINE
  8
0
 10
-2.42285
 20
38.3438
 11
-2.40625
 21
38.3369
  0
LINE
  8
0
 10
-2.40625
 20
38.3369
 11
-2.39062
 21
38.3291
  0
LINE
  8
0
 10
-2.39062
 20
38.3291
 11
-2.375
 21
38.3232
  0
LINE
  8
0
 10
-2.375
 20
38.3232
 11
-2.3584
 21
38.3164
  0
LINE
  8
0
 10
-2.3584
 20
38.3164
 11
-2.30859
 21
38.2988
  0
LINE
  8
0
 10
-2.30859
 20
38.2988
 11
-2.24219
 21
38.2793
  0
LINE
  8
0
 10
-2.24219
 20
38.2793
 11
-2.22461
 21
38.2754
  0
LINE
  8
0
 10
-2.22461
 20
38.2754
 11
-2.20801
 21
38.2715
  0
LINE
  8
0
 10
-2.20801
 20
38.2715
 11
-2.19043
 21
38.2686
  0
LINE
  8
0
 10
-2.19043
 20
38.2686
 11
-2.17383
 21
38.2656
  0
LINE
  8
0
 10
-2.17383
 20
38.2656
 11
-2.15625
 21
38.2627
  0
LINE
  8
0
 10
-2.15625
 20
38.2627
 11
-2.13965
 21
38.2598
  0
LINE
  8
0
 10
-2.13965
 20
38.2598
 11
-2.06934
 21
38.252
  0
LINE
  8
0
 10
-2.06934
 20
38.252
 11
-2.05273
 21
38.251
  0
LINE
  8
0
 10
-2.05273
 20
38.251
 11
-2.03516
 21
38.251
  0
LINE
  8
0
 10
-2.03516
 20
38.251
 11
-2.01758
 21
38.25
  0
LINE
  8
0
 10
-2.01758
 20
38.25
 11
0
 21
38.25
  0
LINE
  8
0
 10
0
 20
38.25
 11
0
 21
1.96484
  0
LINE
  8
0
 10
0
 20
1.96484
 11
0.000976562
 21
1.93066
  0
LINE
  8
0
 10
0.000976562
 20
1.93066
 11
0.00488281
 21
1.86035
  0
LINE
  8
0
 10
0.00488281
 20
1.86035
 11
0.0078125
 21
1.82617
  0
LINE
  8
0
 10
0.0078125
 20
1.82617
 11
0.0107422
 21
1.79102
  0
LINE
  8
0
 10
0.0107422
 20
1.79102
 11
0.0146484
 21
1.75586
  0
LINE
  8
0
 10
0.0146484
 20
1.75586
 11
0.0244141
 21
1.6875
  0
LINE
  8
0
 10
0.0244141
 20
1.6875
 11
0.0302734
 21
1.65234
  0
LINE
  8
0
 10
0.0302734
 20
1.65234
 11
0.0507812
 21
1.5498
  0
LINE
  8
0
 10
0.0507812
 20
1.5498
 11
0.0595703
 21
1.5166
  0
LINE
  8
0
 10
0.0595703
 20
1.5166
 11
0.0771484
 21
1.44824
  0
LINE
  8
0
 10
0.0771484
 20
1.44824
 11
0.0869141
 21
1.41504
  0
LINE
  8
0
 10
0.0869141
 20
1.41504
 11
0.0976562
 21
1.38184
  0
LINE
  8
0
 10
0.0976562
 20
1.38184
 11
0.109375
 21
1.34863
  0
LINE
  8
0
 10
0.109375
 20
1.34863
 11
0.121094
 21
1.31641
  0
LINE
  8
0
 10
0.121094
 20
1.31641
 11
0.132812
 21
1.2832
  0
LINE
  8
0
 10
0.132812
 20
1.2832
 11
0.145508
 21
1.25098
  0
LINE
  8
0
 10
0.145508
 20
1.25098
 11
0.172852
 21
1.18652
  0
LINE
  8
0
 10
0.172852
 20
1.18652
 11
0.1875
 21
1.1543
  0
LINE
  8
0
 10
0.1875
 20
1.1543
 11
0.202148
 21
1.12305
  0
LINE
  8
0
 10
0.202148
 20
1.12305
 11
0.217773
 21
1.0918
  0
LINE
  8
0
 10
0.217773
 20
1.0918
 11
0.234375
 21
1.06152
  0
LINE
  8
0
 10
0.234375
 20
1.06152
 11
0.250977
 21
1.03027
  0
LINE
  8
0
 10
0.250977
 20
1.03027
 11
0.267578
 21
1
  0
LINE
  8
0
 10
0.267578
 20
1
 11
0.286133
 21
0.969727
  0
LINE
  8
0
 10
0.286133
 20
0.969727
 11
0.303711
 21
0.94043
  0
LINE
  8
0
 10
0.303711
 20
0.94043
 11
0.322266
 21
0.911133
  0
LINE
  8
0
 10
0.322266
 20
0.911133
 11
0.361328
 21
0.852539
  0
LINE
  8
0
 10
0.361328
 20
0.852539
 11
0.402344
 21
0.795898
  0
LINE
  8
0
 10
0.402344
 20
0.795898
 11
0.445312
 21
0.741211
  0
LINE
  8
0
 10
0.445312
 20
0.741211
 11
0.467773
 21
0.714844
  0
LINE
  8
0
 10
0.467773
 20
0.714844
 11
0.490234
 21
0.6875
  0
LINE
  8
0
 10
0.490234
 20
0.6875
 11
0.513672
 21
0.662109
  0
LINE
  8
0
 10
0.513672
 20
0.662109
 11
0.537109
 21
0.635742
  0
LINE
  8
0
 10
0.537109
 20
0.635742
 11
0.561523
 21
0.610352
  0
LINE
  8
0
 10
0.561523
 20
0.610352
 11
0.610352
 21
0.561523
  0
LINE
  8
0
 10
0.610352
 20
0.561523
 11
0.635742
 21
0.537109
  0
LINE
  8
0
 10
0.635742
 20
0.537109
 11
0.662109
 21
0.513672
  0
LINE
  8
0
 10
0.662109
 20
0.513672
 11
0.6875
 21
0.490234
  0
LINE
  8
0
 10
0.6875
 20
0.490234
 11
0.714844
 21
0.467773
  0
LINE
  8
0
 10
0.714844
 20
0.467773
 11
0.741211
 21
0.445312
  0
LINE
  8
0
 10
0.741211
 20
0.445312
 11
0.795898
 21
0.402344
  0
LINE
  8
0
 10
0.795898
 20
0.402344
 11
0.852539
 21
0.361328
  0
LINE
  8
0
 10
0.852539
 20
0.361328
 11
0.911133
 21
0.322266
  0
LINE
  8
0
 10
0.911133
 20
0.322266
 11
0.94043
 21
0.303711
  0
LINE
  8
0
 10
0.94043
 20
0.303711
 11
0.969727
 21
0.286133
  0
LINE
  8
0
 10
0.969727
 20
0.286133
 11
1
 21
0.267578
  0
LINE
  8
0
 10
1
 20
0.267578
 11
1.03027
 21
0.250977
  0
LINE
  8
0
 10
1.03027
 20
0.250977
 11
1.06152
 21
0.234375
  0
LINE
  8
0
 10
1.06152
 20
0.234375
 11
1.0918
 21
0.217773
  0
LINE
  8
0
 10
1.0918
 20
0.217773
 11
1.12305
 21
0.202148
  0
LINE
  8
0
 10
1.12305
 20
0.202148
 11
1.1543
 21
0.1875
  0
LINE
  8
0
 10
1.1543
 20
0.1875
 11
1.18652
 21
0.172852
  0
LINE
  8
0
 10
1.18652
 20
0.172852
 11
1.25098
 21
0.145508
  0
LINE
  8
0
 10
1.25098
 20
0.145508
 11
1.2832
 21
0.132812
  0
LINE
  8
0
 10
1.2832
 20
0.132812
 11
1.31641
 21
0.121094
  0
LINE
  8
0
 10
1.31641
 20
0.121094
 11
1.34863
 21
0.109375
  0
LINE
  8
0
 10
1.34863
 20
0.109375
 11
1.38184
 21
0.0976562
  0
LINE
  8
0
 10
1.38184
 20
0.0976562
 11
1.41504
 21
0.0869141
  0
LINE
  8
0
 10
1.41504
 20
0.0869141
 11
1.44824
 21
0.0771484
  0
LINE
  8
0
 10
1.44824
 20
0.0771484
 11
1.5166
 21
0.0595703
  0
LINE
  8
0
 10
1.5166
 20
0.0595703
 11
1.5498
 21
0.0507812
  0
LINE
  8
0
 10
1.5498
 20
0.0507812
 11
1.65234
 21
0.0302734
  0
LINE
  8
0
 10
1.65234
 20
0.0302734
 11
1.6875
 21
0.0244141
  0
LINE
  8
0
 10
1.6875
 20
0.0244141
 11
1.75586
 21
0.0146484
  0
LINE
  8
0
 10
1.75586
 20
0.0146484
 11
1.79102
 21
0.0107422
  0
LINE
  8
0
 10
1.79102
 20
0.0107422
 11
1.82617
 21
0.0078125
  0
LINE
  8
0
 10
1.82617
 20
0.0078125
 11
1.86035
 21
0.00488281
  0
LINE
  8
0
 10
1.86035
 20
0.00488281
 11
1.93066
 21
0.000976562
  0
LINE
  8
0
 10
1.93066
 20
0.000976562
 11
1.96484
 21
0
  0
LINE
  8
0
 10
1.96484
 20
0
 11
10.0352
 21
0
  0
LINE
  8
0
 10
10.0352
 20
0
 11
10.0693
 21
0.000976562
  0
LINE
  8
0
 10
85.5
 20
55
 11
85.5
 21
58
  0
LINE
  8
0
 10
85.5
 20
58
 11
95.5
 21
58
  0
LINE
  8
0
 10
95.5
 20
58
 11
95.5
 21
55
  0
LINE
  8
0
 10
95.5
 20
55
 11
85.5
 21
55
  0
LINE
  8
0
 10
5.41699
 20
55
 11
5.41699
 21
58
  0
LINE
  8
0
 10
5.41699
 20
58
 11
15.417
 21
58
  0
LINE
  8
0
 10
15.417
 20
58
 11
15.417
 21
55
  0
LINE
  8
0
 10
15.417
 20
55
 11
5.41699
 21
55
  0
ENDSEC
  0
SECTION
  2
OBJECTS
  0
DICTIONARY
  0
ENDSEC
  0
EOF
