  0
SECTION
  2
BLOCKS
  0
ENDSEC
  0
SECTION
  2
ENTITIES
  0
LINE
  8
0
 10
100.95
 20
6.5
 11
102.526
 21
6.5
  0
LINE
  8
0
 10
102.526
 20
6.5
 11
102.578
 21
6.50195
  0
LINE
  8
0
 10
102.578
 20
6.50195
 11
102.657
 21
6.50781
  0
LINE
  8
0
 10
102.657
 20
6.50781
 11
102.683
 21
6.51074
  0
LINE
  8
0
 10
102.683
 20
6.51074
 11
102.709
 21
6.51465
  0
LINE
  8
0
 10
102.709
 20
6.51465
 11
102.734
 21
6.51855
  0
LINE
  8
0
 10
102.734
 20
6.51855
 11
102.761
 21
6.52246
  0
LINE
  8
0
 10
102.761
 20
6.52246
 11
102.786
 21
6.52734
  0
LINE
  8
0
 10
102.786
 20
6.52734
 11
102.812
 21
6.5332
  0
LINE
  8
0
 10
102.812
 20
6.5332
 11
102.838
 21
6.53809
  0
LINE
  8
0
 10
102.838
 20
6.53809
 11
102.863
 21
6.54492
  0
LINE
  8
0
 10
102.863
 20
6.54492
 11
102.889
 21
6.55078
  0
LINE
  8
0
 10
102.889
 20
6.55078
 11
102.913
 21
6.55859
  0
LINE
  8
0
 10
102.913
 20
6.55859
 11
102.938
 21
6.56543
  0
LINE
  8
0
 10
102.938
 20
6.56543
 11
102.964
 21
6.57324
  0
LINE
  8
0
 10
102.964
 20
6.57324
 11
103.037
 21
6.59961
  0
LINE
  8
0
 10
103.037
 20
6.59961
 11
103.086
 21
6.61914
  0
LINE
  8
0
 10
103.086
 20
6.61914
 11
103.11
 21
6.62988
  0
LINE
  8
0
 10
103.11
 20
6.62988
 11
103.157
 21
6.65137
  0
LINE
  8
0
 10
103.157
 20
6.65137
 11
103.181
 21
6.66309
  0
LINE
  8
0
 10
103.181
 20
6.66309
 11
103.228
 21
6.68848
  0
LINE
  8
0
 10
103.228
 20
6.68848
 11
103.272
 21
6.71387
  0
LINE
  8
0
 10
103.272
 20
6.71387
 11
103.295
 21
6.72754
  0
LINE
  8
0
 10
103.295
 20
6.72754
 11
103.317
 21
6.74219
  0
LINE
  8
0
 10
103.317
 20
6.74219
 11
103.382
 21
6.78613
  0
LINE
  8
0
 10
103.382
 20
6.78613
 11
103.402
 21
6.80176
  0
LINE
  8
0
 10
103.402
 20
6.80176
 11
103.424
 21
6.81836
  0
LINE
  8
0
 10
103.424
 20
6.81836
 11
103.444
 21
6.83398
  0
LINE
  8
0
 10
103.444
 20
6.83398
 11
103.464
 21
6.85059
  0
LINE
  8
0
 10
103.464
 20
6.85059
 11
103.484
 21
6.86816
  0
LINE
  8
0
 10
103.484
 20
6.86816
 11
103.523
 21
6.90332
  0
LINE
  8
0
 10
103.523
 20
6.90332
 11
103.542
 21
6.9209
  0
LINE
  8
0
 10
103.542
 20
6.9209
 11
103.579
 21
6.95801
  0
LINE
  8
0
 10
103.579
 20
6.95801
 11
103.597
 21
6.97656
  0
LINE
  8
0
 10
103.597
 20
6.97656
 11
103.632
 21
7.01562
  0
LINE
  8
0
 10
103.632
 20
7.01562
 11
103.649
 21
7.03613
  0
LINE
  8
0
 10
103.649
 20
7.03613
 11
103.666
 21
7.05566
  0
LINE
  8
0
 10
103.666
 20
7.05566
 11
103.682
 21
7.07617
  0
LINE
  8
0
 10
103.682
 20
7.07617
 11
103.698
 21
7.09766
  0
LINE
  8
0
 10
103.698
 20
7.09766
 11
103.714
 21
7.11816
  0
LINE
  8
0
 10
103.714
 20
7.11816
 11
103.758
 21
7.18262
  0
LINE
  8
0
 10
103.758
 20
7.18262
 11
103.772
 21
7.20508
  0
LINE
  8
0
 10
103.772
 20
7.20508
 11
103.786
 21
7.22754
  0
LINE
  8
0
 10
103.786
 20
7.22754
 11
103.812
 21
7.27246
  0
LINE
  8
0
 10
103.812
 20
7.27246
 11
103.837
 21
7.31934
  0
LINE
  8
0
 10
103.837
 20
7.31934
 11
103.849
 21
7.34277
  0
LINE
  8
0
 10
103.849
 20
7.34277
 11
103.87
 21
7.38965
  0
LINE
  8
0
 10
103.87
 20
7.38965
 11
103.881
 21
7.41406
  0
LINE
  8
0
 10
103.881
 20
7.41406
 11
103.9
 21
7.46289
  0
LINE
  8
0
 10
103.9
 20
7.46289
 11
103.927
 21
7.53613
  0
LINE
  8
0
 10
103.927
 20
7.53613
 11
103.935
 21
7.56152
  0
LINE
  8
0
 10
103.935
 20
7.56152
 11
103.941
 21
7.58691
  0
LINE
  8
0
 10
103.941
 20
7.58691
 11
103.949
 21
7.61133
  0
LINE
  8
0
 10
103.949
 20
7.61133
 11
103.955
 21
7.63672
  0
LINE
  8
0
 10
103.955
 20
7.63672
 11
103.962
 21
7.66211
  0
LINE
  8
0
 10
103.962
 20
7.66211
 11
103.967
 21
7.68848
  0
LINE
  8
0
 10
103.967
 20
7.68848
 11
103.973
 21
7.71387
  0
LINE
  8
0
 10
103.973
 20
7.71387
 11
103.978
 21
7.73926
  0
LINE
  8
0
 10
103.978
 20
7.73926
 11
103.981
 21
7.76562
  0
LINE
  8
0
 10
103.981
 20
7.76562
 11
103.985
 21
7.79102
  0
LINE
  8
0
 10
103.985
 20
7.79102
 11
103.989
 21
7.81738
  0
LINE
  8
0
 10
103.989
 20
7.81738
 11
103.992
 21
7.84277
  0
LINE
  8
0
 10
103.992
 20
7.84277
 11
103.998
 21
7.92188
  0
LINE
  8
0
 10
103.998
 20
7.92188
 11
104
 21
7.97363
  0
LINE
  8
0
 10
104
 20
7.97363
 11
104
 21
15.0264
  0
LINE
  8
0
 10
104
 20
15.0264
 11
103.998
 21
15.0781
  0
LINE
  8
0
 10
103.998
 20
15.0781
 11
103.992
 21
15.1572
  0
LINE
  8
0
 10
103.992
 20
15.1572
 11
103.989
 21
15.1826
  0
LINE
  8
0
 10
103.989
 20
15.1826
 11
103.985
 21
15.209
  0
LINE
  8
0
 10
103.985
 20
15.209
 11
103.981
 21
15.2344
  0
LINE
  8
0
 10
103.981
 20
15.2344
 11
103.978
 21
15.2607
  0
LINE
  8
0
 10
103.978
 20
15.2607
 11
103.973
 21
15.2861
  0
LINE
  8
0
 10
103.973
 20
15.2861
 11
103.967
 21
15.3115
  0
LINE
  8
0
 10
103.967
 20
15.3115
 11
103.962
 21
15.3379
  0
LINE
  8
0
 10
103.962
 20
15.3379
 11
103.955
 21
15.3633
  0
LINE
  8
0
 10
103.955
 20
15.3633
 11
103.949
 21
15.3887
  0
LINE
  8
0
 10
103.949
 20
15.3887
 11
103.941
 21
15.4131
  0
LINE
  8
0
 10
103.941
 20
15.4131
 11
103.935
 21
15.4385
  0
LINE
  8
0
 10
103.935
 20
15.4385
 11
103.927
 21
15.4639
  0
LINE
  8
0
 10
103.927
 20
15.4639
 11
103.9
 21
15.5371
  0
LINE
  8
0
 10
103.9
 20
15.5371
 11
103.881
 21
15.5859
  0
LINE
  8
0
 10
103.881
 20
15.5859
 11
103.87
 21
15.6104
  0
LINE
  8
0
 10
103.87
 20
15.6104
 11
103.849
 21
15.6572
  0
LINE
  8
0
 10
103.849
 20
15.6572
 11
103.837
 21
15.6807
  0
LINE
  8
0
 10
103.837
 20
15.6807
 11
103.812
 21
15.7275
  0
LINE
  8
0
 10
103.812
 20
15.7275
 11
103.786
 21
15.7725
  0
LINE
  8
0
 10
103.786
 20
15.7725
 11
103.772
 21
15.7949
  0
LINE
  8
0
 10
103.772
 20
15.7949
 11
103.758
 21
15.8174
  0
LINE
  8
0
 10
103.758
 20
15.8174
 11
103.714
 21
15.8818
  0
LINE
  8
0
 10
103.714
 20
15.8818
 11
103.698
 21
15.9023
  0
LINE
  8
0
 10
103.698
 20
15.9023
 11
103.682
 21
15.9238
  0
LINE
  8
0
 10
103.682
 20
15.9238
 11
103.666
 21
15.9443
  0
LINE
  8
0
 10
103.666
 20
15.9443
 11
103.649
 21
15.9639
  0
LINE
  8
0
 10
103.649
 20
15.9639
 11
103.632
 21
15.9844
  0
LINE
  8
0
 10
103.632
 20
15.9844
 11
103.597
 21
16.0234
  0
LINE
  8
0
 10
103.597
 20
16.0234
 11
103.579
 21
16.042
  0
LINE
  8
0
 10
103.579
 20
16.042
 11
103.542
 21
16.0791
  0
LINE
  8
0
 10
103.542
 20
16.0791
 11
103.523
 21
16.0967
  0
LINE
  8
0
 10
103.523
 20
16.0967
 11
103.484
 21
16.1318
  0
LINE
  8
0
 10
103.484
 20
16.1318
 11
103.464
 21
16.1494
  0
LINE
  8
0
 10
103.464
 20
16.1494
 11
103.444
 21
16.166
  0
LINE
  8
0
 10
103.444
 20
16.166
 11
103.424
 21
16.1816
  0
LINE
  8
0
 10
103.424
 20
16.1816
 11
103.402
 21
16.1982
  0
LINE
  8
0
 10
103.402
 20
16.1982
 11
103.382
 21
16.2139
  0
LINE
  8
0
 10
103.382
 20
16.2139
 11
103.317
 21
16.2578
  0
LINE
  8
0
 10
103.317
 20
16.2578
 11
103.295
 21
16.2725
  0
LINE
  8
0
 10
103.295
 20
16.2725
 11
103.272
 21
16.2861
  0
LINE
  8
0
 10
103.272
 20
16.2861
 11
103.228
 21
16.3115
  0
LINE
  8
0
 10
103.228
 20
16.3115
 11
103.181
 21
16.3369
  0
LINE
  8
0
 10
103.181
 20
16.3369
 11
103.157
 21
16.3486
  0
LINE
  8
0
 10
103.157
 20
16.3486
 11
103.11
 21
16.3701
  0
LINE
  8
0
 10
103.11
 20
16.3701
 11
103.086
 21
16.3809
  0
LINE
  8
0
 10
103.086
 20
16.3809
 11
103.037
 21
16.4004
  0
LINE
  8
0
 10
103.037
 20
16.4004
 11
102.964
 21
16.4268
  0
LINE
  8
0
 10
102.964
 20
16.4268
 11
102.938
 21
16.4346
  0
LINE
  8
0
 10
102.938
 20
16.4346
 11
102.913
 21
16.4414
  0
LINE
  8
0
 10
102.913
 20
16.4414
 11
102.889
 21
16.4492
  0
LINE
  8
0
 10
102.889
 20
16.4492
 11
102.863
 21
16.4551
  0
LINE
  8
0
 10
102.863
 20
16.4551
 11
102.838
 21
16.4619
  0
LINE
  8
0
 10
102.838
 20
16.4619
 11
102.812
 21
16.4668
  0
LINE
  8
0
 10
102.812
 20
16.4668
 11
102.786
 21
16.4727
  0
LINE
  8
0
 10
102.786
 20
16.4727
 11
102.761
 21
16.4775
  0
LINE
  8
0
 10
102.761
 20
16.4775
 11
102.734
 21
16.4814
  0
LINE
  8
0
 10
102.734
 20
16.4814
 11
102.709
 21
16.4854
  0
LINE
  8
0
 10
102.709
 20
16.4854
 11
102.683
 21
16.4893
  0
LINE
  8
0
 10
102.683
 20
16.4893
 11
102.657
 21
16.4922
  0
LINE
  8
0
 10
102.657
 20
16.4922
 11
102.578
 21
16.498
  0
LINE
  8
0
 10
102.578
 20
16.498
 11
102.526
 21
16.5
  0
LINE
  8
0
 10
102.526
 20
16.5
 11
100.95
 21
16.5
  0
LINE
  8
0
 10
100.95
 20
16.5
 11
100.95
 21
202.25
  0
LINE
  8
0
 10
100.95
 20
202.25
 11
102.526
 21
202.25
  0
LINE
  8
0
 10
102.526
 20
202.25
 11
102.578
 21
202.252
  0
LINE
  8
0
 10
102.578
 20
202.252
 11
102.657
 21
202.258
  0
LINE
  8
0
 10
102.657
 20
202.258
 11
102.683
 21
202.261
  0
LINE
  8
0
 10
102.683
 20
202.261
 11
102.709
 21
202.265
  0
LINE
  8
0
 10
102.709
 20
202.265
 11
102.734
 21
202.269
  0
LINE
  8
0
 10
102.734
 20
202.269
 11
102.761
 21
202.272
  0
LINE
  8
0
 10
102.761
 20
202.272
 11
102.786
 21
202.277
  0
LINE
  8
0
 10
102.786
 20
202.277
 11
102.812
 21
202.283
  0
LINE
  8
0
 10
102.812
 20
202.283
 11
102.838
 21
202.288
  0
LINE
  8
0
 10
102.838
 20
202.288
 11
102.863
 21
202.295
  0
LINE
  8
0
 10
102.863
 20
202.295
 11
102.889
 21
202.301
  0
LINE
  8
0
 10
102.889
 20
202.301
 11
102.913
 21
202.309
  0
LINE
  8
0
 10
102.913
 20
202.309
 11
102.938
 21
202.315
  0
LINE
  8
0
 10
102.938
 20
202.315
 11
102.964
 21
202.323
  0
LINE
  8
0
 10
102.964
 20
202.323
 11
103.037
 21
202.35
  0
LINE
  8
0
 10
103.037
 20
202.35
 11
103.086
 21
202.369
  0
LINE
  8
0
 10
103.086
 20
202.369
 11
103.11
 21
202.38
  0
LINE
  8
0
 10
103.11
 20
202.38
 11
103.157
 21
202.401
  0
LINE
  8
0
 10
103.157
 20
202.401
 11
103.181
 21
202.413
  0
LINE
  8
0
 10
103.181
 20
202.413
 11
103.228
 21
202.438
  0
LINE
  8
0
 10
103.228
 20
202.438
 11
103.272
 21
202.464
  0
LINE
  8
0
 10
103.272
 20
202.464
 11
103.295
 21
202.478
  0
LINE
  8
0
 10
103.295
 20
202.478
 11
103.317
 21
202.492
  0
LINE
  8
0
 10
103.317
 20
202.492
 11
103.382
 21
202.536
  0
LINE
  8
0
 10
103.382
 20
202.536
 11
103.402
 21
202.552
  0
LINE
  8
0
 10
103.402
 20
202.552
 11
103.424
 21
202.568
  0
LINE
  8
0
 10
103.424
 20
202.568
 11
103.444
 21
202.584
  0
LINE
  8
0
 10
103.444
 20
202.584
 11
103.464
 21
202.601
  0
LINE
  8
0
 10
103.464
 20
202.601
 11
103.484
 21
202.618
  0
LINE
  8
0
 10
103.484
 20
202.618
 11
103.523
 21
202.653
  0
LINE
  8
0
 10
103.523
 20
202.653
 11
103.542
 21
202.671
  0
LINE
  8
0
 10
103.542
 20
202.671
 11
103.579
 21
202.708
  0
LINE
  8
0
 10
103.579
 20
202.708
 11
103.597
 21
202.727
  0
LINE
  8
0
 10
103.597
 20
202.727
 11
103.632
 21
202.766
  0
LINE
  8
0
 10
103.632
 20
202.766
 11
103.649
 21
202.786
  0
LINE
  8
0
 10
103.649
 20
202.786
 11
103.666
 21
202.806
  0
LINE
  8
0
 10
103.666
 20
202.806
 11
103.682
 21
202.826
  0
LINE
  8
0
 10
103.682
 20
202.826
 11
103.698
 21
202.848
  0
LINE
  8
0
 10
103.698
 20
202.848
 11
103.714
 21
202.868
  0
LINE
  8
0
 10
103.714
 20
202.868
 11
103.758
 21
202.933
  0
LINE
  8
0
 10
103.758
 20
202.933
 11
103.772
 21
202.955
  0
LINE
  8
0
 10
103.772
 20
202.955
 11
103.786
 21
202.978
  0
LINE
  8
0
 10
103.786
 20
202.978
 11
103.812
 21
203.022
  0
LINE
  8
0
 10
103.812
 20
203.022
 11
103.837
 21
203.069
  0
LINE
  8
0
 10
103.837
 20
203.069
 11
103.849
 21
203.093
  0
LINE
  8
0
 10
103.849
 20
203.093
 11
103.87
 21
203.14
  0
LINE
  8
0
 10
103.87
 20
203.14
 11
103.881
 21
203.164
  0
LINE
  8
0
 10
103.881
 20
203.164
 11
103.9
 21
203.213
  0
LINE
  8
0
 10
103.9
 20
203.213
 11
103.927
 21
203.286
  0
LINE
  8
0
 10
103.927
 20
203.286
 11
103.935
 21
203.312
  0
LINE
  8
0
 10
103.935
 20
203.312
 11
103.941
 21
203.337
  0
LINE
  8
0
 10
103.941
 20
203.337
 11
103.949
 21
203.361
  0
LINE
  8
0
 10
103.949
 20
203.361
 11
103.955
 21
203.387
  0
LINE
  8
0
 10
103.955
 20
203.387
 11
103.962
 21
203.412
  0
LINE
  8
0
 10
103.962
 20
203.412
 11
103.967
 21
203.438
  0
LINE
  8
0
 10
103.967
 20
203.438
 11
103.973
 21
203.464
  0
LINE
  8
0
 10
103.973
 20
203.464
 11
103.978
 21
203.489
  0
LINE
  8
0
 10
103.978
 20
203.489
 11
103.981
 21
203.516
  0
LINE
  8
0
 10
103.981
 20
203.516
 11
103.985
 21
203.541
  0
LINE
  8
0
 10
103.985
 20
203.541
 11
103.989
 21
203.567
  0
LINE
  8
0
 10
103.989
 20
203.567
 11
103.992
 21
203.593
  0
LINE
  8
0
 10
103.992
 20
203.593
 11
103.998
 21
203.672
  0
LINE
  8
0
 10
103.998
 20
203.672
 11
104
 21
203.724
  0
LINE
  8
0
 10
104
 20
203.724
 11
104
 21
210.776
  0
LINE
  8
0
 10
104
 20
210.776
 11
103.998
 21
210.828
  0
LINE
  8
0
 10
103.998
 20
210.828
 11
103.992
 21
210.907
  0
LINE
  8
0
 10
103.992
 20
210.907
 11
103.989
 21
210.933
  0
LINE
  8
0
 10
103.989
 20
210.933
 11
103.985
 21
210.959
  0
LINE
  8
0
 10
103.985
 20
210.959
 11
103.981
 21
210.984
  0
LINE
  8
0
 10
103.981
 20
210.984
 11
103.978
 21
211.011
  0
LINE
  8
0
 10
103.978
 20
211.011
 11
103.973
 21
211.036
  0
LINE
  8
0
 10
103.973
 20
211.036
 11
103.967
 21
211.062
  0
LINE
  8
0
 10
103.967
 20
211.062
 11
103.962
 21
211.088
  0
LINE
  8
0
 10
103.962
 20
211.088
 11
103.955
 21
211.113
  0
LINE
  8
0
 10
103.955
 20
211.113
 11
103.949
 21
211.139
  0
LINE
  8
0
 10
103.949
 20
211.139
 11
103.941
 21
211.163
  0
LINE
  8
0
 10
103.941
 20
211.163
 11
103.935
 21
211.188
  0
LINE
  8
0
 10
103.935
 20
211.188
 11
103.927
 21
211.214
  0
LINE
  8
0
 10
103.927
 20
211.214
 11
103.9
 21
211.287
  0
LINE
  8
0
 10
103.9
 20
211.287
 11
103.881
 21
211.336
  0
LINE
  8
0
 10
103.881
 20
211.336
 11
103.87
 21
211.36
  0
LINE
  8
0
 10
103.87
 20
211.36
 11
103.849
 21
211.407
  0
LINE
  8
0
 10
103.849
 20
211.407
 11
103.837
 21
211.431
  0
LINE
  8
0
 10
103.837
 20
211.431
 11
103.812
 21
211.478
  0
LINE
  8
0
 10
103.812
 20
211.478
 11
103.786
 21
211.522
  0
LINE
  8
0
 10
103.786
 20
211.522
 11
103.772
 21
211.545
  0
LINE
  8
0
 10
103.772
 20
211.545
 11
103.758
 21
211.567
  0
LINE
  8
0
 10
103.758
 20
211.567
 11
103.714
 21
211.632
  0
LINE
  8
0
 10
103.714
 20
211.632
 11
103.698
 21
211.652
  0
LINE
  8
0
 10
103.698
 20
211.652
 11
103.682
 21
211.674
  0
LINE
  8
0
 10
103.682
 20
211.674
 11
103.666
 21
211.694
  0
LINE
  8
0
 10
103.666
 20
211.694
 11
103.649
 21
211.714
  0
LINE
  8
0
 10
103.649
 20
211.714
 11
103.632
 21
211.734
  0
LINE
  8
0
 10
103.632
 20
211.734
 11
103.597
 21
211.773
  0
LINE
  8
0
 10
103.597
 20
211.773
 11
103.579
 21
211.792
  0
LINE
  8
0
 10
103.579
 20
211.792
 11
103.542
 21
211.829
  0
LINE
  8
0
 10
103.542
 20
211.829
 11
103.523
 21
211.847
  0
LINE
  8
0
 10
103.523
 20
211.847
 11
103.484
 21
211.882
  0
LINE
  8
0
 10
103.484
 20
211.882
 11
103.464
 21
211.899
  0
LINE
  8
0
 10
103.464
 20
211.899
 11
103.444
 21
211.916
  0
LINE
  8
0
 10
103.444
 20
211.916
 11
103.424
 21
211.932
  0
LINE
  8
0
 10
103.424
 20
211.932
 11
103.402
 21
211.948
  0
LINE
  8
0
 10
103.402
 20
211.948
 11
103.382
 21
211.964
  0
LINE
  8
0
 10
103.382
 20
211.964
 11
103.317
 21
212.008
  0
LINE
  8
0
 10
103.317
 20
212.008
 11
103.295
 21
212.022
  0
LINE
  8
0
 10
103.295
 20
212.022
 11
103.272
 21
212.036
  0
LINE
  8
0
 10
103.272
 20
212.036
 11
103.228
 21
212.062
  0
LINE
  8
0
 10
103.228
 20
212.062
 11
103.181
 21
212.087
  0
LINE
  8
0
 10
103.181
 20
212.087
 11
103.157
 21
212.099
  0
LINE
  8
0
 10
103.157
 20
212.099
 11
103.11
 21
212.12
  0
LINE
  8
0
 10
103.11
 20
212.12
 11
103.086
 21
212.131
  0
LINE
  8
0
 10
103.086
 20
212.131
 11
103.037
 21
212.15
  0
LINE
  8
0
 10
103.037
 20
212.15
 11
102.964
 21
212.177
  0
LINE
  8
0
 10
102.964
 20
212.177
 11
102.938
 21
212.185
  0
LINE
  8
0
 10
102.938
 20
212.185
 11
102.913
 21
212.191
  0
LINE
  8
0
 10
102.913
 20
212.191
 11
102.889
 21
212.199
  0
LINE
  8
0
 10
102.889
 20
212.199
 11
102.863
 21
212.205
  0
LINE
  8
0
 10
102.863
 20
212.205
 11
102.838
 21
212.212
  0
LINE
  8
0
 10
102.838
 20
212.212
 11
102.812
 21
212.217
  0
LINE
  8
0
 10
102.812
 20
212.217
 11
102.786
 21
212.223
  0
LINE
  8
0
 10
102.786
 20
212.223
 11
102.761
 21
212.228
  0
LINE
  8
0
 10
102.761
 20
212.228
 11
102.734
 21
212.231
  0
LINE
  8
0
 10
102.734
 20
212.231
 11
102.709
 21
212.235
  0
LINE
  8
0
 10
102.709
 20
212.235
 11
102.683
 21
212.239
  0
LINE
  8
0
 10
102.683
 20
212.239
 11
102.657
 21
212.242
  0
LINE
  8
0
 10
102.657
 20
212.242
 11
102.578
 21
212.248
  0
LINE
  8
0
 10
102.578
 20
212.248
 11
102.526
 21
212.25
  0
LINE
  8
0
 10
102.526
 20
212.25
 11
100.95
 21
212.25
  0
LINE
  8
0
 10
100.95
 20
212.25
 11
100.95
 21
237
  0
LINE
  8
0
 10
100.95
 20
237
 11
0
 21
237
  0
LINE
  8
0
 10
0
 20
237
 11
0
 21
212.25
  0
LINE
  8
0
 10
0
 20
212.25
 11
-1.52637
 21
212.25
  0
LINE
  8
0
 10
-1.52637
 20
212.25
 11
-1.57812
 21
212.248
  0
LINE
  8
0
 10
-1.57812
 20
212.248
 11
-1.65723
 21
212.242
  0
LINE
  8
0
 10
-1.65723
 20
212.242
 11
-1.68262
 21
212.239
  0
LINE
  8
0
 10
-1.68262
 20
212.239
 11
-1.70898
 21
212.235
  0
LINE
  8
0
 10
-1.70898
 20
212.235
 11
-1.73438
 21
212.231
  0
LINE
  8
0
 10
-1.73438
 20
212.231
 11
-1.76074
 21
212.228
  0
LINE
  8
0
 10
-1.76074
 20
212.228
 11
-1.78613
 21
212.223
  0
LINE
  8
0
 10
-1.78613
 20
212.223
 11
-1.81152
 21
212.217
  0
LINE
  8
0
 10
-1.81152
 20
212.217
 11
-1.83789
 21
212.212
  0
LINE
  8
0
 10
-1.83789
 20
212.212
 11
-1.86328
 21
212.205
  0
LINE
  8
0
 10
-1.86328
 20
212.205
 11
-1.88867
 21
212.199
  0
LINE
  8
0
 10
-1.88867
 20
212.199
 11
-1.91309
 21
212.191
  0
LINE
  8
0
 10
-1.91309
 20
212.191
 11
-1.93848
 21
212.185
  0
LINE
  8
0
 10
-1.93848
 20
212.185
 11
-1.96387
 21
212.177
  0
LINE
  8
0
 10
-1.96387
 20
212.177
 11
-2.03711
 21
212.15
  0
LINE
  8
0
 10
-2.03711
 20
212.15
 11
-2.08594
 21
212.131
  0
LINE
  8
0
 10
-2.08594
 20
212.131
 11
-2.11035
 21
212.12
  0
LINE
  8
0
 10
-2.11035
 20
212.12
 11
-2.15723
 21
212.099
  0
LINE
  8
0
 10
-2.15723
 20
212.099
 11
-2.18066
 21
212.087
  0
LINE
  8
0
 10
-2.18066
 20
212.087
 11
-2.22754
 21
212.062
  0
LINE
  8
0
 10
-2.22754
 20
212.062
 11
-2.27246
 21
212.036
  0
LINE
  8
0
 10
-2.27246
 20
212.036
 11
-2.29492
 21
212.022
  0
LINE
  8
0
 10
-2.29492
 20
212.022
 11
-2.31738
 21
212.008
  0
LINE
  8
0
 10
-2.31738
 20
212.008
 11
-2.38184
 21
211.964
  0
LINE
  8
0
 10
-2.38184
 20
211.964
 11
-2.40234
 21
211.948
  0
LINE
  8
0
 10
-2.40234
 20
211.948
 11
-2.42383
 21
211.932
  0
LINE
  8
0
 10
-2.42383
 20
211.932
 11
-2.44434
 21
211.916
  0
LINE
  8
0
 10
-2.44434
 20
211.916
 11
-2.46387
 21
211.899
  0
LINE
  8
0
 10
-2.46387
 20
211.899
 11
-2.48438
 21
211.882
  0
LINE
  8
0
 10
-2.48438
 20
211.882
 11
-2.52344
 21
211.847
  0
LINE
  8
0
 10
-2.52344
 20
211.847
 11
-2.54199
 21
211.829
  0
LINE
  8
0
 10
-2.54199
 20
211.829
 11
-2.5791
 21
211.792
  0
LINE
  8
0
 10
-2.5791
 20
211.792
 11
-2.59668
 21
211.773
  0
LINE
  8
0
 10
-2.59668
 20
211.773
 11
-2.63184
 21
211.734
  0
LINE
  8
0
 10
-2.63184
 20
211.734
 11
-2.64941
 21
211.714
  0
LINE
  8
0
 10
-2.64941
 20
211.714
 11
-2.66602
 21
211.694
  0
LINE
  8
0
 10
-2.66602
 20
211.694
 11
-2.68164
 21
211.674
  0
LINE
  8
0
 10
-2.68164
 20
211.674
 11
-2.69824
 21
211.652
  0
LINE
  8
0
 10
-2.69824
 20
211.652
 11
-2.71387
 21
211.632
  0
LINE
  8
0
 10
-2.71387
 20
211.632
 11
-2.75781
 21
211.567
  0
LINE
  8
0
 10
-2.75781
 20
211.567
 11
-2.77246
 21
211.545
  0
LINE
  8
0
 10
-2.77246
 20
211.545
 11
-2.78613
 21
211.522
  0
LINE
  8
0
 10
-2.78613
 20
211.522
 11
-2.81152
 21
211.478
  0
LINE
  8
0
 10
-2.81152
 20
211.478
 11
-2.83691
 21
211.431
  0
LINE
  8
0
 10
-2.83691
 20
211.431
 11
-2.84863
 21
211.407
  0
LINE
  8
0
 10
-2.84863
 20
211.407
 11
-2.87012
 21
211.36
  0
LINE
  8
0
 10
-2.87012
 20
211.36
 11
-2.88086
 21
211.336
  0
LINE
  8
0
 10
-2.88086
 20
211.336
 11
-2.90039
 21
211.287
  0
LINE
  8
0
 10
-2.90039
 20
211.287
 11
-2.92676
 21
211.214
  0
LINE
  8
0
 10
-2.92676
 20
211.214
 11
-2.93457
 21
211.188
  0
LINE
  8
0
 10
-2.93457
 20
211.188
 11
-2.94141
 21
211.163
  0
LINE
  8
0
 10
-2.94141
 20
211.163
 11
-2.94922
 21
211.139
  0
LINE
  8
0
 10
-2.94922
 20
211.139
 11
-2.95508
 21
211.113
  0
LINE
  8
0
 10
-2.95508
 20
211.113
 11
-2.96191
 21
211.088
  0
LINE
  8
0
 10
-2.96191
 20
211.088
 11
-2.9668
 21
211.062
  0
LINE
  8
0
 10
-2.9668
 20
211.062
 11
-2.97266
 21
211.036
  0
LINE
  8
0
 10
-2.97266
 20
211.036
 11
-2.97754
 21
211.011
  0
LINE
  8
0
 10
-2.97754
 20
211.011
 11
-2.98145
 21
210.984
  0
LINE
  8
0
 10
-2.98145
 20
210.984
 11
-2.98535
 21
210.959
  0
LINE
  8
0
 10
-2.98535
 20
210.959
 11
-2.98926
 21
210.933
  0
LINE
  8
0
 10
-2.98926
 20
210.933
 11
-2.99219
 21
210.907
  0
LINE
  8
0
 10
-2.99219
 20
210.907
 11
-2.99805
 21
210.828
  0
LINE
  8
0
 10
-2.99805
 20
210.828
 11
-3
 21
210.776
  0
LINE
  8
0
 10
-3
 20
210.776
 11
-3
 21
203.724
  0
LINE
  8
0
 10
-3
 20
203.724
 11
-2.99805
 21
203.672
  0
LINE
  8
0
 10
-2.99805
 20
203.672
 11
-2.99219
 21
203.593
  0
LINE
  8
0
 10
-2.99219
 20
203.593
 11
-2.98926
 21
203.567
  0
LINE
  8
0
 10
-2.98926
 20
203.567
 11
-2.98535
 21
203.541
  0
LINE
  8
0
 10
-2.98535
 20
203.541
 11
-2.98145
 21
203.516
  0
LINE
  8
0
 10
-2.98145
 20
203.516
 11
-2.97754
 21
203.489
  0
LINE
  8
0
 10
-2.97754
 20
203.489
 11
-2.97266
 21
203.464
  0
LINE
  8
0
 10
-2.97266
 20
203.464
 11
-2.9668
 21
203.438
  0
LINE
  8
0
 10
-2.9668
 20
203.438
 11
-2.96191
 21
203.412
  0
LINE
  8
0
 10
-2.96191
 20
203.412
 11
-2.95508
 21
203.387
  0
LINE
  8
0
 10
-2.95508
 20
203.387
 11
-2.94922
 21
203.361
  0
LINE
  8
0
 10
-2.94922
 20
203.361
 11
-2.94141
 21
203.337
  0
LINE
  8
0
 10
-2.94141
 20
203.337
 11
-2.93457
 21
203.312
  0
LINE
  8
0
 10
-2.93457
 20
203.312
 11
-2.92676
 21
203.286
  0
LINE
  8
0
 10
-2.92676
 20
203.286
 11
-2.90039
 21
203.213
  0
LINE
  8
0
 10
-2.90039
 20
203.213
 11
-2.88086
 21
203.164
  0
LINE
  8
0
 10
-2.88086
 20
203.164
 11
-2.87012
 21
203.14
  0
LINE
  8
0
 10
-2.87012
 20
203.14
 11
-2.84863
 21
203.093
  0
LINE
  8
0
 10
-2.84863
 20
203.093
 11
-2.83691
 21
203.069
  0
LINE
  8
0
 10
-2.83691
 20
203.069
 11
-2.81152
 21
203.022
  0
LINE
  8
0
 10
-2.81152
 20
203.022
 11
-2.78613
 21
202.978
  0
LINE
  8
0
 10
-2.78613
 20
202.978
 11
-2.77246
 21
202.955
  0
LINE
  8
0
 10
-2.77246
 20
202.955
 11
-2.75781
 21
202.933
  0
LINE
  8
0
 10
-2.75781
 20
202.933
 11
-2.71387
 21
202.868
  0
LINE
  8
0
 10
-2.71387
 20
202.868
 11
-2.69824
 21
202.848
  0
LINE
  8
0
 10
-2.69824
 20
202.848
 11
-2.68164
 21
202.826
  0
LINE
  8
0
 10
-2.68164
 20
202.826
 11
-2.66602
 21
202.806
  0
LINE
  8
0
 10
-2.66602
 20
202.806
 11
-2.64941
 21
202.786
  0
LINE
  8
0
 10
-2.64941
 20
202.786
 11
-2.63184
 21
202.766
  0
LINE
  8
0
 10
-2.63184
 20
202.766
 11
-2.59668
 21
202.727
  0
LINE
  8
0
 10
-2.59668
 20
202.727
 11
-2.5791
 21
202.708
  0
LINE
  8
0
 10
-2.5791
 20
202.708
 11
-2.54199
 21
202.671
  0
LINE
  8
0
 10
-2.54199
 20
202.671
 11
-2.52344
 21
202.653
  0
LINE
  8
0
 10
-2.52344
 20
202.653
 11
-2.48438
 21
202.618
  0
LINE
  8
0
 10
-2.48438
 20
202.618
 11
-2.46387
 21
202.601
  0
LINE
  8
0
 10
-2.46387
 20
202.601
 11
-2.44434
 21
202.584
  0
LINE
  8
0
 10
-2.44434
 20
202.584
 11
-2.42383
 21
202.568
  0
LINE
  8
0
 10
-2.42383
 20
202.568
 11
-2.40234
 21
202.552
  0
LINE
  8
0
 10
-2.40234
 20
202.552
 11
-2.38184
 21
202.536
  0
LINE
  8
0
 10
-2.38184
 20
202.536
 11
-2.31738
 21
202.492
  0
LINE
  8
0
 10
-2.31738
 20
202.492
 11
-2.29492
 21
202.478
  0
LINE
  8
0
 10
-2.29492
 20
202.478
 11
-2.27246
 21
202.464
  0
LINE
  8
0
 10
-2.27246
 20
202.464
 11
-2.22754
 21
202.438
  0
LINE
  8
0
 10
-2.22754
 20
202.438
 11
-2.18066
 21
202.413
  0
LINE
  8
0
 10
-2.18066
 20
202.413
 11
-2.15723
 21
202.401
  0
LINE
  8
0
 10
-2.15723
 20
202.401
 11
-2.11035
 21
202.38
  0
LINE
  8
0
 10
-2.11035
 20
202.38
 11
-2.08594
 21
202.369
  0
LINE
  8
0
 10
-2.08594
 20
202.369
 11
-2.03711
 21
202.35
  0
LINE
  8
0
 10
-2.03711
 20
202.35
 11
-1.96387
 21
202.323
  0
LINE
  8
0
 10
-1.96387
 20
202.323
 11
-1.93848
 21
202.315
  0
LINE
  8
0
 10
-1.93848
 20
202.315
 11
-1.91309
 21
202.309
  0
LINE
  8
0
 10
-1.91309
 20
202.309
 11
-1.88867
 21
202.301
  0
LINE
  8
0
 10
-1.88867
 20
202.301
 11
-1.86328
 21
202.295
  0
LINE
  8
0
 10
-1.86328
 20
202.295
 11
-1.83789
 21
202.288
  0
LINE
  8
0
 10
-1.83789
 20
202.288
 11
-1.81152
 21
202.283
  0
LINE
  8
0
 10
-1.81152
 20
202.283
 11
-1.78613
 21
202.277
  0
LINE
  8
0
 10
-1.78613
 20
202.277
 11
-1.76074
 21
202.272
  0
LINE
  8
0
 10
-1.76074
 20
202.272
 11
-1.73438
 21
202.269
  0
LINE
  8
0
 10
-1.73438
 20
202.269
 11
-1.70898
 21
202.265
  0
LINE
  8
0
 10
-1.70898
 20
202.265
 11
-1.68262
 21
202.261
  0
LINE
  8
0
 10
-1.68262
 20
202.261
 11
-1.65723
 21
202.258
  0
LINE
  8
0
 10
-1.65723
 20
202.258
 11
-1.57812
 21
202.252
  0
LINE
  8
0
 10
-1.57812
 20
202.252
 11
-1.52637
 21
202.25
  0
LINE
  8
0
 10
-1.52637
 20
202.25
 11
0
 21
202.25
  0
LINE
  8
0
 10
0
 20
202.25
 11
0
 21
16.5
  0
LINE
  8
0
 10
0
 20
16.5
 11
-1.52637
 21
16.5
  0
LINE
  8
0
 10
-1.52637
 20
16.5
 11
-1.57812
 21
16.498
  0
LINE
  8
0
 10
-1.57812
 20
16.498
 11
-1.65723
 21
16.4922
  0
LINE
  8
0
 10
-1.65723
 20
16.4922
 11
-1.68262
 21
16.4893
  0
LINE
  8
0
 10
-1.68262
 20
16.4893
 11
-1.70898
 21
16.4854
  0
LINE
  8
0
 10
-1.70898
 20
16.4854
 11
-1.73438
 21
16.4814
  0
LINE
  8
0
 10
-1.73438
 20
16.4814
 11
-1.76074
 21
16.4775
  0
LINE
  8
0
 10
-1.76074
 20
16.4775
 11
-1.78613
 21
16.4727
  0
LINE
  8
0
 10
-1.78613
 20
16.4727
 11
-1.81152
 21
16.4668
  0
LINE
  8
0
 10
-1.81152
 20
16.4668
 11
-1.83789
 21
16.4619
  0
LINE
  8
0
 10
-1.83789
 20
16.4619
 11
-1.86328
 21
16.4551
  0
LINE
  8
0
 10
-1.86328
 20
16.4551
 11
-1.88867
 21
16.4492
  0
LINE
  8
0
 10
-1.88867
 20
16.4492
 11
-1.91309
 21
16.4414
  0
LINE
  8
0
 10
-1.91309
 20
16.4414
 11
-1.93848
 21
16.4346
  0
LINE
  8
0
 10
-1.93848
 20
16.4346
 11
-1.96387
 21
16.4268
  0
LINE
  8
0
 10
-1.96387
 20
16.4268
 11
-2.03711
 21
16.4004
  0
LINE
  8
0
 10
-2.03711
 20
16.4004
 11
-2.08594
 21
16.3809
  0
LINE
  8
0
 10
-2.08594
 20
16.3809
 11
-2.11035
 21
16.3701
  0
LINE
  8
0
 10
-2.11035
 20
16.3701
 11
-2.15723
 21
16.3486
  0
LINE
  8
0
 10
-2.15723
 20
16.3486
 11
-2.18066
 21
16.3369
  0
LINE
  8
0
 10
-2.18066
 20
16.3369
 11
-2.22754
 21
16.3115
  0
LINE
  8
0
 10
-2.22754
 20
16.3115
 11
-2.27246
 21
16.2861
  0
LINE
  8
0
 10
-2.27246
 20
16.2861
 11
-2.29492
 21
16.2725
  0
LINE
  8
0
 10
-2.29492
 20
16.2725
 11
-2.31738
 21
16.2578
  0
LINE
  8
0
 10
-2.31738
 20
16.2578
 11
-2.38184
 21
16.2139
  0
LINE
  8
0
 10
-2.38184
 20
16.2139
 11
-2.40234
 21
16.1982
  0
LINE
  8
0
 10
-2.40234
 20
16.1982
 11
-2.42383
 21
16.1816
  0
LINE
  8
0
 10
-2.42383
 20
16.1816
 11
-2.44434
 21
16.166
  0
LINE
  8
0
 10
-2.44434
 20
16.166
 11
-2.46387
 21
16.1494
  0
LINE
  8
0
 10
-2.46387
 20
16.1494
 11
-2.48438
 21
16.1318
  0
LINE
  8
0
 10
-2.48438
 20
16.1318
 11
-2.52344
 21
16.0967
  0
LINE
  8
0
 10
-2.52344
 20
16.0967
 11
-2.54199
 21
16.0791
  0
LINE
  8
0
 10
-2.54199
 20
16.0791
 11
-2.5791
 21
16.042
  0
LINE
  8
0
 10
-2.5791
 20
16.042
 11
-2.59668
 21
16.0234
  0
LINE
  8
0
 10
-2.59668
 20
16.0234
 11
-2.63184
 21
15.9844
  0
LINE
  8
0
 10
-2.63184
 20
15.9844
 11
-2.64941
 21
15.9639
  0
LINE
  8
0
 10
-2.64941
 20
15.9639
 11
-2.66602
 21
15.9443
  0
LINE
  8
0
 10
-2.66602
 20
15.9443
 11
-2.68164
 21
15.9238
  0
LINE
  8
0
 10
-2.68164
 20
15.9238
 11
-2.69824
 21
15.9023
  0
LINE
  8
0
 10
-2.69824
 20
15.9023
 11
-2.71387
 21
15.8818
  0
LINE
  8
0
 10
-2.71387
 20
15.8818
 11
-2.75781
 21
15.8174
  0
LINE
  8
0
 10
-2.75781
 20
15.8174
 11
-2.77246
 21
15.7949
  0
LINE
  8
0
 10
-2.77246
 20
15.7949
 11
-2.78613
 21
15.7725
  0
LINE
  8
0
 10
-2.78613
 20
15.7725
 11
-2.81152
 21
15.7275
  0
LINE
  8
0
 10
-2.81152
 20
15.7275
 11
-2.83691
 21
15.6807
  0
LINE
  8
0
 10
-2.83691
 20
15.6807
 11
-2.84863
 21
15.6572
  0
LINE
  8
0
 10
-2.84863
 20
15.6572
 11
-2.87012
 21
15.6104
  0
LINE
  8
0
 10
-2.87012
 20
15.6104
 11
-2.88086
 21
15.5859
  0
LINE
  8
0
 10
-2.88086
 20
15.5859
 11
-2.90039
 21
15.5371
  0
LINE
  8
0
 10
-2.90039
 20
15.5371
 11
-2.92676
 21
15.4639
  0
LINE
  8
0
 10
-2.92676
 20
15.4639
 11
-2.93457
 21
15.4385
  0
LINE
  8
0
 10
-2.93457
 20
15.4385
 11
-2.94141
 21
15.4131
  0
LINE
  8
0
 10
-2.94141
 20
15.4131
 11
-2.94922
 21
15.3887
  0
LINE
  8
0
 10
-2.94922
 20
15.3887
 11
-2.95508
 21
15.3633
  0
LINE
  8
0
 10
-2.95508
 20
15.3633
 11
-2.96191
 21
15.3379
  0
LINE
  8
0
 10
-2.96191
 20
15.3379
 11
-2.9668
 21
15.3115
  0
LINE
  8
0
 10
-2.9668
 20
15.3115
 11
-2.97266
 21
15.2861
  0
LINE
  8
0
 10
-2.97266
 20
15.2861
 11
-2.97754
 21
15.2607
  0
LINE
  8
0
 10
-2.97754
 20
15.2607
 11
-2.98145
 21
15.2344
  0
LINE
  8
0
 10
-2.98145
 20
15.2344
 11
-2.98535
 21
15.209
  0
LINE
  8
0
 10
-2.98535
 20
15.209
 11
-2.98926
 21
15.1826
  0
LINE
  8
0
 10
-2.98926
 20
15.1826
 11
-2.99219
 21
15.1572
  0
LINE
  8
0
 10
-2.99219
 20
15.1572
 11
-2.99805
 21
15.0781
  0
LINE
  8
0
 10
-2.99805
 20
15.0781
 11
-3
 21
15.0264
  0
LINE
  8
0
 10
-3
 20
15.0264
 11
-3
 21
7.97363
  0
LINE
  8
0
 10
-3
 20
7.97363
 11
-2.99805
 21
7.92188
  0
LINE
  8
0
 10
-2.99805
 20
7.92188
 11
-2.99219
 21
7.84277
  0
LINE
  8
0
 10
-2.99219
 20
7.84277
 11
-2.98926
 21
7.81738
  0
LINE
  8
0
 10
-2.98926
 20
7.81738
 11
-2.98535
 21
7.79102
  0
LINE
  8
0
 10
-2.98535
 20
7.79102
 11
-2.98145
 21
7.76562
  0
LINE
  8
0
 10
-2.98145
 20
7.76562
 11
-2.97754
 21
7.73926
  0
LINE
  8
0
 10
-2.97754
 20
7.73926
 11
-2.97266
 21
7.71387
  0
LINE
  8
0
 10
-2.97266
 20
7.71387
 11
-2.9668
 21
7.68848
  0
LINE
  8
0
 10
-2.9668
 20
7.68848
 11
-2.96191
 21
7.66211
  0
LINE
  8
0
 10
-2.96191
 20
7.66211
 11
-2.95508
 21
7.63672
  0
LINE
  8
0
 10
-2.95508
 20
7.63672
 11
-2.94922
 21
7.61133
  0
LINE
  8
0
 10
-2.94922
 20
7.61133
 11
-2.94141
 21
7.58691
  0
LINE
  8
0
 10
-2.94141
 20
7.58691
 11
-2.93457
 21
7.56152
  0
LINE
  8
0
 10
-2.93457
 20
7.56152
 11
-2.92676
 21
7.53613
  0
LINE
  8
0
 10
-2.92676
 20
7.53613
 11
-2.90039
 21
7.46289
  0
LINE
  8
0
 10
-2.90039
 20
7.46289
 11
-2.88086
 21
7.41406
  0
LINE
  8
0
 10
-2.88086
 20
7.41406
 11
-2.87012
 21
7.38965
  0
LINE
  8
0
 10
-2.87012
 20
7.38965
 11
-2.84863
 21
7.34277
  0
LINE
  8
0
 10
-2.84863
 20
7.34277
 11
-2.83691
 21
7.31934
  0
LINE
  8
0
 10
-2.83691
 20
7.31934
 11
-2.81152
 21
7.27246
  0
LINE
  8
0
 10
-2.81152
 20
7.27246
 11
-2.78613
 21
7.22754
  0
LINE
  8
0
 10
-2.78613
 20
7.22754
 11
-2.77246
 21
7.20508
  0
LINE
  8
0
 10
-2.77246
 20
7.20508
 11
-2.75781
 21
7.18262
  0
LINE
  8
0
 10
-2.75781
 20
7.18262
 11
-2.71387
 21
7.11816
  0
LINE
  8
0
 10
-2.71387
 20
7.11816
 11
-2.69824
 21
7.09766
  0
LINE
  8
0
 10
-2.69824
 20
7.09766
 11
-2.68164
 21
7.07617
  0
LINE
  8
0
 10
-2.68164
 20
7.07617
 11
-2.66602
 21
7.05566
  0
LINE
  8
0
 10
-2.66602
 20
7.05566
 11
-2.64941
 21
7.03613
  0
LINE
  8
0
 10
-2.64941
 20
7.03613
 11
-2.63184
 21
7.01562
  0
LINE
  8
0
 10
-2.63184
 20
7.01562
 11
-2.59668
 21
6.97656
  0
LINE
  8
0
 10
-2.59668
 20
6.97656
 11
-2.5791
 21
6.95801
  0
LINE
  8
0
 10
-2.5791
 20
6.95801
 11
-2.54199
 21
6.9209
  0
LINE
  8
0
 10
-2.54199
 20
6.9209
 11
-2.52344
 21
6.90332
  0
LINE
  8
0
 10
-2.52344
 20
6.90332
 11
-2.48438
 21
6.86816
  0
LINE
  8
0
 10
-2.48438
 20
6.86816
 11
-2.46387
 21
6.85059
  0
LINE
  8
0
 10
-2.46387
 20
6.85059
 11
-2.44434
 21
6.83398
  0
LINE
  8
0
 10
-2.44434
 20
6.83398
 11
-2.42383
 21
6.81836
  0
LINE
  8
0
 10
-2.42383
 20
6.81836
 11
-2.40234
 21
6.80176
  0
LINE
  8
0
 10
-2.40234
 20
6.80176
 11
-2.38184
 21
6.78613
  0
LINE
  8
0
 10
-2.38184
 20
6.78613
 11
-2.31738
 21
6.74219
  0
LINE
  8
0
 10
-2.31738
 20
6.74219
 11
-2.29492
 21
6.72754
  0
LINE
  8
0
 10
-2.29492
 20
6.72754
 11
-2.27246
 21
6.71387
  0
LINE
  8
0
 10
-2.27246
 20
6.71387
 11
-2.22754
 21
6.68848
  0
LINE
  8
0
 10
-2.22754
 20
6.68848
 11
-2.18066
 21
6.66309
  0
LINE
  8
0
 10
-2.18066
 20
6.66309
 11
-2.15723
 21
6.65137
  0
LINE
  8
0
 10
-2.15723
 20
6.65137
 11
-2.11035
 21
6.62988
  0
LINE
  8
0
 10
-2.11035
 20
6.62988
 11
-2.08594
 21
6.61914
  0
LINE
  8
0
 10
-2.08594
 20
6.61914
 11
-2.03711
 21
6.59961
  0
LINE
  8
0
 10
-2.03711
 20
6.59961
 11
-1.96387
 21
6.57324
  0
LINE
  8
0
 10
-1.96387
 20
6.57324
 11
-1.93848
 21
6.56543
  0
LINE
  8
0
 10
-1.93848
 20
6.56543
 11
-1.91309
 21
6.55859
  0
LINE
  8
0
 10
-1.91309
 20
6.55859
 11
-1.88867
 21
6.55078
  0
LINE
  8
0
 10
-1.88867
 20
6.55078
 11
-1.86328
 21
6.54492
  0
LINE
  8
0
 10
-1.86328
 20
6.54492
 11
-1.83789
 21
6.53809
  0
LINE
  8
0
 10
-1.83789
 20
6.53809
 11
-1.81152
 21
6.5332
  0
LINE
  8
0
 10
-1.81152
 20
6.5332
 11
-1.78613
 21
6.52734
  0
LINE
  8
0
 10
-1.78613
 20
6.52734
 11
-1.76074
 21
6.52246
  0
LINE
  8
0
 10
-1.76074
 20
6.52246
 11
-1.73438
 21
6.51855
  0
LINE
  8
0
 10
-1.73438
 20
6.51855
 11
-1.70898
 21
6.51465
  0
LINE
  8
0
 10
-1.70898
 20
6.51465
 11
-1.68262
 21
6.51074
  0
LINE
  8
0
 10
-1.68262
 20
6.51074
 11
-1.65723
 21
6.50781
  0
LINE
  8
0
 10
-1.65723
 20
6.50781
 11
-1.57812
 21
6.50195
  0
LINE
  8
0
 10
-1.57812
 20
6.50195
 11
-1.52637
 21
6.5
  0
LINE
  8
0
 10
-1.52637
 20
6.5
 11
0
 21
6.5
  0
LINE
  8
0
 10
0
 20
6.5
 11
0
 21
-3
  0
LINE
  8
0
 10
0
 20
-3
 11
100.95
 21
-3
  0
LINE
  8
0
 10
100.95
 20
-3
 11
100.95
 21
6.5
  0
ENDSEC
  0
SECTION
  2
OBJECTS
  0
DICTIONARY
  0
ENDSEC
  0
EOF
