  0
SECTION
  2
BLOCKS
  0
ENDSEC
  0
SECTION
  2
ENTITIES
  0
LINE
  8
0
 10
10.0693
 20
0.000976562
 11
10.1396
 21
0.00488281
  0
LINE
  8
0
 10
10.1396
 20
0.00488281
 11
10.1738
 21
0.0078125
  0
LINE
  8
0
 10
10.1738
 20
0.0078125
 11
10.209
 21
0.0107422
  0
LINE
  8
0
 10
10.209
 20
0.0107422
 11
10.2441
 21
0.0146484
  0
LINE
  8
0
 10
10.2441
 20
0.0146484
 11
10.3125
 21
0.0244141
  0
LINE
  8
0
 10
10.3125
 20
0.0244141
 11
10.3477
 21
0.0302734
  0
LINE
  8
0
 10
10.3477
 20
0.0302734
 11
10.4502
 21
0.0507812
  0
LINE
  8
0
 10
10.4502
 20
0.0507812
 11
10.4834
 21
0.0595703
  0
LINE
  8
0
 10
10.4834
 20
0.0595703
 11
10.5518
 21
0.0771484
  0
LINE
  8
0
 10
10.5518
 20
0.0771484
 11
10.585
 21
0.0869141
  0
LINE
  8
0
 10
10.585
 20
0.0869141
 11
10.6182
 21
0.0976562
  0
LINE
  8
0
 10
10.6182
 20
0.0976562
 11
10.6514
 21
0.109375
  0
LINE
  8
0
 10
10.6514
 20
0.109375
 11
10.6836
 21
0.121094
  0
LINE
  8
0
 10
10.6836
 20
0.121094
 11
10.7168
 21
0.132812
  0
LINE
  8
0
 10
10.7168
 20
0.132812
 11
10.749
 21
0.145508
  0
LINE
  8
0
 10
10.749
 20
0.145508
 11
10.8135
 21
0.172852
  0
LINE
  8
0
 10
10.8135
 20
0.172852
 11
10.8457
 21
0.1875
  0
LINE
  8
0
 10
10.8457
 20
0.1875
 11
10.877
 21
0.202148
  0
LINE
  8
0
 10
10.877
 20
0.202148
 11
10.9082
 21
0.217773
  0
LINE
  8
0
 10
10.9082
 20
0.217773
 11
10.9385
 21
0.234375
  0
LINE
  8
0
 10
10.9385
 20
0.234375
 11
10.9697
 21
0.250977
  0
LINE
  8
0
 10
10.9697
 20
0.250977
 11
11
 21
0.267578
  0
LINE
  8
0
 10
11
 20
0.267578
 11
11.0303
 21
0.286133
  0
LINE
  8
0
 10
11.0303
 20
0.286133
 11
11.0596
 21
0.303711
  0
LINE
  8
0
 10
11.0596
 20
0.303711
 11
11.0889
 21
0.322266
  0
LINE
  8
0
 10
11.0889
 20
0.322266
 11
11.1475
 21
0.361328
  0
LINE
  8
0
 10
11.1475
 20
0.361328
 11
11.2041
 21
0.402344
  0
LINE
  8
0
 10
11.2041
 20
0.402344
 11
11.2588
 21
0.445312
  0
LINE
  8
0
 10
11.2588
 20
0.445312
 11
11.2852
 21
0.467773
  0
LINE
  8
0
 10
11.2852
 20
0.467773
 11
11.3125
 21
0.490234
  0
LINE
  8
0
 10
11.3125
 20
0.490234
 11
11.3379
 21
0.513672
  0
LINE
  8
0
 10
11.3379
 20
0.513672
 11
11.3643
 21
0.537109
  0
LINE
  8
0
 10
11.3643
 20
0.537109
 11
11.3896
 21
0.561523
  0
LINE
  8
0
 10
11.3896
 20
0.561523
 11
11.4385
 21
0.610352
  0
LINE
  8
0
 10
11.4385
 20
0.610352
 11
11.4629
 21
0.635742
  0
LINE
  8
0
 10
11.4629
 20
0.635742
 11
11.4863
 21
0.662109
  0
LINE
  8
0
 10
11.4863
 20
0.662109
 11
11.5098
 21
0.6875
  0
LINE
  8
0
 10
11.5098
 20
0.6875
 11
11.5322
 21
0.714844
  0
LINE
  8
0
 10
11.5322
 20
0.714844
 11
11.5547
 21
0.741211
  0
LINE
  8
0
 10
11.5547
 20
0.741211
 11
11.5977
 21
0.795898
  0
LINE
  8
0
 10
11.5977
 20
0.795898
 11
11.6387
 21
0.852539
  0
LINE
  8
0
 10
11.6387
 20
0.852539
 11
11.6777
 21
0.911133
  0
LINE
  8
0
 10
11.6777
 20
0.911133
 11
11.6963
 21
0.94043
  0
LINE
  8
0
 10
11.6963
 20
0.94043
 11
11.7139
 21
0.969727
  0
LINE
  8
0
 10
11.7139
 20
0.969727
 11
11.7324
 21
1
  0
LINE
  8
0
 10
11.7324
 20
1
 11
11.749
 21
1.03027
  0
LINE
  8
0
 10
11.749
 20
1.03027
 11
11.7656
 21
1.06152
  0
LINE
  8
0
 10
11.7656
 20
1.06152
 11
11.7822
 21
1.0918
  0
LINE
  8
0
 10
11.7822
 20
1.0918
 11
11.7979
 21
1.12305
  0
LINE
  8
0
 10
11.7979
 20
1.12305
 11
11.8125
 21
1.1543
  0
LINE
  8
0
 10
11.8125
 20
1.1543
 11
11.8271
 21
1.18652
  0
LINE
  8
0
 10
11.8271
 20
1.18652
 11
11.8545
 21
1.25098
  0
LINE
  8
0
 10
11.8545
 20
1.25098
 11
11.8672
 21
1.2832
  0
LINE
  8
0
 10
11.8672
 20
1.2832
 11
11.8789
 21
1.31641
  0
LINE
  8
0
 10
11.8789
 20
1.31641
 11
11.8906
 21
1.34863
  0
LINE
  8
0
 10
11.8906
 20
1.34863
 11
11.9023
 21
1.38184
  0
LINE
  8
0
 10
11.9023
 20
1.38184
 11
11.9131
 21
1.41504
  0
LINE
  8
0
 10
11.9131
 20
1.41504
 11
11.9229
 21
1.44824
  0
LINE
  8
0
 10
11.9229
 20
1.44824
 11
11.9404
 21
1.5166
  0
LINE
  8
0
 10
11.9404
 20
1.5166
 11
11.9492
 21
1.5498
  0
LINE
  8
0
 10
11.9492
 20
1.5498
 11
11.9697
 21
1.65234
  0
LINE
  8
0
 10
11.9697
 20
1.65234
 11
11.9756
 21
1.6875
  0
LINE
  8
0
 10
11.9756
 20
1.6875
 11
11.9854
 21
1.75586
  0
LINE
  8
0
 10
11.9854
 20
1.75586
 11
11.9893
 21
1.79102
  0
LINE
  8
0
 10
11.9893
 20
1.79102
 11
11.9922
 21
1.82617
  0
LINE
  8
0
 10
11.9922
 20
1.82617
 11
11.9951
 21
1.86035
  0
LINE
  8
0
 10
11.9951
 20
1.86035
 11
11.999
 21
1.93066
  0
LINE
  8
0
 10
11.999
 20
1.93066
 11
12
 21
1.96484
  0
LINE
  8
0
 10
12
 20
1.96484
 11
12
 21
8
  0
LINE
  8
0
 10
12
 20
8
 11
88.9502
 21
8
  0
LINE
  8
0
 10
88.9502
 20
8
 11
88.9502
 21
1.96484
  0
LINE
  8
0
 10
88.9502
 20
1.96484
 11
88.9512
 21
1.93066
  0
LINE
  8
0
 10
88.9512
 20
1.93066
 11
88.9551
 21
1.86035
  0
LINE
  8
0
 10
88.9551
 20
1.86035
 11
88.958
 21
1.82617
  0
LINE
  8
0
 10
88.958
 20
1.82617
 11
88.9609
 21
1.79102
  0
LINE
  8
0
 10
88.9609
 20
1.79102
 11
88.9648
 21
1.75586
  0
LINE
  8
0
 10
88.9648
 20
1.75586
 11
88.9746
 21
1.6875
  0
LINE
  8
0
 10
88.9746
 20
1.6875
 11
88.9805
 21
1.65234
  0
LINE
  8
0
 10
88.9805
 20
1.65234
 11
88.9863
 21
1.61816
  0
LINE
  8
0
 10
88.9863
 20
1.61816
 11
88.9941
 21
1.58398
  0
LINE
  8
0
 10
88.9941
 20
1.58398
 11
89.001
 21
1.5498
  0
LINE
  8
0
 10
89.001
 20
1.5498
 11
89.0098
 21
1.5166
  0
LINE
  8
0
 10
89.0098
 20
1.5166
 11
89.0273
 21
1.44824
  0
LINE
  8
0
 10
89.0273
 20
1.44824
 11
89.0371
 21
1.41504
  0
LINE
  8
0
 10
89.0371
 20
1.41504
 11
89.0586
 21
1.34863
  0
LINE
  8
0
 10
89.0586
 20
1.34863
 11
89.0703
 21
1.31641
  0
LINE
  8
0
 10
89.0703
 20
1.31641
 11
89.083
 21
1.2832
  0
LINE
  8
0
 10
89.083
 20
1.2832
 11
89.0957
 21
1.25098
  0
LINE
  8
0
 10
89.0957
 20
1.25098
 11
89.123
 21
1.18652
  0
LINE
  8
0
 10
89.123
 20
1.18652
 11
89.1377
 21
1.1543
  0
LINE
  8
0
 10
89.1377
 20
1.1543
 11
89.1523
 21
1.12305
  0
LINE
  8
0
 10
89.1523
 20
1.12305
 11
89.168
 21
1.0918
  0
LINE
  8
0
 10
89.168
 20
1.0918
 11
89.1846
 21
1.06152
  0
LINE
  8
0
 10
89.1846
 20
1.06152
 11
89.2012
 21
1.03027
  0
LINE
  8
0
 10
89.2012
 20
1.03027
 11
89.2178
 21
1
  0
LINE
  8
0
 10
89.2178
 20
1
 11
89.2354
 21
0.969727
  0
LINE
  8
0
 10
89.2354
 20
0.969727
 11
89.2725
 21
0.911133
  0
LINE
  8
0
 10
89.2725
 20
0.911133
 11
89.3115
 21
0.852539
  0
LINE
  8
0
 10
89.3115
 20
0.852539
 11
89.3525
 21
0.795898
  0
LINE
  8
0
 10
89.3525
 20
0.795898
 11
89.3955
 21
0.741211
  0
LINE
  8
0
 10
89.3955
 20
0.741211
 11
89.418
 21
0.714844
  0
LINE
  8
0
 10
89.418
 20
0.714844
 11
89.4404
 21
0.6875
  0
LINE
  8
0
 10
89.4404
 20
0.6875
 11
89.4639
 21
0.662109
  0
LINE
  8
0
 10
89.4639
 20
0.662109
 11
89.4873
 21
0.635742
  0
LINE
  8
0
 10
89.4873
 20
0.635742
 11
89.5117
 21
0.610352
  0
LINE
  8
0
 10
89.5117
 20
0.610352
 11
89.5605
 21
0.561523
  0
LINE
  8
0
 10
89.5605
 20
0.561523
 11
89.5859
 21
0.537109
  0
LINE
  8
0
 10
89.5859
 20
0.537109
 11
89.6113
 21
0.513672
  0
LINE
  8
0
 10
89.6113
 20
0.513672
 11
89.6377
 21
0.490234
  0
LINE
  8
0
 10
89.6377
 20
0.490234
 11
89.6641
 21
0.467773
  0
LINE
  8
0
 10
89.6641
 20
0.467773
 11
89.6914
 21
0.445312
  0
LINE
  8
0
 10
89.6914
 20
0.445312
 11
89.7461
 21
0.402344
  0
LINE
  8
0
 10
89.7461
 20
0.402344
 11
89.8027
 21
0.361328
  0
LINE
  8
0
 10
89.8027
 20
0.361328
 11
89.832
 21
0.341797
  0
LINE
  8
0
 10
89.832
 20
0.341797
 11
89.8604
 21
0.322266
  0
LINE
  8
0
 10
89.8604
 20
0.322266
 11
89.8906
 21
0.303711
  0
LINE
  8
0
 10
89.8906
 20
0.303711
 11
89.9199
 21
0.286133
  0
LINE
  8
0
 10
89.9199
 20
0.286133
 11
89.9502
 21
0.267578
  0
LINE
  8
0
 10
89.9502
 20
0.267578
 11
90.0107
 21
0.234375
  0
LINE
  8
0
 10
90.0107
 20
0.234375
 11
90.042
 21
0.217773
  0
LINE
  8
0
 10
90.042
 20
0.217773
 11
90.0732
 21
0.202148
  0
LINE
  8
0
 10
90.0732
 20
0.202148
 11
90.1045
 21
0.1875
  0
LINE
  8
0
 10
90.1045
 20
0.1875
 11
90.1367
 21
0.172852
  0
LINE
  8
0
 10
90.1367
 20
0.172852
 11
90.2012
 21
0.145508
  0
LINE
  8
0
 10
90.2012
 20
0.145508
 11
90.2334
 21
0.132812
  0
LINE
  8
0
 10
90.2334
 20
0.132812
 11
90.2656
 21
0.121094
  0
LINE
  8
0
 10
90.2656
 20
0.121094
 11
90.332
 21
0.0976562
  0
LINE
  8
0
 10
90.332
 20
0.0976562
 11
90.3652
 21
0.0869141
  0
LINE
  8
0
 10
90.3652
 20
0.0869141
 11
90.3984
 21
0.0771484
  0
LINE
  8
0
 10
90.3984
 20
0.0771484
 11
90.4326
 21
0.0683594
  0
LINE
  8
0
 10
90.4326
 20
0.0683594
 11
90.4658
 21
0.0595703
  0
LINE
  8
0
 10
90.4658
 20
0.0595703
 11
90.5
 21
0.0507812
  0
LINE
  8
0
 10
90.5
 20
0.0507812
 11
90.6025
 21
0.0302734
  0
LINE
  8
0
 10
90.6025
 20
0.0302734
 11
90.6367
 21
0.0244141
  0
LINE
  8
0
 10
90.6367
 20
0.0244141
 11
90.6719
 21
0.0195312
  0
LINE
  8
0
 10
90.6719
 20
0.0195312
 11
90.7061
 21
0.0146484
  0
LINE
  8
0
 10
90.7061
 20
0.0146484
 11
90.7412
 21
0.0107422
  0
LINE
  8
0
 10
90.7412
 20
0.0107422
 11
90.7754
 21
0.0078125
  0
LINE
  8
0
 10
90.7754
 20
0.0078125
 11
90.8105
 21
0.00488281
  0
LINE
  8
0
 10
90.8105
 20
0.00488281
 11
90.8457
 21
0.00292969
  0
LINE
  8
0
 10
90.8457
 20
0.00292969
 11
90.8799
 21
0.000976562
  0
LINE
  8
0
 10
90.8799
 20
0.000976562
 11
90.915
 21
0
  0
LINE
  8
0
 10
90.915
 20
0
 11
98.9854
 21
0
  0
LINE
  8
0
 10
98.9854
 20
0
 11
99.0195
 21
0.000976562
  0
LINE
  8
0
 10
99.0195
 20
0.000976562
 11
99.0898
 21
0.00488281
  0
LINE
  8
0
 10
99.0898
 20
0.00488281
 11
99.124
 21
0.0078125
  0
LINE
  8
0
 10
99.124
 20
0.0078125
 11
99.1592
 21
0.0107422
  0
LINE
  8
0
 10
99.1592
 20
0.0107422
 11
99.1934
 21
0.0146484
  0
LINE
  8
0
 10
99.1934
 20
0.0146484
 11
99.2285
 21
0.0195312
  0
LINE
  8
0
 10
99.2285
 20
0.0195312
 11
99.2627
 21
0.0244141
  0
LINE
  8
0
 10
99.2627
 20
0.0244141
 11
99.2969
 21
0.0302734
  0
LINE
  8
0
 10
99.2969
 20
0.0302734
 11
99.332
 21
0.0371094
  0
LINE
  8
0
 10
99.332
 20
0.0371094
 11
99.3662
 21
0.0439453
  0
LINE
  8
0
 10
99.3662
 20
0.0439453
 11
99.3994
 21
0.0507812
  0
LINE
  8
0
 10
99.3994
 20
0.0507812
 11
99.4678
 21
0.0683594
  0
LINE
  8
0
 10
99.4678
 20
0.0683594
 11
99.501
 21
0.0771484
  0
LINE
  8
0
 10
99.501
 20
0.0771484
 11
99.5352
 21
0.0869141
  0
LINE
  8
0
 10
99.5352
 20
0.0869141
 11
99.5684
 21
0.0976562
  0
LINE
  8
0
 10
99.5684
 20
0.0976562
 11
99.6016
 21
0.109375
  0
LINE
  8
0
 10
99.6016
 20
0.109375
 11
99.6338
 21
0.121094
  0
LINE
  8
0
 10
99.6338
 20
0.121094
 11
99.667
 21
0.132812
  0
LINE
  8
0
 10
99.667
 20
0.132812
 11
99.6992
 21
0.145508
  0
LINE
  8
0
 10
99.6992
 20
0.145508
 11
99.7637
 21
0.172852
  0
LINE
  8
0
 10
99.7637
 20
0.172852
 11
99.7949
 21
0.1875
  0
LINE
  8
0
 10
99.7949
 20
0.1875
 11
99.8271
 21
0.202148
  0
LINE
  8
0
 10
99.8271
 20
0.202148
 11
99.8584
 21
0.217773
  0
LINE
  8
0
 10
99.8584
 20
0.217773
 11
99.8887
 21
0.234375
  0
LINE
  8
0
 10
99.8887
 20
0.234375
 11
99.9199
 21
0.250977
  0
LINE
  8
0
 10
99.9199
 20
0.250977
 11
99.9502
 21
0.267578
  0
LINE
  8
0
 10
99.9502
 20
0.267578
 11
99.9805
 21
0.286133
  0
LINE
  8
0
 10
99.9805
 20
0.286133
 11
100.01
 21
0.303711
  0
LINE
  8
0
 10
100.01
 20
0.303711
 11
100.039
 21
0.322266
  0
LINE
  8
0
 10
100.039
 20
0.322266
 11
100.068
 21
0.341797
  0
LINE
  8
0
 10
100.068
 20
0.341797
 11
100.097
 21
0.361328
  0
LINE
  8
0
 10
100.097
 20
0.361328
 11
100.126
 21
0.381836
  0
LINE
  8
0
 10
100.126
 20
0.381836
 11
100.153
 21
0.402344
  0
LINE
  8
0
 10
100.153
 20
0.402344
 11
100.182
 21
0.423828
  0
LINE
  8
0
 10
100.182
 20
0.423828
 11
100.209
 21
0.445312
  0
LINE
  8
0
 10
100.209
 20
0.445312
 11
100.262
 21
0.490234
  0
LINE
  8
0
 10
100.262
 20
0.490234
 11
100.314
 21
0.537109
  0
LINE
  8
0
 10
100.314
 20
0.537109
 11
100.339
 21
0.561523
  0
LINE
  8
0
 10
100.339
 20
0.561523
 11
100.364
 21
0.585938
  0
LINE
  8
0
 10
100.364
 20
0.585938
 11
100.389
 21
0.610352
  0
LINE
  8
0
 10
100.389
 20
0.610352
 11
100.413
 21
0.635742
  0
LINE
  8
0
 10
100.413
 20
0.635742
 11
100.437
 21
0.662109
  0
LINE
  8
0
 10
100.437
 20
0.662109
 11
100.459
 21
0.6875
  0
LINE
  8
0
 10
100.459
 20
0.6875
 11
100.482
 21
0.714844
  0
LINE
  8
0
 10
100.482
 20
0.714844
 11
100.504
 21
0.741211
  0
LINE
  8
0
 10
100.504
 20
0.741211
 11
100.526
 21
0.768555
  0
LINE
  8
0
 10
100.526
 20
0.768555
 11
100.547
 21
0.795898
  0
LINE
  8
0
 10
100.547
 20
0.795898
 11
100.568
 21
0.824219
  0
LINE
  8
0
 10
100.568
 20
0.824219
 11
100.588
 21
0.852539
  0
LINE
  8
0
 10
100.588
 20
0.852539
 11
100.608
 21
0.881836
  0
LINE
  8
0
 10
100.608
 20
0.881836
 11
100.627
 21
0.911133
  0
LINE
  8
0
 10
100.627
 20
0.911133
 11
100.646
 21
0.94043
  0
LINE
  8
0
 10
100.646
 20
0.94043
 11
100.664
 21
0.969727
  0
LINE
  8
0
 10
100.664
 20
0.969727
 11
100.699
 21
1.03027
  0
LINE
  8
0
 10
100.699
 20
1.03027
 11
100.716
 21
1.06152
  0
LINE
  8
0
 10
100.716
 20
1.06152
 11
100.732
 21
1.0918
  0
LINE
  8
0
 10
100.732
 20
1.0918
 11
100.748
 21
1.12305
  0
LINE
  8
0
 10
100.748
 20
1.12305
 11
100.763
 21
1.1543
  0
LINE
  8
0
 10
100.763
 20
1.1543
 11
100.777
 21
1.18652
  0
LINE
  8
0
 10
100.777
 20
1.18652
 11
100.805
 21
1.25098
  0
LINE
  8
0
 10
100.805
 20
1.25098
 11
100.817
 21
1.2832
  0
LINE
  8
0
 10
100.817
 20
1.2832
 11
100.829
 21
1.31641
  0
LINE
  8
0
 10
100.829
 20
1.31641
 11
100.841
 21
1.34863
  0
LINE
  8
0
 10
100.841
 20
1.34863
 11
100.853
 21
1.38184
  0
LINE
  8
0
 10
100.853
 20
1.38184
 11
100.872
 21
1.44824
  0
LINE
  8
0
 10
100.872
 20
1.44824
 11
100.882
 21
1.48242
  0
LINE
  8
0
 10
100.882
 20
1.48242
 11
100.891
 21
1.5166
  0
LINE
  8
0
 10
100.891
 20
1.5166
 11
100.898
 21
1.5498
  0
LINE
  8
0
 10
100.898
 20
1.5498
 11
100.906
 21
1.58398
  0
LINE
  8
0
 10
100.906
 20
1.58398
 11
100.92
 21
1.65234
  0
LINE
  8
0
 10
100.92
 20
1.65234
 11
100.926
 21
1.6875
  0
LINE
  8
0
 10
100.926
 20
1.6875
 11
100.936
 21
1.75586
  0
LINE
  8
0
 10
100.936
 20
1.75586
 11
100.939
 21
1.79102
  0
LINE
  8
0
 10
100.939
 20
1.79102
 11
100.942
 21
1.82617
  0
LINE
  8
0
 10
100.942
 20
1.82617
 11
100.945
 21
1.86035
  0
LINE
  8
0
 10
100.945
 20
1.86035
 11
100.949
 21
1.93066
  0
LINE
  8
0
 10
100.949
 20
1.93066
 11
100.949
 21
1.96484
  0
LINE
  8
0
 10
100.949
 20
1.96484
 11
100.95
 21
2
  0
LINE
  8
0
 10
100.95
 20
2
 11
100.95
 21
10
  0
LINE
  8
0
 10
100.95
 20
10
 11
103.018
 21
10
  0
LINE
  8
0
 10
103.018
 20
10
 11
103.035
 21
10.001
  0
LINE
  8
0
 10
103.035
 20
10.001
 11
103.053
 21
10.001
  0
LINE
  8
0
 10
103.053
 20
10.001
 11
103.069
 21
10.002
  0
LINE
  8
0
 10
103.069
 20
10.002
 11
103.14
 21
10.0098
  0
LINE
  8
0
 10
103.14
 20
10.0098
 11
103.156
 21
10.0127
  0
LINE
  8
0
 10
103.156
 20
10.0127
 11
103.174
 21
10.0156
  0
LINE
  8
0
 10
103.174
 20
10.0156
 11
103.19
 21
10.0186
  0
LINE
  8
0
 10
103.19
 20
10.0186
 11
103.208
 21
10.0215
  0
LINE
  8
0
 10
103.208
 20
10.0215
 11
103.225
 21
10.0254
  0
LINE
  8
0
 10
103.225
 20
10.0254
 11
103.242
 21
10.0293
  0
LINE
  8
0
 10
103.242
 20
10.0293
 11
103.309
 21
10.0488
  0
LINE
  8
0
 10
103.309
 20
10.0488
 11
103.358
 21
10.0664
  0
LINE
  8
0
 10
103.358
 20
10.0664
 11
103.375
 21
10.0732
  0
LINE
  8
0
 10
103.375
 20
10.0732
 11
103.391
 21
10.0791
  0
LINE
  8
0
 10
103.391
 20
10.0791
 11
103.406
 21
10.0869
  0
LINE
  8
0
 10
103.406
 20
10.0869
 11
103.423
 21
10.0938
  0
LINE
  8
0
 10
103.423
 20
10.0938
 11
103.47
 21
10.1172
  0
LINE
  8
0
 10
103.47
 20
10.1172
 11
103.484
 21
10.125
  0
LINE
  8
0
 10
103.484
 20
10.125
 11
103.5
 21
10.1338
  0
LINE
  8
0
 10
103.5
 20
10.1338
 11
103.515
 21
10.1426
  0
LINE
  8
0
 10
103.515
 20
10.1426
 11
103.53
 21
10.1523
  0
LINE
  8
0
 10
103.53
 20
10.1523
 11
103.545
 21
10.1611
  0
LINE
  8
0
 10
103.545
 20
10.1611
 11
103.56
 21
10.1709
  0
LINE
  8
0
 10
103.56
 20
10.1709
 11
103.573
 21
10.1807
  0
LINE
  8
0
 10
103.573
 20
10.1807
 11
103.588
 21
10.1914
  0
LINE
  8
0
 10
103.588
 20
10.1914
 11
103.602
 21
10.2012
  0
LINE
  8
0
 10
103.602
 20
10.2012
 11
103.629
 21
10.2227
  0
LINE
  8
0
 10
103.629
 20
10.2227
 11
103.643
 21
10.2344
  0
LINE
  8
0
 10
103.643
 20
10.2344
 11
103.656
 21
10.2451
  0
LINE
  8
0
 10
103.656
 20
10.2451
 11
103.694
 21
10.2803
  0
LINE
  8
0
 10
103.694
 20
10.2803
 11
103.72
 21
10.3057
  0
LINE
  8
0
 10
103.72
 20
10.3057
 11
103.755
 21
10.3438
  0
LINE
  8
0
 10
103.755
 20
10.3438
 11
103.766
 21
10.3574
  0
LINE
  8
0
 10
103.766
 20
10.3574
 11
103.777
 21
10.3711
  0
LINE
  8
0
 10
103.777
 20
10.3711
 11
103.799
 21
10.3984
  0
LINE
  8
0
 10
103.799
 20
10.3984
 11
103.809
 21
10.4121
  0
LINE
  8
0
 10
103.809
 20
10.4121
 11
103.819
 21
10.4268
  0
LINE
  8
0
 10
103.819
 20
10.4268
 11
103.829
 21
10.4404
  0
LINE
  8
0
 10
103.829
 20
10.4404
 11
103.839
 21
10.4551
  0
LINE
  8
0
 10
103.839
 20
10.4551
 11
103.848
 21
10.4697
  0
LINE
  8
0
 10
103.848
 20
10.4697
 11
103.857
 21
10.4854
  0
LINE
  8
0
 10
103.857
 20
10.4854
 11
103.866
 21
10.5
  0
LINE
  8
0
 10
103.866
 20
10.5
 11
103.875
 21
10.5156
  0
LINE
  8
0
 10
103.875
 20
10.5156
 11
103.883
 21
10.5303
  0
LINE
  8
0
 10
103.883
 20
10.5303
 11
103.906
 21
10.5771
  0
LINE
  8
0
 10
103.906
 20
10.5771
 11
103.913
 21
10.5938
  0
LINE
  8
0
 10
103.913
 20
10.5938
 11
103.921
 21
10.6094
  0
LINE
  8
0
 10
103.921
 20
10.6094
 11
103.927
 21
10.625
  0
LINE
  8
0
 10
103.927
 20
10.625
 11
103.934
 21
10.6416
  0
LINE
  8
0
 10
103.934
 20
10.6416
 11
103.951
 21
10.6914
  0
LINE
  8
0
 10
103.951
 20
10.6914
 11
103.971
 21
10.7578
  0
LINE
  8
0
 10
103.971
 20
10.7578
 11
103.975
 21
10.7754
  0
LINE
  8
0
 10
103.975
 20
10.7754
 11
103.979
 21
10.792
  0
LINE
  8
0
 10
103.979
 20
10.792
 11
103.981
 21
10.8096
  0
LINE
  8
0
 10
103.981
 20
10.8096
 11
103.984
 21
10.8262
  0
LINE
  8
0
 10
103.984
 20
10.8262
 11
103.987
 21
10.8438
  0
LINE
  8
0
 10
103.987
 20
10.8438
 11
103.99
 21
10.8604
  0
LINE
  8
0
 10
103.99
 20
10.8604
 11
103.998
 21
10.9307
  0
LINE
  8
0
 10
103.998
 20
10.9307
 11
103.999
 21
10.9473
  0
LINE
  8
0
 10
103.999
 20
10.9473
 11
103.999
 21
10.9648
  0
LINE
  8
0
 10
103.999
 20
10.9648
 11
104
 21
10.9824
  0
LINE
  8
0
 10
104
 20
10.9824
 11
104
 21
32.5176
  0
LINE
  8
0
 10
104
 20
32.5176
 11
103.999
 21
32.5352
  0
LINE
  8
0
 10
103.999
 20
32.5352
 11
103.999
 21
32.5527
  0
LINE
  8
0
 10
103.999
 20
32.5527
 11
103.998
 21
32.5693
  0
LINE
  8
0
 10
103.998
 20
32.5693
 11
103.99
 21
32.6396
  0
LINE
  8
0
 10
103.99
 20
32.6396
 11
103.987
 21
32.6562
  0
LINE
  8
0
 10
103.987
 20
32.6562
 11
103.984
 21
32.6738
  0
LINE
  8
0
 10
103.984
 20
32.6738
 11
103.981
 21
32.6904
  0
LINE
  8
0
 10
103.981
 20
32.6904
 11
103.979
 21
32.708
  0
LINE
  8
0
 10
103.979
 20
32.708
 11
103.975
 21
32.7246
  0
LINE
  8
0
 10
103.975
 20
32.7246
 11
103.971
 21
32.7422
  0
LINE
  8
0
 10
103.971
 20
32.7422
 11
103.951
 21
32.8086
  0
LINE
  8
0
 10
103.951
 20
32.8086
 11
103.934
 21
32.8584
  0
LINE
  8
0
 10
103.934
 20
32.8584
 11
103.927
 21
32.875
  0
LINE
  8
0
 10
103.927
 20
32.875
 11
103.921
 21
32.8906
  0
LINE
  8
0
 10
103.921
 20
32.8906
 11
103.913
 21
32.9062
  0
LINE
  8
0
 10
103.913
 20
32.9062
 11
103.906
 21
32.9229
  0
LINE
  8
0
 10
103.906
 20
32.9229
 11
103.883
 21
32.9697
  0
LINE
  8
0
 10
103.883
 20
32.9697
 11
103.875
 21
32.9844
  0
LINE
  8
0
 10
103.875
 20
32.9844
 11
103.866
 21
33
  0
LINE
  8
0
 10
103.866
 20
33
 11
103.857
 21
33.0146
  0
LINE
  8
0
 10
103.857
 20
33.0146
 11
103.848
 21
33.0303
  0
LINE
  8
0
 10
103.848
 20
33.0303
 11
103.839
 21
33.0449
  0
LINE
  8
0
 10
103.839
 20
33.0449
 11
103.829
 21
33.0596
  0
LINE
  8
0
 10
103.829
 20
33.0596
 11
103.819
 21
33.0732
  0
LINE
  8
0
 10
103.819
 20
33.0732
 11
103.809
 21
33.0879
  0
LINE
  8
0
 10
103.809
 20
33.0879
 11
103.799
 21
33.1016
  0
LINE
  8
0
 10
103.799
 20
33.1016
 11
103.777
 21
33.1289
  0
LINE
  8
0
 10
103.777
 20
33.1289
 11
103.766
 21
33.1426
  0
LINE
  8
0
 10
103.766
 20
33.1426
 11
103.755
 21
33.1562
  0
LINE
  8
0
 10
103.755
 20
33.1562
 11
103.72
 21
33.1943
  0
LINE
  8
0
 10
103.72
 20
33.1943
 11
103.694
 21
33.2197
  0
LINE
  8
0
 10
103.694
 20
33.2197
 11
103.656
 21
33.2549
  0
LINE
  8
0
 10
103.656
 20
33.2549
 11
103.643
 21
33.2656
  0
LINE
  8
0
 10
103.643
 20
33.2656
 11
103.629
 21
33.2773
  0
LINE
  8
0
 10
103.629
 20
33.2773
 11
103.602
 21
33.2988
  0
LINE
  8
0
 10
103.602
 20
33.2988
 11
103.588
 21
33.3086
  0
LINE
  8
0
 10
103.588
 20
33.3086
 11
103.573
 21
33.3193
  0
LINE
  8
0
 10
103.573
 20
33.3193
 11
103.56
 21
33.3291
  0
LINE
  8
0
 10
103.56
 20
33.3291
 11
103.545
 21
33.3389
  0
LINE
  8
0
 10
103.545
 20
33.3389
 11
103.53
 21
33.3477
  0
LINE
  8
0
 10
103.53
 20
33.3477
 11
103.515
 21
33.3574
  0
LINE
  8
0
 10
103.515
 20
33.3574
 11
103.5
 21
33.3662
  0
LINE
  8
0
 10
103.5
 20
33.3662
 11
103.484
 21
33.375
  0
LINE
  8
0
 10
103.484
 20
33.375
 11
103.47
 21
33.3828
  0
LINE
  8
0
 10
103.47
 20
33.3828
 11
103.423
 21
33.4062
  0
LINE
  8
0
 10
103.423
 20
33.4062
 11
103.406
 21
33.4131
  0
LINE
  8
0
 10
103.406
 20
33.4131
 11
103.391
 21
33.4209
  0
LINE
  8
0
 10
103.391
 20
33.4209
 11
103.375
 21
33.4268
  0
LINE
  8
0
 10
103.375
 20
33.4268
 11
103.358
 21
33.4336
  0
LINE
  8
0
 10
103.358
 20
33.4336
 11
103.309
 21
33.4512
  0
LINE
  8
0
 10
103.309
 20
33.4512
 11
103.242
 21
33.4707
  0
LINE
  8
0
 10
103.242
 20
33.4707
 11
103.225
 21
33.4746
  0
LINE
  8
0
 10
103.225
 20
33.4746
 11
103.208
 21
33.4785
  0
LINE
  8
0
 10
103.208
 20
33.4785
 11
103.19
 21
33.4814
  0
LINE
  8
0
 10
103.19
 20
33.4814
 11
103.174
 21
33.4844
  0
LINE
  8
0
 10
103.174
 20
33.4844
 11
103.156
 21
33.4873
  0
LINE
  8
0
 10
103.156
 20
33.4873
 11
103.14
 21
33.4902
  0
LINE
  8
0
 10
103.14
 20
33.4902
 11
103.069
 21
33.498
  0
LINE
  8
0
 10
103.069
 20
33.498
 11
103.053
 21
33.499
  0
LINE
  8
0
 10
103.053
 20
33.499
 11
103.035
 21
33.499
  0
LINE
  8
0
 10
103.035
 20
33.499
 11
103.018
 21
33.5
  0
LINE
  8
0
 10
103.018
 20
33.5
 11
-2.01758
 21
33.5
  0
LINE
  8
0
 10
-2.01758
 20
33.5
 11
-2.03516
 21
33.499
  0
LINE
  8
0
 10
-2.03516
 20
33.499
 11
-2.05273
 21
33.499
  0
LINE
  8
0
 10
-2.05273
 20
33.499
 11
-2.06934
 21
33.498
  0
LINE
  8
0
 10
-2.06934
 20
33.498
 11
-2.13965
 21
33.4902
  0
LINE
  8
0
 10
-2.13965
 20
33.4902
 11
-2.15625
 21
33.4873
  0
LINE
  8
0
 10
-2.15625
 20
33.4873
 11
-2.17383
 21
33.4844
  0
LINE
  8
0
 10
-2.17383
 20
33.4844
 11
-2.19043
 21
33.4814
  0
LINE
  8
0
 10
-2.19043
 20
33.4814
 11
-2.20801
 21
33.4785
  0
LINE
  8
0
 10
-2.20801
 20
33.4785
 11
-2.22461
 21
33.4746
  0
LINE
  8
0
 10
-2.22461
 20
33.4746
 11
-2.24219
 21
33.4707
  0
LINE
  8
0
 10
-2.24219
 20
33.4707
 11
-2.30859
 21
33.4512
  0
LINE
  8
0
 10
-2.30859
 20
33.4512
 11
-2.3584
 21
33.4336
  0
LINE
  8
0
 10
-2.3584
 20
33.4336
 11
-2.375
 21
33.4268
  0
LINE
  8
0
 10
-2.375
 20
33.4268
 11
-2.39062
 21
33.4209
  0
LINE
  8
0
 10
-2.39062
 20
33.4209
 11
-2.40625
 21
33.4131
  0
LINE
  8
0
 10
-2.40625
 20
33.4131
 11
-2.42285
 21
33.4062
  0
LINE
  8
0
 10
-2.42285
 20
33.4062
 11
-2.46973
 21
33.3828
  0
LINE
  8
0
 10
-2.46973
 20
33.3828
 11
-2.48438
 21
33.375
  0
LINE
  8
0
 10
-2.48438
 20
33.375
 11
-2.5
 21
33.3662
  0
LINE
  8
0
 10
-2.5
 20
33.3662
 11
-2.51465
 21
33.3574
  0
LINE
  8
0
 10
-2.51465
 20
33.3574
 11
-2.53027
 21
33.3477
  0
LINE
  8
0
 10
-2.53027
 20
33.3477
 11
-2.54492
 21
33.3389
  0
LINE
  8
0
 10
-2.54492
 20
33.3389
 11
-2.55957
 21
33.3291
  0
LINE
  8
0
 10
-2.55957
 20
33.3291
 11
-2.57324
 21
33.3193
  0
LINE
  8
0
 10
-2.57324
 20
33.3193
 11
-2.58789
 21
33.3086
  0
LINE
  8
0
 10
-2.58789
 20
33.3086
 11
-2.60156
 21
33.2988
  0
LINE
  8
0
 10
-2.60156
 20
33.2988
 11
-2.62891
 21
33.2773
  0
LINE
  8
0
 10
-2.62891
 20
33.2773
 11
-2.64258
 21
33.2656
  0
LINE
  8
0
 10
-2.64258
 20
33.2656
 11
-2.65625
 21
33.2549
  0
LINE
  8
0
 10
-2.65625
 20
33.2549
 11
-2.69434
 21
33.2197
  0
LINE
  8
0
 10
-2.69434
 20
33.2197
 11
-2.71973
 21
33.1943
  0
LINE
  8
0
 10
-2.71973
 20
33.1943
 11
-2.75488
 21
33.1562
  0
LINE
  8
0
 10
-2.75488
 20
33.1562
 11
-2.76562
 21
33.1426
  0
LINE
  8
0
 10
-2.76562
 20
33.1426
 11
-2.77734
 21
33.1289
  0
LINE
  8
0
 10
-2.77734
 20
33.1289
 11
-2.79883
 21
33.1016
  0
LINE
  8
0
 10
-2.79883
 20
33.1016
 11
-2.80859
 21
33.0879
  0
LINE
  8
0
 10
-2.80859
 20
33.0879
 11
-2.81934
 21
33.0732
  0
LINE
  8
0
 10
-2.81934
 20
33.0732
 11
-2.8291
 21
33.0596
  0
LINE
  8
0
 10
-2.8291
 20
33.0596
 11
-2.83887
 21
33.0449
  0
LINE
  8
0
 10
-2.83887
 20
33.0449
 11
-2.84766
 21
33.0303
  0
LINE
  8
0
 10
-2.84766
 20
33.0303
 11
-2.85742
 21
33.0146
  0
LINE
  8
0
 10
-2.85742
 20
33.0146
 11
-2.86621
 21
33
  0
LINE
  8
0
 10
-2.86621
 20
33
 11
-2.875
 21
32.9844
  0
LINE
  8
0
 10
-2.875
 20
32.9844
 11
-2.88281
 21
32.9697
  0
LINE
  8
0
 10
-2.88281
 20
32.9697
 11
-2.90625
 21
32.9229
  0
LINE
  8
0
 10
-2.90625
 20
32.9229
 11
-2.91309
 21
32.9062
  0
LINE
  8
0
 10
-2.91309
 20
32.9062
 11
-2.9209
 21
32.8906
  0
LINE
  8
0
 10
-2.9209
 20
32.8906
 11
-2.92676
 21
32.875
  0
LINE
  8
0
 10
-2.92676
 20
32.875
 11
-2.93359
 21
32.8584
  0
LINE
  8
0
 10
-2.93359
 20
32.8584
 11
-2.95117
 21
32.8086
  0
LINE
  8
0
 10
-2.95117
 20
32.8086
 11
-2.9707
 21
32.7422
  0
LINE
  8
0
 10
-2.9707
 20
32.7422
 11
-2.97461
 21
32.7246
  0
LINE
  8
0
 10
-2.97461
 20
32.7246
 11
-2.97852
 21
32.708
  0
LINE
  8
0
 10
-2.97852
 20
32.708
 11
-2.98145
 21
32.6904
  0
LINE
  8
0
 10
-2.98145
 20
32.6904
 11
-2.98438
 21
32.6738
  0
LINE
  8
0
 10
-2.98438
 20
32.6738
 11
-2.9873
 21
32.6562
  0
LINE
  8
0
 10
-2.9873
 20
32.6562
 11
-2.99023
 21
32.6396
  0
LINE
  8
0
 10
-2.99023
 20
32.6396
 11
-2.99805
 21
32.5693
  0
LINE
  8
0
 10
-2.99805
 20
32.5693
 11
-2.99902
 21
32.5527
  0
LINE
  8
0
 10
-2.99902
 20
32.5527
 11
-2.99902
 21
32.5352
  0
LINE
  8
0
 10
-2.99902
 20
32.5352
 11
-3
 21
32.5176
  0
LINE
  8
0
 10
-3
 20
32.5176
 11
-3
 21
10.9824
  0
LINE
  8
0
 10
-3
 20
10.9824
 11
-2.99902
 21
10.9648
  0
LINE
  8
0
 10
-2.99902
 20
10.9648
 11
-2.99902
 21
10.9473
  0
LINE
  8
0
 10
-2.99902
 20
10.9473
 11
-2.99805
 21
10.9307
  0
LINE
  8
0
 10
-2.99805
 20
10.9307
 11
-2.99023
 21
10.8604
  0
LINE
  8
0
 10
-2.99023
 20
10.8604
 11
-2.9873
 21
10.8438
  0
LINE
  8
0
 10
-2.9873
 20
10.8438
 11
-2.98438
 21
10.8262
  0
LINE
  8
0
 10
-2.98438
 20
10.8262
 11
-2.98145
 21
10.8096
  0
LINE
  8
0
 10
-2.98145
 20
10.8096
 11
-2.97852
 21
10.792
  0
LINE
  8
0
 10
-2.97852
 20
10.792
 11
-2.97461
 21
10.7754
  0
LINE
  8
0
 10
-2.97461
 20
10.7754
 11
-2.9707
 21
10.7578
  0
LINE
  8
0
 10
-2.9707
 20
10.7578
 11
-2.95117
 21
10.6914
  0
LINE
  8
0
 10
-2.95117
 20
10.6914
 11
-2.93359
 21
10.6416
  0
LINE
  8
0
 10
-2.93359
 20
10.6416
 11
-2.92676
 21
10.625
  0
LINE
  8
0
 10
-2.92676
 20
10.625
 11
-2.9209
 21
10.6094
  0
LINE
  8
0
 10
-2.9209
 20
10.6094
 11
-2.91309
 21
10.5938
  0
LINE
  8
0
 10
-2.91309
 20
10.5938
 11
-2.90625
 21
10.5771
  0
LINE
  8
0
 10
-2.90625
 20
10.5771
 11
-2.88281
 21
10.5303
  0
LINE
  8
0
 10
-2.88281
 20
10.5303
 11
-2.875
 21
10.5156
  0
LINE
  8
0
 10
-2.875
 20
10.5156
 11
-2.86621
 21
10.5
  0
LINE
  8
0
 10
-2.86621
 20
10.5
 11
-2.85742
 21
10.4854
  0
LINE
  8
0
 10
-2.85742
 20
10.4854
 11
-2.84766
 21
10.4697
  0
LINE
  8
0
 10
-2.84766
 20
10.4697
 11
-2.83887
 21
10.4551
  0
LINE
  8
0
 10
-2.83887
 20
10.4551
 11
-2.8291
 21
10.4404
  0
LINE
  8
0
 10
-2.8291
 20
10.4404
 11
-2.81934
 21
10.4268
  0
LINE
  8
0
 10
-2.81934
 20
10.4268
 11
-2.80859
 21
10.4121
  0
LINE
  8
0
 10
-2.80859
 20
10.4121
 11
-2.79883
 21
10.3984
  0
LINE
  8
0
 10
-2.79883
 20
10.3984
 11
-2.77734
 21
10.3711
  0
LINE
  8
0
 10
-2.77734
 20
10.3711
 11
-2.76562
 21
10.3574
  0
LINE
  8
0
 10
-2.76562
 20
10.3574
 11
-2.75488
 21
10.3438
  0
LINE
  8
0
 10
-2.75488
 20
10.3438
 11
-2.71973
 21
10.3057
  0
LINE
  8
0
 10
-2.71973
 20
10.3057
 11
-2.69434
 21
10.2803
  0
LINE
  8
0
 10
-2.69434
 20
10.2803
 11
-2.65625
 21
10.2451
  0
LINE
  8
0
 10
-2.65625
 20
10.2451
 11
-2.64258
 21
10.2344
  0
LINE
  8
0
 10
-2.64258
 20
10.2344
 11
-2.62891
 21
10.2227
  0
LINE
  8
0
 10
-2.62891
 20
10.2227
 11
-2.60156
 21
10.2012
  0
LINE
  8
0
 10
-2.60156
 20
10.2012
 11
-2.58789
 21
10.1914
  0
LINE
  8
0
 10
-2.58789
 20
10.1914
 11
-2.57324
 21
10.1807
  0
LINE
  8
0
 10
-2.57324
 20
10.1807
 11
-2.55957
 21
10.1709
  0
LINE
  8
0
 10
-2.55957
 20
10.1709
 11
-2.54492
 21
10.1611
  0
LINE
  8
0
 10
-2.54492
 20
10.1611
 11
-2.53027
 21
10.1523
  0
LINE
  8
0
 10
-2.53027
 20
10.1523
 11
-2.51465
 21
10.1426
  0
LINE
  8
0
 10
-2.51465
 20
10.1426
 11
-2.5
 21
10.1338
  0
LINE
  8
0
 10
-2.5
 20
10.1338
 11
-2.48438
 21
10.125
  0
LINE
  8
0
 10
-2.48438
 20
10.125
 11
-2.46973
 21
10.1172
  0
LINE
  8
0
 10
-2.46973
 20
10.1172
 11
-2.42285
 21
10.0938
  0
LINE
  8
0
 10
-2.42285
 20
10.0938
 11
-2.40625
 21
10.0869
  0
LINE
  8
0
 10
-2.40625
 20
10.0869
 11
-2.39062
 21
10.0791
  0
LINE
  8
0
 10
-2.39062
 20
10.0791
 11
-2.375
 21
10.0732
  0
LINE
  8
0
 10
-2.375
 20
10.0732
 11
-2.3584
 21
10.0664
  0
LINE
  8
0
 10
-2.3584
 20
10.0664
 11
-2.30859
 21
10.0488
  0
LINE
  8
0
 10
-2.30859
 20
10.0488
 11
-2.24219
 21
10.0293
  0
LINE
  8
0
 10
-2.24219
 20
10.0293
 11
-2.22461
 21
10.0254
  0
LINE
  8
0
 10
-2.22461
 20
10.0254
 11
-2.20801
 21
10.0215
  0
LINE
  8
0
 10
-2.20801
 20
10.0215
 11
-2.19043
 21
10.0186
  0
LINE
  8
0
 10
-2.19043
 20
10.0186
 11
-2.17383
 21
10.0156
  0
LINE
  8
0
 10
-2.17383
 20
10.0156
 11
-2.15625
 21
10.0127
  0
LINE
  8
0
 10
-2.15625
 20
10.0127
 11
-2.13965
 21
10.0098
  0
LINE
  8
0
 10
-2.13965
 20
10.0098
 11
-2.06934
 21
10.002
  0
LINE
  8
0
 10
-2.06934
 20
10.002
 11
-2.05273
 21
10.001
  0
LINE
  8
0
 10
-2.05273
 20
10.001
 11
-2.03516
 21
10.001
  0
LINE
  8
0
 10
-2.03516
 20
10.001
 11
-2.01758
 21
10
  0
LINE
  8
0
 10
-2.01758
 20
10
 11
0
 21
10
  0
LINE
  8
0
 10
0
 20
10
 11
0
 21
1.96484
  0
LINE
  8
0
 10
0
 20
1.96484
 11
0.000976562
 21
1.93066
  0
LINE
  8
0
 10
0.000976562
 20
1.93066
 11
0.00488281
 21
1.86035
  0
LINE
  8
0
 10
0.00488281
 20
1.86035
 11
0.0078125
 21
1.82617
  0
LINE
  8
0
 10
0.0078125
 20
1.82617
 11
0.0107422
 21
1.79102
  0
LINE
  8
0
 10
0.0107422
 20
1.79102
 11
0.0146484
 21
1.75586
  0
LINE
  8
0
 10
0.0146484
 20
1.75586
 11
0.0244141
 21
1.6875
  0
LINE
  8
0
 10
0.0244141
 20
1.6875
 11
0.0302734
 21
1.65234
  0
LINE
  8
0
 10
0.0302734
 20
1.65234
 11
0.0507812
 21
1.5498
  0
LINE
  8
0
 10
0.0507812
 20
1.5498
 11
0.0595703
 21
1.5166
  0
LINE
  8
0
 10
0.0595703
 20
1.5166
 11
0.0771484
 21
1.44824
  0
LINE
  8
0
 10
0.0771484
 20
1.44824
 11
0.0869141
 21
1.41504
  0
LINE
  8
0
 10
0.0869141
 20
1.41504
 11
0.0976562
 21
1.38184
  0
LINE
  8
0
 10
0.0976562
 20
1.38184
 11
0.109375
 21
1.34863
  0
LINE
  8
0
 10
0.109375
 20
1.34863
 11
0.121094
 21
1.31641
  0
LINE
  8
0
 10
0.121094
 20
1.31641
 11
0.132812
 21
1.2832
  0
LINE
  8
0
 10
0.132812
 20
1.2832
 11
0.145508
 21
1.25098
  0
LINE
  8
0
 10
0.145508
 20
1.25098
 11
0.172852
 21
1.18652
  0
LINE
  8
0
 10
0.172852
 20
1.18652
 11
0.1875
 21
1.1543
  0
LINE
  8
0
 10
0.1875
 20
1.1543
 11
0.202148
 21
1.12305
  0
LINE
  8
0
 10
0.202148
 20
1.12305
 11
0.217773
 21
1.0918
  0
LINE
  8
0
 10
0.217773
 20
1.0918
 11
0.234375
 21
1.06152
  0
LINE
  8
0
 10
0.234375
 20
1.06152
 11
0.250977
 21
1.03027
  0
LINE
  8
0
 10
0.250977
 20
1.03027
 11
0.267578
 21
1
  0
LINE
  8
0
 10
0.267578
 20
1
 11
0.286133
 21
0.969727
  0
LINE
  8
0
 10
0.286133
 20
0.969727
 11
0.303711
 21
0.94043
  0
LINE
  8
0
 10
0.303711
 20
0.94043
 11
0.322266
 21
0.911133
  0
LINE
  8
0
 10
0.322266
 20
0.911133
 11
0.361328
 21
0.852539
  0
LINE
  8
0
 10
0.361328
 20
0.852539
 11
0.402344
 21
0.795898
  0
LINE
  8
0
 10
0.402344
 20
0.795898
 11
0.445312
 21
0.741211
  0
LINE
  8
0
 10
0.445312
 20
0.741211
 11
0.467773
 21
0.714844
  0
LINE
  8
0
 10
0.467773
 20
0.714844
 11
0.490234
 21
0.6875
  0
LINE
  8
0
 10
0.490234
 20
0.6875
 11
0.513672
 21
0.662109
  0
LINE
  8
0
 10
0.513672
 20
0.662109
 11
0.537109
 21
0.635742
  0
LINE
  8
0
 10
0.537109
 20
0.635742
 11
0.561523
 21
0.610352
  0
LINE
  8
0
 10
0.561523
 20
0.610352
 11
0.610352
 21
0.561523
  0
LINE
  8
0
 10
0.610352
 20
0.561523
 11
0.635742
 21
0.537109
  0
LINE
  8
0
 10
0.635742
 20
0.537109
 11
0.662109
 21
0.513672
  0
LINE
  8
0
 10
0.662109
 20
0.513672
 11
0.6875
 21
0.490234
  0
LINE
  8
0
 10
0.6875
 20
0.490234
 11
0.714844
 21
0.467773
  0
LINE
  8
0
 10
0.714844
 20
0.467773
 11
0.741211
 21
0.445312
  0
LINE
  8
0
 10
0.741211
 20
0.445312
 11
0.795898
 21
0.402344
  0
LINE
  8
0
 10
0.795898
 20
0.402344
 11
0.852539
 21
0.361328
  0
LINE
  8
0
 10
0.852539
 20
0.361328
 11
0.911133
 21
0.322266
  0
LINE
  8
0
 10
0.911133
 20
0.322266
 11
0.94043
 21
0.303711
  0
LINE
  8
0
 10
0.94043
 20
0.303711
 11
0.969727
 21
0.286133
  0
LINE
  8
0
 10
0.969727
 20
0.286133
 11
1
 21
0.267578
  0
LINE
  8
0
 10
1
 20
0.267578
 11
1.03027
 21
0.250977
  0
LINE
  8
0
 10
1.03027
 20
0.250977
 11
1.06152
 21
0.234375
  0
LINE
  8
0
 10
1.06152
 20
0.234375
 11
1.0918
 21
0.217773
  0
LINE
  8
0
 10
1.0918
 20
0.217773
 11
1.12305
 21
0.202148
  0
LINE
  8
0
 10
1.12305
 20
0.202148
 11
1.1543
 21
0.1875
  0
LINE
  8
0
 10
1.1543
 20
0.1875
 11
1.18652
 21
0.172852
  0
LINE
  8
0
 10
1.18652
 20
0.172852
 11
1.25098
 21
0.145508
  0
LINE
  8
0
 10
1.25098
 20
0.145508
 11
1.2832
 21
0.132812
  0
LINE
  8
0
 10
1.2832
 20
0.132812
 11
1.31641
 21
0.121094
  0
LINE
  8
0
 10
1.31641
 20
0.121094
 11
1.34863
 21
0.109375
  0
LINE
  8
0
 10
1.34863
 20
0.109375
 11
1.38184
 21
0.0976562
  0
LINE
  8
0
 10
1.38184
 20
0.0976562
 11
1.41504
 21
0.0869141
  0
LINE
  8
0
 10
1.41504
 20
0.0869141
 11
1.44824
 21
0.0771484
  0
LINE
  8
0
 10
1.44824
 20
0.0771484
 11
1.5166
 21
0.0595703
  0
LINE
  8
0
 10
1.5166
 20
0.0595703
 11
1.5498
 21
0.0507812
  0
LINE
  8
0
 10
1.5498
 20
0.0507812
 11
1.65234
 21
0.0302734
  0
LINE
  8
0
 10
1.65234
 20
0.0302734
 11
1.6875
 21
0.0244141
  0
LINE
  8
0
 10
1.6875
 20
0.0244141
 11
1.75586
 21
0.0146484
  0
LINE
  8
0
 10
1.75586
 20
0.0146484
 11
1.79102
 21
0.0107422
  0
LINE
  8
0
 10
1.79102
 20
0.0107422
 11
1.82617
 21
0.0078125
  0
LINE
  8
0
 10
1.82617
 20
0.0078125
 11
1.86035
 21
0.00488281
  0
LINE
  8
0
 10
1.86035
 20
0.00488281
 11
1.93066
 21
0.000976562
  0
LINE
  8
0
 10
1.93066
 20
0.000976562
 11
1.96484
 21
0
  0
LINE
  8
0
 10
1.96484
 20
0
 11
10.0352
 21
0
  0
LINE
  8
0
 10
10.0352
 20
0
 11
10.0693
 21
0.000976562
  0
LINE
  8
0
 10
5.41699
 20
27
 11
5.41699
 21
30
  0
LINE
  8
0
 10
5.41699
 20
30
 11
15.417
 21
30
  0
LINE
  8
0
 10
15.417
 20
30
 11
15.417
 21
27
  0
LINE
  8
0
 10
15.417
 20
27
 11
5.41699
 21
27
  0
LINE
  8
0
 10
85.5
 20
27
 11
85.5
 21
30
  0
LINE
  8
0
 10
85.5
 20
30
 11
95.5
 21
30
  0
LINE
  8
0
 10
95.5
 20
30
 11
95.5
 21
27
  0
LINE
  8
0
 10
95.5
 20
27
 11
85.5
 21
27
  0
LINE
  8
0
 10
42.4824
 20
23
 11
42.4648
 21
23.001
  0
LINE
  8
0
 10
42.4648
 20
23.001
 11
42.4473
 21
23.001
  0
LINE
  8
0
 10
42.4473
 20
23.001
 11
42.4307
 21
23.002
  0
LINE
  8
0
 10
42.4307
 20
23.002
 11
42.3604
 21
23.0098
  0
LINE
  8
0
 10
42.3604
 20
23.0098
 11
42.3438
 21
23.0127
  0
LINE
  8
0
 10
42.3438
 20
23.0127
 11
42.3262
 21
23.0156
  0
LINE
  8
0
 10
42.3262
 20
23.0156
 11
42.3096
 21
23.0186
  0
LINE
  8
0
 10
42.3096
 20
23.0186
 11
42.292
 21
23.0215
  0
LINE
  8
0
 10
42.292
 20
23.0215
 11
42.2754
 21
23.0254
  0
LINE
  8
0
 10
42.2754
 20
23.0254
 11
42.2578
 21
23.0293
  0
LINE
  8
0
 10
42.2578
 20
23.0293
 11
42.1914
 21
23.0488
  0
LINE
  8
0
 10
42.1914
 20
23.0488
 11
42.1416
 21
23.0664
  0
LINE
  8
0
 10
42.1416
 20
23.0664
 11
42.125
 21
23.0732
  0
LINE
  8
0
 10
42.125
 20
23.0732
 11
42.1094
 21
23.0791
  0
LINE
  8
0
 10
42.1094
 20
23.0791
 11
42.0938
 21
23.0869
  0
LINE
  8
0
 10
42.0938
 20
23.0869
 11
42.0771
 21
23.0938
  0
LINE
  8
0
 10
42.0771
 20
23.0938
 11
42.0303
 21
23.1172
  0
LINE
  8
0
 10
42.0303
 20
23.1172
 11
42.0156
 21
23.125
  0
LINE
  8
0
 10
42.0156
 20
23.125
 11
42
 21
23.1338
  0
LINE
  8
0
 10
42
 20
23.1338
 11
41.9854
 21
23.1426
  0
LINE
  8
0
 10
41.9854
 20
23.1426
 11
41.9697
 21
23.1523
  0
LINE
  8
0
 10
41.9697
 20
23.1523
 11
41.9551
 21
23.1611
  0
LINE
  8
0
 10
41.9551
 20
23.1611
 11
41.9404
 21
23.1709
  0
LINE
  8
0
 10
41.9404
 20
23.1709
 11
41.9268
 21
23.1807
  0
LINE
  8
0
 10
41.9268
 20
23.1807
 11
41.9121
 21
23.1914
  0
LINE
  8
0
 10
41.9121
 20
23.1914
 11
41.8984
 21
23.2012
  0
LINE
  8
0
 10
41.8984
 20
23.2012
 11
41.8711
 21
23.2227
  0
LINE
  8
0
 10
41.8711
 20
23.2227
 11
41.8574
 21
23.2344
  0
LINE
  8
0
 10
41.8574
 20
23.2344
 11
41.8438
 21
23.2451
  0
LINE
  8
0
 10
41.8438
 20
23.2451
 11
41.8057
 21
23.2803
  0
LINE
  8
0
 10
41.8057
 20
23.2803
 11
41.7803
 21
23.3057
  0
LINE
  8
0
 10
41.7803
 20
23.3057
 11
41.7451
 21
23.3438
  0
LINE
  8
0
 10
41.7451
 20
23.3438
 11
41.7344
 21
23.3574
  0
LINE
  8
0
 10
41.7344
 20
23.3574
 11
41.7227
 21
23.3711
  0
LINE
  8
0
 10
41.7227
 20
23.3711
 11
41.7012
 21
23.3984
  0
LINE
  8
0
 10
41.7012
 20
23.3984
 11
41.6914
 21
23.4121
  0
LINE
  8
0
 10
41.6914
 20
23.4121
 11
41.6807
 21
23.4268
  0
LINE
  8
0
 10
41.6807
 20
23.4268
 11
41.6709
 21
23.4404
  0
LINE
  8
0
 10
41.6709
 20
23.4404
 11
41.6611
 21
23.4551
  0
LINE
  8
0
 10
41.6611
 20
23.4551
 11
41.6523
 21
23.4697
  0
LINE
  8
0
 10
41.6523
 20
23.4697
 11
41.6426
 21
23.4854
  0
LINE
  8
0
 10
41.6426
 20
23.4854
 11
41.6338
 21
23.5
  0
LINE
  8
0
 10
41.6338
 20
23.5
 11
41.625
 21
23.5156
  0
LINE
  8
0
 10
41.625
 20
23.5156
 11
41.6172
 21
23.5303
  0
LINE
  8
0
 10
41.6172
 20
23.5303
 11
41.5938
 21
23.5771
  0
LINE
  8
0
 10
41.5938
 20
23.5771
 11
41.5869
 21
23.5938
  0
LINE
  8
0
 10
41.5869
 20
23.5938
 11
41.5791
 21
23.6094
  0
LINE
  8
0
 10
41.5791
 20
23.6094
 11
41.5732
 21
23.625
  0
LINE
  8
0
 10
41.5732
 20
23.625
 11
41.5664
 21
23.6416
  0
LINE
  8
0
 10
41.5664
 20
23.6416
 11
41.5488
 21
23.6914
  0
LINE
  8
0
 10
41.5488
 20
23.6914
 11
41.5293
 21
23.7578
  0
LINE
  8
0
 10
41.5293
 20
23.7578
 11
41.5254
 21
23.7754
  0
LINE
  8
0
 10
41.5254
 20
23.7754
 11
41.5215
 21
23.792
  0
LINE
  8
0
 10
41.5215
 20
23.792
 11
41.5186
 21
23.8096
  0
LINE
  8
0
 10
41.5186
 20
23.8096
 11
41.5156
 21
23.8262
  0
LINE
  8
0
 10
41.5156
 20
23.8262
 11
41.5127
 21
23.8438
  0
LINE
  8
0
 10
41.5127
 20
23.8438
 11
41.5098
 21
23.8604
  0
LINE
  8
0
 10
41.5098
 20
23.8604
 11
41.502
 21
23.9307
  0
LINE
  8
0
 10
41.502
 20
23.9307
 11
41.501
 21
23.9473
  0
LINE
  8
0
 10
41.501
 20
23.9473
 11
41.501
 21
23.9648
  0
LINE
  8
0
 10
41.501
 20
23.9648
 11
41.5
 21
23.9824
  0
LINE
  8
0
 10
41.5
 20
23.9824
 11
41.5
 21
29.0176
  0
LINE
  8
0
 10
41.5
 20
29.0176
 11
41.501
 21
29.0352
  0
LINE
  8
0
 10
41.501
 20
29.0352
 11
41.501
 21
29.0527
  0
LINE
  8
0
 10
41.501
 20
29.0527
 11
41.502
 21
29.0693
  0
LINE
  8
0
 10
41.502
 20
29.0693
 11
41.5098
 21
29.1396
  0
LINE
  8
0
 10
41.5098
 20
29.1396
 11
41.5127
 21
29.1562
  0
LINE
  8
0
 10
41.5127
 20
29.1562
 11
41.5156
 21
29.1738
  0
LINE
  8
0
 10
41.5156
 20
29.1738
 11
41.5186
 21
29.1904
  0
LINE
  8
0
 10
41.5186
 20
29.1904
 11
41.5215
 21
29.208
  0
LINE
  8
0
 10
41.5215
 20
29.208
 11
41.5254
 21
29.2246
  0
LINE
  8
0
 10
41.5254
 20
29.2246
 11
41.5293
 21
29.2422
  0
LINE
  8
0
 10
41.5293
 20
29.2422
 11
41.5488
 21
29.3086
  0
LINE
  8
0
 10
41.5488
 20
29.3086
 11
41.5664
 21
29.3584
  0
LINE
  8
0
 10
41.5664
 20
29.3584
 11
41.5732
 21
29.375
  0
LINE
  8
0
 10
41.5732
 20
29.375
 11
41.5791
 21
29.3906
  0
LINE
  8
0
 10
41.5791
 20
29.3906
 11
41.5869
 21
29.4062
  0
LINE
  8
0
 10
41.5869
 20
29.4062
 11
41.5938
 21
29.4229
  0
LINE
  8
0
 10
41.5938
 20
29.4229
 11
41.6172
 21
29.4697
  0
LINE
  8
0
 10
41.6172
 20
29.4697
 11
41.625
 21
29.4844
  0
LINE
  8
0
 10
41.625
 20
29.4844
 11
41.6338
 21
29.5
  0
LINE
  8
0
 10
41.6338
 20
29.5
 11
41.6426
 21
29.5146
  0
LINE
  8
0
 10
41.6426
 20
29.5146
 11
41.6523
 21
29.5303
  0
LINE
  8
0
 10
41.6523
 20
29.5303
 11
41.6611
 21
29.5449
  0
LINE
  8
0
 10
41.6611
 20
29.5449
 11
41.6709
 21
29.5596
  0
LINE
  8
0
 10
41.6709
 20
29.5596
 11
41.6807
 21
29.5732
  0
LINE
  8
0
 10
41.6807
 20
29.5732
 11
41.6914
 21
29.5879
  0
LINE
  8
0
 10
41.6914
 20
29.5879
 11
41.7012
 21
29.6016
  0
LINE
  8
0
 10
41.7012
 20
29.6016
 11
41.7227
 21
29.6289
  0
LINE
  8
0
 10
41.7227
 20
29.6289
 11
41.7344
 21
29.6426
  0
LINE
  8
0
 10
41.7344
 20
29.6426
 11
41.7451
 21
29.6562
  0
LINE
  8
0
 10
41.7451
 20
29.6562
 11
41.7803
 21
29.6943
  0
LINE
  8
0
 10
41.7803
 20
29.6943
 11
41.8057
 21
29.7197
  0
LINE
  8
0
 10
41.8057
 20
29.7197
 11
41.8438
 21
29.7549
  0
LINE
  8
0
 10
41.8438
 20
29.7549
 11
41.8574
 21
29.7656
  0
LINE
  8
0
 10
41.8574
 20
29.7656
 11
41.8711
 21
29.7773
  0
LINE
  8
0
 10
41.8711
 20
29.7773
 11
41.8984
 21
29.7988
  0
LINE
  8
0
 10
41.8984
 20
29.7988
 11
41.9121
 21
29.8086
  0
LINE
  8
0
 10
41.9121
 20
29.8086
 11
41.9268
 21
29.8193
  0
LINE
  8
0
 10
41.9268
 20
29.8193
 11
41.9404
 21
29.8291
  0
LINE
  8
0
 10
41.9404
 20
29.8291
 11
41.9551
 21
29.8389
  0
LINE
  8
0
 10
41.9551
 20
29.8389
 11
41.9697
 21
29.8477
  0
LINE
  8
0
 10
41.9697
 20
29.8477
 11
41.9854
 21
29.8574
  0
LINE
  8
0
 10
41.9854
 20
29.8574
 11
42
 21
29.8662
  0
LINE
  8
0
 10
42
 20
29.8662
 11
42.0156
 21
29.875
  0
LINE
  8
0
 10
42.0156
 20
29.875
 11
42.0303
 21
29.8828
  0
LINE
  8
0
 10
42.0303
 20
29.8828
 11
42.0771
 21
29.9062
  0
LINE
  8
0
 10
42.0771
 20
29.9062
 11
42.0938
 21
29.9131
  0
LINE
  8
0
 10
42.0938
 20
29.9131
 11
42.1094
 21
29.9209
  0
LINE
  8
0
 10
42.1094
 20
29.9209
 11
42.125
 21
29.9268
  0
LINE
  8
0
 10
42.125
 20
29.9268
 11
42.1416
 21
29.9336
  0
LINE
  8
0
 10
42.1416
 20
29.9336
 11
42.1914
 21
29.9512
  0
LINE
  8
0
 10
42.1914
 20
29.9512
 11
42.2578
 21
29.9707
  0
LINE
  8
0
 10
42.2578
 20
29.9707
 11
42.2754
 21
29.9746
  0
LINE
  8
0
 10
42.2754
 20
29.9746
 11
42.292
 21
29.9785
  0
LINE
  8
0
 10
42.292
 20
29.9785
 11
42.3096
 21
29.9814
  0
LINE
  8
0
 10
42.3096
 20
29.9814
 11
42.3262
 21
29.9844
  0
LINE
  8
0
 10
42.3262
 20
29.9844
 11
42.3438
 21
29.9873
  0
LINE
  8
0
 10
42.3438
 20
29.9873
 11
42.3604
 21
29.9902
  0
LINE
  8
0
 10
42.3604
 20
29.9902
 11
42.4307
 21
29.998
  0
LINE
  8
0
 10
42.4307
 20
29.998
 11
42.4473
 21
29.999
  0
LINE
  8
0
 10
42.4473
 20
29.999
 11
42.4648
 21
29.999
  0
LINE
  8
0
 10
42.4648
 20
29.999
 11
42.4824
 21
30
  0
LINE
  8
0
 10
42.4824
 20
30
 11
55.5176
 21
30
  0
LINE
  8
0
 10
55.5176
 20
30
 11
55.5352
 21
29.999
  0
LINE
  8
0
 10
55.5352
 20
29.999
 11
55.5527
 21
29.999
  0
LINE
  8
0
 10
55.5527
 20
29.999
 11
55.5693
 21
29.998
  0
LINE
  8
0
 10
55.5693
 20
29.998
 11
55.6396
 21
29.9902
  0
LINE
  8
0
 10
55.6396
 20
29.9902
 11
55.6562
 21
29.9873
  0
LINE
  8
0
 10
55.6562
 20
29.9873
 11
55.6738
 21
29.9844
  0
LINE
  8
0
 10
55.6738
 20
29.9844
 11
55.6904
 21
29.9814
  0
LINE
  8
0
 10
55.6904
 20
29.9814
 11
55.708
 21
29.9785
  0
LINE
  8
0
 10
55.708
 20
29.9785
 11
55.7246
 21
29.9746
  0
LINE
  8
0
 10
55.7246
 20
29.9746
 11
55.7422
 21
29.9707
  0
LINE
  8
0
 10
55.7422
 20
29.9707
 11
55.8086
 21
29.9512
  0
LINE
  8
0
 10
55.8086
 20
29.9512
 11
55.8584
 21
29.9336
  0
LINE
  8
0
 10
55.8584
 20
29.9336
 11
55.875
 21
29.9268
  0
LINE
  8
0
 10
55.875
 20
29.9268
 11
55.8906
 21
29.9209
  0
LINE
  8
0
 10
55.8906
 20
29.9209
 11
55.9062
 21
29.9131
  0
LINE
  8
0
 10
55.9062
 20
29.9131
 11
55.9229
 21
29.9062
  0
LINE
  8
0
 10
55.9229
 20
29.9062
 11
55.9697
 21
29.8828
  0
LINE
  8
0
 10
55.9697
 20
29.8828
 11
55.9844
 21
29.875
  0
LINE
  8
0
 10
55.9844
 20
29.875
 11
56
 21
29.8662
  0
LINE
  8
0
 10
56
 20
29.8662
 11
56.0146
 21
29.8574
  0
LINE
  8
0
 10
56.0146
 20
29.8574
 11
56.0303
 21
29.8477
  0
LINE
  8
0
 10
56.0303
 20
29.8477
 11
56.0449
 21
29.8389
  0
LINE
  8
0
 10
56.0449
 20
29.8389
 11
56.0596
 21
29.8291
  0
LINE
  8
0
 10
56.0596
 20
29.8291
 11
56.0732
 21
29.8193
  0
LINE
  8
0
 10
56.0732
 20
29.8193
 11
56.0879
 21
29.8086
  0
LINE
  8
0
 10
56.0879
 20
29.8086
 11
56.1016
 21
29.7988
  0
LINE
  8
0
 10
56.1016
 20
29.7988
 11
56.1289
 21
29.7773
  0
LINE
  8
0
 10
56.1289
 20
29.7773
 11
56.1426
 21
29.7656
  0
LINE
  8
0
 10
56.1426
 20
29.7656
 11
56.1562
 21
29.7549
  0
LINE
  8
0
 10
56.1562
 20
29.7549
 11
56.1943
 21
29.7197
  0
LINE
  8
0
 10
56.1943
 20
29.7197
 11
56.2197
 21
29.6943
  0
LINE
  8
0
 10
56.2197
 20
29.6943
 11
56.2549
 21
29.6562
  0
LINE
  8
0
 10
56.2549
 20
29.6562
 11
56.2656
 21
29.6426
  0
LINE
  8
0
 10
56.2656
 20
29.6426
 11
56.2773
 21
29.6289
  0
LINE
  8
0
 10
56.2773
 20
29.6289
 11
56.2988
 21
29.6016
  0
LINE
  8
0
 10
56.2988
 20
29.6016
 11
56.3086
 21
29.5879
  0
LINE
  8
0
 10
56.3086
 20
29.5879
 11
56.3193
 21
29.5732
  0
LINE
  8
0
 10
56.3193
 20
29.5732
 11
56.3291
 21
29.5596
  0
LINE
  8
0
 10
56.3291
 20
29.5596
 11
56.3389
 21
29.5449
  0
LINE
  8
0
 10
56.3389
 20
29.5449
 11
56.3477
 21
29.5303
  0
LINE
  8
0
 10
56.3477
 20
29.5303
 11
56.3574
 21
29.5146
  0
LINE
  8
0
 10
56.3574
 20
29.5146
 11
56.3662
 21
29.5
  0
LINE
  8
0
 10
56.3662
 20
29.5
 11
56.375
 21
29.4844
  0
LINE
  8
0
 10
56.375
 20
29.4844
 11
56.3828
 21
29.4697
  0
LINE
  8
0
 10
56.3828
 20
29.4697
 11
56.4062
 21
29.4229
  0
LINE
  8
0
 10
56.4062
 20
29.4229
 11
56.4131
 21
29.4062
  0
LINE
  8
0
 10
56.4131
 20
29.4062
 11
56.4209
 21
29.3906
  0
LINE
  8
0
 10
56.4209
 20
29.3906
 11
56.4268
 21
29.375
  0
LINE
  8
0
 10
56.4268
 20
29.375
 11
56.4336
 21
29.3584
  0
LINE
  8
0
 10
56.4336
 20
29.3584
 11
56.4512
 21
29.3086
  0
LINE
  8
0
 10
56.4512
 20
29.3086
 11
56.4707
 21
29.2422
  0
LINE
  8
0
 10
56.4707
 20
29.2422
 11
56.4746
 21
29.2246
  0
LINE
  8
0
 10
56.4746
 20
29.2246
 11
56.4785
 21
29.208
  0
LINE
  8
0
 10
56.4785
 20
29.208
 11
56.4814
 21
29.1904
  0
LINE
  8
0
 10
56.4814
 20
29.1904
 11
56.4844
 21
29.1738
  0
LINE
  8
0
 10
56.4844
 20
29.1738
 11
56.4873
 21
29.1562
  0
LINE
  8
0
 10
56.4873
 20
29.1562
 11
56.4902
 21
29.1396
  0
LINE
  8
0
 10
56.4902
 20
29.1396
 11
56.498
 21
29.0693
  0
LINE
  8
0
 10
56.498
 20
29.0693
 11
56.499
 21
29.0527
  0
LINE
  8
0
 10
56.499
 20
29.0527
 11
56.499
 21
29.0352
  0
LINE
  8
0
 10
56.499
 20
29.0352
 11
56.5
 21
29.0176
  0
LINE
  8
0
 10
56.5
 20
29.0176
 11
56.5
 21
23.9824
  0
LINE
  8
0
 10
56.5
 20
23.9824
 11
56.499
 21
23.9648
  0
LINE
  8
0
 10
56.499
 20
23.9648
 11
56.499
 21
23.9473
  0
LINE
  8
0
 10
56.499
 20
23.9473
 11
56.498
 21
23.9307
  0
LINE
  8
0
 10
56.498
 20
23.9307
 11
56.4902
 21
23.8604
  0
LINE
  8
0
 10
56.4902
 20
23.8604
 11
56.4873
 21
23.8438
  0
LINE
  8
0
 10
56.4873
 20
23.8438
 11
56.4844
 21
23.8262
  0
LINE
  8
0
 10
56.4844
 20
23.8262
 11
56.4814
 21
23.8096
  0
LINE
  8
0
 10
56.4814
 20
23.8096
 11
56.4785
 21
23.792
  0
LINE
  8
0
 10
56.4785
 20
23.792
 11
56.4746
 21
23.7754
  0
LINE
  8
0
 10
56.4746
 20
23.7754
 11
56.4707
 21
23.7578
  0
LINE
  8
0
 10
56.4707
 20
23.7578
 11
56.4512
 21
23.6914
  0
LINE
  8
0
 10
56.4512
 20
23.6914
 11
56.4336
 21
23.6416
  0
LINE
  8
0
 10
56.4336
 20
23.6416
 11
56.4268
 21
23.625
  0
LINE
  8
0
 10
56.4268
 20
23.625
 11
56.4209
 21
23.6094
  0
LINE
  8
0
 10
56.4209
 20
23.6094
 11
56.4131
 21
23.5938
  0
LINE
  8
0
 10
56.4131
 20
23.5938
 11
56.4062
 21
23.5771
  0
LINE
  8
0
 10
56.4062
 20
23.5771
 11
56.3828
 21
23.5303
  0
LINE
  8
0
 10
56.3828
 20
23.5303
 11
56.375
 21
23.5156
  0
LINE
  8
0
 10
56.375
 20
23.5156
 11
56.3662
 21
23.5
  0
LINE
  8
0
 10
56.3662
 20
23.5
 11
56.3574
 21
23.4854
  0
LINE
  8
0
 10
56.3574
 20
23.4854
 11
56.3477
 21
23.4697
  0
LINE
  8
0
 10
56.3477
 20
23.4697
 11
56.3389
 21
23.4551
  0
LINE
  8
0
 10
56.3389
 20
23.4551
 11
56.3291
 21
23.4404
  0
LINE
  8
0
 10
56.3291
 20
23.4404
 11
56.3193
 21
23.4268
  0
LINE
  8
0
 10
56.3193
 20
23.4268
 11
56.3086
 21
23.4121
  0
LINE
  8
0
 10
56.3086
 20
23.4121
 11
56.2988
 21
23.3984
  0
LINE
  8
0
 10
56.2988
 20
23.3984
 11
56.2773
 21
23.3711
  0
LINE
  8
0
 10
56.2773
 20
23.3711
 11
56.2656
 21
23.3574
  0
LINE
  8
0
 10
56.2656
 20
23.3574
 11
56.2549
 21
23.3438
  0
LINE
  8
0
 10
56.2549
 20
23.3438
 11
56.2197
 21
23.3057
  0
LINE
  8
0
 10
56.2197
 20
23.3057
 11
56.1943
 21
23.2803
  0
LINE
  8
0
 10
56.1943
 20
23.2803
 11
56.1562
 21
23.2451
  0
LINE
  8
0
 10
56.1562
 20
23.2451
 11
56.1426
 21
23.2344
  0
LINE
  8
0
 10
56.1426
 20
23.2344
 11
56.1289
 21
23.2227
  0
LINE
  8
0
 10
56.1289
 20
23.2227
 11
56.1016
 21
23.2012
  0
LINE
  8
0
 10
56.1016
 20
23.2012
 11
56.0879
 21
23.1914
  0
LINE
  8
0
 10
56.0879
 20
23.1914
 11
56.0732
 21
23.1807
  0
LINE
  8
0
 10
56.0732
 20
23.1807
 11
56.0596
 21
23.1709
  0
LINE
  8
0
 10
56.0596
 20
23.1709
 11
56.0449
 21
23.1611
  0
LINE
  8
0
 10
56.0449
 20
23.1611
 11
56.0303
 21
23.1523
  0
LINE
  8
0
 10
56.0303
 20
23.1523
 11
56.0146
 21
23.1426
  0
LINE
  8
0
 10
56.0146
 20
23.1426
 11
56
 21
23.1338
  0
LINE
  8
0
 10
56
 20
23.1338
 11
55.9844
 21
23.125
  0
LINE
  8
0
 10
55.9844
 20
23.125
 11
55.9697
 21
23.1172
  0
LINE
  8
0
 10
55.9697
 20
23.1172
 11
55.9229
 21
23.0938
  0
LINE
  8
0
 10
55.9229
 20
23.0938
 11
55.9062
 21
23.0869
  0
LINE
  8
0
 10
55.9062
 20
23.0869
 11
55.8906
 21
23.0791
  0
LINE
  8
0
 10
55.8906
 20
23.0791
 11
55.875
 21
23.0732
  0
LINE
  8
0
 10
55.875
 20
23.0732
 11
55.8584
 21
23.0664
  0
LINE
  8
0
 10
55.8584
 20
23.0664
 11
55.8086
 21
23.0488
  0
LINE
  8
0
 10
55.8086
 20
23.0488
 11
55.7422
 21
23.0293
  0
LINE
  8
0
 10
55.7422
 20
23.0293
 11
55.7246
 21
23.0254
  0
LINE
  8
0
 10
55.7246
 20
23.0254
 11
55.708
 21
23.0215
  0
LINE
  8
0
 10
55.708
 20
23.0215
 11
55.6904
 21
23.0186
  0
LINE
  8
0
 10
55.6904
 20
23.0186
 11
55.6738
 21
23.0156
  0
LINE
  8
0
 10
55.6738
 20
23.0156
 11
55.6562
 21
23.0127
  0
LINE
  8
0
 10
55.6562
 20
23.0127
 11
55.6396
 21
23.0098
  0
LINE
  8
0
 10
55.6396
 20
23.0098
 11
55.5693
 21
23.002
  0
LINE
  8
0
 10
55.5693
 20
23.002
 11
55.5527
 21
23.001
  0
LINE
  8
0
 10
55.5527
 20
23.001
 11
55.5352
 21
23.001
  0
LINE
  8
0
 10
55.5352
 20
23.001
 11
55.5176
 21
23
  0
LINE
  8
0
 10
55.5176
 20
23
 11
42.4824
 21
23
  0
LINE
  8
0
 10
60.9824
 20
23
 11
60.9648
 21
23.001
  0
LINE
  8
0
 10
60.9648
 20
23.001
 11
60.9473
 21
23.001
  0
LINE
  8
0
 10
60.9473
 20
23.001
 11
60.9307
 21
23.002
  0
LINE
  8
0
 10
60.9307
 20
23.002
 11
60.8604
 21
23.0098
  0
LINE
  8
0
 10
60.8604
 20
23.0098
 11
60.8438
 21
23.0127
  0
LINE
  8
0
 10
60.8438
 20
23.0127
 11
60.8262
 21
23.0156
  0
LINE
  8
0
 10
60.8262
 20
23.0156
 11
60.8096
 21
23.0186
  0
LINE
  8
0
 10
60.8096
 20
23.0186
 11
60.792
 21
23.0215
  0
LINE
  8
0
 10
60.792
 20
23.0215
 11
60.7754
 21
23.0254
  0
LINE
  8
0
 10
60.7754
 20
23.0254
 11
60.7578
 21
23.0293
  0
LINE
  8
0
 10
60.7578
 20
23.0293
 11
60.6914
 21
23.0488
  0
LINE
  8
0
 10
60.6914
 20
23.0488
 11
60.6416
 21
23.0664
  0
LINE
  8
0
 10
60.6416
 20
23.0664
 11
60.625
 21
23.0732
  0
LINE
  8
0
 10
60.625
 20
23.0732
 11
60.6094
 21
23.0791
  0
LINE
  8
0
 10
60.6094
 20
23.0791
 11
60.5938
 21
23.0869
  0
LINE
  8
0
 10
60.5938
 20
23.0869
 11
60.5771
 21
23.0938
  0
LINE
  8
0
 10
60.5771
 20
23.0938
 11
60.5303
 21
23.1172
  0
LINE
  8
0
 10
60.5303
 20
23.1172
 11
60.5156
 21
23.125
  0
LINE
  8
0
 10
60.5156
 20
23.125
 11
60.5
 21
23.1338
  0
LINE
  8
0
 10
60.5
 20
23.1338
 11
60.4854
 21
23.1426
  0
LINE
  8
0
 10
60.4854
 20
23.1426
 11
60.4697
 21
23.1523
  0
LINE
  8
0
 10
60.4697
 20
23.1523
 11
60.4551
 21
23.1611
  0
LINE
  8
0
 10
60.4551
 20
23.1611
 11
60.4404
 21
23.1709
  0
LINE
  8
0
 10
60.4404
 20
23.1709
 11
60.4268
 21
23.1807
  0
LINE
  8
0
 10
60.4268
 20
23.1807
 11
60.4121
 21
23.1914
  0
LINE
  8
0
 10
60.4121
 20
23.1914
 11
60.3984
 21
23.2012
  0
LINE
  8
0
 10
60.3984
 20
23.2012
 11
60.3711
 21
23.2227
  0
LINE
  8
0
 10
60.3711
 20
23.2227
 11
60.3574
 21
23.2344
  0
LINE
  8
0
 10
60.3574
 20
23.2344
 11
60.3438
 21
23.2451
  0
LINE
  8
0
 10
60.3438
 20
23.2451
 11
60.3057
 21
23.2803
  0
LINE
  8
0
 10
60.3057
 20
23.2803
 11
60.2803
 21
23.3057
  0
LINE
  8
0
 10
60.2803
 20
23.3057
 11
60.2451
 21
23.3438
  0
LINE
  8
0
 10
60.2451
 20
23.3438
 11
60.2344
 21
23.3574
  0
LINE
  8
0
 10
60.2344
 20
23.3574
 11
60.2227
 21
23.3711
  0
LINE
  8
0
 10
60.2227
 20
23.3711
 11
60.2012
 21
23.3984
  0
LINE
  8
0
 10
60.2012
 20
23.3984
 11
60.1914
 21
23.4121
  0
LINE
  8
0
 10
60.1914
 20
23.4121
 11
60.1807
 21
23.4268
  0
LINE
  8
0
 10
60.1807
 20
23.4268
 11
60.1709
 21
23.4404
  0
LINE
  8
0
 10
60.1709
 20
23.4404
 11
60.1611
 21
23.4551
  0
LINE
  8
0
 10
60.1611
 20
23.4551
 11
60.1523
 21
23.4697
  0
LINE
  8
0
 10
60.1523
 20
23.4697
 11
60.1426
 21
23.4854
  0
LINE
  8
0
 10
60.1426
 20
23.4854
 11
60.1338
 21
23.5
  0
LINE
  8
0
 10
60.1338
 20
23.5
 11
60.125
 21
23.5156
  0
LINE
  8
0
 10
60.125
 20
23.5156
 11
60.1172
 21
23.5303
  0
LINE
  8
0
 10
60.1172
 20
23.5303
 11
60.0938
 21
23.5771
  0
LINE
  8
0
 10
60.0938
 20
23.5771
 11
60.0869
 21
23.5938
  0
LINE
  8
0
 10
60.0869
 20
23.5938
 11
60.0791
 21
23.6094
  0
LINE
  8
0
 10
60.0791
 20
23.6094
 11
60.0732
 21
23.625
  0
LINE
  8
0
 10
60.0732
 20
23.625
 11
60.0664
 21
23.6416
  0
LINE
  8
0
 10
60.0664
 20
23.6416
 11
60.0488
 21
23.6914
  0
LINE
  8
0
 10
60.0488
 20
23.6914
 11
60.0293
 21
23.7578
  0
LINE
  8
0
 10
60.0293
 20
23.7578
 11
60.0254
 21
23.7754
  0
LINE
  8
0
 10
60.0254
 20
23.7754
 11
60.0215
 21
23.792
  0
LINE
  8
0
 10
60.0215
 20
23.792
 11
60.0186
 21
23.8096
  0
LINE
  8
0
 10
60.0186
 20
23.8096
 11
60.0156
 21
23.8262
  0
LINE
  8
0
 10
60.0156
 20
23.8262
 11
60.0127
 21
23.8438
  0
LINE
  8
0
 10
60.0127
 20
23.8438
 11
60.0098
 21
23.8604
  0
LINE
  8
0
 10
60.0098
 20
23.8604
 11
60.002
 21
23.9307
  0
LINE
  8
0
 10
60.002
 20
23.9307
 11
60.001
 21
23.9473
  0
LINE
  8
0
 10
60.001
 20
23.9473
 11
60.001
 21
23.9648
  0
LINE
  8
0
 10
60.001
 20
23.9648
 11
60
 21
23.9824
  0
LINE
  8
0
 10
60
 20
23.9824
 11
60
 21
29.0176
  0
LINE
  8
0
 10
60
 20
29.0176
 11
60.001
 21
29.0352
  0
LINE
  8
0
 10
60.001
 20
29.0352
 11
60.001
 21
29.0527
  0
LINE
  8
0
 10
60.001
 20
29.0527
 11
60.002
 21
29.0693
  0
LINE
  8
0
 10
60.002
 20
29.0693
 11
60.0098
 21
29.1396
  0
LINE
  8
0
 10
60.0098
 20
29.1396
 11
60.0127
 21
29.1562
  0
LINE
  8
0
 10
60.0127
 20
29.1562
 11
60.0156
 21
29.1738
  0
LINE
  8
0
 10
60.0156
 20
29.1738
 11
60.0186
 21
29.1904
  0
LINE
  8
0
 10
60.0186
 20
29.1904
 11
60.0215
 21
29.208
  0
LINE
  8
0
 10
60.0215
 20
29.208
 11
60.0254
 21
29.2246
  0
LINE
  8
0
 10
60.0254
 20
29.2246
 11
60.0293
 21
29.2422
  0
LINE
  8
0
 10
60.0293
 20
29.2422
 11
60.0488
 21
29.3086
  0
LINE
  8
0
 10
60.0488
 20
29.3086
 11
60.0664
 21
29.3584
  0
LINE
  8
0
 10
60.0664
 20
29.3584
 11
60.0732
 21
29.375
  0
LINE
  8
0
 10
60.0732
 20
29.375
 11
60.0791
 21
29.3906
  0
LINE
  8
0
 10
60.0791
 20
29.3906
 11
60.0869
 21
29.4062
  0
LINE
  8
0
 10
60.0869
 20
29.4062
 11
60.0938
 21
29.4229
  0
LINE
  8
0
 10
60.0938
 20
29.4229
 11
60.1172
 21
29.4697
  0
LINE
  8
0
 10
60.1172
 20
29.4697
 11
60.125
 21
29.4844
  0
LINE
  8
0
 10
60.125
 20
29.4844
 11
60.1338
 21
29.5
  0
LINE
  8
0
 10
60.1338
 20
29.5
 11
60.1426
 21
29.5146
  0
LINE
  8
0
 10
60.1426
 20
29.5146
 11
60.1523
 21
29.5303
  0
LINE
  8
0
 10
60.1523
 20
29.5303
 11
60.1611
 21
29.5449
  0
LINE
  8
0
 10
60.1611
 20
29.5449
 11
60.1709
 21
29.5596
  0
LINE
  8
0
 10
60.1709
 20
29.5596
 11
60.1807
 21
29.5732
  0
LINE
  8
0
 10
60.1807
 20
29.5732
 11
60.1914
 21
29.5879
  0
LINE
  8
0
 10
60.1914
 20
29.5879
 11
60.2012
 21
29.6016
  0
LINE
  8
0
 10
60.2012
 20
29.6016
 11
60.2227
 21
29.6289
  0
LINE
  8
0
 10
60.2227
 20
29.6289
 11
60.2344
 21
29.6426
  0
LINE
  8
0
 10
60.2344
 20
29.6426
 11
60.2451
 21
29.6562
  0
LINE
  8
0
 10
60.2451
 20
29.6562
 11
60.2803
 21
29.6943
  0
LINE
  8
0
 10
60.2803
 20
29.6943
 11
60.3057
 21
29.7197
  0
LINE
  8
0
 10
60.3057
 20
29.7197
 11
60.3438
 21
29.7549
  0
LINE
  8
0
 10
60.3438
 20
29.7549
 11
60.3574
 21
29.7656
  0
LINE
  8
0
 10
60.3574
 20
29.7656
 11
60.3711
 21
29.7773
  0
LINE
  8
0
 10
60.3711
 20
29.7773
 11
60.3984
 21
29.7988
  0
LINE
  8
0
 10
60.3984
 20
29.7988
 11
60.4121
 21
29.8086
  0
LINE
  8
0
 10
60.4121
 20
29.8086
 11
60.4268
 21
29.8193
  0
LINE
  8
0
 10
60.4268
 20
29.8193
 11
60.4404
 21
29.8291
  0
LINE
  8
0
 10
60.4404
 20
29.8291
 11
60.4551
 21
29.8389
  0
LINE
  8
0
 10
60.4551
 20
29.8389
 11
60.4697
 21
29.8477
  0
LINE
  8
0
 10
60.4697
 20
29.8477
 11
60.4854
 21
29.8574
  0
LINE
  8
0
 10
60.4854
 20
29.8574
 11
60.5
 21
29.8662
  0
LINE
  8
0
 10
60.5
 20
29.8662
 11
60.5156
 21
29.875
  0
LINE
  8
0
 10
60.5156
 20
29.875
 11
60.5303
 21
29.8828
  0
LINE
  8
0
 10
60.5303
 20
29.8828
 11
60.5771
 21
29.9062
  0
LINE
  8
0
 10
60.5771
 20
29.9062
 11
60.5938
 21
29.9131
  0
LINE
  8
0
 10
60.5938
 20
29.9131
 11
60.6094
 21
29.9209
  0
LINE
  8
0
 10
60.6094
 20
29.9209
 11
60.625
 21
29.9268
  0
LINE
  8
0
 10
60.625
 20
29.9268
 11
60.6416
 21
29.9336
  0
LINE
  8
0
 10
60.6416
 20
29.9336
 11
60.6914
 21
29.9512
  0
LINE
  8
0
 10
60.6914
 20
29.9512
 11
60.7578
 21
29.9707
  0
LINE
  8
0
 10
60.7578
 20
29.9707
 11
60.7754
 21
29.9746
  0
LINE
  8
0
 10
60.7754
 20
29.9746
 11
60.792
 21
29.9785
  0
LINE
  8
0
 10
60.792
 20
29.9785
 11
60.8096
 21
29.9814
  0
LINE
  8
0
 10
60.8096
 20
29.9814
 11
60.8262
 21
29.9844
  0
LINE
  8
0
 10
60.8262
 20
29.9844
 11
60.8438
 21
29.9873
  0
LINE
  8
0
 10
60.8438
 20
29.9873
 11
60.8604
 21
29.9902
  0
LINE
  8
0
 10
60.8604
 20
29.9902
 11
60.9307
 21
29.998
  0
LINE
  8
0
 10
60.9307
 20
29.998
 11
60.9473
 21
29.999
  0
LINE
  8
0
 10
60.9473
 20
29.999
 11
60.9648
 21
29.999
  0
LINE
  8
0
 10
60.9648
 20
29.999
 11
60.9824
 21
30
  0
LINE
  8
0
 10
60.9824
 20
30
 11
74.0176
 21
30
  0
LINE
  8
0
 10
74.0176
 20
30
 11
74.0352
 21
29.999
  0
LINE
  8
0
 10
74.0352
 20
29.999
 11
74.0527
 21
29.999
  0
LINE
  8
0
 10
74.0527
 20
29.999
 11
74.0693
 21
29.998
  0
LINE
  8
0
 10
74.0693
 20
29.998
 11
74.1396
 21
29.9902
  0
LINE
  8
0
 10
74.1396
 20
29.9902
 11
74.1562
 21
29.9873
  0
LINE
  8
0
 10
74.1562
 20
29.9873
 11
74.1738
 21
29.9844
  0
LINE
  8
0
 10
74.1738
 20
29.9844
 11
74.1904
 21
29.9814
  0
LINE
  8
0
 10
74.1904
 20
29.9814
 11
74.208
 21
29.9785
  0
LINE
  8
0
 10
74.208
 20
29.9785
 11
74.2246
 21
29.9746
  0
LINE
  8
0
 10
74.2246
 20
29.9746
 11
74.2422
 21
29.9707
  0
LINE
  8
0
 10
74.2422
 20
29.9707
 11
74.3086
 21
29.9512
  0
LINE
  8
0
 10
74.3086
 20
29.9512
 11
74.3584
 21
29.9336
  0
LINE
  8
0
 10
74.3584
 20
29.9336
 11
74.375
 21
29.9268
  0
LINE
  8
0
 10
74.375
 20
29.9268
 11
74.3906
 21
29.9209
  0
LINE
  8
0
 10
74.3906
 20
29.9209
 11
74.4062
 21
29.9131
  0
LINE
  8
0
 10
74.4062
 20
29.9131
 11
74.4229
 21
29.9062
  0
LINE
  8
0
 10
74.4229
 20
29.9062
 11
74.4697
 21
29.8828
  0
LINE
  8
0
 10
74.4697
 20
29.8828
 11
74.4844
 21
29.875
  0
LINE
  8
0
 10
74.4844
 20
29.875
 11
74.5
 21
29.8662
  0
LINE
  8
0
 10
74.5
 20
29.8662
 11
74.5146
 21
29.8574
  0
LINE
  8
0
 10
74.5146
 20
29.8574
 11
74.5303
 21
29.8477
  0
LINE
  8
0
 10
74.5303
 20
29.8477
 11
74.5449
 21
29.8389
  0
LINE
  8
0
 10
74.5449
 20
29.8389
 11
74.5596
 21
29.8291
  0
LINE
  8
0
 10
74.5596
 20
29.8291
 11
74.5732
 21
29.8193
  0
LINE
  8
0
 10
74.5732
 20
29.8193
 11
74.5879
 21
29.8086
  0
LINE
  8
0
 10
74.5879
 20
29.8086
 11
74.6016
 21
29.7988
  0
LINE
  8
0
 10
74.6016
 20
29.7988
 11
74.6289
 21
29.7773
  0
LINE
  8
0
 10
74.6289
 20
29.7773
 11
74.6426
 21
29.7656
  0
LINE
  8
0
 10
74.6426
 20
29.7656
 11
74.6562
 21
29.7549
  0
LINE
  8
0
 10
74.6562
 20
29.7549
 11
74.6943
 21
29.7197
  0
LINE
  8
0
 10
74.6943
 20
29.7197
 11
74.7197
 21
29.6943
  0
LINE
  8
0
 10
74.7197
 20
29.6943
 11
74.7549
 21
29.6562
  0
LINE
  8
0
 10
74.7549
 20
29.6562
 11
74.7656
 21
29.6426
  0
LINE
  8
0
 10
74.7656
 20
29.6426
 11
74.7773
 21
29.6289
  0
LINE
  8
0
 10
74.7773
 20
29.6289
 11
74.7988
 21
29.6016
  0
LINE
  8
0
 10
74.7988
 20
29.6016
 11
74.8086
 21
29.5879
  0
LINE
  8
0
 10
74.8086
 20
29.5879
 11
74.8193
 21
29.5732
  0
LINE
  8
0
 10
74.8193
 20
29.5732
 11
74.8291
 21
29.5596
  0
LINE
  8
0
 10
74.8291
 20
29.5596
 11
74.8389
 21
29.5449
  0
LINE
  8
0
 10
74.8389
 20
29.5449
 11
74.8477
 21
29.5303
  0
LINE
  8
0
 10
74.8477
 20
29.5303
 11
74.8574
 21
29.5146
  0
LINE
  8
0
 10
74.8574
 20
29.5146
 11
74.8662
 21
29.5
  0
LINE
  8
0
 10
74.8662
 20
29.5
 11
74.875
 21
29.4844
  0
LINE
  8
0
 10
74.875
 20
29.4844
 11
74.8828
 21
29.4697
  0
LINE
  8
0
 10
74.8828
 20
29.4697
 11
74.9062
 21
29.4229
  0
LINE
  8
0
 10
74.9062
 20
29.4229
 11
74.9131
 21
29.4062
  0
LINE
  8
0
 10
74.9131
 20
29.4062
 11
74.9209
 21
29.3906
  0
LINE
  8
0
 10
74.9209
 20
29.3906
 11
74.9268
 21
29.375
  0
LINE
  8
0
 10
74.9268
 20
29.375
 11
74.9336
 21
29.3584
  0
LINE
  8
0
 10
74.9336
 20
29.3584
 11
74.9512
 21
29.3086
  0
LINE
  8
0
 10
74.9512
 20
29.3086
 11
74.9707
 21
29.2422
  0
LINE
  8
0
 10
74.9707
 20
29.2422
 11
74.9746
 21
29.2246
  0
LINE
  8
0
 10
74.9746
 20
29.2246
 11
74.9785
 21
29.208
  0
LINE
  8
0
 10
74.9785
 20
29.208
 11
74.9814
 21
29.1904
  0
LINE
  8
0
 10
74.9814
 20
29.1904
 11
74.9844
 21
29.1738
  0
LINE
  8
0
 10
74.9844
 20
29.1738
 11
74.9873
 21
29.1562
  0
LINE
  8
0
 10
74.9873
 20
29.1562
 11
74.9902
 21
29.1396
  0
LINE
  8
0
 10
74.9902
 20
29.1396
 11
74.998
 21
29.0693
  0
LINE
  8
0
 10
74.998
 20
29.0693
 11
74.999
 21
29.0527
  0
LINE
  8
0
 10
74.999
 20
29.0527
 11
74.999
 21
29.0352
  0
LINE
  8
0
 10
74.999
 20
29.0352
 11
75
 21
29.0176
  0
LINE
  8
0
 10
75
 20
29.0176
 11
75
 21
23.9824
  0
LINE
  8
0
 10
75
 20
23.9824
 11
74.999
 21
23.9648
  0
LINE
  8
0
 10
74.999
 20
23.9648
 11
74.999
 21
23.9473
  0
LINE
  8
0
 10
74.999
 20
23.9473
 11
74.998
 21
23.9307
  0
LINE
  8
0
 10
74.998
 20
23.9307
 11
74.9902
 21
23.8604
  0
LINE
  8
0
 10
74.9902
 20
23.8604
 11
74.9873
 21
23.8438
  0
LINE
  8
0
 10
74.9873
 20
23.8438
 11
74.9844
 21
23.8262
  0
LINE
  8
0
 10
74.9844
 20
23.8262
 11
74.9814
 21
23.8096
  0
LINE
  8
0
 10
74.9814
 20
23.8096
 11
74.9785
 21
23.792
  0
LINE
  8
0
 10
74.9785
 20
23.792
 11
74.9746
 21
23.7754
  0
LINE
  8
0
 10
74.9746
 20
23.7754
 11
74.9707
 21
23.7578
  0
LINE
  8
0
 10
74.9707
 20
23.7578
 11
74.9512
 21
23.6914
  0
LINE
  8
0
 10
74.9512
 20
23.6914
 11
74.9336
 21
23.6416
  0
LINE
  8
0
 10
74.9336
 20
23.6416
 11
74.9268
 21
23.625
  0
LINE
  8
0
 10
74.9268
 20
23.625
 11
74.9209
 21
23.6094
  0
LINE
  8
0
 10
74.9209
 20
23.6094
 11
74.9131
 21
23.5938
  0
LINE
  8
0
 10
74.9131
 20
23.5938
 11
74.9062
 21
23.5771
  0
LINE
  8
0
 10
74.9062
 20
23.5771
 11
74.8828
 21
23.5303
  0
LINE
  8
0
 10
74.8828
 20
23.5303
 11
74.875
 21
23.5156
  0
LINE
  8
0
 10
74.875
 20
23.5156
 11
74.8662
 21
23.5
  0
LINE
  8
0
 10
74.8662
 20
23.5
 11
74.8574
 21
23.4854
  0
LINE
  8
0
 10
74.8574
 20
23.4854
 11
74.8477
 21
23.4697
  0
LINE
  8
0
 10
74.8477
 20
23.4697
 11
74.8389
 21
23.4551
  0
LINE
  8
0
 10
74.8389
 20
23.4551
 11
74.8291
 21
23.4404
  0
LINE
  8
0
 10
74.8291
 20
23.4404
 11
74.8193
 21
23.4268
  0
LINE
  8
0
 10
74.8193
 20
23.4268
 11
74.8086
 21
23.4121
  0
LINE
  8
0
 10
74.8086
 20
23.4121
 11
74.7988
 21
23.3984
  0
LINE
  8
0
 10
74.7988
 20
23.3984
 11
74.7773
 21
23.3711
  0
LINE
  8
0
 10
74.7773
 20
23.3711
 11
74.7656
 21
23.3574
  0
LINE
  8
0
 10
74.7656
 20
23.3574
 11
74.7549
 21
23.3438
  0
LINE
  8
0
 10
74.7549
 20
23.3438
 11
74.7197
 21
23.3057
  0
LINE
  8
0
 10
74.7197
 20
23.3057
 11
74.6943
 21
23.2803
  0
LINE
  8
0
 10
74.6943
 20
23.2803
 11
74.6562
 21
23.2451
  0
LINE
  8
0
 10
74.6562
 20
23.2451
 11
74.6426
 21
23.2344
  0
LINE
  8
0
 10
74.6426
 20
23.2344
 11
74.6289
 21
23.2227
  0
LINE
  8
0
 10
74.6289
 20
23.2227
 11
74.6016
 21
23.2012
  0
LINE
  8
0
 10
74.6016
 20
23.2012
 11
74.5879
 21
23.1914
  0
LINE
  8
0
 10
74.5879
 20
23.1914
 11
74.5732
 21
23.1807
  0
LINE
  8
0
 10
74.5732
 20
23.1807
 11
74.5596
 21
23.1709
  0
LINE
  8
0
 10
74.5596
 20
23.1709
 11
74.5449
 21
23.1611
  0
LINE
  8
0
 10
74.5449
 20
23.1611
 11
74.5303
 21
23.1523
  0
LINE
  8
0
 10
74.5303
 20
23.1523
 11
74.5146
 21
23.1426
  0
LINE
  8
0
 10
74.5146
 20
23.1426
 11
74.5
 21
23.1338
  0
LINE
  8
0
 10
74.5
 20
23.1338
 11
74.4844
 21
23.125
  0
LINE
  8
0
 10
74.4844
 20
23.125
 11
74.4697
 21
23.1172
  0
LINE
  8
0
 10
74.4697
 20
23.1172
 11
74.4229
 21
23.0938
  0
LINE
  8
0
 10
74.4229
 20
23.0938
 11
74.4062
 21
23.0869
  0
LINE
  8
0
 10
74.4062
 20
23.0869
 11
74.3906
 21
23.0791
  0
LINE
  8
0
 10
74.3906
 20
23.0791
 11
74.375
 21
23.0732
  0
LINE
  8
0
 10
74.375
 20
23.0732
 11
74.3584
 21
23.0664
  0
LINE
  8
0
 10
74.3584
 20
23.0664
 11
74.3086
 21
23.0488
  0
LINE
  8
0
 10
74.3086
 20
23.0488
 11
74.2422
 21
23.0293
  0
LINE
  8
0
 10
74.2422
 20
23.0293
 11
74.2246
 21
23.0254
  0
LINE
  8
0
 10
74.2246
 20
23.0254
 11
74.208
 21
23.0215
  0
LINE
  8
0
 10
74.208
 20
23.0215
 11
74.1904
 21
23.0186
  0
LINE
  8
0
 10
74.1904
 20
23.0186
 11
74.1738
 21
23.0156
  0
LINE
  8
0
 10
74.1738
 20
23.0156
 11
74.1562
 21
23.0127
  0
LINE
  8
0
 10
74.1562
 20
23.0127
 11
74.1396
 21
23.0098
  0
LINE
  8
0
 10
74.1396
 20
23.0098
 11
74.0693
 21
23.002
  0
LINE
  8
0
 10
74.0693
 20
23.002
 11
74.0527
 21
23.001
  0
LINE
  8
0
 10
74.0527
 20
23.001
 11
74.0352
 21
23.001
  0
LINE
  8
0
 10
74.0352
 20
23.001
 11
74.0176
 21
23
  0
LINE
  8
0
 10
74.0176
 20
23
 11
60.9824
 21
23
  0
ENDSEC
  0
SECTION
  2
OBJECTS
  0
DICTIONARY
  0
ENDSEC
  0
EOF
