  0
SECTION
  2
BLOCKS
  0
ENDSEC
  0
SECTION
  2
ENTITIES
  0
LINE
  8
0
 10
100.95
 20
13.5
 11
102.526
 21
13.5
  0
LINE
  8
0
 10
102.526
 20
13.5
 11
102.578
 21
13.502
  0
LINE
  8
0
 10
102.578
 20
13.502
 11
102.657
 21
13.5078
  0
LINE
  8
0
 10
102.657
 20
13.5078
 11
102.683
 21
13.5107
  0
LINE
  8
0
 10
102.683
 20
13.5107
 11
102.709
 21
13.5146
  0
LINE
  8
0
 10
102.709
 20
13.5146
 11
102.734
 21
13.5186
  0
LINE
  8
0
 10
102.734
 20
13.5186
 11
102.761
 21
13.5225
  0
LINE
  8
0
 10
102.761
 20
13.5225
 11
102.786
 21
13.5273
  0
LINE
  8
0
 10
102.786
 20
13.5273
 11
102.812
 21
13.5332
  0
LINE
  8
0
 10
102.812
 20
13.5332
 11
102.838
 21
13.5381
  0
LINE
  8
0
 10
102.838
 20
13.5381
 11
102.863
 21
13.5449
  0
LINE
  8
0
 10
102.863
 20
13.5449
 11
102.889
 21
13.5508
  0
LINE
  8
0
 10
102.889
 20
13.5508
 11
102.913
 21
13.5586
  0
LINE
  8
0
 10
102.913
 20
13.5586
 11
102.938
 21
13.5654
  0
LINE
  8
0
 10
102.938
 20
13.5654
 11
102.964
 21
13.5732
  0
LINE
  8
0
 10
102.964
 20
13.5732
 11
103.037
 21
13.5996
  0
LINE
  8
0
 10
103.037
 20
13.5996
 11
103.086
 21
13.6191
  0
LINE
  8
0
 10
103.086
 20
13.6191
 11
103.11
 21
13.6299
  0
LINE
  8
0
 10
103.11
 20
13.6299
 11
103.157
 21
13.6514
  0
LINE
  8
0
 10
103.157
 20
13.6514
 11
103.181
 21
13.6631
  0
LINE
  8
0
 10
103.181
 20
13.6631
 11
103.228
 21
13.6885
  0
LINE
  8
0
 10
103.228
 20
13.6885
 11
103.272
 21
13.7139
  0
LINE
  8
0
 10
103.272
 20
13.7139
 11
103.295
 21
13.7275
  0
LINE
  8
0
 10
103.295
 20
13.7275
 11
103.317
 21
13.7422
  0
LINE
  8
0
 10
103.317
 20
13.7422
 11
103.382
 21
13.7861
  0
LINE
  8
0
 10
103.382
 20
13.7861
 11
103.402
 21
13.8018
  0
LINE
  8
0
 10
103.402
 20
13.8018
 11
103.424
 21
13.8184
  0
LINE
  8
0
 10
103.424
 20
13.8184
 11
103.444
 21
13.834
  0
LINE
  8
0
 10
103.444
 20
13.834
 11
103.464
 21
13.8506
  0
LINE
  8
0
 10
103.464
 20
13.8506
 11
103.484
 21
13.8682
  0
LINE
  8
0
 10
103.484
 20
13.8682
 11
103.523
 21
13.9033
  0
LINE
  8
0
 10
103.523
 20
13.9033
 11
103.542
 21
13.9209
  0
LINE
  8
0
 10
103.542
 20
13.9209
 11
103.579
 21
13.958
  0
LINE
  8
0
 10
103.579
 20
13.958
 11
103.597
 21
13.9766
  0
LINE
  8
0
 10
103.597
 20
13.9766
 11
103.632
 21
14.0156
  0
LINE
  8
0
 10
103.632
 20
14.0156
 11
103.649
 21
14.0361
  0
LINE
  8
0
 10
103.649
 20
14.0361
 11
103.666
 21
14.0557
  0
LINE
  8
0
 10
103.666
 20
14.0557
 11
103.682
 21
14.0762
  0
LINE
  8
0
 10
103.682
 20
14.0762
 11
103.698
 21
14.0977
  0
LINE
  8
0
 10
103.698
 20
14.0977
 11
103.714
 21
14.1182
  0
LINE
  8
0
 10
103.714
 20
14.1182
 11
103.758
 21
14.1826
  0
LINE
  8
0
 10
103.758
 20
14.1826
 11
103.772
 21
14.2051
  0
LINE
  8
0
 10
103.772
 20
14.2051
 11
103.786
 21
14.2275
  0
LINE
  8
0
 10
103.786
 20
14.2275
 11
103.812
 21
14.2725
  0
LINE
  8
0
 10
103.812
 20
14.2725
 11
103.837
 21
14.3193
  0
LINE
  8
0
 10
103.837
 20
14.3193
 11
103.849
 21
14.3428
  0
LINE
  8
0
 10
103.849
 20
14.3428
 11
103.87
 21
14.3896
  0
LINE
  8
0
 10
103.87
 20
14.3896
 11
103.881
 21
14.4141
  0
LINE
  8
0
 10
103.881
 20
14.4141
 11
103.9
 21
14.4629
  0
LINE
  8
0
 10
103.9
 20
14.4629
 11
103.927
 21
14.5361
  0
LINE
  8
0
 10
103.927
 20
14.5361
 11
103.935
 21
14.5615
  0
LINE
  8
0
 10
103.935
 20
14.5615
 11
103.941
 21
14.5869
  0
LINE
  8
0
 10
103.941
 20
14.5869
 11
103.949
 21
14.6113
  0
LINE
  8
0
 10
103.949
 20
14.6113
 11
103.955
 21
14.6367
  0
LINE
  8
0
 10
103.955
 20
14.6367
 11
103.962
 21
14.6621
  0
LINE
  8
0
 10
103.962
 20
14.6621
 11
103.967
 21
14.6885
  0
LINE
  8
0
 10
103.967
 20
14.6885
 11
103.973
 21
14.7139
  0
LINE
  8
0
 10
103.973
 20
14.7139
 11
103.978
 21
14.7393
  0
LINE
  8
0
 10
103.978
 20
14.7393
 11
103.981
 21
14.7656
  0
LINE
  8
0
 10
103.981
 20
14.7656
 11
103.985
 21
14.791
  0
LINE
  8
0
 10
103.985
 20
14.791
 11
103.989
 21
14.8174
  0
LINE
  8
0
 10
103.989
 20
14.8174
 11
103.992
 21
14.8428
  0
LINE
  8
0
 10
103.992
 20
14.8428
 11
103.998
 21
14.9219
  0
LINE
  8
0
 10
103.998
 20
14.9219
 11
104
 21
14.9736
  0
LINE
  8
0
 10
104
 20
14.9736
 11
104
 21
22.0264
  0
LINE
  8
0
 10
104
 20
22.0264
 11
103.998
 21
22.0781
  0
LINE
  8
0
 10
103.998
 20
22.0781
 11
103.992
 21
22.1572
  0
LINE
  8
0
 10
103.992
 20
22.1572
 11
103.989
 21
22.1826
  0
LINE
  8
0
 10
103.989
 20
22.1826
 11
103.985
 21
22.209
  0
LINE
  8
0
 10
103.985
 20
22.209
 11
103.981
 21
22.2344
  0
LINE
  8
0
 10
103.981
 20
22.2344
 11
103.978
 21
22.2607
  0
LINE
  8
0
 10
103.978
 20
22.2607
 11
103.973
 21
22.2861
  0
LINE
  8
0
 10
103.973
 20
22.2861
 11
103.967
 21
22.3115
  0
LINE
  8
0
 10
103.967
 20
22.3115
 11
103.962
 21
22.3379
  0
LINE
  8
0
 10
103.962
 20
22.3379
 11
103.955
 21
22.3633
  0
LINE
  8
0
 10
103.955
 20
22.3633
 11
103.949
 21
22.3887
  0
LINE
  8
0
 10
103.949
 20
22.3887
 11
103.941
 21
22.4131
  0
LINE
  8
0
 10
103.941
 20
22.4131
 11
103.935
 21
22.4385
  0
LINE
  8
0
 10
103.935
 20
22.4385
 11
103.927
 21
22.4639
  0
LINE
  8
0
 10
103.927
 20
22.4639
 11
103.9
 21
22.5371
  0
LINE
  8
0
 10
103.9
 20
22.5371
 11
103.881
 21
22.5859
  0
LINE
  8
0
 10
103.881
 20
22.5859
 11
103.87
 21
22.6104
  0
LINE
  8
0
 10
103.87
 20
22.6104
 11
103.849
 21
22.6572
  0
LINE
  8
0
 10
103.849
 20
22.6572
 11
103.837
 21
22.6807
  0
LINE
  8
0
 10
103.837
 20
22.6807
 11
103.812
 21
22.7275
  0
LINE
  8
0
 10
103.812
 20
22.7275
 11
103.786
 21
22.7725
  0
LINE
  8
0
 10
103.786
 20
22.7725
 11
103.772
 21
22.7949
  0
LINE
  8
0
 10
103.772
 20
22.7949
 11
103.758
 21
22.8174
  0
LINE
  8
0
 10
103.758
 20
22.8174
 11
103.714
 21
22.8818
  0
LINE
  8
0
 10
103.714
 20
22.8818
 11
103.698
 21
22.9023
  0
LINE
  8
0
 10
103.698
 20
22.9023
 11
103.682
 21
22.9238
  0
LINE
  8
0
 10
103.682
 20
22.9238
 11
103.666
 21
22.9443
  0
LINE
  8
0
 10
103.666
 20
22.9443
 11
103.649
 21
22.9639
  0
LINE
  8
0
 10
103.649
 20
22.9639
 11
103.632
 21
22.9844
  0
LINE
  8
0
 10
103.632
 20
22.9844
 11
103.597
 21
23.0234
  0
LINE
  8
0
 10
103.597
 20
23.0234
 11
103.579
 21
23.042
  0
LINE
  8
0
 10
103.579
 20
23.042
 11
103.542
 21
23.0791
  0
LINE
  8
0
 10
103.542
 20
23.0791
 11
103.523
 21
23.0967
  0
LINE
  8
0
 10
103.523
 20
23.0967
 11
103.484
 21
23.1318
  0
LINE
  8
0
 10
103.484
 20
23.1318
 11
103.464
 21
23.1494
  0
LINE
  8
0
 10
103.464
 20
23.1494
 11
103.444
 21
23.166
  0
LINE
  8
0
 10
103.444
 20
23.166
 11
103.424
 21
23.1816
  0
LINE
  8
0
 10
103.424
 20
23.1816
 11
103.402
 21
23.1982
  0
LINE
  8
0
 10
103.402
 20
23.1982
 11
103.382
 21
23.2139
  0
LINE
  8
0
 10
103.382
 20
23.2139
 11
103.317
 21
23.2578
  0
LINE
  8
0
 10
103.317
 20
23.2578
 11
103.295
 21
23.2725
  0
LINE
  8
0
 10
103.295
 20
23.2725
 11
103.272
 21
23.2861
  0
LINE
  8
0
 10
103.272
 20
23.2861
 11
103.228
 21
23.3115
  0
LINE
  8
0
 10
103.228
 20
23.3115
 11
103.181
 21
23.3369
  0
LINE
  8
0
 10
103.181
 20
23.3369
 11
103.157
 21
23.3486
  0
LINE
  8
0
 10
103.157
 20
23.3486
 11
103.11
 21
23.3701
  0
LINE
  8
0
 10
103.11
 20
23.3701
 11
103.086
 21
23.3809
  0
LINE
  8
0
 10
103.086
 20
23.3809
 11
103.037
 21
23.4004
  0
LINE
  8
0
 10
103.037
 20
23.4004
 11
102.964
 21
23.4268
  0
LINE
  8
0
 10
102.964
 20
23.4268
 11
102.938
 21
23.4346
  0
LINE
  8
0
 10
102.938
 20
23.4346
 11
102.913
 21
23.4414
  0
LINE
  8
0
 10
102.913
 20
23.4414
 11
102.889
 21
23.4492
  0
LINE
  8
0
 10
102.889
 20
23.4492
 11
102.863
 21
23.4551
  0
LINE
  8
0
 10
102.863
 20
23.4551
 11
102.838
 21
23.4619
  0
LINE
  8
0
 10
102.838
 20
23.4619
 11
102.812
 21
23.4668
  0
LINE
  8
0
 10
102.812
 20
23.4668
 11
102.786
 21
23.4727
  0
LINE
  8
0
 10
102.786
 20
23.4727
 11
102.761
 21
23.4775
  0
LINE
  8
0
 10
102.761
 20
23.4775
 11
102.734
 21
23.4814
  0
LINE
  8
0
 10
102.734
 20
23.4814
 11
102.709
 21
23.4854
  0
LINE
  8
0
 10
102.709
 20
23.4854
 11
102.683
 21
23.4893
  0
LINE
  8
0
 10
102.683
 20
23.4893
 11
102.657
 21
23.4922
  0
LINE
  8
0
 10
102.657
 20
23.4922
 11
102.578
 21
23.498
  0
LINE
  8
0
 10
102.578
 20
23.498
 11
102.526
 21
23.5
  0
LINE
  8
0
 10
102.526
 20
23.5
 11
100.95
 21
23.5
  0
LINE
  8
0
 10
100.95
 20
23.5
 11
100.95
 21
40
  0
LINE
  8
0
 10
100.95
 20
40
 11
0
 21
40
  0
LINE
  8
0
 10
0
 20
40
 11
0
 21
23.5
  0
LINE
  8
0
 10
0
 20
23.5
 11
-1.52637
 21
23.5
  0
LINE
  8
0
 10
-1.52637
 20
23.5
 11
-1.57812
 21
23.498
  0
LINE
  8
0
 10
-1.57812
 20
23.498
 11
-1.65723
 21
23.4922
  0
LINE
  8
0
 10
-1.65723
 20
23.4922
 11
-1.68262
 21
23.4893
  0
LINE
  8
0
 10
-1.68262
 20
23.4893
 11
-1.70898
 21
23.4854
  0
LINE
  8
0
 10
-1.70898
 20
23.4854
 11
-1.73438
 21
23.4814
  0
LINE
  8
0
 10
-1.73438
 20
23.4814
 11
-1.76074
 21
23.4775
  0
LINE
  8
0
 10
-1.76074
 20
23.4775
 11
-1.78613
 21
23.4727
  0
LINE
  8
0
 10
-1.78613
 20
23.4727
 11
-1.81152
 21
23.4668
  0
LINE
  8
0
 10
-1.81152
 20
23.4668
 11
-1.83789
 21
23.4619
  0
LINE
  8
0
 10
-1.83789
 20
23.4619
 11
-1.86328
 21
23.4551
  0
LINE
  8
0
 10
-1.86328
 20
23.4551
 11
-1.88867
 21
23.4492
  0
LINE
  8
0
 10
-1.88867
 20
23.4492
 11
-1.91309
 21
23.4414
  0
LINE
  8
0
 10
-1.91309
 20
23.4414
 11
-1.93848
 21
23.4346
  0
LINE
  8
0
 10
-1.93848
 20
23.4346
 11
-1.96387
 21
23.4268
  0
LINE
  8
0
 10
-1.96387
 20
23.4268
 11
-2.03711
 21
23.4004
  0
LINE
  8
0
 10
-2.03711
 20
23.4004
 11
-2.08594
 21
23.3809
  0
LINE
  8
0
 10
-2.08594
 20
23.3809
 11
-2.11035
 21
23.3701
  0
LINE
  8
0
 10
-2.11035
 20
23.3701
 11
-2.15723
 21
23.3486
  0
LINE
  8
0
 10
-2.15723
 20
23.3486
 11
-2.18066
 21
23.3369
  0
LINE
  8
0
 10
-2.18066
 20
23.3369
 11
-2.22754
 21
23.3115
  0
LINE
  8
0
 10
-2.22754
 20
23.3115
 11
-2.27246
 21
23.2861
  0
LINE
  8
0
 10
-2.27246
 20
23.2861
 11
-2.29492
 21
23.2725
  0
LINE
  8
0
 10
-2.29492
 20
23.2725
 11
-2.31738
 21
23.2578
  0
LINE
  8
0
 10
-2.31738
 20
23.2578
 11
-2.38184
 21
23.2139
  0
LINE
  8
0
 10
-2.38184
 20
23.2139
 11
-2.40234
 21
23.1982
  0
LINE
  8
0
 10
-2.40234
 20
23.1982
 11
-2.42383
 21
23.1816
  0
LINE
  8
0
 10
-2.42383
 20
23.1816
 11
-2.44434
 21
23.166
  0
LINE
  8
0
 10
-2.44434
 20
23.166
 11
-2.46387
 21
23.1494
  0
LINE
  8
0
 10
-2.46387
 20
23.1494
 11
-2.48438
 21
23.1318
  0
LINE
  8
0
 10
-2.48438
 20
23.1318
 11
-2.52344
 21
23.0967
  0
LINE
  8
0
 10
-2.52344
 20
23.0967
 11
-2.54199
 21
23.0791
  0
LINE
  8
0
 10
-2.54199
 20
23.0791
 11
-2.5791
 21
23.042
  0
LINE
  8
0
 10
-2.5791
 20
23.042
 11
-2.59668
 21
23.0234
  0
LINE
  8
0
 10
-2.59668
 20
23.0234
 11
-2.63184
 21
22.9844
  0
LINE
  8
0
 10
-2.63184
 20
22.9844
 11
-2.64941
 21
22.9639
  0
LINE
  8
0
 10
-2.64941
 20
22.9639
 11
-2.66602
 21
22.9443
  0
LINE
  8
0
 10
-2.66602
 20
22.9443
 11
-2.68164
 21
22.9238
  0
LINE
  8
0
 10
-2.68164
 20
22.9238
 11
-2.69824
 21
22.9023
  0
LINE
  8
0
 10
-2.69824
 20
22.9023
 11
-2.71387
 21
22.8818
  0
LINE
  8
0
 10
-2.71387
 20
22.8818
 11
-2.75781
 21
22.8174
  0
LINE
  8
0
 10
-2.75781
 20
22.8174
 11
-2.77246
 21
22.7949
  0
LINE
  8
0
 10
-2.77246
 20
22.7949
 11
-2.78613
 21
22.7725
  0
LINE
  8
0
 10
-2.78613
 20
22.7725
 11
-2.81152
 21
22.7275
  0
LINE
  8
0
 10
-2.81152
 20
22.7275
 11
-2.83691
 21
22.6807
  0
LINE
  8
0
 10
-2.83691
 20
22.6807
 11
-2.84863
 21
22.6572
  0
LINE
  8
0
 10
-2.84863
 20
22.6572
 11
-2.87012
 21
22.6104
  0
LINE
  8
0
 10
-2.87012
 20
22.6104
 11
-2.88086
 21
22.5859
  0
LINE
  8
0
 10
-2.88086
 20
22.5859
 11
-2.90039
 21
22.5371
  0
LINE
  8
0
 10
-2.90039
 20
22.5371
 11
-2.92676
 21
22.4639
  0
LINE
  8
0
 10
-2.92676
 20
22.4639
 11
-2.93457
 21
22.4385
  0
LINE
  8
0
 10
-2.93457
 20
22.4385
 11
-2.94141
 21
22.4131
  0
LINE
  8
0
 10
-2.94141
 20
22.4131
 11
-2.94922
 21
22.3887
  0
LINE
  8
0
 10
-2.94922
 20
22.3887
 11
-2.95508
 21
22.3633
  0
LINE
  8
0
 10
-2.95508
 20
22.3633
 11
-2.96191
 21
22.3379
  0
LINE
  8
0
 10
-2.96191
 20
22.3379
 11
-2.9668
 21
22.3115
  0
LINE
  8
0
 10
-2.9668
 20
22.3115
 11
-2.97266
 21
22.2861
  0
LINE
  8
0
 10
-2.97266
 20
22.2861
 11
-2.97754
 21
22.2607
  0
LINE
  8
0
 10
-2.97754
 20
22.2607
 11
-2.98145
 21
22.2344
  0
LINE
  8
0
 10
-2.98145
 20
22.2344
 11
-2.98535
 21
22.209
  0
LINE
  8
0
 10
-2.98535
 20
22.209
 11
-2.98926
 21
22.1826
  0
LINE
  8
0
 10
-2.98926
 20
22.1826
 11
-2.99219
 21
22.1572
  0
LINE
  8
0
 10
-2.99219
 20
22.1572
 11
-2.99805
 21
22.0781
  0
LINE
  8
0
 10
-2.99805
 20
22.0781
 11
-3
 21
22.0264
  0
LINE
  8
0
 10
-3
 20
22.0264
 11
-3
 21
14.9736
  0
LINE
  8
0
 10
-3
 20
14.9736
 11
-2.99805
 21
14.9219
  0
LINE
  8
0
 10
-2.99805
 20
14.9219
 11
-2.99219
 21
14.8428
  0
LINE
  8
0
 10
-2.99219
 20
14.8428
 11
-2.98926
 21
14.8174
  0
LINE
  8
0
 10
-2.98926
 20
14.8174
 11
-2.98535
 21
14.791
  0
LINE
  8
0
 10
-2.98535
 20
14.791
 11
-2.98145
 21
14.7656
  0
LINE
  8
0
 10
-2.98145
 20
14.7656
 11
-2.97754
 21
14.7393
  0
LINE
  8
0
 10
-2.97754
 20
14.7393
 11
-2.97266
 21
14.7139
  0
LINE
  8
0
 10
-2.97266
 20
14.7139
 11
-2.9668
 21
14.6885
  0
LINE
  8
0
 10
-2.9668
 20
14.6885
 11
-2.96191
 21
14.6621
  0
LINE
  8
0
 10
-2.96191
 20
14.6621
 11
-2.95508
 21
14.6367
  0
LINE
  8
0
 10
-2.95508
 20
14.6367
 11
-2.94922
 21
14.6113
  0
LINE
  8
0
 10
-2.94922
 20
14.6113
 11
-2.94141
 21
14.5869
  0
LINE
  8
0
 10
-2.94141
 20
14.5869
 11
-2.93457
 21
14.5615
  0
LINE
  8
0
 10
-2.93457
 20
14.5615
 11
-2.92676
 21
14.5361
  0
LINE
  8
0
 10
-2.92676
 20
14.5361
 11
-2.90039
 21
14.4629
  0
LINE
  8
0
 10
-2.90039
 20
14.4629
 11
-2.88086
 21
14.4141
  0
LINE
  8
0
 10
-2.88086
 20
14.4141
 11
-2.87012
 21
14.3896
  0
LINE
  8
0
 10
-2.87012
 20
14.3896
 11
-2.84863
 21
14.3428
  0
LINE
  8
0
 10
-2.84863
 20
14.3428
 11
-2.83691
 21
14.3193
  0
LINE
  8
0
 10
-2.83691
 20
14.3193
 11
-2.81152
 21
14.2725
  0
LINE
  8
0
 10
-2.81152
 20
14.2725
 11
-2.78613
 21
14.2275
  0
LINE
  8
0
 10
-2.78613
 20
14.2275
 11
-2.77246
 21
14.2051
  0
LINE
  8
0
 10
-2.77246
 20
14.2051
 11
-2.75781
 21
14.1826
  0
LINE
  8
0
 10
-2.75781
 20
14.1826
 11
-2.71387
 21
14.1182
  0
LINE
  8
0
 10
-2.71387
 20
14.1182
 11
-2.69824
 21
14.0977
  0
LINE
  8
0
 10
-2.69824
 20
14.0977
 11
-2.68164
 21
14.0762
  0
LINE
  8
0
 10
-2.68164
 20
14.0762
 11
-2.66602
 21
14.0557
  0
LINE
  8
0
 10
-2.66602
 20
14.0557
 11
-2.64941
 21
14.0361
  0
LINE
  8
0
 10
-2.64941
 20
14.0361
 11
-2.63184
 21
14.0156
  0
LINE
  8
0
 10
-2.63184
 20
14.0156
 11
-2.59668
 21
13.9766
  0
LINE
  8
0
 10
-2.59668
 20
13.9766
 11
-2.5791
 21
13.958
  0
LINE
  8
0
 10
-2.5791
 20
13.958
 11
-2.54199
 21
13.9209
  0
LINE
  8
0
 10
-2.54199
 20
13.9209
 11
-2.52344
 21
13.9033
  0
LINE
  8
0
 10
-2.52344
 20
13.9033
 11
-2.48438
 21
13.8682
  0
LINE
  8
0
 10
-2.48438
 20
13.8682
 11
-2.46387
 21
13.8506
  0
LINE
  8
0
 10
-2.46387
 20
13.8506
 11
-2.44434
 21
13.834
  0
LINE
  8
0
 10
-2.44434
 20
13.834
 11
-2.42383
 21
13.8184
  0
LINE
  8
0
 10
-2.42383
 20
13.8184
 11
-2.40234
 21
13.8018
  0
LINE
  8
0
 10
-2.40234
 20
13.8018
 11
-2.38184
 21
13.7861
  0
LINE
  8
0
 10
-2.38184
 20
13.7861
 11
-2.31738
 21
13.7422
  0
LINE
  8
0
 10
-2.31738
 20
13.7422
 11
-2.29492
 21
13.7275
  0
LINE
  8
0
 10
-2.29492
 20
13.7275
 11
-2.27246
 21
13.7139
  0
LINE
  8
0
 10
-2.27246
 20
13.7139
 11
-2.22754
 21
13.6885
  0
LINE
  8
0
 10
-2.22754
 20
13.6885
 11
-2.18066
 21
13.6631
  0
LINE
  8
0
 10
-2.18066
 20
13.6631
 11
-2.15723
 21
13.6514
  0
LINE
  8
0
 10
-2.15723
 20
13.6514
 11
-2.11035
 21
13.6299
  0
LINE
  8
0
 10
-2.11035
 20
13.6299
 11
-2.08594
 21
13.6191
  0
LINE
  8
0
 10
-2.08594
 20
13.6191
 11
-2.03711
 21
13.5996
  0
LINE
  8
0
 10
-2.03711
 20
13.5996
 11
-1.96387
 21
13.5732
  0
LINE
  8
0
 10
-1.96387
 20
13.5732
 11
-1.93848
 21
13.5654
  0
LINE
  8
0
 10
-1.93848
 20
13.5654
 11
-1.91309
 21
13.5586
  0
LINE
  8
0
 10
-1.91309
 20
13.5586
 11
-1.88867
 21
13.5508
  0
LINE
  8
0
 10
-1.88867
 20
13.5508
 11
-1.86328
 21
13.5449
  0
LINE
  8
0
 10
-1.86328
 20
13.5449
 11
-1.83789
 21
13.5381
  0
LINE
  8
0
 10
-1.83789
 20
13.5381
 11
-1.81152
 21
13.5332
  0
LINE
  8
0
 10
-1.81152
 20
13.5332
 11
-1.78613
 21
13.5273
  0
LINE
  8
0
 10
-1.78613
 20
13.5273
 11
-1.76074
 21
13.5225
  0
LINE
  8
0
 10
-1.76074
 20
13.5225
 11
-1.73438
 21
13.5186
  0
LINE
  8
0
 10
-1.73438
 20
13.5186
 11
-1.70898
 21
13.5146
  0
LINE
  8
0
 10
-1.70898
 20
13.5146
 11
-1.68262
 21
13.5107
  0
LINE
  8
0
 10
-1.68262
 20
13.5107
 11
-1.65723
 21
13.5078
  0
LINE
  8
0
 10
-1.65723
 20
13.5078
 11
-1.57812
 21
13.502
  0
LINE
  8
0
 10
-1.57812
 20
13.502
 11
-1.52637
 21
13.5
  0
LINE
  8
0
 10
-1.52637
 20
13.5
 11
0
 21
13.5
  0
LINE
  8
0
 10
0
 20
13.5
 11
0
 21
-4.5
  0
LINE
  8
0
 10
0
 20
-4.5
 11
100.95
 21
-4.5
  0
LINE
  8
0
 10
100.95
 20
-4.5
 11
100.95
 21
13.5
  0
ENDSEC
  0
SECTION
  2
OBJECTS
  0
DICTIONARY
  0
ENDSEC
  0
EOF
