  0
SECTION
  2
BLOCKS
  0
ENDSEC
  0
SECTION
  2
ENTITIES
  0
LINE
  8
0
 10
31.0693
 20
0.000976562
 11
31.1396
 21
0.00488281
  0
LINE
  8
0
 10
31.1396
 20
0.00488281
 11
31.1738
 21
0.0078125
  0
LINE
  8
0
 10
31.1738
 20
0.0078125
 11
31.209
 21
0.0107422
  0
LINE
  8
0
 10
31.209
 20
0.0107422
 11
31.2441
 21
0.0146484
  0
LINE
  8
0
 10
31.2441
 20
0.0146484
 11
31.3125
 21
0.0244141
  0
LINE
  8
0
 10
31.3125
 20
0.0244141
 11
31.3477
 21
0.0302734
  0
LINE
  8
0
 10
31.3477
 20
0.0302734
 11
31.4502
 21
0.0507812
  0
LINE
  8
0
 10
31.4502
 20
0.0507812
 11
31.4834
 21
0.0595703
  0
LINE
  8
0
 10
31.4834
 20
0.0595703
 11
31.5518
 21
0.0771484
  0
LINE
  8
0
 10
31.5518
 20
0.0771484
 11
31.585
 21
0.0869141
  0
LINE
  8
0
 10
31.585
 20
0.0869141
 11
31.6182
 21
0.0976562
  0
LINE
  8
0
 10
31.6182
 20
0.0976562
 11
31.6514
 21
0.109375
  0
LINE
  8
0
 10
31.6514
 20
0.109375
 11
31.6836
 21
0.121094
  0
LINE
  8
0
 10
31.6836
 20
0.121094
 11
31.7168
 21
0.132812
  0
LINE
  8
0
 10
31.7168
 20
0.132812
 11
31.749
 21
0.145508
  0
LINE
  8
0
 10
31.749
 20
0.145508
 11
31.8135
 21
0.172852
  0
LINE
  8
0
 10
31.8135
 20
0.172852
 11
31.8457
 21
0.1875
  0
LINE
  8
0
 10
31.8457
 20
0.1875
 11
31.877
 21
0.202148
  0
LINE
  8
0
 10
31.877
 20
0.202148
 11
31.9082
 21
0.217773
  0
LINE
  8
0
 10
31.9082
 20
0.217773
 11
31.9385
 21
0.234375
  0
LINE
  8
0
 10
31.9385
 20
0.234375
 11
31.9697
 21
0.250977
  0
LINE
  8
0
 10
31.9697
 20
0.250977
 11
32
 21
0.267578
  0
LINE
  8
0
 10
32
 20
0.267578
 11
32.0303
 21
0.286133
  0
LINE
  8
0
 10
32.0303
 20
0.286133
 11
32.0596
 21
0.303711
  0
LINE
  8
0
 10
32.0596
 20
0.303711
 11
32.0889
 21
0.322266
  0
LINE
  8
0
 10
32.0889
 20
0.322266
 11
32.1475
 21
0.361328
  0
LINE
  8
0
 10
32.1475
 20
0.361328
 11
32.2041
 21
0.402344
  0
LINE
  8
0
 10
32.2041
 20
0.402344
 11
32.2588
 21
0.445312
  0
LINE
  8
0
 10
32.2588
 20
0.445312
 11
32.2852
 21
0.467773
  0
LINE
  8
0
 10
32.2852
 20
0.467773
 11
32.3125
 21
0.490234
  0
LINE
  8
0
 10
32.3125
 20
0.490234
 11
32.3379
 21
0.513672
  0
LINE
  8
0
 10
32.3379
 20
0.513672
 11
32.3643
 21
0.537109
  0
LINE
  8
0
 10
32.3643
 20
0.537109
 11
32.3896
 21
0.561523
  0
LINE
  8
0
 10
32.3896
 20
0.561523
 11
32.4385
 21
0.610352
  0
LINE
  8
0
 10
32.4385
 20
0.610352
 11
32.4629
 21
0.635742
  0
LINE
  8
0
 10
32.4629
 20
0.635742
 11
32.4863
 21
0.662109
  0
LINE
  8
0
 10
32.4863
 20
0.662109
 11
32.5098
 21
0.6875
  0
LINE
  8
0
 10
32.5098
 20
0.6875
 11
32.5322
 21
0.714844
  0
LINE
  8
0
 10
32.5322
 20
0.714844
 11
32.5547
 21
0.741211
  0
LINE
  8
0
 10
32.5547
 20
0.741211
 11
32.5977
 21
0.795898
  0
LINE
  8
0
 10
32.5977
 20
0.795898
 11
32.6387
 21
0.852539
  0
LINE
  8
0
 10
32.6387
 20
0.852539
 11
32.6777
 21
0.911133
  0
LINE
  8
0
 10
32.6777
 20
0.911133
 11
32.6963
 21
0.94043
  0
LINE
  8
0
 10
32.6963
 20
0.94043
 11
32.7139
 21
0.969727
  0
LINE
  8
0
 10
32.7139
 20
0.969727
 11
32.7324
 21
1
  0
LINE
  8
0
 10
32.7324
 20
1
 11
32.749
 21
1.03027
  0
LINE
  8
0
 10
32.749
 20
1.03027
 11
32.7656
 21
1.06152
  0
LINE
  8
0
 10
32.7656
 20
1.06152
 11
32.7822
 21
1.0918
  0
LINE
  8
0
 10
32.7822
 20
1.0918
 11
32.7979
 21
1.12305
  0
LINE
  8
0
 10
32.7979
 20
1.12305
 11
32.8125
 21
1.1543
  0
LINE
  8
0
 10
32.8125
 20
1.1543
 11
32.8271
 21
1.18652
  0
LINE
  8
0
 10
32.8271
 20
1.18652
 11
32.8545
 21
1.25098
  0
LINE
  8
0
 10
32.8545
 20
1.25098
 11
32.8672
 21
1.2832
  0
LINE
  8
0
 10
32.8672
 20
1.2832
 11
32.8789
 21
1.31641
  0
LINE
  8
0
 10
32.8789
 20
1.31641
 11
32.8906
 21
1.34863
  0
LINE
  8
0
 10
32.8906
 20
1.34863
 11
32.9023
 21
1.38184
  0
LINE
  8
0
 10
32.9023
 20
1.38184
 11
32.9131
 21
1.41504
  0
LINE
  8
0
 10
32.9131
 20
1.41504
 11
32.9229
 21
1.44824
  0
LINE
  8
0
 10
32.9229
 20
1.44824
 11
32.9404
 21
1.5166
  0
LINE
  8
0
 10
32.9404
 20
1.5166
 11
32.9492
 21
1.5498
  0
LINE
  8
0
 10
32.9492
 20
1.5498
 11
32.9697
 21
1.65234
  0
LINE
  8
0
 10
32.9697
 20
1.65234
 11
32.9756
 21
1.6875
  0
LINE
  8
0
 10
32.9756
 20
1.6875
 11
32.9854
 21
1.75586
  0
LINE
  8
0
 10
32.9854
 20
1.75586
 11
32.9893
 21
1.79102
  0
LINE
  8
0
 10
32.9893
 20
1.79102
 11
32.9922
 21
1.82617
  0
LINE
  8
0
 10
32.9922
 20
1.82617
 11
32.9951
 21
1.86035
  0
LINE
  8
0
 10
32.9951
 20
1.86035
 11
32.999
 21
1.93066
  0
LINE
  8
0
 10
32.999
 20
1.93066
 11
33
 21
1.96484
  0
LINE
  8
0
 10
33
 20
1.96484
 11
33
 21
2.53516
  0
LINE
  8
0
 10
33
 20
2.53516
 11
33.001
 21
2.56934
  0
LINE
  8
0
 10
33.001
 20
2.56934
 11
33.0049
 21
2.63965
  0
LINE
  8
0
 10
33.0049
 20
2.63965
 11
33.0078
 21
2.67383
  0
LINE
  8
0
 10
33.0078
 20
2.67383
 11
33.0107
 21
2.70898
  0
LINE
  8
0
 10
33.0107
 20
2.70898
 11
33.0146
 21
2.74414
  0
LINE
  8
0
 10
33.0146
 20
2.74414
 11
33.0244
 21
2.8125
  0
LINE
  8
0
 10
33.0244
 20
2.8125
 11
33.0303
 21
2.84766
  0
LINE
  8
0
 10
33.0303
 20
2.84766
 11
33.0508
 21
2.9502
  0
LINE
  8
0
 10
33.0508
 20
2.9502
 11
33.0596
 21
2.9834
  0
LINE
  8
0
 10
33.0596
 20
2.9834
 11
33.0771
 21
3.05176
  0
LINE
  8
0
 10
33.0771
 20
3.05176
 11
33.0869
 21
3.08496
  0
LINE
  8
0
 10
33.0869
 20
3.08496
 11
33.0977
 21
3.11816
  0
LINE
  8
0
 10
33.0977
 20
3.11816
 11
33.1094
 21
3.15137
  0
LINE
  8
0
 10
33.1094
 20
3.15137
 11
33.1211
 21
3.18359
  0
LINE
  8
0
 10
33.1211
 20
3.18359
 11
33.1328
 21
3.2168
  0
LINE
  8
0
 10
33.1328
 20
3.2168
 11
33.1455
 21
3.24902
  0
LINE
  8
0
 10
33.1455
 20
3.24902
 11
33.1729
 21
3.31348
  0
LINE
  8
0
 10
33.1729
 20
3.31348
 11
33.1875
 21
3.3457
  0
LINE
  8
0
 10
33.1875
 20
3.3457
 11
33.2021
 21
3.37695
  0
LINE
  8
0
 10
33.2021
 20
3.37695
 11
33.2178
 21
3.4082
  0
LINE
  8
0
 10
33.2178
 20
3.4082
 11
33.2344
 21
3.43848
  0
LINE
  8
0
 10
33.2344
 20
3.43848
 11
33.251
 21
3.46973
  0
LINE
  8
0
 10
33.251
 20
3.46973
 11
33.2676
 21
3.5
  0
LINE
  8
0
 10
33.2676
 20
3.5
 11
33.2861
 21
3.53027
  0
LINE
  8
0
 10
33.2861
 20
3.53027
 11
33.3037
 21
3.55957
  0
LINE
  8
0
 10
33.3037
 20
3.55957
 11
33.3223
 21
3.58887
  0
LINE
  8
0
 10
33.3223
 20
3.58887
 11
33.3613
 21
3.64746
  0
LINE
  8
0
 10
33.3613
 20
3.64746
 11
33.4023
 21
3.7041
  0
LINE
  8
0
 10
33.4023
 20
3.7041
 11
33.4453
 21
3.75879
  0
LINE
  8
0
 10
33.4453
 20
3.75879
 11
33.4678
 21
3.78516
  0
LINE
  8
0
 10
33.4678
 20
3.78516
 11
33.4902
 21
3.8125
  0
LINE
  8
0
 10
33.4902
 20
3.8125
 11
33.5137
 21
3.83789
  0
LINE
  8
0
 10
33.5137
 20
3.83789
 11
33.5371
 21
3.86426
  0
LINE
  8
0
 10
33.5371
 20
3.86426
 11
33.5615
 21
3.88965
  0
LINE
  8
0
 10
33.5615
 20
3.88965
 11
33.6104
 21
3.93848
  0
LINE
  8
0
 10
33.6104
 20
3.93848
 11
33.6357
 21
3.96289
  0
LINE
  8
0
 10
33.6357
 20
3.96289
 11
33.6621
 21
3.98633
  0
LINE
  8
0
 10
33.6621
 20
3.98633
 11
33.6875
 21
4.00977
  0
LINE
  8
0
 10
33.6875
 20
4.00977
 11
33.7148
 21
4.03223
  0
LINE
  8
0
 10
33.7148
 20
4.03223
 11
33.7412
 21
4.05469
  0
LINE
  8
0
 10
33.7412
 20
4.05469
 11
33.7959
 21
4.09766
  0
LINE
  8
0
 10
33.7959
 20
4.09766
 11
33.8525
 21
4.13867
  0
LINE
  8
0
 10
33.8525
 20
4.13867
 11
33.9111
 21
4.17773
  0
LINE
  8
0
 10
33.9111
 20
4.17773
 11
33.9404
 21
4.19629
  0
LINE
  8
0
 10
33.9404
 20
4.19629
 11
33.9697
 21
4.21387
  0
LINE
  8
0
 10
33.9697
 20
4.21387
 11
34
 21
4.23242
  0
LINE
  8
0
 10
34
 20
4.23242
 11
34.0303
 21
4.24902
  0
LINE
  8
0
 10
34.0303
 20
4.24902
 11
34.0615
 21
4.26562
  0
LINE
  8
0
 10
34.0615
 20
4.26562
 11
34.0918
 21
4.28223
  0
LINE
  8
0
 10
34.0918
 20
4.28223
 11
34.123
 21
4.29785
  0
LINE
  8
0
 10
34.123
 20
4.29785
 11
34.1543
 21
4.3125
  0
LINE
  8
0
 10
34.1543
 20
4.3125
 11
34.1865
 21
4.32715
  0
LINE
  8
0
 10
34.1865
 20
4.32715
 11
34.251
 21
4.35449
  0
LINE
  8
0
 10
34.251
 20
4.35449
 11
34.2832
 21
4.36719
  0
LINE
  8
0
 10
34.2832
 20
4.36719
 11
34.3164
 21
4.37891
  0
LINE
  8
0
 10
34.3164
 20
4.37891
 11
34.3486
 21
4.39062
  0
LINE
  8
0
 10
34.3486
 20
4.39062
 11
34.3818
 21
4.40234
  0
LINE
  8
0
 10
34.3818
 20
4.40234
 11
34.415
 21
4.41309
  0
LINE
  8
0
 10
34.415
 20
4.41309
 11
34.4482
 21
4.42285
  0
LINE
  8
0
 10
34.4482
 20
4.42285
 11
34.5166
 21
4.44043
  0
LINE
  8
0
 10
34.5166
 20
4.44043
 11
34.5498
 21
4.44922
  0
LINE
  8
0
 10
34.5498
 20
4.44922
 11
34.6523
 21
4.46973
  0
LINE
  8
0
 10
34.6523
 20
4.46973
 11
34.6875
 21
4.47559
  0
LINE
  8
0
 10
34.6875
 20
4.47559
 11
34.7559
 21
4.48535
  0
LINE
  8
0
 10
34.7559
 20
4.48535
 11
34.791
 21
4.48926
  0
LINE
  8
0
 10
34.791
 20
4.48926
 11
34.8262
 21
4.49219
  0
LINE
  8
0
 10
34.8262
 20
4.49219
 11
34.8604
 21
4.49512
  0
LINE
  8
0
 10
34.8604
 20
4.49512
 11
34.9307
 21
4.49902
  0
LINE
  8
0
 10
34.9307
 20
4.49902
 11
34.9648
 21
4.5
  0
LINE
  8
0
 10
34.9648
 20
4.5
 11
80.9854
 21
4.5
  0
LINE
  8
0
 10
80.9854
 20
4.5
 11
81.0195
 21
4.49902
  0
LINE
  8
0
 10
81.0195
 20
4.49902
 11
81.0898
 21
4.49512
  0
LINE
  8
0
 10
81.0898
 20
4.49512
 11
81.124
 21
4.49219
  0
LINE
  8
0
 10
81.124
 20
4.49219
 11
81.1592
 21
4.48926
  0
LINE
  8
0
 10
81.1592
 20
4.48926
 11
81.1934
 21
4.48535
  0
LINE
  8
0
 10
81.1934
 20
4.48535
 11
81.2285
 21
4.48047
  0
LINE
  8
0
 10
81.2285
 20
4.48047
 11
81.2627
 21
4.47559
  0
LINE
  8
0
 10
81.2627
 20
4.47559
 11
81.2969
 21
4.46973
  0
LINE
  8
0
 10
81.2969
 20
4.46973
 11
81.332
 21
4.46289
  0
LINE
  8
0
 10
81.332
 20
4.46289
 11
81.3662
 21
4.45605
  0
LINE
  8
0
 10
81.3662
 20
4.45605
 11
81.3994
 21
4.44922
  0
LINE
  8
0
 10
81.3994
 20
4.44922
 11
81.4678
 21
4.43164
  0
LINE
  8
0
 10
81.4678
 20
4.43164
 11
81.501
 21
4.42285
  0
LINE
  8
0
 10
81.501
 20
4.42285
 11
81.5352
 21
4.41309
  0
LINE
  8
0
 10
81.5352
 20
4.41309
 11
81.5684
 21
4.40234
  0
LINE
  8
0
 10
81.5684
 20
4.40234
 11
81.6016
 21
4.39062
  0
LINE
  8
0
 10
81.6016
 20
4.39062
 11
81.6338
 21
4.37891
  0
LINE
  8
0
 10
81.6338
 20
4.37891
 11
81.667
 21
4.36719
  0
LINE
  8
0
 10
81.667
 20
4.36719
 11
81.6992
 21
4.35449
  0
LINE
  8
0
 10
81.6992
 20
4.35449
 11
81.7637
 21
4.32715
  0
LINE
  8
0
 10
81.7637
 20
4.32715
 11
81.7949
 21
4.3125
  0
LINE
  8
0
 10
81.7949
 20
4.3125
 11
81.8271
 21
4.29785
  0
LINE
  8
0
 10
81.8271
 20
4.29785
 11
81.8584
 21
4.28223
  0
LINE
  8
0
 10
81.8584
 20
4.28223
 11
81.8887
 21
4.26562
  0
LINE
  8
0
 10
81.8887
 20
4.26562
 11
81.9199
 21
4.24902
  0
LINE
  8
0
 10
81.9199
 20
4.24902
 11
81.9502
 21
4.23242
  0
LINE
  8
0
 10
81.9502
 20
4.23242
 11
81.9805
 21
4.21387
  0
LINE
  8
0
 10
81.9805
 20
4.21387
 11
82.0098
 21
4.19629
  0
LINE
  8
0
 10
82.0098
 20
4.19629
 11
82.0391
 21
4.17773
  0
LINE
  8
0
 10
82.0391
 20
4.17773
 11
82.0684
 21
4.1582
  0
LINE
  8
0
 10
82.0684
 20
4.1582
 11
82.0967
 21
4.13867
  0
LINE
  8
0
 10
82.0967
 20
4.13867
 11
82.126
 21
4.11816
  0
LINE
  8
0
 10
82.126
 20
4.11816
 11
82.1533
 21
4.09766
  0
LINE
  8
0
 10
82.1533
 20
4.09766
 11
82.1816
 21
4.07617
  0
LINE
  8
0
 10
82.1816
 20
4.07617
 11
82.209
 21
4.05469
  0
LINE
  8
0
 10
82.209
 20
4.05469
 11
82.2617
 21
4.00977
  0
LINE
  8
0
 10
82.2617
 20
4.00977
 11
82.3145
 21
3.96289
  0
LINE
  8
0
 10
82.3145
 20
3.96289
 11
82.3389
 21
3.93848
  0
LINE
  8
0
 10
82.3389
 20
3.93848
 11
82.3643
 21
3.91406
  0
LINE
  8
0
 10
82.3643
 20
3.91406
 11
82.3887
 21
3.88965
  0
LINE
  8
0
 10
82.3887
 20
3.88965
 11
82.4131
 21
3.86426
  0
LINE
  8
0
 10
82.4131
 20
3.86426
 11
82.4365
 21
3.83789
  0
LINE
  8
0
 10
82.4365
 20
3.83789
 11
82.459
 21
3.8125
  0
LINE
  8
0
 10
82.459
 20
3.8125
 11
82.4824
 21
3.78516
  0
LINE
  8
0
 10
82.4824
 20
3.78516
 11
82.5039
 21
3.75879
  0
LINE
  8
0
 10
82.5039
 20
3.75879
 11
82.5264
 21
3.73145
  0
LINE
  8
0
 10
82.5264
 20
3.73145
 11
82.5469
 21
3.7041
  0
LINE
  8
0
 10
82.5469
 20
3.7041
 11
82.5684
 21
3.67578
  0
LINE
  8
0
 10
82.5684
 20
3.67578
 11
82.5879
 21
3.64746
  0
LINE
  8
0
 10
82.5879
 20
3.64746
 11
82.6084
 21
3.61816
  0
LINE
  8
0
 10
82.6084
 20
3.61816
 11
82.627
 21
3.58887
  0
LINE
  8
0
 10
82.627
 20
3.58887
 11
82.6465
 21
3.55957
  0
LINE
  8
0
 10
82.6465
 20
3.55957
 11
82.6641
 21
3.53027
  0
LINE
  8
0
 10
82.6641
 20
3.53027
 11
82.6992
 21
3.46973
  0
LINE
  8
0
 10
82.6992
 20
3.46973
 11
82.7158
 21
3.43848
  0
LINE
  8
0
 10
82.7158
 20
3.43848
 11
82.7324
 21
3.4082
  0
LINE
  8
0
 10
82.7324
 20
3.4082
 11
82.748
 21
3.37695
  0
LINE
  8
0
 10
82.748
 20
3.37695
 11
82.7627
 21
3.3457
  0
LINE
  8
0
 10
82.7627
 20
3.3457
 11
82.7773
 21
3.31348
  0
LINE
  8
0
 10
82.7773
 20
3.31348
 11
82.8047
 21
3.24902
  0
LINE
  8
0
 10
82.8047
 20
3.24902
 11
82.8174
 21
3.2168
  0
LINE
  8
0
 10
82.8174
 20
3.2168
 11
82.8291
 21
3.18359
  0
LINE
  8
0
 10
82.8291
 20
3.18359
 11
82.8408
 21
3.15137
  0
LINE
  8
0
 10
82.8408
 20
3.15137
 11
82.8525
 21
3.11816
  0
LINE
  8
0
 10
82.8525
 20
3.11816
 11
82.8721
 21
3.05176
  0
LINE
  8
0
 10
82.8721
 20
3.05176
 11
82.8818
 21
3.01758
  0
LINE
  8
0
 10
82.8818
 20
3.01758
 11
82.8906
 21
2.9834
  0
LINE
  8
0
 10
82.8906
 20
2.9834
 11
82.8984
 21
2.9502
  0
LINE
  8
0
 10
82.8984
 20
2.9502
 11
82.9062
 21
2.91602
  0
LINE
  8
0
 10
82.9062
 20
2.91602
 11
82.9199
 21
2.84766
  0
LINE
  8
0
 10
82.9199
 20
2.84766
 11
82.9258
 21
2.8125
  0
LINE
  8
0
 10
82.9258
 20
2.8125
 11
82.9355
 21
2.74414
  0
LINE
  8
0
 10
82.9355
 20
2.74414
 11
82.9395
 21
2.70898
  0
LINE
  8
0
 10
82.9395
 20
2.70898
 11
82.9424
 21
2.67383
  0
LINE
  8
0
 10
82.9424
 20
2.67383
 11
82.9453
 21
2.63965
  0
LINE
  8
0
 10
82.9453
 20
2.63965
 11
82.9492
 21
2.56934
  0
LINE
  8
0
 10
82.9492
 20
2.56934
 11
82.9492
 21
2.53516
  0
LINE
  8
0
 10
82.9492
 20
2.53516
 11
82.9502
 21
2.5
  0
LINE
  8
0
 10
82.9502
 20
2.5
 11
82.9502
 21
1.96484
  0
LINE
  8
0
 10
82.9502
 20
1.96484
 11
82.9512
 21
1.93066
  0
LINE
  8
0
 10
82.9512
 20
1.93066
 11
82.9551
 21
1.86035
  0
LINE
  8
0
 10
82.9551
 20
1.86035
 11
82.958
 21
1.82617
  0
LINE
  8
0
 10
82.958
 20
1.82617
 11
82.9609
 21
1.79102
  0
LINE
  8
0
 10
82.9609
 20
1.79102
 11
82.9648
 21
1.75586
  0
LINE
  8
0
 10
82.9648
 20
1.75586
 11
82.9746
 21
1.6875
  0
LINE
  8
0
 10
82.9746
 20
1.6875
 11
82.9805
 21
1.65234
  0
LINE
  8
0
 10
82.9805
 20
1.65234
 11
82.9863
 21
1.61816
  0
LINE
  8
0
 10
82.9863
 20
1.61816
 11
82.9941
 21
1.58398
  0
LINE
  8
0
 10
82.9941
 20
1.58398
 11
83.001
 21
1.5498
  0
LINE
  8
0
 10
83.001
 20
1.5498
 11
83.0098
 21
1.5166
  0
LINE
  8
0
 10
83.0098
 20
1.5166
 11
83.0273
 21
1.44824
  0
LINE
  8
0
 10
83.0273
 20
1.44824
 11
83.0371
 21
1.41504
  0
LINE
  8
0
 10
83.0371
 20
1.41504
 11
83.0586
 21
1.34863
  0
LINE
  8
0
 10
83.0586
 20
1.34863
 11
83.0703
 21
1.31641
  0
LINE
  8
0
 10
83.0703
 20
1.31641
 11
83.083
 21
1.2832
  0
LINE
  8
0
 10
83.083
 20
1.2832
 11
83.0957
 21
1.25098
  0
LINE
  8
0
 10
83.0957
 20
1.25098
 11
83.123
 21
1.18652
  0
LINE
  8
0
 10
83.123
 20
1.18652
 11
83.1377
 21
1.1543
  0
LINE
  8
0
 10
83.1377
 20
1.1543
 11
83.1523
 21
1.12305
  0
LINE
  8
0
 10
83.1523
 20
1.12305
 11
83.168
 21
1.0918
  0
LINE
  8
0
 10
83.168
 20
1.0918
 11
83.1846
 21
1.06152
  0
LINE
  8
0
 10
83.1846
 20
1.06152
 11
83.2012
 21
1.03027
  0
LINE
  8
0
 10
83.2012
 20
1.03027
 11
83.2178
 21
1
  0
LINE
  8
0
 10
83.2178
 20
1
 11
83.2354
 21
0.969727
  0
LINE
  8
0
 10
83.2354
 20
0.969727
 11
83.2725
 21
0.911133
  0
LINE
  8
0
 10
83.2725
 20
0.911133
 11
83.3115
 21
0.852539
  0
LINE
  8
0
 10
83.3115
 20
0.852539
 11
83.3525
 21
0.795898
  0
LINE
  8
0
 10
83.3525
 20
0.795898
 11
83.3955
 21
0.741211
  0
LINE
  8
0
 10
83.3955
 20
0.741211
 11
83.418
 21
0.714844
  0
LINE
  8
0
 10
83.418
 20
0.714844
 11
83.4404
 21
0.6875
  0
LINE
  8
0
 10
83.4404
 20
0.6875
 11
83.4639
 21
0.662109
  0
LINE
  8
0
 10
83.4639
 20
0.662109
 11
83.4873
 21
0.635742
  0
LINE
  8
0
 10
83.4873
 20
0.635742
 11
83.5117
 21
0.610352
  0
LINE
  8
0
 10
83.5117
 20
0.610352
 11
83.5605
 21
0.561523
  0
LINE
  8
0
 10
83.5605
 20
0.561523
 11
83.5859
 21
0.537109
  0
LINE
  8
0
 10
83.5859
 20
0.537109
 11
83.6113
 21
0.513672
  0
LINE
  8
0
 10
83.6113
 20
0.513672
 11
83.6377
 21
0.490234
  0
LINE
  8
0
 10
83.6377
 20
0.490234
 11
83.6641
 21
0.467773
  0
LINE
  8
0
 10
83.6641
 20
0.467773
 11
83.6914
 21
0.445312
  0
LINE
  8
0
 10
83.6914
 20
0.445312
 11
83.7461
 21
0.402344
  0
LINE
  8
0
 10
83.7461
 20
0.402344
 11
83.8027
 21
0.361328
  0
LINE
  8
0
 10
83.8027
 20
0.361328
 11
83.832
 21
0.341797
  0
LINE
  8
0
 10
83.832
 20
0.341797
 11
83.8604
 21
0.322266
  0
LINE
  8
0
 10
83.8604
 20
0.322266
 11
83.8906
 21
0.303711
  0
LINE
  8
0
 10
83.8906
 20
0.303711
 11
83.9199
 21
0.286133
  0
LINE
  8
0
 10
83.9199
 20
0.286133
 11
83.9502
 21
0.267578
  0
LINE
  8
0
 10
83.9502
 20
0.267578
 11
84.0107
 21
0.234375
  0
LINE
  8
0
 10
84.0107
 20
0.234375
 11
84.042
 21
0.217773
  0
LINE
  8
0
 10
84.042
 20
0.217773
 11
84.0732
 21
0.202148
  0
LINE
  8
0
 10
84.0732
 20
0.202148
 11
84.1045
 21
0.1875
  0
LINE
  8
0
 10
84.1045
 20
0.1875
 11
84.1367
 21
0.172852
  0
LINE
  8
0
 10
84.1367
 20
0.172852
 11
84.2012
 21
0.145508
  0
LINE
  8
0
 10
84.2012
 20
0.145508
 11
84.2334
 21
0.132812
  0
LINE
  8
0
 10
84.2334
 20
0.132812
 11
84.2656
 21
0.121094
  0
LINE
  8
0
 10
84.2656
 20
0.121094
 11
84.332
 21
0.0976562
  0
LINE
  8
0
 10
84.332
 20
0.0976562
 11
84.3652
 21
0.0869141
  0
LINE
  8
0
 10
84.3652
 20
0.0869141
 11
84.3984
 21
0.0771484
  0
LINE
  8
0
 10
84.3984
 20
0.0771484
 11
84.4326
 21
0.0683594
  0
LINE
  8
0
 10
84.4326
 20
0.0683594
 11
84.4658
 21
0.0595703
  0
LINE
  8
0
 10
84.4658
 20
0.0595703
 11
84.5
 21
0.0507812
  0
LINE
  8
0
 10
84.5
 20
0.0507812
 11
84.6025
 21
0.0302734
  0
LINE
  8
0
 10
84.6025
 20
0.0302734
 11
84.6367
 21
0.0244141
  0
LINE
  8
0
 10
84.6367
 20
0.0244141
 11
84.6719
 21
0.0195312
  0
LINE
  8
0
 10
84.6719
 20
0.0195312
 11
84.7061
 21
0.0146484
  0
LINE
  8
0
 10
84.7061
 20
0.0146484
 11
84.7412
 21
0.0107422
  0
LINE
  8
0
 10
84.7412
 20
0.0107422
 11
84.7754
 21
0.0078125
  0
LINE
  8
0
 10
84.7754
 20
0.0078125
 11
84.8105
 21
0.00488281
  0
LINE
  8
0
 10
84.8105
 20
0.00488281
 11
84.8457
 21
0.00292969
  0
LINE
  8
0
 10
84.8457
 20
0.00292969
 11
84.8799
 21
0.000976562
  0
LINE
  8
0
 10
84.8799
 20
0.000976562
 11
84.915
 21
0
  0
LINE
  8
0
 10
84.915
 20
0
 11
99.9678
 21
0
  0
LINE
  8
0
 10
99.9678
 20
0
 11
99.9854
 21
0.000976562
  0
LINE
  8
0
 10
99.9854
 20
0.000976562
 11
100.002
 21
0.000976562
  0
LINE
  8
0
 10
100.002
 20
0.000976562
 11
100.02
 21
0.00195312
  0
LINE
  8
0
 10
100.02
 20
0.00195312
 11
100.072
 21
0.0078125
  0
LINE
  8
0
 10
100.072
 20
0.0078125
 11
100.089
 21
0.00976562
  0
LINE
  8
0
 10
100.089
 20
0.00976562
 11
100.124
 21
0.015625
  0
LINE
  8
0
 10
100.124
 20
0.015625
 11
100.141
 21
0.0185547
  0
LINE
  8
0
 10
100.141
 20
0.0185547
 11
100.158
 21
0.0214844
  0
LINE
  8
0
 10
100.158
 20
0.0214844
 11
100.175
 21
0.0253906
  0
LINE
  8
0
 10
100.175
 20
0.0253906
 11
100.192
 21
0.0292969
  0
LINE
  8
0
 10
100.192
 20
0.0292969
 11
100.259
 21
0.0488281
  0
LINE
  8
0
 10
100.259
 20
0.0488281
 11
100.309
 21
0.0664062
  0
LINE
  8
0
 10
100.309
 20
0.0664062
 11
100.324
 21
0.0732422
  0
LINE
  8
0
 10
100.324
 20
0.0732422
 11
100.341
 21
0.0791016
  0
LINE
  8
0
 10
100.341
 20
0.0791016
 11
100.356
 21
0.0869141
  0
LINE
  8
0
 10
100.356
 20
0.0869141
 11
100.373
 21
0.09375
  0
LINE
  8
0
 10
100.373
 20
0.09375
 11
100.42
 21
0.117188
  0
LINE
  8
0
 10
100.42
 20
0.117188
 11
100.435
 21
0.125
  0
LINE
  8
0
 10
100.435
 20
0.125
 11
100.45
 21
0.133789
  0
LINE
  8
0
 10
100.45
 20
0.133789
 11
100.465
 21
0.142578
  0
LINE
  8
0
 10
100.465
 20
0.142578
 11
100.479
 21
0.152344
  0
LINE
  8
0
 10
100.479
 20
0.152344
 11
100.495
 21
0.161133
  0
LINE
  8
0
 10
100.495
 20
0.161133
 11
100.509
 21
0.170898
  0
LINE
  8
0
 10
100.509
 20
0.170898
 11
100.523
 21
0.180664
  0
LINE
  8
0
 10
100.523
 20
0.180664
 11
100.538
 21
0.191406
  0
LINE
  8
0
 10
100.538
 20
0.191406
 11
100.552
 21
0.201172
  0
LINE
  8
0
 10
100.552
 20
0.201172
 11
100.579
 21
0.222656
  0
LINE
  8
0
 10
100.579
 20
0.222656
 11
100.593
 21
0.234375
  0
LINE
  8
0
 10
100.593
 20
0.234375
 11
100.606
 21
0.245117
  0
LINE
  8
0
 10
100.606
 20
0.245117
 11
100.645
 21
0.280273
  0
LINE
  8
0
 10
100.645
 20
0.280273
 11
100.657
 21
0.292969
  0
LINE
  8
0
 10
100.657
 20
0.292969
 11
100.669
 21
0.305664
  0
LINE
  8
0
 10
100.669
 20
0.305664
 11
100.682
 21
0.318359
  0
LINE
  8
0
 10
100.682
 20
0.318359
 11
100.705
 21
0.34375
  0
LINE
  8
0
 10
100.705
 20
0.34375
 11
100.716
 21
0.357422
  0
LINE
  8
0
 10
100.716
 20
0.357422
 11
100.728
 21
0.371094
  0
LINE
  8
0
 10
100.728
 20
0.371094
 11
100.749
 21
0.398438
  0
LINE
  8
0
 10
100.749
 20
0.398438
 11
100.759
 21
0.412109
  0
LINE
  8
0
 10
100.759
 20
0.412109
 11
100.77
 21
0.426758
  0
LINE
  8
0
 10
100.77
 20
0.426758
 11
100.779
 21
0.44043
  0
LINE
  8
0
 10
100.779
 20
0.44043
 11
100.789
 21
0.455078
  0
LINE
  8
0
 10
100.789
 20
0.455078
 11
100.798
 21
0.469727
  0
LINE
  8
0
 10
100.798
 20
0.469727
 11
100.808
 21
0.485352
  0
LINE
  8
0
 10
100.808
 20
0.485352
 11
100.816
 21
0.5
  0
LINE
  8
0
 10
100.816
 20
0.5
 11
100.824
 21
0.515625
  0
LINE
  8
0
 10
100.824
 20
0.515625
 11
100.833
 21
0.530273
  0
LINE
  8
0
 10
100.833
 20
0.530273
 11
100.856
 21
0.577148
  0
LINE
  8
0
 10
100.856
 20
0.577148
 11
100.863
 21
0.59375
  0
LINE
  8
0
 10
100.863
 20
0.59375
 11
100.877
 21
0.625
  0
LINE
  8
0
 10
100.877
 20
0.625
 11
100.884
 21
0.641602
  0
LINE
  8
0
 10
100.884
 20
0.641602
 11
100.901
 21
0.691406
  0
LINE
  8
0
 10
100.901
 20
0.691406
 11
100.916
 21
0.741211
  0
LINE
  8
0
 10
100.916
 20
0.741211
 11
100.92
 21
0.757812
  0
LINE
  8
0
 10
100.92
 20
0.757812
 11
100.925
 21
0.775391
  0
LINE
  8
0
 10
100.925
 20
0.775391
 11
100.928
 21
0.791992
  0
LINE
  8
0
 10
100.928
 20
0.791992
 11
100.932
 21
0.80957
  0
LINE
  8
0
 10
100.932
 20
0.80957
 11
100.935
 21
0.826172
  0
LINE
  8
0
 10
100.935
 20
0.826172
 11
100.938
 21
0.84375
  0
LINE
  8
0
 10
100.938
 20
0.84375
 11
100.94
 21
0.860352
  0
LINE
  8
0
 10
100.94
 20
0.860352
 11
100.946
 21
0.913086
  0
LINE
  8
0
 10
100.946
 20
0.913086
 11
100.947
 21
0.930664
  0
LINE
  8
0
 10
100.947
 20
0.930664
 11
100.948
 21
0.947266
  0
LINE
  8
0
 10
100.948
 20
0.947266
 11
100.95
 21
0.982422
  0
LINE
  8
0
 10
100.95
 20
0.982422
 11
100.95
 21
3.96777
  0
LINE
  8
0
 10
100.95
 20
3.96777
 11
100.949
 21
3.98535
  0
LINE
  8
0
 10
100.949
 20
3.98535
 11
100.948
 21
4.00195
  0
LINE
  8
0
 10
100.948
 20
4.00195
 11
100.946
 21
4.03711
  0
LINE
  8
0
 10
100.946
 20
4.03711
 11
100.942
 21
4.07227
  0
LINE
  8
0
 10
100.942
 20
4.07227
 11
100.94
 21
4.08887
  0
LINE
  8
0
 10
100.94
 20
4.08887
 11
100.935
 21
4.12402
  0
LINE
  8
0
 10
100.935
 20
4.12402
 11
100.932
 21
4.14062
  0
LINE
  8
0
 10
100.932
 20
4.14062
 11
100.928
 21
4.1582
  0
LINE
  8
0
 10
100.928
 20
4.1582
 11
100.925
 21
4.1748
  0
LINE
  8
0
 10
100.925
 20
4.1748
 11
100.92
 21
4.19238
  0
LINE
  8
0
 10
100.92
 20
4.19238
 11
100.916
 21
4.20898
  0
LINE
  8
0
 10
100.916
 20
4.20898
 11
100.901
 21
4.25879
  0
LINE
  8
0
 10
100.901
 20
4.25879
 11
100.884
 21
4.30859
  0
LINE
  8
0
 10
100.884
 20
4.30859
 11
100.877
 21
4.32422
  0
LINE
  8
0
 10
100.877
 20
4.32422
 11
100.87
 21
4.34082
  0
LINE
  8
0
 10
100.87
 20
4.34082
 11
100.863
 21
4.35645
  0
LINE
  8
0
 10
100.863
 20
4.35645
 11
100.856
 21
4.37305
  0
LINE
  8
0
 10
100.856
 20
4.37305
 11
100.833
 21
4.41992
  0
LINE
  8
0
 10
100.833
 20
4.41992
 11
100.824
 21
4.43457
  0
LINE
  8
0
 10
100.824
 20
4.43457
 11
100.816
 21
4.4502
  0
LINE
  8
0
 10
100.816
 20
4.4502
 11
100.808
 21
4.46484
  0
LINE
  8
0
 10
100.808
 20
4.46484
 11
100.798
 21
4.47949
  0
LINE
  8
0
 10
100.798
 20
4.47949
 11
100.789
 21
4.49512
  0
LINE
  8
0
 10
100.789
 20
4.49512
 11
100.779
 21
4.50879
  0
LINE
  8
0
 10
100.779
 20
4.50879
 11
100.77
 21
4.52344
  0
LINE
  8
0
 10
100.77
 20
4.52344
 11
100.759
 21
4.53809
  0
LINE
  8
0
 10
100.759
 20
4.53809
 11
100.749
 21
4.55176
  0
LINE
  8
0
 10
100.749
 20
4.55176
 11
100.728
 21
4.5791
  0
LINE
  8
0
 10
100.728
 20
4.5791
 11
100.716
 21
4.59277
  0
LINE
  8
0
 10
100.716
 20
4.59277
 11
100.705
 21
4.60645
  0
LINE
  8
0
 10
100.705
 20
4.60645
 11
100.682
 21
4.63184
  0
LINE
  8
0
 10
100.682
 20
4.63184
 11
100.669
 21
4.64453
  0
LINE
  8
0
 10
100.669
 20
4.64453
 11
100.657
 21
4.65723
  0
LINE
  8
0
 10
100.657
 20
4.65723
 11
100.645
 21
4.66895
  0
LINE
  8
0
 10
100.645
 20
4.66895
 11
100.632
 21
4.68164
  0
LINE
  8
0
 10
100.632
 20
4.68164
 11
100.606
 21
4.70508
  0
LINE
  8
0
 10
100.606
 20
4.70508
 11
100.593
 21
4.71582
  0
LINE
  8
0
 10
100.593
 20
4.71582
 11
100.579
 21
4.72754
  0
LINE
  8
0
 10
100.579
 20
4.72754
 11
100.552
 21
4.74902
  0
LINE
  8
0
 10
100.552
 20
4.74902
 11
100.538
 21
4.75879
  0
LINE
  8
0
 10
100.538
 20
4.75879
 11
100.523
 21
4.76953
  0
LINE
  8
0
 10
100.523
 20
4.76953
 11
100.509
 21
4.7793
  0
LINE
  8
0
 10
100.509
 20
4.7793
 11
100.495
 21
4.78906
  0
LINE
  8
0
 10
100.495
 20
4.78906
 11
100.479
 21
4.79785
  0
LINE
  8
0
 10
100.479
 20
4.79785
 11
100.465
 21
4.80762
  0
LINE
  8
0
 10
100.465
 20
4.80762
 11
100.45
 21
4.81641
  0
LINE
  8
0
 10
100.45
 20
4.81641
 11
100.435
 21
4.82422
  0
LINE
  8
0
 10
100.435
 20
4.82422
 11
100.42
 21
4.83301
  0
LINE
  8
0
 10
100.42
 20
4.83301
 11
100.373
 21
4.85645
  0
LINE
  8
0
 10
100.373
 20
4.85645
 11
100.356
 21
4.86328
  0
LINE
  8
0
 10
100.356
 20
4.86328
 11
100.341
 21
4.87012
  0
LINE
  8
0
 10
100.341
 20
4.87012
 11
100.324
 21
4.87695
  0
LINE
  8
0
 10
100.324
 20
4.87695
 11
100.309
 21
4.88379
  0
LINE
  8
0
 10
100.309
 20
4.88379
 11
100.259
 21
4.90137
  0
LINE
  8
0
 10
100.259
 20
4.90137
 11
100.209
 21
4.91602
  0
LINE
  8
0
 10
100.209
 20
4.91602
 11
100.192
 21
4.91992
  0
LINE
  8
0
 10
100.192
 20
4.91992
 11
100.175
 21
4.9248
  0
LINE
  8
0
 10
100.175
 20
4.9248
 11
100.158
 21
4.92773
  0
LINE
  8
0
 10
100.158
 20
4.92773
 11
100.141
 21
4.93164
  0
LINE
  8
0
 10
100.141
 20
4.93164
 11
100.124
 21
4.93457
  0
LINE
  8
0
 10
100.124
 20
4.93457
 11
100.089
 21
4.94043
  0
LINE
  8
0
 10
100.089
 20
4.94043
 11
100.072
 21
4.94238
  0
LINE
  8
0
 10
100.072
 20
4.94238
 11
100.037
 21
4.94629
  0
LINE
  8
0
 10
100.037
 20
4.94629
 11
100.002
 21
4.94824
  0
LINE
  8
0
 10
100.002
 20
4.94824
 11
99.9854
 21
4.94922
  0
LINE
  8
0
 10
99.9854
 20
4.94922
 11
99.9678
 21
4.9502
  0
LINE
  8
0
 10
99.9678
 20
4.9502
 11
88.915
 21
4.9502
  0
LINE
  8
0
 10
88.915
 20
4.9502
 11
88.8799
 21
4.95215
  0
LINE
  8
0
 10
88.8799
 20
4.95215
 11
88.8633
 21
4.9541
  0
LINE
  8
0
 10
88.8633
 20
4.9541
 11
88.8457
 21
4.95508
  0
LINE
  8
0
 10
88.8457
 20
4.95508
 11
88.8281
 21
4.95703
  0
LINE
  8
0
 10
88.8281
 20
4.95703
 11
88.8105
 21
4.95996
  0
LINE
  8
0
 10
88.8105
 20
4.95996
 11
88.7939
 21
4.96191
  0
LINE
  8
0
 10
88.7939
 20
4.96191
 11
88.7764
 21
4.96484
  0
LINE
  8
0
 10
88.7764
 20
4.96484
 11
88.7588
 21
4.96875
  0
LINE
  8
0
 10
88.7588
 20
4.96875
 11
88.7422
 21
4.97168
  0
LINE
  8
0
 10
88.7422
 20
4.97168
 11
88.7246
 21
4.97559
  0
LINE
  8
0
 10
88.7246
 20
4.97559
 11
88.708
 21
4.97949
  0
LINE
  8
0
 10
88.708
 20
4.97949
 11
88.6914
 21
4.98438
  0
LINE
  8
0
 10
88.6914
 20
4.98438
 11
88.6748
 21
4.98828
  0
LINE
  8
0
 10
88.6748
 20
4.98828
 11
88.6572
 21
4.99414
  0
LINE
  8
0
 10
88.6572
 20
4.99414
 11
88.6406
 21
4.99902
  0
LINE
  8
0
 10
88.6406
 20
4.99902
 11
88.624
 21
5.00488
  0
LINE
  8
0
 10
88.624
 20
5.00488
 11
88.6084
 21
5.01074
  0
LINE
  8
0
 10
88.6084
 20
5.01074
 11
88.5752
 21
5.02246
  0
LINE
  8
0
 10
88.5752
 20
5.02246
 11
88.5596
 21
5.0293
  0
LINE
  8
0
 10
88.5596
 20
5.0293
 11
88.543
 21
5.03613
  0
LINE
  8
0
 10
88.543
 20
5.03613
 11
88.5273
 21
5.04395
  0
LINE
  8
0
 10
88.5273
 20
5.04395
 11
88.5117
 21
5.05078
  0
LINE
  8
0
 10
88.5117
 20
5.05078
 11
88.4961
 21
5.05859
  0
LINE
  8
0
 10
88.4961
 20
5.05859
 11
88.4805
 21
5.06738
  0
LINE
  8
0
 10
88.4805
 20
5.06738
 11
88.4648
 21
5.0752
  0
LINE
  8
0
 10
88.4648
 20
5.0752
 11
88.4502
 21
5.08398
  0
LINE
  8
0
 10
88.4502
 20
5.08398
 11
88.4346
 21
5.09277
  0
LINE
  8
0
 10
88.4346
 20
5.09277
 11
88.4199
 21
5.10156
  0
LINE
  8
0
 10
88.4199
 20
5.10156
 11
88.376
 21
5.13086
  0
LINE
  8
0
 10
88.376
 20
5.13086
 11
88.3623
 21
5.14062
  0
LINE
  8
0
 10
88.3623
 20
5.14062
 11
88.3486
 21
5.15137
  0
LINE
  8
0
 10
88.3486
 20
5.15137
 11
88.334
 21
5.16211
  0
LINE
  8
0
 10
88.334
 20
5.16211
 11
88.3203
 21
5.17285
  0
LINE
  8
0
 10
88.3203
 20
5.17285
 11
88.3076
 21
5.18359
  0
LINE
  8
0
 10
88.3076
 20
5.18359
 11
88.2939
 21
5.19531
  0
LINE
  8
0
 10
88.2939
 20
5.19531
 11
88.2812
 21
5.20703
  0
LINE
  8
0
 10
88.2812
 20
5.20703
 11
88.2676
 21
5.21875
  0
LINE
  8
0
 10
88.2676
 20
5.21875
 11
88.2549
 21
5.23047
  0
LINE
  8
0
 10
88.2549
 20
5.23047
 11
88.2432
 21
5.24316
  0
LINE
  8
0
 10
88.2432
 20
5.24316
 11
88.2305
 21
5.25488
  0
LINE
  8
0
 10
88.2305
 20
5.25488
 11
88.2188
 21
5.26758
  0
LINE
  8
0
 10
88.2188
 20
5.26758
 11
88.207
 21
5.28125
  0
LINE
  8
0
 10
88.207
 20
5.28125
 11
88.1953
 21
5.29395
  0
LINE
  8
0
 10
88.1953
 20
5.29395
 11
88.1836
 21
5.30762
  0
LINE
  8
0
 10
88.1836
 20
5.30762
 11
88.1729
 21
5.32031
  0
LINE
  8
0
 10
88.1729
 20
5.32031
 11
88.1621
 21
5.33398
  0
LINE
  8
0
 10
88.1621
 20
5.33398
 11
88.1514
 21
5.34863
  0
LINE
  8
0
 10
88.1514
 20
5.34863
 11
88.1406
 21
5.3623
  0
LINE
  8
0
 10
88.1406
 20
5.3623
 11
88.1309
 21
5.37598
  0
LINE
  8
0
 10
88.1309
 20
5.37598
 11
88.1016
 21
5.41992
  0
LINE
  8
0
 10
88.1016
 20
5.41992
 11
88.0928
 21
5.43457
  0
LINE
  8
0
 10
88.0928
 20
5.43457
 11
88.084
 21
5.4502
  0
LINE
  8
0
 10
88.084
 20
5.4502
 11
88.0752
 21
5.46484
  0
LINE
  8
0
 10
88.0752
 20
5.46484
 11
88.0674
 21
5.48047
  0
LINE
  8
0
 10
88.0674
 20
5.48047
 11
88.0586
 21
5.49609
  0
LINE
  8
0
 10
88.0586
 20
5.49609
 11
88.0508
 21
5.51172
  0
LINE
  8
0
 10
88.0508
 20
5.51172
 11
88.0439
 21
5.52734
  0
LINE
  8
0
 10
88.0439
 20
5.52734
 11
88.0361
 21
5.54297
  0
LINE
  8
0
 10
88.0361
 20
5.54297
 11
88.0293
 21
5.55957
  0
LINE
  8
0
 10
88.0293
 20
5.55957
 11
88.0225
 21
5.5752
  0
LINE
  8
0
 10
88.0225
 20
5.5752
 11
88.0107
 21
5.6084
  0
LINE
  8
0
 10
88.0107
 20
5.6084
 11
88.0049
 21
5.62402
  0
LINE
  8
0
 10
88.0049
 20
5.62402
 11
87.999
 21
5.64062
  0
LINE
  8
0
 10
87.999
 20
5.64062
 11
87.9941
 21
5.65723
  0
LINE
  8
0
 10
87.9941
 20
5.65723
 11
87.9883
 21
5.6748
  0
LINE
  8
0
 10
87.9883
 20
5.6748
 11
87.9844
 21
5.69141
  0
LINE
  8
0
 10
87.9844
 20
5.69141
 11
87.9795
 21
5.70801
  0
LINE
  8
0
 10
87.9795
 20
5.70801
 11
87.9756
 21
5.72461
  0
LINE
  8
0
 10
87.9756
 20
5.72461
 11
87.9717
 21
5.74219
  0
LINE
  8
0
 10
87.9717
 20
5.74219
 11
87.9688
 21
5.75879
  0
LINE
  8
0
 10
87.9688
 20
5.75879
 11
87.9648
 21
5.77637
  0
LINE
  8
0
 10
87.9648
 20
5.77637
 11
87.9619
 21
5.79395
  0
LINE
  8
0
 10
87.9619
 20
5.79395
 11
87.96
 21
5.81055
  0
LINE
  8
0
 10
87.96
 20
5.81055
 11
87.957
 21
5.82812
  0
LINE
  8
0
 10
87.957
 20
5.82812
 11
87.9551
 21
5.8457
  0
LINE
  8
0
 10
87.9551
 20
5.8457
 11
87.9541
 21
5.86328
  0
LINE
  8
0
 10
87.9541
 20
5.86328
 11
87.9521
 21
5.87988
  0
LINE
  8
0
 10
87.9521
 20
5.87988
 11
87.9502
 21
5.91504
  0
LINE
  8
0
 10
87.9502
 20
5.91504
 11
87.9502
 21
7.68457
  0
LINE
  8
0
 10
87.9502
 20
7.68457
 11
87.9521
 21
7.71973
  0
LINE
  8
0
 10
87.9521
 20
7.71973
 11
87.9541
 21
7.7373
  0
LINE
  8
0
 10
87.9541
 20
7.7373
 11
87.9551
 21
7.75488
  0
LINE
  8
0
 10
87.9551
 20
7.75488
 11
87.957
 21
7.77148
  0
LINE
  8
0
 10
87.957
 20
7.77148
 11
87.96
 21
7.78906
  0
LINE
  8
0
 10
87.96
 20
7.78906
 11
87.9619
 21
7.80664
  0
LINE
  8
0
 10
87.9619
 20
7.80664
 11
87.9648
 21
7.82324
  0
LINE
  8
0
 10
87.9648
 20
7.82324
 11
87.9688
 21
7.84082
  0
LINE
  8
0
 10
87.9688
 20
7.84082
 11
87.9717
 21
7.8584
  0
LINE
  8
0
 10
87.9717
 20
7.8584
 11
87.9795
 21
7.8916
  0
LINE
  8
0
 10
87.9795
 20
7.8916
 11
87.9844
 21
7.90918
  0
LINE
  8
0
 10
87.9844
 20
7.90918
 11
87.9883
 21
7.92578
  0
LINE
  8
0
 10
87.9883
 20
7.92578
 11
87.9941
 21
7.94238
  0
LINE
  8
0
 10
87.9941
 20
7.94238
 11
87.999
 21
7.95898
  0
LINE
  8
0
 10
87.999
 20
7.95898
 11
88.0166
 21
8.00879
  0
LINE
  8
0
 10
88.0166
 20
8.00879
 11
88.0225
 21
8.02441
  0
LINE
  8
0
 10
88.0225
 20
8.02441
 11
88.0293
 21
8.04102
  0
LINE
  8
0
 10
88.0293
 20
8.04102
 11
88.0361
 21
8.05664
  0
LINE
  8
0
 10
88.0361
 20
8.05664
 11
88.0439
 21
8.07227
  0
LINE
  8
0
 10
88.0439
 20
8.07227
 11
88.0508
 21
8.08789
  0
LINE
  8
0
 10
88.0508
 20
8.08789
 11
88.0586
 21
8.10352
  0
LINE
  8
0
 10
88.0586
 20
8.10352
 11
88.0674
 21
8.11914
  0
LINE
  8
0
 10
88.0674
 20
8.11914
 11
88.0752
 21
8.13477
  0
LINE
  8
0
 10
88.0752
 20
8.13477
 11
88.084
 21
8.15039
  0
LINE
  8
0
 10
88.084
 20
8.15039
 11
88.1016
 21
8.17969
  0
LINE
  8
0
 10
88.1016
 20
8.17969
 11
88.1309
 21
8.22363
  0
LINE
  8
0
 10
88.1309
 20
8.22363
 11
88.1406
 21
8.2373
  0
LINE
  8
0
 10
88.1406
 20
8.2373
 11
88.1514
 21
8.25195
  0
LINE
  8
0
 10
88.1514
 20
8.25195
 11
88.1836
 21
8.29297
  0
LINE
  8
0
 10
88.1836
 20
8.29297
 11
88.1953
 21
8.30566
  0
LINE
  8
0
 10
88.1953
 20
8.30566
 11
88.207
 21
8.31934
  0
LINE
  8
0
 10
88.207
 20
8.31934
 11
88.2305
 21
8.34473
  0
LINE
  8
0
 10
88.2305
 20
8.34473
 11
88.2676
 21
8.38184
  0
LINE
  8
0
 10
88.2676
 20
8.38184
 11
88.2812
 21
8.39355
  0
LINE
  8
0
 10
88.2812
 20
8.39355
 11
88.2939
 21
8.4043
  0
LINE
  8
0
 10
88.2939
 20
8.4043
 11
88.3076
 21
8.41602
  0
LINE
  8
0
 10
88.3076
 20
8.41602
 11
88.3203
 21
8.42676
  0
LINE
  8
0
 10
88.3203
 20
8.42676
 11
88.334
 21
8.43848
  0
LINE
  8
0
 10
88.334
 20
8.43848
 11
88.3486
 21
8.44824
  0
LINE
  8
0
 10
88.3486
 20
8.44824
 11
88.3623
 21
8.45898
  0
LINE
  8
0
 10
88.3623
 20
8.45898
 11
88.376
 21
8.46875
  0
LINE
  8
0
 10
88.376
 20
8.46875
 11
88.3906
 21
8.47949
  0
LINE
  8
0
 10
88.3906
 20
8.47949
 11
88.4053
 21
8.48828
  0
LINE
  8
0
 10
88.4053
 20
8.48828
 11
88.4199
 21
8.49805
  0
LINE
  8
0
 10
88.4199
 20
8.49805
 11
88.4346
 21
8.50684
  0
LINE
  8
0
 10
88.4346
 20
8.50684
 11
88.4502
 21
8.51562
  0
LINE
  8
0
 10
88.4502
 20
8.51562
 11
88.4648
 21
8.52441
  0
LINE
  8
0
 10
88.4648
 20
8.52441
 11
88.4805
 21
8.5332
  0
LINE
  8
0
 10
88.4805
 20
8.5332
 11
88.5273
 21
8.55664
  0
LINE
  8
0
 10
88.5273
 20
8.55664
 11
88.543
 21
8.56348
  0
LINE
  8
0
 10
88.543
 20
8.56348
 11
88.5596
 21
8.57031
  0
LINE
  8
0
 10
88.5596
 20
8.57031
 11
88.5752
 21
8.57715
  0
LINE
  8
0
 10
88.5752
 20
8.57715
 11
88.5918
 21
8.58398
  0
LINE
  8
0
 10
88.5918
 20
8.58398
 11
88.6084
 21
8.58984
  0
LINE
  8
0
 10
88.6084
 20
8.58984
 11
88.624
 21
8.5957
  0
LINE
  8
0
 10
88.624
 20
8.5957
 11
88.6406
 21
8.60059
  0
LINE
  8
0
 10
88.6406
 20
8.60059
 11
88.6572
 21
8.60645
  0
LINE
  8
0
 10
88.6572
 20
8.60645
 11
88.6748
 21
8.61133
  0
LINE
  8
0
 10
88.6748
 20
8.61133
 11
88.6914
 21
8.61621
  0
LINE
  8
0
 10
88.6914
 20
8.61621
 11
88.7246
 21
8.62402
  0
LINE
  8
0
 10
88.7246
 20
8.62402
 11
88.7422
 21
8.62793
  0
LINE
  8
0
 10
88.7422
 20
8.62793
 11
88.7588
 21
8.63184
  0
LINE
  8
0
 10
88.7588
 20
8.63184
 11
88.7939
 21
8.6377
  0
LINE
  8
0
 10
88.7939
 20
8.6377
 11
88.8105
 21
8.64062
  0
LINE
  8
0
 10
88.8105
 20
8.64062
 11
88.8633
 21
8.64648
  0
LINE
  8
0
 10
88.8633
 20
8.64648
 11
88.8799
 21
8.64746
  0
LINE
  8
0
 10
88.8799
 20
8.64746
 11
88.915
 21
8.64941
  0
LINE
  8
0
 10
88.915
 20
8.64941
 11
88.9326
 21
8.64941
  0
LINE
  8
0
 10
88.9326
 20
8.64941
 11
88.9502
 21
8.65039
  0
LINE
  8
0
 10
88.9502
 20
8.65039
 11
99.9854
 21
8.65039
  0
LINE
  8
0
 10
99.9854
 20
8.65039
 11
100.002
 21
8.65137
  0
LINE
  8
0
 10
100.002
 20
8.65137
 11
100.037
 21
8.65332
  0
LINE
  8
0
 10
100.037
 20
8.65332
 11
100.072
 21
8.65723
  0
LINE
  8
0
 10
100.072
 20
8.65723
 11
100.089
 21
8.66016
  0
LINE
  8
0
 10
100.089
 20
8.66016
 11
100.106
 21
8.66211
  0
LINE
  8
0
 10
100.106
 20
8.66211
 11
100.124
 21
8.66504
  0
LINE
  8
0
 10
100.124
 20
8.66504
 11
100.141
 21
8.66797
  0
LINE
  8
0
 10
100.141
 20
8.66797
 11
100.158
 21
8.67188
  0
LINE
  8
0
 10
100.158
 20
8.67188
 11
100.175
 21
8.67578
  0
LINE
  8
0
 10
100.175
 20
8.67578
 11
100.192
 21
8.67969
  0
LINE
  8
0
 10
100.192
 20
8.67969
 11
100.209
 21
8.68359
  0
LINE
  8
0
 10
100.209
 20
8.68359
 11
100.242
 21
8.69336
  0
LINE
  8
0
 10
100.242
 20
8.69336
 11
100.259
 21
8.69922
  0
LINE
  8
0
 10
100.259
 20
8.69922
 11
100.275
 21
8.7041
  0
LINE
  8
0
 10
100.275
 20
8.7041
 11
100.292
 21
8.70996
  0
LINE
  8
0
 10
100.292
 20
8.70996
 11
100.309
 21
8.7168
  0
LINE
  8
0
 10
100.309
 20
8.7168
 11
100.324
 21
8.72266
  0
LINE
  8
0
 10
100.324
 20
8.72266
 11
100.341
 21
8.72949
  0
LINE
  8
0
 10
100.341
 20
8.72949
 11
100.356
 21
8.73633
  0
LINE
  8
0
 10
100.356
 20
8.73633
 11
100.373
 21
8.74414
  0
LINE
  8
0
 10
100.373
 20
8.74414
 11
100.389
 21
8.75098
  0
LINE
  8
0
 10
100.389
 20
8.75098
 11
100.42
 21
8.7666
  0
LINE
  8
0
 10
100.42
 20
8.7666
 11
100.435
 21
8.77539
  0
LINE
  8
0
 10
100.435
 20
8.77539
 11
100.45
 21
8.78418
  0
LINE
  8
0
 10
100.45
 20
8.78418
 11
100.479
 21
8.80176
  0
LINE
  8
0
 10
100.479
 20
8.80176
 11
100.495
 21
8.81152
  0
LINE
  8
0
 10
100.495
 20
8.81152
 11
100.509
 21
8.82129
  0
LINE
  8
0
 10
100.509
 20
8.82129
 11
100.538
 21
8.84082
  0
LINE
  8
0
 10
100.538
 20
8.84082
 11
100.593
 21
8.88379
  0
LINE
  8
0
 10
100.593
 20
8.88379
 11
100.606
 21
8.89551
  0
LINE
  8
0
 10
100.606
 20
8.89551
 11
100.645
 21
8.93066
  0
LINE
  8
0
 10
100.645
 20
8.93066
 11
100.682
 21
8.96777
  0
LINE
  8
0
 10
100.682
 20
8.96777
 11
100.693
 21
8.98047
  0
LINE
  8
0
 10
100.693
 20
8.98047
 11
100.705
 21
8.99414
  0
LINE
  8
0
 10
100.705
 20
8.99414
 11
100.716
 21
9.00684
  0
LINE
  8
0
 10
100.716
 20
9.00684
 11
100.728
 21
9.02051
  0
LINE
  8
0
 10
100.728
 20
9.02051
 11
100.749
 21
9.04785
  0
LINE
  8
0
 10
100.749
 20
9.04785
 11
100.759
 21
9.0625
  0
LINE
  8
0
 10
100.759
 20
9.0625
 11
100.77
 21
9.07617
  0
LINE
  8
0
 10
100.77
 20
9.07617
 11
100.789
 21
9.10547
  0
LINE
  8
0
 10
100.789
 20
9.10547
 11
100.798
 21
9.12012
  0
LINE
  8
0
 10
100.798
 20
9.12012
 11
100.808
 21
9.13477
  0
LINE
  8
0
 10
100.808
 20
9.13477
 11
100.816
 21
9.15039
  0
LINE
  8
0
 10
100.816
 20
9.15039
 11
100.824
 21
9.16504
  0
LINE
  8
0
 10
100.824
 20
9.16504
 11
100.833
 21
9.18066
  0
LINE
  8
0
 10
100.833
 20
9.18066
 11
100.856
 21
9.22754
  0
LINE
  8
0
 10
100.856
 20
9.22754
 11
100.87
 21
9.25879
  0
LINE
  8
0
 10
100.87
 20
9.25879
 11
100.884
 21
9.29199
  0
LINE
  8
0
 10
100.884
 20
9.29199
 11
100.89
 21
9.30762
  0
LINE
  8
0
 10
100.89
 20
9.30762
 11
100.901
 21
9.34082
  0
LINE
  8
0
 10
100.901
 20
9.34082
 11
100.911
 21
9.37402
  0
LINE
  8
0
 10
100.911
 20
9.37402
 11
100.916
 21
9.3916
  0
LINE
  8
0
 10
100.916
 20
9.3916
 11
100.92
 21
9.4082
  0
LINE
  8
0
 10
100.92
 20
9.4082
 11
100.925
 21
9.4248
  0
LINE
  8
0
 10
100.925
 20
9.4248
 11
100.928
 21
9.44238
  0
LINE
  8
0
 10
100.928
 20
9.44238
 11
100.932
 21
9.45898
  0
LINE
  8
0
 10
100.932
 20
9.45898
 11
100.935
 21
9.47656
  0
LINE
  8
0
 10
100.935
 20
9.47656
 11
100.938
 21
9.49316
  0
LINE
  8
0
 10
100.938
 20
9.49316
 11
100.94
 21
9.51074
  0
LINE
  8
0
 10
100.94
 20
9.51074
 11
100.944
 21
9.5459
  0
LINE
  8
0
 10
100.944
 20
9.5459
 11
100.946
 21
9.5625
  0
LINE
  8
0
 10
100.946
 20
9.5625
 11
100.95
 21
9.63281
  0
LINE
  8
0
 10
100.95
 20
9.63281
 11
100.95
 21
17
  0
LINE
  8
0
 10
100.95
 20
17
 11
104.968
 21
17
  0
LINE
  8
0
 10
104.968
 20
17
 11
104.985
 21
17.001
  0
LINE
  8
0
 10
104.985
 20
17.001
 11
105.002
 21
17.001
  0
LINE
  8
0
 10
105.002
 20
17.001
 11
105.02
 21
17.002
  0
LINE
  8
0
 10
105.02
 20
17.002
 11
105.072
 21
17.0078
  0
LINE
  8
0
 10
105.072
 20
17.0078
 11
105.089
 21
17.0098
  0
LINE
  8
0
 10
105.089
 20
17.0098
 11
105.124
 21
17.0156
  0
LINE
  8
0
 10
105.124
 20
17.0156
 11
105.141
 21
17.0186
  0
LINE
  8
0
 10
105.141
 20
17.0186
 11
105.158
 21
17.0215
  0
LINE
  8
0
 10
105.158
 20
17.0215
 11
105.175
 21
17.0254
  0
LINE
  8
0
 10
105.175
 20
17.0254
 11
105.192
 21
17.0293
  0
LINE
  8
0
 10
105.192
 20
17.0293
 11
105.259
 21
17.0488
  0
LINE
  8
0
 10
105.259
 20
17.0488
 11
105.309
 21
17.0664
  0
LINE
  8
0
 10
105.309
 20
17.0664
 11
105.324
 21
17.0732
  0
LINE
  8
0
 10
105.324
 20
17.0732
 11
105.341
 21
17.0791
  0
LINE
  8
0
 10
105.341
 20
17.0791
 11
105.356
 21
17.0869
  0
LINE
  8
0
 10
105.356
 20
17.0869
 11
105.373
 21
17.0938
  0
LINE
  8
0
 10
105.373
 20
17.0938
 11
105.42
 21
17.1172
  0
LINE
  8
0
 10
105.42
 20
17.1172
 11
105.435
 21
17.125
  0
LINE
  8
0
 10
105.435
 20
17.125
 11
105.45
 21
17.1338
  0
LINE
  8
0
 10
105.45
 20
17.1338
 11
105.465
 21
17.1426
  0
LINE
  8
0
 10
105.465
 20
17.1426
 11
105.479
 21
17.1523
  0
LINE
  8
0
 10
105.479
 20
17.1523
 11
105.495
 21
17.1611
  0
LINE
  8
0
 10
105.495
 20
17.1611
 11
105.509
 21
17.1709
  0
LINE
  8
0
 10
105.509
 20
17.1709
 11
105.523
 21
17.1807
  0
LINE
  8
0
 10
105.523
 20
17.1807
 11
105.538
 21
17.1914
  0
LINE
  8
0
 10
105.538
 20
17.1914
 11
105.552
 21
17.2012
  0
LINE
  8
0
 10
105.552
 20
17.2012
 11
105.579
 21
17.2227
  0
LINE
  8
0
 10
105.579
 20
17.2227
 11
105.593
 21
17.2344
  0
LINE
  8
0
 10
105.593
 20
17.2344
 11
105.606
 21
17.2451
  0
LINE
  8
0
 10
105.606
 20
17.2451
 11
105.645
 21
17.2803
  0
LINE
  8
0
 10
105.645
 20
17.2803
 11
105.657
 21
17.293
  0
LINE
  8
0
 10
105.657
 20
17.293
 11
105.669
 21
17.3057
  0
LINE
  8
0
 10
105.669
 20
17.3057
 11
105.682
 21
17.3184
  0
LINE
  8
0
 10
105.682
 20
17.3184
 11
105.705
 21
17.3438
  0
LINE
  8
0
 10
105.705
 20
17.3438
 11
105.716
 21
17.3574
  0
LINE
  8
0
 10
105.716
 20
17.3574
 11
105.728
 21
17.3711
  0
LINE
  8
0
 10
105.728
 20
17.3711
 11
105.749
 21
17.3984
  0
LINE
  8
0
 10
105.749
 20
17.3984
 11
105.759
 21
17.4121
  0
LINE
  8
0
 10
105.759
 20
17.4121
 11
105.77
 21
17.4268
  0
LINE
  8
0
 10
105.77
 20
17.4268
 11
105.779
 21
17.4404
  0
LINE
  8
0
 10
105.779
 20
17.4404
 11
105.789
 21
17.4551
  0
LINE
  8
0
 10
105.789
 20
17.4551
 11
105.798
 21
17.4697
  0
LINE
  8
0
 10
105.798
 20
17.4697
 11
105.808
 21
17.4854
  0
LINE
  8
0
 10
105.808
 20
17.4854
 11
105.816
 21
17.5
  0
LINE
  8
0
 10
105.816
 20
17.5
 11
105.824
 21
17.5156
  0
LINE
  8
0
 10
105.824
 20
17.5156
 11
105.833
 21
17.5303
  0
LINE
  8
0
 10
105.833
 20
17.5303
 11
105.856
 21
17.5771
  0
LINE
  8
0
 10
105.856
 20
17.5771
 11
105.863
 21
17.5938
  0
LINE
  8
0
 10
105.863
 20
17.5938
 11
105.877
 21
17.625
  0
LINE
  8
0
 10
105.877
 20
17.625
 11
105.884
 21
17.6416
  0
LINE
  8
0
 10
105.884
 20
17.6416
 11
105.901
 21
17.6914
  0
LINE
  8
0
 10
105.901
 20
17.6914
 11
105.916
 21
17.7412
  0
LINE
  8
0
 10
105.916
 20
17.7412
 11
105.92
 21
17.7578
  0
LINE
  8
0
 10
105.92
 20
17.7578
 11
105.925
 21
17.7754
  0
LINE
  8
0
 10
105.925
 20
17.7754
 11
105.928
 21
17.792
  0
LINE
  8
0
 10
105.928
 20
17.792
 11
105.932
 21
17.8096
  0
LINE
  8
0
 10
105.932
 20
17.8096
 11
105.935
 21
17.8262
  0
LINE
  8
0
 10
105.935
 20
17.8262
 11
105.938
 21
17.8438
  0
LINE
  8
0
 10
105.938
 20
17.8438
 11
105.94
 21
17.8604
  0
LINE
  8
0
 10
105.94
 20
17.8604
 11
105.946
 21
17.9131
  0
LINE
  8
0
 10
105.946
 20
17.9131
 11
105.947
 21
17.9307
  0
LINE
  8
0
 10
105.947
 20
17.9307
 11
105.948
 21
17.9473
  0
LINE
  8
0
 10
105.948
 20
17.9473
 11
105.95
 21
17.9824
  0
LINE
  8
0
 10
105.95
 20
17.9824
 11
105.95
 21
36.0176
  0
LINE
  8
0
 10
105.95
 20
36.0176
 11
105.948
 21
36.0527
  0
LINE
  8
0
 10
105.948
 20
36.0527
 11
105.947
 21
36.0693
  0
LINE
  8
0
 10
105.947
 20
36.0693
 11
105.946
 21
36.0869
  0
LINE
  8
0
 10
105.946
 20
36.0869
 11
105.94
 21
36.1396
  0
LINE
  8
0
 10
105.94
 20
36.1396
 11
105.938
 21
36.1562
  0
LINE
  8
0
 10
105.938
 20
36.1562
 11
105.935
 21
36.1738
  0
LINE
  8
0
 10
105.935
 20
36.1738
 11
105.932
 21
36.1904
  0
LINE
  8
0
 10
105.932
 20
36.1904
 11
105.928
 21
36.208
  0
LINE
  8
0
 10
105.928
 20
36.208
 11
105.925
 21
36.2246
  0
LINE
  8
0
 10
105.925
 20
36.2246
 11
105.92
 21
36.2422
  0
LINE
  8
0
 10
105.92
 20
36.2422
 11
105.916
 21
36.2588
  0
LINE
  8
0
 10
105.916
 20
36.2588
 11
105.901
 21
36.3086
  0
LINE
  8
0
 10
105.901
 20
36.3086
 11
105.884
 21
36.3584
  0
LINE
  8
0
 10
105.884
 20
36.3584
 11
105.877
 21
36.375
  0
LINE
  8
0
 10
105.877
 20
36.375
 11
105.863
 21
36.4062
  0
LINE
  8
0
 10
105.863
 20
36.4062
 11
105.856
 21
36.4229
  0
LINE
  8
0
 10
105.856
 20
36.4229
 11
105.833
 21
36.4697
  0
LINE
  8
0
 10
105.833
 20
36.4697
 11
105.824
 21
36.4844
  0
LINE
  8
0
 10
105.824
 20
36.4844
 11
105.816
 21
36.5
  0
LINE
  8
0
 10
105.816
 20
36.5
 11
105.808
 21
36.5146
  0
LINE
  8
0
 10
105.808
 20
36.5146
 11
105.798
 21
36.5303
  0
LINE
  8
0
 10
105.798
 20
36.5303
 11
105.789
 21
36.5449
  0
LINE
  8
0
 10
105.789
 20
36.5449
 11
105.779
 21
36.5596
  0
LINE
  8
0
 10
105.779
 20
36.5596
 11
105.77
 21
36.5732
  0
LINE
  8
0
 10
105.77
 20
36.5732
 11
105.759
 21
36.5879
  0
LINE
  8
0
 10
105.759
 20
36.5879
 11
105.749
 21
36.6016
  0
LINE
  8
0
 10
105.749
 20
36.6016
 11
105.728
 21
36.6289
  0
LINE
  8
0
 10
105.728
 20
36.6289
 11
105.716
 21
36.6426
  0
LINE
  8
0
 10
105.716
 20
36.6426
 11
105.705
 21
36.6562
  0
LINE
  8
0
 10
105.705
 20
36.6562
 11
105.682
 21
36.6816
  0
LINE
  8
0
 10
105.682
 20
36.6816
 11
105.669
 21
36.6943
  0
LINE
  8
0
 10
105.669
 20
36.6943
 11
105.657
 21
36.707
  0
LINE
  8
0
 10
105.657
 20
36.707
 11
105.645
 21
36.7197
  0
LINE
  8
0
 10
105.645
 20
36.7197
 11
105.606
 21
36.7549
  0
LINE
  8
0
 10
105.606
 20
36.7549
 11
105.593
 21
36.7656
  0
LINE
  8
0
 10
105.593
 20
36.7656
 11
105.579
 21
36.7773
  0
LINE
  8
0
 10
105.579
 20
36.7773
 11
105.552
 21
36.7988
  0
LINE
  8
0
 10
105.552
 20
36.7988
 11
105.538
 21
36.8086
  0
LINE
  8
0
 10
105.538
 20
36.8086
 11
105.523
 21
36.8193
  0
LINE
  8
0
 10
105.523
 20
36.8193
 11
105.509
 21
36.8291
  0
LINE
  8
0
 10
105.509
 20
36.8291
 11
105.495
 21
36.8389
  0
LINE
  8
0
 10
105.495
 20
36.8389
 11
105.479
 21
36.8477
  0
LINE
  8
0
 10
105.479
 20
36.8477
 11
105.465
 21
36.8574
  0
LINE
  8
0
 10
105.465
 20
36.8574
 11
105.45
 21
36.8662
  0
LINE
  8
0
 10
105.45
 20
36.8662
 11
105.435
 21
36.875
  0
LINE
  8
0
 10
105.435
 20
36.875
 11
105.42
 21
36.8828
  0
LINE
  8
0
 10
105.42
 20
36.8828
 11
105.373
 21
36.9062
  0
LINE
  8
0
 10
105.373
 20
36.9062
 11
105.356
 21
36.9131
  0
LINE
  8
0
 10
105.356
 20
36.9131
 11
105.341
 21
36.9209
  0
LINE
  8
0
 10
105.341
 20
36.9209
 11
105.324
 21
36.9268
  0
LINE
  8
0
 10
105.324
 20
36.9268
 11
105.309
 21
36.9336
  0
LINE
  8
0
 10
105.309
 20
36.9336
 11
105.259
 21
36.9512
  0
LINE
  8
0
 10
105.259
 20
36.9512
 11
105.192
 21
36.9707
  0
LINE
  8
0
 10
105.192
 20
36.9707
 11
105.175
 21
36.9746
  0
LINE
  8
0
 10
105.175
 20
36.9746
 11
105.158
 21
36.9785
  0
LINE
  8
0
 10
105.158
 20
36.9785
 11
105.141
 21
36.9814
  0
LINE
  8
0
 10
105.141
 20
36.9814
 11
105.124
 21
36.9844
  0
LINE
  8
0
 10
105.124
 20
36.9844
 11
105.089
 21
36.9902
  0
LINE
  8
0
 10
105.089
 20
36.9902
 11
105.072
 21
36.9922
  0
LINE
  8
0
 10
105.072
 20
36.9922
 11
105.02
 21
36.998
  0
LINE
  8
0
 10
105.02
 20
36.998
 11
105.002
 21
36.999
  0
LINE
  8
0
 10
105.002
 20
36.999
 11
104.985
 21
36.999
  0
LINE
  8
0
 10
104.985
 20
36.999
 11
104.968
 21
37
  0
LINE
  8
0
 10
104.968
 20
37
 11
88.6973
 21
37
  0
LINE
  8
0
 10
88.6973
 20
37
 11
88.6973
 21
15
  0
LINE
  8
0
 10
88.6973
 20
15
 11
50.5996
 21
15
  0
LINE
  8
0
 10
50.5996
 20
15
 11
50.5996
 21
37
  0
LINE
  8
0
 10
50.5996
 20
37
 11
-4.01758
 21
37
  0
LINE
  8
0
 10
-4.01758
 20
37
 11
-4.03516
 21
36.999
  0
LINE
  8
0
 10
-4.03516
 20
36.999
 11
-4.05273
 21
36.999
  0
LINE
  8
0
 10
-4.05273
 20
36.999
 11
-4.06934
 21
36.998
  0
LINE
  8
0
 10
-4.06934
 20
36.998
 11
-4.13965
 21
36.9902
  0
LINE
  8
0
 10
-4.13965
 20
36.9902
 11
-4.15625
 21
36.9873
  0
LINE
  8
0
 10
-4.15625
 20
36.9873
 11
-4.17383
 21
36.9844
  0
LINE
  8
0
 10
-4.17383
 20
36.9844
 11
-4.19043
 21
36.9814
  0
LINE
  8
0
 10
-4.19043
 20
36.9814
 11
-4.20801
 21
36.9785
  0
LINE
  8
0
 10
-4.20801
 20
36.9785
 11
-4.22461
 21
36.9746
  0
LINE
  8
0
 10
-4.22461
 20
36.9746
 11
-4.24219
 21
36.9707
  0
LINE
  8
0
 10
-4.24219
 20
36.9707
 11
-4.30859
 21
36.9512
  0
LINE
  8
0
 10
-4.30859
 20
36.9512
 11
-4.3584
 21
36.9336
  0
LINE
  8
0
 10
-4.3584
 20
36.9336
 11
-4.375
 21
36.9268
  0
LINE
  8
0
 10
-4.375
 20
36.9268
 11
-4.39062
 21
36.9209
  0
LINE
  8
0
 10
-4.39062
 20
36.9209
 11
-4.40625
 21
36.9131
  0
LINE
  8
0
 10
-4.40625
 20
36.9131
 11
-4.42285
 21
36.9062
  0
LINE
  8
0
 10
-4.42285
 20
36.9062
 11
-4.46973
 21
36.8828
  0
LINE
  8
0
 10
-4.46973
 20
36.8828
 11
-4.48438
 21
36.875
  0
LINE
  8
0
 10
-4.48438
 20
36.875
 11
-4.5
 21
36.8662
  0
LINE
  8
0
 10
-4.5
 20
36.8662
 11
-4.51465
 21
36.8574
  0
LINE
  8
0
 10
-4.51465
 20
36.8574
 11
-4.53027
 21
36.8477
  0
LINE
  8
0
 10
-4.53027
 20
36.8477
 11
-4.54492
 21
36.8389
  0
LINE
  8
0
 10
-4.54492
 20
36.8389
 11
-4.55957
 21
36.8291
  0
LINE
  8
0
 10
-4.55957
 20
36.8291
 11
-4.57324
 21
36.8193
  0
LINE
  8
0
 10
-4.57324
 20
36.8193
 11
-4.58789
 21
36.8086
  0
LINE
  8
0
 10
-4.58789
 20
36.8086
 11
-4.60156
 21
36.7988
  0
LINE
  8
0
 10
-4.60156
 20
36.7988
 11
-4.62891
 21
36.7773
  0
LINE
  8
0
 10
-4.62891
 20
36.7773
 11
-4.64258
 21
36.7656
  0
LINE
  8
0
 10
-4.64258
 20
36.7656
 11
-4.65625
 21
36.7549
  0
LINE
  8
0
 10
-4.65625
 20
36.7549
 11
-4.69434
 21
36.7197
  0
LINE
  8
0
 10
-4.69434
 20
36.7197
 11
-4.71973
 21
36.6943
  0
LINE
  8
0
 10
-4.71973
 20
36.6943
 11
-4.75488
 21
36.6562
  0
LINE
  8
0
 10
-4.75488
 20
36.6562
 11
-4.76562
 21
36.6426
  0
LINE
  8
0
 10
-4.76562
 20
36.6426
 11
-4.77734
 21
36.6289
  0
LINE
  8
0
 10
-4.77734
 20
36.6289
 11
-4.79883
 21
36.6016
  0
LINE
  8
0
 10
-4.79883
 20
36.6016
 11
-4.80859
 21
36.5879
  0
LINE
  8
0
 10
-4.80859
 20
36.5879
 11
-4.81934
 21
36.5732
  0
LINE
  8
0
 10
-4.81934
 20
36.5732
 11
-4.8291
 21
36.5596
  0
LINE
  8
0
 10
-4.8291
 20
36.5596
 11
-4.83887
 21
36.5449
  0
LINE
  8
0
 10
-4.83887
 20
36.5449
 11
-4.84766
 21
36.5303
  0
LINE
  8
0
 10
-4.84766
 20
36.5303
 11
-4.85742
 21
36.5146
  0
LINE
  8
0
 10
-4.85742
 20
36.5146
 11
-4.86621
 21
36.5
  0
LINE
  8
0
 10
-4.86621
 20
36.5
 11
-4.875
 21
36.4844
  0
LINE
  8
0
 10
-4.875
 20
36.4844
 11
-4.88281
 21
36.4697
  0
LINE
  8
0
 10
-4.88281
 20
36.4697
 11
-4.90625
 21
36.4229
  0
LINE
  8
0
 10
-4.90625
 20
36.4229
 11
-4.91309
 21
36.4062
  0
LINE
  8
0
 10
-4.91309
 20
36.4062
 11
-4.9209
 21
36.3906
  0
LINE
  8
0
 10
-4.9209
 20
36.3906
 11
-4.92676
 21
36.375
  0
LINE
  8
0
 10
-4.92676
 20
36.375
 11
-4.93359
 21
36.3584
  0
LINE
  8
0
 10
-4.93359
 20
36.3584
 11
-4.95117
 21
36.3086
  0
LINE
  8
0
 10
-4.95117
 20
36.3086
 11
-4.9707
 21
36.2422
  0
LINE
  8
0
 10
-4.9707
 20
36.2422
 11
-4.97461
 21
36.2246
  0
LINE
  8
0
 10
-4.97461
 20
36.2246
 11
-4.97852
 21
36.208
  0
LINE
  8
0
 10
-4.97852
 20
36.208
 11
-4.98145
 21
36.1904
  0
LINE
  8
0
 10
-4.98145
 20
36.1904
 11
-4.98438
 21
36.1738
  0
LINE
  8
0
 10
-4.98438
 20
36.1738
 11
-4.9873
 21
36.1562
  0
LINE
  8
0
 10
-4.9873
 20
36.1562
 11
-4.99023
 21
36.1396
  0
LINE
  8
0
 10
-4.99023
 20
36.1396
 11
-4.99805
 21
36.0693
  0
LINE
  8
0
 10
-4.99805
 20
36.0693
 11
-4.99902
 21
36.0527
  0
LINE
  8
0
 10
-4.99902
 20
36.0527
 11
-4.99902
 21
36.0352
  0
LINE
  8
0
 10
-4.99902
 20
36.0352
 11
-5
 21
36.0176
  0
LINE
  8
0
 10
-5
 20
36.0176
 11
-5
 21
17.9824
  0
LINE
  8
0
 10
-5
 20
17.9824
 11
-4.99902
 21
17.9648
  0
LINE
  8
0
 10
-4.99902
 20
17.9648
 11
-4.99902
 21
17.9473
  0
LINE
  8
0
 10
-4.99902
 20
17.9473
 11
-4.99805
 21
17.9307
  0
LINE
  8
0
 10
-4.99805
 20
17.9307
 11
-4.99023
 21
17.8604
  0
LINE
  8
0
 10
-4.99023
 20
17.8604
 11
-4.9873
 21
17.8438
  0
LINE
  8
0
 10
-4.9873
 20
17.8438
 11
-4.98438
 21
17.8262
  0
LINE
  8
0
 10
-4.98438
 20
17.8262
 11
-4.98145
 21
17.8096
  0
LINE
  8
0
 10
-4.98145
 20
17.8096
 11
-4.97852
 21
17.792
  0
LINE
  8
0
 10
-4.97852
 20
17.792
 11
-4.97461
 21
17.7754
  0
LINE
  8
0
 10
-4.97461
 20
17.7754
 11
-4.9707
 21
17.7578
  0
LINE
  8
0
 10
-4.9707
 20
17.7578
 11
-4.95117
 21
17.6914
  0
LINE
  8
0
 10
-4.95117
 20
17.6914
 11
-4.93359
 21
17.6416
  0
LINE
  8
0
 10
-4.93359
 20
17.6416
 11
-4.92676
 21
17.625
  0
LINE
  8
0
 10
-4.92676
 20
17.625
 11
-4.9209
 21
17.6094
  0
LINE
  8
0
 10
-4.9209
 20
17.6094
 11
-4.91309
 21
17.5938
  0
LINE
  8
0
 10
-4.91309
 20
17.5938
 11
-4.90625
 21
17.5771
  0
LINE
  8
0
 10
-4.90625
 20
17.5771
 11
-4.88281
 21
17.5303
  0
LINE
  8
0
 10
-4.88281
 20
17.5303
 11
-4.875
 21
17.5156
  0
LINE
  8
0
 10
-4.875
 20
17.5156
 11
-4.86621
 21
17.5
  0
LINE
  8
0
 10
-4.86621
 20
17.5
 11
-4.85742
 21
17.4854
  0
LINE
  8
0
 10
-4.85742
 20
17.4854
 11
-4.84766
 21
17.4697
  0
LINE
  8
0
 10
-4.84766
 20
17.4697
 11
-4.83887
 21
17.4551
  0
LINE
  8
0
 10
-4.83887
 20
17.4551
 11
-4.8291
 21
17.4404
  0
LINE
  8
0
 10
-4.8291
 20
17.4404
 11
-4.81934
 21
17.4268
  0
LINE
  8
0
 10
-4.81934
 20
17.4268
 11
-4.80859
 21
17.4121
  0
LINE
  8
0
 10
-4.80859
 20
17.4121
 11
-4.79883
 21
17.3984
  0
LINE
  8
0
 10
-4.79883
 20
17.3984
 11
-4.77734
 21
17.3711
  0
LINE
  8
0
 10
-4.77734
 20
17.3711
 11
-4.76562
 21
17.3574
  0
LINE
  8
0
 10
-4.76562
 20
17.3574
 11
-4.75488
 21
17.3438
  0
LINE
  8
0
 10
-4.75488
 20
17.3438
 11
-4.71973
 21
17.3057
  0
LINE
  8
0
 10
-4.71973
 20
17.3057
 11
-4.69434
 21
17.2803
  0
LINE
  8
0
 10
-4.69434
 20
17.2803
 11
-4.65625
 21
17.2451
  0
LINE
  8
0
 10
-4.65625
 20
17.2451
 11
-4.64258
 21
17.2344
  0
LINE
  8
0
 10
-4.64258
 20
17.2344
 11
-4.62891
 21
17.2227
  0
LINE
  8
0
 10
-4.62891
 20
17.2227
 11
-4.60156
 21
17.2012
  0
LINE
  8
0
 10
-4.60156
 20
17.2012
 11
-4.58789
 21
17.1914
  0
LINE
  8
0
 10
-4.58789
 20
17.1914
 11
-4.57324
 21
17.1807
  0
LINE
  8
0
 10
-4.57324
 20
17.1807
 11
-4.55957
 21
17.1709
  0
LINE
  8
0
 10
-4.55957
 20
17.1709
 11
-4.54492
 21
17.1611
  0
LINE
  8
0
 10
-4.54492
 20
17.1611
 11
-4.53027
 21
17.1523
  0
LINE
  8
0
 10
-4.53027
 20
17.1523
 11
-4.51465
 21
17.1426
  0
LINE
  8
0
 10
-4.51465
 20
17.1426
 11
-4.5
 21
17.1338
  0
LINE
  8
0
 10
-4.5
 20
17.1338
 11
-4.48438
 21
17.125
  0
LINE
  8
0
 10
-4.48438
 20
17.125
 11
-4.46973
 21
17.1172
  0
LINE
  8
0
 10
-4.46973
 20
17.1172
 11
-4.42285
 21
17.0938
  0
LINE
  8
0
 10
-4.42285
 20
17.0938
 11
-4.40625
 21
17.0869
  0
LINE
  8
0
 10
-4.40625
 20
17.0869
 11
-4.39062
 21
17.0791
  0
LINE
  8
0
 10
-4.39062
 20
17.0791
 11
-4.375
 21
17.0732
  0
LINE
  8
0
 10
-4.375
 20
17.0732
 11
-4.3584
 21
17.0664
  0
LINE
  8
0
 10
-4.3584
 20
17.0664
 11
-4.30859
 21
17.0488
  0
LINE
  8
0
 10
-4.30859
 20
17.0488
 11
-4.24219
 21
17.0293
  0
LINE
  8
0
 10
-4.24219
 20
17.0293
 11
-4.22461
 21
17.0254
  0
LINE
  8
0
 10
-4.22461
 20
17.0254
 11
-4.20801
 21
17.0215
  0
LINE
  8
0
 10
-4.20801
 20
17.0215
 11
-4.19043
 21
17.0186
  0
LINE
  8
0
 10
-4.19043
 20
17.0186
 11
-4.17383
 21
17.0156
  0
LINE
  8
0
 10
-4.17383
 20
17.0156
 11
-4.15625
 21
17.0127
  0
LINE
  8
0
 10
-4.15625
 20
17.0127
 11
-4.13965
 21
17.0098
  0
LINE
  8
0
 10
-4.13965
 20
17.0098
 11
-4.06934
 21
17.002
  0
LINE
  8
0
 10
-4.06934
 20
17.002
 11
-4.05273
 21
17.001
  0
LINE
  8
0
 10
-4.05273
 20
17.001
 11
-4.03516
 21
17.001
  0
LINE
  8
0
 10
-4.03516
 20
17.001
 11
-4.01758
 21
17
  0
LINE
  8
0
 10
-4.01758
 20
17
 11
0
 21
17
  0
LINE
  8
0
 10
0
 20
17
 11
0
 21
9.63281
  0
LINE
  8
0
 10
0
 20
9.63281
 11
0.000976562
 21
9.61523
  0
LINE
  8
0
 10
0.000976562
 20
9.61523
 11
0.000976562
 21
9.59766
  0
LINE
  8
0
 10
0.000976562
 20
9.59766
 11
0.00195312
 21
9.58008
  0
LINE
  8
0
 10
0.00195312
 20
9.58008
 11
0.00390625
 21
9.5625
  0
LINE
  8
0
 10
0.00390625
 20
9.5625
 11
0.00585938
 21
9.5459
  0
LINE
  8
0
 10
0.00585938
 20
9.5459
 11
0.00976562
 21
9.51074
  0
LINE
  8
0
 10
0.00976562
 20
9.51074
 11
0.0126953
 21
9.49316
  0
LINE
  8
0
 10
0.0126953
 20
9.49316
 11
0.015625
 21
9.47656
  0
LINE
  8
0
 10
0.015625
 20
9.47656
 11
0.0185547
 21
9.45898
  0
LINE
  8
0
 10
0.0185547
 20
9.45898
 11
0.0214844
 21
9.44238
  0
LINE
  8
0
 10
0.0214844
 20
9.44238
 11
0.0253906
 21
9.4248
  0
LINE
  8
0
 10
0.0253906
 20
9.4248
 11
0.0292969
 21
9.4082
  0
LINE
  8
0
 10
0.0292969
 20
9.4082
 11
0.0341797
 21
9.3916
  0
LINE
  8
0
 10
0.0341797
 20
9.3916
 11
0.0390625
 21
9.37402
  0
LINE
  8
0
 10
0.0390625
 20
9.37402
 11
0.0488281
 21
9.34082
  0
LINE
  8
0
 10
0.0488281
 20
9.34082
 11
0.0605469
 21
9.30762
  0
LINE
  8
0
 10
0.0605469
 20
9.30762
 11
0.0664062
 21
9.29199
  0
LINE
  8
0
 10
0.0664062
 20
9.29199
 11
0.0732422
 21
9.27539
  0
LINE
  8
0
 10
0.0732422
 20
9.27539
 11
0.0791016
 21
9.25879
  0
LINE
  8
0
 10
0.0791016
 20
9.25879
 11
0.0869141
 21
9.24316
  0
LINE
  8
0
 10
0.0869141
 20
9.24316
 11
0.09375
 21
9.22754
  0
LINE
  8
0
 10
0.09375
 20
9.22754
 11
0.125
 21
9.16504
  0
LINE
  8
0
 10
0.125
 20
9.16504
 11
0.133789
 21
9.15039
  0
LINE
  8
0
 10
0.133789
 20
9.15039
 11
0.142578
 21
9.13477
  0
LINE
  8
0
 10
0.142578
 20
9.13477
 11
0.152344
 21
9.12012
  0
LINE
  8
0
 10
0.152344
 20
9.12012
 11
0.161133
 21
9.10547
  0
LINE
  8
0
 10
0.161133
 20
9.10547
 11
0.180664
 21
9.07617
  0
LINE
  8
0
 10
0.180664
 20
9.07617
 11
0.191406
 21
9.0625
  0
LINE
  8
0
 10
0.191406
 20
9.0625
 11
0.201172
 21
9.04785
  0
LINE
  8
0
 10
0.201172
 20
9.04785
 11
0.222656
 21
9.02051
  0
LINE
  8
0
 10
0.222656
 20
9.02051
 11
0.234375
 21
9.00684
  0
LINE
  8
0
 10
0.234375
 20
9.00684
 11
0.245117
 21
8.99414
  0
LINE
  8
0
 10
0.245117
 20
8.99414
 11
0.256836
 21
8.98047
  0
LINE
  8
0
 10
0.256836
 20
8.98047
 11
0.280273
 21
8.95508
  0
LINE
  8
0
 10
0.280273
 20
8.95508
 11
0.292969
 21
8.94336
  0
LINE
  8
0
 10
0.292969
 20
8.94336
 11
0.305664
 21
8.93066
  0
LINE
  8
0
 10
0.305664
 20
8.93066
 11
0.34375
 21
8.89551
  0
LINE
  8
0
 10
0.34375
 20
8.89551
 11
0.357422
 21
8.88379
  0
LINE
  8
0
 10
0.357422
 20
8.88379
 11
0.412109
 21
8.84082
  0
LINE
  8
0
 10
0.412109
 20
8.84082
 11
0.426758
 21
8.83105
  0
LINE
  8
0
 10
0.426758
 20
8.83105
 11
0.44043
 21
8.82129
  0
LINE
  8
0
 10
0.44043
 20
8.82129
 11
0.469727
 21
8.80176
  0
LINE
  8
0
 10
0.469727
 20
8.80176
 11
0.485352
 21
8.79297
  0
LINE
  8
0
 10
0.485352
 20
8.79297
 11
0.5
 21
8.78418
  0
LINE
  8
0
 10
0.5
 20
8.78418
 11
0.515625
 21
8.77539
  0
LINE
  8
0
 10
0.515625
 20
8.77539
 11
0.530273
 21
8.7666
  0
LINE
  8
0
 10
0.530273
 20
8.7666
 11
0.561523
 21
8.75098
  0
LINE
  8
0
 10
0.561523
 20
8.75098
 11
0.577148
 21
8.74414
  0
LINE
  8
0
 10
0.577148
 20
8.74414
 11
0.59375
 21
8.73633
  0
LINE
  8
0
 10
0.59375
 20
8.73633
 11
0.625
 21
8.72266
  0
LINE
  8
0
 10
0.625
 20
8.72266
 11
0.641602
 21
8.7168
  0
LINE
  8
0
 10
0.641602
 20
8.7168
 11
0.658203
 21
8.70996
  0
LINE
  8
0
 10
0.658203
 20
8.70996
 11
0.674805
 21
8.7041
  0
LINE
  8
0
 10
0.674805
 20
8.7041
 11
0.691406
 21
8.69922
  0
LINE
  8
0
 10
0.691406
 20
8.69922
 11
0.708008
 21
8.69336
  0
LINE
  8
0
 10
0.708008
 20
8.69336
 11
0.741211
 21
8.68359
  0
LINE
  8
0
 10
0.741211
 20
8.68359
 11
0.757812
 21
8.67969
  0
LINE
  8
0
 10
0.757812
 20
8.67969
 11
0.775391
 21
8.67578
  0
LINE
  8
0
 10
0.775391
 20
8.67578
 11
0.791992
 21
8.67188
  0
LINE
  8
0
 10
0.791992
 20
8.67188
 11
0.80957
 21
8.66797
  0
LINE
  8
0
 10
0.80957
 20
8.66797
 11
0.826172
 21
8.66504
  0
LINE
  8
0
 10
0.826172
 20
8.66504
 11
0.84375
 21
8.66211
  0
LINE
  8
0
 10
0.84375
 20
8.66211
 11
0.860352
 21
8.66016
  0
LINE
  8
0
 10
0.860352
 20
8.66016
 11
0.87793
 21
8.65723
  0
LINE
  8
0
 10
0.87793
 20
8.65723
 11
0.913086
 21
8.65332
  0
LINE
  8
0
 10
0.913086
 20
8.65332
 11
0.930664
 21
8.65234
  0
LINE
  8
0
 10
0.930664
 20
8.65234
 11
0.947266
 21
8.65137
  0
LINE
  8
0
 10
0.947266
 20
8.65137
 11
0.964844
 21
8.65039
  0
LINE
  8
0
 10
0.964844
 20
8.65039
 11
13
 21
8.65039
  0
LINE
  8
0
 10
13
 20
8.65039
 11
13.0176
 21
8.64941
  0
LINE
  8
0
 10
13.0176
 20
8.64941
 11
13.0352
 21
8.64941
  0
LINE
  8
0
 10
13.0352
 20
8.64941
 11
13.0527
 21
8.64844
  0
LINE
  8
0
 10
13.0527
 20
8.64844
 11
13.0693
 21
8.64746
  0
LINE
  8
0
 10
13.0693
 20
8.64746
 11
13.0869
 21
8.64648
  0
LINE
  8
0
 10
13.0869
 20
8.64648
 11
13.1396
 21
8.64062
  0
LINE
  8
0
 10
13.1396
 20
8.64062
 11
13.1562
 21
8.6377
  0
LINE
  8
0
 10
13.1562
 20
8.6377
 11
13.1738
 21
8.63477
  0
LINE
  8
0
 10
13.1738
 20
8.63477
 11
13.1904
 21
8.63184
  0
LINE
  8
0
 10
13.1904
 20
8.63184
 11
13.208
 21
8.62793
  0
LINE
  8
0
 10
13.208
 20
8.62793
 11
13.2246
 21
8.62402
  0
LINE
  8
0
 10
13.2246
 20
8.62402
 11
13.2422
 21
8.62012
  0
LINE
  8
0
 10
13.2422
 20
8.62012
 11
13.2588
 21
8.61621
  0
LINE
  8
0
 10
13.2588
 20
8.61621
 11
13.292
 21
8.60645
  0
LINE
  8
0
 10
13.292
 20
8.60645
 11
13.3086
 21
8.60059
  0
LINE
  8
0
 10
13.3086
 20
8.60059
 11
13.3252
 21
8.5957
  0
LINE
  8
0
 10
13.3252
 20
8.5957
 11
13.3584
 21
8.58398
  0
LINE
  8
0
 10
13.3584
 20
8.58398
 11
13.375
 21
8.57715
  0
LINE
  8
0
 10
13.375
 20
8.57715
 11
13.4062
 21
8.56348
  0
LINE
  8
0
 10
13.4062
 20
8.56348
 11
13.4229
 21
8.55664
  0
LINE
  8
0
 10
13.4229
 20
8.55664
 11
13.4697
 21
8.5332
  0
LINE
  8
0
 10
13.4697
 20
8.5332
 11
13.4844
 21
8.52441
  0
LINE
  8
0
 10
13.4844
 20
8.52441
 11
13.5
 21
8.51562
  0
LINE
  8
0
 10
13.5
 20
8.51562
 11
13.5146
 21
8.50684
  0
LINE
  8
0
 10
13.5146
 20
8.50684
 11
13.5303
 21
8.49805
  0
LINE
  8
0
 10
13.5303
 20
8.49805
 11
13.5449
 21
8.48828
  0
LINE
  8
0
 10
13.5449
 20
8.48828
 11
13.5596
 21
8.47949
  0
LINE
  8
0
 10
13.5596
 20
8.47949
 11
13.5732
 21
8.46875
  0
LINE
  8
0
 10
13.5732
 20
8.46875
 11
13.5879
 21
8.45898
  0
LINE
  8
0
 10
13.5879
 20
8.45898
 11
13.6016
 21
8.44824
  0
LINE
  8
0
 10
13.6016
 20
8.44824
 11
13.6152
 21
8.43848
  0
LINE
  8
0
 10
13.6152
 20
8.43848
 11
13.6289
 21
8.42676
  0
LINE
  8
0
 10
13.6289
 20
8.42676
 11
13.6426
 21
8.41602
  0
LINE
  8
0
 10
13.6426
 20
8.41602
 11
13.6562
 21
8.4043
  0
LINE
  8
0
 10
13.6562
 20
8.4043
 11
13.6689
 21
8.39355
  0
LINE
  8
0
 10
13.6689
 20
8.39355
 11
13.6816
 21
8.38184
  0
LINE
  8
0
 10
13.6816
 20
8.38184
 11
13.6943
 21
8.36914
  0
LINE
  8
0
 10
13.6943
 20
8.36914
 11
13.707
 21
8.35742
  0
LINE
  8
0
 10
13.707
 20
8.35742
 11
13.7197
 21
8.34473
  0
LINE
  8
0
 10
13.7197
 20
8.34473
 11
13.7432
 21
8.31934
  0
LINE
  8
0
 10
13.7432
 20
8.31934
 11
13.7549
 21
8.30566
  0
LINE
  8
0
 10
13.7549
 20
8.30566
 11
13.7656
 21
8.29297
  0
LINE
  8
0
 10
13.7656
 20
8.29297
 11
13.7773
 21
8.2793
  0
LINE
  8
0
 10
13.7773
 20
8.2793
 11
13.7988
 21
8.25195
  0
LINE
  8
0
 10
13.7988
 20
8.25195
 11
13.8086
 21
8.2373
  0
LINE
  8
0
 10
13.8086
 20
8.2373
 11
13.8193
 21
8.22363
  0
LINE
  8
0
 10
13.8193
 20
8.22363
 11
13.8389
 21
8.19434
  0
LINE
  8
0
 10
13.8389
 20
8.19434
 11
13.8477
 21
8.17969
  0
LINE
  8
0
 10
13.8477
 20
8.17969
 11
13.8574
 21
8.16504
  0
LINE
  8
0
 10
13.8574
 20
8.16504
 11
13.8662
 21
8.15039
  0
LINE
  8
0
 10
13.8662
 20
8.15039
 11
13.875
 21
8.13477
  0
LINE
  8
0
 10
13.875
 20
8.13477
 11
13.9062
 21
8.07227
  0
LINE
  8
0
 10
13.9062
 20
8.07227
 11
13.9131
 21
8.05664
  0
LINE
  8
0
 10
13.9131
 20
8.05664
 11
13.9209
 21
8.04102
  0
LINE
  8
0
 10
13.9209
 20
8.04102
 11
13.9268
 21
8.02441
  0
LINE
  8
0
 10
13.9268
 20
8.02441
 11
13.9336
 21
8.00879
  0
LINE
  8
0
 10
13.9336
 20
8.00879
 11
13.9512
 21
7.95898
  0
LINE
  8
0
 10
13.9512
 20
7.95898
 11
13.9658
 21
7.90918
  0
LINE
  8
0
 10
13.9658
 20
7.90918
 11
13.9707
 21
7.8916
  0
LINE
  8
0
 10
13.9707
 20
7.8916
 11
13.9785
 21
7.8584
  0
LINE
  8
0
 10
13.9785
 20
7.8584
 11
13.9844
 21
7.82324
  0
LINE
  8
0
 10
13.9844
 20
7.82324
 11
13.9873
 21
7.80664
  0
LINE
  8
0
 10
13.9873
 20
7.80664
 11
13.9902
 21
7.78906
  0
LINE
  8
0
 10
13.9902
 20
7.78906
 11
13.9922
 21
7.77148
  0
LINE
  8
0
 10
13.9922
 20
7.77148
 11
13.9941
 21
7.75488
  0
LINE
  8
0
 10
13.9941
 20
7.75488
 11
13.998
 21
7.71973
  0
LINE
  8
0
 10
13.998
 20
7.71973
 11
13.999
 21
7.70215
  0
LINE
  8
0
 10
13.999
 20
7.70215
 11
13.999
 21
7.68457
  0
LINE
  8
0
 10
13.999
 20
7.68457
 11
14
 21
7.66699
  0
LINE
  8
0
 10
14
 20
7.66699
 11
14
 21
5.93262
  0
LINE
  8
0
 10
14
 20
5.93262
 11
13.999
 21
5.91504
  0
LINE
  8
0
 10
13.999
 20
5.91504
 11
13.999
 21
5.89746
  0
LINE
  8
0
 10
13.999
 20
5.89746
 11
13.998
 21
5.87988
  0
LINE
  8
0
 10
13.998
 20
5.87988
 11
13.9961
 21
5.86328
  0
LINE
  8
0
 10
13.9961
 20
5.86328
 11
13.9902
 21
5.81055
  0
LINE
  8
0
 10
13.9902
 20
5.81055
 11
13.9873
 21
5.79395
  0
LINE
  8
0
 10
13.9873
 20
5.79395
 11
13.9814
 21
5.75879
  0
LINE
  8
0
 10
13.9814
 20
5.75879
 11
13.9785
 21
5.74219
  0
LINE
  8
0
 10
13.9785
 20
5.74219
 11
13.9746
 21
5.72461
  0
LINE
  8
0
 10
13.9746
 20
5.72461
 11
13.9707
 21
5.70801
  0
LINE
  8
0
 10
13.9707
 20
5.70801
 11
13.9609
 21
5.6748
  0
LINE
  8
0
 10
13.9609
 20
5.6748
 11
13.9561
 21
5.65723
  0
LINE
  8
0
 10
13.9561
 20
5.65723
 11
13.9512
 21
5.64062
  0
LINE
  8
0
 10
13.9512
 20
5.64062
 11
13.9453
 21
5.62402
  0
LINE
  8
0
 10
13.9453
 20
5.62402
 11
13.9395
 21
5.6084
  0
LINE
  8
0
 10
13.9395
 20
5.6084
 11
13.9336
 21
5.5918
  0
LINE
  8
0
 10
13.9336
 20
5.5918
 11
13.9268
 21
5.5752
  0
LINE
  8
0
 10
13.9268
 20
5.5752
 11
13.9209
 21
5.55957
  0
LINE
  8
0
 10
13.9209
 20
5.55957
 11
13.9131
 21
5.54297
  0
LINE
  8
0
 10
13.9131
 20
5.54297
 11
13.9062
 21
5.52734
  0
LINE
  8
0
 10
13.9062
 20
5.52734
 11
13.875
 21
5.46484
  0
LINE
  8
0
 10
13.875
 20
5.46484
 11
13.8662
 21
5.4502
  0
LINE
  8
0
 10
13.8662
 20
5.4502
 11
13.8574
 21
5.43457
  0
LINE
  8
0
 10
13.8574
 20
5.43457
 11
13.8477
 21
5.41992
  0
LINE
  8
0
 10
13.8477
 20
5.41992
 11
13.8389
 21
5.40527
  0
LINE
  8
0
 10
13.8389
 20
5.40527
 11
13.8193
 21
5.37598
  0
LINE
  8
0
 10
13.8193
 20
5.37598
 11
13.8086
 21
5.3623
  0
LINE
  8
0
 10
13.8086
 20
5.3623
 11
13.7988
 21
5.34863
  0
LINE
  8
0
 10
13.7988
 20
5.34863
 11
13.7881
 21
5.33398
  0
LINE
  8
0
 10
13.7881
 20
5.33398
 11
13.7773
 21
5.32031
  0
LINE
  8
0
 10
13.7773
 20
5.32031
 11
13.7656
 21
5.30762
  0
LINE
  8
0
 10
13.7656
 20
5.30762
 11
13.7549
 21
5.29395
  0
LINE
  8
0
 10
13.7549
 20
5.29395
 11
13.7432
 21
5.28125
  0
LINE
  8
0
 10
13.7432
 20
5.28125
 11
13.7314
 21
5.26758
  0
LINE
  8
0
 10
13.7314
 20
5.26758
 11
13.7197
 21
5.25488
  0
LINE
  8
0
 10
13.7197
 20
5.25488
 11
13.707
 21
5.24316
  0
LINE
  8
0
 10
13.707
 20
5.24316
 11
13.6943
 21
5.23047
  0
LINE
  8
0
 10
13.6943
 20
5.23047
 11
13.6562
 21
5.19531
  0
LINE
  8
0
 10
13.6562
 20
5.19531
 11
13.6426
 21
5.18359
  0
LINE
  8
0
 10
13.6426
 20
5.18359
 11
13.5879
 21
5.14062
  0
LINE
  8
0
 10
13.5879
 20
5.14062
 11
13.5732
 21
5.13086
  0
LINE
  8
0
 10
13.5732
 20
5.13086
 11
13.5596
 21
5.12109
  0
LINE
  8
0
 10
13.5596
 20
5.12109
 11
13.5303
 21
5.10156
  0
LINE
  8
0
 10
13.5303
 20
5.10156
 11
13.5146
 21
5.09277
  0
LINE
  8
0
 10
13.5146
 20
5.09277
 11
13.5
 21
5.08398
  0
LINE
  8
0
 10
13.5
 20
5.08398
 11
13.4844
 21
5.0752
  0
LINE
  8
0
 10
13.4844
 20
5.0752
 11
13.4697
 21
5.06738
  0
LINE
  8
0
 10
13.4697
 20
5.06738
 11
13.4541
 21
5.05859
  0
LINE
  8
0
 10
13.4541
 20
5.05859
 11
13.4385
 21
5.05078
  0
LINE
  8
0
 10
13.4385
 20
5.05078
 11
13.4229
 21
5.04395
  0
LINE
  8
0
 10
13.4229
 20
5.04395
 11
13.4062
 21
5.03613
  0
LINE
  8
0
 10
13.4062
 20
5.03613
 11
13.375
 21
5.02246
  0
LINE
  8
0
 10
13.375
 20
5.02246
 11
13.3086
 21
4.99902
  0
LINE
  8
0
 10
13.3086
 20
4.99902
 11
13.292
 21
4.99414
  0
LINE
  8
0
 10
13.292
 20
4.99414
 11
13.2754
 21
4.98828
  0
LINE
  8
0
 10
13.2754
 20
4.98828
 11
13.2588
 21
4.98438
  0
LINE
  8
0
 10
13.2588
 20
4.98438
 11
13.2422
 21
4.97949
  0
LINE
  8
0
 10
13.2422
 20
4.97949
 11
13.2246
 21
4.97559
  0
LINE
  8
0
 10
13.2246
 20
4.97559
 11
13.208
 21
4.97168
  0
LINE
  8
0
 10
13.208
 20
4.97168
 11
13.1904
 21
4.96875
  0
LINE
  8
0
 10
13.1904
 20
4.96875
 11
13.1738
 21
4.96484
  0
LINE
  8
0
 10
13.1738
 20
4.96484
 11
13.1562
 21
4.96191
  0
LINE
  8
0
 10
13.1562
 20
4.96191
 11
13.1396
 21
4.95996
  0
LINE
  8
0
 10
13.1396
 20
4.95996
 11
13.1221
 21
4.95703
  0
LINE
  8
0
 10
13.1221
 20
4.95703
 11
13.1045
 21
4.95508
  0
LINE
  8
0
 10
13.1045
 20
4.95508
 11
13.0869
 21
4.9541
  0
LINE
  8
0
 10
13.0869
 20
4.9541
 11
13.0693
 21
4.95215
  0
LINE
  8
0
 10
13.0693
 20
4.95215
 11
13.0527
 21
4.95117
  0
LINE
  8
0
 10
13.0527
 20
4.95117
 11
13.0352
 21
4.9502
  0
LINE
  8
0
 10
13.0352
 20
4.9502
 11
0.982422
 21
4.9502
  0
LINE
  8
0
 10
0.982422
 20
4.9502
 11
0.947266
 21
4.94824
  0
LINE
  8
0
 10
0.947266
 20
4.94824
 11
0.930664
 21
4.94727
  0
LINE
  8
0
 10
0.930664
 20
4.94727
 11
0.913086
 21
4.94629
  0
LINE
  8
0
 10
0.913086
 20
4.94629
 11
0.860352
 21
4.94043
  0
LINE
  8
0
 10
0.860352
 20
4.94043
 11
0.84375
 21
4.9375
  0
LINE
  8
0
 10
0.84375
 20
4.9375
 11
0.826172
 21
4.93457
  0
LINE
  8
0
 10
0.826172
 20
4.93457
 11
0.80957
 21
4.93164
  0
LINE
  8
0
 10
0.80957
 20
4.93164
 11
0.791992
 21
4.92773
  0
LINE
  8
0
 10
0.791992
 20
4.92773
 11
0.775391
 21
4.9248
  0
LINE
  8
0
 10
0.775391
 20
4.9248
 11
0.757812
 21
4.91992
  0
LINE
  8
0
 10
0.757812
 20
4.91992
 11
0.741211
 21
4.91602
  0
LINE
  8
0
 10
0.741211
 20
4.91602
 11
0.691406
 21
4.90137
  0
LINE
  8
0
 10
0.691406
 20
4.90137
 11
0.641602
 21
4.88379
  0
LINE
  8
0
 10
0.641602
 20
4.88379
 11
0.625
 21
4.87695
  0
LINE
  8
0
 10
0.625
 20
4.87695
 11
0.59375
 21
4.86328
  0
LINE
  8
0
 10
0.59375
 20
4.86328
 11
0.577148
 21
4.85645
  0
LINE
  8
0
 10
0.577148
 20
4.85645
 11
0.530273
 21
4.83301
  0
LINE
  8
0
 10
0.530273
 20
4.83301
 11
0.515625
 21
4.82422
  0
LINE
  8
0
 10
0.515625
 20
4.82422
 11
0.5
 21
4.81641
  0
LINE
  8
0
 10
0.5
 20
4.81641
 11
0.485352
 21
4.80762
  0
LINE
  8
0
 10
0.485352
 20
4.80762
 11
0.469727
 21
4.79785
  0
LINE
  8
0
 10
0.469727
 20
4.79785
 11
0.455078
 21
4.78906
  0
LINE
  8
0
 10
0.455078
 20
4.78906
 11
0.44043
 21
4.7793
  0
LINE
  8
0
 10
0.44043
 20
4.7793
 11
0.426758
 21
4.76953
  0
LINE
  8
0
 10
0.426758
 20
4.76953
 11
0.412109
 21
4.75879
  0
LINE
  8
0
 10
0.412109
 20
4.75879
 11
0.398438
 21
4.74902
  0
LINE
  8
0
 10
0.398438
 20
4.74902
 11
0.371094
 21
4.72754
  0
LINE
  8
0
 10
0.371094
 20
4.72754
 11
0.357422
 21
4.71582
  0
LINE
  8
0
 10
0.357422
 20
4.71582
 11
0.34375
 21
4.70508
  0
LINE
  8
0
 10
0.34375
 20
4.70508
 11
0.318359
 21
4.68164
  0
LINE
  8
0
 10
0.318359
 20
4.68164
 11
0.305664
 21
4.66895
  0
LINE
  8
0
 10
0.305664
 20
4.66895
 11
0.292969
 21
4.65723
  0
LINE
  8
0
 10
0.292969
 20
4.65723
 11
0.280273
 21
4.64453
  0
LINE
  8
0
 10
0.280273
 20
4.64453
 11
0.245117
 21
4.60645
  0
LINE
  8
0
 10
0.245117
 20
4.60645
 11
0.234375
 21
4.59277
  0
LINE
  8
0
 10
0.234375
 20
4.59277
 11
0.222656
 21
4.5791
  0
LINE
  8
0
 10
0.222656
 20
4.5791
 11
0.201172
 21
4.55176
  0
LINE
  8
0
 10
0.201172
 20
4.55176
 11
0.191406
 21
4.53809
  0
LINE
  8
0
 10
0.191406
 20
4.53809
 11
0.180664
 21
4.52344
  0
LINE
  8
0
 10
0.180664
 20
4.52344
 11
0.170898
 21
4.50879
  0
LINE
  8
0
 10
0.170898
 20
4.50879
 11
0.161133
 21
4.49512
  0
LINE
  8
0
 10
0.161133
 20
4.49512
 11
0.152344
 21
4.47949
  0
LINE
  8
0
 10
0.152344
 20
4.47949
 11
0.142578
 21
4.46484
  0
LINE
  8
0
 10
0.142578
 20
4.46484
 11
0.133789
 21
4.4502
  0
LINE
  8
0
 10
0.133789
 20
4.4502
 11
0.125
 21
4.43457
  0
LINE
  8
0
 10
0.125
 20
4.43457
 11
0.117188
 21
4.41992
  0
LINE
  8
0
 10
0.117188
 20
4.41992
 11
0.09375
 21
4.37305
  0
LINE
  8
0
 10
0.09375
 20
4.37305
 11
0.0869141
 21
4.35645
  0
LINE
  8
0
 10
0.0869141
 20
4.35645
 11
0.0791016
 21
4.34082
  0
LINE
  8
0
 10
0.0791016
 20
4.34082
 11
0.0732422
 21
4.32422
  0
LINE
  8
0
 10
0.0732422
 20
4.32422
 11
0.0664062
 21
4.30859
  0
LINE
  8
0
 10
0.0664062
 20
4.30859
 11
0.0488281
 21
4.25879
  0
LINE
  8
0
 10
0.0488281
 20
4.25879
 11
0.0292969
 21
4.19238
  0
LINE
  8
0
 10
0.0292969
 20
4.19238
 11
0.0253906
 21
4.1748
  0
LINE
  8
0
 10
0.0253906
 20
4.1748
 11
0.0214844
 21
4.1582
  0
LINE
  8
0
 10
0.0214844
 20
4.1582
 11
0.0185547
 21
4.14062
  0
LINE
  8
0
 10
0.0185547
 20
4.14062
 11
0.015625
 21
4.12402
  0
LINE
  8
0
 10
0.015625
 20
4.12402
 11
0.00976562
 21
4.08887
  0
LINE
  8
0
 10
0.00976562
 20
4.08887
 11
0.0078125
 21
4.07227
  0
LINE
  8
0
 10
0.0078125
 20
4.07227
 11
0.00195312
 21
4.01953
  0
LINE
  8
0
 10
0.00195312
 20
4.01953
 11
0.000976562
 21
4.00195
  0
LINE
  8
0
 10
0.000976562
 20
4.00195
 11
0.000976562
 21
3.98535
  0
LINE
  8
0
 10
0.000976562
 20
3.98535
 11
0
 21
3.96777
  0
LINE
  8
0
 10
0
 20
3.96777
 11
0
 21
0.982422
  0
LINE
  8
0
 10
0
 20
0.982422
 11
0.000976562
 21
0.964844
  0
LINE
  8
0
 10
0.000976562
 20
0.964844
 11
0.000976562
 21
0.947266
  0
LINE
  8
0
 10
0.000976562
 20
0.947266
 11
0.00195312
 21
0.930664
  0
LINE
  8
0
 10
0.00195312
 20
0.930664
 11
0.00976562
 21
0.860352
  0
LINE
  8
0
 10
0.00976562
 20
0.860352
 11
0.0126953
 21
0.84375
  0
LINE
  8
0
 10
0.0126953
 20
0.84375
 11
0.015625
 21
0.826172
  0
LINE
  8
0
 10
0.015625
 20
0.826172
 11
0.0185547
 21
0.80957
  0
LINE
  8
0
 10
0.0185547
 20
0.80957
 11
0.0214844
 21
0.791992
  0
LINE
  8
0
 10
0.0214844
 20
0.791992
 11
0.0253906
 21
0.775391
  0
LINE
  8
0
 10
0.0253906
 20
0.775391
 11
0.0292969
 21
0.757812
  0
LINE
  8
0
 10
0.0292969
 20
0.757812
 11
0.0488281
 21
0.691406
  0
LINE
  8
0
 10
0.0488281
 20
0.691406
 11
0.0664062
 21
0.641602
  0
LINE
  8
0
 10
0.0664062
 20
0.641602
 11
0.0732422
 21
0.625
  0
LINE
  8
0
 10
0.0732422
 20
0.625
 11
0.0791016
 21
0.609375
  0
LINE
  8
0
 10
0.0791016
 20
0.609375
 11
0.0869141
 21
0.59375
  0
LINE
  8
0
 10
0.0869141
 20
0.59375
 11
0.09375
 21
0.577148
  0
LINE
  8
0
 10
0.09375
 20
0.577148
 11
0.117188
 21
0.530273
  0
LINE
  8
0
 10
0.117188
 20
0.530273
 11
0.125
 21
0.515625
  0
LINE
  8
0
 10
0.125
 20
0.515625
 11
0.133789
 21
0.5
  0
LINE
  8
0
 10
0.133789
 20
0.5
 11
0.142578
 21
0.485352
  0
LINE
  8
0
 10
0.142578
 20
0.485352
 11
0.152344
 21
0.469727
  0
LINE
  8
0
 10
0.152344
 20
0.469727
 11
0.161133
 21
0.455078
  0
LINE
  8
0
 10
0.161133
 20
0.455078
 11
0.170898
 21
0.44043
  0
LINE
  8
0
 10
0.170898
 20
0.44043
 11
0.180664
 21
0.426758
  0
LINE
  8
0
 10
0.180664
 20
0.426758
 11
0.191406
 21
0.412109
  0
LINE
  8
0
 10
0.191406
 20
0.412109
 11
0.201172
 21
0.398438
  0
LINE
  8
0
 10
0.201172
 20
0.398438
 11
0.222656
 21
0.371094
  0
LINE
  8
0
 10
0.222656
 20
0.371094
 11
0.234375
 21
0.357422
  0
LINE
  8
0
 10
0.234375
 20
0.357422
 11
0.245117
 21
0.34375
  0
LINE
  8
0
 10
0.245117
 20
0.34375
 11
0.280273
 21
0.305664
  0
LINE
  8
0
 10
0.280273
 20
0.305664
 11
0.305664
 21
0.280273
  0
LINE
  8
0
 10
0.305664
 20
0.280273
 11
0.34375
 21
0.245117
  0
LINE
  8
0
 10
0.34375
 20
0.245117
 11
0.357422
 21
0.234375
  0
LINE
  8
0
 10
0.357422
 20
0.234375
 11
0.371094
 21
0.222656
  0
LINE
  8
0
 10
0.371094
 20
0.222656
 11
0.398438
 21
0.201172
  0
LINE
  8
0
 10
0.398438
 20
0.201172
 11
0.412109
 21
0.191406
  0
LINE
  8
0
 10
0.412109
 20
0.191406
 11
0.426758
 21
0.180664
  0
LINE
  8
0
 10
0.426758
 20
0.180664
 11
0.44043
 21
0.170898
  0
LINE
  8
0
 10
0.44043
 20
0.170898
 11
0.455078
 21
0.161133
  0
LINE
  8
0
 10
0.455078
 20
0.161133
 11
0.469727
 21
0.152344
  0
LINE
  8
0
 10
0.469727
 20
0.152344
 11
0.485352
 21
0.142578
  0
LINE
  8
0
 10
0.485352
 20
0.142578
 11
0.5
 21
0.133789
  0
LINE
  8
0
 10
0.5
 20
0.133789
 11
0.515625
 21
0.125
  0
LINE
  8
0
 10
0.515625
 20
0.125
 11
0.530273
 21
0.117188
  0
LINE
  8
0
 10
0.530273
 20
0.117188
 11
0.577148
 21
0.09375
  0
LINE
  8
0
 10
0.577148
 20
0.09375
 11
0.59375
 21
0.0869141
  0
LINE
  8
0
 10
0.59375
 20
0.0869141
 11
0.609375
 21
0.0791016
  0
LINE
  8
0
 10
0.609375
 20
0.0791016
 11
0.625
 21
0.0732422
  0
LINE
  8
0
 10
0.625
 20
0.0732422
 11
0.641602
 21
0.0664062
  0
LINE
  8
0
 10
0.641602
 20
0.0664062
 11
0.691406
 21
0.0488281
  0
LINE
  8
0
 10
0.691406
 20
0.0488281
 11
0.757812
 21
0.0292969
  0
LINE
  8
0
 10
0.757812
 20
0.0292969
 11
0.775391
 21
0.0253906
  0
LINE
  8
0
 10
0.775391
 20
0.0253906
 11
0.791992
 21
0.0214844
  0
LINE
  8
0
 10
0.791992
 20
0.0214844
 11
0.80957
 21
0.0185547
  0
LINE
  8
0
 10
0.80957
 20
0.0185547
 11
0.826172
 21
0.015625
  0
LINE
  8
0
 10
0.826172
 20
0.015625
 11
0.84375
 21
0.0126953
  0
LINE
  8
0
 10
0.84375
 20
0.0126953
 11
0.860352
 21
0.00976562
  0
LINE
  8
0
 10
0.860352
 20
0.00976562
 11
0.930664
 21
0.00195312
  0
LINE
  8
0
 10
0.930664
 20
0.00195312
 11
0.947266
 21
0.000976562
  0
LINE
  8
0
 10
0.947266
 20
0.000976562
 11
0.964844
 21
0.000976562
  0
LINE
  8
0
 10
0.964844
 20
0.000976562
 11
0.982422
 21
0
  0
LINE
  8
0
 10
0.982422
 20
0
 11
31.0352
 21
0
  0
LINE
  8
0
 10
31.0352
 20
0
 11
31.0693
 21
0.000976562
  0
LINE
  8
0
 10
32.9824
 20
8.5
 11
32.9648
 21
8.50098
  0
LINE
  8
0
 10
32.9648
 20
8.50098
 11
32.9473
 21
8.50098
  0
LINE
  8
0
 10
32.9473
 20
8.50098
 11
32.9307
 21
8.50195
  0
LINE
  8
0
 10
32.9307
 20
8.50195
 11
32.8604
 21
8.50977
  0
LINE
  8
0
 10
32.8604
 20
8.50977
 11
32.8438
 21
8.5127
  0
LINE
  8
0
 10
32.8438
 20
8.5127
 11
32.8262
 21
8.51562
  0
LINE
  8
0
 10
32.8262
 20
8.51562
 11
32.8096
 21
8.51855
  0
LINE
  8
0
 10
32.8096
 20
8.51855
 11
32.792
 21
8.52148
  0
LINE
  8
0
 10
32.792
 20
8.52148
 11
32.7754
 21
8.52539
  0
LINE
  8
0
 10
32.7754
 20
8.52539
 11
32.7578
 21
8.5293
  0
LINE
  8
0
 10
32.7578
 20
8.5293
 11
32.6914
 21
8.54883
  0
LINE
  8
0
 10
32.6914
 20
8.54883
 11
32.6416
 21
8.56641
  0
LINE
  8
0
 10
32.6416
 20
8.56641
 11
32.625
 21
8.57324
  0
LINE
  8
0
 10
32.625
 20
8.57324
 11
32.6094
 21
8.5791
  0
LINE
  8
0
 10
32.6094
 20
8.5791
 11
32.5938
 21
8.58691
  0
LINE
  8
0
 10
32.5938
 20
8.58691
 11
32.5771
 21
8.59375
  0
LINE
  8
0
 10
32.5771
 20
8.59375
 11
32.5303
 21
8.61719
  0
LINE
  8
0
 10
32.5303
 20
8.61719
 11
32.5156
 21
8.625
  0
LINE
  8
0
 10
32.5156
 20
8.625
 11
32.5
 21
8.63379
  0
LINE
  8
0
 10
32.5
 20
8.63379
 11
32.4854
 21
8.64258
  0
LINE
  8
0
 10
32.4854
 20
8.64258
 11
32.4697
 21
8.65234
  0
LINE
  8
0
 10
32.4697
 20
8.65234
 11
32.4551
 21
8.66113
  0
LINE
  8
0
 10
32.4551
 20
8.66113
 11
32.4404
 21
8.6709
  0
LINE
  8
0
 10
32.4404
 20
8.6709
 11
32.4268
 21
8.68066
  0
LINE
  8
0
 10
32.4268
 20
8.68066
 11
32.4121
 21
8.69141
  0
LINE
  8
0
 10
32.4121
 20
8.69141
 11
32.3984
 21
8.70117
  0
LINE
  8
0
 10
32.3984
 20
8.70117
 11
32.3711
 21
8.72266
  0
LINE
  8
0
 10
32.3711
 20
8.72266
 11
32.3574
 21
8.73438
  0
LINE
  8
0
 10
32.3574
 20
8.73438
 11
32.3438
 21
8.74512
  0
LINE
  8
0
 10
32.3438
 20
8.74512
 11
32.3057
 21
8.78027
  0
LINE
  8
0
 10
32.3057
 20
8.78027
 11
32.2803
 21
8.80566
  0
LINE
  8
0
 10
32.2803
 20
8.80566
 11
32.2451
 21
8.84375
  0
LINE
  8
0
 10
32.2451
 20
8.84375
 11
32.2344
 21
8.85742
  0
LINE
  8
0
 10
32.2344
 20
8.85742
 11
32.2227
 21
8.87109
  0
LINE
  8
0
 10
32.2227
 20
8.87109
 11
32.2012
 21
8.89844
  0
LINE
  8
0
 10
32.2012
 20
8.89844
 11
32.1914
 21
8.91211
  0
LINE
  8
0
 10
32.1914
 20
8.91211
 11
32.1807
 21
8.92676
  0
LINE
  8
0
 10
32.1807
 20
8.92676
 11
32.1709
 21
8.94043
  0
LINE
  8
0
 10
32.1709
 20
8.94043
 11
32.1611
 21
8.95508
  0
LINE
  8
0
 10
32.1611
 20
8.95508
 11
32.1523
 21
8.96973
  0
LINE
  8
0
 10
32.1523
 20
8.96973
 11
32.1426
 21
8.98535
  0
LINE
  8
0
 10
32.1426
 20
8.98535
 11
32.1338
 21
9
  0
LINE
  8
0
 10
32.1338
 20
9
 11
32.125
 21
9.01562
  0
LINE
  8
0
 10
32.125
 20
9.01562
 11
32.1172
 21
9.03027
  0
LINE
  8
0
 10
32.1172
 20
9.03027
 11
32.0938
 21
9.07715
  0
LINE
  8
0
 10
32.0938
 20
9.07715
 11
32.0869
 21
9.09375
  0
LINE
  8
0
 10
32.0869
 20
9.09375
 11
32.0791
 21
9.10938
  0
LINE
  8
0
 10
32.0791
 20
9.10938
 11
32.0732
 21
9.125
  0
LINE
  8
0
 10
32.0732
 20
9.125
 11
32.0664
 21
9.1416
  0
LINE
  8
0
 10
32.0664
 20
9.1416
 11
32.0488
 21
9.19141
  0
LINE
  8
0
 10
32.0488
 20
9.19141
 11
32.0293
 21
9.25781
  0
LINE
  8
0
 10
32.0293
 20
9.25781
 11
32.0254
 21
9.27539
  0
LINE
  8
0
 10
32.0254
 20
9.27539
 11
32.0215
 21
9.29199
  0
LINE
  8
0
 10
32.0215
 20
9.29199
 11
32.0186
 21
9.30957
  0
LINE
  8
0
 10
32.0186
 20
9.30957
 11
32.0156
 21
9.32617
  0
LINE
  8
0
 10
32.0156
 20
9.32617
 11
32.0127
 21
9.34375
  0
LINE
  8
0
 10
32.0127
 20
9.34375
 11
32.0098
 21
9.36035
  0
LINE
  8
0
 10
32.0098
 20
9.36035
 11
32.002
 21
9.43066
  0
LINE
  8
0
 10
32.002
 20
9.43066
 11
32.001
 21
9.44727
  0
LINE
  8
0
 10
32.001
 20
9.44727
 11
32.001
 21
9.46484
  0
LINE
  8
0
 10
32.001
 20
9.46484
 11
32
 21
9.48242
  0
LINE
  8
0
 10
32
 20
9.48242
 11
32
 21
10.0176
  0
LINE
  8
0
 10
32
 20
10.0176
 11
31.999
 21
10.0352
  0
LINE
  8
0
 10
31.999
 20
10.0352
 11
31.999
 21
10.0527
  0
LINE
  8
0
 10
31.999
 20
10.0527
 11
31.998
 21
10.0693
  0
LINE
  8
0
 10
31.998
 20
10.0693
 11
31.9902
 21
10.1396
  0
LINE
  8
0
 10
31.9902
 20
10.1396
 11
31.9873
 21
10.1562
  0
LINE
  8
0
 10
31.9873
 20
10.1562
 11
31.9844
 21
10.1738
  0
LINE
  8
0
 10
31.9844
 20
10.1738
 11
31.9814
 21
10.1904
  0
LINE
  8
0
 10
31.9814
 20
10.1904
 11
31.9785
 21
10.208
  0
LINE
  8
0
 10
31.9785
 20
10.208
 11
31.9746
 21
10.2246
  0
LINE
  8
0
 10
31.9746
 20
10.2246
 11
31.9707
 21
10.2422
  0
LINE
  8
0
 10
31.9707
 20
10.2422
 11
31.9512
 21
10.3086
  0
LINE
  8
0
 10
31.9512
 20
10.3086
 11
31.9336
 21
10.3584
  0
LINE
  8
0
 10
31.9336
 20
10.3584
 11
31.9268
 21
10.375
  0
LINE
  8
0
 10
31.9268
 20
10.375
 11
31.9209
 21
10.3906
  0
LINE
  8
0
 10
31.9209
 20
10.3906
 11
31.9131
 21
10.4062
  0
LINE
  8
0
 10
31.9131
 20
10.4062
 11
31.9062
 21
10.4229
  0
LINE
  8
0
 10
31.9062
 20
10.4229
 11
31.8828
 21
10.4697
  0
LINE
  8
0
 10
31.8828
 20
10.4697
 11
31.875
 21
10.4844
  0
LINE
  8
0
 10
31.875
 20
10.4844
 11
31.8662
 21
10.5
  0
LINE
  8
0
 10
31.8662
 20
10.5
 11
31.8574
 21
10.5146
  0
LINE
  8
0
 10
31.8574
 20
10.5146
 11
31.8477
 21
10.5303
  0
LINE
  8
0
 10
31.8477
 20
10.5303
 11
31.8389
 21
10.5449
  0
LINE
  8
0
 10
31.8389
 20
10.5449
 11
31.8291
 21
10.5596
  0
LINE
  8
0
 10
31.8291
 20
10.5596
 11
31.8193
 21
10.5732
  0
LINE
  8
0
 10
31.8193
 20
10.5732
 11
31.8086
 21
10.5879
  0
LINE
  8
0
 10
31.8086
 20
10.5879
 11
31.7988
 21
10.6016
  0
LINE
  8
0
 10
31.7988
 20
10.6016
 11
31.7773
 21
10.6289
  0
LINE
  8
0
 10
31.7773
 20
10.6289
 11
31.7656
 21
10.6426
  0
LINE
  8
0
 10
31.7656
 20
10.6426
 11
31.7549
 21
10.6562
  0
LINE
  8
0
 10
31.7549
 20
10.6562
 11
31.7197
 21
10.6943
  0
LINE
  8
0
 10
31.7197
 20
10.6943
 11
31.6943
 21
10.7197
  0
LINE
  8
0
 10
31.6943
 20
10.7197
 11
31.6562
 21
10.7549
  0
LINE
  8
0
 10
31.6562
 20
10.7549
 11
31.6426
 21
10.7656
  0
LINE
  8
0
 10
31.6426
 20
10.7656
 11
31.6289
 21
10.7773
  0
LINE
  8
0
 10
31.6289
 20
10.7773
 11
31.6016
 21
10.7988
  0
LINE
  8
0
 10
31.6016
 20
10.7988
 11
31.5879
 21
10.8086
  0
LINE
  8
0
 10
31.5879
 20
10.8086
 11
31.5732
 21
10.8193
  0
LINE
  8
0
 10
31.5732
 20
10.8193
 11
31.5596
 21
10.8291
  0
LINE
  8
0
 10
31.5596
 20
10.8291
 11
31.5449
 21
10.8389
  0
LINE
  8
0
 10
31.5449
 20
10.8389
 11
31.5303
 21
10.8477
  0
LINE
  8
0
 10
31.5303
 20
10.8477
 11
31.5146
 21
10.8574
  0
LINE
  8
0
 10
31.5146
 20
10.8574
 11
31.5
 21
10.8662
  0
LINE
  8
0
 10
31.5
 20
10.8662
 11
31.4844
 21
10.875
  0
LINE
  8
0
 10
31.4844
 20
10.875
 11
31.4697
 21
10.8828
  0
LINE
  8
0
 10
31.4697
 20
10.8828
 11
31.4229
 21
10.9062
  0
LINE
  8
0
 10
31.4229
 20
10.9062
 11
31.4062
 21
10.9131
  0
LINE
  8
0
 10
31.4062
 20
10.9131
 11
31.3906
 21
10.9209
  0
LINE
  8
0
 10
31.3906
 20
10.9209
 11
31.375
 21
10.9268
  0
LINE
  8
0
 10
31.375
 20
10.9268
 11
31.3584
 21
10.9336
  0
LINE
  8
0
 10
31.3584
 20
10.9336
 11
31.3086
 21
10.9512
  0
LINE
  8
0
 10
31.3086
 20
10.9512
 11
31.2422
 21
10.9707
  0
LINE
  8
0
 10
31.2422
 20
10.9707
 11
31.2246
 21
10.9746
  0
LINE
  8
0
 10
31.2246
 20
10.9746
 11
31.208
 21
10.9785
  0
LINE
  8
0
 10
31.208
 20
10.9785
 11
31.1904
 21
10.9814
  0
LINE
  8
0
 10
31.1904
 20
10.9814
 11
31.1738
 21
10.9844
  0
LINE
  8
0
 10
31.1738
 20
10.9844
 11
31.1562
 21
10.9873
  0
LINE
  8
0
 10
31.1562
 20
10.9873
 11
31.1396
 21
10.9902
  0
LINE
  8
0
 10
31.1396
 20
10.9902
 11
31.0693
 21
10.998
  0
LINE
  8
0
 10
31.0693
 20
10.998
 11
31.0527
 21
10.999
  0
LINE
  8
0
 10
31.0527
 20
10.999
 11
31.0352
 21
10.999
  0
LINE
  8
0
 10
31.0352
 20
10.999
 11
31.0176
 21
11
  0
LINE
  8
0
 10
31.0176
 20
11
 11
15.9824
 21
11
  0
LINE
  8
0
 10
15.9824
 20
11
 11
15.9648
 21
11.001
  0
LINE
  8
0
 10
15.9648
 20
11.001
 11
15.9473
 21
11.001
  0
LINE
  8
0
 10
15.9473
 20
11.001
 11
15.9307
 21
11.002
  0
LINE
  8
0
 10
15.9307
 20
11.002
 11
15.8604
 21
11.0098
  0
LINE
  8
0
 10
15.8604
 20
11.0098
 11
15.8438
 21
11.0127
  0
LINE
  8
0
 10
15.8438
 20
11.0127
 11
15.8262
 21
11.0156
  0
LINE
  8
0
 10
15.8262
 20
11.0156
 11
15.8096
 21
11.0186
  0
LINE
  8
0
 10
15.8096
 20
11.0186
 11
15.792
 21
11.0215
  0
LINE
  8
0
 10
15.792
 20
11.0215
 11
15.7754
 21
11.0254
  0
LINE
  8
0
 10
15.7754
 20
11.0254
 11
15.7578
 21
11.0293
  0
LINE
  8
0
 10
15.7578
 20
11.0293
 11
15.6914
 21
11.0488
  0
LINE
  8
0
 10
15.6914
 20
11.0488
 11
15.6416
 21
11.0664
  0
LINE
  8
0
 10
15.6416
 20
11.0664
 11
15.625
 21
11.0732
  0
LINE
  8
0
 10
15.625
 20
11.0732
 11
15.6094
 21
11.0791
  0
LINE
  8
0
 10
15.6094
 20
11.0791
 11
15.5938
 21
11.0869
  0
LINE
  8
0
 10
15.5938
 20
11.0869
 11
15.5771
 21
11.0938
  0
LINE
  8
0
 10
15.5771
 20
11.0938
 11
15.5303
 21
11.1172
  0
LINE
  8
0
 10
15.5303
 20
11.1172
 11
15.5156
 21
11.125
  0
LINE
  8
0
 10
15.5156
 20
11.125
 11
15.5
 21
11.1338
  0
LINE
  8
0
 10
15.5
 20
11.1338
 11
15.4854
 21
11.1426
  0
LINE
  8
0
 10
15.4854
 20
11.1426
 11
15.4697
 21
11.1523
  0
LINE
  8
0
 10
15.4697
 20
11.1523
 11
15.4551
 21
11.1611
  0
LINE
  8
0
 10
15.4551
 20
11.1611
 11
15.4404
 21
11.1709
  0
LINE
  8
0
 10
15.4404
 20
11.1709
 11
15.4268
 21
11.1807
  0
LINE
  8
0
 10
15.4268
 20
11.1807
 11
15.4121
 21
11.1914
  0
LINE
  8
0
 10
15.4121
 20
11.1914
 11
15.3984
 21
11.2012
  0
LINE
  8
0
 10
15.3984
 20
11.2012
 11
15.3711
 21
11.2227
  0
LINE
  8
0
 10
15.3711
 20
11.2227
 11
15.3574
 21
11.2344
  0
LINE
  8
0
 10
15.3574
 20
11.2344
 11
15.3438
 21
11.2451
  0
LINE
  8
0
 10
15.3438
 20
11.2451
 11
15.3057
 21
11.2803
  0
LINE
  8
0
 10
15.3057
 20
11.2803
 11
15.2803
 21
11.3057
  0
LINE
  8
0
 10
15.2803
 20
11.3057
 11
15.2451
 21
11.3438
  0
LINE
  8
0
 10
15.2451
 20
11.3438
 11
15.2344
 21
11.3574
  0
LINE
  8
0
 10
15.2344
 20
11.3574
 11
15.2227
 21
11.3711
  0
LINE
  8
0
 10
15.2227
 20
11.3711
 11
15.2012
 21
11.3984
  0
LINE
  8
0
 10
15.2012
 20
11.3984
 11
15.1914
 21
11.4121
  0
LINE
  8
0
 10
15.1914
 20
11.4121
 11
15.1807
 21
11.4268
  0
LINE
  8
0
 10
15.1807
 20
11.4268
 11
15.1709
 21
11.4404
  0
LINE
  8
0
 10
15.1709
 20
11.4404
 11
15.1611
 21
11.4551
  0
LINE
  8
0
 10
15.1611
 20
11.4551
 11
15.1523
 21
11.4697
  0
LINE
  8
0
 10
15.1523
 20
11.4697
 11
15.1426
 21
11.4854
  0
LINE
  8
0
 10
15.1426
 20
11.4854
 11
15.1338
 21
11.5
  0
LINE
  8
0
 10
15.1338
 20
11.5
 11
15.125
 21
11.5156
  0
LINE
  8
0
 10
15.125
 20
11.5156
 11
15.1172
 21
11.5303
  0
LINE
  8
0
 10
15.1172
 20
11.5303
 11
15.0938
 21
11.5771
  0
LINE
  8
0
 10
15.0938
 20
11.5771
 11
15.0869
 21
11.5938
  0
LINE
  8
0
 10
15.0869
 20
11.5938
 11
15.0791
 21
11.6094
  0
LINE
  8
0
 10
15.0791
 20
11.6094
 11
15.0732
 21
11.625
  0
LINE
  8
0
 10
15.0732
 20
11.625
 11
15.0664
 21
11.6416
  0
LINE
  8
0
 10
15.0664
 20
11.6416
 11
15.0488
 21
11.6914
  0
LINE
  8
0
 10
15.0488
 20
11.6914
 11
15.0293
 21
11.7578
  0
LINE
  8
0
 10
15.0293
 20
11.7578
 11
15.0254
 21
11.7754
  0
LINE
  8
0
 10
15.0254
 20
11.7754
 11
15.0215
 21
11.792
  0
LINE
  8
0
 10
15.0215
 20
11.792
 11
15.0186
 21
11.8096
  0
LINE
  8
0
 10
15.0186
 20
11.8096
 11
15.0156
 21
11.8262
  0
LINE
  8
0
 10
15.0156
 20
11.8262
 11
15.0127
 21
11.8438
  0
LINE
  8
0
 10
15.0127
 20
11.8438
 11
15.0098
 21
11.8604
  0
LINE
  8
0
 10
15.0098
 20
11.8604
 11
15.002
 21
11.9307
  0
LINE
  8
0
 10
15.002
 20
11.9307
 11
15.001
 21
11.9473
  0
LINE
  8
0
 10
15.001
 20
11.9473
 11
15.001
 21
11.9648
  0
LINE
  8
0
 10
15.001
 20
11.9648
 11
15
 21
11.9824
  0
LINE
  8
0
 10
15
 20
11.9824
 11
15
 21
26.0176
  0
LINE
  8
0
 10
15
 20
26.0176
 11
15.001
 21
26.0352
  0
LINE
  8
0
 10
15.001
 20
26.0352
 11
15.001
 21
26.0527
  0
LINE
  8
0
 10
15.001
 20
26.0527
 11
15.002
 21
26.0693
  0
LINE
  8
0
 10
15.002
 20
26.0693
 11
15.0098
 21
26.1396
  0
LINE
  8
0
 10
15.0098
 20
26.1396
 11
15.0127
 21
26.1562
  0
LINE
  8
0
 10
15.0127
 20
26.1562
 11
15.0156
 21
26.1738
  0
LINE
  8
0
 10
15.0156
 20
26.1738
 11
15.0186
 21
26.1904
  0
LINE
  8
0
 10
15.0186
 20
26.1904
 11
15.0215
 21
26.208
  0
LINE
  8
0
 10
15.0215
 20
26.208
 11
15.0254
 21
26.2246
  0
LINE
  8
0
 10
15.0254
 20
26.2246
 11
15.0293
 21
26.2422
  0
LINE
  8
0
 10
15.0293
 20
26.2422
 11
15.0488
 21
26.3086
  0
LINE
  8
0
 10
15.0488
 20
26.3086
 11
15.0664
 21
26.3584
  0
LINE
  8
0
 10
15.0664
 20
26.3584
 11
15.0732
 21
26.375
  0
LINE
  8
0
 10
15.0732
 20
26.375
 11
15.0791
 21
26.3906
  0
LINE
  8
0
 10
15.0791
 20
26.3906
 11
15.0869
 21
26.4062
  0
LINE
  8
0
 10
15.0869
 20
26.4062
 11
15.0938
 21
26.4229
  0
LINE
  8
0
 10
15.0938
 20
26.4229
 11
15.1172
 21
26.4697
  0
LINE
  8
0
 10
15.1172
 20
26.4697
 11
15.125
 21
26.4844
  0
LINE
  8
0
 10
15.125
 20
26.4844
 11
15.1338
 21
26.5
  0
LINE
  8
0
 10
15.1338
 20
26.5
 11
15.1426
 21
26.5146
  0
LINE
  8
0
 10
15.1426
 20
26.5146
 11
15.1523
 21
26.5303
  0
LINE
  8
0
 10
15.1523
 20
26.5303
 11
15.1611
 21
26.5449
  0
LINE
  8
0
 10
15.1611
 20
26.5449
 11
15.1709
 21
26.5596
  0
LINE
  8
0
 10
15.1709
 20
26.5596
 11
15.1807
 21
26.5732
  0
LINE
  8
0
 10
15.1807
 20
26.5732
 11
15.1914
 21
26.5879
  0
LINE
  8
0
 10
15.1914
 20
26.5879
 11
15.2012
 21
26.6016
  0
LINE
  8
0
 10
15.2012
 20
26.6016
 11
15.2227
 21
26.6289
  0
LINE
  8
0
 10
15.2227
 20
26.6289
 11
15.2344
 21
26.6426
  0
LINE
  8
0
 10
15.2344
 20
26.6426
 11
15.2451
 21
26.6562
  0
LINE
  8
0
 10
15.2451
 20
26.6562
 11
15.2803
 21
26.6943
  0
LINE
  8
0
 10
15.2803
 20
26.6943
 11
15.3057
 21
26.7197
  0
LINE
  8
0
 10
15.3057
 20
26.7197
 11
15.3438
 21
26.7549
  0
LINE
  8
0
 10
15.3438
 20
26.7549
 11
15.3574
 21
26.7656
  0
LINE
  8
0
 10
15.3574
 20
26.7656
 11
15.3711
 21
26.7773
  0
LINE
  8
0
 10
15.3711
 20
26.7773
 11
15.3984
 21
26.7988
  0
LINE
  8
0
 10
15.3984
 20
26.7988
 11
15.4121
 21
26.8086
  0
LINE
  8
0
 10
15.4121
 20
26.8086
 11
15.4268
 21
26.8193
  0
LINE
  8
0
 10
15.4268
 20
26.8193
 11
15.4404
 21
26.8291
  0
LINE
  8
0
 10
15.4404
 20
26.8291
 11
15.4551
 21
26.8389
  0
LINE
  8
0
 10
15.4551
 20
26.8389
 11
15.4697
 21
26.8477
  0
LINE
  8
0
 10
15.4697
 20
26.8477
 11
15.4854
 21
26.8574
  0
LINE
  8
0
 10
15.4854
 20
26.8574
 11
15.5
 21
26.8662
  0
LINE
  8
0
 10
15.5
 20
26.8662
 11
15.5156
 21
26.875
  0
LINE
  8
0
 10
15.5156
 20
26.875
 11
15.5303
 21
26.8828
  0
LINE
  8
0
 10
15.5303
 20
26.8828
 11
15.5771
 21
26.9062
  0
LINE
  8
0
 10
15.5771
 20
26.9062
 11
15.5938
 21
26.9131
  0
LINE
  8
0
 10
15.5938
 20
26.9131
 11
15.6094
 21
26.9209
  0
LINE
  8
0
 10
15.6094
 20
26.9209
 11
15.625
 21
26.9268
  0
LINE
  8
0
 10
15.625
 20
26.9268
 11
15.6416
 21
26.9336
  0
LINE
  8
0
 10
15.6416
 20
26.9336
 11
15.6914
 21
26.9512
  0
LINE
  8
0
 10
15.6914
 20
26.9512
 11
15.7578
 21
26.9707
  0
LINE
  8
0
 10
15.7578
 20
26.9707
 11
15.7754
 21
26.9746
  0
LINE
  8
0
 10
15.7754
 20
26.9746
 11
15.792
 21
26.9785
  0
LINE
  8
0
 10
15.792
 20
26.9785
 11
15.8096
 21
26.9814
  0
LINE
  8
0
 10
15.8096
 20
26.9814
 11
15.8262
 21
26.9844
  0
LINE
  8
0
 10
15.8262
 20
26.9844
 11
15.8438
 21
26.9873
  0
LINE
  8
0
 10
15.8438
 20
26.9873
 11
15.8604
 21
26.9902
  0
LINE
  8
0
 10
15.8604
 20
26.9902
 11
15.9307
 21
26.998
  0
LINE
  8
0
 10
15.9307
 20
26.998
 11
15.9473
 21
26.999
  0
LINE
  8
0
 10
15.9473
 20
26.999
 11
15.9648
 21
26.999
  0
LINE
  8
0
 10
15.9648
 20
26.999
 11
15.9824
 21
27
  0
LINE
  8
0
 10
15.9824
 20
27
 11
43.0176
 21
27
  0
LINE
  8
0
 10
43.0176
 20
27
 11
43.0352
 21
26.999
  0
LINE
  8
0
 10
43.0352
 20
26.999
 11
43.0527
 21
26.999
  0
LINE
  8
0
 10
43.0527
 20
26.999
 11
43.0693
 21
26.998
  0
LINE
  8
0
 10
43.0693
 20
26.998
 11
43.1396
 21
26.9902
  0
LINE
  8
0
 10
43.1396
 20
26.9902
 11
43.1562
 21
26.9873
  0
LINE
  8
0
 10
43.1562
 20
26.9873
 11
43.1738
 21
26.9844
  0
LINE
  8
0
 10
43.1738
 20
26.9844
 11
43.1904
 21
26.9814
  0
LINE
  8
0
 10
43.1904
 20
26.9814
 11
43.208
 21
26.9785
  0
LINE
  8
0
 10
43.208
 20
26.9785
 11
43.2246
 21
26.9746
  0
LINE
  8
0
 10
43.2246
 20
26.9746
 11
43.2422
 21
26.9707
  0
LINE
  8
0
 10
43.2422
 20
26.9707
 11
43.3086
 21
26.9512
  0
LINE
  8
0
 10
43.3086
 20
26.9512
 11
43.3584
 21
26.9336
  0
LINE
  8
0
 10
43.3584
 20
26.9336
 11
43.375
 21
26.9268
  0
LINE
  8
0
 10
43.375
 20
26.9268
 11
43.3906
 21
26.9209
  0
LINE
  8
0
 10
43.3906
 20
26.9209
 11
43.4062
 21
26.9131
  0
LINE
  8
0
 10
43.4062
 20
26.9131
 11
43.4229
 21
26.9062
  0
LINE
  8
0
 10
43.4229
 20
26.9062
 11
43.4697
 21
26.8828
  0
LINE
  8
0
 10
43.4697
 20
26.8828
 11
43.4844
 21
26.875
  0
LINE
  8
0
 10
43.4844
 20
26.875
 11
43.5
 21
26.8662
  0
LINE
  8
0
 10
43.5
 20
26.8662
 11
43.5146
 21
26.8574
  0
LINE
  8
0
 10
43.5146
 20
26.8574
 11
43.5303
 21
26.8477
  0
LINE
  8
0
 10
43.5303
 20
26.8477
 11
43.5449
 21
26.8389
  0
LINE
  8
0
 10
43.5449
 20
26.8389
 11
43.5596
 21
26.8291
  0
LINE
  8
0
 10
43.5596
 20
26.8291
 11
43.5732
 21
26.8193
  0
LINE
  8
0
 10
43.5732
 20
26.8193
 11
43.5879
 21
26.8086
  0
LINE
  8
0
 10
43.5879
 20
26.8086
 11
43.6016
 21
26.7988
  0
LINE
  8
0
 10
43.6016
 20
26.7988
 11
43.6289
 21
26.7773
  0
LINE
  8
0
 10
43.6289
 20
26.7773
 11
43.6426
 21
26.7656
  0
LINE
  8
0
 10
43.6426
 20
26.7656
 11
43.6562
 21
26.7549
  0
LINE
  8
0
 10
43.6562
 20
26.7549
 11
43.6943
 21
26.7197
  0
LINE
  8
0
 10
43.6943
 20
26.7197
 11
43.7197
 21
26.6943
  0
LINE
  8
0
 10
43.7197
 20
26.6943
 11
43.7549
 21
26.6562
  0
LINE
  8
0
 10
43.7549
 20
26.6562
 11
43.7656
 21
26.6426
  0
LINE
  8
0
 10
43.7656
 20
26.6426
 11
43.7773
 21
26.6289
  0
LINE
  8
0
 10
43.7773
 20
26.6289
 11
43.7988
 21
26.6016
  0
LINE
  8
0
 10
43.7988
 20
26.6016
 11
43.8086
 21
26.5879
  0
LINE
  8
0
 10
43.8086
 20
26.5879
 11
43.8193
 21
26.5732
  0
LINE
  8
0
 10
43.8193
 20
26.5732
 11
43.8291
 21
26.5596
  0
LINE
  8
0
 10
43.8291
 20
26.5596
 11
43.8389
 21
26.5449
  0
LINE
  8
0
 10
43.8389
 20
26.5449
 11
43.8477
 21
26.5303
  0
LINE
  8
0
 10
43.8477
 20
26.5303
 11
43.8574
 21
26.5146
  0
LINE
  8
0
 10
43.8574
 20
26.5146
 11
43.8662
 21
26.5
  0
LINE
  8
0
 10
43.8662
 20
26.5
 11
43.875
 21
26.4844
  0
LINE
  8
0
 10
43.875
 20
26.4844
 11
43.8828
 21
26.4697
  0
LINE
  8
0
 10
43.8828
 20
26.4697
 11
43.9062
 21
26.4229
  0
LINE
  8
0
 10
43.9062
 20
26.4229
 11
43.9131
 21
26.4062
  0
LINE
  8
0
 10
43.9131
 20
26.4062
 11
43.9209
 21
26.3906
  0
LINE
  8
0
 10
43.9209
 20
26.3906
 11
43.9268
 21
26.375
  0
LINE
  8
0
 10
43.9268
 20
26.375
 11
43.9336
 21
26.3584
  0
LINE
  8
0
 10
43.9336
 20
26.3584
 11
43.9512
 21
26.3086
  0
LINE
  8
0
 10
43.9512
 20
26.3086
 11
43.9707
 21
26.2422
  0
LINE
  8
0
 10
43.9707
 20
26.2422
 11
43.9746
 21
26.2246
  0
LINE
  8
0
 10
43.9746
 20
26.2246
 11
43.9785
 21
26.208
  0
LINE
  8
0
 10
43.9785
 20
26.208
 11
43.9814
 21
26.1904
  0
LINE
  8
0
 10
43.9814
 20
26.1904
 11
43.9844
 21
26.1738
  0
LINE
  8
0
 10
43.9844
 20
26.1738
 11
43.9873
 21
26.1562
  0
LINE
  8
0
 10
43.9873
 20
26.1562
 11
43.9902
 21
26.1396
  0
LINE
  8
0
 10
43.9902
 20
26.1396
 11
43.998
 21
26.0693
  0
LINE
  8
0
 10
43.998
 20
26.0693
 11
43.999
 21
26.0527
  0
LINE
  8
0
 10
43.999
 20
26.0527
 11
43.999
 21
26.0352
  0
LINE
  8
0
 10
43.999
 20
26.0352
 11
44
 21
26.0176
  0
LINE
  8
0
 10
44
 20
26.0176
 11
44
 21
9.48242
  0
LINE
  8
0
 10
44
 20
9.48242
 11
43.999
 21
9.46484
  0
LINE
  8
0
 10
43.999
 20
9.46484
 11
43.999
 21
9.44727
  0
LINE
  8
0
 10
43.999
 20
9.44727
 11
43.998
 21
9.43066
  0
LINE
  8
0
 10
43.998
 20
9.43066
 11
43.9902
 21
9.36035
  0
LINE
  8
0
 10
43.9902
 20
9.36035
 11
43.9873
 21
9.34375
  0
LINE
  8
0
 10
43.9873
 20
9.34375
 11
43.9844
 21
9.32617
  0
LINE
  8
0
 10
43.9844
 20
9.32617
 11
43.9814
 21
9.30957
  0
LINE
  8
0
 10
43.9814
 20
9.30957
 11
43.9785
 21
9.29199
  0
LINE
  8
0
 10
43.9785
 20
9.29199
 11
43.9746
 21
9.27539
  0
LINE
  8
0
 10
43.9746
 20
9.27539
 11
43.9707
 21
9.25781
  0
LINE
  8
0
 10
43.9707
 20
9.25781
 11
43.9512
 21
9.19141
  0
LINE
  8
0
 10
43.9512
 20
9.19141
 11
43.9336
 21
9.1416
  0
LINE
  8
0
 10
43.9336
 20
9.1416
 11
43.9268
 21
9.125
  0
LINE
  8
0
 10
43.9268
 20
9.125
 11
43.9209
 21
9.10938
  0
LINE
  8
0
 10
43.9209
 20
9.10938
 11
43.9131
 21
9.09375
  0
LINE
  8
0
 10
43.9131
 20
9.09375
 11
43.9062
 21
9.07715
  0
LINE
  8
0
 10
43.9062
 20
9.07715
 11
43.8828
 21
9.03027
  0
LINE
  8
0
 10
43.8828
 20
9.03027
 11
43.875
 21
9.01562
  0
LINE
  8
0
 10
43.875
 20
9.01562
 11
43.8662
 21
9
  0
LINE
  8
0
 10
43.8662
 20
9
 11
43.8574
 21
8.98535
  0
LINE
  8
0
 10
43.8574
 20
8.98535
 11
43.8477
 21
8.96973
  0
LINE
  8
0
 10
43.8477
 20
8.96973
 11
43.8389
 21
8.95508
  0
LINE
  8
0
 10
43.8389
 20
8.95508
 11
43.8291
 21
8.94043
  0
LINE
  8
0
 10
43.8291
 20
8.94043
 11
43.8193
 21
8.92676
  0
LINE
  8
0
 10
43.8193
 20
8.92676
 11
43.8086
 21
8.91211
  0
LINE
  8
0
 10
43.8086
 20
8.91211
 11
43.7988
 21
8.89844
  0
LINE
  8
0
 10
43.7988
 20
8.89844
 11
43.7773
 21
8.87109
  0
LINE
  8
0
 10
43.7773
 20
8.87109
 11
43.7656
 21
8.85742
  0
LINE
  8
0
 10
43.7656
 20
8.85742
 11
43.7549
 21
8.84375
  0
LINE
  8
0
 10
43.7549
 20
8.84375
 11
43.7197
 21
8.80566
  0
LINE
  8
0
 10
43.7197
 20
8.80566
 11
43.6943
 21
8.78027
  0
LINE
  8
0
 10
43.6943
 20
8.78027
 11
43.6562
 21
8.74512
  0
LINE
  8
0
 10
43.6562
 20
8.74512
 11
43.6426
 21
8.73438
  0
LINE
  8
0
 10
43.6426
 20
8.73438
 11
43.6289
 21
8.72266
  0
LINE
  8
0
 10
43.6289
 20
8.72266
 11
43.6016
 21
8.70117
  0
LINE
  8
0
 10
43.6016
 20
8.70117
 11
43.5879
 21
8.69141
  0
LINE
  8
0
 10
43.5879
 20
8.69141
 11
43.5732
 21
8.68066
  0
LINE
  8
0
 10
43.5732
 20
8.68066
 11
43.5596
 21
8.6709
  0
LINE
  8
0
 10
43.5596
 20
8.6709
 11
43.5449
 21
8.66113
  0
LINE
  8
0
 10
43.5449
 20
8.66113
 11
43.5303
 21
8.65234
  0
LINE
  8
0
 10
43.5303
 20
8.65234
 11
43.5146
 21
8.64258
  0
LINE
  8
0
 10
43.5146
 20
8.64258
 11
43.5
 21
8.63379
  0
LINE
  8
0
 10
43.5
 20
8.63379
 11
43.4844
 21
8.625
  0
LINE
  8
0
 10
43.4844
 20
8.625
 11
43.4697
 21
8.61719
  0
LINE
  8
0
 10
43.4697
 20
8.61719
 11
43.4229
 21
8.59375
  0
LINE
  8
0
 10
43.4229
 20
8.59375
 11
43.4062
 21
8.58691
  0
LINE
  8
0
 10
43.4062
 20
8.58691
 11
43.3906
 21
8.5791
  0
LINE
  8
0
 10
43.3906
 20
8.5791
 11
43.375
 21
8.57324
  0
LINE
  8
0
 10
43.375
 20
8.57324
 11
43.3584
 21
8.56641
  0
LINE
  8
0
 10
43.3584
 20
8.56641
 11
43.3086
 21
8.54883
  0
LINE
  8
0
 10
43.3086
 20
8.54883
 11
43.2422
 21
8.5293
  0
LINE
  8
0
 10
43.2422
 20
8.5293
 11
43.2246
 21
8.52539
  0
LINE
  8
0
 10
43.2246
 20
8.52539
 11
43.208
 21
8.52148
  0
LINE
  8
0
 10
43.208
 20
8.52148
 11
43.1904
 21
8.51855
  0
LINE
  8
0
 10
43.1904
 20
8.51855
 11
43.1738
 21
8.51562
  0
LINE
  8
0
 10
43.1738
 20
8.51562
 11
43.1562
 21
8.5127
  0
LINE
  8
0
 10
43.1562
 20
8.5127
 11
43.1396
 21
8.50977
  0
LINE
  8
0
 10
43.1396
 20
8.50977
 11
43.0693
 21
8.50195
  0
LINE
  8
0
 10
43.0693
 20
8.50195
 11
43.0527
 21
8.50098
  0
LINE
  8
0
 10
43.0527
 20
8.50098
 11
43.0352
 21
8.50098
  0
LINE
  8
0
 10
43.0352
 20
8.50098
 11
43.0176
 21
8.5
  0
LINE
  8
0
 10
43.0176
 20
8.5
 11
32.9824
 21
8.5
  0
ENDSEC
  0
SECTION
  2
OBJECTS
  0
DICTIONARY
  0
ENDSEC
  0
EOF
