  0
SECTION
  2
BLOCKS
  0
ENDSEC
  0
SECTION
  2
ENTITIES
  0
LINE
  8
0
 10
100.95
 20
55
 11
104.968
 21
55
  0
LINE
  8
0
 10
104.968
 20
55
 11
104.985
 21
55.001
  0
LINE
  8
0
 10
104.985
 20
55.001
 11
105.002
 21
55.001
  0
LINE
  8
0
 10
105.002
 20
55.001
 11
105.02
 21
55.002
  0
LINE
  8
0
 10
105.02
 20
55.002
 11
105.072
 21
55.0078
  0
LINE
  8
0
 10
105.072
 20
55.0078
 11
105.089
 21
55.0098
  0
LINE
  8
0
 10
105.089
 20
55.0098
 11
105.124
 21
55.0156
  0
LINE
  8
0
 10
105.124
 20
55.0156
 11
105.141
 21
55.0186
  0
LINE
  8
0
 10
105.141
 20
55.0186
 11
105.158
 21
55.0215
  0
LINE
  8
0
 10
105.158
 20
55.0215
 11
105.175
 21
55.0254
  0
LINE
  8
0
 10
105.175
 20
55.0254
 11
105.192
 21
55.0293
  0
LINE
  8
0
 10
105.192
 20
55.0293
 11
105.259
 21
55.0488
  0
LINE
  8
0
 10
105.259
 20
55.0488
 11
105.309
 21
55.0664
  0
LINE
  8
0
 10
105.309
 20
55.0664
 11
105.324
 21
55.0732
  0
LINE
  8
0
 10
105.324
 20
55.0732
 11
105.341
 21
55.0791
  0
LINE
  8
0
 10
105.341
 20
55.0791
 11
105.356
 21
55.0869
  0
LINE
  8
0
 10
105.356
 20
55.0869
 11
105.373
 21
55.0938
  0
LINE
  8
0
 10
105.373
 20
55.0938
 11
105.42
 21
55.1172
  0
LINE
  8
0
 10
105.42
 20
55.1172
 11
105.435
 21
55.125
  0
LINE
  8
0
 10
105.435
 20
55.125
 11
105.45
 21
55.1338
  0
LINE
  8
0
 10
105.45
 20
55.1338
 11
105.465
 21
55.1426
  0
LINE
  8
0
 10
105.465
 20
55.1426
 11
105.479
 21
55.1523
  0
LINE
  8
0
 10
105.479
 20
55.1523
 11
105.495
 21
55.1611
  0
LINE
  8
0
 10
105.495
 20
55.1611
 11
105.509
 21
55.1709
  0
LINE
  8
0
 10
105.509
 20
55.1709
 11
105.523
 21
55.1807
  0
LINE
  8
0
 10
105.523
 20
55.1807
 11
105.538
 21
55.1914
  0
LINE
  8
0
 10
105.538
 20
55.1914
 11
105.552
 21
55.2012
  0
LINE
  8
0
 10
105.552
 20
55.2012
 11
105.579
 21
55.2227
  0
LINE
  8
0
 10
105.579
 20
55.2227
 11
105.593
 21
55.2344
  0
LINE
  8
0
 10
105.593
 20
55.2344
 11
105.606
 21
55.2451
  0
LINE
  8
0
 10
105.606
 20
55.2451
 11
105.645
 21
55.2803
  0
LINE
  8
0
 10
105.645
 20
55.2803
 11
105.657
 21
55.293
  0
LINE
  8
0
 10
105.657
 20
55.293
 11
105.669
 21
55.3057
  0
LINE
  8
0
 10
105.669
 20
55.3057
 11
105.682
 21
55.3184
  0
LINE
  8
0
 10
105.682
 20
55.3184
 11
105.705
 21
55.3438
  0
LINE
  8
0
 10
105.705
 20
55.3438
 11
105.716
 21
55.3574
  0
LINE
  8
0
 10
105.716
 20
55.3574
 11
105.728
 21
55.3711
  0
LINE
  8
0
 10
105.728
 20
55.3711
 11
105.749
 21
55.3984
  0
LINE
  8
0
 10
105.749
 20
55.3984
 11
105.759
 21
55.4121
  0
LINE
  8
0
 10
105.759
 20
55.4121
 11
105.77
 21
55.4268
  0
LINE
  8
0
 10
105.77
 20
55.4268
 11
105.779
 21
55.4404
  0
LINE
  8
0
 10
105.779
 20
55.4404
 11
105.789
 21
55.4551
  0
LINE
  8
0
 10
105.789
 20
55.4551
 11
105.798
 21
55.4697
  0
LINE
  8
0
 10
105.798
 20
55.4697
 11
105.808
 21
55.4854
  0
LINE
  8
0
 10
105.808
 20
55.4854
 11
105.816
 21
55.5
  0
LINE
  8
0
 10
105.816
 20
55.5
 11
105.824
 21
55.5156
  0
LINE
  8
0
 10
105.824
 20
55.5156
 11
105.833
 21
55.5303
  0
LINE
  8
0
 10
105.833
 20
55.5303
 11
105.856
 21
55.5771
  0
LINE
  8
0
 10
105.856
 20
55.5771
 11
105.863
 21
55.5938
  0
LINE
  8
0
 10
105.863
 20
55.5938
 11
105.877
 21
55.625
  0
LINE
  8
0
 10
105.877
 20
55.625
 11
105.884
 21
55.6416
  0
LINE
  8
0
 10
105.884
 20
55.6416
 11
105.901
 21
55.6914
  0
LINE
  8
0
 10
105.901
 20
55.6914
 11
105.916
 21
55.7412
  0
LINE
  8
0
 10
105.916
 20
55.7412
 11
105.92
 21
55.7578
  0
LINE
  8
0
 10
105.92
 20
55.7578
 11
105.925
 21
55.7754
  0
LINE
  8
0
 10
105.925
 20
55.7754
 11
105.928
 21
55.792
  0
LINE
  8
0
 10
105.928
 20
55.792
 11
105.932
 21
55.8096
  0
LINE
  8
0
 10
105.932
 20
55.8096
 11
105.935
 21
55.8262
  0
LINE
  8
0
 10
105.935
 20
55.8262
 11
105.938
 21
55.8438
  0
LINE
  8
0
 10
105.938
 20
55.8438
 11
105.94
 21
55.8604
  0
LINE
  8
0
 10
105.94
 20
55.8604
 11
105.946
 21
55.9131
  0
LINE
  8
0
 10
105.946
 20
55.9131
 11
105.947
 21
55.9307
  0
LINE
  8
0
 10
105.947
 20
55.9307
 11
105.948
 21
55.9473
  0
LINE
  8
0
 10
105.948
 20
55.9473
 11
105.95
 21
55.9824
  0
LINE
  8
0
 10
105.95
 20
55.9824
 11
105.95
 21
64.0176
  0
LINE
  8
0
 10
105.95
 20
64.0176
 11
105.948
 21
64.0527
  0
LINE
  8
0
 10
105.948
 20
64.0527
 11
105.947
 21
64.0693
  0
LINE
  8
0
 10
105.947
 20
64.0693
 11
105.946
 21
64.0869
  0
LINE
  8
0
 10
105.946
 20
64.0869
 11
105.94
 21
64.1396
  0
LINE
  8
0
 10
105.94
 20
64.1396
 11
105.938
 21
64.1562
  0
LINE
  8
0
 10
105.938
 20
64.1562
 11
105.935
 21
64.1738
  0
LINE
  8
0
 10
105.935
 20
64.1738
 11
105.932
 21
64.1904
  0
LINE
  8
0
 10
105.932
 20
64.1904
 11
105.928
 21
64.208
  0
LINE
  8
0
 10
105.928
 20
64.208
 11
105.925
 21
64.2246
  0
LINE
  8
0
 10
105.925
 20
64.2246
 11
105.92
 21
64.2422
  0
LINE
  8
0
 10
105.92
 20
64.2422
 11
105.916
 21
64.2588
  0
LINE
  8
0
 10
105.916
 20
64.2588
 11
105.901
 21
64.3086
  0
LINE
  8
0
 10
105.901
 20
64.3086
 11
105.884
 21
64.3584
  0
LINE
  8
0
 10
105.884
 20
64.3584
 11
105.877
 21
64.375
  0
LINE
  8
0
 10
105.877
 20
64.375
 11
105.863
 21
64.4062
  0
LINE
  8
0
 10
105.863
 20
64.4062
 11
105.856
 21
64.4229
  0
LINE
  8
0
 10
105.856
 20
64.4229
 11
105.833
 21
64.4697
  0
LINE
  8
0
 10
105.833
 20
64.4697
 11
105.824
 21
64.4844
  0
LINE
  8
0
 10
105.824
 20
64.4844
 11
105.816
 21
64.5
  0
LINE
  8
0
 10
105.816
 20
64.5
 11
105.808
 21
64.5146
  0
LINE
  8
0
 10
105.808
 20
64.5146
 11
105.798
 21
64.5303
  0
LINE
  8
0
 10
105.798
 20
64.5303
 11
105.789
 21
64.5449
  0
LINE
  8
0
 10
105.789
 20
64.5449
 11
105.779
 21
64.5596
  0
LINE
  8
0
 10
105.779
 20
64.5596
 11
105.77
 21
64.5732
  0
LINE
  8
0
 10
105.77
 20
64.5732
 11
105.759
 21
64.5879
  0
LINE
  8
0
 10
105.759
 20
64.5879
 11
105.749
 21
64.6016
  0
LINE
  8
0
 10
105.749
 20
64.6016
 11
105.728
 21
64.6289
  0
LINE
  8
0
 10
105.728
 20
64.6289
 11
105.716
 21
64.6426
  0
LINE
  8
0
 10
105.716
 20
64.6426
 11
105.705
 21
64.6562
  0
LINE
  8
0
 10
105.705
 20
64.6562
 11
105.682
 21
64.6816
  0
LINE
  8
0
 10
105.682
 20
64.6816
 11
105.669
 21
64.6943
  0
LINE
  8
0
 10
105.669
 20
64.6943
 11
105.657
 21
64.707
  0
LINE
  8
0
 10
105.657
 20
64.707
 11
105.645
 21
64.7197
  0
LINE
  8
0
 10
105.645
 20
64.7197
 11
105.606
 21
64.7549
  0
LINE
  8
0
 10
105.606
 20
64.7549
 11
105.593
 21
64.7656
  0
LINE
  8
0
 10
105.593
 20
64.7656
 11
105.579
 21
64.7773
  0
LINE
  8
0
 10
105.579
 20
64.7773
 11
105.552
 21
64.7988
  0
LINE
  8
0
 10
105.552
 20
64.7988
 11
105.538
 21
64.8086
  0
LINE
  8
0
 10
105.538
 20
64.8086
 11
105.523
 21
64.8193
  0
LINE
  8
0
 10
105.523
 20
64.8193
 11
105.509
 21
64.8291
  0
LINE
  8
0
 10
105.509
 20
64.8291
 11
105.495
 21
64.8389
  0
LINE
  8
0
 10
105.495
 20
64.8389
 11
105.479
 21
64.8477
  0
LINE
  8
0
 10
105.479
 20
64.8477
 11
105.465
 21
64.8574
  0
LINE
  8
0
 10
105.465
 20
64.8574
 11
105.45
 21
64.8662
  0
LINE
  8
0
 10
105.45
 20
64.8662
 11
105.435
 21
64.875
  0
LINE
  8
0
 10
105.435
 20
64.875
 11
105.42
 21
64.8828
  0
LINE
  8
0
 10
105.42
 20
64.8828
 11
105.373
 21
64.9062
  0
LINE
  8
0
 10
105.373
 20
64.9062
 11
105.356
 21
64.9131
  0
LINE
  8
0
 10
105.356
 20
64.9131
 11
105.341
 21
64.9209
  0
LINE
  8
0
 10
105.341
 20
64.9209
 11
105.324
 21
64.9268
  0
LINE
  8
0
 10
105.324
 20
64.9268
 11
105.309
 21
64.9336
  0
LINE
  8
0
 10
105.309
 20
64.9336
 11
105.259
 21
64.9512
  0
LINE
  8
0
 10
105.259
 20
64.9512
 11
105.192
 21
64.9707
  0
LINE
  8
0
 10
105.192
 20
64.9707
 11
105.175
 21
64.9746
  0
LINE
  8
0
 10
105.175
 20
64.9746
 11
105.158
 21
64.9785
  0
LINE
  8
0
 10
105.158
 20
64.9785
 11
105.141
 21
64.9814
  0
LINE
  8
0
 10
105.141
 20
64.9814
 11
105.124
 21
64.9844
  0
LINE
  8
0
 10
105.124
 20
64.9844
 11
105.089
 21
64.9902
  0
LINE
  8
0
 10
105.089
 20
64.9902
 11
105.072
 21
64.9922
  0
LINE
  8
0
 10
105.072
 20
64.9922
 11
105.02
 21
64.998
  0
LINE
  8
0
 10
105.02
 20
64.998
 11
105.002
 21
64.999
  0
LINE
  8
0
 10
105.002
 20
64.999
 11
104.985
 21
64.999
  0
LINE
  8
0
 10
104.985
 20
64.999
 11
104.968
 21
65
  0
LINE
  8
0
 10
104.968
 20
65
 11
100.95
 21
65
  0
LINE
  8
0
 10
100.95
 20
65
 11
100.95
 21
125
  0
LINE
  8
0
 10
100.95
 20
125
 11
104.968
 21
125
  0
LINE
  8
0
 10
104.968
 20
125
 11
104.985
 21
125.001
  0
LINE
  8
0
 10
104.985
 20
125.001
 11
105.002
 21
125.001
  0
LINE
  8
0
 10
105.002
 20
125.001
 11
105.02
 21
125.002
  0
LINE
  8
0
 10
105.02
 20
125.002
 11
105.072
 21
125.008
  0
LINE
  8
0
 10
105.072
 20
125.008
 11
105.089
 21
125.01
  0
LINE
  8
0
 10
105.089
 20
125.01
 11
105.124
 21
125.016
  0
LINE
  8
0
 10
105.124
 20
125.016
 11
105.141
 21
125.019
  0
LINE
  8
0
 10
105.141
 20
125.019
 11
105.158
 21
125.021
  0
LINE
  8
0
 10
105.158
 20
125.021
 11
105.175
 21
125.025
  0
LINE
  8
0
 10
105.175
 20
125.025
 11
105.192
 21
125.029
  0
LINE
  8
0
 10
105.192
 20
125.029
 11
105.259
 21
125.049
  0
LINE
  8
0
 10
105.259
 20
125.049
 11
105.309
 21
125.066
  0
LINE
  8
0
 10
105.309
 20
125.066
 11
105.324
 21
125.073
  0
LINE
  8
0
 10
105.324
 20
125.073
 11
105.341
 21
125.079
  0
LINE
  8
0
 10
105.341
 20
125.079
 11
105.356
 21
125.087
  0
LINE
  8
0
 10
105.356
 20
125.087
 11
105.373
 21
125.094
  0
LINE
  8
0
 10
105.373
 20
125.094
 11
105.42
 21
125.117
  0
LINE
  8
0
 10
105.42
 20
125.117
 11
105.435
 21
125.125
  0
LINE
  8
0
 10
105.435
 20
125.125
 11
105.45
 21
125.134
  0
LINE
  8
0
 10
105.45
 20
125.134
 11
105.465
 21
125.143
  0
LINE
  8
0
 10
105.465
 20
125.143
 11
105.479
 21
125.152
  0
LINE
  8
0
 10
105.479
 20
125.152
 11
105.495
 21
125.161
  0
LINE
  8
0
 10
105.495
 20
125.161
 11
105.509
 21
125.171
  0
LINE
  8
0
 10
105.509
 20
125.171
 11
105.523
 21
125.181
  0
LINE
  8
0
 10
105.523
 20
125.181
 11
105.538
 21
125.191
  0
LINE
  8
0
 10
105.538
 20
125.191
 11
105.552
 21
125.201
  0
LINE
  8
0
 10
105.552
 20
125.201
 11
105.579
 21
125.223
  0
LINE
  8
0
 10
105.579
 20
125.223
 11
105.593
 21
125.234
  0
LINE
  8
0
 10
105.593
 20
125.234
 11
105.606
 21
125.245
  0
LINE
  8
0
 10
105.606
 20
125.245
 11
105.645
 21
125.28
  0
LINE
  8
0
 10
105.645
 20
125.28
 11
105.657
 21
125.293
  0
LINE
  8
0
 10
105.657
 20
125.293
 11
105.669
 21
125.306
  0
LINE
  8
0
 10
105.669
 20
125.306
 11
105.682
 21
125.318
  0
LINE
  8
0
 10
105.682
 20
125.318
 11
105.705
 21
125.344
  0
LINE
  8
0
 10
105.705
 20
125.344
 11
105.716
 21
125.357
  0
LINE
  8
0
 10
105.716
 20
125.357
 11
105.728
 21
125.371
  0
LINE
  8
0
 10
105.728
 20
125.371
 11
105.749
 21
125.398
  0
LINE
  8
0
 10
105.749
 20
125.398
 11
105.759
 21
125.412
  0
LINE
  8
0
 10
105.759
 20
125.412
 11
105.77
 21
125.427
  0
LINE
  8
0
 10
105.77
 20
125.427
 11
105.779
 21
125.44
  0
LINE
  8
0
 10
105.779
 20
125.44
 11
105.789
 21
125.455
  0
LINE
  8
0
 10
105.789
 20
125.455
 11
105.798
 21
125.47
  0
LINE
  8
0
 10
105.798
 20
125.47
 11
105.808
 21
125.485
  0
LINE
  8
0
 10
105.808
 20
125.485
 11
105.816
 21
125.5
  0
LINE
  8
0
 10
105.816
 20
125.5
 11
105.824
 21
125.516
  0
LINE
  8
0
 10
105.824
 20
125.516
 11
105.833
 21
125.53
  0
LINE
  8
0
 10
105.833
 20
125.53
 11
105.856
 21
125.577
  0
LINE
  8
0
 10
105.856
 20
125.577
 11
105.863
 21
125.594
  0
LINE
  8
0
 10
105.863
 20
125.594
 11
105.877
 21
125.625
  0
LINE
  8
0
 10
105.877
 20
125.625
 11
105.884
 21
125.642
  0
LINE
  8
0
 10
105.884
 20
125.642
 11
105.901
 21
125.691
  0
LINE
  8
0
 10
105.901
 20
125.691
 11
105.916
 21
125.741
  0
LINE
  8
0
 10
105.916
 20
125.741
 11
105.92
 21
125.758
  0
LINE
  8
0
 10
105.92
 20
125.758
 11
105.925
 21
125.775
  0
LINE
  8
0
 10
105.925
 20
125.775
 11
105.928
 21
125.792
  0
LINE
  8
0
 10
105.928
 20
125.792
 11
105.932
 21
125.81
  0
LINE
  8
0
 10
105.932
 20
125.81
 11
105.935
 21
125.826
  0
LINE
  8
0
 10
105.935
 20
125.826
 11
105.938
 21
125.844
  0
LINE
  8
0
 10
105.938
 20
125.844
 11
105.94
 21
125.86
  0
LINE
  8
0
 10
105.94
 20
125.86
 11
105.946
 21
125.913
  0
LINE
  8
0
 10
105.946
 20
125.913
 11
105.947
 21
125.931
  0
LINE
  8
0
 10
105.947
 20
125.931
 11
105.948
 21
125.947
  0
LINE
  8
0
 10
105.948
 20
125.947
 11
105.95
 21
125.982
  0
LINE
  8
0
 10
105.95
 20
125.982
 11
105.95
 21
134.018
  0
LINE
  8
0
 10
105.95
 20
134.018
 11
105.948
 21
134.053
  0
LINE
  8
0
 10
105.948
 20
134.053
 11
105.947
 21
134.069
  0
LINE
  8
0
 10
105.947
 20
134.069
 11
105.946
 21
134.087
  0
LINE
  8
0
 10
105.946
 20
134.087
 11
105.94
 21
134.14
  0
LINE
  8
0
 10
105.94
 20
134.14
 11
105.938
 21
134.156
  0
LINE
  8
0
 10
105.938
 20
134.156
 11
105.935
 21
134.174
  0
LINE
  8
0
 10
105.935
 20
134.174
 11
105.932
 21
134.19
  0
LINE
  8
0
 10
105.932
 20
134.19
 11
105.928
 21
134.208
  0
LINE
  8
0
 10
105.928
 20
134.208
 11
105.925
 21
134.225
  0
LINE
  8
0
 10
105.925
 20
134.225
 11
105.92
 21
134.242
  0
LINE
  8
0
 10
105.92
 20
134.242
 11
105.916
 21
134.259
  0
LINE
  8
0
 10
105.916
 20
134.259
 11
105.901
 21
134.309
  0
LINE
  8
0
 10
105.901
 20
134.309
 11
105.884
 21
134.358
  0
LINE
  8
0
 10
105.884
 20
134.358
 11
105.877
 21
134.375
  0
LINE
  8
0
 10
105.877
 20
134.375
 11
105.863
 21
134.406
  0
LINE
  8
0
 10
105.863
 20
134.406
 11
105.856
 21
134.423
  0
LINE
  8
0
 10
105.856
 20
134.423
 11
105.833
 21
134.47
  0
LINE
  8
0
 10
105.833
 20
134.47
 11
105.824
 21
134.484
  0
LINE
  8
0
 10
105.824
 20
134.484
 11
105.816
 21
134.5
  0
LINE
  8
0
 10
105.816
 20
134.5
 11
105.808
 21
134.515
  0
LINE
  8
0
 10
105.808
 20
134.515
 11
105.798
 21
134.53
  0
LINE
  8
0
 10
105.798
 20
134.53
 11
105.789
 21
134.545
  0
LINE
  8
0
 10
105.789
 20
134.545
 11
105.779
 21
134.56
  0
LINE
  8
0
 10
105.779
 20
134.56
 11
105.77
 21
134.573
  0
LINE
  8
0
 10
105.77
 20
134.573
 11
105.759
 21
134.588
  0
LINE
  8
0
 10
105.759
 20
134.588
 11
105.749
 21
134.602
  0
LINE
  8
0
 10
105.749
 20
134.602
 11
105.728
 21
134.629
  0
LINE
  8
0
 10
105.728
 20
134.629
 11
105.716
 21
134.643
  0
LINE
  8
0
 10
105.716
 20
134.643
 11
105.705
 21
134.656
  0
LINE
  8
0
 10
105.705
 20
134.656
 11
105.682
 21
134.682
  0
LINE
  8
0
 10
105.682
 20
134.682
 11
105.669
 21
134.694
  0
LINE
  8
0
 10
105.669
 20
134.694
 11
105.657
 21
134.707
  0
LINE
  8
0
 10
105.657
 20
134.707
 11
105.645
 21
134.72
  0
LINE
  8
0
 10
105.645
 20
134.72
 11
105.606
 21
134.755
  0
LINE
  8
0
 10
105.606
 20
134.755
 11
105.593
 21
134.766
  0
LINE
  8
0
 10
105.593
 20
134.766
 11
105.579
 21
134.777
  0
LINE
  8
0
 10
105.579
 20
134.777
 11
105.552
 21
134.799
  0
LINE
  8
0
 10
105.552
 20
134.799
 11
105.538
 21
134.809
  0
LINE
  8
0
 10
105.538
 20
134.809
 11
105.523
 21
134.819
  0
LINE
  8
0
 10
105.523
 20
134.819
 11
105.509
 21
134.829
  0
LINE
  8
0
 10
105.509
 20
134.829
 11
105.495
 21
134.839
  0
LINE
  8
0
 10
105.495
 20
134.839
 11
105.479
 21
134.848
  0
LINE
  8
0
 10
105.479
 20
134.848
 11
105.465
 21
134.857
  0
LINE
  8
0
 10
105.465
 20
134.857
 11
105.45
 21
134.866
  0
LINE
  8
0
 10
105.45
 20
134.866
 11
105.435
 21
134.875
  0
LINE
  8
0
 10
105.435
 20
134.875
 11
105.42
 21
134.883
  0
LINE
  8
0
 10
105.42
 20
134.883
 11
105.373
 21
134.906
  0
LINE
  8
0
 10
105.373
 20
134.906
 11
105.356
 21
134.913
  0
LINE
  8
0
 10
105.356
 20
134.913
 11
105.341
 21
134.921
  0
LINE
  8
0
 10
105.341
 20
134.921
 11
105.324
 21
134.927
  0
LINE
  8
0
 10
105.324
 20
134.927
 11
105.309
 21
134.934
  0
LINE
  8
0
 10
105.309
 20
134.934
 11
105.259
 21
134.951
  0
LINE
  8
0
 10
105.259
 20
134.951
 11
105.192
 21
134.971
  0
LINE
  8
0
 10
105.192
 20
134.971
 11
105.175
 21
134.975
  0
LINE
  8
0
 10
105.175
 20
134.975
 11
105.158
 21
134.979
  0
LINE
  8
0
 10
105.158
 20
134.979
 11
105.141
 21
134.981
  0
LINE
  8
0
 10
105.141
 20
134.981
 11
105.124
 21
134.984
  0
LINE
  8
0
 10
105.124
 20
134.984
 11
105.089
 21
134.99
  0
LINE
  8
0
 10
105.089
 20
134.99
 11
105.072
 21
134.992
  0
LINE
  8
0
 10
105.072
 20
134.992
 11
105.02
 21
134.998
  0
LINE
  8
0
 10
105.02
 20
134.998
 11
105.002
 21
134.999
  0
LINE
  8
0
 10
105.002
 20
134.999
 11
104.985
 21
134.999
  0
LINE
  8
0
 10
104.985
 20
134.999
 11
104.968
 21
135
  0
LINE
  8
0
 10
104.968
 20
135
 11
-4.01758
 21
135
  0
LINE
  8
0
 10
-4.01758
 20
135
 11
-4.03516
 21
134.999
  0
LINE
  8
0
 10
-4.03516
 20
134.999
 11
-4.05273
 21
134.999
  0
LINE
  8
0
 10
-4.05273
 20
134.999
 11
-4.06934
 21
134.998
  0
LINE
  8
0
 10
-4.06934
 20
134.998
 11
-4.13965
 21
134.99
  0
LINE
  8
0
 10
-4.13965
 20
134.99
 11
-4.15625
 21
134.987
  0
LINE
  8
0
 10
-4.15625
 20
134.987
 11
-4.17383
 21
134.984
  0
LINE
  8
0
 10
-4.17383
 20
134.984
 11
-4.19043
 21
134.981
  0
LINE
  8
0
 10
-4.19043
 20
134.981
 11
-4.20801
 21
134.979
  0
LINE
  8
0
 10
-4.20801
 20
134.979
 11
-4.22461
 21
134.975
  0
LINE
  8
0
 10
-4.22461
 20
134.975
 11
-4.24219
 21
134.971
  0
LINE
  8
0
 10
-4.24219
 20
134.971
 11
-4.30859
 21
134.951
  0
LINE
  8
0
 10
-4.30859
 20
134.951
 11
-4.3584
 21
134.934
  0
LINE
  8
0
 10
-4.3584
 20
134.934
 11
-4.375
 21
134.927
  0
LINE
  8
0
 10
-4.375
 20
134.927
 11
-4.39062
 21
134.921
  0
LINE
  8
0
 10
-4.39062
 20
134.921
 11
-4.40625
 21
134.913
  0
LINE
  8
0
 10
-4.40625
 20
134.913
 11
-4.42285
 21
134.906
  0
LINE
  8
0
 10
-4.42285
 20
134.906
 11
-4.46973
 21
134.883
  0
LINE
  8
0
 10
-4.46973
 20
134.883
 11
-4.48438
 21
134.875
  0
LINE
  8
0
 10
-4.48438
 20
134.875
 11
-4.5
 21
134.866
  0
LINE
  8
0
 10
-4.5
 20
134.866
 11
-4.51465
 21
134.857
  0
LINE
  8
0
 10
-4.51465
 20
134.857
 11
-4.53027
 21
134.848
  0
LINE
  8
0
 10
-4.53027
 20
134.848
 11
-4.54492
 21
134.839
  0
LINE
  8
0
 10
-4.54492
 20
134.839
 11
-4.55957
 21
134.829
  0
LINE
  8
0
 10
-4.55957
 20
134.829
 11
-4.57324
 21
134.819
  0
LINE
  8
0
 10
-4.57324
 20
134.819
 11
-4.58789
 21
134.809
  0
LINE
  8
0
 10
-4.58789
 20
134.809
 11
-4.60156
 21
134.799
  0
LINE
  8
0
 10
-4.60156
 20
134.799
 11
-4.62891
 21
134.777
  0
LINE
  8
0
 10
-4.62891
 20
134.777
 11
-4.64258
 21
134.766
  0
LINE
  8
0
 10
-4.64258
 20
134.766
 11
-4.65625
 21
134.755
  0
LINE
  8
0
 10
-4.65625
 20
134.755
 11
-4.69434
 21
134.72
  0
LINE
  8
0
 10
-4.69434
 20
134.72
 11
-4.71973
 21
134.694
  0
LINE
  8
0
 10
-4.71973
 20
134.694
 11
-4.75488
 21
134.656
  0
LINE
  8
0
 10
-4.75488
 20
134.656
 11
-4.76562
 21
134.643
  0
LINE
  8
0
 10
-4.76562
 20
134.643
 11
-4.77734
 21
134.629
  0
LINE
  8
0
 10
-4.77734
 20
134.629
 11
-4.79883
 21
134.602
  0
LINE
  8
0
 10
-4.79883
 20
134.602
 11
-4.80859
 21
134.588
  0
LINE
  8
0
 10
-4.80859
 20
134.588
 11
-4.81934
 21
134.573
  0
LINE
  8
0
 10
-4.81934
 20
134.573
 11
-4.8291
 21
134.56
  0
LINE
  8
0
 10
-4.8291
 20
134.56
 11
-4.83887
 21
134.545
  0
LINE
  8
0
 10
-4.83887
 20
134.545
 11
-4.84766
 21
134.53
  0
LINE
  8
0
 10
-4.84766
 20
134.53
 11
-4.85742
 21
134.515
  0
LINE
  8
0
 10
-4.85742
 20
134.515
 11
-4.86621
 21
134.5
  0
LINE
  8
0
 10
-4.86621
 20
134.5
 11
-4.875
 21
134.484
  0
LINE
  8
0
 10
-4.875
 20
134.484
 11
-4.88281
 21
134.47
  0
LINE
  8
0
 10
-4.88281
 20
134.47
 11
-4.90625
 21
134.423
  0
LINE
  8
0
 10
-4.90625
 20
134.423
 11
-4.91309
 21
134.406
  0
LINE
  8
0
 10
-4.91309
 20
134.406
 11
-4.9209
 21
134.391
  0
LINE
  8
0
 10
-4.9209
 20
134.391
 11
-4.92676
 21
134.375
  0
LINE
  8
0
 10
-4.92676
 20
134.375
 11
-4.93359
 21
134.358
  0
LINE
  8
0
 10
-4.93359
 20
134.358
 11
-4.95117
 21
134.309
  0
LINE
  8
0
 10
-4.95117
 20
134.309
 11
-4.9707
 21
134.242
  0
LINE
  8
0
 10
-4.9707
 20
134.242
 11
-4.97461
 21
134.225
  0
LINE
  8
0
 10
-4.97461
 20
134.225
 11
-4.97852
 21
134.208
  0
LINE
  8
0
 10
-4.97852
 20
134.208
 11
-4.98145
 21
134.19
  0
LINE
  8
0
 10
-4.98145
 20
134.19
 11
-4.98438
 21
134.174
  0
LINE
  8
0
 10
-4.98438
 20
134.174
 11
-4.9873
 21
134.156
  0
LINE
  8
0
 10
-4.9873
 20
134.156
 11
-4.99023
 21
134.14
  0
LINE
  8
0
 10
-4.99023
 20
134.14
 11
-4.99805
 21
134.069
  0
LINE
  8
0
 10
-4.99805
 20
134.069
 11
-4.99902
 21
134.053
  0
LINE
  8
0
 10
-4.99902
 20
134.053
 11
-4.99902
 21
134.035
  0
LINE
  8
0
 10
-4.99902
 20
134.035
 11
-5
 21
134.018
  0
LINE
  8
0
 10
-5
 20
134.018
 11
-5
 21
125.982
  0
LINE
  8
0
 10
-5
 20
125.982
 11
-4.99902
 21
125.965
  0
LINE
  8
0
 10
-4.99902
 20
125.965
 11
-4.99902
 21
125.947
  0
LINE
  8
0
 10
-4.99902
 20
125.947
 11
-4.99805
 21
125.931
  0
LINE
  8
0
 10
-4.99805
 20
125.931
 11
-4.99023
 21
125.86
  0
LINE
  8
0
 10
-4.99023
 20
125.86
 11
-4.9873
 21
125.844
  0
LINE
  8
0
 10
-4.9873
 20
125.844
 11
-4.98438
 21
125.826
  0
LINE
  8
0
 10
-4.98438
 20
125.826
 11
-4.98145
 21
125.81
  0
LINE
  8
0
 10
-4.98145
 20
125.81
 11
-4.97852
 21
125.792
  0
LINE
  8
0
 10
-4.97852
 20
125.792
 11
-4.97461
 21
125.775
  0
LINE
  8
0
 10
-4.97461
 20
125.775
 11
-4.9707
 21
125.758
  0
LINE
  8
0
 10
-4.9707
 20
125.758
 11
-4.95117
 21
125.691
  0
LINE
  8
0
 10
-4.95117
 20
125.691
 11
-4.93359
 21
125.642
  0
LINE
  8
0
 10
-4.93359
 20
125.642
 11
-4.92676
 21
125.625
  0
LINE
  8
0
 10
-4.92676
 20
125.625
 11
-4.9209
 21
125.609
  0
LINE
  8
0
 10
-4.9209
 20
125.609
 11
-4.91309
 21
125.594
  0
LINE
  8
0
 10
-4.91309
 20
125.594
 11
-4.90625
 21
125.577
  0
LINE
  8
0
 10
-4.90625
 20
125.577
 11
-4.88281
 21
125.53
  0
LINE
  8
0
 10
-4.88281
 20
125.53
 11
-4.875
 21
125.516
  0
LINE
  8
0
 10
-4.875
 20
125.516
 11
-4.86621
 21
125.5
  0
LINE
  8
0
 10
-4.86621
 20
125.5
 11
-4.85742
 21
125.485
  0
LINE
  8
0
 10
-4.85742
 20
125.485
 11
-4.84766
 21
125.47
  0
LINE
  8
0
 10
-4.84766
 20
125.47
 11
-4.83887
 21
125.455
  0
LINE
  8
0
 10
-4.83887
 20
125.455
 11
-4.8291
 21
125.44
  0
LINE
  8
0
 10
-4.8291
 20
125.44
 11
-4.81934
 21
125.427
  0
LINE
  8
0
 10
-4.81934
 20
125.427
 11
-4.80859
 21
125.412
  0
LINE
  8
0
 10
-4.80859
 20
125.412
 11
-4.79883
 21
125.398
  0
LINE
  8
0
 10
-4.79883
 20
125.398
 11
-4.77734
 21
125.371
  0
LINE
  8
0
 10
-4.77734
 20
125.371
 11
-4.76562
 21
125.357
  0
LINE
  8
0
 10
-4.76562
 20
125.357
 11
-4.75488
 21
125.344
  0
LINE
  8
0
 10
-4.75488
 20
125.344
 11
-4.71973
 21
125.306
  0
LINE
  8
0
 10
-4.71973
 20
125.306
 11
-4.69434
 21
125.28
  0
LINE
  8
0
 10
-4.69434
 20
125.28
 11
-4.65625
 21
125.245
  0
LINE
  8
0
 10
-4.65625
 20
125.245
 11
-4.64258
 21
125.234
  0
LINE
  8
0
 10
-4.64258
 20
125.234
 11
-4.62891
 21
125.223
  0
LINE
  8
0
 10
-4.62891
 20
125.223
 11
-4.60156
 21
125.201
  0
LINE
  8
0
 10
-4.60156
 20
125.201
 11
-4.58789
 21
125.191
  0
LINE
  8
0
 10
-4.58789
 20
125.191
 11
-4.57324
 21
125.181
  0
LINE
  8
0
 10
-4.57324
 20
125.181
 11
-4.55957
 21
125.171
  0
LINE
  8
0
 10
-4.55957
 20
125.171
 11
-4.54492
 21
125.161
  0
LINE
  8
0
 10
-4.54492
 20
125.161
 11
-4.53027
 21
125.152
  0
LINE
  8
0
 10
-4.53027
 20
125.152
 11
-4.51465
 21
125.143
  0
LINE
  8
0
 10
-4.51465
 20
125.143
 11
-4.5
 21
125.134
  0
LINE
  8
0
 10
-4.5
 20
125.134
 11
-4.48438
 21
125.125
  0
LINE
  8
0
 10
-4.48438
 20
125.125
 11
-4.46973
 21
125.117
  0
LINE
  8
0
 10
-4.46973
 20
125.117
 11
-4.42285
 21
125.094
  0
LINE
  8
0
 10
-4.42285
 20
125.094
 11
-4.40625
 21
125.087
  0
LINE
  8
0
 10
-4.40625
 20
125.087
 11
-4.39062
 21
125.079
  0
LINE
  8
0
 10
-4.39062
 20
125.079
 11
-4.375
 21
125.073
  0
LINE
  8
0
 10
-4.375
 20
125.073
 11
-4.3584
 21
125.066
  0
LINE
  8
0
 10
-4.3584
 20
125.066
 11
-4.30859
 21
125.049
  0
LINE
  8
0
 10
-4.30859
 20
125.049
 11
-4.24219
 21
125.029
  0
LINE
  8
0
 10
-4.24219
 20
125.029
 11
-4.22461
 21
125.025
  0
LINE
  8
0
 10
-4.22461
 20
125.025
 11
-4.20801
 21
125.021
  0
LINE
  8
0
 10
-4.20801
 20
125.021
 11
-4.19043
 21
125.019
  0
LINE
  8
0
 10
-4.19043
 20
125.019
 11
-4.17383
 21
125.016
  0
LINE
  8
0
 10
-4.17383
 20
125.016
 11
-4.15625
 21
125.013
  0
LINE
  8
0
 10
-4.15625
 20
125.013
 11
-4.13965
 21
125.01
  0
LINE
  8
0
 10
-4.13965
 20
125.01
 11
-4.06934
 21
125.002
  0
LINE
  8
0
 10
-4.06934
 20
125.002
 11
-4.05273
 21
125.001
  0
LINE
  8
0
 10
-4.05273
 20
125.001
 11
-4.03516
 21
125.001
  0
LINE
  8
0
 10
-4.03516
 20
125.001
 11
-4.01758
 21
125
  0
LINE
  8
0
 10
-4.01758
 20
125
 11
0
 21
125
  0
LINE
  8
0
 10
0
 20
125
 11
0
 21
65
  0
LINE
  8
0
 10
0
 20
65
 11
-4.01758
 21
65
  0
LINE
  8
0
 10
-4.01758
 20
65
 11
-4.03516
 21
64.999
  0
LINE
  8
0
 10
-4.03516
 20
64.999
 11
-4.05273
 21
64.999
  0
LINE
  8
0
 10
-4.05273
 20
64.999
 11
-4.06934
 21
64.998
  0
LINE
  8
0
 10
-4.06934
 20
64.998
 11
-4.13965
 21
64.9902
  0
LINE
  8
0
 10
-4.13965
 20
64.9902
 11
-4.15625
 21
64.9873
  0
LINE
  8
0
 10
-4.15625
 20
64.9873
 11
-4.17383
 21
64.9844
  0
LINE
  8
0
 10
-4.17383
 20
64.9844
 11
-4.19043
 21
64.9814
  0
LINE
  8
0
 10
-4.19043
 20
64.9814
 11
-4.20801
 21
64.9785
  0
LINE
  8
0
 10
-4.20801
 20
64.9785
 11
-4.22461
 21
64.9746
  0
LINE
  8
0
 10
-4.22461
 20
64.9746
 11
-4.24219
 21
64.9707
  0
LINE
  8
0
 10
-4.24219
 20
64.9707
 11
-4.30859
 21
64.9512
  0
LINE
  8
0
 10
-4.30859
 20
64.9512
 11
-4.3584
 21
64.9336
  0
LINE
  8
0
 10
-4.3584
 20
64.9336
 11
-4.375
 21
64.9268
  0
LINE
  8
0
 10
-4.375
 20
64.9268
 11
-4.39062
 21
64.9209
  0
LINE
  8
0
 10
-4.39062
 20
64.9209
 11
-4.40625
 21
64.9131
  0
LINE
  8
0
 10
-4.40625
 20
64.9131
 11
-4.42285
 21
64.9062
  0
LINE
  8
0
 10
-4.42285
 20
64.9062
 11
-4.46973
 21
64.8828
  0
LINE
  8
0
 10
-4.46973
 20
64.8828
 11
-4.48438
 21
64.875
  0
LINE
  8
0
 10
-4.48438
 20
64.875
 11
-4.5
 21
64.8662
  0
LINE
  8
0
 10
-4.5
 20
64.8662
 11
-4.51465
 21
64.8574
  0
LINE
  8
0
 10
-4.51465
 20
64.8574
 11
-4.53027
 21
64.8477
  0
LINE
  8
0
 10
-4.53027
 20
64.8477
 11
-4.54492
 21
64.8389
  0
LINE
  8
0
 10
-4.54492
 20
64.8389
 11
-4.55957
 21
64.8291
  0
LINE
  8
0
 10
-4.55957
 20
64.8291
 11
-4.57324
 21
64.8193
  0
LINE
  8
0
 10
-4.57324
 20
64.8193
 11
-4.58789
 21
64.8086
  0
LINE
  8
0
 10
-4.58789
 20
64.8086
 11
-4.60156
 21
64.7988
  0
LINE
  8
0
 10
-4.60156
 20
64.7988
 11
-4.62891
 21
64.7773
  0
LINE
  8
0
 10
-4.62891
 20
64.7773
 11
-4.64258
 21
64.7656
  0
LINE
  8
0
 10
-4.64258
 20
64.7656
 11
-4.65625
 21
64.7549
  0
LINE
  8
0
 10
-4.65625
 20
64.7549
 11
-4.69434
 21
64.7197
  0
LINE
  8
0
 10
-4.69434
 20
64.7197
 11
-4.71973
 21
64.6943
  0
LINE
  8
0
 10
-4.71973
 20
64.6943
 11
-4.75488
 21
64.6562
  0
LINE
  8
0
 10
-4.75488
 20
64.6562
 11
-4.76562
 21
64.6426
  0
LINE
  8
0
 10
-4.76562
 20
64.6426
 11
-4.77734
 21
64.6289
  0
LINE
  8
0
 10
-4.77734
 20
64.6289
 11
-4.79883
 21
64.6016
  0
LINE
  8
0
 10
-4.79883
 20
64.6016
 11
-4.80859
 21
64.5879
  0
LINE
  8
0
 10
-4.80859
 20
64.5879
 11
-4.81934
 21
64.5732
  0
LINE
  8
0
 10
-4.81934
 20
64.5732
 11
-4.8291
 21
64.5596
  0
LINE
  8
0
 10
-4.8291
 20
64.5596
 11
-4.83887
 21
64.5449
  0
LINE
  8
0
 10
-4.83887
 20
64.5449
 11
-4.84766
 21
64.5303
  0
LINE
  8
0
 10
-4.84766
 20
64.5303
 11
-4.85742
 21
64.5146
  0
LINE
  8
0
 10
-4.85742
 20
64.5146
 11
-4.86621
 21
64.5
  0
LINE
  8
0
 10
-4.86621
 20
64.5
 11
-4.875
 21
64.4844
  0
LINE
  8
0
 10
-4.875
 20
64.4844
 11
-4.88281
 21
64.4697
  0
LINE
  8
0
 10
-4.88281
 20
64.4697
 11
-4.90625
 21
64.4229
  0
LINE
  8
0
 10
-4.90625
 20
64.4229
 11
-4.91309
 21
64.4062
  0
LINE
  8
0
 10
-4.91309
 20
64.4062
 11
-4.9209
 21
64.3906
  0
LINE
  8
0
 10
-4.9209
 20
64.3906
 11
-4.92676
 21
64.375
  0
LINE
  8
0
 10
-4.92676
 20
64.375
 11
-4.93359
 21
64.3584
  0
LINE
  8
0
 10
-4.93359
 20
64.3584
 11
-4.95117
 21
64.3086
  0
LINE
  8
0
 10
-4.95117
 20
64.3086
 11
-4.9707
 21
64.2422
  0
LINE
  8
0
 10
-4.9707
 20
64.2422
 11
-4.97461
 21
64.2246
  0
LINE
  8
0
 10
-4.97461
 20
64.2246
 11
-4.97852
 21
64.208
  0
LINE
  8
0
 10
-4.97852
 20
64.208
 11
-4.98145
 21
64.1904
  0
LINE
  8
0
 10
-4.98145
 20
64.1904
 11
-4.98438
 21
64.1738
  0
LINE
  8
0
 10
-4.98438
 20
64.1738
 11
-4.9873
 21
64.1562
  0
LINE
  8
0
 10
-4.9873
 20
64.1562
 11
-4.99023
 21
64.1396
  0
LINE
  8
0
 10
-4.99023
 20
64.1396
 11
-4.99805
 21
64.0693
  0
LINE
  8
0
 10
-4.99805
 20
64.0693
 11
-4.99902
 21
64.0527
  0
LINE
  8
0
 10
-4.99902
 20
64.0527
 11
-4.99902
 21
64.0352
  0
LINE
  8
0
 10
-4.99902
 20
64.0352
 11
-5
 21
64.0176
  0
LINE
  8
0
 10
-5
 20
64.0176
 11
-5
 21
55.9824
  0
LINE
  8
0
 10
-5
 20
55.9824
 11
-4.99902
 21
55.9648
  0
LINE
  8
0
 10
-4.99902
 20
55.9648
 11
-4.99902
 21
55.9473
  0
LINE
  8
0
 10
-4.99902
 20
55.9473
 11
-4.99805
 21
55.9307
  0
LINE
  8
0
 10
-4.99805
 20
55.9307
 11
-4.99023
 21
55.8604
  0
LINE
  8
0
 10
-4.99023
 20
55.8604
 11
-4.9873
 21
55.8438
  0
LINE
  8
0
 10
-4.9873
 20
55.8438
 11
-4.98438
 21
55.8262
  0
LINE
  8
0
 10
-4.98438
 20
55.8262
 11
-4.98145
 21
55.8096
  0
LINE
  8
0
 10
-4.98145
 20
55.8096
 11
-4.97852
 21
55.792
  0
LINE
  8
0
 10
-4.97852
 20
55.792
 11
-4.97461
 21
55.7754
  0
LINE
  8
0
 10
-4.97461
 20
55.7754
 11
-4.9707
 21
55.7578
  0
LINE
  8
0
 10
-4.9707
 20
55.7578
 11
-4.95117
 21
55.6914
  0
LINE
  8
0
 10
-4.95117
 20
55.6914
 11
-4.93359
 21
55.6416
  0
LINE
  8
0
 10
-4.93359
 20
55.6416
 11
-4.92676
 21
55.625
  0
LINE
  8
0
 10
-4.92676
 20
55.625
 11
-4.9209
 21
55.6094
  0
LINE
  8
0
 10
-4.9209
 20
55.6094
 11
-4.91309
 21
55.5938
  0
LINE
  8
0
 10
-4.91309
 20
55.5938
 11
-4.90625
 21
55.5771
  0
LINE
  8
0
 10
-4.90625
 20
55.5771
 11
-4.88281
 21
55.5303
  0
LINE
  8
0
 10
-4.88281
 20
55.5303
 11
-4.875
 21
55.5156
  0
LINE
  8
0
 10
-4.875
 20
55.5156
 11
-4.86621
 21
55.5
  0
LINE
  8
0
 10
-4.86621
 20
55.5
 11
-4.85742
 21
55.4854
  0
LINE
  8
0
 10
-4.85742
 20
55.4854
 11
-4.84766
 21
55.4697
  0
LINE
  8
0
 10
-4.84766
 20
55.4697
 11
-4.83887
 21
55.4551
  0
LINE
  8
0
 10
-4.83887
 20
55.4551
 11
-4.8291
 21
55.4404
  0
LINE
  8
0
 10
-4.8291
 20
55.4404
 11
-4.81934
 21
55.4268
  0
LINE
  8
0
 10
-4.81934
 20
55.4268
 11
-4.80859
 21
55.4121
  0
LINE
  8
0
 10
-4.80859
 20
55.4121
 11
-4.79883
 21
55.3984
  0
LINE
  8
0
 10
-4.79883
 20
55.3984
 11
-4.77734
 21
55.3711
  0
LINE
  8
0
 10
-4.77734
 20
55.3711
 11
-4.76562
 21
55.3574
  0
LINE
  8
0
 10
-4.76562
 20
55.3574
 11
-4.75488
 21
55.3438
  0
LINE
  8
0
 10
-4.75488
 20
55.3438
 11
-4.71973
 21
55.3057
  0
LINE
  8
0
 10
-4.71973
 20
55.3057
 11
-4.69434
 21
55.2803
  0
LINE
  8
0
 10
-4.69434
 20
55.2803
 11
-4.65625
 21
55.2451
  0
LINE
  8
0
 10
-4.65625
 20
55.2451
 11
-4.64258
 21
55.2344
  0
LINE
  8
0
 10
-4.64258
 20
55.2344
 11
-4.62891
 21
55.2227
  0
LINE
  8
0
 10
-4.62891
 20
55.2227
 11
-4.60156
 21
55.2012
  0
LINE
  8
0
 10
-4.60156
 20
55.2012
 11
-4.58789
 21
55.1914
  0
LINE
  8
0
 10
-4.58789
 20
55.1914
 11
-4.57324
 21
55.1807
  0
LINE
  8
0
 10
-4.57324
 20
55.1807
 11
-4.55957
 21
55.1709
  0
LINE
  8
0
 10
-4.55957
 20
55.1709
 11
-4.54492
 21
55.1611
  0
LINE
  8
0
 10
-4.54492
 20
55.1611
 11
-4.53027
 21
55.1523
  0
LINE
  8
0
 10
-4.53027
 20
55.1523
 11
-4.51465
 21
55.1426
  0
LINE
  8
0
 10
-4.51465
 20
55.1426
 11
-4.5
 21
55.1338
  0
LINE
  8
0
 10
-4.5
 20
55.1338
 11
-4.48438
 21
55.125
  0
LINE
  8
0
 10
-4.48438
 20
55.125
 11
-4.46973
 21
55.1172
  0
LINE
  8
0
 10
-4.46973
 20
55.1172
 11
-4.42285
 21
55.0938
  0
LINE
  8
0
 10
-4.42285
 20
55.0938
 11
-4.40625
 21
55.0869
  0
LINE
  8
0
 10
-4.40625
 20
55.0869
 11
-4.39062
 21
55.0791
  0
LINE
  8
0
 10
-4.39062
 20
55.0791
 11
-4.375
 21
55.0732
  0
LINE
  8
0
 10
-4.375
 20
55.0732
 11
-4.3584
 21
55.0664
  0
LINE
  8
0
 10
-4.3584
 20
55.0664
 11
-4.30859
 21
55.0488
  0
LINE
  8
0
 10
-4.30859
 20
55.0488
 11
-4.24219
 21
55.0293
  0
LINE
  8
0
 10
-4.24219
 20
55.0293
 11
-4.22461
 21
55.0254
  0
LINE
  8
0
 10
-4.22461
 20
55.0254
 11
-4.20801
 21
55.0215
  0
LINE
  8
0
 10
-4.20801
 20
55.0215
 11
-4.19043
 21
55.0186
  0
LINE
  8
0
 10
-4.19043
 20
55.0186
 11
-4.17383
 21
55.0156
  0
LINE
  8
0
 10
-4.17383
 20
55.0156
 11
-4.15625
 21
55.0127
  0
LINE
  8
0
 10
-4.15625
 20
55.0127
 11
-4.13965
 21
55.0098
  0
LINE
  8
0
 10
-4.13965
 20
55.0098
 11
-4.06934
 21
55.002
  0
LINE
  8
0
 10
-4.06934
 20
55.002
 11
-4.05273
 21
55.001
  0
LINE
  8
0
 10
-4.05273
 20
55.001
 11
-4.03516
 21
55.001
  0
LINE
  8
0
 10
-4.03516
 20
55.001
 11
-4.01758
 21
55
  0
LINE
  8
0
 10
-4.01758
 20
55
 11
0
 21
55
  0
LINE
  8
0
 10
0
 20
55
 11
0
 21
0
  0
LINE
  8
0
 10
0
 20
0
 11
100.95
 21
0
  0
LINE
  8
0
 10
100.95
 20
0
 11
100.95
 21
55
  0
LINE
  8
0
 10
92.4717
 20
104.4
 11
92.416
 21
104.402
  0
LINE
  8
0
 10
92.416
 20
104.402
 11
92.3887
 21
104.404
  0
LINE
  8
0
 10
92.3887
 20
104.404
 11
92.3604
 21
104.406
  0
LINE
  8
0
 10
92.3604
 20
104.406
 11
92.333
 21
104.409
  0
LINE
  8
0
 10
92.333
 20
104.409
 11
92.3047
 21
104.412
  0
LINE
  8
0
 10
92.3047
 20
104.412
 11
92.25
 21
104.42
  0
LINE
  8
0
 10
92.25
 20
104.42
 11
92.2217
 21
104.424
  0
LINE
  8
0
 10
92.2217
 20
104.424
 11
92.1943
 21
104.43
  0
LINE
  8
0
 10
92.1943
 20
104.43
 11
92.167
 21
104.435
  0
LINE
  8
0
 10
92.167
 20
104.435
 11
92.1396
 21
104.441
  0
LINE
  8
0
 10
92.1396
 20
104.441
 11
92.1133
 21
104.447
  0
LINE
  8
0
 10
92.1133
 20
104.447
 11
92.0859
 21
104.454
  0
LINE
  8
0
 10
92.0859
 20
104.454
 11
92.0586
 21
104.462
  0
LINE
  8
0
 10
92.0586
 20
104.462
 11
92.0322
 21
104.47
  0
LINE
  8
0
 10
92.0322
 20
104.47
 11
91.9531
 21
104.496
  0
LINE
  8
0
 10
91.9531
 20
104.496
 11
91.9268
 21
104.506
  0
LINE
  8
0
 10
91.9268
 20
104.506
 11
91.9004
 21
104.517
  0
LINE
  8
0
 10
91.9004
 20
104.517
 11
91.8496
 21
104.538
  0
LINE
  8
0
 10
91.8496
 20
104.538
 11
91.7988
 21
104.562
  0
LINE
  8
0
 10
91.7988
 20
104.562
 11
91.7734
 21
104.574
  0
LINE
  8
0
 10
91.7734
 20
104.574
 11
91.749
 21
104.587
  0
LINE
  8
0
 10
91.749
 20
104.587
 11
91.7002
 21
104.614
  0
LINE
  8
0
 10
91.7002
 20
104.614
 11
91.6758
 21
104.629
  0
LINE
  8
0
 10
91.6758
 20
104.629
 11
91.6289
 21
104.658
  0
LINE
  8
0
 10
91.6289
 20
104.658
 11
91.582
 21
104.689
  0
LINE
  8
0
 10
91.582
 20
104.689
 11
91.5146
 21
104.739
  0
LINE
  8
0
 10
91.5146
 20
104.739
 11
91.4502
 21
104.792
  0
LINE
  8
0
 10
91.4502
 20
104.792
 11
91.4297
 21
104.811
  0
LINE
  8
0
 10
91.4297
 20
104.811
 11
91.4092
 21
104.83
  0
LINE
  8
0
 10
91.4092
 20
104.83
 11
91.3887
 21
104.849
  0
LINE
  8
0
 10
91.3887
 20
104.849
 11
91.3682
 21
104.868
  0
LINE
  8
0
 10
91.3682
 20
104.868
 11
91.3486
 21
104.889
  0
LINE
  8
0
 10
91.3486
 20
104.889
 11
91.3301
 21
104.909
  0
LINE
  8
0
 10
91.3301
 20
104.909
 11
91.3105
 21
104.93
  0
LINE
  8
0
 10
91.3105
 20
104.93
 11
91.292
 21
104.95
  0
LINE
  8
0
 10
91.292
 20
104.95
 11
91.2393
 21
105.015
  0
LINE
  8
0
 10
91.2393
 20
105.015
 11
91.1895
 21
105.082
  0
LINE
  8
0
 10
91.1895
 20
105.082
 11
91.1582
 21
105.129
  0
LINE
  8
0
 10
91.1582
 20
105.129
 11
91.1289
 21
105.176
  0
LINE
  8
0
 10
91.1289
 20
105.176
 11
91.1143
 21
105.2
  0
LINE
  8
0
 10
91.1143
 20
105.2
 11
91.0869
 21
105.249
  0
LINE
  8
0
 10
91.0869
 20
105.249
 11
91.0742
 21
105.273
  0
LINE
  8
0
 10
91.0742
 20
105.273
 11
91.0615
 21
105.299
  0
LINE
  8
0
 10
91.0615
 20
105.299
 11
91.0381
 21
105.35
  0
LINE
  8
0
 10
91.0381
 20
105.35
 11
91.0166
 21
105.4
  0
LINE
  8
0
 10
91.0166
 20
105.4
 11
91.0059
 21
105.427
  0
LINE
  8
0
 10
91.0059
 20
105.427
 11
90.9961
 21
105.453
  0
LINE
  8
0
 10
90.9961
 20
105.453
 11
90.9697
 21
105.532
  0
LINE
  8
0
 10
90.9697
 20
105.532
 11
90.9619
 21
105.559
  0
LINE
  8
0
 10
90.9619
 20
105.559
 11
90.9541
 21
105.586
  0
LINE
  8
0
 10
90.9541
 20
105.586
 11
90.9473
 21
105.613
  0
LINE
  8
0
 10
90.9473
 20
105.613
 11
90.9414
 21
105.64
  0
LINE
  8
0
 10
90.9414
 20
105.64
 11
90.9346
 21
105.667
  0
LINE
  8
0
 10
90.9346
 20
105.667
 11
90.9297
 21
105.694
  0
LINE
  8
0
 10
90.9297
 20
105.694
 11
90.9238
 21
105.722
  0
LINE
  8
0
 10
90.9238
 20
105.722
 11
90.9199
 21
105.75
  0
LINE
  8
0
 10
90.9199
 20
105.75
 11
90.9121
 21
105.805
  0
LINE
  8
0
 10
90.9121
 20
105.805
 11
90.9092
 21
105.833
  0
LINE
  8
0
 10
90.9092
 20
105.833
 11
90.9062
 21
105.86
  0
LINE
  8
0
 10
90.9062
 20
105.86
 11
90.9043
 21
105.889
  0
LINE
  8
0
 10
90.9043
 20
105.889
 11
90.9023
 21
105.916
  0
LINE
  8
0
 10
90.9023
 20
105.916
 11
90.9004
 21
105.972
  0
LINE
  8
0
 10
90.9004
 20
105.972
 11
90.9004
 21
106.028
  0
LINE
  8
0
 10
90.9004
 20
106.028
 11
90.9023
 21
106.084
  0
LINE
  8
0
 10
90.9023
 20
106.084
 11
90.9043
 21
106.111
  0
LINE
  8
0
 10
90.9043
 20
106.111
 11
90.9062
 21
106.14
  0
LINE
  8
0
 10
90.9062
 20
106.14
 11
90.9092
 21
106.167
  0
LINE
  8
0
 10
90.9092
 20
106.167
 11
90.9121
 21
106.195
  0
LINE
  8
0
 10
90.9121
 20
106.195
 11
90.9199
 21
106.25
  0
LINE
  8
0
 10
90.9199
 20
106.25
 11
90.9238
 21
106.278
  0
LINE
  8
0
 10
90.9238
 20
106.278
 11
90.9297
 21
106.306
  0
LINE
  8
0
 10
90.9297
 20
106.306
 11
90.9346
 21
106.333
  0
LINE
  8
0
 10
90.9346
 20
106.333
 11
90.9414
 21
106.36
  0
LINE
  8
0
 10
90.9414
 20
106.36
 11
90.9473
 21
106.387
  0
LINE
  8
0
 10
90.9473
 20
106.387
 11
90.9541
 21
106.414
  0
LINE
  8
0
 10
90.9541
 20
106.414
 11
90.9619
 21
106.441
  0
LINE
  8
0
 10
90.9619
 20
106.441
 11
90.9697
 21
106.468
  0
LINE
  8
0
 10
90.9697
 20
106.468
 11
90.9961
 21
106.547
  0
LINE
  8
0
 10
90.9961
 20
106.547
 11
91.0059
 21
106.573
  0
LINE
  8
0
 10
91.0059
 20
106.573
 11
91.0166
 21
106.6
  0
LINE
  8
0
 10
91.0166
 20
106.6
 11
91.0381
 21
106.65
  0
LINE
  8
0
 10
91.0381
 20
106.65
 11
91.0615
 21
106.701
  0
LINE
  8
0
 10
91.0615
 20
106.701
 11
91.0742
 21
106.727
  0
LINE
  8
0
 10
91.0742
 20
106.727
 11
91.0869
 21
106.751
  0
LINE
  8
0
 10
91.0869
 20
106.751
 11
91.1143
 21
106.8
  0
LINE
  8
0
 10
91.1143
 20
106.8
 11
91.1289
 21
106.824
  0
LINE
  8
0
 10
91.1289
 20
106.824
 11
91.1582
 21
106.871
  0
LINE
  8
0
 10
91.1582
 20
106.871
 11
91.1895
 21
106.918
  0
LINE
  8
0
 10
91.1895
 20
106.918
 11
91.2393
 21
106.985
  0
LINE
  8
0
 10
91.2393
 20
106.985
 11
91.292
 21
107.05
  0
LINE
  8
0
 10
91.292
 20
107.05
 11
91.3105
 21
107.07
  0
LINE
  8
0
 10
91.3105
 20
107.07
 11
91.3301
 21
107.091
  0
LINE
  8
0
 10
91.3301
 20
107.091
 11
91.3486
 21
107.111
  0
LINE
  8
0
 10
91.3486
 20
107.111
 11
91.3682
 21
107.132
  0
LINE
  8
0
 10
91.3682
 20
107.132
 11
91.3887
 21
107.151
  0
LINE
  8
0
 10
91.3887
 20
107.151
 11
91.4092
 21
107.17
  0
LINE
  8
0
 10
91.4092
 20
107.17
 11
91.4297
 21
107.189
  0
LINE
  8
0
 10
91.4297
 20
107.189
 11
91.4502
 21
107.208
  0
LINE
  8
0
 10
91.4502
 20
107.208
 11
91.5146
 21
107.261
  0
LINE
  8
0
 10
91.5146
 20
107.261
 11
91.582
 21
107.311
  0
LINE
  8
0
 10
91.582
 20
107.311
 11
91.6289
 21
107.342
  0
LINE
  8
0
 10
91.6289
 20
107.342
 11
91.6758
 21
107.371
  0
LINE
  8
0
 10
91.6758
 20
107.371
 11
91.7002
 21
107.386
  0
LINE
  8
0
 10
91.7002
 20
107.386
 11
91.749
 21
107.413
  0
LINE
  8
0
 10
91.749
 20
107.413
 11
91.7734
 21
107.426
  0
LINE
  8
0
 10
91.7734
 20
107.426
 11
91.7988
 21
107.438
  0
LINE
  8
0
 10
91.7988
 20
107.438
 11
91.8496
 21
107.462
  0
LINE
  8
0
 10
91.8496
 20
107.462
 11
91.9004
 21
107.483
  0
LINE
  8
0
 10
91.9004
 20
107.483
 11
91.9268
 21
107.494
  0
LINE
  8
0
 10
91.9268
 20
107.494
 11
91.9531
 21
107.504
  0
LINE
  8
0
 10
91.9531
 20
107.504
 11
92.0322
 21
107.53
  0
LINE
  8
0
 10
92.0322
 20
107.53
 11
92.0586
 21
107.538
  0
LINE
  8
0
 10
92.0586
 20
107.538
 11
92.0859
 21
107.546
  0
LINE
  8
0
 10
92.0859
 20
107.546
 11
92.1133
 21
107.553
  0
LINE
  8
0
 10
92.1133
 20
107.553
 11
92.1396
 21
107.559
  0
LINE
  8
0
 10
92.1396
 20
107.559
 11
92.167
 21
107.565
  0
LINE
  8
0
 10
92.167
 20
107.565
 11
92.1943
 21
107.57
  0
LINE
  8
0
 10
92.1943
 20
107.57
 11
92.2217
 21
107.576
  0
LINE
  8
0
 10
92.2217
 20
107.576
 11
92.25
 21
107.58
  0
LINE
  8
0
 10
92.25
 20
107.58
 11
92.3047
 21
107.588
  0
LINE
  8
0
 10
92.3047
 20
107.588
 11
92.333
 21
107.591
  0
LINE
  8
0
 10
92.333
 20
107.591
 11
92.3604
 21
107.594
  0
LINE
  8
0
 10
92.3604
 20
107.594
 11
92.3887
 21
107.596
  0
LINE
  8
0
 10
92.3887
 20
107.596
 11
92.416
 21
107.598
  0
LINE
  8
0
 10
92.416
 20
107.598
 11
92.4717
 21
107.6
  0
LINE
  8
0
 10
92.4717
 20
107.6
 11
92.5283
 21
107.6
  0
LINE
  8
0
 10
92.5283
 20
107.6
 11
92.584
 21
107.598
  0
LINE
  8
0
 10
92.584
 20
107.598
 11
92.6113
 21
107.596
  0
LINE
  8
0
 10
92.6113
 20
107.596
 11
92.6396
 21
107.594
  0
LINE
  8
0
 10
92.6396
 20
107.594
 11
92.667
 21
107.591
  0
LINE
  8
0
 10
92.667
 20
107.591
 11
92.6953
 21
107.588
  0
LINE
  8
0
 10
92.6953
 20
107.588
 11
92.75
 21
107.58
  0
LINE
  8
0
 10
92.75
 20
107.58
 11
92.7783
 21
107.576
  0
LINE
  8
0
 10
92.7783
 20
107.576
 11
92.8057
 21
107.57
  0
LINE
  8
0
 10
92.8057
 20
107.57
 11
92.833
 21
107.565
  0
LINE
  8
0
 10
92.833
 20
107.565
 11
92.8604
 21
107.559
  0
LINE
  8
0
 10
92.8604
 20
107.559
 11
92.8867
 21
107.553
  0
LINE
  8
0
 10
92.8867
 20
107.553
 11
92.9141
 21
107.546
  0
LINE
  8
0
 10
92.9141
 20
107.546
 11
92.9414
 21
107.538
  0
LINE
  8
0
 10
92.9414
 20
107.538
 11
92.9678
 21
107.53
  0
LINE
  8
0
 10
92.9678
 20
107.53
 11
93.0469
 21
107.504
  0
LINE
  8
0
 10
93.0469
 20
107.504
 11
93.0732
 21
107.494
  0
LINE
  8
0
 10
93.0732
 20
107.494
 11
93.0996
 21
107.483
  0
LINE
  8
0
 10
93.0996
 20
107.483
 11
93.1504
 21
107.462
  0
LINE
  8
0
 10
93.1504
 20
107.462
 11
93.2012
 21
107.438
  0
LINE
  8
0
 10
93.2012
 20
107.438
 11
93.2266
 21
107.426
  0
LINE
  8
0
 10
93.2266
 20
107.426
 11
93.251
 21
107.413
  0
LINE
  8
0
 10
93.251
 20
107.413
 11
93.2998
 21
107.386
  0
LINE
  8
0
 10
93.2998
 20
107.386
 11
93.3242
 21
107.371
  0
LINE
  8
0
 10
93.3242
 20
107.371
 11
93.3711
 21
107.342
  0
LINE
  8
0
 10
93.3711
 20
107.342
 11
93.418
 21
107.311
  0
LINE
  8
0
 10
93.418
 20
107.311
 11
93.4854
 21
107.261
  0
LINE
  8
0
 10
93.4854
 20
107.261
 11
93.5498
 21
107.208
  0
LINE
  8
0
 10
93.5498
 20
107.208
 11
93.5703
 21
107.189
  0
LINE
  8
0
 10
93.5703
 20
107.189
 11
93.5908
 21
107.17
  0
LINE
  8
0
 10
93.5908
 20
107.17
 11
93.6113
 21
107.151
  0
LINE
  8
0
 10
93.6113
 20
107.151
 11
93.6318
 21
107.132
  0
LINE
  8
0
 10
93.6318
 20
107.132
 11
93.6514
 21
107.111
  0
LINE
  8
0
 10
93.6514
 20
107.111
 11
93.6699
 21
107.091
  0
LINE
  8
0
 10
93.6699
 20
107.091
 11
93.6895
 21
107.07
  0
LINE
  8
0
 10
93.6895
 20
107.07
 11
93.708
 21
107.05
  0
LINE
  8
0
 10
93.708
 20
107.05
 11
93.7607
 21
106.985
  0
LINE
  8
0
 10
93.7607
 20
106.985
 11
93.8105
 21
106.918
  0
LINE
  8
0
 10
93.8105
 20
106.918
 11
93.8418
 21
106.871
  0
LINE
  8
0
 10
93.8418
 20
106.871
 11
93.8711
 21
106.824
  0
LINE
  8
0
 10
93.8711
 20
106.824
 11
93.8857
 21
106.8
  0
LINE
  8
0
 10
93.8857
 20
106.8
 11
93.9131
 21
106.751
  0
LINE
  8
0
 10
93.9131
 20
106.751
 11
93.9258
 21
106.727
  0
LINE
  8
0
 10
93.9258
 20
106.727
 11
93.9385
 21
106.701
  0
LINE
  8
0
 10
93.9385
 20
106.701
 11
93.9619
 21
106.65
  0
LINE
  8
0
 10
93.9619
 20
106.65
 11
93.9834
 21
106.6
  0
LINE
  8
0
 10
93.9834
 20
106.6
 11
93.9941
 21
106.573
  0
LINE
  8
0
 10
93.9941
 20
106.573
 11
94.0039
 21
106.547
  0
LINE
  8
0
 10
94.0039
 20
106.547
 11
94.0303
 21
106.468
  0
LINE
  8
0
 10
94.0303
 20
106.468
 11
94.0381
 21
106.441
  0
LINE
  8
0
 10
94.0381
 20
106.441
 11
94.0459
 21
106.414
  0
LINE
  8
0
 10
94.0459
 20
106.414
 11
94.0527
 21
106.387
  0
LINE
  8
0
 10
94.0527
 20
106.387
 11
94.0586
 21
106.36
  0
LINE
  8
0
 10
94.0586
 20
106.36
 11
94.0654
 21
106.333
  0
LINE
  8
0
 10
94.0654
 20
106.333
 11
94.0703
 21
106.306
  0
LINE
  8
0
 10
94.0703
 20
106.306
 11
94.0762
 21
106.278
  0
LINE
  8
0
 10
94.0762
 20
106.278
 11
94.0801
 21
106.25
  0
LINE
  8
0
 10
94.0801
 20
106.25
 11
94.0879
 21
106.195
  0
LINE
  8
0
 10
94.0879
 20
106.195
 11
94.0908
 21
106.167
  0
LINE
  8
0
 10
94.0908
 20
106.167
 11
94.0938
 21
106.14
  0
LINE
  8
0
 10
94.0938
 20
106.14
 11
94.0957
 21
106.111
  0
LINE
  8
0
 10
94.0957
 20
106.111
 11
94.0977
 21
106.084
  0
LINE
  8
0
 10
94.0977
 20
106.084
 11
94.0996
 21
106.028
  0
LINE
  8
0
 10
94.0996
 20
106.028
 11
94.0996
 21
105.972
  0
LINE
  8
0
 10
94.0996
 20
105.972
 11
94.0977
 21
105.916
  0
LINE
  8
0
 10
94.0977
 20
105.916
 11
94.0957
 21
105.889
  0
LINE
  8
0
 10
94.0957
 20
105.889
 11
94.0938
 21
105.86
  0
LINE
  8
0
 10
94.0938
 20
105.86
 11
94.0908
 21
105.833
  0
LINE
  8
0
 10
94.0908
 20
105.833
 11
94.0879
 21
105.805
  0
LINE
  8
0
 10
94.0879
 20
105.805
 11
94.0801
 21
105.75
  0
LINE
  8
0
 10
94.0801
 20
105.75
 11
94.0762
 21
105.722
  0
LINE
  8
0
 10
94.0762
 20
105.722
 11
94.0703
 21
105.694
  0
LINE
  8
0
 10
94.0703
 20
105.694
 11
94.0654
 21
105.667
  0
LINE
  8
0
 10
94.0654
 20
105.667
 11
94.0586
 21
105.64
  0
LINE
  8
0
 10
94.0586
 20
105.64
 11
94.0527
 21
105.613
  0
LINE
  8
0
 10
94.0527
 20
105.613
 11
94.0459
 21
105.586
  0
LINE
  8
0
 10
94.0459
 20
105.586
 11
94.0381
 21
105.559
  0
LINE
  8
0
 10
94.0381
 20
105.559
 11
94.0303
 21
105.532
  0
LINE
  8
0
 10
94.0303
 20
105.532
 11
94.0039
 21
105.453
  0
LINE
  8
0
 10
94.0039
 20
105.453
 11
93.9941
 21
105.427
  0
LINE
  8
0
 10
93.9941
 20
105.427
 11
93.9834
 21
105.4
  0
LINE
  8
0
 10
93.9834
 20
105.4
 11
93.9619
 21
105.35
  0
LINE
  8
0
 10
93.9619
 20
105.35
 11
93.9385
 21
105.299
  0
LINE
  8
0
 10
93.9385
 20
105.299
 11
93.9258
 21
105.273
  0
LINE
  8
0
 10
93.9258
 20
105.273
 11
93.9131
 21
105.249
  0
LINE
  8
0
 10
93.9131
 20
105.249
 11
93.8857
 21
105.2
  0
LINE
  8
0
 10
93.8857
 20
105.2
 11
93.8711
 21
105.176
  0
LINE
  8
0
 10
93.8711
 20
105.176
 11
93.8418
 21
105.129
  0
LINE
  8
0
 10
93.8418
 20
105.129
 11
93.8105
 21
105.082
  0
LINE
  8
0
 10
93.8105
 20
105.082
 11
93.7607
 21
105.015
  0
LINE
  8
0
 10
93.7607
 20
105.015
 11
93.708
 21
104.95
  0
LINE
  8
0
 10
93.708
 20
104.95
 11
93.6895
 21
104.93
  0
LINE
  8
0
 10
93.6895
 20
104.93
 11
93.6699
 21
104.909
  0
LINE
  8
0
 10
93.6699
 20
104.909
 11
93.6514
 21
104.889
  0
LINE
  8
0
 10
93.6514
 20
104.889
 11
93.6318
 21
104.868
  0
LINE
  8
0
 10
93.6318
 20
104.868
 11
93.6113
 21
104.849
  0
LINE
  8
0
 10
93.6113
 20
104.849
 11
93.5908
 21
104.83
  0
LINE
  8
0
 10
93.5908
 20
104.83
 11
93.5703
 21
104.811
  0
LINE
  8
0
 10
93.5703
 20
104.811
 11
93.5498
 21
104.792
  0
LINE
  8
0
 10
93.5498
 20
104.792
 11
93.4854
 21
104.739
  0
LINE
  8
0
 10
93.4854
 20
104.739
 11
93.418
 21
104.689
  0
LINE
  8
0
 10
93.418
 20
104.689
 11
93.3711
 21
104.658
  0
LINE
  8
0
 10
93.3711
 20
104.658
 11
93.3242
 21
104.629
  0
LINE
  8
0
 10
93.3242
 20
104.629
 11
93.2998
 21
104.614
  0
LINE
  8
0
 10
93.2998
 20
104.614
 11
93.251
 21
104.587
  0
LINE
  8
0
 10
93.251
 20
104.587
 11
93.2266
 21
104.574
  0
LINE
  8
0
 10
93.2266
 20
104.574
 11
93.2012
 21
104.562
  0
LINE
  8
0
 10
93.2012
 20
104.562
 11
93.1504
 21
104.538
  0
LINE
  8
0
 10
93.1504
 20
104.538
 11
93.0996
 21
104.517
  0
LINE
  8
0
 10
93.0996
 20
104.517
 11
93.0732
 21
104.506
  0
LINE
  8
0
 10
93.0732
 20
104.506
 11
93.0469
 21
104.496
  0
LINE
  8
0
 10
93.0469
 20
104.496
 11
92.9678
 21
104.47
  0
LINE
  8
0
 10
92.9678
 20
104.47
 11
92.9414
 21
104.462
  0
LINE
  8
0
 10
92.9414
 20
104.462
 11
92.9141
 21
104.454
  0
LINE
  8
0
 10
92.9141
 20
104.454
 11
92.8867
 21
104.447
  0
LINE
  8
0
 10
92.8867
 20
104.447
 11
92.8604
 21
104.441
  0
LINE
  8
0
 10
92.8604
 20
104.441
 11
92.833
 21
104.435
  0
LINE
  8
0
 10
92.833
 20
104.435
 11
92.8057
 21
104.43
  0
LINE
  8
0
 10
92.8057
 20
104.43
 11
92.7783
 21
104.424
  0
LINE
  8
0
 10
92.7783
 20
104.424
 11
92.75
 21
104.42
  0
LINE
  8
0
 10
92.75
 20
104.42
 11
92.6953
 21
104.412
  0
LINE
  8
0
 10
92.6953
 20
104.412
 11
92.667
 21
104.409
  0
LINE
  8
0
 10
92.667
 20
104.409
 11
92.6396
 21
104.406
  0
LINE
  8
0
 10
92.6396
 20
104.406
 11
92.6113
 21
104.404
  0
LINE
  8
0
 10
92.6113
 20
104.404
 11
92.584
 21
104.402
  0
LINE
  8
0
 10
92.584
 20
104.402
 11
92.5283
 21
104.4
  0
LINE
  8
0
 10
92.5283
 20
104.4
 11
92.4717
 21
104.4
  0
LINE
  8
0
 10
67.5
 20
69.0283
 11
67.5
 21
100
  0
LINE
  8
0
 10
67.5
 20
100
 11
95
 21
100
  0
LINE
  8
0
 10
95
 20
100
 11
95
 21
68.9512
  0
LINE
  8
0
 10
95
 20
68.9512
 11
67.5
 21
69.0283
  0
LINE
  8
0
 10
17.4717
 20
89.9004
 11
17.416
 21
89.9023
  0
LINE
  8
0
 10
17.416
 20
89.9023
 11
17.3887
 21
89.9043
  0
LINE
  8
0
 10
17.3887
 20
89.9043
 11
17.3604
 21
89.9062
  0
LINE
  8
0
 10
17.3604
 20
89.9062
 11
17.333
 21
89.9092
  0
LINE
  8
0
 10
17.333
 20
89.9092
 11
17.3047
 21
89.9121
  0
LINE
  8
0
 10
17.3047
 20
89.9121
 11
17.25
 21
89.9199
  0
LINE
  8
0
 10
17.25
 20
89.9199
 11
17.2217
 21
89.9238
  0
LINE
  8
0
 10
17.2217
 20
89.9238
 11
17.1943
 21
89.9297
  0
LINE
  8
0
 10
17.1943
 20
89.9297
 11
17.167
 21
89.9346
  0
LINE
  8
0
 10
17.167
 20
89.9346
 11
17.1396
 21
89.9414
  0
LINE
  8
0
 10
17.1396
 20
89.9414
 11
17.1133
 21
89.9473
  0
LINE
  8
0
 10
17.1133
 20
89.9473
 11
17.0859
 21
89.9541
  0
LINE
  8
0
 10
17.0859
 20
89.9541
 11
17.0586
 21
89.9619
  0
LINE
  8
0
 10
17.0586
 20
89.9619
 11
17.0322
 21
89.9697
  0
LINE
  8
0
 10
17.0322
 20
89.9697
 11
16.9531
 21
89.9961
  0
LINE
  8
0
 10
16.9531
 20
89.9961
 11
16.9268
 21
90.0059
  0
LINE
  8
0
 10
16.9268
 20
90.0059
 11
16.9004
 21
90.0166
  0
LINE
  8
0
 10
16.9004
 20
90.0166
 11
16.8496
 21
90.0381
  0
LINE
  8
0
 10
16.8496
 20
90.0381
 11
16.7988
 21
90.0615
  0
LINE
  8
0
 10
16.7988
 20
90.0615
 11
16.7734
 21
90.0742
  0
LINE
  8
0
 10
16.7734
 20
90.0742
 11
16.749
 21
90.0869
  0
LINE
  8
0
 10
16.749
 20
90.0869
 11
16.7002
 21
90.1143
  0
LINE
  8
0
 10
16.7002
 20
90.1143
 11
16.6758
 21
90.1289
  0
LINE
  8
0
 10
16.6758
 20
90.1289
 11
16.6289
 21
90.1582
  0
LINE
  8
0
 10
16.6289
 20
90.1582
 11
16.582
 21
90.1895
  0
LINE
  8
0
 10
16.582
 20
90.1895
 11
16.5146
 21
90.2393
  0
LINE
  8
0
 10
16.5146
 20
90.2393
 11
16.4502
 21
90.292
  0
LINE
  8
0
 10
16.4502
 20
90.292
 11
16.4297
 21
90.3105
  0
LINE
  8
0
 10
16.4297
 20
90.3105
 11
16.4092
 21
90.3301
  0
LINE
  8
0
 10
16.4092
 20
90.3301
 11
16.3887
 21
90.3486
  0
LINE
  8
0
 10
16.3887
 20
90.3486
 11
16.3682
 21
90.3682
  0
LINE
  8
0
 10
16.3682
 20
90.3682
 11
16.3486
 21
90.3887
  0
LINE
  8
0
 10
16.3486
 20
90.3887
 11
16.3301
 21
90.4092
  0
LINE
  8
0
 10
16.3301
 20
90.4092
 11
16.3105
 21
90.4297
  0
LINE
  8
0
 10
16.3105
 20
90.4297
 11
16.292
 21
90.4502
  0
LINE
  8
0
 10
16.292
 20
90.4502
 11
16.2393
 21
90.5146
  0
LINE
  8
0
 10
16.2393
 20
90.5146
 11
16.1895
 21
90.582
  0
LINE
  8
0
 10
16.1895
 20
90.582
 11
16.1582
 21
90.6289
  0
LINE
  8
0
 10
16.1582
 20
90.6289
 11
16.1289
 21
90.6758
  0
LINE
  8
0
 10
16.1289
 20
90.6758
 11
16.1143
 21
90.7002
  0
LINE
  8
0
 10
16.1143
 20
90.7002
 11
16.0869
 21
90.749
  0
LINE
  8
0
 10
16.0869
 20
90.749
 11
16.0742
 21
90.7734
  0
LINE
  8
0
 10
16.0742
 20
90.7734
 11
16.0615
 21
90.7988
  0
LINE
  8
0
 10
16.0615
 20
90.7988
 11
16.0381
 21
90.8496
  0
LINE
  8
0
 10
16.0381
 20
90.8496
 11
16.0166
 21
90.9004
  0
LINE
  8
0
 10
16.0166
 20
90.9004
 11
16.0059
 21
90.9268
  0
LINE
  8
0
 10
16.0059
 20
90.9268
 11
15.9961
 21
90.9531
  0
LINE
  8
0
 10
15.9961
 20
90.9531
 11
15.9697
 21
91.0322
  0
LINE
  8
0
 10
15.9697
 20
91.0322
 11
15.9619
 21
91.0586
  0
LINE
  8
0
 10
15.9619
 20
91.0586
 11
15.9541
 21
91.0859
  0
LINE
  8
0
 10
15.9541
 20
91.0859
 11
15.9473
 21
91.1133
  0
LINE
  8
0
 10
15.9473
 20
91.1133
 11
15.9414
 21
91.1396
  0
LINE
  8
0
 10
15.9414
 20
91.1396
 11
15.9346
 21
91.167
  0
LINE
  8
0
 10
15.9346
 20
91.167
 11
15.9297
 21
91.1943
  0
LINE
  8
0
 10
15.9297
 20
91.1943
 11
15.9238
 21
91.2217
  0
LINE
  8
0
 10
15.9238
 20
91.2217
 11
15.9199
 21
91.25
  0
LINE
  8
0
 10
15.9199
 20
91.25
 11
15.9121
 21
91.3047
  0
LINE
  8
0
 10
15.9121
 20
91.3047
 11
15.9092
 21
91.333
  0
LINE
  8
0
 10
15.9092
 20
91.333
 11
15.9062
 21
91.3604
  0
LINE
  8
0
 10
15.9062
 20
91.3604
 11
15.9043
 21
91.3887
  0
LINE
  8
0
 10
15.9043
 20
91.3887
 11
15.9023
 21
91.416
  0
LINE
  8
0
 10
15.9023
 20
91.416
 11
15.9004
 21
91.4717
  0
LINE
  8
0
 10
15.9004
 20
91.4717
 11
15.9004
 21
91.5283
  0
LINE
  8
0
 10
15.9004
 20
91.5283
 11
15.9023
 21
91.584
  0
LINE
  8
0
 10
15.9023
 20
91.584
 11
15.9043
 21
91.6113
  0
LINE
  8
0
 10
15.9043
 20
91.6113
 11
15.9062
 21
91.6396
  0
LINE
  8
0
 10
15.9062
 20
91.6396
 11
15.9092
 21
91.667
  0
LINE
  8
0
 10
15.9092
 20
91.667
 11
15.9121
 21
91.6953
  0
LINE
  8
0
 10
15.9121
 20
91.6953
 11
15.9199
 21
91.75
  0
LINE
  8
0
 10
15.9199
 20
91.75
 11
15.9238
 21
91.7783
  0
LINE
  8
0
 10
15.9238
 20
91.7783
 11
15.9297
 21
91.8057
  0
LINE
  8
0
 10
15.9297
 20
91.8057
 11
15.9346
 21
91.833
  0
LINE
  8
0
 10
15.9346
 20
91.833
 11
15.9414
 21
91.8604
  0
LINE
  8
0
 10
15.9414
 20
91.8604
 11
15.9473
 21
91.8867
  0
LINE
  8
0
 10
15.9473
 20
91.8867
 11
15.9541
 21
91.9141
  0
LINE
  8
0
 10
15.9541
 20
91.9141
 11
15.9619
 21
91.9414
  0
LINE
  8
0
 10
15.9619
 20
91.9414
 11
15.9697
 21
91.9678
  0
LINE
  8
0
 10
15.9697
 20
91.9678
 11
15.9961
 21
92.0469
  0
LINE
  8
0
 10
15.9961
 20
92.0469
 11
16.0059
 21
92.0732
  0
LINE
  8
0
 10
16.0059
 20
92.0732
 11
16.0166
 21
92.0996
  0
LINE
  8
0
 10
16.0166
 20
92.0996
 11
16.0381
 21
92.1504
  0
LINE
  8
0
 10
16.0381
 20
92.1504
 11
16.0615
 21
92.2012
  0
LINE
  8
0
 10
16.0615
 20
92.2012
 11
16.0742
 21
92.2266
  0
LINE
  8
0
 10
16.0742
 20
92.2266
 11
16.0869
 21
92.251
  0
LINE
  8
0
 10
16.0869
 20
92.251
 11
16.1143
 21
92.2998
  0
LINE
  8
0
 10
16.1143
 20
92.2998
 11
16.1289
 21
92.3242
  0
LINE
  8
0
 10
16.1289
 20
92.3242
 11
16.1582
 21
92.3711
  0
LINE
  8
0
 10
16.1582
 20
92.3711
 11
16.1895
 21
92.418
  0
LINE
  8
0
 10
16.1895
 20
92.418
 11
16.2393
 21
92.4854
  0
LINE
  8
0
 10
16.2393
 20
92.4854
 11
16.292
 21
92.5498
  0
LINE
  8
0
 10
16.292
 20
92.5498
 11
16.3105
 21
92.5703
  0
LINE
  8
0
 10
16.3105
 20
92.5703
 11
16.3301
 21
92.5908
  0
LINE
  8
0
 10
16.3301
 20
92.5908
 11
16.3486
 21
92.6113
  0
LINE
  8
0
 10
16.3486
 20
92.6113
 11
16.3682
 21
92.6318
  0
LINE
  8
0
 10
16.3682
 20
92.6318
 11
16.3887
 21
92.6514
  0
LINE
  8
0
 10
16.3887
 20
92.6514
 11
16.4092
 21
92.6699
  0
LINE
  8
0
 10
16.4092
 20
92.6699
 11
16.4297
 21
92.6895
  0
LINE
  8
0
 10
16.4297
 20
92.6895
 11
16.4502
 21
92.708
  0
LINE
  8
0
 10
16.4502
 20
92.708
 11
16.5146
 21
92.7607
  0
LINE
  8
0
 10
16.5146
 20
92.7607
 11
16.582
 21
92.8105
  0
LINE
  8
0
 10
16.582
 20
92.8105
 11
16.6289
 21
92.8418
  0
LINE
  8
0
 10
16.6289
 20
92.8418
 11
16.6758
 21
92.8711
  0
LINE
  8
0
 10
16.6758
 20
92.8711
 11
16.7002
 21
92.8857
  0
LINE
  8
0
 10
16.7002
 20
92.8857
 11
16.749
 21
92.9131
  0
LINE
  8
0
 10
16.749
 20
92.9131
 11
16.7734
 21
92.9258
  0
LINE
  8
0
 10
16.7734
 20
92.9258
 11
16.7988
 21
92.9385
  0
LINE
  8
0
 10
16.7988
 20
92.9385
 11
16.8496
 21
92.9619
  0
LINE
  8
0
 10
16.8496
 20
92.9619
 11
16.9004
 21
92.9834
  0
LINE
  8
0
 10
16.9004
 20
92.9834
 11
16.9268
 21
92.9941
  0
LINE
  8
0
 10
16.9268
 20
92.9941
 11
16.9531
 21
93.0039
  0
LINE
  8
0
 10
16.9531
 20
93.0039
 11
17.0322
 21
93.0303
  0
LINE
  8
0
 10
17.0322
 20
93.0303
 11
17.0586
 21
93.0381
  0
LINE
  8
0
 10
17.0586
 20
93.0381
 11
17.0859
 21
93.0459
  0
LINE
  8
0
 10
17.0859
 20
93.0459
 11
17.1133
 21
93.0527
  0
LINE
  8
0
 10
17.1133
 20
93.0527
 11
17.1396
 21
93.0586
  0
LINE
  8
0
 10
17.1396
 20
93.0586
 11
17.167
 21
93.0654
  0
LINE
  8
0
 10
17.167
 20
93.0654
 11
17.1943
 21
93.0703
  0
LINE
  8
0
 10
17.1943
 20
93.0703
 11
17.2217
 21
93.0762
  0
LINE
  8
0
 10
17.2217
 20
93.0762
 11
17.25
 21
93.0801
  0
LINE
  8
0
 10
17.25
 20
93.0801
 11
17.3047
 21
93.0879
  0
LINE
  8
0
 10
17.3047
 20
93.0879
 11
17.333
 21
93.0908
  0
LINE
  8
0
 10
17.333
 20
93.0908
 11
17.3604
 21
93.0938
  0
LINE
  8
0
 10
17.3604
 20
93.0938
 11
17.3887
 21
93.0957
  0
LINE
  8
0
 10
17.3887
 20
93.0957
 11
17.416
 21
93.0977
  0
LINE
  8
0
 10
17.416
 20
93.0977
 11
17.4717
 21
93.0996
  0
LINE
  8
0
 10
17.4717
 20
93.0996
 11
17.5283
 21
93.0996
  0
LINE
  8
0
 10
17.5283
 20
93.0996
 11
17.584
 21
93.0977
  0
LINE
  8
0
 10
17.584
 20
93.0977
 11
17.6113
 21
93.0957
  0
LINE
  8
0
 10
17.6113
 20
93.0957
 11
17.6396
 21
93.0938
  0
LINE
  8
0
 10
17.6396
 20
93.0938
 11
17.667
 21
93.0908
  0
LINE
  8
0
 10
17.667
 20
93.0908
 11
17.6953
 21
93.0879
  0
LINE
  8
0
 10
17.6953
 20
93.0879
 11
17.75
 21
93.0801
  0
LINE
  8
0
 10
17.75
 20
93.0801
 11
17.7783
 21
93.0762
  0
LINE
  8
0
 10
17.7783
 20
93.0762
 11
17.8057
 21
93.0703
  0
LINE
  8
0
 10
17.8057
 20
93.0703
 11
17.833
 21
93.0654
  0
LINE
  8
0
 10
17.833
 20
93.0654
 11
17.8604
 21
93.0586
  0
LINE
  8
0
 10
17.8604
 20
93.0586
 11
17.8867
 21
93.0527
  0
LINE
  8
0
 10
17.8867
 20
93.0527
 11
17.9141
 21
93.0459
  0
LINE
  8
0
 10
17.9141
 20
93.0459
 11
17.9414
 21
93.0381
  0
LINE
  8
0
 10
17.9414
 20
93.0381
 11
17.9678
 21
93.0303
  0
LINE
  8
0
 10
17.9678
 20
93.0303
 11
18.0469
 21
93.0039
  0
LINE
  8
0
 10
18.0469
 20
93.0039
 11
18.0732
 21
92.9941
  0
LINE
  8
0
 10
18.0732
 20
92.9941
 11
18.0996
 21
92.9834
  0
LINE
  8
0
 10
18.0996
 20
92.9834
 11
18.1504
 21
92.9619
  0
LINE
  8
0
 10
18.1504
 20
92.9619
 11
18.2012
 21
92.9385
  0
LINE
  8
0
 10
18.2012
 20
92.9385
 11
18.2266
 21
92.9258
  0
LINE
  8
0
 10
18.2266
 20
92.9258
 11
18.251
 21
92.9131
  0
LINE
  8
0
 10
18.251
 20
92.9131
 11
18.2998
 21
92.8857
  0
LINE
  8
0
 10
18.2998
 20
92.8857
 11
18.3242
 21
92.8711
  0
LINE
  8
0
 10
18.3242
 20
92.8711
 11
18.3711
 21
92.8418
  0
LINE
  8
0
 10
18.3711
 20
92.8418
 11
18.418
 21
92.8105
  0
LINE
  8
0
 10
18.418
 20
92.8105
 11
18.4854
 21
92.7607
  0
LINE
  8
0
 10
18.4854
 20
92.7607
 11
18.5498
 21
92.708
  0
LINE
  8
0
 10
18.5498
 20
92.708
 11
18.5703
 21
92.6895
  0
LINE
  8
0
 10
18.5703
 20
92.6895
 11
18.5908
 21
92.6699
  0
LINE
  8
0
 10
18.5908
 20
92.6699
 11
18.6113
 21
92.6514
  0
LINE
  8
0
 10
18.6113
 20
92.6514
 11
18.6318
 21
92.6318
  0
LINE
  8
0
 10
18.6318
 20
92.6318
 11
18.6514
 21
92.6113
  0
LINE
  8
0
 10
18.6514
 20
92.6113
 11
18.6699
 21
92.5908
  0
LINE
  8
0
 10
18.6699
 20
92.5908
 11
18.6895
 21
92.5703
  0
LINE
  8
0
 10
18.6895
 20
92.5703
 11
18.708
 21
92.5498
  0
LINE
  8
0
 10
18.708
 20
92.5498
 11
18.7607
 21
92.4854
  0
LINE
  8
0
 10
18.7607
 20
92.4854
 11
18.8105
 21
92.418
  0
LINE
  8
0
 10
18.8105
 20
92.418
 11
18.8418
 21
92.3711
  0
LINE
  8
0
 10
18.8418
 20
92.3711
 11
18.8711
 21
92.3242
  0
LINE
  8
0
 10
18.8711
 20
92.3242
 11
18.8857
 21
92.2998
  0
LINE
  8
0
 10
18.8857
 20
92.2998
 11
18.9131
 21
92.251
  0
LINE
  8
0
 10
18.9131
 20
92.251
 11
18.9258
 21
92.2266
  0
LINE
  8
0
 10
18.9258
 20
92.2266
 11
18.9385
 21
92.2012
  0
LINE
  8
0
 10
18.9385
 20
92.2012
 11
18.9619
 21
92.1504
  0
LINE
  8
0
 10
18.9619
 20
92.1504
 11
18.9834
 21
92.0996
  0
LINE
  8
0
 10
18.9834
 20
92.0996
 11
18.9941
 21
92.0732
  0
LINE
  8
0
 10
18.9941
 20
92.0732
 11
19.0039
 21
92.0469
  0
LINE
  8
0
 10
19.0039
 20
92.0469
 11
19.0303
 21
91.9678
  0
LINE
  8
0
 10
19.0303
 20
91.9678
 11
19.0381
 21
91.9414
  0
LINE
  8
0
 10
19.0381
 20
91.9414
 11
19.0459
 21
91.9141
  0
LINE
  8
0
 10
19.0459
 20
91.9141
 11
19.0527
 21
91.8867
  0
LINE
  8
0
 10
19.0527
 20
91.8867
 11
19.0586
 21
91.8604
  0
LINE
  8
0
 10
19.0586
 20
91.8604
 11
19.0654
 21
91.833
  0
LINE
  8
0
 10
19.0654
 20
91.833
 11
19.0703
 21
91.8057
  0
LINE
  8
0
 10
19.0703
 20
91.8057
 11
19.0762
 21
91.7783
  0
LINE
  8
0
 10
19.0762
 20
91.7783
 11
19.0801
 21
91.75
  0
LINE
  8
0
 10
19.0801
 20
91.75
 11
19.0879
 21
91.6953
  0
LINE
  8
0
 10
19.0879
 20
91.6953
 11
19.0908
 21
91.667
  0
LINE
  8
0
 10
19.0908
 20
91.667
 11
19.0938
 21
91.6396
  0
LINE
  8
0
 10
19.0938
 20
91.6396
 11
19.0957
 21
91.6113
  0
LINE
  8
0
 10
19.0957
 20
91.6113
 11
19.0977
 21
91.584
  0
LINE
  8
0
 10
19.0977
 20
91.584
 11
19.0996
 21
91.5283
  0
LINE
  8
0
 10
19.0996
 20
91.5283
 11
19.0996
 21
91.4717
  0
LINE
  8
0
 10
19.0996
 20
91.4717
 11
19.0977
 21
91.416
  0
LINE
  8
0
 10
19.0977
 20
91.416
 11
19.0957
 21
91.3887
  0
LINE
  8
0
 10
19.0957
 20
91.3887
 11
19.0938
 21
91.3604
  0
LINE
  8
0
 10
19.0938
 20
91.3604
 11
19.0908
 21
91.333
  0
LINE
  8
0
 10
19.0908
 20
91.333
 11
19.0879
 21
91.3047
  0
LINE
  8
0
 10
19.0879
 20
91.3047
 11
19.0801
 21
91.25
  0
LINE
  8
0
 10
19.0801
 20
91.25
 11
19.0762
 21
91.2217
  0
LINE
  8
0
 10
19.0762
 20
91.2217
 11
19.0703
 21
91.1943
  0
LINE
  8
0
 10
19.0703
 20
91.1943
 11
19.0654
 21
91.167
  0
LINE
  8
0
 10
19.0654
 20
91.167
 11
19.0586
 21
91.1396
  0
LINE
  8
0
 10
19.0586
 20
91.1396
 11
19.0527
 21
91.1133
  0
LINE
  8
0
 10
19.0527
 20
91.1133
 11
19.0459
 21
91.0859
  0
LINE
  8
0
 10
19.0459
 20
91.0859
 11
19.0381
 21
91.0586
  0
LINE
  8
0
 10
19.0381
 20
91.0586
 11
19.0303
 21
91.0322
  0
LINE
  8
0
 10
19.0303
 20
91.0322
 11
19.0039
 21
90.9531
  0
LINE
  8
0
 10
19.0039
 20
90.9531
 11
18.9941
 21
90.9268
  0
LINE
  8
0
 10
18.9941
 20
90.9268
 11
18.9834
 21
90.9004
  0
LINE
  8
0
 10
18.9834
 20
90.9004
 11
18.9619
 21
90.8496
  0
LINE
  8
0
 10
18.9619
 20
90.8496
 11
18.9385
 21
90.7988
  0
LINE
  8
0
 10
18.9385
 20
90.7988
 11
18.9258
 21
90.7734
  0
LINE
  8
0
 10
18.9258
 20
90.7734
 11
18.9131
 21
90.749
  0
LINE
  8
0
 10
18.9131
 20
90.749
 11
18.8857
 21
90.7002
  0
LINE
  8
0
 10
18.8857
 20
90.7002
 11
18.8711
 21
90.6758
  0
LINE
  8
0
 10
18.8711
 20
90.6758
 11
18.8418
 21
90.6289
  0
LINE
  8
0
 10
18.8418
 20
90.6289
 11
18.8105
 21
90.582
  0
LINE
  8
0
 10
18.8105
 20
90.582
 11
18.7607
 21
90.5146
  0
LINE
  8
0
 10
18.7607
 20
90.5146
 11
18.708
 21
90.4502
  0
LINE
  8
0
 10
18.708
 20
90.4502
 11
18.6895
 21
90.4297
  0
LINE
  8
0
 10
18.6895
 20
90.4297
 11
18.6699
 21
90.4092
  0
LINE
  8
0
 10
18.6699
 20
90.4092
 11
18.6514
 21
90.3887
  0
LINE
  8
0
 10
18.6514
 20
90.3887
 11
18.6318
 21
90.3682
  0
LINE
  8
0
 10
18.6318
 20
90.3682
 11
18.6113
 21
90.3486
  0
LINE
  8
0
 10
18.6113
 20
90.3486
 11
18.5908
 21
90.3301
  0
LINE
  8
0
 10
18.5908
 20
90.3301
 11
18.5703
 21
90.3105
  0
LINE
  8
0
 10
18.5703
 20
90.3105
 11
18.5498
 21
90.292
  0
LINE
  8
0
 10
18.5498
 20
90.292
 11
18.4854
 21
90.2393
  0
LINE
  8
0
 10
18.4854
 20
90.2393
 11
18.418
 21
90.1895
  0
LINE
  8
0
 10
18.418
 20
90.1895
 11
18.3711
 21
90.1582
  0
LINE
  8
0
 10
18.3711
 20
90.1582
 11
18.3242
 21
90.1289
  0
LINE
  8
0
 10
18.3242
 20
90.1289
 11
18.2998
 21
90.1143
  0
LINE
  8
0
 10
18.2998
 20
90.1143
 11
18.251
 21
90.0869
  0
LINE
  8
0
 10
18.251
 20
90.0869
 11
18.2266
 21
90.0742
  0
LINE
  8
0
 10
18.2266
 20
90.0742
 11
18.2012
 21
90.0615
  0
LINE
  8
0
 10
18.2012
 20
90.0615
 11
18.1504
 21
90.0381
  0
LINE
  8
0
 10
18.1504
 20
90.0381
 11
18.0996
 21
90.0166
  0
LINE
  8
0
 10
18.0996
 20
90.0166
 11
18.0732
 21
90.0059
  0
LINE
  8
0
 10
18.0732
 20
90.0059
 11
18.0469
 21
89.9961
  0
LINE
  8
0
 10
18.0469
 20
89.9961
 11
17.9678
 21
89.9697
  0
LINE
  8
0
 10
17.9678
 20
89.9697
 11
17.9414
 21
89.9619
  0
LINE
  8
0
 10
17.9414
 20
89.9619
 11
17.9141
 21
89.9541
  0
LINE
  8
0
 10
17.9141
 20
89.9541
 11
17.8867
 21
89.9473
  0
LINE
  8
0
 10
17.8867
 20
89.9473
 11
17.8604
 21
89.9414
  0
LINE
  8
0
 10
17.8604
 20
89.9414
 11
17.833
 21
89.9346
  0
LINE
  8
0
 10
17.833
 20
89.9346
 11
17.8057
 21
89.9297
  0
LINE
  8
0
 10
17.8057
 20
89.9297
 11
17.7783
 21
89.9238
  0
LINE
  8
0
 10
17.7783
 20
89.9238
 11
17.75
 21
89.9199
  0
LINE
  8
0
 10
17.75
 20
89.9199
 11
17.6953
 21
89.9121
  0
LINE
  8
0
 10
17.6953
 20
89.9121
 11
17.667
 21
89.9092
  0
LINE
  8
0
 10
17.667
 20
89.9092
 11
17.6396
 21
89.9062
  0
LINE
  8
0
 10
17.6396
 20
89.9062
 11
17.6113
 21
89.9043
  0
LINE
  8
0
 10
17.6113
 20
89.9043
 11
17.584
 21
89.9023
  0
LINE
  8
0
 10
17.584
 20
89.9023
 11
17.5283
 21
89.9004
  0
LINE
  8
0
 10
17.5283
 20
89.9004
 11
17.4717
 21
89.9004
  0
LINE
  8
0
 10
9.47168
 20
45.9004
 11
9.41602
 21
45.9023
  0
LINE
  8
0
 10
9.41602
 20
45.9023
 11
9.38867
 21
45.9043
  0
LINE
  8
0
 10
9.38867
 20
45.9043
 11
9.36035
 21
45.9062
  0
LINE
  8
0
 10
9.36035
 20
45.9062
 11
9.33301
 21
45.9092
  0
LINE
  8
0
 10
9.33301
 20
45.9092
 11
9.30469
 21
45.9121
  0
LINE
  8
0
 10
9.30469
 20
45.9121
 11
9.25
 21
45.9199
  0
LINE
  8
0
 10
9.25
 20
45.9199
 11
9.22168
 21
45.9238
  0
LINE
  8
0
 10
9.22168
 20
45.9238
 11
9.19434
 21
45.9297
  0
LINE
  8
0
 10
9.19434
 20
45.9297
 11
9.16699
 21
45.9346
  0
LINE
  8
0
 10
9.16699
 20
45.9346
 11
9.13965
 21
45.9414
  0
LINE
  8
0
 10
9.13965
 20
45.9414
 11
9.11328
 21
45.9473
  0
LINE
  8
0
 10
9.11328
 20
45.9473
 11
9.08594
 21
45.9541
  0
LINE
  8
0
 10
9.08594
 20
45.9541
 11
9.05859
 21
45.9619
  0
LINE
  8
0
 10
9.05859
 20
45.9619
 11
9.03223
 21
45.9697
  0
LINE
  8
0
 10
9.03223
 20
45.9697
 11
8.95312
 21
45.9961
  0
LINE
  8
0
 10
8.95312
 20
45.9961
 11
8.92676
 21
46.0059
  0
LINE
  8
0
 10
8.92676
 20
46.0059
 11
8.90039
 21
46.0166
  0
LINE
  8
0
 10
8.90039
 20
46.0166
 11
8.84961
 21
46.0381
  0
LINE
  8
0
 10
8.84961
 20
46.0381
 11
8.79883
 21
46.0615
  0
LINE
  8
0
 10
8.79883
 20
46.0615
 11
8.77344
 21
46.0742
  0
LINE
  8
0
 10
8.77344
 20
46.0742
 11
8.74902
 21
46.0869
  0
LINE
  8
0
 10
8.74902
 20
46.0869
 11
8.7002
 21
46.1143
  0
LINE
  8
0
 10
8.7002
 20
46.1143
 11
8.67578
 21
46.1289
  0
LINE
  8
0
 10
8.67578
 20
46.1289
 11
8.62891
 21
46.1582
  0
LINE
  8
0
 10
8.62891
 20
46.1582
 11
8.58203
 21
46.1895
  0
LINE
  8
0
 10
8.58203
 20
46.1895
 11
8.51465
 21
46.2393
  0
LINE
  8
0
 10
8.51465
 20
46.2393
 11
8.4502
 21
46.292
  0
LINE
  8
0
 10
8.4502
 20
46.292
 11
8.42969
 21
46.3105
  0
LINE
  8
0
 10
8.42969
 20
46.3105
 11
8.40918
 21
46.3301
  0
LINE
  8
0
 10
8.40918
 20
46.3301
 11
8.38867
 21
46.3486
  0
LINE
  8
0
 10
8.38867
 20
46.3486
 11
8.36816
 21
46.3682
  0
LINE
  8
0
 10
8.36816
 20
46.3682
 11
8.34863
 21
46.3887
  0
LINE
  8
0
 10
8.34863
 20
46.3887
 11
8.33008
 21
46.4092
  0
LINE
  8
0
 10
8.33008
 20
46.4092
 11
8.31055
 21
46.4297
  0
LINE
  8
0
 10
8.31055
 20
46.4297
 11
8.29199
 21
46.4502
  0
LINE
  8
0
 10
8.29199
 20
46.4502
 11
8.23926
 21
46.5146
  0
LINE
  8
0
 10
8.23926
 20
46.5146
 11
8.18945
 21
46.582
  0
LINE
  8
0
 10
8.18945
 20
46.582
 11
8.1582
 21
46.6289
  0
LINE
  8
0
 10
8.1582
 20
46.6289
 11
8.12891
 21
46.6758
  0
LINE
  8
0
 10
8.12891
 20
46.6758
 11
8.11426
 21
46.7002
  0
LINE
  8
0
 10
8.11426
 20
46.7002
 11
8.08691
 21
46.749
  0
LINE
  8
0
 10
8.08691
 20
46.749
 11
8.07422
 21
46.7734
  0
LINE
  8
0
 10
8.07422
 20
46.7734
 11
8.06152
 21
46.7988
  0
LINE
  8
0
 10
8.06152
 20
46.7988
 11
8.03809
 21
46.8496
  0
LINE
  8
0
 10
8.03809
 20
46.8496
 11
8.0166
 21
46.9004
  0
LINE
  8
0
 10
8.0166
 20
46.9004
 11
8.00586
 21
46.9268
  0
LINE
  8
0
 10
8.00586
 20
46.9268
 11
7.99609
 21
46.9531
  0
LINE
  8
0
 10
7.99609
 20
46.9531
 11
7.96973
 21
47.0322
  0
LINE
  8
0
 10
7.96973
 20
47.0322
 11
7.96191
 21
47.0586
  0
LINE
  8
0
 10
7.96191
 20
47.0586
 11
7.9541
 21
47.0859
  0
LINE
  8
0
 10
7.9541
 20
47.0859
 11
7.94727
 21
47.1133
  0
LINE
  8
0
 10
7.94727
 20
47.1133
 11
7.94141
 21
47.1396
  0
LINE
  8
0
 10
7.94141
 20
47.1396
 11
7.93457
 21
47.167
  0
LINE
  8
0
 10
7.93457
 20
47.167
 11
7.92969
 21
47.1943
  0
LINE
  8
0
 10
7.92969
 20
47.1943
 11
7.92383
 21
47.2217
  0
LINE
  8
0
 10
7.92383
 20
47.2217
 11
7.91992
 21
47.25
  0
LINE
  8
0
 10
7.91992
 20
47.25
 11
7.91211
 21
47.3047
  0
LINE
  8
0
 10
7.91211
 20
47.3047
 11
7.90918
 21
47.333
  0
LINE
  8
0
 10
7.90918
 20
47.333
 11
7.90625
 21
47.3604
  0
LINE
  8
0
 10
7.90625
 20
47.3604
 11
7.9043
 21
47.3887
  0
LINE
  8
0
 10
7.9043
 20
47.3887
 11
7.90234
 21
47.416
  0
LINE
  8
0
 10
7.90234
 20
47.416
 11
7.90039
 21
47.4717
  0
LINE
  8
0
 10
7.90039
 20
47.4717
 11
7.90039
 21
47.5283
  0
LINE
  8
0
 10
7.90039
 20
47.5283
 11
7.90234
 21
47.584
  0
LINE
  8
0
 10
7.90234
 20
47.584
 11
7.9043
 21
47.6113
  0
LINE
  8
0
 10
7.9043
 20
47.6113
 11
7.90625
 21
47.6396
  0
LINE
  8
0
 10
7.90625
 20
47.6396
 11
7.90918
 21
47.667
  0
LINE
  8
0
 10
7.90918
 20
47.667
 11
7.91211
 21
47.6953
  0
LINE
  8
0
 10
7.91211
 20
47.6953
 11
7.91992
 21
47.75
  0
LINE
  8
0
 10
7.91992
 20
47.75
 11
7.92383
 21
47.7783
  0
LINE
  8
0
 10
7.92383
 20
47.7783
 11
7.92969
 21
47.8057
  0
LINE
  8
0
 10
7.92969
 20
47.8057
 11
7.93457
 21
47.833
  0
LINE
  8
0
 10
7.93457
 20
47.833
 11
7.94141
 21
47.8604
  0
LINE
  8
0
 10
7.94141
 20
47.8604
 11
7.94727
 21
47.8867
  0
LINE
  8
0
 10
7.94727
 20
47.8867
 11
7.9541
 21
47.9141
  0
LINE
  8
0
 10
7.9541
 20
47.9141
 11
7.96191
 21
47.9414
  0
LINE
  8
0
 10
7.96191
 20
47.9414
 11
7.96973
 21
47.9678
  0
LINE
  8
0
 10
7.96973
 20
47.9678
 11
7.99609
 21
48.0469
  0
LINE
  8
0
 10
7.99609
 20
48.0469
 11
8.00586
 21
48.0732
  0
LINE
  8
0
 10
8.00586
 20
48.0732
 11
8.0166
 21
48.0996
  0
LINE
  8
0
 10
8.0166
 20
48.0996
 11
8.03809
 21
48.1504
  0
LINE
  8
0
 10
8.03809
 20
48.1504
 11
8.06152
 21
48.2012
  0
LINE
  8
0
 10
8.06152
 20
48.2012
 11
8.07422
 21
48.2266
  0
LINE
  8
0
 10
8.07422
 20
48.2266
 11
8.08691
 21
48.251
  0
LINE
  8
0
 10
8.08691
 20
48.251
 11
8.11426
 21
48.2998
  0
LINE
  8
0
 10
8.11426
 20
48.2998
 11
8.12891
 21
48.3242
  0
LINE
  8
0
 10
8.12891
 20
48.3242
 11
8.1582
 21
48.3711
  0
LINE
  8
0
 10
8.1582
 20
48.3711
 11
8.18945
 21
48.418
  0
LINE
  8
0
 10
8.18945
 20
48.418
 11
8.23926
 21
48.4854
  0
LINE
  8
0
 10
8.23926
 20
48.4854
 11
8.29199
 21
48.5498
  0
LINE
  8
0
 10
8.29199
 20
48.5498
 11
8.31055
 21
48.5703
  0
LINE
  8
0
 10
8.31055
 20
48.5703
 11
8.33008
 21
48.5908
  0
LINE
  8
0
 10
8.33008
 20
48.5908
 11
8.34863
 21
48.6113
  0
LINE
  8
0
 10
8.34863
 20
48.6113
 11
8.36816
 21
48.6318
  0
LINE
  8
0
 10
8.36816
 20
48.6318
 11
8.38867
 21
48.6514
  0
LINE
  8
0
 10
8.38867
 20
48.6514
 11
8.40918
 21
48.6699
  0
LINE
  8
0
 10
8.40918
 20
48.6699
 11
8.42969
 21
48.6895
  0
LINE
  8
0
 10
8.42969
 20
48.6895
 11
8.4502
 21
48.708
  0
LINE
  8
0
 10
8.4502
 20
48.708
 11
8.51465
 21
48.7607
  0
LINE
  8
0
 10
8.51465
 20
48.7607
 11
8.58203
 21
48.8105
  0
LINE
  8
0
 10
8.58203
 20
48.8105
 11
8.62891
 21
48.8418
  0
LINE
  8
0
 10
8.62891
 20
48.8418
 11
8.67578
 21
48.8711
  0
LINE
  8
0
 10
8.67578
 20
48.8711
 11
8.7002
 21
48.8857
  0
LINE
  8
0
 10
8.7002
 20
48.8857
 11
8.74902
 21
48.9131
  0
LINE
  8
0
 10
8.74902
 20
48.9131
 11
8.77344
 21
48.9258
  0
LINE
  8
0
 10
8.77344
 20
48.9258
 11
8.79883
 21
48.9385
  0
LINE
  8
0
 10
8.79883
 20
48.9385
 11
8.84961
 21
48.9619
  0
LINE
  8
0
 10
8.84961
 20
48.9619
 11
8.90039
 21
48.9834
  0
LINE
  8
0
 10
8.90039
 20
48.9834
 11
8.92676
 21
48.9941
  0
LINE
  8
0
 10
8.92676
 20
48.9941
 11
8.95312
 21
49.0039
  0
LINE
  8
0
 10
8.95312
 20
49.0039
 11
9.03223
 21
49.0303
  0
LINE
  8
0
 10
9.03223
 20
49.0303
 11
9.05859
 21
49.0381
  0
LINE
  8
0
 10
9.05859
 20
49.0381
 11
9.08594
 21
49.0459
  0
LINE
  8
0
 10
9.08594
 20
49.0459
 11
9.11328
 21
49.0527
  0
LINE
  8
0
 10
9.11328
 20
49.0527
 11
9.13965
 21
49.0586
  0
LINE
  8
0
 10
9.13965
 20
49.0586
 11
9.16699
 21
49.0654
  0
LINE
  8
0
 10
9.16699
 20
49.0654
 11
9.19434
 21
49.0703
  0
LINE
  8
0
 10
9.19434
 20
49.0703
 11
9.22168
 21
49.0762
  0
LINE
  8
0
 10
9.22168
 20
49.0762
 11
9.25
 21
49.0801
  0
LINE
  8
0
 10
9.25
 20
49.0801
 11
9.30469
 21
49.0879
  0
LINE
  8
0
 10
9.30469
 20
49.0879
 11
9.33301
 21
49.0908
  0
LINE
  8
0
 10
9.33301
 20
49.0908
 11
9.36035
 21
49.0938
  0
LINE
  8
0
 10
9.36035
 20
49.0938
 11
9.38867
 21
49.0957
  0
LINE
  8
0
 10
9.38867
 20
49.0957
 11
9.41602
 21
49.0977
  0
LINE
  8
0
 10
9.41602
 20
49.0977
 11
9.47168
 21
49.0996
  0
LINE
  8
0
 10
9.47168
 20
49.0996
 11
9.52832
 21
49.0996
  0
LINE
  8
0
 10
9.52832
 20
49.0996
 11
9.58398
 21
49.0977
  0
LINE
  8
0
 10
9.58398
 20
49.0977
 11
9.61133
 21
49.0957
  0
LINE
  8
0
 10
9.61133
 20
49.0957
 11
9.63965
 21
49.0938
  0
LINE
  8
0
 10
9.63965
 20
49.0938
 11
9.66699
 21
49.0908
  0
LINE
  8
0
 10
9.66699
 20
49.0908
 11
9.69531
 21
49.0879
  0
LINE
  8
0
 10
9.69531
 20
49.0879
 11
9.75
 21
49.0801
  0
LINE
  8
0
 10
9.75
 20
49.0801
 11
9.77832
 21
49.0762
  0
LINE
  8
0
 10
9.77832
 20
49.0762
 11
9.80566
 21
49.0703
  0
LINE
  8
0
 10
9.80566
 20
49.0703
 11
9.83301
 21
49.0654
  0
LINE
  8
0
 10
9.83301
 20
49.0654
 11
9.86035
 21
49.0586
  0
LINE
  8
0
 10
9.86035
 20
49.0586
 11
9.88672
 21
49.0527
  0
LINE
  8
0
 10
9.88672
 20
49.0527
 11
9.91406
 21
49.0459
  0
LINE
  8
0
 10
9.91406
 20
49.0459
 11
9.94141
 21
49.0381
  0
LINE
  8
0
 10
9.94141
 20
49.0381
 11
9.96777
 21
49.0303
  0
LINE
  8
0
 10
9.96777
 20
49.0303
 11
10.0469
 21
49.0039
  0
LINE
  8
0
 10
10.0469
 20
49.0039
 11
10.0732
 21
48.9941
  0
LINE
  8
0
 10
10.0732
 20
48.9941
 11
10.0996
 21
48.9834
  0
LINE
  8
0
 10
10.0996
 20
48.9834
 11
10.1504
 21
48.9619
  0
LINE
  8
0
 10
10.1504
 20
48.9619
 11
10.2012
 21
48.9385
  0
LINE
  8
0
 10
10.2012
 20
48.9385
 11
10.2266
 21
48.9258
  0
LINE
  8
0
 10
10.2266
 20
48.9258
 11
10.251
 21
48.9131
  0
LINE
  8
0
 10
10.251
 20
48.9131
 11
10.2998
 21
48.8857
  0
LINE
  8
0
 10
10.2998
 20
48.8857
 11
10.3242
 21
48.8711
  0
LINE
  8
0
 10
10.3242
 20
48.8711
 11
10.3711
 21
48.8418
  0
LINE
  8
0
 10
10.3711
 20
48.8418
 11
10.418
 21
48.8105
  0
LINE
  8
0
 10
10.418
 20
48.8105
 11
10.4854
 21
48.7607
  0
LINE
  8
0
 10
10.4854
 20
48.7607
 11
10.5498
 21
48.708
  0
LINE
  8
0
 10
10.5498
 20
48.708
 11
10.5703
 21
48.6895
  0
LINE
  8
0
 10
10.5703
 20
48.6895
 11
10.5908
 21
48.6699
  0
LINE
  8
0
 10
10.5908
 20
48.6699
 11
10.6113
 21
48.6514
  0
LINE
  8
0
 10
10.6113
 20
48.6514
 11
10.6318
 21
48.6318
  0
LINE
  8
0
 10
10.6318
 20
48.6318
 11
10.6514
 21
48.6113
  0
LINE
  8
0
 10
10.6514
 20
48.6113
 11
10.6699
 21
48.5908
  0
LINE
  8
0
 10
10.6699
 20
48.5908
 11
10.6895
 21
48.5703
  0
LINE
  8
0
 10
10.6895
 20
48.5703
 11
10.708
 21
48.5498
  0
LINE
  8
0
 10
10.708
 20
48.5498
 11
10.7607
 21
48.4854
  0
LINE
  8
0
 10
10.7607
 20
48.4854
 11
10.8105
 21
48.418
  0
LINE
  8
0
 10
10.8105
 20
48.418
 11
10.8418
 21
48.3711
  0
LINE
  8
0
 10
10.8418
 20
48.3711
 11
10.8711
 21
48.3242
  0
LINE
  8
0
 10
10.8711
 20
48.3242
 11
10.8857
 21
48.2998
  0
LINE
  8
0
 10
10.8857
 20
48.2998
 11
10.9131
 21
48.251
  0
LINE
  8
0
 10
10.9131
 20
48.251
 11
10.9258
 21
48.2266
  0
LINE
  8
0
 10
10.9258
 20
48.2266
 11
10.9385
 21
48.2012
  0
LINE
  8
0
 10
10.9385
 20
48.2012
 11
10.9619
 21
48.1504
  0
LINE
  8
0
 10
10.9619
 20
48.1504
 11
10.9834
 21
48.0996
  0
LINE
  8
0
 10
10.9834
 20
48.0996
 11
10.9941
 21
48.0732
  0
LINE
  8
0
 10
10.9941
 20
48.0732
 11
11.0039
 21
48.0469
  0
LINE
  8
0
 10
11.0039
 20
48.0469
 11
11.0303
 21
47.9678
  0
LINE
  8
0
 10
11.0303
 20
47.9678
 11
11.0381
 21
47.9414
  0
LINE
  8
0
 10
11.0381
 20
47.9414
 11
11.0459
 21
47.9141
  0
LINE
  8
0
 10
11.0459
 20
47.9141
 11
11.0527
 21
47.8867
  0
LINE
  8
0
 10
11.0527
 20
47.8867
 11
11.0586
 21
47.8604
  0
LINE
  8
0
 10
11.0586
 20
47.8604
 11
11.0654
 21
47.833
  0
LINE
  8
0
 10
11.0654
 20
47.833
 11
11.0703
 21
47.8057
  0
LINE
  8
0
 10
11.0703
 20
47.8057
 11
11.0762
 21
47.7783
  0
LINE
  8
0
 10
11.0762
 20
47.7783
 11
11.0801
 21
47.75
  0
LINE
  8
0
 10
11.0801
 20
47.75
 11
11.0879
 21
47.6953
  0
LINE
  8
0
 10
11.0879
 20
47.6953
 11
11.0908
 21
47.667
  0
LINE
  8
0
 10
11.0908
 20
47.667
 11
11.0938
 21
47.6396
  0
LINE
  8
0
 10
11.0938
 20
47.6396
 11
11.0957
 21
47.6113
  0
LINE
  8
0
 10
11.0957
 20
47.6113
 11
11.0977
 21
47.584
  0
LINE
  8
0
 10
11.0977
 20
47.584
 11
11.0996
 21
47.5283
  0
LINE
  8
0
 10
11.0996
 20
47.5283
 11
11.0996
 21
47.4717
  0
LINE
  8
0
 10
11.0996
 20
47.4717
 11
11.0977
 21
47.416
  0
LINE
  8
0
 10
11.0977
 20
47.416
 11
11.0957
 21
47.3887
  0
LINE
  8
0
 10
11.0957
 20
47.3887
 11
11.0938
 21
47.3604
  0
LINE
  8
0
 10
11.0938
 20
47.3604
 11
11.0908
 21
47.333
  0
LINE
  8
0
 10
11.0908
 20
47.333
 11
11.0879
 21
47.3047
  0
LINE
  8
0
 10
11.0879
 20
47.3047
 11
11.0801
 21
47.25
  0
LINE
  8
0
 10
11.0801
 20
47.25
 11
11.0762
 21
47.2217
  0
LINE
  8
0
 10
11.0762
 20
47.2217
 11
11.0703
 21
47.1943
  0
LINE
  8
0
 10
11.0703
 20
47.1943
 11
11.0654
 21
47.167
  0
LINE
  8
0
 10
11.0654
 20
47.167
 11
11.0586
 21
47.1396
  0
LINE
  8
0
 10
11.0586
 20
47.1396
 11
11.0527
 21
47.1133
  0
LINE
  8
0
 10
11.0527
 20
47.1133
 11
11.0459
 21
47.0859
  0
LINE
  8
0
 10
11.0459
 20
47.0859
 11
11.0381
 21
47.0586
  0
LINE
  8
0
 10
11.0381
 20
47.0586
 11
11.0303
 21
47.0322
  0
LINE
  8
0
 10
11.0303
 20
47.0322
 11
11.0039
 21
46.9531
  0
LINE
  8
0
 10
11.0039
 20
46.9531
 11
10.9941
 21
46.9268
  0
LINE
  8
0
 10
10.9941
 20
46.9268
 11
10.9834
 21
46.9004
  0
LINE
  8
0
 10
10.9834
 20
46.9004
 11
10.9619
 21
46.8496
  0
LINE
  8
0
 10
10.9619
 20
46.8496
 11
10.9385
 21
46.7988
  0
LINE
  8
0
 10
10.9385
 20
46.7988
 11
10.9258
 21
46.7734
  0
LINE
  8
0
 10
10.9258
 20
46.7734
 11
10.9131
 21
46.749
  0
LINE
  8
0
 10
10.9131
 20
46.749
 11
10.8857
 21
46.7002
  0
LINE
  8
0
 10
10.8857
 20
46.7002
 11
10.8711
 21
46.6758
  0
LINE
  8
0
 10
10.8711
 20
46.6758
 11
10.8418
 21
46.6289
  0
LINE
  8
0
 10
10.8418
 20
46.6289
 11
10.8105
 21
46.582
  0
LINE
  8
0
 10
10.8105
 20
46.582
 11
10.7607
 21
46.5146
  0
LINE
  8
0
 10
10.7607
 20
46.5146
 11
10.708
 21
46.4502
  0
LINE
  8
0
 10
10.708
 20
46.4502
 11
10.6895
 21
46.4297
  0
LINE
  8
0
 10
10.6895
 20
46.4297
 11
10.6699
 21
46.4092
  0
LINE
  8
0
 10
10.6699
 20
46.4092
 11
10.6514
 21
46.3887
  0
LINE
  8
0
 10
10.6514
 20
46.3887
 11
10.6318
 21
46.3682
  0
LINE
  8
0
 10
10.6318
 20
46.3682
 11
10.6113
 21
46.3486
  0
LINE
  8
0
 10
10.6113
 20
46.3486
 11
10.5908
 21
46.3301
  0
LINE
  8
0
 10
10.5908
 20
46.3301
 11
10.5703
 21
46.3105
  0
LINE
  8
0
 10
10.5703
 20
46.3105
 11
10.5498
 21
46.292
  0
LINE
  8
0
 10
10.5498
 20
46.292
 11
10.4854
 21
46.2393
  0
LINE
  8
0
 10
10.4854
 20
46.2393
 11
10.418
 21
46.1895
  0
LINE
  8
0
 10
10.418
 20
46.1895
 11
10.3711
 21
46.1582
  0
LINE
  8
0
 10
10.3711
 20
46.1582
 11
10.3242
 21
46.1289
  0
LINE
  8
0
 10
10.3242
 20
46.1289
 11
10.2998
 21
46.1143
  0
LINE
  8
0
 10
10.2998
 20
46.1143
 11
10.251
 21
46.0869
  0
LINE
  8
0
 10
10.251
 20
46.0869
 11
10.2266
 21
46.0742
  0
LINE
  8
0
 10
10.2266
 20
46.0742
 11
10.2012
 21
46.0615
  0
LINE
  8
0
 10
10.2012
 20
46.0615
 11
10.1504
 21
46.0381
  0
LINE
  8
0
 10
10.1504
 20
46.0381
 11
10.0996
 21
46.0166
  0
LINE
  8
0
 10
10.0996
 20
46.0166
 11
10.0732
 21
46.0059
  0
LINE
  8
0
 10
10.0732
 20
46.0059
 11
10.0469
 21
45.9961
  0
LINE
  8
0
 10
10.0469
 20
45.9961
 11
9.96777
 21
45.9697
  0
LINE
  8
0
 10
9.96777
 20
45.9697
 11
9.94141
 21
45.9619
  0
LINE
  8
0
 10
9.94141
 20
45.9619
 11
9.91406
 21
45.9541
  0
LINE
  8
0
 10
9.91406
 20
45.9541
 11
9.88672
 21
45.9473
  0
LINE
  8
0
 10
9.88672
 20
45.9473
 11
9.86035
 21
45.9414
  0
LINE
  8
0
 10
9.86035
 20
45.9414
 11
9.83301
 21
45.9346
  0
LINE
  8
0
 10
9.83301
 20
45.9346
 11
9.80566
 21
45.9297
  0
LINE
  8
0
 10
9.80566
 20
45.9297
 11
9.77832
 21
45.9238
  0
LINE
  8
0
 10
9.77832
 20
45.9238
 11
9.75
 21
45.9199
  0
LINE
  8
0
 10
9.75
 20
45.9199
 11
9.69531
 21
45.9121
  0
LINE
  8
0
 10
9.69531
 20
45.9121
 11
9.66699
 21
45.9092
  0
LINE
  8
0
 10
9.66699
 20
45.9092
 11
9.63965
 21
45.9062
  0
LINE
  8
0
 10
9.63965
 20
45.9062
 11
9.61133
 21
45.9043
  0
LINE
  8
0
 10
9.61133
 20
45.9043
 11
9.58398
 21
45.9023
  0
LINE
  8
0
 10
9.58398
 20
45.9023
 11
9.52832
 21
45.9004
  0
LINE
  8
0
 10
9.52832
 20
45.9004
 11
9.47168
 21
45.9004
  0
LINE
  8
0
 10
91.9717
 20
45.9004
 11
91.916
 21
45.9023
  0
LINE
  8
0
 10
91.916
 20
45.9023
 11
91.8887
 21
45.9043
  0
LINE
  8
0
 10
91.8887
 20
45.9043
 11
91.8604
 21
45.9062
  0
LINE
  8
0
 10
91.8604
 20
45.9062
 11
91.833
 21
45.9092
  0
LINE
  8
0
 10
91.833
 20
45.9092
 11
91.8047
 21
45.9121
  0
LINE
  8
0
 10
91.8047
 20
45.9121
 11
91.75
 21
45.9199
  0
LINE
  8
0
 10
91.75
 20
45.9199
 11
91.7217
 21
45.9238
  0
LINE
  8
0
 10
91.7217
 20
45.9238
 11
91.6943
 21
45.9297
  0
LINE
  8
0
 10
91.6943
 20
45.9297
 11
91.667
 21
45.9346
  0
LINE
  8
0
 10
91.667
 20
45.9346
 11
91.6396
 21
45.9414
  0
LINE
  8
0
 10
91.6396
 20
45.9414
 11
91.6133
 21
45.9473
  0
LINE
  8
0
 10
91.6133
 20
45.9473
 11
91.5859
 21
45.9541
  0
LINE
  8
0
 10
91.5859
 20
45.9541
 11
91.5586
 21
45.9619
  0
LINE
  8
0
 10
91.5586
 20
45.9619
 11
91.5322
 21
45.9697
  0
LINE
  8
0
 10
91.5322
 20
45.9697
 11
91.4531
 21
45.9961
  0
LINE
  8
0
 10
91.4531
 20
45.9961
 11
91.4268
 21
46.0059
  0
LINE
  8
0
 10
91.4268
 20
46.0059
 11
91.4004
 21
46.0166
  0
LINE
  8
0
 10
91.4004
 20
46.0166
 11
91.3496
 21
46.0381
  0
LINE
  8
0
 10
91.3496
 20
46.0381
 11
91.2988
 21
46.0615
  0
LINE
  8
0
 10
91.2988
 20
46.0615
 11
91.2734
 21
46.0742
  0
LINE
  8
0
 10
91.2734
 20
46.0742
 11
91.249
 21
46.0869
  0
LINE
  8
0
 10
91.249
 20
46.0869
 11
91.2002
 21
46.1143
  0
LINE
  8
0
 10
91.2002
 20
46.1143
 11
91.1758
 21
46.1289
  0
LINE
  8
0
 10
91.1758
 20
46.1289
 11
91.1289
 21
46.1582
  0
LINE
  8
0
 10
91.1289
 20
46.1582
 11
91.082
 21
46.1895
  0
LINE
  8
0
 10
91.082
 20
46.1895
 11
91.0146
 21
46.2393
  0
LINE
  8
0
 10
91.0146
 20
46.2393
 11
90.9502
 21
46.292
  0
LINE
  8
0
 10
90.9502
 20
46.292
 11
90.9297
 21
46.3105
  0
LINE
  8
0
 10
90.9297
 20
46.3105
 11
90.9092
 21
46.3301
  0
LINE
  8
0
 10
90.9092
 20
46.3301
 11
90.8887
 21
46.3486
  0
LINE
  8
0
 10
90.8887
 20
46.3486
 11
90.8682
 21
46.3682
  0
LINE
  8
0
 10
90.8682
 20
46.3682
 11
90.8486
 21
46.3887
  0
LINE
  8
0
 10
90.8486
 20
46.3887
 11
90.8301
 21
46.4092
  0
LINE
  8
0
 10
90.8301
 20
46.4092
 11
90.8105
 21
46.4297
  0
LINE
  8
0
 10
90.8105
 20
46.4297
 11
90.792
 21
46.4502
  0
LINE
  8
0
 10
90.792
 20
46.4502
 11
90.7393
 21
46.5146
  0
LINE
  8
0
 10
90.7393
 20
46.5146
 11
90.6895
 21
46.582
  0
LINE
  8
0
 10
90.6895
 20
46.582
 11
90.6582
 21
46.6289
  0
LINE
  8
0
 10
90.6582
 20
46.6289
 11
90.6289
 21
46.6758
  0
LINE
  8
0
 10
90.6289
 20
46.6758
 11
90.6143
 21
46.7002
  0
LINE
  8
0
 10
90.6143
 20
46.7002
 11
90.5869
 21
46.749
  0
LINE
  8
0
 10
90.5869
 20
46.749
 11
90.5742
 21
46.7734
  0
LINE
  8
0
 10
90.5742
 20
46.7734
 11
90.5615
 21
46.7988
  0
LINE
  8
0
 10
90.5615
 20
46.7988
 11
90.5381
 21
46.8496
  0
LINE
  8
0
 10
90.5381
 20
46.8496
 11
90.5166
 21
46.9004
  0
LINE
  8
0
 10
90.5166
 20
46.9004
 11
90.5059
 21
46.9268
  0
LINE
  8
0
 10
90.5059
 20
46.9268
 11
90.4961
 21
46.9531
  0
LINE
  8
0
 10
90.4961
 20
46.9531
 11
90.4697
 21
47.0322
  0
LINE
  8
0
 10
90.4697
 20
47.0322
 11
90.4619
 21
47.0586
  0
LINE
  8
0
 10
90.4619
 20
47.0586
 11
90.4541
 21
47.0859
  0
LINE
  8
0
 10
90.4541
 20
47.0859
 11
90.4473
 21
47.1133
  0
LINE
  8
0
 10
90.4473
 20
47.1133
 11
90.4414
 21
47.1396
  0
LINE
  8
0
 10
90.4414
 20
47.1396
 11
90.4346
 21
47.167
  0
LINE
  8
0
 10
90.4346
 20
47.167
 11
90.4297
 21
47.1943
  0
LINE
  8
0
 10
90.4297
 20
47.1943
 11
90.4238
 21
47.2217
  0
LINE
  8
0
 10
90.4238
 20
47.2217
 11
90.4199
 21
47.25
  0
LINE
  8
0
 10
90.4199
 20
47.25
 11
90.4121
 21
47.3047
  0
LINE
  8
0
 10
90.4121
 20
47.3047
 11
90.4092
 21
47.333
  0
LINE
  8
0
 10
90.4092
 20
47.333
 11
90.4062
 21
47.3604
  0
LINE
  8
0
 10
90.4062
 20
47.3604
 11
90.4043
 21
47.3887
  0
LINE
  8
0
 10
90.4043
 20
47.3887
 11
90.4023
 21
47.416
  0
LINE
  8
0
 10
90.4023
 20
47.416
 11
90.4004
 21
47.4717
  0
LINE
  8
0
 10
90.4004
 20
47.4717
 11
90.4004
 21
47.5283
  0
LINE
  8
0
 10
90.4004
 20
47.5283
 11
90.4023
 21
47.584
  0
LINE
  8
0
 10
90.4023
 20
47.584
 11
90.4043
 21
47.6113
  0
LINE
  8
0
 10
90.4043
 20
47.6113
 11
90.4062
 21
47.6396
  0
LINE
  8
0
 10
90.4062
 20
47.6396
 11
90.4092
 21
47.667
  0
LINE
  8
0
 10
90.4092
 20
47.667
 11
90.4121
 21
47.6953
  0
LINE
  8
0
 10
90.4121
 20
47.6953
 11
90.4199
 21
47.75
  0
LINE
  8
0
 10
90.4199
 20
47.75
 11
90.4238
 21
47.7783
  0
LINE
  8
0
 10
90.4238
 20
47.7783
 11
90.4297
 21
47.8057
  0
LINE
  8
0
 10
90.4297
 20
47.8057
 11
90.4346
 21
47.833
  0
LINE
  8
0
 10
90.4346
 20
47.833
 11
90.4414
 21
47.8604
  0
LINE
  8
0
 10
90.4414
 20
47.8604
 11
90.4473
 21
47.8867
  0
LINE
  8
0
 10
90.4473
 20
47.8867
 11
90.4541
 21
47.9141
  0
LINE
  8
0
 10
90.4541
 20
47.9141
 11
90.4619
 21
47.9414
  0
LINE
  8
0
 10
90.4619
 20
47.9414
 11
90.4697
 21
47.9678
  0
LINE
  8
0
 10
90.4697
 20
47.9678
 11
90.4961
 21
48.0469
  0
LINE
  8
0
 10
90.4961
 20
48.0469
 11
90.5059
 21
48.0732
  0
LINE
  8
0
 10
90.5059
 20
48.0732
 11
90.5166
 21
48.0996
  0
LINE
  8
0
 10
90.5166
 20
48.0996
 11
90.5381
 21
48.1504
  0
LINE
  8
0
 10
90.5381
 20
48.1504
 11
90.5615
 21
48.2012
  0
LINE
  8
0
 10
90.5615
 20
48.2012
 11
90.5742
 21
48.2266
  0
LINE
  8
0
 10
90.5742
 20
48.2266
 11
90.5869
 21
48.251
  0
LINE
  8
0
 10
90.5869
 20
48.251
 11
90.6143
 21
48.2998
  0
LINE
  8
0
 10
90.6143
 20
48.2998
 11
90.6289
 21
48.3242
  0
LINE
  8
0
 10
90.6289
 20
48.3242
 11
90.6582
 21
48.3711
  0
LINE
  8
0
 10
90.6582
 20
48.3711
 11
90.6895
 21
48.418
  0
LINE
  8
0
 10
90.6895
 20
48.418
 11
90.7393
 21
48.4854
  0
LINE
  8
0
 10
90.7393
 20
48.4854
 11
90.792
 21
48.5498
  0
LINE
  8
0
 10
90.792
 20
48.5498
 11
90.8105
 21
48.5703
  0
LINE
  8
0
 10
90.8105
 20
48.5703
 11
90.8301
 21
48.5908
  0
LINE
  8
0
 10
90.8301
 20
48.5908
 11
90.8486
 21
48.6113
  0
LINE
  8
0
 10
90.8486
 20
48.6113
 11
90.8682
 21
48.6318
  0
LINE
  8
0
 10
90.8682
 20
48.6318
 11
90.8887
 21
48.6514
  0
LINE
  8
0
 10
90.8887
 20
48.6514
 11
90.9092
 21
48.6699
  0
LINE
  8
0
 10
90.9092
 20
48.6699
 11
90.9297
 21
48.6895
  0
LINE
  8
0
 10
90.9297
 20
48.6895
 11
90.9502
 21
48.708
  0
LINE
  8
0
 10
90.9502
 20
48.708
 11
91.0146
 21
48.7607
  0
LINE
  8
0
 10
91.0146
 20
48.7607
 11
91.082
 21
48.8105
  0
LINE
  8
0
 10
91.082
 20
48.8105
 11
91.1289
 21
48.8418
  0
LINE
  8
0
 10
91.1289
 20
48.8418
 11
91.1758
 21
48.8711
  0
LINE
  8
0
 10
91.1758
 20
48.8711
 11
91.2002
 21
48.8857
  0
LINE
  8
0
 10
91.2002
 20
48.8857
 11
91.249
 21
48.9131
  0
LINE
  8
0
 10
91.249
 20
48.9131
 11
91.2734
 21
48.9258
  0
LINE
  8
0
 10
91.2734
 20
48.9258
 11
91.2988
 21
48.9385
  0
LINE
  8
0
 10
91.2988
 20
48.9385
 11
91.3496
 21
48.9619
  0
LINE
  8
0
 10
91.3496
 20
48.9619
 11
91.4004
 21
48.9834
  0
LINE
  8
0
 10
91.4004
 20
48.9834
 11
91.4268
 21
48.9941
  0
LINE
  8
0
 10
91.4268
 20
48.9941
 11
91.4531
 21
49.0039
  0
LINE
  8
0
 10
91.4531
 20
49.0039
 11
91.5322
 21
49.0303
  0
LINE
  8
0
 10
91.5322
 20
49.0303
 11
91.5586
 21
49.0381
  0
LINE
  8
0
 10
91.5586
 20
49.0381
 11
91.5859
 21
49.0459
  0
LINE
  8
0
 10
91.5859
 20
49.0459
 11
91.6133
 21
49.0527
  0
LINE
  8
0
 10
91.6133
 20
49.0527
 11
91.6396
 21
49.0586
  0
LINE
  8
0
 10
91.6396
 20
49.0586
 11
91.667
 21
49.0654
  0
LINE
  8
0
 10
91.667
 20
49.0654
 11
91.6943
 21
49.0703
  0
LINE
  8
0
 10
91.6943
 20
49.0703
 11
91.7217
 21
49.0762
  0
LINE
  8
0
 10
91.7217
 20
49.0762
 11
91.75
 21
49.0801
  0
LINE
  8
0
 10
91.75
 20
49.0801
 11
91.8047
 21
49.0879
  0
LINE
  8
0
 10
91.8047
 20
49.0879
 11
91.833
 21
49.0908
  0
LINE
  8
0
 10
91.833
 20
49.0908
 11
91.8604
 21
49.0938
  0
LINE
  8
0
 10
91.8604
 20
49.0938
 11
91.8887
 21
49.0957
  0
LINE
  8
0
 10
91.8887
 20
49.0957
 11
91.916
 21
49.0977
  0
LINE
  8
0
 10
91.916
 20
49.0977
 11
91.9717
 21
49.0996
  0
LINE
  8
0
 10
91.9717
 20
49.0996
 11
92.0283
 21
49.0996
  0
LINE
  8
0
 10
92.0283
 20
49.0996
 11
92.084
 21
49.0977
  0
LINE
  8
0
 10
92.084
 20
49.0977
 11
92.1113
 21
49.0957
  0
LINE
  8
0
 10
92.1113
 20
49.0957
 11
92.1396
 21
49.0938
  0
LINE
  8
0
 10
92.1396
 20
49.0938
 11
92.167
 21
49.0908
  0
LINE
  8
0
 10
92.167
 20
49.0908
 11
92.1953
 21
49.0879
  0
LINE
  8
0
 10
92.1953
 20
49.0879
 11
92.25
 21
49.0801
  0
LINE
  8
0
 10
92.25
 20
49.0801
 11
92.2783
 21
49.0762
  0
LINE
  8
0
 10
92.2783
 20
49.0762
 11
92.3057
 21
49.0703
  0
LINE
  8
0
 10
92.3057
 20
49.0703
 11
92.333
 21
49.0654
  0
LINE
  8
0
 10
92.333
 20
49.0654
 11
92.3604
 21
49.0586
  0
LINE
  8
0
 10
92.3604
 20
49.0586
 11
92.3867
 21
49.0527
  0
LINE
  8
0
 10
92.3867
 20
49.0527
 11
92.4141
 21
49.0459
  0
LINE
  8
0
 10
92.4141
 20
49.0459
 11
92.4414
 21
49.0381
  0
LINE
  8
0
 10
92.4414
 20
49.0381
 11
92.4678
 21
49.0303
  0
LINE
  8
0
 10
92.4678
 20
49.0303
 11
92.5469
 21
49.0039
  0
LINE
  8
0
 10
92.5469
 20
49.0039
 11
92.5732
 21
48.9941
  0
LINE
  8
0
 10
92.5732
 20
48.9941
 11
92.5996
 21
48.9834
  0
LINE
  8
0
 10
92.5996
 20
48.9834
 11
92.6504
 21
48.9619
  0
LINE
  8
0
 10
92.6504
 20
48.9619
 11
92.7012
 21
48.9385
  0
LINE
  8
0
 10
92.7012
 20
48.9385
 11
92.7266
 21
48.9258
  0
LINE
  8
0
 10
92.7266
 20
48.9258
 11
92.751
 21
48.9131
  0
LINE
  8
0
 10
92.751
 20
48.9131
 11
92.7998
 21
48.8857
  0
LINE
  8
0
 10
92.7998
 20
48.8857
 11
92.8242
 21
48.8711
  0
LINE
  8
0
 10
92.8242
 20
48.8711
 11
92.8711
 21
48.8418
  0
LINE
  8
0
 10
92.8711
 20
48.8418
 11
92.918
 21
48.8105
  0
LINE
  8
0
 10
92.918
 20
48.8105
 11
92.9854
 21
48.7607
  0
LINE
  8
0
 10
92.9854
 20
48.7607
 11
93.0498
 21
48.708
  0
LINE
  8
0
 10
93.0498
 20
48.708
 11
93.0703
 21
48.6895
  0
LINE
  8
0
 10
93.0703
 20
48.6895
 11
93.0908
 21
48.6699
  0
LINE
  8
0
 10
93.0908
 20
48.6699
 11
93.1113
 21
48.6514
  0
LINE
  8
0
 10
93.1113
 20
48.6514
 11
93.1318
 21
48.6318
  0
LINE
  8
0
 10
93.1318
 20
48.6318
 11
93.1514
 21
48.6113
  0
LINE
  8
0
 10
93.1514
 20
48.6113
 11
93.1699
 21
48.5908
  0
LINE
  8
0
 10
93.1699
 20
48.5908
 11
93.1895
 21
48.5703
  0
LINE
  8
0
 10
93.1895
 20
48.5703
 11
93.208
 21
48.5498
  0
LINE
  8
0
 10
93.208
 20
48.5498
 11
93.2607
 21
48.4854
  0
LINE
  8
0
 10
93.2607
 20
48.4854
 11
93.3105
 21
48.418
  0
LINE
  8
0
 10
93.3105
 20
48.418
 11
93.3418
 21
48.3711
  0
LINE
  8
0
 10
93.3418
 20
48.3711
 11
93.3711
 21
48.3242
  0
LINE
  8
0
 10
93.3711
 20
48.3242
 11
93.3857
 21
48.2998
  0
LINE
  8
0
 10
93.3857
 20
48.2998
 11
93.4131
 21
48.251
  0
LINE
  8
0
 10
93.4131
 20
48.251
 11
93.4258
 21
48.2266
  0
LINE
  8
0
 10
93.4258
 20
48.2266
 11
93.4385
 21
48.2012
  0
LINE
  8
0
 10
93.4385
 20
48.2012
 11
93.4619
 21
48.1504
  0
LINE
  8
0
 10
93.4619
 20
48.1504
 11
93.4834
 21
48.0996
  0
LINE
  8
0
 10
93.4834
 20
48.0996
 11
93.4941
 21
48.0732
  0
LINE
  8
0
 10
93.4941
 20
48.0732
 11
93.5039
 21
48.0469
  0
LINE
  8
0
 10
93.5039
 20
48.0469
 11
93.5303
 21
47.9678
  0
LINE
  8
0
 10
93.5303
 20
47.9678
 11
93.5381
 21
47.9414
  0
LINE
  8
0
 10
93.5381
 20
47.9414
 11
93.5459
 21
47.9141
  0
LINE
  8
0
 10
93.5459
 20
47.9141
 11
93.5527
 21
47.8867
  0
LINE
  8
0
 10
93.5527
 20
47.8867
 11
93.5586
 21
47.8604
  0
LINE
  8
0
 10
93.5586
 20
47.8604
 11
93.5654
 21
47.833
  0
LINE
  8
0
 10
93.5654
 20
47.833
 11
93.5703
 21
47.8057
  0
LINE
  8
0
 10
93.5703
 20
47.8057
 11
93.5762
 21
47.7783
  0
LINE
  8
0
 10
93.5762
 20
47.7783
 11
93.5801
 21
47.75
  0
LINE
  8
0
 10
93.5801
 20
47.75
 11
93.5879
 21
47.6953
  0
LINE
  8
0
 10
93.5879
 20
47.6953
 11
93.5908
 21
47.667
  0
LINE
  8
0
 10
93.5908
 20
47.667
 11
93.5938
 21
47.6396
  0
LINE
  8
0
 10
93.5938
 20
47.6396
 11
93.5957
 21
47.6113
  0
LINE
  8
0
 10
93.5957
 20
47.6113
 11
93.5977
 21
47.584
  0
LINE
  8
0
 10
93.5977
 20
47.584
 11
93.5996
 21
47.5283
  0
LINE
  8
0
 10
93.5996
 20
47.5283
 11
93.5996
 21
47.4717
  0
LINE
  8
0
 10
93.5996
 20
47.4717
 11
93.5977
 21
47.416
  0
LINE
  8
0
 10
93.5977
 20
47.416
 11
93.5957
 21
47.3887
  0
LINE
  8
0
 10
93.5957
 20
47.3887
 11
93.5938
 21
47.3604
  0
LINE
  8
0
 10
93.5938
 20
47.3604
 11
93.5908
 21
47.333
  0
LINE
  8
0
 10
93.5908
 20
47.333
 11
93.5879
 21
47.3047
  0
LINE
  8
0
 10
93.5879
 20
47.3047
 11
93.5801
 21
47.25
  0
LINE
  8
0
 10
93.5801
 20
47.25
 11
93.5762
 21
47.2217
  0
LINE
  8
0
 10
93.5762
 20
47.2217
 11
93.5703
 21
47.1943
  0
LINE
  8
0
 10
93.5703
 20
47.1943
 11
93.5654
 21
47.167
  0
LINE
  8
0
 10
93.5654
 20
47.167
 11
93.5586
 21
47.1396
  0
LINE
  8
0
 10
93.5586
 20
47.1396
 11
93.5527
 21
47.1133
  0
LINE
  8
0
 10
93.5527
 20
47.1133
 11
93.5459
 21
47.0859
  0
LINE
  8
0
 10
93.5459
 20
47.0859
 11
93.5381
 21
47.0586
  0
LINE
  8
0
 10
93.5381
 20
47.0586
 11
93.5303
 21
47.0322
  0
LINE
  8
0
 10
93.5303
 20
47.0322
 11
93.5039
 21
46.9531
  0
LINE
  8
0
 10
93.5039
 20
46.9531
 11
93.4941
 21
46.9268
  0
LINE
  8
0
 10
93.4941
 20
46.9268
 11
93.4834
 21
46.9004
  0
LINE
  8
0
 10
93.4834
 20
46.9004
 11
93.4619
 21
46.8496
  0
LINE
  8
0
 10
93.4619
 20
46.8496
 11
93.4385
 21
46.7988
  0
LINE
  8
0
 10
93.4385
 20
46.7988
 11
93.4258
 21
46.7734
  0
LINE
  8
0
 10
93.4258
 20
46.7734
 11
93.4131
 21
46.749
  0
LINE
  8
0
 10
93.4131
 20
46.749
 11
93.3857
 21
46.7002
  0
LINE
  8
0
 10
93.3857
 20
46.7002
 11
93.3711
 21
46.6758
  0
LINE
  8
0
 10
93.3711
 20
46.6758
 11
93.3418
 21
46.6289
  0
LINE
  8
0
 10
93.3418
 20
46.6289
 11
93.3105
 21
46.582
  0
LINE
  8
0
 10
93.3105
 20
46.582
 11
93.2607
 21
46.5146
  0
LINE
  8
0
 10
93.2607
 20
46.5146
 11
93.208
 21
46.4502
  0
LINE
  8
0
 10
93.208
 20
46.4502
 11
93.1895
 21
46.4297
  0
LINE
  8
0
 10
93.1895
 20
46.4297
 11
93.1699
 21
46.4092
  0
LINE
  8
0
 10
93.1699
 20
46.4092
 11
93.1514
 21
46.3887
  0
LINE
  8
0
 10
93.1514
 20
46.3887
 11
93.1318
 21
46.3682
  0
LINE
  8
0
 10
93.1318
 20
46.3682
 11
93.1113
 21
46.3486
  0
LINE
  8
0
 10
93.1113
 20
46.3486
 11
93.0908
 21
46.3301
  0
LINE
  8
0
 10
93.0908
 20
46.3301
 11
93.0703
 21
46.3105
  0
LINE
  8
0
 10
93.0703
 20
46.3105
 11
93.0498
 21
46.292
  0
LINE
  8
0
 10
93.0498
 20
46.292
 11
92.9854
 21
46.2393
  0
LINE
  8
0
 10
92.9854
 20
46.2393
 11
92.918
 21
46.1895
  0
LINE
  8
0
 10
92.918
 20
46.1895
 11
92.8711
 21
46.1582
  0
LINE
  8
0
 10
92.8711
 20
46.1582
 11
92.8242
 21
46.1289
  0
LINE
  8
0
 10
92.8242
 20
46.1289
 11
92.7998
 21
46.1143
  0
LINE
  8
0
 10
92.7998
 20
46.1143
 11
92.751
 21
46.0869
  0
LINE
  8
0
 10
92.751
 20
46.0869
 11
92.7266
 21
46.0742
  0
LINE
  8
0
 10
92.7266
 20
46.0742
 11
92.7012
 21
46.0615
  0
LINE
  8
0
 10
92.7012
 20
46.0615
 11
92.6504
 21
46.0381
  0
LINE
  8
0
 10
92.6504
 20
46.0381
 11
92.5996
 21
46.0166
  0
LINE
  8
0
 10
92.5996
 20
46.0166
 11
92.5732
 21
46.0059
  0
LINE
  8
0
 10
92.5732
 20
46.0059
 11
92.5469
 21
45.9961
  0
LINE
  8
0
 10
92.5469
 20
45.9961
 11
92.4678
 21
45.9697
  0
LINE
  8
0
 10
92.4678
 20
45.9697
 11
92.4414
 21
45.9619
  0
LINE
  8
0
 10
92.4414
 20
45.9619
 11
92.4141
 21
45.9541
  0
LINE
  8
0
 10
92.4141
 20
45.9541
 11
92.3867
 21
45.9473
  0
LINE
  8
0
 10
92.3867
 20
45.9473
 11
92.3604
 21
45.9414
  0
LINE
  8
0
 10
92.3604
 20
45.9414
 11
92.333
 21
45.9346
  0
LINE
  8
0
 10
92.333
 20
45.9346
 11
92.3057
 21
45.9297
  0
LINE
  8
0
 10
92.3057
 20
45.9297
 11
92.2783
 21
45.9238
  0
LINE
  8
0
 10
92.2783
 20
45.9238
 11
92.25
 21
45.9199
  0
LINE
  8
0
 10
92.25
 20
45.9199
 11
92.1953
 21
45.9121
  0
LINE
  8
0
 10
92.1953
 20
45.9121
 11
92.167
 21
45.9092
  0
LINE
  8
0
 10
92.167
 20
45.9092
 11
92.1396
 21
45.9062
  0
LINE
  8
0
 10
92.1396
 20
45.9062
 11
92.1113
 21
45.9043
  0
LINE
  8
0
 10
92.1113
 20
45.9043
 11
92.084
 21
45.9023
  0
LINE
  8
0
 10
92.084
 20
45.9023
 11
92.0283
 21
45.9004
  0
LINE
  8
0
 10
92.0283
 20
45.9004
 11
91.9717
 21
45.9004
  0
ENDSEC
  0
SECTION
  2
OBJECTS
  0
DICTIONARY
  0
ENDSEC
  0
EOF
