  0
SECTION
  2
BLOCKS
  0
ENDSEC
  0
SECTION
  2
ENTITIES
  0
LINE
  8
0
 10
16.0693
 20
0.000976562
 11
16.1396
 21
0.00488281
  0
LINE
  8
0
 10
16.1396
 20
0.00488281
 11
16.1738
 21
0.0078125
  0
LINE
  8
0
 10
16.1738
 20
0.0078125
 11
16.209
 21
0.0107422
  0
LINE
  8
0
 10
16.209
 20
0.0107422
 11
16.2441
 21
0.0146484
  0
LINE
  8
0
 10
16.2441
 20
0.0146484
 11
16.3125
 21
0.0244141
  0
LINE
  8
0
 10
16.3125
 20
0.0244141
 11
16.3477
 21
0.0302734
  0
LINE
  8
0
 10
16.3477
 20
0.0302734
 11
16.4502
 21
0.0507812
  0
LINE
  8
0
 10
16.4502
 20
0.0507812
 11
16.4834
 21
0.0595703
  0
LINE
  8
0
 10
16.4834
 20
0.0595703
 11
16.5518
 21
0.0771484
  0
LINE
  8
0
 10
16.5518
 20
0.0771484
 11
16.585
 21
0.0869141
  0
LINE
  8
0
 10
16.585
 20
0.0869141
 11
16.6182
 21
0.0976562
  0
LINE
  8
0
 10
16.6182
 20
0.0976562
 11
16.6514
 21
0.109375
  0
LINE
  8
0
 10
16.6514
 20
0.109375
 11
16.6836
 21
0.121094
  0
LINE
  8
0
 10
16.6836
 20
0.121094
 11
16.7168
 21
0.132812
  0
LINE
  8
0
 10
16.7168
 20
0.132812
 11
16.749
 21
0.145508
  0
LINE
  8
0
 10
16.749
 20
0.145508
 11
16.8135
 21
0.172852
  0
LINE
  8
0
 10
16.8135
 20
0.172852
 11
16.8457
 21
0.1875
  0
LINE
  8
0
 10
16.8457
 20
0.1875
 11
16.877
 21
0.202148
  0
LINE
  8
0
 10
16.877
 20
0.202148
 11
16.9082
 21
0.217773
  0
LINE
  8
0
 10
16.9082
 20
0.217773
 11
16.9385
 21
0.234375
  0
LINE
  8
0
 10
16.9385
 20
0.234375
 11
16.9697
 21
0.250977
  0
LINE
  8
0
 10
16.9697
 20
0.250977
 11
17
 21
0.267578
  0
LINE
  8
0
 10
17
 20
0.267578
 11
17.0303
 21
0.286133
  0
LINE
  8
0
 10
17.0303
 20
0.286133
 11
17.0596
 21
0.303711
  0
LINE
  8
0
 10
17.0596
 20
0.303711
 11
17.0889
 21
0.322266
  0
LINE
  8
0
 10
17.0889
 20
0.322266
 11
17.1475
 21
0.361328
  0
LINE
  8
0
 10
17.1475
 20
0.361328
 11
17.2041
 21
0.402344
  0
LINE
  8
0
 10
17.2041
 20
0.402344
 11
17.2588
 21
0.445312
  0
LINE
  8
0
 10
17.2588
 20
0.445312
 11
17.2852
 21
0.467773
  0
LINE
  8
0
 10
17.2852
 20
0.467773
 11
17.3125
 21
0.490234
  0
LINE
  8
0
 10
17.3125
 20
0.490234
 11
17.3379
 21
0.513672
  0
LINE
  8
0
 10
17.3379
 20
0.513672
 11
17.3643
 21
0.537109
  0
LINE
  8
0
 10
17.3643
 20
0.537109
 11
17.3896
 21
0.561523
  0
LINE
  8
0
 10
17.3896
 20
0.561523
 11
17.4385
 21
0.610352
  0
LINE
  8
0
 10
17.4385
 20
0.610352
 11
17.4629
 21
0.635742
  0
LINE
  8
0
 10
17.4629
 20
0.635742
 11
17.4863
 21
0.662109
  0
LINE
  8
0
 10
17.4863
 20
0.662109
 11
17.5098
 21
0.6875
  0
LINE
  8
0
 10
17.5098
 20
0.6875
 11
17.5322
 21
0.714844
  0
LINE
  8
0
 10
17.5322
 20
0.714844
 11
17.5547
 21
0.741211
  0
LINE
  8
0
 10
17.5547
 20
0.741211
 11
17.5977
 21
0.795898
  0
LINE
  8
0
 10
17.5977
 20
0.795898
 11
17.6387
 21
0.852539
  0
LINE
  8
0
 10
17.6387
 20
0.852539
 11
17.6777
 21
0.911133
  0
LINE
  8
0
 10
17.6777
 20
0.911133
 11
17.6963
 21
0.94043
  0
LINE
  8
0
 10
17.6963
 20
0.94043
 11
17.7139
 21
0.969727
  0
LINE
  8
0
 10
17.7139
 20
0.969727
 11
17.7324
 21
1
  0
LINE
  8
0
 10
17.7324
 20
1
 11
17.749
 21
1.03027
  0
LINE
  8
0
 10
17.749
 20
1.03027
 11
17.7656
 21
1.06152
  0
LINE
  8
0
 10
17.7656
 20
1.06152
 11
17.7822
 21
1.0918
  0
LINE
  8
0
 10
17.7822
 20
1.0918
 11
17.7979
 21
1.12305
  0
LINE
  8
0
 10
17.7979
 20
1.12305
 11
17.8125
 21
1.1543
  0
LINE
  8
0
 10
17.8125
 20
1.1543
 11
17.8271
 21
1.18652
  0
LINE
  8
0
 10
17.8271
 20
1.18652
 11
17.8545
 21
1.25098
  0
LINE
  8
0
 10
17.8545
 20
1.25098
 11
17.8672
 21
1.2832
  0
LINE
  8
0
 10
17.8672
 20
1.2832
 11
17.8789
 21
1.31641
  0
LINE
  8
0
 10
17.8789
 20
1.31641
 11
17.8906
 21
1.34863
  0
LINE
  8
0
 10
17.8906
 20
1.34863
 11
17.9023
 21
1.38184
  0
LINE
  8
0
 10
17.9023
 20
1.38184
 11
17.9131
 21
1.41504
  0
LINE
  8
0
 10
17.9131
 20
1.41504
 11
17.9229
 21
1.44824
  0
LINE
  8
0
 10
17.9229
 20
1.44824
 11
17.9404
 21
1.5166
  0
LINE
  8
0
 10
17.9404
 20
1.5166
 11
17.9492
 21
1.5498
  0
LINE
  8
0
 10
17.9492
 20
1.5498
 11
17.9697
 21
1.65234
  0
LINE
  8
0
 10
17.9697
 20
1.65234
 11
17.9756
 21
1.6875
  0
LINE
  8
0
 10
17.9756
 20
1.6875
 11
17.9854
 21
1.75586
  0
LINE
  8
0
 10
17.9854
 20
1.75586
 11
17.9893
 21
1.79102
  0
LINE
  8
0
 10
17.9893
 20
1.79102
 11
17.9922
 21
1.82617
  0
LINE
  8
0
 10
17.9922
 20
1.82617
 11
17.9951
 21
1.86035
  0
LINE
  8
0
 10
17.9951
 20
1.86035
 11
17.999
 21
1.93066
  0
LINE
  8
0
 10
17.999
 20
1.93066
 11
18
 21
1.96484
  0
LINE
  8
0
 10
18
 20
1.96484
 11
18
 21
2.53516
  0
LINE
  8
0
 10
18
 20
2.53516
 11
18.001
 21
2.56934
  0
LINE
  8
0
 10
18.001
 20
2.56934
 11
18.0049
 21
2.63965
  0
LINE
  8
0
 10
18.0049
 20
2.63965
 11
18.0078
 21
2.67383
  0
LINE
  8
0
 10
18.0078
 20
2.67383
 11
18.0107
 21
2.70898
  0
LINE
  8
0
 10
18.0107
 20
2.70898
 11
18.0146
 21
2.74414
  0
LINE
  8
0
 10
18.0146
 20
2.74414
 11
18.0244
 21
2.8125
  0
LINE
  8
0
 10
18.0244
 20
2.8125
 11
18.0303
 21
2.84766
  0
LINE
  8
0
 10
18.0303
 20
2.84766
 11
18.0508
 21
2.9502
  0
LINE
  8
0
 10
18.0508
 20
2.9502
 11
18.0596
 21
2.9834
  0
LINE
  8
0
 10
18.0596
 20
2.9834
 11
18.0771
 21
3.05176
  0
LINE
  8
0
 10
18.0771
 20
3.05176
 11
18.0869
 21
3.08496
  0
LINE
  8
0
 10
18.0869
 20
3.08496
 11
18.0977
 21
3.11816
  0
LINE
  8
0
 10
18.0977
 20
3.11816
 11
18.1094
 21
3.15137
  0
LINE
  8
0
 10
18.1094
 20
3.15137
 11
18.1211
 21
3.18359
  0
LINE
  8
0
 10
18.1211
 20
3.18359
 11
18.1328
 21
3.2168
  0
LINE
  8
0
 10
18.1328
 20
3.2168
 11
18.1455
 21
3.24902
  0
LINE
  8
0
 10
18.1455
 20
3.24902
 11
18.1729
 21
3.31348
  0
LINE
  8
0
 10
18.1729
 20
3.31348
 11
18.1875
 21
3.3457
  0
LINE
  8
0
 10
18.1875
 20
3.3457
 11
18.2021
 21
3.37695
  0
LINE
  8
0
 10
18.2021
 20
3.37695
 11
18.2178
 21
3.4082
  0
LINE
  8
0
 10
18.2178
 20
3.4082
 11
18.2344
 21
3.43848
  0
LINE
  8
0
 10
18.2344
 20
3.43848
 11
18.251
 21
3.46973
  0
LINE
  8
0
 10
18.251
 20
3.46973
 11
18.2676
 21
3.5
  0
LINE
  8
0
 10
18.2676
 20
3.5
 11
18.2861
 21
3.53027
  0
LINE
  8
0
 10
18.2861
 20
3.53027
 11
18.3037
 21
3.55957
  0
LINE
  8
0
 10
18.3037
 20
3.55957
 11
18.3223
 21
3.58887
  0
LINE
  8
0
 10
18.3223
 20
3.58887
 11
18.3613
 21
3.64746
  0
LINE
  8
0
 10
18.3613
 20
3.64746
 11
18.4023
 21
3.7041
  0
LINE
  8
0
 10
18.4023
 20
3.7041
 11
18.4453
 21
3.75879
  0
LINE
  8
0
 10
18.4453
 20
3.75879
 11
18.4678
 21
3.78516
  0
LINE
  8
0
 10
18.4678
 20
3.78516
 11
18.4902
 21
3.8125
  0
LINE
  8
0
 10
18.4902
 20
3.8125
 11
18.5137
 21
3.83789
  0
LINE
  8
0
 10
18.5137
 20
3.83789
 11
18.5371
 21
3.86426
  0
LINE
  8
0
 10
18.5371
 20
3.86426
 11
18.5615
 21
3.88965
  0
LINE
  8
0
 10
18.5615
 20
3.88965
 11
18.6104
 21
3.93848
  0
LINE
  8
0
 10
18.6104
 20
3.93848
 11
18.6357
 21
3.96289
  0
LINE
  8
0
 10
18.6357
 20
3.96289
 11
18.6621
 21
3.98633
  0
LINE
  8
0
 10
18.6621
 20
3.98633
 11
18.6875
 21
4.00977
  0
LINE
  8
0
 10
18.6875
 20
4.00977
 11
18.7148
 21
4.03223
  0
LINE
  8
0
 10
18.7148
 20
4.03223
 11
18.7412
 21
4.05469
  0
LINE
  8
0
 10
18.7412
 20
4.05469
 11
18.7959
 21
4.09766
  0
LINE
  8
0
 10
18.7959
 20
4.09766
 11
18.8525
 21
4.13867
  0
LINE
  8
0
 10
18.8525
 20
4.13867
 11
18.9111
 21
4.17773
  0
LINE
  8
0
 10
18.9111
 20
4.17773
 11
18.9404
 21
4.19629
  0
LINE
  8
0
 10
18.9404
 20
4.19629
 11
18.9697
 21
4.21387
  0
LINE
  8
0
 10
18.9697
 20
4.21387
 11
19
 21
4.23242
  0
LINE
  8
0
 10
19
 20
4.23242
 11
19.0303
 21
4.24902
  0
LINE
  8
0
 10
19.0303
 20
4.24902
 11
19.0615
 21
4.26562
  0
LINE
  8
0
 10
19.0615
 20
4.26562
 11
19.0918
 21
4.28223
  0
LINE
  8
0
 10
19.0918
 20
4.28223
 11
19.123
 21
4.29785
  0
LINE
  8
0
 10
19.123
 20
4.29785
 11
19.1543
 21
4.3125
  0
LINE
  8
0
 10
19.1543
 20
4.3125
 11
19.1865
 21
4.32715
  0
LINE
  8
0
 10
19.1865
 20
4.32715
 11
19.251
 21
4.35449
  0
LINE
  8
0
 10
19.251
 20
4.35449
 11
19.2832
 21
4.36719
  0
LINE
  8
0
 10
19.2832
 20
4.36719
 11
19.3164
 21
4.37891
  0
LINE
  8
0
 10
19.3164
 20
4.37891
 11
19.3486
 21
4.39062
  0
LINE
  8
0
 10
19.3486
 20
4.39062
 11
19.3818
 21
4.40234
  0
LINE
  8
0
 10
19.3818
 20
4.40234
 11
19.415
 21
4.41309
  0
LINE
  8
0
 10
19.415
 20
4.41309
 11
19.4482
 21
4.42285
  0
LINE
  8
0
 10
19.4482
 20
4.42285
 11
19.5166
 21
4.44043
  0
LINE
  8
0
 10
19.5166
 20
4.44043
 11
19.5498
 21
4.44922
  0
LINE
  8
0
 10
19.5498
 20
4.44922
 11
19.6523
 21
4.46973
  0
LINE
  8
0
 10
19.6523
 20
4.46973
 11
19.6875
 21
4.47559
  0
LINE
  8
0
 10
19.6875
 20
4.47559
 11
19.7559
 21
4.48535
  0
LINE
  8
0
 10
19.7559
 20
4.48535
 11
19.791
 21
4.48926
  0
LINE
  8
0
 10
19.791
 20
4.48926
 11
19.8262
 21
4.49219
  0
LINE
  8
0
 10
19.8262
 20
4.49219
 11
19.8604
 21
4.49512
  0
LINE
  8
0
 10
19.8604
 20
4.49512
 11
19.9307
 21
4.49902
  0
LINE
  8
0
 10
19.9307
 20
4.49902
 11
19.9648
 21
4.5
  0
LINE
  8
0
 10
19.9648
 20
4.5
 11
80.0352
 21
4.5
  0
LINE
  8
0
 10
80.0352
 20
4.5
 11
80.0693
 21
4.49902
  0
LINE
  8
0
 10
80.0693
 20
4.49902
 11
80.1396
 21
4.49512
  0
LINE
  8
0
 10
80.1396
 20
4.49512
 11
80.1738
 21
4.49219
  0
LINE
  8
0
 10
80.1738
 20
4.49219
 11
80.209
 21
4.48926
  0
LINE
  8
0
 10
80.209
 20
4.48926
 11
80.2441
 21
4.48535
  0
LINE
  8
0
 10
80.2441
 20
4.48535
 11
80.3125
 21
4.47559
  0
LINE
  8
0
 10
80.3125
 20
4.47559
 11
80.3477
 21
4.46973
  0
LINE
  8
0
 10
80.3477
 20
4.46973
 11
80.4502
 21
4.44922
  0
LINE
  8
0
 10
80.4502
 20
4.44922
 11
80.4834
 21
4.44043
  0
LINE
  8
0
 10
80.4834
 20
4.44043
 11
80.5518
 21
4.42285
  0
LINE
  8
0
 10
80.5518
 20
4.42285
 11
80.585
 21
4.41309
  0
LINE
  8
0
 10
80.585
 20
4.41309
 11
80.6182
 21
4.40234
  0
LINE
  8
0
 10
80.6182
 20
4.40234
 11
80.6514
 21
4.39062
  0
LINE
  8
0
 10
80.6514
 20
4.39062
 11
80.6836
 21
4.37891
  0
LINE
  8
0
 10
80.6836
 20
4.37891
 11
80.7168
 21
4.36719
  0
LINE
  8
0
 10
80.7168
 20
4.36719
 11
80.749
 21
4.35449
  0
LINE
  8
0
 10
80.749
 20
4.35449
 11
80.8135
 21
4.32715
  0
LINE
  8
0
 10
80.8135
 20
4.32715
 11
80.8457
 21
4.3125
  0
LINE
  8
0
 10
80.8457
 20
4.3125
 11
80.877
 21
4.29785
  0
LINE
  8
0
 10
80.877
 20
4.29785
 11
80.9082
 21
4.28223
  0
LINE
  8
0
 10
80.9082
 20
4.28223
 11
80.9385
 21
4.26562
  0
LINE
  8
0
 10
80.9385
 20
4.26562
 11
80.9697
 21
4.24902
  0
LINE
  8
0
 10
80.9697
 20
4.24902
 11
81
 21
4.23242
  0
LINE
  8
0
 10
81
 20
4.23242
 11
81.0303
 21
4.21387
  0
LINE
  8
0
 10
81.0303
 20
4.21387
 11
81.0596
 21
4.19629
  0
LINE
  8
0
 10
81.0596
 20
4.19629
 11
81.0889
 21
4.17773
  0
LINE
  8
0
 10
81.0889
 20
4.17773
 11
81.1475
 21
4.13867
  0
LINE
  8
0
 10
81.1475
 20
4.13867
 11
81.2041
 21
4.09766
  0
LINE
  8
0
 10
81.2041
 20
4.09766
 11
81.2588
 21
4.05469
  0
LINE
  8
0
 10
81.2588
 20
4.05469
 11
81.2852
 21
4.03223
  0
LINE
  8
0
 10
81.2852
 20
4.03223
 11
81.3125
 21
4.00977
  0
LINE
  8
0
 10
81.3125
 20
4.00977
 11
81.3379
 21
3.98633
  0
LINE
  8
0
 10
81.3379
 20
3.98633
 11
81.3643
 21
3.96289
  0
LINE
  8
0
 10
81.3643
 20
3.96289
 11
81.3896
 21
3.93848
  0
LINE
  8
0
 10
81.3896
 20
3.93848
 11
81.4385
 21
3.88965
  0
LINE
  8
0
 10
81.4385
 20
3.88965
 11
81.4629
 21
3.86426
  0
LINE
  8
0
 10
81.4629
 20
3.86426
 11
81.4863
 21
3.83789
  0
LINE
  8
0
 10
81.4863
 20
3.83789
 11
81.5098
 21
3.8125
  0
LINE
  8
0
 10
81.5098
 20
3.8125
 11
81.5322
 21
3.78516
  0
LINE
  8
0
 10
81.5322
 20
3.78516
 11
81.5547
 21
3.75879
  0
LINE
  8
0
 10
81.5547
 20
3.75879
 11
81.5977
 21
3.7041
  0
LINE
  8
0
 10
81.5977
 20
3.7041
 11
81.6387
 21
3.64746
  0
LINE
  8
0
 10
81.6387
 20
3.64746
 11
81.6777
 21
3.58887
  0
LINE
  8
0
 10
81.6777
 20
3.58887
 11
81.6963
 21
3.55957
  0
LINE
  8
0
 10
81.6963
 20
3.55957
 11
81.7139
 21
3.53027
  0
LINE
  8
0
 10
81.7139
 20
3.53027
 11
81.7324
 21
3.5
  0
LINE
  8
0
 10
81.7324
 20
3.5
 11
81.749
 21
3.46973
  0
LINE
  8
0
 10
81.749
 20
3.46973
 11
81.7656
 21
3.43848
  0
LINE
  8
0
 10
81.7656
 20
3.43848
 11
81.7822
 21
3.4082
  0
LINE
  8
0
 10
81.7822
 20
3.4082
 11
81.7979
 21
3.37695
  0
LINE
  8
0
 10
81.7979
 20
3.37695
 11
81.8125
 21
3.3457
  0
LINE
  8
0
 10
81.8125
 20
3.3457
 11
81.8271
 21
3.31348
  0
LINE
  8
0
 10
81.8271
 20
3.31348
 11
81.8545
 21
3.24902
  0
LINE
  8
0
 10
81.8545
 20
3.24902
 11
81.8672
 21
3.2168
  0
LINE
  8
0
 10
81.8672
 20
3.2168
 11
81.8789
 21
3.18359
  0
LINE
  8
0
 10
81.8789
 20
3.18359
 11
81.8906
 21
3.15137
  0
LINE
  8
0
 10
81.8906
 20
3.15137
 11
81.9023
 21
3.11816
  0
LINE
  8
0
 10
81.9023
 20
3.11816
 11
81.9131
 21
3.08496
  0
LINE
  8
0
 10
81.9131
 20
3.08496
 11
81.9229
 21
3.05176
  0
LINE
  8
0
 10
81.9229
 20
3.05176
 11
81.9404
 21
2.9834
  0
LINE
  8
0
 10
81.9404
 20
2.9834
 11
81.9492
 21
2.9502
  0
LINE
  8
0
 10
81.9492
 20
2.9502
 11
81.9697
 21
2.84766
  0
LINE
  8
0
 10
81.9697
 20
2.84766
 11
81.9756
 21
2.8125
  0
LINE
  8
0
 10
81.9756
 20
2.8125
 11
81.9854
 21
2.74414
  0
LINE
  8
0
 10
81.9854
 20
2.74414
 11
81.9893
 21
2.70898
  0
LINE
  8
0
 10
81.9893
 20
2.70898
 11
81.9922
 21
2.67383
  0
LINE
  8
0
 10
81.9922
 20
2.67383
 11
81.9951
 21
2.63965
  0
LINE
  8
0
 10
81.9951
 20
2.63965
 11
81.999
 21
2.56934
  0
LINE
  8
0
 10
81.999
 20
2.56934
 11
82
 21
2.53516
  0
LINE
  8
0
 10
82
 20
2.53516
 11
82
 21
1.96484
  0
LINE
  8
0
 10
82
 20
1.96484
 11
82.001
 21
1.93066
  0
LINE
  8
0
 10
82.001
 20
1.93066
 11
82.0049
 21
1.86035
  0
LINE
  8
0
 10
82.0049
 20
1.86035
 11
82.0078
 21
1.82617
  0
LINE
  8
0
 10
82.0078
 20
1.82617
 11
82.0107
 21
1.79102
  0
LINE
  8
0
 10
82.0107
 20
1.79102
 11
82.0146
 21
1.75586
  0
LINE
  8
0
 10
82.0146
 20
1.75586
 11
82.0244
 21
1.6875
  0
LINE
  8
0
 10
82.0244
 20
1.6875
 11
82.0303
 21
1.65234
  0
LINE
  8
0
 10
82.0303
 20
1.65234
 11
82.0508
 21
1.5498
  0
LINE
  8
0
 10
82.0508
 20
1.5498
 11
82.0596
 21
1.5166
  0
LINE
  8
0
 10
82.0596
 20
1.5166
 11
82.0771
 21
1.44824
  0
LINE
  8
0
 10
82.0771
 20
1.44824
 11
82.0869
 21
1.41504
  0
LINE
  8
0
 10
82.0869
 20
1.41504
 11
82.0977
 21
1.38184
  0
LINE
  8
0
 10
82.0977
 20
1.38184
 11
82.1094
 21
1.34863
  0
LINE
  8
0
 10
82.1094
 20
1.34863
 11
82.1211
 21
1.31641
  0
LINE
  8
0
 10
82.1211
 20
1.31641
 11
82.1328
 21
1.2832
  0
LINE
  8
0
 10
82.1328
 20
1.2832
 11
82.1455
 21
1.25098
  0
LINE
  8
0
 10
82.1455
 20
1.25098
 11
82.1729
 21
1.18652
  0
LINE
  8
0
 10
82.1729
 20
1.18652
 11
82.1875
 21
1.1543
  0
LINE
  8
0
 10
82.1875
 20
1.1543
 11
82.2021
 21
1.12305
  0
LINE
  8
0
 10
82.2021
 20
1.12305
 11
82.2178
 21
1.0918
  0
LINE
  8
0
 10
82.2178
 20
1.0918
 11
82.2344
 21
1.06152
  0
LINE
  8
0
 10
82.2344
 20
1.06152
 11
82.251
 21
1.03027
  0
LINE
  8
0
 10
82.251
 20
1.03027
 11
82.2676
 21
1
  0
LINE
  8
0
 10
82.2676
 20
1
 11
82.2861
 21
0.969727
  0
LINE
  8
0
 10
82.2861
 20
0.969727
 11
82.3037
 21
0.94043
  0
LINE
  8
0
 10
82.3037
 20
0.94043
 11
82.3223
 21
0.911133
  0
LINE
  8
0
 10
82.3223
 20
0.911133
 11
82.3613
 21
0.852539
  0
LINE
  8
0
 10
82.3613
 20
0.852539
 11
82.4023
 21
0.795898
  0
LINE
  8
0
 10
82.4023
 20
0.795898
 11
82.4453
 21
0.741211
  0
LINE
  8
0
 10
82.4453
 20
0.741211
 11
82.4678
 21
0.714844
  0
LINE
  8
0
 10
82.4678
 20
0.714844
 11
82.4902
 21
0.6875
  0
LINE
  8
0
 10
82.4902
 20
0.6875
 11
82.5137
 21
0.662109
  0
LINE
  8
0
 10
82.5137
 20
0.662109
 11
82.5371
 21
0.635742
  0
LINE
  8
0
 10
82.5371
 20
0.635742
 11
82.5615
 21
0.610352
  0
LINE
  8
0
 10
82.5615
 20
0.610352
 11
82.6104
 21
0.561523
  0
LINE
  8
0
 10
82.6104
 20
0.561523
 11
82.6357
 21
0.537109
  0
LINE
  8
0
 10
82.6357
 20
0.537109
 11
82.6621
 21
0.513672
  0
LINE
  8
0
 10
82.6621
 20
0.513672
 11
82.6875
 21
0.490234
  0
LINE
  8
0
 10
82.6875
 20
0.490234
 11
82.7148
 21
0.467773
  0
LINE
  8
0
 10
82.7148
 20
0.467773
 11
82.7412
 21
0.445312
  0
LINE
  8
0
 10
82.7412
 20
0.445312
 11
82.7959
 21
0.402344
  0
LINE
  8
0
 10
82.7959
 20
0.402344
 11
82.8525
 21
0.361328
  0
LINE
  8
0
 10
82.8525
 20
0.361328
 11
82.9111
 21
0.322266
  0
LINE
  8
0
 10
82.9111
 20
0.322266
 11
82.9404
 21
0.303711
  0
LINE
  8
0
 10
82.9404
 20
0.303711
 11
82.9697
 21
0.286133
  0
LINE
  8
0
 10
82.9697
 20
0.286133
 11
83
 21
0.267578
  0
LINE
  8
0
 10
83
 20
0.267578
 11
83.0303
 21
0.250977
  0
LINE
  8
0
 10
83.0303
 20
0.250977
 11
83.0615
 21
0.234375
  0
LINE
  8
0
 10
83.0615
 20
0.234375
 11
83.0918
 21
0.217773
  0
LINE
  8
0
 10
83.0918
 20
0.217773
 11
83.123
 21
0.202148
  0
LINE
  8
0
 10
83.123
 20
0.202148
 11
83.1543
 21
0.1875
  0
LINE
  8
0
 10
83.1543
 20
0.1875
 11
83.1865
 21
0.172852
  0
LINE
  8
0
 10
83.1865
 20
0.172852
 11
83.251
 21
0.145508
  0
LINE
  8
0
 10
83.251
 20
0.145508
 11
83.2832
 21
0.132812
  0
LINE
  8
0
 10
83.2832
 20
0.132812
 11
83.3164
 21
0.121094
  0
LINE
  8
0
 10
83.3164
 20
0.121094
 11
83.3486
 21
0.109375
  0
LINE
  8
0
 10
83.3486
 20
0.109375
 11
83.3818
 21
0.0976562
  0
LINE
  8
0
 10
83.3818
 20
0.0976562
 11
83.415
 21
0.0869141
  0
LINE
  8
0
 10
83.415
 20
0.0869141
 11
83.4482
 21
0.0771484
  0
LINE
  8
0
 10
83.4482
 20
0.0771484
 11
83.5166
 21
0.0595703
  0
LINE
  8
0
 10
83.5166
 20
0.0595703
 11
83.5498
 21
0.0507812
  0
LINE
  8
0
 10
83.5498
 20
0.0507812
 11
83.6523
 21
0.0302734
  0
LINE
  8
0
 10
83.6523
 20
0.0302734
 11
83.6875
 21
0.0244141
  0
LINE
  8
0
 10
83.6875
 20
0.0244141
 11
83.7559
 21
0.0146484
  0
LINE
  8
0
 10
83.7559
 20
0.0146484
 11
83.791
 21
0.0107422
  0
LINE
  8
0
 10
83.791
 20
0.0107422
 11
83.8262
 21
0.0078125
  0
LINE
  8
0
 10
83.8262
 20
0.0078125
 11
83.8604
 21
0.00488281
  0
LINE
  8
0
 10
83.8604
 20
0.00488281
 11
83.9307
 21
0.000976562
  0
LINE
  8
0
 10
83.9307
 20
0.000976562
 11
83.9648
 21
0
  0
LINE
  8
0
 10
83.9648
 20
0
 11
96
 21
0
  0
LINE
  8
0
 10
96
 20
0
 11
96
 21
1.51758
  0
LINE
  8
0
 10
96
 20
1.51758
 11
96.001
 21
1.53516
  0
LINE
  8
0
 10
96.001
 20
1.53516
 11
96.001
 21
1.55273
  0
LINE
  8
0
 10
96.001
 20
1.55273
 11
96.002
 21
1.56934
  0
LINE
  8
0
 10
96.002
 20
1.56934
 11
96.0098
 21
1.63965
  0
LINE
  8
0
 10
96.0098
 20
1.63965
 11
96.0127
 21
1.65625
  0
LINE
  8
0
 10
96.0127
 20
1.65625
 11
96.0156
 21
1.67383
  0
LINE
  8
0
 10
96.0156
 20
1.67383
 11
96.0186
 21
1.69043
  0
LINE
  8
0
 10
96.0186
 20
1.69043
 11
96.0215
 21
1.70801
  0
LINE
  8
0
 10
96.0215
 20
1.70801
 11
96.0254
 21
1.72461
  0
LINE
  8
0
 10
96.0254
 20
1.72461
 11
96.0293
 21
1.74219
  0
LINE
  8
0
 10
96.0293
 20
1.74219
 11
96.0488
 21
1.80859
  0
LINE
  8
0
 10
96.0488
 20
1.80859
 11
96.0664
 21
1.8584
  0
LINE
  8
0
 10
96.0664
 20
1.8584
 11
96.0732
 21
1.875
  0
LINE
  8
0
 10
96.0732
 20
1.875
 11
96.0791
 21
1.89062
  0
LINE
  8
0
 10
96.0791
 20
1.89062
 11
96.0869
 21
1.90625
  0
LINE
  8
0
 10
96.0869
 20
1.90625
 11
96.0938
 21
1.92285
  0
LINE
  8
0
 10
96.0938
 20
1.92285
 11
96.1172
 21
1.96973
  0
LINE
  8
0
 10
96.1172
 20
1.96973
 11
96.125
 21
1.98438
  0
LINE
  8
0
 10
96.125
 20
1.98438
 11
96.1338
 21
2
  0
LINE
  8
0
 10
96.1338
 20
2
 11
96.1426
 21
2.01465
  0
LINE
  8
0
 10
96.1426
 20
2.01465
 11
96.1523
 21
2.03027
  0
LINE
  8
0
 10
96.1523
 20
2.03027
 11
96.1611
 21
2.04492
  0
LINE
  8
0
 10
96.1611
 20
2.04492
 11
96.1709
 21
2.05957
  0
LINE
  8
0
 10
96.1709
 20
2.05957
 11
96.1807
 21
2.07324
  0
LINE
  8
0
 10
96.1807
 20
2.07324
 11
96.1914
 21
2.08789
  0
LINE
  8
0
 10
96.1914
 20
2.08789
 11
96.2012
 21
2.10156
  0
LINE
  8
0
 10
96.2012
 20
2.10156
 11
96.2227
 21
2.12891
  0
LINE
  8
0
 10
96.2227
 20
2.12891
 11
96.2344
 21
2.14258
  0
LINE
  8
0
 10
96.2344
 20
2.14258
 11
96.2451
 21
2.15625
  0
LINE
  8
0
 10
96.2451
 20
2.15625
 11
96.2803
 21
2.19434
  0
LINE
  8
0
 10
96.2803
 20
2.19434
 11
96.3057
 21
2.21973
  0
LINE
  8
0
 10
96.3057
 20
2.21973
 11
96.3438
 21
2.25488
  0
LINE
  8
0
 10
96.3438
 20
2.25488
 11
96.3574
 21
2.26562
  0
LINE
  8
0
 10
96.3574
 20
2.26562
 11
96.3711
 21
2.27734
  0
LINE
  8
0
 10
96.3711
 20
2.27734
 11
96.3984
 21
2.29883
  0
LINE
  8
0
 10
96.3984
 20
2.29883
 11
96.4121
 21
2.30859
  0
LINE
  8
0
 10
96.4121
 20
2.30859
 11
96.4268
 21
2.31934
  0
LINE
  8
0
 10
96.4268
 20
2.31934
 11
96.4404
 21
2.3291
  0
LINE
  8
0
 10
96.4404
 20
2.3291
 11
96.4551
 21
2.33887
  0
LINE
  8
0
 10
96.4551
 20
2.33887
 11
96.4697
 21
2.34766
  0
LINE
  8
0
 10
96.4697
 20
2.34766
 11
96.4854
 21
2.35742
  0
LINE
  8
0
 10
96.4854
 20
2.35742
 11
96.5
 21
2.36621
  0
LINE
  8
0
 10
96.5
 20
2.36621
 11
96.5156
 21
2.375
  0
LINE
  8
0
 10
96.5156
 20
2.375
 11
96.5303
 21
2.38281
  0
LINE
  8
0
 10
96.5303
 20
2.38281
 11
96.5771
 21
2.40625
  0
LINE
  8
0
 10
96.5771
 20
2.40625
 11
96.5938
 21
2.41309
  0
LINE
  8
0
 10
96.5938
 20
2.41309
 11
96.6094
 21
2.4209
  0
LINE
  8
0
 10
96.6094
 20
2.4209
 11
96.625
 21
2.42676
  0
LINE
  8
0
 10
96.625
 20
2.42676
 11
96.6416
 21
2.43359
  0
LINE
  8
0
 10
96.6416
 20
2.43359
 11
96.6914
 21
2.45117
  0
LINE
  8
0
 10
96.6914
 20
2.45117
 11
96.7578
 21
2.4707
  0
LINE
  8
0
 10
96.7578
 20
2.4707
 11
96.7754
 21
2.47461
  0
LINE
  8
0
 10
96.7754
 20
2.47461
 11
96.792
 21
2.47852
  0
LINE
  8
0
 10
96.792
 20
2.47852
 11
96.8096
 21
2.48145
  0
LINE
  8
0
 10
96.8096
 20
2.48145
 11
96.8262
 21
2.48438
  0
LINE
  8
0
 10
96.8262
 20
2.48438
 11
96.8438
 21
2.4873
  0
LINE
  8
0
 10
96.8438
 20
2.4873
 11
96.8604
 21
2.49023
  0
LINE
  8
0
 10
96.8604
 20
2.49023
 11
96.9307
 21
2.49805
  0
LINE
  8
0
 10
96.9307
 20
2.49805
 11
96.9473
 21
2.49902
  0
LINE
  8
0
 10
96.9473
 20
2.49902
 11
96.9648
 21
2.49902
  0
LINE
  8
0
 10
96.9648
 20
2.49902
 11
96.9824
 21
2.5
  0
LINE
  8
0
 10
96.9824
 20
2.5
 11
99.9678
 21
2.5
  0
LINE
  8
0
 10
99.9678
 20
2.5
 11
99.9854
 21
2.50098
  0
LINE
  8
0
 10
99.9854
 20
2.50098
 11
100.002
 21
2.50098
  0
LINE
  8
0
 10
100.002
 20
2.50098
 11
100.02
 21
2.50195
  0
LINE
  8
0
 10
100.02
 20
2.50195
 11
100.072
 21
2.50781
  0
LINE
  8
0
 10
100.072
 20
2.50781
 11
100.089
 21
2.50977
  0
LINE
  8
0
 10
100.089
 20
2.50977
 11
100.124
 21
2.51562
  0
LINE
  8
0
 10
100.124
 20
2.51562
 11
100.141
 21
2.51855
  0
LINE
  8
0
 10
100.141
 20
2.51855
 11
100.158
 21
2.52148
  0
LINE
  8
0
 10
100.158
 20
2.52148
 11
100.175
 21
2.52539
  0
LINE
  8
0
 10
100.175
 20
2.52539
 11
100.192
 21
2.5293
  0
LINE
  8
0
 10
100.192
 20
2.5293
 11
100.259
 21
2.54883
  0
LINE
  8
0
 10
100.259
 20
2.54883
 11
100.309
 21
2.56641
  0
LINE
  8
0
 10
100.309
 20
2.56641
 11
100.324
 21
2.57324
  0
LINE
  8
0
 10
100.324
 20
2.57324
 11
100.341
 21
2.5791
  0
LINE
  8
0
 10
100.341
 20
2.5791
 11
100.356
 21
2.58691
  0
LINE
  8
0
 10
100.356
 20
2.58691
 11
100.373
 21
2.59375
  0
LINE
  8
0
 10
100.373
 20
2.59375
 11
100.42
 21
2.61719
  0
LINE
  8
0
 10
100.42
 20
2.61719
 11
100.435
 21
2.625
  0
LINE
  8
0
 10
100.435
 20
2.625
 11
100.45
 21
2.63379
  0
LINE
  8
0
 10
100.45
 20
2.63379
 11
100.465
 21
2.64258
  0
LINE
  8
0
 10
100.465
 20
2.64258
 11
100.479
 21
2.65234
  0
LINE
  8
0
 10
100.479
 20
2.65234
 11
100.495
 21
2.66113
  0
LINE
  8
0
 10
100.495
 20
2.66113
 11
100.509
 21
2.6709
  0
LINE
  8
0
 10
100.509
 20
2.6709
 11
100.523
 21
2.68066
  0
LINE
  8
0
 10
100.523
 20
2.68066
 11
100.538
 21
2.69141
  0
LINE
  8
0
 10
100.538
 20
2.69141
 11
100.552
 21
2.70117
  0
LINE
  8
0
 10
100.552
 20
2.70117
 11
100.579
 21
2.72266
  0
LINE
  8
0
 10
100.579
 20
2.72266
 11
100.593
 21
2.73438
  0
LINE
  8
0
 10
100.593
 20
2.73438
 11
100.606
 21
2.74512
  0
LINE
  8
0
 10
100.606
 20
2.74512
 11
100.645
 21
2.78027
  0
LINE
  8
0
 10
100.645
 20
2.78027
 11
100.657
 21
2.79297
  0
LINE
  8
0
 10
100.657
 20
2.79297
 11
100.669
 21
2.80566
  0
LINE
  8
0
 10
100.669
 20
2.80566
 11
100.682
 21
2.81836
  0
LINE
  8
0
 10
100.682
 20
2.81836
 11
100.705
 21
2.84375
  0
LINE
  8
0
 10
100.705
 20
2.84375
 11
100.716
 21
2.85742
  0
LINE
  8
0
 10
100.716
 20
2.85742
 11
100.728
 21
2.87109
  0
LINE
  8
0
 10
100.728
 20
2.87109
 11
100.749
 21
2.89844
  0
LINE
  8
0
 10
100.749
 20
2.89844
 11
100.759
 21
2.91211
  0
LINE
  8
0
 10
100.759
 20
2.91211
 11
100.77
 21
2.92676
  0
LINE
  8
0
 10
100.77
 20
2.92676
 11
100.779
 21
2.94043
  0
LINE
  8
0
 10
100.779
 20
2.94043
 11
100.789
 21
2.95508
  0
LINE
  8
0
 10
100.789
 20
2.95508
 11
100.798
 21
2.96973
  0
LINE
  8
0
 10
100.798
 20
2.96973
 11
100.808
 21
2.98535
  0
LINE
  8
0
 10
100.808
 20
2.98535
 11
100.816
 21
3
  0
LINE
  8
0
 10
100.816
 20
3
 11
100.824
 21
3.01562
  0
LINE
  8
0
 10
100.824
 20
3.01562
 11
100.833
 21
3.03027
  0
LINE
  8
0
 10
100.833
 20
3.03027
 11
100.856
 21
3.07715
  0
LINE
  8
0
 10
100.856
 20
3.07715
 11
100.863
 21
3.09375
  0
LINE
  8
0
 10
100.863
 20
3.09375
 11
100.877
 21
3.125
  0
LINE
  8
0
 10
100.877
 20
3.125
 11
100.884
 21
3.1416
  0
LINE
  8
0
 10
100.884
 20
3.1416
 11
100.901
 21
3.19141
  0
LINE
  8
0
 10
100.901
 20
3.19141
 11
100.916
 21
3.24121
  0
LINE
  8
0
 10
100.916
 20
3.24121
 11
100.92
 21
3.25781
  0
LINE
  8
0
 10
100.92
 20
3.25781
 11
100.925
 21
3.27539
  0
LINE
  8
0
 10
100.925
 20
3.27539
 11
100.928
 21
3.29199
  0
LINE
  8
0
 10
100.928
 20
3.29199
 11
100.932
 21
3.30957
  0
LINE
  8
0
 10
100.932
 20
3.30957
 11
100.935
 21
3.32617
  0
LINE
  8
0
 10
100.935
 20
3.32617
 11
100.938
 21
3.34375
  0
LINE
  8
0
 10
100.938
 20
3.34375
 11
100.94
 21
3.36035
  0
LINE
  8
0
 10
100.94
 20
3.36035
 11
100.946
 21
3.41309
  0
LINE
  8
0
 10
100.946
 20
3.41309
 11
100.947
 21
3.43066
  0
LINE
  8
0
 10
100.947
 20
3.43066
 11
100.948
 21
3.44727
  0
LINE
  8
0
 10
100.948
 20
3.44727
 11
100.95
 21
3.48242
  0
LINE
  8
0
 10
100.95
 20
3.48242
 11
100.95
 21
4.81738
  0
LINE
  8
0
 10
100.95
 20
4.81738
 11
100.947
 21
4.87012
  0
LINE
  8
0
 10
100.947
 20
4.87012
 11
100.946
 21
4.88672
  0
LINE
  8
0
 10
100.946
 20
4.88672
 11
100.94
 21
4.93945
  0
LINE
  8
0
 10
100.94
 20
4.93945
 11
100.938
 21
4.95605
  0
LINE
  8
0
 10
100.938
 20
4.95605
 11
100.932
 21
4.99121
  0
LINE
  8
0
 10
100.932
 20
4.99121
 11
100.928
 21
5.00781
  0
LINE
  8
0
 10
100.928
 20
5.00781
 11
100.925
 21
5.02539
  0
LINE
  8
0
 10
100.925
 20
5.02539
 11
100.92
 21
5.04199
  0
LINE
  8
0
 10
100.92
 20
5.04199
 11
100.916
 21
5.05859
  0
LINE
  8
0
 10
100.916
 20
5.05859
 11
100.911
 21
5.0752
  0
LINE
  8
0
 10
100.911
 20
5.0752
 11
100.906
 21
5.09277
  0
LINE
  8
0
 10
100.906
 20
5.09277
 11
100.901
 21
5.10938
  0
LINE
  8
0
 10
100.901
 20
5.10938
 11
100.896
 21
5.12598
  0
LINE
  8
0
 10
100.896
 20
5.12598
 11
100.89
 21
5.1416
  0
LINE
  8
0
 10
100.89
 20
5.1416
 11
100.884
 21
5.1582
  0
LINE
  8
0
 10
100.884
 20
5.1582
 11
100.877
 21
5.1748
  0
LINE
  8
0
 10
100.877
 20
5.1748
 11
100.87
 21
5.19043
  0
LINE
  8
0
 10
100.87
 20
5.19043
 11
100.863
 21
5.20703
  0
LINE
  8
0
 10
100.863
 20
5.20703
 11
100.856
 21
5.22266
  0
LINE
  8
0
 10
100.856
 20
5.22266
 11
100.833
 21
5.26953
  0
LINE
  8
0
 10
100.833
 20
5.26953
 11
100.824
 21
5.28516
  0
LINE
  8
0
 10
100.824
 20
5.28516
 11
100.816
 21
5.2998
  0
LINE
  8
0
 10
100.816
 20
5.2998
 11
100.808
 21
5.31543
  0
LINE
  8
0
 10
100.808
 20
5.31543
 11
100.798
 21
5.33008
  0
LINE
  8
0
 10
100.798
 20
5.33008
 11
100.789
 21
5.34473
  0
LINE
  8
0
 10
100.789
 20
5.34473
 11
100.77
 21
5.37402
  0
LINE
  8
0
 10
100.77
 20
5.37402
 11
100.759
 21
5.3877
  0
LINE
  8
0
 10
100.759
 20
5.3877
 11
100.749
 21
5.40137
  0
LINE
  8
0
 10
100.749
 20
5.40137
 11
100.738
 21
5.41602
  0
LINE
  8
0
 10
100.738
 20
5.41602
 11
100.728
 21
5.42969
  0
LINE
  8
0
 10
100.728
 20
5.42969
 11
100.716
 21
5.44238
  0
LINE
  8
0
 10
100.716
 20
5.44238
 11
100.705
 21
5.45605
  0
LINE
  8
0
 10
100.705
 20
5.45605
 11
100.693
 21
5.46875
  0
LINE
  8
0
 10
100.693
 20
5.46875
 11
100.682
 21
5.48242
  0
LINE
  8
0
 10
100.682
 20
5.48242
 11
100.645
 21
5.51953
  0
LINE
  8
0
 10
100.645
 20
5.51953
 11
100.606
 21
5.55469
  0
LINE
  8
0
 10
100.606
 20
5.55469
 11
100.593
 21
5.56641
  0
LINE
  8
0
 10
100.593
 20
5.56641
 11
100.538
 21
5.60938
  0
LINE
  8
0
 10
100.538
 20
5.60938
 11
100.509
 21
5.62891
  0
LINE
  8
0
 10
100.509
 20
5.62891
 11
100.495
 21
5.63867
  0
LINE
  8
0
 10
100.495
 20
5.63867
 11
100.479
 21
5.64844
  0
LINE
  8
0
 10
100.479
 20
5.64844
 11
100.45
 21
5.66602
  0
LINE
  8
0
 10
100.45
 20
5.66602
 11
100.435
 21
5.6748
  0
LINE
  8
0
 10
100.435
 20
5.6748
 11
100.42
 21
5.68262
  0
LINE
  8
0
 10
100.42
 20
5.68262
 11
100.404
 21
5.69141
  0
LINE
  8
0
 10
100.404
 20
5.69141
 11
100.389
 21
5.69922
  0
LINE
  8
0
 10
100.389
 20
5.69922
 11
100.373
 21
5.70605
  0
LINE
  8
0
 10
100.373
 20
5.70605
 11
100.356
 21
5.71387
  0
LINE
  8
0
 10
100.356
 20
5.71387
 11
100.341
 21
5.7207
  0
LINE
  8
0
 10
100.341
 20
5.7207
 11
100.324
 21
5.72754
  0
LINE
  8
0
 10
100.324
 20
5.72754
 11
100.309
 21
5.7334
  0
LINE
  8
0
 10
100.309
 20
5.7334
 11
100.259
 21
5.75098
  0
LINE
  8
0
 10
100.259
 20
5.75098
 11
100.242
 21
5.75586
  0
LINE
  8
0
 10
100.242
 20
5.75586
 11
100.226
 21
5.76172
  0
LINE
  8
0
 10
100.226
 20
5.76172
 11
100.209
 21
5.76562
  0
LINE
  8
0
 10
100.209
 20
5.76562
 11
100.192
 21
5.77051
  0
LINE
  8
0
 10
100.192
 20
5.77051
 11
100.175
 21
5.77441
  0
LINE
  8
0
 10
100.175
 20
5.77441
 11
100.158
 21
5.77832
  0
LINE
  8
0
 10
100.158
 20
5.77832
 11
100.141
 21
5.78125
  0
LINE
  8
0
 10
100.141
 20
5.78125
 11
100.124
 21
5.78516
  0
LINE
  8
0
 10
100.124
 20
5.78516
 11
100.106
 21
5.78809
  0
LINE
  8
0
 10
100.106
 20
5.78809
 11
100.089
 21
5.79004
  0
LINE
  8
0
 10
100.089
 20
5.79004
 11
100.072
 21
5.79297
  0
LINE
  8
0
 10
100.072
 20
5.79297
 11
100.055
 21
5.79492
  0
LINE
  8
0
 10
100.055
 20
5.79492
 11
100.037
 21
5.7959
  0
LINE
  8
0
 10
100.037
 20
5.7959
 11
100.02
 21
5.79785
  0
LINE
  8
0
 10
100.02
 20
5.79785
 11
100.002
 21
5.79883
  0
LINE
  8
0
 10
100.002
 20
5.79883
 11
99.9854
 21
5.7998
  0
LINE
  8
0
 10
99.9854
 20
5.7998
 11
87.9326
 21
5.7998
  0
LINE
  8
0
 10
87.9326
 20
5.7998
 11
87.8799
 21
5.80273
  0
LINE
  8
0
 10
87.8799
 20
5.80273
 11
87.8633
 21
5.80371
  0
LINE
  8
0
 10
87.8633
 20
5.80371
 11
87.8105
 21
5.80957
  0
LINE
  8
0
 10
87.8105
 20
5.80957
 11
87.7939
 21
5.8125
  0
LINE
  8
0
 10
87.7939
 20
5.8125
 11
87.7588
 21
5.81836
  0
LINE
  8
0
 10
87.7588
 20
5.81836
 11
87.7422
 21
5.82227
  0
LINE
  8
0
 10
87.7422
 20
5.82227
 11
87.7246
 21
5.8252
  0
LINE
  8
0
 10
87.7246
 20
5.8252
 11
87.708
 21
5.83008
  0
LINE
  8
0
 10
87.708
 20
5.83008
 11
87.6914
 21
5.83398
  0
LINE
  8
0
 10
87.6914
 20
5.83398
 11
87.6748
 21
5.83887
  0
LINE
  8
0
 10
87.6748
 20
5.83887
 11
87.6572
 21
5.84375
  0
LINE
  8
0
 10
87.6572
 20
5.84375
 11
87.6406
 21
5.84863
  0
LINE
  8
0
 10
87.6406
 20
5.84863
 11
87.624
 21
5.85449
  0
LINE
  8
0
 10
87.624
 20
5.85449
 11
87.6084
 21
5.86035
  0
LINE
  8
0
 10
87.6084
 20
5.86035
 11
87.5918
 21
5.86621
  0
LINE
  8
0
 10
87.5918
 20
5.86621
 11
87.5752
 21
5.87305
  0
LINE
  8
0
 10
87.5752
 20
5.87305
 11
87.5596
 21
5.87988
  0
LINE
  8
0
 10
87.5596
 20
5.87988
 11
87.543
 21
5.88672
  0
LINE
  8
0
 10
87.543
 20
5.88672
 11
87.5273
 21
5.89355
  0
LINE
  8
0
 10
87.5273
 20
5.89355
 11
87.4805
 21
5.91699
  0
LINE
  8
0
 10
87.4805
 20
5.91699
 11
87.4648
 21
5.92578
  0
LINE
  8
0
 10
87.4648
 20
5.92578
 11
87.4502
 21
5.93359
  0
LINE
  8
0
 10
87.4502
 20
5.93359
 11
87.4346
 21
5.94238
  0
LINE
  8
0
 10
87.4346
 20
5.94238
 11
87.4199
 21
5.95215
  0
LINE
  8
0
 10
87.4199
 20
5.95215
 11
87.4053
 21
5.96094
  0
LINE
  8
0
 10
87.4053
 20
5.96094
 11
87.376
 21
5.98047
  0
LINE
  8
0
 10
87.376
 20
5.98047
 11
87.3623
 21
5.99121
  0
LINE
  8
0
 10
87.3623
 20
5.99121
 11
87.3486
 21
6.00098
  0
LINE
  8
0
 10
87.3486
 20
6.00098
 11
87.334
 21
6.01172
  0
LINE
  8
0
 10
87.334
 20
6.01172
 11
87.3203
 21
6.02246
  0
LINE
  8
0
 10
87.3203
 20
6.02246
 11
87.3076
 21
6.03418
  0
LINE
  8
0
 10
87.3076
 20
6.03418
 11
87.2939
 21
6.04492
  0
LINE
  8
0
 10
87.2939
 20
6.04492
 11
87.2812
 21
6.05664
  0
LINE
  8
0
 10
87.2812
 20
6.05664
 11
87.2676
 21
6.06836
  0
LINE
  8
0
 10
87.2676
 20
6.06836
 11
87.2305
 21
6.10547
  0
LINE
  8
0
 10
87.2305
 20
6.10547
 11
87.1953
 21
6.14355
  0
LINE
  8
0
 10
87.1953
 20
6.14355
 11
87.1836
 21
6.15723
  0
LINE
  8
0
 10
87.1836
 20
6.15723
 11
87.1406
 21
6.21191
  0
LINE
  8
0
 10
87.1406
 20
6.21191
 11
87.1211
 21
6.24121
  0
LINE
  8
0
 10
87.1211
 20
6.24121
 11
87.1113
 21
6.25488
  0
LINE
  8
0
 10
87.1113
 20
6.25488
 11
87.1016
 21
6.27051
  0
LINE
  8
0
 10
87.1016
 20
6.27051
 11
87.084
 21
6.2998
  0
LINE
  8
0
 10
87.084
 20
6.2998
 11
87.0752
 21
6.31543
  0
LINE
  8
0
 10
87.0752
 20
6.31543
 11
87.0674
 21
6.33008
  0
LINE
  8
0
 10
87.0674
 20
6.33008
 11
87.0586
 21
6.3457
  0
LINE
  8
0
 10
87.0586
 20
6.3457
 11
87.0508
 21
6.36133
  0
LINE
  8
0
 10
87.0508
 20
6.36133
 11
87.0439
 21
6.37695
  0
LINE
  8
0
 10
87.0439
 20
6.37695
 11
87.0361
 21
6.39355
  0
LINE
  8
0
 10
87.0361
 20
6.39355
 11
87.0293
 21
6.40918
  0
LINE
  8
0
 10
87.0293
 20
6.40918
 11
87.0225
 21
6.42578
  0
LINE
  8
0
 10
87.0225
 20
6.42578
 11
87.0166
 21
6.44141
  0
LINE
  8
0
 10
87.0166
 20
6.44141
 11
86.999
 21
6.49121
  0
LINE
  8
0
 10
86.999
 20
6.49121
 11
86.9941
 21
6.50781
  0
LINE
  8
0
 10
86.9941
 20
6.50781
 11
86.9883
 21
6.52441
  0
LINE
  8
0
 10
86.9883
 20
6.52441
 11
86.9844
 21
6.54102
  0
LINE
  8
0
 10
86.9844
 20
6.54102
 11
86.9795
 21
6.55762
  0
LINE
  8
0
 10
86.9795
 20
6.55762
 11
86.9756
 21
6.5752
  0
LINE
  8
0
 10
86.9756
 20
6.5752
 11
86.9717
 21
6.5918
  0
LINE
  8
0
 10
86.9717
 20
6.5918
 11
86.9688
 21
6.60938
  0
LINE
  8
0
 10
86.9688
 20
6.60938
 11
86.9648
 21
6.62598
  0
LINE
  8
0
 10
86.9648
 20
6.62598
 11
86.9619
 21
6.64355
  0
LINE
  8
0
 10
86.9619
 20
6.64355
 11
86.96
 21
6.66113
  0
LINE
  8
0
 10
86.96
 20
6.66113
 11
86.957
 21
6.67773
  0
LINE
  8
0
 10
86.957
 20
6.67773
 11
86.9551
 21
6.69531
  0
LINE
  8
0
 10
86.9551
 20
6.69531
 11
86.9541
 21
6.71289
  0
LINE
  8
0
 10
86.9541
 20
6.71289
 11
86.9521
 21
6.73047
  0
LINE
  8
0
 10
86.9521
 20
6.73047
 11
86.9512
 21
6.74805
  0
LINE
  8
0
 10
86.9512
 20
6.74805
 11
86.9502
 21
6.76465
  0
LINE
  8
0
 10
86.9502
 20
6.76465
 11
86.9502
 21
8.53516
  0
LINE
  8
0
 10
86.9502
 20
8.53516
 11
86.9512
 21
8.55273
  0
LINE
  8
0
 10
86.9512
 20
8.55273
 11
86.9521
 21
8.56934
  0
LINE
  8
0
 10
86.9521
 20
8.56934
 11
86.9541
 21
8.58691
  0
LINE
  8
0
 10
86.9541
 20
8.58691
 11
86.9551
 21
8.60449
  0
LINE
  8
0
 10
86.9551
 20
8.60449
 11
86.957
 21
8.62207
  0
LINE
  8
0
 10
86.957
 20
8.62207
 11
86.96
 21
8.63965
  0
LINE
  8
0
 10
86.96
 20
8.63965
 11
86.9619
 21
8.65625
  0
LINE
  8
0
 10
86.9619
 20
8.65625
 11
86.9648
 21
8.67383
  0
LINE
  8
0
 10
86.9648
 20
8.67383
 11
86.9688
 21
8.69043
  0
LINE
  8
0
 10
86.9688
 20
8.69043
 11
86.9717
 21
8.70801
  0
LINE
  8
0
 10
86.9717
 20
8.70801
 11
86.9756
 21
8.72461
  0
LINE
  8
0
 10
86.9756
 20
8.72461
 11
86.9795
 21
8.74219
  0
LINE
  8
0
 10
86.9795
 20
8.74219
 11
86.9844
 21
8.75879
  0
LINE
  8
0
 10
86.9844
 20
8.75879
 11
86.9883
 21
8.77539
  0
LINE
  8
0
 10
86.9883
 20
8.77539
 11
86.9941
 21
8.79199
  0
LINE
  8
0
 10
86.9941
 20
8.79199
 11
86.999
 21
8.80859
  0
LINE
  8
0
 10
86.999
 20
8.80859
 11
87.0225
 21
8.875
  0
LINE
  8
0
 10
87.0225
 20
8.875
 11
87.0361
 21
8.90625
  0
LINE
  8
0
 10
87.0361
 20
8.90625
 11
87.0439
 21
8.92285
  0
LINE
  8
0
 10
87.0439
 20
8.92285
 11
87.0508
 21
8.93848
  0
LINE
  8
0
 10
87.0508
 20
8.93848
 11
87.0586
 21
8.9541
  0
LINE
  8
0
 10
87.0586
 20
8.9541
 11
87.0674
 21
8.96973
  0
LINE
  8
0
 10
87.0674
 20
8.96973
 11
87.0752
 21
8.98438
  0
LINE
  8
0
 10
87.0752
 20
8.98438
 11
87.084
 21
9
  0
LINE
  8
0
 10
87.084
 20
9
 11
87.0928
 21
9.01465
  0
LINE
  8
0
 10
87.0928
 20
9.01465
 11
87.1016
 21
9.03027
  0
LINE
  8
0
 10
87.1016
 20
9.03027
 11
87.1211
 21
9.05957
  0
LINE
  8
0
 10
87.1211
 20
9.05957
 11
87.1309
 21
9.07324
  0
LINE
  8
0
 10
87.1309
 20
9.07324
 11
87.1406
 21
9.08789
  0
LINE
  8
0
 10
87.1406
 20
9.08789
 11
87.1836
 21
9.14258
  0
LINE
  8
0
 10
87.1836
 20
9.14258
 11
87.1953
 21
9.15625
  0
LINE
  8
0
 10
87.1953
 20
9.15625
 11
87.2305
 21
9.19434
  0
LINE
  8
0
 10
87.2305
 20
9.19434
 11
87.2432
 21
9.20703
  0
LINE
  8
0
 10
87.2432
 20
9.20703
 11
87.2549
 21
9.21973
  0
LINE
  8
0
 10
87.2549
 20
9.21973
 11
87.2676
 21
9.23145
  0
LINE
  8
0
 10
87.2676
 20
9.23145
 11
87.2812
 21
9.24316
  0
LINE
  8
0
 10
87.2812
 20
9.24316
 11
87.2939
 21
9.25488
  0
LINE
  8
0
 10
87.2939
 20
9.25488
 11
87.3076
 21
9.26562
  0
LINE
  8
0
 10
87.3076
 20
9.26562
 11
87.3203
 21
9.27734
  0
LINE
  8
0
 10
87.3203
 20
9.27734
 11
87.334
 21
9.28809
  0
LINE
  8
0
 10
87.334
 20
9.28809
 11
87.3486
 21
9.29883
  0
LINE
  8
0
 10
87.3486
 20
9.29883
 11
87.3623
 21
9.30859
  0
LINE
  8
0
 10
87.3623
 20
9.30859
 11
87.376
 21
9.31934
  0
LINE
  8
0
 10
87.376
 20
9.31934
 11
87.4053
 21
9.33887
  0
LINE
  8
0
 10
87.4053
 20
9.33887
 11
87.4199
 21
9.34766
  0
LINE
  8
0
 10
87.4199
 20
9.34766
 11
87.4346
 21
9.35742
  0
LINE
  8
0
 10
87.4346
 20
9.35742
 11
87.4502
 21
9.36621
  0
LINE
  8
0
 10
87.4502
 20
9.36621
 11
87.4648
 21
9.375
  0
LINE
  8
0
 10
87.4648
 20
9.375
 11
87.5273
 21
9.40625
  0
LINE
  8
0
 10
87.5273
 20
9.40625
 11
87.543
 21
9.41309
  0
LINE
  8
0
 10
87.543
 20
9.41309
 11
87.5596
 21
9.4209
  0
LINE
  8
0
 10
87.5596
 20
9.4209
 11
87.5752
 21
9.42676
  0
LINE
  8
0
 10
87.5752
 20
9.42676
 11
87.5918
 21
9.43359
  0
LINE
  8
0
 10
87.5918
 20
9.43359
 11
87.6084
 21
9.43945
  0
LINE
  8
0
 10
87.6084
 20
9.43945
 11
87.624
 21
9.44531
  0
LINE
  8
0
 10
87.624
 20
9.44531
 11
87.6406
 21
9.45117
  0
LINE
  8
0
 10
87.6406
 20
9.45117
 11
87.6572
 21
9.45605
  0
LINE
  8
0
 10
87.6572
 20
9.45605
 11
87.6748
 21
9.46094
  0
LINE
  8
0
 10
87.6748
 20
9.46094
 11
87.708
 21
9.4707
  0
LINE
  8
0
 10
87.708
 20
9.4707
 11
87.7246
 21
9.47461
  0
LINE
  8
0
 10
87.7246
 20
9.47461
 11
87.7422
 21
9.47852
  0
LINE
  8
0
 10
87.7422
 20
9.47852
 11
87.7588
 21
9.48145
  0
LINE
  8
0
 10
87.7588
 20
9.48145
 11
87.7939
 21
9.4873
  0
LINE
  8
0
 10
87.7939
 20
9.4873
 11
87.8105
 21
9.49023
  0
LINE
  8
0
 10
87.8105
 20
9.49023
 11
87.8633
 21
9.49609
  0
LINE
  8
0
 10
87.8633
 20
9.49609
 11
87.8799
 21
9.49805
  0
LINE
  8
0
 10
87.8799
 20
9.49805
 11
87.8975
 21
9.49902
  0
LINE
  8
0
 10
87.8975
 20
9.49902
 11
87.915
 21
9.49902
  0
LINE
  8
0
 10
87.915
 20
9.49902
 11
87.9326
 21
9.5
  0
LINE
  8
0
 10
87.9326
 20
9.5
 11
99.9678
 21
9.5
  0
LINE
  8
0
 10
99.9678
 20
9.5
 11
99.9854
 21
9.50098
  0
LINE
  8
0
 10
99.9854
 20
9.50098
 11
100.002
 21
9.50098
  0
LINE
  8
0
 10
100.002
 20
9.50098
 11
100.02
 21
9.50195
  0
LINE
  8
0
 10
100.02
 20
9.50195
 11
100.072
 21
9.50781
  0
LINE
  8
0
 10
100.072
 20
9.50781
 11
100.089
 21
9.50977
  0
LINE
  8
0
 10
100.089
 20
9.50977
 11
100.124
 21
9.51562
  0
LINE
  8
0
 10
100.124
 20
9.51562
 11
100.141
 21
9.51855
  0
LINE
  8
0
 10
100.141
 20
9.51855
 11
100.158
 21
9.52148
  0
LINE
  8
0
 10
100.158
 20
9.52148
 11
100.175
 21
9.52539
  0
LINE
  8
0
 10
100.175
 20
9.52539
 11
100.192
 21
9.5293
  0
LINE
  8
0
 10
100.192
 20
9.5293
 11
100.259
 21
9.54883
  0
LINE
  8
0
 10
100.259
 20
9.54883
 11
100.309
 21
9.56641
  0
LINE
  8
0
 10
100.309
 20
9.56641
 11
100.324
 21
9.57324
  0
LINE
  8
0
 10
100.324
 20
9.57324
 11
100.341
 21
9.5791
  0
LINE
  8
0
 10
100.341
 20
9.5791
 11
100.356
 21
9.58691
  0
LINE
  8
0
 10
100.356
 20
9.58691
 11
100.373
 21
9.59375
  0
LINE
  8
0
 10
100.373
 20
9.59375
 11
100.42
 21
9.61719
  0
LINE
  8
0
 10
100.42
 20
9.61719
 11
100.435
 21
9.625
  0
LINE
  8
0
 10
100.435
 20
9.625
 11
100.45
 21
9.63379
  0
LINE
  8
0
 10
100.45
 20
9.63379
 11
100.465
 21
9.64258
  0
LINE
  8
0
 10
100.465
 20
9.64258
 11
100.479
 21
9.65234
  0
LINE
  8
0
 10
100.479
 20
9.65234
 11
100.495
 21
9.66113
  0
LINE
  8
0
 10
100.495
 20
9.66113
 11
100.509
 21
9.6709
  0
LINE
  8
0
 10
100.509
 20
9.6709
 11
100.523
 21
9.68066
  0
LINE
  8
0
 10
100.523
 20
9.68066
 11
100.538
 21
9.69141
  0
LINE
  8
0
 10
100.538
 20
9.69141
 11
100.552
 21
9.70117
  0
LINE
  8
0
 10
100.552
 20
9.70117
 11
100.579
 21
9.72266
  0
LINE
  8
0
 10
100.579
 20
9.72266
 11
100.593
 21
9.73438
  0
LINE
  8
0
 10
100.593
 20
9.73438
 11
100.606
 21
9.74512
  0
LINE
  8
0
 10
100.606
 20
9.74512
 11
100.645
 21
9.78027
  0
LINE
  8
0
 10
100.645
 20
9.78027
 11
100.657
 21
9.79297
  0
LINE
  8
0
 10
100.657
 20
9.79297
 11
100.669
 21
9.80566
  0
LINE
  8
0
 10
100.669
 20
9.80566
 11
100.682
 21
9.81836
  0
LINE
  8
0
 10
100.682
 20
9.81836
 11
100.705
 21
9.84375
  0
LINE
  8
0
 10
100.705
 20
9.84375
 11
100.716
 21
9.85742
  0
LINE
  8
0
 10
100.716
 20
9.85742
 11
100.728
 21
9.87109
  0
LINE
  8
0
 10
100.728
 20
9.87109
 11
100.749
 21
9.89844
  0
LINE
  8
0
 10
100.749
 20
9.89844
 11
100.759
 21
9.91211
  0
LINE
  8
0
 10
100.759
 20
9.91211
 11
100.77
 21
9.92676
  0
LINE
  8
0
 10
100.77
 20
9.92676
 11
100.779
 21
9.94043
  0
LINE
  8
0
 10
100.779
 20
9.94043
 11
100.789
 21
9.95508
  0
LINE
  8
0
 10
100.789
 20
9.95508
 11
100.798
 21
9.96973
  0
LINE
  8
0
 10
100.798
 20
9.96973
 11
100.808
 21
9.98535
  0
LINE
  8
0
 10
100.808
 20
9.98535
 11
100.816
 21
10
  0
LINE
  8
0
 10
100.816
 20
10
 11
100.824
 21
10.0156
  0
LINE
  8
0
 10
100.824
 20
10.0156
 11
100.833
 21
10.0303
  0
LINE
  8
0
 10
100.833
 20
10.0303
 11
100.856
 21
10.0771
  0
LINE
  8
0
 10
100.856
 20
10.0771
 11
100.863
 21
10.0938
  0
LINE
  8
0
 10
100.863
 20
10.0938
 11
100.877
 21
10.125
  0
LINE
  8
0
 10
100.877
 20
10.125
 11
100.884
 21
10.1416
  0
LINE
  8
0
 10
100.884
 20
10.1416
 11
100.901
 21
10.1914
  0
LINE
  8
0
 10
100.901
 20
10.1914
 11
100.916
 21
10.2412
  0
LINE
  8
0
 10
100.916
 20
10.2412
 11
100.92
 21
10.2578
  0
LINE
  8
0
 10
100.92
 20
10.2578
 11
100.925
 21
10.2754
  0
LINE
  8
0
 10
100.925
 20
10.2754
 11
100.928
 21
10.292
  0
LINE
  8
0
 10
100.928
 20
10.292
 11
100.932
 21
10.3096
  0
LINE
  8
0
 10
100.932
 20
10.3096
 11
100.935
 21
10.3262
  0
LINE
  8
0
 10
100.935
 20
10.3262
 11
100.938
 21
10.3438
  0
LINE
  8
0
 10
100.938
 20
10.3438
 11
100.94
 21
10.3604
  0
LINE
  8
0
 10
100.94
 20
10.3604
 11
100.946
 21
10.4131
  0
LINE
  8
0
 10
100.946
 20
10.4131
 11
100.947
 21
10.4307
  0
LINE
  8
0
 10
100.947
 20
10.4307
 11
100.948
 21
10.4473
  0
LINE
  8
0
 10
100.948
 20
10.4473
 11
100.95
 21
10.4824
  0
LINE
  8
0
 10
100.95
 20
10.4824
 11
100.95
 21
17.75
  0
LINE
  8
0
 10
100.95
 20
17.75
 11
103.018
 21
17.75
  0
LINE
  8
0
 10
103.018
 20
17.75
 11
103.035
 21
17.751
  0
LINE
  8
0
 10
103.035
 20
17.751
 11
103.053
 21
17.751
  0
LINE
  8
0
 10
103.053
 20
17.751
 11
103.069
 21
17.752
  0
LINE
  8
0
 10
103.069
 20
17.752
 11
103.14
 21
17.7598
  0
LINE
  8
0
 10
103.14
 20
17.7598
 11
103.156
 21
17.7627
  0
LINE
  8
0
 10
103.156
 20
17.7627
 11
103.174
 21
17.7656
  0
LINE
  8
0
 10
103.174
 20
17.7656
 11
103.19
 21
17.7686
  0
LINE
  8
0
 10
103.19
 20
17.7686
 11
103.208
 21
17.7715
  0
LINE
  8
0
 10
103.208
 20
17.7715
 11
103.225
 21
17.7754
  0
LINE
  8
0
 10
103.225
 20
17.7754
 11
103.242
 21
17.7793
  0
LINE
  8
0
 10
103.242
 20
17.7793
 11
103.309
 21
17.7988
  0
LINE
  8
0
 10
103.309
 20
17.7988
 11
103.358
 21
17.8164
  0
LINE
  8
0
 10
103.358
 20
17.8164
 11
103.375
 21
17.8232
  0
LINE
  8
0
 10
103.375
 20
17.8232
 11
103.391
 21
17.8291
  0
LINE
  8
0
 10
103.391
 20
17.8291
 11
103.406
 21
17.8369
  0
LINE
  8
0
 10
103.406
 20
17.8369
 11
103.423
 21
17.8438
  0
LINE
  8
0
 10
103.423
 20
17.8438
 11
103.47
 21
17.8672
  0
LINE
  8
0
 10
103.47
 20
17.8672
 11
103.484
 21
17.875
  0
LINE
  8
0
 10
103.484
 20
17.875
 11
103.5
 21
17.8838
  0
LINE
  8
0
 10
103.5
 20
17.8838
 11
103.515
 21
17.8926
  0
LINE
  8
0
 10
103.515
 20
17.8926
 11
103.53
 21
17.9023
  0
LINE
  8
0
 10
103.53
 20
17.9023
 11
103.545
 21
17.9111
  0
LINE
  8
0
 10
103.545
 20
17.9111
 11
103.56
 21
17.9209
  0
LINE
  8
0
 10
103.56
 20
17.9209
 11
103.573
 21
17.9307
  0
LINE
  8
0
 10
103.573
 20
17.9307
 11
103.588
 21
17.9414
  0
LINE
  8
0
 10
103.588
 20
17.9414
 11
103.602
 21
17.9512
  0
LINE
  8
0
 10
103.602
 20
17.9512
 11
103.629
 21
17.9727
  0
LINE
  8
0
 10
103.629
 20
17.9727
 11
103.643
 21
17.9844
  0
LINE
  8
0
 10
103.643
 20
17.9844
 11
103.656
 21
17.9951
  0
LINE
  8
0
 10
103.656
 20
17.9951
 11
103.694
 21
18.0303
  0
LINE
  8
0
 10
103.694
 20
18.0303
 11
103.72
 21
18.0557
  0
LINE
  8
0
 10
103.72
 20
18.0557
 11
103.755
 21
18.0938
  0
LINE
  8
0
 10
103.755
 20
18.0938
 11
103.766
 21
18.1074
  0
LINE
  8
0
 10
103.766
 20
18.1074
 11
103.777
 21
18.1211
  0
LINE
  8
0
 10
103.777
 20
18.1211
 11
103.799
 21
18.1484
  0
LINE
  8
0
 10
103.799
 20
18.1484
 11
103.809
 21
18.1621
  0
LINE
  8
0
 10
103.809
 20
18.1621
 11
103.819
 21
18.1768
  0
LINE
  8
0
 10
103.819
 20
18.1768
 11
103.829
 21
18.1904
  0
LINE
  8
0
 10
103.829
 20
18.1904
 11
103.839
 21
18.2051
  0
LINE
  8
0
 10
103.839
 20
18.2051
 11
103.848
 21
18.2197
  0
LINE
  8
0
 10
103.848
 20
18.2197
 11
103.857
 21
18.2354
  0
LINE
  8
0
 10
103.857
 20
18.2354
 11
103.866
 21
18.25
  0
LINE
  8
0
 10
103.866
 20
18.25
 11
103.875
 21
18.2656
  0
LINE
  8
0
 10
103.875
 20
18.2656
 11
103.883
 21
18.2803
  0
LINE
  8
0
 10
103.883
 20
18.2803
 11
103.906
 21
18.3271
  0
LINE
  8
0
 10
103.906
 20
18.3271
 11
103.913
 21
18.3438
  0
LINE
  8
0
 10
103.913
 20
18.3438
 11
103.921
 21
18.3594
  0
LINE
  8
0
 10
103.921
 20
18.3594
 11
103.927
 21
18.375
  0
LINE
  8
0
 10
103.927
 20
18.375
 11
103.934
 21
18.3916
  0
LINE
  8
0
 10
103.934
 20
18.3916
 11
103.951
 21
18.4414
  0
LINE
  8
0
 10
103.951
 20
18.4414
 11
103.971
 21
18.5078
  0
LINE
  8
0
 10
103.971
 20
18.5078
 11
103.975
 21
18.5254
  0
LINE
  8
0
 10
103.975
 20
18.5254
 11
103.979
 21
18.542
  0
LINE
  8
0
 10
103.979
 20
18.542
 11
103.981
 21
18.5596
  0
LINE
  8
0
 10
103.981
 20
18.5596
 11
103.984
 21
18.5762
  0
LINE
  8
0
 10
103.984
 20
18.5762
 11
103.987
 21
18.5938
  0
LINE
  8
0
 10
103.987
 20
18.5938
 11
103.99
 21
18.6104
  0
LINE
  8
0
 10
103.99
 20
18.6104
 11
103.998
 21
18.6807
  0
LINE
  8
0
 10
103.998
 20
18.6807
 11
103.999
 21
18.6973
  0
LINE
  8
0
 10
103.999
 20
18.6973
 11
103.999
 21
18.7148
  0
LINE
  8
0
 10
103.999
 20
18.7148
 11
104
 21
18.7324
  0
LINE
  8
0
 10
104
 20
18.7324
 11
104
 21
36.0176
  0
LINE
  8
0
 10
104
 20
36.0176
 11
103.999
 21
36.0352
  0
LINE
  8
0
 10
103.999
 20
36.0352
 11
103.999
 21
36.0527
  0
LINE
  8
0
 10
103.999
 20
36.0527
 11
103.998
 21
36.0693
  0
LINE
  8
0
 10
103.998
 20
36.0693
 11
103.99
 21
36.1396
  0
LINE
  8
0
 10
103.99
 20
36.1396
 11
103.987
 21
36.1562
  0
LINE
  8
0
 10
103.987
 20
36.1562
 11
103.984
 21
36.1738
  0
LINE
  8
0
 10
103.984
 20
36.1738
 11
103.981
 21
36.1904
  0
LINE
  8
0
 10
103.981
 20
36.1904
 11
103.979
 21
36.208
  0
LINE
  8
0
 10
103.979
 20
36.208
 11
103.975
 21
36.2246
  0
LINE
  8
0
 10
103.975
 20
36.2246
 11
103.971
 21
36.2422
  0
LINE
  8
0
 10
103.971
 20
36.2422
 11
103.951
 21
36.3086
  0
LINE
  8
0
 10
103.951
 20
36.3086
 11
103.934
 21
36.3584
  0
LINE
  8
0
 10
103.934
 20
36.3584
 11
103.927
 21
36.375
  0
LINE
  8
0
 10
103.927
 20
36.375
 11
103.921
 21
36.3906
  0
LINE
  8
0
 10
103.921
 20
36.3906
 11
103.913
 21
36.4062
  0
LINE
  8
0
 10
103.913
 20
36.4062
 11
103.906
 21
36.4229
  0
LINE
  8
0
 10
103.906
 20
36.4229
 11
103.883
 21
36.4697
  0
LINE
  8
0
 10
103.883
 20
36.4697
 11
103.875
 21
36.4844
  0
LINE
  8
0
 10
103.875
 20
36.4844
 11
103.866
 21
36.5
  0
LINE
  8
0
 10
103.866
 20
36.5
 11
103.857
 21
36.5146
  0
LINE
  8
0
 10
103.857
 20
36.5146
 11
103.848
 21
36.5303
  0
LINE
  8
0
 10
103.848
 20
36.5303
 11
103.839
 21
36.5449
  0
LINE
  8
0
 10
103.839
 20
36.5449
 11
103.829
 21
36.5596
  0
LINE
  8
0
 10
103.829
 20
36.5596
 11
103.819
 21
36.5732
  0
LINE
  8
0
 10
103.819
 20
36.5732
 11
103.809
 21
36.5879
  0
LINE
  8
0
 10
103.809
 20
36.5879
 11
103.799
 21
36.6016
  0
LINE
  8
0
 10
103.799
 20
36.6016
 11
103.777
 21
36.6289
  0
LINE
  8
0
 10
103.777
 20
36.6289
 11
103.766
 21
36.6426
  0
LINE
  8
0
 10
103.766
 20
36.6426
 11
103.755
 21
36.6562
  0
LINE
  8
0
 10
103.755
 20
36.6562
 11
103.72
 21
36.6943
  0
LINE
  8
0
 10
103.72
 20
36.6943
 11
103.694
 21
36.7197
  0
LINE
  8
0
 10
103.694
 20
36.7197
 11
103.656
 21
36.7549
  0
LINE
  8
0
 10
103.656
 20
36.7549
 11
103.643
 21
36.7656
  0
LINE
  8
0
 10
103.643
 20
36.7656
 11
103.629
 21
36.7773
  0
LINE
  8
0
 10
103.629
 20
36.7773
 11
103.602
 21
36.7988
  0
LINE
  8
0
 10
103.602
 20
36.7988
 11
103.588
 21
36.8086
  0
LINE
  8
0
 10
103.588
 20
36.8086
 11
103.573
 21
36.8193
  0
LINE
  8
0
 10
103.573
 20
36.8193
 11
103.56
 21
36.8291
  0
LINE
  8
0
 10
103.56
 20
36.8291
 11
103.545
 21
36.8389
  0
LINE
  8
0
 10
103.545
 20
36.8389
 11
103.53
 21
36.8477
  0
LINE
  8
0
 10
103.53
 20
36.8477
 11
103.515
 21
36.8574
  0
LINE
  8
0
 10
103.515
 20
36.8574
 11
103.5
 21
36.8662
  0
LINE
  8
0
 10
103.5
 20
36.8662
 11
103.484
 21
36.875
  0
LINE
  8
0
 10
103.484
 20
36.875
 11
103.47
 21
36.8828
  0
LINE
  8
0
 10
103.47
 20
36.8828
 11
103.423
 21
36.9062
  0
LINE
  8
0
 10
103.423
 20
36.9062
 11
103.406
 21
36.9131
  0
LINE
  8
0
 10
103.406
 20
36.9131
 11
103.391
 21
36.9209
  0
LINE
  8
0
 10
103.391
 20
36.9209
 11
103.375
 21
36.9268
  0
LINE
  8
0
 10
103.375
 20
36.9268
 11
103.358
 21
36.9336
  0
LINE
  8
0
 10
103.358
 20
36.9336
 11
103.309
 21
36.9512
  0
LINE
  8
0
 10
103.309
 20
36.9512
 11
103.242
 21
36.9707
  0
LINE
  8
0
 10
103.242
 20
36.9707
 11
103.225
 21
36.9746
  0
LINE
  8
0
 10
103.225
 20
36.9746
 11
103.208
 21
36.9785
  0
LINE
  8
0
 10
103.208
 20
36.9785
 11
103.19
 21
36.9814
  0
LINE
  8
0
 10
103.19
 20
36.9814
 11
103.174
 21
36.9844
  0
LINE
  8
0
 10
103.174
 20
36.9844
 11
103.156
 21
36.9873
  0
LINE
  8
0
 10
103.156
 20
36.9873
 11
103.14
 21
36.9902
  0
LINE
  8
0
 10
103.14
 20
36.9902
 11
103.069
 21
36.998
  0
LINE
  8
0
 10
103.069
 20
36.998
 11
103.053
 21
36.999
  0
LINE
  8
0
 10
103.053
 20
36.999
 11
103.035
 21
36.999
  0
LINE
  8
0
 10
103.035
 20
36.999
 11
103.018
 21
37
  0
LINE
  8
0
 10
103.018
 20
37
 11
-2.01758
 21
37
  0
LINE
  8
0
 10
-2.01758
 20
37
 11
-2.03516
 21
36.999
  0
LINE
  8
0
 10
-2.03516
 20
36.999
 11
-2.05273
 21
36.999
  0
LINE
  8
0
 10
-2.05273
 20
36.999
 11
-2.06934
 21
36.998
  0
LINE
  8
0
 10
-2.06934
 20
36.998
 11
-2.13965
 21
36.9902
  0
LINE
  8
0
 10
-2.13965
 20
36.9902
 11
-2.15625
 21
36.9873
  0
LINE
  8
0
 10
-2.15625
 20
36.9873
 11
-2.17383
 21
36.9844
  0
LINE
  8
0
 10
-2.17383
 20
36.9844
 11
-2.19043
 21
36.9814
  0
LINE
  8
0
 10
-2.19043
 20
36.9814
 11
-2.20801
 21
36.9785
  0
LINE
  8
0
 10
-2.20801
 20
36.9785
 11
-2.22461
 21
36.9746
  0
LINE
  8
0
 10
-2.22461
 20
36.9746
 11
-2.24219
 21
36.9707
  0
LINE
  8
0
 10
-2.24219
 20
36.9707
 11
-2.30859
 21
36.9512
  0
LINE
  8
0
 10
-2.30859
 20
36.9512
 11
-2.3584
 21
36.9336
  0
LINE
  8
0
 10
-2.3584
 20
36.9336
 11
-2.375
 21
36.9268
  0
LINE
  8
0
 10
-2.375
 20
36.9268
 11
-2.39062
 21
36.9209
  0
LINE
  8
0
 10
-2.39062
 20
36.9209
 11
-2.40625
 21
36.9131
  0
LINE
  8
0
 10
-2.40625
 20
36.9131
 11
-2.42285
 21
36.9062
  0
LINE
  8
0
 10
-2.42285
 20
36.9062
 11
-2.46973
 21
36.8828
  0
LINE
  8
0
 10
-2.46973
 20
36.8828
 11
-2.48438
 21
36.875
  0
LINE
  8
0
 10
-2.48438
 20
36.875
 11
-2.5
 21
36.8662
  0
LINE
  8
0
 10
-2.5
 20
36.8662
 11
-2.51465
 21
36.8574
  0
LINE
  8
0
 10
-2.51465
 20
36.8574
 11
-2.53027
 21
36.8477
  0
LINE
  8
0
 10
-2.53027
 20
36.8477
 11
-2.54492
 21
36.8389
  0
LINE
  8
0
 10
-2.54492
 20
36.8389
 11
-2.55957
 21
36.8291
  0
LINE
  8
0
 10
-2.55957
 20
36.8291
 11
-2.57324
 21
36.8193
  0
LINE
  8
0
 10
-2.57324
 20
36.8193
 11
-2.58789
 21
36.8086
  0
LINE
  8
0
 10
-2.58789
 20
36.8086
 11
-2.60156
 21
36.7988
  0
LINE
  8
0
 10
-2.60156
 20
36.7988
 11
-2.62891
 21
36.7773
  0
LINE
  8
0
 10
-2.62891
 20
36.7773
 11
-2.64258
 21
36.7656
  0
LINE
  8
0
 10
-2.64258
 20
36.7656
 11
-2.65625
 21
36.7549
  0
LINE
  8
0
 10
-2.65625
 20
36.7549
 11
-2.69434
 21
36.7197
  0
LINE
  8
0
 10
-2.69434
 20
36.7197
 11
-2.71973
 21
36.6943
  0
LINE
  8
0
 10
-2.71973
 20
36.6943
 11
-2.75488
 21
36.6562
  0
LINE
  8
0
 10
-2.75488
 20
36.6562
 11
-2.76562
 21
36.6426
  0
LINE
  8
0
 10
-2.76562
 20
36.6426
 11
-2.77734
 21
36.6289
  0
LINE
  8
0
 10
-2.77734
 20
36.6289
 11
-2.79883
 21
36.6016
  0
LINE
  8
0
 10
-2.79883
 20
36.6016
 11
-2.80859
 21
36.5879
  0
LINE
  8
0
 10
-2.80859
 20
36.5879
 11
-2.81934
 21
36.5732
  0
LINE
  8
0
 10
-2.81934
 20
36.5732
 11
-2.8291
 21
36.5596
  0
LINE
  8
0
 10
-2.8291
 20
36.5596
 11
-2.83887
 21
36.5449
  0
LINE
  8
0
 10
-2.83887
 20
36.5449
 11
-2.84766
 21
36.5303
  0
LINE
  8
0
 10
-2.84766
 20
36.5303
 11
-2.85742
 21
36.5146
  0
LINE
  8
0
 10
-2.85742
 20
36.5146
 11
-2.86621
 21
36.5
  0
LINE
  8
0
 10
-2.86621
 20
36.5
 11
-2.875
 21
36.4844
  0
LINE
  8
0
 10
-2.875
 20
36.4844
 11
-2.88281
 21
36.4697
  0
LINE
  8
0
 10
-2.88281
 20
36.4697
 11
-2.90625
 21
36.4229
  0
LINE
  8
0
 10
-2.90625
 20
36.4229
 11
-2.91309
 21
36.4062
  0
LINE
  8
0
 10
-2.91309
 20
36.4062
 11
-2.9209
 21
36.3906
  0
LINE
  8
0
 10
-2.9209
 20
36.3906
 11
-2.92676
 21
36.375
  0
LINE
  8
0
 10
-2.92676
 20
36.375
 11
-2.93359
 21
36.3584
  0
LINE
  8
0
 10
-2.93359
 20
36.3584
 11
-2.95117
 21
36.3086
  0
LINE
  8
0
 10
-2.95117
 20
36.3086
 11
-2.9707
 21
36.2422
  0
LINE
  8
0
 10
-2.9707
 20
36.2422
 11
-2.97461
 21
36.2246
  0
LINE
  8
0
 10
-2.97461
 20
36.2246
 11
-2.97852
 21
36.208
  0
LINE
  8
0
 10
-2.97852
 20
36.208
 11
-2.98145
 21
36.1904
  0
LINE
  8
0
 10
-2.98145
 20
36.1904
 11
-2.98438
 21
36.1738
  0
LINE
  8
0
 10
-2.98438
 20
36.1738
 11
-2.9873
 21
36.1562
  0
LINE
  8
0
 10
-2.9873
 20
36.1562
 11
-2.99023
 21
36.1396
  0
LINE
  8
0
 10
-2.99023
 20
36.1396
 11
-2.99805
 21
36.0693
  0
LINE
  8
0
 10
-2.99805
 20
36.0693
 11
-2.99902
 21
36.0527
  0
LINE
  8
0
 10
-2.99902
 20
36.0527
 11
-2.99902
 21
36.0352
  0
LINE
  8
0
 10
-2.99902
 20
36.0352
 11
-3
 21
36.0176
  0
LINE
  8
0
 10
-3
 20
36.0176
 11
-3
 21
18.7324
  0
LINE
  8
0
 10
-3
 20
18.7324
 11
-2.99902
 21
18.7148
  0
LINE
  8
0
 10
-2.99902
 20
18.7148
 11
-2.99902
 21
18.6973
  0
LINE
  8
0
 10
-2.99902
 20
18.6973
 11
-2.99805
 21
18.6807
  0
LINE
  8
0
 10
-2.99805
 20
18.6807
 11
-2.99023
 21
18.6104
  0
LINE
  8
0
 10
-2.99023
 20
18.6104
 11
-2.9873
 21
18.5938
  0
LINE
  8
0
 10
-2.9873
 20
18.5938
 11
-2.98438
 21
18.5762
  0
LINE
  8
0
 10
-2.98438
 20
18.5762
 11
-2.98145
 21
18.5596
  0
LINE
  8
0
 10
-2.98145
 20
18.5596
 11
-2.97852
 21
18.542
  0
LINE
  8
0
 10
-2.97852
 20
18.542
 11
-2.97461
 21
18.5254
  0
LINE
  8
0
 10
-2.97461
 20
18.5254
 11
-2.9707
 21
18.5078
  0
LINE
  8
0
 10
-2.9707
 20
18.5078
 11
-2.95117
 21
18.4414
  0
LINE
  8
0
 10
-2.95117
 20
18.4414
 11
-2.93359
 21
18.3916
  0
LINE
  8
0
 10
-2.93359
 20
18.3916
 11
-2.92676
 21
18.375
  0
LINE
  8
0
 10
-2.92676
 20
18.375
 11
-2.9209
 21
18.3594
  0
LINE
  8
0
 10
-2.9209
 20
18.3594
 11
-2.91309
 21
18.3438
  0
LINE
  8
0
 10
-2.91309
 20
18.3438
 11
-2.90625
 21
18.3271
  0
LINE
  8
0
 10
-2.90625
 20
18.3271
 11
-2.88281
 21
18.2803
  0
LINE
  8
0
 10
-2.88281
 20
18.2803
 11
-2.875
 21
18.2656
  0
LINE
  8
0
 10
-2.875
 20
18.2656
 11
-2.86621
 21
18.25
  0
LINE
  8
0
 10
-2.86621
 20
18.25
 11
-2.85742
 21
18.2354
  0
LINE
  8
0
 10
-2.85742
 20
18.2354
 11
-2.84766
 21
18.2197
  0
LINE
  8
0
 10
-2.84766
 20
18.2197
 11
-2.83887
 21
18.2051
  0
LINE
  8
0
 10
-2.83887
 20
18.2051
 11
-2.8291
 21
18.1904
  0
LINE
  8
0
 10
-2.8291
 20
18.1904
 11
-2.81934
 21
18.1768
  0
LINE
  8
0
 10
-2.81934
 20
18.1768
 11
-2.80859
 21
18.1621
  0
LINE
  8
0
 10
-2.80859
 20
18.1621
 11
-2.79883
 21
18.1484
  0
LINE
  8
0
 10
-2.79883
 20
18.1484
 11
-2.77734
 21
18.1211
  0
LINE
  8
0
 10
-2.77734
 20
18.1211
 11
-2.76562
 21
18.1074
  0
LINE
  8
0
 10
-2.76562
 20
18.1074
 11
-2.75488
 21
18.0938
  0
LINE
  8
0
 10
-2.75488
 20
18.0938
 11
-2.71973
 21
18.0557
  0
LINE
  8
0
 10
-2.71973
 20
18.0557
 11
-2.69434
 21
18.0303
  0
LINE
  8
0
 10
-2.69434
 20
18.0303
 11
-2.65625
 21
17.9951
  0
LINE
  8
0
 10
-2.65625
 20
17.9951
 11
-2.64258
 21
17.9844
  0
LINE
  8
0
 10
-2.64258
 20
17.9844
 11
-2.62891
 21
17.9727
  0
LINE
  8
0
 10
-2.62891
 20
17.9727
 11
-2.60156
 21
17.9512
  0
LINE
  8
0
 10
-2.60156
 20
17.9512
 11
-2.58789
 21
17.9414
  0
LINE
  8
0
 10
-2.58789
 20
17.9414
 11
-2.57324
 21
17.9307
  0
LINE
  8
0
 10
-2.57324
 20
17.9307
 11
-2.55957
 21
17.9209
  0
LINE
  8
0
 10
-2.55957
 20
17.9209
 11
-2.54492
 21
17.9111
  0
LINE
  8
0
 10
-2.54492
 20
17.9111
 11
-2.53027
 21
17.9023
  0
LINE
  8
0
 10
-2.53027
 20
17.9023
 11
-2.51465
 21
17.8926
  0
LINE
  8
0
 10
-2.51465
 20
17.8926
 11
-2.5
 21
17.8838
  0
LINE
  8
0
 10
-2.5
 20
17.8838
 11
-2.48438
 21
17.875
  0
LINE
  8
0
 10
-2.48438
 20
17.875
 11
-2.46973
 21
17.8672
  0
LINE
  8
0
 10
-2.46973
 20
17.8672
 11
-2.42285
 21
17.8438
  0
LINE
  8
0
 10
-2.42285
 20
17.8438
 11
-2.40625
 21
17.8369
  0
LINE
  8
0
 10
-2.40625
 20
17.8369
 11
-2.39062
 21
17.8291
  0
LINE
  8
0
 10
-2.39062
 20
17.8291
 11
-2.375
 21
17.8232
  0
LINE
  8
0
 10
-2.375
 20
17.8232
 11
-2.3584
 21
17.8164
  0
LINE
  8
0
 10
-2.3584
 20
17.8164
 11
-2.30859
 21
17.7988
  0
LINE
  8
0
 10
-2.30859
 20
17.7988
 11
-2.24219
 21
17.7793
  0
LINE
  8
0
 10
-2.24219
 20
17.7793
 11
-2.22461
 21
17.7754
  0
LINE
  8
0
 10
-2.22461
 20
17.7754
 11
-2.20801
 21
17.7715
  0
LINE
  8
0
 10
-2.20801
 20
17.7715
 11
-2.19043
 21
17.7686
  0
LINE
  8
0
 10
-2.19043
 20
17.7686
 11
-2.17383
 21
17.7656
  0
LINE
  8
0
 10
-2.17383
 20
17.7656
 11
-2.15625
 21
17.7627
  0
LINE
  8
0
 10
-2.15625
 20
17.7627
 11
-2.13965
 21
17.7598
  0
LINE
  8
0
 10
-2.13965
 20
17.7598
 11
-2.06934
 21
17.752
  0
LINE
  8
0
 10
-2.06934
 20
17.752
 11
-2.05273
 21
17.751
  0
LINE
  8
0
 10
-2.05273
 20
17.751
 11
-2.03516
 21
17.751
  0
LINE
  8
0
 10
-2.03516
 20
17.751
 11
-2.01758
 21
17.75
  0
LINE
  8
0
 10
-2.01758
 20
17.75
 11
0
 21
17.75
  0
LINE
  8
0
 10
0
 20
17.75
 11
0
 21
10.4824
  0
LINE
  8
0
 10
0
 20
10.4824
 11
0.000976562
 21
10.4648
  0
LINE
  8
0
 10
0.000976562
 20
10.4648
 11
0.000976562
 21
10.4473
  0
LINE
  8
0
 10
0.000976562
 20
10.4473
 11
0.00195312
 21
10.4307
  0
LINE
  8
0
 10
0.00195312
 20
10.4307
 11
0.00976562
 21
10.3604
  0
LINE
  8
0
 10
0.00976562
 20
10.3604
 11
0.0126953
 21
10.3438
  0
LINE
  8
0
 10
0.0126953
 20
10.3438
 11
0.015625
 21
10.3262
  0
LINE
  8
0
 10
0.015625
 20
10.3262
 11
0.0185547
 21
10.3096
  0
LINE
  8
0
 10
0.0185547
 20
10.3096
 11
0.0214844
 21
10.292
  0
LINE
  8
0
 10
0.0214844
 20
10.292
 11
0.0253906
 21
10.2754
  0
LINE
  8
0
 10
0.0253906
 20
10.2754
 11
0.0292969
 21
10.2578
  0
LINE
  8
0
 10
0.0292969
 20
10.2578
 11
0.0488281
 21
10.1914
  0
LINE
  8
0
 10
0.0488281
 20
10.1914
 11
0.0664062
 21
10.1416
  0
LINE
  8
0
 10
0.0664062
 20
10.1416
 11
0.0732422
 21
10.125
  0
LINE
  8
0
 10
0.0732422
 20
10.125
 11
0.0791016
 21
10.1094
  0
LINE
  8
0
 10
0.0791016
 20
10.1094
 11
0.0869141
 21
10.0938
  0
LINE
  8
0
 10
0.0869141
 20
10.0938
 11
0.09375
 21
10.0771
  0
LINE
  8
0
 10
0.09375
 20
10.0771
 11
0.117188
 21
10.0303
  0
LINE
  8
0
 10
0.117188
 20
10.0303
 11
0.125
 21
10.0156
  0
LINE
  8
0
 10
0.125
 20
10.0156
 11
0.133789
 21
10
  0
LINE
  8
0
 10
0.133789
 20
10
 11
0.142578
 21
9.98535
  0
LINE
  8
0
 10
0.142578
 20
9.98535
 11
0.152344
 21
9.96973
  0
LINE
  8
0
 10
0.152344
 20
9.96973
 11
0.161133
 21
9.95508
  0
LINE
  8
0
 10
0.161133
 20
9.95508
 11
0.170898
 21
9.94043
  0
LINE
  8
0
 10
0.170898
 20
9.94043
 11
0.180664
 21
9.92676
  0
LINE
  8
0
 10
0.180664
 20
9.92676
 11
0.191406
 21
9.91211
  0
LINE
  8
0
 10
0.191406
 20
9.91211
 11
0.201172
 21
9.89844
  0
LINE
  8
0
 10
0.201172
 20
9.89844
 11
0.222656
 21
9.87109
  0
LINE
  8
0
 10
0.222656
 20
9.87109
 11
0.234375
 21
9.85742
  0
LINE
  8
0
 10
0.234375
 20
9.85742
 11
0.245117
 21
9.84375
  0
LINE
  8
0
 10
0.245117
 20
9.84375
 11
0.280273
 21
9.80566
  0
LINE
  8
0
 10
0.280273
 20
9.80566
 11
0.305664
 21
9.78027
  0
LINE
  8
0
 10
0.305664
 20
9.78027
 11
0.34375
 21
9.74512
  0
LINE
  8
0
 10
0.34375
 20
9.74512
 11
0.357422
 21
9.73438
  0
LINE
  8
0
 10
0.357422
 20
9.73438
 11
0.371094
 21
9.72266
  0
LINE
  8
0
 10
0.371094
 20
9.72266
 11
0.398438
 21
9.70117
  0
LINE
  8
0
 10
0.398438
 20
9.70117
 11
0.412109
 21
9.69141
  0
LINE
  8
0
 10
0.412109
 20
9.69141
 11
0.426758
 21
9.68066
  0
LINE
  8
0
 10
0.426758
 20
9.68066
 11
0.44043
 21
9.6709
  0
LINE
  8
0
 10
0.44043
 20
9.6709
 11
0.455078
 21
9.66113
  0
LINE
  8
0
 10
0.455078
 20
9.66113
 11
0.469727
 21
9.65234
  0
LINE
  8
0
 10
0.469727
 20
9.65234
 11
0.485352
 21
9.64258
  0
LINE
  8
0
 10
0.485352
 20
9.64258
 11
0.5
 21
9.63379
  0
LINE
  8
0
 10
0.5
 20
9.63379
 11
0.515625
 21
9.625
  0
LINE
  8
0
 10
0.515625
 20
9.625
 11
0.530273
 21
9.61719
  0
LINE
  8
0
 10
0.530273
 20
9.61719
 11
0.577148
 21
9.59375
  0
LINE
  8
0
 10
0.577148
 20
9.59375
 11
0.59375
 21
9.58691
  0
LINE
  8
0
 10
0.59375
 20
9.58691
 11
0.609375
 21
9.5791
  0
LINE
  8
0
 10
0.609375
 20
9.5791
 11
0.625
 21
9.57324
  0
LINE
  8
0
 10
0.625
 20
9.57324
 11
0.641602
 21
9.56641
  0
LINE
  8
0
 10
0.641602
 20
9.56641
 11
0.691406
 21
9.54883
  0
LINE
  8
0
 10
0.691406
 20
9.54883
 11
0.757812
 21
9.5293
  0
LINE
  8
0
 10
0.757812
 20
9.5293
 11
0.775391
 21
9.52539
  0
LINE
  8
0
 10
0.775391
 20
9.52539
 11
0.791992
 21
9.52148
  0
LINE
  8
0
 10
0.791992
 20
9.52148
 11
0.80957
 21
9.51855
  0
LINE
  8
0
 10
0.80957
 20
9.51855
 11
0.826172
 21
9.51562
  0
LINE
  8
0
 10
0.826172
 20
9.51562
 11
0.84375
 21
9.5127
  0
LINE
  8
0
 10
0.84375
 20
9.5127
 11
0.860352
 21
9.50977
  0
LINE
  8
0
 10
0.860352
 20
9.50977
 11
0.930664
 21
9.50195
  0
LINE
  8
0
 10
0.930664
 20
9.50195
 11
0.947266
 21
9.50098
  0
LINE
  8
0
 10
0.947266
 20
9.50098
 11
0.964844
 21
9.50098
  0
LINE
  8
0
 10
0.964844
 20
9.50098
 11
0.982422
 21
9.5
  0
LINE
  8
0
 10
0.982422
 20
9.5
 11
12.0176
 21
9.5
  0
LINE
  8
0
 10
12.0176
 20
9.5
 11
12.0352
 21
9.49902
  0
LINE
  8
0
 10
12.0352
 20
9.49902
 11
12.0527
 21
9.49902
  0
LINE
  8
0
 10
12.0527
 20
9.49902
 11
12.0693
 21
9.49805
  0
LINE
  8
0
 10
12.0693
 20
9.49805
 11
12.1396
 21
9.49023
  0
LINE
  8
0
 10
12.1396
 20
9.49023
 11
12.1562
 21
9.4873
  0
LINE
  8
0
 10
12.1562
 20
9.4873
 11
12.1738
 21
9.48438
  0
LINE
  8
0
 10
12.1738
 20
9.48438
 11
12.1904
 21
9.48145
  0
LINE
  8
0
 10
12.1904
 20
9.48145
 11
12.208
 21
9.47852
  0
LINE
  8
0
 10
12.208
 20
9.47852
 11
12.2246
 21
9.47461
  0
LINE
  8
0
 10
12.2246
 20
9.47461
 11
12.2422
 21
9.4707
  0
LINE
  8
0
 10
12.2422
 20
9.4707
 11
12.3086
 21
9.45117
  0
LINE
  8
0
 10
12.3086
 20
9.45117
 11
12.3584
 21
9.43359
  0
LINE
  8
0
 10
12.3584
 20
9.43359
 11
12.375
 21
9.42676
  0
LINE
  8
0
 10
12.375
 20
9.42676
 11
12.3906
 21
9.4209
  0
LINE
  8
0
 10
12.3906
 20
9.4209
 11
12.4062
 21
9.41309
  0
LINE
  8
0
 10
12.4062
 20
9.41309
 11
12.4229
 21
9.40625
  0
LINE
  8
0
 10
12.4229
 20
9.40625
 11
12.4697
 21
9.38281
  0
LINE
  8
0
 10
12.4697
 20
9.38281
 11
12.4844
 21
9.375
  0
LINE
  8
0
 10
12.4844
 20
9.375
 11
12.5
 21
9.36621
  0
LINE
  8
0
 10
12.5
 20
9.36621
 11
12.5146
 21
9.35742
  0
LINE
  8
0
 10
12.5146
 20
9.35742
 11
12.5303
 21
9.34766
  0
LINE
  8
0
 10
12.5303
 20
9.34766
 11
12.5449
 21
9.33887
  0
LINE
  8
0
 10
12.5449
 20
9.33887
 11
12.5596
 21
9.3291
  0
LINE
  8
0
 10
12.5596
 20
9.3291
 11
12.5732
 21
9.31934
  0
LINE
  8
0
 10
12.5732
 20
9.31934
 11
12.5879
 21
9.30859
  0
LINE
  8
0
 10
12.5879
 20
9.30859
 11
12.6016
 21
9.29883
  0
LINE
  8
0
 10
12.6016
 20
9.29883
 11
12.6289
 21
9.27734
  0
LINE
  8
0
 10
12.6289
 20
9.27734
 11
12.6426
 21
9.26562
  0
LINE
  8
0
 10
12.6426
 20
9.26562
 11
12.6562
 21
9.25488
  0
LINE
  8
0
 10
12.6562
 20
9.25488
 11
12.6943
 21
9.21973
  0
LINE
  8
0
 10
12.6943
 20
9.21973
 11
12.7197
 21
9.19434
  0
LINE
  8
0
 10
12.7197
 20
9.19434
 11
12.7549
 21
9.15625
  0
LINE
  8
0
 10
12.7549
 20
9.15625
 11
12.7656
 21
9.14258
  0
LINE
  8
0
 10
12.7656
 20
9.14258
 11
12.7773
 21
9.12891
  0
LINE
  8
0
 10
12.7773
 20
9.12891
 11
12.7988
 21
9.10156
  0
LINE
  8
0
 10
12.7988
 20
9.10156
 11
12.8086
 21
9.08789
  0
LINE
  8
0
 10
12.8086
 20
9.08789
 11
12.8193
 21
9.07324
  0
LINE
  8
0
 10
12.8193
 20
9.07324
 11
12.8291
 21
9.05957
  0
LINE
  8
0
 10
12.8291
 20
9.05957
 11
12.8389
 21
9.04492
  0
LINE
  8
0
 10
12.8389
 20
9.04492
 11
12.8477
 21
9.03027
  0
LINE
  8
0
 10
12.8477
 20
9.03027
 11
12.8574
 21
9.01465
  0
LINE
  8
0
 10
12.8574
 20
9.01465
 11
12.8662
 21
9
  0
LINE
  8
0
 10
12.8662
 20
9
 11
12.875
 21
8.98438
  0
LINE
  8
0
 10
12.875
 20
8.98438
 11
12.8828
 21
8.96973
  0
LINE
  8
0
 10
12.8828
 20
8.96973
 11
12.9062
 21
8.92285
  0
LINE
  8
0
 10
12.9062
 20
8.92285
 11
12.9131
 21
8.90625
  0
LINE
  8
0
 10
12.9131
 20
8.90625
 11
12.9209
 21
8.89062
  0
LINE
  8
0
 10
12.9209
 20
8.89062
 11
12.9268
 21
8.875
  0
LINE
  8
0
 10
12.9268
 20
8.875
 11
12.9336
 21
8.8584
  0
LINE
  8
0
 10
12.9336
 20
8.8584
 11
12.9512
 21
8.80859
  0
LINE
  8
0
 10
12.9512
 20
8.80859
 11
12.9707
 21
8.74219
  0
LINE
  8
0
 10
12.9707
 20
8.74219
 11
12.9746
 21
8.72461
  0
LINE
  8
0
 10
12.9746
 20
8.72461
 11
12.9785
 21
8.70801
  0
LINE
  8
0
 10
12.9785
 20
8.70801
 11
12.9814
 21
8.69043
  0
LINE
  8
0
 10
12.9814
 20
8.69043
 11
12.9844
 21
8.67383
  0
LINE
  8
0
 10
12.9844
 20
8.67383
 11
12.9873
 21
8.65625
  0
LINE
  8
0
 10
12.9873
 20
8.65625
 11
12.9902
 21
8.63965
  0
LINE
  8
0
 10
12.9902
 20
8.63965
 11
12.998
 21
8.56934
  0
LINE
  8
0
 10
12.998
 20
8.56934
 11
12.999
 21
8.55273
  0
LINE
  8
0
 10
12.999
 20
8.55273
 11
12.999
 21
8.53516
  0
LINE
  8
0
 10
12.999
 20
8.53516
 11
13
 21
8.51758
  0
LINE
  8
0
 10
13
 20
8.51758
 11
13
 21
6.78223
  0
LINE
  8
0
 10
13
 20
6.78223
 11
12.999
 21
6.76465
  0
LINE
  8
0
 10
12.999
 20
6.76465
 11
12.999
 21
6.74805
  0
LINE
  8
0
 10
12.999
 20
6.74805
 11
12.998
 21
6.73047
  0
LINE
  8
0
 10
12.998
 20
6.73047
 11
12.9922
 21
6.67773
  0
LINE
  8
0
 10
12.9922
 20
6.67773
 11
12.9902
 21
6.66113
  0
LINE
  8
0
 10
12.9902
 20
6.66113
 11
12.9844
 21
6.62598
  0
LINE
  8
0
 10
12.9844
 20
6.62598
 11
12.9814
 21
6.60938
  0
LINE
  8
0
 10
12.9814
 20
6.60938
 11
12.9785
 21
6.5918
  0
LINE
  8
0
 10
12.9785
 20
6.5918
 11
12.9746
 21
6.5752
  0
LINE
  8
0
 10
12.9746
 20
6.5752
 11
12.9707
 21
6.55762
  0
LINE
  8
0
 10
12.9707
 20
6.55762
 11
12.9512
 21
6.49121
  0
LINE
  8
0
 10
12.9512
 20
6.49121
 11
12.9336
 21
6.44141
  0
LINE
  8
0
 10
12.9336
 20
6.44141
 11
12.9268
 21
6.42578
  0
LINE
  8
0
 10
12.9268
 20
6.42578
 11
12.9209
 21
6.40918
  0
LINE
  8
0
 10
12.9209
 20
6.40918
 11
12.9131
 21
6.39355
  0
LINE
  8
0
 10
12.9131
 20
6.39355
 11
12.9062
 21
6.37695
  0
LINE
  8
0
 10
12.9062
 20
6.37695
 11
12.8828
 21
6.33008
  0
LINE
  8
0
 10
12.8828
 20
6.33008
 11
12.875
 21
6.31543
  0
LINE
  8
0
 10
12.875
 20
6.31543
 11
12.8662
 21
6.2998
  0
LINE
  8
0
 10
12.8662
 20
6.2998
 11
12.8574
 21
6.28516
  0
LINE
  8
0
 10
12.8574
 20
6.28516
 11
12.8477
 21
6.27051
  0
LINE
  8
0
 10
12.8477
 20
6.27051
 11
12.8389
 21
6.25488
  0
LINE
  8
0
 10
12.8389
 20
6.25488
 11
12.8291
 21
6.24121
  0
LINE
  8
0
 10
12.8291
 20
6.24121
 11
12.8193
 21
6.22656
  0
LINE
  8
0
 10
12.8193
 20
6.22656
 11
12.8086
 21
6.21191
  0
LINE
  8
0
 10
12.8086
 20
6.21191
 11
12.7988
 21
6.19824
  0
LINE
  8
0
 10
12.7988
 20
6.19824
 11
12.7773
 21
6.1709
  0
LINE
  8
0
 10
12.7773
 20
6.1709
 11
12.7656
 21
6.15723
  0
LINE
  8
0
 10
12.7656
 20
6.15723
 11
12.7549
 21
6.14355
  0
LINE
  8
0
 10
12.7549
 20
6.14355
 11
12.7197
 21
6.10547
  0
LINE
  8
0
 10
12.7197
 20
6.10547
 11
12.707
 21
6.09277
  0
LINE
  8
0
 10
12.707
 20
6.09277
 11
12.6943
 21
6.08105
  0
LINE
  8
0
 10
12.6943
 20
6.08105
 11
12.6816
 21
6.06836
  0
LINE
  8
0
 10
12.6816
 20
6.06836
 11
12.6562
 21
6.04492
  0
LINE
  8
0
 10
12.6562
 20
6.04492
 11
12.6426
 21
6.03418
  0
LINE
  8
0
 10
12.6426
 20
6.03418
 11
12.6289
 21
6.02246
  0
LINE
  8
0
 10
12.6289
 20
6.02246
 11
12.6016
 21
6.00098
  0
LINE
  8
0
 10
12.6016
 20
6.00098
 11
12.5879
 21
5.99121
  0
LINE
  8
0
 10
12.5879
 20
5.99121
 11
12.5732
 21
5.98047
  0
LINE
  8
0
 10
12.5732
 20
5.98047
 11
12.5596
 21
5.9707
  0
LINE
  8
0
 10
12.5596
 20
5.9707
 11
12.5449
 21
5.96094
  0
LINE
  8
0
 10
12.5449
 20
5.96094
 11
12.5303
 21
5.95215
  0
LINE
  8
0
 10
12.5303
 20
5.95215
 11
12.5146
 21
5.94238
  0
LINE
  8
0
 10
12.5146
 20
5.94238
 11
12.5
 21
5.93359
  0
LINE
  8
0
 10
12.5
 20
5.93359
 11
12.4844
 21
5.92578
  0
LINE
  8
0
 10
12.4844
 20
5.92578
 11
12.4697
 21
5.91699
  0
LINE
  8
0
 10
12.4697
 20
5.91699
 11
12.4229
 21
5.89355
  0
LINE
  8
0
 10
12.4229
 20
5.89355
 11
12.4062
 21
5.88672
  0
LINE
  8
0
 10
12.4062
 20
5.88672
 11
12.375
 21
5.87305
  0
LINE
  8
0
 10
12.375
 20
5.87305
 11
12.3584
 21
5.86621
  0
LINE
  8
0
 10
12.3584
 20
5.86621
 11
12.3086
 21
5.84863
  0
LINE
  8
0
 10
12.3086
 20
5.84863
 11
12.2588
 21
5.83398
  0
LINE
  8
0
 10
12.2588
 20
5.83398
 11
12.2422
 21
5.83008
  0
LINE
  8
0
 10
12.2422
 20
5.83008
 11
12.2246
 21
5.8252
  0
LINE
  8
0
 10
12.2246
 20
5.8252
 11
12.208
 21
5.82227
  0
LINE
  8
0
 10
12.208
 20
5.82227
 11
12.1904
 21
5.81836
  0
LINE
  8
0
 10
12.1904
 20
5.81836
 11
12.1738
 21
5.81543
  0
LINE
  8
0
 10
12.1738
 20
5.81543
 11
12.1562
 21
5.8125
  0
LINE
  8
0
 10
12.1562
 20
5.8125
 11
12.1396
 21
5.80957
  0
LINE
  8
0
 10
12.1396
 20
5.80957
 11
12.0869
 21
5.80371
  0
LINE
  8
0
 10
12.0869
 20
5.80371
 11
12.0693
 21
5.80273
  0
LINE
  8
0
 10
12.0693
 20
5.80273
 11
12.0527
 21
5.80176
  0
LINE
  8
0
 10
12.0527
 20
5.80176
 11
12.0176
 21
5.7998
  0
LINE
  8
0
 10
12.0176
 20
5.7998
 11
0.964844
 21
5.7998
  0
LINE
  8
0
 10
0.964844
 20
5.7998
 11
0.947266
 21
5.79883
  0
LINE
  8
0
 10
0.947266
 20
5.79883
 11
0.930664
 21
5.79785
  0
LINE
  8
0
 10
0.930664
 20
5.79785
 11
0.913086
 21
5.7959
  0
LINE
  8
0
 10
0.913086
 20
5.7959
 11
0.895508
 21
5.79492
  0
LINE
  8
0
 10
0.895508
 20
5.79492
 11
0.87793
 21
5.79297
  0
LINE
  8
0
 10
0.87793
 20
5.79297
 11
0.860352
 21
5.79004
  0
LINE
  8
0
 10
0.860352
 20
5.79004
 11
0.84375
 21
5.78809
  0
LINE
  8
0
 10
0.84375
 20
5.78809
 11
0.826172
 21
5.78516
  0
LINE
  8
0
 10
0.826172
 20
5.78516
 11
0.80957
 21
5.78125
  0
LINE
  8
0
 10
0.80957
 20
5.78125
 11
0.791992
 21
5.77832
  0
LINE
  8
0
 10
0.791992
 20
5.77832
 11
0.775391
 21
5.77441
  0
LINE
  8
0
 10
0.775391
 20
5.77441
 11
0.757812
 21
5.77051
  0
LINE
  8
0
 10
0.757812
 20
5.77051
 11
0.741211
 21
5.76562
  0
LINE
  8
0
 10
0.741211
 20
5.76562
 11
0.724609
 21
5.76172
  0
LINE
  8
0
 10
0.724609
 20
5.76172
 11
0.708008
 21
5.75586
  0
LINE
  8
0
 10
0.708008
 20
5.75586
 11
0.691406
 21
5.75098
  0
LINE
  8
0
 10
0.691406
 20
5.75098
 11
0.625
 21
5.72754
  0
LINE
  8
0
 10
0.625
 20
5.72754
 11
0.59375
 21
5.71387
  0
LINE
  8
0
 10
0.59375
 20
5.71387
 11
0.577148
 21
5.70605
  0
LINE
  8
0
 10
0.577148
 20
5.70605
 11
0.561523
 21
5.69922
  0
LINE
  8
0
 10
0.561523
 20
5.69922
 11
0.545898
 21
5.69141
  0
LINE
  8
0
 10
0.545898
 20
5.69141
 11
0.530273
 21
5.68262
  0
LINE
  8
0
 10
0.530273
 20
5.68262
 11
0.515625
 21
5.6748
  0
LINE
  8
0
 10
0.515625
 20
5.6748
 11
0.5
 21
5.66602
  0
LINE
  8
0
 10
0.5
 20
5.66602
 11
0.485352
 21
5.65723
  0
LINE
  8
0
 10
0.485352
 20
5.65723
 11
0.469727
 21
5.64844
  0
LINE
  8
0
 10
0.469727
 20
5.64844
 11
0.44043
 21
5.62891
  0
LINE
  8
0
 10
0.44043
 20
5.62891
 11
0.426758
 21
5.61914
  0
LINE
  8
0
 10
0.426758
 20
5.61914
 11
0.412109
 21
5.60938
  0
LINE
  8
0
 10
0.412109
 20
5.60938
 11
0.357422
 21
5.56641
  0
LINE
  8
0
 10
0.357422
 20
5.56641
 11
0.34375
 21
5.55469
  0
LINE
  8
0
 10
0.34375
 20
5.55469
 11
0.305664
 21
5.51953
  0
LINE
  8
0
 10
0.305664
 20
5.51953
 11
0.292969
 21
5.50684
  0
LINE
  8
0
 10
0.292969
 20
5.50684
 11
0.280273
 21
5.49512
  0
LINE
  8
0
 10
0.280273
 20
5.49512
 11
0.268555
 21
5.48242
  0
LINE
  8
0
 10
0.268555
 20
5.48242
 11
0.256836
 21
5.46875
  0
LINE
  8
0
 10
0.256836
 20
5.46875
 11
0.245117
 21
5.45605
  0
LINE
  8
0
 10
0.245117
 20
5.45605
 11
0.234375
 21
5.44238
  0
LINE
  8
0
 10
0.234375
 20
5.44238
 11
0.222656
 21
5.42969
  0
LINE
  8
0
 10
0.222656
 20
5.42969
 11
0.211914
 21
5.41602
  0
LINE
  8
0
 10
0.211914
 20
5.41602
 11
0.201172
 21
5.40137
  0
LINE
  8
0
 10
0.201172
 20
5.40137
 11
0.191406
 21
5.3877
  0
LINE
  8
0
 10
0.191406
 20
5.3877
 11
0.180664
 21
5.37402
  0
LINE
  8
0
 10
0.180664
 20
5.37402
 11
0.161133
 21
5.34473
  0
LINE
  8
0
 10
0.161133
 20
5.34473
 11
0.152344
 21
5.33008
  0
LINE
  8
0
 10
0.152344
 20
5.33008
 11
0.142578
 21
5.31543
  0
LINE
  8
0
 10
0.142578
 20
5.31543
 11
0.133789
 21
5.2998
  0
LINE
  8
0
 10
0.133789
 20
5.2998
 11
0.125
 21
5.28516
  0
LINE
  8
0
 10
0.125
 20
5.28516
 11
0.09375
 21
5.22266
  0
LINE
  8
0
 10
0.09375
 20
5.22266
 11
0.0869141
 21
5.20703
  0
LINE
  8
0
 10
0.0869141
 20
5.20703
 11
0.0791016
 21
5.19043
  0
LINE
  8
0
 10
0.0791016
 20
5.19043
 11
0.0732422
 21
5.1748
  0
LINE
  8
0
 10
0.0732422
 20
5.1748
 11
0.0664062
 21
5.1582
  0
LINE
  8
0
 10
0.0664062
 20
5.1582
 11
0.0605469
 21
5.1416
  0
LINE
  8
0
 10
0.0605469
 20
5.1416
 11
0.0546875
 21
5.12598
  0
LINE
  8
0
 10
0.0546875
 20
5.12598
 11
0.0488281
 21
5.10938
  0
LINE
  8
0
 10
0.0488281
 20
5.10938
 11
0.0439453
 21
5.09277
  0
LINE
  8
0
 10
0.0439453
 20
5.09277
 11
0.0390625
 21
5.0752
  0
LINE
  8
0
 10
0.0390625
 20
5.0752
 11
0.0292969
 21
5.04199
  0
LINE
  8
0
 10
0.0292969
 20
5.04199
 11
0.0253906
 21
5.02539
  0
LINE
  8
0
 10
0.0253906
 20
5.02539
 11
0.0214844
 21
5.00781
  0
LINE
  8
0
 10
0.0214844
 20
5.00781
 11
0.0185547
 21
4.99121
  0
LINE
  8
0
 10
0.0185547
 20
4.99121
 11
0.0126953
 21
4.95605
  0
LINE
  8
0
 10
0.0126953
 20
4.95605
 11
0.00976562
 21
4.93945
  0
LINE
  8
0
 10
0.00976562
 20
4.93945
 11
0.00390625
 21
4.88672
  0
LINE
  8
0
 10
0.00390625
 20
4.88672
 11
0.00195312
 21
4.87012
  0
LINE
  8
0
 10
0.00195312
 20
4.87012
 11
0.000976562
 21
4.85254
  0
LINE
  8
0
 10
0.000976562
 20
4.85254
 11
0.000976562
 21
4.83496
  0
LINE
  8
0
 10
0.000976562
 20
4.83496
 11
0
 21
4.81738
  0
LINE
  8
0
 10
0
 20
4.81738
 11
0
 21
3.48242
  0
LINE
  8
0
 10
0
 20
3.48242
 11
0.000976562
 21
3.46484
  0
LINE
  8
0
 10
0.000976562
 20
3.46484
 11
0.000976562
 21
3.44727
  0
LINE
  8
0
 10
0.000976562
 20
3.44727
 11
0.00195312
 21
3.43066
  0
LINE
  8
0
 10
0.00195312
 20
3.43066
 11
0.00976562
 21
3.36035
  0
LINE
  8
0
 10
0.00976562
 20
3.36035
 11
0.0126953
 21
3.34375
  0
LINE
  8
0
 10
0.0126953
 20
3.34375
 11
0.015625
 21
3.32617
  0
LINE
  8
0
 10
0.015625
 20
3.32617
 11
0.0185547
 21
3.30957
  0
LINE
  8
0
 10
0.0185547
 20
3.30957
 11
0.0214844
 21
3.29199
  0
LINE
  8
0
 10
0.0214844
 20
3.29199
 11
0.0253906
 21
3.27539
  0
LINE
  8
0
 10
0.0253906
 20
3.27539
 11
0.0292969
 21
3.25781
  0
LINE
  8
0
 10
0.0292969
 20
3.25781
 11
0.0488281
 21
3.19141
  0
LINE
  8
0
 10
0.0488281
 20
3.19141
 11
0.0664062
 21
3.1416
  0
LINE
  8
0
 10
0.0664062
 20
3.1416
 11
0.0732422
 21
3.125
  0
LINE
  8
0
 10
0.0732422
 20
3.125
 11
0.0791016
 21
3.10938
  0
LINE
  8
0
 10
0.0791016
 20
3.10938
 11
0.0869141
 21
3.09375
  0
LINE
  8
0
 10
0.0869141
 20
3.09375
 11
0.09375
 21
3.07715
  0
LINE
  8
0
 10
0.09375
 20
3.07715
 11
0.117188
 21
3.03027
  0
LINE
  8
0
 10
0.117188
 20
3.03027
 11
0.125
 21
3.01562
  0
LINE
  8
0
 10
0.125
 20
3.01562
 11
0.133789
 21
3
  0
LINE
  8
0
 10
0.133789
 20
3
 11
0.142578
 21
2.98535
  0
LINE
  8
0
 10
0.142578
 20
2.98535
 11
0.152344
 21
2.96973
  0
LINE
  8
0
 10
0.152344
 20
2.96973
 11
0.161133
 21
2.95508
  0
LINE
  8
0
 10
0.161133
 20
2.95508
 11
0.170898
 21
2.94043
  0
LINE
  8
0
 10
0.170898
 20
2.94043
 11
0.180664
 21
2.92676
  0
LINE
  8
0
 10
0.180664
 20
2.92676
 11
0.191406
 21
2.91211
  0
LINE
  8
0
 10
0.191406
 20
2.91211
 11
0.201172
 21
2.89844
  0
LINE
  8
0
 10
0.201172
 20
2.89844
 11
0.222656
 21
2.87109
  0
LINE
  8
0
 10
0.222656
 20
2.87109
 11
0.234375
 21
2.85742
  0
LINE
  8
0
 10
0.234375
 20
2.85742
 11
0.245117
 21
2.84375
  0
LINE
  8
0
 10
0.245117
 20
2.84375
 11
0.280273
 21
2.80566
  0
LINE
  8
0
 10
0.280273
 20
2.80566
 11
0.305664
 21
2.78027
  0
LINE
  8
0
 10
0.305664
 20
2.78027
 11
0.34375
 21
2.74512
  0
LINE
  8
0
 10
0.34375
 20
2.74512
 11
0.357422
 21
2.73438
  0
LINE
  8
0
 10
0.357422
 20
2.73438
 11
0.371094
 21
2.72266
  0
LINE
  8
0
 10
0.371094
 20
2.72266
 11
0.398438
 21
2.70117
  0
LINE
  8
0
 10
0.398438
 20
2.70117
 11
0.412109
 21
2.69141
  0
LINE
  8
0
 10
0.412109
 20
2.69141
 11
0.426758
 21
2.68066
  0
LINE
  8
0
 10
0.426758
 20
2.68066
 11
0.44043
 21
2.6709
  0
LINE
  8
0
 10
0.44043
 20
2.6709
 11
0.455078
 21
2.66113
  0
LINE
  8
0
 10
0.455078
 20
2.66113
 11
0.469727
 21
2.65234
  0
LINE
  8
0
 10
0.469727
 20
2.65234
 11
0.485352
 21
2.64258
  0
LINE
  8
0
 10
0.485352
 20
2.64258
 11
0.5
 21
2.63379
  0
LINE
  8
0
 10
0.5
 20
2.63379
 11
0.515625
 21
2.625
  0
LINE
  8
0
 10
0.515625
 20
2.625
 11
0.530273
 21
2.61719
  0
LINE
  8
0
 10
0.530273
 20
2.61719
 11
0.577148
 21
2.59375
  0
LINE
  8
0
 10
0.577148
 20
2.59375
 11
0.59375
 21
2.58691
  0
LINE
  8
0
 10
0.59375
 20
2.58691
 11
0.609375
 21
2.5791
  0
LINE
  8
0
 10
0.609375
 20
2.5791
 11
0.625
 21
2.57324
  0
LINE
  8
0
 10
0.625
 20
2.57324
 11
0.641602
 21
2.56641
  0
LINE
  8
0
 10
0.641602
 20
2.56641
 11
0.691406
 21
2.54883
  0
LINE
  8
0
 10
0.691406
 20
2.54883
 11
0.757812
 21
2.5293
  0
LINE
  8
0
 10
0.757812
 20
2.5293
 11
0.775391
 21
2.52539
  0
LINE
  8
0
 10
0.775391
 20
2.52539
 11
0.791992
 21
2.52148
  0
LINE
  8
0
 10
0.791992
 20
2.52148
 11
0.80957
 21
2.51855
  0
LINE
  8
0
 10
0.80957
 20
2.51855
 11
0.826172
 21
2.51562
  0
LINE
  8
0
 10
0.826172
 20
2.51562
 11
0.84375
 21
2.5127
  0
LINE
  8
0
 10
0.84375
 20
2.5127
 11
0.860352
 21
2.50977
  0
LINE
  8
0
 10
0.860352
 20
2.50977
 11
0.930664
 21
2.50195
  0
LINE
  8
0
 10
0.930664
 20
2.50195
 11
0.947266
 21
2.50098
  0
LINE
  8
0
 10
0.947266
 20
2.50098
 11
0.964844
 21
2.50098
  0
LINE
  8
0
 10
0.964844
 20
2.50098
 11
0.982422
 21
2.5
  0
LINE
  8
0
 10
0.982422
 20
2.5
 11
4.01758
 21
2.5
  0
LINE
  8
0
 10
4.01758
 20
2.5
 11
4.03516
 21
2.49902
  0
LINE
  8
0
 10
4.03516
 20
2.49902
 11
4.05273
 21
2.49902
  0
LINE
  8
0
 10
4.05273
 20
2.49902
 11
4.06934
 21
2.49805
  0
LINE
  8
0
 10
4.06934
 20
2.49805
 11
4.13965
 21
2.49023
  0
LINE
  8
0
 10
4.13965
 20
2.49023
 11
4.15625
 21
2.4873
  0
LINE
  8
0
 10
4.15625
 20
2.4873
 11
4.17383
 21
2.48438
  0
LINE
  8
0
 10
4.17383
 20
2.48438
 11
4.19043
 21
2.48145
  0
LINE
  8
0
 10
4.19043
 20
2.48145
 11
4.20801
 21
2.47852
  0
LINE
  8
0
 10
4.20801
 20
2.47852
 11
4.22461
 21
2.47461
  0
LINE
  8
0
 10
4.22461
 20
2.47461
 11
4.24219
 21
2.4707
  0
LINE
  8
0
 10
4.24219
 20
2.4707
 11
4.30859
 21
2.45117
  0
LINE
  8
0
 10
4.30859
 20
2.45117
 11
4.3584
 21
2.43359
  0
LINE
  8
0
 10
4.3584
 20
2.43359
 11
4.375
 21
2.42676
  0
LINE
  8
0
 10
4.375
 20
2.42676
 11
4.39062
 21
2.4209
  0
LINE
  8
0
 10
4.39062
 20
2.4209
 11
4.40625
 21
2.41309
  0
LINE
  8
0
 10
4.40625
 20
2.41309
 11
4.42285
 21
2.40625
  0
LINE
  8
0
 10
4.42285
 20
2.40625
 11
4.46973
 21
2.38281
  0
LINE
  8
0
 10
4.46973
 20
2.38281
 11
4.48438
 21
2.375
  0
LINE
  8
0
 10
4.48438
 20
2.375
 11
4.5
 21
2.36621
  0
LINE
  8
0
 10
4.5
 20
2.36621
 11
4.51465
 21
2.35742
  0
LINE
  8
0
 10
4.51465
 20
2.35742
 11
4.53027
 21
2.34766
  0
LINE
  8
0
 10
4.53027
 20
2.34766
 11
4.54492
 21
2.33887
  0
LINE
  8
0
 10
4.54492
 20
2.33887
 11
4.55957
 21
2.3291
  0
LINE
  8
0
 10
4.55957
 20
2.3291
 11
4.57324
 21
2.31934
  0
LINE
  8
0
 10
4.57324
 20
2.31934
 11
4.58789
 21
2.30859
  0
LINE
  8
0
 10
4.58789
 20
2.30859
 11
4.60156
 21
2.29883
  0
LINE
  8
0
 10
4.60156
 20
2.29883
 11
4.62891
 21
2.27734
  0
LINE
  8
0
 10
4.62891
 20
2.27734
 11
4.64258
 21
2.26562
  0
LINE
  8
0
 10
4.64258
 20
2.26562
 11
4.65625
 21
2.25488
  0
LINE
  8
0
 10
4.65625
 20
2.25488
 11
4.69434
 21
2.21973
  0
LINE
  8
0
 10
4.69434
 20
2.21973
 11
4.71973
 21
2.19434
  0
LINE
  8
0
 10
4.71973
 20
2.19434
 11
4.75488
 21
2.15625
  0
LINE
  8
0
 10
4.75488
 20
2.15625
 11
4.76562
 21
2.14258
  0
LINE
  8
0
 10
4.76562
 20
2.14258
 11
4.77734
 21
2.12891
  0
LINE
  8
0
 10
4.77734
 20
2.12891
 11
4.79883
 21
2.10156
  0
LINE
  8
0
 10
4.79883
 20
2.10156
 11
4.80859
 21
2.08789
  0
LINE
  8
0
 10
4.80859
 20
2.08789
 11
4.81934
 21
2.07324
  0
LINE
  8
0
 10
4.81934
 20
2.07324
 11
4.8291
 21
2.05957
  0
LINE
  8
0
 10
4.8291
 20
2.05957
 11
4.83887
 21
2.04492
  0
LINE
  8
0
 10
4.83887
 20
2.04492
 11
4.84766
 21
2.03027
  0
LINE
  8
0
 10
4.84766
 20
2.03027
 11
4.85742
 21
2.01465
  0
LINE
  8
0
 10
4.85742
 20
2.01465
 11
4.86621
 21
2
  0
LINE
  8
0
 10
4.86621
 20
2
 11
4.875
 21
1.98438
  0
LINE
  8
0
 10
4.875
 20
1.98438
 11
4.88281
 21
1.96973
  0
LINE
  8
0
 10
4.88281
 20
1.96973
 11
4.90625
 21
1.92285
  0
LINE
  8
0
 10
4.90625
 20
1.92285
 11
4.91309
 21
1.90625
  0
LINE
  8
0
 10
4.91309
 20
1.90625
 11
4.9209
 21
1.89062
  0
LINE
  8
0
 10
4.9209
 20
1.89062
 11
4.92676
 21
1.875
  0
LINE
  8
0
 10
4.92676
 20
1.875
 11
4.93359
 21
1.8584
  0
LINE
  8
0
 10
4.93359
 20
1.8584
 11
4.95117
 21
1.80859
  0
LINE
  8
0
 10
4.95117
 20
1.80859
 11
4.9707
 21
1.74219
  0
LINE
  8
0
 10
4.9707
 20
1.74219
 11
4.97461
 21
1.72461
  0
LINE
  8
0
 10
4.97461
 20
1.72461
 11
4.97852
 21
1.70801
  0
LINE
  8
0
 10
4.97852
 20
1.70801
 11
4.98145
 21
1.69043
  0
LINE
  8
0
 10
4.98145
 20
1.69043
 11
4.98438
 21
1.67383
  0
LINE
  8
0
 10
4.98438
 20
1.67383
 11
4.9873
 21
1.65625
  0
LINE
  8
0
 10
4.9873
 20
1.65625
 11
4.99023
 21
1.63965
  0
LINE
  8
0
 10
4.99023
 20
1.63965
 11
4.99805
 21
1.56934
  0
LINE
  8
0
 10
4.99805
 20
1.56934
 11
4.99902
 21
1.55273
  0
LINE
  8
0
 10
4.99902
 20
1.55273
 11
4.99902
 21
1.53516
  0
LINE
  8
0
 10
4.99902
 20
1.53516
 11
5
 21
1.51758
  0
LINE
  8
0
 10
5
 20
1.51758
 11
5
 21
0
  0
LINE
  8
0
 10
5
 20
0
 11
16.0352
 21
0
  0
LINE
  8
0
 10
16.0352
 20
0
 11
16.0693
 21
0.000976562
  0
LINE
  8
0
 10
74.4941
 20
27.9951
 11
74.4033
 21
27.998
  0
LINE
  8
0
 10
74.4033
 20
27.998
 11
74.3721
 21
28
  0
LINE
  8
0
 10
74.3721
 20
28
 11
69.4697
 21
28
  0
LINE
  8
0
 10
69.4697
 20
28
 11
69.4082
 21
28.002
  0
LINE
  8
0
 10
69.4082
 20
28.002
 11
69.3779
 21
28.0039
  0
LINE
  8
0
 10
69.3779
 20
28.0039
 11
69.2871
 21
28.0127
  0
LINE
  8
0
 10
69.2871
 20
28.0127
 11
69.2568
 21
28.0166
  0
LINE
  8
0
 10
69.2568
 20
28.0166
 11
69.1963
 21
28.0264
  0
LINE
  8
0
 10
69.1963
 20
28.0264
 11
69.1357
 21
28.0381
  0
LINE
  8
0
 10
69.1357
 20
28.0381
 11
69.1064
 21
28.0449
  0
LINE
  8
0
 10
69.1064
 20
28.0449
 11
69.0762
 21
28.0518
  0
LINE
  8
0
 10
69.0762
 20
28.0518
 11
69.0176
 21
28.0674
  0
LINE
  8
0
 10
69.0176
 20
28.0674
 11
68.9883
 21
28.0762
  0
LINE
  8
0
 10
68.9883
 20
28.0762
 11
68.959
 21
28.0859
  0
LINE
  8
0
 10
68.959
 20
28.0859
 11
68.9307
 21
28.0957
  0
LINE
  8
0
 10
68.9307
 20
28.0957
 11
68.9014
 21
28.1055
  0
LINE
  8
0
 10
68.9014
 20
28.1055
 11
68.8447
 21
28.127
  0
LINE
  8
0
 10
68.8447
 20
28.127
 11
68.8164
 21
28.1387
  0
LINE
  8
0
 10
68.8164
 20
28.1387
 11
68.7881
 21
28.1514
  0
LINE
  8
0
 10
68.7881
 20
28.1514
 11
68.7607
 21
28.1641
  0
LINE
  8
0
 10
68.7607
 20
28.1641
 11
68.7324
 21
28.1768
  0
LINE
  8
0
 10
68.7324
 20
28.1768
 11
68.7051
 21
28.1904
  0
LINE
  8
0
 10
68.7051
 20
28.1904
 11
68.6787
 21
28.2051
  0
LINE
  8
0
 10
68.6787
 20
28.2051
 11
68.6514
 21
28.2197
  0
LINE
  8
0
 10
68.6514
 20
28.2197
 11
68.625
 21
28.2344
  0
LINE
  8
0
 10
68.625
 20
28.2344
 11
68.5723
 21
28.2656
  0
LINE
  8
0
 10
68.5723
 20
28.2656
 11
68.5215
 21
28.2988
  0
LINE
  8
0
 10
68.5215
 20
28.2988
 11
68.4961
 21
28.3164
  0
LINE
  8
0
 10
68.4961
 20
28.3164
 11
68.4717
 21
28.334
  0
LINE
  8
0
 10
68.4717
 20
28.334
 11
68.3984
 21
28.3896
  0
LINE
  8
0
 10
68.3984
 20
28.3896
 11
68.375
 21
28.4092
  0
LINE
  8
0
 10
68.375
 20
28.4092
 11
68.3516
 21
28.4297
  0
LINE
  8
0
 10
68.3516
 20
28.4297
 11
68.3291
 21
28.4492
  0
LINE
  8
0
 10
68.3291
 20
28.4492
 11
68.3066
 21
28.4697
  0
LINE
  8
0
 10
68.3066
 20
28.4697
 11
68.2842
 21
28.4912
  0
LINE
  8
0
 10
68.2842
 20
28.4912
 11
68.2412
 21
28.5342
  0
LINE
  8
0
 10
68.2412
 20
28.5342
 11
68.2197
 21
28.5566
  0
LINE
  8
0
 10
68.2197
 20
28.5566
 11
68.1992
 21
28.5791
  0
LINE
  8
0
 10
68.1992
 20
28.5791
 11
68.1797
 21
28.6016
  0
LINE
  8
0
 10
68.1797
 20
28.6016
 11
68.1592
 21
28.625
  0
LINE
  8
0
 10
68.1592
 20
28.625
 11
68.1396
 21
28.6484
  0
LINE
  8
0
 10
68.1396
 20
28.6484
 11
68.084
 21
28.7217
  0
LINE
  8
0
 10
68.084
 20
28.7217
 11
68.0664
 21
28.7461
  0
LINE
  8
0
 10
68.0664
 20
28.7461
 11
68.0488
 21
28.7715
  0
LINE
  8
0
 10
68.0488
 20
28.7715
 11
68.0156
 21
28.8223
  0
LINE
  8
0
 10
68.0156
 20
28.8223
 11
67.9844
 21
28.875
  0
LINE
  8
0
 10
67.9844
 20
28.875
 11
67.9697
 21
28.9014
  0
LINE
  8
0
 10
67.9697
 20
28.9014
 11
67.9551
 21
28.9287
  0
LINE
  8
0
 10
67.9551
 20
28.9287
 11
67.9404
 21
28.9551
  0
LINE
  8
0
 10
67.9404
 20
28.9551
 11
67.9268
 21
28.9824
  0
LINE
  8
0
 10
67.9268
 20
28.9824
 11
67.9141
 21
29.0107
  0
LINE
  8
0
 10
67.9141
 20
29.0107
 11
67.9014
 21
29.0381
  0
LINE
  8
0
 10
67.9014
 20
29.0381
 11
67.8887
 21
29.0664
  0
LINE
  8
0
 10
67.8887
 20
29.0664
 11
67.877
 21
29.0947
  0
LINE
  8
0
 10
67.877
 20
29.0947
 11
67.8555
 21
29.1514
  0
LINE
  8
0
 10
67.8555
 20
29.1514
 11
67.8457
 21
29.1807
  0
LINE
  8
0
 10
67.8457
 20
29.1807
 11
67.8359
 21
29.209
  0
LINE
  8
0
 10
67.8359
 20
29.209
 11
67.8262
 21
29.2383
  0
LINE
  8
0
 10
67.8262
 20
29.2383
 11
67.8174
 21
29.2676
  0
LINE
  8
0
 10
67.8174
 20
29.2676
 11
67.8018
 21
29.3262
  0
LINE
  8
0
 10
67.8018
 20
29.3262
 11
67.7949
 21
29.3564
  0
LINE
  8
0
 10
67.7949
 20
29.3564
 11
67.7881
 21
29.3857
  0
LINE
  8
0
 10
67.7881
 20
29.3857
 11
67.7764
 21
29.4463
  0
LINE
  8
0
 10
67.7764
 20
29.4463
 11
67.7666
 21
29.5068
  0
LINE
  8
0
 10
67.7666
 20
29.5068
 11
67.7627
 21
29.5371
  0
LINE
  8
0
 10
67.7627
 20
29.5371
 11
67.7539
 21
29.6279
  0
LINE
  8
0
 10
67.7539
 20
29.6279
 11
67.752
 21
29.6582
  0
LINE
  8
0
 10
67.752
 20
29.6582
 11
67.75
 21
29.7197
  0
LINE
  8
0
 10
67.75
 20
29.7197
 11
67.75
 21
29.7803
  0
LINE
  8
0
 10
67.75
 20
29.7803
 11
67.752
 21
29.8418
  0
LINE
  8
0
 10
67.752
 20
29.8418
 11
67.7539
 21
29.8721
  0
LINE
  8
0
 10
67.7539
 20
29.8721
 11
67.7627
 21
29.9629
  0
LINE
  8
0
 10
67.7627
 20
29.9629
 11
67.7666
 21
29.9932
  0
LINE
  8
0
 10
67.7666
 20
29.9932
 11
67.7764
 21
30.0537
  0
LINE
  8
0
 10
67.7764
 20
30.0537
 11
67.7881
 21
30.1143
  0
LINE
  8
0
 10
67.7881
 20
30.1143
 11
67.7949
 21
30.1436
  0
LINE
  8
0
 10
67.7949
 20
30.1436
 11
67.8018
 21
30.1738
  0
LINE
  8
0
 10
67.8018
 20
30.1738
 11
67.8174
 21
30.2324
  0
LINE
  8
0
 10
67.8174
 20
30.2324
 11
67.8262
 21
30.2617
  0
LINE
  8
0
 10
67.8262
 20
30.2617
 11
67.8359
 21
30.291
  0
LINE
  8
0
 10
67.8359
 20
30.291
 11
67.8457
 21
30.3193
  0
LINE
  8
0
 10
67.8457
 20
30.3193
 11
67.8555
 21
30.3486
  0
LINE
  8
0
 10
67.8555
 20
30.3486
 11
67.877
 21
30.4053
  0
LINE
  8
0
 10
67.877
 20
30.4053
 11
67.8887
 21
30.4336
  0
LINE
  8
0
 10
67.8887
 20
30.4336
 11
67.9014
 21
30.4619
  0
LINE
  8
0
 10
67.9014
 20
30.4619
 11
67.9141
 21
30.4893
  0
LINE
  8
0
 10
67.9141
 20
30.4893
 11
67.9268
 21
30.5176
  0
LINE
  8
0
 10
67.9268
 20
30.5176
 11
67.9404
 21
30.5449
  0
LINE
  8
0
 10
67.9404
 20
30.5449
 11
67.9551
 21
30.5713
  0
LINE
  8
0
 10
67.9551
 20
30.5713
 11
67.9697
 21
30.5986
  0
LINE
  8
0
 10
67.9697
 20
30.5986
 11
67.9844
 21
30.625
  0
LINE
  8
0
 10
67.9844
 20
30.625
 11
68.0156
 21
30.6777
  0
LINE
  8
0
 10
68.0156
 20
30.6777
 11
68.0488
 21
30.7285
  0
LINE
  8
0
 10
68.0488
 20
30.7285
 11
68.0664
 21
30.7539
  0
LINE
  8
0
 10
68.0664
 20
30.7539
 11
68.084
 21
30.7783
  0
LINE
  8
0
 10
68.084
 20
30.7783
 11
68.1396
 21
30.8516
  0
LINE
  8
0
 10
68.1396
 20
30.8516
 11
68.1592
 21
30.875
  0
LINE
  8
0
 10
68.1592
 20
30.875
 11
68.1797
 21
30.8984
  0
LINE
  8
0
 10
68.1797
 20
30.8984
 11
68.1992
 21
30.9209
  0
LINE
  8
0
 10
68.1992
 20
30.9209
 11
68.2197
 21
30.9434
  0
LINE
  8
0
 10
68.2197
 20
30.9434
 11
68.2412
 21
30.9658
  0
LINE
  8
0
 10
68.2412
 20
30.9658
 11
68.2842
 21
31.0088
  0
LINE
  8
0
 10
68.2842
 20
31.0088
 11
68.3066
 21
31.0303
  0
LINE
  8
0
 10
68.3066
 20
31.0303
 11
68.3291
 21
31.0508
  0
LINE
  8
0
 10
68.3291
 20
31.0508
 11
68.3516
 21
31.0703
  0
LINE
  8
0
 10
68.3516
 20
31.0703
 11
68.375
 21
31.0908
  0
LINE
  8
0
 10
68.375
 20
31.0908
 11
68.3984
 21
31.1104
  0
LINE
  8
0
 10
68.3984
 20
31.1104
 11
68.4717
 21
31.166
  0
LINE
  8
0
 10
68.4717
 20
31.166
 11
68.4961
 21
31.1836
  0
LINE
  8
0
 10
68.4961
 20
31.1836
 11
68.5215
 21
31.2012
  0
LINE
  8
0
 10
68.5215
 20
31.2012
 11
68.5723
 21
31.2344
  0
LINE
  8
0
 10
68.5723
 20
31.2344
 11
68.625
 21
31.2656
  0
LINE
  8
0
 10
68.625
 20
31.2656
 11
68.6514
 21
31.2803
  0
LINE
  8
0
 10
68.6514
 20
31.2803
 11
68.6787
 21
31.2949
  0
LINE
  8
0
 10
68.6787
 20
31.2949
 11
68.7051
 21
31.3096
  0
LINE
  8
0
 10
68.7051
 20
31.3096
 11
68.7324
 21
31.3232
  0
LINE
  8
0
 10
68.7324
 20
31.3232
 11
68.7607
 21
31.3359
  0
LINE
  8
0
 10
68.7607
 20
31.3359
 11
68.7881
 21
31.3486
  0
LINE
  8
0
 10
68.7881
 20
31.3486
 11
68.8164
 21
31.3613
  0
LINE
  8
0
 10
68.8164
 20
31.3613
 11
68.8447
 21
31.373
  0
LINE
  8
0
 10
68.8447
 20
31.373
 11
68.9014
 21
31.3945
  0
LINE
  8
0
 10
68.9014
 20
31.3945
 11
68.9307
 21
31.4043
  0
LINE
  8
0
 10
68.9307
 20
31.4043
 11
68.959
 21
31.4141
  0
LINE
  8
0
 10
68.959
 20
31.4141
 11
68.9883
 21
31.4238
  0
LINE
  8
0
 10
68.9883
 20
31.4238
 11
69.0176
 21
31.4326
  0
LINE
  8
0
 10
69.0176
 20
31.4326
 11
69.0762
 21
31.4482
  0
LINE
  8
0
 10
69.0762
 20
31.4482
 11
69.1064
 21
31.4551
  0
LINE
  8
0
 10
69.1064
 20
31.4551
 11
69.1357
 21
31.4619
  0
LINE
  8
0
 10
69.1357
 20
31.4619
 11
69.1963
 21
31.4736
  0
LINE
  8
0
 10
69.1963
 20
31.4736
 11
69.2568
 21
31.4834
  0
LINE
  8
0
 10
69.2568
 20
31.4834
 11
69.2871
 21
31.4873
  0
LINE
  8
0
 10
69.2871
 20
31.4873
 11
69.3779
 21
31.4961
  0
LINE
  8
0
 10
69.3779
 20
31.4961
 11
69.4082
 21
31.498
  0
LINE
  8
0
 10
69.4082
 20
31.498
 11
69.4697
 21
31.5
  0
LINE
  8
0
 10
69.4697
 20
31.5
 11
74.3721
 21
31.5
  0
LINE
  8
0
 10
74.3721
 20
31.5
 11
74.4033
 21
31.502
  0
LINE
  8
0
 10
74.4033
 20
31.502
 11
74.4941
 21
31.5049
  0
LINE
  8
0
 10
74.4941
 20
31.5049
 11
74.5254
 21
31.5049
  0
LINE
  8
0
 10
74.5254
 20
31.5049
 11
74.5859
 21
31.5029
  0
LINE
  8
0
 10
74.5859
 20
31.5029
 11
74.6162
 21
31.501
  0
LINE
  8
0
 10
74.6162
 20
31.501
 11
74.6465
 21
31.498
  0
LINE
  8
0
 10
74.6465
 20
31.498
 11
74.6777
 21
31.4961
  0
LINE
  8
0
 10
74.6777
 20
31.4961
 11
74.7686
 21
31.4844
  0
LINE
  8
0
 10
74.7686
 20
31.4844
 11
74.7979
 21
31.4795
  0
LINE
  8
0
 10
74.7979
 20
31.4795
 11
74.8584
 21
31.4678
  0
LINE
  8
0
 10
74.8584
 20
31.4678
 11
74.8877
 21
31.4609
  0
LINE
  8
0
 10
74.8877
 20
31.4609
 11
74.918
 21
31.4541
  0
LINE
  8
0
 10
74.918
 20
31.4541
 11
74.9766
 21
31.4385
  0
LINE
  8
0
 10
74.9766
 20
31.4385
 11
75.0352
 21
31.4209
  0
LINE
  8
0
 10
75.0352
 20
31.4209
 11
75.0645
 21
31.4111
  0
LINE
  8
0
 10
75.0645
 20
31.4111
 11
75.0928
 21
31.4014
  0
LINE
  8
0
 10
75.0928
 20
31.4014
 11
75.1211
 21
31.3906
  0
LINE
  8
0
 10
75.1211
 20
31.3906
 11
75.1504
 21
31.3799
  0
LINE
  8
0
 10
75.1504
 20
31.3799
 11
75.1777
 21
31.3682
  0
LINE
  8
0
 10
75.1777
 20
31.3682
 11
75.2061
 21
31.3564
  0
LINE
  8
0
 10
75.2061
 20
31.3564
 11
75.2344
 21
31.3438
  0
LINE
  8
0
 10
75.2344
 20
31.3438
 11
75.2617
 21
31.3311
  0
LINE
  8
0
 10
75.2617
 20
31.3311
 11
75.3164
 21
31.3037
  0
LINE
  8
0
 10
75.3164
 20
31.3037
 11
75.3428
 21
31.2891
  0
LINE
  8
0
 10
75.3428
 20
31.2891
 11
75.3701
 21
31.2734
  0
LINE
  8
0
 10
75.3701
 20
31.2734
 11
75.3965
 21
31.2588
  0
LINE
  8
0
 10
75.3965
 20
31.2588
 11
75.4219
 21
31.2432
  0
LINE
  8
0
 10
75.4219
 20
31.2432
 11
75.4482
 21
31.2266
  0
LINE
  8
0
 10
75.4482
 20
31.2266
 11
75.4736
 21
31.21
  0
LINE
  8
0
 10
75.4736
 20
31.21
 11
75.499
 21
31.1924
  0
LINE
  8
0
 10
75.499
 20
31.1924
 11
75.5234
 21
31.1748
  0
LINE
  8
0
 10
75.5234
 20
31.1748
 11
75.5488
 21
31.1572
  0
LINE
  8
0
 10
75.5488
 20
31.1572
 11
75.5723
 21
31.1387
  0
LINE
  8
0
 10
75.5723
 20
31.1387
 11
75.5967
 21
31.1201
  0
LINE
  8
0
 10
75.5967
 20
31.1201
 11
75.6436
 21
31.0811
  0
LINE
  8
0
 10
75.6436
 20
31.0811
 11
75.667
 21
31.0605
  0
LINE
  8
0
 10
75.667
 20
31.0605
 11
75.7119
 21
31.0195
  0
LINE
  8
0
 10
75.7119
 20
31.0195
 11
75.7549
 21
30.9766
  0
LINE
  8
0
 10
75.7549
 20
30.9766
 11
75.7764
 21
30.9541
  0
LINE
  8
0
 10
75.7764
 20
30.9541
 11
75.8174
 21
30.9092
  0
LINE
  8
0
 10
75.8174
 20
30.9092
 11
75.876
 21
30.8389
  0
LINE
  8
0
 10
75.876
 20
30.8389
 11
75.9131
 21
30.79
  0
LINE
  8
0
 10
75.9131
 20
30.79
 11
75.9482
 21
30.7412
  0
LINE
  8
0
 10
75.9482
 20
30.7412
 11
75.9648
 21
30.7158
  0
LINE
  8
0
 10
75.9648
 20
30.7158
 11
75.9814
 21
30.6895
  0
LINE
  8
0
 10
75.9814
 20
30.6895
 11
75.998
 21
30.6641
  0
LINE
  8
0
 10
75.998
 20
30.6641
 11
76.0137
 21
30.6377
  0
LINE
  8
0
 10
76.0137
 20
30.6377
 11
76.0283
 21
30.6113
  0
LINE
  8
0
 10
76.0283
 20
30.6113
 11
76.0439
 21
30.585
  0
LINE
  8
0
 10
76.0439
 20
30.585
 11
76.085
 21
30.5029
  0
LINE
  8
0
 10
76.085
 20
30.5029
 11
76.0977
 21
30.4756
  0
LINE
  8
0
 10
76.0977
 20
30.4756
 11
76.1104
 21
30.4473
  0
LINE
  8
0
 10
76.1104
 20
30.4473
 11
76.1338
 21
30.3906
  0
LINE
  8
0
 10
76.1338
 20
30.3906
 11
76.1445
 21
30.3623
  0
LINE
  8
0
 10
76.1445
 20
30.3623
 11
76.1543
 21
30.334
  0
LINE
  8
0
 10
76.1543
 20
30.334
 11
76.165
 21
30.3047
  0
LINE
  8
0
 10
76.165
 20
30.3047
 11
76.1738
 21
30.2754
  0
LINE
  8
0
 10
76.1738
 20
30.2754
 11
76.1826
 21
30.2471
  0
LINE
  8
0
 10
76.1826
 20
30.2471
 11
76.1914
 21
30.2178
  0
LINE
  8
0
 10
76.1914
 20
30.2178
 11
76.1992
 21
30.1875
  0
LINE
  8
0
 10
76.1992
 20
30.1875
 11
76.2129
 21
30.1289
  0
LINE
  8
0
 10
76.2129
 20
30.1289
 11
76.2197
 21
30.0986
  0
LINE
  8
0
 10
76.2197
 20
30.0986
 11
76.2256
 21
30.0684
  0
LINE
  8
0
 10
76.2256
 20
30.0684
 11
76.2305
 21
30.0391
  0
LINE
  8
0
 10
76.2305
 20
30.0391
 11
76.2354
 21
30.0088
  0
LINE
  8
0
 10
76.2354
 20
30.0088
 11
76.2471
 21
29.918
  0
LINE
  8
0
 10
76.2471
 20
29.918
 11
76.249
 21
29.8867
  0
LINE
  8
0
 10
76.249
 20
29.8867
 11
76.2529
 21
29.8262
  0
LINE
  8
0
 10
76.2529
 20
29.8262
 11
76.2549
 21
29.7656
  0
LINE
  8
0
 10
76.2549
 20
29.7656
 11
76.2549
 21
29.7344
  0
LINE
  8
0
 10
76.2549
 20
29.7344
 11
76.2529
 21
29.6738
  0
LINE
  8
0
 10
76.2529
 20
29.6738
 11
76.249
 21
29.6133
  0
LINE
  8
0
 10
76.249
 20
29.6133
 11
76.2471
 21
29.582
  0
LINE
  8
0
 10
76.2471
 20
29.582
 11
76.2354
 21
29.4912
  0
LINE
  8
0
 10
76.2354
 20
29.4912
 11
76.2305
 21
29.4609
  0
LINE
  8
0
 10
76.2305
 20
29.4609
 11
76.2256
 21
29.4316
  0
LINE
  8
0
 10
76.2256
 20
29.4316
 11
76.2197
 21
29.4014
  0
LINE
  8
0
 10
76.2197
 20
29.4014
 11
76.2129
 21
29.3711
  0
LINE
  8
0
 10
76.2129
 20
29.3711
 11
76.1992
 21
29.3125
  0
LINE
  8
0
 10
76.1992
 20
29.3125
 11
76.1914
 21
29.2832
  0
LINE
  8
0
 10
76.1914
 20
29.2832
 11
76.1826
 21
29.2529
  0
LINE
  8
0
 10
76.1826
 20
29.2529
 11
76.1738
 21
29.2246
  0
LINE
  8
0
 10
76.1738
 20
29.2246
 11
76.165
 21
29.1953
  0
LINE
  8
0
 10
76.165
 20
29.1953
 11
76.1543
 21
29.166
  0
LINE
  8
0
 10
76.1543
 20
29.166
 11
76.1445
 21
29.1377
  0
LINE
  8
0
 10
76.1445
 20
29.1377
 11
76.1338
 21
29.1094
  0
LINE
  8
0
 10
76.1338
 20
29.1094
 11
76.1104
 21
29.0527
  0
LINE
  8
0
 10
76.1104
 20
29.0527
 11
76.0977
 21
29.0244
  0
LINE
  8
0
 10
76.0977
 20
29.0244
 11
76.085
 21
28.9971
  0
LINE
  8
0
 10
76.085
 20
28.9971
 11
76.0439
 21
28.915
  0
LINE
  8
0
 10
76.0439
 20
28.915
 11
76.0283
 21
28.8887
  0
LINE
  8
0
 10
76.0283
 20
28.8887
 11
76.0137
 21
28.8623
  0
LINE
  8
0
 10
76.0137
 20
28.8623
 11
75.998
 21
28.8359
  0
LINE
  8
0
 10
75.998
 20
28.8359
 11
75.9814
 21
28.8105
  0
LINE
  8
0
 10
75.9814
 20
28.8105
 11
75.9648
 21
28.7842
  0
LINE
  8
0
 10
75.9648
 20
28.7842
 11
75.9482
 21
28.7588
  0
LINE
  8
0
 10
75.9482
 20
28.7588
 11
75.9131
 21
28.71
  0
LINE
  8
0
 10
75.9131
 20
28.71
 11
75.876
 21
28.6611
  0
LINE
  8
0
 10
75.876
 20
28.6611
 11
75.8174
 21
28.5908
  0
LINE
  8
0
 10
75.8174
 20
28.5908
 11
75.7764
 21
28.5459
  0
LINE
  8
0
 10
75.7764
 20
28.5459
 11
75.7549
 21
28.5234
  0
LINE
  8
0
 10
75.7549
 20
28.5234
 11
75.7119
 21
28.4805
  0
LINE
  8
0
 10
75.7119
 20
28.4805
 11
75.667
 21
28.4395
  0
LINE
  8
0
 10
75.667
 20
28.4395
 11
75.6436
 21
28.4189
  0
LINE
  8
0
 10
75.6436
 20
28.4189
 11
75.5967
 21
28.3799
  0
LINE
  8
0
 10
75.5967
 20
28.3799
 11
75.5723
 21
28.3613
  0
LINE
  8
0
 10
75.5723
 20
28.3613
 11
75.5488
 21
28.3428
  0
LINE
  8
0
 10
75.5488
 20
28.3428
 11
75.5234
 21
28.3252
  0
LINE
  8
0
 10
75.5234
 20
28.3252
 11
75.499
 21
28.3076
  0
LINE
  8
0
 10
75.499
 20
28.3076
 11
75.4736
 21
28.29
  0
LINE
  8
0
 10
75.4736
 20
28.29
 11
75.4482
 21
28.2734
  0
LINE
  8
0
 10
75.4482
 20
28.2734
 11
75.4219
 21
28.2568
  0
LINE
  8
0
 10
75.4219
 20
28.2568
 11
75.3965
 21
28.2412
  0
LINE
  8
0
 10
75.3965
 20
28.2412
 11
75.3701
 21
28.2266
  0
LINE
  8
0
 10
75.3701
 20
28.2266
 11
75.3428
 21
28.2109
  0
LINE
  8
0
 10
75.3428
 20
28.2109
 11
75.3164
 21
28.1963
  0
LINE
  8
0
 10
75.3164
 20
28.1963
 11
75.2617
 21
28.1689
  0
LINE
  8
0
 10
75.2617
 20
28.1689
 11
75.2344
 21
28.1562
  0
LINE
  8
0
 10
75.2344
 20
28.1562
 11
75.2061
 21
28.1436
  0
LINE
  8
0
 10
75.2061
 20
28.1436
 11
75.1787
 21
28.1318
  0
LINE
  8
0
 10
75.1787
 20
28.1318
 11
75.1504
 21
28.1201
  0
LINE
  8
0
 10
75.1504
 20
28.1201
 11
75.1211
 21
28.1094
  0
LINE
  8
0
 10
75.1211
 20
28.1094
 11
75.0928
 21
28.0986
  0
LINE
  8
0
 10
75.0928
 20
28.0986
 11
75.0645
 21
28.0889
  0
LINE
  8
0
 10
75.0645
 20
28.0889
 11
75.0352
 21
28.0791
  0
LINE
  8
0
 10
75.0352
 20
28.0791
 11
74.9766
 21
28.0615
  0
LINE
  8
0
 10
74.9766
 20
28.0615
 11
74.918
 21
28.0459
  0
LINE
  8
0
 10
74.918
 20
28.0459
 11
74.8877
 21
28.0391
  0
LINE
  8
0
 10
74.8877
 20
28.0391
 11
74.8584
 21
28.0322
  0
LINE
  8
0
 10
74.8584
 20
28.0322
 11
74.7979
 21
28.0205
  0
LINE
  8
0
 10
74.7979
 20
28.0205
 11
74.7686
 21
28.0156
  0
LINE
  8
0
 10
74.7686
 20
28.0156
 11
74.6777
 21
28.0039
  0
LINE
  8
0
 10
74.6777
 20
28.0039
 11
74.6465
 21
28.002
  0
LINE
  8
0
 10
74.6465
 20
28.002
 11
74.6162
 21
27.999
  0
LINE
  8
0
 10
74.6162
 20
27.999
 11
74.5859
 21
27.9971
  0
LINE
  8
0
 10
74.5859
 20
27.9971
 11
74.5254
 21
27.9951
  0
LINE
  8
0
 10
74.5254
 20
27.9951
 11
74.4941
 21
27.9951
  0
LINE
  8
0
 10
86.7217
 20
16.5
 11
86.7041
 21
16.501
  0
LINE
  8
0
 10
86.7041
 20
16.501
 11
86.6865
 21
16.501
  0
LINE
  8
0
 10
86.6865
 20
16.501
 11
86.6689
 21
16.502
  0
LINE
  8
0
 10
86.6689
 20
16.502
 11
86.6338
 21
16.5059
  0
LINE
  8
0
 10
86.6338
 20
16.5059
 11
86.6172
 21
16.5078
  0
LINE
  8
0
 10
86.6172
 20
16.5078
 11
86.5996
 21
16.5098
  0
LINE
  8
0
 10
86.5996
 20
16.5098
 11
86.582
 21
16.5127
  0
LINE
  8
0
 10
86.582
 20
16.5127
 11
86.5654
 21
16.5156
  0
LINE
  8
0
 10
86.5654
 20
16.5156
 11
86.5479
 21
16.5186
  0
LINE
  8
0
 10
86.5479
 20
16.5186
 11
86.5312
 21
16.5215
  0
LINE
  8
0
 10
86.5312
 20
16.5215
 11
86.5137
 21
16.5254
  0
LINE
  8
0
 10
86.5137
 20
16.5254
 11
86.4971
 21
16.5293
  0
LINE
  8
0
 10
86.4971
 20
16.5293
 11
86.4805
 21
16.5342
  0
LINE
  8
0
 10
86.4805
 20
16.5342
 11
86.4629
 21
16.5391
  0
LINE
  8
0
 10
86.4629
 20
16.5391
 11
86.4297
 21
16.5488
  0
LINE
  8
0
 10
86.4297
 20
16.5488
 11
86.3965
 21
16.5605
  0
LINE
  8
0
 10
86.3965
 20
16.5605
 11
86.3809
 21
16.5664
  0
LINE
  8
0
 10
86.3809
 20
16.5664
 11
86.3643
 21
16.5732
  0
LINE
  8
0
 10
86.3643
 20
16.5732
 11
86.3477
 21
16.5791
  0
LINE
  8
0
 10
86.3477
 20
16.5791
 11
86.332
 21
16.5869
  0
LINE
  8
0
 10
86.332
 20
16.5869
 11
86.3164
 21
16.5938
  0
LINE
  8
0
 10
86.3164
 20
16.5938
 11
86.2539
 21
16.625
  0
LINE
  8
0
 10
86.2539
 20
16.625
 11
86.2393
 21
16.6338
  0
LINE
  8
0
 10
86.2393
 20
16.6338
 11
86.2236
 21
16.6426
  0
LINE
  8
0
 10
86.2236
 20
16.6426
 11
86.209
 21
16.6523
  0
LINE
  8
0
 10
86.209
 20
16.6523
 11
86.1943
 21
16.6611
  0
LINE
  8
0
 10
86.1943
 20
16.6611
 11
86.165
 21
16.6807
  0
LINE
  8
0
 10
86.165
 20
16.6807
 11
86.1514
 21
16.6914
  0
LINE
  8
0
 10
86.1514
 20
16.6914
 11
86.1367
 21
16.7012
  0
LINE
  8
0
 10
86.1367
 20
16.7012
 11
86.1094
 21
16.7227
  0
LINE
  8
0
 10
86.1094
 20
16.7227
 11
86.0957
 21
16.7344
  0
LINE
  8
0
 10
86.0957
 20
16.7344
 11
86.083
 21
16.7451
  0
LINE
  8
0
 10
86.083
 20
16.7451
 11
86.0693
 21
16.7568
  0
LINE
  8
0
 10
86.0693
 20
16.7568
 11
86.0439
 21
16.7803
  0
LINE
  8
0
 10
86.0439
 20
16.7803
 11
86.0312
 21
16.793
  0
LINE
  8
0
 10
86.0312
 20
16.793
 11
85.9844
 21
16.8438
  0
LINE
  8
0
 10
85.9844
 20
16.8438
 11
85.9727
 21
16.8574
  0
LINE
  8
0
 10
85.9727
 20
16.8574
 11
85.9297
 21
16.9121
  0
LINE
  8
0
 10
85.9297
 20
16.9121
 11
85.9199
 21
16.9268
  0
LINE
  8
0
 10
85.9199
 20
16.9268
 11
85.9102
 21
16.9404
  0
LINE
  8
0
 10
85.9102
 20
16.9404
 11
85.8906
 21
16.9697
  0
LINE
  8
0
 10
85.8906
 20
16.9697
 11
85.8818
 21
16.9854
  0
LINE
  8
0
 10
85.8818
 20
16.9854
 11
85.873
 21
17
  0
LINE
  8
0
 10
85.873
 20
17
 11
85.8643
 21
17.0156
  0
LINE
  8
0
 10
85.8643
 20
17.0156
 11
85.8555
 21
17.0303
  0
LINE
  8
0
 10
85.8555
 20
17.0303
 11
85.832
 21
17.0771
  0
LINE
  8
0
 10
85.832
 20
17.0771
 11
85.8252
 21
17.0928
  0
LINE
  8
0
 10
85.8252
 20
17.0928
 11
85.8184
 21
17.1094
  0
LINE
  8
0
 10
85.8184
 20
17.1094
 11
85.8115
 21
17.125
  0
LINE
  8
0
 10
85.8115
 20
17.125
 11
85.8057
 21
17.1416
  0
LINE
  8
0
 10
85.8057
 20
17.1416
 11
85.7988
 21
17.1582
  0
LINE
  8
0
 10
85.7988
 20
17.1582
 11
85.793
 21
17.1748
  0
LINE
  8
0
 10
85.793
 20
17.1748
 11
85.7881
 21
17.1914
  0
LINE
  8
0
 10
85.7881
 20
17.1914
 11
85.7822
 21
17.208
  0
LINE
  8
0
 10
85.7822
 20
17.208
 11
85.7725
 21
17.2412
  0
LINE
  8
0
 10
85.7725
 20
17.2412
 11
85.7686
 21
17.2578
  0
LINE
  8
0
 10
85.7686
 20
17.2578
 11
85.7646
 21
17.2754
  0
LINE
  8
0
 10
85.7646
 20
17.2754
 11
85.7607
 21
17.292
  0
LINE
  8
0
 10
85.7607
 20
17.292
 11
85.7568
 21
17.3096
  0
LINE
  8
0
 10
85.7568
 20
17.3096
 11
85.7539
 21
17.3262
  0
LINE
  8
0
 10
85.7539
 20
17.3262
 11
85.751
 21
17.3438
  0
LINE
  8
0
 10
85.751
 20
17.3438
 11
85.748
 21
17.3604
  0
LINE
  8
0
 10
85.748
 20
17.3604
 11
85.7422
 21
17.4131
  0
LINE
  8
0
 10
85.7422
 20
17.4131
 11
85.7412
 21
17.4307
  0
LINE
  8
0
 10
85.7412
 20
17.4307
 11
85.7402
 21
17.4473
  0
LINE
  8
0
 10
85.7402
 20
17.4473
 11
85.7393
 21
17.4648
  0
LINE
  8
0
 10
85.7393
 20
17.4648
 11
85.7393
 21
25.584
  0
LINE
  8
0
 10
85.7393
 20
25.584
 11
85.7422
 21
25.6367
  0
LINE
  8
0
 10
85.7422
 20
25.6367
 11
85.7441
 21
25.6533
  0
LINE
  8
0
 10
85.7441
 20
25.6533
 11
85.748
 21
25.6885
  0
LINE
  8
0
 10
85.748
 20
25.6885
 11
85.751
 21
25.7061
  0
LINE
  8
0
 10
85.751
 20
25.7061
 11
85.7539
 21
25.7227
  0
LINE
  8
0
 10
85.7539
 20
25.7227
 11
85.7568
 21
25.7402
  0
LINE
  8
0
 10
85.7568
 20
25.7402
 11
85.7607
 21
25.7568
  0
LINE
  8
0
 10
85.7607
 20
25.7568
 11
85.7646
 21
25.7744
  0
LINE
  8
0
 10
85.7646
 20
25.7744
 11
85.7725
 21
25.8076
  0
LINE
  8
0
 10
85.7725
 20
25.8076
 11
85.7773
 21
25.8252
  0
LINE
  8
0
 10
85.7773
 20
25.8252
 11
85.7822
 21
25.8418
  0
LINE
  8
0
 10
85.7822
 20
25.8418
 11
85.7881
 21
25.8584
  0
LINE
  8
0
 10
85.7881
 20
25.8584
 11
85.793
 21
25.875
  0
LINE
  8
0
 10
85.793
 20
25.875
 11
85.7988
 21
25.8916
  0
LINE
  8
0
 10
85.7988
 20
25.8916
 11
85.8057
 21
25.9072
  0
LINE
  8
0
 10
85.8057
 20
25.9072
 11
85.8115
 21
25.9238
  0
LINE
  8
0
 10
85.8115
 20
25.9238
 11
85.8184
 21
25.9395
  0
LINE
  8
0
 10
85.8184
 20
25.9395
 11
85.8252
 21
25.9561
  0
LINE
  8
0
 10
85.8252
 20
25.9561
 11
85.832
 21
25.9717
  0
LINE
  8
0
 10
85.832
 20
25.9717
 11
85.8555
 21
26.0186
  0
LINE
  8
0
 10
85.8555
 20
26.0186
 11
85.8643
 21
26.0342
  0
LINE
  8
0
 10
85.8643
 20
26.0342
 11
85.873
 21
26.0488
  0
LINE
  8
0
 10
85.873
 20
26.0488
 11
85.8818
 21
26.0645
  0
LINE
  8
0
 10
85.8818
 20
26.0645
 11
85.8906
 21
26.0791
  0
LINE
  8
0
 10
85.8906
 20
26.0791
 11
85.9199
 21
26.123
  0
LINE
  8
0
 10
85.9199
 20
26.123
 11
85.9297
 21
26.1367
  0
LINE
  8
0
 10
85.9297
 20
26.1367
 11
85.9404
 21
26.1514
  0
LINE
  8
0
 10
85.9404
 20
26.1514
 11
85.9727
 21
26.1924
  0
LINE
  8
0
 10
85.9727
 20
26.1924
 11
85.9844
 21
26.2051
  0
LINE
  8
0
 10
85.9844
 20
26.2051
 11
85.9961
 21
26.2188
  0
LINE
  8
0
 10
85.9961
 20
26.2188
 11
86.0195
 21
26.2441
  0
LINE
  8
0
 10
86.0195
 20
26.2441
 11
86.0439
 21
26.2686
  0
LINE
  8
0
 10
86.0439
 20
26.2686
 11
86.0693
 21
26.292
  0
LINE
  8
0
 10
86.0693
 20
26.292
 11
86.083
 21
26.3037
  0
LINE
  8
0
 10
86.083
 20
26.3037
 11
86.0957
 21
26.3154
  0
LINE
  8
0
 10
86.0957
 20
26.3154
 11
86.1367
 21
26.3477
  0
LINE
  8
0
 10
86.1367
 20
26.3477
 11
86.1514
 21
26.3584
  0
LINE
  8
0
 10
86.1514
 20
26.3584
 11
86.165
 21
26.3682
  0
LINE
  8
0
 10
86.165
 20
26.3682
 11
86.209
 21
26.3975
  0
LINE
  8
0
 10
86.209
 20
26.3975
 11
86.2236
 21
26.4062
  0
LINE
  8
0
 10
86.2236
 20
26.4062
 11
86.2393
 21
26.415
  0
LINE
  8
0
 10
86.2393
 20
26.415
 11
86.2539
 21
26.4238
  0
LINE
  8
0
 10
86.2539
 20
26.4238
 11
86.2695
 21
26.4326
  0
LINE
  8
0
 10
86.2695
 20
26.4326
 11
86.3008
 21
26.4482
  0
LINE
  8
0
 10
86.3008
 20
26.4482
 11
86.3164
 21
26.4551
  0
LINE
  8
0
 10
86.3164
 20
26.4551
 11
86.332
 21
26.4629
  0
LINE
  8
0
 10
86.332
 20
26.4629
 11
86.3477
 21
26.4697
  0
LINE
  8
0
 10
86.3477
 20
26.4697
 11
86.3643
 21
26.4766
  0
LINE
  8
0
 10
86.3643
 20
26.4766
 11
86.3809
 21
26.4824
  0
LINE
  8
0
 10
86.3809
 20
26.4824
 11
86.3965
 21
26.4893
  0
LINE
  8
0
 10
86.3965
 20
26.4893
 11
86.4131
 21
26.4951
  0
LINE
  8
0
 10
86.4131
 20
26.4951
 11
86.4297
 21
26.5
  0
LINE
  8
0
 10
86.4297
 20
26.5
 11
86.4463
 21
26.5059
  0
LINE
  8
0
 10
86.4463
 20
26.5059
 11
86.4629
 21
26.5107
  0
LINE
  8
0
 10
86.4629
 20
26.5107
 11
86.4805
 21
26.5146
  0
LINE
  8
0
 10
86.4805
 20
26.5146
 11
86.4971
 21
26.5195
  0
LINE
  8
0
 10
86.4971
 20
26.5195
 11
86.5137
 21
26.5234
  0
LINE
  8
0
 10
86.5137
 20
26.5234
 11
86.5312
 21
26.5273
  0
LINE
  8
0
 10
86.5312
 20
26.5273
 11
86.5479
 21
26.5312
  0
LINE
  8
0
 10
86.5479
 20
26.5312
 11
86.5654
 21
26.5342
  0
LINE
  8
0
 10
86.5654
 20
26.5342
 11
86.582
 21
26.5371
  0
LINE
  8
0
 10
86.582
 20
26.5371
 11
86.5996
 21
26.5391
  0
LINE
  8
0
 10
86.5996
 20
26.5391
 11
86.6172
 21
26.542
  0
LINE
  8
0
 10
86.6172
 20
26.542
 11
86.6338
 21
26.5439
  0
LINE
  8
0
 10
86.6338
 20
26.5439
 11
86.6514
 21
26.5449
  0
LINE
  8
0
 10
86.6514
 20
26.5449
 11
86.6689
 21
26.5469
  0
LINE
  8
0
 10
86.6689
 20
26.5469
 11
86.7041
 21
26.5488
  0
LINE
  8
0
 10
86.7041
 20
26.5488
 11
92.2734
 21
26.5488
  0
LINE
  8
0
 10
92.2734
 20
26.5488
 11
92.3086
 21
26.5469
  0
LINE
  8
0
 10
92.3086
 20
26.5469
 11
92.3262
 21
26.5449
  0
LINE
  8
0
 10
92.3262
 20
26.5449
 11
92.3438
 21
26.5439
  0
LINE
  8
0
 10
92.3438
 20
26.5439
 11
92.3604
 21
26.542
  0
LINE
  8
0
 10
92.3604
 20
26.542
 11
92.3779
 21
26.5391
  0
LINE
  8
0
 10
92.3779
 20
26.5391
 11
92.3955
 21
26.5371
  0
LINE
  8
0
 10
92.3955
 20
26.5371
 11
92.4121
 21
26.5342
  0
LINE
  8
0
 10
92.4121
 20
26.5342
 11
92.4297
 21
26.5312
  0
LINE
  8
0
 10
92.4297
 20
26.5312
 11
92.4463
 21
26.5273
  0
LINE
  8
0
 10
92.4463
 20
26.5273
 11
92.4639
 21
26.5234
  0
LINE
  8
0
 10
92.4639
 20
26.5234
 11
92.4805
 21
26.5195
  0
LINE
  8
0
 10
92.4805
 20
26.5195
 11
92.498
 21
26.5146
  0
LINE
  8
0
 10
92.498
 20
26.5146
 11
92.5146
 21
26.5107
  0
LINE
  8
0
 10
92.5146
 20
26.5107
 11
92.5312
 21
26.5059
  0
LINE
  8
0
 10
92.5312
 20
26.5059
 11
92.5479
 21
26.5
  0
LINE
  8
0
 10
92.5479
 20
26.5
 11
92.5645
 21
26.4951
  0
LINE
  8
0
 10
92.5645
 20
26.4951
 11
92.5811
 21
26.4893
  0
LINE
  8
0
 10
92.5811
 20
26.4893
 11
92.5977
 21
26.4824
  0
LINE
  8
0
 10
92.5977
 20
26.4824
 11
92.6133
 21
26.4766
  0
LINE
  8
0
 10
92.6133
 20
26.4766
 11
92.6299
 21
26.4697
  0
LINE
  8
0
 10
92.6299
 20
26.4697
 11
92.6455
 21
26.4629
  0
LINE
  8
0
 10
92.6455
 20
26.4629
 11
92.6611
 21
26.4551
  0
LINE
  8
0
 10
92.6611
 20
26.4551
 11
92.6768
 21
26.4482
  0
LINE
  8
0
 10
92.6768
 20
26.4482
 11
92.708
 21
26.4326
  0
LINE
  8
0
 10
92.708
 20
26.4326
 11
92.7393
 21
26.415
  0
LINE
  8
0
 10
92.7393
 20
26.415
 11
92.7686
 21
26.3975
  0
LINE
  8
0
 10
92.7686
 20
26.3975
 11
92.8125
 21
26.3682
  0
LINE
  8
0
 10
92.8125
 20
26.3682
 11
92.8262
 21
26.3584
  0
LINE
  8
0
 10
92.8262
 20
26.3584
 11
92.8408
 21
26.3477
  0
LINE
  8
0
 10
92.8408
 20
26.3477
 11
92.8818
 21
26.3154
  0
LINE
  8
0
 10
92.8818
 20
26.3154
 11
92.8945
 21
26.3037
  0
LINE
  8
0
 10
92.8945
 20
26.3037
 11
92.9082
 21
26.292
  0
LINE
  8
0
 10
92.9082
 20
26.292
 11
92.9336
 21
26.2686
  0
LINE
  8
0
 10
92.9336
 20
26.2686
 11
92.958
 21
26.2441
  0
LINE
  8
0
 10
92.958
 20
26.2441
 11
92.9697
 21
26.2314
  0
LINE
  8
0
 10
92.9697
 20
26.2314
 11
92.9824
 21
26.2188
  0
LINE
  8
0
 10
92.9824
 20
26.2188
 11
92.9932
 21
26.2051
  0
LINE
  8
0
 10
92.9932
 20
26.2051
 11
93.0049
 21
26.1924
  0
LINE
  8
0
 10
93.0049
 20
26.1924
 11
93.0371
 21
26.1514
  0
LINE
  8
0
 10
93.0371
 20
26.1514
 11
93.0479
 21
26.1367
  0
LINE
  8
0
 10
93.0479
 20
26.1367
 11
93.0576
 21
26.123
  0
LINE
  8
0
 10
93.0576
 20
26.123
 11
93.0869
 21
26.0791
  0
LINE
  8
0
 10
93.0869
 20
26.0791
 11
93.0957
 21
26.0645
  0
LINE
  8
0
 10
93.0957
 20
26.0645
 11
93.1045
 21
26.0488
  0
LINE
  8
0
 10
93.1045
 20
26.0488
 11
93.1133
 21
26.0342
  0
LINE
  8
0
 10
93.1133
 20
26.0342
 11
93.1221
 21
26.0186
  0
LINE
  8
0
 10
93.1221
 20
26.0186
 11
93.1455
 21
25.9717
  0
LINE
  8
0
 10
93.1455
 20
25.9717
 11
93.1523
 21
25.9561
  0
LINE
  8
0
 10
93.1523
 20
25.9561
 11
93.1592
 21
25.9395
  0
LINE
  8
0
 10
93.1592
 20
25.9395
 11
93.166
 21
25.9238
  0
LINE
  8
0
 10
93.166
 20
25.9238
 11
93.1729
 21
25.9072
  0
LINE
  8
0
 10
93.1729
 20
25.9072
 11
93.1787
 21
25.8916
  0
LINE
  8
0
 10
93.1787
 20
25.8916
 11
93.1846
 21
25.875
  0
LINE
  8
0
 10
93.1846
 20
25.875
 11
93.1895
 21
25.8584
  0
LINE
  8
0
 10
93.1895
 20
25.8584
 11
93.1953
 21
25.8418
  0
LINE
  8
0
 10
93.1953
 20
25.8418
 11
93.2002
 21
25.8252
  0
LINE
  8
0
 10
93.2002
 20
25.8252
 11
93.2051
 21
25.8076
  0
LINE
  8
0
 10
93.2051
 20
25.8076
 11
93.2129
 21
25.7744
  0
LINE
  8
0
 10
93.2129
 20
25.7744
 11
93.2168
 21
25.7568
  0
LINE
  8
0
 10
93.2168
 20
25.7568
 11
93.2207
 21
25.7402
  0
LINE
  8
0
 10
93.2207
 20
25.7402
 11
93.2236
 21
25.7227
  0
LINE
  8
0
 10
93.2236
 20
25.7227
 11
93.2266
 21
25.7061
  0
LINE
  8
0
 10
93.2266
 20
25.7061
 11
93.2295
 21
25.6885
  0
LINE
  8
0
 10
93.2295
 20
25.6885
 11
93.2334
 21
25.6533
  0
LINE
  8
0
 10
93.2334
 20
25.6533
 11
93.2354
 21
25.6367
  0
LINE
  8
0
 10
93.2354
 20
25.6367
 11
93.2383
 21
25.584
  0
LINE
  8
0
 10
93.2383
 20
25.584
 11
93.2383
 21
25.5664
  0
LINE
  8
0
 10
93.2383
 20
25.5664
 11
93.2393
 21
25.5488
  0
LINE
  8
0
 10
93.2393
 20
25.5488
 11
93.2393
 21
17.5
  0
LINE
  8
0
 10
93.2393
 20
17.5
 11
93.2383
 21
17.4824
  0
LINE
  8
0
 10
93.2383
 20
17.4824
 11
93.2383
 21
17.4648
  0
LINE
  8
0
 10
93.2383
 20
17.4648
 11
93.2373
 21
17.4473
  0
LINE
  8
0
 10
93.2373
 20
17.4473
 11
93.2363
 21
17.4307
  0
LINE
  8
0
 10
93.2363
 20
17.4307
 11
93.2354
 21
17.4131
  0
LINE
  8
0
 10
93.2354
 20
17.4131
 11
93.2295
 21
17.3604
  0
LINE
  8
0
 10
93.2295
 20
17.3604
 11
93.2266
 21
17.3438
  0
LINE
  8
0
 10
93.2266
 20
17.3438
 11
93.2236
 21
17.3262
  0
LINE
  8
0
 10
93.2236
 20
17.3262
 11
93.2207
 21
17.3096
  0
LINE
  8
0
 10
93.2207
 20
17.3096
 11
93.2168
 21
17.292
  0
LINE
  8
0
 10
93.2168
 20
17.292
 11
93.2129
 21
17.2754
  0
LINE
  8
0
 10
93.2129
 20
17.2754
 11
93.209
 21
17.2578
  0
LINE
  8
0
 10
93.209
 20
17.2578
 11
93.2051
 21
17.2412
  0
LINE
  8
0
 10
93.2051
 20
17.2412
 11
93.1953
 21
17.208
  0
LINE
  8
0
 10
93.1953
 20
17.208
 11
93.1895
 21
17.1914
  0
LINE
  8
0
 10
93.1895
 20
17.1914
 11
93.1846
 21
17.1748
  0
LINE
  8
0
 10
93.1846
 20
17.1748
 11
93.1729
 21
17.1416
  0
LINE
  8
0
 10
93.1729
 20
17.1416
 11
93.166
 21
17.125
  0
LINE
  8
0
 10
93.166
 20
17.125
 11
93.1592
 21
17.1094
  0
LINE
  8
0
 10
93.1592
 20
17.1094
 11
93.1523
 21
17.0928
  0
LINE
  8
0
 10
93.1523
 20
17.0928
 11
93.1455
 21
17.0771
  0
LINE
  8
0
 10
93.1455
 20
17.0771
 11
93.1221
 21
17.0303
  0
LINE
  8
0
 10
93.1221
 20
17.0303
 11
93.1133
 21
17.0156
  0
LINE
  8
0
 10
93.1133
 20
17.0156
 11
93.1045
 21
17
  0
LINE
  8
0
 10
93.1045
 20
17
 11
93.0957
 21
16.9854
  0
LINE
  8
0
 10
93.0957
 20
16.9854
 11
93.0869
 21
16.9697
  0
LINE
  8
0
 10
93.0869
 20
16.9697
 11
93.0674
 21
16.9404
  0
LINE
  8
0
 10
93.0674
 20
16.9404
 11
93.0576
 21
16.9268
  0
LINE
  8
0
 10
93.0576
 20
16.9268
 11
93.0479
 21
16.9121
  0
LINE
  8
0
 10
93.0479
 20
16.9121
 11
93.0049
 21
16.8574
  0
LINE
  8
0
 10
93.0049
 20
16.8574
 11
92.9932
 21
16.8438
  0
LINE
  8
0
 10
92.9932
 20
16.8438
 11
92.9824
 21
16.8311
  0
LINE
  8
0
 10
92.9824
 20
16.8311
 11
92.9697
 21
16.8184
  0
LINE
  8
0
 10
92.9697
 20
16.8184
 11
92.9463
 21
16.793
  0
LINE
  8
0
 10
92.9463
 20
16.793
 11
92.9336
 21
16.7803
  0
LINE
  8
0
 10
92.9336
 20
16.7803
 11
92.9082
 21
16.7568
  0
LINE
  8
0
 10
92.9082
 20
16.7568
 11
92.8945
 21
16.7451
  0
LINE
  8
0
 10
92.8945
 20
16.7451
 11
92.8818
 21
16.7344
  0
LINE
  8
0
 10
92.8818
 20
16.7344
 11
92.8682
 21
16.7227
  0
LINE
  8
0
 10
92.8682
 20
16.7227
 11
92.8408
 21
16.7012
  0
LINE
  8
0
 10
92.8408
 20
16.7012
 11
92.8262
 21
16.6914
  0
LINE
  8
0
 10
92.8262
 20
16.6914
 11
92.8125
 21
16.6807
  0
LINE
  8
0
 10
92.8125
 20
16.6807
 11
92.7832
 21
16.6611
  0
LINE
  8
0
 10
92.7832
 20
16.6611
 11
92.7686
 21
16.6523
  0
LINE
  8
0
 10
92.7686
 20
16.6523
 11
92.7539
 21
16.6426
  0
LINE
  8
0
 10
92.7539
 20
16.6426
 11
92.7393
 21
16.6338
  0
LINE
  8
0
 10
92.7393
 20
16.6338
 11
92.7236
 21
16.625
  0
LINE
  8
0
 10
92.7236
 20
16.625
 11
92.6611
 21
16.5938
  0
LINE
  8
0
 10
92.6611
 20
16.5938
 11
92.6455
 21
16.5869
  0
LINE
  8
0
 10
92.6455
 20
16.5869
 11
92.6299
 21
16.5791
  0
LINE
  8
0
 10
92.6299
 20
16.5791
 11
92.6133
 21
16.5732
  0
LINE
  8
0
 10
92.6133
 20
16.5732
 11
92.5977
 21
16.5664
  0
LINE
  8
0
 10
92.5977
 20
16.5664
 11
92.5479
 21
16.5488
  0
LINE
  8
0
 10
92.5479
 20
16.5488
 11
92.498
 21
16.5342
  0
LINE
  8
0
 10
92.498
 20
16.5342
 11
92.4805
 21
16.5293
  0
LINE
  8
0
 10
92.4805
 20
16.5293
 11
92.4639
 21
16.5254
  0
LINE
  8
0
 10
92.4639
 20
16.5254
 11
92.4463
 21
16.5215
  0
LINE
  8
0
 10
92.4463
 20
16.5215
 11
92.4297
 21
16.5186
  0
LINE
  8
0
 10
92.4297
 20
16.5186
 11
92.4121
 21
16.5156
  0
LINE
  8
0
 10
92.4121
 20
16.5156
 11
92.3955
 21
16.5127
  0
LINE
  8
0
 10
92.3955
 20
16.5127
 11
92.3779
 21
16.5098
  0
LINE
  8
0
 10
92.3779
 20
16.5098
 11
92.3604
 21
16.5078
  0
LINE
  8
0
 10
92.3604
 20
16.5078
 11
92.3438
 21
16.5059
  0
LINE
  8
0
 10
92.3438
 20
16.5059
 11
92.3086
 21
16.502
  0
LINE
  8
0
 10
92.3086
 20
16.502
 11
92.291
 21
16.501
  0
LINE
  8
0
 10
92.291
 20
16.501
 11
92.2734
 21
16.501
  0
LINE
  8
0
 10
92.2734
 20
16.501
 11
92.2559
 21
16.5
  0
LINE
  8
0
 10
92.2559
 20
16.5
 11
86.7217
 21
16.5
  0
LINE
  8
0
 10
65.2041
 20
10.501
 11
65.1865
 21
10.501
  0
LINE
  8
0
 10
65.1865
 20
10.501
 11
65.1689
 21
10.502
  0
LINE
  8
0
 10
65.1689
 20
10.502
 11
65.1338
 21
10.5059
  0
LINE
  8
0
 10
65.1338
 20
10.5059
 11
65.1172
 21
10.5078
  0
LINE
  8
0
 10
65.1172
 20
10.5078
 11
65.0996
 21
10.5098
  0
LINE
  8
0
 10
65.0996
 20
10.5098
 11
65.082
 21
10.5127
  0
LINE
  8
0
 10
65.082
 20
10.5127
 11
65.0654
 21
10.5156
  0
LINE
  8
0
 10
65.0654
 20
10.5156
 11
65.0479
 21
10.5186
  0
LINE
  8
0
 10
65.0479
 20
10.5186
 11
65.0312
 21
10.5215
  0
LINE
  8
0
 10
65.0312
 20
10.5215
 11
65.0137
 21
10.5254
  0
LINE
  8
0
 10
65.0137
 20
10.5254
 11
64.9971
 21
10.5293
  0
LINE
  8
0
 10
64.9971
 20
10.5293
 11
64.9795
 21
10.5342
  0
LINE
  8
0
 10
64.9795
 20
10.5342
 11
64.9297
 21
10.5488
  0
LINE
  8
0
 10
64.9297
 20
10.5488
 11
64.8965
 21
10.5605
  0
LINE
  8
0
 10
64.8965
 20
10.5605
 11
64.8809
 21
10.5664
  0
LINE
  8
0
 10
64.8809
 20
10.5664
 11
64.8643
 21
10.5732
  0
LINE
  8
0
 10
64.8643
 20
10.5732
 11
64.8477
 21
10.5791
  0
LINE
  8
0
 10
64.8477
 20
10.5791
 11
64.832
 21
10.5869
  0
LINE
  8
0
 10
64.832
 20
10.5869
 11
64.8164
 21
10.5938
  0
LINE
  8
0
 10
64.8164
 20
10.5938
 11
64.7539
 21
10.625
  0
LINE
  8
0
 10
64.7539
 20
10.625
 11
64.7383
 21
10.6338
  0
LINE
  8
0
 10
64.7383
 20
10.6338
 11
64.7236
 21
10.6426
  0
LINE
  8
0
 10
64.7236
 20
10.6426
 11
64.709
 21
10.6523
  0
LINE
  8
0
 10
64.709
 20
10.6523
 11
64.6943
 21
10.6611
  0
LINE
  8
0
 10
64.6943
 20
10.6611
 11
64.665
 21
10.6807
  0
LINE
  8
0
 10
64.665
 20
10.6807
 11
64.6514
 21
10.6914
  0
LINE
  8
0
 10
64.6514
 20
10.6914
 11
64.6367
 21
10.7012
  0
LINE
  8
0
 10
64.6367
 20
10.7012
 11
64.6094
 21
10.7227
  0
LINE
  8
0
 10
64.6094
 20
10.7227
 11
64.5957
 21
10.7344
  0
LINE
  8
0
 10
64.5957
 20
10.7344
 11
64.583
 21
10.7451
  0
LINE
  8
0
 10
64.583
 20
10.7451
 11
64.5693
 21
10.7568
  0
LINE
  8
0
 10
64.5693
 20
10.7568
 11
64.5439
 21
10.7803
  0
LINE
  8
0
 10
64.5439
 20
10.7803
 11
64.5312
 21
10.793
  0
LINE
  8
0
 10
64.5312
 20
10.793
 11
64.4844
 21
10.8438
  0
LINE
  8
0
 10
64.4844
 20
10.8438
 11
64.4727
 21
10.8574
  0
LINE
  8
0
 10
64.4727
 20
10.8574
 11
64.4297
 21
10.9121
  0
LINE
  8
0
 10
64.4297
 20
10.9121
 11
64.4199
 21
10.9268
  0
LINE
  8
0
 10
64.4199
 20
10.9268
 11
64.4102
 21
10.9404
  0
LINE
  8
0
 10
64.4102
 20
10.9404
 11
64.3906
 21
10.9697
  0
LINE
  8
0
 10
64.3906
 20
10.9697
 11
64.3818
 21
10.9854
  0
LINE
  8
0
 10
64.3818
 20
10.9854
 11
64.373
 21
11
  0
LINE
  8
0
 10
64.373
 20
11
 11
64.3643
 21
11.0156
  0
LINE
  8
0
 10
64.3643
 20
11.0156
 11
64.3555
 21
11.0303
  0
LINE
  8
0
 10
64.3555
 20
11.0303
 11
64.332
 21
11.0771
  0
LINE
  8
0
 10
64.332
 20
11.0771
 11
64.3252
 21
11.0938
  0
LINE
  8
0
 10
64.3252
 20
11.0938
 11
64.3115
 21
11.125
  0
LINE
  8
0
 10
64.3115
 20
11.125
 11
64.3057
 21
11.1416
  0
LINE
  8
0
 10
64.3057
 20
11.1416
 11
64.2988
 21
11.1582
  0
LINE
  8
0
 10
64.2988
 20
11.1582
 11
64.293
 21
11.1748
  0
LINE
  8
0
 10
64.293
 20
11.1748
 11
64.2881
 21
11.1914
  0
LINE
  8
0
 10
64.2881
 20
11.1914
 11
64.2822
 21
11.208
  0
LINE
  8
0
 10
64.2822
 20
11.208
 11
64.2725
 21
11.2412
  0
LINE
  8
0
 10
64.2725
 20
11.2412
 11
64.2686
 21
11.2578
  0
LINE
  8
0
 10
64.2686
 20
11.2578
 11
64.2646
 21
11.2754
  0
LINE
  8
0
 10
64.2646
 20
11.2754
 11
64.2607
 21
11.292
  0
LINE
  8
0
 10
64.2607
 20
11.292
 11
64.2568
 21
11.3096
  0
LINE
  8
0
 10
64.2568
 20
11.3096
 11
64.2539
 21
11.3262
  0
LINE
  8
0
 10
64.2539
 20
11.3262
 11
64.251
 21
11.3438
  0
LINE
  8
0
 10
64.251
 20
11.3438
 11
64.248
 21
11.3604
  0
LINE
  8
0
 10
64.248
 20
11.3604
 11
64.2422
 21
11.4131
  0
LINE
  8
0
 10
64.2422
 20
11.4131
 11
64.2412
 21
11.4307
  0
LINE
  8
0
 10
64.2412
 20
11.4307
 11
64.2402
 21
11.4473
  0
LINE
  8
0
 10
64.2402
 20
11.4473
 11
64.2393
 21
11.4648
  0
LINE
  8
0
 10
64.2393
 20
11.4648
 11
64.2393
 21
11.4824
  0
LINE
  8
0
 10
64.2393
 20
11.4824
 11
64.2383
 21
11.5
  0
LINE
  8
0
 10
64.2383
 20
11.5
 11
64.2393
 21
25.5342
  0
LINE
  8
0
 10
64.2393
 20
25.5342
 11
64.2412
 21
25.5693
  0
LINE
  8
0
 10
64.2412
 20
25.5693
 11
64.2422
 21
25.5859
  0
LINE
  8
0
 10
64.2422
 20
25.5859
 11
64.248
 21
25.6387
  0
LINE
  8
0
 10
64.248
 20
25.6387
 11
64.251
 21
25.6553
  0
LINE
  8
0
 10
64.251
 20
25.6553
 11
64.2568
 21
25.6904
  0
LINE
  8
0
 10
64.2568
 20
25.6904
 11
64.2607
 21
25.707
  0
LINE
  8
0
 10
64.2607
 20
25.707
 11
64.2646
 21
25.7246
  0
LINE
  8
0
 10
64.2646
 20
25.7246
 11
64.2725
 21
25.7578
  0
LINE
  8
0
 10
64.2725
 20
25.7578
 11
64.2773
 21
25.7744
  0
LINE
  8
0
 10
64.2773
 20
25.7744
 11
64.2822
 21
25.792
  0
LINE
  8
0
 10
64.2822
 20
25.792
 11
64.2881
 21
25.8086
  0
LINE
  8
0
 10
64.2881
 20
25.8086
 11
64.293
 21
25.8252
  0
LINE
  8
0
 10
64.293
 20
25.8252
 11
64.2988
 21
25.8408
  0
LINE
  8
0
 10
64.2988
 20
25.8408
 11
64.3057
 21
25.8574
  0
LINE
  8
0
 10
64.3057
 20
25.8574
 11
64.3115
 21
25.874
  0
LINE
  8
0
 10
64.3115
 20
25.874
 11
64.3184
 21
25.8896
  0
LINE
  8
0
 10
64.3184
 20
25.8896
 11
64.3252
 21
25.9062
  0
LINE
  8
0
 10
64.3252
 20
25.9062
 11
64.332
 21
25.9219
  0
LINE
  8
0
 10
64.332
 20
25.9219
 11
64.3555
 21
25.9688
  0
LINE
  8
0
 10
64.3555
 20
25.9688
 11
64.3643
 21
25.9844
  0
LINE
  8
0
 10
64.3643
 20
25.9844
 11
64.373
 21
25.999
  0
LINE
  8
0
 10
64.373
 20
25.999
 11
64.3818
 21
26.0146
  0
LINE
  8
0
 10
64.3818
 20
26.0146
 11
64.3906
 21
26.0293
  0
LINE
  8
0
 10
64.3906
 20
26.0293
 11
64.4199
 21
26.0732
  0
LINE
  8
0
 10
64.4199
 20
26.0732
 11
64.4297
 21
26.0869
  0
LINE
  8
0
 10
64.4297
 20
26.0869
 11
64.4404
 21
26.1006
  0
LINE
  8
0
 10
64.4404
 20
26.1006
 11
64.4512
 21
26.1152
  0
LINE
  8
0
 10
64.4512
 20
26.1152
 11
64.4619
 21
26.1289
  0
LINE
  8
0
 10
64.4619
 20
26.1289
 11
64.4727
 21
26.1416
  0
LINE
  8
0
 10
64.4727
 20
26.1416
 11
64.4844
 21
26.1553
  0
LINE
  8
0
 10
64.4844
 20
26.1553
 11
64.4961
 21
26.168
  0
LINE
  8
0
 10
64.4961
 20
26.168
 11
64.5078
 21
26.1816
  0
LINE
  8
0
 10
64.5078
 20
26.1816
 11
64.5195
 21
26.1934
  0
LINE
  8
0
 10
64.5195
 20
26.1934
 11
64.5312
 21
26.2061
  0
LINE
  8
0
 10
64.5312
 20
26.2061
 11
64.5439
 21
26.2188
  0
LINE
  8
0
 10
64.5439
 20
26.2188
 11
64.5693
 21
26.2422
  0
LINE
  8
0
 10
64.5693
 20
26.2422
 11
64.583
 21
26.2539
  0
LINE
  8
0
 10
64.583
 20
26.2539
 11
64.5957
 21
26.2656
  0
LINE
  8
0
 10
64.5957
 20
26.2656
 11
64.6367
 21
26.2979
  0
LINE
  8
0
 10
64.6367
 20
26.2979
 11
64.6514
 21
26.3086
  0
LINE
  8
0
 10
64.6514
 20
26.3086
 11
64.665
 21
26.3184
  0
LINE
  8
0
 10
64.665
 20
26.3184
 11
64.709
 21
26.3477
  0
LINE
  8
0
 10
64.709
 20
26.3477
 11
64.7236
 21
26.3564
  0
LINE
  8
0
 10
64.7236
 20
26.3564
 11
64.7393
 21
26.3652
  0
LINE
  8
0
 10
64.7393
 20
26.3652
 11
64.7539
 21
26.374
  0
LINE
  8
0
 10
64.7539
 20
26.374
 11
64.7695
 21
26.3818
  0
LINE
  8
0
 10
64.7695
 20
26.3818
 11
64.7852
 21
26.3906
  0
LINE
  8
0
 10
64.7852
 20
26.3906
 11
64.8008
 21
26.3984
  0
LINE
  8
0
 10
64.8008
 20
26.3984
 11
64.8164
 21
26.4053
  0
LINE
  8
0
 10
64.8164
 20
26.4053
 11
64.832
 21
26.4131
  0
LINE
  8
0
 10
64.832
 20
26.4131
 11
64.8477
 21
26.4199
  0
LINE
  8
0
 10
64.8477
 20
26.4199
 11
64.8643
 21
26.4268
  0
LINE
  8
0
 10
64.8643
 20
26.4268
 11
64.8809
 21
26.4326
  0
LINE
  8
0
 10
64.8809
 20
26.4326
 11
64.8965
 21
26.4385
  0
LINE
  8
0
 10
64.8965
 20
26.4385
 11
64.9297
 21
26.4502
  0
LINE
  8
0
 10
64.9297
 20
26.4502
 11
64.9795
 21
26.4648
  0
LINE
  8
0
 10
64.9795
 20
26.4648
 11
64.9971
 21
26.4697
  0
LINE
  8
0
 10
64.9971
 20
26.4697
 11
65.0137
 21
26.4736
  0
LINE
  8
0
 10
65.0137
 20
26.4736
 11
65.0312
 21
26.4775
  0
LINE
  8
0
 10
65.0312
 20
26.4775
 11
65.0479
 21
26.4805
  0
LINE
  8
0
 10
65.0479
 20
26.4805
 11
65.0654
 21
26.4844
  0
LINE
  8
0
 10
65.0654
 20
26.4844
 11
65.082
 21
26.4873
  0
LINE
  8
0
 10
65.082
 20
26.4873
 11
65.0996
 21
26.4893
  0
LINE
  8
0
 10
65.0996
 20
26.4893
 11
65.1172
 21
26.4922
  0
LINE
  8
0
 10
65.1172
 20
26.4922
 11
65.1338
 21
26.4941
  0
LINE
  8
0
 10
65.1338
 20
26.4941
 11
65.1514
 21
26.4951
  0
LINE
  8
0
 10
65.1514
 20
26.4951
 11
65.1689
 21
26.4971
  0
LINE
  8
0
 10
65.1689
 20
26.4971
 11
65.2041
 21
26.499
  0
LINE
  8
0
 10
65.2041
 20
26.499
 11
76.7383
 21
26.501
  0
LINE
  8
0
 10
76.7383
 20
26.501
 11
76.7559
 21
26.5
  0
LINE
  8
0
 10
76.7559
 20
26.5
 11
76.7734
 21
26.5
  0
LINE
  8
0
 10
76.7734
 20
26.5
 11
76.8262
 21
26.4971
  0
LINE
  8
0
 10
76.8262
 20
26.4971
 11
76.8428
 21
26.4951
  0
LINE
  8
0
 10
76.8428
 20
26.4951
 11
76.8779
 21
26.4912
  0
LINE
  8
0
 10
76.8779
 20
26.4912
 11
76.8955
 21
26.4883
  0
LINE
  8
0
 10
76.8955
 20
26.4883
 11
76.9121
 21
26.4854
  0
LINE
  8
0
 10
76.9121
 20
26.4854
 11
76.9297
 21
26.4824
  0
LINE
  8
0
 10
76.9297
 20
26.4824
 11
76.9463
 21
26.4785
  0
LINE
  8
0
 10
76.9463
 20
26.4785
 11
76.9639
 21
26.4746
  0
LINE
  8
0
 10
76.9639
 20
26.4746
 11
76.9971
 21
26.4668
  0
LINE
  8
0
 10
76.9971
 20
26.4668
 11
77.0146
 21
26.4619
  0
LINE
  8
0
 10
77.0146
 20
26.4619
 11
77.0312
 21
26.457
  0
LINE
  8
0
 10
77.0312
 20
26.457
 11
77.0479
 21
26.4512
  0
LINE
  8
0
 10
77.0479
 20
26.4512
 11
77.0645
 21
26.4463
  0
LINE
  8
0
 10
77.0645
 20
26.4463
 11
77.0811
 21
26.4404
  0
LINE
  8
0
 10
77.0811
 20
26.4404
 11
77.0967
 21
26.4346
  0
LINE
  8
0
 10
77.0967
 20
26.4346
 11
77.1133
 21
26.4277
  0
LINE
  8
0
 10
77.1133
 20
26.4277
 11
77.1289
 21
26.4209
  0
LINE
  8
0
 10
77.1289
 20
26.4209
 11
77.1455
 21
26.4141
  0
LINE
  8
0
 10
77.1455
 20
26.4141
 11
77.1611
 21
26.4072
  0
LINE
  8
0
 10
77.1611
 20
26.4072
 11
77.208
 21
26.3838
  0
LINE
  8
0
 10
77.208
 20
26.3838
 11
77.2236
 21
26.375
  0
LINE
  8
0
 10
77.2236
 20
26.375
 11
77.2383
 21
26.3662
  0
LINE
  8
0
 10
77.2383
 20
26.3662
 11
77.2539
 21
26.3574
  0
LINE
  8
0
 10
77.2539
 20
26.3574
 11
77.2686
 21
26.3486
  0
LINE
  8
0
 10
77.2686
 20
26.3486
 11
77.3125
 21
26.3193
  0
LINE
  8
0
 10
77.3125
 20
26.3193
 11
77.3262
 21
26.3096
  0
LINE
  8
0
 10
77.3262
 20
26.3096
 11
77.3408
 21
26.2988
  0
LINE
  8
0
 10
77.3408
 20
26.2988
 11
77.3818
 21
26.2666
  0
LINE
  8
0
 10
77.3818
 20
26.2666
 11
77.3945
 21
26.2549
  0
LINE
  8
0
 10
77.3945
 20
26.2549
 11
77.4082
 21
26.2441
  0
LINE
  8
0
 10
77.4082
 20
26.2441
 11
77.4209
 21
26.2314
  0
LINE
  8
0
 10
77.4209
 20
26.2314
 11
77.4336
 21
26.2197
  0
LINE
  8
0
 10
77.4336
 20
26.2197
 11
77.458
 21
26.1953
  0
LINE
  8
0
 10
77.458
 20
26.1953
 11
77.4814
 21
26.1699
  0
LINE
  8
0
 10
77.4814
 20
26.1699
 11
77.4932
 21
26.1562
  0
LINE
  8
0
 10
77.4932
 20
26.1562
 11
77.5049
 21
26.1436
  0
LINE
  8
0
 10
77.5049
 20
26.1436
 11
77.5371
 21
26.1025
  0
LINE
  8
0
 10
77.5371
 20
26.1025
 11
77.5479
 21
26.0879
  0
LINE
  8
0
 10
77.5479
 20
26.0879
 11
77.5576
 21
26.0742
  0
LINE
  8
0
 10
77.5576
 20
26.0742
 11
77.5869
 21
26.0303
  0
LINE
  8
0
 10
77.5869
 20
26.0303
 11
77.6045
 21
26.001
  0
LINE
  8
0
 10
77.6045
 20
26.001
 11
77.6133
 21
25.9854
  0
LINE
  8
0
 10
77.6133
 20
25.9854
 11
77.6211
 21
25.9697
  0
LINE
  8
0
 10
77.6211
 20
25.9697
 11
77.6299
 21
25.9541
  0
LINE
  8
0
 10
77.6299
 20
25.9541
 11
77.6377
 21
25.9385
  0
LINE
  8
0
 10
77.6377
 20
25.9385
 11
77.6445
 21
25.9229
  0
LINE
  8
0
 10
77.6445
 20
25.9229
 11
77.6523
 21
25.9072
  0
LINE
  8
0
 10
77.6523
 20
25.9072
 11
77.6592
 21
25.8916
  0
LINE
  8
0
 10
77.6592
 20
25.8916
 11
77.666
 21
25.875
  0
LINE
  8
0
 10
77.666
 20
25.875
 11
77.6719
 21
25.8594
  0
LINE
  8
0
 10
77.6719
 20
25.8594
 11
77.6787
 21
25.8428
  0
LINE
  8
0
 10
77.6787
 20
25.8428
 11
77.6846
 21
25.8262
  0
LINE
  8
0
 10
77.6846
 20
25.8262
 11
77.6895
 21
25.8096
  0
LINE
  8
0
 10
77.6895
 20
25.8096
 11
77.6953
 21
25.793
  0
LINE
  8
0
 10
77.6953
 20
25.793
 11
77.7002
 21
25.7764
  0
LINE
  8
0
 10
77.7002
 20
25.7764
 11
77.7041
 21
25.7598
  0
LINE
  8
0
 10
77.7041
 20
25.7598
 11
77.709
 21
25.7422
  0
LINE
  8
0
 10
77.709
 20
25.7422
 11
77.7129
 21
25.7256
  0
LINE
  8
0
 10
77.7129
 20
25.7256
 11
77.7168
 21
25.708
  0
LINE
  8
0
 10
77.7168
 20
25.708
 11
77.7207
 21
25.6914
  0
LINE
  8
0
 10
77.7207
 20
25.6914
 11
77.7236
 21
25.6738
  0
LINE
  8
0
 10
77.7236
 20
25.6738
 11
77.7266
 21
25.6572
  0
LINE
  8
0
 10
77.7266
 20
25.6572
 11
77.7285
 21
25.6396
  0
LINE
  8
0
 10
77.7285
 20
25.6396
 11
77.7314
 21
25.6221
  0
LINE
  8
0
 10
77.7314
 20
25.6221
 11
77.7334
 21
25.6055
  0
LINE
  8
0
 10
77.7334
 20
25.6055
 11
77.7344
 21
25.5879
  0
LINE
  8
0
 10
77.7344
 20
25.5879
 11
77.7363
 21
25.5703
  0
LINE
  8
0
 10
77.7363
 20
25.5703
 11
77.7383
 21
25.5352
  0
LINE
  8
0
 10
77.7383
 20
25.5352
 11
77.7383
 21
11.4668
  0
LINE
  8
0
 10
77.7383
 20
11.4668
 11
77.7363
 21
11.4316
  0
LINE
  8
0
 10
77.7363
 20
11.4316
 11
77.7344
 21
11.4141
  0
LINE
  8
0
 10
77.7344
 20
11.4141
 11
77.7334
 21
11.3965
  0
LINE
  8
0
 10
77.7334
 20
11.3965
 11
77.7314
 21
11.3799
  0
LINE
  8
0
 10
77.7314
 20
11.3799
 11
77.7285
 21
11.3623
  0
LINE
  8
0
 10
77.7285
 20
11.3623
 11
77.7266
 21
11.3447
  0
LINE
  8
0
 10
77.7266
 20
11.3447
 11
77.7236
 21
11.3281
  0
LINE
  8
0
 10
77.7236
 20
11.3281
 11
77.7207
 21
11.3105
  0
LINE
  8
0
 10
77.7207
 20
11.3105
 11
77.7168
 21
11.2939
  0
LINE
  8
0
 10
77.7168
 20
11.2939
 11
77.7129
 21
11.2764
  0
LINE
  8
0
 10
77.7129
 20
11.2764
 11
77.709
 21
11.2598
  0
LINE
  8
0
 10
77.709
 20
11.2598
 11
77.7041
 21
11.2422
  0
LINE
  8
0
 10
77.7041
 20
11.2422
 11
77.7002
 21
11.2256
  0
LINE
  8
0
 10
77.7002
 20
11.2256
 11
77.6953
 21
11.209
  0
LINE
  8
0
 10
77.6953
 20
11.209
 11
77.6895
 21
11.1924
  0
LINE
  8
0
 10
77.6895
 20
11.1924
 11
77.6846
 21
11.1758
  0
LINE
  8
0
 10
77.6846
 20
11.1758
 11
77.6787
 21
11.1592
  0
LINE
  8
0
 10
77.6787
 20
11.1592
 11
77.6719
 21
11.1426
  0
LINE
  8
0
 10
77.6719
 20
11.1426
 11
77.666
 21
11.127
  0
LINE
  8
0
 10
77.666
 20
11.127
 11
77.6592
 21
11.1104
  0
LINE
  8
0
 10
77.6592
 20
11.1104
 11
77.6523
 21
11.0947
  0
LINE
  8
0
 10
77.6523
 20
11.0947
 11
77.6445
 21
11.0791
  0
LINE
  8
0
 10
77.6445
 20
11.0791
 11
77.6377
 21
11.0635
  0
LINE
  8
0
 10
77.6377
 20
11.0635
 11
77.6299
 21
11.0479
  0
LINE
  8
0
 10
77.6299
 20
11.0479
 11
77.6211
 21
11.0322
  0
LINE
  8
0
 10
77.6211
 20
11.0322
 11
77.6133
 21
11.0166
  0
LINE
  8
0
 10
77.6133
 20
11.0166
 11
77.6045
 21
11.001
  0
LINE
  8
0
 10
77.6045
 20
11.001
 11
77.5869
 21
10.9717
  0
LINE
  8
0
 10
77.5869
 20
10.9717
 11
77.5576
 21
10.9277
  0
LINE
  8
0
 10
77.5576
 20
10.9277
 11
77.5479
 21
10.9141
  0
LINE
  8
0
 10
77.5479
 20
10.9141
 11
77.5371
 21
10.8994
  0
LINE
  8
0
 10
77.5371
 20
10.8994
 11
77.5049
 21
10.8584
  0
LINE
  8
0
 10
77.5049
 20
10.8584
 11
77.4932
 21
10.8457
  0
LINE
  8
0
 10
77.4932
 20
10.8457
 11
77.4814
 21
10.832
  0
LINE
  8
0
 10
77.4814
 20
10.832
 11
77.458
 21
10.8066
  0
LINE
  8
0
 10
77.458
 20
10.8066
 11
77.4209
 21
10.7695
  0
LINE
  8
0
 10
77.4209
 20
10.7695
 11
77.4082
 21
10.7578
  0
LINE
  8
0
 10
77.4082
 20
10.7578
 11
77.3945
 21
10.7471
  0
LINE
  8
0
 10
77.3945
 20
10.7471
 11
77.3818
 21
10.7354
  0
LINE
  8
0
 10
77.3818
 20
10.7354
 11
77.3682
 21
10.7246
  0
LINE
  8
0
 10
77.3682
 20
10.7246
 11
77.3545
 21
10.7129
  0
LINE
  8
0
 10
77.3545
 20
10.7129
 11
77.3408
 21
10.7031
  0
LINE
  8
0
 10
77.3408
 20
10.7031
 11
77.3262
 21
10.6924
  0
LINE
  8
0
 10
77.3262
 20
10.6924
 11
77.3125
 21
10.6826
  0
LINE
  8
0
 10
77.3125
 20
10.6826
 11
77.2979
 21
10.6719
  0
LINE
  8
0
 10
77.2979
 20
10.6719
 11
77.2832
 21
10.6631
  0
LINE
  8
0
 10
77.2832
 20
10.6631
 11
77.2686
 21
10.6533
  0
LINE
  8
0
 10
77.2686
 20
10.6533
 11
77.2539
 21
10.6445
  0
LINE
  8
0
 10
77.2539
 20
10.6445
 11
77.2383
 21
10.6357
  0
LINE
  8
0
 10
77.2383
 20
10.6357
 11
77.2236
 21
10.627
  0
LINE
  8
0
 10
77.2236
 20
10.627
 11
77.208
 21
10.6182
  0
LINE
  8
0
 10
77.208
 20
10.6182
 11
77.1611
 21
10.5947
  0
LINE
  8
0
 10
77.1611
 20
10.5947
 11
77.1455
 21
10.5879
  0
LINE
  8
0
 10
77.1455
 20
10.5879
 11
77.1289
 21
10.5811
  0
LINE
  8
0
 10
77.1289
 20
10.5811
 11
77.1133
 21
10.5742
  0
LINE
  8
0
 10
77.1133
 20
10.5742
 11
77.0967
 21
10.5674
  0
LINE
  8
0
 10
77.0967
 20
10.5674
 11
77.0811
 21
10.5615
  0
LINE
  8
0
 10
77.0811
 20
10.5615
 11
77.0645
 21
10.5557
  0
LINE
  8
0
 10
77.0645
 20
10.5557
 11
77.0479
 21
10.5508
  0
LINE
  8
0
 10
77.0479
 20
10.5508
 11
77.0312
 21
10.5449
  0
LINE
  8
0
 10
77.0312
 20
10.5449
 11
77.0146
 21
10.54
  0
LINE
  8
0
 10
77.0146
 20
10.54
 11
76.9971
 21
10.5352
  0
LINE
  8
0
 10
76.9971
 20
10.5352
 11
76.9639
 21
10.5273
  0
LINE
  8
0
 10
76.9639
 20
10.5273
 11
76.9463
 21
10.5234
  0
LINE
  8
0
 10
76.9463
 20
10.5234
 11
76.9297
 21
10.5195
  0
LINE
  8
0
 10
76.9297
 20
10.5195
 11
76.9121
 21
10.5166
  0
LINE
  8
0
 10
76.9121
 20
10.5166
 11
76.8955
 21
10.5137
  0
LINE
  8
0
 10
76.8955
 20
10.5137
 11
76.8779
 21
10.5107
  0
LINE
  8
0
 10
76.8779
 20
10.5107
 11
76.8428
 21
10.5068
  0
LINE
  8
0
 10
76.8428
 20
10.5068
 11
76.8262
 21
10.5049
  0
LINE
  8
0
 10
76.8262
 20
10.5049
 11
76.7734
 21
10.502
  0
LINE
  8
0
 10
76.7734
 20
10.502
 11
76.7559
 21
10.502
  0
LINE
  8
0
 10
76.7559
 20
10.502
 11
76.7383
 21
10.501
  0
LINE
  8
0
 10
76.7383
 20
10.501
 11
65.2217
 21
10.5
  0
LINE
  8
0
 10
65.2217
 20
10.5
 11
65.2041
 21
10.501
  0
LINE
  8
0
 10
47.2041
 20
10.501
 11
47.1865
 21
10.501
  0
LINE
  8
0
 10
47.1865
 20
10.501
 11
47.1689
 21
10.502
  0
LINE
  8
0
 10
47.1689
 20
10.502
 11
47.1338
 21
10.5059
  0
LINE
  8
0
 10
47.1338
 20
10.5059
 11
47.1172
 21
10.5078
  0
LINE
  8
0
 10
47.1172
 20
10.5078
 11
47.0996
 21
10.5098
  0
LINE
  8
0
 10
47.0996
 20
10.5098
 11
47.082
 21
10.5127
  0
LINE
  8
0
 10
47.082
 20
10.5127
 11
47.0654
 21
10.5156
  0
LINE
  8
0
 10
47.0654
 20
10.5156
 11
47.0479
 21
10.5186
  0
LINE
  8
0
 10
47.0479
 20
10.5186
 11
47.0312
 21
10.5215
  0
LINE
  8
0
 10
47.0312
 20
10.5215
 11
47.0137
 21
10.5254
  0
LINE
  8
0
 10
47.0137
 20
10.5254
 11
46.9971
 21
10.5293
  0
LINE
  8
0
 10
46.9971
 20
10.5293
 11
46.9795
 21
10.5342
  0
LINE
  8
0
 10
46.9795
 20
10.5342
 11
46.9297
 21
10.5488
  0
LINE
  8
0
 10
46.9297
 20
10.5488
 11
46.8965
 21
10.5605
  0
LINE
  8
0
 10
46.8965
 20
10.5605
 11
46.8809
 21
10.5664
  0
LINE
  8
0
 10
46.8809
 20
10.5664
 11
46.8643
 21
10.5732
  0
LINE
  8
0
 10
46.8643
 20
10.5732
 11
46.8477
 21
10.5791
  0
LINE
  8
0
 10
46.8477
 20
10.5791
 11
46.832
 21
10.5869
  0
LINE
  8
0
 10
46.832
 20
10.5869
 11
46.8164
 21
10.5938
  0
LINE
  8
0
 10
46.8164
 20
10.5938
 11
46.7539
 21
10.625
  0
LINE
  8
0
 10
46.7539
 20
10.625
 11
46.7383
 21
10.6338
  0
LINE
  8
0
 10
46.7383
 20
10.6338
 11
46.7236
 21
10.6426
  0
LINE
  8
0
 10
46.7236
 20
10.6426
 11
46.709
 21
10.6523
  0
LINE
  8
0
 10
46.709
 20
10.6523
 11
46.6943
 21
10.6611
  0
LINE
  8
0
 10
46.6943
 20
10.6611
 11
46.665
 21
10.6807
  0
LINE
  8
0
 10
46.665
 20
10.6807
 11
46.6514
 21
10.6914
  0
LINE
  8
0
 10
46.6514
 20
10.6914
 11
46.6367
 21
10.7012
  0
LINE
  8
0
 10
46.6367
 20
10.7012
 11
46.6094
 21
10.7227
  0
LINE
  8
0
 10
46.6094
 20
10.7227
 11
46.5957
 21
10.7344
  0
LINE
  8
0
 10
46.5957
 20
10.7344
 11
46.583
 21
10.7451
  0
LINE
  8
0
 10
46.583
 20
10.7451
 11
46.5693
 21
10.7568
  0
LINE
  8
0
 10
46.5693
 20
10.7568
 11
46.5439
 21
10.7803
  0
LINE
  8
0
 10
46.5439
 20
10.7803
 11
46.5312
 21
10.793
  0
LINE
  8
0
 10
46.5312
 20
10.793
 11
46.4844
 21
10.8438
  0
LINE
  8
0
 10
46.4844
 20
10.8438
 11
46.4727
 21
10.8574
  0
LINE
  8
0
 10
46.4727
 20
10.8574
 11
46.4297
 21
10.9121
  0
LINE
  8
0
 10
46.4297
 20
10.9121
 11
46.4199
 21
10.9268
  0
LINE
  8
0
 10
46.4199
 20
10.9268
 11
46.4102
 21
10.9404
  0
LINE
  8
0
 10
46.4102
 20
10.9404
 11
46.3906
 21
10.9697
  0
LINE
  8
0
 10
46.3906
 20
10.9697
 11
46.3818
 21
10.9854
  0
LINE
  8
0
 10
46.3818
 20
10.9854
 11
46.373
 21
11
  0
LINE
  8
0
 10
46.373
 20
11
 11
46.3643
 21
11.0156
  0
LINE
  8
0
 10
46.3643
 20
11.0156
 11
46.3555
 21
11.0303
  0
LINE
  8
0
 10
46.3555
 20
11.0303
 11
46.332
 21
11.0771
  0
LINE
  8
0
 10
46.332
 20
11.0771
 11
46.3252
 21
11.0938
  0
LINE
  8
0
 10
46.3252
 20
11.0938
 11
46.3115
 21
11.125
  0
LINE
  8
0
 10
46.3115
 20
11.125
 11
46.3057
 21
11.1416
  0
LINE
  8
0
 10
46.3057
 20
11.1416
 11
46.2988
 21
11.1582
  0
LINE
  8
0
 10
46.2988
 20
11.1582
 11
46.293
 21
11.1748
  0
LINE
  8
0
 10
46.293
 20
11.1748
 11
46.2881
 21
11.1914
  0
LINE
  8
0
 10
46.2881
 20
11.1914
 11
46.2822
 21
11.208
  0
LINE
  8
0
 10
46.2822
 20
11.208
 11
46.2725
 21
11.2412
  0
LINE
  8
0
 10
46.2725
 20
11.2412
 11
46.2686
 21
11.2578
  0
LINE
  8
0
 10
46.2686
 20
11.2578
 11
46.2646
 21
11.2754
  0
LINE
  8
0
 10
46.2646
 20
11.2754
 11
46.2607
 21
11.292
  0
LINE
  8
0
 10
46.2607
 20
11.292
 11
46.2568
 21
11.3096
  0
LINE
  8
0
 10
46.2568
 20
11.3096
 11
46.2539
 21
11.3262
  0
LINE
  8
0
 10
46.2539
 20
11.3262
 11
46.251
 21
11.3438
  0
LINE
  8
0
 10
46.251
 20
11.3438
 11
46.248
 21
11.3604
  0
LINE
  8
0
 10
46.248
 20
11.3604
 11
46.2422
 21
11.4131
  0
LINE
  8
0
 10
46.2422
 20
11.4131
 11
46.2412
 21
11.4307
  0
LINE
  8
0
 10
46.2412
 20
11.4307
 11
46.2402
 21
11.4473
  0
LINE
  8
0
 10
46.2402
 20
11.4473
 11
46.2393
 21
11.4648
  0
LINE
  8
0
 10
46.2393
 20
11.4648
 11
46.2393
 21
11.4824
  0
LINE
  8
0
 10
46.2393
 20
11.4824
 11
46.2383
 21
11.5
  0
LINE
  8
0
 10
46.2383
 20
11.5
 11
46.2393
 21
25.5342
  0
LINE
  8
0
 10
46.2393
 20
25.5342
 11
46.2412
 21
25.5693
  0
LINE
  8
0
 10
46.2412
 20
25.5693
 11
46.2422
 21
25.5859
  0
LINE
  8
0
 10
46.2422
 20
25.5859
 11
46.248
 21
25.6387
  0
LINE
  8
0
 10
46.248
 20
25.6387
 11
46.251
 21
25.6553
  0
LINE
  8
0
 10
46.251
 20
25.6553
 11
46.2568
 21
25.6904
  0
LINE
  8
0
 10
46.2568
 20
25.6904
 11
46.2607
 21
25.707
  0
LINE
  8
0
 10
46.2607
 20
25.707
 11
46.2646
 21
25.7246
  0
LINE
  8
0
 10
46.2646
 20
25.7246
 11
46.2725
 21
25.7578
  0
LINE
  8
0
 10
46.2725
 20
25.7578
 11
46.2773
 21
25.7744
  0
LINE
  8
0
 10
46.2773
 20
25.7744
 11
46.2822
 21
25.792
  0
LINE
  8
0
 10
46.2822
 20
25.792
 11
46.2881
 21
25.8086
  0
LINE
  8
0
 10
46.2881
 20
25.8086
 11
46.293
 21
25.8252
  0
LINE
  8
0
 10
46.293
 20
25.8252
 11
46.2988
 21
25.8408
  0
LINE
  8
0
 10
46.2988
 20
25.8408
 11
46.3057
 21
25.8574
  0
LINE
  8
0
 10
46.3057
 20
25.8574
 11
46.3115
 21
25.874
  0
LINE
  8
0
 10
46.3115
 20
25.874
 11
46.3184
 21
25.8896
  0
LINE
  8
0
 10
46.3184
 20
25.8896
 11
46.3252
 21
25.9062
  0
LINE
  8
0
 10
46.3252
 20
25.9062
 11
46.332
 21
25.9219
  0
LINE
  8
0
 10
46.332
 20
25.9219
 11
46.3555
 21
25.9688
  0
LINE
  8
0
 10
46.3555
 20
25.9688
 11
46.3643
 21
25.9844
  0
LINE
  8
0
 10
46.3643
 20
25.9844
 11
46.373
 21
25.999
  0
LINE
  8
0
 10
46.373
 20
25.999
 11
46.3818
 21
26.0146
  0
LINE
  8
0
 10
46.3818
 20
26.0146
 11
46.3906
 21
26.0293
  0
LINE
  8
0
 10
46.3906
 20
26.0293
 11
46.4199
 21
26.0732
  0
LINE
  8
0
 10
46.4199
 20
26.0732
 11
46.4297
 21
26.0869
  0
LINE
  8
0
 10
46.4297
 20
26.0869
 11
46.4404
 21
26.1006
  0
LINE
  8
0
 10
46.4404
 20
26.1006
 11
46.4512
 21
26.1152
  0
LINE
  8
0
 10
46.4512
 20
26.1152
 11
46.4619
 21
26.1289
  0
LINE
  8
0
 10
46.4619
 20
26.1289
 11
46.4727
 21
26.1416
  0
LINE
  8
0
 10
46.4727
 20
26.1416
 11
46.4844
 21
26.1553
  0
LINE
  8
0
 10
46.4844
 20
26.1553
 11
46.4961
 21
26.168
  0
LINE
  8
0
 10
46.4961
 20
26.168
 11
46.5078
 21
26.1816
  0
LINE
  8
0
 10
46.5078
 20
26.1816
 11
46.5195
 21
26.1934
  0
LINE
  8
0
 10
46.5195
 20
26.1934
 11
46.5312
 21
26.2061
  0
LINE
  8
0
 10
46.5312
 20
26.2061
 11
46.5439
 21
26.2188
  0
LINE
  8
0
 10
46.5439
 20
26.2188
 11
46.5693
 21
26.2422
  0
LINE
  8
0
 10
46.5693
 20
26.2422
 11
46.583
 21
26.2539
  0
LINE
  8
0
 10
46.583
 20
26.2539
 11
46.5957
 21
26.2656
  0
LINE
  8
0
 10
46.5957
 20
26.2656
 11
46.6367
 21
26.2979
  0
LINE
  8
0
 10
46.6367
 20
26.2979
 11
46.6514
 21
26.3086
  0
LINE
  8
0
 10
46.6514
 20
26.3086
 11
46.665
 21
26.3184
  0
LINE
  8
0
 10
46.665
 20
26.3184
 11
46.709
 21
26.3477
  0
LINE
  8
0
 10
46.709
 20
26.3477
 11
46.7236
 21
26.3564
  0
LINE
  8
0
 10
46.7236
 20
26.3564
 11
46.7393
 21
26.3652
  0
LINE
  8
0
 10
46.7393
 20
26.3652
 11
46.7539
 21
26.374
  0
LINE
  8
0
 10
46.7539
 20
26.374
 11
46.7695
 21
26.3818
  0
LINE
  8
0
 10
46.7695
 20
26.3818
 11
46.7852
 21
26.3906
  0
LINE
  8
0
 10
46.7852
 20
26.3906
 11
46.8008
 21
26.3984
  0
LINE
  8
0
 10
46.8008
 20
26.3984
 11
46.8164
 21
26.4053
  0
LINE
  8
0
 10
46.8164
 20
26.4053
 11
46.832
 21
26.4131
  0
LINE
  8
0
 10
46.832
 20
26.4131
 11
46.8477
 21
26.4199
  0
LINE
  8
0
 10
46.8477
 20
26.4199
 11
46.8643
 21
26.4268
  0
LINE
  8
0
 10
46.8643
 20
26.4268
 11
46.8809
 21
26.4326
  0
LINE
  8
0
 10
46.8809
 20
26.4326
 11
46.8965
 21
26.4385
  0
LINE
  8
0
 10
46.8965
 20
26.4385
 11
46.9297
 21
26.4502
  0
LINE
  8
0
 10
46.9297
 20
26.4502
 11
46.9795
 21
26.4648
  0
LINE
  8
0
 10
46.9795
 20
26.4648
 11
46.9971
 21
26.4697
  0
LINE
  8
0
 10
46.9971
 20
26.4697
 11
47.0137
 21
26.4736
  0
LINE
  8
0
 10
47.0137
 20
26.4736
 11
47.0312
 21
26.4775
  0
LINE
  8
0
 10
47.0312
 20
26.4775
 11
47.0479
 21
26.4805
  0
LINE
  8
0
 10
47.0479
 20
26.4805
 11
47.0654
 21
26.4844
  0
LINE
  8
0
 10
47.0654
 20
26.4844
 11
47.082
 21
26.4873
  0
LINE
  8
0
 10
47.082
 20
26.4873
 11
47.0996
 21
26.4893
  0
LINE
  8
0
 10
47.0996
 20
26.4893
 11
47.1172
 21
26.4922
  0
LINE
  8
0
 10
47.1172
 20
26.4922
 11
47.1338
 21
26.4941
  0
LINE
  8
0
 10
47.1338
 20
26.4941
 11
47.1514
 21
26.4951
  0
LINE
  8
0
 10
47.1514
 20
26.4951
 11
47.1689
 21
26.4971
  0
LINE
  8
0
 10
47.1689
 20
26.4971
 11
47.2041
 21
26.499
  0
LINE
  8
0
 10
47.2041
 20
26.499
 11
58.7383
 21
26.501
  0
LINE
  8
0
 10
58.7383
 20
26.501
 11
58.7559
 21
26.5
  0
LINE
  8
0
 10
58.7559
 20
26.5
 11
58.7734
 21
26.5
  0
LINE
  8
0
 10
58.7734
 20
26.5
 11
58.8262
 21
26.4971
  0
LINE
  8
0
 10
58.8262
 20
26.4971
 11
58.8428
 21
26.4951
  0
LINE
  8
0
 10
58.8428
 20
26.4951
 11
58.8779
 21
26.4912
  0
LINE
  8
0
 10
58.8779
 20
26.4912
 11
58.8955
 21
26.4883
  0
LINE
  8
0
 10
58.8955
 20
26.4883
 11
58.9121
 21
26.4854
  0
LINE
  8
0
 10
58.9121
 20
26.4854
 11
58.9297
 21
26.4824
  0
LINE
  8
0
 10
58.9297
 20
26.4824
 11
58.9463
 21
26.4785
  0
LINE
  8
0
 10
58.9463
 20
26.4785
 11
58.9639
 21
26.4746
  0
LINE
  8
0
 10
58.9639
 20
26.4746
 11
58.9971
 21
26.4668
  0
LINE
  8
0
 10
58.9971
 20
26.4668
 11
59.0146
 21
26.4619
  0
LINE
  8
0
 10
59.0146
 20
26.4619
 11
59.0312
 21
26.457
  0
LINE
  8
0
 10
59.0312
 20
26.457
 11
59.0479
 21
26.4512
  0
LINE
  8
0
 10
59.0479
 20
26.4512
 11
59.0645
 21
26.4463
  0
LINE
  8
0
 10
59.0645
 20
26.4463
 11
59.0811
 21
26.4404
  0
LINE
  8
0
 10
59.0811
 20
26.4404
 11
59.0967
 21
26.4346
  0
LINE
  8
0
 10
59.0967
 20
26.4346
 11
59.1133
 21
26.4277
  0
LINE
  8
0
 10
59.1133
 20
26.4277
 11
59.1289
 21
26.4209
  0
LINE
  8
0
 10
59.1289
 20
26.4209
 11
59.1455
 21
26.4141
  0
LINE
  8
0
 10
59.1455
 20
26.4141
 11
59.1611
 21
26.4072
  0
LINE
  8
0
 10
59.1611
 20
26.4072
 11
59.208
 21
26.3838
  0
LINE
  8
0
 10
59.208
 20
26.3838
 11
59.2236
 21
26.375
  0
LINE
  8
0
 10
59.2236
 20
26.375
 11
59.2383
 21
26.3662
  0
LINE
  8
0
 10
59.2383
 20
26.3662
 11
59.2539
 21
26.3574
  0
LINE
  8
0
 10
59.2539
 20
26.3574
 11
59.2686
 21
26.3486
  0
LINE
  8
0
 10
59.2686
 20
26.3486
 11
59.3125
 21
26.3193
  0
LINE
  8
0
 10
59.3125
 20
26.3193
 11
59.3262
 21
26.3096
  0
LINE
  8
0
 10
59.3262
 20
26.3096
 11
59.3408
 21
26.2988
  0
LINE
  8
0
 10
59.3408
 20
26.2988
 11
59.3818
 21
26.2666
  0
LINE
  8
0
 10
59.3818
 20
26.2666
 11
59.3945
 21
26.2549
  0
LINE
  8
0
 10
59.3945
 20
26.2549
 11
59.4082
 21
26.2441
  0
LINE
  8
0
 10
59.4082
 20
26.2441
 11
59.4209
 21
26.2314
  0
LINE
  8
0
 10
59.4209
 20
26.2314
 11
59.4336
 21
26.2197
  0
LINE
  8
0
 10
59.4336
 20
26.2197
 11
59.458
 21
26.1953
  0
LINE
  8
0
 10
59.458
 20
26.1953
 11
59.4814
 21
26.1699
  0
LINE
  8
0
 10
59.4814
 20
26.1699
 11
59.4932
 21
26.1562
  0
LINE
  8
0
 10
59.4932
 20
26.1562
 11
59.5049
 21
26.1436
  0
LINE
  8
0
 10
59.5049
 20
26.1436
 11
59.5371
 21
26.1025
  0
LINE
  8
0
 10
59.5371
 20
26.1025
 11
59.5479
 21
26.0879
  0
LINE
  8
0
 10
59.5479
 20
26.0879
 11
59.5576
 21
26.0742
  0
LINE
  8
0
 10
59.5576
 20
26.0742
 11
59.5869
 21
26.0303
  0
LINE
  8
0
 10
59.5869
 20
26.0303
 11
59.6045
 21
26.001
  0
LINE
  8
0
 10
59.6045
 20
26.001
 11
59.6133
 21
25.9854
  0
LINE
  8
0
 10
59.6133
 20
25.9854
 11
59.6211
 21
25.9697
  0
LINE
  8
0
 10
59.6211
 20
25.9697
 11
59.6299
 21
25.9541
  0
LINE
  8
0
 10
59.6299
 20
25.9541
 11
59.6377
 21
25.9385
  0
LINE
  8
0
 10
59.6377
 20
25.9385
 11
59.6445
 21
25.9229
  0
LINE
  8
0
 10
59.6445
 20
25.9229
 11
59.6523
 21
25.9072
  0
LINE
  8
0
 10
59.6523
 20
25.9072
 11
59.6592
 21
25.8916
  0
LINE
  8
0
 10
59.6592
 20
25.8916
 11
59.666
 21
25.875
  0
LINE
  8
0
 10
59.666
 20
25.875
 11
59.6719
 21
25.8594
  0
LINE
  8
0
 10
59.6719
 20
25.8594
 11
59.6787
 21
25.8428
  0
LINE
  8
0
 10
59.6787
 20
25.8428
 11
59.6846
 21
25.8262
  0
LINE
  8
0
 10
59.6846
 20
25.8262
 11
59.6895
 21
25.8096
  0
LINE
  8
0
 10
59.6895
 20
25.8096
 11
59.6953
 21
25.793
  0
LINE
  8
0
 10
59.6953
 20
25.793
 11
59.7002
 21
25.7764
  0
LINE
  8
0
 10
59.7002
 20
25.7764
 11
59.7041
 21
25.7598
  0
LINE
  8
0
 10
59.7041
 20
25.7598
 11
59.709
 21
25.7422
  0
LINE
  8
0
 10
59.709
 20
25.7422
 11
59.7129
 21
25.7256
  0
LINE
  8
0
 10
59.7129
 20
25.7256
 11
59.7168
 21
25.708
  0
LINE
  8
0
 10
59.7168
 20
25.708
 11
59.7207
 21
25.6914
  0
LINE
  8
0
 10
59.7207
 20
25.6914
 11
59.7236
 21
25.6738
  0
LINE
  8
0
 10
59.7236
 20
25.6738
 11
59.7266
 21
25.6572
  0
LINE
  8
0
 10
59.7266
 20
25.6572
 11
59.7285
 21
25.6396
  0
LINE
  8
0
 10
59.7285
 20
25.6396
 11
59.7314
 21
25.6221
  0
LINE
  8
0
 10
59.7314
 20
25.6221
 11
59.7334
 21
25.6055
  0
LINE
  8
0
 10
59.7334
 20
25.6055
 11
59.7344
 21
25.5879
  0
LINE
  8
0
 10
59.7344
 20
25.5879
 11
59.7363
 21
25.5703
  0
LINE
  8
0
 10
59.7363
 20
25.5703
 11
59.7383
 21
25.5352
  0
LINE
  8
0
 10
59.7383
 20
25.5352
 11
59.7383
 21
11.4668
  0
LINE
  8
0
 10
59.7383
 20
11.4668
 11
59.7363
 21
11.4316
  0
LINE
  8
0
 10
59.7363
 20
11.4316
 11
59.7344
 21
11.4141
  0
LINE
  8
0
 10
59.7344
 20
11.4141
 11
59.7334
 21
11.3965
  0
LINE
  8
0
 10
59.7334
 20
11.3965
 11
59.7314
 21
11.3799
  0
LINE
  8
0
 10
59.7314
 20
11.3799
 11
59.7285
 21
11.3623
  0
LINE
  8
0
 10
59.7285
 20
11.3623
 11
59.7266
 21
11.3447
  0
LINE
  8
0
 10
59.7266
 20
11.3447
 11
59.7236
 21
11.3281
  0
LINE
  8
0
 10
59.7236
 20
11.3281
 11
59.7207
 21
11.3105
  0
LINE
  8
0
 10
59.7207
 20
11.3105
 11
59.7168
 21
11.2939
  0
LINE
  8
0
 10
59.7168
 20
11.2939
 11
59.7129
 21
11.2764
  0
LINE
  8
0
 10
59.7129
 20
11.2764
 11
59.709
 21
11.2598
  0
LINE
  8
0
 10
59.709
 20
11.2598
 11
59.7041
 21
11.2422
  0
LINE
  8
0
 10
59.7041
 20
11.2422
 11
59.7002
 21
11.2256
  0
LINE
  8
0
 10
59.7002
 20
11.2256
 11
59.6953
 21
11.209
  0
LINE
  8
0
 10
59.6953
 20
11.209
 11
59.6895
 21
11.1924
  0
LINE
  8
0
 10
59.6895
 20
11.1924
 11
59.6846
 21
11.1758
  0
LINE
  8
0
 10
59.6846
 20
11.1758
 11
59.6787
 21
11.1592
  0
LINE
  8
0
 10
59.6787
 20
11.1592
 11
59.6719
 21
11.1426
  0
LINE
  8
0
 10
59.6719
 20
11.1426
 11
59.666
 21
11.127
  0
LINE
  8
0
 10
59.666
 20
11.127
 11
59.6592
 21
11.1104
  0
LINE
  8
0
 10
59.6592
 20
11.1104
 11
59.6523
 21
11.0947
  0
LINE
  8
0
 10
59.6523
 20
11.0947
 11
59.6445
 21
11.0791
  0
LINE
  8
0
 10
59.6445
 20
11.0791
 11
59.6377
 21
11.0635
  0
LINE
  8
0
 10
59.6377
 20
11.0635
 11
59.6299
 21
11.0479
  0
LINE
  8
0
 10
59.6299
 20
11.0479
 11
59.6211
 21
11.0322
  0
LINE
  8
0
 10
59.6211
 20
11.0322
 11
59.6133
 21
11.0166
  0
LINE
  8
0
 10
59.6133
 20
11.0166
 11
59.6045
 21
11.001
  0
LINE
  8
0
 10
59.6045
 20
11.001
 11
59.5869
 21
10.9717
  0
LINE
  8
0
 10
59.5869
 20
10.9717
 11
59.5576
 21
10.9277
  0
LINE
  8
0
 10
59.5576
 20
10.9277
 11
59.5479
 21
10.9141
  0
LINE
  8
0
 10
59.5479
 20
10.9141
 11
59.5371
 21
10.8994
  0
LINE
  8
0
 10
59.5371
 20
10.8994
 11
59.5049
 21
10.8584
  0
LINE
  8
0
 10
59.5049
 20
10.8584
 11
59.4932
 21
10.8457
  0
LINE
  8
0
 10
59.4932
 20
10.8457
 11
59.4814
 21
10.832
  0
LINE
  8
0
 10
59.4814
 20
10.832
 11
59.458
 21
10.8066
  0
LINE
  8
0
 10
59.458
 20
10.8066
 11
59.4209
 21
10.7695
  0
LINE
  8
0
 10
59.4209
 20
10.7695
 11
59.4082
 21
10.7578
  0
LINE
  8
0
 10
59.4082
 20
10.7578
 11
59.3945
 21
10.7471
  0
LINE
  8
0
 10
59.3945
 20
10.7471
 11
59.3818
 21
10.7354
  0
LINE
  8
0
 10
59.3818
 20
10.7354
 11
59.3682
 21
10.7246
  0
LINE
  8
0
 10
59.3682
 20
10.7246
 11
59.3545
 21
10.7129
  0
LINE
  8
0
 10
59.3545
 20
10.7129
 11
59.3408
 21
10.7031
  0
LINE
  8
0
 10
59.3408
 20
10.7031
 11
59.3262
 21
10.6924
  0
LINE
  8
0
 10
59.3262
 20
10.6924
 11
59.3125
 21
10.6826
  0
LINE
  8
0
 10
59.3125
 20
10.6826
 11
59.2979
 21
10.6719
  0
LINE
  8
0
 10
59.2979
 20
10.6719
 11
59.2832
 21
10.6631
  0
LINE
  8
0
 10
59.2832
 20
10.6631
 11
59.2686
 21
10.6533
  0
LINE
  8
0
 10
59.2686
 20
10.6533
 11
59.2539
 21
10.6445
  0
LINE
  8
0
 10
59.2539
 20
10.6445
 11
59.2383
 21
10.6357
  0
LINE
  8
0
 10
59.2383
 20
10.6357
 11
59.2236
 21
10.627
  0
LINE
  8
0
 10
59.2236
 20
10.627
 11
59.208
 21
10.6182
  0
LINE
  8
0
 10
59.208
 20
10.6182
 11
59.1611
 21
10.5947
  0
LINE
  8
0
 10
59.1611
 20
10.5947
 11
59.1455
 21
10.5879
  0
LINE
  8
0
 10
59.1455
 20
10.5879
 11
59.1289
 21
10.5811
  0
LINE
  8
0
 10
59.1289
 20
10.5811
 11
59.1133
 21
10.5742
  0
LINE
  8
0
 10
59.1133
 20
10.5742
 11
59.0967
 21
10.5674
  0
LINE
  8
0
 10
59.0967
 20
10.5674
 11
59.0811
 21
10.5615
  0
LINE
  8
0
 10
59.0811
 20
10.5615
 11
59.0645
 21
10.5557
  0
LINE
  8
0
 10
59.0645
 20
10.5557
 11
59.0479
 21
10.5508
  0
LINE
  8
0
 10
59.0479
 20
10.5508
 11
59.0312
 21
10.5449
  0
LINE
  8
0
 10
59.0312
 20
10.5449
 11
59.0146
 21
10.54
  0
LINE
  8
0
 10
59.0146
 20
10.54
 11
58.9971
 21
10.5352
  0
LINE
  8
0
 10
58.9971
 20
10.5352
 11
58.9639
 21
10.5273
  0
LINE
  8
0
 10
58.9639
 20
10.5273
 11
58.9463
 21
10.5234
  0
LINE
  8
0
 10
58.9463
 20
10.5234
 11
58.9297
 21
10.5195
  0
LINE
  8
0
 10
58.9297
 20
10.5195
 11
58.9121
 21
10.5166
  0
LINE
  8
0
 10
58.9121
 20
10.5166
 11
58.8955
 21
10.5137
  0
LINE
  8
0
 10
58.8955
 20
10.5137
 11
58.8779
 21
10.5107
  0
LINE
  8
0
 10
58.8779
 20
10.5107
 11
58.8428
 21
10.5068
  0
LINE
  8
0
 10
58.8428
 20
10.5068
 11
58.8262
 21
10.5049
  0
LINE
  8
0
 10
58.8262
 20
10.5049
 11
58.7734
 21
10.502
  0
LINE
  8
0
 10
58.7734
 20
10.502
 11
58.7559
 21
10.502
  0
LINE
  8
0
 10
58.7559
 20
10.502
 11
58.7383
 21
10.501
  0
LINE
  8
0
 10
58.7383
 20
10.501
 11
47.2217
 21
10.5
  0
LINE
  8
0
 10
47.2217
 20
10.5
 11
47.2041
 21
10.501
  0
LINE
  8
0
 10
9
 20
12
 11
8.98242
 21
12.001
  0
LINE
  8
0
 10
8.98242
 20
12.001
 11
8.96484
 21
12.001
  0
LINE
  8
0
 10
8.96484
 20
12.001
 11
8.94727
 21
12.002
  0
LINE
  8
0
 10
8.94727
 20
12.002
 11
8.91211
 21
12.0059
  0
LINE
  8
0
 10
8.91211
 20
12.0059
 11
8.89551
 21
12.0078
  0
LINE
  8
0
 10
8.89551
 20
12.0078
 11
8.87793
 21
12.0098
  0
LINE
  8
0
 10
8.87793
 20
12.0098
 11
8.86035
 21
12.0127
  0
LINE
  8
0
 10
8.86035
 20
12.0127
 11
8.84375
 21
12.0156
  0
LINE
  8
0
 10
8.84375
 20
12.0156
 11
8.82617
 21
12.0186
  0
LINE
  8
0
 10
8.82617
 20
12.0186
 11
8.80957
 21
12.0215
  0
LINE
  8
0
 10
8.80957
 20
12.0215
 11
8.79199
 21
12.0254
  0
LINE
  8
0
 10
8.79199
 20
12.0254
 11
8.77539
 21
12.0293
  0
LINE
  8
0
 10
8.77539
 20
12.0293
 11
8.75781
 21
12.0342
  0
LINE
  8
0
 10
8.75781
 20
12.0342
 11
8.70801
 21
12.0488
  0
LINE
  8
0
 10
8.70801
 20
12.0488
 11
8.6748
 21
12.0605
  0
LINE
  8
0
 10
8.6748
 20
12.0605
 11
8.65918
 21
12.0664
  0
LINE
  8
0
 10
8.65918
 20
12.0664
 11
8.64258
 21
12.0732
  0
LINE
  8
0
 10
8.64258
 20
12.0732
 11
8.62598
 21
12.0791
  0
LINE
  8
0
 10
8.62598
 20
12.0791
 11
8.61035
 21
12.0869
  0
LINE
  8
0
 10
8.61035
 20
12.0869
 11
8.59473
 21
12.0938
  0
LINE
  8
0
 10
8.59473
 20
12.0938
 11
8.53223
 21
12.125
  0
LINE
  8
0
 10
8.53223
 20
12.125
 11
8.51758
 21
12.1338
  0
LINE
  8
0
 10
8.51758
 20
12.1338
 11
8.50195
 21
12.1426
  0
LINE
  8
0
 10
8.50195
 20
12.1426
 11
8.4873
 21
12.1523
  0
LINE
  8
0
 10
8.4873
 20
12.1523
 11
8.47266
 21
12.1611
  0
LINE
  8
0
 10
8.47266
 20
12.1611
 11
8.44336
 21
12.1807
  0
LINE
  8
0
 10
8.44336
 20
12.1807
 11
8.42969
 21
12.1914
  0
LINE
  8
0
 10
8.42969
 20
12.1914
 11
8.41504
 21
12.2012
  0
LINE
  8
0
 10
8.41504
 20
12.2012
 11
8.3877
 21
12.2227
  0
LINE
  8
0
 10
8.3877
 20
12.2227
 11
8.37402
 21
12.2344
  0
LINE
  8
0
 10
8.37402
 20
12.2344
 11
8.36133
 21
12.2451
  0
LINE
  8
0
 10
8.36133
 20
12.2451
 11
8.34766
 21
12.2568
  0
LINE
  8
0
 10
8.34766
 20
12.2568
 11
8.32227
 21
12.2803
  0
LINE
  8
0
 10
8.32227
 20
12.2803
 11
8.30957
 21
12.293
  0
LINE
  8
0
 10
8.30957
 20
12.293
 11
8.2627
 21
12.3438
  0
LINE
  8
0
 10
8.2627
 20
12.3438
 11
8.25098
 21
12.3574
  0
LINE
  8
0
 10
8.25098
 20
12.3574
 11
8.20801
 21
12.4121
  0
LINE
  8
0
 10
8.20801
 20
12.4121
 11
8.19824
 21
12.4268
  0
LINE
  8
0
 10
8.19824
 20
12.4268
 11
8.18848
 21
12.4404
  0
LINE
  8
0
 10
8.18848
 20
12.4404
 11
8.16895
 21
12.4697
  0
LINE
  8
0
 10
8.16895
 20
12.4697
 11
8.16016
 21
12.4854
  0
LINE
  8
0
 10
8.16016
 20
12.4854
 11
8.15137
 21
12.5
  0
LINE
  8
0
 10
8.15137
 20
12.5
 11
8.14258
 21
12.5156
  0
LINE
  8
0
 10
8.14258
 20
12.5156
 11
8.13379
 21
12.5303
  0
LINE
  8
0
 10
8.13379
 20
12.5303
 11
8.11035
 21
12.5771
  0
LINE
  8
0
 10
8.11035
 20
12.5771
 11
8.10352
 21
12.5938
  0
LINE
  8
0
 10
8.10352
 20
12.5938
 11
8.08984
 21
12.625
  0
LINE
  8
0
 10
8.08984
 20
12.625
 11
8.08398
 21
12.6416
  0
LINE
  8
0
 10
8.08398
 20
12.6416
 11
8.07715
 21
12.6582
  0
LINE
  8
0
 10
8.07715
 20
12.6582
 11
8.07129
 21
12.6748
  0
LINE
  8
0
 10
8.07129
 20
12.6748
 11
8.06641
 21
12.6914
  0
LINE
  8
0
 10
8.06641
 20
12.6914
 11
8.06055
 21
12.708
  0
LINE
  8
0
 10
8.06055
 20
12.708
 11
8.05078
 21
12.7412
  0
LINE
  8
0
 10
8.05078
 20
12.7412
 11
8.04688
 21
12.7578
  0
LINE
  8
0
 10
8.04688
 20
12.7578
 11
8.04297
 21
12.7754
  0
LINE
  8
0
 10
8.04297
 20
12.7754
 11
8.03906
 21
12.792
  0
LINE
  8
0
 10
8.03906
 20
12.792
 11
8.03516
 21
12.8096
  0
LINE
  8
0
 10
8.03516
 20
12.8096
 11
8.03223
 21
12.8262
  0
LINE
  8
0
 10
8.03223
 20
12.8262
 11
8.0293
 21
12.8438
  0
LINE
  8
0
 10
8.0293
 20
12.8438
 11
8.02637
 21
12.8604
  0
LINE
  8
0
 10
8.02637
 20
12.8604
 11
8.02051
 21
12.9131
  0
LINE
  8
0
 10
8.02051
 20
12.9131
 11
8.01953
 21
12.9307
  0
LINE
  8
0
 10
8.01953
 20
12.9307
 11
8.01855
 21
12.9473
  0
LINE
  8
0
 10
8.01855
 20
12.9473
 11
8.01758
 21
12.9648
  0
LINE
  8
0
 10
8.01758
 20
12.9648
 11
8.01758
 21
13
  0
LINE
  8
0
 10
8.01758
 20
13
 11
8.00586
 21
25.5176
  0
LINE
  8
0
 10
8.00586
 20
25.5176
 11
8.00684
 21
25.5352
  0
LINE
  8
0
 10
8.00684
 20
25.5352
 11
8.00684
 21
25.5518
  0
LINE
  8
0
 10
8.00684
 20
25.5518
 11
8.00781
 21
25.5693
  0
LINE
  8
0
 10
8.00781
 20
25.5693
 11
8.01367
 21
25.6221
  0
LINE
  8
0
 10
8.01367
 20
25.6221
 11
8.01562
 21
25.6387
  0
LINE
  8
0
 10
8.01562
 20
25.6387
 11
8.02148
 21
25.6738
  0
LINE
  8
0
 10
8.02148
 20
25.6738
 11
8.02441
 21
25.6904
  0
LINE
  8
0
 10
8.02441
 20
25.6904
 11
8.02734
 21
25.708
  0
LINE
  8
0
 10
8.02734
 20
25.708
 11
8.03125
 21
25.7246
  0
LINE
  8
0
 10
8.03125
 20
25.7246
 11
8.03516
 21
25.7422
  0
LINE
  8
0
 10
8.03516
 20
25.7422
 11
8.05469
 21
25.8086
  0
LINE
  8
0
 10
8.05469
 20
25.8086
 11
8.07227
 21
25.8584
  0
LINE
  8
0
 10
8.07227
 20
25.8584
 11
8.0791
 21
25.874
  0
LINE
  8
0
 10
8.0791
 20
25.874
 11
8.08496
 21
25.8906
  0
LINE
  8
0
 10
8.08496
 20
25.8906
 11
8.0918
 21
25.9062
  0
LINE
  8
0
 10
8.0918
 20
25.9062
 11
8.09961
 21
25.9229
  0
LINE
  8
0
 10
8.09961
 20
25.9229
 11
8.12305
 21
25.9697
  0
LINE
  8
0
 10
8.12305
 20
25.9697
 11
8.13086
 21
25.9844
  0
LINE
  8
0
 10
8.13086
 20
25.9844
 11
8.13965
 21
26
  0
LINE
  8
0
 10
8.13965
 20
26
 11
8.14844
 21
26.0146
  0
LINE
  8
0
 10
8.14844
 20
26.0146
 11
8.1582
 21
26.0293
  0
LINE
  8
0
 10
8.1582
 20
26.0293
 11
8.16699
 21
26.0449
  0
LINE
  8
0
 10
8.16699
 20
26.0449
 11
8.17676
 21
26.0586
  0
LINE
  8
0
 10
8.17676
 20
26.0586
 11
8.18652
 21
26.0732
  0
LINE
  8
0
 10
8.18652
 20
26.0732
 11
8.19727
 21
26.0879
  0
LINE
  8
0
 10
8.19727
 20
26.0879
 11
8.20703
 21
26.1016
  0
LINE
  8
0
 10
8.20703
 20
26.1016
 11
8.22852
 21
26.1289
  0
LINE
  8
0
 10
8.22852
 20
26.1289
 11
8.24023
 21
26.1426
  0
LINE
  8
0
 10
8.24023
 20
26.1426
 11
8.25098
 21
26.1562
  0
LINE
  8
0
 10
8.25098
 20
26.1562
 11
8.28613
 21
26.1943
  0
LINE
  8
0
 10
8.28613
 20
26.1943
 11
8.29883
 21
26.207
  0
LINE
  8
0
 10
8.29883
 20
26.207
 11
8.31152
 21
26.2188
  0
LINE
  8
0
 10
8.31152
 20
26.2188
 11
8.32422
 21
26.2314
  0
LINE
  8
0
 10
8.32422
 20
26.2314
 11
8.34961
 21
26.2549
  0
LINE
  8
0
 10
8.34961
 20
26.2549
 11
8.36328
 21
26.2656
  0
LINE
  8
0
 10
8.36328
 20
26.2656
 11
8.37695
 21
26.2773
  0
LINE
  8
0
 10
8.37695
 20
26.2773
 11
8.4043
 21
26.2988
  0
LINE
  8
0
 10
8.4043
 20
26.2988
 11
8.41797
 21
26.3086
  0
LINE
  8
0
 10
8.41797
 20
26.3086
 11
8.43262
 21
26.3193
  0
LINE
  8
0
 10
8.43262
 20
26.3193
 11
8.44629
 21
26.3291
  0
LINE
  8
0
 10
8.44629
 20
26.3291
 11
8.46094
 21
26.3389
  0
LINE
  8
0
 10
8.46094
 20
26.3389
 11
8.47559
 21
26.3477
  0
LINE
  8
0
 10
8.47559
 20
26.3477
 11
8.49121
 21
26.3574
  0
LINE
  8
0
 10
8.49121
 20
26.3574
 11
8.50586
 21
26.3662
  0
LINE
  8
0
 10
8.50586
 20
26.3662
 11
8.52148
 21
26.374
  0
LINE
  8
0
 10
8.52148
 20
26.374
 11
8.53613
 21
26.3828
  0
LINE
  8
0
 10
8.53613
 20
26.3828
 11
8.58301
 21
26.4062
  0
LINE
  8
0
 10
8.58301
 20
26.4062
 11
8.59863
 21
26.4131
  0
LINE
  8
0
 10
8.59863
 20
26.4131
 11
8.61523
 21
26.4199
  0
LINE
  8
0
 10
8.61523
 20
26.4199
 11
8.63086
 21
26.4268
  0
LINE
  8
0
 10
8.63086
 20
26.4268
 11
8.64746
 21
26.4336
  0
LINE
  8
0
 10
8.64746
 20
26.4336
 11
8.69727
 21
26.4512
  0
LINE
  8
0
 10
8.69727
 20
26.4512
 11
8.74707
 21
26.4658
  0
LINE
  8
0
 10
8.74707
 20
26.4658
 11
8.76367
 21
26.4697
  0
LINE
  8
0
 10
8.76367
 20
26.4697
 11
8.78125
 21
26.4746
  0
LINE
  8
0
 10
8.78125
 20
26.4746
 11
8.79785
 21
26.4775
  0
LINE
  8
0
 10
8.79785
 20
26.4775
 11
8.81543
 21
26.4814
  0
LINE
  8
0
 10
8.81543
 20
26.4814
 11
8.83203
 21
26.4844
  0
LINE
  8
0
 10
8.83203
 20
26.4844
 11
8.84961
 21
26.4873
  0
LINE
  8
0
 10
8.84961
 20
26.4873
 11
8.86621
 21
26.4902
  0
LINE
  8
0
 10
8.86621
 20
26.4902
 11
8.91895
 21
26.4961
  0
LINE
  8
0
 10
8.91895
 20
26.4961
 11
8.93652
 21
26.4971
  0
LINE
  8
0
 10
8.93652
 20
26.4971
 11
8.95312
 21
26.498
  0
LINE
  8
0
 10
8.95312
 20
26.498
 11
8.98828
 21
26.5
  0
LINE
  8
0
 10
8.98828
 20
26.5
 11
22.5176
 21
26.5
  0
LINE
  8
0
 10
22.5176
 20
26.5
 11
22.5342
 21
26.499
  0
LINE
  8
0
 10
22.5342
 20
26.499
 11
22.5518
 21
26.499
  0
LINE
  8
0
 10
22.5518
 20
26.499
 11
22.5693
 21
26.498
  0
LINE
  8
0
 10
22.5693
 20
26.498
 11
22.6045
 21
26.4941
  0
LINE
  8
0
 10
22.6045
 20
26.4941
 11
22.6211
 21
26.4922
  0
LINE
  8
0
 10
22.6211
 20
26.4922
 11
22.6387
 21
26.4902
  0
LINE
  8
0
 10
22.6387
 20
26.4902
 11
22.6562
 21
26.4873
  0
LINE
  8
0
 10
22.6562
 20
26.4873
 11
22.6729
 21
26.4844
  0
LINE
  8
0
 10
22.6729
 20
26.4844
 11
22.708
 21
26.4785
  0
LINE
  8
0
 10
22.708
 20
26.4785
 11
22.7412
 21
26.4707
  0
LINE
  8
0
 10
22.7412
 20
26.4707
 11
22.7588
 21
26.4658
  0
LINE
  8
0
 10
22.7588
 20
26.4658
 11
22.8086
 21
26.4512
  0
LINE
  8
0
 10
22.8086
 20
26.4512
 11
22.8584
 21
26.4336
  0
LINE
  8
0
 10
22.8584
 20
26.4336
 11
22.874
 21
26.4268
  0
LINE
  8
0
 10
22.874
 20
26.4268
 11
22.8906
 21
26.4209
  0
LINE
  8
0
 10
22.8906
 20
26.4209
 11
22.9062
 21
26.4141
  0
LINE
  8
0
 10
22.9062
 20
26.4141
 11
22.9219
 21
26.4062
  0
LINE
  8
0
 10
22.9219
 20
26.4062
 11
22.9385
 21
26.3984
  0
LINE
  8
0
 10
22.9385
 20
26.3984
 11
22.9541
 21
26.3906
  0
LINE
  8
0
 10
22.9541
 20
26.3906
 11
22.9688
 21
26.3828
  0
LINE
  8
0
 10
22.9688
 20
26.3828
 11
22.9844
 21
26.375
  0
LINE
  8
0
 10
22.9844
 20
26.375
 11
23
 21
26.3662
  0
LINE
  8
0
 10
23
 20
26.3662
 11
23.0146
 21
26.3574
  0
LINE
  8
0
 10
23.0146
 20
26.3574
 11
23.0293
 21
26.3477
  0
LINE
  8
0
 10
23.0293
 20
26.3477
 11
23.0439
 21
26.3389
  0
LINE
  8
0
 10
23.0439
 20
26.3389
 11
23.0732
 21
26.3193
  0
LINE
  8
0
 10
23.0732
 20
26.3193
 11
23.0879
 21
26.3086
  0
LINE
  8
0
 10
23.0879
 20
26.3086
 11
23.1016
 21
26.2988
  0
LINE
  8
0
 10
23.1016
 20
26.2988
 11
23.1289
 21
26.2773
  0
LINE
  8
0
 10
23.1289
 20
26.2773
 11
23.1426
 21
26.2656
  0
LINE
  8
0
 10
23.1426
 20
26.2656
 11
23.1553
 21
26.2549
  0
LINE
  8
0
 10
23.1553
 20
26.2549
 11
23.1689
 21
26.2432
  0
LINE
  8
0
 10
23.1689
 20
26.2432
 11
23.1943
 21
26.2197
  0
LINE
  8
0
 10
23.1943
 20
26.2197
 11
23.207
 21
26.207
  0
LINE
  8
0
 10
23.207
 20
26.207
 11
23.2188
 21
26.1943
  0
LINE
  8
0
 10
23.2188
 20
26.1943
 11
23.2314
 21
26.1816
  0
LINE
  8
0
 10
23.2314
 20
26.1816
 11
23.2549
 21
26.1562
  0
LINE
  8
0
 10
23.2549
 20
26.1562
 11
23.2764
 21
26.1289
  0
LINE
  8
0
 10
23.2764
 20
26.1289
 11
23.2881
 21
26.1152
  0
LINE
  8
0
 10
23.2881
 20
26.1152
 11
23.2979
 21
26.1016
  0
LINE
  8
0
 10
23.2979
 20
26.1016
 11
23.3086
 21
26.0879
  0
LINE
  8
0
 10
23.3086
 20
26.0879
 11
23.3184
 21
26.0732
  0
LINE
  8
0
 10
23.3184
 20
26.0732
 11
23.3291
 21
26.0596
  0
LINE
  8
0
 10
23.3291
 20
26.0596
 11
23.3379
 21
26.0449
  0
LINE
  8
0
 10
23.3379
 20
26.0449
 11
23.3477
 21
26.0303
  0
LINE
  8
0
 10
23.3477
 20
26.0303
 11
23.3564
 21
26.0146
  0
LINE
  8
0
 10
23.3564
 20
26.0146
 11
23.3652
 21
26
  0
LINE
  8
0
 10
23.3652
 20
26
 11
23.374
 21
25.9844
  0
LINE
  8
0
 10
23.374
 20
25.9844
 11
23.3828
 21
25.9697
  0
LINE
  8
0
 10
23.3828
 20
25.9697
 11
23.4062
 21
25.9229
  0
LINE
  8
0
 10
23.4062
 20
25.9229
 11
23.4131
 21
25.9072
  0
LINE
  8
0
 10
23.4131
 20
25.9072
 11
23.4199
 21
25.8906
  0
LINE
  8
0
 10
23.4199
 20
25.8906
 11
23.4268
 21
25.875
  0
LINE
  8
0
 10
23.4268
 20
25.875
 11
23.4336
 21
25.8584
  0
LINE
  8
0
 10
23.4336
 20
25.8584
 11
23.4512
 21
25.8086
  0
LINE
  8
0
 10
23.4512
 20
25.8086
 11
23.4658
 21
25.7588
  0
LINE
  8
0
 10
23.4658
 20
25.7588
 11
23.4697
 21
25.7422
  0
LINE
  8
0
 10
23.4697
 20
25.7422
 11
23.4736
 21
25.7246
  0
LINE
  8
0
 10
23.4736
 20
25.7246
 11
23.4775
 21
25.708
  0
LINE
  8
0
 10
23.4775
 20
25.708
 11
23.4814
 21
25.6904
  0
LINE
  8
0
 10
23.4814
 20
25.6904
 11
23.4844
 21
25.6738
  0
LINE
  8
0
 10
23.4844
 20
25.6738
 11
23.4873
 21
25.6562
  0
LINE
  8
0
 10
23.4873
 20
25.6562
 11
23.4902
 21
25.6396
  0
LINE
  8
0
 10
23.4902
 20
25.6396
 11
23.4961
 21
25.5869
  0
LINE
  8
0
 10
23.4961
 20
25.5869
 11
23.4971
 21
25.5693
  0
LINE
  8
0
 10
23.4971
 20
25.5693
 11
23.498
 21
25.5527
  0
LINE
  8
0
 10
23.498
 20
25.5527
 11
23.5
 21
25.5176
  0
LINE
  8
0
 10
23.5
 20
25.5176
 11
23.5
 21
12.9648
  0
LINE
  8
0
 10
23.5
 20
12.9648
 11
23.499
 21
12.9473
  0
LINE
  8
0
 10
23.499
 20
12.9473
 11
23.498
 21
12.9307
  0
LINE
  8
0
 10
23.498
 20
12.9307
 11
23.4961
 21
12.9131
  0
LINE
  8
0
 10
23.4961
 20
12.9131
 11
23.4951
 21
12.8955
  0
LINE
  8
0
 10
23.4951
 20
12.8955
 11
23.4932
 21
12.8779
  0
LINE
  8
0
 10
23.4932
 20
12.8779
 11
23.4902
 21
12.8604
  0
LINE
  8
0
 10
23.4902
 20
12.8604
 11
23.4883
 21
12.8438
  0
LINE
  8
0
 10
23.4883
 20
12.8438
 11
23.4854
 21
12.8262
  0
LINE
  8
0
 10
23.4854
 20
12.8262
 11
23.4824
 21
12.8096
  0
LINE
  8
0
 10
23.4824
 20
12.8096
 11
23.4785
 21
12.792
  0
LINE
  8
0
 10
23.4785
 20
12.792
 11
23.4746
 21
12.7754
  0
LINE
  8
0
 10
23.4746
 20
12.7754
 11
23.4707
 21
12.7578
  0
LINE
  8
0
 10
23.4707
 20
12.7578
 11
23.4658
 21
12.7412
  0
LINE
  8
0
 10
23.4658
 20
12.7412
 11
23.4619
 21
12.7246
  0
LINE
  8
0
 10
23.4619
 20
12.7246
 11
23.457
 21
12.708
  0
LINE
  8
0
 10
23.457
 20
12.708
 11
23.4512
 21
12.6914
  0
LINE
  8
0
 10
23.4512
 20
12.6914
 11
23.4463
 21
12.6748
  0
LINE
  8
0
 10
23.4463
 20
12.6748
 11
23.4404
 21
12.6582
  0
LINE
  8
0
 10
23.4404
 20
12.6582
 11
23.4336
 21
12.6416
  0
LINE
  8
0
 10
23.4336
 20
12.6416
 11
23.4277
 21
12.625
  0
LINE
  8
0
 10
23.4277
 20
12.625
 11
23.4141
 21
12.5938
  0
LINE
  8
0
 10
23.4141
 20
12.5938
 11
23.4062
 21
12.5771
  0
LINE
  8
0
 10
23.4062
 20
12.5771
 11
23.3994
 21
12.5615
  0
LINE
  8
0
 10
23.3994
 20
12.5615
 11
23.3838
 21
12.5303
  0
LINE
  8
0
 10
23.3838
 20
12.5303
 11
23.375
 21
12.5156
  0
LINE
  8
0
 10
23.375
 20
12.5156
 11
23.3662
 21
12.5
  0
LINE
  8
0
 10
23.3662
 20
12.5
 11
23.3574
 21
12.4854
  0
LINE
  8
0
 10
23.3574
 20
12.4854
 11
23.3486
 21
12.4697
  0
LINE
  8
0
 10
23.3486
 20
12.4697
 11
23.3291
 21
12.4404
  0
LINE
  8
0
 10
23.3291
 20
12.4404
 11
23.3193
 21
12.4268
  0
LINE
  8
0
 10
23.3193
 20
12.4268
 11
23.3096
 21
12.4121
  0
LINE
  8
0
 10
23.3096
 20
12.4121
 11
23.2666
 21
12.3574
  0
LINE
  8
0
 10
23.2666
 20
12.3574
 11
23.2549
 21
12.3438
  0
LINE
  8
0
 10
23.2549
 20
12.3438
 11
23.2197
 21
12.3057
  0
LINE
  8
0
 10
23.2197
 20
12.3057
 11
23.207
 21
12.293
  0
LINE
  8
0
 10
23.207
 20
12.293
 11
23.1953
 21
12.2803
  0
LINE
  8
0
 10
23.1953
 20
12.2803
 11
23.1699
 21
12.2568
  0
LINE
  8
0
 10
23.1699
 20
12.2568
 11
23.1562
 21
12.2451
  0
LINE
  8
0
 10
23.1562
 20
12.2451
 11
23.1436
 21
12.2344
  0
LINE
  8
0
 10
23.1436
 20
12.2344
 11
23.1299
 21
12.2227
  0
LINE
  8
0
 10
23.1299
 20
12.2227
 11
23.1025
 21
12.2012
  0
LINE
  8
0
 10
23.1025
 20
12.2012
 11
23.0879
 21
12.1914
  0
LINE
  8
0
 10
23.0879
 20
12.1914
 11
23.0742
 21
12.1807
  0
LINE
  8
0
 10
23.0742
 20
12.1807
 11
23.0449
 21
12.1611
  0
LINE
  8
0
 10
23.0449
 20
12.1611
 11
23.0303
 21
12.1523
  0
LINE
  8
0
 10
23.0303
 20
12.1523
 11
23.0156
 21
12.1426
  0
LINE
  8
0
 10
23.0156
 20
12.1426
 11
23
 21
12.1338
  0
LINE
  8
0
 10
23
 20
12.1338
 11
22.9854
 21
12.125
  0
LINE
  8
0
 10
22.9854
 20
12.125
 11
22.9229
 21
12.0938
  0
LINE
  8
0
 10
22.9229
 20
12.0938
 11
22.9072
 21
12.0869
  0
LINE
  8
0
 10
22.9072
 20
12.0869
 11
22.8906
 21
12.0791
  0
LINE
  8
0
 10
22.8906
 20
12.0791
 11
22.875
 21
12.0732
  0
LINE
  8
0
 10
22.875
 20
12.0732
 11
22.8584
 21
12.0664
  0
LINE
  8
0
 10
22.8584
 20
12.0664
 11
22.8428
 21
12.0605
  0
LINE
  8
0
 10
22.8428
 20
12.0605
 11
22.8096
 21
12.0488
  0
LINE
  8
0
 10
22.8096
 20
12.0488
 11
22.7764
 21
12.0391
  0
LINE
  8
0
 10
22.7764
 20
12.0391
 11
22.7588
 21
12.0342
  0
LINE
  8
0
 10
22.7588
 20
12.0342
 11
22.7422
 21
12.0293
  0
LINE
  8
0
 10
22.7422
 20
12.0293
 11
22.7256
 21
12.0254
  0
LINE
  8
0
 10
22.7256
 20
12.0254
 11
22.708
 21
12.0215
  0
LINE
  8
0
 10
22.708
 20
12.0215
 11
22.6914
 21
12.0186
  0
LINE
  8
0
 10
22.6914
 20
12.0186
 11
22.6738
 21
12.0156
  0
LINE
  8
0
 10
22.6738
 20
12.0156
 11
22.6572
 21
12.0127
  0
LINE
  8
0
 10
22.6572
 20
12.0127
 11
22.6396
 21
12.0098
  0
LINE
  8
0
 10
22.6396
 20
12.0098
 11
22.6045
 21
12.0059
  0
LINE
  8
0
 10
22.6045
 20
12.0059
 11
22.5879
 21
12.0039
  0
LINE
  8
0
 10
22.5879
 20
12.0039
 11
22.5703
 21
12.002
  0
LINE
  8
0
 10
22.5703
 20
12.002
 11
22.5527
 21
12.001
  0
LINE
  8
0
 10
22.5527
 20
12.001
 11
22.5352
 21
12.001
  0
LINE
  8
0
 10
22.5352
 20
12.001
 11
22.5176
 21
12
  0
LINE
  8
0
 10
22.5176
 20
12
 11
9
 21
12
  0
LINE
  8
0
 10
27.2236
 20
19.5
 11
27.2061
 21
19.501
  0
LINE
  8
0
 10
27.2061
 20
19.501
 11
27.1885
 21
19.501
  0
LINE
  8
0
 10
27.1885
 20
19.501
 11
27.1709
 21
19.502
  0
LINE
  8
0
 10
27.1709
 20
19.502
 11
27.1533
 21
19.5039
  0
LINE
  8
0
 10
27.1533
 20
19.5039
 11
27.1367
 21
19.5059
  0
LINE
  8
0
 10
27.1367
 20
19.5059
 11
27.1016
 21
19.5098
  0
LINE
  8
0
 10
27.1016
 20
19.5098
 11
27.084
 21
19.5127
  0
LINE
  8
0
 10
27.084
 20
19.5127
 11
27.0674
 21
19.5156
  0
LINE
  8
0
 10
27.0674
 20
19.5156
 11
27.0498
 21
19.5186
  0
LINE
  8
0
 10
27.0498
 20
19.5186
 11
27.0332
 21
19.5215
  0
LINE
  8
0
 10
27.0332
 20
19.5215
 11
27.0156
 21
19.5254
  0
LINE
  8
0
 10
27.0156
 20
19.5254
 11
26.999
 21
19.5293
  0
LINE
  8
0
 10
26.999
 20
19.5293
 11
26.9824
 21
19.5342
  0
LINE
  8
0
 10
26.9824
 20
19.5342
 11
26.9648
 21
19.5391
  0
LINE
  8
0
 10
26.9648
 20
19.5391
 11
26.9316
 21
19.5488
  0
LINE
  8
0
 10
26.9316
 20
19.5488
 11
26.8984
 21
19.5605
  0
LINE
  8
0
 10
26.8984
 20
19.5605
 11
26.8828
 21
19.5664
  0
LINE
  8
0
 10
26.8828
 20
19.5664
 11
26.8662
 21
19.5732
  0
LINE
  8
0
 10
26.8662
 20
19.5732
 11
26.8496
 21
19.5791
  0
LINE
  8
0
 10
26.8496
 20
19.5791
 11
26.834
 21
19.5869
  0
LINE
  8
0
 10
26.834
 20
19.5869
 11
26.8184
 21
19.5938
  0
LINE
  8
0
 10
26.8184
 20
19.5938
 11
26.7559
 21
19.625
  0
LINE
  8
0
 10
26.7559
 20
19.625
 11
26.7412
 21
19.6338
  0
LINE
  8
0
 10
26.7412
 20
19.6338
 11
26.7256
 21
19.6426
  0
LINE
  8
0
 10
26.7256
 20
19.6426
 11
26.7109
 21
19.6523
  0
LINE
  8
0
 10
26.7109
 20
19.6523
 11
26.6963
 21
19.6611
  0
LINE
  8
0
 10
26.6963
 20
19.6611
 11
26.667
 21
19.6807
  0
LINE
  8
0
 10
26.667
 20
19.6807
 11
26.6533
 21
19.6914
  0
LINE
  8
0
 10
26.6533
 20
19.6914
 11
26.6387
 21
19.7012
  0
LINE
  8
0
 10
26.6387
 20
19.7012
 11
26.6113
 21
19.7227
  0
LINE
  8
0
 10
26.6113
 20
19.7227
 11
26.5977
 21
19.7344
  0
LINE
  8
0
 10
26.5977
 20
19.7344
 11
26.585
 21
19.7451
  0
LINE
  8
0
 10
26.585
 20
19.7451
 11
26.5713
 21
19.7568
  0
LINE
  8
0
 10
26.5713
 20
19.7568
 11
26.5459
 21
19.7803
  0
LINE
  8
0
 10
26.5459
 20
19.7803
 11
26.5332
 21
19.793
  0
LINE
  8
0
 10
26.5332
 20
19.793
 11
26.4863
 21
19.8438
  0
LINE
  8
0
 10
26.4863
 20
19.8438
 11
26.4746
 21
19.8574
  0
LINE
  8
0
 10
26.4746
 20
19.8574
 11
26.4316
 21
19.9121
  0
LINE
  8
0
 10
26.4316
 20
19.9121
 11
26.4219
 21
19.9268
  0
LINE
  8
0
 10
26.4219
 20
19.9268
 11
26.4121
 21
19.9404
  0
LINE
  8
0
 10
26.4121
 20
19.9404
 11
26.3926
 21
19.9697
  0
LINE
  8
0
 10
26.3926
 20
19.9697
 11
26.3838
 21
19.9854
  0
LINE
  8
0
 10
26.3838
 20
19.9854
 11
26.375
 21
20
  0
LINE
  8
0
 10
26.375
 20
20
 11
26.3662
 21
20.0156
  0
LINE
  8
0
 10
26.3662
 20
20.0156
 11
26.3574
 21
20.0303
  0
LINE
  8
0
 10
26.3574
 20
20.0303
 11
26.3418
 21
20.0615
  0
LINE
  8
0
 10
26.3418
 20
20.0615
 11
26.335
 21
20.0771
  0
LINE
  8
0
 10
26.335
 20
20.0771
 11
26.3271
 21
20.0928
  0
LINE
  8
0
 10
26.3271
 20
20.0928
 11
26.3203
 21
20.1094
  0
LINE
  8
0
 10
26.3203
 20
20.1094
 11
26.3135
 21
20.125
  0
LINE
  8
0
 10
26.3135
 20
20.125
 11
26.3076
 21
20.1416
  0
LINE
  8
0
 10
26.3076
 20
20.1416
 11
26.3008
 21
20.1582
  0
LINE
  8
0
 10
26.3008
 20
20.1582
 11
26.2949
 21
20.1748
  0
LINE
  8
0
 10
26.2949
 20
20.1748
 11
26.29
 21
20.1914
  0
LINE
  8
0
 10
26.29
 20
20.1914
 11
26.2842
 21
20.208
  0
LINE
  8
0
 10
26.2842
 20
20.208
 11
26.2744
 21
20.2412
  0
LINE
  8
0
 10
26.2744
 20
20.2412
 11
26.2705
 21
20.2578
  0
LINE
  8
0
 10
26.2705
 20
20.2578
 11
26.2666
 21
20.2754
  0
LINE
  8
0
 10
26.2666
 20
20.2754
 11
26.2627
 21
20.292
  0
LINE
  8
0
 10
26.2627
 20
20.292
 11
26.2588
 21
20.3096
  0
LINE
  8
0
 10
26.2588
 20
20.3096
 11
26.2559
 21
20.3262
  0
LINE
  8
0
 10
26.2559
 20
20.3262
 11
26.2529
 21
20.3438
  0
LINE
  8
0
 10
26.2529
 20
20.3438
 11
26.251
 21
20.3604
  0
LINE
  8
0
 10
26.251
 20
20.3604
 11
26.248
 21
20.3779
  0
LINE
  8
0
 10
26.248
 20
20.3779
 11
26.2441
 21
20.4131
  0
LINE
  8
0
 10
26.2441
 20
20.4131
 11
26.2432
 21
20.4307
  0
LINE
  8
0
 10
26.2432
 20
20.4307
 11
26.2422
 21
20.4473
  0
LINE
  8
0
 10
26.2422
 20
20.4473
 11
26.2412
 21
20.4648
  0
LINE
  8
0
 10
26.2412
 20
20.4648
 11
26.2412
 21
20.5
  0
LINE
  8
0
 10
26.2412
 20
20.5
 11
26.2363
 21
24.5459
  0
LINE
  8
0
 10
26.2363
 20
24.5459
 11
26.2373
 21
24.5635
  0
LINE
  8
0
 10
26.2373
 20
24.5635
 11
26.2383
 21
24.5801
  0
LINE
  8
0
 10
26.2383
 20
24.5801
 11
26.2393
 21
24.5977
  0
LINE
  8
0
 10
26.2393
 20
24.5977
 11
26.2412
 21
24.6143
  0
LINE
  8
0
 10
26.2412
 20
24.6143
 11
26.2432
 21
24.6318
  0
LINE
  8
0
 10
26.2432
 20
24.6318
 11
26.2451
 21
24.6484
  0
LINE
  8
0
 10
26.2451
 20
24.6484
 11
26.248
 21
24.666
  0
LINE
  8
0
 10
26.248
 20
24.666
 11
26.2539
 21
24.6992
  0
LINE
  8
0
 10
26.2539
 20
24.6992
 11
26.2568
 21
24.7168
  0
LINE
  8
0
 10
26.2568
 20
24.7168
 11
26.2686
 21
24.7666
  0
LINE
  8
0
 10
26.2686
 20
24.7666
 11
26.2832
 21
24.8164
  0
LINE
  8
0
 10
26.2832
 20
24.8164
 11
26.2891
 21
24.833
  0
LINE
  8
0
 10
26.2891
 20
24.833
 11
26.2949
 21
24.8486
  0
LINE
  8
0
 10
26.2949
 20
24.8486
 11
26.3008
 21
24.8652
  0
LINE
  8
0
 10
26.3008
 20
24.8652
 11
26.3066
 21
24.8809
  0
LINE
  8
0
 10
26.3066
 20
24.8809
 11
26.3135
 21
24.8965
  0
LINE
  8
0
 10
26.3135
 20
24.8965
 11
26.3203
 21
24.9131
  0
LINE
  8
0
 10
26.3203
 20
24.9131
 11
26.3271
 21
24.9287
  0
LINE
  8
0
 10
26.3271
 20
24.9287
 11
26.335
 21
24.9443
  0
LINE
  8
0
 10
26.335
 20
24.9443
 11
26.3418
 21
24.959
  0
LINE
  8
0
 10
26.3418
 20
24.959
 11
26.3496
 21
24.9746
  0
LINE
  8
0
 10
26.3496
 20
24.9746
 11
26.3584
 21
24.9893
  0
LINE
  8
0
 10
26.3584
 20
24.9893
 11
26.3662
 21
25.0049
  0
LINE
  8
0
 10
26.3662
 20
25.0049
 11
26.375
 21
25.0195
  0
LINE
  8
0
 10
26.375
 20
25.0195
 11
26.3848
 21
25.0342
  0
LINE
  8
0
 10
26.3848
 20
25.0342
 11
26.3936
 21
25.0488
  0
LINE
  8
0
 10
26.3936
 20
25.0488
 11
26.4033
 21
25.0635
  0
LINE
  8
0
 10
26.4033
 20
25.0635
 11
26.4131
 21
25.0771
  0
LINE
  8
0
 10
26.4131
 20
25.0771
 11
26.4229
 21
25.0918
  0
LINE
  8
0
 10
26.4229
 20
25.0918
 11
26.4326
 21
25.1055
  0
LINE
  8
0
 10
26.4326
 20
25.1055
 11
26.4541
 21
25.1328
  0
LINE
  8
0
 10
26.4541
 20
25.1328
 11
26.4648
 21
25.1455
  0
LINE
  8
0
 10
26.4648
 20
25.1455
 11
26.4756
 21
25.1592
  0
LINE
  8
0
 10
26.4756
 20
25.1592
 11
26.5107
 21
25.1973
  0
LINE
  8
0
 10
26.5107
 20
25.1973
 11
26.5352
 21
25.2217
  0
LINE
  8
0
 10
26.5352
 20
25.2217
 11
26.5479
 21
25.2334
  0
LINE
  8
0
 10
26.5479
 20
25.2334
 11
26.5596
 21
25.2451
  0
LINE
  8
0
 10
26.5596
 20
25.2451
 11
26.5732
 21
25.2568
  0
LINE
  8
0
 10
26.5732
 20
25.2568
 11
26.5859
 21
25.2676
  0
LINE
  8
0
 10
26.5859
 20
25.2676
 11
26.5996
 21
25.2783
  0
LINE
  8
0
 10
26.5996
 20
25.2783
 11
26.6123
 21
25.2891
  0
LINE
  8
0
 10
26.6123
 20
25.2891
 11
26.6396
 21
25.3105
  0
LINE
  8
0
 10
26.6396
 20
25.3105
 11
26.6543
 21
25.3203
  0
LINE
  8
0
 10
26.6543
 20
25.3203
 11
26.668
 21
25.3301
  0
LINE
  8
0
 10
26.668
 20
25.3301
 11
26.6826
 21
25.3398
  0
LINE
  8
0
 10
26.6826
 20
25.3398
 11
26.7412
 21
25.375
  0
LINE
  8
0
 10
26.7412
 20
25.375
 11
26.7568
 21
25.3838
  0
LINE
  8
0
 10
26.7568
 20
25.3838
 11
26.7715
 21
25.3916
  0
LINE
  8
0
 10
26.7715
 20
25.3916
 11
26.7871
 21
25.3994
  0
LINE
  8
0
 10
26.7871
 20
25.3994
 11
26.8027
 21
25.4062
  0
LINE
  8
0
 10
26.8027
 20
25.4062
 11
26.8184
 21
25.4141
  0
LINE
  8
0
 10
26.8184
 20
25.4141
 11
26.8496
 21
25.4277
  0
LINE
  8
0
 10
26.8496
 20
25.4277
 11
26.8662
 21
25.4336
  0
LINE
  8
0
 10
26.8662
 20
25.4336
 11
26.8818
 21
25.4395
  0
LINE
  8
0
 10
26.8818
 20
25.4395
 11
26.8984
 21
25.4453
  0
LINE
  8
0
 10
26.8984
 20
25.4453
 11
26.9141
 21
25.4512
  0
LINE
  8
0
 10
26.9141
 20
25.4512
 11
26.9639
 21
25.4658
  0
LINE
  8
0
 10
26.9639
 20
25.4658
 11
26.9805
 21
25.4697
  0
LINE
  8
0
 10
26.9805
 20
25.4697
 11
26.9971
 21
25.4746
  0
LINE
  8
0
 10
26.9971
 20
25.4746
 11
27.0137
 21
25.4775
  0
LINE
  8
0
 10
27.0137
 20
25.4775
 11
27.0312
 21
25.4814
  0
LINE
  8
0
 10
27.0312
 20
25.4814
 11
27.0645
 21
25.4873
  0
LINE
  8
0
 10
27.0645
 20
25.4873
 11
27.082
 21
25.4902
  0
LINE
  8
0
 10
27.082
 20
25.4902
 11
27.0986
 21
25.4922
  0
LINE
  8
0
 10
27.0986
 20
25.4922
 11
27.1162
 21
25.4941
  0
LINE
  8
0
 10
27.1162
 20
25.4941
 11
27.1328
 21
25.4961
  0
LINE
  8
0
 10
27.1328
 20
25.4961
 11
27.1504
 21
25.4971
  0
LINE
  8
0
 10
27.1504
 20
25.4971
 11
27.167
 21
25.499
  0
LINE
  8
0
 10
27.167
 20
25.499
 11
27.1846
 21
25.499
  0
LINE
  8
0
 10
27.1846
 20
25.499
 11
27.2021
 21
25.5
  0
LINE
  8
0
 10
27.2021
 20
25.5
 11
40.7725
 21
25.5
  0
LINE
  8
0
 10
40.7725
 20
25.5
 11
40.79
 21
25.499
  0
LINE
  8
0
 10
40.79
 20
25.499
 11
40.8066
 21
25.499
  0
LINE
  8
0
 10
40.8066
 20
25.499
 11
40.8232
 21
25.4971
  0
LINE
  8
0
 10
40.8232
 20
25.4971
 11
40.8408
 21
25.4961
  0
LINE
  8
0
 10
40.8408
 20
25.4961
 11
40.874
 21
25.4922
  0
LINE
  8
0
 10
40.874
 20
25.4922
 11
40.8916
 21
25.4902
  0
LINE
  8
0
 10
40.8916
 20
25.4902
 11
40.9082
 21
25.4873
  0
LINE
  8
0
 10
40.9082
 20
25.4873
 11
40.9248
 21
25.4854
  0
LINE
  8
0
 10
40.9248
 20
25.4854
 11
40.9414
 21
25.4814
  0
LINE
  8
0
 10
40.9414
 20
25.4814
 11
40.958
 21
25.4785
  0
LINE
  8
0
 10
40.958
 20
25.4785
 11
41.0078
 21
25.4668
  0
LINE
  8
0
 10
41.0078
 20
25.4668
 11
41.041
 21
25.457
  0
LINE
  8
0
 10
41.041
 20
25.457
 11
41.0566
 21
25.4521
  0
LINE
  8
0
 10
41.0566
 20
25.4521
 11
41.0732
 21
25.4463
  0
LINE
  8
0
 10
41.0732
 20
25.4463
 11
41.0889
 21
25.4414
  0
LINE
  8
0
 10
41.0889
 20
25.4414
 11
41.1055
 21
25.4346
  0
LINE
  8
0
 10
41.1055
 20
25.4346
 11
41.1211
 21
25.4287
  0
LINE
  8
0
 10
41.1211
 20
25.4287
 11
41.1367
 21
25.4219
  0
LINE
  8
0
 10
41.1367
 20
25.4219
 11
41.1523
 21
25.416
  0
LINE
  8
0
 10
41.1523
 20
25.416
 11
41.168
 21
25.4082
  0
LINE
  8
0
 10
41.168
 20
25.4082
 11
41.1826
 21
25.4014
  0
LINE
  8
0
 10
41.1826
 20
25.4014
 11
41.2139
 21
25.3857
  0
LINE
  8
0
 10
41.2139
 20
25.3857
 11
41.2285
 21
25.3779
  0
LINE
  8
0
 10
41.2285
 20
25.3779
 11
41.2432
 21
25.3691
  0
LINE
  8
0
 10
41.2432
 20
25.3691
 11
41.2578
 21
25.3613
  0
LINE
  8
0
 10
41.2578
 20
25.3613
 11
41.2725
 21
25.3525
  0
LINE
  8
0
 10
41.2725
 20
25.3525
 11
41.2871
 21
25.3428
  0
LINE
  8
0
 10
41.2871
 20
25.3428
 11
41.3008
 21
25.334
  0
LINE
  8
0
 10
41.3008
 20
25.334
 11
41.3154
 21
25.3242
  0
LINE
  8
0
 10
41.3154
 20
25.3242
 11
41.3291
 21
25.3145
  0
LINE
  8
0
 10
41.3291
 20
25.3145
 11
41.3428
 21
25.3037
  0
LINE
  8
0
 10
41.3428
 20
25.3037
 11
41.3564
 21
25.2939
  0
LINE
  8
0
 10
41.3564
 20
25.2939
 11
41.3701
 21
25.2832
  0
LINE
  8
0
 10
41.3701
 20
25.2832
 11
41.3955
 21
25.2617
  0
LINE
  8
0
 10
41.3955
 20
25.2617
 11
41.4082
 21
25.25
  0
LINE
  8
0
 10
41.4082
 20
25.25
 11
41.4209
 21
25.2393
  0
LINE
  8
0
 10
41.4209
 20
25.2393
 11
41.4463
 21
25.2158
  0
LINE
  8
0
 10
41.4463
 20
25.2158
 11
41.458
 21
25.2031
  0
LINE
  8
0
 10
41.458
 20
25.2031
 11
41.4697
 21
25.1914
  0
LINE
  8
0
 10
41.4697
 20
25.1914
 11
41.4814
 21
25.1787
  0
LINE
  8
0
 10
41.4814
 20
25.1787
 11
41.4922
 21
25.166
  0
LINE
  8
0
 10
41.4922
 20
25.166
 11
41.5039
 21
25.1533
  0
LINE
  8
0
 10
41.5039
 20
25.1533
 11
41.5146
 21
25.1396
  0
LINE
  8
0
 10
41.5146
 20
25.1396
 11
41.5254
 21
25.127
  0
LINE
  8
0
 10
41.5254
 20
25.127
 11
41.5361
 21
25.1133
  0
LINE
  8
0
 10
41.5361
 20
25.1133
 11
41.5654
 21
25.0723
  0
LINE
  8
0
 10
41.5654
 20
25.0723
 11
41.5752
 21
25.0576
  0
LINE
  8
0
 10
41.5752
 20
25.0576
 11
41.585
 21
25.0439
  0
LINE
  8
0
 10
41.585
 20
25.0439
 11
41.6025
 21
25.0146
  0
LINE
  8
0
 10
41.6025
 20
25.0146
 11
41.6104
 21
25
  0
LINE
  8
0
 10
41.6104
 20
25
 11
41.6191
 21
24.9854
  0
LINE
  8
0
 10
41.6191
 20
24.9854
 11
41.627
 21
24.9697
  0
LINE
  8
0
 10
41.627
 20
24.9697
 11
41.6348
 21
24.9551
  0
LINE
  8
0
 10
41.6348
 20
24.9551
 11
41.6426
 21
24.9395
  0
LINE
  8
0
 10
41.6426
 20
24.9395
 11
41.6699
 21
24.877
  0
LINE
  8
0
 10
41.6699
 20
24.877
 11
41.6816
 21
24.8457
  0
LINE
  8
0
 10
41.6816
 20
24.8457
 11
41.6875
 21
24.8291
  0
LINE
  8
0
 10
41.6875
 20
24.8291
 11
41.6924
 21
24.8135
  0
LINE
  8
0
 10
41.6924
 20
24.8135
 11
41.707
 21
24.7637
  0
LINE
  8
0
 10
41.707
 20
24.7637
 11
41.7109
 21
24.748
  0
LINE
  8
0
 10
41.7109
 20
24.748
 11
41.7148
 21
24.7314
  0
LINE
  8
0
 10
41.7148
 20
24.7314
 11
41.7178
 21
24.7148
  0
LINE
  8
0
 10
41.7178
 20
24.7148
 11
41.7217
 21
24.6973
  0
LINE
  8
0
 10
41.7217
 20
24.6973
 11
41.7275
 21
24.6641
  0
LINE
  8
0
 10
41.7275
 20
24.6641
 11
41.7314
 21
24.6309
  0
LINE
  8
0
 10
41.7314
 20
24.6309
 11
41.7334
 21
24.6133
  0
LINE
  8
0
 10
41.7334
 20
24.6133
 11
41.7354
 21
24.5967
  0
LINE
  8
0
 10
41.7354
 20
24.5967
 11
41.7363
 21
24.5801
  0
LINE
  8
0
 10
41.7363
 20
24.5801
 11
41.7373
 21
24.5625
  0
LINE
  8
0
 10
41.7373
 20
24.5625
 11
41.7383
 21
24.5459
  0
LINE
  8
0
 10
41.7383
 20
24.5459
 11
41.7383
 21
24.5283
  0
LINE
  8
0
 10
41.7383
 20
24.5283
 11
41.7363
 21
24.5283
  0
LINE
  8
0
 10
41.7363
 20
24.5283
 11
41.7363
 21
20.4648
  0
LINE
  8
0
 10
41.7363
 20
20.4648
 11
41.7354
 21
20.4473
  0
LINE
  8
0
 10
41.7354
 20
20.4473
 11
41.7344
 21
20.4307
  0
LINE
  8
0
 10
41.7344
 20
20.4307
 11
41.7324
 21
20.4131
  0
LINE
  8
0
 10
41.7324
 20
20.4131
 11
41.7314
 21
20.3955
  0
LINE
  8
0
 10
41.7314
 20
20.3955
 11
41.7295
 21
20.3779
  0
LINE
  8
0
 10
41.7295
 20
20.3779
 11
41.7266
 21
20.3604
  0
LINE
  8
0
 10
41.7266
 20
20.3604
 11
41.7246
 21
20.3438
  0
LINE
  8
0
 10
41.7246
 20
20.3438
 11
41.7217
 21
20.3262
  0
LINE
  8
0
 10
41.7217
 20
20.3262
 11
41.7188
 21
20.3096
  0
LINE
  8
0
 10
41.7188
 20
20.3096
 11
41.7148
 21
20.292
  0
LINE
  8
0
 10
41.7148
 20
20.292
 11
41.7109
 21
20.2754
  0
LINE
  8
0
 10
41.7109
 20
20.2754
 11
41.707
 21
20.2578
  0
LINE
  8
0
 10
41.707
 20
20.2578
 11
41.7021
 21
20.2412
  0
LINE
  8
0
 10
41.7021
 20
20.2412
 11
41.6982
 21
20.2246
  0
LINE
  8
0
 10
41.6982
 20
20.2246
 11
41.6934
 21
20.208
  0
LINE
  8
0
 10
41.6934
 20
20.208
 11
41.6875
 21
20.1914
  0
LINE
  8
0
 10
41.6875
 20
20.1914
 11
41.6826
 21
20.1748
  0
LINE
  8
0
 10
41.6826
 20
20.1748
 11
41.6768
 21
20.1582
  0
LINE
  8
0
 10
41.6768
 20
20.1582
 11
41.6699
 21
20.1416
  0
LINE
  8
0
 10
41.6699
 20
20.1416
 11
41.6641
 21
20.125
  0
LINE
  8
0
 10
41.6641
 20
20.125
 11
41.6572
 21
20.1094
  0
LINE
  8
0
 10
41.6572
 20
20.1094
 11
41.6504
 21
20.0928
  0
LINE
  8
0
 10
41.6504
 20
20.0928
 11
41.6426
 21
20.0771
  0
LINE
  8
0
 10
41.6426
 20
20.0771
 11
41.6357
 21
20.0615
  0
LINE
  8
0
 10
41.6357
 20
20.0615
 11
41.6279
 21
20.0459
  0
LINE
  8
0
 10
41.6279
 20
20.0459
 11
41.6191
 21
20.0303
  0
LINE
  8
0
 10
41.6191
 20
20.0303
 11
41.6113
 21
20.0156
  0
LINE
  8
0
 10
41.6113
 20
20.0156
 11
41.6025
 21
20
  0
LINE
  8
0
 10
41.6025
 20
20
 11
41.5938
 21
19.9854
  0
LINE
  8
0
 10
41.5938
 20
19.9854
 11
41.585
 21
19.9697
  0
LINE
  8
0
 10
41.585
 20
19.9697
 11
41.5654
 21
19.9404
  0
LINE
  8
0
 10
41.5654
 20
19.9404
 11
41.5557
 21
19.9268
  0
LINE
  8
0
 10
41.5557
 20
19.9268
 11
41.5459
 21
19.9121
  0
LINE
  8
0
 10
41.5459
 20
19.9121
 11
41.5029
 21
19.8574
  0
LINE
  8
0
 10
41.5029
 20
19.8574
 11
41.4912
 21
19.8438
  0
LINE
  8
0
 10
41.4912
 20
19.8438
 11
41.4561
 21
19.8057
  0
LINE
  8
0
 10
41.4561
 20
19.8057
 11
41.4434
 21
19.793
  0
LINE
  8
0
 10
41.4434
 20
19.793
 11
41.4316
 21
19.7803
  0
LINE
  8
0
 10
41.4316
 20
19.7803
 11
41.4062
 21
19.7568
  0
LINE
  8
0
 10
41.4062
 20
19.7568
 11
41.3926
 21
19.7451
  0
LINE
  8
0
 10
41.3926
 20
19.7451
 11
41.3799
 21
19.7344
  0
LINE
  8
0
 10
41.3799
 20
19.7344
 11
41.3662
 21
19.7227
  0
LINE
  8
0
 10
41.3662
 20
19.7227
 11
41.3389
 21
19.7012
  0
LINE
  8
0
 10
41.3389
 20
19.7012
 11
41.3242
 21
19.6914
  0
LINE
  8
0
 10
41.3242
 20
19.6914
 11
41.3105
 21
19.6807
  0
LINE
  8
0
 10
41.3105
 20
19.6807
 11
41.2812
 21
19.6611
  0
LINE
  8
0
 10
41.2812
 20
19.6611
 11
41.2666
 21
19.6523
  0
LINE
  8
0
 10
41.2666
 20
19.6523
 11
41.252
 21
19.6426
  0
LINE
  8
0
 10
41.252
 20
19.6426
 11
41.2363
 21
19.6338
  0
LINE
  8
0
 10
41.2363
 20
19.6338
 11
41.2217
 21
19.625
  0
LINE
  8
0
 10
41.2217
 20
19.625
 11
41.1592
 21
19.5938
  0
LINE
  8
0
 10
41.1592
 20
19.5938
 11
41.1436
 21
19.5869
  0
LINE
  8
0
 10
41.1436
 20
19.5869
 11
41.127
 21
19.5791
  0
LINE
  8
0
 10
41.127
 20
19.5791
 11
41.1113
 21
19.5732
  0
LINE
  8
0
 10
41.1113
 20
19.5732
 11
41.0947
 21
19.5664
  0
LINE
  8
0
 10
41.0947
 20
19.5664
 11
41.0791
 21
19.5605
  0
LINE
  8
0
 10
41.0791
 20
19.5605
 11
41.0459
 21
19.5488
  0
LINE
  8
0
 10
41.0459
 20
19.5488
 11
41.0127
 21
19.5391
  0
LINE
  8
0
 10
41.0127
 20
19.5391
 11
40.9951
 21
19.5342
  0
LINE
  8
0
 10
40.9951
 20
19.5342
 11
40.9785
 21
19.5293
  0
LINE
  8
0
 10
40.9785
 20
19.5293
 11
40.9619
 21
19.5254
  0
LINE
  8
0
 10
40.9619
 20
19.5254
 11
40.9443
 21
19.5215
  0
LINE
  8
0
 10
40.9443
 20
19.5215
 11
40.9277
 21
19.5186
  0
LINE
  8
0
 10
40.9277
 20
19.5186
 11
40.9102
 21
19.5156
  0
LINE
  8
0
 10
40.9102
 20
19.5156
 11
40.8936
 21
19.5127
  0
LINE
  8
0
 10
40.8936
 20
19.5127
 11
40.876
 21
19.5098
  0
LINE
  8
0
 10
40.876
 20
19.5098
 11
40.8408
 21
19.5059
  0
LINE
  8
0
 10
40.8408
 20
19.5059
 11
40.8242
 21
19.5039
  0
LINE
  8
0
 10
40.8242
 20
19.5039
 11
40.8066
 21
19.502
  0
LINE
  8
0
 10
40.8066
 20
19.502
 11
40.7891
 21
19.501
  0
LINE
  8
0
 10
40.7891
 20
19.501
 11
40.7715
 21
19.501
  0
LINE
  8
0
 10
40.7715
 20
19.501
 11
40.7539
 21
19.5
  0
LINE
  8
0
 10
40.7539
 20
19.5
 11
27.2236
 21
19.5
  0
ENDSEC
  0
SECTION
  2
OBJECTS
  0
DICTIONARY
  0
ENDSEC
  0
EOF
