  0
SECTION
  2
BLOCKS
  0
ENDSEC
  0
SECTION
  2
ENTITIES
  0
LINE
  8
0
 10
100.95
 20
30
 11
103.018
 21
30
  0
LINE
  8
0
 10
103.018
 20
30
 11
103.035
 21
30.001
  0
LINE
  8
0
 10
103.035
 20
30.001
 11
103.053
 21
30.001
  0
LINE
  8
0
 10
103.053
 20
30.001
 11
103.069
 21
30.002
  0
LINE
  8
0
 10
103.069
 20
30.002
 11
103.14
 21
30.0098
  0
LINE
  8
0
 10
103.14
 20
30.0098
 11
103.156
 21
30.0127
  0
LINE
  8
0
 10
103.156
 20
30.0127
 11
103.174
 21
30.0156
  0
LINE
  8
0
 10
103.174
 20
30.0156
 11
103.19
 21
30.0186
  0
LINE
  8
0
 10
103.19
 20
30.0186
 11
103.208
 21
30.0215
  0
LINE
  8
0
 10
103.208
 20
30.0215
 11
103.225
 21
30.0254
  0
LINE
  8
0
 10
103.225
 20
30.0254
 11
103.242
 21
30.0293
  0
LINE
  8
0
 10
103.242
 20
30.0293
 11
103.309
 21
30.0488
  0
LINE
  8
0
 10
103.309
 20
30.0488
 11
103.358
 21
30.0664
  0
LINE
  8
0
 10
103.358
 20
30.0664
 11
103.375
 21
30.0732
  0
LINE
  8
0
 10
103.375
 20
30.0732
 11
103.391
 21
30.0791
  0
LINE
  8
0
 10
103.391
 20
30.0791
 11
103.406
 21
30.0869
  0
LINE
  8
0
 10
103.406
 20
30.0869
 11
103.423
 21
30.0938
  0
LINE
  8
0
 10
103.423
 20
30.0938
 11
103.47
 21
30.1172
  0
LINE
  8
0
 10
103.47
 20
30.1172
 11
103.484
 21
30.125
  0
LINE
  8
0
 10
103.484
 20
30.125
 11
103.5
 21
30.1338
  0
LINE
  8
0
 10
103.5
 20
30.1338
 11
103.515
 21
30.1426
  0
LINE
  8
0
 10
103.515
 20
30.1426
 11
103.53
 21
30.1523
  0
LINE
  8
0
 10
103.53
 20
30.1523
 11
103.545
 21
30.1611
  0
LINE
  8
0
 10
103.545
 20
30.1611
 11
103.56
 21
30.1709
  0
LINE
  8
0
 10
103.56
 20
30.1709
 11
103.573
 21
30.1807
  0
LINE
  8
0
 10
103.573
 20
30.1807
 11
103.588
 21
30.1914
  0
LINE
  8
0
 10
103.588
 20
30.1914
 11
103.602
 21
30.2012
  0
LINE
  8
0
 10
103.602
 20
30.2012
 11
103.629
 21
30.2227
  0
LINE
  8
0
 10
103.629
 20
30.2227
 11
103.643
 21
30.2344
  0
LINE
  8
0
 10
103.643
 20
30.2344
 11
103.656
 21
30.2451
  0
LINE
  8
0
 10
103.656
 20
30.2451
 11
103.694
 21
30.2803
  0
LINE
  8
0
 10
103.694
 20
30.2803
 11
103.72
 21
30.3057
  0
LINE
  8
0
 10
103.72
 20
30.3057
 11
103.755
 21
30.3438
  0
LINE
  8
0
 10
103.755
 20
30.3438
 11
103.766
 21
30.3574
  0
LINE
  8
0
 10
103.766
 20
30.3574
 11
103.777
 21
30.3711
  0
LINE
  8
0
 10
103.777
 20
30.3711
 11
103.799
 21
30.3984
  0
LINE
  8
0
 10
103.799
 20
30.3984
 11
103.809
 21
30.4121
  0
LINE
  8
0
 10
103.809
 20
30.4121
 11
103.819
 21
30.4268
  0
LINE
  8
0
 10
103.819
 20
30.4268
 11
103.829
 21
30.4404
  0
LINE
  8
0
 10
103.829
 20
30.4404
 11
103.839
 21
30.4551
  0
LINE
  8
0
 10
103.839
 20
30.4551
 11
103.848
 21
30.4697
  0
LINE
  8
0
 10
103.848
 20
30.4697
 11
103.857
 21
30.4854
  0
LINE
  8
0
 10
103.857
 20
30.4854
 11
103.866
 21
30.5
  0
LINE
  8
0
 10
103.866
 20
30.5
 11
103.875
 21
30.5156
  0
LINE
  8
0
 10
103.875
 20
30.5156
 11
103.883
 21
30.5303
  0
LINE
  8
0
 10
103.883
 20
30.5303
 11
103.906
 21
30.5771
  0
LINE
  8
0
 10
103.906
 20
30.5771
 11
103.913
 21
30.5938
  0
LINE
  8
0
 10
103.913
 20
30.5938
 11
103.921
 21
30.6094
  0
LINE
  8
0
 10
103.921
 20
30.6094
 11
103.927
 21
30.625
  0
LINE
  8
0
 10
103.927
 20
30.625
 11
103.934
 21
30.6416
  0
LINE
  8
0
 10
103.934
 20
30.6416
 11
103.951
 21
30.6914
  0
LINE
  8
0
 10
103.951
 20
30.6914
 11
103.971
 21
30.7578
  0
LINE
  8
0
 10
103.971
 20
30.7578
 11
103.975
 21
30.7754
  0
LINE
  8
0
 10
103.975
 20
30.7754
 11
103.979
 21
30.792
  0
LINE
  8
0
 10
103.979
 20
30.792
 11
103.981
 21
30.8096
  0
LINE
  8
0
 10
103.981
 20
30.8096
 11
103.984
 21
30.8262
  0
LINE
  8
0
 10
103.984
 20
30.8262
 11
103.987
 21
30.8438
  0
LINE
  8
0
 10
103.987
 20
30.8438
 11
103.99
 21
30.8604
  0
LINE
  8
0
 10
103.99
 20
30.8604
 11
103.998
 21
30.9307
  0
LINE
  8
0
 10
103.998
 20
30.9307
 11
103.999
 21
30.9473
  0
LINE
  8
0
 10
103.999
 20
30.9473
 11
103.999
 21
30.9648
  0
LINE
  8
0
 10
103.999
 20
30.9648
 11
104
 21
30.9824
  0
LINE
  8
0
 10
104
 20
30.9824
 11
104
 21
39.0176
  0
LINE
  8
0
 10
104
 20
39.0176
 11
103.999
 21
39.0352
  0
LINE
  8
0
 10
103.999
 20
39.0352
 11
103.999
 21
39.0527
  0
LINE
  8
0
 10
103.999
 20
39.0527
 11
103.998
 21
39.0693
  0
LINE
  8
0
 10
103.998
 20
39.0693
 11
103.99
 21
39.1396
  0
LINE
  8
0
 10
103.99
 20
39.1396
 11
103.987
 21
39.1562
  0
LINE
  8
0
 10
103.987
 20
39.1562
 11
103.984
 21
39.1738
  0
LINE
  8
0
 10
103.984
 20
39.1738
 11
103.981
 21
39.1904
  0
LINE
  8
0
 10
103.981
 20
39.1904
 11
103.979
 21
39.208
  0
LINE
  8
0
 10
103.979
 20
39.208
 11
103.975
 21
39.2246
  0
LINE
  8
0
 10
103.975
 20
39.2246
 11
103.971
 21
39.2422
  0
LINE
  8
0
 10
103.971
 20
39.2422
 11
103.951
 21
39.3086
  0
LINE
  8
0
 10
103.951
 20
39.3086
 11
103.934
 21
39.3584
  0
LINE
  8
0
 10
103.934
 20
39.3584
 11
103.927
 21
39.375
  0
LINE
  8
0
 10
103.927
 20
39.375
 11
103.921
 21
39.3906
  0
LINE
  8
0
 10
103.921
 20
39.3906
 11
103.913
 21
39.4062
  0
LINE
  8
0
 10
103.913
 20
39.4062
 11
103.906
 21
39.4229
  0
LINE
  8
0
 10
103.906
 20
39.4229
 11
103.883
 21
39.4697
  0
LINE
  8
0
 10
103.883
 20
39.4697
 11
103.875
 21
39.4844
  0
LINE
  8
0
 10
103.875
 20
39.4844
 11
103.866
 21
39.5
  0
LINE
  8
0
 10
103.866
 20
39.5
 11
103.857
 21
39.5146
  0
LINE
  8
0
 10
103.857
 20
39.5146
 11
103.848
 21
39.5303
  0
LINE
  8
0
 10
103.848
 20
39.5303
 11
103.839
 21
39.5449
  0
LINE
  8
0
 10
103.839
 20
39.5449
 11
103.829
 21
39.5596
  0
LINE
  8
0
 10
103.829
 20
39.5596
 11
103.819
 21
39.5732
  0
LINE
  8
0
 10
103.819
 20
39.5732
 11
103.809
 21
39.5879
  0
LINE
  8
0
 10
103.809
 20
39.5879
 11
103.799
 21
39.6016
  0
LINE
  8
0
 10
103.799
 20
39.6016
 11
103.777
 21
39.6289
  0
LINE
  8
0
 10
103.777
 20
39.6289
 11
103.766
 21
39.6426
  0
LINE
  8
0
 10
103.766
 20
39.6426
 11
103.755
 21
39.6562
  0
LINE
  8
0
 10
103.755
 20
39.6562
 11
103.72
 21
39.6943
  0
LINE
  8
0
 10
103.72
 20
39.6943
 11
103.694
 21
39.7197
  0
LINE
  8
0
 10
103.694
 20
39.7197
 11
103.656
 21
39.7549
  0
LINE
  8
0
 10
103.656
 20
39.7549
 11
103.643
 21
39.7656
  0
LINE
  8
0
 10
103.643
 20
39.7656
 11
103.629
 21
39.7773
  0
LINE
  8
0
 10
103.629
 20
39.7773
 11
103.602
 21
39.7988
  0
LINE
  8
0
 10
103.602
 20
39.7988
 11
103.588
 21
39.8086
  0
LINE
  8
0
 10
103.588
 20
39.8086
 11
103.573
 21
39.8193
  0
LINE
  8
0
 10
103.573
 20
39.8193
 11
103.56
 21
39.8291
  0
LINE
  8
0
 10
103.56
 20
39.8291
 11
103.545
 21
39.8389
  0
LINE
  8
0
 10
103.545
 20
39.8389
 11
103.53
 21
39.8477
  0
LINE
  8
0
 10
103.53
 20
39.8477
 11
103.515
 21
39.8574
  0
LINE
  8
0
 10
103.515
 20
39.8574
 11
103.5
 21
39.8662
  0
LINE
  8
0
 10
103.5
 20
39.8662
 11
103.484
 21
39.875
  0
LINE
  8
0
 10
103.484
 20
39.875
 11
103.47
 21
39.8828
  0
LINE
  8
0
 10
103.47
 20
39.8828
 11
103.423
 21
39.9062
  0
LINE
  8
0
 10
103.423
 20
39.9062
 11
103.406
 21
39.9131
  0
LINE
  8
0
 10
103.406
 20
39.9131
 11
103.391
 21
39.9209
  0
LINE
  8
0
 10
103.391
 20
39.9209
 11
103.375
 21
39.9268
  0
LINE
  8
0
 10
103.375
 20
39.9268
 11
103.358
 21
39.9336
  0
LINE
  8
0
 10
103.358
 20
39.9336
 11
103.309
 21
39.9512
  0
LINE
  8
0
 10
103.309
 20
39.9512
 11
103.242
 21
39.9707
  0
LINE
  8
0
 10
103.242
 20
39.9707
 11
103.225
 21
39.9746
  0
LINE
  8
0
 10
103.225
 20
39.9746
 11
103.208
 21
39.9785
  0
LINE
  8
0
 10
103.208
 20
39.9785
 11
103.19
 21
39.9814
  0
LINE
  8
0
 10
103.19
 20
39.9814
 11
103.174
 21
39.9844
  0
LINE
  8
0
 10
103.174
 20
39.9844
 11
103.156
 21
39.9873
  0
LINE
  8
0
 10
103.156
 20
39.9873
 11
103.14
 21
39.9902
  0
LINE
  8
0
 10
103.14
 20
39.9902
 11
103.069
 21
39.998
  0
LINE
  8
0
 10
103.069
 20
39.998
 11
103.053
 21
39.999
  0
LINE
  8
0
 10
103.053
 20
39.999
 11
103.035
 21
39.999
  0
LINE
  8
0
 10
103.035
 20
39.999
 11
103.018
 21
40
  0
LINE
  8
0
 10
103.018
 20
40
 11
100.95
 21
40
  0
LINE
  8
0
 10
100.95
 20
40
 11
100.95
 21
100
  0
LINE
  8
0
 10
100.95
 20
100
 11
103.018
 21
100
  0
LINE
  8
0
 10
103.018
 20
100
 11
103.035
 21
100.001
  0
LINE
  8
0
 10
103.035
 20
100.001
 11
103.053
 21
100.001
  0
LINE
  8
0
 10
103.053
 20
100.001
 11
103.069
 21
100.002
  0
LINE
  8
0
 10
103.069
 20
100.002
 11
103.14
 21
100.01
  0
LINE
  8
0
 10
103.14
 20
100.01
 11
103.156
 21
100.013
  0
LINE
  8
0
 10
103.156
 20
100.013
 11
103.174
 21
100.016
  0
LINE
  8
0
 10
103.174
 20
100.016
 11
103.19
 21
100.019
  0
LINE
  8
0
 10
103.19
 20
100.019
 11
103.208
 21
100.021
  0
LINE
  8
0
 10
103.208
 20
100.021
 11
103.225
 21
100.025
  0
LINE
  8
0
 10
103.225
 20
100.025
 11
103.242
 21
100.029
  0
LINE
  8
0
 10
103.242
 20
100.029
 11
103.309
 21
100.049
  0
LINE
  8
0
 10
103.309
 20
100.049
 11
103.358
 21
100.066
  0
LINE
  8
0
 10
103.358
 20
100.066
 11
103.375
 21
100.073
  0
LINE
  8
0
 10
103.375
 20
100.073
 11
103.391
 21
100.079
  0
LINE
  8
0
 10
103.391
 20
100.079
 11
103.406
 21
100.087
  0
LINE
  8
0
 10
103.406
 20
100.087
 11
103.423
 21
100.094
  0
LINE
  8
0
 10
103.423
 20
100.094
 11
103.47
 21
100.117
  0
LINE
  8
0
 10
103.47
 20
100.117
 11
103.484
 21
100.125
  0
LINE
  8
0
 10
103.484
 20
100.125
 11
103.5
 21
100.134
  0
LINE
  8
0
 10
103.5
 20
100.134
 11
103.515
 21
100.143
  0
LINE
  8
0
 10
103.515
 20
100.143
 11
103.53
 21
100.152
  0
LINE
  8
0
 10
103.53
 20
100.152
 11
103.545
 21
100.161
  0
LINE
  8
0
 10
103.545
 20
100.161
 11
103.56
 21
100.171
  0
LINE
  8
0
 10
103.56
 20
100.171
 11
103.573
 21
100.181
  0
LINE
  8
0
 10
103.573
 20
100.181
 11
103.588
 21
100.191
  0
LINE
  8
0
 10
103.588
 20
100.191
 11
103.602
 21
100.201
  0
LINE
  8
0
 10
103.602
 20
100.201
 11
103.629
 21
100.223
  0
LINE
  8
0
 10
103.629
 20
100.223
 11
103.643
 21
100.234
  0
LINE
  8
0
 10
103.643
 20
100.234
 11
103.656
 21
100.245
  0
LINE
  8
0
 10
103.656
 20
100.245
 11
103.694
 21
100.28
  0
LINE
  8
0
 10
103.694
 20
100.28
 11
103.72
 21
100.306
  0
LINE
  8
0
 10
103.72
 20
100.306
 11
103.755
 21
100.344
  0
LINE
  8
0
 10
103.755
 20
100.344
 11
103.766
 21
100.357
  0
LINE
  8
0
 10
103.766
 20
100.357
 11
103.777
 21
100.371
  0
LINE
  8
0
 10
103.777
 20
100.371
 11
103.799
 21
100.398
  0
LINE
  8
0
 10
103.799
 20
100.398
 11
103.809
 21
100.412
  0
LINE
  8
0
 10
103.809
 20
100.412
 11
103.819
 21
100.427
  0
LINE
  8
0
 10
103.819
 20
100.427
 11
103.829
 21
100.44
  0
LINE
  8
0
 10
103.829
 20
100.44
 11
103.839
 21
100.455
  0
LINE
  8
0
 10
103.839
 20
100.455
 11
103.848
 21
100.47
  0
LINE
  8
0
 10
103.848
 20
100.47
 11
103.857
 21
100.485
  0
LINE
  8
0
 10
103.857
 20
100.485
 11
103.866
 21
100.5
  0
LINE
  8
0
 10
103.866
 20
100.5
 11
103.875
 21
100.516
  0
LINE
  8
0
 10
103.875
 20
100.516
 11
103.883
 21
100.53
  0
LINE
  8
0
 10
103.883
 20
100.53
 11
103.906
 21
100.577
  0
LINE
  8
0
 10
103.906
 20
100.577
 11
103.913
 21
100.594
  0
LINE
  8
0
 10
103.913
 20
100.594
 11
103.921
 21
100.609
  0
LINE
  8
0
 10
103.921
 20
100.609
 11
103.927
 21
100.625
  0
LINE
  8
0
 10
103.927
 20
100.625
 11
103.934
 21
100.642
  0
LINE
  8
0
 10
103.934
 20
100.642
 11
103.951
 21
100.691
  0
LINE
  8
0
 10
103.951
 20
100.691
 11
103.971
 21
100.758
  0
LINE
  8
0
 10
103.971
 20
100.758
 11
103.975
 21
100.775
  0
LINE
  8
0
 10
103.975
 20
100.775
 11
103.979
 21
100.792
  0
LINE
  8
0
 10
103.979
 20
100.792
 11
103.981
 21
100.81
  0
LINE
  8
0
 10
103.981
 20
100.81
 11
103.984
 21
100.826
  0
LINE
  8
0
 10
103.984
 20
100.826
 11
103.987
 21
100.844
  0
LINE
  8
0
 10
103.987
 20
100.844
 11
103.99
 21
100.86
  0
LINE
  8
0
 10
103.99
 20
100.86
 11
103.998
 21
100.931
  0
LINE
  8
0
 10
103.998
 20
100.931
 11
103.999
 21
100.947
  0
LINE
  8
0
 10
103.999
 20
100.947
 11
103.999
 21
100.965
  0
LINE
  8
0
 10
103.999
 20
100.965
 11
104
 21
100.982
  0
LINE
  8
0
 10
104
 20
100.982
 11
104
 21
109.018
  0
LINE
  8
0
 10
104
 20
109.018
 11
103.999
 21
109.035
  0
LINE
  8
0
 10
103.999
 20
109.035
 11
103.999
 21
109.053
  0
LINE
  8
0
 10
103.999
 20
109.053
 11
103.998
 21
109.069
  0
LINE
  8
0
 10
103.998
 20
109.069
 11
103.99
 21
109.14
  0
LINE
  8
0
 10
103.99
 20
109.14
 11
103.987
 21
109.156
  0
LINE
  8
0
 10
103.987
 20
109.156
 11
103.984
 21
109.174
  0
LINE
  8
0
 10
103.984
 20
109.174
 11
103.981
 21
109.19
  0
LINE
  8
0
 10
103.981
 20
109.19
 11
103.979
 21
109.208
  0
LINE
  8
0
 10
103.979
 20
109.208
 11
103.975
 21
109.225
  0
LINE
  8
0
 10
103.975
 20
109.225
 11
103.971
 21
109.242
  0
LINE
  8
0
 10
103.971
 20
109.242
 11
103.951
 21
109.309
  0
LINE
  8
0
 10
103.951
 20
109.309
 11
103.934
 21
109.358
  0
LINE
  8
0
 10
103.934
 20
109.358
 11
103.927
 21
109.375
  0
LINE
  8
0
 10
103.927
 20
109.375
 11
103.921
 21
109.391
  0
LINE
  8
0
 10
103.921
 20
109.391
 11
103.913
 21
109.406
  0
LINE
  8
0
 10
103.913
 20
109.406
 11
103.906
 21
109.423
  0
LINE
  8
0
 10
103.906
 20
109.423
 11
103.883
 21
109.47
  0
LINE
  8
0
 10
103.883
 20
109.47
 11
103.875
 21
109.484
  0
LINE
  8
0
 10
103.875
 20
109.484
 11
103.866
 21
109.5
  0
LINE
  8
0
 10
103.866
 20
109.5
 11
103.857
 21
109.515
  0
LINE
  8
0
 10
103.857
 20
109.515
 11
103.848
 21
109.53
  0
LINE
  8
0
 10
103.848
 20
109.53
 11
103.839
 21
109.545
  0
LINE
  8
0
 10
103.839
 20
109.545
 11
103.829
 21
109.56
  0
LINE
  8
0
 10
103.829
 20
109.56
 11
103.819
 21
109.573
  0
LINE
  8
0
 10
103.819
 20
109.573
 11
103.809
 21
109.588
  0
LINE
  8
0
 10
103.809
 20
109.588
 11
103.799
 21
109.602
  0
LINE
  8
0
 10
103.799
 20
109.602
 11
103.777
 21
109.629
  0
LINE
  8
0
 10
103.777
 20
109.629
 11
103.766
 21
109.643
  0
LINE
  8
0
 10
103.766
 20
109.643
 11
103.755
 21
109.656
  0
LINE
  8
0
 10
103.755
 20
109.656
 11
103.72
 21
109.694
  0
LINE
  8
0
 10
103.72
 20
109.694
 11
103.694
 21
109.72
  0
LINE
  8
0
 10
103.694
 20
109.72
 11
103.656
 21
109.755
  0
LINE
  8
0
 10
103.656
 20
109.755
 11
103.643
 21
109.766
  0
LINE
  8
0
 10
103.643
 20
109.766
 11
103.629
 21
109.777
  0
LINE
  8
0
 10
103.629
 20
109.777
 11
103.602
 21
109.799
  0
LINE
  8
0
 10
103.602
 20
109.799
 11
103.588
 21
109.809
  0
LINE
  8
0
 10
103.588
 20
109.809
 11
103.573
 21
109.819
  0
LINE
  8
0
 10
103.573
 20
109.819
 11
103.56
 21
109.829
  0
LINE
  8
0
 10
103.56
 20
109.829
 11
103.545
 21
109.839
  0
LINE
  8
0
 10
103.545
 20
109.839
 11
103.53
 21
109.848
  0
LINE
  8
0
 10
103.53
 20
109.848
 11
103.515
 21
109.857
  0
LINE
  8
0
 10
103.515
 20
109.857
 11
103.5
 21
109.866
  0
LINE
  8
0
 10
103.5
 20
109.866
 11
103.484
 21
109.875
  0
LINE
  8
0
 10
103.484
 20
109.875
 11
103.47
 21
109.883
  0
LINE
  8
0
 10
103.47
 20
109.883
 11
103.423
 21
109.906
  0
LINE
  8
0
 10
103.423
 20
109.906
 11
103.406
 21
109.913
  0
LINE
  8
0
 10
103.406
 20
109.913
 11
103.391
 21
109.921
  0
LINE
  8
0
 10
103.391
 20
109.921
 11
103.375
 21
109.927
  0
LINE
  8
0
 10
103.375
 20
109.927
 11
103.358
 21
109.934
  0
LINE
  8
0
 10
103.358
 20
109.934
 11
103.309
 21
109.951
  0
LINE
  8
0
 10
103.309
 20
109.951
 11
103.242
 21
109.971
  0
LINE
  8
0
 10
103.242
 20
109.971
 11
103.225
 21
109.975
  0
LINE
  8
0
 10
103.225
 20
109.975
 11
103.208
 21
109.979
  0
LINE
  8
0
 10
103.208
 20
109.979
 11
103.19
 21
109.981
  0
LINE
  8
0
 10
103.19
 20
109.981
 11
103.174
 21
109.984
  0
LINE
  8
0
 10
103.174
 20
109.984
 11
103.156
 21
109.987
  0
LINE
  8
0
 10
103.156
 20
109.987
 11
103.14
 21
109.99
  0
LINE
  8
0
 10
103.14
 20
109.99
 11
103.069
 21
109.998
  0
LINE
  8
0
 10
103.069
 20
109.998
 11
103.053
 21
109.999
  0
LINE
  8
0
 10
103.053
 20
109.999
 11
103.035
 21
109.999
  0
LINE
  8
0
 10
103.035
 20
109.999
 11
103.018
 21
110
  0
LINE
  8
0
 10
103.018
 20
110
 11
103
 21
110
  0
LINE
  8
0
 10
103
 20
110
 11
98.75
 21
110.032
  0
LINE
  8
0
 10
98.75
 20
110.032
 11
98.75
 21
18.25
  0
LINE
  8
0
 10
98.75
 20
18.25
 11
95.7842
 21
18.25
  0
LINE
  8
0
 10
95.7842
 20
18.25
 11
95.7842
 21
110
  0
LINE
  8
0
 10
95.7842
 20
110
 11
83.5
 21
110
  0
LINE
  8
0
 10
83.5
 20
110
 11
83.4854
 21
18.168
  0
LINE
  8
0
 10
83.4854
 20
18.168
 11
62.4854
 21
18.168
  0
LINE
  8
0
 10
62.4854
 20
18.168
 11
62.4854
 21
14.418
  0
LINE
  8
0
 10
62.4854
 20
14.418
 11
54.9854
 21
14.418
  0
LINE
  8
0
 10
54.9854
 20
14.418
 11
54.9785
 21
18.168
  0
LINE
  8
0
 10
54.9785
 20
18.168
 11
17.2354
 21
18.168
  0
LINE
  8
0
 10
17.2354
 20
18.168
 11
17.25
 21
110
  0
LINE
  8
0
 10
17.25
 20
110
 11
5.25
 21
110
  0
LINE
  8
0
 10
5.25
 20
110
 11
5.25
 21
18.25
  0
LINE
  8
0
 10
5.25
 20
18.25
 11
2.25
 21
18.25
  0
LINE
  8
0
 10
2.25
 20
18.25
 11
2.25
 21
110
  0
LINE
  8
0
 10
2.25
 20
110
 11
-2.01758
 21
110
  0
LINE
  8
0
 10
-2.01758
 20
110
 11
-2.03516
 21
109.999
  0
LINE
  8
0
 10
-2.03516
 20
109.999
 11
-2.05273
 21
109.999
  0
LINE
  8
0
 10
-2.05273
 20
109.999
 11
-2.06934
 21
109.998
  0
LINE
  8
0
 10
-2.06934
 20
109.998
 11
-2.13965
 21
109.99
  0
LINE
  8
0
 10
-2.13965
 20
109.99
 11
-2.15625
 21
109.987
  0
LINE
  8
0
 10
-2.15625
 20
109.987
 11
-2.17383
 21
109.984
  0
LINE
  8
0
 10
-2.17383
 20
109.984
 11
-2.19043
 21
109.981
  0
LINE
  8
0
 10
-2.19043
 20
109.981
 11
-2.20801
 21
109.979
  0
LINE
  8
0
 10
-2.20801
 20
109.979
 11
-2.22461
 21
109.975
  0
LINE
  8
0
 10
-2.22461
 20
109.975
 11
-2.24219
 21
109.971
  0
LINE
  8
0
 10
-2.24219
 20
109.971
 11
-2.30859
 21
109.951
  0
LINE
  8
0
 10
-2.30859
 20
109.951
 11
-2.3584
 21
109.934
  0
LINE
  8
0
 10
-2.3584
 20
109.934
 11
-2.375
 21
109.927
  0
LINE
  8
0
 10
-2.375
 20
109.927
 11
-2.39062
 21
109.921
  0
LINE
  8
0
 10
-2.39062
 20
109.921
 11
-2.40625
 21
109.913
  0
LINE
  8
0
 10
-2.40625
 20
109.913
 11
-2.42285
 21
109.906
  0
LINE
  8
0
 10
-2.42285
 20
109.906
 11
-2.46973
 21
109.883
  0
LINE
  8
0
 10
-2.46973
 20
109.883
 11
-2.48438
 21
109.875
  0
LINE
  8
0
 10
-2.48438
 20
109.875
 11
-2.5
 21
109.866
  0
LINE
  8
0
 10
-2.5
 20
109.866
 11
-2.51465
 21
109.857
  0
LINE
  8
0
 10
-2.51465
 20
109.857
 11
-2.53027
 21
109.848
  0
LINE
  8
0
 10
-2.53027
 20
109.848
 11
-2.54492
 21
109.839
  0
LINE
  8
0
 10
-2.54492
 20
109.839
 11
-2.55957
 21
109.829
  0
LINE
  8
0
 10
-2.55957
 20
109.829
 11
-2.57324
 21
109.819
  0
LINE
  8
0
 10
-2.57324
 20
109.819
 11
-2.58789
 21
109.809
  0
LINE
  8
0
 10
-2.58789
 20
109.809
 11
-2.60156
 21
109.799
  0
LINE
  8
0
 10
-2.60156
 20
109.799
 11
-2.62891
 21
109.777
  0
LINE
  8
0
 10
-2.62891
 20
109.777
 11
-2.64258
 21
109.766
  0
LINE
  8
0
 10
-2.64258
 20
109.766
 11
-2.65625
 21
109.755
  0
LINE
  8
0
 10
-2.65625
 20
109.755
 11
-2.69434
 21
109.72
  0
LINE
  8
0
 10
-2.69434
 20
109.72
 11
-2.71973
 21
109.694
  0
LINE
  8
0
 10
-2.71973
 20
109.694
 11
-2.75488
 21
109.656
  0
LINE
  8
0
 10
-2.75488
 20
109.656
 11
-2.76562
 21
109.643
  0
LINE
  8
0
 10
-2.76562
 20
109.643
 11
-2.77734
 21
109.629
  0
LINE
  8
0
 10
-2.77734
 20
109.629
 11
-2.79883
 21
109.602
  0
LINE
  8
0
 10
-2.79883
 20
109.602
 11
-2.80859
 21
109.588
  0
LINE
  8
0
 10
-2.80859
 20
109.588
 11
-2.81934
 21
109.573
  0
LINE
  8
0
 10
-2.81934
 20
109.573
 11
-2.8291
 21
109.56
  0
LINE
  8
0
 10
-2.8291
 20
109.56
 11
-2.83887
 21
109.545
  0
LINE
  8
0
 10
-2.83887
 20
109.545
 11
-2.84766
 21
109.53
  0
LINE
  8
0
 10
-2.84766
 20
109.53
 11
-2.85742
 21
109.515
  0
LINE
  8
0
 10
-2.85742
 20
109.515
 11
-2.86621
 21
109.5
  0
LINE
  8
0
 10
-2.86621
 20
109.5
 11
-2.875
 21
109.484
  0
LINE
  8
0
 10
-2.875
 20
109.484
 11
-2.88281
 21
109.47
  0
LINE
  8
0
 10
-2.88281
 20
109.47
 11
-2.90625
 21
109.423
  0
LINE
  8
0
 10
-2.90625
 20
109.423
 11
-2.91309
 21
109.406
  0
LINE
  8
0
 10
-2.91309
 20
109.406
 11
-2.9209
 21
109.391
  0
LINE
  8
0
 10
-2.9209
 20
109.391
 11
-2.92676
 21
109.375
  0
LINE
  8
0
 10
-2.92676
 20
109.375
 11
-2.93359
 21
109.358
  0
LINE
  8
0
 10
-2.93359
 20
109.358
 11
-2.95117
 21
109.309
  0
LINE
  8
0
 10
-2.95117
 20
109.309
 11
-2.9707
 21
109.242
  0
LINE
  8
0
 10
-2.9707
 20
109.242
 11
-2.97461
 21
109.225
  0
LINE
  8
0
 10
-2.97461
 20
109.225
 11
-2.97852
 21
109.208
  0
LINE
  8
0
 10
-2.97852
 20
109.208
 11
-2.98145
 21
109.19
  0
LINE
  8
0
 10
-2.98145
 20
109.19
 11
-2.98438
 21
109.174
  0
LINE
  8
0
 10
-2.98438
 20
109.174
 11
-2.9873
 21
109.156
  0
LINE
  8
0
 10
-2.9873
 20
109.156
 11
-2.99023
 21
109.14
  0
LINE
  8
0
 10
-2.99023
 20
109.14
 11
-2.99805
 21
109.069
  0
LINE
  8
0
 10
-2.99805
 20
109.069
 11
-2.99902
 21
109.053
  0
LINE
  8
0
 10
-2.99902
 20
109.053
 11
-2.99902
 21
109.035
  0
LINE
  8
0
 10
-2.99902
 20
109.035
 11
-3
 21
109.018
  0
LINE
  8
0
 10
-3
 20
109.018
 11
-3
 21
100.982
  0
LINE
  8
0
 10
-3
 20
100.982
 11
-2.99902
 21
100.965
  0
LINE
  8
0
 10
-2.99902
 20
100.965
 11
-2.99902
 21
100.947
  0
LINE
  8
0
 10
-2.99902
 20
100.947
 11
-2.99805
 21
100.931
  0
LINE
  8
0
 10
-2.99805
 20
100.931
 11
-2.99023
 21
100.86
  0
LINE
  8
0
 10
-2.99023
 20
100.86
 11
-2.9873
 21
100.844
  0
LINE
  8
0
 10
-2.9873
 20
100.844
 11
-2.98438
 21
100.826
  0
LINE
  8
0
 10
-2.98438
 20
100.826
 11
-2.98145
 21
100.81
  0
LINE
  8
0
 10
-2.98145
 20
100.81
 11
-2.97852
 21
100.792
  0
LINE
  8
0
 10
-2.97852
 20
100.792
 11
-2.97461
 21
100.775
  0
LINE
  8
0
 10
-2.97461
 20
100.775
 11
-2.9707
 21
100.758
  0
LINE
  8
0
 10
-2.9707
 20
100.758
 11
-2.95117
 21
100.691
  0
LINE
  8
0
 10
-2.95117
 20
100.691
 11
-2.93359
 21
100.642
  0
LINE
  8
0
 10
-2.93359
 20
100.642
 11
-2.92676
 21
100.625
  0
LINE
  8
0
 10
-2.92676
 20
100.625
 11
-2.9209
 21
100.609
  0
LINE
  8
0
 10
-2.9209
 20
100.609
 11
-2.91309
 21
100.594
  0
LINE
  8
0
 10
-2.91309
 20
100.594
 11
-2.90625
 21
100.577
  0
LINE
  8
0
 10
-2.90625
 20
100.577
 11
-2.88281
 21
100.53
  0
LINE
  8
0
 10
-2.88281
 20
100.53
 11
-2.875
 21
100.516
  0
LINE
  8
0
 10
-2.875
 20
100.516
 11
-2.86621
 21
100.5
  0
LINE
  8
0
 10
-2.86621
 20
100.5
 11
-2.85742
 21
100.485
  0
LINE
  8
0
 10
-2.85742
 20
100.485
 11
-2.84766
 21
100.47
  0
LINE
  8
0
 10
-2.84766
 20
100.47
 11
-2.83887
 21
100.455
  0
LINE
  8
0
 10
-2.83887
 20
100.455
 11
-2.8291
 21
100.44
  0
LINE
  8
0
 10
-2.8291
 20
100.44
 11
-2.81934
 21
100.427
  0
LINE
  8
0
 10
-2.81934
 20
100.427
 11
-2.80859
 21
100.412
  0
LINE
  8
0
 10
-2.80859
 20
100.412
 11
-2.79883
 21
100.398
  0
LINE
  8
0
 10
-2.79883
 20
100.398
 11
-2.77734
 21
100.371
  0
LINE
  8
0
 10
-2.77734
 20
100.371
 11
-2.76562
 21
100.357
  0
LINE
  8
0
 10
-2.76562
 20
100.357
 11
-2.75488
 21
100.344
  0
LINE
  8
0
 10
-2.75488
 20
100.344
 11
-2.71973
 21
100.306
  0
LINE
  8
0
 10
-2.71973
 20
100.306
 11
-2.69434
 21
100.28
  0
LINE
  8
0
 10
-2.69434
 20
100.28
 11
-2.65625
 21
100.245
  0
LINE
  8
0
 10
-2.65625
 20
100.245
 11
-2.64258
 21
100.234
  0
LINE
  8
0
 10
-2.64258
 20
100.234
 11
-2.62891
 21
100.223
  0
LINE
  8
0
 10
-2.62891
 20
100.223
 11
-2.60156
 21
100.201
  0
LINE
  8
0
 10
-2.60156
 20
100.201
 11
-2.58789
 21
100.191
  0
LINE
  8
0
 10
-2.58789
 20
100.191
 11
-2.57324
 21
100.181
  0
LINE
  8
0
 10
-2.57324
 20
100.181
 11
-2.55957
 21
100.171
  0
LINE
  8
0
 10
-2.55957
 20
100.171
 11
-2.54492
 21
100.161
  0
LINE
  8
0
 10
-2.54492
 20
100.161
 11
-2.53027
 21
100.152
  0
LINE
  8
0
 10
-2.53027
 20
100.152
 11
-2.51465
 21
100.143
  0
LINE
  8
0
 10
-2.51465
 20
100.143
 11
-2.5
 21
100.134
  0
LINE
  8
0
 10
-2.5
 20
100.134
 11
-2.48438
 21
100.125
  0
LINE
  8
0
 10
-2.48438
 20
100.125
 11
-2.46973
 21
100.117
  0
LINE
  8
0
 10
-2.46973
 20
100.117
 11
-2.42285
 21
100.094
  0
LINE
  8
0
 10
-2.42285
 20
100.094
 11
-2.40625
 21
100.087
  0
LINE
  8
0
 10
-2.40625
 20
100.087
 11
-2.39062
 21
100.079
  0
LINE
  8
0
 10
-2.39062
 20
100.079
 11
-2.375
 21
100.073
  0
LINE
  8
0
 10
-2.375
 20
100.073
 11
-2.3584
 21
100.066
  0
LINE
  8
0
 10
-2.3584
 20
100.066
 11
-2.30859
 21
100.049
  0
LINE
  8
0
 10
-2.30859
 20
100.049
 11
-2.24219
 21
100.029
  0
LINE
  8
0
 10
-2.24219
 20
100.029
 11
-2.22461
 21
100.025
  0
LINE
  8
0
 10
-2.22461
 20
100.025
 11
-2.20801
 21
100.021
  0
LINE
  8
0
 10
-2.20801
 20
100.021
 11
-2.19043
 21
100.019
  0
LINE
  8
0
 10
-2.19043
 20
100.019
 11
-2.17383
 21
100.016
  0
LINE
  8
0
 10
-2.17383
 20
100.016
 11
-2.15625
 21
100.013
  0
LINE
  8
0
 10
-2.15625
 20
100.013
 11
-2.13965
 21
100.01
  0
LINE
  8
0
 10
-2.13965
 20
100.01
 11
-2.06934
 21
100.002
  0
LINE
  8
0
 10
-2.06934
 20
100.002
 11
-2.05273
 21
100.001
  0
LINE
  8
0
 10
-2.05273
 20
100.001
 11
-2.03516
 21
100.001
  0
LINE
  8
0
 10
-2.03516
 20
100.001
 11
-2.01758
 21
100
  0
LINE
  8
0
 10
-2.01758
 20
100
 11
0
 21
100
  0
LINE
  8
0
 10
0
 20
100
 11
0
 21
40
  0
LINE
  8
0
 10
0
 20
40
 11
-2.01758
 21
40
  0
LINE
  8
0
 10
-2.01758
 20
40
 11
-2.03516
 21
39.999
  0
LINE
  8
0
 10
-2.03516
 20
39.999
 11
-2.05273
 21
39.999
  0
LINE
  8
0
 10
-2.05273
 20
39.999
 11
-2.06934
 21
39.998
  0
LINE
  8
0
 10
-2.06934
 20
39.998
 11
-2.13965
 21
39.9902
  0
LINE
  8
0
 10
-2.13965
 20
39.9902
 11
-2.15625
 21
39.9873
  0
LINE
  8
0
 10
-2.15625
 20
39.9873
 11
-2.17383
 21
39.9844
  0
LINE
  8
0
 10
-2.17383
 20
39.9844
 11
-2.19043
 21
39.9814
  0
LINE
  8
0
 10
-2.19043
 20
39.9814
 11
-2.20801
 21
39.9785
  0
LINE
  8
0
 10
-2.20801
 20
39.9785
 11
-2.22461
 21
39.9746
  0
LINE
  8
0
 10
-2.22461
 20
39.9746
 11
-2.24219
 21
39.9707
  0
LINE
  8
0
 10
-2.24219
 20
39.9707
 11
-2.30859
 21
39.9512
  0
LINE
  8
0
 10
-2.30859
 20
39.9512
 11
-2.3584
 21
39.9336
  0
LINE
  8
0
 10
-2.3584
 20
39.9336
 11
-2.375
 21
39.9268
  0
LINE
  8
0
 10
-2.375
 20
39.9268
 11
-2.39062
 21
39.9209
  0
LINE
  8
0
 10
-2.39062
 20
39.9209
 11
-2.40625
 21
39.9131
  0
LINE
  8
0
 10
-2.40625
 20
39.9131
 11
-2.42285
 21
39.9062
  0
LINE
  8
0
 10
-2.42285
 20
39.9062
 11
-2.46973
 21
39.8828
  0
LINE
  8
0
 10
-2.46973
 20
39.8828
 11
-2.48438
 21
39.875
  0
LINE
  8
0
 10
-2.48438
 20
39.875
 11
-2.5
 21
39.8662
  0
LINE
  8
0
 10
-2.5
 20
39.8662
 11
-2.51465
 21
39.8574
  0
LINE
  8
0
 10
-2.51465
 20
39.8574
 11
-2.53027
 21
39.8477
  0
LINE
  8
0
 10
-2.53027
 20
39.8477
 11
-2.54492
 21
39.8389
  0
LINE
  8
0
 10
-2.54492
 20
39.8389
 11
-2.55957
 21
39.8291
  0
LINE
  8
0
 10
-2.55957
 20
39.8291
 11
-2.57324
 21
39.8193
  0
LINE
  8
0
 10
-2.57324
 20
39.8193
 11
-2.58789
 21
39.8086
  0
LINE
  8
0
 10
-2.58789
 20
39.8086
 11
-2.60156
 21
39.7988
  0
LINE
  8
0
 10
-2.60156
 20
39.7988
 11
-2.62891
 21
39.7773
  0
LINE
  8
0
 10
-2.62891
 20
39.7773
 11
-2.64258
 21
39.7656
  0
LINE
  8
0
 10
-2.64258
 20
39.7656
 11
-2.65625
 21
39.7549
  0
LINE
  8
0
 10
-2.65625
 20
39.7549
 11
-2.69434
 21
39.7197
  0
LINE
  8
0
 10
-2.69434
 20
39.7197
 11
-2.71973
 21
39.6943
  0
LINE
  8
0
 10
-2.71973
 20
39.6943
 11
-2.75488
 21
39.6562
  0
LINE
  8
0
 10
-2.75488
 20
39.6562
 11
-2.76562
 21
39.6426
  0
LINE
  8
0
 10
-2.76562
 20
39.6426
 11
-2.77734
 21
39.6289
  0
LINE
  8
0
 10
-2.77734
 20
39.6289
 11
-2.79883
 21
39.6016
  0
LINE
  8
0
 10
-2.79883
 20
39.6016
 11
-2.80859
 21
39.5879
  0
LINE
  8
0
 10
-2.80859
 20
39.5879
 11
-2.81934
 21
39.5732
  0
LINE
  8
0
 10
-2.81934
 20
39.5732
 11
-2.8291
 21
39.5596
  0
LINE
  8
0
 10
-2.8291
 20
39.5596
 11
-2.83887
 21
39.5449
  0
LINE
  8
0
 10
-2.83887
 20
39.5449
 11
-2.84766
 21
39.5303
  0
LINE
  8
0
 10
-2.84766
 20
39.5303
 11
-2.85742
 21
39.5146
  0
LINE
  8
0
 10
-2.85742
 20
39.5146
 11
-2.86621
 21
39.5
  0
LINE
  8
0
 10
-2.86621
 20
39.5
 11
-2.875
 21
39.4844
  0
LINE
  8
0
 10
-2.875
 20
39.4844
 11
-2.88281
 21
39.4697
  0
LINE
  8
0
 10
-2.88281
 20
39.4697
 11
-2.90625
 21
39.4229
  0
LINE
  8
0
 10
-2.90625
 20
39.4229
 11
-2.91309
 21
39.4062
  0
LINE
  8
0
 10
-2.91309
 20
39.4062
 11
-2.9209
 21
39.3906
  0
LINE
  8
0
 10
-2.9209
 20
39.3906
 11
-2.92676
 21
39.375
  0
LINE
  8
0
 10
-2.92676
 20
39.375
 11
-2.93359
 21
39.3584
  0
LINE
  8
0
 10
-2.93359
 20
39.3584
 11
-2.95117
 21
39.3086
  0
LINE
  8
0
 10
-2.95117
 20
39.3086
 11
-2.9707
 21
39.2422
  0
LINE
  8
0
 10
-2.9707
 20
39.2422
 11
-2.97461
 21
39.2246
  0
LINE
  8
0
 10
-2.97461
 20
39.2246
 11
-2.97852
 21
39.208
  0
LINE
  8
0
 10
-2.97852
 20
39.208
 11
-2.98145
 21
39.1904
  0
LINE
  8
0
 10
-2.98145
 20
39.1904
 11
-2.98438
 21
39.1738
  0
LINE
  8
0
 10
-2.98438
 20
39.1738
 11
-2.9873
 21
39.1562
  0
LINE
  8
0
 10
-2.9873
 20
39.1562
 11
-2.99023
 21
39.1396
  0
LINE
  8
0
 10
-2.99023
 20
39.1396
 11
-2.99805
 21
39.0693
  0
LINE
  8
0
 10
-2.99805
 20
39.0693
 11
-2.99902
 21
39.0527
  0
LINE
  8
0
 10
-2.99902
 20
39.0527
 11
-2.99902
 21
39.0352
  0
LINE
  8
0
 10
-2.99902
 20
39.0352
 11
-3
 21
39.0176
  0
LINE
  8
0
 10
-3
 20
39.0176
 11
-3
 21
30.9824
  0
LINE
  8
0
 10
-3
 20
30.9824
 11
-2.99902
 21
30.9648
  0
LINE
  8
0
 10
-2.99902
 20
30.9648
 11
-2.99902
 21
30.9473
  0
LINE
  8
0
 10
-2.99902
 20
30.9473
 11
-2.99805
 21
30.9307
  0
LINE
  8
0
 10
-2.99805
 20
30.9307
 11
-2.99023
 21
30.8604
  0
LINE
  8
0
 10
-2.99023
 20
30.8604
 11
-2.9873
 21
30.8438
  0
LINE
  8
0
 10
-2.9873
 20
30.8438
 11
-2.98438
 21
30.8262
  0
LINE
  8
0
 10
-2.98438
 20
30.8262
 11
-2.98145
 21
30.8096
  0
LINE
  8
0
 10
-2.98145
 20
30.8096
 11
-2.97852
 21
30.792
  0
LINE
  8
0
 10
-2.97852
 20
30.792
 11
-2.97461
 21
30.7754
  0
LINE
  8
0
 10
-2.97461
 20
30.7754
 11
-2.9707
 21
30.7578
  0
LINE
  8
0
 10
-2.9707
 20
30.7578
 11
-2.95117
 21
30.6914
  0
LINE
  8
0
 10
-2.95117
 20
30.6914
 11
-2.93359
 21
30.6416
  0
LINE
  8
0
 10
-2.93359
 20
30.6416
 11
-2.92676
 21
30.625
  0
LINE
  8
0
 10
-2.92676
 20
30.625
 11
-2.9209
 21
30.6094
  0
LINE
  8
0
 10
-2.9209
 20
30.6094
 11
-2.91309
 21
30.5938
  0
LINE
  8
0
 10
-2.91309
 20
30.5938
 11
-2.90625
 21
30.5771
  0
LINE
  8
0
 10
-2.90625
 20
30.5771
 11
-2.88281
 21
30.5303
  0
LINE
  8
0
 10
-2.88281
 20
30.5303
 11
-2.875
 21
30.5156
  0
LINE
  8
0
 10
-2.875
 20
30.5156
 11
-2.86621
 21
30.5
  0
LINE
  8
0
 10
-2.86621
 20
30.5
 11
-2.85742
 21
30.4854
  0
LINE
  8
0
 10
-2.85742
 20
30.4854
 11
-2.84766
 21
30.4697
  0
LINE
  8
0
 10
-2.84766
 20
30.4697
 11
-2.83887
 21
30.4551
  0
LINE
  8
0
 10
-2.83887
 20
30.4551
 11
-2.8291
 21
30.4404
  0
LINE
  8
0
 10
-2.8291
 20
30.4404
 11
-2.81934
 21
30.4268
  0
LINE
  8
0
 10
-2.81934
 20
30.4268
 11
-2.80859
 21
30.4121
  0
LINE
  8
0
 10
-2.80859
 20
30.4121
 11
-2.79883
 21
30.3984
  0
LINE
  8
0
 10
-2.79883
 20
30.3984
 11
-2.77734
 21
30.3711
  0
LINE
  8
0
 10
-2.77734
 20
30.3711
 11
-2.76562
 21
30.3574
  0
LINE
  8
0
 10
-2.76562
 20
30.3574
 11
-2.75488
 21
30.3438
  0
LINE
  8
0
 10
-2.75488
 20
30.3438
 11
-2.71973
 21
30.3057
  0
LINE
  8
0
 10
-2.71973
 20
30.3057
 11
-2.69434
 21
30.2803
  0
LINE
  8
0
 10
-2.69434
 20
30.2803
 11
-2.65625
 21
30.2451
  0
LINE
  8
0
 10
-2.65625
 20
30.2451
 11
-2.64258
 21
30.2344
  0
LINE
  8
0
 10
-2.64258
 20
30.2344
 11
-2.62891
 21
30.2227
  0
LINE
  8
0
 10
-2.62891
 20
30.2227
 11
-2.60156
 21
30.2012
  0
LINE
  8
0
 10
-2.60156
 20
30.2012
 11
-2.58789
 21
30.1914
  0
LINE
  8
0
 10
-2.58789
 20
30.1914
 11
-2.57324
 21
30.1807
  0
LINE
  8
0
 10
-2.57324
 20
30.1807
 11
-2.55957
 21
30.1709
  0
LINE
  8
0
 10
-2.55957
 20
30.1709
 11
-2.54492
 21
30.1611
  0
LINE
  8
0
 10
-2.54492
 20
30.1611
 11
-2.53027
 21
30.1523
  0
LINE
  8
0
 10
-2.53027
 20
30.1523
 11
-2.51465
 21
30.1426
  0
LINE
  8
0
 10
-2.51465
 20
30.1426
 11
-2.5
 21
30.1338
  0
LINE
  8
0
 10
-2.5
 20
30.1338
 11
-2.48438
 21
30.125
  0
LINE
  8
0
 10
-2.48438
 20
30.125
 11
-2.46973
 21
30.1172
  0
LINE
  8
0
 10
-2.46973
 20
30.1172
 11
-2.42285
 21
30.0938
  0
LINE
  8
0
 10
-2.42285
 20
30.0938
 11
-2.40625
 21
30.0869
  0
LINE
  8
0
 10
-2.40625
 20
30.0869
 11
-2.39062
 21
30.0791
  0
LINE
  8
0
 10
-2.39062
 20
30.0791
 11
-2.375
 21
30.0732
  0
LINE
  8
0
 10
-2.375
 20
30.0732
 11
-2.3584
 21
30.0664
  0
LINE
  8
0
 10
-2.3584
 20
30.0664
 11
-2.30859
 21
30.0488
  0
LINE
  8
0
 10
-2.30859
 20
30.0488
 11
-2.24219
 21
30.0293
  0
LINE
  8
0
 10
-2.24219
 20
30.0293
 11
-2.22461
 21
30.0254
  0
LINE
  8
0
 10
-2.22461
 20
30.0254
 11
-2.20801
 21
30.0215
  0
LINE
  8
0
 10
-2.20801
 20
30.0215
 11
-2.19043
 21
30.0186
  0
LINE
  8
0
 10
-2.19043
 20
30.0186
 11
-2.17383
 21
30.0156
  0
LINE
  8
0
 10
-2.17383
 20
30.0156
 11
-2.15625
 21
30.0127
  0
LINE
  8
0
 10
-2.15625
 20
30.0127
 11
-2.13965
 21
30.0098
  0
LINE
  8
0
 10
-2.13965
 20
30.0098
 11
-2.06934
 21
30.002
  0
LINE
  8
0
 10
-2.06934
 20
30.002
 11
-2.05273
 21
30.001
  0
LINE
  8
0
 10
-2.05273
 20
30.001
 11
-2.03516
 21
30.001
  0
LINE
  8
0
 10
-2.03516
 20
30.001
 11
-2.01758
 21
30
  0
LINE
  8
0
 10
-2.01758
 20
30
 11
0
 21
30
  0
LINE
  8
0
 10
0
 20
30
 11
0
 21
0
  0
LINE
  8
0
 10
0
 20
0
 11
100.95
 21
0
  0
LINE
  8
0
 10
100.95
 20
0
 11
100.95
 21
30
  0
LINE
  8
0
 10
87.4717
 20
101.4
 11
87.416
 21
101.402
  0
LINE
  8
0
 10
87.416
 20
101.402
 11
87.3887
 21
101.404
  0
LINE
  8
0
 10
87.3887
 20
101.404
 11
87.3604
 21
101.406
  0
LINE
  8
0
 10
87.3604
 20
101.406
 11
87.333
 21
101.409
  0
LINE
  8
0
 10
87.333
 20
101.409
 11
87.3047
 21
101.412
  0
LINE
  8
0
 10
87.3047
 20
101.412
 11
87.25
 21
101.42
  0
LINE
  8
0
 10
87.25
 20
101.42
 11
87.2217
 21
101.424
  0
LINE
  8
0
 10
87.2217
 20
101.424
 11
87.1943
 21
101.43
  0
LINE
  8
0
 10
87.1943
 20
101.43
 11
87.167
 21
101.435
  0
LINE
  8
0
 10
87.167
 20
101.435
 11
87.1396
 21
101.441
  0
LINE
  8
0
 10
87.1396
 20
101.441
 11
87.1133
 21
101.447
  0
LINE
  8
0
 10
87.1133
 20
101.447
 11
87.0859
 21
101.454
  0
LINE
  8
0
 10
87.0859
 20
101.454
 11
87.0586
 21
101.462
  0
LINE
  8
0
 10
87.0586
 20
101.462
 11
87.0322
 21
101.47
  0
LINE
  8
0
 10
87.0322
 20
101.47
 11
86.9531
 21
101.496
  0
LINE
  8
0
 10
86.9531
 20
101.496
 11
86.9268
 21
101.506
  0
LINE
  8
0
 10
86.9268
 20
101.506
 11
86.9004
 21
101.517
  0
LINE
  8
0
 10
86.9004
 20
101.517
 11
86.8496
 21
101.538
  0
LINE
  8
0
 10
86.8496
 20
101.538
 11
86.7988
 21
101.562
  0
LINE
  8
0
 10
86.7988
 20
101.562
 11
86.7734
 21
101.574
  0
LINE
  8
0
 10
86.7734
 20
101.574
 11
86.749
 21
101.587
  0
LINE
  8
0
 10
86.749
 20
101.587
 11
86.7002
 21
101.614
  0
LINE
  8
0
 10
86.7002
 20
101.614
 11
86.6758
 21
101.629
  0
LINE
  8
0
 10
86.6758
 20
101.629
 11
86.6289
 21
101.658
  0
LINE
  8
0
 10
86.6289
 20
101.658
 11
86.582
 21
101.689
  0
LINE
  8
0
 10
86.582
 20
101.689
 11
86.5146
 21
101.739
  0
LINE
  8
0
 10
86.5146
 20
101.739
 11
86.4502
 21
101.792
  0
LINE
  8
0
 10
86.4502
 20
101.792
 11
86.4297
 21
101.811
  0
LINE
  8
0
 10
86.4297
 20
101.811
 11
86.4092
 21
101.83
  0
LINE
  8
0
 10
86.4092
 20
101.83
 11
86.3887
 21
101.849
  0
LINE
  8
0
 10
86.3887
 20
101.849
 11
86.3682
 21
101.868
  0
LINE
  8
0
 10
86.3682
 20
101.868
 11
86.3486
 21
101.889
  0
LINE
  8
0
 10
86.3486
 20
101.889
 11
86.3301
 21
101.909
  0
LINE
  8
0
 10
86.3301
 20
101.909
 11
86.3105
 21
101.93
  0
LINE
  8
0
 10
86.3105
 20
101.93
 11
86.292
 21
101.95
  0
LINE
  8
0
 10
86.292
 20
101.95
 11
86.2393
 21
102.015
  0
LINE
  8
0
 10
86.2393
 20
102.015
 11
86.1895
 21
102.082
  0
LINE
  8
0
 10
86.1895
 20
102.082
 11
86.1582
 21
102.129
  0
LINE
  8
0
 10
86.1582
 20
102.129
 11
86.1289
 21
102.176
  0
LINE
  8
0
 10
86.1289
 20
102.176
 11
86.1143
 21
102.2
  0
LINE
  8
0
 10
86.1143
 20
102.2
 11
86.0869
 21
102.249
  0
LINE
  8
0
 10
86.0869
 20
102.249
 11
86.0742
 21
102.273
  0
LINE
  8
0
 10
86.0742
 20
102.273
 11
86.0615
 21
102.299
  0
LINE
  8
0
 10
86.0615
 20
102.299
 11
86.0381
 21
102.35
  0
LINE
  8
0
 10
86.0381
 20
102.35
 11
86.0166
 21
102.4
  0
LINE
  8
0
 10
86.0166
 20
102.4
 11
86.0059
 21
102.427
  0
LINE
  8
0
 10
86.0059
 20
102.427
 11
85.9961
 21
102.453
  0
LINE
  8
0
 10
85.9961
 20
102.453
 11
85.9697
 21
102.532
  0
LINE
  8
0
 10
85.9697
 20
102.532
 11
85.9619
 21
102.559
  0
LINE
  8
0
 10
85.9619
 20
102.559
 11
85.9541
 21
102.586
  0
LINE
  8
0
 10
85.9541
 20
102.586
 11
85.9473
 21
102.613
  0
LINE
  8
0
 10
85.9473
 20
102.613
 11
85.9414
 21
102.64
  0
LINE
  8
0
 10
85.9414
 20
102.64
 11
85.9346
 21
102.667
  0
LINE
  8
0
 10
85.9346
 20
102.667
 11
85.9297
 21
102.694
  0
LINE
  8
0
 10
85.9297
 20
102.694
 11
85.9238
 21
102.722
  0
LINE
  8
0
 10
85.9238
 20
102.722
 11
85.9199
 21
102.75
  0
LINE
  8
0
 10
85.9199
 20
102.75
 11
85.9121
 21
102.805
  0
LINE
  8
0
 10
85.9121
 20
102.805
 11
85.9092
 21
102.833
  0
LINE
  8
0
 10
85.9092
 20
102.833
 11
85.9062
 21
102.86
  0
LINE
  8
0
 10
85.9062
 20
102.86
 11
85.9043
 21
102.889
  0
LINE
  8
0
 10
85.9043
 20
102.889
 11
85.9023
 21
102.916
  0
LINE
  8
0
 10
85.9023
 20
102.916
 11
85.9004
 21
102.972
  0
LINE
  8
0
 10
85.9004
 20
102.972
 11
85.9004
 21
103.028
  0
LINE
  8
0
 10
85.9004
 20
103.028
 11
85.9023
 21
103.084
  0
LINE
  8
0
 10
85.9023
 20
103.084
 11
85.9043
 21
103.111
  0
LINE
  8
0
 10
85.9043
 20
103.111
 11
85.9062
 21
103.14
  0
LINE
  8
0
 10
85.9062
 20
103.14
 11
85.9092
 21
103.167
  0
LINE
  8
0
 10
85.9092
 20
103.167
 11
85.9121
 21
103.195
  0
LINE
  8
0
 10
85.9121
 20
103.195
 11
85.9199
 21
103.25
  0
LINE
  8
0
 10
85.9199
 20
103.25
 11
85.9238
 21
103.278
  0
LINE
  8
0
 10
85.9238
 20
103.278
 11
85.9297
 21
103.306
  0
LINE
  8
0
 10
85.9297
 20
103.306
 11
85.9346
 21
103.333
  0
LINE
  8
0
 10
85.9346
 20
103.333
 11
85.9414
 21
103.36
  0
LINE
  8
0
 10
85.9414
 20
103.36
 11
85.9473
 21
103.387
  0
LINE
  8
0
 10
85.9473
 20
103.387
 11
85.9541
 21
103.414
  0
LINE
  8
0
 10
85.9541
 20
103.414
 11
85.9619
 21
103.441
  0
LINE
  8
0
 10
85.9619
 20
103.441
 11
85.9697
 21
103.468
  0
LINE
  8
0
 10
85.9697
 20
103.468
 11
85.9961
 21
103.547
  0
LINE
  8
0
 10
85.9961
 20
103.547
 11
86.0059
 21
103.573
  0
LINE
  8
0
 10
86.0059
 20
103.573
 11
86.0166
 21
103.6
  0
LINE
  8
0
 10
86.0166
 20
103.6
 11
86.0381
 21
103.65
  0
LINE
  8
0
 10
86.0381
 20
103.65
 11
86.0615
 21
103.701
  0
LINE
  8
0
 10
86.0615
 20
103.701
 11
86.0742
 21
103.727
  0
LINE
  8
0
 10
86.0742
 20
103.727
 11
86.0869
 21
103.751
  0
LINE
  8
0
 10
86.0869
 20
103.751
 11
86.1143
 21
103.8
  0
LINE
  8
0
 10
86.1143
 20
103.8
 11
86.1289
 21
103.824
  0
LINE
  8
0
 10
86.1289
 20
103.824
 11
86.1582
 21
103.871
  0
LINE
  8
0
 10
86.1582
 20
103.871
 11
86.1895
 21
103.918
  0
LINE
  8
0
 10
86.1895
 20
103.918
 11
86.2393
 21
103.985
  0
LINE
  8
0
 10
86.2393
 20
103.985
 11
86.292
 21
104.05
  0
LINE
  8
0
 10
86.292
 20
104.05
 11
86.3105
 21
104.07
  0
LINE
  8
0
 10
86.3105
 20
104.07
 11
86.3301
 21
104.091
  0
LINE
  8
0
 10
86.3301
 20
104.091
 11
86.3486
 21
104.111
  0
LINE
  8
0
 10
86.3486
 20
104.111
 11
86.3682
 21
104.132
  0
LINE
  8
0
 10
86.3682
 20
104.132
 11
86.3887
 21
104.151
  0
LINE
  8
0
 10
86.3887
 20
104.151
 11
86.4092
 21
104.17
  0
LINE
  8
0
 10
86.4092
 20
104.17
 11
86.4297
 21
104.189
  0
LINE
  8
0
 10
86.4297
 20
104.189
 11
86.4502
 21
104.208
  0
LINE
  8
0
 10
86.4502
 20
104.208
 11
86.5146
 21
104.261
  0
LINE
  8
0
 10
86.5146
 20
104.261
 11
86.582
 21
104.311
  0
LINE
  8
0
 10
86.582
 20
104.311
 11
86.6289
 21
104.342
  0
LINE
  8
0
 10
86.6289
 20
104.342
 11
86.6758
 21
104.371
  0
LINE
  8
0
 10
86.6758
 20
104.371
 11
86.7002
 21
104.386
  0
LINE
  8
0
 10
86.7002
 20
104.386
 11
86.749
 21
104.413
  0
LINE
  8
0
 10
86.749
 20
104.413
 11
86.7734
 21
104.426
  0
LINE
  8
0
 10
86.7734
 20
104.426
 11
86.7988
 21
104.438
  0
LINE
  8
0
 10
86.7988
 20
104.438
 11
86.8496
 21
104.462
  0
LINE
  8
0
 10
86.8496
 20
104.462
 11
86.9004
 21
104.483
  0
LINE
  8
0
 10
86.9004
 20
104.483
 11
86.9268
 21
104.494
  0
LINE
  8
0
 10
86.9268
 20
104.494
 11
86.9531
 21
104.504
  0
LINE
  8
0
 10
86.9531
 20
104.504
 11
87.0322
 21
104.53
  0
LINE
  8
0
 10
87.0322
 20
104.53
 11
87.0586
 21
104.538
  0
LINE
  8
0
 10
87.0586
 20
104.538
 11
87.0859
 21
104.546
  0
LINE
  8
0
 10
87.0859
 20
104.546
 11
87.1133
 21
104.553
  0
LINE
  8
0
 10
87.1133
 20
104.553
 11
87.1396
 21
104.559
  0
LINE
  8
0
 10
87.1396
 20
104.559
 11
87.167
 21
104.565
  0
LINE
  8
0
 10
87.167
 20
104.565
 11
87.1943
 21
104.57
  0
LINE
  8
0
 10
87.1943
 20
104.57
 11
87.2217
 21
104.576
  0
LINE
  8
0
 10
87.2217
 20
104.576
 11
87.25
 21
104.58
  0
LINE
  8
0
 10
87.25
 20
104.58
 11
87.3047
 21
104.588
  0
LINE
  8
0
 10
87.3047
 20
104.588
 11
87.333
 21
104.591
  0
LINE
  8
0
 10
87.333
 20
104.591
 11
87.3604
 21
104.594
  0
LINE
  8
0
 10
87.3604
 20
104.594
 11
87.3887
 21
104.596
  0
LINE
  8
0
 10
87.3887
 20
104.596
 11
87.416
 21
104.598
  0
LINE
  8
0
 10
87.416
 20
104.598
 11
87.4717
 21
104.6
  0
LINE
  8
0
 10
87.4717
 20
104.6
 11
87.5283
 21
104.6
  0
LINE
  8
0
 10
87.5283
 20
104.6
 11
87.584
 21
104.598
  0
LINE
  8
0
 10
87.584
 20
104.598
 11
87.6113
 21
104.596
  0
LINE
  8
0
 10
87.6113
 20
104.596
 11
87.6396
 21
104.594
  0
LINE
  8
0
 10
87.6396
 20
104.594
 11
87.667
 21
104.591
  0
LINE
  8
0
 10
87.667
 20
104.591
 11
87.6953
 21
104.588
  0
LINE
  8
0
 10
87.6953
 20
104.588
 11
87.75
 21
104.58
  0
LINE
  8
0
 10
87.75
 20
104.58
 11
87.7783
 21
104.576
  0
LINE
  8
0
 10
87.7783
 20
104.576
 11
87.8057
 21
104.57
  0
LINE
  8
0
 10
87.8057
 20
104.57
 11
87.833
 21
104.565
  0
LINE
  8
0
 10
87.833
 20
104.565
 11
87.8604
 21
104.559
  0
LINE
  8
0
 10
87.8604
 20
104.559
 11
87.8867
 21
104.553
  0
LINE
  8
0
 10
87.8867
 20
104.553
 11
87.9141
 21
104.546
  0
LINE
  8
0
 10
87.9141
 20
104.546
 11
87.9414
 21
104.538
  0
LINE
  8
0
 10
87.9414
 20
104.538
 11
87.9678
 21
104.53
  0
LINE
  8
0
 10
87.9678
 20
104.53
 11
88.0469
 21
104.504
  0
LINE
  8
0
 10
88.0469
 20
104.504
 11
88.0732
 21
104.494
  0
LINE
  8
0
 10
88.0732
 20
104.494
 11
88.0996
 21
104.483
  0
LINE
  8
0
 10
88.0996
 20
104.483
 11
88.1504
 21
104.462
  0
LINE
  8
0
 10
88.1504
 20
104.462
 11
88.2012
 21
104.438
  0
LINE
  8
0
 10
88.2012
 20
104.438
 11
88.2266
 21
104.426
  0
LINE
  8
0
 10
88.2266
 20
104.426
 11
88.251
 21
104.413
  0
LINE
  8
0
 10
88.251
 20
104.413
 11
88.2998
 21
104.386
  0
LINE
  8
0
 10
88.2998
 20
104.386
 11
88.3242
 21
104.371
  0
LINE
  8
0
 10
88.3242
 20
104.371
 11
88.3711
 21
104.342
  0
LINE
  8
0
 10
88.3711
 20
104.342
 11
88.418
 21
104.311
  0
LINE
  8
0
 10
88.418
 20
104.311
 11
88.4854
 21
104.261
  0
LINE
  8
0
 10
88.4854
 20
104.261
 11
88.5498
 21
104.208
  0
LINE
  8
0
 10
88.5498
 20
104.208
 11
88.5703
 21
104.189
  0
LINE
  8
0
 10
88.5703
 20
104.189
 11
88.5908
 21
104.17
  0
LINE
  8
0
 10
88.5908
 20
104.17
 11
88.6113
 21
104.151
  0
LINE
  8
0
 10
88.6113
 20
104.151
 11
88.6318
 21
104.132
  0
LINE
  8
0
 10
88.6318
 20
104.132
 11
88.6514
 21
104.111
  0
LINE
  8
0
 10
88.6514
 20
104.111
 11
88.6699
 21
104.091
  0
LINE
  8
0
 10
88.6699
 20
104.091
 11
88.6895
 21
104.07
  0
LINE
  8
0
 10
88.6895
 20
104.07
 11
88.708
 21
104.05
  0
LINE
  8
0
 10
88.708
 20
104.05
 11
88.7607
 21
103.985
  0
LINE
  8
0
 10
88.7607
 20
103.985
 11
88.8105
 21
103.918
  0
LINE
  8
0
 10
88.8105
 20
103.918
 11
88.8418
 21
103.871
  0
LINE
  8
0
 10
88.8418
 20
103.871
 11
88.8711
 21
103.824
  0
LINE
  8
0
 10
88.8711
 20
103.824
 11
88.8857
 21
103.8
  0
LINE
  8
0
 10
88.8857
 20
103.8
 11
88.9131
 21
103.751
  0
LINE
  8
0
 10
88.9131
 20
103.751
 11
88.9258
 21
103.727
  0
LINE
  8
0
 10
88.9258
 20
103.727
 11
88.9385
 21
103.701
  0
LINE
  8
0
 10
88.9385
 20
103.701
 11
88.9619
 21
103.65
  0
LINE
  8
0
 10
88.9619
 20
103.65
 11
88.9834
 21
103.6
  0
LINE
  8
0
 10
88.9834
 20
103.6
 11
88.9941
 21
103.573
  0
LINE
  8
0
 10
88.9941
 20
103.573
 11
89.0039
 21
103.547
  0
LINE
  8
0
 10
89.0039
 20
103.547
 11
89.0303
 21
103.468
  0
LINE
  8
0
 10
89.0303
 20
103.468
 11
89.0381
 21
103.441
  0
LINE
  8
0
 10
89.0381
 20
103.441
 11
89.0459
 21
103.414
  0
LINE
  8
0
 10
89.0459
 20
103.414
 11
89.0527
 21
103.387
  0
LINE
  8
0
 10
89.0527
 20
103.387
 11
89.0586
 21
103.36
  0
LINE
  8
0
 10
89.0586
 20
103.36
 11
89.0654
 21
103.333
  0
LINE
  8
0
 10
89.0654
 20
103.333
 11
89.0703
 21
103.306
  0
LINE
  8
0
 10
89.0703
 20
103.306
 11
89.0762
 21
103.278
  0
LINE
  8
0
 10
89.0762
 20
103.278
 11
89.0801
 21
103.25
  0
LINE
  8
0
 10
89.0801
 20
103.25
 11
89.0879
 21
103.195
  0
LINE
  8
0
 10
89.0879
 20
103.195
 11
89.0908
 21
103.167
  0
LINE
  8
0
 10
89.0908
 20
103.167
 11
89.0938
 21
103.14
  0
LINE
  8
0
 10
89.0938
 20
103.14
 11
89.0957
 21
103.111
  0
LINE
  8
0
 10
89.0957
 20
103.111
 11
89.0977
 21
103.084
  0
LINE
  8
0
 10
89.0977
 20
103.084
 11
89.0996
 21
103.028
  0
LINE
  8
0
 10
89.0996
 20
103.028
 11
89.0996
 21
102.972
  0
LINE
  8
0
 10
89.0996
 20
102.972
 11
89.0977
 21
102.916
  0
LINE
  8
0
 10
89.0977
 20
102.916
 11
89.0957
 21
102.889
  0
LINE
  8
0
 10
89.0957
 20
102.889
 11
89.0938
 21
102.86
  0
LINE
  8
0
 10
89.0938
 20
102.86
 11
89.0908
 21
102.833
  0
LINE
  8
0
 10
89.0908
 20
102.833
 11
89.0879
 21
102.805
  0
LINE
  8
0
 10
89.0879
 20
102.805
 11
89.0801
 21
102.75
  0
LINE
  8
0
 10
89.0801
 20
102.75
 11
89.0762
 21
102.722
  0
LINE
  8
0
 10
89.0762
 20
102.722
 11
89.0703
 21
102.694
  0
LINE
  8
0
 10
89.0703
 20
102.694
 11
89.0654
 21
102.667
  0
LINE
  8
0
 10
89.0654
 20
102.667
 11
89.0586
 21
102.64
  0
LINE
  8
0
 10
89.0586
 20
102.64
 11
89.0527
 21
102.613
  0
LINE
  8
0
 10
89.0527
 20
102.613
 11
89.0459
 21
102.586
  0
LINE
  8
0
 10
89.0459
 20
102.586
 11
89.0381
 21
102.559
  0
LINE
  8
0
 10
89.0381
 20
102.559
 11
89.0303
 21
102.532
  0
LINE
  8
0
 10
89.0303
 20
102.532
 11
89.0039
 21
102.453
  0
LINE
  8
0
 10
89.0039
 20
102.453
 11
88.9941
 21
102.427
  0
LINE
  8
0
 10
88.9941
 20
102.427
 11
88.9834
 21
102.4
  0
LINE
  8
0
 10
88.9834
 20
102.4
 11
88.9619
 21
102.35
  0
LINE
  8
0
 10
88.9619
 20
102.35
 11
88.9385
 21
102.299
  0
LINE
  8
0
 10
88.9385
 20
102.299
 11
88.9258
 21
102.273
  0
LINE
  8
0
 10
88.9258
 20
102.273
 11
88.9131
 21
102.249
  0
LINE
  8
0
 10
88.9131
 20
102.249
 11
88.8857
 21
102.2
  0
LINE
  8
0
 10
88.8857
 20
102.2
 11
88.8711
 21
102.176
  0
LINE
  8
0
 10
88.8711
 20
102.176
 11
88.8418
 21
102.129
  0
LINE
  8
0
 10
88.8418
 20
102.129
 11
88.8105
 21
102.082
  0
LINE
  8
0
 10
88.8105
 20
102.082
 11
88.7607
 21
102.015
  0
LINE
  8
0
 10
88.7607
 20
102.015
 11
88.708
 21
101.95
  0
LINE
  8
0
 10
88.708
 20
101.95
 11
88.6895
 21
101.93
  0
LINE
  8
0
 10
88.6895
 20
101.93
 11
88.6699
 21
101.909
  0
LINE
  8
0
 10
88.6699
 20
101.909
 11
88.6514
 21
101.889
  0
LINE
  8
0
 10
88.6514
 20
101.889
 11
88.6318
 21
101.868
  0
LINE
  8
0
 10
88.6318
 20
101.868
 11
88.6113
 21
101.849
  0
LINE
  8
0
 10
88.6113
 20
101.849
 11
88.5908
 21
101.83
  0
LINE
  8
0
 10
88.5908
 20
101.83
 11
88.5703
 21
101.811
  0
LINE
  8
0
 10
88.5703
 20
101.811
 11
88.5498
 21
101.792
  0
LINE
  8
0
 10
88.5498
 20
101.792
 11
88.4854
 21
101.739
  0
LINE
  8
0
 10
88.4854
 20
101.739
 11
88.418
 21
101.689
  0
LINE
  8
0
 10
88.418
 20
101.689
 11
88.3711
 21
101.658
  0
LINE
  8
0
 10
88.3711
 20
101.658
 11
88.3242
 21
101.629
  0
LINE
  8
0
 10
88.3242
 20
101.629
 11
88.2998
 21
101.614
  0
LINE
  8
0
 10
88.2998
 20
101.614
 11
88.251
 21
101.587
  0
LINE
  8
0
 10
88.251
 20
101.587
 11
88.2266
 21
101.574
  0
LINE
  8
0
 10
88.2266
 20
101.574
 11
88.2012
 21
101.562
  0
LINE
  8
0
 10
88.2012
 20
101.562
 11
88.1504
 21
101.538
  0
LINE
  8
0
 10
88.1504
 20
101.538
 11
88.0996
 21
101.517
  0
LINE
  8
0
 10
88.0996
 20
101.517
 11
88.0732
 21
101.506
  0
LINE
  8
0
 10
88.0732
 20
101.506
 11
88.0469
 21
101.496
  0
LINE
  8
0
 10
88.0469
 20
101.496
 11
87.9678
 21
101.47
  0
LINE
  8
0
 10
87.9678
 20
101.47
 11
87.9414
 21
101.462
  0
LINE
  8
0
 10
87.9414
 20
101.462
 11
87.9141
 21
101.454
  0
LINE
  8
0
 10
87.9141
 20
101.454
 11
87.8867
 21
101.447
  0
LINE
  8
0
 10
87.8867
 20
101.447
 11
87.8604
 21
101.441
  0
LINE
  8
0
 10
87.8604
 20
101.441
 11
87.833
 21
101.435
  0
LINE
  8
0
 10
87.833
 20
101.435
 11
87.8057
 21
101.43
  0
LINE
  8
0
 10
87.8057
 20
101.43
 11
87.7783
 21
101.424
  0
LINE
  8
0
 10
87.7783
 20
101.424
 11
87.75
 21
101.42
  0
LINE
  8
0
 10
87.75
 20
101.42
 11
87.6953
 21
101.412
  0
LINE
  8
0
 10
87.6953
 20
101.412
 11
87.667
 21
101.409
  0
LINE
  8
0
 10
87.667
 20
101.409
 11
87.6396
 21
101.406
  0
LINE
  8
0
 10
87.6396
 20
101.406
 11
87.6113
 21
101.404
  0
LINE
  8
0
 10
87.6113
 20
101.404
 11
87.584
 21
101.402
  0
LINE
  8
0
 10
87.584
 20
101.402
 11
87.5283
 21
101.4
  0
LINE
  8
0
 10
87.5283
 20
101.4
 11
87.4717
 21
101.4
  0
LINE
  8
0
 10
12.4717
 20
92.1504
 11
12.416
 21
92.1523
  0
LINE
  8
0
 10
12.416
 20
92.1523
 11
12.3887
 21
92.1543
  0
LINE
  8
0
 10
12.3887
 20
92.1543
 11
12.3604
 21
92.1562
  0
LINE
  8
0
 10
12.3604
 20
92.1562
 11
12.333
 21
92.1592
  0
LINE
  8
0
 10
12.333
 20
92.1592
 11
12.3047
 21
92.1621
  0
LINE
  8
0
 10
12.3047
 20
92.1621
 11
12.25
 21
92.1699
  0
LINE
  8
0
 10
12.25
 20
92.1699
 11
12.2217
 21
92.1738
  0
LINE
  8
0
 10
12.2217
 20
92.1738
 11
12.1943
 21
92.1797
  0
LINE
  8
0
 10
12.1943
 20
92.1797
 11
12.167
 21
92.1846
  0
LINE
  8
0
 10
12.167
 20
92.1846
 11
12.1396
 21
92.1914
  0
LINE
  8
0
 10
12.1396
 20
92.1914
 11
12.1133
 21
92.1973
  0
LINE
  8
0
 10
12.1133
 20
92.1973
 11
12.0859
 21
92.2041
  0
LINE
  8
0
 10
12.0859
 20
92.2041
 11
12.0586
 21
92.2119
  0
LINE
  8
0
 10
12.0586
 20
92.2119
 11
12.0322
 21
92.2197
  0
LINE
  8
0
 10
12.0322
 20
92.2197
 11
11.9531
 21
92.2461
  0
LINE
  8
0
 10
11.9531
 20
92.2461
 11
11.9268
 21
92.2559
  0
LINE
  8
0
 10
11.9268
 20
92.2559
 11
11.9004
 21
92.2666
  0
LINE
  8
0
 10
11.9004
 20
92.2666
 11
11.8496
 21
92.2881
  0
LINE
  8
0
 10
11.8496
 20
92.2881
 11
11.7988
 21
92.3115
  0
LINE
  8
0
 10
11.7988
 20
92.3115
 11
11.7734
 21
92.3242
  0
LINE
  8
0
 10
11.7734
 20
92.3242
 11
11.749
 21
92.3369
  0
LINE
  8
0
 10
11.749
 20
92.3369
 11
11.7002
 21
92.3643
  0
LINE
  8
0
 10
11.7002
 20
92.3643
 11
11.6758
 21
92.3789
  0
LINE
  8
0
 10
11.6758
 20
92.3789
 11
11.6289
 21
92.4082
  0
LINE
  8
0
 10
11.6289
 20
92.4082
 11
11.582
 21
92.4395
  0
LINE
  8
0
 10
11.582
 20
92.4395
 11
11.5146
 21
92.4893
  0
LINE
  8
0
 10
11.5146
 20
92.4893
 11
11.4502
 21
92.542
  0
LINE
  8
0
 10
11.4502
 20
92.542
 11
11.4297
 21
92.5605
  0
LINE
  8
0
 10
11.4297
 20
92.5605
 11
11.4092
 21
92.5801
  0
LINE
  8
0
 10
11.4092
 20
92.5801
 11
11.3887
 21
92.5986
  0
LINE
  8
0
 10
11.3887
 20
92.5986
 11
11.3682
 21
92.6182
  0
LINE
  8
0
 10
11.3682
 20
92.6182
 11
11.3486
 21
92.6387
  0
LINE
  8
0
 10
11.3486
 20
92.6387
 11
11.3301
 21
92.6592
  0
LINE
  8
0
 10
11.3301
 20
92.6592
 11
11.3105
 21
92.6797
  0
LINE
  8
0
 10
11.3105
 20
92.6797
 11
11.292
 21
92.7002
  0
LINE
  8
0
 10
11.292
 20
92.7002
 11
11.2393
 21
92.7646
  0
LINE
  8
0
 10
11.2393
 20
92.7646
 11
11.1895
 21
92.832
  0
LINE
  8
0
 10
11.1895
 20
92.832
 11
11.1582
 21
92.8789
  0
LINE
  8
0
 10
11.1582
 20
92.8789
 11
11.1289
 21
92.9258
  0
LINE
  8
0
 10
11.1289
 20
92.9258
 11
11.1143
 21
92.9502
  0
LINE
  8
0
 10
11.1143
 20
92.9502
 11
11.0869
 21
92.999
  0
LINE
  8
0
 10
11.0869
 20
92.999
 11
11.0742
 21
93.0234
  0
LINE
  8
0
 10
11.0742
 20
93.0234
 11
11.0615
 21
93.0488
  0
LINE
  8
0
 10
11.0615
 20
93.0488
 11
11.0381
 21
93.0996
  0
LINE
  8
0
 10
11.0381
 20
93.0996
 11
11.0166
 21
93.1504
  0
LINE
  8
0
 10
11.0166
 20
93.1504
 11
11.0059
 21
93.1768
  0
LINE
  8
0
 10
11.0059
 20
93.1768
 11
10.9961
 21
93.2031
  0
LINE
  8
0
 10
10.9961
 20
93.2031
 11
10.9697
 21
93.2822
  0
LINE
  8
0
 10
10.9697
 20
93.2822
 11
10.9619
 21
93.3086
  0
LINE
  8
0
 10
10.9619
 20
93.3086
 11
10.9541
 21
93.3359
  0
LINE
  8
0
 10
10.9541
 20
93.3359
 11
10.9473
 21
93.3633
  0
LINE
  8
0
 10
10.9473
 20
93.3633
 11
10.9414
 21
93.3896
  0
LINE
  8
0
 10
10.9414
 20
93.3896
 11
10.9346
 21
93.417
  0
LINE
  8
0
 10
10.9346
 20
93.417
 11
10.9297
 21
93.4443
  0
LINE
  8
0
 10
10.9297
 20
93.4443
 11
10.9238
 21
93.4717
  0
LINE
  8
0
 10
10.9238
 20
93.4717
 11
10.9199
 21
93.5
  0
LINE
  8
0
 10
10.9199
 20
93.5
 11
10.9121
 21
93.5547
  0
LINE
  8
0
 10
10.9121
 20
93.5547
 11
10.9092
 21
93.583
  0
LINE
  8
0
 10
10.9092
 20
93.583
 11
10.9062
 21
93.6104
  0
LINE
  8
0
 10
10.9062
 20
93.6104
 11
10.9043
 21
93.6387
  0
LINE
  8
0
 10
10.9043
 20
93.6387
 11
10.9023
 21
93.666
  0
LINE
  8
0
 10
10.9023
 20
93.666
 11
10.9004
 21
93.7217
  0
LINE
  8
0
 10
10.9004
 20
93.7217
 11
10.9004
 21
93.7783
  0
LINE
  8
0
 10
10.9004
 20
93.7783
 11
10.9023
 21
93.834
  0
LINE
  8
0
 10
10.9023
 20
93.834
 11
10.9043
 21
93.8613
  0
LINE
  8
0
 10
10.9043
 20
93.8613
 11
10.9062
 21
93.8896
  0
LINE
  8
0
 10
10.9062
 20
93.8896
 11
10.9092
 21
93.917
  0
LINE
  8
0
 10
10.9092
 20
93.917
 11
10.9121
 21
93.9453
  0
LINE
  8
0
 10
10.9121
 20
93.9453
 11
10.9199
 21
94
  0
LINE
  8
0
 10
10.9199
 20
94
 11
10.9238
 21
94.0283
  0
LINE
  8
0
 10
10.9238
 20
94.0283
 11
10.9297
 21
94.0557
  0
LINE
  8
0
 10
10.9297
 20
94.0557
 11
10.9346
 21
94.083
  0
LINE
  8
0
 10
10.9346
 20
94.083
 11
10.9414
 21
94.1104
  0
LINE
  8
0
 10
10.9414
 20
94.1104
 11
10.9473
 21
94.1367
  0
LINE
  8
0
 10
10.9473
 20
94.1367
 11
10.9541
 21
94.1641
  0
LINE
  8
0
 10
10.9541
 20
94.1641
 11
10.9619
 21
94.1914
  0
LINE
  8
0
 10
10.9619
 20
94.1914
 11
10.9697
 21
94.2178
  0
LINE
  8
0
 10
10.9697
 20
94.2178
 11
10.9961
 21
94.2969
  0
LINE
  8
0
 10
10.9961
 20
94.2969
 11
11.0059
 21
94.3232
  0
LINE
  8
0
 10
11.0059
 20
94.3232
 11
11.0166
 21
94.3496
  0
LINE
  8
0
 10
11.0166
 20
94.3496
 11
11.0381
 21
94.4004
  0
LINE
  8
0
 10
11.0381
 20
94.4004
 11
11.0615
 21
94.4512
  0
LINE
  8
0
 10
11.0615
 20
94.4512
 11
11.0742
 21
94.4766
  0
LINE
  8
0
 10
11.0742
 20
94.4766
 11
11.0869
 21
94.501
  0
LINE
  8
0
 10
11.0869
 20
94.501
 11
11.1143
 21
94.5498
  0
LINE
  8
0
 10
11.1143
 20
94.5498
 11
11.1289
 21
94.5742
  0
LINE
  8
0
 10
11.1289
 20
94.5742
 11
11.1582
 21
94.6211
  0
LINE
  8
0
 10
11.1582
 20
94.6211
 11
11.1895
 21
94.668
  0
LINE
  8
0
 10
11.1895
 20
94.668
 11
11.2393
 21
94.7354
  0
LINE
  8
0
 10
11.2393
 20
94.7354
 11
11.292
 21
94.7998
  0
LINE
  8
0
 10
11.292
 20
94.7998
 11
11.3105
 21
94.8203
  0
LINE
  8
0
 10
11.3105
 20
94.8203
 11
11.3301
 21
94.8408
  0
LINE
  8
0
 10
11.3301
 20
94.8408
 11
11.3486
 21
94.8613
  0
LINE
  8
0
 10
11.3486
 20
94.8613
 11
11.3682
 21
94.8818
  0
LINE
  8
0
 10
11.3682
 20
94.8818
 11
11.3887
 21
94.9014
  0
LINE
  8
0
 10
11.3887
 20
94.9014
 11
11.4092
 21
94.9199
  0
LINE
  8
0
 10
11.4092
 20
94.9199
 11
11.4297
 21
94.9395
  0
LINE
  8
0
 10
11.4297
 20
94.9395
 11
11.4502
 21
94.958
  0
LINE
  8
0
 10
11.4502
 20
94.958
 11
11.5146
 21
95.0107
  0
LINE
  8
0
 10
11.5146
 20
95.0107
 11
11.582
 21
95.0605
  0
LINE
  8
0
 10
11.582
 20
95.0605
 11
11.6289
 21
95.0918
  0
LINE
  8
0
 10
11.6289
 20
95.0918
 11
11.6758
 21
95.1211
  0
LINE
  8
0
 10
11.6758
 20
95.1211
 11
11.7002
 21
95.1357
  0
LINE
  8
0
 10
11.7002
 20
95.1357
 11
11.749
 21
95.1631
  0
LINE
  8
0
 10
11.749
 20
95.1631
 11
11.7734
 21
95.1758
  0
LINE
  8
0
 10
11.7734
 20
95.1758
 11
11.7988
 21
95.1885
  0
LINE
  8
0
 10
11.7988
 20
95.1885
 11
11.8496
 21
95.2119
  0
LINE
  8
0
 10
11.8496
 20
95.2119
 11
11.9004
 21
95.2334
  0
LINE
  8
0
 10
11.9004
 20
95.2334
 11
11.9268
 21
95.2441
  0
LINE
  8
0
 10
11.9268
 20
95.2441
 11
11.9531
 21
95.2539
  0
LINE
  8
0
 10
11.9531
 20
95.2539
 11
12.0322
 21
95.2803
  0
LINE
  8
0
 10
12.0322
 20
95.2803
 11
12.0586
 21
95.2881
  0
LINE
  8
0
 10
12.0586
 20
95.2881
 11
12.0859
 21
95.2959
  0
LINE
  8
0
 10
12.0859
 20
95.2959
 11
12.1133
 21
95.3027
  0
LINE
  8
0
 10
12.1133
 20
95.3027
 11
12.1396
 21
95.3086
  0
LINE
  8
0
 10
12.1396
 20
95.3086
 11
12.167
 21
95.3154
  0
LINE
  8
0
 10
12.167
 20
95.3154
 11
12.1943
 21
95.3203
  0
LINE
  8
0
 10
12.1943
 20
95.3203
 11
12.2217
 21
95.3262
  0
LINE
  8
0
 10
12.2217
 20
95.3262
 11
12.25
 21
95.3301
  0
LINE
  8
0
 10
12.25
 20
95.3301
 11
12.3047
 21
95.3379
  0
LINE
  8
0
 10
12.3047
 20
95.3379
 11
12.333
 21
95.3408
  0
LINE
  8
0
 10
12.333
 20
95.3408
 11
12.3604
 21
95.3438
  0
LINE
  8
0
 10
12.3604
 20
95.3438
 11
12.3887
 21
95.3457
  0
LINE
  8
0
 10
12.3887
 20
95.3457
 11
12.416
 21
95.3477
  0
LINE
  8
0
 10
12.416
 20
95.3477
 11
12.4717
 21
95.3496
  0
LINE
  8
0
 10
12.4717
 20
95.3496
 11
12.5283
 21
95.3496
  0
LINE
  8
0
 10
12.5283
 20
95.3496
 11
12.584
 21
95.3477
  0
LINE
  8
0
 10
12.584
 20
95.3477
 11
12.6113
 21
95.3457
  0
LINE
  8
0
 10
12.6113
 20
95.3457
 11
12.6396
 21
95.3438
  0
LINE
  8
0
 10
12.6396
 20
95.3438
 11
12.667
 21
95.3408
  0
LINE
  8
0
 10
12.667
 20
95.3408
 11
12.6953
 21
95.3379
  0
LINE
  8
0
 10
12.6953
 20
95.3379
 11
12.75
 21
95.3301
  0
LINE
  8
0
 10
12.75
 20
95.3301
 11
12.7783
 21
95.3262
  0
LINE
  8
0
 10
12.7783
 20
95.3262
 11
12.8057
 21
95.3203
  0
LINE
  8
0
 10
12.8057
 20
95.3203
 11
12.833
 21
95.3154
  0
LINE
  8
0
 10
12.833
 20
95.3154
 11
12.8604
 21
95.3086
  0
LINE
  8
0
 10
12.8604
 20
95.3086
 11
12.8867
 21
95.3027
  0
LINE
  8
0
 10
12.8867
 20
95.3027
 11
12.9141
 21
95.2959
  0
LINE
  8
0
 10
12.9141
 20
95.2959
 11
12.9414
 21
95.2881
  0
LINE
  8
0
 10
12.9414
 20
95.2881
 11
12.9678
 21
95.2803
  0
LINE
  8
0
 10
12.9678
 20
95.2803
 11
13.0469
 21
95.2539
  0
LINE
  8
0
 10
13.0469
 20
95.2539
 11
13.0732
 21
95.2441
  0
LINE
  8
0
 10
13.0732
 20
95.2441
 11
13.0996
 21
95.2334
  0
LINE
  8
0
 10
13.0996
 20
95.2334
 11
13.1504
 21
95.2119
  0
LINE
  8
0
 10
13.1504
 20
95.2119
 11
13.2012
 21
95.1885
  0
LINE
  8
0
 10
13.2012
 20
95.1885
 11
13.2266
 21
95.1758
  0
LINE
  8
0
 10
13.2266
 20
95.1758
 11
13.251
 21
95.1631
  0
LINE
  8
0
 10
13.251
 20
95.1631
 11
13.2998
 21
95.1357
  0
LINE
  8
0
 10
13.2998
 20
95.1357
 11
13.3242
 21
95.1211
  0
LINE
  8
0
 10
13.3242
 20
95.1211
 11
13.3711
 21
95.0918
  0
LINE
  8
0
 10
13.3711
 20
95.0918
 11
13.418
 21
95.0605
  0
LINE
  8
0
 10
13.418
 20
95.0605
 11
13.4854
 21
95.0107
  0
LINE
  8
0
 10
13.4854
 20
95.0107
 11
13.5498
 21
94.958
  0
LINE
  8
0
 10
13.5498
 20
94.958
 11
13.5703
 21
94.9395
  0
LINE
  8
0
 10
13.5703
 20
94.9395
 11
13.5908
 21
94.9199
  0
LINE
  8
0
 10
13.5908
 20
94.9199
 11
13.6113
 21
94.9014
  0
LINE
  8
0
 10
13.6113
 20
94.9014
 11
13.6318
 21
94.8818
  0
LINE
  8
0
 10
13.6318
 20
94.8818
 11
13.6514
 21
94.8613
  0
LINE
  8
0
 10
13.6514
 20
94.8613
 11
13.6699
 21
94.8408
  0
LINE
  8
0
 10
13.6699
 20
94.8408
 11
13.6895
 21
94.8203
  0
LINE
  8
0
 10
13.6895
 20
94.8203
 11
13.708
 21
94.7998
  0
LINE
  8
0
 10
13.708
 20
94.7998
 11
13.7607
 21
94.7354
  0
LINE
  8
0
 10
13.7607
 20
94.7354
 11
13.8105
 21
94.668
  0
LINE
  8
0
 10
13.8105
 20
94.668
 11
13.8418
 21
94.6211
  0
LINE
  8
0
 10
13.8418
 20
94.6211
 11
13.8711
 21
94.5742
  0
LINE
  8
0
 10
13.8711
 20
94.5742
 11
13.8857
 21
94.5498
  0
LINE
  8
0
 10
13.8857
 20
94.5498
 11
13.9131
 21
94.501
  0
LINE
  8
0
 10
13.9131
 20
94.501
 11
13.9258
 21
94.4766
  0
LINE
  8
0
 10
13.9258
 20
94.4766
 11
13.9385
 21
94.4512
  0
LINE
  8
0
 10
13.9385
 20
94.4512
 11
13.9619
 21
94.4004
  0
LINE
  8
0
 10
13.9619
 20
94.4004
 11
13.9834
 21
94.3496
  0
LINE
  8
0
 10
13.9834
 20
94.3496
 11
13.9941
 21
94.3232
  0
LINE
  8
0
 10
13.9941
 20
94.3232
 11
14.0039
 21
94.2969
  0
LINE
  8
0
 10
14.0039
 20
94.2969
 11
14.0303
 21
94.2178
  0
LINE
  8
0
 10
14.0303
 20
94.2178
 11
14.0381
 21
94.1914
  0
LINE
  8
0
 10
14.0381
 20
94.1914
 11
14.0459
 21
94.1641
  0
LINE
  8
0
 10
14.0459
 20
94.1641
 11
14.0527
 21
94.1367
  0
LINE
  8
0
 10
14.0527
 20
94.1367
 11
14.0586
 21
94.1104
  0
LINE
  8
0
 10
14.0586
 20
94.1104
 11
14.0654
 21
94.083
  0
LINE
  8
0
 10
14.0654
 20
94.083
 11
14.0703
 21
94.0557
  0
LINE
  8
0
 10
14.0703
 20
94.0557
 11
14.0762
 21
94.0283
  0
LINE
  8
0
 10
14.0762
 20
94.0283
 11
14.0801
 21
94
  0
LINE
  8
0
 10
14.0801
 20
94
 11
14.0879
 21
93.9453
  0
LINE
  8
0
 10
14.0879
 20
93.9453
 11
14.0908
 21
93.917
  0
LINE
  8
0
 10
14.0908
 20
93.917
 11
14.0938
 21
93.8896
  0
LINE
  8
0
 10
14.0938
 20
93.8896
 11
14.0957
 21
93.8613
  0
LINE
  8
0
 10
14.0957
 20
93.8613
 11
14.0977
 21
93.834
  0
LINE
  8
0
 10
14.0977
 20
93.834
 11
14.0996
 21
93.7783
  0
LINE
  8
0
 10
14.0996
 20
93.7783
 11
14.0996
 21
93.7217
  0
LINE
  8
0
 10
14.0996
 20
93.7217
 11
14.0977
 21
93.666
  0
LINE
  8
0
 10
14.0977
 20
93.666
 11
14.0957
 21
93.6387
  0
LINE
  8
0
 10
14.0957
 20
93.6387
 11
14.0938
 21
93.6104
  0
LINE
  8
0
 10
14.0938
 20
93.6104
 11
14.0908
 21
93.583
  0
LINE
  8
0
 10
14.0908
 20
93.583
 11
14.0879
 21
93.5547
  0
LINE
  8
0
 10
14.0879
 20
93.5547
 11
14.0801
 21
93.5
  0
LINE
  8
0
 10
14.0801
 20
93.5
 11
14.0762
 21
93.4717
  0
LINE
  8
0
 10
14.0762
 20
93.4717
 11
14.0703
 21
93.4443
  0
LINE
  8
0
 10
14.0703
 20
93.4443
 11
14.0654
 21
93.417
  0
LINE
  8
0
 10
14.0654
 20
93.417
 11
14.0586
 21
93.3896
  0
LINE
  8
0
 10
14.0586
 20
93.3896
 11
14.0527
 21
93.3633
  0
LINE
  8
0
 10
14.0527
 20
93.3633
 11
14.0459
 21
93.3359
  0
LINE
  8
0
 10
14.0459
 20
93.3359
 11
14.0381
 21
93.3086
  0
LINE
  8
0
 10
14.0381
 20
93.3086
 11
14.0303
 21
93.2822
  0
LINE
  8
0
 10
14.0303
 20
93.2822
 11
14.0039
 21
93.2031
  0
LINE
  8
0
 10
14.0039
 20
93.2031
 11
13.9941
 21
93.1768
  0
LINE
  8
0
 10
13.9941
 20
93.1768
 11
13.9834
 21
93.1504
  0
LINE
  8
0
 10
13.9834
 20
93.1504
 11
13.9619
 21
93.0996
  0
LINE
  8
0
 10
13.9619
 20
93.0996
 11
13.9385
 21
93.0488
  0
LINE
  8
0
 10
13.9385
 20
93.0488
 11
13.9258
 21
93.0234
  0
LINE
  8
0
 10
13.9258
 20
93.0234
 11
13.9131
 21
92.999
  0
LINE
  8
0
 10
13.9131
 20
92.999
 11
13.8857
 21
92.9502
  0
LINE
  8
0
 10
13.8857
 20
92.9502
 11
13.8711
 21
92.9258
  0
LINE
  8
0
 10
13.8711
 20
92.9258
 11
13.8418
 21
92.8789
  0
LINE
  8
0
 10
13.8418
 20
92.8789
 11
13.8105
 21
92.832
  0
LINE
  8
0
 10
13.8105
 20
92.832
 11
13.7607
 21
92.7646
  0
LINE
  8
0
 10
13.7607
 20
92.7646
 11
13.708
 21
92.7002
  0
LINE
  8
0
 10
13.708
 20
92.7002
 11
13.6895
 21
92.6797
  0
LINE
  8
0
 10
13.6895
 20
92.6797
 11
13.6699
 21
92.6592
  0
LINE
  8
0
 10
13.6699
 20
92.6592
 11
13.6514
 21
92.6387
  0
LINE
  8
0
 10
13.6514
 20
92.6387
 11
13.6318
 21
92.6182
  0
LINE
  8
0
 10
13.6318
 20
92.6182
 11
13.6113
 21
92.5986
  0
LINE
  8
0
 10
13.6113
 20
92.5986
 11
13.5908
 21
92.5801
  0
LINE
  8
0
 10
13.5908
 20
92.5801
 11
13.5703
 21
92.5605
  0
LINE
  8
0
 10
13.5703
 20
92.5605
 11
13.5498
 21
92.542
  0
LINE
  8
0
 10
13.5498
 20
92.542
 11
13.4854
 21
92.4893
  0
LINE
  8
0
 10
13.4854
 20
92.4893
 11
13.418
 21
92.4395
  0
LINE
  8
0
 10
13.418
 20
92.4395
 11
13.3711
 21
92.4082
  0
LINE
  8
0
 10
13.3711
 20
92.4082
 11
13.3242
 21
92.3789
  0
LINE
  8
0
 10
13.3242
 20
92.3789
 11
13.2998
 21
92.3643
  0
LINE
  8
0
 10
13.2998
 20
92.3643
 11
13.251
 21
92.3369
  0
LINE
  8
0
 10
13.251
 20
92.3369
 11
13.2266
 21
92.3242
  0
LINE
  8
0
 10
13.2266
 20
92.3242
 11
13.2012
 21
92.3115
  0
LINE
  8
0
 10
13.2012
 20
92.3115
 11
13.1504
 21
92.2881
  0
LINE
  8
0
 10
13.1504
 20
92.2881
 11
13.0996
 21
92.2666
  0
LINE
  8
0
 10
13.0996
 20
92.2666
 11
13.0732
 21
92.2559
  0
LINE
  8
0
 10
13.0732
 20
92.2559
 11
13.0469
 21
92.2461
  0
LINE
  8
0
 10
13.0469
 20
92.2461
 11
12.9678
 21
92.2197
  0
LINE
  8
0
 10
12.9678
 20
92.2197
 11
12.9414
 21
92.2119
  0
LINE
  8
0
 10
12.9414
 20
92.2119
 11
12.9141
 21
92.2041
  0
LINE
  8
0
 10
12.9141
 20
92.2041
 11
12.8867
 21
92.1973
  0
LINE
  8
0
 10
12.8867
 20
92.1973
 11
12.8604
 21
92.1914
  0
LINE
  8
0
 10
12.8604
 20
92.1914
 11
12.833
 21
92.1846
  0
LINE
  8
0
 10
12.833
 20
92.1846
 11
12.8057
 21
92.1797
  0
LINE
  8
0
 10
12.8057
 20
92.1797
 11
12.7783
 21
92.1738
  0
LINE
  8
0
 10
12.7783
 20
92.1738
 11
12.75
 21
92.1699
  0
LINE
  8
0
 10
12.75
 20
92.1699
 11
12.6953
 21
92.1621
  0
LINE
  8
0
 10
12.6953
 20
92.1621
 11
12.667
 21
92.1592
  0
LINE
  8
0
 10
12.667
 20
92.1592
 11
12.6396
 21
92.1562
  0
LINE
  8
0
 10
12.6396
 20
92.1562
 11
12.6113
 21
92.1543
  0
LINE
  8
0
 10
12.6113
 20
92.1543
 11
12.584
 21
92.1523
  0
LINE
  8
0
 10
12.584
 20
92.1523
 11
12.5283
 21
92.1504
  0
LINE
  8
0
 10
12.5283
 20
92.1504
 11
12.4717
 21
92.1504
  0
LINE
  8
0
 10
13.4717
 20
32.4004
 11
13.416
 21
32.4023
  0
LINE
  8
0
 10
13.416
 20
32.4023
 11
13.3887
 21
32.4043
  0
LINE
  8
0
 10
13.3887
 20
32.4043
 11
13.3604
 21
32.4062
  0
LINE
  8
0
 10
13.3604
 20
32.4062
 11
13.333
 21
32.4092
  0
LINE
  8
0
 10
13.333
 20
32.4092
 11
13.3047
 21
32.4121
  0
LINE
  8
0
 10
13.3047
 20
32.4121
 11
13.25
 21
32.4199
  0
LINE
  8
0
 10
13.25
 20
32.4199
 11
13.2217
 21
32.4238
  0
LINE
  8
0
 10
13.2217
 20
32.4238
 11
13.1943
 21
32.4297
  0
LINE
  8
0
 10
13.1943
 20
32.4297
 11
13.167
 21
32.4346
  0
LINE
  8
0
 10
13.167
 20
32.4346
 11
13.1396
 21
32.4414
  0
LINE
  8
0
 10
13.1396
 20
32.4414
 11
13.1133
 21
32.4473
  0
LINE
  8
0
 10
13.1133
 20
32.4473
 11
13.0859
 21
32.4541
  0
LINE
  8
0
 10
13.0859
 20
32.4541
 11
13.0586
 21
32.4619
  0
LINE
  8
0
 10
13.0586
 20
32.4619
 11
13.0322
 21
32.4697
  0
LINE
  8
0
 10
13.0322
 20
32.4697
 11
12.9531
 21
32.4961
  0
LINE
  8
0
 10
12.9531
 20
32.4961
 11
12.9268
 21
32.5059
  0
LINE
  8
0
 10
12.9268
 20
32.5059
 11
12.9004
 21
32.5166
  0
LINE
  8
0
 10
12.9004
 20
32.5166
 11
12.8496
 21
32.5381
  0
LINE
  8
0
 10
12.8496
 20
32.5381
 11
12.7988
 21
32.5615
  0
LINE
  8
0
 10
12.7988
 20
32.5615
 11
12.7734
 21
32.5742
  0
LINE
  8
0
 10
12.7734
 20
32.5742
 11
12.749
 21
32.5869
  0
LINE
  8
0
 10
12.749
 20
32.5869
 11
12.7002
 21
32.6143
  0
LINE
  8
0
 10
12.7002
 20
32.6143
 11
12.6758
 21
32.6289
  0
LINE
  8
0
 10
12.6758
 20
32.6289
 11
12.6289
 21
32.6582
  0
LINE
  8
0
 10
12.6289
 20
32.6582
 11
12.582
 21
32.6895
  0
LINE
  8
0
 10
12.582
 20
32.6895
 11
12.5146
 21
32.7393
  0
LINE
  8
0
 10
12.5146
 20
32.7393
 11
12.4502
 21
32.792
  0
LINE
  8
0
 10
12.4502
 20
32.792
 11
12.4297
 21
32.8105
  0
LINE
  8
0
 10
12.4297
 20
32.8105
 11
12.4092
 21
32.8301
  0
LINE
  8
0
 10
12.4092
 20
32.8301
 11
12.3887
 21
32.8486
  0
LINE
  8
0
 10
12.3887
 20
32.8486
 11
12.3682
 21
32.8682
  0
LINE
  8
0
 10
12.3682
 20
32.8682
 11
12.3486
 21
32.8887
  0
LINE
  8
0
 10
12.3486
 20
32.8887
 11
12.3301
 21
32.9092
  0
LINE
  8
0
 10
12.3301
 20
32.9092
 11
12.3105
 21
32.9297
  0
LINE
  8
0
 10
12.3105
 20
32.9297
 11
12.292
 21
32.9502
  0
LINE
  8
0
 10
12.292
 20
32.9502
 11
12.2393
 21
33.0146
  0
LINE
  8
0
 10
12.2393
 20
33.0146
 11
12.1895
 21
33.082
  0
LINE
  8
0
 10
12.1895
 20
33.082
 11
12.1582
 21
33.1289
  0
LINE
  8
0
 10
12.1582
 20
33.1289
 11
12.1289
 21
33.1758
  0
LINE
  8
0
 10
12.1289
 20
33.1758
 11
12.1143
 21
33.2002
  0
LINE
  8
0
 10
12.1143
 20
33.2002
 11
12.0869
 21
33.249
  0
LINE
  8
0
 10
12.0869
 20
33.249
 11
12.0742
 21
33.2734
  0
LINE
  8
0
 10
12.0742
 20
33.2734
 11
12.0615
 21
33.2988
  0
LINE
  8
0
 10
12.0615
 20
33.2988
 11
12.0381
 21
33.3496
  0
LINE
  8
0
 10
12.0381
 20
33.3496
 11
12.0166
 21
33.4004
  0
LINE
  8
0
 10
12.0166
 20
33.4004
 11
12.0059
 21
33.4268
  0
LINE
  8
0
 10
12.0059
 20
33.4268
 11
11.9961
 21
33.4531
  0
LINE
  8
0
 10
11.9961
 20
33.4531
 11
11.9697
 21
33.5322
  0
LINE
  8
0
 10
11.9697
 20
33.5322
 11
11.9619
 21
33.5586
  0
LINE
  8
0
 10
11.9619
 20
33.5586
 11
11.9541
 21
33.5859
  0
LINE
  8
0
 10
11.9541
 20
33.5859
 11
11.9473
 21
33.6133
  0
LINE
  8
0
 10
11.9473
 20
33.6133
 11
11.9414
 21
33.6396
  0
LINE
  8
0
 10
11.9414
 20
33.6396
 11
11.9346
 21
33.667
  0
LINE
  8
0
 10
11.9346
 20
33.667
 11
11.9297
 21
33.6943
  0
LINE
  8
0
 10
11.9297
 20
33.6943
 11
11.9238
 21
33.7217
  0
LINE
  8
0
 10
11.9238
 20
33.7217
 11
11.9199
 21
33.75
  0
LINE
  8
0
 10
11.9199
 20
33.75
 11
11.9121
 21
33.8047
  0
LINE
  8
0
 10
11.9121
 20
33.8047
 11
11.9092
 21
33.833
  0
LINE
  8
0
 10
11.9092
 20
33.833
 11
11.9062
 21
33.8604
  0
LINE
  8
0
 10
11.9062
 20
33.8604
 11
11.9043
 21
33.8887
  0
LINE
  8
0
 10
11.9043
 20
33.8887
 11
11.9023
 21
33.916
  0
LINE
  8
0
 10
11.9023
 20
33.916
 11
11.9004
 21
33.9717
  0
LINE
  8
0
 10
11.9004
 20
33.9717
 11
11.9004
 21
34.0283
  0
LINE
  8
0
 10
11.9004
 20
34.0283
 11
11.9023
 21
34.084
  0
LINE
  8
0
 10
11.9023
 20
34.084
 11
11.9043
 21
34.1113
  0
LINE
  8
0
 10
11.9043
 20
34.1113
 11
11.9062
 21
34.1396
  0
LINE
  8
0
 10
11.9062
 20
34.1396
 11
11.9092
 21
34.167
  0
LINE
  8
0
 10
11.9092
 20
34.167
 11
11.9121
 21
34.1953
  0
LINE
  8
0
 10
11.9121
 20
34.1953
 11
11.9199
 21
34.25
  0
LINE
  8
0
 10
11.9199
 20
34.25
 11
11.9238
 21
34.2783
  0
LINE
  8
0
 10
11.9238
 20
34.2783
 11
11.9297
 21
34.3057
  0
LINE
  8
0
 10
11.9297
 20
34.3057
 11
11.9346
 21
34.333
  0
LINE
  8
0
 10
11.9346
 20
34.333
 11
11.9414
 21
34.3604
  0
LINE
  8
0
 10
11.9414
 20
34.3604
 11
11.9473
 21
34.3867
  0
LINE
  8
0
 10
11.9473
 20
34.3867
 11
11.9541
 21
34.4141
  0
LINE
  8
0
 10
11.9541
 20
34.4141
 11
11.9619
 21
34.4414
  0
LINE
  8
0
 10
11.9619
 20
34.4414
 11
11.9697
 21
34.4678
  0
LINE
  8
0
 10
11.9697
 20
34.4678
 11
11.9961
 21
34.5469
  0
LINE
  8
0
 10
11.9961
 20
34.5469
 11
12.0059
 21
34.5732
  0
LINE
  8
0
 10
12.0059
 20
34.5732
 11
12.0166
 21
34.5996
  0
LINE
  8
0
 10
12.0166
 20
34.5996
 11
12.0381
 21
34.6504
  0
LINE
  8
0
 10
12.0381
 20
34.6504
 11
12.0615
 21
34.7012
  0
LINE
  8
0
 10
12.0615
 20
34.7012
 11
12.0742
 21
34.7266
  0
LINE
  8
0
 10
12.0742
 20
34.7266
 11
12.0869
 21
34.751
  0
LINE
  8
0
 10
12.0869
 20
34.751
 11
12.1143
 21
34.7998
  0
LINE
  8
0
 10
12.1143
 20
34.7998
 11
12.1289
 21
34.8242
  0
LINE
  8
0
 10
12.1289
 20
34.8242
 11
12.1582
 21
34.8711
  0
LINE
  8
0
 10
12.1582
 20
34.8711
 11
12.1895
 21
34.918
  0
LINE
  8
0
 10
12.1895
 20
34.918
 11
12.2393
 21
34.9854
  0
LINE
  8
0
 10
12.2393
 20
34.9854
 11
12.292
 21
35.0498
  0
LINE
  8
0
 10
12.292
 20
35.0498
 11
12.3105
 21
35.0703
  0
LINE
  8
0
 10
12.3105
 20
35.0703
 11
12.3301
 21
35.0908
  0
LINE
  8
0
 10
12.3301
 20
35.0908
 11
12.3486
 21
35.1113
  0
LINE
  8
0
 10
12.3486
 20
35.1113
 11
12.3682
 21
35.1318
  0
LINE
  8
0
 10
12.3682
 20
35.1318
 11
12.3887
 21
35.1514
  0
LINE
  8
0
 10
12.3887
 20
35.1514
 11
12.4092
 21
35.1699
  0
LINE
  8
0
 10
12.4092
 20
35.1699
 11
12.4297
 21
35.1895
  0
LINE
  8
0
 10
12.4297
 20
35.1895
 11
12.4502
 21
35.208
  0
LINE
  8
0
 10
12.4502
 20
35.208
 11
12.5146
 21
35.2607
  0
LINE
  8
0
 10
12.5146
 20
35.2607
 11
12.582
 21
35.3105
  0
LINE
  8
0
 10
12.582
 20
35.3105
 11
12.6289
 21
35.3418
  0
LINE
  8
0
 10
12.6289
 20
35.3418
 11
12.6758
 21
35.3711
  0
LINE
  8
0
 10
12.6758
 20
35.3711
 11
12.7002
 21
35.3857
  0
LINE
  8
0
 10
12.7002
 20
35.3857
 11
12.749
 21
35.4131
  0
LINE
  8
0
 10
12.749
 20
35.4131
 11
12.7734
 21
35.4258
  0
LINE
  8
0
 10
12.7734
 20
35.4258
 11
12.7988
 21
35.4385
  0
LINE
  8
0
 10
12.7988
 20
35.4385
 11
12.8496
 21
35.4619
  0
LINE
  8
0
 10
12.8496
 20
35.4619
 11
12.9004
 21
35.4834
  0
LINE
  8
0
 10
12.9004
 20
35.4834
 11
12.9268
 21
35.4941
  0
LINE
  8
0
 10
12.9268
 20
35.4941
 11
12.9531
 21
35.5039
  0
LINE
  8
0
 10
12.9531
 20
35.5039
 11
13.0322
 21
35.5303
  0
LINE
  8
0
 10
13.0322
 20
35.5303
 11
13.0586
 21
35.5381
  0
LINE
  8
0
 10
13.0586
 20
35.5381
 11
13.0859
 21
35.5459
  0
LINE
  8
0
 10
13.0859
 20
35.5459
 11
13.1133
 21
35.5527
  0
LINE
  8
0
 10
13.1133
 20
35.5527
 11
13.1396
 21
35.5586
  0
LINE
  8
0
 10
13.1396
 20
35.5586
 11
13.167
 21
35.5654
  0
LINE
  8
0
 10
13.167
 20
35.5654
 11
13.1943
 21
35.5703
  0
LINE
  8
0
 10
13.1943
 20
35.5703
 11
13.2217
 21
35.5762
  0
LINE
  8
0
 10
13.2217
 20
35.5762
 11
13.25
 21
35.5801
  0
LINE
  8
0
 10
13.25
 20
35.5801
 11
13.3047
 21
35.5879
  0
LINE
  8
0
 10
13.3047
 20
35.5879
 11
13.333
 21
35.5908
  0
LINE
  8
0
 10
13.333
 20
35.5908
 11
13.3604
 21
35.5938
  0
LINE
  8
0
 10
13.3604
 20
35.5938
 11
13.3887
 21
35.5957
  0
LINE
  8
0
 10
13.3887
 20
35.5957
 11
13.416
 21
35.5977
  0
LINE
  8
0
 10
13.416
 20
35.5977
 11
13.4717
 21
35.5996
  0
LINE
  8
0
 10
13.4717
 20
35.5996
 11
13.5283
 21
35.5996
  0
LINE
  8
0
 10
13.5283
 20
35.5996
 11
13.584
 21
35.5977
  0
LINE
  8
0
 10
13.584
 20
35.5977
 11
13.6113
 21
35.5957
  0
LINE
  8
0
 10
13.6113
 20
35.5957
 11
13.6396
 21
35.5938
  0
LINE
  8
0
 10
13.6396
 20
35.5938
 11
13.667
 21
35.5908
  0
LINE
  8
0
 10
13.667
 20
35.5908
 11
13.6953
 21
35.5879
  0
LINE
  8
0
 10
13.6953
 20
35.5879
 11
13.75
 21
35.5801
  0
LINE
  8
0
 10
13.75
 20
35.5801
 11
13.7783
 21
35.5762
  0
LINE
  8
0
 10
13.7783
 20
35.5762
 11
13.8057
 21
35.5703
  0
LINE
  8
0
 10
13.8057
 20
35.5703
 11
13.833
 21
35.5654
  0
LINE
  8
0
 10
13.833
 20
35.5654
 11
13.8604
 21
35.5586
  0
LINE
  8
0
 10
13.8604
 20
35.5586
 11
13.8867
 21
35.5527
  0
LINE
  8
0
 10
13.8867
 20
35.5527
 11
13.9141
 21
35.5459
  0
LINE
  8
0
 10
13.9141
 20
35.5459
 11
13.9414
 21
35.5381
  0
LINE
  8
0
 10
13.9414
 20
35.5381
 11
13.9678
 21
35.5303
  0
LINE
  8
0
 10
13.9678
 20
35.5303
 11
14.0469
 21
35.5039
  0
LINE
  8
0
 10
14.0469
 20
35.5039
 11
14.0732
 21
35.4941
  0
LINE
  8
0
 10
14.0732
 20
35.4941
 11
14.0996
 21
35.4834
  0
LINE
  8
0
 10
14.0996
 20
35.4834
 11
14.1504
 21
35.4619
  0
LINE
  8
0
 10
14.1504
 20
35.4619
 11
14.2012
 21
35.4385
  0
LINE
  8
0
 10
14.2012
 20
35.4385
 11
14.2266
 21
35.4258
  0
LINE
  8
0
 10
14.2266
 20
35.4258
 11
14.251
 21
35.4131
  0
LINE
  8
0
 10
14.251
 20
35.4131
 11
14.2998
 21
35.3857
  0
LINE
  8
0
 10
14.2998
 20
35.3857
 11
14.3242
 21
35.3711
  0
LINE
  8
0
 10
14.3242
 20
35.3711
 11
14.3711
 21
35.3418
  0
LINE
  8
0
 10
14.3711
 20
35.3418
 11
14.418
 21
35.3105
  0
LINE
  8
0
 10
14.418
 20
35.3105
 11
14.4854
 21
35.2607
  0
LINE
  8
0
 10
14.4854
 20
35.2607
 11
14.5498
 21
35.208
  0
LINE
  8
0
 10
14.5498
 20
35.208
 11
14.5703
 21
35.1895
  0
LINE
  8
0
 10
14.5703
 20
35.1895
 11
14.5908
 21
35.1699
  0
LINE
  8
0
 10
14.5908
 20
35.1699
 11
14.6113
 21
35.1514
  0
LINE
  8
0
 10
14.6113
 20
35.1514
 11
14.6318
 21
35.1318
  0
LINE
  8
0
 10
14.6318
 20
35.1318
 11
14.6514
 21
35.1113
  0
LINE
  8
0
 10
14.6514
 20
35.1113
 11
14.6699
 21
35.0908
  0
LINE
  8
0
 10
14.6699
 20
35.0908
 11
14.6895
 21
35.0703
  0
LINE
  8
0
 10
14.6895
 20
35.0703
 11
14.708
 21
35.0498
  0
LINE
  8
0
 10
14.708
 20
35.0498
 11
14.7607
 21
34.9854
  0
LINE
  8
0
 10
14.7607
 20
34.9854
 11
14.8105
 21
34.918
  0
LINE
  8
0
 10
14.8105
 20
34.918
 11
14.8418
 21
34.8711
  0
LINE
  8
0
 10
14.8418
 20
34.8711
 11
14.8711
 21
34.8242
  0
LINE
  8
0
 10
14.8711
 20
34.8242
 11
14.8857
 21
34.7998
  0
LINE
  8
0
 10
14.8857
 20
34.7998
 11
14.9131
 21
34.751
  0
LINE
  8
0
 10
14.9131
 20
34.751
 11
14.9258
 21
34.7266
  0
LINE
  8
0
 10
14.9258
 20
34.7266
 11
14.9385
 21
34.7012
  0
LINE
  8
0
 10
14.9385
 20
34.7012
 11
14.9619
 21
34.6504
  0
LINE
  8
0
 10
14.9619
 20
34.6504
 11
14.9834
 21
34.5996
  0
LINE
  8
0
 10
14.9834
 20
34.5996
 11
14.9941
 21
34.5732
  0
LINE
  8
0
 10
14.9941
 20
34.5732
 11
15.0039
 21
34.5469
  0
LINE
  8
0
 10
15.0039
 20
34.5469
 11
15.0303
 21
34.4678
  0
LINE
  8
0
 10
15.0303
 20
34.4678
 11
15.0381
 21
34.4414
  0
LINE
  8
0
 10
15.0381
 20
34.4414
 11
15.0459
 21
34.4141
  0
LINE
  8
0
 10
15.0459
 20
34.4141
 11
15.0527
 21
34.3867
  0
LINE
  8
0
 10
15.0527
 20
34.3867
 11
15.0586
 21
34.3604
  0
LINE
  8
0
 10
15.0586
 20
34.3604
 11
15.0654
 21
34.333
  0
LINE
  8
0
 10
15.0654
 20
34.333
 11
15.0703
 21
34.3057
  0
LINE
  8
0
 10
15.0703
 20
34.3057
 11
15.0762
 21
34.2783
  0
LINE
  8
0
 10
15.0762
 20
34.2783
 11
15.0801
 21
34.25
  0
LINE
  8
0
 10
15.0801
 20
34.25
 11
15.0879
 21
34.1953
  0
LINE
  8
0
 10
15.0879
 20
34.1953
 11
15.0908
 21
34.167
  0
LINE
  8
0
 10
15.0908
 20
34.167
 11
15.0938
 21
34.1396
  0
LINE
  8
0
 10
15.0938
 20
34.1396
 11
15.0957
 21
34.1113
  0
LINE
  8
0
 10
15.0957
 20
34.1113
 11
15.0977
 21
34.084
  0
LINE
  8
0
 10
15.0977
 20
34.084
 11
15.0996
 21
34.0283
  0
LINE
  8
0
 10
15.0996
 20
34.0283
 11
15.0996
 21
33.9717
  0
LINE
  8
0
 10
15.0996
 20
33.9717
 11
15.0977
 21
33.916
  0
LINE
  8
0
 10
15.0977
 20
33.916
 11
15.0957
 21
33.8887
  0
LINE
  8
0
 10
15.0957
 20
33.8887
 11
15.0938
 21
33.8604
  0
LINE
  8
0
 10
15.0938
 20
33.8604
 11
15.0908
 21
33.833
  0
LINE
  8
0
 10
15.0908
 20
33.833
 11
15.0879
 21
33.8047
  0
LINE
  8
0
 10
15.0879
 20
33.8047
 11
15.0801
 21
33.75
  0
LINE
  8
0
 10
15.0801
 20
33.75
 11
15.0762
 21
33.7217
  0
LINE
  8
0
 10
15.0762
 20
33.7217
 11
15.0703
 21
33.6943
  0
LINE
  8
0
 10
15.0703
 20
33.6943
 11
15.0654
 21
33.667
  0
LINE
  8
0
 10
15.0654
 20
33.667
 11
15.0586
 21
33.6396
  0
LINE
  8
0
 10
15.0586
 20
33.6396
 11
15.0527
 21
33.6133
  0
LINE
  8
0
 10
15.0527
 20
33.6133
 11
15.0459
 21
33.5859
  0
LINE
  8
0
 10
15.0459
 20
33.5859
 11
15.0381
 21
33.5586
  0
LINE
  8
0
 10
15.0381
 20
33.5586
 11
15.0303
 21
33.5322
  0
LINE
  8
0
 10
15.0303
 20
33.5322
 11
15.0039
 21
33.4531
  0
LINE
  8
0
 10
15.0039
 20
33.4531
 11
14.9941
 21
33.4268
  0
LINE
  8
0
 10
14.9941
 20
33.4268
 11
14.9834
 21
33.4004
  0
LINE
  8
0
 10
14.9834
 20
33.4004
 11
14.9619
 21
33.3496
  0
LINE
  8
0
 10
14.9619
 20
33.3496
 11
14.9385
 21
33.2988
  0
LINE
  8
0
 10
14.9385
 20
33.2988
 11
14.9258
 21
33.2734
  0
LINE
  8
0
 10
14.9258
 20
33.2734
 11
14.9131
 21
33.249
  0
LINE
  8
0
 10
14.9131
 20
33.249
 11
14.8857
 21
33.2002
  0
LINE
  8
0
 10
14.8857
 20
33.2002
 11
14.8711
 21
33.1758
  0
LINE
  8
0
 10
14.8711
 20
33.1758
 11
14.8418
 21
33.1289
  0
LINE
  8
0
 10
14.8418
 20
33.1289
 11
14.8105
 21
33.082
  0
LINE
  8
0
 10
14.8105
 20
33.082
 11
14.7607
 21
33.0146
  0
LINE
  8
0
 10
14.7607
 20
33.0146
 11
14.708
 21
32.9502
  0
LINE
  8
0
 10
14.708
 20
32.9502
 11
14.6895
 21
32.9297
  0
LINE
  8
0
 10
14.6895
 20
32.9297
 11
14.6699
 21
32.9092
  0
LINE
  8
0
 10
14.6699
 20
32.9092
 11
14.6514
 21
32.8887
  0
LINE
  8
0
 10
14.6514
 20
32.8887
 11
14.6318
 21
32.8682
  0
LINE
  8
0
 10
14.6318
 20
32.8682
 11
14.6113
 21
32.8486
  0
LINE
  8
0
 10
14.6113
 20
32.8486
 11
14.5908
 21
32.8301
  0
LINE
  8
0
 10
14.5908
 20
32.8301
 11
14.5703
 21
32.8105
  0
LINE
  8
0
 10
14.5703
 20
32.8105
 11
14.5498
 21
32.792
  0
LINE
  8
0
 10
14.5498
 20
32.792
 11
14.4854
 21
32.7393
  0
LINE
  8
0
 10
14.4854
 20
32.7393
 11
14.418
 21
32.6895
  0
LINE
  8
0
 10
14.418
 20
32.6895
 11
14.3711
 21
32.6582
  0
LINE
  8
0
 10
14.3711
 20
32.6582
 11
14.3242
 21
32.6289
  0
LINE
  8
0
 10
14.3242
 20
32.6289
 11
14.2998
 21
32.6143
  0
LINE
  8
0
 10
14.2998
 20
32.6143
 11
14.251
 21
32.5869
  0
LINE
  8
0
 10
14.251
 20
32.5869
 11
14.2266
 21
32.5742
  0
LINE
  8
0
 10
14.2266
 20
32.5742
 11
14.2012
 21
32.5615
  0
LINE
  8
0
 10
14.2012
 20
32.5615
 11
14.1504
 21
32.5381
  0
LINE
  8
0
 10
14.1504
 20
32.5381
 11
14.0996
 21
32.5166
  0
LINE
  8
0
 10
14.0996
 20
32.5166
 11
14.0732
 21
32.5059
  0
LINE
  8
0
 10
14.0732
 20
32.5059
 11
14.0469
 21
32.4961
  0
LINE
  8
0
 10
14.0469
 20
32.4961
 11
13.9678
 21
32.4697
  0
LINE
  8
0
 10
13.9678
 20
32.4697
 11
13.9414
 21
32.4619
  0
LINE
  8
0
 10
13.9414
 20
32.4619
 11
13.9141
 21
32.4541
  0
LINE
  8
0
 10
13.9141
 20
32.4541
 11
13.8867
 21
32.4473
  0
LINE
  8
0
 10
13.8867
 20
32.4473
 11
13.8604
 21
32.4414
  0
LINE
  8
0
 10
13.8604
 20
32.4414
 11
13.833
 21
32.4346
  0
LINE
  8
0
 10
13.833
 20
32.4346
 11
13.8057
 21
32.4297
  0
LINE
  8
0
 10
13.8057
 20
32.4297
 11
13.7783
 21
32.4238
  0
LINE
  8
0
 10
13.7783
 20
32.4238
 11
13.75
 21
32.4199
  0
LINE
  8
0
 10
13.75
 20
32.4199
 11
13.6953
 21
32.4121
  0
LINE
  8
0
 10
13.6953
 20
32.4121
 11
13.667
 21
32.4092
  0
LINE
  8
0
 10
13.667
 20
32.4092
 11
13.6396
 21
32.4062
  0
LINE
  8
0
 10
13.6396
 20
32.4062
 11
13.6113
 21
32.4043
  0
LINE
  8
0
 10
13.6113
 20
32.4043
 11
13.584
 21
32.4023
  0
LINE
  8
0
 10
13.584
 20
32.4023
 11
13.5283
 21
32.4004
  0
LINE
  8
0
 10
13.5283
 20
32.4004
 11
13.4717
 21
32.4004
  0
LINE
  8
0
 10
87.4717
 20
32.4004
 11
87.416
 21
32.4023
  0
LINE
  8
0
 10
87.416
 20
32.4023
 11
87.3887
 21
32.4043
  0
LINE
  8
0
 10
87.3887
 20
32.4043
 11
87.3604
 21
32.4062
  0
LINE
  8
0
 10
87.3604
 20
32.4062
 11
87.333
 21
32.4092
  0
LINE
  8
0
 10
87.333
 20
32.4092
 11
87.3047
 21
32.4121
  0
LINE
  8
0
 10
87.3047
 20
32.4121
 11
87.25
 21
32.4199
  0
LINE
  8
0
 10
87.25
 20
32.4199
 11
87.2217
 21
32.4238
  0
LINE
  8
0
 10
87.2217
 20
32.4238
 11
87.1943
 21
32.4297
  0
LINE
  8
0
 10
87.1943
 20
32.4297
 11
87.167
 21
32.4346
  0
LINE
  8
0
 10
87.167
 20
32.4346
 11
87.1396
 21
32.4414
  0
LINE
  8
0
 10
87.1396
 20
32.4414
 11
87.1133
 21
32.4473
  0
LINE
  8
0
 10
87.1133
 20
32.4473
 11
87.0859
 21
32.4541
  0
LINE
  8
0
 10
87.0859
 20
32.4541
 11
87.0586
 21
32.4619
  0
LINE
  8
0
 10
87.0586
 20
32.4619
 11
87.0322
 21
32.4697
  0
LINE
  8
0
 10
87.0322
 20
32.4697
 11
86.9531
 21
32.4961
  0
LINE
  8
0
 10
86.9531
 20
32.4961
 11
86.9268
 21
32.5059
  0
LINE
  8
0
 10
86.9268
 20
32.5059
 11
86.9004
 21
32.5166
  0
LINE
  8
0
 10
86.9004
 20
32.5166
 11
86.8496
 21
32.5381
  0
LINE
  8
0
 10
86.8496
 20
32.5381
 11
86.7988
 21
32.5615
  0
LINE
  8
0
 10
86.7988
 20
32.5615
 11
86.7734
 21
32.5742
  0
LINE
  8
0
 10
86.7734
 20
32.5742
 11
86.749
 21
32.5869
  0
LINE
  8
0
 10
86.749
 20
32.5869
 11
86.7002
 21
32.6143
  0
LINE
  8
0
 10
86.7002
 20
32.6143
 11
86.6758
 21
32.6289
  0
LINE
  8
0
 10
86.6758
 20
32.6289
 11
86.6289
 21
32.6582
  0
LINE
  8
0
 10
86.6289
 20
32.6582
 11
86.582
 21
32.6895
  0
LINE
  8
0
 10
86.582
 20
32.6895
 11
86.5146
 21
32.7393
  0
LINE
  8
0
 10
86.5146
 20
32.7393
 11
86.4502
 21
32.792
  0
LINE
  8
0
 10
86.4502
 20
32.792
 11
86.4297
 21
32.8105
  0
LINE
  8
0
 10
86.4297
 20
32.8105
 11
86.4092
 21
32.8301
  0
LINE
  8
0
 10
86.4092
 20
32.8301
 11
86.3887
 21
32.8486
  0
LINE
  8
0
 10
86.3887
 20
32.8486
 11
86.3682
 21
32.8682
  0
LINE
  8
0
 10
86.3682
 20
32.8682
 11
86.3486
 21
32.8887
  0
LINE
  8
0
 10
86.3486
 20
32.8887
 11
86.3301
 21
32.9092
  0
LINE
  8
0
 10
86.3301
 20
32.9092
 11
86.3105
 21
32.9297
  0
LINE
  8
0
 10
86.3105
 20
32.9297
 11
86.292
 21
32.9502
  0
LINE
  8
0
 10
86.292
 20
32.9502
 11
86.2393
 21
33.0146
  0
LINE
  8
0
 10
86.2393
 20
33.0146
 11
86.1895
 21
33.082
  0
LINE
  8
0
 10
86.1895
 20
33.082
 11
86.1582
 21
33.1289
  0
LINE
  8
0
 10
86.1582
 20
33.1289
 11
86.1289
 21
33.1758
  0
LINE
  8
0
 10
86.1289
 20
33.1758
 11
86.1143
 21
33.2002
  0
LINE
  8
0
 10
86.1143
 20
33.2002
 11
86.0869
 21
33.249
  0
LINE
  8
0
 10
86.0869
 20
33.249
 11
86.0742
 21
33.2734
  0
LINE
  8
0
 10
86.0742
 20
33.2734
 11
86.0615
 21
33.2988
  0
LINE
  8
0
 10
86.0615
 20
33.2988
 11
86.0381
 21
33.3496
  0
LINE
  8
0
 10
86.0381
 20
33.3496
 11
86.0166
 21
33.4004
  0
LINE
  8
0
 10
86.0166
 20
33.4004
 11
86.0059
 21
33.4268
  0
LINE
  8
0
 10
86.0059
 20
33.4268
 11
85.9961
 21
33.4531
  0
LINE
  8
0
 10
85.9961
 20
33.4531
 11
85.9697
 21
33.5322
  0
LINE
  8
0
 10
85.9697
 20
33.5322
 11
85.9619
 21
33.5586
  0
LINE
  8
0
 10
85.9619
 20
33.5586
 11
85.9541
 21
33.5859
  0
LINE
  8
0
 10
85.9541
 20
33.5859
 11
85.9473
 21
33.6133
  0
LINE
  8
0
 10
85.9473
 20
33.6133
 11
85.9414
 21
33.6396
  0
LINE
  8
0
 10
85.9414
 20
33.6396
 11
85.9346
 21
33.667
  0
LINE
  8
0
 10
85.9346
 20
33.667
 11
85.9297
 21
33.6943
  0
LINE
  8
0
 10
85.9297
 20
33.6943
 11
85.9238
 21
33.7217
  0
LINE
  8
0
 10
85.9238
 20
33.7217
 11
85.9199
 21
33.75
  0
LINE
  8
0
 10
85.9199
 20
33.75
 11
85.9121
 21
33.8047
  0
LINE
  8
0
 10
85.9121
 20
33.8047
 11
85.9092
 21
33.833
  0
LINE
  8
0
 10
85.9092
 20
33.833
 11
85.9062
 21
33.8604
  0
LINE
  8
0
 10
85.9062
 20
33.8604
 11
85.9043
 21
33.8887
  0
LINE
  8
0
 10
85.9043
 20
33.8887
 11
85.9023
 21
33.916
  0
LINE
  8
0
 10
85.9023
 20
33.916
 11
85.9004
 21
33.9717
  0
LINE
  8
0
 10
85.9004
 20
33.9717
 11
85.9004
 21
34.0283
  0
LINE
  8
0
 10
85.9004
 20
34.0283
 11
85.9023
 21
34.084
  0
LINE
  8
0
 10
85.9023
 20
34.084
 11
85.9043
 21
34.1113
  0
LINE
  8
0
 10
85.9043
 20
34.1113
 11
85.9062
 21
34.1396
  0
LINE
  8
0
 10
85.9062
 20
34.1396
 11
85.9092
 21
34.167
  0
LINE
  8
0
 10
85.9092
 20
34.167
 11
85.9121
 21
34.1953
  0
LINE
  8
0
 10
85.9121
 20
34.1953
 11
85.9199
 21
34.25
  0
LINE
  8
0
 10
85.9199
 20
34.25
 11
85.9238
 21
34.2783
  0
LINE
  8
0
 10
85.9238
 20
34.2783
 11
85.9297
 21
34.3057
  0
LINE
  8
0
 10
85.9297
 20
34.3057
 11
85.9346
 21
34.333
  0
LINE
  8
0
 10
85.9346
 20
34.333
 11
85.9414
 21
34.3604
  0
LINE
  8
0
 10
85.9414
 20
34.3604
 11
85.9473
 21
34.3867
  0
LINE
  8
0
 10
85.9473
 20
34.3867
 11
85.9541
 21
34.4141
  0
LINE
  8
0
 10
85.9541
 20
34.4141
 11
85.9619
 21
34.4414
  0
LINE
  8
0
 10
85.9619
 20
34.4414
 11
85.9697
 21
34.4678
  0
LINE
  8
0
 10
85.9697
 20
34.4678
 11
85.9961
 21
34.5469
  0
LINE
  8
0
 10
85.9961
 20
34.5469
 11
86.0059
 21
34.5732
  0
LINE
  8
0
 10
86.0059
 20
34.5732
 11
86.0166
 21
34.5996
  0
LINE
  8
0
 10
86.0166
 20
34.5996
 11
86.0381
 21
34.6504
  0
LINE
  8
0
 10
86.0381
 20
34.6504
 11
86.0615
 21
34.7012
  0
LINE
  8
0
 10
86.0615
 20
34.7012
 11
86.0742
 21
34.7266
  0
LINE
  8
0
 10
86.0742
 20
34.7266
 11
86.0869
 21
34.751
  0
LINE
  8
0
 10
86.0869
 20
34.751
 11
86.1143
 21
34.7998
  0
LINE
  8
0
 10
86.1143
 20
34.7998
 11
86.1289
 21
34.8242
  0
LINE
  8
0
 10
86.1289
 20
34.8242
 11
86.1582
 21
34.8711
  0
LINE
  8
0
 10
86.1582
 20
34.8711
 11
86.1895
 21
34.918
  0
LINE
  8
0
 10
86.1895
 20
34.918
 11
86.2393
 21
34.9854
  0
LINE
  8
0
 10
86.2393
 20
34.9854
 11
86.292
 21
35.0498
  0
LINE
  8
0
 10
86.292
 20
35.0498
 11
86.3105
 21
35.0703
  0
LINE
  8
0
 10
86.3105
 20
35.0703
 11
86.3301
 21
35.0908
  0
LINE
  8
0
 10
86.3301
 20
35.0908
 11
86.3486
 21
35.1113
  0
LINE
  8
0
 10
86.3486
 20
35.1113
 11
86.3682
 21
35.1318
  0
LINE
  8
0
 10
86.3682
 20
35.1318
 11
86.3887
 21
35.1514
  0
LINE
  8
0
 10
86.3887
 20
35.1514
 11
86.4092
 21
35.1699
  0
LINE
  8
0
 10
86.4092
 20
35.1699
 11
86.4297
 21
35.1895
  0
LINE
  8
0
 10
86.4297
 20
35.1895
 11
86.4502
 21
35.208
  0
LINE
  8
0
 10
86.4502
 20
35.208
 11
86.5146
 21
35.2607
  0
LINE
  8
0
 10
86.5146
 20
35.2607
 11
86.582
 21
35.3105
  0
LINE
  8
0
 10
86.582
 20
35.3105
 11
86.6289
 21
35.3418
  0
LINE
  8
0
 10
86.6289
 20
35.3418
 11
86.6758
 21
35.3711
  0
LINE
  8
0
 10
86.6758
 20
35.3711
 11
86.7002
 21
35.3857
  0
LINE
  8
0
 10
86.7002
 20
35.3857
 11
86.749
 21
35.4131
  0
LINE
  8
0
 10
86.749
 20
35.4131
 11
86.7734
 21
35.4258
  0
LINE
  8
0
 10
86.7734
 20
35.4258
 11
86.7988
 21
35.4385
  0
LINE
  8
0
 10
86.7988
 20
35.4385
 11
86.8496
 21
35.4619
  0
LINE
  8
0
 10
86.8496
 20
35.4619
 11
86.9004
 21
35.4834
  0
LINE
  8
0
 10
86.9004
 20
35.4834
 11
86.9268
 21
35.4941
  0
LINE
  8
0
 10
86.9268
 20
35.4941
 11
86.9531
 21
35.5039
  0
LINE
  8
0
 10
86.9531
 20
35.5039
 11
87.0322
 21
35.5303
  0
LINE
  8
0
 10
87.0322
 20
35.5303
 11
87.0586
 21
35.5381
  0
LINE
  8
0
 10
87.0586
 20
35.5381
 11
87.0859
 21
35.5459
  0
LINE
  8
0
 10
87.0859
 20
35.5459
 11
87.1133
 21
35.5527
  0
LINE
  8
0
 10
87.1133
 20
35.5527
 11
87.1396
 21
35.5586
  0
LINE
  8
0
 10
87.1396
 20
35.5586
 11
87.167
 21
35.5654
  0
LINE
  8
0
 10
87.167
 20
35.5654
 11
87.1943
 21
35.5703
  0
LINE
  8
0
 10
87.1943
 20
35.5703
 11
87.2217
 21
35.5762
  0
LINE
  8
0
 10
87.2217
 20
35.5762
 11
87.25
 21
35.5801
  0
LINE
  8
0
 10
87.25
 20
35.5801
 11
87.3047
 21
35.5879
  0
LINE
  8
0
 10
87.3047
 20
35.5879
 11
87.333
 21
35.5908
  0
LINE
  8
0
 10
87.333
 20
35.5908
 11
87.3604
 21
35.5938
  0
LINE
  8
0
 10
87.3604
 20
35.5938
 11
87.3887
 21
35.5957
  0
LINE
  8
0
 10
87.3887
 20
35.5957
 11
87.416
 21
35.5977
  0
LINE
  8
0
 10
87.416
 20
35.5977
 11
87.4717
 21
35.5996
  0
LINE
  8
0
 10
87.4717
 20
35.5996
 11
87.5283
 21
35.5996
  0
LINE
  8
0
 10
87.5283
 20
35.5996
 11
87.584
 21
35.5977
  0
LINE
  8
0
 10
87.584
 20
35.5977
 11
87.6113
 21
35.5957
  0
LINE
  8
0
 10
87.6113
 20
35.5957
 11
87.6396
 21
35.5938
  0
LINE
  8
0
 10
87.6396
 20
35.5938
 11
87.667
 21
35.5908
  0
LINE
  8
0
 10
87.667
 20
35.5908
 11
87.6953
 21
35.5879
  0
LINE
  8
0
 10
87.6953
 20
35.5879
 11
87.75
 21
35.5801
  0
LINE
  8
0
 10
87.75
 20
35.5801
 11
87.7783
 21
35.5762
  0
LINE
  8
0
 10
87.7783
 20
35.5762
 11
87.8057
 21
35.5703
  0
LINE
  8
0
 10
87.8057
 20
35.5703
 11
87.833
 21
35.5654
  0
LINE
  8
0
 10
87.833
 20
35.5654
 11
87.8604
 21
35.5586
  0
LINE
  8
0
 10
87.8604
 20
35.5586
 11
87.8867
 21
35.5527
  0
LINE
  8
0
 10
87.8867
 20
35.5527
 11
87.9141
 21
35.5459
  0
LINE
  8
0
 10
87.9141
 20
35.5459
 11
87.9414
 21
35.5381
  0
LINE
  8
0
 10
87.9414
 20
35.5381
 11
87.9678
 21
35.5303
  0
LINE
  8
0
 10
87.9678
 20
35.5303
 11
88.0469
 21
35.5039
  0
LINE
  8
0
 10
88.0469
 20
35.5039
 11
88.0732
 21
35.4941
  0
LINE
  8
0
 10
88.0732
 20
35.4941
 11
88.0996
 21
35.4834
  0
LINE
  8
0
 10
88.0996
 20
35.4834
 11
88.1504
 21
35.4619
  0
LINE
  8
0
 10
88.1504
 20
35.4619
 11
88.2012
 21
35.4385
  0
LINE
  8
0
 10
88.2012
 20
35.4385
 11
88.2266
 21
35.4258
  0
LINE
  8
0
 10
88.2266
 20
35.4258
 11
88.251
 21
35.4131
  0
LINE
  8
0
 10
88.251
 20
35.4131
 11
88.2998
 21
35.3857
  0
LINE
  8
0
 10
88.2998
 20
35.3857
 11
88.3242
 21
35.3711
  0
LINE
  8
0
 10
88.3242
 20
35.3711
 11
88.3711
 21
35.3418
  0
LINE
  8
0
 10
88.3711
 20
35.3418
 11
88.418
 21
35.3105
  0
LINE
  8
0
 10
88.418
 20
35.3105
 11
88.4854
 21
35.2607
  0
LINE
  8
0
 10
88.4854
 20
35.2607
 11
88.5498
 21
35.208
  0
LINE
  8
0
 10
88.5498
 20
35.208
 11
88.5703
 21
35.1895
  0
LINE
  8
0
 10
88.5703
 20
35.1895
 11
88.5908
 21
35.1699
  0
LINE
  8
0
 10
88.5908
 20
35.1699
 11
88.6113
 21
35.1514
  0
LINE
  8
0
 10
88.6113
 20
35.1514
 11
88.6318
 21
35.1318
  0
LINE
  8
0
 10
88.6318
 20
35.1318
 11
88.6514
 21
35.1113
  0
LINE
  8
0
 10
88.6514
 20
35.1113
 11
88.6699
 21
35.0908
  0
LINE
  8
0
 10
88.6699
 20
35.0908
 11
88.6895
 21
35.0703
  0
LINE
  8
0
 10
88.6895
 20
35.0703
 11
88.708
 21
35.0498
  0
LINE
  8
0
 10
88.708
 20
35.0498
 11
88.7607
 21
34.9854
  0
LINE
  8
0
 10
88.7607
 20
34.9854
 11
88.8105
 21
34.918
  0
LINE
  8
0
 10
88.8105
 20
34.918
 11
88.8418
 21
34.8711
  0
LINE
  8
0
 10
88.8418
 20
34.8711
 11
88.8711
 21
34.8242
  0
LINE
  8
0
 10
88.8711
 20
34.8242
 11
88.8857
 21
34.7998
  0
LINE
  8
0
 10
88.8857
 20
34.7998
 11
88.9131
 21
34.751
  0
LINE
  8
0
 10
88.9131
 20
34.751
 11
88.9258
 21
34.7266
  0
LINE
  8
0
 10
88.9258
 20
34.7266
 11
88.9385
 21
34.7012
  0
LINE
  8
0
 10
88.9385
 20
34.7012
 11
88.9619
 21
34.6504
  0
LINE
  8
0
 10
88.9619
 20
34.6504
 11
88.9834
 21
34.5996
  0
LINE
  8
0
 10
88.9834
 20
34.5996
 11
88.9941
 21
34.5732
  0
LINE
  8
0
 10
88.9941
 20
34.5732
 11
89.0039
 21
34.5469
  0
LINE
  8
0
 10
89.0039
 20
34.5469
 11
89.0303
 21
34.4678
  0
LINE
  8
0
 10
89.0303
 20
34.4678
 11
89.0381
 21
34.4414
  0
LINE
  8
0
 10
89.0381
 20
34.4414
 11
89.0459
 21
34.4141
  0
LINE
  8
0
 10
89.0459
 20
34.4141
 11
89.0527
 21
34.3867
  0
LINE
  8
0
 10
89.0527
 20
34.3867
 11
89.0586
 21
34.3604
  0
LINE
  8
0
 10
89.0586
 20
34.3604
 11
89.0654
 21
34.333
  0
LINE
  8
0
 10
89.0654
 20
34.333
 11
89.0703
 21
34.3057
  0
LINE
  8
0
 10
89.0703
 20
34.3057
 11
89.0762
 21
34.2783
  0
LINE
  8
0
 10
89.0762
 20
34.2783
 11
89.0801
 21
34.25
  0
LINE
  8
0
 10
89.0801
 20
34.25
 11
89.0879
 21
34.1953
  0
LINE
  8
0
 10
89.0879
 20
34.1953
 11
89.0908
 21
34.167
  0
LINE
  8
0
 10
89.0908
 20
34.167
 11
89.0938
 21
34.1396
  0
LINE
  8
0
 10
89.0938
 20
34.1396
 11
89.0957
 21
34.1113
  0
LINE
  8
0
 10
89.0957
 20
34.1113
 11
89.0977
 21
34.084
  0
LINE
  8
0
 10
89.0977
 20
34.084
 11
89.0996
 21
34.0283
  0
LINE
  8
0
 10
89.0996
 20
34.0283
 11
89.0996
 21
33.9717
  0
LINE
  8
0
 10
89.0996
 20
33.9717
 11
89.0977
 21
33.916
  0
LINE
  8
0
 10
89.0977
 20
33.916
 11
89.0957
 21
33.8887
  0
LINE
  8
0
 10
89.0957
 20
33.8887
 11
89.0938
 21
33.8604
  0
LINE
  8
0
 10
89.0938
 20
33.8604
 11
89.0908
 21
33.833
  0
LINE
  8
0
 10
89.0908
 20
33.833
 11
89.0879
 21
33.8047
  0
LINE
  8
0
 10
89.0879
 20
33.8047
 11
89.0801
 21
33.75
  0
LINE
  8
0
 10
89.0801
 20
33.75
 11
89.0762
 21
33.7217
  0
LINE
  8
0
 10
89.0762
 20
33.7217
 11
89.0703
 21
33.6943
  0
LINE
  8
0
 10
89.0703
 20
33.6943
 11
89.0654
 21
33.667
  0
LINE
  8
0
 10
89.0654
 20
33.667
 11
89.0586
 21
33.6396
  0
LINE
  8
0
 10
89.0586
 20
33.6396
 11
89.0527
 21
33.6133
  0
LINE
  8
0
 10
89.0527
 20
33.6133
 11
89.0459
 21
33.5859
  0
LINE
  8
0
 10
89.0459
 20
33.5859
 11
89.0381
 21
33.5586
  0
LINE
  8
0
 10
89.0381
 20
33.5586
 11
89.0303
 21
33.5322
  0
LINE
  8
0
 10
89.0303
 20
33.5322
 11
89.0039
 21
33.4531
  0
LINE
  8
0
 10
89.0039
 20
33.4531
 11
88.9941
 21
33.4268
  0
LINE
  8
0
 10
88.9941
 20
33.4268
 11
88.9834
 21
33.4004
  0
LINE
  8
0
 10
88.9834
 20
33.4004
 11
88.9619
 21
33.3496
  0
LINE
  8
0
 10
88.9619
 20
33.3496
 11
88.9385
 21
33.2988
  0
LINE
  8
0
 10
88.9385
 20
33.2988
 11
88.9258
 21
33.2734
  0
LINE
  8
0
 10
88.9258
 20
33.2734
 11
88.9131
 21
33.249
  0
LINE
  8
0
 10
88.9131
 20
33.249
 11
88.8857
 21
33.2002
  0
LINE
  8
0
 10
88.8857
 20
33.2002
 11
88.8711
 21
33.1758
  0
LINE
  8
0
 10
88.8711
 20
33.1758
 11
88.8418
 21
33.1289
  0
LINE
  8
0
 10
88.8418
 20
33.1289
 11
88.8105
 21
33.082
  0
LINE
  8
0
 10
88.8105
 20
33.082
 11
88.7607
 21
33.0146
  0
LINE
  8
0
 10
88.7607
 20
33.0146
 11
88.708
 21
32.9502
  0
LINE
  8
0
 10
88.708
 20
32.9502
 11
88.6895
 21
32.9297
  0
LINE
  8
0
 10
88.6895
 20
32.9297
 11
88.6699
 21
32.9092
  0
LINE
  8
0
 10
88.6699
 20
32.9092
 11
88.6514
 21
32.8887
  0
LINE
  8
0
 10
88.6514
 20
32.8887
 11
88.6318
 21
32.8682
  0
LINE
  8
0
 10
88.6318
 20
32.8682
 11
88.6113
 21
32.8486
  0
LINE
  8
0
 10
88.6113
 20
32.8486
 11
88.5908
 21
32.8301
  0
LINE
  8
0
 10
88.5908
 20
32.8301
 11
88.5703
 21
32.8105
  0
LINE
  8
0
 10
88.5703
 20
32.8105
 11
88.5498
 21
32.792
  0
LINE
  8
0
 10
88.5498
 20
32.792
 11
88.4854
 21
32.7393
  0
LINE
  8
0
 10
88.4854
 20
32.7393
 11
88.418
 21
32.6895
  0
LINE
  8
0
 10
88.418
 20
32.6895
 11
88.3711
 21
32.6582
  0
LINE
  8
0
 10
88.3711
 20
32.6582
 11
88.3242
 21
32.6289
  0
LINE
  8
0
 10
88.3242
 20
32.6289
 11
88.2998
 21
32.6143
  0
LINE
  8
0
 10
88.2998
 20
32.6143
 11
88.251
 21
32.5869
  0
LINE
  8
0
 10
88.251
 20
32.5869
 11
88.2266
 21
32.5742
  0
LINE
  8
0
 10
88.2266
 20
32.5742
 11
88.2012
 21
32.5615
  0
LINE
  8
0
 10
88.2012
 20
32.5615
 11
88.1504
 21
32.5381
  0
LINE
  8
0
 10
88.1504
 20
32.5381
 11
88.0996
 21
32.5166
  0
LINE
  8
0
 10
88.0996
 20
32.5166
 11
88.0732
 21
32.5059
  0
LINE
  8
0
 10
88.0732
 20
32.5059
 11
88.0469
 21
32.4961
  0
LINE
  8
0
 10
88.0469
 20
32.4961
 11
87.9678
 21
32.4697
  0
LINE
  8
0
 10
87.9678
 20
32.4697
 11
87.9414
 21
32.4619
  0
LINE
  8
0
 10
87.9414
 20
32.4619
 11
87.9141
 21
32.4541
  0
LINE
  8
0
 10
87.9141
 20
32.4541
 11
87.8867
 21
32.4473
  0
LINE
  8
0
 10
87.8867
 20
32.4473
 11
87.8604
 21
32.4414
  0
LINE
  8
0
 10
87.8604
 20
32.4414
 11
87.833
 21
32.4346
  0
LINE
  8
0
 10
87.833
 20
32.4346
 11
87.8057
 21
32.4297
  0
LINE
  8
0
 10
87.8057
 20
32.4297
 11
87.7783
 21
32.4238
  0
LINE
  8
0
 10
87.7783
 20
32.4238
 11
87.75
 21
32.4199
  0
LINE
  8
0
 10
87.75
 20
32.4199
 11
87.6953
 21
32.4121
  0
LINE
  8
0
 10
87.6953
 20
32.4121
 11
87.667
 21
32.4092
  0
LINE
  8
0
 10
87.667
 20
32.4092
 11
87.6396
 21
32.4062
  0
LINE
  8
0
 10
87.6396
 20
32.4062
 11
87.6113
 21
32.4043
  0
LINE
  8
0
 10
87.6113
 20
32.4043
 11
87.584
 21
32.4023
  0
LINE
  8
0
 10
87.584
 20
32.4023
 11
87.5283
 21
32.4004
  0
LINE
  8
0
 10
87.5283
 20
32.4004
 11
87.4717
 21
32.4004
  0
ENDSEC
  0
SECTION
  2
OBJECTS
  0
DICTIONARY
  0
ENDSEC
  0
EOF
