  0
SECTION
  2
BLOCKS
  0
ENDSEC
  0
SECTION
  2
ENTITIES
  0
LINE
  8
0
 10
100.95
 20
30
 11
103.018
 21
30
  0
LINE
  8
0
 10
103.018
 20
30
 11
103.035
 21
30.001
  0
LINE
  8
0
 10
103.035
 20
30.001
 11
103.053
 21
30.001
  0
LINE
  8
0
 10
103.053
 20
30.001
 11
103.069
 21
30.002
  0
LINE
  8
0
 10
103.069
 20
30.002
 11
103.14
 21
30.0098
  0
LINE
  8
0
 10
103.14
 20
30.0098
 11
103.156
 21
30.0127
  0
LINE
  8
0
 10
103.156
 20
30.0127
 11
103.174
 21
30.0156
  0
LINE
  8
0
 10
103.174
 20
30.0156
 11
103.19
 21
30.0186
  0
LINE
  8
0
 10
103.19
 20
30.0186
 11
103.208
 21
30.0215
  0
LINE
  8
0
 10
103.208
 20
30.0215
 11
103.225
 21
30.0254
  0
LINE
  8
0
 10
103.225
 20
30.0254
 11
103.242
 21
30.0293
  0
LINE
  8
0
 10
103.242
 20
30.0293
 11
103.309
 21
30.0488
  0
LINE
  8
0
 10
103.309
 20
30.0488
 11
103.358
 21
30.0664
  0
LINE
  8
0
 10
103.358
 20
30.0664
 11
103.375
 21
30.0732
  0
LINE
  8
0
 10
103.375
 20
30.0732
 11
103.391
 21
30.0791
  0
LINE
  8
0
 10
103.391
 20
30.0791
 11
103.406
 21
30.0869
  0
LINE
  8
0
 10
103.406
 20
30.0869
 11
103.423
 21
30.0938
  0
LINE
  8
0
 10
103.423
 20
30.0938
 11
103.47
 21
30.1172
  0
LINE
  8
0
 10
103.47
 20
30.1172
 11
103.484
 21
30.125
  0
LINE
  8
0
 10
103.484
 20
30.125
 11
103.5
 21
30.1338
  0
LINE
  8
0
 10
103.5
 20
30.1338
 11
103.515
 21
30.1426
  0
LINE
  8
0
 10
103.515
 20
30.1426
 11
103.53
 21
30.1523
  0
LINE
  8
0
 10
103.53
 20
30.1523
 11
103.545
 21
30.1611
  0
LINE
  8
0
 10
103.545
 20
30.1611
 11
103.56
 21
30.1709
  0
LINE
  8
0
 10
103.56
 20
30.1709
 11
103.573
 21
30.1807
  0
LINE
  8
0
 10
103.573
 20
30.1807
 11
103.588
 21
30.1914
  0
LINE
  8
0
 10
103.588
 20
30.1914
 11
103.602
 21
30.2012
  0
LINE
  8
0
 10
103.602
 20
30.2012
 11
103.629
 21
30.2227
  0
LINE
  8
0
 10
103.629
 20
30.2227
 11
103.643
 21
30.2344
  0
LINE
  8
0
 10
103.643
 20
30.2344
 11
103.656
 21
30.2451
  0
LINE
  8
0
 10
103.656
 20
30.2451
 11
103.694
 21
30.2803
  0
LINE
  8
0
 10
103.694
 20
30.2803
 11
103.72
 21
30.3057
  0
LINE
  8
0
 10
103.72
 20
30.3057
 11
103.755
 21
30.3438
  0
LINE
  8
0
 10
103.755
 20
30.3438
 11
103.766
 21
30.3574
  0
LINE
  8
0
 10
103.766
 20
30.3574
 11
103.777
 21
30.3711
  0
LINE
  8
0
 10
103.777
 20
30.3711
 11
103.799
 21
30.3984
  0
LINE
  8
0
 10
103.799
 20
30.3984
 11
103.809
 21
30.4121
  0
LINE
  8
0
 10
103.809
 20
30.4121
 11
103.819
 21
30.4268
  0
LINE
  8
0
 10
103.819
 20
30.4268
 11
103.829
 21
30.4404
  0
LINE
  8
0
 10
103.829
 20
30.4404
 11
103.839
 21
30.4551
  0
LINE
  8
0
 10
103.839
 20
30.4551
 11
103.848
 21
30.4697
  0
LINE
  8
0
 10
103.848
 20
30.4697
 11
103.857
 21
30.4854
  0
LINE
  8
0
 10
103.857
 20
30.4854
 11
103.866
 21
30.5
  0
LINE
  8
0
 10
103.866
 20
30.5
 11
103.875
 21
30.5156
  0
LINE
  8
0
 10
103.875
 20
30.5156
 11
103.883
 21
30.5303
  0
LINE
  8
0
 10
103.883
 20
30.5303
 11
103.906
 21
30.5771
  0
LINE
  8
0
 10
103.906
 20
30.5771
 11
103.913
 21
30.5938
  0
LINE
  8
0
 10
103.913
 20
30.5938
 11
103.921
 21
30.6094
  0
LINE
  8
0
 10
103.921
 20
30.6094
 11
103.927
 21
30.625
  0
LINE
  8
0
 10
103.927
 20
30.625
 11
103.934
 21
30.6416
  0
LINE
  8
0
 10
103.934
 20
30.6416
 11
103.951
 21
30.6914
  0
LINE
  8
0
 10
103.951
 20
30.6914
 11
103.971
 21
30.7578
  0
LINE
  8
0
 10
103.971
 20
30.7578
 11
103.975
 21
30.7754
  0
LINE
  8
0
 10
103.975
 20
30.7754
 11
103.979
 21
30.792
  0
LINE
  8
0
 10
103.979
 20
30.792
 11
103.981
 21
30.8096
  0
LINE
  8
0
 10
103.981
 20
30.8096
 11
103.984
 21
30.8262
  0
LINE
  8
0
 10
103.984
 20
30.8262
 11
103.987
 21
30.8438
  0
LINE
  8
0
 10
103.987
 20
30.8438
 11
103.99
 21
30.8604
  0
LINE
  8
0
 10
103.99
 20
30.8604
 11
103.998
 21
30.9307
  0
LINE
  8
0
 10
103.998
 20
30.9307
 11
103.999
 21
30.9473
  0
LINE
  8
0
 10
103.999
 20
30.9473
 11
103.999
 21
30.9648
  0
LINE
  8
0
 10
103.999
 20
30.9648
 11
104
 21
30.9824
  0
LINE
  8
0
 10
104
 20
30.9824
 11
104
 21
39.0176
  0
LINE
  8
0
 10
104
 20
39.0176
 11
103.999
 21
39.0352
  0
LINE
  8
0
 10
103.999
 20
39.0352
 11
103.999
 21
39.0527
  0
LINE
  8
0
 10
103.999
 20
39.0527
 11
103.998
 21
39.0693
  0
LINE
  8
0
 10
103.998
 20
39.0693
 11
103.99
 21
39.1396
  0
LINE
  8
0
 10
103.99
 20
39.1396
 11
103.987
 21
39.1562
  0
LINE
  8
0
 10
103.987
 20
39.1562
 11
103.984
 21
39.1738
  0
LINE
  8
0
 10
103.984
 20
39.1738
 11
103.981
 21
39.1904
  0
LINE
  8
0
 10
103.981
 20
39.1904
 11
103.979
 21
39.208
  0
LINE
  8
0
 10
103.979
 20
39.208
 11
103.975
 21
39.2246
  0
LINE
  8
0
 10
103.975
 20
39.2246
 11
103.971
 21
39.2422
  0
LINE
  8
0
 10
103.971
 20
39.2422
 11
103.951
 21
39.3086
  0
LINE
  8
0
 10
103.951
 20
39.3086
 11
103.934
 21
39.3584
  0
LINE
  8
0
 10
103.934
 20
39.3584
 11
103.927
 21
39.375
  0
LINE
  8
0
 10
103.927
 20
39.375
 11
103.921
 21
39.3906
  0
LINE
  8
0
 10
103.921
 20
39.3906
 11
103.913
 21
39.4062
  0
LINE
  8
0
 10
103.913
 20
39.4062
 11
103.906
 21
39.4229
  0
LINE
  8
0
 10
103.906
 20
39.4229
 11
103.883
 21
39.4697
  0
LINE
  8
0
 10
103.883
 20
39.4697
 11
103.875
 21
39.4844
  0
LINE
  8
0
 10
103.875
 20
39.4844
 11
103.866
 21
39.5
  0
LINE
  8
0
 10
103.866
 20
39.5
 11
103.857
 21
39.5146
  0
LINE
  8
0
 10
103.857
 20
39.5146
 11
103.848
 21
39.5303
  0
LINE
  8
0
 10
103.848
 20
39.5303
 11
103.839
 21
39.5449
  0
LINE
  8
0
 10
103.839
 20
39.5449
 11
103.829
 21
39.5596
  0
LINE
  8
0
 10
103.829
 20
39.5596
 11
103.819
 21
39.5732
  0
LINE
  8
0
 10
103.819
 20
39.5732
 11
103.809
 21
39.5879
  0
LINE
  8
0
 10
103.809
 20
39.5879
 11
103.799
 21
39.6016
  0
LINE
  8
0
 10
103.799
 20
39.6016
 11
103.777
 21
39.6289
  0
LINE
  8
0
 10
103.777
 20
39.6289
 11
103.766
 21
39.6426
  0
LINE
  8
0
 10
103.766
 20
39.6426
 11
103.755
 21
39.6562
  0
LINE
  8
0
 10
103.755
 20
39.6562
 11
103.72
 21
39.6943
  0
LINE
  8
0
 10
103.72
 20
39.6943
 11
103.694
 21
39.7197
  0
LINE
  8
0
 10
103.694
 20
39.7197
 11
103.656
 21
39.7549
  0
LINE
  8
0
 10
103.656
 20
39.7549
 11
103.643
 21
39.7656
  0
LINE
  8
0
 10
103.643
 20
39.7656
 11
103.629
 21
39.7773
  0
LINE
  8
0
 10
103.629
 20
39.7773
 11
103.602
 21
39.7988
  0
LINE
  8
0
 10
103.602
 20
39.7988
 11
103.588
 21
39.8086
  0
LINE
  8
0
 10
103.588
 20
39.8086
 11
103.573
 21
39.8193
  0
LINE
  8
0
 10
103.573
 20
39.8193
 11
103.56
 21
39.8291
  0
LINE
  8
0
 10
103.56
 20
39.8291
 11
103.545
 21
39.8389
  0
LINE
  8
0
 10
103.545
 20
39.8389
 11
103.53
 21
39.8477
  0
LINE
  8
0
 10
103.53
 20
39.8477
 11
103.515
 21
39.8574
  0
LINE
  8
0
 10
103.515
 20
39.8574
 11
103.5
 21
39.8662
  0
LINE
  8
0
 10
103.5
 20
39.8662
 11
103.484
 21
39.875
  0
LINE
  8
0
 10
103.484
 20
39.875
 11
103.47
 21
39.8828
  0
LINE
  8
0
 10
103.47
 20
39.8828
 11
103.423
 21
39.9062
  0
LINE
  8
0
 10
103.423
 20
39.9062
 11
103.406
 21
39.9131
  0
LINE
  8
0
 10
103.406
 20
39.9131
 11
103.391
 21
39.9209
  0
LINE
  8
0
 10
103.391
 20
39.9209
 11
103.375
 21
39.9268
  0
LINE
  8
0
 10
103.375
 20
39.9268
 11
103.358
 21
39.9336
  0
LINE
  8
0
 10
103.358
 20
39.9336
 11
103.309
 21
39.9512
  0
LINE
  8
0
 10
103.309
 20
39.9512
 11
103.242
 21
39.9707
  0
LINE
  8
0
 10
103.242
 20
39.9707
 11
103.225
 21
39.9746
  0
LINE
  8
0
 10
103.225
 20
39.9746
 11
103.208
 21
39.9785
  0
LINE
  8
0
 10
103.208
 20
39.9785
 11
103.19
 21
39.9814
  0
LINE
  8
0
 10
103.19
 20
39.9814
 11
103.174
 21
39.9844
  0
LINE
  8
0
 10
103.174
 20
39.9844
 11
103.156
 21
39.9873
  0
LINE
  8
0
 10
103.156
 20
39.9873
 11
103.14
 21
39.9902
  0
LINE
  8
0
 10
103.14
 20
39.9902
 11
103.069
 21
39.998
  0
LINE
  8
0
 10
103.069
 20
39.998
 11
103.053
 21
39.999
  0
LINE
  8
0
 10
103.053
 20
39.999
 11
103.035
 21
39.999
  0
LINE
  8
0
 10
103.035
 20
39.999
 11
103.018
 21
40
  0
LINE
  8
0
 10
103.018
 20
40
 11
100.95
 21
40
  0
LINE
  8
0
 10
100.95
 20
40
 11
100.95
 21
100
  0
LINE
  8
0
 10
100.95
 20
100
 11
103.018
 21
100
  0
LINE
  8
0
 10
103.018
 20
100
 11
103.035
 21
100.001
  0
LINE
  8
0
 10
103.035
 20
100.001
 11
103.053
 21
100.001
  0
LINE
  8
0
 10
103.053
 20
100.001
 11
103.069
 21
100.002
  0
LINE
  8
0
 10
103.069
 20
100.002
 11
103.14
 21
100.01
  0
LINE
  8
0
 10
103.14
 20
100.01
 11
103.156
 21
100.013
  0
LINE
  8
0
 10
103.156
 20
100.013
 11
103.174
 21
100.016
  0
LINE
  8
0
 10
103.174
 20
100.016
 11
103.19
 21
100.019
  0
LINE
  8
0
 10
103.19
 20
100.019
 11
103.208
 21
100.021
  0
LINE
  8
0
 10
103.208
 20
100.021
 11
103.225
 21
100.025
  0
LINE
  8
0
 10
103.225
 20
100.025
 11
103.242
 21
100.029
  0
LINE
  8
0
 10
103.242
 20
100.029
 11
103.309
 21
100.049
  0
LINE
  8
0
 10
103.309
 20
100.049
 11
103.358
 21
100.066
  0
LINE
  8
0
 10
103.358
 20
100.066
 11
103.375
 21
100.073
  0
LINE
  8
0
 10
103.375
 20
100.073
 11
103.391
 21
100.079
  0
LINE
  8
0
 10
103.391
 20
100.079
 11
103.406
 21
100.087
  0
LINE
  8
0
 10
103.406
 20
100.087
 11
103.423
 21
100.094
  0
LINE
  8
0
 10
103.423
 20
100.094
 11
103.47
 21
100.117
  0
LINE
  8
0
 10
103.47
 20
100.117
 11
103.484
 21
100.125
  0
LINE
  8
0
 10
103.484
 20
100.125
 11
103.5
 21
100.134
  0
LINE
  8
0
 10
103.5
 20
100.134
 11
103.515
 21
100.143
  0
LINE
  8
0
 10
103.515
 20
100.143
 11
103.53
 21
100.152
  0
LINE
  8
0
 10
103.53
 20
100.152
 11
103.545
 21
100.161
  0
LINE
  8
0
 10
103.545
 20
100.161
 11
103.56
 21
100.171
  0
LINE
  8
0
 10
103.56
 20
100.171
 11
103.573
 21
100.181
  0
LINE
  8
0
 10
103.573
 20
100.181
 11
103.588
 21
100.191
  0
LINE
  8
0
 10
103.588
 20
100.191
 11
103.602
 21
100.201
  0
LINE
  8
0
 10
103.602
 20
100.201
 11
103.629
 21
100.223
  0
LINE
  8
0
 10
103.629
 20
100.223
 11
103.643
 21
100.234
  0
LINE
  8
0
 10
103.643
 20
100.234
 11
103.656
 21
100.245
  0
LINE
  8
0
 10
103.656
 20
100.245
 11
103.694
 21
100.28
  0
LINE
  8
0
 10
103.694
 20
100.28
 11
103.72
 21
100.306
  0
LINE
  8
0
 10
103.72
 20
100.306
 11
103.755
 21
100.344
  0
LINE
  8
0
 10
103.755
 20
100.344
 11
103.766
 21
100.357
  0
LINE
  8
0
 10
103.766
 20
100.357
 11
103.777
 21
100.371
  0
LINE
  8
0
 10
103.777
 20
100.371
 11
103.799
 21
100.398
  0
LINE
  8
0
 10
103.799
 20
100.398
 11
103.809
 21
100.412
  0
LINE
  8
0
 10
103.809
 20
100.412
 11
103.819
 21
100.427
  0
LINE
  8
0
 10
103.819
 20
100.427
 11
103.829
 21
100.44
  0
LINE
  8
0
 10
103.829
 20
100.44
 11
103.839
 21
100.455
  0
LINE
  8
0
 10
103.839
 20
100.455
 11
103.848
 21
100.47
  0
LINE
  8
0
 10
103.848
 20
100.47
 11
103.857
 21
100.485
  0
LINE
  8
0
 10
103.857
 20
100.485
 11
103.866
 21
100.5
  0
LINE
  8
0
 10
103.866
 20
100.5
 11
103.875
 21
100.516
  0
LINE
  8
0
 10
103.875
 20
100.516
 11
103.883
 21
100.53
  0
LINE
  8
0
 10
103.883
 20
100.53
 11
103.906
 21
100.577
  0
LINE
  8
0
 10
103.906
 20
100.577
 11
103.913
 21
100.594
  0
LINE
  8
0
 10
103.913
 20
100.594
 11
103.921
 21
100.609
  0
LINE
  8
0
 10
103.921
 20
100.609
 11
103.927
 21
100.625
  0
LINE
  8
0
 10
103.927
 20
100.625
 11
103.934
 21
100.642
  0
LINE
  8
0
 10
103.934
 20
100.642
 11
103.951
 21
100.691
  0
LINE
  8
0
 10
103.951
 20
100.691
 11
103.971
 21
100.758
  0
LINE
  8
0
 10
103.971
 20
100.758
 11
103.975
 21
100.775
  0
LINE
  8
0
 10
103.975
 20
100.775
 11
103.979
 21
100.792
  0
LINE
  8
0
 10
103.979
 20
100.792
 11
103.981
 21
100.81
  0
LINE
  8
0
 10
103.981
 20
100.81
 11
103.984
 21
100.826
  0
LINE
  8
0
 10
103.984
 20
100.826
 11
103.987
 21
100.844
  0
LINE
  8
0
 10
103.987
 20
100.844
 11
103.99
 21
100.86
  0
LINE
  8
0
 10
103.99
 20
100.86
 11
103.998
 21
100.931
  0
LINE
  8
0
 10
103.998
 20
100.931
 11
103.999
 21
100.947
  0
LINE
  8
0
 10
103.999
 20
100.947
 11
103.999
 21
100.965
  0
LINE
  8
0
 10
103.999
 20
100.965
 11
104
 21
100.982
  0
LINE
  8
0
 10
104
 20
100.982
 11
104
 21
109.018
  0
LINE
  8
0
 10
104
 20
109.018
 11
103.999
 21
109.035
  0
LINE
  8
0
 10
103.999
 20
109.035
 11
103.999
 21
109.053
  0
LINE
  8
0
 10
103.999
 20
109.053
 11
103.998
 21
109.069
  0
LINE
  8
0
 10
103.998
 20
109.069
 11
103.99
 21
109.14
  0
LINE
  8
0
 10
103.99
 20
109.14
 11
103.987
 21
109.156
  0
LINE
  8
0
 10
103.987
 20
109.156
 11
103.984
 21
109.174
  0
LINE
  8
0
 10
103.984
 20
109.174
 11
103.981
 21
109.19
  0
LINE
  8
0
 10
103.981
 20
109.19
 11
103.979
 21
109.208
  0
LINE
  8
0
 10
103.979
 20
109.208
 11
103.975
 21
109.225
  0
LINE
  8
0
 10
103.975
 20
109.225
 11
103.971
 21
109.242
  0
LINE
  8
0
 10
103.971
 20
109.242
 11
103.951
 21
109.309
  0
LINE
  8
0
 10
103.951
 20
109.309
 11
103.934
 21
109.358
  0
LINE
  8
0
 10
103.934
 20
109.358
 11
103.927
 21
109.375
  0
LINE
  8
0
 10
103.927
 20
109.375
 11
103.921
 21
109.391
  0
LINE
  8
0
 10
103.921
 20
109.391
 11
103.913
 21
109.406
  0
LINE
  8
0
 10
103.913
 20
109.406
 11
103.906
 21
109.423
  0
LINE
  8
0
 10
103.906
 20
109.423
 11
103.883
 21
109.47
  0
LINE
  8
0
 10
103.883
 20
109.47
 11
103.875
 21
109.484
  0
LINE
  8
0
 10
103.875
 20
109.484
 11
103.866
 21
109.5
  0
LINE
  8
0
 10
103.866
 20
109.5
 11
103.857
 21
109.515
  0
LINE
  8
0
 10
103.857
 20
109.515
 11
103.848
 21
109.53
  0
LINE
  8
0
 10
103.848
 20
109.53
 11
103.839
 21
109.545
  0
LINE
  8
0
 10
103.839
 20
109.545
 11
103.829
 21
109.56
  0
LINE
  8
0
 10
103.829
 20
109.56
 11
103.819
 21
109.573
  0
LINE
  8
0
 10
103.819
 20
109.573
 11
103.809
 21
109.588
  0
LINE
  8
0
 10
103.809
 20
109.588
 11
103.799
 21
109.602
  0
LINE
  8
0
 10
103.799
 20
109.602
 11
103.777
 21
109.629
  0
LINE
  8
0
 10
103.777
 20
109.629
 11
103.766
 21
109.643
  0
LINE
  8
0
 10
103.766
 20
109.643
 11
103.755
 21
109.656
  0
LINE
  8
0
 10
103.755
 20
109.656
 11
103.72
 21
109.694
  0
LINE
  8
0
 10
103.72
 20
109.694
 11
103.694
 21
109.72
  0
LINE
  8
0
 10
103.694
 20
109.72
 11
103.656
 21
109.755
  0
LINE
  8
0
 10
103.656
 20
109.755
 11
103.643
 21
109.766
  0
LINE
  8
0
 10
103.643
 20
109.766
 11
103.629
 21
109.777
  0
LINE
  8
0
 10
103.629
 20
109.777
 11
103.602
 21
109.799
  0
LINE
  8
0
 10
103.602
 20
109.799
 11
103.588
 21
109.809
  0
LINE
  8
0
 10
103.588
 20
109.809
 11
103.573
 21
109.819
  0
LINE
  8
0
 10
103.573
 20
109.819
 11
103.56
 21
109.829
  0
LINE
  8
0
 10
103.56
 20
109.829
 11
103.545
 21
109.839
  0
LINE
  8
0
 10
103.545
 20
109.839
 11
103.53
 21
109.848
  0
LINE
  8
0
 10
103.53
 20
109.848
 11
103.515
 21
109.857
  0
LINE
  8
0
 10
103.515
 20
109.857
 11
103.5
 21
109.866
  0
LINE
  8
0
 10
103.5
 20
109.866
 11
103.484
 21
109.875
  0
LINE
  8
0
 10
103.484
 20
109.875
 11
103.47
 21
109.883
  0
LINE
  8
0
 10
103.47
 20
109.883
 11
103.423
 21
109.906
  0
LINE
  8
0
 10
103.423
 20
109.906
 11
103.406
 21
109.913
  0
LINE
  8
0
 10
103.406
 20
109.913
 11
103.391
 21
109.921
  0
LINE
  8
0
 10
103.391
 20
109.921
 11
103.375
 21
109.927
  0
LINE
  8
0
 10
103.375
 20
109.927
 11
103.358
 21
109.934
  0
LINE
  8
0
 10
103.358
 20
109.934
 11
103.309
 21
109.951
  0
LINE
  8
0
 10
103.309
 20
109.951
 11
103.242
 21
109.971
  0
LINE
  8
0
 10
103.242
 20
109.971
 11
103.225
 21
109.975
  0
LINE
  8
0
 10
103.225
 20
109.975
 11
103.208
 21
109.979
  0
LINE
  8
0
 10
103.208
 20
109.979
 11
103.19
 21
109.981
  0
LINE
  8
0
 10
103.19
 20
109.981
 11
103.174
 21
109.984
  0
LINE
  8
0
 10
103.174
 20
109.984
 11
103.156
 21
109.987
  0
LINE
  8
0
 10
103.156
 20
109.987
 11
103.14
 21
109.99
  0
LINE
  8
0
 10
103.14
 20
109.99
 11
103.069
 21
109.998
  0
LINE
  8
0
 10
103.069
 20
109.998
 11
103.053
 21
109.999
  0
LINE
  8
0
 10
103.053
 20
109.999
 11
103.035
 21
109.999
  0
LINE
  8
0
 10
103.035
 20
109.999
 11
103.018
 21
110
  0
LINE
  8
0
 10
103.018
 20
110
 11
-2.01758
 21
110
  0
LINE
  8
0
 10
-2.01758
 20
110
 11
-2.03516
 21
109.999
  0
LINE
  8
0
 10
-2.03516
 20
109.999
 11
-2.05273
 21
109.999
  0
LINE
  8
0
 10
-2.05273
 20
109.999
 11
-2.06934
 21
109.998
  0
LINE
  8
0
 10
-2.06934
 20
109.998
 11
-2.13965
 21
109.99
  0
LINE
  8
0
 10
-2.13965
 20
109.99
 11
-2.15625
 21
109.987
  0
LINE
  8
0
 10
-2.15625
 20
109.987
 11
-2.17383
 21
109.984
  0
LINE
  8
0
 10
-2.17383
 20
109.984
 11
-2.19043
 21
109.981
  0
LINE
  8
0
 10
-2.19043
 20
109.981
 11
-2.20801
 21
109.979
  0
LINE
  8
0
 10
-2.20801
 20
109.979
 11
-2.22461
 21
109.975
  0
LINE
  8
0
 10
-2.22461
 20
109.975
 11
-2.24219
 21
109.971
  0
LINE
  8
0
 10
-2.24219
 20
109.971
 11
-2.30859
 21
109.951
  0
LINE
  8
0
 10
-2.30859
 20
109.951
 11
-2.3584
 21
109.934
  0
LINE
  8
0
 10
-2.3584
 20
109.934
 11
-2.375
 21
109.927
  0
LINE
  8
0
 10
-2.375
 20
109.927
 11
-2.39062
 21
109.921
  0
LINE
  8
0
 10
-2.39062
 20
109.921
 11
-2.40625
 21
109.913
  0
LINE
  8
0
 10
-2.40625
 20
109.913
 11
-2.42285
 21
109.906
  0
LINE
  8
0
 10
-2.42285
 20
109.906
 11
-2.46973
 21
109.883
  0
LINE
  8
0
 10
-2.46973
 20
109.883
 11
-2.48438
 21
109.875
  0
LINE
  8
0
 10
-2.48438
 20
109.875
 11
-2.5
 21
109.866
  0
LINE
  8
0
 10
-2.5
 20
109.866
 11
-2.51465
 21
109.857
  0
LINE
  8
0
 10
-2.51465
 20
109.857
 11
-2.53027
 21
109.848
  0
LINE
  8
0
 10
-2.53027
 20
109.848
 11
-2.54492
 21
109.839
  0
LINE
  8
0
 10
-2.54492
 20
109.839
 11
-2.55957
 21
109.829
  0
LINE
  8
0
 10
-2.55957
 20
109.829
 11
-2.57324
 21
109.819
  0
LINE
  8
0
 10
-2.57324
 20
109.819
 11
-2.58789
 21
109.809
  0
LINE
  8
0
 10
-2.58789
 20
109.809
 11
-2.60156
 21
109.799
  0
LINE
  8
0
 10
-2.60156
 20
109.799
 11
-2.62891
 21
109.777
  0
LINE
  8
0
 10
-2.62891
 20
109.777
 11
-2.64258
 21
109.766
  0
LINE
  8
0
 10
-2.64258
 20
109.766
 11
-2.65625
 21
109.755
  0
LINE
  8
0
 10
-2.65625
 20
109.755
 11
-2.69434
 21
109.72
  0
LINE
  8
0
 10
-2.69434
 20
109.72
 11
-2.71973
 21
109.694
  0
LINE
  8
0
 10
-2.71973
 20
109.694
 11
-2.75488
 21
109.656
  0
LINE
  8
0
 10
-2.75488
 20
109.656
 11
-2.76562
 21
109.643
  0
LINE
  8
0
 10
-2.76562
 20
109.643
 11
-2.77734
 21
109.629
  0
LINE
  8
0
 10
-2.77734
 20
109.629
 11
-2.79883
 21
109.602
  0
LINE
  8
0
 10
-2.79883
 20
109.602
 11
-2.80859
 21
109.588
  0
LINE
  8
0
 10
-2.80859
 20
109.588
 11
-2.81934
 21
109.573
  0
LINE
  8
0
 10
-2.81934
 20
109.573
 11
-2.8291
 21
109.56
  0
LINE
  8
0
 10
-2.8291
 20
109.56
 11
-2.83887
 21
109.545
  0
LINE
  8
0
 10
-2.83887
 20
109.545
 11
-2.84766
 21
109.53
  0
LINE
  8
0
 10
-2.84766
 20
109.53
 11
-2.85742
 21
109.515
  0
LINE
  8
0
 10
-2.85742
 20
109.515
 11
-2.86621
 21
109.5
  0
LINE
  8
0
 10
-2.86621
 20
109.5
 11
-2.875
 21
109.484
  0
LINE
  8
0
 10
-2.875
 20
109.484
 11
-2.88281
 21
109.47
  0
LINE
  8
0
 10
-2.88281
 20
109.47
 11
-2.90625
 21
109.423
  0
LINE
  8
0
 10
-2.90625
 20
109.423
 11
-2.91309
 21
109.406
  0
LINE
  8
0
 10
-2.91309
 20
109.406
 11
-2.9209
 21
109.391
  0
LINE
  8
0
 10
-2.9209
 20
109.391
 11
-2.92676
 21
109.375
  0
LINE
  8
0
 10
-2.92676
 20
109.375
 11
-2.93359
 21
109.358
  0
LINE
  8
0
 10
-2.93359
 20
109.358
 11
-2.95117
 21
109.309
  0
LINE
  8
0
 10
-2.95117
 20
109.309
 11
-2.9707
 21
109.242
  0
LINE
  8
0
 10
-2.9707
 20
109.242
 11
-2.97461
 21
109.225
  0
LINE
  8
0
 10
-2.97461
 20
109.225
 11
-2.97852
 21
109.208
  0
LINE
  8
0
 10
-2.97852
 20
109.208
 11
-2.98145
 21
109.19
  0
LINE
  8
0
 10
-2.98145
 20
109.19
 11
-2.98438
 21
109.174
  0
LINE
  8
0
 10
-2.98438
 20
109.174
 11
-2.9873
 21
109.156
  0
LINE
  8
0
 10
-2.9873
 20
109.156
 11
-2.99023
 21
109.14
  0
LINE
  8
0
 10
-2.99023
 20
109.14
 11
-2.99805
 21
109.069
  0
LINE
  8
0
 10
-2.99805
 20
109.069
 11
-2.99902
 21
109.053
  0
LINE
  8
0
 10
-2.99902
 20
109.053
 11
-2.99902
 21
109.035
  0
LINE
  8
0
 10
-2.99902
 20
109.035
 11
-3
 21
109.018
  0
LINE
  8
0
 10
-3
 20
109.018
 11
-3
 21
100.982
  0
LINE
  8
0
 10
-3
 20
100.982
 11
-2.99902
 21
100.965
  0
LINE
  8
0
 10
-2.99902
 20
100.965
 11
-2.99902
 21
100.947
  0
LINE
  8
0
 10
-2.99902
 20
100.947
 11
-2.99805
 21
100.931
  0
LINE
  8
0
 10
-2.99805
 20
100.931
 11
-2.99023
 21
100.86
  0
LINE
  8
0
 10
-2.99023
 20
100.86
 11
-2.9873
 21
100.844
  0
LINE
  8
0
 10
-2.9873
 20
100.844
 11
-2.98438
 21
100.826
  0
LINE
  8
0
 10
-2.98438
 20
100.826
 11
-2.98145
 21
100.81
  0
LINE
  8
0
 10
-2.98145
 20
100.81
 11
-2.97852
 21
100.792
  0
LINE
  8
0
 10
-2.97852
 20
100.792
 11
-2.97461
 21
100.775
  0
LINE
  8
0
 10
-2.97461
 20
100.775
 11
-2.9707
 21
100.758
  0
LINE
  8
0
 10
-2.9707
 20
100.758
 11
-2.95117
 21
100.691
  0
LINE
  8
0
 10
-2.95117
 20
100.691
 11
-2.93359
 21
100.642
  0
LINE
  8
0
 10
-2.93359
 20
100.642
 11
-2.92676
 21
100.625
  0
LINE
  8
0
 10
-2.92676
 20
100.625
 11
-2.9209
 21
100.609
  0
LINE
  8
0
 10
-2.9209
 20
100.609
 11
-2.91309
 21
100.594
  0
LINE
  8
0
 10
-2.91309
 20
100.594
 11
-2.90625
 21
100.577
  0
LINE
  8
0
 10
-2.90625
 20
100.577
 11
-2.88281
 21
100.53
  0
LINE
  8
0
 10
-2.88281
 20
100.53
 11
-2.875
 21
100.516
  0
LINE
  8
0
 10
-2.875
 20
100.516
 11
-2.86621
 21
100.5
  0
LINE
  8
0
 10
-2.86621
 20
100.5
 11
-2.85742
 21
100.485
  0
LINE
  8
0
 10
-2.85742
 20
100.485
 11
-2.84766
 21
100.47
  0
LINE
  8
0
 10
-2.84766
 20
100.47
 11
-2.83887
 21
100.455
  0
LINE
  8
0
 10
-2.83887
 20
100.455
 11
-2.8291
 21
100.44
  0
LINE
  8
0
 10
-2.8291
 20
100.44
 11
-2.81934
 21
100.427
  0
LINE
  8
0
 10
-2.81934
 20
100.427
 11
-2.80859
 21
100.412
  0
LINE
  8
0
 10
-2.80859
 20
100.412
 11
-2.79883
 21
100.398
  0
LINE
  8
0
 10
-2.79883
 20
100.398
 11
-2.77734
 21
100.371
  0
LINE
  8
0
 10
-2.77734
 20
100.371
 11
-2.76562
 21
100.357
  0
LINE
  8
0
 10
-2.76562
 20
100.357
 11
-2.75488
 21
100.344
  0
LINE
  8
0
 10
-2.75488
 20
100.344
 11
-2.71973
 21
100.306
  0
LINE
  8
0
 10
-2.71973
 20
100.306
 11
-2.69434
 21
100.28
  0
LINE
  8
0
 10
-2.69434
 20
100.28
 11
-2.65625
 21
100.245
  0
LINE
  8
0
 10
-2.65625
 20
100.245
 11
-2.64258
 21
100.234
  0
LINE
  8
0
 10
-2.64258
 20
100.234
 11
-2.62891
 21
100.223
  0
LINE
  8
0
 10
-2.62891
 20
100.223
 11
-2.60156
 21
100.201
  0
LINE
  8
0
 10
-2.60156
 20
100.201
 11
-2.58789
 21
100.191
  0
LINE
  8
0
 10
-2.58789
 20
100.191
 11
-2.57324
 21
100.181
  0
LINE
  8
0
 10
-2.57324
 20
100.181
 11
-2.55957
 21
100.171
  0
LINE
  8
0
 10
-2.55957
 20
100.171
 11
-2.54492
 21
100.161
  0
LINE
  8
0
 10
-2.54492
 20
100.161
 11
-2.53027
 21
100.152
  0
LINE
  8
0
 10
-2.53027
 20
100.152
 11
-2.51465
 21
100.143
  0
LINE
  8
0
 10
-2.51465
 20
100.143
 11
-2.5
 21
100.134
  0
LINE
  8
0
 10
-2.5
 20
100.134
 11
-2.48438
 21
100.125
  0
LINE
  8
0
 10
-2.48438
 20
100.125
 11
-2.46973
 21
100.117
  0
LINE
  8
0
 10
-2.46973
 20
100.117
 11
-2.42285
 21
100.094
  0
LINE
  8
0
 10
-2.42285
 20
100.094
 11
-2.40625
 21
100.087
  0
LINE
  8
0
 10
-2.40625
 20
100.087
 11
-2.39062
 21
100.079
  0
LINE
  8
0
 10
-2.39062
 20
100.079
 11
-2.375
 21
100.073
  0
LINE
  8
0
 10
-2.375
 20
100.073
 11
-2.3584
 21
100.066
  0
LINE
  8
0
 10
-2.3584
 20
100.066
 11
-2.30859
 21
100.049
  0
LINE
  8
0
 10
-2.30859
 20
100.049
 11
-2.24219
 21
100.029
  0
LINE
  8
0
 10
-2.24219
 20
100.029
 11
-2.22461
 21
100.025
  0
LINE
  8
0
 10
-2.22461
 20
100.025
 11
-2.20801
 21
100.021
  0
LINE
  8
0
 10
-2.20801
 20
100.021
 11
-2.19043
 21
100.019
  0
LINE
  8
0
 10
-2.19043
 20
100.019
 11
-2.17383
 21
100.016
  0
LINE
  8
0
 10
-2.17383
 20
100.016
 11
-2.15625
 21
100.013
  0
LINE
  8
0
 10
-2.15625
 20
100.013
 11
-2.13965
 21
100.01
  0
LINE
  8
0
 10
-2.13965
 20
100.01
 11
-2.06934
 21
100.002
  0
LINE
  8
0
 10
-2.06934
 20
100.002
 11
-2.05273
 21
100.001
  0
LINE
  8
0
 10
-2.05273
 20
100.001
 11
-2.03516
 21
100.001
  0
LINE
  8
0
 10
-2.03516
 20
100.001
 11
-2.01758
 21
100
  0
LINE
  8
0
 10
-2.01758
 20
100
 11
0
 21
100
  0
LINE
  8
0
 10
0
 20
100
 11
0
 21
40
  0
LINE
  8
0
 10
0
 20
40
 11
-2.01758
 21
40
  0
LINE
  8
0
 10
-2.01758
 20
40
 11
-2.03516
 21
39.999
  0
LINE
  8
0
 10
-2.03516
 20
39.999
 11
-2.05273
 21
39.999
  0
LINE
  8
0
 10
-2.05273
 20
39.999
 11
-2.06934
 21
39.998
  0
LINE
  8
0
 10
-2.06934
 20
39.998
 11
-2.13965
 21
39.9902
  0
LINE
  8
0
 10
-2.13965
 20
39.9902
 11
-2.15625
 21
39.9873
  0
LINE
  8
0
 10
-2.15625
 20
39.9873
 11
-2.17383
 21
39.9844
  0
LINE
  8
0
 10
-2.17383
 20
39.9844
 11
-2.19043
 21
39.9814
  0
LINE
  8
0
 10
-2.19043
 20
39.9814
 11
-2.20801
 21
39.9785
  0
LINE
  8
0
 10
-2.20801
 20
39.9785
 11
-2.22461
 21
39.9746
  0
LINE
  8
0
 10
-2.22461
 20
39.9746
 11
-2.24219
 21
39.9707
  0
LINE
  8
0
 10
-2.24219
 20
39.9707
 11
-2.30859
 21
39.9512
  0
LINE
  8
0
 10
-2.30859
 20
39.9512
 11
-2.3584
 21
39.9336
  0
LINE
  8
0
 10
-2.3584
 20
39.9336
 11
-2.375
 21
39.9268
  0
LINE
  8
0
 10
-2.375
 20
39.9268
 11
-2.39062
 21
39.9209
  0
LINE
  8
0
 10
-2.39062
 20
39.9209
 11
-2.40625
 21
39.9131
  0
LINE
  8
0
 10
-2.40625
 20
39.9131
 11
-2.42285
 21
39.9062
  0
LINE
  8
0
 10
-2.42285
 20
39.9062
 11
-2.46973
 21
39.8828
  0
LINE
  8
0
 10
-2.46973
 20
39.8828
 11
-2.48438
 21
39.875
  0
LINE
  8
0
 10
-2.48438
 20
39.875
 11
-2.5
 21
39.8662
  0
LINE
  8
0
 10
-2.5
 20
39.8662
 11
-2.51465
 21
39.8574
  0
LINE
  8
0
 10
-2.51465
 20
39.8574
 11
-2.53027
 21
39.8477
  0
LINE
  8
0
 10
-2.53027
 20
39.8477
 11
-2.54492
 21
39.8389
  0
LINE
  8
0
 10
-2.54492
 20
39.8389
 11
-2.55957
 21
39.8291
  0
LINE
  8
0
 10
-2.55957
 20
39.8291
 11
-2.57324
 21
39.8193
  0
LINE
  8
0
 10
-2.57324
 20
39.8193
 11
-2.58789
 21
39.8086
  0
LINE
  8
0
 10
-2.58789
 20
39.8086
 11
-2.60156
 21
39.7988
  0
LINE
  8
0
 10
-2.60156
 20
39.7988
 11
-2.62891
 21
39.7773
  0
LINE
  8
0
 10
-2.62891
 20
39.7773
 11
-2.64258
 21
39.7656
  0
LINE
  8
0
 10
-2.64258
 20
39.7656
 11
-2.65625
 21
39.7549
  0
LINE
  8
0
 10
-2.65625
 20
39.7549
 11
-2.69434
 21
39.7197
  0
LINE
  8
0
 10
-2.69434
 20
39.7197
 11
-2.71973
 21
39.6943
  0
LINE
  8
0
 10
-2.71973
 20
39.6943
 11
-2.75488
 21
39.6562
  0
LINE
  8
0
 10
-2.75488
 20
39.6562
 11
-2.76562
 21
39.6426
  0
LINE
  8
0
 10
-2.76562
 20
39.6426
 11
-2.77734
 21
39.6289
  0
LINE
  8
0
 10
-2.77734
 20
39.6289
 11
-2.79883
 21
39.6016
  0
LINE
  8
0
 10
-2.79883
 20
39.6016
 11
-2.80859
 21
39.5879
  0
LINE
  8
0
 10
-2.80859
 20
39.5879
 11
-2.81934
 21
39.5732
  0
LINE
  8
0
 10
-2.81934
 20
39.5732
 11
-2.8291
 21
39.5596
  0
LINE
  8
0
 10
-2.8291
 20
39.5596
 11
-2.83887
 21
39.5449
  0
LINE
  8
0
 10
-2.83887
 20
39.5449
 11
-2.84766
 21
39.5303
  0
LINE
  8
0
 10
-2.84766
 20
39.5303
 11
-2.85742
 21
39.5146
  0
LINE
  8
0
 10
-2.85742
 20
39.5146
 11
-2.86621
 21
39.5
  0
LINE
  8
0
 10
-2.86621
 20
39.5
 11
-2.875
 21
39.4844
  0
LINE
  8
0
 10
-2.875
 20
39.4844
 11
-2.88281
 21
39.4697
  0
LINE
  8
0
 10
-2.88281
 20
39.4697
 11
-2.90625
 21
39.4229
  0
LINE
  8
0
 10
-2.90625
 20
39.4229
 11
-2.91309
 21
39.4062
  0
LINE
  8
0
 10
-2.91309
 20
39.4062
 11
-2.9209
 21
39.3906
  0
LINE
  8
0
 10
-2.9209
 20
39.3906
 11
-2.92676
 21
39.375
  0
LINE
  8
0
 10
-2.92676
 20
39.375
 11
-2.93359
 21
39.3584
  0
LINE
  8
0
 10
-2.93359
 20
39.3584
 11
-2.95117
 21
39.3086
  0
LINE
  8
0
 10
-2.95117
 20
39.3086
 11
-2.9707
 21
39.2422
  0
LINE
  8
0
 10
-2.9707
 20
39.2422
 11
-2.97461
 21
39.2246
  0
LINE
  8
0
 10
-2.97461
 20
39.2246
 11
-2.97852
 21
39.208
  0
LINE
  8
0
 10
-2.97852
 20
39.208
 11
-2.98145
 21
39.1904
  0
LINE
  8
0
 10
-2.98145
 20
39.1904
 11
-2.98438
 21
39.1738
  0
LINE
  8
0
 10
-2.98438
 20
39.1738
 11
-2.9873
 21
39.1562
  0
LINE
  8
0
 10
-2.9873
 20
39.1562
 11
-2.99023
 21
39.1396
  0
LINE
  8
0
 10
-2.99023
 20
39.1396
 11
-2.99805
 21
39.0693
  0
LINE
  8
0
 10
-2.99805
 20
39.0693
 11
-2.99902
 21
39.0527
  0
LINE
  8
0
 10
-2.99902
 20
39.0527
 11
-2.99902
 21
39.0352
  0
LINE
  8
0
 10
-2.99902
 20
39.0352
 11
-3
 21
39.0176
  0
LINE
  8
0
 10
-3
 20
39.0176
 11
-3
 21
30.9824
  0
LINE
  8
0
 10
-3
 20
30.9824
 11
-2.99902
 21
30.9648
  0
LINE
  8
0
 10
-2.99902
 20
30.9648
 11
-2.99902
 21
30.9473
  0
LINE
  8
0
 10
-2.99902
 20
30.9473
 11
-2.99805
 21
30.9307
  0
LINE
  8
0
 10
-2.99805
 20
30.9307
 11
-2.99023
 21
30.8604
  0
LINE
  8
0
 10
-2.99023
 20
30.8604
 11
-2.9873
 21
30.8438
  0
LINE
  8
0
 10
-2.9873
 20
30.8438
 11
-2.98438
 21
30.8262
  0
LINE
  8
0
 10
-2.98438
 20
30.8262
 11
-2.98145
 21
30.8096
  0
LINE
  8
0
 10
-2.98145
 20
30.8096
 11
-2.97852
 21
30.792
  0
LINE
  8
0
 10
-2.97852
 20
30.792
 11
-2.97461
 21
30.7754
  0
LINE
  8
0
 10
-2.97461
 20
30.7754
 11
-2.9707
 21
30.7578
  0
LINE
  8
0
 10
-2.9707
 20
30.7578
 11
-2.95117
 21
30.6914
  0
LINE
  8
0
 10
-2.95117
 20
30.6914
 11
-2.93359
 21
30.6416
  0
LINE
  8
0
 10
-2.93359
 20
30.6416
 11
-2.92676
 21
30.625
  0
LINE
  8
0
 10
-2.92676
 20
30.625
 11
-2.9209
 21
30.6094
  0
LINE
  8
0
 10
-2.9209
 20
30.6094
 11
-2.91309
 21
30.5938
  0
LINE
  8
0
 10
-2.91309
 20
30.5938
 11
-2.90625
 21
30.5771
  0
LINE
  8
0
 10
-2.90625
 20
30.5771
 11
-2.88281
 21
30.5303
  0
LINE
  8
0
 10
-2.88281
 20
30.5303
 11
-2.875
 21
30.5156
  0
LINE
  8
0
 10
-2.875
 20
30.5156
 11
-2.86621
 21
30.5
  0
LINE
  8
0
 10
-2.86621
 20
30.5
 11
-2.85742
 21
30.4854
  0
LINE
  8
0
 10
-2.85742
 20
30.4854
 11
-2.84766
 21
30.4697
  0
LINE
  8
0
 10
-2.84766
 20
30.4697
 11
-2.83887
 21
30.4551
  0
LINE
  8
0
 10
-2.83887
 20
30.4551
 11
-2.8291
 21
30.4404
  0
LINE
  8
0
 10
-2.8291
 20
30.4404
 11
-2.81934
 21
30.4268
  0
LINE
  8
0
 10
-2.81934
 20
30.4268
 11
-2.80859
 21
30.4121
  0
LINE
  8
0
 10
-2.80859
 20
30.4121
 11
-2.79883
 21
30.3984
  0
LINE
  8
0
 10
-2.79883
 20
30.3984
 11
-2.77734
 21
30.3711
  0
LINE
  8
0
 10
-2.77734
 20
30.3711
 11
-2.76562
 21
30.3574
  0
LINE
  8
0
 10
-2.76562
 20
30.3574
 11
-2.75488
 21
30.3438
  0
LINE
  8
0
 10
-2.75488
 20
30.3438
 11
-2.71973
 21
30.3057
  0
LINE
  8
0
 10
-2.71973
 20
30.3057
 11
-2.69434
 21
30.2803
  0
LINE
  8
0
 10
-2.69434
 20
30.2803
 11
-2.65625
 21
30.2451
  0
LINE
  8
0
 10
-2.65625
 20
30.2451
 11
-2.64258
 21
30.2344
  0
LINE
  8
0
 10
-2.64258
 20
30.2344
 11
-2.62891
 21
30.2227
  0
LINE
  8
0
 10
-2.62891
 20
30.2227
 11
-2.60156
 21
30.2012
  0
LINE
  8
0
 10
-2.60156
 20
30.2012
 11
-2.58789
 21
30.1914
  0
LINE
  8
0
 10
-2.58789
 20
30.1914
 11
-2.57324
 21
30.1807
  0
LINE
  8
0
 10
-2.57324
 20
30.1807
 11
-2.55957
 21
30.1709
  0
LINE
  8
0
 10
-2.55957
 20
30.1709
 11
-2.54492
 21
30.1611
  0
LINE
  8
0
 10
-2.54492
 20
30.1611
 11
-2.53027
 21
30.1523
  0
LINE
  8
0
 10
-2.53027
 20
30.1523
 11
-2.51465
 21
30.1426
  0
LINE
  8
0
 10
-2.51465
 20
30.1426
 11
-2.5
 21
30.1338
  0
LINE
  8
0
 10
-2.5
 20
30.1338
 11
-2.48438
 21
30.125
  0
LINE
  8
0
 10
-2.48438
 20
30.125
 11
-2.46973
 21
30.1172
  0
LINE
  8
0
 10
-2.46973
 20
30.1172
 11
-2.42285
 21
30.0938
  0
LINE
  8
0
 10
-2.42285
 20
30.0938
 11
-2.40625
 21
30.0869
  0
LINE
  8
0
 10
-2.40625
 20
30.0869
 11
-2.39062
 21
30.0791
  0
LINE
  8
0
 10
-2.39062
 20
30.0791
 11
-2.375
 21
30.0732
  0
LINE
  8
0
 10
-2.375
 20
30.0732
 11
-2.3584
 21
30.0664
  0
LINE
  8
0
 10
-2.3584
 20
30.0664
 11
-2.30859
 21
30.0488
  0
LINE
  8
0
 10
-2.30859
 20
30.0488
 11
-2.24219
 21
30.0293
  0
LINE
  8
0
 10
-2.24219
 20
30.0293
 11
-2.22461
 21
30.0254
  0
LINE
  8
0
 10
-2.22461
 20
30.0254
 11
-2.20801
 21
30.0215
  0
LINE
  8
0
 10
-2.20801
 20
30.0215
 11
-2.19043
 21
30.0186
  0
LINE
  8
0
 10
-2.19043
 20
30.0186
 11
-2.17383
 21
30.0156
  0
LINE
  8
0
 10
-2.17383
 20
30.0156
 11
-2.15625
 21
30.0127
  0
LINE
  8
0
 10
-2.15625
 20
30.0127
 11
-2.13965
 21
30.0098
  0
LINE
  8
0
 10
-2.13965
 20
30.0098
 11
-2.06934
 21
30.002
  0
LINE
  8
0
 10
-2.06934
 20
30.002
 11
-2.05273
 21
30.001
  0
LINE
  8
0
 10
-2.05273
 20
30.001
 11
-2.03516
 21
30.001
  0
LINE
  8
0
 10
-2.03516
 20
30.001
 11
-2.01758
 21
30
  0
LINE
  8
0
 10
-2.01758
 20
30
 11
0
 21
30
  0
LINE
  8
0
 10
0
 20
30
 11
0.0498047
 21
0
  0
LINE
  8
0
 10
0.0498047
 20
0
 11
101
 21
0
  0
LINE
  8
0
 10
101
 20
0
 11
100.95
 21
30
  0
LINE
  8
0
 10
8.97168
 20
101.9
 11
8.91602
 21
101.902
  0
LINE
  8
0
 10
8.91602
 20
101.902
 11
8.88867
 21
101.904
  0
LINE
  8
0
 10
8.88867
 20
101.904
 11
8.86035
 21
101.906
  0
LINE
  8
0
 10
8.86035
 20
101.906
 11
8.83301
 21
101.909
  0
LINE
  8
0
 10
8.83301
 20
101.909
 11
8.80469
 21
101.912
  0
LINE
  8
0
 10
8.80469
 20
101.912
 11
8.75
 21
101.92
  0
LINE
  8
0
 10
8.75
 20
101.92
 11
8.72168
 21
101.924
  0
LINE
  8
0
 10
8.72168
 20
101.924
 11
8.69434
 21
101.93
  0
LINE
  8
0
 10
8.69434
 20
101.93
 11
8.66699
 21
101.935
  0
LINE
  8
0
 10
8.66699
 20
101.935
 11
8.63965
 21
101.941
  0
LINE
  8
0
 10
8.63965
 20
101.941
 11
8.61328
 21
101.947
  0
LINE
  8
0
 10
8.61328
 20
101.947
 11
8.58594
 21
101.954
  0
LINE
  8
0
 10
8.58594
 20
101.954
 11
8.55859
 21
101.962
  0
LINE
  8
0
 10
8.55859
 20
101.962
 11
8.53223
 21
101.97
  0
LINE
  8
0
 10
8.53223
 20
101.97
 11
8.45312
 21
101.996
  0
LINE
  8
0
 10
8.45312
 20
101.996
 11
8.42676
 21
102.006
  0
LINE
  8
0
 10
8.42676
 20
102.006
 11
8.40039
 21
102.017
  0
LINE
  8
0
 10
8.40039
 20
102.017
 11
8.34961
 21
102.038
  0
LINE
  8
0
 10
8.34961
 20
102.038
 11
8.29883
 21
102.062
  0
LINE
  8
0
 10
8.29883
 20
102.062
 11
8.27344
 21
102.074
  0
LINE
  8
0
 10
8.27344
 20
102.074
 11
8.24902
 21
102.087
  0
LINE
  8
0
 10
8.24902
 20
102.087
 11
8.2002
 21
102.114
  0
LINE
  8
0
 10
8.2002
 20
102.114
 11
8.17578
 21
102.129
  0
LINE
  8
0
 10
8.17578
 20
102.129
 11
8.12891
 21
102.158
  0
LINE
  8
0
 10
8.12891
 20
102.158
 11
8.08203
 21
102.189
  0
LINE
  8
0
 10
8.08203
 20
102.189
 11
8.01465
 21
102.239
  0
LINE
  8
0
 10
8.01465
 20
102.239
 11
7.9502
 21
102.292
  0
LINE
  8
0
 10
7.9502
 20
102.292
 11
7.92969
 21
102.311
  0
LINE
  8
0
 10
7.92969
 20
102.311
 11
7.90918
 21
102.33
  0
LINE
  8
0
 10
7.90918
 20
102.33
 11
7.88867
 21
102.349
  0
LINE
  8
0
 10
7.88867
 20
102.349
 11
7.86816
 21
102.368
  0
LINE
  8
0
 10
7.86816
 20
102.368
 11
7.84863
 21
102.389
  0
LINE
  8
0
 10
7.84863
 20
102.389
 11
7.83008
 21
102.409
  0
LINE
  8
0
 10
7.83008
 20
102.409
 11
7.81055
 21
102.43
  0
LINE
  8
0
 10
7.81055
 20
102.43
 11
7.79199
 21
102.45
  0
LINE
  8
0
 10
7.79199
 20
102.45
 11
7.73926
 21
102.515
  0
LINE
  8
0
 10
7.73926
 20
102.515
 11
7.68945
 21
102.582
  0
LINE
  8
0
 10
7.68945
 20
102.582
 11
7.6582
 21
102.629
  0
LINE
  8
0
 10
7.6582
 20
102.629
 11
7.62891
 21
102.676
  0
LINE
  8
0
 10
7.62891
 20
102.676
 11
7.61426
 21
102.7
  0
LINE
  8
0
 10
7.61426
 20
102.7
 11
7.58691
 21
102.749
  0
LINE
  8
0
 10
7.58691
 20
102.749
 11
7.57422
 21
102.773
  0
LINE
  8
0
 10
7.57422
 20
102.773
 11
7.56152
 21
102.799
  0
LINE
  8
0
 10
7.56152
 20
102.799
 11
7.53809
 21
102.85
  0
LINE
  8
0
 10
7.53809
 20
102.85
 11
7.5166
 21
102.9
  0
LINE
  8
0
 10
7.5166
 20
102.9
 11
7.50586
 21
102.927
  0
LINE
  8
0
 10
7.50586
 20
102.927
 11
7.49609
 21
102.953
  0
LINE
  8
0
 10
7.49609
 20
102.953
 11
7.46973
 21
103.032
  0
LINE
  8
0
 10
7.46973
 20
103.032
 11
7.46191
 21
103.059
  0
LINE
  8
0
 10
7.46191
 20
103.059
 11
7.4541
 21
103.086
  0
LINE
  8
0
 10
7.4541
 20
103.086
 11
7.44727
 21
103.113
  0
LINE
  8
0
 10
7.44727
 20
103.113
 11
7.44141
 21
103.14
  0
LINE
  8
0
 10
7.44141
 20
103.14
 11
7.43457
 21
103.167
  0
LINE
  8
0
 10
7.43457
 20
103.167
 11
7.42969
 21
103.194
  0
LINE
  8
0
 10
7.42969
 20
103.194
 11
7.42383
 21
103.222
  0
LINE
  8
0
 10
7.42383
 20
103.222
 11
7.41992
 21
103.25
  0
LINE
  8
0
 10
7.41992
 20
103.25
 11
7.41211
 21
103.305
  0
LINE
  8
0
 10
7.41211
 20
103.305
 11
7.40918
 21
103.333
  0
LINE
  8
0
 10
7.40918
 20
103.333
 11
7.40625
 21
103.36
  0
LINE
  8
0
 10
7.40625
 20
103.36
 11
7.4043
 21
103.389
  0
LINE
  8
0
 10
7.4043
 20
103.389
 11
7.40234
 21
103.416
  0
LINE
  8
0
 10
7.40234
 20
103.416
 11
7.40039
 21
103.472
  0
LINE
  8
0
 10
7.40039
 20
103.472
 11
7.40039
 21
103.528
  0
LINE
  8
0
 10
7.40039
 20
103.528
 11
7.40234
 21
103.584
  0
LINE
  8
0
 10
7.40234
 20
103.584
 11
7.4043
 21
103.611
  0
LINE
  8
0
 10
7.4043
 20
103.611
 11
7.40625
 21
103.64
  0
LINE
  8
0
 10
7.40625
 20
103.64
 11
7.40918
 21
103.667
  0
LINE
  8
0
 10
7.40918
 20
103.667
 11
7.41211
 21
103.695
  0
LINE
  8
0
 10
7.41211
 20
103.695
 11
7.41992
 21
103.75
  0
LINE
  8
0
 10
7.41992
 20
103.75
 11
7.42383
 21
103.778
  0
LINE
  8
0
 10
7.42383
 20
103.778
 11
7.42969
 21
103.806
  0
LINE
  8
0
 10
7.42969
 20
103.806
 11
7.43457
 21
103.833
  0
LINE
  8
0
 10
7.43457
 20
103.833
 11
7.44141
 21
103.86
  0
LINE
  8
0
 10
7.44141
 20
103.86
 11
7.44727
 21
103.887
  0
LINE
  8
0
 10
7.44727
 20
103.887
 11
7.4541
 21
103.914
  0
LINE
  8
0
 10
7.4541
 20
103.914
 11
7.46191
 21
103.941
  0
LINE
  8
0
 10
7.46191
 20
103.941
 11
7.46973
 21
103.968
  0
LINE
  8
0
 10
7.46973
 20
103.968
 11
7.49609
 21
104.047
  0
LINE
  8
0
 10
7.49609
 20
104.047
 11
7.50586
 21
104.073
  0
LINE
  8
0
 10
7.50586
 20
104.073
 11
7.5166
 21
104.1
  0
LINE
  8
0
 10
7.5166
 20
104.1
 11
7.53809
 21
104.15
  0
LINE
  8
0
 10
7.53809
 20
104.15
 11
7.56152
 21
104.201
  0
LINE
  8
0
 10
7.56152
 20
104.201
 11
7.57422
 21
104.227
  0
LINE
  8
0
 10
7.57422
 20
104.227
 11
7.58691
 21
104.251
  0
LINE
  8
0
 10
7.58691
 20
104.251
 11
7.61426
 21
104.3
  0
LINE
  8
0
 10
7.61426
 20
104.3
 11
7.62891
 21
104.324
  0
LINE
  8
0
 10
7.62891
 20
104.324
 11
7.6582
 21
104.371
  0
LINE
  8
0
 10
7.6582
 20
104.371
 11
7.68945
 21
104.418
  0
LINE
  8
0
 10
7.68945
 20
104.418
 11
7.73926
 21
104.485
  0
LINE
  8
0
 10
7.73926
 20
104.485
 11
7.79199
 21
104.55
  0
LINE
  8
0
 10
7.79199
 20
104.55
 11
7.81055
 21
104.57
  0
LINE
  8
0
 10
7.81055
 20
104.57
 11
7.83008
 21
104.591
  0
LINE
  8
0
 10
7.83008
 20
104.591
 11
7.84863
 21
104.611
  0
LINE
  8
0
 10
7.84863
 20
104.611
 11
7.86816
 21
104.632
  0
LINE
  8
0
 10
7.86816
 20
104.632
 11
7.88867
 21
104.651
  0
LINE
  8
0
 10
7.88867
 20
104.651
 11
7.90918
 21
104.67
  0
LINE
  8
0
 10
7.90918
 20
104.67
 11
7.92969
 21
104.689
  0
LINE
  8
0
 10
7.92969
 20
104.689
 11
7.9502
 21
104.708
  0
LINE
  8
0
 10
7.9502
 20
104.708
 11
8.01465
 21
104.761
  0
LINE
  8
0
 10
8.01465
 20
104.761
 11
8.08203
 21
104.811
  0
LINE
  8
0
 10
8.08203
 20
104.811
 11
8.12891
 21
104.842
  0
LINE
  8
0
 10
8.12891
 20
104.842
 11
8.17578
 21
104.871
  0
LINE
  8
0
 10
8.17578
 20
104.871
 11
8.2002
 21
104.886
  0
LINE
  8
0
 10
8.2002
 20
104.886
 11
8.24902
 21
104.913
  0
LINE
  8
0
 10
8.24902
 20
104.913
 11
8.27344
 21
104.926
  0
LINE
  8
0
 10
8.27344
 20
104.926
 11
8.29883
 21
104.938
  0
LINE
  8
0
 10
8.29883
 20
104.938
 11
8.34961
 21
104.962
  0
LINE
  8
0
 10
8.34961
 20
104.962
 11
8.40039
 21
104.983
  0
LINE
  8
0
 10
8.40039
 20
104.983
 11
8.42676
 21
104.994
  0
LINE
  8
0
 10
8.42676
 20
104.994
 11
8.45312
 21
105.004
  0
LINE
  8
0
 10
8.45312
 20
105.004
 11
8.53223
 21
105.03
  0
LINE
  8
0
 10
8.53223
 20
105.03
 11
8.55859
 21
105.038
  0
LINE
  8
0
 10
8.55859
 20
105.038
 11
8.58594
 21
105.046
  0
LINE
  8
0
 10
8.58594
 20
105.046
 11
8.61328
 21
105.053
  0
LINE
  8
0
 10
8.61328
 20
105.053
 11
8.63965
 21
105.059
  0
LINE
  8
0
 10
8.63965
 20
105.059
 11
8.66699
 21
105.065
  0
LINE
  8
0
 10
8.66699
 20
105.065
 11
8.69434
 21
105.07
  0
LINE
  8
0
 10
8.69434
 20
105.07
 11
8.72168
 21
105.076
  0
LINE
  8
0
 10
8.72168
 20
105.076
 11
8.75
 21
105.08
  0
LINE
  8
0
 10
8.75
 20
105.08
 11
8.80469
 21
105.088
  0
LINE
  8
0
 10
8.80469
 20
105.088
 11
8.83301
 21
105.091
  0
LINE
  8
0
 10
8.83301
 20
105.091
 11
8.86035
 21
105.094
  0
LINE
  8
0
 10
8.86035
 20
105.094
 11
8.88867
 21
105.096
  0
LINE
  8
0
 10
8.88867
 20
105.096
 11
8.91602
 21
105.098
  0
LINE
  8
0
 10
8.91602
 20
105.098
 11
8.97168
 21
105.1
  0
LINE
  8
0
 10
8.97168
 20
105.1
 11
9.02832
 21
105.1
  0
LINE
  8
0
 10
9.02832
 20
105.1
 11
9.08398
 21
105.098
  0
LINE
  8
0
 10
9.08398
 20
105.098
 11
9.11133
 21
105.096
  0
LINE
  8
0
 10
9.11133
 20
105.096
 11
9.13965
 21
105.094
  0
LINE
  8
0
 10
9.13965
 20
105.094
 11
9.16699
 21
105.091
  0
LINE
  8
0
 10
9.16699
 20
105.091
 11
9.19531
 21
105.088
  0
LINE
  8
0
 10
9.19531
 20
105.088
 11
9.25
 21
105.08
  0
LINE
  8
0
 10
9.25
 20
105.08
 11
9.27832
 21
105.076
  0
LINE
  8
0
 10
9.27832
 20
105.076
 11
9.30566
 21
105.07
  0
LINE
  8
0
 10
9.30566
 20
105.07
 11
9.33301
 21
105.065
  0
LINE
  8
0
 10
9.33301
 20
105.065
 11
9.36035
 21
105.059
  0
LINE
  8
0
 10
9.36035
 20
105.059
 11
9.38672
 21
105.053
  0
LINE
  8
0
 10
9.38672
 20
105.053
 11
9.41406
 21
105.046
  0
LINE
  8
0
 10
9.41406
 20
105.046
 11
9.44141
 21
105.038
  0
LINE
  8
0
 10
9.44141
 20
105.038
 11
9.46777
 21
105.03
  0
LINE
  8
0
 10
9.46777
 20
105.03
 11
9.54688
 21
105.004
  0
LINE
  8
0
 10
9.54688
 20
105.004
 11
9.57324
 21
104.994
  0
LINE
  8
0
 10
9.57324
 20
104.994
 11
9.59961
 21
104.983
  0
LINE
  8
0
 10
9.59961
 20
104.983
 11
9.65039
 21
104.962
  0
LINE
  8
0
 10
9.65039
 20
104.962
 11
9.70117
 21
104.938
  0
LINE
  8
0
 10
9.70117
 20
104.938
 11
9.72656
 21
104.926
  0
LINE
  8
0
 10
9.72656
 20
104.926
 11
9.75098
 21
104.913
  0
LINE
  8
0
 10
9.75098
 20
104.913
 11
9.7998
 21
104.886
  0
LINE
  8
0
 10
9.7998
 20
104.886
 11
9.82422
 21
104.871
  0
LINE
  8
0
 10
9.82422
 20
104.871
 11
9.87109
 21
104.842
  0
LINE
  8
0
 10
9.87109
 20
104.842
 11
9.91797
 21
104.811
  0
LINE
  8
0
 10
9.91797
 20
104.811
 11
9.98535
 21
104.761
  0
LINE
  8
0
 10
9.98535
 20
104.761
 11
10.0498
 21
104.708
  0
LINE
  8
0
 10
10.0498
 20
104.708
 11
10.0703
 21
104.689
  0
LINE
  8
0
 10
10.0703
 20
104.689
 11
10.0908
 21
104.67
  0
LINE
  8
0
 10
10.0908
 20
104.67
 11
10.1113
 21
104.651
  0
LINE
  8
0
 10
10.1113
 20
104.651
 11
10.1318
 21
104.632
  0
LINE
  8
0
 10
10.1318
 20
104.632
 11
10.1514
 21
104.611
  0
LINE
  8
0
 10
10.1514
 20
104.611
 11
10.1699
 21
104.591
  0
LINE
  8
0
 10
10.1699
 20
104.591
 11
10.1895
 21
104.57
  0
LINE
  8
0
 10
10.1895
 20
104.57
 11
10.208
 21
104.55
  0
LINE
  8
0
 10
10.208
 20
104.55
 11
10.2607
 21
104.485
  0
LINE
  8
0
 10
10.2607
 20
104.485
 11
10.3105
 21
104.418
  0
LINE
  8
0
 10
10.3105
 20
104.418
 11
10.3418
 21
104.371
  0
LINE
  8
0
 10
10.3418
 20
104.371
 11
10.3711
 21
104.324
  0
LINE
  8
0
 10
10.3711
 20
104.324
 11
10.3857
 21
104.3
  0
LINE
  8
0
 10
10.3857
 20
104.3
 11
10.4131
 21
104.251
  0
LINE
  8
0
 10
10.4131
 20
104.251
 11
10.4258
 21
104.227
  0
LINE
  8
0
 10
10.4258
 20
104.227
 11
10.4385
 21
104.201
  0
LINE
  8
0
 10
10.4385
 20
104.201
 11
10.4619
 21
104.15
  0
LINE
  8
0
 10
10.4619
 20
104.15
 11
10.4834
 21
104.1
  0
LINE
  8
0
 10
10.4834
 20
104.1
 11
10.4941
 21
104.073
  0
LINE
  8
0
 10
10.4941
 20
104.073
 11
10.5039
 21
104.047
  0
LINE
  8
0
 10
10.5039
 20
104.047
 11
10.5303
 21
103.968
  0
LINE
  8
0
 10
10.5303
 20
103.968
 11
10.5381
 21
103.941
  0
LINE
  8
0
 10
10.5381
 20
103.941
 11
10.5459
 21
103.914
  0
LINE
  8
0
 10
10.5459
 20
103.914
 11
10.5527
 21
103.887
  0
LINE
  8
0
 10
10.5527
 20
103.887
 11
10.5586
 21
103.86
  0
LINE
  8
0
 10
10.5586
 20
103.86
 11
10.5654
 21
103.833
  0
LINE
  8
0
 10
10.5654
 20
103.833
 11
10.5703
 21
103.806
  0
LINE
  8
0
 10
10.5703
 20
103.806
 11
10.5762
 21
103.778
  0
LINE
  8
0
 10
10.5762
 20
103.778
 11
10.5801
 21
103.75
  0
LINE
  8
0
 10
10.5801
 20
103.75
 11
10.5879
 21
103.695
  0
LINE
  8
0
 10
10.5879
 20
103.695
 11
10.5908
 21
103.667
  0
LINE
  8
0
 10
10.5908
 20
103.667
 11
10.5938
 21
103.64
  0
LINE
  8
0
 10
10.5938
 20
103.64
 11
10.5957
 21
103.611
  0
LINE
  8
0
 10
10.5957
 20
103.611
 11
10.5977
 21
103.584
  0
LINE
  8
0
 10
10.5977
 20
103.584
 11
10.5996
 21
103.528
  0
LINE
  8
0
 10
10.5996
 20
103.528
 11
10.5996
 21
103.472
  0
LINE
  8
0
 10
10.5996
 20
103.472
 11
10.5977
 21
103.416
  0
LINE
  8
0
 10
10.5977
 20
103.416
 11
10.5957
 21
103.389
  0
LINE
  8
0
 10
10.5957
 20
103.389
 11
10.5938
 21
103.36
  0
LINE
  8
0
 10
10.5938
 20
103.36
 11
10.5908
 21
103.333
  0
LINE
  8
0
 10
10.5908
 20
103.333
 11
10.5879
 21
103.305
  0
LINE
  8
0
 10
10.5879
 20
103.305
 11
10.5801
 21
103.25
  0
LINE
  8
0
 10
10.5801
 20
103.25
 11
10.5762
 21
103.222
  0
LINE
  8
0
 10
10.5762
 20
103.222
 11
10.5703
 21
103.194
  0
LINE
  8
0
 10
10.5703
 20
103.194
 11
10.5654
 21
103.167
  0
LINE
  8
0
 10
10.5654
 20
103.167
 11
10.5586
 21
103.14
  0
LINE
  8
0
 10
10.5586
 20
103.14
 11
10.5527
 21
103.113
  0
LINE
  8
0
 10
10.5527
 20
103.113
 11
10.5459
 21
103.086
  0
LINE
  8
0
 10
10.5459
 20
103.086
 11
10.5381
 21
103.059
  0
LINE
  8
0
 10
10.5381
 20
103.059
 11
10.5303
 21
103.032
  0
LINE
  8
0
 10
10.5303
 20
103.032
 11
10.5039
 21
102.953
  0
LINE
  8
0
 10
10.5039
 20
102.953
 11
10.4941
 21
102.927
  0
LINE
  8
0
 10
10.4941
 20
102.927
 11
10.4834
 21
102.9
  0
LINE
  8
0
 10
10.4834
 20
102.9
 11
10.4619
 21
102.85
  0
LINE
  8
0
 10
10.4619
 20
102.85
 11
10.4385
 21
102.799
  0
LINE
  8
0
 10
10.4385
 20
102.799
 11
10.4258
 21
102.773
  0
LINE
  8
0
 10
10.4258
 20
102.773
 11
10.4131
 21
102.749
  0
LINE
  8
0
 10
10.4131
 20
102.749
 11
10.3857
 21
102.7
  0
LINE
  8
0
 10
10.3857
 20
102.7
 11
10.3711
 21
102.676
  0
LINE
  8
0
 10
10.3711
 20
102.676
 11
10.3418
 21
102.629
  0
LINE
  8
0
 10
10.3418
 20
102.629
 11
10.3105
 21
102.582
  0
LINE
  8
0
 10
10.3105
 20
102.582
 11
10.2607
 21
102.515
  0
LINE
  8
0
 10
10.2607
 20
102.515
 11
10.208
 21
102.45
  0
LINE
  8
0
 10
10.208
 20
102.45
 11
10.1895
 21
102.43
  0
LINE
  8
0
 10
10.1895
 20
102.43
 11
10.1699
 21
102.409
  0
LINE
  8
0
 10
10.1699
 20
102.409
 11
10.1514
 21
102.389
  0
LINE
  8
0
 10
10.1514
 20
102.389
 11
10.1318
 21
102.368
  0
LINE
  8
0
 10
10.1318
 20
102.368
 11
10.1113
 21
102.349
  0
LINE
  8
0
 10
10.1113
 20
102.349
 11
10.0908
 21
102.33
  0
LINE
  8
0
 10
10.0908
 20
102.33
 11
10.0703
 21
102.311
  0
LINE
  8
0
 10
10.0703
 20
102.311
 11
10.0498
 21
102.292
  0
LINE
  8
0
 10
10.0498
 20
102.292
 11
9.98535
 21
102.239
  0
LINE
  8
0
 10
9.98535
 20
102.239
 11
9.91797
 21
102.189
  0
LINE
  8
0
 10
9.91797
 20
102.189
 11
9.87109
 21
102.158
  0
LINE
  8
0
 10
9.87109
 20
102.158
 11
9.82422
 21
102.129
  0
LINE
  8
0
 10
9.82422
 20
102.129
 11
9.7998
 21
102.114
  0
LINE
  8
0
 10
9.7998
 20
102.114
 11
9.75098
 21
102.087
  0
LINE
  8
0
 10
9.75098
 20
102.087
 11
9.72656
 21
102.074
  0
LINE
  8
0
 10
9.72656
 20
102.074
 11
9.70117
 21
102.062
  0
LINE
  8
0
 10
9.70117
 20
102.062
 11
9.65039
 21
102.038
  0
LINE
  8
0
 10
9.65039
 20
102.038
 11
9.59961
 21
102.017
  0
LINE
  8
0
 10
9.59961
 20
102.017
 11
9.57324
 21
102.006
  0
LINE
  8
0
 10
9.57324
 20
102.006
 11
9.54688
 21
101.996
  0
LINE
  8
0
 10
9.54688
 20
101.996
 11
9.46777
 21
101.97
  0
LINE
  8
0
 10
9.46777
 20
101.97
 11
9.44141
 21
101.962
  0
LINE
  8
0
 10
9.44141
 20
101.962
 11
9.41406
 21
101.954
  0
LINE
  8
0
 10
9.41406
 20
101.954
 11
9.38672
 21
101.947
  0
LINE
  8
0
 10
9.38672
 20
101.947
 11
9.36035
 21
101.941
  0
LINE
  8
0
 10
9.36035
 20
101.941
 11
9.33301
 21
101.935
  0
LINE
  8
0
 10
9.33301
 20
101.935
 11
9.30566
 21
101.93
  0
LINE
  8
0
 10
9.30566
 20
101.93
 11
9.27832
 21
101.924
  0
LINE
  8
0
 10
9.27832
 20
101.924
 11
9.25
 21
101.92
  0
LINE
  8
0
 10
9.25
 20
101.92
 11
9.19531
 21
101.912
  0
LINE
  8
0
 10
9.19531
 20
101.912
 11
9.16699
 21
101.909
  0
LINE
  8
0
 10
9.16699
 20
101.909
 11
9.13965
 21
101.906
  0
LINE
  8
0
 10
9.13965
 20
101.906
 11
9.11133
 21
101.904
  0
LINE
  8
0
 10
9.11133
 20
101.904
 11
9.08398
 21
101.902
  0
LINE
  8
0
 10
9.08398
 20
101.902
 11
9.02832
 21
101.9
  0
LINE
  8
0
 10
9.02832
 20
101.9
 11
8.97168
 21
101.9
  0
LINE
  8
0
 10
91.4717
 20
101.4
 11
91.416
 21
101.402
  0
LINE
  8
0
 10
91.416
 20
101.402
 11
91.3887
 21
101.404
  0
LINE
  8
0
 10
91.3887
 20
101.404
 11
91.3604
 21
101.406
  0
LINE
  8
0
 10
91.3604
 20
101.406
 11
91.333
 21
101.409
  0
LINE
  8
0
 10
91.333
 20
101.409
 11
91.3047
 21
101.412
  0
LINE
  8
0
 10
91.3047
 20
101.412
 11
91.25
 21
101.42
  0
LINE
  8
0
 10
91.25
 20
101.42
 11
91.2217
 21
101.424
  0
LINE
  8
0
 10
91.2217
 20
101.424
 11
91.1943
 21
101.43
  0
LINE
  8
0
 10
91.1943
 20
101.43
 11
91.167
 21
101.435
  0
LINE
  8
0
 10
91.167
 20
101.435
 11
91.1396
 21
101.441
  0
LINE
  8
0
 10
91.1396
 20
101.441
 11
91.1133
 21
101.447
  0
LINE
  8
0
 10
91.1133
 20
101.447
 11
91.0859
 21
101.454
  0
LINE
  8
0
 10
91.0859
 20
101.454
 11
91.0586
 21
101.462
  0
LINE
  8
0
 10
91.0586
 20
101.462
 11
91.0322
 21
101.47
  0
LINE
  8
0
 10
91.0322
 20
101.47
 11
90.9531
 21
101.496
  0
LINE
  8
0
 10
90.9531
 20
101.496
 11
90.9268
 21
101.506
  0
LINE
  8
0
 10
90.9268
 20
101.506
 11
90.9004
 21
101.517
  0
LINE
  8
0
 10
90.9004
 20
101.517
 11
90.8496
 21
101.538
  0
LINE
  8
0
 10
90.8496
 20
101.538
 11
90.7988
 21
101.562
  0
LINE
  8
0
 10
90.7988
 20
101.562
 11
90.7734
 21
101.574
  0
LINE
  8
0
 10
90.7734
 20
101.574
 11
90.749
 21
101.587
  0
LINE
  8
0
 10
90.749
 20
101.587
 11
90.7002
 21
101.614
  0
LINE
  8
0
 10
90.7002
 20
101.614
 11
90.6758
 21
101.629
  0
LINE
  8
0
 10
90.6758
 20
101.629
 11
90.6289
 21
101.658
  0
LINE
  8
0
 10
90.6289
 20
101.658
 11
90.582
 21
101.689
  0
LINE
  8
0
 10
90.582
 20
101.689
 11
90.5146
 21
101.739
  0
LINE
  8
0
 10
90.5146
 20
101.739
 11
90.4502
 21
101.792
  0
LINE
  8
0
 10
90.4502
 20
101.792
 11
90.4297
 21
101.811
  0
LINE
  8
0
 10
90.4297
 20
101.811
 11
90.4092
 21
101.83
  0
LINE
  8
0
 10
90.4092
 20
101.83
 11
90.3887
 21
101.849
  0
LINE
  8
0
 10
90.3887
 20
101.849
 11
90.3682
 21
101.868
  0
LINE
  8
0
 10
90.3682
 20
101.868
 11
90.3486
 21
101.889
  0
LINE
  8
0
 10
90.3486
 20
101.889
 11
90.3301
 21
101.909
  0
LINE
  8
0
 10
90.3301
 20
101.909
 11
90.3105
 21
101.93
  0
LINE
  8
0
 10
90.3105
 20
101.93
 11
90.292
 21
101.95
  0
LINE
  8
0
 10
90.292
 20
101.95
 11
90.2393
 21
102.015
  0
LINE
  8
0
 10
90.2393
 20
102.015
 11
90.1895
 21
102.082
  0
LINE
  8
0
 10
90.1895
 20
102.082
 11
90.1582
 21
102.129
  0
LINE
  8
0
 10
90.1582
 20
102.129
 11
90.1289
 21
102.176
  0
LINE
  8
0
 10
90.1289
 20
102.176
 11
90.1143
 21
102.2
  0
LINE
  8
0
 10
90.1143
 20
102.2
 11
90.0869
 21
102.249
  0
LINE
  8
0
 10
90.0869
 20
102.249
 11
90.0742
 21
102.273
  0
LINE
  8
0
 10
90.0742
 20
102.273
 11
90.0615
 21
102.299
  0
LINE
  8
0
 10
90.0615
 20
102.299
 11
90.0381
 21
102.35
  0
LINE
  8
0
 10
90.0381
 20
102.35
 11
90.0166
 21
102.4
  0
LINE
  8
0
 10
90.0166
 20
102.4
 11
90.0059
 21
102.427
  0
LINE
  8
0
 10
90.0059
 20
102.427
 11
89.9961
 21
102.453
  0
LINE
  8
0
 10
89.9961
 20
102.453
 11
89.9697
 21
102.532
  0
LINE
  8
0
 10
89.9697
 20
102.532
 11
89.9619
 21
102.559
  0
LINE
  8
0
 10
89.9619
 20
102.559
 11
89.9541
 21
102.586
  0
LINE
  8
0
 10
89.9541
 20
102.586
 11
89.9473
 21
102.613
  0
LINE
  8
0
 10
89.9473
 20
102.613
 11
89.9414
 21
102.64
  0
LINE
  8
0
 10
89.9414
 20
102.64
 11
89.9346
 21
102.667
  0
LINE
  8
0
 10
89.9346
 20
102.667
 11
89.9297
 21
102.694
  0
LINE
  8
0
 10
89.9297
 20
102.694
 11
89.9238
 21
102.722
  0
LINE
  8
0
 10
89.9238
 20
102.722
 11
89.9199
 21
102.75
  0
LINE
  8
0
 10
89.9199
 20
102.75
 11
89.9121
 21
102.805
  0
LINE
  8
0
 10
89.9121
 20
102.805
 11
89.9092
 21
102.833
  0
LINE
  8
0
 10
89.9092
 20
102.833
 11
89.9062
 21
102.86
  0
LINE
  8
0
 10
89.9062
 20
102.86
 11
89.9043
 21
102.889
  0
LINE
  8
0
 10
89.9043
 20
102.889
 11
89.9023
 21
102.916
  0
LINE
  8
0
 10
89.9023
 20
102.916
 11
89.9004
 21
102.972
  0
LINE
  8
0
 10
89.9004
 20
102.972
 11
89.9004
 21
103.028
  0
LINE
  8
0
 10
89.9004
 20
103.028
 11
89.9023
 21
103.084
  0
LINE
  8
0
 10
89.9023
 20
103.084
 11
89.9043
 21
103.111
  0
LINE
  8
0
 10
89.9043
 20
103.111
 11
89.9062
 21
103.14
  0
LINE
  8
0
 10
89.9062
 20
103.14
 11
89.9092
 21
103.167
  0
LINE
  8
0
 10
89.9092
 20
103.167
 11
89.9121
 21
103.195
  0
LINE
  8
0
 10
89.9121
 20
103.195
 11
89.9199
 21
103.25
  0
LINE
  8
0
 10
89.9199
 20
103.25
 11
89.9238
 21
103.278
  0
LINE
  8
0
 10
89.9238
 20
103.278
 11
89.9297
 21
103.306
  0
LINE
  8
0
 10
89.9297
 20
103.306
 11
89.9346
 21
103.333
  0
LINE
  8
0
 10
89.9346
 20
103.333
 11
89.9414
 21
103.36
  0
LINE
  8
0
 10
89.9414
 20
103.36
 11
89.9473
 21
103.387
  0
LINE
  8
0
 10
89.9473
 20
103.387
 11
89.9541
 21
103.414
  0
LINE
  8
0
 10
89.9541
 20
103.414
 11
89.9619
 21
103.441
  0
LINE
  8
0
 10
89.9619
 20
103.441
 11
89.9697
 21
103.468
  0
LINE
  8
0
 10
89.9697
 20
103.468
 11
89.9961
 21
103.547
  0
LINE
  8
0
 10
89.9961
 20
103.547
 11
90.0059
 21
103.573
  0
LINE
  8
0
 10
90.0059
 20
103.573
 11
90.0166
 21
103.6
  0
LINE
  8
0
 10
90.0166
 20
103.6
 11
90.0381
 21
103.65
  0
LINE
  8
0
 10
90.0381
 20
103.65
 11
90.0615
 21
103.701
  0
LINE
  8
0
 10
90.0615
 20
103.701
 11
90.0742
 21
103.727
  0
LINE
  8
0
 10
90.0742
 20
103.727
 11
90.0869
 21
103.751
  0
LINE
  8
0
 10
90.0869
 20
103.751
 11
90.1143
 21
103.8
  0
LINE
  8
0
 10
90.1143
 20
103.8
 11
90.1289
 21
103.824
  0
LINE
  8
0
 10
90.1289
 20
103.824
 11
90.1582
 21
103.871
  0
LINE
  8
0
 10
90.1582
 20
103.871
 11
90.1895
 21
103.918
  0
LINE
  8
0
 10
90.1895
 20
103.918
 11
90.2393
 21
103.985
  0
LINE
  8
0
 10
90.2393
 20
103.985
 11
90.292
 21
104.05
  0
LINE
  8
0
 10
90.292
 20
104.05
 11
90.3105
 21
104.07
  0
LINE
  8
0
 10
90.3105
 20
104.07
 11
90.3301
 21
104.091
  0
LINE
  8
0
 10
90.3301
 20
104.091
 11
90.3486
 21
104.111
  0
LINE
  8
0
 10
90.3486
 20
104.111
 11
90.3682
 21
104.132
  0
LINE
  8
0
 10
90.3682
 20
104.132
 11
90.3887
 21
104.151
  0
LINE
  8
0
 10
90.3887
 20
104.151
 11
90.4092
 21
104.17
  0
LINE
  8
0
 10
90.4092
 20
104.17
 11
90.4297
 21
104.189
  0
LINE
  8
0
 10
90.4297
 20
104.189
 11
90.4502
 21
104.208
  0
LINE
  8
0
 10
90.4502
 20
104.208
 11
90.5146
 21
104.261
  0
LINE
  8
0
 10
90.5146
 20
104.261
 11
90.582
 21
104.311
  0
LINE
  8
0
 10
90.582
 20
104.311
 11
90.6289
 21
104.342
  0
LINE
  8
0
 10
90.6289
 20
104.342
 11
90.6758
 21
104.371
  0
LINE
  8
0
 10
90.6758
 20
104.371
 11
90.7002
 21
104.386
  0
LINE
  8
0
 10
90.7002
 20
104.386
 11
90.749
 21
104.413
  0
LINE
  8
0
 10
90.749
 20
104.413
 11
90.7734
 21
104.426
  0
LINE
  8
0
 10
90.7734
 20
104.426
 11
90.7988
 21
104.438
  0
LINE
  8
0
 10
90.7988
 20
104.438
 11
90.8496
 21
104.462
  0
LINE
  8
0
 10
90.8496
 20
104.462
 11
90.9004
 21
104.483
  0
LINE
  8
0
 10
90.9004
 20
104.483
 11
90.9268
 21
104.494
  0
LINE
  8
0
 10
90.9268
 20
104.494
 11
90.9531
 21
104.504
  0
LINE
  8
0
 10
90.9531
 20
104.504
 11
91.0322
 21
104.53
  0
LINE
  8
0
 10
91.0322
 20
104.53
 11
91.0586
 21
104.538
  0
LINE
  8
0
 10
91.0586
 20
104.538
 11
91.0859
 21
104.546
  0
LINE
  8
0
 10
91.0859
 20
104.546
 11
91.1133
 21
104.553
  0
LINE
  8
0
 10
91.1133
 20
104.553
 11
91.1396
 21
104.559
  0
LINE
  8
0
 10
91.1396
 20
104.559
 11
91.167
 21
104.565
  0
LINE
  8
0
 10
91.167
 20
104.565
 11
91.1943
 21
104.57
  0
LINE
  8
0
 10
91.1943
 20
104.57
 11
91.2217
 21
104.576
  0
LINE
  8
0
 10
91.2217
 20
104.576
 11
91.25
 21
104.58
  0
LINE
  8
0
 10
91.25
 20
104.58
 11
91.3047
 21
104.588
  0
LINE
  8
0
 10
91.3047
 20
104.588
 11
91.333
 21
104.591
  0
LINE
  8
0
 10
91.333
 20
104.591
 11
91.3604
 21
104.594
  0
LINE
  8
0
 10
91.3604
 20
104.594
 11
91.3887
 21
104.596
  0
LINE
  8
0
 10
91.3887
 20
104.596
 11
91.416
 21
104.598
  0
LINE
  8
0
 10
91.416
 20
104.598
 11
91.4717
 21
104.6
  0
LINE
  8
0
 10
91.4717
 20
104.6
 11
91.5283
 21
104.6
  0
LINE
  8
0
 10
91.5283
 20
104.6
 11
91.584
 21
104.598
  0
LINE
  8
0
 10
91.584
 20
104.598
 11
91.6113
 21
104.596
  0
LINE
  8
0
 10
91.6113
 20
104.596
 11
91.6396
 21
104.594
  0
LINE
  8
0
 10
91.6396
 20
104.594
 11
91.667
 21
104.591
  0
LINE
  8
0
 10
91.667
 20
104.591
 11
91.6953
 21
104.588
  0
LINE
  8
0
 10
91.6953
 20
104.588
 11
91.75
 21
104.58
  0
LINE
  8
0
 10
91.75
 20
104.58
 11
91.7783
 21
104.576
  0
LINE
  8
0
 10
91.7783
 20
104.576
 11
91.8057
 21
104.57
  0
LINE
  8
0
 10
91.8057
 20
104.57
 11
91.833
 21
104.565
  0
LINE
  8
0
 10
91.833
 20
104.565
 11
91.8604
 21
104.559
  0
LINE
  8
0
 10
91.8604
 20
104.559
 11
91.8867
 21
104.553
  0
LINE
  8
0
 10
91.8867
 20
104.553
 11
91.9141
 21
104.546
  0
LINE
  8
0
 10
91.9141
 20
104.546
 11
91.9414
 21
104.538
  0
LINE
  8
0
 10
91.9414
 20
104.538
 11
91.9678
 21
104.53
  0
LINE
  8
0
 10
91.9678
 20
104.53
 11
92.0469
 21
104.504
  0
LINE
  8
0
 10
92.0469
 20
104.504
 11
92.0732
 21
104.494
  0
LINE
  8
0
 10
92.0732
 20
104.494
 11
92.0996
 21
104.483
  0
LINE
  8
0
 10
92.0996
 20
104.483
 11
92.1504
 21
104.462
  0
LINE
  8
0
 10
92.1504
 20
104.462
 11
92.2012
 21
104.438
  0
LINE
  8
0
 10
92.2012
 20
104.438
 11
92.2266
 21
104.426
  0
LINE
  8
0
 10
92.2266
 20
104.426
 11
92.251
 21
104.413
  0
LINE
  8
0
 10
92.251
 20
104.413
 11
92.2998
 21
104.386
  0
LINE
  8
0
 10
92.2998
 20
104.386
 11
92.3242
 21
104.371
  0
LINE
  8
0
 10
92.3242
 20
104.371
 11
92.3711
 21
104.342
  0
LINE
  8
0
 10
92.3711
 20
104.342
 11
92.418
 21
104.311
  0
LINE
  8
0
 10
92.418
 20
104.311
 11
92.4854
 21
104.261
  0
LINE
  8
0
 10
92.4854
 20
104.261
 11
92.5498
 21
104.208
  0
LINE
  8
0
 10
92.5498
 20
104.208
 11
92.5703
 21
104.189
  0
LINE
  8
0
 10
92.5703
 20
104.189
 11
92.5908
 21
104.17
  0
LINE
  8
0
 10
92.5908
 20
104.17
 11
92.6113
 21
104.151
  0
LINE
  8
0
 10
92.6113
 20
104.151
 11
92.6318
 21
104.132
  0
LINE
  8
0
 10
92.6318
 20
104.132
 11
92.6514
 21
104.111
  0
LINE
  8
0
 10
92.6514
 20
104.111
 11
92.6699
 21
104.091
  0
LINE
  8
0
 10
92.6699
 20
104.091
 11
92.6895
 21
104.07
  0
LINE
  8
0
 10
92.6895
 20
104.07
 11
92.708
 21
104.05
  0
LINE
  8
0
 10
92.708
 20
104.05
 11
92.7607
 21
103.985
  0
LINE
  8
0
 10
92.7607
 20
103.985
 11
92.8105
 21
103.918
  0
LINE
  8
0
 10
92.8105
 20
103.918
 11
92.8418
 21
103.871
  0
LINE
  8
0
 10
92.8418
 20
103.871
 11
92.8711
 21
103.824
  0
LINE
  8
0
 10
92.8711
 20
103.824
 11
92.8857
 21
103.8
  0
LINE
  8
0
 10
92.8857
 20
103.8
 11
92.9131
 21
103.751
  0
LINE
  8
0
 10
92.9131
 20
103.751
 11
92.9258
 21
103.727
  0
LINE
  8
0
 10
92.9258
 20
103.727
 11
92.9385
 21
103.701
  0
LINE
  8
0
 10
92.9385
 20
103.701
 11
92.9619
 21
103.65
  0
LINE
  8
0
 10
92.9619
 20
103.65
 11
92.9834
 21
103.6
  0
LINE
  8
0
 10
92.9834
 20
103.6
 11
92.9941
 21
103.573
  0
LINE
  8
0
 10
92.9941
 20
103.573
 11
93.0039
 21
103.547
  0
LINE
  8
0
 10
93.0039
 20
103.547
 11
93.0303
 21
103.468
  0
LINE
  8
0
 10
93.0303
 20
103.468
 11
93.0381
 21
103.441
  0
LINE
  8
0
 10
93.0381
 20
103.441
 11
93.0459
 21
103.414
  0
LINE
  8
0
 10
93.0459
 20
103.414
 11
93.0527
 21
103.387
  0
LINE
  8
0
 10
93.0527
 20
103.387
 11
93.0586
 21
103.36
  0
LINE
  8
0
 10
93.0586
 20
103.36
 11
93.0654
 21
103.333
  0
LINE
  8
0
 10
93.0654
 20
103.333
 11
93.0703
 21
103.306
  0
LINE
  8
0
 10
93.0703
 20
103.306
 11
93.0762
 21
103.278
  0
LINE
  8
0
 10
93.0762
 20
103.278
 11
93.0801
 21
103.25
  0
LINE
  8
0
 10
93.0801
 20
103.25
 11
93.0879
 21
103.195
  0
LINE
  8
0
 10
93.0879
 20
103.195
 11
93.0908
 21
103.167
  0
LINE
  8
0
 10
93.0908
 20
103.167
 11
93.0938
 21
103.14
  0
LINE
  8
0
 10
93.0938
 20
103.14
 11
93.0957
 21
103.111
  0
LINE
  8
0
 10
93.0957
 20
103.111
 11
93.0977
 21
103.084
  0
LINE
  8
0
 10
93.0977
 20
103.084
 11
93.0996
 21
103.028
  0
LINE
  8
0
 10
93.0996
 20
103.028
 11
93.0996
 21
102.972
  0
LINE
  8
0
 10
93.0996
 20
102.972
 11
93.0977
 21
102.916
  0
LINE
  8
0
 10
93.0977
 20
102.916
 11
93.0957
 21
102.889
  0
LINE
  8
0
 10
93.0957
 20
102.889
 11
93.0938
 21
102.86
  0
LINE
  8
0
 10
93.0938
 20
102.86
 11
93.0908
 21
102.833
  0
LINE
  8
0
 10
93.0908
 20
102.833
 11
93.0879
 21
102.805
  0
LINE
  8
0
 10
93.0879
 20
102.805
 11
93.0801
 21
102.75
  0
LINE
  8
0
 10
93.0801
 20
102.75
 11
93.0762
 21
102.722
  0
LINE
  8
0
 10
93.0762
 20
102.722
 11
93.0703
 21
102.694
  0
LINE
  8
0
 10
93.0703
 20
102.694
 11
93.0654
 21
102.667
  0
LINE
  8
0
 10
93.0654
 20
102.667
 11
93.0586
 21
102.64
  0
LINE
  8
0
 10
93.0586
 20
102.64
 11
93.0527
 21
102.613
  0
LINE
  8
0
 10
93.0527
 20
102.613
 11
93.0459
 21
102.586
  0
LINE
  8
0
 10
93.0459
 20
102.586
 11
93.0381
 21
102.559
  0
LINE
  8
0
 10
93.0381
 20
102.559
 11
93.0303
 21
102.532
  0
LINE
  8
0
 10
93.0303
 20
102.532
 11
93.0039
 21
102.453
  0
LINE
  8
0
 10
93.0039
 20
102.453
 11
92.9941
 21
102.427
  0
LINE
  8
0
 10
92.9941
 20
102.427
 11
92.9834
 21
102.4
  0
LINE
  8
0
 10
92.9834
 20
102.4
 11
92.9619
 21
102.35
  0
LINE
  8
0
 10
92.9619
 20
102.35
 11
92.9385
 21
102.299
  0
LINE
  8
0
 10
92.9385
 20
102.299
 11
92.9258
 21
102.273
  0
LINE
  8
0
 10
92.9258
 20
102.273
 11
92.9131
 21
102.249
  0
LINE
  8
0
 10
92.9131
 20
102.249
 11
92.8857
 21
102.2
  0
LINE
  8
0
 10
92.8857
 20
102.2
 11
92.8711
 21
102.176
  0
LINE
  8
0
 10
92.8711
 20
102.176
 11
92.8418
 21
102.129
  0
LINE
  8
0
 10
92.8418
 20
102.129
 11
92.8105
 21
102.082
  0
LINE
  8
0
 10
92.8105
 20
102.082
 11
92.7607
 21
102.015
  0
LINE
  8
0
 10
92.7607
 20
102.015
 11
92.708
 21
101.95
  0
LINE
  8
0
 10
92.708
 20
101.95
 11
92.6895
 21
101.93
  0
LINE
  8
0
 10
92.6895
 20
101.93
 11
92.6699
 21
101.909
  0
LINE
  8
0
 10
92.6699
 20
101.909
 11
92.6514
 21
101.889
  0
LINE
  8
0
 10
92.6514
 20
101.889
 11
92.6318
 21
101.868
  0
LINE
  8
0
 10
92.6318
 20
101.868
 11
92.6113
 21
101.849
  0
LINE
  8
0
 10
92.6113
 20
101.849
 11
92.5908
 21
101.83
  0
LINE
  8
0
 10
92.5908
 20
101.83
 11
92.5703
 21
101.811
  0
LINE
  8
0
 10
92.5703
 20
101.811
 11
92.5498
 21
101.792
  0
LINE
  8
0
 10
92.5498
 20
101.792
 11
92.4854
 21
101.739
  0
LINE
  8
0
 10
92.4854
 20
101.739
 11
92.418
 21
101.689
  0
LINE
  8
0
 10
92.418
 20
101.689
 11
92.3711
 21
101.658
  0
LINE
  8
0
 10
92.3711
 20
101.658
 11
92.3242
 21
101.629
  0
LINE
  8
0
 10
92.3242
 20
101.629
 11
92.2998
 21
101.614
  0
LINE
  8
0
 10
92.2998
 20
101.614
 11
92.251
 21
101.587
  0
LINE
  8
0
 10
92.251
 20
101.587
 11
92.2266
 21
101.574
  0
LINE
  8
0
 10
92.2266
 20
101.574
 11
92.2012
 21
101.562
  0
LINE
  8
0
 10
92.2012
 20
101.562
 11
92.1504
 21
101.538
  0
LINE
  8
0
 10
92.1504
 20
101.538
 11
92.0996
 21
101.517
  0
LINE
  8
0
 10
92.0996
 20
101.517
 11
92.0732
 21
101.506
  0
LINE
  8
0
 10
92.0732
 20
101.506
 11
92.0469
 21
101.496
  0
LINE
  8
0
 10
92.0469
 20
101.496
 11
91.9678
 21
101.47
  0
LINE
  8
0
 10
91.9678
 20
101.47
 11
91.9414
 21
101.462
  0
LINE
  8
0
 10
91.9414
 20
101.462
 11
91.9141
 21
101.454
  0
LINE
  8
0
 10
91.9141
 20
101.454
 11
91.8867
 21
101.447
  0
LINE
  8
0
 10
91.8867
 20
101.447
 11
91.8604
 21
101.441
  0
LINE
  8
0
 10
91.8604
 20
101.441
 11
91.833
 21
101.435
  0
LINE
  8
0
 10
91.833
 20
101.435
 11
91.8057
 21
101.43
  0
LINE
  8
0
 10
91.8057
 20
101.43
 11
91.7783
 21
101.424
  0
LINE
  8
0
 10
91.7783
 20
101.424
 11
91.75
 21
101.42
  0
LINE
  8
0
 10
91.75
 20
101.42
 11
91.6953
 21
101.412
  0
LINE
  8
0
 10
91.6953
 20
101.412
 11
91.667
 21
101.409
  0
LINE
  8
0
 10
91.667
 20
101.409
 11
91.6396
 21
101.406
  0
LINE
  8
0
 10
91.6396
 20
101.406
 11
91.6113
 21
101.404
  0
LINE
  8
0
 10
91.6113
 20
101.404
 11
91.584
 21
101.402
  0
LINE
  8
0
 10
91.584
 20
101.402
 11
91.5283
 21
101.4
  0
LINE
  8
0
 10
91.5283
 20
101.4
 11
91.4717
 21
101.4
  0
LINE
  8
0
 10
26.5
 20
40
 11
26.5
 21
74
  0
LINE
  8
0
 10
26.5
 20
74
 11
68.5
 21
74
  0
LINE
  8
0
 10
68.5
 20
74
 11
68.5
 21
40
  0
LINE
  8
0
 10
68.5
 20
40
 11
26.5
 21
40
  0
LINE
  8
0
 10
8.97168
 20
48.9004
 11
8.91602
 21
48.9023
  0
LINE
  8
0
 10
8.91602
 20
48.9023
 11
8.88867
 21
48.9043
  0
LINE
  8
0
 10
8.88867
 20
48.9043
 11
8.86035
 21
48.9062
  0
LINE
  8
0
 10
8.86035
 20
48.9062
 11
8.83301
 21
48.9092
  0
LINE
  8
0
 10
8.83301
 20
48.9092
 11
8.80469
 21
48.9121
  0
LINE
  8
0
 10
8.80469
 20
48.9121
 11
8.75
 21
48.9199
  0
LINE
  8
0
 10
8.75
 20
48.9199
 11
8.72168
 21
48.9238
  0
LINE
  8
0
 10
8.72168
 20
48.9238
 11
8.69434
 21
48.9297
  0
LINE
  8
0
 10
8.69434
 20
48.9297
 11
8.66699
 21
48.9346
  0
LINE
  8
0
 10
8.66699
 20
48.9346
 11
8.63965
 21
48.9414
  0
LINE
  8
0
 10
8.63965
 20
48.9414
 11
8.61328
 21
48.9473
  0
LINE
  8
0
 10
8.61328
 20
48.9473
 11
8.58594
 21
48.9541
  0
LINE
  8
0
 10
8.58594
 20
48.9541
 11
8.55859
 21
48.9619
  0
LINE
  8
0
 10
8.55859
 20
48.9619
 11
8.53223
 21
48.9697
  0
LINE
  8
0
 10
8.53223
 20
48.9697
 11
8.45312
 21
48.9961
  0
LINE
  8
0
 10
8.45312
 20
48.9961
 11
8.42676
 21
49.0059
  0
LINE
  8
0
 10
8.42676
 20
49.0059
 11
8.40039
 21
49.0166
  0
LINE
  8
0
 10
8.40039
 20
49.0166
 11
8.34961
 21
49.0381
  0
LINE
  8
0
 10
8.34961
 20
49.0381
 11
8.29883
 21
49.0615
  0
LINE
  8
0
 10
8.29883
 20
49.0615
 11
8.27344
 21
49.0742
  0
LINE
  8
0
 10
8.27344
 20
49.0742
 11
8.24902
 21
49.0869
  0
LINE
  8
0
 10
8.24902
 20
49.0869
 11
8.2002
 21
49.1143
  0
LINE
  8
0
 10
8.2002
 20
49.1143
 11
8.17578
 21
49.1289
  0
LINE
  8
0
 10
8.17578
 20
49.1289
 11
8.12891
 21
49.1582
  0
LINE
  8
0
 10
8.12891
 20
49.1582
 11
8.08203
 21
49.1895
  0
LINE
  8
0
 10
8.08203
 20
49.1895
 11
8.01465
 21
49.2393
  0
LINE
  8
0
 10
8.01465
 20
49.2393
 11
7.9502
 21
49.292
  0
LINE
  8
0
 10
7.9502
 20
49.292
 11
7.92969
 21
49.3105
  0
LINE
  8
0
 10
7.92969
 20
49.3105
 11
7.90918
 21
49.3301
  0
LINE
  8
0
 10
7.90918
 20
49.3301
 11
7.88867
 21
49.3486
  0
LINE
  8
0
 10
7.88867
 20
49.3486
 11
7.86816
 21
49.3682
  0
LINE
  8
0
 10
7.86816
 20
49.3682
 11
7.84863
 21
49.3887
  0
LINE
  8
0
 10
7.84863
 20
49.3887
 11
7.83008
 21
49.4092
  0
LINE
  8
0
 10
7.83008
 20
49.4092
 11
7.81055
 21
49.4297
  0
LINE
  8
0
 10
7.81055
 20
49.4297
 11
7.79199
 21
49.4502
  0
LINE
  8
0
 10
7.79199
 20
49.4502
 11
7.73926
 21
49.5146
  0
LINE
  8
0
 10
7.73926
 20
49.5146
 11
7.68945
 21
49.582
  0
LINE
  8
0
 10
7.68945
 20
49.582
 11
7.6582
 21
49.6289
  0
LINE
  8
0
 10
7.6582
 20
49.6289
 11
7.62891
 21
49.6758
  0
LINE
  8
0
 10
7.62891
 20
49.6758
 11
7.61426
 21
49.7002
  0
LINE
  8
0
 10
7.61426
 20
49.7002
 11
7.58691
 21
49.749
  0
LINE
  8
0
 10
7.58691
 20
49.749
 11
7.57422
 21
49.7734
  0
LINE
  8
0
 10
7.57422
 20
49.7734
 11
7.56152
 21
49.7988
  0
LINE
  8
0
 10
7.56152
 20
49.7988
 11
7.53809
 21
49.8496
  0
LINE
  8
0
 10
7.53809
 20
49.8496
 11
7.5166
 21
49.9004
  0
LINE
  8
0
 10
7.5166
 20
49.9004
 11
7.50586
 21
49.9268
  0
LINE
  8
0
 10
7.50586
 20
49.9268
 11
7.49609
 21
49.9531
  0
LINE
  8
0
 10
7.49609
 20
49.9531
 11
7.46973
 21
50.0322
  0
LINE
  8
0
 10
7.46973
 20
50.0322
 11
7.46191
 21
50.0586
  0
LINE
  8
0
 10
7.46191
 20
50.0586
 11
7.4541
 21
50.0859
  0
LINE
  8
0
 10
7.4541
 20
50.0859
 11
7.44727
 21
50.1133
  0
LINE
  8
0
 10
7.44727
 20
50.1133
 11
7.44141
 21
50.1396
  0
LINE
  8
0
 10
7.44141
 20
50.1396
 11
7.43457
 21
50.167
  0
LINE
  8
0
 10
7.43457
 20
50.167
 11
7.42969
 21
50.1943
  0
LINE
  8
0
 10
7.42969
 20
50.1943
 11
7.42383
 21
50.2217
  0
LINE
  8
0
 10
7.42383
 20
50.2217
 11
7.41992
 21
50.25
  0
LINE
  8
0
 10
7.41992
 20
50.25
 11
7.41211
 21
50.3047
  0
LINE
  8
0
 10
7.41211
 20
50.3047
 11
7.40918
 21
50.333
  0
LINE
  8
0
 10
7.40918
 20
50.333
 11
7.40625
 21
50.3604
  0
LINE
  8
0
 10
7.40625
 20
50.3604
 11
7.4043
 21
50.3887
  0
LINE
  8
0
 10
7.4043
 20
50.3887
 11
7.40234
 21
50.416
  0
LINE
  8
0
 10
7.40234
 20
50.416
 11
7.40039
 21
50.4717
  0
LINE
  8
0
 10
7.40039
 20
50.4717
 11
7.40039
 21
50.5283
  0
LINE
  8
0
 10
7.40039
 20
50.5283
 11
7.40234
 21
50.584
  0
LINE
  8
0
 10
7.40234
 20
50.584
 11
7.4043
 21
50.6113
  0
LINE
  8
0
 10
7.4043
 20
50.6113
 11
7.40625
 21
50.6396
  0
LINE
  8
0
 10
7.40625
 20
50.6396
 11
7.40918
 21
50.667
  0
LINE
  8
0
 10
7.40918
 20
50.667
 11
7.41211
 21
50.6953
  0
LINE
  8
0
 10
7.41211
 20
50.6953
 11
7.41992
 21
50.75
  0
LINE
  8
0
 10
7.41992
 20
50.75
 11
7.42383
 21
50.7783
  0
LINE
  8
0
 10
7.42383
 20
50.7783
 11
7.42969
 21
50.8057
  0
LINE
  8
0
 10
7.42969
 20
50.8057
 11
7.43457
 21
50.833
  0
LINE
  8
0
 10
7.43457
 20
50.833
 11
7.44141
 21
50.8604
  0
LINE
  8
0
 10
7.44141
 20
50.8604
 11
7.44727
 21
50.8867
  0
LINE
  8
0
 10
7.44727
 20
50.8867
 11
7.4541
 21
50.9141
  0
LINE
  8
0
 10
7.4541
 20
50.9141
 11
7.46191
 21
50.9414
  0
LINE
  8
0
 10
7.46191
 20
50.9414
 11
7.46973
 21
50.9678
  0
LINE
  8
0
 10
7.46973
 20
50.9678
 11
7.49609
 21
51.0469
  0
LINE
  8
0
 10
7.49609
 20
51.0469
 11
7.50586
 21
51.0732
  0
LINE
  8
0
 10
7.50586
 20
51.0732
 11
7.5166
 21
51.0996
  0
LINE
  8
0
 10
7.5166
 20
51.0996
 11
7.53809
 21
51.1504
  0
LINE
  8
0
 10
7.53809
 20
51.1504
 11
7.56152
 21
51.2012
  0
LINE
  8
0
 10
7.56152
 20
51.2012
 11
7.57422
 21
51.2266
  0
LINE
  8
0
 10
7.57422
 20
51.2266
 11
7.58691
 21
51.251
  0
LINE
  8
0
 10
7.58691
 20
51.251
 11
7.61426
 21
51.2998
  0
LINE
  8
0
 10
7.61426
 20
51.2998
 11
7.62891
 21
51.3242
  0
LINE
  8
0
 10
7.62891
 20
51.3242
 11
7.6582
 21
51.3711
  0
LINE
  8
0
 10
7.6582
 20
51.3711
 11
7.68945
 21
51.418
  0
LINE
  8
0
 10
7.68945
 20
51.418
 11
7.73926
 21
51.4854
  0
LINE
  8
0
 10
7.73926
 20
51.4854
 11
7.79199
 21
51.5498
  0
LINE
  8
0
 10
7.79199
 20
51.5498
 11
7.81055
 21
51.5703
  0
LINE
  8
0
 10
7.81055
 20
51.5703
 11
7.83008
 21
51.5908
  0
LINE
  8
0
 10
7.83008
 20
51.5908
 11
7.84863
 21
51.6113
  0
LINE
  8
0
 10
7.84863
 20
51.6113
 11
7.86816
 21
51.6318
  0
LINE
  8
0
 10
7.86816
 20
51.6318
 11
7.88867
 21
51.6514
  0
LINE
  8
0
 10
7.88867
 20
51.6514
 11
7.90918
 21
51.6699
  0
LINE
  8
0
 10
7.90918
 20
51.6699
 11
7.92969
 21
51.6895
  0
LINE
  8
0
 10
7.92969
 20
51.6895
 11
7.9502
 21
51.708
  0
LINE
  8
0
 10
7.9502
 20
51.708
 11
8.01465
 21
51.7607
  0
LINE
  8
0
 10
8.01465
 20
51.7607
 11
8.08203
 21
51.8105
  0
LINE
  8
0
 10
8.08203
 20
51.8105
 11
8.12891
 21
51.8418
  0
LINE
  8
0
 10
8.12891
 20
51.8418
 11
8.17578
 21
51.8711
  0
LINE
  8
0
 10
8.17578
 20
51.8711
 11
8.2002
 21
51.8857
  0
LINE
  8
0
 10
8.2002
 20
51.8857
 11
8.24902
 21
51.9131
  0
LINE
  8
0
 10
8.24902
 20
51.9131
 11
8.27344
 21
51.9258
  0
LINE
  8
0
 10
8.27344
 20
51.9258
 11
8.29883
 21
51.9385
  0
LINE
  8
0
 10
8.29883
 20
51.9385
 11
8.34961
 21
51.9619
  0
LINE
  8
0
 10
8.34961
 20
51.9619
 11
8.40039
 21
51.9834
  0
LINE
  8
0
 10
8.40039
 20
51.9834
 11
8.42676
 21
51.9941
  0
LINE
  8
0
 10
8.42676
 20
51.9941
 11
8.45312
 21
52.0039
  0
LINE
  8
0
 10
8.45312
 20
52.0039
 11
8.53223
 21
52.0303
  0
LINE
  8
0
 10
8.53223
 20
52.0303
 11
8.55859
 21
52.0381
  0
LINE
  8
0
 10
8.55859
 20
52.0381
 11
8.58594
 21
52.0459
  0
LINE
  8
0
 10
8.58594
 20
52.0459
 11
8.61328
 21
52.0527
  0
LINE
  8
0
 10
8.61328
 20
52.0527
 11
8.63965
 21
52.0586
  0
LINE
  8
0
 10
8.63965
 20
52.0586
 11
8.66699
 21
52.0654
  0
LINE
  8
0
 10
8.66699
 20
52.0654
 11
8.69434
 21
52.0703
  0
LINE
  8
0
 10
8.69434
 20
52.0703
 11
8.72168
 21
52.0762
  0
LINE
  8
0
 10
8.72168
 20
52.0762
 11
8.75
 21
52.0801
  0
LINE
  8
0
 10
8.75
 20
52.0801
 11
8.80469
 21
52.0879
  0
LINE
  8
0
 10
8.80469
 20
52.0879
 11
8.83301
 21
52.0908
  0
LINE
  8
0
 10
8.83301
 20
52.0908
 11
8.86035
 21
52.0938
  0
LINE
  8
0
 10
8.86035
 20
52.0938
 11
8.88867
 21
52.0957
  0
LINE
  8
0
 10
8.88867
 20
52.0957
 11
8.91602
 21
52.0977
  0
LINE
  8
0
 10
8.91602
 20
52.0977
 11
8.97168
 21
52.0996
  0
LINE
  8
0
 10
8.97168
 20
52.0996
 11
9.02832
 21
52.0996
  0
LINE
  8
0
 10
9.02832
 20
52.0996
 11
9.08398
 21
52.0977
  0
LINE
  8
0
 10
9.08398
 20
52.0977
 11
9.11133
 21
52.0957
  0
LINE
  8
0
 10
9.11133
 20
52.0957
 11
9.13965
 21
52.0938
  0
LINE
  8
0
 10
9.13965
 20
52.0938
 11
9.16699
 21
52.0908
  0
LINE
  8
0
 10
9.16699
 20
52.0908
 11
9.19531
 21
52.0879
  0
LINE
  8
0
 10
9.19531
 20
52.0879
 11
9.25
 21
52.0801
  0
LINE
  8
0
 10
9.25
 20
52.0801
 11
9.27832
 21
52.0762
  0
LINE
  8
0
 10
9.27832
 20
52.0762
 11
9.30566
 21
52.0703
  0
LINE
  8
0
 10
9.30566
 20
52.0703
 11
9.33301
 21
52.0654
  0
LINE
  8
0
 10
9.33301
 20
52.0654
 11
9.36035
 21
52.0586
  0
LINE
  8
0
 10
9.36035
 20
52.0586
 11
9.38672
 21
52.0527
  0
LINE
  8
0
 10
9.38672
 20
52.0527
 11
9.41406
 21
52.0459
  0
LINE
  8
0
 10
9.41406
 20
52.0459
 11
9.44141
 21
52.0381
  0
LINE
  8
0
 10
9.44141
 20
52.0381
 11
9.46777
 21
52.0303
  0
LINE
  8
0
 10
9.46777
 20
52.0303
 11
9.54688
 21
52.0039
  0
LINE
  8
0
 10
9.54688
 20
52.0039
 11
9.57324
 21
51.9941
  0
LINE
  8
0
 10
9.57324
 20
51.9941
 11
9.59961
 21
51.9834
  0
LINE
  8
0
 10
9.59961
 20
51.9834
 11
9.65039
 21
51.9619
  0
LINE
  8
0
 10
9.65039
 20
51.9619
 11
9.70117
 21
51.9385
  0
LINE
  8
0
 10
9.70117
 20
51.9385
 11
9.72656
 21
51.9258
  0
LINE
  8
0
 10
9.72656
 20
51.9258
 11
9.75098
 21
51.9131
  0
LINE
  8
0
 10
9.75098
 20
51.9131
 11
9.7998
 21
51.8857
  0
LINE
  8
0
 10
9.7998
 20
51.8857
 11
9.82422
 21
51.8711
  0
LINE
  8
0
 10
9.82422
 20
51.8711
 11
9.87109
 21
51.8418
  0
LINE
  8
0
 10
9.87109
 20
51.8418
 11
9.91797
 21
51.8105
  0
LINE
  8
0
 10
9.91797
 20
51.8105
 11
9.98535
 21
51.7607
  0
LINE
  8
0
 10
9.98535
 20
51.7607
 11
10.0498
 21
51.708
  0
LINE
  8
0
 10
10.0498
 20
51.708
 11
10.0703
 21
51.6895
  0
LINE
  8
0
 10
10.0703
 20
51.6895
 11
10.0908
 21
51.6699
  0
LINE
  8
0
 10
10.0908
 20
51.6699
 11
10.1113
 21
51.6514
  0
LINE
  8
0
 10
10.1113
 20
51.6514
 11
10.1318
 21
51.6318
  0
LINE
  8
0
 10
10.1318
 20
51.6318
 11
10.1514
 21
51.6113
  0
LINE
  8
0
 10
10.1514
 20
51.6113
 11
10.1699
 21
51.5908
  0
LINE
  8
0
 10
10.1699
 20
51.5908
 11
10.1895
 21
51.5703
  0
LINE
  8
0
 10
10.1895
 20
51.5703
 11
10.208
 21
51.5498
  0
LINE
  8
0
 10
10.208
 20
51.5498
 11
10.2607
 21
51.4854
  0
LINE
  8
0
 10
10.2607
 20
51.4854
 11
10.3105
 21
51.418
  0
LINE
  8
0
 10
10.3105
 20
51.418
 11
10.3418
 21
51.3711
  0
LINE
  8
0
 10
10.3418
 20
51.3711
 11
10.3711
 21
51.3242
  0
LINE
  8
0
 10
10.3711
 20
51.3242
 11
10.3857
 21
51.2998
  0
LINE
  8
0
 10
10.3857
 20
51.2998
 11
10.4131
 21
51.251
  0
LINE
  8
0
 10
10.4131
 20
51.251
 11
10.4258
 21
51.2266
  0
LINE
  8
0
 10
10.4258
 20
51.2266
 11
10.4385
 21
51.2012
  0
LINE
  8
0
 10
10.4385
 20
51.2012
 11
10.4619
 21
51.1504
  0
LINE
  8
0
 10
10.4619
 20
51.1504
 11
10.4834
 21
51.0996
  0
LINE
  8
0
 10
10.4834
 20
51.0996
 11
10.4941
 21
51.0732
  0
LINE
  8
0
 10
10.4941
 20
51.0732
 11
10.5039
 21
51.0469
  0
LINE
  8
0
 10
10.5039
 20
51.0469
 11
10.5303
 21
50.9678
  0
LINE
  8
0
 10
10.5303
 20
50.9678
 11
10.5381
 21
50.9414
  0
LINE
  8
0
 10
10.5381
 20
50.9414
 11
10.5459
 21
50.9141
  0
LINE
  8
0
 10
10.5459
 20
50.9141
 11
10.5527
 21
50.8867
  0
LINE
  8
0
 10
10.5527
 20
50.8867
 11
10.5586
 21
50.8604
  0
LINE
  8
0
 10
10.5586
 20
50.8604
 11
10.5654
 21
50.833
  0
LINE
  8
0
 10
10.5654
 20
50.833
 11
10.5703
 21
50.8057
  0
LINE
  8
0
 10
10.5703
 20
50.8057
 11
10.5762
 21
50.7783
  0
LINE
  8
0
 10
10.5762
 20
50.7783
 11
10.5801
 21
50.75
  0
LINE
  8
0
 10
10.5801
 20
50.75
 11
10.5879
 21
50.6953
  0
LINE
  8
0
 10
10.5879
 20
50.6953
 11
10.5908
 21
50.667
  0
LINE
  8
0
 10
10.5908
 20
50.667
 11
10.5938
 21
50.6396
  0
LINE
  8
0
 10
10.5938
 20
50.6396
 11
10.5957
 21
50.6113
  0
LINE
  8
0
 10
10.5957
 20
50.6113
 11
10.5977
 21
50.584
  0
LINE
  8
0
 10
10.5977
 20
50.584
 11
10.5996
 21
50.5283
  0
LINE
  8
0
 10
10.5996
 20
50.5283
 11
10.5996
 21
50.4717
  0
LINE
  8
0
 10
10.5996
 20
50.4717
 11
10.5977
 21
50.416
  0
LINE
  8
0
 10
10.5977
 20
50.416
 11
10.5957
 21
50.3887
  0
LINE
  8
0
 10
10.5957
 20
50.3887
 11
10.5938
 21
50.3604
  0
LINE
  8
0
 10
10.5938
 20
50.3604
 11
10.5908
 21
50.333
  0
LINE
  8
0
 10
10.5908
 20
50.333
 11
10.5879
 21
50.3047
  0
LINE
  8
0
 10
10.5879
 20
50.3047
 11
10.5801
 21
50.25
  0
LINE
  8
0
 10
10.5801
 20
50.25
 11
10.5762
 21
50.2217
  0
LINE
  8
0
 10
10.5762
 20
50.2217
 11
10.5703
 21
50.1943
  0
LINE
  8
0
 10
10.5703
 20
50.1943
 11
10.5654
 21
50.167
  0
LINE
  8
0
 10
10.5654
 20
50.167
 11
10.5586
 21
50.1396
  0
LINE
  8
0
 10
10.5586
 20
50.1396
 11
10.5527
 21
50.1133
  0
LINE
  8
0
 10
10.5527
 20
50.1133
 11
10.5459
 21
50.0859
  0
LINE
  8
0
 10
10.5459
 20
50.0859
 11
10.5381
 21
50.0586
  0
LINE
  8
0
 10
10.5381
 20
50.0586
 11
10.5303
 21
50.0322
  0
LINE
  8
0
 10
10.5303
 20
50.0322
 11
10.5039
 21
49.9531
  0
LINE
  8
0
 10
10.5039
 20
49.9531
 11
10.4941
 21
49.9268
  0
LINE
  8
0
 10
10.4941
 20
49.9268
 11
10.4834
 21
49.9004
  0
LINE
  8
0
 10
10.4834
 20
49.9004
 11
10.4619
 21
49.8496
  0
LINE
  8
0
 10
10.4619
 20
49.8496
 11
10.4385
 21
49.7988
  0
LINE
  8
0
 10
10.4385
 20
49.7988
 11
10.4258
 21
49.7734
  0
LINE
  8
0
 10
10.4258
 20
49.7734
 11
10.4131
 21
49.749
  0
LINE
  8
0
 10
10.4131
 20
49.749
 11
10.3857
 21
49.7002
  0
LINE
  8
0
 10
10.3857
 20
49.7002
 11
10.3711
 21
49.6758
  0
LINE
  8
0
 10
10.3711
 20
49.6758
 11
10.3418
 21
49.6289
  0
LINE
  8
0
 10
10.3418
 20
49.6289
 11
10.3105
 21
49.582
  0
LINE
  8
0
 10
10.3105
 20
49.582
 11
10.2607
 21
49.5146
  0
LINE
  8
0
 10
10.2607
 20
49.5146
 11
10.208
 21
49.4502
  0
LINE
  8
0
 10
10.208
 20
49.4502
 11
10.1895
 21
49.4297
  0
LINE
  8
0
 10
10.1895
 20
49.4297
 11
10.1699
 21
49.4092
  0
LINE
  8
0
 10
10.1699
 20
49.4092
 11
10.1514
 21
49.3887
  0
LINE
  8
0
 10
10.1514
 20
49.3887
 11
10.1318
 21
49.3682
  0
LINE
  8
0
 10
10.1318
 20
49.3682
 11
10.1113
 21
49.3486
  0
LINE
  8
0
 10
10.1113
 20
49.3486
 11
10.0908
 21
49.3301
  0
LINE
  8
0
 10
10.0908
 20
49.3301
 11
10.0703
 21
49.3105
  0
LINE
  8
0
 10
10.0703
 20
49.3105
 11
10.0498
 21
49.292
  0
LINE
  8
0
 10
10.0498
 20
49.292
 11
9.98535
 21
49.2393
  0
LINE
  8
0
 10
9.98535
 20
49.2393
 11
9.91797
 21
49.1895
  0
LINE
  8
0
 10
9.91797
 20
49.1895
 11
9.87109
 21
49.1582
  0
LINE
  8
0
 10
9.87109
 20
49.1582
 11
9.82422
 21
49.1289
  0
LINE
  8
0
 10
9.82422
 20
49.1289
 11
9.7998
 21
49.1143
  0
LINE
  8
0
 10
9.7998
 20
49.1143
 11
9.75098
 21
49.0869
  0
LINE
  8
0
 10
9.75098
 20
49.0869
 11
9.72656
 21
49.0742
  0
LINE
  8
0
 10
9.72656
 20
49.0742
 11
9.70117
 21
49.0615
  0
LINE
  8
0
 10
9.70117
 20
49.0615
 11
9.65039
 21
49.0381
  0
LINE
  8
0
 10
9.65039
 20
49.0381
 11
9.59961
 21
49.0166
  0
LINE
  8
0
 10
9.59961
 20
49.0166
 11
9.57324
 21
49.0059
  0
LINE
  8
0
 10
9.57324
 20
49.0059
 11
9.54688
 21
48.9961
  0
LINE
  8
0
 10
9.54688
 20
48.9961
 11
9.46777
 21
48.9697
  0
LINE
  8
0
 10
9.46777
 20
48.9697
 11
9.44141
 21
48.9619
  0
LINE
  8
0
 10
9.44141
 20
48.9619
 11
9.41406
 21
48.9541
  0
LINE
  8
0
 10
9.41406
 20
48.9541
 11
9.38672
 21
48.9473
  0
LINE
  8
0
 10
9.38672
 20
48.9473
 11
9.36035
 21
48.9414
  0
LINE
  8
0
 10
9.36035
 20
48.9414
 11
9.33301
 21
48.9346
  0
LINE
  8
0
 10
9.33301
 20
48.9346
 11
9.30566
 21
48.9297
  0
LINE
  8
0
 10
9.30566
 20
48.9297
 11
9.27832
 21
48.9238
  0
LINE
  8
0
 10
9.27832
 20
48.9238
 11
9.25
 21
48.9199
  0
LINE
  8
0
 10
9.25
 20
48.9199
 11
9.19531
 21
48.9121
  0
LINE
  8
0
 10
9.19531
 20
48.9121
 11
9.16699
 21
48.9092
  0
LINE
  8
0
 10
9.16699
 20
48.9092
 11
9.13965
 21
48.9062
  0
LINE
  8
0
 10
9.13965
 20
48.9062
 11
9.11133
 21
48.9043
  0
LINE
  8
0
 10
9.11133
 20
48.9043
 11
9.08398
 21
48.9023
  0
LINE
  8
0
 10
9.08398
 20
48.9023
 11
9.02832
 21
48.9004
  0
LINE
  8
0
 10
9.02832
 20
48.9004
 11
8.97168
 21
48.9004
  0
LINE
  8
0
 10
42.4111
 20
28.4521
 11
42.3662
 21
28.4541
  0
LINE
  8
0
 10
42.3662
 20
28.4541
 11
42.3223
 21
28.457
  0
LINE
  8
0
 10
42.3223
 20
28.457
 11
42.2773
 21
28.46
  0
LINE
  8
0
 10
42.2773
 20
28.46
 11
42.1895
 21
28.4697
  0
LINE
  8
0
 10
42.1895
 20
28.4697
 11
42.1016
 21
28.4814
  0
LINE
  8
0
 10
42.1016
 20
28.4814
 11
42.0137
 21
28.4971
  0
LINE
  8
0
 10
42.0137
 20
28.4971
 11
41.9697
 21
28.5059
  0
LINE
  8
0
 10
41.9697
 20
28.5059
 11
41.9268
 21
28.5156
  0
LINE
  8
0
 10
41.9268
 20
28.5156
 11
41.8828
 21
28.5264
  0
LINE
  8
0
 10
41.8828
 20
28.5264
 11
41.8398
 21
28.5371
  0
LINE
  8
0
 10
41.8398
 20
28.5371
 11
41.7969
 21
28.5488
  0
LINE
  8
0
 10
41.7969
 20
28.5488
 11
41.7549
 21
28.5615
  0
LINE
  8
0
 10
41.7549
 20
28.5615
 11
41.7119
 21
28.5752
  0
LINE
  8
0
 10
41.7119
 20
28.5752
 11
41.6279
 21
28.6045
  0
LINE
  8
0
 10
41.6279
 20
28.6045
 11
41.5859
 21
28.6201
  0
LINE
  8
0
 10
41.5859
 20
28.6201
 11
41.5449
 21
28.6357
  0
LINE
  8
0
 10
41.5449
 20
28.6357
 11
41.4629
 21
28.6709
  0
LINE
  8
0
 10
41.4629
 20
28.6709
 11
41.4229
 21
28.6895
  0
LINE
  8
0
 10
41.4229
 20
28.6895
 11
41.3428
 21
28.7285
  0
LINE
  8
0
 10
41.3428
 20
28.7285
 11
41.3027
 21
28.749
  0
LINE
  8
0
 10
41.3027
 20
28.749
 11
41.2637
 21
28.7705
  0
LINE
  8
0
 10
41.2637
 20
28.7705
 11
41.2256
 21
28.792
  0
LINE
  8
0
 10
41.2256
 20
28.792
 11
41.1865
 21
28.8145
  0
LINE
  8
0
 10
41.1865
 20
28.8145
 11
41.1494
 21
28.8379
  0
LINE
  8
0
 10
41.1494
 20
28.8379
 11
41.1113
 21
28.8613
  0
LINE
  8
0
 10
41.1113
 20
28.8613
 11
41.0742
 21
28.8867
  0
LINE
  8
0
 10
41.0742
 20
28.8867
 11
41.0381
 21
28.9111
  0
LINE
  8
0
 10
41.0381
 20
28.9111
 11
41.001
 21
28.9375
  0
LINE
  8
0
 10
41.001
 20
28.9375
 11
40.9658
 21
28.9639
  0
LINE
  8
0
 10
40.9658
 20
28.9639
 11
40.8955
 21
29.0186
  0
LINE
  8
0
 10
40.8955
 20
29.0186
 11
40.8613
 21
29.0469
  0
LINE
  8
0
 10
40.8613
 20
29.0469
 11
40.8271
 21
29.0762
  0
LINE
  8
0
 10
40.8271
 20
29.0762
 11
40.7939
 21
29.1055
  0
LINE
  8
0
 10
40.7939
 20
29.1055
 11
40.7617
 21
29.1357
  0
LINE
  8
0
 10
40.7617
 20
29.1357
 11
40.7285
 21
29.166
  0
LINE
  8
0
 10
40.7285
 20
29.166
 11
40.666
 21
29.2285
  0
LINE
  8
0
 10
40.666
 20
29.2285
 11
40.6357
 21
29.2617
  0
LINE
  8
0
 10
40.6357
 20
29.2617
 11
40.6055
 21
29.2939
  0
LINE
  8
0
 10
40.6055
 20
29.2939
 11
40.5762
 21
29.3271
  0
LINE
  8
0
 10
40.5762
 20
29.3271
 11
40.5469
 21
29.3613
  0
LINE
  8
0
 10
40.5469
 20
29.3613
 11
40.5186
 21
29.3955
  0
LINE
  8
0
 10
40.5186
 20
29.3955
 11
40.4639
 21
29.4658
  0
LINE
  8
0
 10
40.4639
 20
29.4658
 11
40.4375
 21
29.501
  0
LINE
  8
0
 10
40.4375
 20
29.501
 11
40.4111
 21
29.5381
  0
LINE
  8
0
 10
40.4111
 20
29.5381
 11
40.3867
 21
29.5742
  0
LINE
  8
0
 10
40.3867
 20
29.5742
 11
40.3613
 21
29.6113
  0
LINE
  8
0
 10
40.3613
 20
29.6113
 11
40.3379
 21
29.6494
  0
LINE
  8
0
 10
40.3379
 20
29.6494
 11
40.3145
 21
29.6865
  0
LINE
  8
0
 10
40.3145
 20
29.6865
 11
40.292
 21
29.7256
  0
LINE
  8
0
 10
40.292
 20
29.7256
 11
40.2705
 21
29.7637
  0
LINE
  8
0
 10
40.2705
 20
29.7637
 11
40.249
 21
29.8027
  0
LINE
  8
0
 10
40.249
 20
29.8027
 11
40.2285
 21
29.8428
  0
LINE
  8
0
 10
40.2285
 20
29.8428
 11
40.1895
 21
29.9229
  0
LINE
  8
0
 10
40.1895
 20
29.9229
 11
40.1709
 21
29.9629
  0
LINE
  8
0
 10
40.1709
 20
29.9629
 11
40.1357
 21
30.0449
  0
LINE
  8
0
 10
40.1357
 20
30.0449
 11
40.1201
 21
30.0859
  0
LINE
  8
0
 10
40.1201
 20
30.0859
 11
40.1045
 21
30.1279
  0
LINE
  8
0
 10
40.1045
 20
30.1279
 11
40.0752
 21
30.2119
  0
LINE
  8
0
 10
40.0752
 20
30.2119
 11
40.0615
 21
30.2549
  0
LINE
  8
0
 10
40.0615
 20
30.2549
 11
40.0488
 21
30.2969
  0
LINE
  8
0
 10
40.0488
 20
30.2969
 11
40.0371
 21
30.3398
  0
LINE
  8
0
 10
40.0371
 20
30.3398
 11
40.0264
 21
30.3828
  0
LINE
  8
0
 10
40.0264
 20
30.3828
 11
40.0156
 21
30.4268
  0
LINE
  8
0
 10
40.0156
 20
30.4268
 11
40.0059
 21
30.4697
  0
LINE
  8
0
 10
40.0059
 20
30.4697
 11
39.9971
 21
30.5137
  0
LINE
  8
0
 10
39.9971
 20
30.5137
 11
39.9814
 21
30.6016
  0
LINE
  8
0
 10
39.9814
 20
30.6016
 11
39.9697
 21
30.6895
  0
LINE
  8
0
 10
39.9697
 20
30.6895
 11
39.96
 21
30.7773
  0
LINE
  8
0
 10
39.96
 20
30.7773
 11
39.957
 21
30.8223
  0
LINE
  8
0
 10
39.957
 20
30.8223
 11
39.9541
 21
30.8662
  0
LINE
  8
0
 10
39.9541
 20
30.8662
 11
39.9521
 21
30.9111
  0
LINE
  8
0
 10
39.9521
 20
30.9111
 11
39.9502
 21
31
  0
LINE
  8
0
 10
39.9502
 20
31
 11
39.9521
 21
31.0889
  0
LINE
  8
0
 10
39.9521
 20
31.0889
 11
39.9541
 21
31.1338
  0
LINE
  8
0
 10
39.9541
 20
31.1338
 11
39.957
 21
31.1777
  0
LINE
  8
0
 10
39.957
 20
31.1777
 11
39.96
 21
31.2227
  0
LINE
  8
0
 10
39.96
 20
31.2227
 11
39.9697
 21
31.3105
  0
LINE
  8
0
 10
39.9697
 20
31.3105
 11
39.9814
 21
31.3984
  0
LINE
  8
0
 10
39.9814
 20
31.3984
 11
39.9971
 21
31.4863
  0
LINE
  8
0
 10
39.9971
 20
31.4863
 11
40.0059
 21
31.5303
  0
LINE
  8
0
 10
40.0059
 20
31.5303
 11
40.0156
 21
31.5732
  0
LINE
  8
0
 10
40.0156
 20
31.5732
 11
40.0264
 21
31.6172
  0
LINE
  8
0
 10
40.0264
 20
31.6172
 11
40.0371
 21
31.6602
  0
LINE
  8
0
 10
40.0371
 20
31.6602
 11
40.0488
 21
31.7031
  0
LINE
  8
0
 10
40.0488
 20
31.7031
 11
40.0615
 21
31.7451
  0
LINE
  8
0
 10
40.0615
 20
31.7451
 11
40.0752
 21
31.7881
  0
LINE
  8
0
 10
40.0752
 20
31.7881
 11
40.1045
 21
31.8721
  0
LINE
  8
0
 10
40.1045
 20
31.8721
 11
40.1201
 21
31.9141
  0
LINE
  8
0
 10
40.1201
 20
31.9141
 11
40.1357
 21
31.9551
  0
LINE
  8
0
 10
40.1357
 20
31.9551
 11
40.1709
 21
32.0371
  0
LINE
  8
0
 10
40.1709
 20
32.0371
 11
40.1895
 21
32.0771
  0
LINE
  8
0
 10
40.1895
 20
32.0771
 11
40.2285
 21
32.1572
  0
LINE
  8
0
 10
40.2285
 20
32.1572
 11
40.249
 21
32.1973
  0
LINE
  8
0
 10
40.249
 20
32.1973
 11
40.2705
 21
32.2363
  0
LINE
  8
0
 10
40.2705
 20
32.2363
 11
40.292
 21
32.2744
  0
LINE
  8
0
 10
40.292
 20
32.2744
 11
40.3145
 21
32.3135
  0
LINE
  8
0
 10
40.3145
 20
32.3135
 11
40.3379
 21
32.3506
  0
LINE
  8
0
 10
40.3379
 20
32.3506
 11
40.3613
 21
32.3887
  0
LINE
  8
0
 10
40.3613
 20
32.3887
 11
40.3867
 21
32.4258
  0
LINE
  8
0
 10
40.3867
 20
32.4258
 11
40.4111
 21
32.4619
  0
LINE
  8
0
 10
40.4111
 20
32.4619
 11
40.4375
 21
32.499
  0
LINE
  8
0
 10
40.4375
 20
32.499
 11
40.4639
 21
32.5342
  0
LINE
  8
0
 10
40.4639
 20
32.5342
 11
40.5186
 21
32.6045
  0
LINE
  8
0
 10
40.5186
 20
32.6045
 11
40.5469
 21
32.6387
  0
LINE
  8
0
 10
40.5469
 20
32.6387
 11
40.5762
 21
32.6729
  0
LINE
  8
0
 10
40.5762
 20
32.6729
 11
40.6055
 21
32.7061
  0
LINE
  8
0
 10
40.6055
 20
32.7061
 11
40.6357
 21
32.7383
  0
LINE
  8
0
 10
40.6357
 20
32.7383
 11
40.666
 21
32.7715
  0
LINE
  8
0
 10
40.666
 20
32.7715
 11
40.7285
 21
32.834
  0
LINE
  8
0
 10
40.7285
 20
32.834
 11
40.7617
 21
32.8643
  0
LINE
  8
0
 10
40.7617
 20
32.8643
 11
40.7939
 21
32.8945
  0
LINE
  8
0
 10
40.7939
 20
32.8945
 11
40.8271
 21
32.9238
  0
LINE
  8
0
 10
40.8271
 20
32.9238
 11
40.8613
 21
32.9531
  0
LINE
  8
0
 10
40.8613
 20
32.9531
 11
40.8955
 21
32.9814
  0
LINE
  8
0
 10
40.8955
 20
32.9814
 11
40.9658
 21
33.0361
  0
LINE
  8
0
 10
40.9658
 20
33.0361
 11
41.001
 21
33.0625
  0
LINE
  8
0
 10
41.001
 20
33.0625
 11
41.0381
 21
33.0889
  0
LINE
  8
0
 10
41.0381
 20
33.0889
 11
41.0742
 21
33.1133
  0
LINE
  8
0
 10
41.0742
 20
33.1133
 11
41.1113
 21
33.1387
  0
LINE
  8
0
 10
41.1113
 20
33.1387
 11
41.1494
 21
33.1621
  0
LINE
  8
0
 10
41.1494
 20
33.1621
 11
41.1865
 21
33.1855
  0
LINE
  8
0
 10
41.1865
 20
33.1855
 11
41.2256
 21
33.208
  0
LINE
  8
0
 10
41.2256
 20
33.208
 11
41.2637
 21
33.2295
  0
LINE
  8
0
 10
41.2637
 20
33.2295
 11
41.3027
 21
33.251
  0
LINE
  8
0
 10
41.3027
 20
33.251
 11
41.3428
 21
33.2715
  0
LINE
  8
0
 10
41.3428
 20
33.2715
 11
41.4229
 21
33.3105
  0
LINE
  8
0
 10
41.4229
 20
33.3105
 11
41.4629
 21
33.3291
  0
LINE
  8
0
 10
41.4629
 20
33.3291
 11
41.5449
 21
33.3643
  0
LINE
  8
0
 10
41.5449
 20
33.3643
 11
41.5859
 21
33.3799
  0
LINE
  8
0
 10
41.5859
 20
33.3799
 11
41.6279
 21
33.3955
  0
LINE
  8
0
 10
41.6279
 20
33.3955
 11
41.7119
 21
33.4248
  0
LINE
  8
0
 10
41.7119
 20
33.4248
 11
41.7549
 21
33.4385
  0
LINE
  8
0
 10
41.7549
 20
33.4385
 11
41.7969
 21
33.4512
  0
LINE
  8
0
 10
41.7969
 20
33.4512
 11
41.8398
 21
33.4629
  0
LINE
  8
0
 10
41.8398
 20
33.4629
 11
41.8828
 21
33.4736
  0
LINE
  8
0
 10
41.8828
 20
33.4736
 11
41.9268
 21
33.4844
  0
LINE
  8
0
 10
41.9268
 20
33.4844
 11
41.9697
 21
33.4941
  0
LINE
  8
0
 10
41.9697
 20
33.4941
 11
42.0137
 21
33.5029
  0
LINE
  8
0
 10
42.0137
 20
33.5029
 11
42.1016
 21
33.5186
  0
LINE
  8
0
 10
42.1016
 20
33.5186
 11
42.1895
 21
33.5303
  0
LINE
  8
0
 10
42.1895
 20
33.5303
 11
42.2773
 21
33.54
  0
LINE
  8
0
 10
42.2773
 20
33.54
 11
42.3223
 21
33.543
  0
LINE
  8
0
 10
42.3223
 20
33.543
 11
42.3662
 21
33.5459
  0
LINE
  8
0
 10
42.3662
 20
33.5459
 11
42.4111
 21
33.5479
  0
LINE
  8
0
 10
42.4111
 20
33.5479
 11
42.5
 21
33.5498
  0
LINE
  8
0
 10
42.5
 20
33.5498
 11
42.5889
 21
33.5479
  0
LINE
  8
0
 10
42.5889
 20
33.5479
 11
42.6338
 21
33.5459
  0
LINE
  8
0
 10
42.6338
 20
33.5459
 11
42.6777
 21
33.543
  0
LINE
  8
0
 10
42.6777
 20
33.543
 11
42.7227
 21
33.54
  0
LINE
  8
0
 10
42.7227
 20
33.54
 11
42.8105
 21
33.5303
  0
LINE
  8
0
 10
42.8105
 20
33.5303
 11
42.8984
 21
33.5186
  0
LINE
  8
0
 10
42.8984
 20
33.5186
 11
42.9863
 21
33.5029
  0
LINE
  8
0
 10
42.9863
 20
33.5029
 11
43.0303
 21
33.4941
  0
LINE
  8
0
 10
43.0303
 20
33.4941
 11
43.0732
 21
33.4844
  0
LINE
  8
0
 10
43.0732
 20
33.4844
 11
43.1172
 21
33.4736
  0
LINE
  8
0
 10
43.1172
 20
33.4736
 11
43.1602
 21
33.4629
  0
LINE
  8
0
 10
43.1602
 20
33.4629
 11
43.2031
 21
33.4512
  0
LINE
  8
0
 10
43.2031
 20
33.4512
 11
43.2451
 21
33.4385
  0
LINE
  8
0
 10
43.2451
 20
33.4385
 11
43.2881
 21
33.4248
  0
LINE
  8
0
 10
43.2881
 20
33.4248
 11
43.3721
 21
33.3955
  0
LINE
  8
0
 10
43.3721
 20
33.3955
 11
43.4141
 21
33.3799
  0
LINE
  8
0
 10
43.4141
 20
33.3799
 11
43.4551
 21
33.3643
  0
LINE
  8
0
 10
43.4551
 20
33.3643
 11
43.5371
 21
33.3291
  0
LINE
  8
0
 10
43.5371
 20
33.3291
 11
43.5771
 21
33.3105
  0
LINE
  8
0
 10
43.5771
 20
33.3105
 11
43.6572
 21
33.2715
  0
LINE
  8
0
 10
43.6572
 20
33.2715
 11
43.6973
 21
33.251
  0
LINE
  8
0
 10
43.6973
 20
33.251
 11
43.7363
 21
33.2295
  0
LINE
  8
0
 10
43.7363
 20
33.2295
 11
43.7744
 21
33.208
  0
LINE
  8
0
 10
43.7744
 20
33.208
 11
43.8135
 21
33.1855
  0
LINE
  8
0
 10
43.8135
 20
33.1855
 11
43.8506
 21
33.1621
  0
LINE
  8
0
 10
43.8506
 20
33.1621
 11
43.8887
 21
33.1387
  0
LINE
  8
0
 10
43.8887
 20
33.1387
 11
43.9258
 21
33.1133
  0
LINE
  8
0
 10
43.9258
 20
33.1133
 11
43.9619
 21
33.0889
  0
LINE
  8
0
 10
43.9619
 20
33.0889
 11
43.999
 21
33.0625
  0
LINE
  8
0
 10
43.999
 20
33.0625
 11
44.0342
 21
33.0361
  0
LINE
  8
0
 10
44.0342
 20
33.0361
 11
44.1045
 21
32.9814
  0
LINE
  8
0
 10
44.1045
 20
32.9814
 11
44.1387
 21
32.9531
  0
LINE
  8
0
 10
44.1387
 20
32.9531
 11
44.1729
 21
32.9238
  0
LINE
  8
0
 10
44.1729
 20
32.9238
 11
44.2061
 21
32.8945
  0
LINE
  8
0
 10
44.2061
 20
32.8945
 11
44.2383
 21
32.8643
  0
LINE
  8
0
 10
44.2383
 20
32.8643
 11
44.2715
 21
32.834
  0
LINE
  8
0
 10
44.2715
 20
32.834
 11
44.334
 21
32.7715
  0
LINE
  8
0
 10
44.334
 20
32.7715
 11
44.3643
 21
32.7383
  0
LINE
  8
0
 10
44.3643
 20
32.7383
 11
44.3945
 21
32.7061
  0
LINE
  8
0
 10
44.3945
 20
32.7061
 11
44.4238
 21
32.6729
  0
LINE
  8
0
 10
44.4238
 20
32.6729
 11
44.4531
 21
32.6387
  0
LINE
  8
0
 10
44.4531
 20
32.6387
 11
44.4814
 21
32.6045
  0
LINE
  8
0
 10
44.4814
 20
32.6045
 11
44.5361
 21
32.5342
  0
LINE
  8
0
 10
44.5361
 20
32.5342
 11
44.5625
 21
32.499
  0
LINE
  8
0
 10
44.5625
 20
32.499
 11
44.5889
 21
32.4619
  0
LINE
  8
0
 10
44.5889
 20
32.4619
 11
44.6133
 21
32.4258
  0
LINE
  8
0
 10
44.6133
 20
32.4258
 11
44.6387
 21
32.3887
  0
LINE
  8
0
 10
44.6387
 20
32.3887
 11
44.6621
 21
32.3506
  0
LINE
  8
0
 10
44.6621
 20
32.3506
 11
44.6855
 21
32.3135
  0
LINE
  8
0
 10
44.6855
 20
32.3135
 11
44.708
 21
32.2744
  0
LINE
  8
0
 10
44.708
 20
32.2744
 11
44.7295
 21
32.2363
  0
LINE
  8
0
 10
44.7295
 20
32.2363
 11
44.751
 21
32.1973
  0
LINE
  8
0
 10
44.751
 20
32.1973
 11
44.7715
 21
32.1572
  0
LINE
  8
0
 10
44.7715
 20
32.1572
 11
44.8105
 21
32.0771
  0
LINE
  8
0
 10
44.8105
 20
32.0771
 11
44.8291
 21
32.0371
  0
LINE
  8
0
 10
44.8291
 20
32.0371
 11
44.8643
 21
31.9551
  0
LINE
  8
0
 10
44.8643
 20
31.9551
 11
44.8799
 21
31.9141
  0
LINE
  8
0
 10
44.8799
 20
31.9141
 11
44.8955
 21
31.8721
  0
LINE
  8
0
 10
44.8955
 20
31.8721
 11
44.9248
 21
31.7881
  0
LINE
  8
0
 10
44.9248
 20
31.7881
 11
44.9385
 21
31.7451
  0
LINE
  8
0
 10
44.9385
 20
31.7451
 11
44.9512
 21
31.7031
  0
LINE
  8
0
 10
44.9512
 20
31.7031
 11
44.9629
 21
31.6602
  0
LINE
  8
0
 10
44.9629
 20
31.6602
 11
44.9736
 21
31.6172
  0
LINE
  8
0
 10
44.9736
 20
31.6172
 11
44.9844
 21
31.5732
  0
LINE
  8
0
 10
44.9844
 20
31.5732
 11
44.9941
 21
31.5303
  0
LINE
  8
0
 10
44.9941
 20
31.5303
 11
45.0029
 21
31.4863
  0
LINE
  8
0
 10
45.0029
 20
31.4863
 11
45.0186
 21
31.3984
  0
LINE
  8
0
 10
45.0186
 20
31.3984
 11
45.0303
 21
31.3105
  0
LINE
  8
0
 10
45.0303
 20
31.3105
 11
45.04
 21
31.2227
  0
LINE
  8
0
 10
45.04
 20
31.2227
 11
45.043
 21
31.1777
  0
LINE
  8
0
 10
45.043
 20
31.1777
 11
45.0459
 21
31.1338
  0
LINE
  8
0
 10
45.0459
 20
31.1338
 11
45.0479
 21
31.0889
  0
LINE
  8
0
 10
45.0479
 20
31.0889
 11
45.0498
 21
31
  0
LINE
  8
0
 10
45.0498
 20
31
 11
45.0479
 21
30.9111
  0
LINE
  8
0
 10
45.0479
 20
30.9111
 11
45.0459
 21
30.8662
  0
LINE
  8
0
 10
45.0459
 20
30.8662
 11
45.043
 21
30.8223
  0
LINE
  8
0
 10
45.043
 20
30.8223
 11
45.04
 21
30.7773
  0
LINE
  8
0
 10
45.04
 20
30.7773
 11
45.0303
 21
30.6895
  0
LINE
  8
0
 10
45.0303
 20
30.6895
 11
45.0186
 21
30.6016
  0
LINE
  8
0
 10
45.0186
 20
30.6016
 11
45.0029
 21
30.5137
  0
LINE
  8
0
 10
45.0029
 20
30.5137
 11
44.9941
 21
30.4697
  0
LINE
  8
0
 10
44.9941
 20
30.4697
 11
44.9844
 21
30.4268
  0
LINE
  8
0
 10
44.9844
 20
30.4268
 11
44.9736
 21
30.3828
  0
LINE
  8
0
 10
44.9736
 20
30.3828
 11
44.9629
 21
30.3398
  0
LINE
  8
0
 10
44.9629
 20
30.3398
 11
44.9512
 21
30.2969
  0
LINE
  8
0
 10
44.9512
 20
30.2969
 11
44.9385
 21
30.2549
  0
LINE
  8
0
 10
44.9385
 20
30.2549
 11
44.9248
 21
30.2119
  0
LINE
  8
0
 10
44.9248
 20
30.2119
 11
44.8955
 21
30.1279
  0
LINE
  8
0
 10
44.8955
 20
30.1279
 11
44.8799
 21
30.0859
  0
LINE
  8
0
 10
44.8799
 20
30.0859
 11
44.8643
 21
30.0449
  0
LINE
  8
0
 10
44.8643
 20
30.0449
 11
44.8291
 21
29.9629
  0
LINE
  8
0
 10
44.8291
 20
29.9629
 11
44.8105
 21
29.9229
  0
LINE
  8
0
 10
44.8105
 20
29.9229
 11
44.7715
 21
29.8428
  0
LINE
  8
0
 10
44.7715
 20
29.8428
 11
44.751
 21
29.8027
  0
LINE
  8
0
 10
44.751
 20
29.8027
 11
44.7295
 21
29.7637
  0
LINE
  8
0
 10
44.7295
 20
29.7637
 11
44.708
 21
29.7256
  0
LINE
  8
0
 10
44.708
 20
29.7256
 11
44.6855
 21
29.6865
  0
LINE
  8
0
 10
44.6855
 20
29.6865
 11
44.6621
 21
29.6494
  0
LINE
  8
0
 10
44.6621
 20
29.6494
 11
44.6387
 21
29.6113
  0
LINE
  8
0
 10
44.6387
 20
29.6113
 11
44.6133
 21
29.5742
  0
LINE
  8
0
 10
44.6133
 20
29.5742
 11
44.5889
 21
29.5381
  0
LINE
  8
0
 10
44.5889
 20
29.5381
 11
44.5625
 21
29.501
  0
LINE
  8
0
 10
44.5625
 20
29.501
 11
44.5361
 21
29.4658
  0
LINE
  8
0
 10
44.5361
 20
29.4658
 11
44.4814
 21
29.3955
  0
LINE
  8
0
 10
44.4814
 20
29.3955
 11
44.4531
 21
29.3613
  0
LINE
  8
0
 10
44.4531
 20
29.3613
 11
44.4238
 21
29.3271
  0
LINE
  8
0
 10
44.4238
 20
29.3271
 11
44.3945
 21
29.2939
  0
LINE
  8
0
 10
44.3945
 20
29.2939
 11
44.3643
 21
29.2617
  0
LINE
  8
0
 10
44.3643
 20
29.2617
 11
44.334
 21
29.2285
  0
LINE
  8
0
 10
44.334
 20
29.2285
 11
44.2715
 21
29.166
  0
LINE
  8
0
 10
44.2715
 20
29.166
 11
44.2383
 21
29.1357
  0
LINE
  8
0
 10
44.2383
 20
29.1357
 11
44.2061
 21
29.1055
  0
LINE
  8
0
 10
44.2061
 20
29.1055
 11
44.1729
 21
29.0762
  0
LINE
  8
0
 10
44.1729
 20
29.0762
 11
44.1387
 21
29.0469
  0
LINE
  8
0
 10
44.1387
 20
29.0469
 11
44.1045
 21
29.0186
  0
LINE
  8
0
 10
44.1045
 20
29.0186
 11
44.0342
 21
28.9639
  0
LINE
  8
0
 10
44.0342
 20
28.9639
 11
43.999
 21
28.9375
  0
LINE
  8
0
 10
43.999
 20
28.9375
 11
43.9619
 21
28.9111
  0
LINE
  8
0
 10
43.9619
 20
28.9111
 11
43.9258
 21
28.8867
  0
LINE
  8
0
 10
43.9258
 20
28.8867
 11
43.8887
 21
28.8613
  0
LINE
  8
0
 10
43.8887
 20
28.8613
 11
43.8506
 21
28.8379
  0
LINE
  8
0
 10
43.8506
 20
28.8379
 11
43.8135
 21
28.8145
  0
LINE
  8
0
 10
43.8135
 20
28.8145
 11
43.7744
 21
28.792
  0
LINE
  8
0
 10
43.7744
 20
28.792
 11
43.7363
 21
28.7705
  0
LINE
  8
0
 10
43.7363
 20
28.7705
 11
43.6973
 21
28.749
  0
LINE
  8
0
 10
43.6973
 20
28.749
 11
43.6572
 21
28.7285
  0
LINE
  8
0
 10
43.6572
 20
28.7285
 11
43.5771
 21
28.6895
  0
LINE
  8
0
 10
43.5771
 20
28.6895
 11
43.5371
 21
28.6709
  0
LINE
  8
0
 10
43.5371
 20
28.6709
 11
43.4551
 21
28.6357
  0
LINE
  8
0
 10
43.4551
 20
28.6357
 11
43.4141
 21
28.6201
  0
LINE
  8
0
 10
43.4141
 20
28.6201
 11
43.3721
 21
28.6045
  0
LINE
  8
0
 10
43.3721
 20
28.6045
 11
43.2881
 21
28.5752
  0
LINE
  8
0
 10
43.2881
 20
28.5752
 11
43.2451
 21
28.5615
  0
LINE
  8
0
 10
43.2451
 20
28.5615
 11
43.2031
 21
28.5488
  0
LINE
  8
0
 10
43.2031
 20
28.5488
 11
43.1602
 21
28.5371
  0
LINE
  8
0
 10
43.1602
 20
28.5371
 11
43.1172
 21
28.5264
  0
LINE
  8
0
 10
43.1172
 20
28.5264
 11
43.0732
 21
28.5156
  0
LINE
  8
0
 10
43.0732
 20
28.5156
 11
43.0303
 21
28.5059
  0
LINE
  8
0
 10
43.0303
 20
28.5059
 11
42.9863
 21
28.4971
  0
LINE
  8
0
 10
42.9863
 20
28.4971
 11
42.8984
 21
28.4814
  0
LINE
  8
0
 10
42.8984
 20
28.4814
 11
42.8105
 21
28.4697
  0
LINE
  8
0
 10
42.8105
 20
28.4697
 11
42.7227
 21
28.46
  0
LINE
  8
0
 10
42.7227
 20
28.46
 11
42.6777
 21
28.457
  0
LINE
  8
0
 10
42.6777
 20
28.457
 11
42.6338
 21
28.4541
  0
LINE
  8
0
 10
42.6338
 20
28.4541
 11
42.5889
 21
28.4521
  0
LINE
  8
0
 10
42.5889
 20
28.4521
 11
42.5
 21
28.4502
  0
LINE
  8
0
 10
42.5
 20
28.4502
 11
42.4111
 21
28.4521
  0
LINE
  8
0
 10
91.9717
 20
28.9004
 11
91.916
 21
28.9023
  0
LINE
  8
0
 10
91.916
 20
28.9023
 11
91.8887
 21
28.9043
  0
LINE
  8
0
 10
91.8887
 20
28.9043
 11
91.8604
 21
28.9062
  0
LINE
  8
0
 10
91.8604
 20
28.9062
 11
91.833
 21
28.9092
  0
LINE
  8
0
 10
91.833
 20
28.9092
 11
91.8047
 21
28.9121
  0
LINE
  8
0
 10
91.8047
 20
28.9121
 11
91.75
 21
28.9199
  0
LINE
  8
0
 10
91.75
 20
28.9199
 11
91.7217
 21
28.9238
  0
LINE
  8
0
 10
91.7217
 20
28.9238
 11
91.6943
 21
28.9297
  0
LINE
  8
0
 10
91.6943
 20
28.9297
 11
91.667
 21
28.9346
  0
LINE
  8
0
 10
91.667
 20
28.9346
 11
91.6396
 21
28.9414
  0
LINE
  8
0
 10
91.6396
 20
28.9414
 11
91.6133
 21
28.9473
  0
LINE
  8
0
 10
91.6133
 20
28.9473
 11
91.5859
 21
28.9541
  0
LINE
  8
0
 10
91.5859
 20
28.9541
 11
91.5586
 21
28.9619
  0
LINE
  8
0
 10
91.5586
 20
28.9619
 11
91.5322
 21
28.9697
  0
LINE
  8
0
 10
91.5322
 20
28.9697
 11
91.4531
 21
28.9961
  0
LINE
  8
0
 10
91.4531
 20
28.9961
 11
91.4268
 21
29.0059
  0
LINE
  8
0
 10
91.4268
 20
29.0059
 11
91.4004
 21
29.0166
  0
LINE
  8
0
 10
91.4004
 20
29.0166
 11
91.3496
 21
29.0381
  0
LINE
  8
0
 10
91.3496
 20
29.0381
 11
91.2988
 21
29.0615
  0
LINE
  8
0
 10
91.2988
 20
29.0615
 11
91.2734
 21
29.0742
  0
LINE
  8
0
 10
91.2734
 20
29.0742
 11
91.249
 21
29.0869
  0
LINE
  8
0
 10
91.249
 20
29.0869
 11
91.2002
 21
29.1143
  0
LINE
  8
0
 10
91.2002
 20
29.1143
 11
91.1758
 21
29.1289
  0
LINE
  8
0
 10
91.1758
 20
29.1289
 11
91.1289
 21
29.1582
  0
LINE
  8
0
 10
91.1289
 20
29.1582
 11
91.082
 21
29.1895
  0
LINE
  8
0
 10
91.082
 20
29.1895
 11
91.0146
 21
29.2393
  0
LINE
  8
0
 10
91.0146
 20
29.2393
 11
90.9502
 21
29.292
  0
LINE
  8
0
 10
90.9502
 20
29.292
 11
90.9297
 21
29.3105
  0
LINE
  8
0
 10
90.9297
 20
29.3105
 11
90.9092
 21
29.3301
  0
LINE
  8
0
 10
90.9092
 20
29.3301
 11
90.8887
 21
29.3486
  0
LINE
  8
0
 10
90.8887
 20
29.3486
 11
90.8682
 21
29.3682
  0
LINE
  8
0
 10
90.8682
 20
29.3682
 11
90.8486
 21
29.3887
  0
LINE
  8
0
 10
90.8486
 20
29.3887
 11
90.8301
 21
29.4092
  0
LINE
  8
0
 10
90.8301
 20
29.4092
 11
90.8105
 21
29.4297
  0
LINE
  8
0
 10
90.8105
 20
29.4297
 11
90.792
 21
29.4502
  0
LINE
  8
0
 10
90.792
 20
29.4502
 11
90.7393
 21
29.5146
  0
LINE
  8
0
 10
90.7393
 20
29.5146
 11
90.6895
 21
29.582
  0
LINE
  8
0
 10
90.6895
 20
29.582
 11
90.6582
 21
29.6289
  0
LINE
  8
0
 10
90.6582
 20
29.6289
 11
90.6289
 21
29.6758
  0
LINE
  8
0
 10
90.6289
 20
29.6758
 11
90.6143
 21
29.7002
  0
LINE
  8
0
 10
90.6143
 20
29.7002
 11
90.5869
 21
29.749
  0
LINE
  8
0
 10
90.5869
 20
29.749
 11
90.5742
 21
29.7734
  0
LINE
  8
0
 10
90.5742
 20
29.7734
 11
90.5615
 21
29.7988
  0
LINE
  8
0
 10
90.5615
 20
29.7988
 11
90.5381
 21
29.8496
  0
LINE
  8
0
 10
90.5381
 20
29.8496
 11
90.5166
 21
29.9004
  0
LINE
  8
0
 10
90.5166
 20
29.9004
 11
90.5059
 21
29.9268
  0
LINE
  8
0
 10
90.5059
 20
29.9268
 11
90.4961
 21
29.9531
  0
LINE
  8
0
 10
90.4961
 20
29.9531
 11
90.4697
 21
30.0322
  0
LINE
  8
0
 10
90.4697
 20
30.0322
 11
90.4619
 21
30.0586
  0
LINE
  8
0
 10
90.4619
 20
30.0586
 11
90.4541
 21
30.0859
  0
LINE
  8
0
 10
90.4541
 20
30.0859
 11
90.4473
 21
30.1133
  0
LINE
  8
0
 10
90.4473
 20
30.1133
 11
90.4414
 21
30.1396
  0
LINE
  8
0
 10
90.4414
 20
30.1396
 11
90.4346
 21
30.167
  0
LINE
  8
0
 10
90.4346
 20
30.167
 11
90.4297
 21
30.1943
  0
LINE
  8
0
 10
90.4297
 20
30.1943
 11
90.4238
 21
30.2217
  0
LINE
  8
0
 10
90.4238
 20
30.2217
 11
90.4199
 21
30.25
  0
LINE
  8
0
 10
90.4199
 20
30.25
 11
90.4121
 21
30.3047
  0
LINE
  8
0
 10
90.4121
 20
30.3047
 11
90.4092
 21
30.333
  0
LINE
  8
0
 10
90.4092
 20
30.333
 11
90.4062
 21
30.3604
  0
LINE
  8
0
 10
90.4062
 20
30.3604
 11
90.4043
 21
30.3887
  0
LINE
  8
0
 10
90.4043
 20
30.3887
 11
90.4023
 21
30.416
  0
LINE
  8
0
 10
90.4023
 20
30.416
 11
90.4004
 21
30.4717
  0
LINE
  8
0
 10
90.4004
 20
30.4717
 11
90.4004
 21
30.5283
  0
LINE
  8
0
 10
90.4004
 20
30.5283
 11
90.4023
 21
30.584
  0
LINE
  8
0
 10
90.4023
 20
30.584
 11
90.4043
 21
30.6113
  0
LINE
  8
0
 10
90.4043
 20
30.6113
 11
90.4062
 21
30.6396
  0
LINE
  8
0
 10
90.4062
 20
30.6396
 11
90.4092
 21
30.667
  0
LINE
  8
0
 10
90.4092
 20
30.667
 11
90.4121
 21
30.6953
  0
LINE
  8
0
 10
90.4121
 20
30.6953
 11
90.4199
 21
30.75
  0
LINE
  8
0
 10
90.4199
 20
30.75
 11
90.4238
 21
30.7783
  0
LINE
  8
0
 10
90.4238
 20
30.7783
 11
90.4297
 21
30.8057
  0
LINE
  8
0
 10
90.4297
 20
30.8057
 11
90.4346
 21
30.833
  0
LINE
  8
0
 10
90.4346
 20
30.833
 11
90.4414
 21
30.8604
  0
LINE
  8
0
 10
90.4414
 20
30.8604
 11
90.4473
 21
30.8867
  0
LINE
  8
0
 10
90.4473
 20
30.8867
 11
90.4541
 21
30.9141
  0
LINE
  8
0
 10
90.4541
 20
30.9141
 11
90.4619
 21
30.9414
  0
LINE
  8
0
 10
90.4619
 20
30.9414
 11
90.4697
 21
30.9678
  0
LINE
  8
0
 10
90.4697
 20
30.9678
 11
90.4961
 21
31.0469
  0
LINE
  8
0
 10
90.4961
 20
31.0469
 11
90.5059
 21
31.0732
  0
LINE
  8
0
 10
90.5059
 20
31.0732
 11
90.5166
 21
31.0996
  0
LINE
  8
0
 10
90.5166
 20
31.0996
 11
90.5381
 21
31.1504
  0
LINE
  8
0
 10
90.5381
 20
31.1504
 11
90.5615
 21
31.2012
  0
LINE
  8
0
 10
90.5615
 20
31.2012
 11
90.5742
 21
31.2266
  0
LINE
  8
0
 10
90.5742
 20
31.2266
 11
90.5869
 21
31.251
  0
LINE
  8
0
 10
90.5869
 20
31.251
 11
90.6143
 21
31.2998
  0
LINE
  8
0
 10
90.6143
 20
31.2998
 11
90.6289
 21
31.3242
  0
LINE
  8
0
 10
90.6289
 20
31.3242
 11
90.6582
 21
31.3711
  0
LINE
  8
0
 10
90.6582
 20
31.3711
 11
90.6895
 21
31.418
  0
LINE
  8
0
 10
90.6895
 20
31.418
 11
90.7393
 21
31.4854
  0
LINE
  8
0
 10
90.7393
 20
31.4854
 11
90.792
 21
31.5498
  0
LINE
  8
0
 10
90.792
 20
31.5498
 11
90.8105
 21
31.5703
  0
LINE
  8
0
 10
90.8105
 20
31.5703
 11
90.8301
 21
31.5908
  0
LINE
  8
0
 10
90.8301
 20
31.5908
 11
90.8486
 21
31.6113
  0
LINE
  8
0
 10
90.8486
 20
31.6113
 11
90.8682
 21
31.6318
  0
LINE
  8
0
 10
90.8682
 20
31.6318
 11
90.8887
 21
31.6514
  0
LINE
  8
0
 10
90.8887
 20
31.6514
 11
90.9092
 21
31.6699
  0
LINE
  8
0
 10
90.9092
 20
31.6699
 11
90.9297
 21
31.6895
  0
LINE
  8
0
 10
90.9297
 20
31.6895
 11
90.9502
 21
31.708
  0
LINE
  8
0
 10
90.9502
 20
31.708
 11
91.0146
 21
31.7607
  0
LINE
  8
0
 10
91.0146
 20
31.7607
 11
91.082
 21
31.8105
  0
LINE
  8
0
 10
91.082
 20
31.8105
 11
91.1289
 21
31.8418
  0
LINE
  8
0
 10
91.1289
 20
31.8418
 11
91.1758
 21
31.8711
  0
LINE
  8
0
 10
91.1758
 20
31.8711
 11
91.2002
 21
31.8857
  0
LINE
  8
0
 10
91.2002
 20
31.8857
 11
91.249
 21
31.9131
  0
LINE
  8
0
 10
91.249
 20
31.9131
 11
91.2734
 21
31.9258
  0
LINE
  8
0
 10
91.2734
 20
31.9258
 11
91.2988
 21
31.9385
  0
LINE
  8
0
 10
91.2988
 20
31.9385
 11
91.3496
 21
31.9619
  0
LINE
  8
0
 10
91.3496
 20
31.9619
 11
91.4004
 21
31.9834
  0
LINE
  8
0
 10
91.4004
 20
31.9834
 11
91.4268
 21
31.9941
  0
LINE
  8
0
 10
91.4268
 20
31.9941
 11
91.4531
 21
32.0039
  0
LINE
  8
0
 10
91.4531
 20
32.0039
 11
91.5322
 21
32.0303
  0
LINE
  8
0
 10
91.5322
 20
32.0303
 11
91.5586
 21
32.0381
  0
LINE
  8
0
 10
91.5586
 20
32.0381
 11
91.5859
 21
32.0459
  0
LINE
  8
0
 10
91.5859
 20
32.0459
 11
91.6133
 21
32.0527
  0
LINE
  8
0
 10
91.6133
 20
32.0527
 11
91.6396
 21
32.0586
  0
LINE
  8
0
 10
91.6396
 20
32.0586
 11
91.667
 21
32.0654
  0
LINE
  8
0
 10
91.667
 20
32.0654
 11
91.6943
 21
32.0703
  0
LINE
  8
0
 10
91.6943
 20
32.0703
 11
91.7217
 21
32.0762
  0
LINE
  8
0
 10
91.7217
 20
32.0762
 11
91.75
 21
32.0801
  0
LINE
  8
0
 10
91.75
 20
32.0801
 11
91.8047
 21
32.0879
  0
LINE
  8
0
 10
91.8047
 20
32.0879
 11
91.833
 21
32.0908
  0
LINE
  8
0
 10
91.833
 20
32.0908
 11
91.8604
 21
32.0938
  0
LINE
  8
0
 10
91.8604
 20
32.0938
 11
91.8887
 21
32.0957
  0
LINE
  8
0
 10
91.8887
 20
32.0957
 11
91.916
 21
32.0977
  0
LINE
  8
0
 10
91.916
 20
32.0977
 11
91.9717
 21
32.0996
  0
LINE
  8
0
 10
91.9717
 20
32.0996
 11
92.0283
 21
32.0996
  0
LINE
  8
0
 10
92.0283
 20
32.0996
 11
92.084
 21
32.0977
  0
LINE
  8
0
 10
92.084
 20
32.0977
 11
92.1113
 21
32.0957
  0
LINE
  8
0
 10
92.1113
 20
32.0957
 11
92.1396
 21
32.0938
  0
LINE
  8
0
 10
92.1396
 20
32.0938
 11
92.167
 21
32.0908
  0
LINE
  8
0
 10
92.167
 20
32.0908
 11
92.1953
 21
32.0879
  0
LINE
  8
0
 10
92.1953
 20
32.0879
 11
92.25
 21
32.0801
  0
LINE
  8
0
 10
92.25
 20
32.0801
 11
92.2783
 21
32.0762
  0
LINE
  8
0
 10
92.2783
 20
32.0762
 11
92.3057
 21
32.0703
  0
LINE
  8
0
 10
92.3057
 20
32.0703
 11
92.333
 21
32.0654
  0
LINE
  8
0
 10
92.333
 20
32.0654
 11
92.3604
 21
32.0586
  0
LINE
  8
0
 10
92.3604
 20
32.0586
 11
92.3867
 21
32.0527
  0
LINE
  8
0
 10
92.3867
 20
32.0527
 11
92.4141
 21
32.0459
  0
LINE
  8
0
 10
92.4141
 20
32.0459
 11
92.4414
 21
32.0381
  0
LINE
  8
0
 10
92.4414
 20
32.0381
 11
92.4678
 21
32.0303
  0
LINE
  8
0
 10
92.4678
 20
32.0303
 11
92.5469
 21
32.0039
  0
LINE
  8
0
 10
92.5469
 20
32.0039
 11
92.5732
 21
31.9941
  0
LINE
  8
0
 10
92.5732
 20
31.9941
 11
92.5996
 21
31.9834
  0
LINE
  8
0
 10
92.5996
 20
31.9834
 11
92.6504
 21
31.9619
  0
LINE
  8
0
 10
92.6504
 20
31.9619
 11
92.7012
 21
31.9385
  0
LINE
  8
0
 10
92.7012
 20
31.9385
 11
92.7266
 21
31.9258
  0
LINE
  8
0
 10
92.7266
 20
31.9258
 11
92.751
 21
31.9131
  0
LINE
  8
0
 10
92.751
 20
31.9131
 11
92.7998
 21
31.8857
  0
LINE
  8
0
 10
92.7998
 20
31.8857
 11
92.8242
 21
31.8711
  0
LINE
  8
0
 10
92.8242
 20
31.8711
 11
92.8711
 21
31.8418
  0
LINE
  8
0
 10
92.8711
 20
31.8418
 11
92.918
 21
31.8105
  0
LINE
  8
0
 10
92.918
 20
31.8105
 11
92.9854
 21
31.7607
  0
LINE
  8
0
 10
92.9854
 20
31.7607
 11
93.0498
 21
31.708
  0
LINE
  8
0
 10
93.0498
 20
31.708
 11
93.0703
 21
31.6895
  0
LINE
  8
0
 10
93.0703
 20
31.6895
 11
93.0908
 21
31.6699
  0
LINE
  8
0
 10
93.0908
 20
31.6699
 11
93.1113
 21
31.6514
  0
LINE
  8
0
 10
93.1113
 20
31.6514
 11
93.1318
 21
31.6318
  0
LINE
  8
0
 10
93.1318
 20
31.6318
 11
93.1514
 21
31.6113
  0
LINE
  8
0
 10
93.1514
 20
31.6113
 11
93.1699
 21
31.5908
  0
LINE
  8
0
 10
93.1699
 20
31.5908
 11
93.1895
 21
31.5703
  0
LINE
  8
0
 10
93.1895
 20
31.5703
 11
93.208
 21
31.5498
  0
LINE
  8
0
 10
93.208
 20
31.5498
 11
93.2607
 21
31.4854
  0
LINE
  8
0
 10
93.2607
 20
31.4854
 11
93.3105
 21
31.418
  0
LINE
  8
0
 10
93.3105
 20
31.418
 11
93.3418
 21
31.3711
  0
LINE
  8
0
 10
93.3418
 20
31.3711
 11
93.3711
 21
31.3242
  0
LINE
  8
0
 10
93.3711
 20
31.3242
 11
93.3857
 21
31.2998
  0
LINE
  8
0
 10
93.3857
 20
31.2998
 11
93.4131
 21
31.251
  0
LINE
  8
0
 10
93.4131
 20
31.251
 11
93.4258
 21
31.2266
  0
LINE
  8
0
 10
93.4258
 20
31.2266
 11
93.4385
 21
31.2012
  0
LINE
  8
0
 10
93.4385
 20
31.2012
 11
93.4619
 21
31.1504
  0
LINE
  8
0
 10
93.4619
 20
31.1504
 11
93.4834
 21
31.0996
  0
LINE
  8
0
 10
93.4834
 20
31.0996
 11
93.4941
 21
31.0732
  0
LINE
  8
0
 10
93.4941
 20
31.0732
 11
93.5039
 21
31.0469
  0
LINE
  8
0
 10
93.5039
 20
31.0469
 11
93.5303
 21
30.9678
  0
LINE
  8
0
 10
93.5303
 20
30.9678
 11
93.5381
 21
30.9414
  0
LINE
  8
0
 10
93.5381
 20
30.9414
 11
93.5459
 21
30.9141
  0
LINE
  8
0
 10
93.5459
 20
30.9141
 11
93.5527
 21
30.8867
  0
LINE
  8
0
 10
93.5527
 20
30.8867
 11
93.5586
 21
30.8604
  0
LINE
  8
0
 10
93.5586
 20
30.8604
 11
93.5654
 21
30.833
  0
LINE
  8
0
 10
93.5654
 20
30.833
 11
93.5703
 21
30.8057
  0
LINE
  8
0
 10
93.5703
 20
30.8057
 11
93.5762
 21
30.7783
  0
LINE
  8
0
 10
93.5762
 20
30.7783
 11
93.5801
 21
30.75
  0
LINE
  8
0
 10
93.5801
 20
30.75
 11
93.5879
 21
30.6953
  0
LINE
  8
0
 10
93.5879
 20
30.6953
 11
93.5908
 21
30.667
  0
LINE
  8
0
 10
93.5908
 20
30.667
 11
93.5938
 21
30.6396
  0
LINE
  8
0
 10
93.5938
 20
30.6396
 11
93.5957
 21
30.6113
  0
LINE
  8
0
 10
93.5957
 20
30.6113
 11
93.5977
 21
30.584
  0
LINE
  8
0
 10
93.5977
 20
30.584
 11
93.5996
 21
30.5283
  0
LINE
  8
0
 10
93.5996
 20
30.5283
 11
93.5996
 21
30.4717
  0
LINE
  8
0
 10
93.5996
 20
30.4717
 11
93.5977
 21
30.416
  0
LINE
  8
0
 10
93.5977
 20
30.416
 11
93.5957
 21
30.3887
  0
LINE
  8
0
 10
93.5957
 20
30.3887
 11
93.5938
 21
30.3604
  0
LINE
  8
0
 10
93.5938
 20
30.3604
 11
93.5908
 21
30.333
  0
LINE
  8
0
 10
93.5908
 20
30.333
 11
93.5879
 21
30.3047
  0
LINE
  8
0
 10
93.5879
 20
30.3047
 11
93.5801
 21
30.25
  0
LINE
  8
0
 10
93.5801
 20
30.25
 11
93.5762
 21
30.2217
  0
LINE
  8
0
 10
93.5762
 20
30.2217
 11
93.5703
 21
30.1943
  0
LINE
  8
0
 10
93.5703
 20
30.1943
 11
93.5654
 21
30.167
  0
LINE
  8
0
 10
93.5654
 20
30.167
 11
93.5586
 21
30.1396
  0
LINE
  8
0
 10
93.5586
 20
30.1396
 11
93.5527
 21
30.1133
  0
LINE
  8
0
 10
93.5527
 20
30.1133
 11
93.5459
 21
30.0859
  0
LINE
  8
0
 10
93.5459
 20
30.0859
 11
93.5381
 21
30.0586
  0
LINE
  8
0
 10
93.5381
 20
30.0586
 11
93.5303
 21
30.0322
  0
LINE
  8
0
 10
93.5303
 20
30.0322
 11
93.5039
 21
29.9531
  0
LINE
  8
0
 10
93.5039
 20
29.9531
 11
93.4941
 21
29.9268
  0
LINE
  8
0
 10
93.4941
 20
29.9268
 11
93.4834
 21
29.9004
  0
LINE
  8
0
 10
93.4834
 20
29.9004
 11
93.4619
 21
29.8496
  0
LINE
  8
0
 10
93.4619
 20
29.8496
 11
93.4385
 21
29.7988
  0
LINE
  8
0
 10
93.4385
 20
29.7988
 11
93.4258
 21
29.7734
  0
LINE
  8
0
 10
93.4258
 20
29.7734
 11
93.4131
 21
29.749
  0
LINE
  8
0
 10
93.4131
 20
29.749
 11
93.3857
 21
29.7002
  0
LINE
  8
0
 10
93.3857
 20
29.7002
 11
93.3711
 21
29.6758
  0
LINE
  8
0
 10
93.3711
 20
29.6758
 11
93.3418
 21
29.6289
  0
LINE
  8
0
 10
93.3418
 20
29.6289
 11
93.3105
 21
29.582
  0
LINE
  8
0
 10
93.3105
 20
29.582
 11
93.2607
 21
29.5146
  0
LINE
  8
0
 10
93.2607
 20
29.5146
 11
93.208
 21
29.4502
  0
LINE
  8
0
 10
93.208
 20
29.4502
 11
93.1895
 21
29.4297
  0
LINE
  8
0
 10
93.1895
 20
29.4297
 11
93.1699
 21
29.4092
  0
LINE
  8
0
 10
93.1699
 20
29.4092
 11
93.1514
 21
29.3887
  0
LINE
  8
0
 10
93.1514
 20
29.3887
 11
93.1318
 21
29.3682
  0
LINE
  8
0
 10
93.1318
 20
29.3682
 11
93.1113
 21
29.3486
  0
LINE
  8
0
 10
93.1113
 20
29.3486
 11
93.0908
 21
29.3301
  0
LINE
  8
0
 10
93.0908
 20
29.3301
 11
93.0703
 21
29.3105
  0
LINE
  8
0
 10
93.0703
 20
29.3105
 11
93.0498
 21
29.292
  0
LINE
  8
0
 10
93.0498
 20
29.292
 11
92.9854
 21
29.2393
  0
LINE
  8
0
 10
92.9854
 20
29.2393
 11
92.918
 21
29.1895
  0
LINE
  8
0
 10
92.918
 20
29.1895
 11
92.8711
 21
29.1582
  0
LINE
  8
0
 10
92.8711
 20
29.1582
 11
92.8242
 21
29.1289
  0
LINE
  8
0
 10
92.8242
 20
29.1289
 11
92.7998
 21
29.1143
  0
LINE
  8
0
 10
92.7998
 20
29.1143
 11
92.751
 21
29.0869
  0
LINE
  8
0
 10
92.751
 20
29.0869
 11
92.7266
 21
29.0742
  0
LINE
  8
0
 10
92.7266
 20
29.0742
 11
92.7012
 21
29.0615
  0
LINE
  8
0
 10
92.7012
 20
29.0615
 11
92.6504
 21
29.0381
  0
LINE
  8
0
 10
92.6504
 20
29.0381
 11
92.5996
 21
29.0166
  0
LINE
  8
0
 10
92.5996
 20
29.0166
 11
92.5732
 21
29.0059
  0
LINE
  8
0
 10
92.5732
 20
29.0059
 11
92.5469
 21
28.9961
  0
LINE
  8
0
 10
92.5469
 20
28.9961
 11
92.4678
 21
28.9697
  0
LINE
  8
0
 10
92.4678
 20
28.9697
 11
92.4414
 21
28.9619
  0
LINE
  8
0
 10
92.4414
 20
28.9619
 11
92.4141
 21
28.9541
  0
LINE
  8
0
 10
92.4141
 20
28.9541
 11
92.3867
 21
28.9473
  0
LINE
  8
0
 10
92.3867
 20
28.9473
 11
92.3604
 21
28.9414
  0
LINE
  8
0
 10
92.3604
 20
28.9414
 11
92.333
 21
28.9346
  0
LINE
  8
0
 10
92.333
 20
28.9346
 11
92.3057
 21
28.9297
  0
LINE
  8
0
 10
92.3057
 20
28.9297
 11
92.2783
 21
28.9238
  0
LINE
  8
0
 10
92.2783
 20
28.9238
 11
92.25
 21
28.9199
  0
LINE
  8
0
 10
92.25
 20
28.9199
 11
92.1953
 21
28.9121
  0
LINE
  8
0
 10
92.1953
 20
28.9121
 11
92.167
 21
28.9092
  0
LINE
  8
0
 10
92.167
 20
28.9092
 11
92.1396
 21
28.9062
  0
LINE
  8
0
 10
92.1396
 20
28.9062
 11
92.1113
 21
28.9043
  0
LINE
  8
0
 10
92.1113
 20
28.9043
 11
92.084
 21
28.9023
  0
LINE
  8
0
 10
92.084
 20
28.9023
 11
92.0283
 21
28.9004
  0
LINE
  8
0
 10
92.0283
 20
28.9004
 11
91.9717
 21
28.9004
  0
ENDSEC
  0
SECTION
  2
OBJECTS
  0
DICTIONARY
  0
ENDSEC
  0
EOF
