  0
SECTION
  2
BLOCKS
  0
ENDSEC
  0
SECTION
  2
ENTITIES
  0
LINE
  8
0
 10
100.95
 20
55
 11
104.968
 21
55
  0
LINE
  8
0
 10
104.968
 20
55
 11
104.985
 21
55.001
  0
LINE
  8
0
 10
104.985
 20
55.001
 11
105.002
 21
55.001
  0
LINE
  8
0
 10
105.002
 20
55.001
 11
105.02
 21
55.002
  0
LINE
  8
0
 10
105.02
 20
55.002
 11
105.072
 21
55.0078
  0
LINE
  8
0
 10
105.072
 20
55.0078
 11
105.089
 21
55.0098
  0
LINE
  8
0
 10
105.089
 20
55.0098
 11
105.124
 21
55.0156
  0
LINE
  8
0
 10
105.124
 20
55.0156
 11
105.141
 21
55.0186
  0
LINE
  8
0
 10
105.141
 20
55.0186
 11
105.158
 21
55.0215
  0
LINE
  8
0
 10
105.158
 20
55.0215
 11
105.175
 21
55.0254
  0
LINE
  8
0
 10
105.175
 20
55.0254
 11
105.192
 21
55.0293
  0
LINE
  8
0
 10
105.192
 20
55.0293
 11
105.259
 21
55.0488
  0
LINE
  8
0
 10
105.259
 20
55.0488
 11
105.309
 21
55.0664
  0
LINE
  8
0
 10
105.309
 20
55.0664
 11
105.324
 21
55.0732
  0
LINE
  8
0
 10
105.324
 20
55.0732
 11
105.341
 21
55.0791
  0
LINE
  8
0
 10
105.341
 20
55.0791
 11
105.356
 21
55.0869
  0
LINE
  8
0
 10
105.356
 20
55.0869
 11
105.373
 21
55.0938
  0
LINE
  8
0
 10
105.373
 20
55.0938
 11
105.42
 21
55.1172
  0
LINE
  8
0
 10
105.42
 20
55.1172
 11
105.435
 21
55.125
  0
LINE
  8
0
 10
105.435
 20
55.125
 11
105.45
 21
55.1338
  0
LINE
  8
0
 10
105.45
 20
55.1338
 11
105.465
 21
55.1426
  0
LINE
  8
0
 10
105.465
 20
55.1426
 11
105.479
 21
55.1523
  0
LINE
  8
0
 10
105.479
 20
55.1523
 11
105.495
 21
55.1611
  0
LINE
  8
0
 10
105.495
 20
55.1611
 11
105.509
 21
55.1709
  0
LINE
  8
0
 10
105.509
 20
55.1709
 11
105.523
 21
55.1807
  0
LINE
  8
0
 10
105.523
 20
55.1807
 11
105.538
 21
55.1914
  0
LINE
  8
0
 10
105.538
 20
55.1914
 11
105.552
 21
55.2012
  0
LINE
  8
0
 10
105.552
 20
55.2012
 11
105.579
 21
55.2227
  0
LINE
  8
0
 10
105.579
 20
55.2227
 11
105.593
 21
55.2344
  0
LINE
  8
0
 10
105.593
 20
55.2344
 11
105.606
 21
55.2451
  0
LINE
  8
0
 10
105.606
 20
55.2451
 11
105.645
 21
55.2803
  0
LINE
  8
0
 10
105.645
 20
55.2803
 11
105.657
 21
55.293
  0
LINE
  8
0
 10
105.657
 20
55.293
 11
105.669
 21
55.3057
  0
LINE
  8
0
 10
105.669
 20
55.3057
 11
105.682
 21
55.3184
  0
LINE
  8
0
 10
105.682
 20
55.3184
 11
105.705
 21
55.3438
  0
LINE
  8
0
 10
105.705
 20
55.3438
 11
105.716
 21
55.3574
  0
LINE
  8
0
 10
105.716
 20
55.3574
 11
105.728
 21
55.3711
  0
LINE
  8
0
 10
105.728
 20
55.3711
 11
105.749
 21
55.3984
  0
LINE
  8
0
 10
105.749
 20
55.3984
 11
105.759
 21
55.4121
  0
LINE
  8
0
 10
105.759
 20
55.4121
 11
105.77
 21
55.4268
  0
LINE
  8
0
 10
105.77
 20
55.4268
 11
105.779
 21
55.4404
  0
LINE
  8
0
 10
105.779
 20
55.4404
 11
105.789
 21
55.4551
  0
LINE
  8
0
 10
105.789
 20
55.4551
 11
105.798
 21
55.4697
  0
LINE
  8
0
 10
105.798
 20
55.4697
 11
105.808
 21
55.4854
  0
LINE
  8
0
 10
105.808
 20
55.4854
 11
105.816
 21
55.5
  0
LINE
  8
0
 10
105.816
 20
55.5
 11
105.824
 21
55.5156
  0
LINE
  8
0
 10
105.824
 20
55.5156
 11
105.833
 21
55.5303
  0
LINE
  8
0
 10
105.833
 20
55.5303
 11
105.856
 21
55.5771
  0
LINE
  8
0
 10
105.856
 20
55.5771
 11
105.863
 21
55.5938
  0
LINE
  8
0
 10
105.863
 20
55.5938
 11
105.877
 21
55.625
  0
LINE
  8
0
 10
105.877
 20
55.625
 11
105.884
 21
55.6416
  0
LINE
  8
0
 10
105.884
 20
55.6416
 11
105.901
 21
55.6914
  0
LINE
  8
0
 10
105.901
 20
55.6914
 11
105.916
 21
55.7412
  0
LINE
  8
0
 10
105.916
 20
55.7412
 11
105.92
 21
55.7578
  0
LINE
  8
0
 10
105.92
 20
55.7578
 11
105.925
 21
55.7754
  0
LINE
  8
0
 10
105.925
 20
55.7754
 11
105.928
 21
55.792
  0
LINE
  8
0
 10
105.928
 20
55.792
 11
105.932
 21
55.8096
  0
LINE
  8
0
 10
105.932
 20
55.8096
 11
105.935
 21
55.8262
  0
LINE
  8
0
 10
105.935
 20
55.8262
 11
105.938
 21
55.8438
  0
LINE
  8
0
 10
105.938
 20
55.8438
 11
105.94
 21
55.8604
  0
LINE
  8
0
 10
105.94
 20
55.8604
 11
105.946
 21
55.9131
  0
LINE
  8
0
 10
105.946
 20
55.9131
 11
105.947
 21
55.9307
  0
LINE
  8
0
 10
105.947
 20
55.9307
 11
105.948
 21
55.9473
  0
LINE
  8
0
 10
105.948
 20
55.9473
 11
105.95
 21
55.9824
  0
LINE
  8
0
 10
105.95
 20
55.9824
 11
105.95
 21
64.0176
  0
LINE
  8
0
 10
105.95
 20
64.0176
 11
105.948
 21
64.0527
  0
LINE
  8
0
 10
105.948
 20
64.0527
 11
105.947
 21
64.0693
  0
LINE
  8
0
 10
105.947
 20
64.0693
 11
105.946
 21
64.0869
  0
LINE
  8
0
 10
105.946
 20
64.0869
 11
105.94
 21
64.1396
  0
LINE
  8
0
 10
105.94
 20
64.1396
 11
105.938
 21
64.1562
  0
LINE
  8
0
 10
105.938
 20
64.1562
 11
105.935
 21
64.1738
  0
LINE
  8
0
 10
105.935
 20
64.1738
 11
105.932
 21
64.1904
  0
LINE
  8
0
 10
105.932
 20
64.1904
 11
105.928
 21
64.208
  0
LINE
  8
0
 10
105.928
 20
64.208
 11
105.925
 21
64.2246
  0
LINE
  8
0
 10
105.925
 20
64.2246
 11
105.92
 21
64.2422
  0
LINE
  8
0
 10
105.92
 20
64.2422
 11
105.916
 21
64.2588
  0
LINE
  8
0
 10
105.916
 20
64.2588
 11
105.901
 21
64.3086
  0
LINE
  8
0
 10
105.901
 20
64.3086
 11
105.884
 21
64.3584
  0
LINE
  8
0
 10
105.884
 20
64.3584
 11
105.877
 21
64.375
  0
LINE
  8
0
 10
105.877
 20
64.375
 11
105.863
 21
64.4062
  0
LINE
  8
0
 10
105.863
 20
64.4062
 11
105.856
 21
64.4229
  0
LINE
  8
0
 10
105.856
 20
64.4229
 11
105.833
 21
64.4697
  0
LINE
  8
0
 10
105.833
 20
64.4697
 11
105.824
 21
64.4844
  0
LINE
  8
0
 10
105.824
 20
64.4844
 11
105.816
 21
64.5
  0
LINE
  8
0
 10
105.816
 20
64.5
 11
105.808
 21
64.5146
  0
LINE
  8
0
 10
105.808
 20
64.5146
 11
105.798
 21
64.5303
  0
LINE
  8
0
 10
105.798
 20
64.5303
 11
105.789
 21
64.5449
  0
LINE
  8
0
 10
105.789
 20
64.5449
 11
105.779
 21
64.5596
  0
LINE
  8
0
 10
105.779
 20
64.5596
 11
105.77
 21
64.5732
  0
LINE
  8
0
 10
105.77
 20
64.5732
 11
105.759
 21
64.5879
  0
LINE
  8
0
 10
105.759
 20
64.5879
 11
105.749
 21
64.6016
  0
LINE
  8
0
 10
105.749
 20
64.6016
 11
105.728
 21
64.6289
  0
LINE
  8
0
 10
105.728
 20
64.6289
 11
105.716
 21
64.6426
  0
LINE
  8
0
 10
105.716
 20
64.6426
 11
105.705
 21
64.6562
  0
LINE
  8
0
 10
105.705
 20
64.6562
 11
105.682
 21
64.6816
  0
LINE
  8
0
 10
105.682
 20
64.6816
 11
105.669
 21
64.6943
  0
LINE
  8
0
 10
105.669
 20
64.6943
 11
105.657
 21
64.707
  0
LINE
  8
0
 10
105.657
 20
64.707
 11
105.645
 21
64.7197
  0
LINE
  8
0
 10
105.645
 20
64.7197
 11
105.606
 21
64.7549
  0
LINE
  8
0
 10
105.606
 20
64.7549
 11
105.593
 21
64.7656
  0
LINE
  8
0
 10
105.593
 20
64.7656
 11
105.579
 21
64.7773
  0
LINE
  8
0
 10
105.579
 20
64.7773
 11
105.552
 21
64.7988
  0
LINE
  8
0
 10
105.552
 20
64.7988
 11
105.538
 21
64.8086
  0
LINE
  8
0
 10
105.538
 20
64.8086
 11
105.523
 21
64.8193
  0
LINE
  8
0
 10
105.523
 20
64.8193
 11
105.509
 21
64.8291
  0
LINE
  8
0
 10
105.509
 20
64.8291
 11
105.495
 21
64.8389
  0
LINE
  8
0
 10
105.495
 20
64.8389
 11
105.479
 21
64.8477
  0
LINE
  8
0
 10
105.479
 20
64.8477
 11
105.465
 21
64.8574
  0
LINE
  8
0
 10
105.465
 20
64.8574
 11
105.45
 21
64.8662
  0
LINE
  8
0
 10
105.45
 20
64.8662
 11
105.435
 21
64.875
  0
LINE
  8
0
 10
105.435
 20
64.875
 11
105.42
 21
64.8828
  0
LINE
  8
0
 10
105.42
 20
64.8828
 11
105.373
 21
64.9062
  0
LINE
  8
0
 10
105.373
 20
64.9062
 11
105.356
 21
64.9131
  0
LINE
  8
0
 10
105.356
 20
64.9131
 11
105.341
 21
64.9209
  0
LINE
  8
0
 10
105.341
 20
64.9209
 11
105.324
 21
64.9268
  0
LINE
  8
0
 10
105.324
 20
64.9268
 11
105.309
 21
64.9336
  0
LINE
  8
0
 10
105.309
 20
64.9336
 11
105.259
 21
64.9512
  0
LINE
  8
0
 10
105.259
 20
64.9512
 11
105.192
 21
64.9707
  0
LINE
  8
0
 10
105.192
 20
64.9707
 11
105.175
 21
64.9746
  0
LINE
  8
0
 10
105.175
 20
64.9746
 11
105.158
 21
64.9785
  0
LINE
  8
0
 10
105.158
 20
64.9785
 11
105.141
 21
64.9814
  0
LINE
  8
0
 10
105.141
 20
64.9814
 11
105.124
 21
64.9844
  0
LINE
  8
0
 10
105.124
 20
64.9844
 11
105.089
 21
64.9902
  0
LINE
  8
0
 10
105.089
 20
64.9902
 11
105.072
 21
64.9922
  0
LINE
  8
0
 10
105.072
 20
64.9922
 11
105.02
 21
64.998
  0
LINE
  8
0
 10
105.02
 20
64.998
 11
105.002
 21
64.999
  0
LINE
  8
0
 10
105.002
 20
64.999
 11
104.985
 21
64.999
  0
LINE
  8
0
 10
104.985
 20
64.999
 11
104.968
 21
65
  0
LINE
  8
0
 10
104.968
 20
65
 11
100.95
 21
65
  0
LINE
  8
0
 10
100.95
 20
65
 11
100.95
 21
125
  0
LINE
  8
0
 10
100.95
 20
125
 11
104.968
 21
125
  0
LINE
  8
0
 10
104.968
 20
125
 11
104.985
 21
125.001
  0
LINE
  8
0
 10
104.985
 20
125.001
 11
105.002
 21
125.001
  0
LINE
  8
0
 10
105.002
 20
125.001
 11
105.02
 21
125.002
  0
LINE
  8
0
 10
105.02
 20
125.002
 11
105.072
 21
125.008
  0
LINE
  8
0
 10
105.072
 20
125.008
 11
105.089
 21
125.01
  0
LINE
  8
0
 10
105.089
 20
125.01
 11
105.124
 21
125.016
  0
LINE
  8
0
 10
105.124
 20
125.016
 11
105.141
 21
125.019
  0
LINE
  8
0
 10
105.141
 20
125.019
 11
105.158
 21
125.021
  0
LINE
  8
0
 10
105.158
 20
125.021
 11
105.175
 21
125.025
  0
LINE
  8
0
 10
105.175
 20
125.025
 11
105.192
 21
125.029
  0
LINE
  8
0
 10
105.192
 20
125.029
 11
105.259
 21
125.049
  0
LINE
  8
0
 10
105.259
 20
125.049
 11
105.309
 21
125.066
  0
LINE
  8
0
 10
105.309
 20
125.066
 11
105.324
 21
125.073
  0
LINE
  8
0
 10
105.324
 20
125.073
 11
105.341
 21
125.079
  0
LINE
  8
0
 10
105.341
 20
125.079
 11
105.356
 21
125.087
  0
LINE
  8
0
 10
105.356
 20
125.087
 11
105.373
 21
125.094
  0
LINE
  8
0
 10
105.373
 20
125.094
 11
105.42
 21
125.117
  0
LINE
  8
0
 10
105.42
 20
125.117
 11
105.435
 21
125.125
  0
LINE
  8
0
 10
105.435
 20
125.125
 11
105.45
 21
125.134
  0
LINE
  8
0
 10
105.45
 20
125.134
 11
105.465
 21
125.143
  0
LINE
  8
0
 10
105.465
 20
125.143
 11
105.479
 21
125.152
  0
LINE
  8
0
 10
105.479
 20
125.152
 11
105.495
 21
125.161
  0
LINE
  8
0
 10
105.495
 20
125.161
 11
105.509
 21
125.171
  0
LINE
  8
0
 10
105.509
 20
125.171
 11
105.523
 21
125.181
  0
LINE
  8
0
 10
105.523
 20
125.181
 11
105.538
 21
125.191
  0
LINE
  8
0
 10
105.538
 20
125.191
 11
105.552
 21
125.201
  0
LINE
  8
0
 10
105.552
 20
125.201
 11
105.579
 21
125.223
  0
LINE
  8
0
 10
105.579
 20
125.223
 11
105.593
 21
125.234
  0
LINE
  8
0
 10
105.593
 20
125.234
 11
105.606
 21
125.245
  0
LINE
  8
0
 10
105.606
 20
125.245
 11
105.645
 21
125.28
  0
LINE
  8
0
 10
105.645
 20
125.28
 11
105.657
 21
125.293
  0
LINE
  8
0
 10
105.657
 20
125.293
 11
105.669
 21
125.306
  0
LINE
  8
0
 10
105.669
 20
125.306
 11
105.682
 21
125.318
  0
LINE
  8
0
 10
105.682
 20
125.318
 11
105.705
 21
125.344
  0
LINE
  8
0
 10
105.705
 20
125.344
 11
105.716
 21
125.357
  0
LINE
  8
0
 10
105.716
 20
125.357
 11
105.728
 21
125.371
  0
LINE
  8
0
 10
105.728
 20
125.371
 11
105.749
 21
125.398
  0
LINE
  8
0
 10
105.749
 20
125.398
 11
105.759
 21
125.412
  0
LINE
  8
0
 10
105.759
 20
125.412
 11
105.77
 21
125.427
  0
LINE
  8
0
 10
105.77
 20
125.427
 11
105.779
 21
125.44
  0
LINE
  8
0
 10
105.779
 20
125.44
 11
105.789
 21
125.455
  0
LINE
  8
0
 10
105.789
 20
125.455
 11
105.798
 21
125.47
  0
LINE
  8
0
 10
105.798
 20
125.47
 11
105.808
 21
125.485
  0
LINE
  8
0
 10
105.808
 20
125.485
 11
105.816
 21
125.5
  0
LINE
  8
0
 10
105.816
 20
125.5
 11
105.824
 21
125.516
  0
LINE
  8
0
 10
105.824
 20
125.516
 11
105.833
 21
125.53
  0
LINE
  8
0
 10
105.833
 20
125.53
 11
105.856
 21
125.577
  0
LINE
  8
0
 10
105.856
 20
125.577
 11
105.863
 21
125.594
  0
LINE
  8
0
 10
105.863
 20
125.594
 11
105.877
 21
125.625
  0
LINE
  8
0
 10
105.877
 20
125.625
 11
105.884
 21
125.642
  0
LINE
  8
0
 10
105.884
 20
125.642
 11
105.901
 21
125.691
  0
LINE
  8
0
 10
105.901
 20
125.691
 11
105.916
 21
125.741
  0
LINE
  8
0
 10
105.916
 20
125.741
 11
105.92
 21
125.758
  0
LINE
  8
0
 10
105.92
 20
125.758
 11
105.925
 21
125.775
  0
LINE
  8
0
 10
105.925
 20
125.775
 11
105.928
 21
125.792
  0
LINE
  8
0
 10
105.928
 20
125.792
 11
105.932
 21
125.81
  0
LINE
  8
0
 10
105.932
 20
125.81
 11
105.935
 21
125.826
  0
LINE
  8
0
 10
105.935
 20
125.826
 11
105.938
 21
125.844
  0
LINE
  8
0
 10
105.938
 20
125.844
 11
105.94
 21
125.86
  0
LINE
  8
0
 10
105.94
 20
125.86
 11
105.946
 21
125.913
  0
LINE
  8
0
 10
105.946
 20
125.913
 11
105.947
 21
125.931
  0
LINE
  8
0
 10
105.947
 20
125.931
 11
105.948
 21
125.947
  0
LINE
  8
0
 10
105.948
 20
125.947
 11
105.95
 21
125.982
  0
LINE
  8
0
 10
105.95
 20
125.982
 11
105.95
 21
134.018
  0
LINE
  8
0
 10
105.95
 20
134.018
 11
105.948
 21
134.053
  0
LINE
  8
0
 10
105.948
 20
134.053
 11
105.947
 21
134.069
  0
LINE
  8
0
 10
105.947
 20
134.069
 11
105.946
 21
134.087
  0
LINE
  8
0
 10
105.946
 20
134.087
 11
105.94
 21
134.14
  0
LINE
  8
0
 10
105.94
 20
134.14
 11
105.938
 21
134.156
  0
LINE
  8
0
 10
105.938
 20
134.156
 11
105.935
 21
134.174
  0
LINE
  8
0
 10
105.935
 20
134.174
 11
105.932
 21
134.19
  0
LINE
  8
0
 10
105.932
 20
134.19
 11
105.928
 21
134.208
  0
LINE
  8
0
 10
105.928
 20
134.208
 11
105.925
 21
134.225
  0
LINE
  8
0
 10
105.925
 20
134.225
 11
105.92
 21
134.242
  0
LINE
  8
0
 10
105.92
 20
134.242
 11
105.916
 21
134.259
  0
LINE
  8
0
 10
105.916
 20
134.259
 11
105.901
 21
134.309
  0
LINE
  8
0
 10
105.901
 20
134.309
 11
105.884
 21
134.358
  0
LINE
  8
0
 10
105.884
 20
134.358
 11
105.877
 21
134.375
  0
LINE
  8
0
 10
105.877
 20
134.375
 11
105.863
 21
134.406
  0
LINE
  8
0
 10
105.863
 20
134.406
 11
105.856
 21
134.423
  0
LINE
  8
0
 10
105.856
 20
134.423
 11
105.833
 21
134.47
  0
LINE
  8
0
 10
105.833
 20
134.47
 11
105.824
 21
134.484
  0
LINE
  8
0
 10
105.824
 20
134.484
 11
105.816
 21
134.5
  0
LINE
  8
0
 10
105.816
 20
134.5
 11
105.808
 21
134.515
  0
LINE
  8
0
 10
105.808
 20
134.515
 11
105.798
 21
134.53
  0
LINE
  8
0
 10
105.798
 20
134.53
 11
105.789
 21
134.545
  0
LINE
  8
0
 10
105.789
 20
134.545
 11
105.779
 21
134.56
  0
LINE
  8
0
 10
105.779
 20
134.56
 11
105.77
 21
134.573
  0
LINE
  8
0
 10
105.77
 20
134.573
 11
105.759
 21
134.588
  0
LINE
  8
0
 10
105.759
 20
134.588
 11
105.749
 21
134.602
  0
LINE
  8
0
 10
105.749
 20
134.602
 11
105.728
 21
134.629
  0
LINE
  8
0
 10
105.728
 20
134.629
 11
105.716
 21
134.643
  0
LINE
  8
0
 10
105.716
 20
134.643
 11
105.705
 21
134.656
  0
LINE
  8
0
 10
105.705
 20
134.656
 11
105.682
 21
134.682
  0
LINE
  8
0
 10
105.682
 20
134.682
 11
105.669
 21
134.694
  0
LINE
  8
0
 10
105.669
 20
134.694
 11
105.657
 21
134.707
  0
LINE
  8
0
 10
105.657
 20
134.707
 11
105.645
 21
134.72
  0
LINE
  8
0
 10
105.645
 20
134.72
 11
105.606
 21
134.755
  0
LINE
  8
0
 10
105.606
 20
134.755
 11
105.593
 21
134.766
  0
LINE
  8
0
 10
105.593
 20
134.766
 11
105.579
 21
134.777
  0
LINE
  8
0
 10
105.579
 20
134.777
 11
105.552
 21
134.799
  0
LINE
  8
0
 10
105.552
 20
134.799
 11
105.538
 21
134.809
  0
LINE
  8
0
 10
105.538
 20
134.809
 11
105.523
 21
134.819
  0
LINE
  8
0
 10
105.523
 20
134.819
 11
105.509
 21
134.829
  0
LINE
  8
0
 10
105.509
 20
134.829
 11
105.495
 21
134.839
  0
LINE
  8
0
 10
105.495
 20
134.839
 11
105.479
 21
134.848
  0
LINE
  8
0
 10
105.479
 20
134.848
 11
105.465
 21
134.857
  0
LINE
  8
0
 10
105.465
 20
134.857
 11
105.45
 21
134.866
  0
LINE
  8
0
 10
105.45
 20
134.866
 11
105.435
 21
134.875
  0
LINE
  8
0
 10
105.435
 20
134.875
 11
105.42
 21
134.883
  0
LINE
  8
0
 10
105.42
 20
134.883
 11
105.373
 21
134.906
  0
LINE
  8
0
 10
105.373
 20
134.906
 11
105.356
 21
134.913
  0
LINE
  8
0
 10
105.356
 20
134.913
 11
105.341
 21
134.921
  0
LINE
  8
0
 10
105.341
 20
134.921
 11
105.324
 21
134.927
  0
LINE
  8
0
 10
105.324
 20
134.927
 11
105.309
 21
134.934
  0
LINE
  8
0
 10
105.309
 20
134.934
 11
105.259
 21
134.951
  0
LINE
  8
0
 10
105.259
 20
134.951
 11
105.192
 21
134.971
  0
LINE
  8
0
 10
105.192
 20
134.971
 11
105.175
 21
134.975
  0
LINE
  8
0
 10
105.175
 20
134.975
 11
105.158
 21
134.979
  0
LINE
  8
0
 10
105.158
 20
134.979
 11
105.141
 21
134.981
  0
LINE
  8
0
 10
105.141
 20
134.981
 11
105.124
 21
134.984
  0
LINE
  8
0
 10
105.124
 20
134.984
 11
105.089
 21
134.99
  0
LINE
  8
0
 10
105.089
 20
134.99
 11
105.072
 21
134.992
  0
LINE
  8
0
 10
105.072
 20
134.992
 11
105.02
 21
134.998
  0
LINE
  8
0
 10
105.02
 20
134.998
 11
105.002
 21
134.999
  0
LINE
  8
0
 10
105.002
 20
134.999
 11
104.985
 21
134.999
  0
LINE
  8
0
 10
104.985
 20
134.999
 11
104.968
 21
135
  0
LINE
  8
0
 10
104.968
 20
135
 11
80.5996
 21
135
  0
LINE
  8
0
 10
80.5996
 20
135
 11
80.5996
 21
105
  0
LINE
  8
0
 10
80.5996
 20
105
 11
50.5996
 21
105
  0
LINE
  8
0
 10
50.5996
 20
105
 11
50.5996
 21
135
  0
LINE
  8
0
 10
50.5996
 20
135
 11
-4.01758
 21
135
  0
LINE
  8
0
 10
-4.01758
 20
135
 11
-4.03516
 21
134.999
  0
LINE
  8
0
 10
-4.03516
 20
134.999
 11
-4.05273
 21
134.999
  0
LINE
  8
0
 10
-4.05273
 20
134.999
 11
-4.06934
 21
134.998
  0
LINE
  8
0
 10
-4.06934
 20
134.998
 11
-4.13965
 21
134.99
  0
LINE
  8
0
 10
-4.13965
 20
134.99
 11
-4.15625
 21
134.987
  0
LINE
  8
0
 10
-4.15625
 20
134.987
 11
-4.17383
 21
134.984
  0
LINE
  8
0
 10
-4.17383
 20
134.984
 11
-4.19043
 21
134.981
  0
LINE
  8
0
 10
-4.19043
 20
134.981
 11
-4.20801
 21
134.979
  0
LINE
  8
0
 10
-4.20801
 20
134.979
 11
-4.22461
 21
134.975
  0
LINE
  8
0
 10
-4.22461
 20
134.975
 11
-4.24219
 21
134.971
  0
LINE
  8
0
 10
-4.24219
 20
134.971
 11
-4.30859
 21
134.951
  0
LINE
  8
0
 10
-4.30859
 20
134.951
 11
-4.3584
 21
134.934
  0
LINE
  8
0
 10
-4.3584
 20
134.934
 11
-4.375
 21
134.927
  0
LINE
  8
0
 10
-4.375
 20
134.927
 11
-4.39062
 21
134.921
  0
LINE
  8
0
 10
-4.39062
 20
134.921
 11
-4.40625
 21
134.913
  0
LINE
  8
0
 10
-4.40625
 20
134.913
 11
-4.42285
 21
134.906
  0
LINE
  8
0
 10
-4.42285
 20
134.906
 11
-4.46973
 21
134.883
  0
LINE
  8
0
 10
-4.46973
 20
134.883
 11
-4.48438
 21
134.875
  0
LINE
  8
0
 10
-4.48438
 20
134.875
 11
-4.5
 21
134.866
  0
LINE
  8
0
 10
-4.5
 20
134.866
 11
-4.51465
 21
134.857
  0
LINE
  8
0
 10
-4.51465
 20
134.857
 11
-4.53027
 21
134.848
  0
LINE
  8
0
 10
-4.53027
 20
134.848
 11
-4.54492
 21
134.839
  0
LINE
  8
0
 10
-4.54492
 20
134.839
 11
-4.55957
 21
134.829
  0
LINE
  8
0
 10
-4.55957
 20
134.829
 11
-4.57324
 21
134.819
  0
LINE
  8
0
 10
-4.57324
 20
134.819
 11
-4.58789
 21
134.809
  0
LINE
  8
0
 10
-4.58789
 20
134.809
 11
-4.60156
 21
134.799
  0
LINE
  8
0
 10
-4.60156
 20
134.799
 11
-4.62891
 21
134.777
  0
LINE
  8
0
 10
-4.62891
 20
134.777
 11
-4.64258
 21
134.766
  0
LINE
  8
0
 10
-4.64258
 20
134.766
 11
-4.65625
 21
134.755
  0
LINE
  8
0
 10
-4.65625
 20
134.755
 11
-4.69434
 21
134.72
  0
LINE
  8
0
 10
-4.69434
 20
134.72
 11
-4.71973
 21
134.694
  0
LINE
  8
0
 10
-4.71973
 20
134.694
 11
-4.75488
 21
134.656
  0
LINE
  8
0
 10
-4.75488
 20
134.656
 11
-4.76562
 21
134.643
  0
LINE
  8
0
 10
-4.76562
 20
134.643
 11
-4.77734
 21
134.629
  0
LINE
  8
0
 10
-4.77734
 20
134.629
 11
-4.79883
 21
134.602
  0
LINE
  8
0
 10
-4.79883
 20
134.602
 11
-4.80859
 21
134.588
  0
LINE
  8
0
 10
-4.80859
 20
134.588
 11
-4.81934
 21
134.573
  0
LINE
  8
0
 10
-4.81934
 20
134.573
 11
-4.8291
 21
134.56
  0
LINE
  8
0
 10
-4.8291
 20
134.56
 11
-4.83887
 21
134.545
  0
LINE
  8
0
 10
-4.83887
 20
134.545
 11
-4.84766
 21
134.53
  0
LINE
  8
0
 10
-4.84766
 20
134.53
 11
-4.85742
 21
134.515
  0
LINE
  8
0
 10
-4.85742
 20
134.515
 11
-4.86621
 21
134.5
  0
LINE
  8
0
 10
-4.86621
 20
134.5
 11
-4.875
 21
134.484
  0
LINE
  8
0
 10
-4.875
 20
134.484
 11
-4.88281
 21
134.47
  0
LINE
  8
0
 10
-4.88281
 20
134.47
 11
-4.90625
 21
134.423
  0
LINE
  8
0
 10
-4.90625
 20
134.423
 11
-4.91309
 21
134.406
  0
LINE
  8
0
 10
-4.91309
 20
134.406
 11
-4.9209
 21
134.391
  0
LINE
  8
0
 10
-4.9209
 20
134.391
 11
-4.92676
 21
134.375
  0
LINE
  8
0
 10
-4.92676
 20
134.375
 11
-4.93359
 21
134.358
  0
LINE
  8
0
 10
-4.93359
 20
134.358
 11
-4.95117
 21
134.309
  0
LINE
  8
0
 10
-4.95117
 20
134.309
 11
-4.9707
 21
134.242
  0
LINE
  8
0
 10
-4.9707
 20
134.242
 11
-4.97461
 21
134.225
  0
LINE
  8
0
 10
-4.97461
 20
134.225
 11
-4.97852
 21
134.208
  0
LINE
  8
0
 10
-4.97852
 20
134.208
 11
-4.98145
 21
134.19
  0
LINE
  8
0
 10
-4.98145
 20
134.19
 11
-4.98438
 21
134.174
  0
LINE
  8
0
 10
-4.98438
 20
134.174
 11
-4.9873
 21
134.156
  0
LINE
  8
0
 10
-4.9873
 20
134.156
 11
-4.99023
 21
134.14
  0
LINE
  8
0
 10
-4.99023
 20
134.14
 11
-4.99805
 21
134.069
  0
LINE
  8
0
 10
-4.99805
 20
134.069
 11
-4.99902
 21
134.053
  0
LINE
  8
0
 10
-4.99902
 20
134.053
 11
-4.99902
 21
134.035
  0
LINE
  8
0
 10
-4.99902
 20
134.035
 11
-5
 21
134.018
  0
LINE
  8
0
 10
-5
 20
134.018
 11
-5
 21
125.982
  0
LINE
  8
0
 10
-5
 20
125.982
 11
-4.99902
 21
125.965
  0
LINE
  8
0
 10
-4.99902
 20
125.965
 11
-4.99902
 21
125.947
  0
LINE
  8
0
 10
-4.99902
 20
125.947
 11
-4.99805
 21
125.931
  0
LINE
  8
0
 10
-4.99805
 20
125.931
 11
-4.99023
 21
125.86
  0
LINE
  8
0
 10
-4.99023
 20
125.86
 11
-4.9873
 21
125.844
  0
LINE
  8
0
 10
-4.9873
 20
125.844
 11
-4.98438
 21
125.826
  0
LINE
  8
0
 10
-4.98438
 20
125.826
 11
-4.98145
 21
125.81
  0
LINE
  8
0
 10
-4.98145
 20
125.81
 11
-4.97852
 21
125.792
  0
LINE
  8
0
 10
-4.97852
 20
125.792
 11
-4.97461
 21
125.775
  0
LINE
  8
0
 10
-4.97461
 20
125.775
 11
-4.9707
 21
125.758
  0
LINE
  8
0
 10
-4.9707
 20
125.758
 11
-4.95117
 21
125.691
  0
LINE
  8
0
 10
-4.95117
 20
125.691
 11
-4.93359
 21
125.642
  0
LINE
  8
0
 10
-4.93359
 20
125.642
 11
-4.92676
 21
125.625
  0
LINE
  8
0
 10
-4.92676
 20
125.625
 11
-4.9209
 21
125.609
  0
LINE
  8
0
 10
-4.9209
 20
125.609
 11
-4.91309
 21
125.594
  0
LINE
  8
0
 10
-4.91309
 20
125.594
 11
-4.90625
 21
125.577
  0
LINE
  8
0
 10
-4.90625
 20
125.577
 11
-4.88281
 21
125.53
  0
LINE
  8
0
 10
-4.88281
 20
125.53
 11
-4.875
 21
125.516
  0
LINE
  8
0
 10
-4.875
 20
125.516
 11
-4.86621
 21
125.5
  0
LINE
  8
0
 10
-4.86621
 20
125.5
 11
-4.85742
 21
125.485
  0
LINE
  8
0
 10
-4.85742
 20
125.485
 11
-4.84766
 21
125.47
  0
LINE
  8
0
 10
-4.84766
 20
125.47
 11
-4.83887
 21
125.455
  0
LINE
  8
0
 10
-4.83887
 20
125.455
 11
-4.8291
 21
125.44
  0
LINE
  8
0
 10
-4.8291
 20
125.44
 11
-4.81934
 21
125.427
  0
LINE
  8
0
 10
-4.81934
 20
125.427
 11
-4.80859
 21
125.412
  0
LINE
  8
0
 10
-4.80859
 20
125.412
 11
-4.79883
 21
125.398
  0
LINE
  8
0
 10
-4.79883
 20
125.398
 11
-4.77734
 21
125.371
  0
LINE
  8
0
 10
-4.77734
 20
125.371
 11
-4.76562
 21
125.357
  0
LINE
  8
0
 10
-4.76562
 20
125.357
 11
-4.75488
 21
125.344
  0
LINE
  8
0
 10
-4.75488
 20
125.344
 11
-4.71973
 21
125.306
  0
LINE
  8
0
 10
-4.71973
 20
125.306
 11
-4.69434
 21
125.28
  0
LINE
  8
0
 10
-4.69434
 20
125.28
 11
-4.65625
 21
125.245
  0
LINE
  8
0
 10
-4.65625
 20
125.245
 11
-4.64258
 21
125.234
  0
LINE
  8
0
 10
-4.64258
 20
125.234
 11
-4.62891
 21
125.223
  0
LINE
  8
0
 10
-4.62891
 20
125.223
 11
-4.60156
 21
125.201
  0
LINE
  8
0
 10
-4.60156
 20
125.201
 11
-4.58789
 21
125.191
  0
LINE
  8
0
 10
-4.58789
 20
125.191
 11
-4.57324
 21
125.181
  0
LINE
  8
0
 10
-4.57324
 20
125.181
 11
-4.55957
 21
125.171
  0
LINE
  8
0
 10
-4.55957
 20
125.171
 11
-4.54492
 21
125.161
  0
LINE
  8
0
 10
-4.54492
 20
125.161
 11
-4.53027
 21
125.152
  0
LINE
  8
0
 10
-4.53027
 20
125.152
 11
-4.51465
 21
125.143
  0
LINE
  8
0
 10
-4.51465
 20
125.143
 11
-4.5
 21
125.134
  0
LINE
  8
0
 10
-4.5
 20
125.134
 11
-4.48438
 21
125.125
  0
LINE
  8
0
 10
-4.48438
 20
125.125
 11
-4.46973
 21
125.117
  0
LINE
  8
0
 10
-4.46973
 20
125.117
 11
-4.42285
 21
125.094
  0
LINE
  8
0
 10
-4.42285
 20
125.094
 11
-4.40625
 21
125.087
  0
LINE
  8
0
 10
-4.40625
 20
125.087
 11
-4.39062
 21
125.079
  0
LINE
  8
0
 10
-4.39062
 20
125.079
 11
-4.375
 21
125.073
  0
LINE
  8
0
 10
-4.375
 20
125.073
 11
-4.3584
 21
125.066
  0
LINE
  8
0
 10
-4.3584
 20
125.066
 11
-4.30859
 21
125.049
  0
LINE
  8
0
 10
-4.30859
 20
125.049
 11
-4.24219
 21
125.029
  0
LINE
  8
0
 10
-4.24219
 20
125.029
 11
-4.22461
 21
125.025
  0
LINE
  8
0
 10
-4.22461
 20
125.025
 11
-4.20801
 21
125.021
  0
LINE
  8
0
 10
-4.20801
 20
125.021
 11
-4.19043
 21
125.019
  0
LINE
  8
0
 10
-4.19043
 20
125.019
 11
-4.17383
 21
125.016
  0
LINE
  8
0
 10
-4.17383
 20
125.016
 11
-4.15625
 21
125.013
  0
LINE
  8
0
 10
-4.15625
 20
125.013
 11
-4.13965
 21
125.01
  0
LINE
  8
0
 10
-4.13965
 20
125.01
 11
-4.06934
 21
125.002
  0
LINE
  8
0
 10
-4.06934
 20
125.002
 11
-4.05273
 21
125.001
  0
LINE
  8
0
 10
-4.05273
 20
125.001
 11
-4.03516
 21
125.001
  0
LINE
  8
0
 10
-4.03516
 20
125.001
 11
-4.01758
 21
125
  0
LINE
  8
0
 10
-4.01758
 20
125
 11
0
 21
125
  0
LINE
  8
0
 10
0
 20
125
 11
0
 21
97.2832
  0
LINE
  8
0
 10
0
 20
97.2832
 11
3
 21
97.2832
  0
LINE
  8
0
 10
3
 20
97.2832
 11
3
 21
87.2832
  0
LINE
  8
0
 10
3
 20
87.2832
 11
0
 21
87.2832
  0
LINE
  8
0
 10
0
 20
87.2832
 11
0
 21
65
  0
LINE
  8
0
 10
0
 20
65
 11
-4.01758
 21
65
  0
LINE
  8
0
 10
-4.01758
 20
65
 11
-4.03516
 21
64.999
  0
LINE
  8
0
 10
-4.03516
 20
64.999
 11
-4.05273
 21
64.999
  0
LINE
  8
0
 10
-4.05273
 20
64.999
 11
-4.06934
 21
64.998
  0
LINE
  8
0
 10
-4.06934
 20
64.998
 11
-4.13965
 21
64.9902
  0
LINE
  8
0
 10
-4.13965
 20
64.9902
 11
-4.15625
 21
64.9873
  0
LINE
  8
0
 10
-4.15625
 20
64.9873
 11
-4.17383
 21
64.9844
  0
LINE
  8
0
 10
-4.17383
 20
64.9844
 11
-4.19043
 21
64.9814
  0
LINE
  8
0
 10
-4.19043
 20
64.9814
 11
-4.20801
 21
64.9785
  0
LINE
  8
0
 10
-4.20801
 20
64.9785
 11
-4.22461
 21
64.9746
  0
LINE
  8
0
 10
-4.22461
 20
64.9746
 11
-4.24219
 21
64.9707
  0
LINE
  8
0
 10
-4.24219
 20
64.9707
 11
-4.30859
 21
64.9512
  0
LINE
  8
0
 10
-4.30859
 20
64.9512
 11
-4.3584
 21
64.9336
  0
LINE
  8
0
 10
-4.3584
 20
64.9336
 11
-4.375
 21
64.9268
  0
LINE
  8
0
 10
-4.375
 20
64.9268
 11
-4.39062
 21
64.9209
  0
LINE
  8
0
 10
-4.39062
 20
64.9209
 11
-4.40625
 21
64.9131
  0
LINE
  8
0
 10
-4.40625
 20
64.9131
 11
-4.42285
 21
64.9062
  0
LINE
  8
0
 10
-4.42285
 20
64.9062
 11
-4.46973
 21
64.8828
  0
LINE
  8
0
 10
-4.46973
 20
64.8828
 11
-4.48438
 21
64.875
  0
LINE
  8
0
 10
-4.48438
 20
64.875
 11
-4.5
 21
64.8662
  0
LINE
  8
0
 10
-4.5
 20
64.8662
 11
-4.51465
 21
64.8574
  0
LINE
  8
0
 10
-4.51465
 20
64.8574
 11
-4.53027
 21
64.8477
  0
LINE
  8
0
 10
-4.53027
 20
64.8477
 11
-4.54492
 21
64.8389
  0
LINE
  8
0
 10
-4.54492
 20
64.8389
 11
-4.55957
 21
64.8291
  0
LINE
  8
0
 10
-4.55957
 20
64.8291
 11
-4.57324
 21
64.8193
  0
LINE
  8
0
 10
-4.57324
 20
64.8193
 11
-4.58789
 21
64.8086
  0
LINE
  8
0
 10
-4.58789
 20
64.8086
 11
-4.60156
 21
64.7988
  0
LINE
  8
0
 10
-4.60156
 20
64.7988
 11
-4.62891
 21
64.7773
  0
LINE
  8
0
 10
-4.62891
 20
64.7773
 11
-4.64258
 21
64.7656
  0
LINE
  8
0
 10
-4.64258
 20
64.7656
 11
-4.65625
 21
64.7549
  0
LINE
  8
0
 10
-4.65625
 20
64.7549
 11
-4.69434
 21
64.7197
  0
LINE
  8
0
 10
-4.69434
 20
64.7197
 11
-4.71973
 21
64.6943
  0
LINE
  8
0
 10
-4.71973
 20
64.6943
 11
-4.75488
 21
64.6562
  0
LINE
  8
0
 10
-4.75488
 20
64.6562
 11
-4.76562
 21
64.6426
  0
LINE
  8
0
 10
-4.76562
 20
64.6426
 11
-4.77734
 21
64.6289
  0
LINE
  8
0
 10
-4.77734
 20
64.6289
 11
-4.79883
 21
64.6016
  0
LINE
  8
0
 10
-4.79883
 20
64.6016
 11
-4.80859
 21
64.5879
  0
LINE
  8
0
 10
-4.80859
 20
64.5879
 11
-4.81934
 21
64.5732
  0
LINE
  8
0
 10
-4.81934
 20
64.5732
 11
-4.8291
 21
64.5596
  0
LINE
  8
0
 10
-4.8291
 20
64.5596
 11
-4.83887
 21
64.5449
  0
LINE
  8
0
 10
-4.83887
 20
64.5449
 11
-4.84766
 21
64.5303
  0
LINE
  8
0
 10
-4.84766
 20
64.5303
 11
-4.85742
 21
64.5146
  0
LINE
  8
0
 10
-4.85742
 20
64.5146
 11
-4.86621
 21
64.5
  0
LINE
  8
0
 10
-4.86621
 20
64.5
 11
-4.875
 21
64.4844
  0
LINE
  8
0
 10
-4.875
 20
64.4844
 11
-4.88281
 21
64.4697
  0
LINE
  8
0
 10
-4.88281
 20
64.4697
 11
-4.90625
 21
64.4229
  0
LINE
  8
0
 10
-4.90625
 20
64.4229
 11
-4.91309
 21
64.4062
  0
LINE
  8
0
 10
-4.91309
 20
64.4062
 11
-4.9209
 21
64.3906
  0
LINE
  8
0
 10
-4.9209
 20
64.3906
 11
-4.92676
 21
64.375
  0
LINE
  8
0
 10
-4.92676
 20
64.375
 11
-4.93359
 21
64.3584
  0
LINE
  8
0
 10
-4.93359
 20
64.3584
 11
-4.95117
 21
64.3086
  0
LINE
  8
0
 10
-4.95117
 20
64.3086
 11
-4.9707
 21
64.2422
  0
LINE
  8
0
 10
-4.9707
 20
64.2422
 11
-4.97461
 21
64.2246
  0
LINE
  8
0
 10
-4.97461
 20
64.2246
 11
-4.97852
 21
64.208
  0
LINE
  8
0
 10
-4.97852
 20
64.208
 11
-4.98145
 21
64.1904
  0
LINE
  8
0
 10
-4.98145
 20
64.1904
 11
-4.98438
 21
64.1738
  0
LINE
  8
0
 10
-4.98438
 20
64.1738
 11
-4.9873
 21
64.1562
  0
LINE
  8
0
 10
-4.9873
 20
64.1562
 11
-4.99023
 21
64.1396
  0
LINE
  8
0
 10
-4.99023
 20
64.1396
 11
-4.99805
 21
64.0693
  0
LINE
  8
0
 10
-4.99805
 20
64.0693
 11
-4.99902
 21
64.0527
  0
LINE
  8
0
 10
-4.99902
 20
64.0527
 11
-4.99902
 21
64.0352
  0
LINE
  8
0
 10
-4.99902
 20
64.0352
 11
-5
 21
64.0176
  0
LINE
  8
0
 10
-5
 20
64.0176
 11
-5
 21
55.9824
  0
LINE
  8
0
 10
-5
 20
55.9824
 11
-4.99902
 21
55.9648
  0
LINE
  8
0
 10
-4.99902
 20
55.9648
 11
-4.99902
 21
55.9473
  0
LINE
  8
0
 10
-4.99902
 20
55.9473
 11
-4.99805
 21
55.9307
  0
LINE
  8
0
 10
-4.99805
 20
55.9307
 11
-4.99023
 21
55.8604
  0
LINE
  8
0
 10
-4.99023
 20
55.8604
 11
-4.9873
 21
55.8438
  0
LINE
  8
0
 10
-4.9873
 20
55.8438
 11
-4.98438
 21
55.8262
  0
LINE
  8
0
 10
-4.98438
 20
55.8262
 11
-4.98145
 21
55.8096
  0
LINE
  8
0
 10
-4.98145
 20
55.8096
 11
-4.97852
 21
55.792
  0
LINE
  8
0
 10
-4.97852
 20
55.792
 11
-4.97461
 21
55.7754
  0
LINE
  8
0
 10
-4.97461
 20
55.7754
 11
-4.9707
 21
55.7578
  0
LINE
  8
0
 10
-4.9707
 20
55.7578
 11
-4.95117
 21
55.6914
  0
LINE
  8
0
 10
-4.95117
 20
55.6914
 11
-4.93359
 21
55.6416
  0
LINE
  8
0
 10
-4.93359
 20
55.6416
 11
-4.92676
 21
55.625
  0
LINE
  8
0
 10
-4.92676
 20
55.625
 11
-4.9209
 21
55.6094
  0
LINE
  8
0
 10
-4.9209
 20
55.6094
 11
-4.91309
 21
55.5938
  0
LINE
  8
0
 10
-4.91309
 20
55.5938
 11
-4.90625
 21
55.5771
  0
LINE
  8
0
 10
-4.90625
 20
55.5771
 11
-4.88281
 21
55.5303
  0
LINE
  8
0
 10
-4.88281
 20
55.5303
 11
-4.875
 21
55.5156
  0
LINE
  8
0
 10
-4.875
 20
55.5156
 11
-4.86621
 21
55.5
  0
LINE
  8
0
 10
-4.86621
 20
55.5
 11
-4.85742
 21
55.4854
  0
LINE
  8
0
 10
-4.85742
 20
55.4854
 11
-4.84766
 21
55.4697
  0
LINE
  8
0
 10
-4.84766
 20
55.4697
 11
-4.83887
 21
55.4551
  0
LINE
  8
0
 10
-4.83887
 20
55.4551
 11
-4.8291
 21
55.4404
  0
LINE
  8
0
 10
-4.8291
 20
55.4404
 11
-4.81934
 21
55.4268
  0
LINE
  8
0
 10
-4.81934
 20
55.4268
 11
-4.80859
 21
55.4121
  0
LINE
  8
0
 10
-4.80859
 20
55.4121
 11
-4.79883
 21
55.3984
  0
LINE
  8
0
 10
-4.79883
 20
55.3984
 11
-4.77734
 21
55.3711
  0
LINE
  8
0
 10
-4.77734
 20
55.3711
 11
-4.76562
 21
55.3574
  0
LINE
  8
0
 10
-4.76562
 20
55.3574
 11
-4.75488
 21
55.3438
  0
LINE
  8
0
 10
-4.75488
 20
55.3438
 11
-4.71973
 21
55.3057
  0
LINE
  8
0
 10
-4.71973
 20
55.3057
 11
-4.69434
 21
55.2803
  0
LINE
  8
0
 10
-4.69434
 20
55.2803
 11
-4.65625
 21
55.2451
  0
LINE
  8
0
 10
-4.65625
 20
55.2451
 11
-4.64258
 21
55.2344
  0
LINE
  8
0
 10
-4.64258
 20
55.2344
 11
-4.62891
 21
55.2227
  0
LINE
  8
0
 10
-4.62891
 20
55.2227
 11
-4.60156
 21
55.2012
  0
LINE
  8
0
 10
-4.60156
 20
55.2012
 11
-4.58789
 21
55.1914
  0
LINE
  8
0
 10
-4.58789
 20
55.1914
 11
-4.57324
 21
55.1807
  0
LINE
  8
0
 10
-4.57324
 20
55.1807
 11
-4.55957
 21
55.1709
  0
LINE
  8
0
 10
-4.55957
 20
55.1709
 11
-4.54492
 21
55.1611
  0
LINE
  8
0
 10
-4.54492
 20
55.1611
 11
-4.53027
 21
55.1523
  0
LINE
  8
0
 10
-4.53027
 20
55.1523
 11
-4.51465
 21
55.1426
  0
LINE
  8
0
 10
-4.51465
 20
55.1426
 11
-4.5
 21
55.1338
  0
LINE
  8
0
 10
-4.5
 20
55.1338
 11
-4.48438
 21
55.125
  0
LINE
  8
0
 10
-4.48438
 20
55.125
 11
-4.46973
 21
55.1172
  0
LINE
  8
0
 10
-4.46973
 20
55.1172
 11
-4.42285
 21
55.0938
  0
LINE
  8
0
 10
-4.42285
 20
55.0938
 11
-4.40625
 21
55.0869
  0
LINE
  8
0
 10
-4.40625
 20
55.0869
 11
-4.39062
 21
55.0791
  0
LINE
  8
0
 10
-4.39062
 20
55.0791
 11
-4.375
 21
55.0732
  0
LINE
  8
0
 10
-4.375
 20
55.0732
 11
-4.3584
 21
55.0664
  0
LINE
  8
0
 10
-4.3584
 20
55.0664
 11
-4.30859
 21
55.0488
  0
LINE
  8
0
 10
-4.30859
 20
55.0488
 11
-4.24219
 21
55.0293
  0
LINE
  8
0
 10
-4.24219
 20
55.0293
 11
-4.22461
 21
55.0254
  0
LINE
  8
0
 10
-4.22461
 20
55.0254
 11
-4.20801
 21
55.0215
  0
LINE
  8
0
 10
-4.20801
 20
55.0215
 11
-4.19043
 21
55.0186
  0
LINE
  8
0
 10
-4.19043
 20
55.0186
 11
-4.17383
 21
55.0156
  0
LINE
  8
0
 10
-4.17383
 20
55.0156
 11
-4.15625
 21
55.0127
  0
LINE
  8
0
 10
-4.15625
 20
55.0127
 11
-4.13965
 21
55.0098
  0
LINE
  8
0
 10
-4.13965
 20
55.0098
 11
-4.06934
 21
55.002
  0
LINE
  8
0
 10
-4.06934
 20
55.002
 11
-4.05273
 21
55.001
  0
LINE
  8
0
 10
-4.05273
 20
55.001
 11
-4.03516
 21
55.001
  0
LINE
  8
0
 10
-4.03516
 20
55.001
 11
-4.01758
 21
55
  0
LINE
  8
0
 10
-4.01758
 20
55
 11
0
 21
55
  0
LINE
  8
0
 10
0
 20
55
 11
0
 21
0
  0
LINE
  8
0
 10
0
 20
0
 11
100.95
 21
0
  0
LINE
  8
0
 10
100.95
 20
0
 11
100.95
 21
55
  0
LINE
  8
0
 10
88.4473
 20
128.9
 11
88.3916
 21
128.902
  0
LINE
  8
0
 10
88.3916
 20
128.902
 11
88.3633
 21
128.904
  0
LINE
  8
0
 10
88.3633
 20
128.904
 11
88.3359
 21
128.906
  0
LINE
  8
0
 10
88.3359
 20
128.906
 11
88.3076
 21
128.909
  0
LINE
  8
0
 10
88.3076
 20
128.909
 11
88.2803
 21
128.912
  0
LINE
  8
0
 10
88.2803
 20
128.912
 11
88.252
 21
128.916
  0
LINE
  8
0
 10
88.252
 20
128.916
 11
88.1973
 21
128.924
  0
LINE
  8
0
 10
88.1973
 20
128.924
 11
88.1699
 21
128.93
  0
LINE
  8
0
 10
88.1699
 20
128.93
 11
88.1426
 21
128.935
  0
LINE
  8
0
 10
88.1426
 20
128.935
 11
88.1152
 21
128.941
  0
LINE
  8
0
 10
88.1152
 20
128.941
 11
88.0879
 21
128.947
  0
LINE
  8
0
 10
88.0879
 20
128.947
 11
88.0605
 21
128.954
  0
LINE
  8
0
 10
88.0605
 20
128.954
 11
88.0342
 21
128.962
  0
LINE
  8
0
 10
88.0342
 20
128.962
 11
88.0068
 21
128.97
  0
LINE
  8
0
 10
88.0068
 20
128.97
 11
87.9277
 21
128.996
  0
LINE
  8
0
 10
87.9277
 20
128.996
 11
87.9014
 21
129.006
  0
LINE
  8
0
 10
87.9014
 20
129.006
 11
87.876
 21
129.017
  0
LINE
  8
0
 10
87.876
 20
129.017
 11
87.8496
 21
129.027
  0
LINE
  8
0
 10
87.8496
 20
129.027
 11
87.8242
 21
129.038
  0
LINE
  8
0
 10
87.8242
 20
129.038
 11
87.7734
 21
129.062
  0
LINE
  8
0
 10
87.7734
 20
129.062
 11
87.749
 21
129.074
  0
LINE
  8
0
 10
87.749
 20
129.074
 11
87.7236
 21
129.087
  0
LINE
  8
0
 10
87.7236
 20
129.087
 11
87.6748
 21
129.114
  0
LINE
  8
0
 10
87.6748
 20
129.114
 11
87.6514
 21
129.129
  0
LINE
  8
0
 10
87.6514
 20
129.129
 11
87.627
 21
129.144
  0
LINE
  8
0
 10
87.627
 20
129.144
 11
87.6035
 21
129.158
  0
LINE
  8
0
 10
87.6035
 20
129.158
 11
87.5801
 21
129.174
  0
LINE
  8
0
 10
87.5801
 20
129.174
 11
87.5576
 21
129.189
  0
LINE
  8
0
 10
87.5576
 20
129.189
 11
87.5342
 21
129.206
  0
LINE
  8
0
 10
87.5342
 20
129.206
 11
87.5117
 21
129.223
  0
LINE
  8
0
 10
87.5117
 20
129.223
 11
87.4902
 21
129.239
  0
LINE
  8
0
 10
87.4902
 20
129.239
 11
87.4678
 21
129.257
  0
LINE
  8
0
 10
87.4678
 20
129.257
 11
87.4463
 21
129.274
  0
LINE
  8
0
 10
87.4463
 20
129.274
 11
87.4258
 21
129.292
  0
LINE
  8
0
 10
87.4258
 20
129.292
 11
87.4043
 21
129.311
  0
LINE
  8
0
 10
87.4043
 20
129.311
 11
87.3838
 21
129.33
  0
LINE
  8
0
 10
87.3838
 20
129.33
 11
87.3633
 21
129.349
  0
LINE
  8
0
 10
87.3633
 20
129.349
 11
87.3438
 21
129.368
  0
LINE
  8
0
 10
87.3438
 20
129.368
 11
87.3047
 21
129.409
  0
LINE
  8
0
 10
87.3047
 20
129.409
 11
87.2676
 21
129.45
  0
LINE
  8
0
 10
87.2676
 20
129.45
 11
87.249
 21
129.472
  0
LINE
  8
0
 10
87.249
 20
129.472
 11
87.2139
 21
129.515
  0
LINE
  8
0
 10
87.2139
 20
129.515
 11
87.1641
 21
129.582
  0
LINE
  8
0
 10
87.1641
 20
129.582
 11
87.1328
 21
129.629
  0
LINE
  8
0
 10
87.1328
 20
129.629
 11
87.1035
 21
129.676
  0
LINE
  8
0
 10
87.1035
 20
129.676
 11
87.0898
 21
129.7
  0
LINE
  8
0
 10
87.0898
 20
129.7
 11
87.0752
 21
129.725
  0
LINE
  8
0
 10
87.0752
 20
129.725
 11
87.0498
 21
129.773
  0
LINE
  8
0
 10
87.0498
 20
129.773
 11
87.0371
 21
129.799
  0
LINE
  8
0
 10
87.0371
 20
129.799
 11
87.002
 21
129.875
  0
LINE
  8
0
 10
87.002
 20
129.875
 11
86.9912
 21
129.9
  0
LINE
  8
0
 10
86.9912
 20
129.9
 11
86.9619
 21
129.979
  0
LINE
  8
0
 10
86.9619
 20
129.979
 11
86.9531
 21
130.006
  0
LINE
  8
0
 10
86.9531
 20
130.006
 11
86.9453
 21
130.032
  0
LINE
  8
0
 10
86.9453
 20
130.032
 11
86.9365
 21
130.059
  0
LINE
  8
0
 10
86.9365
 20
130.059
 11
86.9229
 21
130.113
  0
LINE
  8
0
 10
86.9229
 20
130.113
 11
86.916
 21
130.14
  0
LINE
  8
0
 10
86.916
 20
130.14
 11
86.9043
 21
130.194
  0
LINE
  8
0
 10
86.9043
 20
130.194
 11
86.8994
 21
130.222
  0
LINE
  8
0
 10
86.8994
 20
130.222
 11
86.8945
 21
130.25
  0
LINE
  8
0
 10
86.8945
 20
130.25
 11
86.8867
 21
130.305
  0
LINE
  8
0
 10
86.8867
 20
130.305
 11
86.8838
 21
130.333
  0
LINE
  8
0
 10
86.8838
 20
130.333
 11
86.8809
 21
130.36
  0
LINE
  8
0
 10
86.8809
 20
130.36
 11
86.8789
 21
130.389
  0
LINE
  8
0
 10
86.8789
 20
130.389
 11
86.877
 21
130.416
  0
LINE
  8
0
 10
86.877
 20
130.416
 11
86.875
 21
130.472
  0
LINE
  8
0
 10
86.875
 20
130.472
 11
86.875
 21
130.528
  0
LINE
  8
0
 10
86.875
 20
130.528
 11
86.877
 21
130.584
  0
LINE
  8
0
 10
86.877
 20
130.584
 11
86.8789
 21
130.611
  0
LINE
  8
0
 10
86.8789
 20
130.611
 11
86.8809
 21
130.64
  0
LINE
  8
0
 10
86.8809
 20
130.64
 11
86.8838
 21
130.667
  0
LINE
  8
0
 10
86.8838
 20
130.667
 11
86.8867
 21
130.695
  0
LINE
  8
0
 10
86.8867
 20
130.695
 11
86.8945
 21
130.75
  0
LINE
  8
0
 10
86.8945
 20
130.75
 11
86.8994
 21
130.778
  0
LINE
  8
0
 10
86.8994
 20
130.778
 11
86.9043
 21
130.806
  0
LINE
  8
0
 10
86.9043
 20
130.806
 11
86.916
 21
130.86
  0
LINE
  8
0
 10
86.916
 20
130.86
 11
86.9229
 21
130.887
  0
LINE
  8
0
 10
86.9229
 20
130.887
 11
86.9365
 21
130.941
  0
LINE
  8
0
 10
86.9365
 20
130.941
 11
86.9453
 21
130.968
  0
LINE
  8
0
 10
86.9453
 20
130.968
 11
86.9531
 21
130.994
  0
LINE
  8
0
 10
86.9531
 20
130.994
 11
86.9619
 21
131.021
  0
LINE
  8
0
 10
86.9619
 20
131.021
 11
86.9912
 21
131.1
  0
LINE
  8
0
 10
86.9912
 20
131.1
 11
87.002
 21
131.125
  0
LINE
  8
0
 10
87.002
 20
131.125
 11
87.0371
 21
131.201
  0
LINE
  8
0
 10
87.0371
 20
131.201
 11
87.0498
 21
131.227
  0
LINE
  8
0
 10
87.0498
 20
131.227
 11
87.0752
 21
131.275
  0
LINE
  8
0
 10
87.0752
 20
131.275
 11
87.0898
 21
131.3
  0
LINE
  8
0
 10
87.0898
 20
131.3
 11
87.1035
 21
131.324
  0
LINE
  8
0
 10
87.1035
 20
131.324
 11
87.1328
 21
131.371
  0
LINE
  8
0
 10
87.1328
 20
131.371
 11
87.1641
 21
131.418
  0
LINE
  8
0
 10
87.1641
 20
131.418
 11
87.2139
 21
131.485
  0
LINE
  8
0
 10
87.2139
 20
131.485
 11
87.249
 21
131.528
  0
LINE
  8
0
 10
87.249
 20
131.528
 11
87.2676
 21
131.55
  0
LINE
  8
0
 10
87.2676
 20
131.55
 11
87.3047
 21
131.591
  0
LINE
  8
0
 10
87.3047
 20
131.591
 11
87.3438
 21
131.632
  0
LINE
  8
0
 10
87.3438
 20
131.632
 11
87.3633
 21
131.651
  0
LINE
  8
0
 10
87.3633
 20
131.651
 11
87.3838
 21
131.67
  0
LINE
  8
0
 10
87.3838
 20
131.67
 11
87.4043
 21
131.689
  0
LINE
  8
0
 10
87.4043
 20
131.689
 11
87.4258
 21
131.708
  0
LINE
  8
0
 10
87.4258
 20
131.708
 11
87.4463
 21
131.726
  0
LINE
  8
0
 10
87.4463
 20
131.726
 11
87.4678
 21
131.743
  0
LINE
  8
0
 10
87.4678
 20
131.743
 11
87.4902
 21
131.761
  0
LINE
  8
0
 10
87.4902
 20
131.761
 11
87.5117
 21
131.777
  0
LINE
  8
0
 10
87.5117
 20
131.777
 11
87.5342
 21
131.794
  0
LINE
  8
0
 10
87.5342
 20
131.794
 11
87.5576
 21
131.811
  0
LINE
  8
0
 10
87.5576
 20
131.811
 11
87.5801
 21
131.826
  0
LINE
  8
0
 10
87.5801
 20
131.826
 11
87.6035
 21
131.842
  0
LINE
  8
0
 10
87.6035
 20
131.842
 11
87.627
 21
131.856
  0
LINE
  8
0
 10
87.627
 20
131.856
 11
87.6514
 21
131.871
  0
LINE
  8
0
 10
87.6514
 20
131.871
 11
87.6748
 21
131.886
  0
LINE
  8
0
 10
87.6748
 20
131.886
 11
87.7236
 21
131.913
  0
LINE
  8
0
 10
87.7236
 20
131.913
 11
87.749
 21
131.926
  0
LINE
  8
0
 10
87.749
 20
131.926
 11
87.7734
 21
131.938
  0
LINE
  8
0
 10
87.7734
 20
131.938
 11
87.8242
 21
131.962
  0
LINE
  8
0
 10
87.8242
 20
131.962
 11
87.8496
 21
131.973
  0
LINE
  8
0
 10
87.8496
 20
131.973
 11
87.876
 21
131.983
  0
LINE
  8
0
 10
87.876
 20
131.983
 11
87.9014
 21
131.994
  0
LINE
  8
0
 10
87.9014
 20
131.994
 11
87.9277
 21
132.004
  0
LINE
  8
0
 10
87.9277
 20
132.004
 11
88.0068
 21
132.03
  0
LINE
  8
0
 10
88.0068
 20
132.03
 11
88.0342
 21
132.038
  0
LINE
  8
0
 10
88.0342
 20
132.038
 11
88.0605
 21
132.046
  0
LINE
  8
0
 10
88.0605
 20
132.046
 11
88.0879
 21
132.053
  0
LINE
  8
0
 10
88.0879
 20
132.053
 11
88.1152
 21
132.059
  0
LINE
  8
0
 10
88.1152
 20
132.059
 11
88.1426
 21
132.065
  0
LINE
  8
0
 10
88.1426
 20
132.065
 11
88.1699
 21
132.07
  0
LINE
  8
0
 10
88.1699
 20
132.07
 11
88.1973
 21
132.076
  0
LINE
  8
0
 10
88.1973
 20
132.076
 11
88.252
 21
132.084
  0
LINE
  8
0
 10
88.252
 20
132.084
 11
88.2803
 21
132.088
  0
LINE
  8
0
 10
88.2803
 20
132.088
 11
88.3076
 21
132.091
  0
LINE
  8
0
 10
88.3076
 20
132.091
 11
88.3359
 21
132.094
  0
LINE
  8
0
 10
88.3359
 20
132.094
 11
88.3633
 21
132.096
  0
LINE
  8
0
 10
88.3633
 20
132.096
 11
88.3916
 21
132.098
  0
LINE
  8
0
 10
88.3916
 20
132.098
 11
88.4473
 21
132.1
  0
LINE
  8
0
 10
88.4473
 20
132.1
 11
88.5029
 21
132.1
  0
LINE
  8
0
 10
88.5029
 20
132.1
 11
88.5586
 21
132.098
  0
LINE
  8
0
 10
88.5586
 20
132.098
 11
88.5869
 21
132.096
  0
LINE
  8
0
 10
88.5869
 20
132.096
 11
88.6143
 21
132.094
  0
LINE
  8
0
 10
88.6143
 20
132.094
 11
88.6426
 21
132.091
  0
LINE
  8
0
 10
88.6426
 20
132.091
 11
88.6699
 21
132.088
  0
LINE
  8
0
 10
88.6699
 20
132.088
 11
88.6973
 21
132.084
  0
LINE
  8
0
 10
88.6973
 20
132.084
 11
88.7256
 21
132.08
  0
LINE
  8
0
 10
88.7256
 20
132.08
 11
88.7529
 21
132.076
  0
LINE
  8
0
 10
88.7529
 20
132.076
 11
88.7803
 21
132.07
  0
LINE
  8
0
 10
88.7803
 20
132.07
 11
88.8076
 21
132.065
  0
LINE
  8
0
 10
88.8076
 20
132.065
 11
88.835
 21
132.059
  0
LINE
  8
0
 10
88.835
 20
132.059
 11
88.8623
 21
132.053
  0
LINE
  8
0
 10
88.8623
 20
132.053
 11
88.8887
 21
132.046
  0
LINE
  8
0
 10
88.8887
 20
132.046
 11
88.916
 21
132.038
  0
LINE
  8
0
 10
88.916
 20
132.038
 11
88.9424
 21
132.03
  0
LINE
  8
0
 10
88.9424
 20
132.03
 11
88.9697
 21
132.021
  0
LINE
  8
0
 10
88.9697
 20
132.021
 11
89.0225
 21
132.004
  0
LINE
  8
0
 10
89.0225
 20
132.004
 11
89.0488
 21
131.994
  0
LINE
  8
0
 10
89.0488
 20
131.994
 11
89.0742
 21
131.983
  0
LINE
  8
0
 10
89.0742
 20
131.983
 11
89.1006
 21
131.973
  0
LINE
  8
0
 10
89.1006
 20
131.973
 11
89.126
 21
131.962
  0
LINE
  8
0
 10
89.126
 20
131.962
 11
89.1768
 21
131.938
  0
LINE
  8
0
 10
89.1768
 20
131.938
 11
89.2012
 21
131.926
  0
LINE
  8
0
 10
89.2012
 20
131.926
 11
89.2266
 21
131.913
  0
LINE
  8
0
 10
89.2266
 20
131.913
 11
89.2754
 21
131.886
  0
LINE
  8
0
 10
89.2754
 20
131.886
 11
89.2988
 21
131.871
  0
LINE
  8
0
 10
89.2988
 20
131.871
 11
89.3232
 21
131.856
  0
LINE
  8
0
 10
89.3232
 20
131.856
 11
89.3467
 21
131.842
  0
LINE
  8
0
 10
89.3467
 20
131.842
 11
89.3701
 21
131.826
  0
LINE
  8
0
 10
89.3701
 20
131.826
 11
89.3926
 21
131.811
  0
LINE
  8
0
 10
89.3926
 20
131.811
 11
89.46
 21
131.761
  0
LINE
  8
0
 10
89.46
 20
131.761
 11
89.4814
 21
131.743
  0
LINE
  8
0
 10
89.4814
 20
131.743
 11
89.5039
 21
131.726
  0
LINE
  8
0
 10
89.5039
 20
131.726
 11
89.5244
 21
131.708
  0
LINE
  8
0
 10
89.5244
 20
131.708
 11
89.5459
 21
131.689
  0
LINE
  8
0
 10
89.5459
 20
131.689
 11
89.5664
 21
131.67
  0
LINE
  8
0
 10
89.5664
 20
131.67
 11
89.5869
 21
131.651
  0
LINE
  8
0
 10
89.5869
 20
131.651
 11
89.6064
 21
131.632
  0
LINE
  8
0
 10
89.6064
 20
131.632
 11
89.6455
 21
131.591
  0
LINE
  8
0
 10
89.6455
 20
131.591
 11
89.6826
 21
131.55
  0
LINE
  8
0
 10
89.6826
 20
131.55
 11
89.7002
 21
131.528
  0
LINE
  8
0
 10
89.7002
 20
131.528
 11
89.7188
 21
131.507
  0
LINE
  8
0
 10
89.7188
 20
131.507
 11
89.7354
 21
131.485
  0
LINE
  8
0
 10
89.7354
 20
131.485
 11
89.7529
 21
131.463
  0
LINE
  8
0
 10
89.7529
 20
131.463
 11
89.7695
 21
131.44
  0
LINE
  8
0
 10
89.7695
 20
131.44
 11
89.7852
 21
131.418
  0
LINE
  8
0
 10
89.7852
 20
131.418
 11
89.8018
 21
131.395
  0
LINE
  8
0
 10
89.8018
 20
131.395
 11
89.8164
 21
131.371
  0
LINE
  8
0
 10
89.8164
 20
131.371
 11
89.832
 21
131.348
  0
LINE
  8
0
 10
89.832
 20
131.348
 11
89.8467
 21
131.324
  0
LINE
  8
0
 10
89.8467
 20
131.324
 11
89.8877
 21
131.251
  0
LINE
  8
0
 10
89.8877
 20
131.251
 11
89.9004
 21
131.227
  0
LINE
  8
0
 10
89.9004
 20
131.227
 11
89.9131
 21
131.201
  0
LINE
  8
0
 10
89.9131
 20
131.201
 11
89.9482
 21
131.125
  0
LINE
  8
0
 10
89.9482
 20
131.125
 11
89.958
 21
131.1
  0
LINE
  8
0
 10
89.958
 20
131.1
 11
89.9688
 21
131.073
  0
LINE
  8
0
 10
89.9688
 20
131.073
 11
89.9883
 21
131.021
  0
LINE
  8
0
 10
89.9883
 20
131.021
 11
89.9971
 21
130.994
  0
LINE
  8
0
 10
89.9971
 20
130.994
 11
90.0127
 21
130.941
  0
LINE
  8
0
 10
90.0127
 20
130.941
 11
90.0205
 21
130.914
  0
LINE
  8
0
 10
90.0205
 20
130.914
 11
90.0273
 21
130.887
  0
LINE
  8
0
 10
90.0273
 20
130.887
 11
90.0342
 21
130.86
  0
LINE
  8
0
 10
90.0342
 20
130.86
 11
90.0459
 21
130.806
  0
LINE
  8
0
 10
90.0459
 20
130.806
 11
90.0508
 21
130.778
  0
LINE
  8
0
 10
90.0508
 20
130.778
 11
90.0557
 21
130.75
  0
LINE
  8
0
 10
90.0557
 20
130.75
 11
90.0635
 21
130.695
  0
LINE
  8
0
 10
90.0635
 20
130.695
 11
90.0664
 21
130.667
  0
LINE
  8
0
 10
90.0664
 20
130.667
 11
90.0693
 21
130.64
  0
LINE
  8
0
 10
90.0693
 20
130.64
 11
90.0713
 21
130.611
  0
LINE
  8
0
 10
90.0713
 20
130.611
 11
90.0732
 21
130.584
  0
LINE
  8
0
 10
90.0732
 20
130.584
 11
90.0752
 21
130.528
  0
LINE
  8
0
 10
90.0752
 20
130.528
 11
90.0752
 21
130.472
  0
LINE
  8
0
 10
90.0752
 20
130.472
 11
90.0732
 21
130.416
  0
LINE
  8
0
 10
90.0732
 20
130.416
 11
90.0713
 21
130.389
  0
LINE
  8
0
 10
90.0713
 20
130.389
 11
90.0693
 21
130.36
  0
LINE
  8
0
 10
90.0693
 20
130.36
 11
90.0664
 21
130.333
  0
LINE
  8
0
 10
90.0664
 20
130.333
 11
90.0635
 21
130.305
  0
LINE
  8
0
 10
90.0635
 20
130.305
 11
90.0557
 21
130.25
  0
LINE
  8
0
 10
90.0557
 20
130.25
 11
90.0508
 21
130.222
  0
LINE
  8
0
 10
90.0508
 20
130.222
 11
90.0459
 21
130.194
  0
LINE
  8
0
 10
90.0459
 20
130.194
 11
90.0342
 21
130.14
  0
LINE
  8
0
 10
90.0342
 20
130.14
 11
90.0273
 21
130.113
  0
LINE
  8
0
 10
90.0273
 20
130.113
 11
90.0205
 21
130.086
  0
LINE
  8
0
 10
90.0205
 20
130.086
 11
90.0127
 21
130.059
  0
LINE
  8
0
 10
90.0127
 20
130.059
 11
89.9971
 21
130.006
  0
LINE
  8
0
 10
89.9971
 20
130.006
 11
89.9883
 21
129.979
  0
LINE
  8
0
 10
89.9883
 20
129.979
 11
89.9688
 21
129.927
  0
LINE
  8
0
 10
89.9688
 20
129.927
 11
89.958
 21
129.9
  0
LINE
  8
0
 10
89.958
 20
129.9
 11
89.9482
 21
129.875
  0
LINE
  8
0
 10
89.9482
 20
129.875
 11
89.9131
 21
129.799
  0
LINE
  8
0
 10
89.9131
 20
129.799
 11
89.9004
 21
129.773
  0
LINE
  8
0
 10
89.9004
 20
129.773
 11
89.8877
 21
129.749
  0
LINE
  8
0
 10
89.8877
 20
129.749
 11
89.8467
 21
129.676
  0
LINE
  8
0
 10
89.8467
 20
129.676
 11
89.832
 21
129.652
  0
LINE
  8
0
 10
89.832
 20
129.652
 11
89.8164
 21
129.629
  0
LINE
  8
0
 10
89.8164
 20
129.629
 11
89.8018
 21
129.605
  0
LINE
  8
0
 10
89.8018
 20
129.605
 11
89.7852
 21
129.582
  0
LINE
  8
0
 10
89.7852
 20
129.582
 11
89.7695
 21
129.56
  0
LINE
  8
0
 10
89.7695
 20
129.56
 11
89.7529
 21
129.537
  0
LINE
  8
0
 10
89.7529
 20
129.537
 11
89.7354
 21
129.515
  0
LINE
  8
0
 10
89.7354
 20
129.515
 11
89.7188
 21
129.493
  0
LINE
  8
0
 10
89.7188
 20
129.493
 11
89.7002
 21
129.472
  0
LINE
  8
0
 10
89.7002
 20
129.472
 11
89.6826
 21
129.45
  0
LINE
  8
0
 10
89.6826
 20
129.45
 11
89.6455
 21
129.409
  0
LINE
  8
0
 10
89.6455
 20
129.409
 11
89.6064
 21
129.368
  0
LINE
  8
0
 10
89.6064
 20
129.368
 11
89.5869
 21
129.349
  0
LINE
  8
0
 10
89.5869
 20
129.349
 11
89.5664
 21
129.33
  0
LINE
  8
0
 10
89.5664
 20
129.33
 11
89.5459
 21
129.311
  0
LINE
  8
0
 10
89.5459
 20
129.311
 11
89.5244
 21
129.292
  0
LINE
  8
0
 10
89.5244
 20
129.292
 11
89.5039
 21
129.274
  0
LINE
  8
0
 10
89.5039
 20
129.274
 11
89.4814
 21
129.257
  0
LINE
  8
0
 10
89.4814
 20
129.257
 11
89.46
 21
129.239
  0
LINE
  8
0
 10
89.46
 20
129.239
 11
89.3926
 21
129.189
  0
LINE
  8
0
 10
89.3926
 20
129.189
 11
89.3701
 21
129.174
  0
LINE
  8
0
 10
89.3701
 20
129.174
 11
89.3467
 21
129.158
  0
LINE
  8
0
 10
89.3467
 20
129.158
 11
89.3232
 21
129.144
  0
LINE
  8
0
 10
89.3232
 20
129.144
 11
89.2988
 21
129.129
  0
LINE
  8
0
 10
89.2988
 20
129.129
 11
89.2754
 21
129.114
  0
LINE
  8
0
 10
89.2754
 20
129.114
 11
89.2266
 21
129.087
  0
LINE
  8
0
 10
89.2266
 20
129.087
 11
89.2012
 21
129.074
  0
LINE
  8
0
 10
89.2012
 20
129.074
 11
89.1768
 21
129.062
  0
LINE
  8
0
 10
89.1768
 20
129.062
 11
89.126
 21
129.038
  0
LINE
  8
0
 10
89.126
 20
129.038
 11
89.1006
 21
129.027
  0
LINE
  8
0
 10
89.1006
 20
129.027
 11
89.0742
 21
129.017
  0
LINE
  8
0
 10
89.0742
 20
129.017
 11
89.0488
 21
129.006
  0
LINE
  8
0
 10
89.0488
 20
129.006
 11
89.0225
 21
128.996
  0
LINE
  8
0
 10
89.0225
 20
128.996
 11
88.9697
 21
128.979
  0
LINE
  8
0
 10
88.9697
 20
128.979
 11
88.9424
 21
128.97
  0
LINE
  8
0
 10
88.9424
 20
128.97
 11
88.916
 21
128.962
  0
LINE
  8
0
 10
88.916
 20
128.962
 11
88.8887
 21
128.954
  0
LINE
  8
0
 10
88.8887
 20
128.954
 11
88.8623
 21
128.947
  0
LINE
  8
0
 10
88.8623
 20
128.947
 11
88.835
 21
128.941
  0
LINE
  8
0
 10
88.835
 20
128.941
 11
88.8076
 21
128.935
  0
LINE
  8
0
 10
88.8076
 20
128.935
 11
88.7803
 21
128.93
  0
LINE
  8
0
 10
88.7803
 20
128.93
 11
88.7529
 21
128.924
  0
LINE
  8
0
 10
88.7529
 20
128.924
 11
88.7256
 21
128.92
  0
LINE
  8
0
 10
88.7256
 20
128.92
 11
88.6973
 21
128.916
  0
LINE
  8
0
 10
88.6973
 20
128.916
 11
88.6699
 21
128.912
  0
LINE
  8
0
 10
88.6699
 20
128.912
 11
88.6426
 21
128.909
  0
LINE
  8
0
 10
88.6426
 20
128.909
 11
88.6143
 21
128.906
  0
LINE
  8
0
 10
88.6143
 20
128.906
 11
88.5869
 21
128.904
  0
LINE
  8
0
 10
88.5869
 20
128.904
 11
88.5586
 21
128.902
  0
LINE
  8
0
 10
88.5586
 20
128.902
 11
88.5029
 21
128.9
  0
LINE
  8
0
 10
88.5029
 20
128.9
 11
88.4473
 21
128.9
  0
LINE
  8
0
 10
12.4473
 20
128.9
 11
12.3916
 21
128.902
  0
LINE
  8
0
 10
12.3916
 20
128.902
 11
12.3633
 21
128.904
  0
LINE
  8
0
 10
12.3633
 20
128.904
 11
12.3359
 21
128.906
  0
LINE
  8
0
 10
12.3359
 20
128.906
 11
12.3076
 21
128.909
  0
LINE
  8
0
 10
12.3076
 20
128.909
 11
12.2803
 21
128.912
  0
LINE
  8
0
 10
12.2803
 20
128.912
 11
12.252
 21
128.916
  0
LINE
  8
0
 10
12.252
 20
128.916
 11
12.1973
 21
128.924
  0
LINE
  8
0
 10
12.1973
 20
128.924
 11
12.1699
 21
128.93
  0
LINE
  8
0
 10
12.1699
 20
128.93
 11
12.1426
 21
128.935
  0
LINE
  8
0
 10
12.1426
 20
128.935
 11
12.1152
 21
128.941
  0
LINE
  8
0
 10
12.1152
 20
128.941
 11
12.0879
 21
128.947
  0
LINE
  8
0
 10
12.0879
 20
128.947
 11
12.0605
 21
128.954
  0
LINE
  8
0
 10
12.0605
 20
128.954
 11
12.0342
 21
128.962
  0
LINE
  8
0
 10
12.0342
 20
128.962
 11
12.0068
 21
128.97
  0
LINE
  8
0
 10
12.0068
 20
128.97
 11
11.9277
 21
128.996
  0
LINE
  8
0
 10
11.9277
 20
128.996
 11
11.9014
 21
129.006
  0
LINE
  8
0
 10
11.9014
 20
129.006
 11
11.876
 21
129.017
  0
LINE
  8
0
 10
11.876
 20
129.017
 11
11.8496
 21
129.027
  0
LINE
  8
0
 10
11.8496
 20
129.027
 11
11.8242
 21
129.038
  0
LINE
  8
0
 10
11.8242
 20
129.038
 11
11.7734
 21
129.062
  0
LINE
  8
0
 10
11.7734
 20
129.062
 11
11.749
 21
129.074
  0
LINE
  8
0
 10
11.749
 20
129.074
 11
11.7236
 21
129.087
  0
LINE
  8
0
 10
11.7236
 20
129.087
 11
11.6748
 21
129.114
  0
LINE
  8
0
 10
11.6748
 20
129.114
 11
11.6514
 21
129.129
  0
LINE
  8
0
 10
11.6514
 20
129.129
 11
11.627
 21
129.144
  0
LINE
  8
0
 10
11.627
 20
129.144
 11
11.6035
 21
129.158
  0
LINE
  8
0
 10
11.6035
 20
129.158
 11
11.5801
 21
129.174
  0
LINE
  8
0
 10
11.5801
 20
129.174
 11
11.5576
 21
129.189
  0
LINE
  8
0
 10
11.5576
 20
129.189
 11
11.5342
 21
129.206
  0
LINE
  8
0
 10
11.5342
 20
129.206
 11
11.5117
 21
129.223
  0
LINE
  8
0
 10
11.5117
 20
129.223
 11
11.4902
 21
129.239
  0
LINE
  8
0
 10
11.4902
 20
129.239
 11
11.4678
 21
129.257
  0
LINE
  8
0
 10
11.4678
 20
129.257
 11
11.4463
 21
129.274
  0
LINE
  8
0
 10
11.4463
 20
129.274
 11
11.4258
 21
129.292
  0
LINE
  8
0
 10
11.4258
 20
129.292
 11
11.4043
 21
129.311
  0
LINE
  8
0
 10
11.4043
 20
129.311
 11
11.3838
 21
129.33
  0
LINE
  8
0
 10
11.3838
 20
129.33
 11
11.3633
 21
129.349
  0
LINE
  8
0
 10
11.3633
 20
129.349
 11
11.3438
 21
129.368
  0
LINE
  8
0
 10
11.3438
 20
129.368
 11
11.3047
 21
129.409
  0
LINE
  8
0
 10
11.3047
 20
129.409
 11
11.2676
 21
129.45
  0
LINE
  8
0
 10
11.2676
 20
129.45
 11
11.249
 21
129.472
  0
LINE
  8
0
 10
11.249
 20
129.472
 11
11.2139
 21
129.515
  0
LINE
  8
0
 10
11.2139
 20
129.515
 11
11.1641
 21
129.582
  0
LINE
  8
0
 10
11.1641
 20
129.582
 11
11.1328
 21
129.629
  0
LINE
  8
0
 10
11.1328
 20
129.629
 11
11.1035
 21
129.676
  0
LINE
  8
0
 10
11.1035
 20
129.676
 11
11.0898
 21
129.7
  0
LINE
  8
0
 10
11.0898
 20
129.7
 11
11.0752
 21
129.725
  0
LINE
  8
0
 10
11.0752
 20
129.725
 11
11.0498
 21
129.773
  0
LINE
  8
0
 10
11.0498
 20
129.773
 11
11.0371
 21
129.799
  0
LINE
  8
0
 10
11.0371
 20
129.799
 11
11.002
 21
129.875
  0
LINE
  8
0
 10
11.002
 20
129.875
 11
10.9912
 21
129.9
  0
LINE
  8
0
 10
10.9912
 20
129.9
 11
10.9619
 21
129.979
  0
LINE
  8
0
 10
10.9619
 20
129.979
 11
10.9531
 21
130.006
  0
LINE
  8
0
 10
10.9531
 20
130.006
 11
10.9453
 21
130.032
  0
LINE
  8
0
 10
10.9453
 20
130.032
 11
10.9365
 21
130.059
  0
LINE
  8
0
 10
10.9365
 20
130.059
 11
10.9229
 21
130.113
  0
LINE
  8
0
 10
10.9229
 20
130.113
 11
10.916
 21
130.14
  0
LINE
  8
0
 10
10.916
 20
130.14
 11
10.9043
 21
130.194
  0
LINE
  8
0
 10
10.9043
 20
130.194
 11
10.8994
 21
130.222
  0
LINE
  8
0
 10
10.8994
 20
130.222
 11
10.8945
 21
130.25
  0
LINE
  8
0
 10
10.8945
 20
130.25
 11
10.8867
 21
130.305
  0
LINE
  8
0
 10
10.8867
 20
130.305
 11
10.8838
 21
130.333
  0
LINE
  8
0
 10
10.8838
 20
130.333
 11
10.8809
 21
130.36
  0
LINE
  8
0
 10
10.8809
 20
130.36
 11
10.8789
 21
130.389
  0
LINE
  8
0
 10
10.8789
 20
130.389
 11
10.877
 21
130.416
  0
LINE
  8
0
 10
10.877
 20
130.416
 11
10.875
 21
130.472
  0
LINE
  8
0
 10
10.875
 20
130.472
 11
10.875
 21
130.528
  0
LINE
  8
0
 10
10.875
 20
130.528
 11
10.877
 21
130.584
  0
LINE
  8
0
 10
10.877
 20
130.584
 11
10.8789
 21
130.611
  0
LINE
  8
0
 10
10.8789
 20
130.611
 11
10.8809
 21
130.64
  0
LINE
  8
0
 10
10.8809
 20
130.64
 11
10.8838
 21
130.667
  0
LINE
  8
0
 10
10.8838
 20
130.667
 11
10.8867
 21
130.695
  0
LINE
  8
0
 10
10.8867
 20
130.695
 11
10.8945
 21
130.75
  0
LINE
  8
0
 10
10.8945
 20
130.75
 11
10.8994
 21
130.778
  0
LINE
  8
0
 10
10.8994
 20
130.778
 11
10.9043
 21
130.806
  0
LINE
  8
0
 10
10.9043
 20
130.806
 11
10.916
 21
130.86
  0
LINE
  8
0
 10
10.916
 20
130.86
 11
10.9229
 21
130.887
  0
LINE
  8
0
 10
10.9229
 20
130.887
 11
10.9365
 21
130.941
  0
LINE
  8
0
 10
10.9365
 20
130.941
 11
10.9453
 21
130.968
  0
LINE
  8
0
 10
10.9453
 20
130.968
 11
10.9531
 21
130.994
  0
LINE
  8
0
 10
10.9531
 20
130.994
 11
10.9619
 21
131.021
  0
LINE
  8
0
 10
10.9619
 20
131.021
 11
10.9912
 21
131.1
  0
LINE
  8
0
 10
10.9912
 20
131.1
 11
11.002
 21
131.125
  0
LINE
  8
0
 10
11.002
 20
131.125
 11
11.0371
 21
131.201
  0
LINE
  8
0
 10
11.0371
 20
131.201
 11
11.0498
 21
131.227
  0
LINE
  8
0
 10
11.0498
 20
131.227
 11
11.0752
 21
131.275
  0
LINE
  8
0
 10
11.0752
 20
131.275
 11
11.0898
 21
131.3
  0
LINE
  8
0
 10
11.0898
 20
131.3
 11
11.1035
 21
131.324
  0
LINE
  8
0
 10
11.1035
 20
131.324
 11
11.1328
 21
131.371
  0
LINE
  8
0
 10
11.1328
 20
131.371
 11
11.1641
 21
131.418
  0
LINE
  8
0
 10
11.1641
 20
131.418
 11
11.2139
 21
131.485
  0
LINE
  8
0
 10
11.2139
 20
131.485
 11
11.249
 21
131.528
  0
LINE
  8
0
 10
11.249
 20
131.528
 11
11.2676
 21
131.55
  0
LINE
  8
0
 10
11.2676
 20
131.55
 11
11.3047
 21
131.591
  0
LINE
  8
0
 10
11.3047
 20
131.591
 11
11.3438
 21
131.632
  0
LINE
  8
0
 10
11.3438
 20
131.632
 11
11.3633
 21
131.651
  0
LINE
  8
0
 10
11.3633
 20
131.651
 11
11.3838
 21
131.67
  0
LINE
  8
0
 10
11.3838
 20
131.67
 11
11.4043
 21
131.689
  0
LINE
  8
0
 10
11.4043
 20
131.689
 11
11.4258
 21
131.708
  0
LINE
  8
0
 10
11.4258
 20
131.708
 11
11.4463
 21
131.726
  0
LINE
  8
0
 10
11.4463
 20
131.726
 11
11.4678
 21
131.743
  0
LINE
  8
0
 10
11.4678
 20
131.743
 11
11.4902
 21
131.761
  0
LINE
  8
0
 10
11.4902
 20
131.761
 11
11.5117
 21
131.777
  0
LINE
  8
0
 10
11.5117
 20
131.777
 11
11.5342
 21
131.794
  0
LINE
  8
0
 10
11.5342
 20
131.794
 11
11.5576
 21
131.811
  0
LINE
  8
0
 10
11.5576
 20
131.811
 11
11.5801
 21
131.826
  0
LINE
  8
0
 10
11.5801
 20
131.826
 11
11.6035
 21
131.842
  0
LINE
  8
0
 10
11.6035
 20
131.842
 11
11.627
 21
131.856
  0
LINE
  8
0
 10
11.627
 20
131.856
 11
11.6514
 21
131.871
  0
LINE
  8
0
 10
11.6514
 20
131.871
 11
11.6748
 21
131.886
  0
LINE
  8
0
 10
11.6748
 20
131.886
 11
11.7236
 21
131.913
  0
LINE
  8
0
 10
11.7236
 20
131.913
 11
11.749
 21
131.926
  0
LINE
  8
0
 10
11.749
 20
131.926
 11
11.7734
 21
131.938
  0
LINE
  8
0
 10
11.7734
 20
131.938
 11
11.8242
 21
131.962
  0
LINE
  8
0
 10
11.8242
 20
131.962
 11
11.8496
 21
131.973
  0
LINE
  8
0
 10
11.8496
 20
131.973
 11
11.876
 21
131.983
  0
LINE
  8
0
 10
11.876
 20
131.983
 11
11.9014
 21
131.994
  0
LINE
  8
0
 10
11.9014
 20
131.994
 11
11.9277
 21
132.004
  0
LINE
  8
0
 10
11.9277
 20
132.004
 11
12.0068
 21
132.03
  0
LINE
  8
0
 10
12.0068
 20
132.03
 11
12.0342
 21
132.038
  0
LINE
  8
0
 10
12.0342
 20
132.038
 11
12.0605
 21
132.046
  0
LINE
  8
0
 10
12.0605
 20
132.046
 11
12.0879
 21
132.053
  0
LINE
  8
0
 10
12.0879
 20
132.053
 11
12.1152
 21
132.059
  0
LINE
  8
0
 10
12.1152
 20
132.059
 11
12.1426
 21
132.065
  0
LINE
  8
0
 10
12.1426
 20
132.065
 11
12.1699
 21
132.07
  0
LINE
  8
0
 10
12.1699
 20
132.07
 11
12.1973
 21
132.076
  0
LINE
  8
0
 10
12.1973
 20
132.076
 11
12.252
 21
132.084
  0
LINE
  8
0
 10
12.252
 20
132.084
 11
12.2803
 21
132.088
  0
LINE
  8
0
 10
12.2803
 20
132.088
 11
12.3076
 21
132.091
  0
LINE
  8
0
 10
12.3076
 20
132.091
 11
12.3359
 21
132.094
  0
LINE
  8
0
 10
12.3359
 20
132.094
 11
12.3633
 21
132.096
  0
LINE
  8
0
 10
12.3633
 20
132.096
 11
12.3916
 21
132.098
  0
LINE
  8
0
 10
12.3916
 20
132.098
 11
12.4473
 21
132.1
  0
LINE
  8
0
 10
12.4473
 20
132.1
 11
12.5029
 21
132.1
  0
LINE
  8
0
 10
12.5029
 20
132.1
 11
12.5586
 21
132.098
  0
LINE
  8
0
 10
12.5586
 20
132.098
 11
12.5869
 21
132.096
  0
LINE
  8
0
 10
12.5869
 20
132.096
 11
12.6143
 21
132.094
  0
LINE
  8
0
 10
12.6143
 20
132.094
 11
12.6426
 21
132.091
  0
LINE
  8
0
 10
12.6426
 20
132.091
 11
12.6699
 21
132.088
  0
LINE
  8
0
 10
12.6699
 20
132.088
 11
12.6973
 21
132.084
  0
LINE
  8
0
 10
12.6973
 20
132.084
 11
12.7256
 21
132.08
  0
LINE
  8
0
 10
12.7256
 20
132.08
 11
12.7529
 21
132.076
  0
LINE
  8
0
 10
12.7529
 20
132.076
 11
12.7803
 21
132.07
  0
LINE
  8
0
 10
12.7803
 20
132.07
 11
12.8076
 21
132.065
  0
LINE
  8
0
 10
12.8076
 20
132.065
 11
12.835
 21
132.059
  0
LINE
  8
0
 10
12.835
 20
132.059
 11
12.8623
 21
132.053
  0
LINE
  8
0
 10
12.8623
 20
132.053
 11
12.8887
 21
132.046
  0
LINE
  8
0
 10
12.8887
 20
132.046
 11
12.916
 21
132.038
  0
LINE
  8
0
 10
12.916
 20
132.038
 11
12.9424
 21
132.03
  0
LINE
  8
0
 10
12.9424
 20
132.03
 11
12.9697
 21
132.021
  0
LINE
  8
0
 10
12.9697
 20
132.021
 11
13.0225
 21
132.004
  0
LINE
  8
0
 10
13.0225
 20
132.004
 11
13.0488
 21
131.994
  0
LINE
  8
0
 10
13.0488
 20
131.994
 11
13.0742
 21
131.983
  0
LINE
  8
0
 10
13.0742
 20
131.983
 11
13.1006
 21
131.973
  0
LINE
  8
0
 10
13.1006
 20
131.973
 11
13.126
 21
131.962
  0
LINE
  8
0
 10
13.126
 20
131.962
 11
13.1768
 21
131.938
  0
LINE
  8
0
 10
13.1768
 20
131.938
 11
13.2012
 21
131.926
  0
LINE
  8
0
 10
13.2012
 20
131.926
 11
13.2266
 21
131.913
  0
LINE
  8
0
 10
13.2266
 20
131.913
 11
13.2754
 21
131.886
  0
LINE
  8
0
 10
13.2754
 20
131.886
 11
13.2988
 21
131.871
  0
LINE
  8
0
 10
13.2988
 20
131.871
 11
13.3232
 21
131.856
  0
LINE
  8
0
 10
13.3232
 20
131.856
 11
13.3467
 21
131.842
  0
LINE
  8
0
 10
13.3467
 20
131.842
 11
13.3701
 21
131.826
  0
LINE
  8
0
 10
13.3701
 20
131.826
 11
13.3926
 21
131.811
  0
LINE
  8
0
 10
13.3926
 20
131.811
 11
13.46
 21
131.761
  0
LINE
  8
0
 10
13.46
 20
131.761
 11
13.4814
 21
131.743
  0
LINE
  8
0
 10
13.4814
 20
131.743
 11
13.5039
 21
131.726
  0
LINE
  8
0
 10
13.5039
 20
131.726
 11
13.5244
 21
131.708
  0
LINE
  8
0
 10
13.5244
 20
131.708
 11
13.5459
 21
131.689
  0
LINE
  8
0
 10
13.5459
 20
131.689
 11
13.5664
 21
131.67
  0
LINE
  8
0
 10
13.5664
 20
131.67
 11
13.5869
 21
131.651
  0
LINE
  8
0
 10
13.5869
 20
131.651
 11
13.6064
 21
131.632
  0
LINE
  8
0
 10
13.6064
 20
131.632
 11
13.6455
 21
131.591
  0
LINE
  8
0
 10
13.6455
 20
131.591
 11
13.6826
 21
131.55
  0
LINE
  8
0
 10
13.6826
 20
131.55
 11
13.7002
 21
131.528
  0
LINE
  8
0
 10
13.7002
 20
131.528
 11
13.7188
 21
131.507
  0
LINE
  8
0
 10
13.7188
 20
131.507
 11
13.7354
 21
131.485
  0
LINE
  8
0
 10
13.7354
 20
131.485
 11
13.7529
 21
131.463
  0
LINE
  8
0
 10
13.7529
 20
131.463
 11
13.7695
 21
131.44
  0
LINE
  8
0
 10
13.7695
 20
131.44
 11
13.7852
 21
131.418
  0
LINE
  8
0
 10
13.7852
 20
131.418
 11
13.8018
 21
131.395
  0
LINE
  8
0
 10
13.8018
 20
131.395
 11
13.8164
 21
131.371
  0
LINE
  8
0
 10
13.8164
 20
131.371
 11
13.832
 21
131.348
  0
LINE
  8
0
 10
13.832
 20
131.348
 11
13.8467
 21
131.324
  0
LINE
  8
0
 10
13.8467
 20
131.324
 11
13.8877
 21
131.251
  0
LINE
  8
0
 10
13.8877
 20
131.251
 11
13.9004
 21
131.227
  0
LINE
  8
0
 10
13.9004
 20
131.227
 11
13.9131
 21
131.201
  0
LINE
  8
0
 10
13.9131
 20
131.201
 11
13.9482
 21
131.125
  0
LINE
  8
0
 10
13.9482
 20
131.125
 11
13.958
 21
131.1
  0
LINE
  8
0
 10
13.958
 20
131.1
 11
13.9688
 21
131.073
  0
LINE
  8
0
 10
13.9688
 20
131.073
 11
13.9883
 21
131.021
  0
LINE
  8
0
 10
13.9883
 20
131.021
 11
13.9971
 21
130.994
  0
LINE
  8
0
 10
13.9971
 20
130.994
 11
14.0127
 21
130.941
  0
LINE
  8
0
 10
14.0127
 20
130.941
 11
14.0205
 21
130.914
  0
LINE
  8
0
 10
14.0205
 20
130.914
 11
14.0273
 21
130.887
  0
LINE
  8
0
 10
14.0273
 20
130.887
 11
14.0342
 21
130.86
  0
LINE
  8
0
 10
14.0342
 20
130.86
 11
14.0459
 21
130.806
  0
LINE
  8
0
 10
14.0459
 20
130.806
 11
14.0508
 21
130.778
  0
LINE
  8
0
 10
14.0508
 20
130.778
 11
14.0557
 21
130.75
  0
LINE
  8
0
 10
14.0557
 20
130.75
 11
14.0635
 21
130.695
  0
LINE
  8
0
 10
14.0635
 20
130.695
 11
14.0664
 21
130.667
  0
LINE
  8
0
 10
14.0664
 20
130.667
 11
14.0693
 21
130.64
  0
LINE
  8
0
 10
14.0693
 20
130.64
 11
14.0713
 21
130.611
  0
LINE
  8
0
 10
14.0713
 20
130.611
 11
14.0732
 21
130.584
  0
LINE
  8
0
 10
14.0732
 20
130.584
 11
14.0752
 21
130.528
  0
LINE
  8
0
 10
14.0752
 20
130.528
 11
14.0752
 21
130.472
  0
LINE
  8
0
 10
14.0752
 20
130.472
 11
14.0732
 21
130.416
  0
LINE
  8
0
 10
14.0732
 20
130.416
 11
14.0713
 21
130.389
  0
LINE
  8
0
 10
14.0713
 20
130.389
 11
14.0693
 21
130.36
  0
LINE
  8
0
 10
14.0693
 20
130.36
 11
14.0664
 21
130.333
  0
LINE
  8
0
 10
14.0664
 20
130.333
 11
14.0635
 21
130.305
  0
LINE
  8
0
 10
14.0635
 20
130.305
 11
14.0557
 21
130.25
  0
LINE
  8
0
 10
14.0557
 20
130.25
 11
14.0508
 21
130.222
  0
LINE
  8
0
 10
14.0508
 20
130.222
 11
14.0459
 21
130.194
  0
LINE
  8
0
 10
14.0459
 20
130.194
 11
14.0342
 21
130.14
  0
LINE
  8
0
 10
14.0342
 20
130.14
 11
14.0273
 21
130.113
  0
LINE
  8
0
 10
14.0273
 20
130.113
 11
14.0205
 21
130.086
  0
LINE
  8
0
 10
14.0205
 20
130.086
 11
14.0127
 21
130.059
  0
LINE
  8
0
 10
14.0127
 20
130.059
 11
13.9971
 21
130.006
  0
LINE
  8
0
 10
13.9971
 20
130.006
 11
13.9883
 21
129.979
  0
LINE
  8
0
 10
13.9883
 20
129.979
 11
13.9688
 21
129.927
  0
LINE
  8
0
 10
13.9688
 20
129.927
 11
13.958
 21
129.9
  0
LINE
  8
0
 10
13.958
 20
129.9
 11
13.9482
 21
129.875
  0
LINE
  8
0
 10
13.9482
 20
129.875
 11
13.9131
 21
129.799
  0
LINE
  8
0
 10
13.9131
 20
129.799
 11
13.9004
 21
129.773
  0
LINE
  8
0
 10
13.9004
 20
129.773
 11
13.8877
 21
129.749
  0
LINE
  8
0
 10
13.8877
 20
129.749
 11
13.8467
 21
129.676
  0
LINE
  8
0
 10
13.8467
 20
129.676
 11
13.832
 21
129.652
  0
LINE
  8
0
 10
13.832
 20
129.652
 11
13.8164
 21
129.629
  0
LINE
  8
0
 10
13.8164
 20
129.629
 11
13.8018
 21
129.605
  0
LINE
  8
0
 10
13.8018
 20
129.605
 11
13.7852
 21
129.582
  0
LINE
  8
0
 10
13.7852
 20
129.582
 11
13.7695
 21
129.56
  0
LINE
  8
0
 10
13.7695
 20
129.56
 11
13.7529
 21
129.537
  0
LINE
  8
0
 10
13.7529
 20
129.537
 11
13.7354
 21
129.515
  0
LINE
  8
0
 10
13.7354
 20
129.515
 11
13.7188
 21
129.493
  0
LINE
  8
0
 10
13.7188
 20
129.493
 11
13.7002
 21
129.472
  0
LINE
  8
0
 10
13.7002
 20
129.472
 11
13.6826
 21
129.45
  0
LINE
  8
0
 10
13.6826
 20
129.45
 11
13.6455
 21
129.409
  0
LINE
  8
0
 10
13.6455
 20
129.409
 11
13.6064
 21
129.368
  0
LINE
  8
0
 10
13.6064
 20
129.368
 11
13.5869
 21
129.349
  0
LINE
  8
0
 10
13.5869
 20
129.349
 11
13.5664
 21
129.33
  0
LINE
  8
0
 10
13.5664
 20
129.33
 11
13.5459
 21
129.311
  0
LINE
  8
0
 10
13.5459
 20
129.311
 11
13.5244
 21
129.292
  0
LINE
  8
0
 10
13.5244
 20
129.292
 11
13.5039
 21
129.274
  0
LINE
  8
0
 10
13.5039
 20
129.274
 11
13.4814
 21
129.257
  0
LINE
  8
0
 10
13.4814
 20
129.257
 11
13.46
 21
129.239
  0
LINE
  8
0
 10
13.46
 20
129.239
 11
13.3926
 21
129.189
  0
LINE
  8
0
 10
13.3926
 20
129.189
 11
13.3701
 21
129.174
  0
LINE
  8
0
 10
13.3701
 20
129.174
 11
13.3467
 21
129.158
  0
LINE
  8
0
 10
13.3467
 20
129.158
 11
13.3232
 21
129.144
  0
LINE
  8
0
 10
13.3232
 20
129.144
 11
13.2988
 21
129.129
  0
LINE
  8
0
 10
13.2988
 20
129.129
 11
13.2754
 21
129.114
  0
LINE
  8
0
 10
13.2754
 20
129.114
 11
13.2266
 21
129.087
  0
LINE
  8
0
 10
13.2266
 20
129.087
 11
13.2012
 21
129.074
  0
LINE
  8
0
 10
13.2012
 20
129.074
 11
13.1768
 21
129.062
  0
LINE
  8
0
 10
13.1768
 20
129.062
 11
13.126
 21
129.038
  0
LINE
  8
0
 10
13.126
 20
129.038
 11
13.1006
 21
129.027
  0
LINE
  8
0
 10
13.1006
 20
129.027
 11
13.0742
 21
129.017
  0
LINE
  8
0
 10
13.0742
 20
129.017
 11
13.0488
 21
129.006
  0
LINE
  8
0
 10
13.0488
 20
129.006
 11
13.0225
 21
128.996
  0
LINE
  8
0
 10
13.0225
 20
128.996
 11
12.9697
 21
128.979
  0
LINE
  8
0
 10
12.9697
 20
128.979
 11
12.9424
 21
128.97
  0
LINE
  8
0
 10
12.9424
 20
128.97
 11
12.916
 21
128.962
  0
LINE
  8
0
 10
12.916
 20
128.962
 11
12.8887
 21
128.954
  0
LINE
  8
0
 10
12.8887
 20
128.954
 11
12.8623
 21
128.947
  0
LINE
  8
0
 10
12.8623
 20
128.947
 11
12.835
 21
128.941
  0
LINE
  8
0
 10
12.835
 20
128.941
 11
12.8076
 21
128.935
  0
LINE
  8
0
 10
12.8076
 20
128.935
 11
12.7803
 21
128.93
  0
LINE
  8
0
 10
12.7803
 20
128.93
 11
12.7529
 21
128.924
  0
LINE
  8
0
 10
12.7529
 20
128.924
 11
12.7256
 21
128.92
  0
LINE
  8
0
 10
12.7256
 20
128.92
 11
12.6973
 21
128.916
  0
LINE
  8
0
 10
12.6973
 20
128.916
 11
12.6699
 21
128.912
  0
LINE
  8
0
 10
12.6699
 20
128.912
 11
12.6426
 21
128.909
  0
LINE
  8
0
 10
12.6426
 20
128.909
 11
12.6143
 21
128.906
  0
LINE
  8
0
 10
12.6143
 20
128.906
 11
12.5869
 21
128.904
  0
LINE
  8
0
 10
12.5869
 20
128.904
 11
12.5586
 21
128.902
  0
LINE
  8
0
 10
12.5586
 20
128.902
 11
12.5029
 21
128.9
  0
LINE
  8
0
 10
12.5029
 20
128.9
 11
12.4473
 21
128.9
  0
LINE
  8
0
 10
12.4473
 20
76.9004
 11
12.3916
 21
76.9023
  0
LINE
  8
0
 10
12.3916
 20
76.9023
 11
12.3633
 21
76.9043
  0
LINE
  8
0
 10
12.3633
 20
76.9043
 11
12.3359
 21
76.9062
  0
LINE
  8
0
 10
12.3359
 20
76.9062
 11
12.3076
 21
76.9092
  0
LINE
  8
0
 10
12.3076
 20
76.9092
 11
12.2803
 21
76.9121
  0
LINE
  8
0
 10
12.2803
 20
76.9121
 11
12.252
 21
76.916
  0
LINE
  8
0
 10
12.252
 20
76.916
 11
12.1973
 21
76.9238
  0
LINE
  8
0
 10
12.1973
 20
76.9238
 11
12.1699
 21
76.9297
  0
LINE
  8
0
 10
12.1699
 20
76.9297
 11
12.1426
 21
76.9346
  0
LINE
  8
0
 10
12.1426
 20
76.9346
 11
12.1152
 21
76.9414
  0
LINE
  8
0
 10
12.1152
 20
76.9414
 11
12.0879
 21
76.9473
  0
LINE
  8
0
 10
12.0879
 20
76.9473
 11
12.0605
 21
76.9541
  0
LINE
  8
0
 10
12.0605
 20
76.9541
 11
12.0342
 21
76.9619
  0
LINE
  8
0
 10
12.0342
 20
76.9619
 11
12.0068
 21
76.9697
  0
LINE
  8
0
 10
12.0068
 20
76.9697
 11
11.9277
 21
76.9961
  0
LINE
  8
0
 10
11.9277
 20
76.9961
 11
11.9014
 21
77.0059
  0
LINE
  8
0
 10
11.9014
 20
77.0059
 11
11.876
 21
77.0166
  0
LINE
  8
0
 10
11.876
 20
77.0166
 11
11.8496
 21
77.0273
  0
LINE
  8
0
 10
11.8496
 20
77.0273
 11
11.8242
 21
77.0381
  0
LINE
  8
0
 10
11.8242
 20
77.0381
 11
11.7734
 21
77.0615
  0
LINE
  8
0
 10
11.7734
 20
77.0615
 11
11.749
 21
77.0742
  0
LINE
  8
0
 10
11.749
 20
77.0742
 11
11.7236
 21
77.0869
  0
LINE
  8
0
 10
11.7236
 20
77.0869
 11
11.6748
 21
77.1143
  0
LINE
  8
0
 10
11.6748
 20
77.1143
 11
11.6514
 21
77.1289
  0
LINE
  8
0
 10
11.6514
 20
77.1289
 11
11.627
 21
77.1436
  0
LINE
  8
0
 10
11.627
 20
77.1436
 11
11.6035
 21
77.1582
  0
LINE
  8
0
 10
11.6035
 20
77.1582
 11
11.5801
 21
77.1738
  0
LINE
  8
0
 10
11.5801
 20
77.1738
 11
11.5576
 21
77.1895
  0
LINE
  8
0
 10
11.5576
 20
77.1895
 11
11.5342
 21
77.2061
  0
LINE
  8
0
 10
11.5342
 20
77.2061
 11
11.5117
 21
77.2227
  0
LINE
  8
0
 10
11.5117
 20
77.2227
 11
11.4902
 21
77.2393
  0
LINE
  8
0
 10
11.4902
 20
77.2393
 11
11.4678
 21
77.2568
  0
LINE
  8
0
 10
11.4678
 20
77.2568
 11
11.4463
 21
77.2744
  0
LINE
  8
0
 10
11.4463
 20
77.2744
 11
11.4258
 21
77.292
  0
LINE
  8
0
 10
11.4258
 20
77.292
 11
11.4043
 21
77.3105
  0
LINE
  8
0
 10
11.4043
 20
77.3105
 11
11.3838
 21
77.3301
  0
LINE
  8
0
 10
11.3838
 20
77.3301
 11
11.3633
 21
77.3486
  0
LINE
  8
0
 10
11.3633
 20
77.3486
 11
11.3438
 21
77.3682
  0
LINE
  8
0
 10
11.3438
 20
77.3682
 11
11.3047
 21
77.4092
  0
LINE
  8
0
 10
11.3047
 20
77.4092
 11
11.2676
 21
77.4502
  0
LINE
  8
0
 10
11.2676
 20
77.4502
 11
11.249
 21
77.4717
  0
LINE
  8
0
 10
11.249
 20
77.4717
 11
11.2139
 21
77.5146
  0
LINE
  8
0
 10
11.2139
 20
77.5146
 11
11.1641
 21
77.582
  0
LINE
  8
0
 10
11.1641
 20
77.582
 11
11.1328
 21
77.6289
  0
LINE
  8
0
 10
11.1328
 20
77.6289
 11
11.1035
 21
77.6758
  0
LINE
  8
0
 10
11.1035
 20
77.6758
 11
11.0898
 21
77.7002
  0
LINE
  8
0
 10
11.0898
 20
77.7002
 11
11.0752
 21
77.7246
  0
LINE
  8
0
 10
11.0752
 20
77.7246
 11
11.0498
 21
77.7734
  0
LINE
  8
0
 10
11.0498
 20
77.7734
 11
11.0371
 21
77.7988
  0
LINE
  8
0
 10
11.0371
 20
77.7988
 11
11.002
 21
77.875
  0
LINE
  8
0
 10
11.002
 20
77.875
 11
10.9912
 21
77.9004
  0
LINE
  8
0
 10
10.9912
 20
77.9004
 11
10.9619
 21
77.9795
  0
LINE
  8
0
 10
10.9619
 20
77.9795
 11
10.9531
 21
78.0059
  0
LINE
  8
0
 10
10.9531
 20
78.0059
 11
10.9453
 21
78.0322
  0
LINE
  8
0
 10
10.9453
 20
78.0322
 11
10.9365
 21
78.0586
  0
LINE
  8
0
 10
10.9365
 20
78.0586
 11
10.9229
 21
78.1133
  0
LINE
  8
0
 10
10.9229
 20
78.1133
 11
10.916
 21
78.1396
  0
LINE
  8
0
 10
10.916
 20
78.1396
 11
10.9043
 21
78.1943
  0
LINE
  8
0
 10
10.9043
 20
78.1943
 11
10.8994
 21
78.2217
  0
LINE
  8
0
 10
10.8994
 20
78.2217
 11
10.8945
 21
78.25
  0
LINE
  8
0
 10
10.8945
 20
78.25
 11
10.8867
 21
78.3047
  0
LINE
  8
0
 10
10.8867
 20
78.3047
 11
10.8838
 21
78.333
  0
LINE
  8
0
 10
10.8838
 20
78.333
 11
10.8809
 21
78.3604
  0
LINE
  8
0
 10
10.8809
 20
78.3604
 11
10.8789
 21
78.3887
  0
LINE
  8
0
 10
10.8789
 20
78.3887
 11
10.877
 21
78.416
  0
LINE
  8
0
 10
10.877
 20
78.416
 11
10.875
 21
78.4717
  0
LINE
  8
0
 10
10.875
 20
78.4717
 11
10.875
 21
78.5283
  0
LINE
  8
0
 10
10.875
 20
78.5283
 11
10.877
 21
78.584
  0
LINE
  8
0
 10
10.877
 20
78.584
 11
10.8789
 21
78.6113
  0
LINE
  8
0
 10
10.8789
 20
78.6113
 11
10.8809
 21
78.6396
  0
LINE
  8
0
 10
10.8809
 20
78.6396
 11
10.8838
 21
78.667
  0
LINE
  8
0
 10
10.8838
 20
78.667
 11
10.8867
 21
78.6953
  0
LINE
  8
0
 10
10.8867
 20
78.6953
 11
10.8945
 21
78.75
  0
LINE
  8
0
 10
10.8945
 20
78.75
 11
10.8994
 21
78.7783
  0
LINE
  8
0
 10
10.8994
 20
78.7783
 11
10.9043
 21
78.8057
  0
LINE
  8
0
 10
10.9043
 20
78.8057
 11
10.916
 21
78.8604
  0
LINE
  8
0
 10
10.916
 20
78.8604
 11
10.9229
 21
78.8867
  0
LINE
  8
0
 10
10.9229
 20
78.8867
 11
10.9365
 21
78.9414
  0
LINE
  8
0
 10
10.9365
 20
78.9414
 11
10.9453
 21
78.9678
  0
LINE
  8
0
 10
10.9453
 20
78.9678
 11
10.9531
 21
78.9941
  0
LINE
  8
0
 10
10.9531
 20
78.9941
 11
10.9619
 21
79.0205
  0
LINE
  8
0
 10
10.9619
 20
79.0205
 11
10.9912
 21
79.0996
  0
LINE
  8
0
 10
10.9912
 20
79.0996
 11
11.002
 21
79.125
  0
LINE
  8
0
 10
11.002
 20
79.125
 11
11.0371
 21
79.2012
  0
LINE
  8
0
 10
11.0371
 20
79.2012
 11
11.0498
 21
79.2266
  0
LINE
  8
0
 10
11.0498
 20
79.2266
 11
11.0752
 21
79.2754
  0
LINE
  8
0
 10
11.0752
 20
79.2754
 11
11.0898
 21
79.2998
  0
LINE
  8
0
 10
11.0898
 20
79.2998
 11
11.1035
 21
79.3242
  0
LINE
  8
0
 10
11.1035
 20
79.3242
 11
11.1328
 21
79.3711
  0
LINE
  8
0
 10
11.1328
 20
79.3711
 11
11.1641
 21
79.418
  0
LINE
  8
0
 10
11.1641
 20
79.418
 11
11.2139
 21
79.4854
  0
LINE
  8
0
 10
11.2139
 20
79.4854
 11
11.249
 21
79.5283
  0
LINE
  8
0
 10
11.249
 20
79.5283
 11
11.2676
 21
79.5498
  0
LINE
  8
0
 10
11.2676
 20
79.5498
 11
11.3047
 21
79.5908
  0
LINE
  8
0
 10
11.3047
 20
79.5908
 11
11.3438
 21
79.6318
  0
LINE
  8
0
 10
11.3438
 20
79.6318
 11
11.3633
 21
79.6514
  0
LINE
  8
0
 10
11.3633
 20
79.6514
 11
11.3838
 21
79.6699
  0
LINE
  8
0
 10
11.3838
 20
79.6699
 11
11.4043
 21
79.6895
  0
LINE
  8
0
 10
11.4043
 20
79.6895
 11
11.4258
 21
79.708
  0
LINE
  8
0
 10
11.4258
 20
79.708
 11
11.4463
 21
79.7256
  0
LINE
  8
0
 10
11.4463
 20
79.7256
 11
11.4678
 21
79.7432
  0
LINE
  8
0
 10
11.4678
 20
79.7432
 11
11.4902
 21
79.7607
  0
LINE
  8
0
 10
11.4902
 20
79.7607
 11
11.5117
 21
79.7773
  0
LINE
  8
0
 10
11.5117
 20
79.7773
 11
11.5342
 21
79.7939
  0
LINE
  8
0
 10
11.5342
 20
79.7939
 11
11.5576
 21
79.8105
  0
LINE
  8
0
 10
11.5576
 20
79.8105
 11
11.5801
 21
79.8262
  0
LINE
  8
0
 10
11.5801
 20
79.8262
 11
11.6035
 21
79.8418
  0
LINE
  8
0
 10
11.6035
 20
79.8418
 11
11.627
 21
79.8564
  0
LINE
  8
0
 10
11.627
 20
79.8564
 11
11.6514
 21
79.8711
  0
LINE
  8
0
 10
11.6514
 20
79.8711
 11
11.6748
 21
79.8857
  0
LINE
  8
0
 10
11.6748
 20
79.8857
 11
11.7236
 21
79.9131
  0
LINE
  8
0
 10
11.7236
 20
79.9131
 11
11.749
 21
79.9258
  0
LINE
  8
0
 10
11.749
 20
79.9258
 11
11.7734
 21
79.9385
  0
LINE
  8
0
 10
11.7734
 20
79.9385
 11
11.8242
 21
79.9619
  0
LINE
  8
0
 10
11.8242
 20
79.9619
 11
11.8496
 21
79.9727
  0
LINE
  8
0
 10
11.8496
 20
79.9727
 11
11.876
 21
79.9834
  0
LINE
  8
0
 10
11.876
 20
79.9834
 11
11.9014
 21
79.9941
  0
LINE
  8
0
 10
11.9014
 20
79.9941
 11
11.9277
 21
80.0039
  0
LINE
  8
0
 10
11.9277
 20
80.0039
 11
12.0068
 21
80.0303
  0
LINE
  8
0
 10
12.0068
 20
80.0303
 11
12.0342
 21
80.0381
  0
LINE
  8
0
 10
12.0342
 20
80.0381
 11
12.0605
 21
80.0459
  0
LINE
  8
0
 10
12.0605
 20
80.0459
 11
12.0879
 21
80.0527
  0
LINE
  8
0
 10
12.0879
 20
80.0527
 11
12.1152
 21
80.0586
  0
LINE
  8
0
 10
12.1152
 20
80.0586
 11
12.1426
 21
80.0654
  0
LINE
  8
0
 10
12.1426
 20
80.0654
 11
12.1699
 21
80.0703
  0
LINE
  8
0
 10
12.1699
 20
80.0703
 11
12.1973
 21
80.0762
  0
LINE
  8
0
 10
12.1973
 20
80.0762
 11
12.252
 21
80.084
  0
LINE
  8
0
 10
12.252
 20
80.084
 11
12.2803
 21
80.0879
  0
LINE
  8
0
 10
12.2803
 20
80.0879
 11
12.3076
 21
80.0908
  0
LINE
  8
0
 10
12.3076
 20
80.0908
 11
12.3359
 21
80.0938
  0
LINE
  8
0
 10
12.3359
 20
80.0938
 11
12.3633
 21
80.0957
  0
LINE
  8
0
 10
12.3633
 20
80.0957
 11
12.3916
 21
80.0977
  0
LINE
  8
0
 10
12.3916
 20
80.0977
 11
12.4473
 21
80.0996
  0
LINE
  8
0
 10
12.4473
 20
80.0996
 11
12.5029
 21
80.0996
  0
LINE
  8
0
 10
12.5029
 20
80.0996
 11
12.5586
 21
80.0977
  0
LINE
  8
0
 10
12.5586
 20
80.0977
 11
12.5869
 21
80.0957
  0
LINE
  8
0
 10
12.5869
 20
80.0957
 11
12.6143
 21
80.0938
  0
LINE
  8
0
 10
12.6143
 20
80.0938
 11
12.6426
 21
80.0908
  0
LINE
  8
0
 10
12.6426
 20
80.0908
 11
12.6699
 21
80.0879
  0
LINE
  8
0
 10
12.6699
 20
80.0879
 11
12.6973
 21
80.084
  0
LINE
  8
0
 10
12.6973
 20
80.084
 11
12.7256
 21
80.0801
  0
LINE
  8
0
 10
12.7256
 20
80.0801
 11
12.7529
 21
80.0762
  0
LINE
  8
0
 10
12.7529
 20
80.0762
 11
12.7803
 21
80.0703
  0
LINE
  8
0
 10
12.7803
 20
80.0703
 11
12.8076
 21
80.0654
  0
LINE
  8
0
 10
12.8076
 20
80.0654
 11
12.835
 21
80.0586
  0
LINE
  8
0
 10
12.835
 20
80.0586
 11
12.8623
 21
80.0527
  0
LINE
  8
0
 10
12.8623
 20
80.0527
 11
12.8887
 21
80.0459
  0
LINE
  8
0
 10
12.8887
 20
80.0459
 11
12.916
 21
80.0381
  0
LINE
  8
0
 10
12.916
 20
80.0381
 11
12.9424
 21
80.0303
  0
LINE
  8
0
 10
12.9424
 20
80.0303
 11
12.9697
 21
80.0215
  0
LINE
  8
0
 10
12.9697
 20
80.0215
 11
13.0225
 21
80.0039
  0
LINE
  8
0
 10
13.0225
 20
80.0039
 11
13.0488
 21
79.9941
  0
LINE
  8
0
 10
13.0488
 20
79.9941
 11
13.0742
 21
79.9834
  0
LINE
  8
0
 10
13.0742
 20
79.9834
 11
13.1006
 21
79.9727
  0
LINE
  8
0
 10
13.1006
 20
79.9727
 11
13.126
 21
79.9619
  0
LINE
  8
0
 10
13.126
 20
79.9619
 11
13.1768
 21
79.9385
  0
LINE
  8
0
 10
13.1768
 20
79.9385
 11
13.2012
 21
79.9258
  0
LINE
  8
0
 10
13.2012
 20
79.9258
 11
13.2266
 21
79.9131
  0
LINE
  8
0
 10
13.2266
 20
79.9131
 11
13.2754
 21
79.8857
  0
LINE
  8
0
 10
13.2754
 20
79.8857
 11
13.2988
 21
79.8711
  0
LINE
  8
0
 10
13.2988
 20
79.8711
 11
13.3232
 21
79.8564
  0
LINE
  8
0
 10
13.3232
 20
79.8564
 11
13.3467
 21
79.8418
  0
LINE
  8
0
 10
13.3467
 20
79.8418
 11
13.3701
 21
79.8262
  0
LINE
  8
0
 10
13.3701
 20
79.8262
 11
13.3926
 21
79.8105
  0
LINE
  8
0
 10
13.3926
 20
79.8105
 11
13.46
 21
79.7607
  0
LINE
  8
0
 10
13.46
 20
79.7607
 11
13.4814
 21
79.7432
  0
LINE
  8
0
 10
13.4814
 20
79.7432
 11
13.5039
 21
79.7256
  0
LINE
  8
0
 10
13.5039
 20
79.7256
 11
13.5244
 21
79.708
  0
LINE
  8
0
 10
13.5244
 20
79.708
 11
13.5459
 21
79.6895
  0
LINE
  8
0
 10
13.5459
 20
79.6895
 11
13.5664
 21
79.6699
  0
LINE
  8
0
 10
13.5664
 20
79.6699
 11
13.5869
 21
79.6514
  0
LINE
  8
0
 10
13.5869
 20
79.6514
 11
13.6064
 21
79.6318
  0
LINE
  8
0
 10
13.6064
 20
79.6318
 11
13.6455
 21
79.5908
  0
LINE
  8
0
 10
13.6455
 20
79.5908
 11
13.6826
 21
79.5498
  0
LINE
  8
0
 10
13.6826
 20
79.5498
 11
13.7002
 21
79.5283
  0
LINE
  8
0
 10
13.7002
 20
79.5283
 11
13.7188
 21
79.5068
  0
LINE
  8
0
 10
13.7188
 20
79.5068
 11
13.7354
 21
79.4854
  0
LINE
  8
0
 10
13.7354
 20
79.4854
 11
13.7529
 21
79.4629
  0
LINE
  8
0
 10
13.7529
 20
79.4629
 11
13.7695
 21
79.4404
  0
LINE
  8
0
 10
13.7695
 20
79.4404
 11
13.7852
 21
79.418
  0
LINE
  8
0
 10
13.7852
 20
79.418
 11
13.8018
 21
79.3945
  0
LINE
  8
0
 10
13.8018
 20
79.3945
 11
13.8164
 21
79.3711
  0
LINE
  8
0
 10
13.8164
 20
79.3711
 11
13.832
 21
79.3477
  0
LINE
  8
0
 10
13.832
 20
79.3477
 11
13.8467
 21
79.3242
  0
LINE
  8
0
 10
13.8467
 20
79.3242
 11
13.8877
 21
79.251
  0
LINE
  8
0
 10
13.8877
 20
79.251
 11
13.9004
 21
79.2266
  0
LINE
  8
0
 10
13.9004
 20
79.2266
 11
13.9131
 21
79.2012
  0
LINE
  8
0
 10
13.9131
 20
79.2012
 11
13.9482
 21
79.125
  0
LINE
  8
0
 10
13.9482
 20
79.125
 11
13.958
 21
79.0996
  0
LINE
  8
0
 10
13.958
 20
79.0996
 11
13.9688
 21
79.0732
  0
LINE
  8
0
 10
13.9688
 20
79.0732
 11
13.9883
 21
79.0205
  0
LINE
  8
0
 10
13.9883
 20
79.0205
 11
13.9971
 21
78.9941
  0
LINE
  8
0
 10
13.9971
 20
78.9941
 11
14.0127
 21
78.9414
  0
LINE
  8
0
 10
14.0127
 20
78.9414
 11
14.0205
 21
78.9141
  0
LINE
  8
0
 10
14.0205
 20
78.9141
 11
14.0273
 21
78.8867
  0
LINE
  8
0
 10
14.0273
 20
78.8867
 11
14.0342
 21
78.8604
  0
LINE
  8
0
 10
14.0342
 20
78.8604
 11
14.0459
 21
78.8057
  0
LINE
  8
0
 10
14.0459
 20
78.8057
 11
14.0508
 21
78.7783
  0
LINE
  8
0
 10
14.0508
 20
78.7783
 11
14.0557
 21
78.75
  0
LINE
  8
0
 10
14.0557
 20
78.75
 11
14.0635
 21
78.6953
  0
LINE
  8
0
 10
14.0635
 20
78.6953
 11
14.0664
 21
78.667
  0
LINE
  8
0
 10
14.0664
 20
78.667
 11
14.0693
 21
78.6396
  0
LINE
  8
0
 10
14.0693
 20
78.6396
 11
14.0713
 21
78.6113
  0
LINE
  8
0
 10
14.0713
 20
78.6113
 11
14.0732
 21
78.584
  0
LINE
  8
0
 10
14.0732
 20
78.584
 11
14.0752
 21
78.5283
  0
LINE
  8
0
 10
14.0752
 20
78.5283
 11
14.0752
 21
78.4717
  0
LINE
  8
0
 10
14.0752
 20
78.4717
 11
14.0732
 21
78.416
  0
LINE
  8
0
 10
14.0732
 20
78.416
 11
14.0713
 21
78.3887
  0
LINE
  8
0
 10
14.0713
 20
78.3887
 11
14.0693
 21
78.3604
  0
LINE
  8
0
 10
14.0693
 20
78.3604
 11
14.0664
 21
78.333
  0
LINE
  8
0
 10
14.0664
 20
78.333
 11
14.0635
 21
78.3047
  0
LINE
  8
0
 10
14.0635
 20
78.3047
 11
14.0557
 21
78.25
  0
LINE
  8
0
 10
14.0557
 20
78.25
 11
14.0508
 21
78.2217
  0
LINE
  8
0
 10
14.0508
 20
78.2217
 11
14.0459
 21
78.1943
  0
LINE
  8
0
 10
14.0459
 20
78.1943
 11
14.0342
 21
78.1396
  0
LINE
  8
0
 10
14.0342
 20
78.1396
 11
14.0273
 21
78.1133
  0
LINE
  8
0
 10
14.0273
 20
78.1133
 11
14.0205
 21
78.0859
  0
LINE
  8
0
 10
14.0205
 20
78.0859
 11
14.0127
 21
78.0586
  0
LINE
  8
0
 10
14.0127
 20
78.0586
 11
13.9971
 21
78.0059
  0
LINE
  8
0
 10
13.9971
 20
78.0059
 11
13.9883
 21
77.9795
  0
LINE
  8
0
 10
13.9883
 20
77.9795
 11
13.9688
 21
77.9268
  0
LINE
  8
0
 10
13.9688
 20
77.9268
 11
13.958
 21
77.9004
  0
LINE
  8
0
 10
13.958
 20
77.9004
 11
13.9482
 21
77.875
  0
LINE
  8
0
 10
13.9482
 20
77.875
 11
13.9131
 21
77.7988
  0
LINE
  8
0
 10
13.9131
 20
77.7988
 11
13.9004
 21
77.7734
  0
LINE
  8
0
 10
13.9004
 20
77.7734
 11
13.8877
 21
77.749
  0
LINE
  8
0
 10
13.8877
 20
77.749
 11
13.8467
 21
77.6758
  0
LINE
  8
0
 10
13.8467
 20
77.6758
 11
13.832
 21
77.6523
  0
LINE
  8
0
 10
13.832
 20
77.6523
 11
13.8164
 21
77.6289
  0
LINE
  8
0
 10
13.8164
 20
77.6289
 11
13.8018
 21
77.6055
  0
LINE
  8
0
 10
13.8018
 20
77.6055
 11
13.7852
 21
77.582
  0
LINE
  8
0
 10
13.7852
 20
77.582
 11
13.7695
 21
77.5596
  0
LINE
  8
0
 10
13.7695
 20
77.5596
 11
13.7529
 21
77.5371
  0
LINE
  8
0
 10
13.7529
 20
77.5371
 11
13.7354
 21
77.5146
  0
LINE
  8
0
 10
13.7354
 20
77.5146
 11
13.7188
 21
77.4932
  0
LINE
  8
0
 10
13.7188
 20
77.4932
 11
13.7002
 21
77.4717
  0
LINE
  8
0
 10
13.7002
 20
77.4717
 11
13.6826
 21
77.4502
  0
LINE
  8
0
 10
13.6826
 20
77.4502
 11
13.6455
 21
77.4092
  0
LINE
  8
0
 10
13.6455
 20
77.4092
 11
13.6064
 21
77.3682
  0
LINE
  8
0
 10
13.6064
 20
77.3682
 11
13.5869
 21
77.3486
  0
LINE
  8
0
 10
13.5869
 20
77.3486
 11
13.5664
 21
77.3301
  0
LINE
  8
0
 10
13.5664
 20
77.3301
 11
13.5459
 21
77.3105
  0
LINE
  8
0
 10
13.5459
 20
77.3105
 11
13.5244
 21
77.292
  0
LINE
  8
0
 10
13.5244
 20
77.292
 11
13.5039
 21
77.2744
  0
LINE
  8
0
 10
13.5039
 20
77.2744
 11
13.4814
 21
77.2568
  0
LINE
  8
0
 10
13.4814
 20
77.2568
 11
13.46
 21
77.2393
  0
LINE
  8
0
 10
13.46
 20
77.2393
 11
13.3926
 21
77.1895
  0
LINE
  8
0
 10
13.3926
 20
77.1895
 11
13.3701
 21
77.1738
  0
LINE
  8
0
 10
13.3701
 20
77.1738
 11
13.3467
 21
77.1582
  0
LINE
  8
0
 10
13.3467
 20
77.1582
 11
13.3232
 21
77.1436
  0
LINE
  8
0
 10
13.3232
 20
77.1436
 11
13.2988
 21
77.1289
  0
LINE
  8
0
 10
13.2988
 20
77.1289
 11
13.2754
 21
77.1143
  0
LINE
  8
0
 10
13.2754
 20
77.1143
 11
13.2266
 21
77.0869
  0
LINE
  8
0
 10
13.2266
 20
77.0869
 11
13.2012
 21
77.0742
  0
LINE
  8
0
 10
13.2012
 20
77.0742
 11
13.1768
 21
77.0615
  0
LINE
  8
0
 10
13.1768
 20
77.0615
 11
13.126
 21
77.0381
  0
LINE
  8
0
 10
13.126
 20
77.0381
 11
13.1006
 21
77.0273
  0
LINE
  8
0
 10
13.1006
 20
77.0273
 11
13.0742
 21
77.0166
  0
LINE
  8
0
 10
13.0742
 20
77.0166
 11
13.0488
 21
77.0059
  0
LINE
  8
0
 10
13.0488
 20
77.0059
 11
13.0225
 21
76.9961
  0
LINE
  8
0
 10
13.0225
 20
76.9961
 11
12.9697
 21
76.9785
  0
LINE
  8
0
 10
12.9697
 20
76.9785
 11
12.9424
 21
76.9697
  0
LINE
  8
0
 10
12.9424
 20
76.9697
 11
12.916
 21
76.9619
  0
LINE
  8
0
 10
12.916
 20
76.9619
 11
12.8887
 21
76.9541
  0
LINE
  8
0
 10
12.8887
 20
76.9541
 11
12.8623
 21
76.9473
  0
LINE
  8
0
 10
12.8623
 20
76.9473
 11
12.835
 21
76.9414
  0
LINE
  8
0
 10
12.835
 20
76.9414
 11
12.8076
 21
76.9346
  0
LINE
  8
0
 10
12.8076
 20
76.9346
 11
12.7803
 21
76.9297
  0
LINE
  8
0
 10
12.7803
 20
76.9297
 11
12.7529
 21
76.9238
  0
LINE
  8
0
 10
12.7529
 20
76.9238
 11
12.7256
 21
76.9199
  0
LINE
  8
0
 10
12.7256
 20
76.9199
 11
12.6973
 21
76.916
  0
LINE
  8
0
 10
12.6973
 20
76.916
 11
12.6699
 21
76.9121
  0
LINE
  8
0
 10
12.6699
 20
76.9121
 11
12.6426
 21
76.9092
  0
LINE
  8
0
 10
12.6426
 20
76.9092
 11
12.6143
 21
76.9062
  0
LINE
  8
0
 10
12.6143
 20
76.9062
 11
12.5869
 21
76.9043
  0
LINE
  8
0
 10
12.5869
 20
76.9043
 11
12.5586
 21
76.9023
  0
LINE
  8
0
 10
12.5586
 20
76.9023
 11
12.5029
 21
76.9004
  0
LINE
  8
0
 10
12.5029
 20
76.9004
 11
12.4473
 21
76.9004
  0
LINE
  8
0
 10
88.4473
 20
76.9004
 11
88.3916
 21
76.9023
  0
LINE
  8
0
 10
88.3916
 20
76.9023
 11
88.3633
 21
76.9043
  0
LINE
  8
0
 10
88.3633
 20
76.9043
 11
88.3359
 21
76.9062
  0
LINE
  8
0
 10
88.3359
 20
76.9062
 11
88.3076
 21
76.9092
  0
LINE
  8
0
 10
88.3076
 20
76.9092
 11
88.2803
 21
76.9121
  0
LINE
  8
0
 10
88.2803
 20
76.9121
 11
88.252
 21
76.916
  0
LINE
  8
0
 10
88.252
 20
76.916
 11
88.1973
 21
76.9238
  0
LINE
  8
0
 10
88.1973
 20
76.9238
 11
88.1699
 21
76.9297
  0
LINE
  8
0
 10
88.1699
 20
76.9297
 11
88.1426
 21
76.9346
  0
LINE
  8
0
 10
88.1426
 20
76.9346
 11
88.1152
 21
76.9414
  0
LINE
  8
0
 10
88.1152
 20
76.9414
 11
88.0879
 21
76.9473
  0
LINE
  8
0
 10
88.0879
 20
76.9473
 11
88.0605
 21
76.9541
  0
LINE
  8
0
 10
88.0605
 20
76.9541
 11
88.0342
 21
76.9619
  0
LINE
  8
0
 10
88.0342
 20
76.9619
 11
88.0068
 21
76.9697
  0
LINE
  8
0
 10
88.0068
 20
76.9697
 11
87.9277
 21
76.9961
  0
LINE
  8
0
 10
87.9277
 20
76.9961
 11
87.9014
 21
77.0059
  0
LINE
  8
0
 10
87.9014
 20
77.0059
 11
87.876
 21
77.0166
  0
LINE
  8
0
 10
87.876
 20
77.0166
 11
87.8496
 21
77.0273
  0
LINE
  8
0
 10
87.8496
 20
77.0273
 11
87.8242
 21
77.0381
  0
LINE
  8
0
 10
87.8242
 20
77.0381
 11
87.7734
 21
77.0615
  0
LINE
  8
0
 10
87.7734
 20
77.0615
 11
87.749
 21
77.0742
  0
LINE
  8
0
 10
87.749
 20
77.0742
 11
87.7236
 21
77.0869
  0
LINE
  8
0
 10
87.7236
 20
77.0869
 11
87.6748
 21
77.1143
  0
LINE
  8
0
 10
87.6748
 20
77.1143
 11
87.6514
 21
77.1289
  0
LINE
  8
0
 10
87.6514
 20
77.1289
 11
87.627
 21
77.1436
  0
LINE
  8
0
 10
87.627
 20
77.1436
 11
87.6035
 21
77.1582
  0
LINE
  8
0
 10
87.6035
 20
77.1582
 11
87.5801
 21
77.1738
  0
LINE
  8
0
 10
87.5801
 20
77.1738
 11
87.5576
 21
77.1895
  0
LINE
  8
0
 10
87.5576
 20
77.1895
 11
87.5342
 21
77.2061
  0
LINE
  8
0
 10
87.5342
 20
77.2061
 11
87.5117
 21
77.2227
  0
LINE
  8
0
 10
87.5117
 20
77.2227
 11
87.4902
 21
77.2393
  0
LINE
  8
0
 10
87.4902
 20
77.2393
 11
87.4678
 21
77.2568
  0
LINE
  8
0
 10
87.4678
 20
77.2568
 11
87.4463
 21
77.2744
  0
LINE
  8
0
 10
87.4463
 20
77.2744
 11
87.4258
 21
77.292
  0
LINE
  8
0
 10
87.4258
 20
77.292
 11
87.4043
 21
77.3105
  0
LINE
  8
0
 10
87.4043
 20
77.3105
 11
87.3838
 21
77.3301
  0
LINE
  8
0
 10
87.3838
 20
77.3301
 11
87.3633
 21
77.3486
  0
LINE
  8
0
 10
87.3633
 20
77.3486
 11
87.3438
 21
77.3682
  0
LINE
  8
0
 10
87.3438
 20
77.3682
 11
87.3047
 21
77.4092
  0
LINE
  8
0
 10
87.3047
 20
77.4092
 11
87.2676
 21
77.4502
  0
LINE
  8
0
 10
87.2676
 20
77.4502
 11
87.249
 21
77.4717
  0
LINE
  8
0
 10
87.249
 20
77.4717
 11
87.2139
 21
77.5146
  0
LINE
  8
0
 10
87.2139
 20
77.5146
 11
87.1641
 21
77.582
  0
LINE
  8
0
 10
87.1641
 20
77.582
 11
87.1328
 21
77.6289
  0
LINE
  8
0
 10
87.1328
 20
77.6289
 11
87.1035
 21
77.6758
  0
LINE
  8
0
 10
87.1035
 20
77.6758
 11
87.0898
 21
77.7002
  0
LINE
  8
0
 10
87.0898
 20
77.7002
 11
87.0752
 21
77.7246
  0
LINE
  8
0
 10
87.0752
 20
77.7246
 11
87.0498
 21
77.7734
  0
LINE
  8
0
 10
87.0498
 20
77.7734
 11
87.0371
 21
77.7988
  0
LINE
  8
0
 10
87.0371
 20
77.7988
 11
87.002
 21
77.875
  0
LINE
  8
0
 10
87.002
 20
77.875
 11
86.9912
 21
77.9004
  0
LINE
  8
0
 10
86.9912
 20
77.9004
 11
86.9619
 21
77.9795
  0
LINE
  8
0
 10
86.9619
 20
77.9795
 11
86.9531
 21
78.0059
  0
LINE
  8
0
 10
86.9531
 20
78.0059
 11
86.9453
 21
78.0322
  0
LINE
  8
0
 10
86.9453
 20
78.0322
 11
86.9365
 21
78.0586
  0
LINE
  8
0
 10
86.9365
 20
78.0586
 11
86.9229
 21
78.1133
  0
LINE
  8
0
 10
86.9229
 20
78.1133
 11
86.916
 21
78.1396
  0
LINE
  8
0
 10
86.916
 20
78.1396
 11
86.9043
 21
78.1943
  0
LINE
  8
0
 10
86.9043
 20
78.1943
 11
86.8994
 21
78.2217
  0
LINE
  8
0
 10
86.8994
 20
78.2217
 11
86.8945
 21
78.25
  0
LINE
  8
0
 10
86.8945
 20
78.25
 11
86.8867
 21
78.3047
  0
LINE
  8
0
 10
86.8867
 20
78.3047
 11
86.8838
 21
78.333
  0
LINE
  8
0
 10
86.8838
 20
78.333
 11
86.8809
 21
78.3604
  0
LINE
  8
0
 10
86.8809
 20
78.3604
 11
86.8789
 21
78.3887
  0
LINE
  8
0
 10
86.8789
 20
78.3887
 11
86.877
 21
78.416
  0
LINE
  8
0
 10
86.877
 20
78.416
 11
86.875
 21
78.4717
  0
LINE
  8
0
 10
86.875
 20
78.4717
 11
86.875
 21
78.5283
  0
LINE
  8
0
 10
86.875
 20
78.5283
 11
86.877
 21
78.584
  0
LINE
  8
0
 10
86.877
 20
78.584
 11
86.8789
 21
78.6113
  0
LINE
  8
0
 10
86.8789
 20
78.6113
 11
86.8809
 21
78.6396
  0
LINE
  8
0
 10
86.8809
 20
78.6396
 11
86.8838
 21
78.667
  0
LINE
  8
0
 10
86.8838
 20
78.667
 11
86.8867
 21
78.6953
  0
LINE
  8
0
 10
86.8867
 20
78.6953
 11
86.8945
 21
78.75
  0
LINE
  8
0
 10
86.8945
 20
78.75
 11
86.8994
 21
78.7783
  0
LINE
  8
0
 10
86.8994
 20
78.7783
 11
86.9043
 21
78.8057
  0
LINE
  8
0
 10
86.9043
 20
78.8057
 11
86.916
 21
78.8604
  0
LINE
  8
0
 10
86.916
 20
78.8604
 11
86.9229
 21
78.8867
  0
LINE
  8
0
 10
86.9229
 20
78.8867
 11
86.9365
 21
78.9414
  0
LINE
  8
0
 10
86.9365
 20
78.9414
 11
86.9453
 21
78.9678
  0
LINE
  8
0
 10
86.9453
 20
78.9678
 11
86.9531
 21
78.9941
  0
LINE
  8
0
 10
86.9531
 20
78.9941
 11
86.9619
 21
79.0205
  0
LINE
  8
0
 10
86.9619
 20
79.0205
 11
86.9912
 21
79.0996
  0
LINE
  8
0
 10
86.9912
 20
79.0996
 11
87.002
 21
79.125
  0
LINE
  8
0
 10
87.002
 20
79.125
 11
87.0371
 21
79.2012
  0
LINE
  8
0
 10
87.0371
 20
79.2012
 11
87.0498
 21
79.2266
  0
LINE
  8
0
 10
87.0498
 20
79.2266
 11
87.0752
 21
79.2754
  0
LINE
  8
0
 10
87.0752
 20
79.2754
 11
87.0898
 21
79.2998
  0
LINE
  8
0
 10
87.0898
 20
79.2998
 11
87.1035
 21
79.3242
  0
LINE
  8
0
 10
87.1035
 20
79.3242
 11
87.1328
 21
79.3711
  0
LINE
  8
0
 10
87.1328
 20
79.3711
 11
87.1641
 21
79.418
  0
LINE
  8
0
 10
87.1641
 20
79.418
 11
87.2139
 21
79.4854
  0
LINE
  8
0
 10
87.2139
 20
79.4854
 11
87.249
 21
79.5283
  0
LINE
  8
0
 10
87.249
 20
79.5283
 11
87.2676
 21
79.5498
  0
LINE
  8
0
 10
87.2676
 20
79.5498
 11
87.3047
 21
79.5908
  0
LINE
  8
0
 10
87.3047
 20
79.5908
 11
87.3438
 21
79.6318
  0
LINE
  8
0
 10
87.3438
 20
79.6318
 11
87.3633
 21
79.6514
  0
LINE
  8
0
 10
87.3633
 20
79.6514
 11
87.3838
 21
79.6699
  0
LINE
  8
0
 10
87.3838
 20
79.6699
 11
87.4043
 21
79.6895
  0
LINE
  8
0
 10
87.4043
 20
79.6895
 11
87.4258
 21
79.708
  0
LINE
  8
0
 10
87.4258
 20
79.708
 11
87.4463
 21
79.7256
  0
LINE
  8
0
 10
87.4463
 20
79.7256
 11
87.4678
 21
79.7432
  0
LINE
  8
0
 10
87.4678
 20
79.7432
 11
87.4902
 21
79.7607
  0
LINE
  8
0
 10
87.4902
 20
79.7607
 11
87.5117
 21
79.7773
  0
LINE
  8
0
 10
87.5117
 20
79.7773
 11
87.5342
 21
79.7939
  0
LINE
  8
0
 10
87.5342
 20
79.7939
 11
87.5576
 21
79.8105
  0
LINE
  8
0
 10
87.5576
 20
79.8105
 11
87.5801
 21
79.8262
  0
LINE
  8
0
 10
87.5801
 20
79.8262
 11
87.6035
 21
79.8418
  0
LINE
  8
0
 10
87.6035
 20
79.8418
 11
87.627
 21
79.8564
  0
LINE
  8
0
 10
87.627
 20
79.8564
 11
87.6514
 21
79.8711
  0
LINE
  8
0
 10
87.6514
 20
79.8711
 11
87.6748
 21
79.8857
  0
LINE
  8
0
 10
87.6748
 20
79.8857
 11
87.7236
 21
79.9131
  0
LINE
  8
0
 10
87.7236
 20
79.9131
 11
87.749
 21
79.9258
  0
LINE
  8
0
 10
87.749
 20
79.9258
 11
87.7734
 21
79.9385
  0
LINE
  8
0
 10
87.7734
 20
79.9385
 11
87.8242
 21
79.9619
  0
LINE
  8
0
 10
87.8242
 20
79.9619
 11
87.8496
 21
79.9727
  0
LINE
  8
0
 10
87.8496
 20
79.9727
 11
87.876
 21
79.9834
  0
LINE
  8
0
 10
87.876
 20
79.9834
 11
87.9014
 21
79.9941
  0
LINE
  8
0
 10
87.9014
 20
79.9941
 11
87.9277
 21
80.0039
  0
LINE
  8
0
 10
87.9277
 20
80.0039
 11
88.0068
 21
80.0303
  0
LINE
  8
0
 10
88.0068
 20
80.0303
 11
88.0342
 21
80.0381
  0
LINE
  8
0
 10
88.0342
 20
80.0381
 11
88.0605
 21
80.0459
  0
LINE
  8
0
 10
88.0605
 20
80.0459
 11
88.0879
 21
80.0527
  0
LINE
  8
0
 10
88.0879
 20
80.0527
 11
88.1152
 21
80.0586
  0
LINE
  8
0
 10
88.1152
 20
80.0586
 11
88.1426
 21
80.0654
  0
LINE
  8
0
 10
88.1426
 20
80.0654
 11
88.1699
 21
80.0703
  0
LINE
  8
0
 10
88.1699
 20
80.0703
 11
88.1973
 21
80.0762
  0
LINE
  8
0
 10
88.1973
 20
80.0762
 11
88.252
 21
80.084
  0
LINE
  8
0
 10
88.252
 20
80.084
 11
88.2803
 21
80.0879
  0
LINE
  8
0
 10
88.2803
 20
80.0879
 11
88.3076
 21
80.0908
  0
LINE
  8
0
 10
88.3076
 20
80.0908
 11
88.3359
 21
80.0938
  0
LINE
  8
0
 10
88.3359
 20
80.0938
 11
88.3633
 21
80.0957
  0
LINE
  8
0
 10
88.3633
 20
80.0957
 11
88.3916
 21
80.0977
  0
LINE
  8
0
 10
88.3916
 20
80.0977
 11
88.4473
 21
80.0996
  0
LINE
  8
0
 10
88.4473
 20
80.0996
 11
88.5029
 21
80.0996
  0
LINE
  8
0
 10
88.5029
 20
80.0996
 11
88.5586
 21
80.0977
  0
LINE
  8
0
 10
88.5586
 20
80.0977
 11
88.5869
 21
80.0957
  0
LINE
  8
0
 10
88.5869
 20
80.0957
 11
88.6143
 21
80.0938
  0
LINE
  8
0
 10
88.6143
 20
80.0938
 11
88.6426
 21
80.0908
  0
LINE
  8
0
 10
88.6426
 20
80.0908
 11
88.6699
 21
80.0879
  0
LINE
  8
0
 10
88.6699
 20
80.0879
 11
88.6973
 21
80.084
  0
LINE
  8
0
 10
88.6973
 20
80.084
 11
88.7256
 21
80.0801
  0
LINE
  8
0
 10
88.7256
 20
80.0801
 11
88.7529
 21
80.0762
  0
LINE
  8
0
 10
88.7529
 20
80.0762
 11
88.7803
 21
80.0703
  0
LINE
  8
0
 10
88.7803
 20
80.0703
 11
88.8076
 21
80.0654
  0
LINE
  8
0
 10
88.8076
 20
80.0654
 11
88.835
 21
80.0586
  0
LINE
  8
0
 10
88.835
 20
80.0586
 11
88.8623
 21
80.0527
  0
LINE
  8
0
 10
88.8623
 20
80.0527
 11
88.8887
 21
80.0459
  0
LINE
  8
0
 10
88.8887
 20
80.0459
 11
88.916
 21
80.0381
  0
LINE
  8
0
 10
88.916
 20
80.0381
 11
88.9424
 21
80.0303
  0
LINE
  8
0
 10
88.9424
 20
80.0303
 11
88.9697
 21
80.0215
  0
LINE
  8
0
 10
88.9697
 20
80.0215
 11
89.0225
 21
80.0039
  0
LINE
  8
0
 10
89.0225
 20
80.0039
 11
89.0488
 21
79.9941
  0
LINE
  8
0
 10
89.0488
 20
79.9941
 11
89.0742
 21
79.9834
  0
LINE
  8
0
 10
89.0742
 20
79.9834
 11
89.1006
 21
79.9727
  0
LINE
  8
0
 10
89.1006
 20
79.9727
 11
89.126
 21
79.9619
  0
LINE
  8
0
 10
89.126
 20
79.9619
 11
89.1768
 21
79.9385
  0
LINE
  8
0
 10
89.1768
 20
79.9385
 11
89.2012
 21
79.9258
  0
LINE
  8
0
 10
89.2012
 20
79.9258
 11
89.2266
 21
79.9131
  0
LINE
  8
0
 10
89.2266
 20
79.9131
 11
89.2754
 21
79.8857
  0
LINE
  8
0
 10
89.2754
 20
79.8857
 11
89.2988
 21
79.8711
  0
LINE
  8
0
 10
89.2988
 20
79.8711
 11
89.3232
 21
79.8564
  0
LINE
  8
0
 10
89.3232
 20
79.8564
 11
89.3467
 21
79.8418
  0
LINE
  8
0
 10
89.3467
 20
79.8418
 11
89.3701
 21
79.8262
  0
LINE
  8
0
 10
89.3701
 20
79.8262
 11
89.3926
 21
79.8105
  0
LINE
  8
0
 10
89.3926
 20
79.8105
 11
89.46
 21
79.7607
  0
LINE
  8
0
 10
89.46
 20
79.7607
 11
89.4814
 21
79.7432
  0
LINE
  8
0
 10
89.4814
 20
79.7432
 11
89.5039
 21
79.7256
  0
LINE
  8
0
 10
89.5039
 20
79.7256
 11
89.5244
 21
79.708
  0
LINE
  8
0
 10
89.5244
 20
79.708
 11
89.5459
 21
79.6895
  0
LINE
  8
0
 10
89.5459
 20
79.6895
 11
89.5664
 21
79.6699
  0
LINE
  8
0
 10
89.5664
 20
79.6699
 11
89.5869
 21
79.6514
  0
LINE
  8
0
 10
89.5869
 20
79.6514
 11
89.6064
 21
79.6318
  0
LINE
  8
0
 10
89.6064
 20
79.6318
 11
89.6455
 21
79.5908
  0
LINE
  8
0
 10
89.6455
 20
79.5908
 11
89.6826
 21
79.5498
  0
LINE
  8
0
 10
89.6826
 20
79.5498
 11
89.7002
 21
79.5283
  0
LINE
  8
0
 10
89.7002
 20
79.5283
 11
89.7188
 21
79.5068
  0
LINE
  8
0
 10
89.7188
 20
79.5068
 11
89.7354
 21
79.4854
  0
LINE
  8
0
 10
89.7354
 20
79.4854
 11
89.7529
 21
79.4629
  0
LINE
  8
0
 10
89.7529
 20
79.4629
 11
89.7695
 21
79.4404
  0
LINE
  8
0
 10
89.7695
 20
79.4404
 11
89.7852
 21
79.418
  0
LINE
  8
0
 10
89.7852
 20
79.418
 11
89.8018
 21
79.3945
  0
LINE
  8
0
 10
89.8018
 20
79.3945
 11
89.8164
 21
79.3711
  0
LINE
  8
0
 10
89.8164
 20
79.3711
 11
89.832
 21
79.3477
  0
LINE
  8
0
 10
89.832
 20
79.3477
 11
89.8467
 21
79.3242
  0
LINE
  8
0
 10
89.8467
 20
79.3242
 11
89.8877
 21
79.251
  0
LINE
  8
0
 10
89.8877
 20
79.251
 11
89.9004
 21
79.2266
  0
LINE
  8
0
 10
89.9004
 20
79.2266
 11
89.9131
 21
79.2012
  0
LINE
  8
0
 10
89.9131
 20
79.2012
 11
89.9482
 21
79.125
  0
LINE
  8
0
 10
89.9482
 20
79.125
 11
89.958
 21
79.0996
  0
LINE
  8
0
 10
89.958
 20
79.0996
 11
89.9688
 21
79.0732
  0
LINE
  8
0
 10
89.9688
 20
79.0732
 11
89.9883
 21
79.0205
  0
LINE
  8
0
 10
89.9883
 20
79.0205
 11
89.9971
 21
78.9941
  0
LINE
  8
0
 10
89.9971
 20
78.9941
 11
90.0127
 21
78.9414
  0
LINE
  8
0
 10
90.0127
 20
78.9414
 11
90.0205
 21
78.9141
  0
LINE
  8
0
 10
90.0205
 20
78.9141
 11
90.0273
 21
78.8867
  0
LINE
  8
0
 10
90.0273
 20
78.8867
 11
90.0342
 21
78.8604
  0
LINE
  8
0
 10
90.0342
 20
78.8604
 11
90.0459
 21
78.8057
  0
LINE
  8
0
 10
90.0459
 20
78.8057
 11
90.0508
 21
78.7783
  0
LINE
  8
0
 10
90.0508
 20
78.7783
 11
90.0557
 21
78.75
  0
LINE
  8
0
 10
90.0557
 20
78.75
 11
90.0635
 21
78.6953
  0
LINE
  8
0
 10
90.0635
 20
78.6953
 11
90.0664
 21
78.667
  0
LINE
  8
0
 10
90.0664
 20
78.667
 11
90.0693
 21
78.6396
  0
LINE
  8
0
 10
90.0693
 20
78.6396
 11
90.0713
 21
78.6113
  0
LINE
  8
0
 10
90.0713
 20
78.6113
 11
90.0732
 21
78.584
  0
LINE
  8
0
 10
90.0732
 20
78.584
 11
90.0752
 21
78.5283
  0
LINE
  8
0
 10
90.0752
 20
78.5283
 11
90.0752
 21
78.4717
  0
LINE
  8
0
 10
90.0752
 20
78.4717
 11
90.0732
 21
78.416
  0
LINE
  8
0
 10
90.0732
 20
78.416
 11
90.0713
 21
78.3887
  0
LINE
  8
0
 10
90.0713
 20
78.3887
 11
90.0693
 21
78.3604
  0
LINE
  8
0
 10
90.0693
 20
78.3604
 11
90.0664
 21
78.333
  0
LINE
  8
0
 10
90.0664
 20
78.333
 11
90.0635
 21
78.3047
  0
LINE
  8
0
 10
90.0635
 20
78.3047
 11
90.0557
 21
78.25
  0
LINE
  8
0
 10
90.0557
 20
78.25
 11
90.0508
 21
78.2217
  0
LINE
  8
0
 10
90.0508
 20
78.2217
 11
90.0459
 21
78.1943
  0
LINE
  8
0
 10
90.0459
 20
78.1943
 11
90.0342
 21
78.1396
  0
LINE
  8
0
 10
90.0342
 20
78.1396
 11
90.0273
 21
78.1133
  0
LINE
  8
0
 10
90.0273
 20
78.1133
 11
90.0205
 21
78.0859
  0
LINE
  8
0
 10
90.0205
 20
78.0859
 11
90.0127
 21
78.0586
  0
LINE
  8
0
 10
90.0127
 20
78.0586
 11
89.9971
 21
78.0059
  0
LINE
  8
0
 10
89.9971
 20
78.0059
 11
89.9883
 21
77.9795
  0
LINE
  8
0
 10
89.9883
 20
77.9795
 11
89.9688
 21
77.9268
  0
LINE
  8
0
 10
89.9688
 20
77.9268
 11
89.958
 21
77.9004
  0
LINE
  8
0
 10
89.958
 20
77.9004
 11
89.9482
 21
77.875
  0
LINE
  8
0
 10
89.9482
 20
77.875
 11
89.9131
 21
77.7988
  0
LINE
  8
0
 10
89.9131
 20
77.7988
 11
89.9004
 21
77.7734
  0
LINE
  8
0
 10
89.9004
 20
77.7734
 11
89.8877
 21
77.749
  0
LINE
  8
0
 10
89.8877
 20
77.749
 11
89.8467
 21
77.6758
  0
LINE
  8
0
 10
89.8467
 20
77.6758
 11
89.832
 21
77.6523
  0
LINE
  8
0
 10
89.832
 20
77.6523
 11
89.8164
 21
77.6289
  0
LINE
  8
0
 10
89.8164
 20
77.6289
 11
89.8018
 21
77.6055
  0
LINE
  8
0
 10
89.8018
 20
77.6055
 11
89.7852
 21
77.582
  0
LINE
  8
0
 10
89.7852
 20
77.582
 11
89.7695
 21
77.5596
  0
LINE
  8
0
 10
89.7695
 20
77.5596
 11
89.7529
 21
77.5371
  0
LINE
  8
0
 10
89.7529
 20
77.5371
 11
89.7354
 21
77.5146
  0
LINE
  8
0
 10
89.7354
 20
77.5146
 11
89.7188
 21
77.4932
  0
LINE
  8
0
 10
89.7188
 20
77.4932
 11
89.7002
 21
77.4717
  0
LINE
  8
0
 10
89.7002
 20
77.4717
 11
89.6826
 21
77.4502
  0
LINE
  8
0
 10
89.6826
 20
77.4502
 11
89.6455
 21
77.4092
  0
LINE
  8
0
 10
89.6455
 20
77.4092
 11
89.6064
 21
77.3682
  0
LINE
  8
0
 10
89.6064
 20
77.3682
 11
89.5869
 21
77.3486
  0
LINE
  8
0
 10
89.5869
 20
77.3486
 11
89.5664
 21
77.3301
  0
LINE
  8
0
 10
89.5664
 20
77.3301
 11
89.5459
 21
77.3105
  0
LINE
  8
0
 10
89.5459
 20
77.3105
 11
89.5244
 21
77.292
  0
LINE
  8
0
 10
89.5244
 20
77.292
 11
89.5039
 21
77.2744
  0
LINE
  8
0
 10
89.5039
 20
77.2744
 11
89.4814
 21
77.2568
  0
LINE
  8
0
 10
89.4814
 20
77.2568
 11
89.46
 21
77.2393
  0
LINE
  8
0
 10
89.46
 20
77.2393
 11
89.3926
 21
77.1895
  0
LINE
  8
0
 10
89.3926
 20
77.1895
 11
89.3701
 21
77.1738
  0
LINE
  8
0
 10
89.3701
 20
77.1738
 11
89.3467
 21
77.1582
  0
LINE
  8
0
 10
89.3467
 20
77.1582
 11
89.3232
 21
77.1436
  0
LINE
  8
0
 10
89.3232
 20
77.1436
 11
89.2988
 21
77.1289
  0
LINE
  8
0
 10
89.2988
 20
77.1289
 11
89.2754
 21
77.1143
  0
LINE
  8
0
 10
89.2754
 20
77.1143
 11
89.2266
 21
77.0869
  0
LINE
  8
0
 10
89.2266
 20
77.0869
 11
89.2012
 21
77.0742
  0
LINE
  8
0
 10
89.2012
 20
77.0742
 11
89.1768
 21
77.0615
  0
LINE
  8
0
 10
89.1768
 20
77.0615
 11
89.126
 21
77.0381
  0
LINE
  8
0
 10
89.126
 20
77.0381
 11
89.1006
 21
77.0273
  0
LINE
  8
0
 10
89.1006
 20
77.0273
 11
89.0742
 21
77.0166
  0
LINE
  8
0
 10
89.0742
 20
77.0166
 11
89.0488
 21
77.0059
  0
LINE
  8
0
 10
89.0488
 20
77.0059
 11
89.0225
 21
76.9961
  0
LINE
  8
0
 10
89.0225
 20
76.9961
 11
88.9697
 21
76.9785
  0
LINE
  8
0
 10
88.9697
 20
76.9785
 11
88.9424
 21
76.9697
  0
LINE
  8
0
 10
88.9424
 20
76.9697
 11
88.916
 21
76.9619
  0
LINE
  8
0
 10
88.916
 20
76.9619
 11
88.8887
 21
76.9541
  0
LINE
  8
0
 10
88.8887
 20
76.9541
 11
88.8623
 21
76.9473
  0
LINE
  8
0
 10
88.8623
 20
76.9473
 11
88.835
 21
76.9414
  0
LINE
  8
0
 10
88.835
 20
76.9414
 11
88.8076
 21
76.9346
  0
LINE
  8
0
 10
88.8076
 20
76.9346
 11
88.7803
 21
76.9297
  0
LINE
  8
0
 10
88.7803
 20
76.9297
 11
88.7529
 21
76.9238
  0
LINE
  8
0
 10
88.7529
 20
76.9238
 11
88.7256
 21
76.9199
  0
LINE
  8
0
 10
88.7256
 20
76.9199
 11
88.6973
 21
76.916
  0
LINE
  8
0
 10
88.6973
 20
76.916
 11
88.6699
 21
76.9121
  0
LINE
  8
0
 10
88.6699
 20
76.9121
 11
88.6426
 21
76.9092
  0
LINE
  8
0
 10
88.6426
 20
76.9092
 11
88.6143
 21
76.9062
  0
LINE
  8
0
 10
88.6143
 20
76.9062
 11
88.5869
 21
76.9043
  0
LINE
  8
0
 10
88.5869
 20
76.9043
 11
88.5586
 21
76.9023
  0
LINE
  8
0
 10
88.5586
 20
76.9023
 11
88.5029
 21
76.9004
  0
LINE
  8
0
 10
88.5029
 20
76.9004
 11
88.4473
 21
76.9004
  0
LINE
  8
0
 10
25.4746
 20
55
 11
25.4746
 21
75
  0
LINE
  8
0
 10
25.4746
 20
75
 11
50.4746
 21
75
  0
LINE
  8
0
 10
50.4746
 20
75
 11
50.4746
 21
55
  0
LINE
  8
0
 10
50.4746
 20
55
 11
25.4746
 21
55
  0
ENDSEC
  0
SECTION
  2
OBJECTS
  0
DICTIONARY
  0
ENDSEC
  0
EOF
