  0
SECTION
  2
BLOCKS
  0
ENDSEC
  0
SECTION
  2
ENTITIES
  0
LINE
  8
0
 10
99.9854
 20
-6.99902
 11
100.002
 21
-6.99902
  0
LINE
  8
0
 10
100.002
 20
-6.99902
 11
100.02
 21
-6.99805
  0
LINE
  8
0
 10
100.02
 20
-6.99805
 11
100.072
 21
-6.99219
  0
LINE
  8
0
 10
100.072
 20
-6.99219
 11
100.089
 21
-6.99023
  0
LINE
  8
0
 10
100.089
 20
-6.99023
 11
100.124
 21
-6.98438
  0
LINE
  8
0
 10
100.124
 20
-6.98438
 11
100.141
 21
-6.98145
  0
LINE
  8
0
 10
100.141
 20
-6.98145
 11
100.158
 21
-6.97852
  0
LINE
  8
0
 10
100.158
 20
-6.97852
 11
100.175
 21
-6.97461
  0
LINE
  8
0
 10
100.175
 20
-6.97461
 11
100.192
 21
-6.9707
  0
LINE
  8
0
 10
100.192
 20
-6.9707
 11
100.259
 21
-6.95117
  0
LINE
  8
0
 10
100.259
 20
-6.95117
 11
100.309
 21
-6.93359
  0
LINE
  8
0
 10
100.309
 20
-6.93359
 11
100.324
 21
-6.92676
  0
LINE
  8
0
 10
100.324
 20
-6.92676
 11
100.341
 21
-6.9209
  0
LINE
  8
0
 10
100.341
 20
-6.9209
 11
100.356
 21
-6.91309
  0
LINE
  8
0
 10
100.356
 20
-6.91309
 11
100.373
 21
-6.90625
  0
LINE
  8
0
 10
100.373
 20
-6.90625
 11
100.42
 21
-6.88281
  0
LINE
  8
0
 10
100.42
 20
-6.88281
 11
100.435
 21
-6.875
  0
LINE
  8
0
 10
100.435
 20
-6.875
 11
100.45
 21
-6.86621
  0
LINE
  8
0
 10
100.45
 20
-6.86621
 11
100.465
 21
-6.85742
  0
LINE
  8
0
 10
100.465
 20
-6.85742
 11
100.479
 21
-6.84766
  0
LINE
  8
0
 10
100.479
 20
-6.84766
 11
100.495
 21
-6.83887
  0
LINE
  8
0
 10
100.495
 20
-6.83887
 11
100.509
 21
-6.8291
  0
LINE
  8
0
 10
100.509
 20
-6.8291
 11
100.523
 21
-6.81934
  0
LINE
  8
0
 10
100.523
 20
-6.81934
 11
100.538
 21
-6.80859
  0
LINE
  8
0
 10
100.538
 20
-6.80859
 11
100.552
 21
-6.79883
  0
LINE
  8
0
 10
100.552
 20
-6.79883
 11
100.579
 21
-6.77734
  0
LINE
  8
0
 10
100.579
 20
-6.77734
 11
100.593
 21
-6.76562
  0
LINE
  8
0
 10
100.593
 20
-6.76562
 11
100.606
 21
-6.75488
  0
LINE
  8
0
 10
100.606
 20
-6.75488
 11
100.645
 21
-6.71973
  0
LINE
  8
0
 10
100.645
 20
-6.71973
 11
100.657
 21
-6.70703
  0
LINE
  8
0
 10
100.657
 20
-6.70703
 11
100.669
 21
-6.69434
  0
LINE
  8
0
 10
100.669
 20
-6.69434
 11
100.682
 21
-6.68164
  0
LINE
  8
0
 10
100.682
 20
-6.68164
 11
100.705
 21
-6.65625
  0
LINE
  8
0
 10
100.705
 20
-6.65625
 11
100.716
 21
-6.64258
  0
LINE
  8
0
 10
100.716
 20
-6.64258
 11
100.728
 21
-6.62891
  0
LINE
  8
0
 10
100.728
 20
-6.62891
 11
100.749
 21
-6.60156
  0
LINE
  8
0
 10
100.749
 20
-6.60156
 11
100.759
 21
-6.58789
  0
LINE
  8
0
 10
100.759
 20
-6.58789
 11
100.77
 21
-6.57324
  0
LINE
  8
0
 10
100.77
 20
-6.57324
 11
100.779
 21
-6.55957
  0
LINE
  8
0
 10
100.779
 20
-6.55957
 11
100.789
 21
-6.54492
  0
LINE
  8
0
 10
100.789
 20
-6.54492
 11
100.798
 21
-6.53027
  0
LINE
  8
0
 10
100.798
 20
-6.53027
 11
100.808
 21
-6.51465
  0
LINE
  8
0
 10
100.808
 20
-6.51465
 11
100.816
 21
-6.5
  0
LINE
  8
0
 10
100.816
 20
-6.5
 11
100.824
 21
-6.48438
  0
LINE
  8
0
 10
100.824
 20
-6.48438
 11
100.833
 21
-6.46973
  0
LINE
  8
0
 10
100.833
 20
-6.46973
 11
100.856
 21
-6.42285
  0
LINE
  8
0
 10
100.856
 20
-6.42285
 11
100.863
 21
-6.40625
  0
LINE
  8
0
 10
100.863
 20
-6.40625
 11
100.877
 21
-6.375
  0
LINE
  8
0
 10
100.877
 20
-6.375
 11
100.884
 21
-6.3584
  0
LINE
  8
0
 10
100.884
 20
-6.3584
 11
100.901
 21
-6.30859
  0
LINE
  8
0
 10
100.901
 20
-6.30859
 11
100.916
 21
-6.25879
  0
LINE
  8
0
 10
100.916
 20
-6.25879
 11
100.92
 21
-6.24219
  0
LINE
  8
0
 10
100.92
 20
-6.24219
 11
100.925
 21
-6.22461
  0
LINE
  8
0
 10
100.925
 20
-6.22461
 11
100.928
 21
-6.20801
  0
LINE
  8
0
 10
100.928
 20
-6.20801
 11
100.932
 21
-6.19043
  0
LINE
  8
0
 10
100.932
 20
-6.19043
 11
100.935
 21
-6.17383
  0
LINE
  8
0
 10
100.935
 20
-6.17383
 11
100.938
 21
-6.15625
  0
LINE
  8
0
 10
100.938
 20
-6.15625
 11
100.94
 21
-6.13965
  0
LINE
  8
0
 10
100.94
 20
-6.13965
 11
100.946
 21
-6.08691
  0
LINE
  8
0
 10
100.946
 20
-6.08691
 11
100.947
 21
-6.06934
  0
LINE
  8
0
 10
100.947
 20
-6.06934
 11
100.948
 21
-6.05273
  0
LINE
  8
0
 10
100.948
 20
-6.05273
 11
100.95
 21
-6.01758
  0
LINE
  8
0
 10
100.95
 20
-6.01758
 11
100.95
 21
0
  0
LINE
  8
0
 10
100.95
 20
0
 11
102.768
 21
0
  0
LINE
  8
0
 10
102.768
 20
0
 11
102.785
 21
0.000976562
  0
LINE
  8
0
 10
102.785
 20
0.000976562
 11
102.803
 21
0.000976562
  0
LINE
  8
0
 10
102.803
 20
0.000976562
 11
102.819
 21
0.00195312
  0
LINE
  8
0
 10
102.819
 20
0.00195312
 11
102.89
 21
0.00976562
  0
LINE
  8
0
 10
102.89
 20
0.00976562
 11
102.906
 21
0.0126953
  0
LINE
  8
0
 10
102.906
 20
0.0126953
 11
102.924
 21
0.015625
  0
LINE
  8
0
 10
102.924
 20
0.015625
 11
102.94
 21
0.0185547
  0
LINE
  8
0
 10
102.94
 20
0.0185547
 11
102.958
 21
0.0214844
  0
LINE
  8
0
 10
102.958
 20
0.0214844
 11
102.975
 21
0.0253906
  0
LINE
  8
0
 10
102.975
 20
0.0253906
 11
102.992
 21
0.0292969
  0
LINE
  8
0
 10
102.992
 20
0.0292969
 11
103.059
 21
0.0488281
  0
LINE
  8
0
 10
103.059
 20
0.0488281
 11
103.108
 21
0.0664062
  0
LINE
  8
0
 10
103.108
 20
0.0664062
 11
103.125
 21
0.0732422
  0
LINE
  8
0
 10
103.125
 20
0.0732422
 11
103.141
 21
0.0791016
  0
LINE
  8
0
 10
103.141
 20
0.0791016
 11
103.156
 21
0.0869141
  0
LINE
  8
0
 10
103.156
 20
0.0869141
 11
103.173
 21
0.09375
  0
LINE
  8
0
 10
103.173
 20
0.09375
 11
103.22
 21
0.117188
  0
LINE
  8
0
 10
103.22
 20
0.117188
 11
103.234
 21
0.125
  0
LINE
  8
0
 10
103.234
 20
0.125
 11
103.25
 21
0.133789
  0
LINE
  8
0
 10
103.25
 20
0.133789
 11
103.265
 21
0.142578
  0
LINE
  8
0
 10
103.265
 20
0.142578
 11
103.28
 21
0.152344
  0
LINE
  8
0
 10
103.28
 20
0.152344
 11
103.295
 21
0.161133
  0
LINE
  8
0
 10
103.295
 20
0.161133
 11
103.31
 21
0.170898
  0
LINE
  8
0
 10
103.31
 20
0.170898
 11
103.323
 21
0.180664
  0
LINE
  8
0
 10
103.323
 20
0.180664
 11
103.338
 21
0.191406
  0
LINE
  8
0
 10
103.338
 20
0.191406
 11
103.352
 21
0.201172
  0
LINE
  8
0
 10
103.352
 20
0.201172
 11
103.379
 21
0.222656
  0
LINE
  8
0
 10
103.379
 20
0.222656
 11
103.393
 21
0.234375
  0
LINE
  8
0
 10
103.393
 20
0.234375
 11
103.406
 21
0.245117
  0
LINE
  8
0
 10
103.406
 20
0.245117
 11
103.444
 21
0.280273
  0
LINE
  8
0
 10
103.444
 20
0.280273
 11
103.47
 21
0.305664
  0
LINE
  8
0
 10
103.47
 20
0.305664
 11
103.505
 21
0.34375
  0
LINE
  8
0
 10
103.505
 20
0.34375
 11
103.516
 21
0.357422
  0
LINE
  8
0
 10
103.516
 20
0.357422
 11
103.527
 21
0.371094
  0
LINE
  8
0
 10
103.527
 20
0.371094
 11
103.549
 21
0.398438
  0
LINE
  8
0
 10
103.549
 20
0.398438
 11
103.559
 21
0.412109
  0
LINE
  8
0
 10
103.559
 20
0.412109
 11
103.569
 21
0.426758
  0
LINE
  8
0
 10
103.569
 20
0.426758
 11
103.579
 21
0.44043
  0
LINE
  8
0
 10
103.579
 20
0.44043
 11
103.589
 21
0.455078
  0
LINE
  8
0
 10
103.589
 20
0.455078
 11
103.598
 21
0.469727
  0
LINE
  8
0
 10
103.598
 20
0.469727
 11
103.607
 21
0.485352
  0
LINE
  8
0
 10
103.607
 20
0.485352
 11
103.616
 21
0.5
  0
LINE
  8
0
 10
103.616
 20
0.5
 11
103.625
 21
0.515625
  0
LINE
  8
0
 10
103.625
 20
0.515625
 11
103.633
 21
0.530273
  0
LINE
  8
0
 10
103.633
 20
0.530273
 11
103.656
 21
0.577148
  0
LINE
  8
0
 10
103.656
 20
0.577148
 11
103.663
 21
0.59375
  0
LINE
  8
0
 10
103.663
 20
0.59375
 11
103.671
 21
0.609375
  0
LINE
  8
0
 10
103.671
 20
0.609375
 11
103.677
 21
0.625
  0
LINE
  8
0
 10
103.677
 20
0.625
 11
103.684
 21
0.641602
  0
LINE
  8
0
 10
103.684
 20
0.641602
 11
103.701
 21
0.691406
  0
LINE
  8
0
 10
103.701
 20
0.691406
 11
103.721
 21
0.757812
  0
LINE
  8
0
 10
103.721
 20
0.757812
 11
103.725
 21
0.775391
  0
LINE
  8
0
 10
103.725
 20
0.775391
 11
103.729
 21
0.791992
  0
LINE
  8
0
 10
103.729
 20
0.791992
 11
103.731
 21
0.80957
  0
LINE
  8
0
 10
103.731
 20
0.80957
 11
103.734
 21
0.826172
  0
LINE
  8
0
 10
103.734
 20
0.826172
 11
103.737
 21
0.84375
  0
LINE
  8
0
 10
103.737
 20
0.84375
 11
103.74
 21
0.860352
  0
LINE
  8
0
 10
103.74
 20
0.860352
 11
103.748
 21
0.930664
  0
LINE
  8
0
 10
103.748
 20
0.930664
 11
103.749
 21
0.947266
  0
LINE
  8
0
 10
103.749
 20
0.947266
 11
103.749
 21
0.964844
  0
LINE
  8
0
 10
103.749
 20
0.964844
 11
103.75
 21
0.982422
  0
LINE
  8
0
 10
103.75
 20
0.982422
 11
103.75
 21
9.01758
  0
LINE
  8
0
 10
103.75
 20
9.01758
 11
103.749
 21
9.03516
  0
LINE
  8
0
 10
103.749
 20
9.03516
 11
103.749
 21
9.05273
  0
LINE
  8
0
 10
103.749
 20
9.05273
 11
103.748
 21
9.06934
  0
LINE
  8
0
 10
103.748
 20
9.06934
 11
103.74
 21
9.13965
  0
LINE
  8
0
 10
103.74
 20
9.13965
 11
103.737
 21
9.15625
  0
LINE
  8
0
 10
103.737
 20
9.15625
 11
103.734
 21
9.17383
  0
LINE
  8
0
 10
103.734
 20
9.17383
 11
103.731
 21
9.19043
  0
LINE
  8
0
 10
103.731
 20
9.19043
 11
103.729
 21
9.20801
  0
LINE
  8
0
 10
103.729
 20
9.20801
 11
103.725
 21
9.22461
  0
LINE
  8
0
 10
103.725
 20
9.22461
 11
103.721
 21
9.24219
  0
LINE
  8
0
 10
103.721
 20
9.24219
 11
103.701
 21
9.30859
  0
LINE
  8
0
 10
103.701
 20
9.30859
 11
103.684
 21
9.3584
  0
LINE
  8
0
 10
103.684
 20
9.3584
 11
103.677
 21
9.375
  0
LINE
  8
0
 10
103.677
 20
9.375
 11
103.671
 21
9.39062
  0
LINE
  8
0
 10
103.671
 20
9.39062
 11
103.663
 21
9.40625
  0
LINE
  8
0
 10
103.663
 20
9.40625
 11
103.656
 21
9.42285
  0
LINE
  8
0
 10
103.656
 20
9.42285
 11
103.633
 21
9.46973
  0
LINE
  8
0
 10
103.633
 20
9.46973
 11
103.625
 21
9.48438
  0
LINE
  8
0
 10
103.625
 20
9.48438
 11
103.616
 21
9.5
  0
LINE
  8
0
 10
103.616
 20
9.5
 11
103.607
 21
9.51465
  0
LINE
  8
0
 10
103.607
 20
9.51465
 11
103.598
 21
9.53027
  0
LINE
  8
0
 10
103.598
 20
9.53027
 11
103.589
 21
9.54492
  0
LINE
  8
0
 10
103.589
 20
9.54492
 11
103.579
 21
9.55957
  0
LINE
  8
0
 10
103.579
 20
9.55957
 11
103.569
 21
9.57324
  0
LINE
  8
0
 10
103.569
 20
9.57324
 11
103.559
 21
9.58789
  0
LINE
  8
0
 10
103.559
 20
9.58789
 11
103.549
 21
9.60156
  0
LINE
  8
0
 10
103.549
 20
9.60156
 11
103.527
 21
9.62891
  0
LINE
  8
0
 10
103.527
 20
9.62891
 11
103.516
 21
9.64258
  0
LINE
  8
0
 10
103.516
 20
9.64258
 11
103.505
 21
9.65625
  0
LINE
  8
0
 10
103.505
 20
9.65625
 11
103.47
 21
9.69434
  0
LINE
  8
0
 10
103.47
 20
9.69434
 11
103.444
 21
9.71973
  0
LINE
  8
0
 10
103.444
 20
9.71973
 11
103.406
 21
9.75488
  0
LINE
  8
0
 10
103.406
 20
9.75488
 11
103.393
 21
9.76562
  0
LINE
  8
0
 10
103.393
 20
9.76562
 11
103.379
 21
9.77734
  0
LINE
  8
0
 10
103.379
 20
9.77734
 11
103.352
 21
9.79883
  0
LINE
  8
0
 10
103.352
 20
9.79883
 11
103.338
 21
9.80859
  0
LINE
  8
0
 10
103.338
 20
9.80859
 11
103.323
 21
9.81934
  0
LINE
  8
0
 10
103.323
 20
9.81934
 11
103.31
 21
9.8291
  0
LINE
  8
0
 10
103.31
 20
9.8291
 11
103.295
 21
9.83887
  0
LINE
  8
0
 10
103.295
 20
9.83887
 11
103.28
 21
9.84766
  0
LINE
  8
0
 10
103.28
 20
9.84766
 11
103.265
 21
9.85742
  0
LINE
  8
0
 10
103.265
 20
9.85742
 11
103.25
 21
9.86621
  0
LINE
  8
0
 10
103.25
 20
9.86621
 11
103.234
 21
9.875
  0
LINE
  8
0
 10
103.234
 20
9.875
 11
103.22
 21
9.88281
  0
LINE
  8
0
 10
103.22
 20
9.88281
 11
103.173
 21
9.90625
  0
LINE
  8
0
 10
103.173
 20
9.90625
 11
103.156
 21
9.91309
  0
LINE
  8
0
 10
103.156
 20
9.91309
 11
103.141
 21
9.9209
  0
LINE
  8
0
 10
103.141
 20
9.9209
 11
103.125
 21
9.92676
  0
LINE
  8
0
 10
103.125
 20
9.92676
 11
103.108
 21
9.93359
  0
LINE
  8
0
 10
103.108
 20
9.93359
 11
103.059
 21
9.95117
  0
LINE
  8
0
 10
103.059
 20
9.95117
 11
102.992
 21
9.9707
  0
LINE
  8
0
 10
102.992
 20
9.9707
 11
102.975
 21
9.97461
  0
LINE
  8
0
 10
102.975
 20
9.97461
 11
102.958
 21
9.97852
  0
LINE
  8
0
 10
102.958
 20
9.97852
 11
102.94
 21
9.98145
  0
LINE
  8
0
 10
102.94
 20
9.98145
 11
102.924
 21
9.98438
  0
LINE
  8
0
 10
102.924
 20
9.98438
 11
102.906
 21
9.9873
  0
LINE
  8
0
 10
102.906
 20
9.9873
 11
102.89
 21
9.99023
  0
LINE
  8
0
 10
102.89
 20
9.99023
 11
102.819
 21
9.99805
  0
LINE
  8
0
 10
102.819
 20
9.99805
 11
102.803
 21
9.99902
  0
LINE
  8
0
 10
102.803
 20
9.99902
 11
102.785
 21
9.99902
  0
LINE
  8
0
 10
102.785
 20
9.99902
 11
102.768
 21
10
  0
LINE
  8
0
 10
102.768
 20
10
 11
-2.01758
 21
10
  0
LINE
  8
0
 10
-2.01758
 20
10
 11
-2.03516
 21
9.99902
  0
LINE
  8
0
 10
-2.03516
 20
9.99902
 11
-2.05273
 21
9.99902
  0
LINE
  8
0
 10
-2.05273
 20
9.99902
 11
-2.06934
 21
9.99805
  0
LINE
  8
0
 10
-2.06934
 20
9.99805
 11
-2.13965
 21
9.99023
  0
LINE
  8
0
 10
-2.13965
 20
9.99023
 11
-2.15625
 21
9.9873
  0
LINE
  8
0
 10
-2.15625
 20
9.9873
 11
-2.17383
 21
9.98438
  0
LINE
  8
0
 10
-2.17383
 20
9.98438
 11
-2.19043
 21
9.98145
  0
LINE
  8
0
 10
-2.19043
 20
9.98145
 11
-2.20801
 21
9.97852
  0
LINE
  8
0
 10
-2.20801
 20
9.97852
 11
-2.22461
 21
9.97461
  0
LINE
  8
0
 10
-2.22461
 20
9.97461
 11
-2.24219
 21
9.9707
  0
LINE
  8
0
 10
-2.24219
 20
9.9707
 11
-2.30859
 21
9.95117
  0
LINE
  8
0
 10
-2.30859
 20
9.95117
 11
-2.3584
 21
9.93359
  0
LINE
  8
0
 10
-2.3584
 20
9.93359
 11
-2.375
 21
9.92676
  0
LINE
  8
0
 10
-2.375
 20
9.92676
 11
-2.39062
 21
9.9209
  0
LINE
  8
0
 10
-2.39062
 20
9.9209
 11
-2.40625
 21
9.91309
  0
LINE
  8
0
 10
-2.40625
 20
9.91309
 11
-2.42285
 21
9.90625
  0
LINE
  8
0
 10
-2.42285
 20
9.90625
 11
-2.46973
 21
9.88281
  0
LINE
  8
0
 10
-2.46973
 20
9.88281
 11
-2.48438
 21
9.875
  0
LINE
  8
0
 10
-2.48438
 20
9.875
 11
-2.5
 21
9.86621
  0
LINE
  8
0
 10
-2.5
 20
9.86621
 11
-2.51465
 21
9.85742
  0
LINE
  8
0
 10
-2.51465
 20
9.85742
 11
-2.53027
 21
9.84766
  0
LINE
  8
0
 10
-2.53027
 20
9.84766
 11
-2.54492
 21
9.83887
  0
LINE
  8
0
 10
-2.54492
 20
9.83887
 11
-2.55957
 21
9.8291
  0
LINE
  8
0
 10
-2.55957
 20
9.8291
 11
-2.57324
 21
9.81934
  0
LINE
  8
0
 10
-2.57324
 20
9.81934
 11
-2.58789
 21
9.80859
  0
LINE
  8
0
 10
-2.58789
 20
9.80859
 11
-2.60156
 21
9.79883
  0
LINE
  8
0
 10
-2.60156
 20
9.79883
 11
-2.62891
 21
9.77734
  0
LINE
  8
0
 10
-2.62891
 20
9.77734
 11
-2.64258
 21
9.76562
  0
LINE
  8
0
 10
-2.64258
 20
9.76562
 11
-2.65625
 21
9.75488
  0
LINE
  8
0
 10
-2.65625
 20
9.75488
 11
-2.69434
 21
9.71973
  0
LINE
  8
0
 10
-2.69434
 20
9.71973
 11
-2.71973
 21
9.69434
  0
LINE
  8
0
 10
-2.71973
 20
9.69434
 11
-2.75488
 21
9.65625
  0
LINE
  8
0
 10
-2.75488
 20
9.65625
 11
-2.76562
 21
9.64258
  0
LINE
  8
0
 10
-2.76562
 20
9.64258
 11
-2.77734
 21
9.62891
  0
LINE
  8
0
 10
-2.77734
 20
9.62891
 11
-2.79883
 21
9.60156
  0
LINE
  8
0
 10
-2.79883
 20
9.60156
 11
-2.80859
 21
9.58789
  0
LINE
  8
0
 10
-2.80859
 20
9.58789
 11
-2.81934
 21
9.57324
  0
LINE
  8
0
 10
-2.81934
 20
9.57324
 11
-2.8291
 21
9.55957
  0
LINE
  8
0
 10
-2.8291
 20
9.55957
 11
-2.83887
 21
9.54492
  0
LINE
  8
0
 10
-2.83887
 20
9.54492
 11
-2.84766
 21
9.53027
  0
LINE
  8
0
 10
-2.84766
 20
9.53027
 11
-2.85742
 21
9.51465
  0
LINE
  8
0
 10
-2.85742
 20
9.51465
 11
-2.86621
 21
9.5
  0
LINE
  8
0
 10
-2.86621
 20
9.5
 11
-2.875
 21
9.48438
  0
LINE
  8
0
 10
-2.875
 20
9.48438
 11
-2.88281
 21
9.46973
  0
LINE
  8
0
 10
-2.88281
 20
9.46973
 11
-2.90625
 21
9.42285
  0
LINE
  8
0
 10
-2.90625
 20
9.42285
 11
-2.91309
 21
9.40625
  0
LINE
  8
0
 10
-2.91309
 20
9.40625
 11
-2.9209
 21
9.39062
  0
LINE
  8
0
 10
-2.9209
 20
9.39062
 11
-2.92676
 21
9.375
  0
LINE
  8
0
 10
-2.92676
 20
9.375
 11
-2.93359
 21
9.3584
  0
LINE
  8
0
 10
-2.93359
 20
9.3584
 11
-2.95117
 21
9.30859
  0
LINE
  8
0
 10
-2.95117
 20
9.30859
 11
-2.9707
 21
9.24219
  0
LINE
  8
0
 10
-2.9707
 20
9.24219
 11
-2.97461
 21
9.22461
  0
LINE
  8
0
 10
-2.97461
 20
9.22461
 11
-2.97852
 21
9.20801
  0
LINE
  8
0
 10
-2.97852
 20
9.20801
 11
-2.98145
 21
9.19043
  0
LINE
  8
0
 10
-2.98145
 20
9.19043
 11
-2.98438
 21
9.17383
  0
LINE
  8
0
 10
-2.98438
 20
9.17383
 11
-2.9873
 21
9.15625
  0
LINE
  8
0
 10
-2.9873
 20
9.15625
 11
-2.99023
 21
9.13965
  0
LINE
  8
0
 10
-2.99023
 20
9.13965
 11
-2.99805
 21
9.06934
  0
LINE
  8
0
 10
-2.99805
 20
9.06934
 11
-2.99902
 21
9.05273
  0
LINE
  8
0
 10
-2.99902
 20
9.05273
 11
-2.99902
 21
9.03516
  0
LINE
  8
0
 10
-2.99902
 20
9.03516
 11
-3
 21
9.01758
  0
LINE
  8
0
 10
-3
 20
9.01758
 11
-3
 21
0.982422
  0
LINE
  8
0
 10
-3
 20
0.982422
 11
-2.99902
 21
0.964844
  0
LINE
  8
0
 10
-2.99902
 20
0.964844
 11
-2.99902
 21
0.947266
  0
LINE
  8
0
 10
-2.99902
 20
0.947266
 11
-2.99805
 21
0.930664
  0
LINE
  8
0
 10
-2.99805
 20
0.930664
 11
-2.99023
 21
0.860352
  0
LINE
  8
0
 10
-2.99023
 20
0.860352
 11
-2.9873
 21
0.84375
  0
LINE
  8
0
 10
-2.9873
 20
0.84375
 11
-2.98438
 21
0.826172
  0
LINE
  8
0
 10
-2.98438
 20
0.826172
 11
-2.98145
 21
0.80957
  0
LINE
  8
0
 10
-2.98145
 20
0.80957
 11
-2.97852
 21
0.791992
  0
LINE
  8
0
 10
-2.97852
 20
0.791992
 11
-2.97461
 21
0.775391
  0
LINE
  8
0
 10
-2.97461
 20
0.775391
 11
-2.9707
 21
0.757812
  0
LINE
  8
0
 10
-2.9707
 20
0.757812
 11
-2.95117
 21
0.691406
  0
LINE
  8
0
 10
-2.95117
 20
0.691406
 11
-2.93359
 21
0.641602
  0
LINE
  8
0
 10
-2.93359
 20
0.641602
 11
-2.92676
 21
0.625
  0
LINE
  8
0
 10
-2.92676
 20
0.625
 11
-2.9209
 21
0.609375
  0
LINE
  8
0
 10
-2.9209
 20
0.609375
 11
-2.91309
 21
0.59375
  0
LINE
  8
0
 10
-2.91309
 20
0.59375
 11
-2.90625
 21
0.577148
  0
LINE
  8
0
 10
-2.90625
 20
0.577148
 11
-2.88281
 21
0.530273
  0
LINE
  8
0
 10
-2.88281
 20
0.530273
 11
-2.875
 21
0.515625
  0
LINE
  8
0
 10
-2.875
 20
0.515625
 11
-2.86621
 21
0.5
  0
LINE
  8
0
 10
-2.86621
 20
0.5
 11
-2.85742
 21
0.485352
  0
LINE
  8
0
 10
-2.85742
 20
0.485352
 11
-2.84766
 21
0.469727
  0
LINE
  8
0
 10
-2.84766
 20
0.469727
 11
-2.83887
 21
0.455078
  0
LINE
  8
0
 10
-2.83887
 20
0.455078
 11
-2.8291
 21
0.44043
  0
LINE
  8
0
 10
-2.8291
 20
0.44043
 11
-2.81934
 21
0.426758
  0
LINE
  8
0
 10
-2.81934
 20
0.426758
 11
-2.80859
 21
0.412109
  0
LINE
  8
0
 10
-2.80859
 20
0.412109
 11
-2.79883
 21
0.398438
  0
LINE
  8
0
 10
-2.79883
 20
0.398438
 11
-2.77734
 21
0.371094
  0
LINE
  8
0
 10
-2.77734
 20
0.371094
 11
-2.76562
 21
0.357422
  0
LINE
  8
0
 10
-2.76562
 20
0.357422
 11
-2.75488
 21
0.34375
  0
LINE
  8
0
 10
-2.75488
 20
0.34375
 11
-2.71973
 21
0.305664
  0
LINE
  8
0
 10
-2.71973
 20
0.305664
 11
-2.69434
 21
0.280273
  0
LINE
  8
0
 10
-2.69434
 20
0.280273
 11
-2.65625
 21
0.245117
  0
LINE
  8
0
 10
-2.65625
 20
0.245117
 11
-2.64258
 21
0.234375
  0
LINE
  8
0
 10
-2.64258
 20
0.234375
 11
-2.62891
 21
0.222656
  0
LINE
  8
0
 10
-2.62891
 20
0.222656
 11
-2.60156
 21
0.201172
  0
LINE
  8
0
 10
-2.60156
 20
0.201172
 11
-2.58789
 21
0.191406
  0
LINE
  8
0
 10
-2.58789
 20
0.191406
 11
-2.57324
 21
0.180664
  0
LINE
  8
0
 10
-2.57324
 20
0.180664
 11
-2.55957
 21
0.170898
  0
LINE
  8
0
 10
-2.55957
 20
0.170898
 11
-2.54492
 21
0.161133
  0
LINE
  8
0
 10
-2.54492
 20
0.161133
 11
-2.53027
 21
0.152344
  0
LINE
  8
0
 10
-2.53027
 20
0.152344
 11
-2.51465
 21
0.142578
  0
LINE
  8
0
 10
-2.51465
 20
0.142578
 11
-2.5
 21
0.133789
  0
LINE
  8
0
 10
-2.5
 20
0.133789
 11
-2.48438
 21
0.125
  0
LINE
  8
0
 10
-2.48438
 20
0.125
 11
-2.46973
 21
0.117188
  0
LINE
  8
0
 10
-2.46973
 20
0.117188
 11
-2.42285
 21
0.09375
  0
LINE
  8
0
 10
-2.42285
 20
0.09375
 11
-2.40625
 21
0.0869141
  0
LINE
  8
0
 10
-2.40625
 20
0.0869141
 11
-2.39062
 21
0.0791016
  0
LINE
  8
0
 10
-2.39062
 20
0.0791016
 11
-2.375
 21
0.0732422
  0
LINE
  8
0
 10
-2.375
 20
0.0732422
 11
-2.3584
 21
0.0664062
  0
LINE
  8
0
 10
-2.3584
 20
0.0664062
 11
-2.30859
 21
0.0488281
  0
LINE
  8
0
 10
-2.30859
 20
0.0488281
 11
-2.24219
 21
0.0292969
  0
LINE
  8
0
 10
-2.24219
 20
0.0292969
 11
-2.22461
 21
0.0253906
  0
LINE
  8
0
 10
-2.22461
 20
0.0253906
 11
-2.20801
 21
0.0214844
  0
LINE
  8
0
 10
-2.20801
 20
0.0214844
 11
-2.19043
 21
0.0185547
  0
LINE
  8
0
 10
-2.19043
 20
0.0185547
 11
-2.17383
 21
0.015625
  0
LINE
  8
0
 10
-2.17383
 20
0.015625
 11
-2.15625
 21
0.0126953
  0
LINE
  8
0
 10
-2.15625
 20
0.0126953
 11
-2.13965
 21
0.00976562
  0
LINE
  8
0
 10
-2.13965
 20
0.00976562
 11
-2.06934
 21
0.00195312
  0
LINE
  8
0
 10
-2.06934
 20
0.00195312
 11
-2.05273
 21
0.000976562
  0
LINE
  8
0
 10
-2.05273
 20
0.000976562
 11
-2.03516
 21
0.000976562
  0
LINE
  8
0
 10
-2.03516
 20
0.000976562
 11
-2.01758
 21
0
  0
LINE
  8
0
 10
-2.01758
 20
0
 11
0
 21
0
  0
LINE
  8
0
 10
0
 20
0
 11
0
 21
-6.01758
  0
LINE
  8
0
 10
0
 20
-6.01758
 11
0.000976562
 21
-6.03516
  0
LINE
  8
0
 10
0.000976562
 20
-6.03516
 11
0.000976562
 21
-6.05273
  0
LINE
  8
0
 10
0.000976562
 20
-6.05273
 11
0.00195312
 21
-6.06934
  0
LINE
  8
0
 10
0.00195312
 20
-6.06934
 11
0.00976562
 21
-6.13965
  0
LINE
  8
0
 10
0.00976562
 20
-6.13965
 11
0.0126953
 21
-6.15625
  0
LINE
  8
0
 10
0.0126953
 20
-6.15625
 11
0.015625
 21
-6.17383
  0
LINE
  8
0
 10
0.015625
 20
-6.17383
 11
0.0185547
 21
-6.19043
  0
LINE
  8
0
 10
0.0185547
 20
-6.19043
 11
0.0214844
 21
-6.20801
  0
LINE
  8
0
 10
0.0214844
 20
-6.20801
 11
0.0253906
 21
-6.22461
  0
LINE
  8
0
 10
0.0253906
 20
-6.22461
 11
0.0292969
 21
-6.24219
  0
LINE
  8
0
 10
0.0292969
 20
-6.24219
 11
0.0488281
 21
-6.30859
  0
LINE
  8
0
 10
0.0488281
 20
-6.30859
 11
0.0664062
 21
-6.3584
  0
LINE
  8
0
 10
0.0664062
 20
-6.3584
 11
0.0732422
 21
-6.375
  0
LINE
  8
0
 10
0.0732422
 20
-6.375
 11
0.0791016
 21
-6.39062
  0
LINE
  8
0
 10
0.0791016
 20
-6.39062
 11
0.0869141
 21
-6.40625
  0
LINE
  8
0
 10
0.0869141
 20
-6.40625
 11
0.09375
 21
-6.42285
  0
LINE
  8
0
 10
0.09375
 20
-6.42285
 11
0.117188
 21
-6.46973
  0
LINE
  8
0
 10
0.117188
 20
-6.46973
 11
0.125
 21
-6.48438
  0
LINE
  8
0
 10
0.125
 20
-6.48438
 11
0.133789
 21
-6.5
  0
LINE
  8
0
 10
0.133789
 20
-6.5
 11
0.142578
 21
-6.51465
  0
LINE
  8
0
 10
0.142578
 20
-6.51465
 11
0.152344
 21
-6.53027
  0
LINE
  8
0
 10
0.152344
 20
-6.53027
 11
0.161133
 21
-6.54492
  0
LINE
  8
0
 10
0.161133
 20
-6.54492
 11
0.170898
 21
-6.55957
  0
LINE
  8
0
 10
0.170898
 20
-6.55957
 11
0.180664
 21
-6.57324
  0
LINE
  8
0
 10
0.180664
 20
-6.57324
 11
0.191406
 21
-6.58789
  0
LINE
  8
0
 10
0.191406
 20
-6.58789
 11
0.201172
 21
-6.60156
  0
LINE
  8
0
 10
0.201172
 20
-6.60156
 11
0.222656
 21
-6.62891
  0
LINE
  8
0
 10
0.222656
 20
-6.62891
 11
0.234375
 21
-6.64258
  0
LINE
  8
0
 10
0.234375
 20
-6.64258
 11
0.245117
 21
-6.65625
  0
LINE
  8
0
 10
0.245117
 20
-6.65625
 11
0.280273
 21
-6.69434
  0
LINE
  8
0
 10
0.280273
 20
-6.69434
 11
0.305664
 21
-6.71973
  0
LINE
  8
0
 10
0.305664
 20
-6.71973
 11
0.34375
 21
-6.75488
  0
LINE
  8
0
 10
0.34375
 20
-6.75488
 11
0.357422
 21
-6.76562
  0
LINE
  8
0
 10
0.357422
 20
-6.76562
 11
0.371094
 21
-6.77734
  0
LINE
  8
0
 10
0.371094
 20
-6.77734
 11
0.398438
 21
-6.79883
  0
LINE
  8
0
 10
0.398438
 20
-6.79883
 11
0.412109
 21
-6.80859
  0
LINE
  8
0
 10
0.412109
 20
-6.80859
 11
0.426758
 21
-6.81934
  0
LINE
  8
0
 10
0.426758
 20
-6.81934
 11
0.44043
 21
-6.8291
  0
LINE
  8
0
 10
0.44043
 20
-6.8291
 11
0.455078
 21
-6.83887
  0
LINE
  8
0
 10
0.455078
 20
-6.83887
 11
0.469727
 21
-6.84766
  0
LINE
  8
0
 10
0.469727
 20
-6.84766
 11
0.485352
 21
-6.85742
  0
LINE
  8
0
 10
0.485352
 20
-6.85742
 11
0.5
 21
-6.86621
  0
LINE
  8
0
 10
0.5
 20
-6.86621
 11
0.515625
 21
-6.875
  0
LINE
  8
0
 10
0.515625
 20
-6.875
 11
0.530273
 21
-6.88281
  0
LINE
  8
0
 10
0.530273
 20
-6.88281
 11
0.577148
 21
-6.90625
  0
LINE
  8
0
 10
0.577148
 20
-6.90625
 11
0.59375
 21
-6.91309
  0
LINE
  8
0
 10
0.59375
 20
-6.91309
 11
0.609375
 21
-6.9209
  0
LINE
  8
0
 10
0.609375
 20
-6.9209
 11
0.625
 21
-6.92676
  0
LINE
  8
0
 10
0.625
 20
-6.92676
 11
0.641602
 21
-6.93359
  0
LINE
  8
0
 10
0.641602
 20
-6.93359
 11
0.691406
 21
-6.95117
  0
LINE
  8
0
 10
0.691406
 20
-6.95117
 11
0.757812
 21
-6.9707
  0
LINE
  8
0
 10
0.757812
 20
-6.9707
 11
0.775391
 21
-6.97461
  0
LINE
  8
0
 10
0.775391
 20
-6.97461
 11
0.791992
 21
-6.97852
  0
LINE
  8
0
 10
0.791992
 20
-6.97852
 11
0.80957
 21
-6.98145
  0
LINE
  8
0
 10
0.80957
 20
-6.98145
 11
0.826172
 21
-6.98438
  0
LINE
  8
0
 10
0.826172
 20
-6.98438
 11
0.84375
 21
-6.9873
  0
LINE
  8
0
 10
0.84375
 20
-6.9873
 11
0.860352
 21
-6.99023
  0
LINE
  8
0
 10
0.860352
 20
-6.99023
 11
0.930664
 21
-6.99805
  0
LINE
  8
0
 10
0.930664
 20
-6.99805
 11
0.947266
 21
-6.99902
  0
LINE
  8
0
 10
0.947266
 20
-6.99902
 11
0.964844
 21
-6.99902
  0
LINE
  8
0
 10
0.964844
 20
-6.99902
 11
0.982422
 21
-7
  0
LINE
  8
0
 10
0.982422
 20
-7
 11
99.9678
 21
-7
  0
LINE
  8
0
 10
99.9678
 20
-7
 11
99.9854
 21
-6.99902
  0
LINE
  8
0
 10
91.4473
 20
3.25
 11
91.3916
 21
3.25195
  0
LINE
  8
0
 10
91.3916
 20
3.25195
 11
91.3633
 21
3.25391
  0
LINE
  8
0
 10
91.3633
 20
3.25391
 11
91.3359
 21
3.25586
  0
LINE
  8
0
 10
91.3359
 20
3.25586
 11
91.3076
 21
3.25879
  0
LINE
  8
0
 10
91.3076
 20
3.25879
 11
91.2803
 21
3.26172
  0
LINE
  8
0
 10
91.2803
 20
3.26172
 11
91.252
 21
3.26562
  0
LINE
  8
0
 10
91.252
 20
3.26562
 11
91.2246
 21
3.26953
  0
LINE
  8
0
 10
91.2246
 20
3.26953
 11
91.1699
 21
3.2793
  0
LINE
  8
0
 10
91.1699
 20
3.2793
 11
91.1152
 21
3.29102
  0
LINE
  8
0
 10
91.1152
 20
3.29102
 11
91.0605
 21
3.30469
  0
LINE
  8
0
 10
91.0605
 20
3.30469
 11
91.0342
 21
3.31152
  0
LINE
  8
0
 10
91.0342
 20
3.31152
 11
91.0068
 21
3.32031
  0
LINE
  8
0
 10
91.0068
 20
3.32031
 11
90.9805
 21
3.32812
  0
LINE
  8
0
 10
90.9805
 20
3.32812
 11
90.9541
 21
3.33691
  0
LINE
  8
0
 10
90.9541
 20
3.33691
 11
90.9014
 21
3.35645
  0
LINE
  8
0
 10
90.9014
 20
3.35645
 11
90.876
 21
3.36621
  0
LINE
  8
0
 10
90.876
 20
3.36621
 11
90.8496
 21
3.37695
  0
LINE
  8
0
 10
90.8496
 20
3.37695
 11
90.7734
 21
3.41211
  0
LINE
  8
0
 10
90.7734
 20
3.41211
 11
90.749
 21
3.4248
  0
LINE
  8
0
 10
90.749
 20
3.4248
 11
90.7236
 21
3.4375
  0
LINE
  8
0
 10
90.7236
 20
3.4375
 11
90.6992
 21
3.4502
  0
LINE
  8
0
 10
90.6992
 20
3.4502
 11
90.6748
 21
3.46484
  0
LINE
  8
0
 10
90.6748
 20
3.46484
 11
90.6514
 21
3.47852
  0
LINE
  8
0
 10
90.6514
 20
3.47852
 11
90.627
 21
3.49316
  0
LINE
  8
0
 10
90.627
 20
3.49316
 11
90.6035
 21
3.50781
  0
LINE
  8
0
 10
90.6035
 20
3.50781
 11
90.5801
 21
3.52344
  0
LINE
  8
0
 10
90.5801
 20
3.52344
 11
90.5576
 21
3.53906
  0
LINE
  8
0
 10
90.5576
 20
3.53906
 11
90.5342
 21
3.55566
  0
LINE
  8
0
 10
90.5342
 20
3.55566
 11
90.5117
 21
3.57227
  0
LINE
  8
0
 10
90.5117
 20
3.57227
 11
90.4902
 21
3.58887
  0
LINE
  8
0
 10
90.4902
 20
3.58887
 11
90.4678
 21
3.60645
  0
LINE
  8
0
 10
90.4678
 20
3.60645
 11
90.4463
 21
3.62402
  0
LINE
  8
0
 10
90.4463
 20
3.62402
 11
90.4258
 21
3.64258
  0
LINE
  8
0
 10
90.4258
 20
3.64258
 11
90.4043
 21
3.66113
  0
LINE
  8
0
 10
90.4043
 20
3.66113
 11
90.3838
 21
3.67969
  0
LINE
  8
0
 10
90.3838
 20
3.67969
 11
90.3633
 21
3.69922
  0
LINE
  8
0
 10
90.3633
 20
3.69922
 11
90.3242
 21
3.73828
  0
LINE
  8
0
 10
90.3242
 20
3.73828
 11
90.3047
 21
3.75879
  0
LINE
  8
0
 10
90.3047
 20
3.75879
 11
90.2861
 21
3.7793
  0
LINE
  8
0
 10
90.2861
 20
3.7793
 11
90.2676
 21
3.80078
  0
LINE
  8
0
 10
90.2676
 20
3.80078
 11
90.249
 21
3.82129
  0
LINE
  8
0
 10
90.249
 20
3.82129
 11
90.2314
 21
3.84277
  0
LINE
  8
0
 10
90.2314
 20
3.84277
 11
90.2139
 21
3.86523
  0
LINE
  8
0
 10
90.2139
 20
3.86523
 11
90.1973
 21
3.88672
  0
LINE
  8
0
 10
90.1973
 20
3.88672
 11
90.1807
 21
3.90918
  0
LINE
  8
0
 10
90.1807
 20
3.90918
 11
90.1641
 21
3.93262
  0
LINE
  8
0
 10
90.1641
 20
3.93262
 11
90.1484
 21
3.95508
  0
LINE
  8
0
 10
90.1484
 20
3.95508
 11
90.1328
 21
3.97852
  0
LINE
  8
0
 10
90.1328
 20
3.97852
 11
90.1182
 21
4.00195
  0
LINE
  8
0
 10
90.1182
 20
4.00195
 11
90.1035
 21
4.02637
  0
LINE
  8
0
 10
90.1035
 20
4.02637
 11
90.0898
 21
4.0498
  0
LINE
  8
0
 10
90.0898
 20
4.0498
 11
90.0752
 21
4.07422
  0
LINE
  8
0
 10
90.0752
 20
4.07422
 11
90.0625
 21
4.09863
  0
LINE
  8
0
 10
90.0625
 20
4.09863
 11
90.0498
 21
4.12402
  0
LINE
  8
0
 10
90.0498
 20
4.12402
 11
90.0371
 21
4.14844
  0
LINE
  8
0
 10
90.0371
 20
4.14844
 11
90.002
 21
4.22461
  0
LINE
  8
0
 10
90.002
 20
4.22461
 11
89.9912
 21
4.25098
  0
LINE
  8
0
 10
89.9912
 20
4.25098
 11
89.9814
 21
4.27637
  0
LINE
  8
0
 10
89.9814
 20
4.27637
 11
89.9619
 21
4.3291
  0
LINE
  8
0
 10
89.9619
 20
4.3291
 11
89.9531
 21
4.35547
  0
LINE
  8
0
 10
89.9531
 20
4.35547
 11
89.9453
 21
4.38184
  0
LINE
  8
0
 10
89.9453
 20
4.38184
 11
89.9365
 21
4.40918
  0
LINE
  8
0
 10
89.9365
 20
4.40918
 11
89.9297
 21
4.43555
  0
LINE
  8
0
 10
89.9297
 20
4.43555
 11
89.916
 21
4.49023
  0
LINE
  8
0
 10
89.916
 20
4.49023
 11
89.9043
 21
4.54492
  0
LINE
  8
0
 10
89.9043
 20
4.54492
 11
89.8945
 21
4.59961
  0
LINE
  8
0
 10
89.8945
 20
4.59961
 11
89.8906
 21
4.62695
  0
LINE
  8
0
 10
89.8906
 20
4.62695
 11
89.8867
 21
4.65527
  0
LINE
  8
0
 10
89.8867
 20
4.65527
 11
89.8838
 21
4.68262
  0
LINE
  8
0
 10
89.8838
 20
4.68262
 11
89.8809
 21
4.71094
  0
LINE
  8
0
 10
89.8809
 20
4.71094
 11
89.8789
 21
4.73828
  0
LINE
  8
0
 10
89.8789
 20
4.73828
 11
89.877
 21
4.7666
  0
LINE
  8
0
 10
89.877
 20
4.7666
 11
89.875
 21
4.82227
  0
LINE
  8
0
 10
89.875
 20
4.82227
 11
89.875
 21
4.87793
  0
LINE
  8
0
 10
89.875
 20
4.87793
 11
89.877
 21
4.93359
  0
LINE
  8
0
 10
89.877
 20
4.93359
 11
89.8789
 21
4.96191
  0
LINE
  8
0
 10
89.8789
 20
4.96191
 11
89.8809
 21
4.98926
  0
LINE
  8
0
 10
89.8809
 20
4.98926
 11
89.8838
 21
5.01758
  0
LINE
  8
0
 10
89.8838
 20
5.01758
 11
89.8867
 21
5.04492
  0
LINE
  8
0
 10
89.8867
 20
5.04492
 11
89.8906
 21
5.07227
  0
LINE
  8
0
 10
89.8906
 20
5.07227
 11
89.8945
 21
5.10059
  0
LINE
  8
0
 10
89.8945
 20
5.10059
 11
89.9043
 21
5.15527
  0
LINE
  8
0
 10
89.9043
 20
5.15527
 11
89.916
 21
5.20996
  0
LINE
  8
0
 10
89.916
 20
5.20996
 11
89.9229
 21
5.2373
  0
LINE
  8
0
 10
89.9229
 20
5.2373
 11
89.9297
 21
5.26367
  0
LINE
  8
0
 10
89.9297
 20
5.26367
 11
89.9365
 21
5.29102
  0
LINE
  8
0
 10
89.9365
 20
5.29102
 11
89.9453
 21
5.31738
  0
LINE
  8
0
 10
89.9453
 20
5.31738
 11
89.9531
 21
5.34473
  0
LINE
  8
0
 10
89.9531
 20
5.34473
 11
89.9619
 21
5.37109
  0
LINE
  8
0
 10
89.9619
 20
5.37109
 11
89.9814
 21
5.42383
  0
LINE
  8
0
 10
89.9814
 20
5.42383
 11
89.9912
 21
5.44922
  0
LINE
  8
0
 10
89.9912
 20
5.44922
 11
90.002
 21
5.47559
  0
LINE
  8
0
 10
90.002
 20
5.47559
 11
90.0371
 21
5.55176
  0
LINE
  8
0
 10
90.0371
 20
5.55176
 11
90.0498
 21
5.57617
  0
LINE
  8
0
 10
90.0498
 20
5.57617
 11
90.0625
 21
5.60156
  0
LINE
  8
0
 10
90.0625
 20
5.60156
 11
90.0752
 21
5.62598
  0
LINE
  8
0
 10
90.0752
 20
5.62598
 11
90.0898
 21
5.65039
  0
LINE
  8
0
 10
90.0898
 20
5.65039
 11
90.1035
 21
5.67383
  0
LINE
  8
0
 10
90.1035
 20
5.67383
 11
90.1182
 21
5.69824
  0
LINE
  8
0
 10
90.1182
 20
5.69824
 11
90.1328
 21
5.72168
  0
LINE
  8
0
 10
90.1328
 20
5.72168
 11
90.1484
 21
5.74512
  0
LINE
  8
0
 10
90.1484
 20
5.74512
 11
90.1641
 21
5.76758
  0
LINE
  8
0
 10
90.1641
 20
5.76758
 11
90.2139
 21
5.83496
  0
LINE
  8
0
 10
90.2139
 20
5.83496
 11
90.2314
 21
5.85645
  0
LINE
  8
0
 10
90.2314
 20
5.85645
 11
90.249
 21
5.87891
  0
LINE
  8
0
 10
90.249
 20
5.87891
 11
90.2676
 21
5.89941
  0
LINE
  8
0
 10
90.2676
 20
5.89941
 11
90.2861
 21
5.9209
  0
LINE
  8
0
 10
90.2861
 20
5.9209
 11
90.3047
 21
5.94141
  0
LINE
  8
0
 10
90.3047
 20
5.94141
 11
90.3242
 21
5.96191
  0
LINE
  8
0
 10
90.3242
 20
5.96191
 11
90.3633
 21
6.00098
  0
LINE
  8
0
 10
90.3633
 20
6.00098
 11
90.3838
 21
6.02051
  0
LINE
  8
0
 10
90.3838
 20
6.02051
 11
90.4043
 21
6.03906
  0
LINE
  8
0
 10
90.4043
 20
6.03906
 11
90.4258
 21
6.05762
  0
LINE
  8
0
 10
90.4258
 20
6.05762
 11
90.4463
 21
6.0752
  0
LINE
  8
0
 10
90.4463
 20
6.0752
 11
90.4678
 21
6.09375
  0
LINE
  8
0
 10
90.4678
 20
6.09375
 11
90.4902
 21
6.11035
  0
LINE
  8
0
 10
90.4902
 20
6.11035
 11
90.5117
 21
6.12793
  0
LINE
  8
0
 10
90.5117
 20
6.12793
 11
90.5342
 21
6.14453
  0
LINE
  8
0
 10
90.5342
 20
6.14453
 11
90.5576
 21
6.16016
  0
LINE
  8
0
 10
90.5576
 20
6.16016
 11
90.5801
 21
6.17676
  0
LINE
  8
0
 10
90.5801
 20
6.17676
 11
90.6035
 21
6.19141
  0
LINE
  8
0
 10
90.6035
 20
6.19141
 11
90.627
 21
6.20703
  0
LINE
  8
0
 10
90.627
 20
6.20703
 11
90.6514
 21
6.22168
  0
LINE
  8
0
 10
90.6514
 20
6.22168
 11
90.6748
 21
6.23535
  0
LINE
  8
0
 10
90.6748
 20
6.23535
 11
90.7236
 21
6.2627
  0
LINE
  8
0
 10
90.7236
 20
6.2627
 11
90.749
 21
6.27539
  0
LINE
  8
0
 10
90.749
 20
6.27539
 11
90.7734
 21
6.28809
  0
LINE
  8
0
 10
90.7734
 20
6.28809
 11
90.8496
 21
6.32324
  0
LINE
  8
0
 10
90.8496
 20
6.32324
 11
90.876
 21
6.33301
  0
LINE
  8
0
 10
90.876
 20
6.33301
 11
90.9014
 21
6.34375
  0
LINE
  8
0
 10
90.9014
 20
6.34375
 11
90.9541
 21
6.36328
  0
LINE
  8
0
 10
90.9541
 20
6.36328
 11
90.9805
 21
6.37207
  0
LINE
  8
0
 10
90.9805
 20
6.37207
 11
91.0068
 21
6.37988
  0
LINE
  8
0
 10
91.0068
 20
6.37988
 11
91.0342
 21
6.3877
  0
LINE
  8
0
 10
91.0342
 20
6.3877
 11
91.0605
 21
6.39551
  0
LINE
  8
0
 10
91.0605
 20
6.39551
 11
91.1152
 21
6.40918
  0
LINE
  8
0
 10
91.1152
 20
6.40918
 11
91.1699
 21
6.4209
  0
LINE
  8
0
 10
91.1699
 20
6.4209
 11
91.2246
 21
6.43066
  0
LINE
  8
0
 10
91.2246
 20
6.43066
 11
91.252
 21
6.43457
  0
LINE
  8
0
 10
91.252
 20
6.43457
 11
91.2803
 21
6.43848
  0
LINE
  8
0
 10
91.2803
 20
6.43848
 11
91.3076
 21
6.44141
  0
LINE
  8
0
 10
91.3076
 20
6.44141
 11
91.3359
 21
6.44434
  0
LINE
  8
0
 10
91.3359
 20
6.44434
 11
91.3633
 21
6.44629
  0
LINE
  8
0
 10
91.3633
 20
6.44629
 11
91.3916
 21
6.44824
  0
LINE
  8
0
 10
91.3916
 20
6.44824
 11
91.4473
 21
6.4502
  0
LINE
  8
0
 10
91.4473
 20
6.4502
 11
91.5029
 21
6.4502
  0
LINE
  8
0
 10
91.5029
 20
6.4502
 11
91.5586
 21
6.44824
  0
LINE
  8
0
 10
91.5586
 20
6.44824
 11
91.5869
 21
6.44629
  0
LINE
  8
0
 10
91.5869
 20
6.44629
 11
91.6143
 21
6.44434
  0
LINE
  8
0
 10
91.6143
 20
6.44434
 11
91.6426
 21
6.44141
  0
LINE
  8
0
 10
91.6426
 20
6.44141
 11
91.6699
 21
6.43848
  0
LINE
  8
0
 10
91.6699
 20
6.43848
 11
91.6973
 21
6.43457
  0
LINE
  8
0
 10
91.6973
 20
6.43457
 11
91.7256
 21
6.43066
  0
LINE
  8
0
 10
91.7256
 20
6.43066
 11
91.7803
 21
6.4209
  0
LINE
  8
0
 10
91.7803
 20
6.4209
 11
91.835
 21
6.40918
  0
LINE
  8
0
 10
91.835
 20
6.40918
 11
91.8623
 21
6.40234
  0
LINE
  8
0
 10
91.8623
 20
6.40234
 11
91.8887
 21
6.39551
  0
LINE
  8
0
 10
91.8887
 20
6.39551
 11
91.916
 21
6.3877
  0
LINE
  8
0
 10
91.916
 20
6.3877
 11
91.9424
 21
6.37988
  0
LINE
  8
0
 10
91.9424
 20
6.37988
 11
91.9697
 21
6.37207
  0
LINE
  8
0
 10
91.9697
 20
6.37207
 11
91.9961
 21
6.36328
  0
LINE
  8
0
 10
91.9961
 20
6.36328
 11
92.0488
 21
6.34375
  0
LINE
  8
0
 10
92.0488
 20
6.34375
 11
92.0742
 21
6.33301
  0
LINE
  8
0
 10
92.0742
 20
6.33301
 11
92.1006
 21
6.32324
  0
LINE
  8
0
 10
92.1006
 20
6.32324
 11
92.1768
 21
6.28809
  0
LINE
  8
0
 10
92.1768
 20
6.28809
 11
92.2012
 21
6.27539
  0
LINE
  8
0
 10
92.2012
 20
6.27539
 11
92.2266
 21
6.2627
  0
LINE
  8
0
 10
92.2266
 20
6.2627
 11
92.2754
 21
6.23535
  0
LINE
  8
0
 10
92.2754
 20
6.23535
 11
92.2988
 21
6.22168
  0
LINE
  8
0
 10
92.2988
 20
6.22168
 11
92.3232
 21
6.20703
  0
LINE
  8
0
 10
92.3232
 20
6.20703
 11
92.3467
 21
6.19141
  0
LINE
  8
0
 10
92.3467
 20
6.19141
 11
92.3701
 21
6.17676
  0
LINE
  8
0
 10
92.3701
 20
6.17676
 11
92.3926
 21
6.16016
  0
LINE
  8
0
 10
92.3926
 20
6.16016
 11
92.415
 21
6.14453
  0
LINE
  8
0
 10
92.415
 20
6.14453
 11
92.4375
 21
6.12793
  0
LINE
  8
0
 10
92.4375
 20
6.12793
 11
92.46
 21
6.11035
  0
LINE
  8
0
 10
92.46
 20
6.11035
 11
92.4814
 21
6.09375
  0
LINE
  8
0
 10
92.4814
 20
6.09375
 11
92.5039
 21
6.0752
  0
LINE
  8
0
 10
92.5039
 20
6.0752
 11
92.5244
 21
6.05762
  0
LINE
  8
0
 10
92.5244
 20
6.05762
 11
92.5459
 21
6.03906
  0
LINE
  8
0
 10
92.5459
 20
6.03906
 11
92.5664
 21
6.02051
  0
LINE
  8
0
 10
92.5664
 20
6.02051
 11
92.5869
 21
6.00098
  0
LINE
  8
0
 10
92.5869
 20
6.00098
 11
92.626
 21
5.96191
  0
LINE
  8
0
 10
92.626
 20
5.96191
 11
92.6455
 21
5.94141
  0
LINE
  8
0
 10
92.6455
 20
5.94141
 11
92.6641
 21
5.9209
  0
LINE
  8
0
 10
92.6641
 20
5.9209
 11
92.6826
 21
5.89941
  0
LINE
  8
0
 10
92.6826
 20
5.89941
 11
92.7002
 21
5.87891
  0
LINE
  8
0
 10
92.7002
 20
5.87891
 11
92.7188
 21
5.85645
  0
LINE
  8
0
 10
92.7188
 20
5.85645
 11
92.7354
 21
5.83496
  0
LINE
  8
0
 10
92.7354
 20
5.83496
 11
92.7529
 21
5.8125
  0
LINE
  8
0
 10
92.7529
 20
5.8125
 11
92.7695
 21
5.79004
  0
LINE
  8
0
 10
92.7695
 20
5.79004
 11
92.7852
 21
5.76758
  0
LINE
  8
0
 10
92.7852
 20
5.76758
 11
92.8018
 21
5.74512
  0
LINE
  8
0
 10
92.8018
 20
5.74512
 11
92.8164
 21
5.72168
  0
LINE
  8
0
 10
92.8164
 20
5.72168
 11
92.832
 21
5.69824
  0
LINE
  8
0
 10
92.832
 20
5.69824
 11
92.8467
 21
5.67383
  0
LINE
  8
0
 10
92.8467
 20
5.67383
 11
92.8604
 21
5.65039
  0
LINE
  8
0
 10
92.8604
 20
5.65039
 11
92.8877
 21
5.60156
  0
LINE
  8
0
 10
92.8877
 20
5.60156
 11
92.9004
 21
5.57617
  0
LINE
  8
0
 10
92.9004
 20
5.57617
 11
92.9131
 21
5.55176
  0
LINE
  8
0
 10
92.9131
 20
5.55176
 11
92.9482
 21
5.47559
  0
LINE
  8
0
 10
92.9482
 20
5.47559
 11
92.958
 21
5.44922
  0
LINE
  8
0
 10
92.958
 20
5.44922
 11
92.9688
 21
5.42383
  0
LINE
  8
0
 10
92.9688
 20
5.42383
 11
92.9883
 21
5.37109
  0
LINE
  8
0
 10
92.9883
 20
5.37109
 11
92.9971
 21
5.34473
  0
LINE
  8
0
 10
92.9971
 20
5.34473
 11
93.0049
 21
5.31738
  0
LINE
  8
0
 10
93.0049
 20
5.31738
 11
93.0127
 21
5.29102
  0
LINE
  8
0
 10
93.0127
 20
5.29102
 11
93.0205
 21
5.26367
  0
LINE
  8
0
 10
93.0205
 20
5.26367
 11
93.0273
 21
5.2373
  0
LINE
  8
0
 10
93.0273
 20
5.2373
 11
93.0342
 21
5.20996
  0
LINE
  8
0
 10
93.0342
 20
5.20996
 11
93.0459
 21
5.15527
  0
LINE
  8
0
 10
93.0459
 20
5.15527
 11
93.0557
 21
5.10059
  0
LINE
  8
0
 10
93.0557
 20
5.10059
 11
93.0596
 21
5.07227
  0
LINE
  8
0
 10
93.0596
 20
5.07227
 11
93.0635
 21
5.04492
  0
LINE
  8
0
 10
93.0635
 20
5.04492
 11
93.0664
 21
5.01758
  0
LINE
  8
0
 10
93.0664
 20
5.01758
 11
93.0693
 21
4.98926
  0
LINE
  8
0
 10
93.0693
 20
4.98926
 11
93.0713
 21
4.96191
  0
LINE
  8
0
 10
93.0713
 20
4.96191
 11
93.0732
 21
4.93359
  0
LINE
  8
0
 10
93.0732
 20
4.93359
 11
93.0752
 21
4.87793
  0
LINE
  8
0
 10
93.0752
 20
4.87793
 11
93.0752
 21
4.82227
  0
LINE
  8
0
 10
93.0752
 20
4.82227
 11
93.0732
 21
4.7666
  0
LINE
  8
0
 10
93.0732
 20
4.7666
 11
93.0713
 21
4.73828
  0
LINE
  8
0
 10
93.0713
 20
4.73828
 11
93.0693
 21
4.71094
  0
LINE
  8
0
 10
93.0693
 20
4.71094
 11
93.0664
 21
4.68262
  0
LINE
  8
0
 10
93.0664
 20
4.68262
 11
93.0635
 21
4.65527
  0
LINE
  8
0
 10
93.0635
 20
4.65527
 11
93.0596
 21
4.62695
  0
LINE
  8
0
 10
93.0596
 20
4.62695
 11
93.0557
 21
4.59961
  0
LINE
  8
0
 10
93.0557
 20
4.59961
 11
93.0459
 21
4.54492
  0
LINE
  8
0
 10
93.0459
 20
4.54492
 11
93.0342
 21
4.49023
  0
LINE
  8
0
 10
93.0342
 20
4.49023
 11
93.0205
 21
4.43555
  0
LINE
  8
0
 10
93.0205
 20
4.43555
 11
93.0127
 21
4.40918
  0
LINE
  8
0
 10
93.0127
 20
4.40918
 11
93.0049
 21
4.38184
  0
LINE
  8
0
 10
93.0049
 20
4.38184
 11
92.9971
 21
4.35547
  0
LINE
  8
0
 10
92.9971
 20
4.35547
 11
92.9883
 21
4.3291
  0
LINE
  8
0
 10
92.9883
 20
4.3291
 11
92.9688
 21
4.27637
  0
LINE
  8
0
 10
92.9688
 20
4.27637
 11
92.958
 21
4.25098
  0
LINE
  8
0
 10
92.958
 20
4.25098
 11
92.9482
 21
4.22461
  0
LINE
  8
0
 10
92.9482
 20
4.22461
 11
92.9131
 21
4.14844
  0
LINE
  8
0
 10
92.9131
 20
4.14844
 11
92.9004
 21
4.12402
  0
LINE
  8
0
 10
92.9004
 20
4.12402
 11
92.8877
 21
4.09863
  0
LINE
  8
0
 10
92.8877
 20
4.09863
 11
92.8604
 21
4.0498
  0
LINE
  8
0
 10
92.8604
 20
4.0498
 11
92.8467
 21
4.02637
  0
LINE
  8
0
 10
92.8467
 20
4.02637
 11
92.832
 21
4.00195
  0
LINE
  8
0
 10
92.832
 20
4.00195
 11
92.8164
 21
3.97852
  0
LINE
  8
0
 10
92.8164
 20
3.97852
 11
92.8018
 21
3.95508
  0
LINE
  8
0
 10
92.8018
 20
3.95508
 11
92.7852
 21
3.93262
  0
LINE
  8
0
 10
92.7852
 20
3.93262
 11
92.7695
 21
3.90918
  0
LINE
  8
0
 10
92.7695
 20
3.90918
 11
92.7529
 21
3.88672
  0
LINE
  8
0
 10
92.7529
 20
3.88672
 11
92.7354
 21
3.86523
  0
LINE
  8
0
 10
92.7354
 20
3.86523
 11
92.7188
 21
3.84277
  0
LINE
  8
0
 10
92.7188
 20
3.84277
 11
92.7002
 21
3.82129
  0
LINE
  8
0
 10
92.7002
 20
3.82129
 11
92.6826
 21
3.80078
  0
LINE
  8
0
 10
92.6826
 20
3.80078
 11
92.6641
 21
3.7793
  0
LINE
  8
0
 10
92.6641
 20
3.7793
 11
92.6455
 21
3.75879
  0
LINE
  8
0
 10
92.6455
 20
3.75879
 11
92.626
 21
3.73828
  0
LINE
  8
0
 10
92.626
 20
3.73828
 11
92.5869
 21
3.69922
  0
LINE
  8
0
 10
92.5869
 20
3.69922
 11
92.5664
 21
3.67969
  0
LINE
  8
0
 10
92.5664
 20
3.67969
 11
92.5459
 21
3.66113
  0
LINE
  8
0
 10
92.5459
 20
3.66113
 11
92.5244
 21
3.64258
  0
LINE
  8
0
 10
92.5244
 20
3.64258
 11
92.5039
 21
3.62402
  0
LINE
  8
0
 10
92.5039
 20
3.62402
 11
92.4814
 21
3.60645
  0
LINE
  8
0
 10
92.4814
 20
3.60645
 11
92.46
 21
3.58887
  0
LINE
  8
0
 10
92.46
 20
3.58887
 11
92.3926
 21
3.53906
  0
LINE
  8
0
 10
92.3926
 20
3.53906
 11
92.3701
 21
3.52344
  0
LINE
  8
0
 10
92.3701
 20
3.52344
 11
92.3467
 21
3.50781
  0
LINE
  8
0
 10
92.3467
 20
3.50781
 11
92.3232
 21
3.49316
  0
LINE
  8
0
 10
92.3232
 20
3.49316
 11
92.2988
 21
3.47852
  0
LINE
  8
0
 10
92.2988
 20
3.47852
 11
92.2754
 21
3.46484
  0
LINE
  8
0
 10
92.2754
 20
3.46484
 11
92.251
 21
3.4502
  0
LINE
  8
0
 10
92.251
 20
3.4502
 11
92.2266
 21
3.4375
  0
LINE
  8
0
 10
92.2266
 20
3.4375
 11
92.2012
 21
3.4248
  0
LINE
  8
0
 10
92.2012
 20
3.4248
 11
92.1768
 21
3.41211
  0
LINE
  8
0
 10
92.1768
 20
3.41211
 11
92.1006
 21
3.37695
  0
LINE
  8
0
 10
92.1006
 20
3.37695
 11
92.0742
 21
3.36621
  0
LINE
  8
0
 10
92.0742
 20
3.36621
 11
92.0488
 21
3.35645
  0
LINE
  8
0
 10
92.0488
 20
3.35645
 11
91.9961
 21
3.33691
  0
LINE
  8
0
 10
91.9961
 20
3.33691
 11
91.9697
 21
3.32812
  0
LINE
  8
0
 10
91.9697
 20
3.32812
 11
91.9424
 21
3.32031
  0
LINE
  8
0
 10
91.9424
 20
3.32031
 11
91.916
 21
3.31152
  0
LINE
  8
0
 10
91.916
 20
3.31152
 11
91.8887
 21
3.30469
  0
LINE
  8
0
 10
91.8887
 20
3.30469
 11
91.8623
 21
3.29785
  0
LINE
  8
0
 10
91.8623
 20
3.29785
 11
91.835
 21
3.29102
  0
LINE
  8
0
 10
91.835
 20
3.29102
 11
91.7803
 21
3.2793
  0
LINE
  8
0
 10
91.7803
 20
3.2793
 11
91.7256
 21
3.26953
  0
LINE
  8
0
 10
91.7256
 20
3.26953
 11
91.6973
 21
3.26562
  0
LINE
  8
0
 10
91.6973
 20
3.26562
 11
91.6699
 21
3.26172
  0
LINE
  8
0
 10
91.6699
 20
3.26172
 11
91.6426
 21
3.25879
  0
LINE
  8
0
 10
91.6426
 20
3.25879
 11
91.6143
 21
3.25586
  0
LINE
  8
0
 10
91.6143
 20
3.25586
 11
91.5869
 21
3.25391
  0
LINE
  8
0
 10
91.5869
 20
3.25391
 11
91.5586
 21
3.25195
  0
LINE
  8
0
 10
91.5586
 20
3.25195
 11
91.5029
 21
3.25
  0
LINE
  8
0
 10
91.5029
 20
3.25
 11
91.4473
 21
3.25
  0
LINE
  8
0
 10
9.44727
 20
3.25
 11
9.3916
 21
3.25195
  0
LINE
  8
0
 10
9.3916
 20
3.25195
 11
9.36328
 21
3.25391
  0
LINE
  8
0
 10
9.36328
 20
3.25391
 11
9.33594
 21
3.25586
  0
LINE
  8
0
 10
9.33594
 20
3.25586
 11
9.30762
 21
3.25879
  0
LINE
  8
0
 10
9.30762
 20
3.25879
 11
9.28027
 21
3.26172
  0
LINE
  8
0
 10
9.28027
 20
3.26172
 11
9.25195
 21
3.26562
  0
LINE
  8
0
 10
9.25195
 20
3.26562
 11
9.22461
 21
3.26953
  0
LINE
  8
0
 10
9.22461
 20
3.26953
 11
9.16992
 21
3.2793
  0
LINE
  8
0
 10
9.16992
 20
3.2793
 11
9.11523
 21
3.29102
  0
LINE
  8
0
 10
9.11523
 20
3.29102
 11
9.06055
 21
3.30469
  0
LINE
  8
0
 10
9.06055
 20
3.30469
 11
9.03418
 21
3.31152
  0
LINE
  8
0
 10
9.03418
 20
3.31152
 11
9.00684
 21
3.32031
  0
LINE
  8
0
 10
9.00684
 20
3.32031
 11
8.98047
 21
3.32812
  0
LINE
  8
0
 10
8.98047
 20
3.32812
 11
8.9541
 21
3.33691
  0
LINE
  8
0
 10
8.9541
 20
3.33691
 11
8.90137
 21
3.35645
  0
LINE
  8
0
 10
8.90137
 20
3.35645
 11
8.87598
 21
3.36621
  0
LINE
  8
0
 10
8.87598
 20
3.36621
 11
8.84961
 21
3.37695
  0
LINE
  8
0
 10
8.84961
 20
3.37695
 11
8.77344
 21
3.41211
  0
LINE
  8
0
 10
8.77344
 20
3.41211
 11
8.74902
 21
3.4248
  0
LINE
  8
0
 10
8.74902
 20
3.4248
 11
8.72363
 21
3.4375
  0
LINE
  8
0
 10
8.72363
 20
3.4375
 11
8.69922
 21
3.4502
  0
LINE
  8
0
 10
8.69922
 20
3.4502
 11
8.6748
 21
3.46484
  0
LINE
  8
0
 10
8.6748
 20
3.46484
 11
8.65137
 21
3.47852
  0
LINE
  8
0
 10
8.65137
 20
3.47852
 11
8.62695
 21
3.49316
  0
LINE
  8
0
 10
8.62695
 20
3.49316
 11
8.60352
 21
3.50781
  0
LINE
  8
0
 10
8.60352
 20
3.50781
 11
8.58008
 21
3.52344
  0
LINE
  8
0
 10
8.58008
 20
3.52344
 11
8.55762
 21
3.53906
  0
LINE
  8
0
 10
8.55762
 20
3.53906
 11
8.53418
 21
3.55566
  0
LINE
  8
0
 10
8.53418
 20
3.55566
 11
8.51172
 21
3.57227
  0
LINE
  8
0
 10
8.51172
 20
3.57227
 11
8.49023
 21
3.58887
  0
LINE
  8
0
 10
8.49023
 20
3.58887
 11
8.46777
 21
3.60645
  0
LINE
  8
0
 10
8.46777
 20
3.60645
 11
8.44629
 21
3.62402
  0
LINE
  8
0
 10
8.44629
 20
3.62402
 11
8.42578
 21
3.64258
  0
LINE
  8
0
 10
8.42578
 20
3.64258
 11
8.4043
 21
3.66113
  0
LINE
  8
0
 10
8.4043
 20
3.66113
 11
8.38379
 21
3.67969
  0
LINE
  8
0
 10
8.38379
 20
3.67969
 11
8.36328
 21
3.69922
  0
LINE
  8
0
 10
8.36328
 20
3.69922
 11
8.32422
 21
3.73828
  0
LINE
  8
0
 10
8.32422
 20
3.73828
 11
8.30469
 21
3.75879
  0
LINE
  8
0
 10
8.30469
 20
3.75879
 11
8.28613
 21
3.7793
  0
LINE
  8
0
 10
8.28613
 20
3.7793
 11
8.26758
 21
3.80078
  0
LINE
  8
0
 10
8.26758
 20
3.80078
 11
8.24902
 21
3.82129
  0
LINE
  8
0
 10
8.24902
 20
3.82129
 11
8.23145
 21
3.84277
  0
LINE
  8
0
 10
8.23145
 20
3.84277
 11
8.21387
 21
3.86523
  0
LINE
  8
0
 10
8.21387
 20
3.86523
 11
8.19727
 21
3.88672
  0
LINE
  8
0
 10
8.19727
 20
3.88672
 11
8.18066
 21
3.90918
  0
LINE
  8
0
 10
8.18066
 20
3.90918
 11
8.16406
 21
3.93262
  0
LINE
  8
0
 10
8.16406
 20
3.93262
 11
8.14844
 21
3.95508
  0
LINE
  8
0
 10
8.14844
 20
3.95508
 11
8.13281
 21
3.97852
  0
LINE
  8
0
 10
8.13281
 20
3.97852
 11
8.11816
 21
4.00195
  0
LINE
  8
0
 10
8.11816
 20
4.00195
 11
8.10352
 21
4.02637
  0
LINE
  8
0
 10
8.10352
 20
4.02637
 11
8.08984
 21
4.0498
  0
LINE
  8
0
 10
8.08984
 20
4.0498
 11
8.0752
 21
4.07422
  0
LINE
  8
0
 10
8.0752
 20
4.07422
 11
8.0625
 21
4.09863
  0
LINE
  8
0
 10
8.0625
 20
4.09863
 11
8.0498
 21
4.12402
  0
LINE
  8
0
 10
8.0498
 20
4.12402
 11
8.03711
 21
4.14844
  0
LINE
  8
0
 10
8.03711
 20
4.14844
 11
8.00195
 21
4.22461
  0
LINE
  8
0
 10
8.00195
 20
4.22461
 11
7.99121
 21
4.25098
  0
LINE
  8
0
 10
7.99121
 20
4.25098
 11
7.98145
 21
4.27637
  0
LINE
  8
0
 10
7.98145
 20
4.27637
 11
7.96191
 21
4.3291
  0
LINE
  8
0
 10
7.96191
 20
4.3291
 11
7.95312
 21
4.35547
  0
LINE
  8
0
 10
7.95312
 20
4.35547
 11
7.94531
 21
4.38184
  0
LINE
  8
0
 10
7.94531
 20
4.38184
 11
7.93652
 21
4.40918
  0
LINE
  8
0
 10
7.93652
 20
4.40918
 11
7.92969
 21
4.43555
  0
LINE
  8
0
 10
7.92969
 20
4.43555
 11
7.91602
 21
4.49023
  0
LINE
  8
0
 10
7.91602
 20
4.49023
 11
7.9043
 21
4.54492
  0
LINE
  8
0
 10
7.9043
 20
4.54492
 11
7.89453
 21
4.59961
  0
LINE
  8
0
 10
7.89453
 20
4.59961
 11
7.89062
 21
4.62695
  0
LINE
  8
0
 10
7.89062
 20
4.62695
 11
7.88672
 21
4.65527
  0
LINE
  8
0
 10
7.88672
 20
4.65527
 11
7.88379
 21
4.68262
  0
LINE
  8
0
 10
7.88379
 20
4.68262
 11
7.88086
 21
4.71094
  0
LINE
  8
0
 10
7.88086
 20
4.71094
 11
7.87891
 21
4.73828
  0
LINE
  8
0
 10
7.87891
 20
4.73828
 11
7.87695
 21
4.7666
  0
LINE
  8
0
 10
7.87695
 20
4.7666
 11
7.875
 21
4.82227
  0
LINE
  8
0
 10
7.875
 20
4.82227
 11
7.875
 21
4.87793
  0
LINE
  8
0
 10
7.875
 20
4.87793
 11
7.87695
 21
4.93359
  0
LINE
  8
0
 10
7.87695
 20
4.93359
 11
7.87891
 21
4.96191
  0
LINE
  8
0
 10
7.87891
 20
4.96191
 11
7.88086
 21
4.98926
  0
LINE
  8
0
 10
7.88086
 20
4.98926
 11
7.88379
 21
5.01758
  0
LINE
  8
0
 10
7.88379
 20
5.01758
 11
7.88672
 21
5.04492
  0
LINE
  8
0
 10
7.88672
 20
5.04492
 11
7.89062
 21
5.07227
  0
LINE
  8
0
 10
7.89062
 20
5.07227
 11
7.89453
 21
5.10059
  0
LINE
  8
0
 10
7.89453
 20
5.10059
 11
7.9043
 21
5.15527
  0
LINE
  8
0
 10
7.9043
 20
5.15527
 11
7.91602
 21
5.20996
  0
LINE
  8
0
 10
7.91602
 20
5.20996
 11
7.92285
 21
5.2373
  0
LINE
  8
0
 10
7.92285
 20
5.2373
 11
7.92969
 21
5.26367
  0
LINE
  8
0
 10
7.92969
 20
5.26367
 11
7.93652
 21
5.29102
  0
LINE
  8
0
 10
7.93652
 20
5.29102
 11
7.94531
 21
5.31738
  0
LINE
  8
0
 10
7.94531
 20
5.31738
 11
7.95312
 21
5.34473
  0
LINE
  8
0
 10
7.95312
 20
5.34473
 11
7.96191
 21
5.37109
  0
LINE
  8
0
 10
7.96191
 20
5.37109
 11
7.98145
 21
5.42383
  0
LINE
  8
0
 10
7.98145
 20
5.42383
 11
7.99121
 21
5.44922
  0
LINE
  8
0
 10
7.99121
 20
5.44922
 11
8.00195
 21
5.47559
  0
LINE
  8
0
 10
8.00195
 20
5.47559
 11
8.03711
 21
5.55176
  0
LINE
  8
0
 10
8.03711
 20
5.55176
 11
8.0498
 21
5.57617
  0
LINE
  8
0
 10
8.0498
 20
5.57617
 11
8.0625
 21
5.60156
  0
LINE
  8
0
 10
8.0625
 20
5.60156
 11
8.0752
 21
5.62598
  0
LINE
  8
0
 10
8.0752
 20
5.62598
 11
8.08984
 21
5.65039
  0
LINE
  8
0
 10
8.08984
 20
5.65039
 11
8.10352
 21
5.67383
  0
LINE
  8
0
 10
8.10352
 20
5.67383
 11
8.11816
 21
5.69824
  0
LINE
  8
0
 10
8.11816
 20
5.69824
 11
8.13281
 21
5.72168
  0
LINE
  8
0
 10
8.13281
 20
5.72168
 11
8.14844
 21
5.74512
  0
LINE
  8
0
 10
8.14844
 20
5.74512
 11
8.16406
 21
5.76758
  0
LINE
  8
0
 10
8.16406
 20
5.76758
 11
8.21387
 21
5.83496
  0
LINE
  8
0
 10
8.21387
 20
5.83496
 11
8.23145
 21
5.85645
  0
LINE
  8
0
 10
8.23145
 20
5.85645
 11
8.24902
 21
5.87891
  0
LINE
  8
0
 10
8.24902
 20
5.87891
 11
8.26758
 21
5.89941
  0
LINE
  8
0
 10
8.26758
 20
5.89941
 11
8.28613
 21
5.9209
  0
LINE
  8
0
 10
8.28613
 20
5.9209
 11
8.30469
 21
5.94141
  0
LINE
  8
0
 10
8.30469
 20
5.94141
 11
8.32422
 21
5.96191
  0
LINE
  8
0
 10
8.32422
 20
5.96191
 11
8.36328
 21
6.00098
  0
LINE
  8
0
 10
8.36328
 20
6.00098
 11
8.38379
 21
6.02051
  0
LINE
  8
0
 10
8.38379
 20
6.02051
 11
8.4043
 21
6.03906
  0
LINE
  8
0
 10
8.4043
 20
6.03906
 11
8.42578
 21
6.05762
  0
LINE
  8
0
 10
8.42578
 20
6.05762
 11
8.44629
 21
6.0752
  0
LINE
  8
0
 10
8.44629
 20
6.0752
 11
8.46777
 21
6.09375
  0
LINE
  8
0
 10
8.46777
 20
6.09375
 11
8.49023
 21
6.11035
  0
LINE
  8
0
 10
8.49023
 20
6.11035
 11
8.51172
 21
6.12793
  0
LINE
  8
0
 10
8.51172
 20
6.12793
 11
8.53418
 21
6.14453
  0
LINE
  8
0
 10
8.53418
 20
6.14453
 11
8.55762
 21
6.16016
  0
LINE
  8
0
 10
8.55762
 20
6.16016
 11
8.58008
 21
6.17676
  0
LINE
  8
0
 10
8.58008
 20
6.17676
 11
8.60352
 21
6.19141
  0
LINE
  8
0
 10
8.60352
 20
6.19141
 11
8.62695
 21
6.20703
  0
LINE
  8
0
 10
8.62695
 20
6.20703
 11
8.65137
 21
6.22168
  0
LINE
  8
0
 10
8.65137
 20
6.22168
 11
8.6748
 21
6.23535
  0
LINE
  8
0
 10
8.6748
 20
6.23535
 11
8.72363
 21
6.2627
  0
LINE
  8
0
 10
8.72363
 20
6.2627
 11
8.74902
 21
6.27539
  0
LINE
  8
0
 10
8.74902
 20
6.27539
 11
8.77344
 21
6.28809
  0
LINE
  8
0
 10
8.77344
 20
6.28809
 11
8.84961
 21
6.32324
  0
LINE
  8
0
 10
8.84961
 20
6.32324
 11
8.87598
 21
6.33301
  0
LINE
  8
0
 10
8.87598
 20
6.33301
 11
8.90137
 21
6.34375
  0
LINE
  8
0
 10
8.90137
 20
6.34375
 11
8.9541
 21
6.36328
  0
LINE
  8
0
 10
8.9541
 20
6.36328
 11
8.98047
 21
6.37207
  0
LINE
  8
0
 10
8.98047
 20
6.37207
 11
9.00684
 21
6.37988
  0
LINE
  8
0
 10
9.00684
 20
6.37988
 11
9.03418
 21
6.3877
  0
LINE
  8
0
 10
9.03418
 20
6.3877
 11
9.06055
 21
6.39551
  0
LINE
  8
0
 10
9.06055
 20
6.39551
 11
9.11523
 21
6.40918
  0
LINE
  8
0
 10
9.11523
 20
6.40918
 11
9.16992
 21
6.4209
  0
LINE
  8
0
 10
9.16992
 20
6.4209
 11
9.22461
 21
6.43066
  0
LINE
  8
0
 10
9.22461
 20
6.43066
 11
9.25195
 21
6.43457
  0
LINE
  8
0
 10
9.25195
 20
6.43457
 11
9.28027
 21
6.43848
  0
LINE
  8
0
 10
9.28027
 20
6.43848
 11
9.30762
 21
6.44141
  0
LINE
  8
0
 10
9.30762
 20
6.44141
 11
9.33594
 21
6.44434
  0
LINE
  8
0
 10
9.33594
 20
6.44434
 11
9.36328
 21
6.44629
  0
LINE
  8
0
 10
9.36328
 20
6.44629
 11
9.3916
 21
6.44824
  0
LINE
  8
0
 10
9.3916
 20
6.44824
 11
9.44727
 21
6.4502
  0
LINE
  8
0
 10
9.44727
 20
6.4502
 11
9.50293
 21
6.4502
  0
LINE
  8
0
 10
9.50293
 20
6.4502
 11
9.55859
 21
6.44824
  0
LINE
  8
0
 10
9.55859
 20
6.44824
 11
9.58691
 21
6.44629
  0
LINE
  8
0
 10
9.58691
 20
6.44629
 11
9.61426
 21
6.44434
  0
LINE
  8
0
 10
9.61426
 20
6.44434
 11
9.64258
 21
6.44141
  0
LINE
  8
0
 10
9.64258
 20
6.44141
 11
9.66992
 21
6.43848
  0
LINE
  8
0
 10
9.66992
 20
6.43848
 11
9.69727
 21
6.43457
  0
LINE
  8
0
 10
9.69727
 20
6.43457
 11
9.72559
 21
6.43066
  0
LINE
  8
0
 10
9.72559
 20
6.43066
 11
9.78027
 21
6.4209
  0
LINE
  8
0
 10
9.78027
 20
6.4209
 11
9.83496
 21
6.40918
  0
LINE
  8
0
 10
9.83496
 20
6.40918
 11
9.8623
 21
6.40234
  0
LINE
  8
0
 10
9.8623
 20
6.40234
 11
9.88867
 21
6.39551
  0
LINE
  8
0
 10
9.88867
 20
6.39551
 11
9.91602
 21
6.3877
  0
LINE
  8
0
 10
9.91602
 20
6.3877
 11
9.94238
 21
6.37988
  0
LINE
  8
0
 10
9.94238
 20
6.37988
 11
9.96973
 21
6.37207
  0
LINE
  8
0
 10
9.96973
 20
6.37207
 11
9.99609
 21
6.36328
  0
LINE
  8
0
 10
9.99609
 20
6.36328
 11
10.0488
 21
6.34375
  0
LINE
  8
0
 10
10.0488
 20
6.34375
 11
10.0742
 21
6.33301
  0
LINE
  8
0
 10
10.0742
 20
6.33301
 11
10.1006
 21
6.32324
  0
LINE
  8
0
 10
10.1006
 20
6.32324
 11
10.1768
 21
6.28809
  0
LINE
  8
0
 10
10.1768
 20
6.28809
 11
10.2012
 21
6.27539
  0
LINE
  8
0
 10
10.2012
 20
6.27539
 11
10.2266
 21
6.2627
  0
LINE
  8
0
 10
10.2266
 20
6.2627
 11
10.2754
 21
6.23535
  0
LINE
  8
0
 10
10.2754
 20
6.23535
 11
10.2988
 21
6.22168
  0
LINE
  8
0
 10
10.2988
 20
6.22168
 11
10.3232
 21
6.20703
  0
LINE
  8
0
 10
10.3232
 20
6.20703
 11
10.3467
 21
6.19141
  0
LINE
  8
0
 10
10.3467
 20
6.19141
 11
10.3701
 21
6.17676
  0
LINE
  8
0
 10
10.3701
 20
6.17676
 11
10.3926
 21
6.16016
  0
LINE
  8
0
 10
10.3926
 20
6.16016
 11
10.415
 21
6.14453
  0
LINE
  8
0
 10
10.415
 20
6.14453
 11
10.4375
 21
6.12793
  0
LINE
  8
0
 10
10.4375
 20
6.12793
 11
10.46
 21
6.11035
  0
LINE
  8
0
 10
10.46
 20
6.11035
 11
10.4814
 21
6.09375
  0
LINE
  8
0
 10
10.4814
 20
6.09375
 11
10.5039
 21
6.0752
  0
LINE
  8
0
 10
10.5039
 20
6.0752
 11
10.5244
 21
6.05762
  0
LINE
  8
0
 10
10.5244
 20
6.05762
 11
10.5459
 21
6.03906
  0
LINE
  8
0
 10
10.5459
 20
6.03906
 11
10.5664
 21
6.02051
  0
LINE
  8
0
 10
10.5664
 20
6.02051
 11
10.5869
 21
6.00098
  0
LINE
  8
0
 10
10.5869
 20
6.00098
 11
10.626
 21
5.96191
  0
LINE
  8
0
 10
10.626
 20
5.96191
 11
10.6455
 21
5.94141
  0
LINE
  8
0
 10
10.6455
 20
5.94141
 11
10.6641
 21
5.9209
  0
LINE
  8
0
 10
10.6641
 20
5.9209
 11
10.6826
 21
5.89941
  0
LINE
  8
0
 10
10.6826
 20
5.89941
 11
10.7002
 21
5.87891
  0
LINE
  8
0
 10
10.7002
 20
5.87891
 11
10.7188
 21
5.85645
  0
LINE
  8
0
 10
10.7188
 20
5.85645
 11
10.7354
 21
5.83496
  0
LINE
  8
0
 10
10.7354
 20
5.83496
 11
10.7529
 21
5.8125
  0
LINE
  8
0
 10
10.7529
 20
5.8125
 11
10.7695
 21
5.79004
  0
LINE
  8
0
 10
10.7695
 20
5.79004
 11
10.7852
 21
5.76758
  0
LINE
  8
0
 10
10.7852
 20
5.76758
 11
10.8018
 21
5.74512
  0
LINE
  8
0
 10
10.8018
 20
5.74512
 11
10.8164
 21
5.72168
  0
LINE
  8
0
 10
10.8164
 20
5.72168
 11
10.832
 21
5.69824
  0
LINE
  8
0
 10
10.832
 20
5.69824
 11
10.8467
 21
5.67383
  0
LINE
  8
0
 10
10.8467
 20
5.67383
 11
10.8604
 21
5.65039
  0
LINE
  8
0
 10
10.8604
 20
5.65039
 11
10.8877
 21
5.60156
  0
LINE
  8
0
 10
10.8877
 20
5.60156
 11
10.9004
 21
5.57617
  0
LINE
  8
0
 10
10.9004
 20
5.57617
 11
10.9131
 21
5.55176
  0
LINE
  8
0
 10
10.9131
 20
5.55176
 11
10.9482
 21
5.47559
  0
LINE
  8
0
 10
10.9482
 20
5.47559
 11
10.958
 21
5.44922
  0
LINE
  8
0
 10
10.958
 20
5.44922
 11
10.9688
 21
5.42383
  0
LINE
  8
0
 10
10.9688
 20
5.42383
 11
10.9883
 21
5.37109
  0
LINE
  8
0
 10
10.9883
 20
5.37109
 11
10.9971
 21
5.34473
  0
LINE
  8
0
 10
10.9971
 20
5.34473
 11
11.0049
 21
5.31738
  0
LINE
  8
0
 10
11.0049
 20
5.31738
 11
11.0127
 21
5.29102
  0
LINE
  8
0
 10
11.0127
 20
5.29102
 11
11.0205
 21
5.26367
  0
LINE
  8
0
 10
11.0205
 20
5.26367
 11
11.0273
 21
5.2373
  0
LINE
  8
0
 10
11.0273
 20
5.2373
 11
11.0342
 21
5.20996
  0
LINE
  8
0
 10
11.0342
 20
5.20996
 11
11.0459
 21
5.15527
  0
LINE
  8
0
 10
11.0459
 20
5.15527
 11
11.0557
 21
5.10059
  0
LINE
  8
0
 10
11.0557
 20
5.10059
 11
11.0596
 21
5.07227
  0
LINE
  8
0
 10
11.0596
 20
5.07227
 11
11.0635
 21
5.04492
  0
LINE
  8
0
 10
11.0635
 20
5.04492
 11
11.0664
 21
5.01758
  0
LINE
  8
0
 10
11.0664
 20
5.01758
 11
11.0693
 21
4.98926
  0
LINE
  8
0
 10
11.0693
 20
4.98926
 11
11.0713
 21
4.96191
  0
LINE
  8
0
 10
11.0713
 20
4.96191
 11
11.0732
 21
4.93359
  0
LINE
  8
0
 10
11.0732
 20
4.93359
 11
11.0752
 21
4.87793
  0
LINE
  8
0
 10
11.0752
 20
4.87793
 11
11.0752
 21
4.82227
  0
LINE
  8
0
 10
11.0752
 20
4.82227
 11
11.0732
 21
4.7666
  0
LINE
  8
0
 10
11.0732
 20
4.7666
 11
11.0713
 21
4.73828
  0
LINE
  8
0
 10
11.0713
 20
4.73828
 11
11.0693
 21
4.71094
  0
LINE
  8
0
 10
11.0693
 20
4.71094
 11
11.0664
 21
4.68262
  0
LINE
  8
0
 10
11.0664
 20
4.68262
 11
11.0635
 21
4.65527
  0
LINE
  8
0
 10
11.0635
 20
4.65527
 11
11.0596
 21
4.62695
  0
LINE
  8
0
 10
11.0596
 20
4.62695
 11
11.0557
 21
4.59961
  0
LINE
  8
0
 10
11.0557
 20
4.59961
 11
11.0459
 21
4.54492
  0
LINE
  8
0
 10
11.0459
 20
4.54492
 11
11.0342
 21
4.49023
  0
LINE
  8
0
 10
11.0342
 20
4.49023
 11
11.0205
 21
4.43555
  0
LINE
  8
0
 10
11.0205
 20
4.43555
 11
11.0127
 21
4.40918
  0
LINE
  8
0
 10
11.0127
 20
4.40918
 11
11.0049
 21
4.38184
  0
LINE
  8
0
 10
11.0049
 20
4.38184
 11
10.9971
 21
4.35547
  0
LINE
  8
0
 10
10.9971
 20
4.35547
 11
10.9883
 21
4.3291
  0
LINE
  8
0
 10
10.9883
 20
4.3291
 11
10.9688
 21
4.27637
  0
LINE
  8
0
 10
10.9688
 20
4.27637
 11
10.958
 21
4.25098
  0
LINE
  8
0
 10
10.958
 20
4.25098
 11
10.9482
 21
4.22461
  0
LINE
  8
0
 10
10.9482
 20
4.22461
 11
10.9131
 21
4.14844
  0
LINE
  8
0
 10
10.9131
 20
4.14844
 11
10.9004
 21
4.12402
  0
LINE
  8
0
 10
10.9004
 20
4.12402
 11
10.8877
 21
4.09863
  0
LINE
  8
0
 10
10.8877
 20
4.09863
 11
10.8604
 21
4.0498
  0
LINE
  8
0
 10
10.8604
 20
4.0498
 11
10.8467
 21
4.02637
  0
LINE
  8
0
 10
10.8467
 20
4.02637
 11
10.832
 21
4.00195
  0
LINE
  8
0
 10
10.832
 20
4.00195
 11
10.8164
 21
3.97852
  0
LINE
  8
0
 10
10.8164
 20
3.97852
 11
10.8018
 21
3.95508
  0
LINE
  8
0
 10
10.8018
 20
3.95508
 11
10.7852
 21
3.93262
  0
LINE
  8
0
 10
10.7852
 20
3.93262
 11
10.7695
 21
3.90918
  0
LINE
  8
0
 10
10.7695
 20
3.90918
 11
10.7529
 21
3.88672
  0
LINE
  8
0
 10
10.7529
 20
3.88672
 11
10.7354
 21
3.86523
  0
LINE
  8
0
 10
10.7354
 20
3.86523
 11
10.7188
 21
3.84277
  0
LINE
  8
0
 10
10.7188
 20
3.84277
 11
10.7002
 21
3.82129
  0
LINE
  8
0
 10
10.7002
 20
3.82129
 11
10.6826
 21
3.80078
  0
LINE
  8
0
 10
10.6826
 20
3.80078
 11
10.6641
 21
3.7793
  0
LINE
  8
0
 10
10.6641
 20
3.7793
 11
10.6455
 21
3.75879
  0
LINE
  8
0
 10
10.6455
 20
3.75879
 11
10.626
 21
3.73828
  0
LINE
  8
0
 10
10.626
 20
3.73828
 11
10.5869
 21
3.69922
  0
LINE
  8
0
 10
10.5869
 20
3.69922
 11
10.5664
 21
3.67969
  0
LINE
  8
0
 10
10.5664
 20
3.67969
 11
10.5459
 21
3.66113
  0
LINE
  8
0
 10
10.5459
 20
3.66113
 11
10.5244
 21
3.64258
  0
LINE
  8
0
 10
10.5244
 20
3.64258
 11
10.5039
 21
3.62402
  0
LINE
  8
0
 10
10.5039
 20
3.62402
 11
10.4814
 21
3.60645
  0
LINE
  8
0
 10
10.4814
 20
3.60645
 11
10.46
 21
3.58887
  0
LINE
  8
0
 10
10.46
 20
3.58887
 11
10.3926
 21
3.53906
  0
LINE
  8
0
 10
10.3926
 20
3.53906
 11
10.3701
 21
3.52344
  0
LINE
  8
0
 10
10.3701
 20
3.52344
 11
10.3467
 21
3.50781
  0
LINE
  8
0
 10
10.3467
 20
3.50781
 11
10.3232
 21
3.49316
  0
LINE
  8
0
 10
10.3232
 20
3.49316
 11
10.2988
 21
3.47852
  0
LINE
  8
0
 10
10.2988
 20
3.47852
 11
10.2754
 21
3.46484
  0
LINE
  8
0
 10
10.2754
 20
3.46484
 11
10.251
 21
3.4502
  0
LINE
  8
0
 10
10.251
 20
3.4502
 11
10.2266
 21
3.4375
  0
LINE
  8
0
 10
10.2266
 20
3.4375
 11
10.2012
 21
3.4248
  0
LINE
  8
0
 10
10.2012
 20
3.4248
 11
10.1768
 21
3.41211
  0
LINE
  8
0
 10
10.1768
 20
3.41211
 11
10.1006
 21
3.37695
  0
LINE
  8
0
 10
10.1006
 20
3.37695
 11
10.0742
 21
3.36621
  0
LINE
  8
0
 10
10.0742
 20
3.36621
 11
10.0488
 21
3.35645
  0
LINE
  8
0
 10
10.0488
 20
3.35645
 11
9.99609
 21
3.33691
  0
LINE
  8
0
 10
9.99609
 20
3.33691
 11
9.96973
 21
3.32812
  0
LINE
  8
0
 10
9.96973
 20
3.32812
 11
9.94238
 21
3.32031
  0
LINE
  8
0
 10
9.94238
 20
3.32031
 11
9.91602
 21
3.31152
  0
LINE
  8
0
 10
9.91602
 20
3.31152
 11
9.88867
 21
3.30469
  0
LINE
  8
0
 10
9.88867
 20
3.30469
 11
9.8623
 21
3.29785
  0
LINE
  8
0
 10
9.8623
 20
3.29785
 11
9.83496
 21
3.29102
  0
LINE
  8
0
 10
9.83496
 20
3.29102
 11
9.78027
 21
3.2793
  0
LINE
  8
0
 10
9.78027
 20
3.2793
 11
9.72559
 21
3.26953
  0
LINE
  8
0
 10
9.72559
 20
3.26953
 11
9.69727
 21
3.26562
  0
LINE
  8
0
 10
9.69727
 20
3.26562
 11
9.66992
 21
3.26172
  0
LINE
  8
0
 10
9.66992
 20
3.26172
 11
9.64258
 21
3.25879
  0
LINE
  8
0
 10
9.64258
 20
3.25879
 11
9.61426
 21
3.25586
  0
LINE
  8
0
 10
9.61426
 20
3.25586
 11
9.58691
 21
3.25391
  0
LINE
  8
0
 10
9.58691
 20
3.25391
 11
9.55859
 21
3.25195
  0
LINE
  8
0
 10
9.55859
 20
3.25195
 11
9.50293
 21
3.25
  0
LINE
  8
0
 10
9.50293
 20
3.25
 11
9.44727
 21
3.25
  0
ENDSEC
  0
SECTION
  2
OBJECTS
  0
DICTIONARY
  0
ENDSEC
  0
EOF
