  0
SECTION
  2
BLOCKS
  0
ENDSEC
  0
SECTION
  2
ENTITIES
  0
LINE
  8
0
 10
16.0693
 20
0.000976562
 11
16.1396
 21
0.00488281
  0
LINE
  8
0
 10
16.1396
 20
0.00488281
 11
16.1738
 21
0.0078125
  0
LINE
  8
0
 10
16.1738
 20
0.0078125
 11
16.209
 21
0.0107422
  0
LINE
  8
0
 10
16.209
 20
0.0107422
 11
16.2441
 21
0.0146484
  0
LINE
  8
0
 10
16.2441
 20
0.0146484
 11
16.3125
 21
0.0244141
  0
LINE
  8
0
 10
16.3125
 20
0.0244141
 11
16.3477
 21
0.0302734
  0
LINE
  8
0
 10
16.3477
 20
0.0302734
 11
16.4502
 21
0.0507812
  0
LINE
  8
0
 10
16.4502
 20
0.0507812
 11
16.4834
 21
0.0595703
  0
LINE
  8
0
 10
16.4834
 20
0.0595703
 11
16.5518
 21
0.0771484
  0
LINE
  8
0
 10
16.5518
 20
0.0771484
 11
16.585
 21
0.0869141
  0
LINE
  8
0
 10
16.585
 20
0.0869141
 11
16.6182
 21
0.0976562
  0
LINE
  8
0
 10
16.6182
 20
0.0976562
 11
16.6514
 21
0.109375
  0
LINE
  8
0
 10
16.6514
 20
0.109375
 11
16.6836
 21
0.121094
  0
LINE
  8
0
 10
16.6836
 20
0.121094
 11
16.7168
 21
0.132812
  0
LINE
  8
0
 10
16.7168
 20
0.132812
 11
16.749
 21
0.145508
  0
LINE
  8
0
 10
16.749
 20
0.145508
 11
16.8135
 21
0.172852
  0
LINE
  8
0
 10
16.8135
 20
0.172852
 11
16.8457
 21
0.1875
  0
LINE
  8
0
 10
16.8457
 20
0.1875
 11
16.877
 21
0.202148
  0
LINE
  8
0
 10
16.877
 20
0.202148
 11
16.9082
 21
0.217773
  0
LINE
  8
0
 10
16.9082
 20
0.217773
 11
16.9385
 21
0.234375
  0
LINE
  8
0
 10
16.9385
 20
0.234375
 11
16.9697
 21
0.250977
  0
LINE
  8
0
 10
16.9697
 20
0.250977
 11
17
 21
0.267578
  0
LINE
  8
0
 10
17
 20
0.267578
 11
17.0303
 21
0.286133
  0
LINE
  8
0
 10
17.0303
 20
0.286133
 11
17.0596
 21
0.303711
  0
LINE
  8
0
 10
17.0596
 20
0.303711
 11
17.0889
 21
0.322266
  0
LINE
  8
0
 10
17.0889
 20
0.322266
 11
17.1475
 21
0.361328
  0
LINE
  8
0
 10
17.1475
 20
0.361328
 11
17.2041
 21
0.402344
  0
LINE
  8
0
 10
17.2041
 20
0.402344
 11
17.2588
 21
0.445312
  0
LINE
  8
0
 10
17.2588
 20
0.445312
 11
17.2852
 21
0.467773
  0
LINE
  8
0
 10
17.2852
 20
0.467773
 11
17.3125
 21
0.490234
  0
LINE
  8
0
 10
17.3125
 20
0.490234
 11
17.3379
 21
0.513672
  0
LINE
  8
0
 10
17.3379
 20
0.513672
 11
17.3643
 21
0.537109
  0
LINE
  8
0
 10
17.3643
 20
0.537109
 11
17.3896
 21
0.561523
  0
LINE
  8
0
 10
17.3896
 20
0.561523
 11
17.4385
 21
0.610352
  0
LINE
  8
0
 10
17.4385
 20
0.610352
 11
17.4629
 21
0.635742
  0
LINE
  8
0
 10
17.4629
 20
0.635742
 11
17.4863
 21
0.662109
  0
LINE
  8
0
 10
17.4863
 20
0.662109
 11
17.5098
 21
0.6875
  0
LINE
  8
0
 10
17.5098
 20
0.6875
 11
17.5322
 21
0.714844
  0
LINE
  8
0
 10
17.5322
 20
0.714844
 11
17.5547
 21
0.741211
  0
LINE
  8
0
 10
17.5547
 20
0.741211
 11
17.5977
 21
0.795898
  0
LINE
  8
0
 10
17.5977
 20
0.795898
 11
17.6387
 21
0.852539
  0
LINE
  8
0
 10
17.6387
 20
0.852539
 11
17.6777
 21
0.911133
  0
LINE
  8
0
 10
17.6777
 20
0.911133
 11
17.6963
 21
0.94043
  0
LINE
  8
0
 10
17.6963
 20
0.94043
 11
17.7139
 21
0.969727
  0
LINE
  8
0
 10
17.7139
 20
0.969727
 11
17.7324
 21
1
  0
LINE
  8
0
 10
17.7324
 20
1
 11
17.749
 21
1.03027
  0
LINE
  8
0
 10
17.749
 20
1.03027
 11
17.7656
 21
1.06152
  0
LINE
  8
0
 10
17.7656
 20
1.06152
 11
17.7822
 21
1.0918
  0
LINE
  8
0
 10
17.7822
 20
1.0918
 11
17.7979
 21
1.12305
  0
LINE
  8
0
 10
17.7979
 20
1.12305
 11
17.8125
 21
1.1543
  0
LINE
  8
0
 10
17.8125
 20
1.1543
 11
17.8271
 21
1.18652
  0
LINE
  8
0
 10
17.8271
 20
1.18652
 11
17.8545
 21
1.25098
  0
LINE
  8
0
 10
17.8545
 20
1.25098
 11
17.8672
 21
1.2832
  0
LINE
  8
0
 10
17.8672
 20
1.2832
 11
17.8789
 21
1.31641
  0
LINE
  8
0
 10
17.8789
 20
1.31641
 11
17.8906
 21
1.34863
  0
LINE
  8
0
 10
17.8906
 20
1.34863
 11
17.9023
 21
1.38184
  0
LINE
  8
0
 10
17.9023
 20
1.38184
 11
17.9131
 21
1.41504
  0
LINE
  8
0
 10
17.9131
 20
1.41504
 11
17.9229
 21
1.44824
  0
LINE
  8
0
 10
17.9229
 20
1.44824
 11
17.9404
 21
1.5166
  0
LINE
  8
0
 10
17.9404
 20
1.5166
 11
17.9492
 21
1.5498
  0
LINE
  8
0
 10
17.9492
 20
1.5498
 11
17.9697
 21
1.65234
  0
LINE
  8
0
 10
17.9697
 20
1.65234
 11
17.9756
 21
1.6875
  0
LINE
  8
0
 10
17.9756
 20
1.6875
 11
17.9854
 21
1.75586
  0
LINE
  8
0
 10
17.9854
 20
1.75586
 11
17.9893
 21
1.79102
  0
LINE
  8
0
 10
17.9893
 20
1.79102
 11
17.9922
 21
1.82617
  0
LINE
  8
0
 10
17.9922
 20
1.82617
 11
17.9951
 21
1.86035
  0
LINE
  8
0
 10
17.9951
 20
1.86035
 11
17.999
 21
1.93066
  0
LINE
  8
0
 10
17.999
 20
1.93066
 11
18
 21
1.96484
  0
LINE
  8
0
 10
18
 20
1.96484
 11
18
 21
2.53516
  0
LINE
  8
0
 10
18
 20
2.53516
 11
18.001
 21
2.56934
  0
LINE
  8
0
 10
18.001
 20
2.56934
 11
18.0049
 21
2.63965
  0
LINE
  8
0
 10
18.0049
 20
2.63965
 11
18.0078
 21
2.67383
  0
LINE
  8
0
 10
18.0078
 20
2.67383
 11
18.0107
 21
2.70898
  0
LINE
  8
0
 10
18.0107
 20
2.70898
 11
18.0146
 21
2.74414
  0
LINE
  8
0
 10
18.0146
 20
2.74414
 11
18.0244
 21
2.8125
  0
LINE
  8
0
 10
18.0244
 20
2.8125
 11
18.0303
 21
2.84766
  0
LINE
  8
0
 10
18.0303
 20
2.84766
 11
18.0508
 21
2.9502
  0
LINE
  8
0
 10
18.0508
 20
2.9502
 11
18.0596
 21
2.9834
  0
LINE
  8
0
 10
18.0596
 20
2.9834
 11
18.0771
 21
3.05176
  0
LINE
  8
0
 10
18.0771
 20
3.05176
 11
18.0869
 21
3.08496
  0
LINE
  8
0
 10
18.0869
 20
3.08496
 11
18.0977
 21
3.11816
  0
LINE
  8
0
 10
18.0977
 20
3.11816
 11
18.1094
 21
3.15137
  0
LINE
  8
0
 10
18.1094
 20
3.15137
 11
18.1211
 21
3.18359
  0
LINE
  8
0
 10
18.1211
 20
3.18359
 11
18.1328
 21
3.2168
  0
LINE
  8
0
 10
18.1328
 20
3.2168
 11
18.1455
 21
3.24902
  0
LINE
  8
0
 10
18.1455
 20
3.24902
 11
18.1729
 21
3.31348
  0
LINE
  8
0
 10
18.1729
 20
3.31348
 11
18.1875
 21
3.3457
  0
LINE
  8
0
 10
18.1875
 20
3.3457
 11
18.2021
 21
3.37695
  0
LINE
  8
0
 10
18.2021
 20
3.37695
 11
18.2178
 21
3.4082
  0
LINE
  8
0
 10
18.2178
 20
3.4082
 11
18.2344
 21
3.43848
  0
LINE
  8
0
 10
18.2344
 20
3.43848
 11
18.251
 21
3.46973
  0
LINE
  8
0
 10
18.251
 20
3.46973
 11
18.2676
 21
3.5
  0
LINE
  8
0
 10
18.2676
 20
3.5
 11
18.2861
 21
3.53027
  0
LINE
  8
0
 10
18.2861
 20
3.53027
 11
18.3037
 21
3.55957
  0
LINE
  8
0
 10
18.3037
 20
3.55957
 11
18.3223
 21
3.58887
  0
LINE
  8
0
 10
18.3223
 20
3.58887
 11
18.3613
 21
3.64746
  0
LINE
  8
0
 10
18.3613
 20
3.64746
 11
18.4023
 21
3.7041
  0
LINE
  8
0
 10
18.4023
 20
3.7041
 11
18.4453
 21
3.75879
  0
LINE
  8
0
 10
18.4453
 20
3.75879
 11
18.4678
 21
3.78516
  0
LINE
  8
0
 10
18.4678
 20
3.78516
 11
18.4902
 21
3.8125
  0
LINE
  8
0
 10
18.4902
 20
3.8125
 11
18.5137
 21
3.83789
  0
LINE
  8
0
 10
18.5137
 20
3.83789
 11
18.5371
 21
3.86426
  0
LINE
  8
0
 10
18.5371
 20
3.86426
 11
18.5615
 21
3.88965
  0
LINE
  8
0
 10
18.5615
 20
3.88965
 11
18.6104
 21
3.93848
  0
LINE
  8
0
 10
18.6104
 20
3.93848
 11
18.6357
 21
3.96289
  0
LINE
  8
0
 10
18.6357
 20
3.96289
 11
18.6621
 21
3.98633
  0
LINE
  8
0
 10
18.6621
 20
3.98633
 11
18.6875
 21
4.00977
  0
LINE
  8
0
 10
18.6875
 20
4.00977
 11
18.7148
 21
4.03223
  0
LINE
  8
0
 10
18.7148
 20
4.03223
 11
18.7412
 21
4.05469
  0
LINE
  8
0
 10
18.7412
 20
4.05469
 11
18.7959
 21
4.09766
  0
LINE
  8
0
 10
18.7959
 20
4.09766
 11
18.8525
 21
4.13867
  0
LINE
  8
0
 10
18.8525
 20
4.13867
 11
18.9111
 21
4.17773
  0
LINE
  8
0
 10
18.9111
 20
4.17773
 11
18.9404
 21
4.19629
  0
LINE
  8
0
 10
18.9404
 20
4.19629
 11
18.9697
 21
4.21387
  0
LINE
  8
0
 10
18.9697
 20
4.21387
 11
19
 21
4.23242
  0
LINE
  8
0
 10
19
 20
4.23242
 11
19.0303
 21
4.24902
  0
LINE
  8
0
 10
19.0303
 20
4.24902
 11
19.0615
 21
4.26562
  0
LINE
  8
0
 10
19.0615
 20
4.26562
 11
19.0918
 21
4.28223
  0
LINE
  8
0
 10
19.0918
 20
4.28223
 11
19.123
 21
4.29785
  0
LINE
  8
0
 10
19.123
 20
4.29785
 11
19.1543
 21
4.3125
  0
LINE
  8
0
 10
19.1543
 20
4.3125
 11
19.1865
 21
4.32715
  0
LINE
  8
0
 10
19.1865
 20
4.32715
 11
19.251
 21
4.35449
  0
LINE
  8
0
 10
19.251
 20
4.35449
 11
19.2832
 21
4.36719
  0
LINE
  8
0
 10
19.2832
 20
4.36719
 11
19.3164
 21
4.37891
  0
LINE
  8
0
 10
19.3164
 20
4.37891
 11
19.3486
 21
4.39062
  0
LINE
  8
0
 10
19.3486
 20
4.39062
 11
19.3818
 21
4.40234
  0
LINE
  8
0
 10
19.3818
 20
4.40234
 11
19.415
 21
4.41309
  0
LINE
  8
0
 10
19.415
 20
4.41309
 11
19.4482
 21
4.42285
  0
LINE
  8
0
 10
19.4482
 20
4.42285
 11
19.5166
 21
4.44043
  0
LINE
  8
0
 10
19.5166
 20
4.44043
 11
19.5498
 21
4.44922
  0
LINE
  8
0
 10
19.5498
 20
4.44922
 11
19.6523
 21
4.46973
  0
LINE
  8
0
 10
19.6523
 20
4.46973
 11
19.6875
 21
4.47559
  0
LINE
  8
0
 10
19.6875
 20
4.47559
 11
19.7559
 21
4.48535
  0
LINE
  8
0
 10
19.7559
 20
4.48535
 11
19.791
 21
4.48926
  0
LINE
  8
0
 10
19.791
 20
4.48926
 11
19.8262
 21
4.49219
  0
LINE
  8
0
 10
19.8262
 20
4.49219
 11
19.8604
 21
4.49512
  0
LINE
  8
0
 10
19.8604
 20
4.49512
 11
19.9307
 21
4.49902
  0
LINE
  8
0
 10
19.9307
 20
4.49902
 11
19.9648
 21
4.5
  0
LINE
  8
0
 10
19.9648
 20
4.5
 11
80.0352
 21
4.5
  0
LINE
  8
0
 10
80.0352
 20
4.5
 11
80.0693
 21
4.49902
  0
LINE
  8
0
 10
80.0693
 20
4.49902
 11
80.1396
 21
4.49512
  0
LINE
  8
0
 10
80.1396
 20
4.49512
 11
80.1738
 21
4.49219
  0
LINE
  8
0
 10
80.1738
 20
4.49219
 11
80.209
 21
4.48926
  0
LINE
  8
0
 10
80.209
 20
4.48926
 11
80.2441
 21
4.48535
  0
LINE
  8
0
 10
80.2441
 20
4.48535
 11
80.3125
 21
4.47559
  0
LINE
  8
0
 10
80.3125
 20
4.47559
 11
80.3477
 21
4.46973
  0
LINE
  8
0
 10
80.3477
 20
4.46973
 11
80.4502
 21
4.44922
  0
LINE
  8
0
 10
80.4502
 20
4.44922
 11
80.4834
 21
4.44043
  0
LINE
  8
0
 10
80.4834
 20
4.44043
 11
80.5518
 21
4.42285
  0
LINE
  8
0
 10
80.5518
 20
4.42285
 11
80.585
 21
4.41309
  0
LINE
  8
0
 10
80.585
 20
4.41309
 11
80.6182
 21
4.40234
  0
LINE
  8
0
 10
80.6182
 20
4.40234
 11
80.6514
 21
4.39062
  0
LINE
  8
0
 10
80.6514
 20
4.39062
 11
80.6836
 21
4.37891
  0
LINE
  8
0
 10
80.6836
 20
4.37891
 11
80.7168
 21
4.36719
  0
LINE
  8
0
 10
80.7168
 20
4.36719
 11
80.749
 21
4.35449
  0
LINE
  8
0
 10
80.749
 20
4.35449
 11
80.8135
 21
4.32715
  0
LINE
  8
0
 10
80.8135
 20
4.32715
 11
80.8457
 21
4.3125
  0
LINE
  8
0
 10
80.8457
 20
4.3125
 11
80.877
 21
4.29785
  0
LINE
  8
0
 10
80.877
 20
4.29785
 11
80.9082
 21
4.28223
  0
LINE
  8
0
 10
80.9082
 20
4.28223
 11
80.9385
 21
4.26562
  0
LINE
  8
0
 10
80.9385
 20
4.26562
 11
80.9697
 21
4.24902
  0
LINE
  8
0
 10
80.9697
 20
4.24902
 11
81
 21
4.23242
  0
LINE
  8
0
 10
81
 20
4.23242
 11
81.0303
 21
4.21387
  0
LINE
  8
0
 10
81.0303
 20
4.21387
 11
81.0596
 21
4.19629
  0
LINE
  8
0
 10
81.0596
 20
4.19629
 11
81.0889
 21
4.17773
  0
LINE
  8
0
 10
81.0889
 20
4.17773
 11
81.1475
 21
4.13867
  0
LINE
  8
0
 10
81.1475
 20
4.13867
 11
81.2041
 21
4.09766
  0
LINE
  8
0
 10
81.2041
 20
4.09766
 11
81.2588
 21
4.05469
  0
LINE
  8
0
 10
81.2588
 20
4.05469
 11
81.2852
 21
4.03223
  0
LINE
  8
0
 10
81.2852
 20
4.03223
 11
81.3125
 21
4.00977
  0
LINE
  8
0
 10
81.3125
 20
4.00977
 11
81.3379
 21
3.98633
  0
LINE
  8
0
 10
81.3379
 20
3.98633
 11
81.3643
 21
3.96289
  0
LINE
  8
0
 10
81.3643
 20
3.96289
 11
81.3896
 21
3.93848
  0
LINE
  8
0
 10
81.3896
 20
3.93848
 11
81.4385
 21
3.88965
  0
LINE
  8
0
 10
81.4385
 20
3.88965
 11
81.4629
 21
3.86426
  0
LINE
  8
0
 10
81.4629
 20
3.86426
 11
81.4863
 21
3.83789
  0
LINE
  8
0
 10
81.4863
 20
3.83789
 11
81.5098
 21
3.8125
  0
LINE
  8
0
 10
81.5098
 20
3.8125
 11
81.5322
 21
3.78516
  0
LINE
  8
0
 10
81.5322
 20
3.78516
 11
81.5547
 21
3.75879
  0
LINE
  8
0
 10
81.5547
 20
3.75879
 11
81.5977
 21
3.7041
  0
LINE
  8
0
 10
81.5977
 20
3.7041
 11
81.6387
 21
3.64746
  0
LINE
  8
0
 10
81.6387
 20
3.64746
 11
81.6777
 21
3.58887
  0
LINE
  8
0
 10
81.6777
 20
3.58887
 11
81.6963
 21
3.55957
  0
LINE
  8
0
 10
81.6963
 20
3.55957
 11
81.7139
 21
3.53027
  0
LINE
  8
0
 10
81.7139
 20
3.53027
 11
81.7324
 21
3.5
  0
LINE
  8
0
 10
81.7324
 20
3.5
 11
81.749
 21
3.46973
  0
LINE
  8
0
 10
81.749
 20
3.46973
 11
81.7656
 21
3.43848
  0
LINE
  8
0
 10
81.7656
 20
3.43848
 11
81.7822
 21
3.4082
  0
LINE
  8
0
 10
81.7822
 20
3.4082
 11
81.7979
 21
3.37695
  0
LINE
  8
0
 10
81.7979
 20
3.37695
 11
81.8125
 21
3.3457
  0
LINE
  8
0
 10
81.8125
 20
3.3457
 11
81.8271
 21
3.31348
  0
LINE
  8
0
 10
81.8271
 20
3.31348
 11
81.8545
 21
3.24902
  0
LINE
  8
0
 10
81.8545
 20
3.24902
 11
81.8672
 21
3.2168
  0
LINE
  8
0
 10
81.8672
 20
3.2168
 11
81.8789
 21
3.18359
  0
LINE
  8
0
 10
81.8789
 20
3.18359
 11
81.8906
 21
3.15137
  0
LINE
  8
0
 10
81.8906
 20
3.15137
 11
81.9023
 21
3.11816
  0
LINE
  8
0
 10
81.9023
 20
3.11816
 11
81.9131
 21
3.08496
  0
LINE
  8
0
 10
81.9131
 20
3.08496
 11
81.9229
 21
3.05176
  0
LINE
  8
0
 10
81.9229
 20
3.05176
 11
81.9404
 21
2.9834
  0
LINE
  8
0
 10
81.9404
 20
2.9834
 11
81.9492
 21
2.9502
  0
LINE
  8
0
 10
81.9492
 20
2.9502
 11
81.9697
 21
2.84766
  0
LINE
  8
0
 10
81.9697
 20
2.84766
 11
81.9756
 21
2.8125
  0
LINE
  8
0
 10
81.9756
 20
2.8125
 11
81.9854
 21
2.74414
  0
LINE
  8
0
 10
81.9854
 20
2.74414
 11
81.9893
 21
2.70898
  0
LINE
  8
0
 10
81.9893
 20
2.70898
 11
81.9922
 21
2.67383
  0
LINE
  8
0
 10
81.9922
 20
2.67383
 11
81.9951
 21
2.63965
  0
LINE
  8
0
 10
81.9951
 20
2.63965
 11
81.999
 21
2.56934
  0
LINE
  8
0
 10
81.999
 20
2.56934
 11
82
 21
2.53516
  0
LINE
  8
0
 10
82
 20
2.53516
 11
82
 21
1.96484
  0
LINE
  8
0
 10
82
 20
1.96484
 11
82.001
 21
1.93066
  0
LINE
  8
0
 10
82.001
 20
1.93066
 11
82.0049
 21
1.86035
  0
LINE
  8
0
 10
82.0049
 20
1.86035
 11
82.0078
 21
1.82617
  0
LINE
  8
0
 10
82.0078
 20
1.82617
 11
82.0107
 21
1.79102
  0
LINE
  8
0
 10
82.0107
 20
1.79102
 11
82.0146
 21
1.75586
  0
LINE
  8
0
 10
82.0146
 20
1.75586
 11
82.0244
 21
1.6875
  0
LINE
  8
0
 10
82.0244
 20
1.6875
 11
82.0303
 21
1.65234
  0
LINE
  8
0
 10
82.0303
 20
1.65234
 11
82.0508
 21
1.5498
  0
LINE
  8
0
 10
82.0508
 20
1.5498
 11
82.0596
 21
1.5166
  0
LINE
  8
0
 10
82.0596
 20
1.5166
 11
82.0771
 21
1.44824
  0
LINE
  8
0
 10
82.0771
 20
1.44824
 11
82.0869
 21
1.41504
  0
LINE
  8
0
 10
82.0869
 20
1.41504
 11
82.0977
 21
1.38184
  0
LINE
  8
0
 10
82.0977
 20
1.38184
 11
82.1094
 21
1.34863
  0
LINE
  8
0
 10
82.1094
 20
1.34863
 11
82.1211
 21
1.31641
  0
LINE
  8
0
 10
82.1211
 20
1.31641
 11
82.1328
 21
1.2832
  0
LINE
  8
0
 10
82.1328
 20
1.2832
 11
82.1455
 21
1.25098
  0
LINE
  8
0
 10
82.1455
 20
1.25098
 11
82.1729
 21
1.18652
  0
LINE
  8
0
 10
82.1729
 20
1.18652
 11
82.1875
 21
1.1543
  0
LINE
  8
0
 10
82.1875
 20
1.1543
 11
82.2021
 21
1.12305
  0
LINE
  8
0
 10
82.2021
 20
1.12305
 11
82.2178
 21
1.0918
  0
LINE
  8
0
 10
82.2178
 20
1.0918
 11
82.2344
 21
1.06152
  0
LINE
  8
0
 10
82.2344
 20
1.06152
 11
82.251
 21
1.03027
  0
LINE
  8
0
 10
82.251
 20
1.03027
 11
82.2676
 21
1
  0
LINE
  8
0
 10
82.2676
 20
1
 11
82.2861
 21
0.969727
  0
LINE
  8
0
 10
82.2861
 20
0.969727
 11
82.3037
 21
0.94043
  0
LINE
  8
0
 10
82.3037
 20
0.94043
 11
82.3223
 21
0.911133
  0
LINE
  8
0
 10
82.3223
 20
0.911133
 11
82.3613
 21
0.852539
  0
LINE
  8
0
 10
82.3613
 20
0.852539
 11
82.4023
 21
0.795898
  0
LINE
  8
0
 10
82.4023
 20
0.795898
 11
82.4453
 21
0.741211
  0
LINE
  8
0
 10
82.4453
 20
0.741211
 11
82.4678
 21
0.714844
  0
LINE
  8
0
 10
82.4678
 20
0.714844
 11
82.4902
 21
0.6875
  0
LINE
  8
0
 10
82.4902
 20
0.6875
 11
82.5137
 21
0.662109
  0
LINE
  8
0
 10
82.5137
 20
0.662109
 11
82.5371
 21
0.635742
  0
LINE
  8
0
 10
82.5371
 20
0.635742
 11
82.5615
 21
0.610352
  0
LINE
  8
0
 10
82.5615
 20
0.610352
 11
82.6104
 21
0.561523
  0
LINE
  8
0
 10
82.6104
 20
0.561523
 11
82.6357
 21
0.537109
  0
LINE
  8
0
 10
82.6357
 20
0.537109
 11
82.6621
 21
0.513672
  0
LINE
  8
0
 10
82.6621
 20
0.513672
 11
82.6875
 21
0.490234
  0
LINE
  8
0
 10
82.6875
 20
0.490234
 11
82.7148
 21
0.467773
  0
LINE
  8
0
 10
82.7148
 20
0.467773
 11
82.7412
 21
0.445312
  0
LINE
  8
0
 10
82.7412
 20
0.445312
 11
82.7959
 21
0.402344
  0
LINE
  8
0
 10
82.7959
 20
0.402344
 11
82.8525
 21
0.361328
  0
LINE
  8
0
 10
82.8525
 20
0.361328
 11
82.9111
 21
0.322266
  0
LINE
  8
0
 10
82.9111
 20
0.322266
 11
82.9404
 21
0.303711
  0
LINE
  8
0
 10
82.9404
 20
0.303711
 11
82.9697
 21
0.286133
  0
LINE
  8
0
 10
82.9697
 20
0.286133
 11
83
 21
0.267578
  0
LINE
  8
0
 10
83
 20
0.267578
 11
83.0303
 21
0.250977
  0
LINE
  8
0
 10
83.0303
 20
0.250977
 11
83.0615
 21
0.234375
  0
LINE
  8
0
 10
83.0615
 20
0.234375
 11
83.0918
 21
0.217773
  0
LINE
  8
0
 10
83.0918
 20
0.217773
 11
83.123
 21
0.202148
  0
LINE
  8
0
 10
83.123
 20
0.202148
 11
83.1543
 21
0.1875
  0
LINE
  8
0
 10
83.1543
 20
0.1875
 11
83.1865
 21
0.172852
  0
LINE
  8
0
 10
83.1865
 20
0.172852
 11
83.251
 21
0.145508
  0
LINE
  8
0
 10
83.251
 20
0.145508
 11
83.2832
 21
0.132812
  0
LINE
  8
0
 10
83.2832
 20
0.132812
 11
83.3164
 21
0.121094
  0
LINE
  8
0
 10
83.3164
 20
0.121094
 11
83.3486
 21
0.109375
  0
LINE
  8
0
 10
83.3486
 20
0.109375
 11
83.3818
 21
0.0976562
  0
LINE
  8
0
 10
83.3818
 20
0.0976562
 11
83.415
 21
0.0869141
  0
LINE
  8
0
 10
83.415
 20
0.0869141
 11
83.4482
 21
0.0771484
  0
LINE
  8
0
 10
83.4482
 20
0.0771484
 11
83.5166
 21
0.0595703
  0
LINE
  8
0
 10
83.5166
 20
0.0595703
 11
83.5498
 21
0.0507812
  0
LINE
  8
0
 10
83.5498
 20
0.0507812
 11
83.6523
 21
0.0302734
  0
LINE
  8
0
 10
83.6523
 20
0.0302734
 11
83.6875
 21
0.0244141
  0
LINE
  8
0
 10
83.6875
 20
0.0244141
 11
83.7559
 21
0.0146484
  0
LINE
  8
0
 10
83.7559
 20
0.0146484
 11
83.791
 21
0.0107422
  0
LINE
  8
0
 10
83.791
 20
0.0107422
 11
83.8262
 21
0.0078125
  0
LINE
  8
0
 10
83.8262
 20
0.0078125
 11
83.8604
 21
0.00488281
  0
LINE
  8
0
 10
83.8604
 20
0.00488281
 11
83.9307
 21
0.000976562
  0
LINE
  8
0
 10
83.9307
 20
0.000976562
 11
83.9648
 21
0
  0
LINE
  8
0
 10
83.9648
 20
0
 11
99.9678
 21
0
  0
LINE
  8
0
 10
99.9678
 20
0
 11
99.9854
 21
0.000976562
  0
LINE
  8
0
 10
99.9854
 20
0.000976562
 11
100.002
 21
0.000976562
  0
LINE
  8
0
 10
100.002
 20
0.000976562
 11
100.02
 21
0.00195312
  0
LINE
  8
0
 10
100.02
 20
0.00195312
 11
100.072
 21
0.0078125
  0
LINE
  8
0
 10
100.072
 20
0.0078125
 11
100.089
 21
0.00976562
  0
LINE
  8
0
 10
100.089
 20
0.00976562
 11
100.124
 21
0.015625
  0
LINE
  8
0
 10
100.124
 20
0.015625
 11
100.141
 21
0.0185547
  0
LINE
  8
0
 10
100.141
 20
0.0185547
 11
100.158
 21
0.0214844
  0
LINE
  8
0
 10
100.158
 20
0.0214844
 11
100.175
 21
0.0253906
  0
LINE
  8
0
 10
100.175
 20
0.0253906
 11
100.192
 21
0.0292969
  0
LINE
  8
0
 10
100.192
 20
0.0292969
 11
100.259
 21
0.0488281
  0
LINE
  8
0
 10
100.259
 20
0.0488281
 11
100.309
 21
0.0664062
  0
LINE
  8
0
 10
100.309
 20
0.0664062
 11
100.324
 21
0.0732422
  0
LINE
  8
0
 10
100.324
 20
0.0732422
 11
100.341
 21
0.0791016
  0
LINE
  8
0
 10
100.341
 20
0.0791016
 11
100.356
 21
0.0869141
  0
LINE
  8
0
 10
100.356
 20
0.0869141
 11
100.373
 21
0.09375
  0
LINE
  8
0
 10
100.373
 20
0.09375
 11
100.42
 21
0.117188
  0
LINE
  8
0
 10
100.42
 20
0.117188
 11
100.435
 21
0.125
  0
LINE
  8
0
 10
100.435
 20
0.125
 11
100.45
 21
0.133789
  0
LINE
  8
0
 10
100.45
 20
0.133789
 11
100.465
 21
0.142578
  0
LINE
  8
0
 10
100.465
 20
0.142578
 11
100.479
 21
0.152344
  0
LINE
  8
0
 10
100.479
 20
0.152344
 11
100.495
 21
0.161133
  0
LINE
  8
0
 10
100.495
 20
0.161133
 11
100.509
 21
0.170898
  0
LINE
  8
0
 10
100.509
 20
0.170898
 11
100.523
 21
0.180664
  0
LINE
  8
0
 10
100.523
 20
0.180664
 11
100.538
 21
0.191406
  0
LINE
  8
0
 10
100.538
 20
0.191406
 11
100.552
 21
0.201172
  0
LINE
  8
0
 10
100.552
 20
0.201172
 11
100.579
 21
0.222656
  0
LINE
  8
0
 10
100.579
 20
0.222656
 11
100.593
 21
0.234375
  0
LINE
  8
0
 10
100.593
 20
0.234375
 11
100.606
 21
0.245117
  0
LINE
  8
0
 10
100.606
 20
0.245117
 11
100.645
 21
0.280273
  0
LINE
  8
0
 10
100.645
 20
0.280273
 11
100.657
 21
0.292969
  0
LINE
  8
0
 10
100.657
 20
0.292969
 11
100.669
 21
0.305664
  0
LINE
  8
0
 10
100.669
 20
0.305664
 11
100.682
 21
0.318359
  0
LINE
  8
0
 10
100.682
 20
0.318359
 11
100.705
 21
0.34375
  0
LINE
  8
0
 10
100.705
 20
0.34375
 11
100.716
 21
0.357422
  0
LINE
  8
0
 10
100.716
 20
0.357422
 11
100.728
 21
0.371094
  0
LINE
  8
0
 10
100.728
 20
0.371094
 11
100.749
 21
0.398438
  0
LINE
  8
0
 10
100.749
 20
0.398438
 11
100.759
 21
0.412109
  0
LINE
  8
0
 10
100.759
 20
0.412109
 11
100.77
 21
0.426758
  0
LINE
  8
0
 10
100.77
 20
0.426758
 11
100.779
 21
0.44043
  0
LINE
  8
0
 10
100.779
 20
0.44043
 11
100.789
 21
0.455078
  0
LINE
  8
0
 10
100.789
 20
0.455078
 11
100.798
 21
0.469727
  0
LINE
  8
0
 10
100.798
 20
0.469727
 11
100.808
 21
0.485352
  0
LINE
  8
0
 10
100.808
 20
0.485352
 11
100.816
 21
0.5
  0
LINE
  8
0
 10
100.816
 20
0.5
 11
100.824
 21
0.515625
  0
LINE
  8
0
 10
100.824
 20
0.515625
 11
100.833
 21
0.530273
  0
LINE
  8
0
 10
100.833
 20
0.530273
 11
100.856
 21
0.577148
  0
LINE
  8
0
 10
100.856
 20
0.577148
 11
100.863
 21
0.59375
  0
LINE
  8
0
 10
100.863
 20
0.59375
 11
100.877
 21
0.625
  0
LINE
  8
0
 10
100.877
 20
0.625
 11
100.884
 21
0.641602
  0
LINE
  8
0
 10
100.884
 20
0.641602
 11
100.901
 21
0.691406
  0
LINE
  8
0
 10
100.901
 20
0.691406
 11
100.916
 21
0.741211
  0
LINE
  8
0
 10
100.916
 20
0.741211
 11
100.92
 21
0.757812
  0
LINE
  8
0
 10
100.92
 20
0.757812
 11
100.925
 21
0.775391
  0
LINE
  8
0
 10
100.925
 20
0.775391
 11
100.928
 21
0.791992
  0
LINE
  8
0
 10
100.928
 20
0.791992
 11
100.932
 21
0.80957
  0
LINE
  8
0
 10
100.932
 20
0.80957
 11
100.935
 21
0.826172
  0
LINE
  8
0
 10
100.935
 20
0.826172
 11
100.938
 21
0.84375
  0
LINE
  8
0
 10
100.938
 20
0.84375
 11
100.94
 21
0.860352
  0
LINE
  8
0
 10
100.94
 20
0.860352
 11
100.946
 21
0.913086
  0
LINE
  8
0
 10
100.946
 20
0.913086
 11
100.947
 21
0.930664
  0
LINE
  8
0
 10
100.947
 20
0.930664
 11
100.948
 21
0.947266
  0
LINE
  8
0
 10
100.948
 20
0.947266
 11
100.95
 21
0.982422
  0
LINE
  8
0
 10
100.95
 20
0.982422
 11
100.95
 21
3.96777
  0
LINE
  8
0
 10
100.95
 20
3.96777
 11
100.949
 21
3.98535
  0
LINE
  8
0
 10
100.949
 20
3.98535
 11
100.948
 21
4.00195
  0
LINE
  8
0
 10
100.948
 20
4.00195
 11
100.946
 21
4.03711
  0
LINE
  8
0
 10
100.946
 20
4.03711
 11
100.942
 21
4.07227
  0
LINE
  8
0
 10
100.942
 20
4.07227
 11
100.94
 21
4.08887
  0
LINE
  8
0
 10
100.94
 20
4.08887
 11
100.935
 21
4.12402
  0
LINE
  8
0
 10
100.935
 20
4.12402
 11
100.932
 21
4.14062
  0
LINE
  8
0
 10
100.932
 20
4.14062
 11
100.928
 21
4.1582
  0
LINE
  8
0
 10
100.928
 20
4.1582
 11
100.925
 21
4.1748
  0
LINE
  8
0
 10
100.925
 20
4.1748
 11
100.92
 21
4.19238
  0
LINE
  8
0
 10
100.92
 20
4.19238
 11
100.916
 21
4.20898
  0
LINE
  8
0
 10
100.916
 20
4.20898
 11
100.901
 21
4.25879
  0
LINE
  8
0
 10
100.901
 20
4.25879
 11
100.884
 21
4.30859
  0
LINE
  8
0
 10
100.884
 20
4.30859
 11
100.877
 21
4.32422
  0
LINE
  8
0
 10
100.877
 20
4.32422
 11
100.87
 21
4.34082
  0
LINE
  8
0
 10
100.87
 20
4.34082
 11
100.863
 21
4.35645
  0
LINE
  8
0
 10
100.863
 20
4.35645
 11
100.856
 21
4.37305
  0
LINE
  8
0
 10
100.856
 20
4.37305
 11
100.833
 21
4.41992
  0
LINE
  8
0
 10
100.833
 20
4.41992
 11
100.824
 21
4.43457
  0
LINE
  8
0
 10
100.824
 20
4.43457
 11
100.816
 21
4.4502
  0
LINE
  8
0
 10
100.816
 20
4.4502
 11
100.808
 21
4.46484
  0
LINE
  8
0
 10
100.808
 20
4.46484
 11
100.798
 21
4.47949
  0
LINE
  8
0
 10
100.798
 20
4.47949
 11
100.789
 21
4.49512
  0
LINE
  8
0
 10
100.789
 20
4.49512
 11
100.779
 21
4.50879
  0
LINE
  8
0
 10
100.779
 20
4.50879
 11
100.77
 21
4.52344
  0
LINE
  8
0
 10
100.77
 20
4.52344
 11
100.759
 21
4.53809
  0
LINE
  8
0
 10
100.759
 20
4.53809
 11
100.749
 21
4.55176
  0
LINE
  8
0
 10
100.749
 20
4.55176
 11
100.728
 21
4.5791
  0
LINE
  8
0
 10
100.728
 20
4.5791
 11
100.716
 21
4.59277
  0
LINE
  8
0
 10
100.716
 20
4.59277
 11
100.705
 21
4.60645
  0
LINE
  8
0
 10
100.705
 20
4.60645
 11
100.682
 21
4.63184
  0
LINE
  8
0
 10
100.682
 20
4.63184
 11
100.669
 21
4.64453
  0
LINE
  8
0
 10
100.669
 20
4.64453
 11
100.657
 21
4.65723
  0
LINE
  8
0
 10
100.657
 20
4.65723
 11
100.645
 21
4.66895
  0
LINE
  8
0
 10
100.645
 20
4.66895
 11
100.632
 21
4.68164
  0
LINE
  8
0
 10
100.632
 20
4.68164
 11
100.606
 21
4.70508
  0
LINE
  8
0
 10
100.606
 20
4.70508
 11
100.593
 21
4.71582
  0
LINE
  8
0
 10
100.593
 20
4.71582
 11
100.579
 21
4.72754
  0
LINE
  8
0
 10
100.579
 20
4.72754
 11
100.552
 21
4.74902
  0
LINE
  8
0
 10
100.552
 20
4.74902
 11
100.538
 21
4.75879
  0
LINE
  8
0
 10
100.538
 20
4.75879
 11
100.523
 21
4.76953
  0
LINE
  8
0
 10
100.523
 20
4.76953
 11
100.509
 21
4.7793
  0
LINE
  8
0
 10
100.509
 20
4.7793
 11
100.495
 21
4.78906
  0
LINE
  8
0
 10
100.495
 20
4.78906
 11
100.479
 21
4.79785
  0
LINE
  8
0
 10
100.479
 20
4.79785
 11
100.465
 21
4.80762
  0
LINE
  8
0
 10
100.465
 20
4.80762
 11
100.45
 21
4.81641
  0
LINE
  8
0
 10
100.45
 20
4.81641
 11
100.435
 21
4.82422
  0
LINE
  8
0
 10
100.435
 20
4.82422
 11
100.42
 21
4.83301
  0
LINE
  8
0
 10
100.42
 20
4.83301
 11
100.373
 21
4.85645
  0
LINE
  8
0
 10
100.373
 20
4.85645
 11
100.356
 21
4.86328
  0
LINE
  8
0
 10
100.356
 20
4.86328
 11
100.341
 21
4.87012
  0
LINE
  8
0
 10
100.341
 20
4.87012
 11
100.324
 21
4.87695
  0
LINE
  8
0
 10
100.324
 20
4.87695
 11
100.309
 21
4.88379
  0
LINE
  8
0
 10
100.309
 20
4.88379
 11
100.259
 21
4.90137
  0
LINE
  8
0
 10
100.259
 20
4.90137
 11
100.209
 21
4.91602
  0
LINE
  8
0
 10
100.209
 20
4.91602
 11
100.192
 21
4.91992
  0
LINE
  8
0
 10
100.192
 20
4.91992
 11
100.175
 21
4.9248
  0
LINE
  8
0
 10
100.175
 20
4.9248
 11
100.158
 21
4.92773
  0
LINE
  8
0
 10
100.158
 20
4.92773
 11
100.141
 21
4.93164
  0
LINE
  8
0
 10
100.141
 20
4.93164
 11
100.124
 21
4.93457
  0
LINE
  8
0
 10
100.124
 20
4.93457
 11
100.089
 21
4.94043
  0
LINE
  8
0
 10
100.089
 20
4.94043
 11
100.072
 21
4.94238
  0
LINE
  8
0
 10
100.072
 20
4.94238
 11
100.037
 21
4.94629
  0
LINE
  8
0
 10
100.037
 20
4.94629
 11
100.002
 21
4.94824
  0
LINE
  8
0
 10
100.002
 20
4.94824
 11
99.9854
 21
4.94922
  0
LINE
  8
0
 10
99.9854
 20
4.94922
 11
99.9678
 21
4.9502
  0
LINE
  8
0
 10
99.9678
 20
4.9502
 11
87.915
 21
4.9502
  0
LINE
  8
0
 10
87.915
 20
4.9502
 11
87.8799
 21
4.95215
  0
LINE
  8
0
 10
87.8799
 20
4.95215
 11
87.8633
 21
4.9541
  0
LINE
  8
0
 10
87.8633
 20
4.9541
 11
87.8457
 21
4.95508
  0
LINE
  8
0
 10
87.8457
 20
4.95508
 11
87.8281
 21
4.95703
  0
LINE
  8
0
 10
87.8281
 20
4.95703
 11
87.8105
 21
4.95996
  0
LINE
  8
0
 10
87.8105
 20
4.95996
 11
87.7939
 21
4.96191
  0
LINE
  8
0
 10
87.7939
 20
4.96191
 11
87.7764
 21
4.96484
  0
LINE
  8
0
 10
87.7764
 20
4.96484
 11
87.7588
 21
4.96875
  0
LINE
  8
0
 10
87.7588
 20
4.96875
 11
87.7422
 21
4.97168
  0
LINE
  8
0
 10
87.7422
 20
4.97168
 11
87.7246
 21
4.97559
  0
LINE
  8
0
 10
87.7246
 20
4.97559
 11
87.708
 21
4.97949
  0
LINE
  8
0
 10
87.708
 20
4.97949
 11
87.6914
 21
4.98438
  0
LINE
  8
0
 10
87.6914
 20
4.98438
 11
87.6748
 21
4.98828
  0
LINE
  8
0
 10
87.6748
 20
4.98828
 11
87.6572
 21
4.99414
  0
LINE
  8
0
 10
87.6572
 20
4.99414
 11
87.6406
 21
4.99902
  0
LINE
  8
0
 10
87.6406
 20
4.99902
 11
87.624
 21
5.00488
  0
LINE
  8
0
 10
87.624
 20
5.00488
 11
87.6084
 21
5.01074
  0
LINE
  8
0
 10
87.6084
 20
5.01074
 11
87.5752
 21
5.02246
  0
LINE
  8
0
 10
87.5752
 20
5.02246
 11
87.5596
 21
5.0293
  0
LINE
  8
0
 10
87.5596
 20
5.0293
 11
87.543
 21
5.03613
  0
LINE
  8
0
 10
87.543
 20
5.03613
 11
87.5273
 21
5.04395
  0
LINE
  8
0
 10
87.5273
 20
5.04395
 11
87.5117
 21
5.05078
  0
LINE
  8
0
 10
87.5117
 20
5.05078
 11
87.4961
 21
5.05859
  0
LINE
  8
0
 10
87.4961
 20
5.05859
 11
87.4805
 21
5.06738
  0
LINE
  8
0
 10
87.4805
 20
5.06738
 11
87.4648
 21
5.0752
  0
LINE
  8
0
 10
87.4648
 20
5.0752
 11
87.4502
 21
5.08398
  0
LINE
  8
0
 10
87.4502
 20
5.08398
 11
87.4346
 21
5.09277
  0
LINE
  8
0
 10
87.4346
 20
5.09277
 11
87.4199
 21
5.10156
  0
LINE
  8
0
 10
87.4199
 20
5.10156
 11
87.376
 21
5.13086
  0
LINE
  8
0
 10
87.376
 20
5.13086
 11
87.3623
 21
5.14062
  0
LINE
  8
0
 10
87.3623
 20
5.14062
 11
87.3486
 21
5.15137
  0
LINE
  8
0
 10
87.3486
 20
5.15137
 11
87.334
 21
5.16211
  0
LINE
  8
0
 10
87.334
 20
5.16211
 11
87.3203
 21
5.17285
  0
LINE
  8
0
 10
87.3203
 20
5.17285
 11
87.3076
 21
5.18359
  0
LINE
  8
0
 10
87.3076
 20
5.18359
 11
87.2939
 21
5.19531
  0
LINE
  8
0
 10
87.2939
 20
5.19531
 11
87.2812
 21
5.20703
  0
LINE
  8
0
 10
87.2812
 20
5.20703
 11
87.2676
 21
5.21875
  0
LINE
  8
0
 10
87.2676
 20
5.21875
 11
87.2549
 21
5.23047
  0
LINE
  8
0
 10
87.2549
 20
5.23047
 11
87.2432
 21
5.24316
  0
LINE
  8
0
 10
87.2432
 20
5.24316
 11
87.2305
 21
5.25488
  0
LINE
  8
0
 10
87.2305
 20
5.25488
 11
87.2188
 21
5.26758
  0
LINE
  8
0
 10
87.2188
 20
5.26758
 11
87.207
 21
5.28125
  0
LINE
  8
0
 10
87.207
 20
5.28125
 11
87.1953
 21
5.29395
  0
LINE
  8
0
 10
87.1953
 20
5.29395
 11
87.1836
 21
5.30762
  0
LINE
  8
0
 10
87.1836
 20
5.30762
 11
87.1729
 21
5.32031
  0
LINE
  8
0
 10
87.1729
 20
5.32031
 11
87.1621
 21
5.33398
  0
LINE
  8
0
 10
87.1621
 20
5.33398
 11
87.1514
 21
5.34863
  0
LINE
  8
0
 10
87.1514
 20
5.34863
 11
87.1406
 21
5.3623
  0
LINE
  8
0
 10
87.1406
 20
5.3623
 11
87.1309
 21
5.37598
  0
LINE
  8
0
 10
87.1309
 20
5.37598
 11
87.1016
 21
5.41992
  0
LINE
  8
0
 10
87.1016
 20
5.41992
 11
87.0928
 21
5.43457
  0
LINE
  8
0
 10
87.0928
 20
5.43457
 11
87.084
 21
5.4502
  0
LINE
  8
0
 10
87.084
 20
5.4502
 11
87.0752
 21
5.46484
  0
LINE
  8
0
 10
87.0752
 20
5.46484
 11
87.0674
 21
5.48047
  0
LINE
  8
0
 10
87.0674
 20
5.48047
 11
87.0586
 21
5.49609
  0
LINE
  8
0
 10
87.0586
 20
5.49609
 11
87.0508
 21
5.51172
  0
LINE
  8
0
 10
87.0508
 20
5.51172
 11
87.0439
 21
5.52734
  0
LINE
  8
0
 10
87.0439
 20
5.52734
 11
87.0361
 21
5.54297
  0
LINE
  8
0
 10
87.0361
 20
5.54297
 11
87.0293
 21
5.55957
  0
LINE
  8
0
 10
87.0293
 20
5.55957
 11
87.0225
 21
5.5752
  0
LINE
  8
0
 10
87.0225
 20
5.5752
 11
87.0107
 21
5.6084
  0
LINE
  8
0
 10
87.0107
 20
5.6084
 11
87.0049
 21
5.62402
  0
LINE
  8
0
 10
87.0049
 20
5.62402
 11
86.999
 21
5.64062
  0
LINE
  8
0
 10
86.999
 20
5.64062
 11
86.9941
 21
5.65723
  0
LINE
  8
0
 10
86.9941
 20
5.65723
 11
86.9883
 21
5.6748
  0
LINE
  8
0
 10
86.9883
 20
5.6748
 11
86.9844
 21
5.69141
  0
LINE
  8
0
 10
86.9844
 20
5.69141
 11
86.9795
 21
5.70801
  0
LINE
  8
0
 10
86.9795
 20
5.70801
 11
86.9756
 21
5.72461
  0
LINE
  8
0
 10
86.9756
 20
5.72461
 11
86.9717
 21
5.74219
  0
LINE
  8
0
 10
86.9717
 20
5.74219
 11
86.9688
 21
5.75879
  0
LINE
  8
0
 10
86.9688
 20
5.75879
 11
86.9648
 21
5.77637
  0
LINE
  8
0
 10
86.9648
 20
5.77637
 11
86.9619
 21
5.79395
  0
LINE
  8
0
 10
86.9619
 20
5.79395
 11
86.96
 21
5.81055
  0
LINE
  8
0
 10
86.96
 20
5.81055
 11
86.957
 21
5.82812
  0
LINE
  8
0
 10
86.957
 20
5.82812
 11
86.9551
 21
5.8457
  0
LINE
  8
0
 10
86.9551
 20
5.8457
 11
86.9541
 21
5.86328
  0
LINE
  8
0
 10
86.9541
 20
5.86328
 11
86.9521
 21
5.87988
  0
LINE
  8
0
 10
86.9521
 20
5.87988
 11
86.9502
 21
5.91504
  0
LINE
  8
0
 10
86.9502
 20
5.91504
 11
86.9502
 21
7.68457
  0
LINE
  8
0
 10
86.9502
 20
7.68457
 11
86.9521
 21
7.71973
  0
LINE
  8
0
 10
86.9521
 20
7.71973
 11
86.9541
 21
7.7373
  0
LINE
  8
0
 10
86.9541
 20
7.7373
 11
86.9551
 21
7.75488
  0
LINE
  8
0
 10
86.9551
 20
7.75488
 11
86.957
 21
7.77148
  0
LINE
  8
0
 10
86.957
 20
7.77148
 11
86.96
 21
7.78906
  0
LINE
  8
0
 10
86.96
 20
7.78906
 11
86.9619
 21
7.80664
  0
LINE
  8
0
 10
86.9619
 20
7.80664
 11
86.9648
 21
7.82324
  0
LINE
  8
0
 10
86.9648
 20
7.82324
 11
86.9688
 21
7.84082
  0
LINE
  8
0
 10
86.9688
 20
7.84082
 11
86.9717
 21
7.8584
  0
LINE
  8
0
 10
86.9717
 20
7.8584
 11
86.9795
 21
7.8916
  0
LINE
  8
0
 10
86.9795
 20
7.8916
 11
86.9844
 21
7.90918
  0
LINE
  8
0
 10
86.9844
 20
7.90918
 11
86.9883
 21
7.92578
  0
LINE
  8
0
 10
86.9883
 20
7.92578
 11
86.9941
 21
7.94238
  0
LINE
  8
0
 10
86.9941
 20
7.94238
 11
86.999
 21
7.95898
  0
LINE
  8
0
 10
86.999
 20
7.95898
 11
87.0166
 21
8.00879
  0
LINE
  8
0
 10
87.0166
 20
8.00879
 11
87.0225
 21
8.02441
  0
LINE
  8
0
 10
87.0225
 20
8.02441
 11
87.0293
 21
8.04102
  0
LINE
  8
0
 10
87.0293
 20
8.04102
 11
87.0361
 21
8.05664
  0
LINE
  8
0
 10
87.0361
 20
8.05664
 11
87.0439
 21
8.07227
  0
LINE
  8
0
 10
87.0439
 20
8.07227
 11
87.0508
 21
8.08789
  0
LINE
  8
0
 10
87.0508
 20
8.08789
 11
87.0586
 21
8.10352
  0
LINE
  8
0
 10
87.0586
 20
8.10352
 11
87.0674
 21
8.11914
  0
LINE
  8
0
 10
87.0674
 20
8.11914
 11
87.0752
 21
8.13477
  0
LINE
  8
0
 10
87.0752
 20
8.13477
 11
87.084
 21
8.15039
  0
LINE
  8
0
 10
87.084
 20
8.15039
 11
87.1016
 21
8.17969
  0
LINE
  8
0
 10
87.1016
 20
8.17969
 11
87.1309
 21
8.22363
  0
LINE
  8
0
 10
87.1309
 20
8.22363
 11
87.1406
 21
8.2373
  0
LINE
  8
0
 10
87.1406
 20
8.2373
 11
87.1514
 21
8.25195
  0
LINE
  8
0
 10
87.1514
 20
8.25195
 11
87.1836
 21
8.29297
  0
LINE
  8
0
 10
87.1836
 20
8.29297
 11
87.1953
 21
8.30566
  0
LINE
  8
0
 10
87.1953
 20
8.30566
 11
87.207
 21
8.31934
  0
LINE
  8
0
 10
87.207
 20
8.31934
 11
87.2305
 21
8.34473
  0
LINE
  8
0
 10
87.2305
 20
8.34473
 11
87.2676
 21
8.38184
  0
LINE
  8
0
 10
87.2676
 20
8.38184
 11
87.2812
 21
8.39355
  0
LINE
  8
0
 10
87.2812
 20
8.39355
 11
87.2939
 21
8.4043
  0
LINE
  8
0
 10
87.2939
 20
8.4043
 11
87.3076
 21
8.41602
  0
LINE
  8
0
 10
87.3076
 20
8.41602
 11
87.3203
 21
8.42676
  0
LINE
  8
0
 10
87.3203
 20
8.42676
 11
87.334
 21
8.43848
  0
LINE
  8
0
 10
87.334
 20
8.43848
 11
87.3486
 21
8.44824
  0
LINE
  8
0
 10
87.3486
 20
8.44824
 11
87.3623
 21
8.45898
  0
LINE
  8
0
 10
87.3623
 20
8.45898
 11
87.376
 21
8.46875
  0
LINE
  8
0
 10
87.376
 20
8.46875
 11
87.3906
 21
8.47949
  0
LINE
  8
0
 10
87.3906
 20
8.47949
 11
87.4053
 21
8.48828
  0
LINE
  8
0
 10
87.4053
 20
8.48828
 11
87.4199
 21
8.49805
  0
LINE
  8
0
 10
87.4199
 20
8.49805
 11
87.4346
 21
8.50684
  0
LINE
  8
0
 10
87.4346
 20
8.50684
 11
87.4502
 21
8.51562
  0
LINE
  8
0
 10
87.4502
 20
8.51562
 11
87.4648
 21
8.52441
  0
LINE
  8
0
 10
87.4648
 20
8.52441
 11
87.4805
 21
8.5332
  0
LINE
  8
0
 10
87.4805
 20
8.5332
 11
87.5273
 21
8.55664
  0
LINE
  8
0
 10
87.5273
 20
8.55664
 11
87.543
 21
8.56348
  0
LINE
  8
0
 10
87.543
 20
8.56348
 11
87.5596
 21
8.57031
  0
LINE
  8
0
 10
87.5596
 20
8.57031
 11
87.5752
 21
8.57715
  0
LINE
  8
0
 10
87.5752
 20
8.57715
 11
87.5918
 21
8.58398
  0
LINE
  8
0
 10
87.5918
 20
8.58398
 11
87.6084
 21
8.58984
  0
LINE
  8
0
 10
87.6084
 20
8.58984
 11
87.624
 21
8.5957
  0
LINE
  8
0
 10
87.624
 20
8.5957
 11
87.6406
 21
8.60059
  0
LINE
  8
0
 10
87.6406
 20
8.60059
 11
87.6572
 21
8.60645
  0
LINE
  8
0
 10
87.6572
 20
8.60645
 11
87.6748
 21
8.61133
  0
LINE
  8
0
 10
87.6748
 20
8.61133
 11
87.6914
 21
8.61621
  0
LINE
  8
0
 10
87.6914
 20
8.61621
 11
87.7246
 21
8.62402
  0
LINE
  8
0
 10
87.7246
 20
8.62402
 11
87.7422
 21
8.62793
  0
LINE
  8
0
 10
87.7422
 20
8.62793
 11
87.7588
 21
8.63184
  0
LINE
  8
0
 10
87.7588
 20
8.63184
 11
87.7939
 21
8.6377
  0
LINE
  8
0
 10
87.7939
 20
8.6377
 11
87.8105
 21
8.64062
  0
LINE
  8
0
 10
87.8105
 20
8.64062
 11
87.8633
 21
8.64648
  0
LINE
  8
0
 10
87.8633
 20
8.64648
 11
87.8799
 21
8.64746
  0
LINE
  8
0
 10
87.8799
 20
8.64746
 11
87.915
 21
8.64941
  0
LINE
  8
0
 10
87.915
 20
8.64941
 11
87.9326
 21
8.64941
  0
LINE
  8
0
 10
87.9326
 20
8.64941
 11
87.9502
 21
8.65039
  0
LINE
  8
0
 10
87.9502
 20
8.65039
 11
99.9854
 21
8.65039
  0
LINE
  8
0
 10
99.9854
 20
8.65039
 11
100.002
 21
8.65137
  0
LINE
  8
0
 10
100.002
 20
8.65137
 11
100.037
 21
8.65332
  0
LINE
  8
0
 10
100.037
 20
8.65332
 11
100.072
 21
8.65723
  0
LINE
  8
0
 10
100.072
 20
8.65723
 11
100.089
 21
8.66016
  0
LINE
  8
0
 10
100.089
 20
8.66016
 11
100.106
 21
8.66211
  0
LINE
  8
0
 10
100.106
 20
8.66211
 11
100.124
 21
8.66504
  0
LINE
  8
0
 10
100.124
 20
8.66504
 11
100.141
 21
8.66797
  0
LINE
  8
0
 10
100.141
 20
8.66797
 11
100.158
 21
8.67188
  0
LINE
  8
0
 10
100.158
 20
8.67188
 11
100.175
 21
8.67578
  0
LINE
  8
0
 10
100.175
 20
8.67578
 11
100.192
 21
8.67969
  0
LINE
  8
0
 10
100.192
 20
8.67969
 11
100.209
 21
8.68359
  0
LINE
  8
0
 10
100.209
 20
8.68359
 11
100.242
 21
8.69336
  0
LINE
  8
0
 10
100.242
 20
8.69336
 11
100.259
 21
8.69922
  0
LINE
  8
0
 10
100.259
 20
8.69922
 11
100.275
 21
8.7041
  0
LINE
  8
0
 10
100.275
 20
8.7041
 11
100.292
 21
8.70996
  0
LINE
  8
0
 10
100.292
 20
8.70996
 11
100.309
 21
8.7168
  0
LINE
  8
0
 10
100.309
 20
8.7168
 11
100.324
 21
8.72266
  0
LINE
  8
0
 10
100.324
 20
8.72266
 11
100.341
 21
8.72949
  0
LINE
  8
0
 10
100.341
 20
8.72949
 11
100.356
 21
8.73633
  0
LINE
  8
0
 10
100.356
 20
8.73633
 11
100.373
 21
8.74414
  0
LINE
  8
0
 10
100.373
 20
8.74414
 11
100.389
 21
8.75098
  0
LINE
  8
0
 10
100.389
 20
8.75098
 11
100.42
 21
8.7666
  0
LINE
  8
0
 10
100.42
 20
8.7666
 11
100.435
 21
8.77539
  0
LINE
  8
0
 10
100.435
 20
8.77539
 11
100.45
 21
8.78418
  0
LINE
  8
0
 10
100.45
 20
8.78418
 11
100.479
 21
8.80176
  0
LINE
  8
0
 10
100.479
 20
8.80176
 11
100.495
 21
8.81152
  0
LINE
  8
0
 10
100.495
 20
8.81152
 11
100.509
 21
8.82129
  0
LINE
  8
0
 10
100.509
 20
8.82129
 11
100.538
 21
8.84082
  0
LINE
  8
0
 10
100.538
 20
8.84082
 11
100.593
 21
8.88379
  0
LINE
  8
0
 10
100.593
 20
8.88379
 11
100.606
 21
8.89551
  0
LINE
  8
0
 10
100.606
 20
8.89551
 11
100.645
 21
8.93066
  0
LINE
  8
0
 10
100.645
 20
8.93066
 11
100.682
 21
8.96777
  0
LINE
  8
0
 10
100.682
 20
8.96777
 11
100.693
 21
8.98047
  0
LINE
  8
0
 10
100.693
 20
8.98047
 11
100.705
 21
8.99414
  0
LINE
  8
0
 10
100.705
 20
8.99414
 11
100.716
 21
9.00684
  0
LINE
  8
0
 10
100.716
 20
9.00684
 11
100.728
 21
9.02051
  0
LINE
  8
0
 10
100.728
 20
9.02051
 11
100.749
 21
9.04785
  0
LINE
  8
0
 10
100.749
 20
9.04785
 11
100.759
 21
9.0625
  0
LINE
  8
0
 10
100.759
 20
9.0625
 11
100.77
 21
9.07617
  0
LINE
  8
0
 10
100.77
 20
9.07617
 11
100.789
 21
9.10547
  0
LINE
  8
0
 10
100.789
 20
9.10547
 11
100.798
 21
9.12012
  0
LINE
  8
0
 10
100.798
 20
9.12012
 11
100.808
 21
9.13477
  0
LINE
  8
0
 10
100.808
 20
9.13477
 11
100.816
 21
9.15039
  0
LINE
  8
0
 10
100.816
 20
9.15039
 11
100.824
 21
9.16504
  0
LINE
  8
0
 10
100.824
 20
9.16504
 11
100.833
 21
9.18066
  0
LINE
  8
0
 10
100.833
 20
9.18066
 11
100.856
 21
9.22754
  0
LINE
  8
0
 10
100.856
 20
9.22754
 11
100.87
 21
9.25879
  0
LINE
  8
0
 10
100.87
 20
9.25879
 11
100.884
 21
9.29199
  0
LINE
  8
0
 10
100.884
 20
9.29199
 11
100.89
 21
9.30762
  0
LINE
  8
0
 10
100.89
 20
9.30762
 11
100.901
 21
9.34082
  0
LINE
  8
0
 10
100.901
 20
9.34082
 11
100.911
 21
9.37402
  0
LINE
  8
0
 10
100.911
 20
9.37402
 11
100.916
 21
9.3916
  0
LINE
  8
0
 10
100.916
 20
9.3916
 11
100.92
 21
9.4082
  0
LINE
  8
0
 10
100.92
 20
9.4082
 11
100.925
 21
9.4248
  0
LINE
  8
0
 10
100.925
 20
9.4248
 11
100.928
 21
9.44238
  0
LINE
  8
0
 10
100.928
 20
9.44238
 11
100.932
 21
9.45898
  0
LINE
  8
0
 10
100.932
 20
9.45898
 11
100.935
 21
9.47656
  0
LINE
  8
0
 10
100.935
 20
9.47656
 11
100.938
 21
9.49316
  0
LINE
  8
0
 10
100.938
 20
9.49316
 11
100.94
 21
9.51074
  0
LINE
  8
0
 10
100.94
 20
9.51074
 11
100.944
 21
9.5459
  0
LINE
  8
0
 10
100.944
 20
9.5459
 11
100.946
 21
9.5625
  0
LINE
  8
0
 10
100.946
 20
9.5625
 11
100.95
 21
9.63281
  0
LINE
  8
0
 10
100.95
 20
9.63281
 11
100.95
 21
17
  0
LINE
  8
0
 10
100.95
 20
17
 11
104.968
 21
17
  0
LINE
  8
0
 10
104.968
 20
17
 11
104.985
 21
17.001
  0
LINE
  8
0
 10
104.985
 20
17.001
 11
105.002
 21
17.001
  0
LINE
  8
0
 10
105.002
 20
17.001
 11
105.02
 21
17.002
  0
LINE
  8
0
 10
105.02
 20
17.002
 11
105.072
 21
17.0078
  0
LINE
  8
0
 10
105.072
 20
17.0078
 11
105.089
 21
17.0098
  0
LINE
  8
0
 10
105.089
 20
17.0098
 11
105.124
 21
17.0156
  0
LINE
  8
0
 10
105.124
 20
17.0156
 11
105.141
 21
17.0186
  0
LINE
  8
0
 10
105.141
 20
17.0186
 11
105.158
 21
17.0215
  0
LINE
  8
0
 10
105.158
 20
17.0215
 11
105.175
 21
17.0254
  0
LINE
  8
0
 10
105.175
 20
17.0254
 11
105.192
 21
17.0293
  0
LINE
  8
0
 10
105.192
 20
17.0293
 11
105.259
 21
17.0488
  0
LINE
  8
0
 10
105.259
 20
17.0488
 11
105.309
 21
17.0664
  0
LINE
  8
0
 10
105.309
 20
17.0664
 11
105.324
 21
17.0732
  0
LINE
  8
0
 10
105.324
 20
17.0732
 11
105.341
 21
17.0791
  0
LINE
  8
0
 10
105.341
 20
17.0791
 11
105.356
 21
17.0869
  0
LINE
  8
0
 10
105.356
 20
17.0869
 11
105.373
 21
17.0938
  0
LINE
  8
0
 10
105.373
 20
17.0938
 11
105.42
 21
17.1172
  0
LINE
  8
0
 10
105.42
 20
17.1172
 11
105.435
 21
17.125
  0
LINE
  8
0
 10
105.435
 20
17.125
 11
105.45
 21
17.1338
  0
LINE
  8
0
 10
105.45
 20
17.1338
 11
105.465
 21
17.1426
  0
LINE
  8
0
 10
105.465
 20
17.1426
 11
105.479
 21
17.1523
  0
LINE
  8
0
 10
105.479
 20
17.1523
 11
105.495
 21
17.1611
  0
LINE
  8
0
 10
105.495
 20
17.1611
 11
105.509
 21
17.1709
  0
LINE
  8
0
 10
105.509
 20
17.1709
 11
105.523
 21
17.1807
  0
LINE
  8
0
 10
105.523
 20
17.1807
 11
105.538
 21
17.1914
  0
LINE
  8
0
 10
105.538
 20
17.1914
 11
105.552
 21
17.2012
  0
LINE
  8
0
 10
105.552
 20
17.2012
 11
105.579
 21
17.2227
  0
LINE
  8
0
 10
105.579
 20
17.2227
 11
105.593
 21
17.2344
  0
LINE
  8
0
 10
105.593
 20
17.2344
 11
105.606
 21
17.2451
  0
LINE
  8
0
 10
105.606
 20
17.2451
 11
105.645
 21
17.2803
  0
LINE
  8
0
 10
105.645
 20
17.2803
 11
105.657
 21
17.293
  0
LINE
  8
0
 10
105.657
 20
17.293
 11
105.669
 21
17.3057
  0
LINE
  8
0
 10
105.669
 20
17.3057
 11
105.682
 21
17.3184
  0
LINE
  8
0
 10
105.682
 20
17.3184
 11
105.705
 21
17.3438
  0
LINE
  8
0
 10
105.705
 20
17.3438
 11
105.716
 21
17.3574
  0
LINE
  8
0
 10
105.716
 20
17.3574
 11
105.728
 21
17.3711
  0
LINE
  8
0
 10
105.728
 20
17.3711
 11
105.749
 21
17.3984
  0
LINE
  8
0
 10
105.749
 20
17.3984
 11
105.759
 21
17.4121
  0
LINE
  8
0
 10
105.759
 20
17.4121
 11
105.77
 21
17.4268
  0
LINE
  8
0
 10
105.77
 20
17.4268
 11
105.779
 21
17.4404
  0
LINE
  8
0
 10
105.779
 20
17.4404
 11
105.789
 21
17.4551
  0
LINE
  8
0
 10
105.789
 20
17.4551
 11
105.798
 21
17.4697
  0
LINE
  8
0
 10
105.798
 20
17.4697
 11
105.808
 21
17.4854
  0
LINE
  8
0
 10
105.808
 20
17.4854
 11
105.816
 21
17.5
  0
LINE
  8
0
 10
105.816
 20
17.5
 11
105.824
 21
17.5156
  0
LINE
  8
0
 10
105.824
 20
17.5156
 11
105.833
 21
17.5303
  0
LINE
  8
0
 10
105.833
 20
17.5303
 11
105.856
 21
17.5771
  0
LINE
  8
0
 10
105.856
 20
17.5771
 11
105.863
 21
17.5938
  0
LINE
  8
0
 10
105.863
 20
17.5938
 11
105.877
 21
17.625
  0
LINE
  8
0
 10
105.877
 20
17.625
 11
105.884
 21
17.6416
  0
LINE
  8
0
 10
105.884
 20
17.6416
 11
105.901
 21
17.6914
  0
LINE
  8
0
 10
105.901
 20
17.6914
 11
105.916
 21
17.7412
  0
LINE
  8
0
 10
105.916
 20
17.7412
 11
105.92
 21
17.7578
  0
LINE
  8
0
 10
105.92
 20
17.7578
 11
105.925
 21
17.7754
  0
LINE
  8
0
 10
105.925
 20
17.7754
 11
105.928
 21
17.792
  0
LINE
  8
0
 10
105.928
 20
17.792
 11
105.932
 21
17.8096
  0
LINE
  8
0
 10
105.932
 20
17.8096
 11
105.935
 21
17.8262
  0
LINE
  8
0
 10
105.935
 20
17.8262
 11
105.938
 21
17.8438
  0
LINE
  8
0
 10
105.938
 20
17.8438
 11
105.94
 21
17.8604
  0
LINE
  8
0
 10
105.94
 20
17.8604
 11
105.946
 21
17.9131
  0
LINE
  8
0
 10
105.946
 20
17.9131
 11
105.947
 21
17.9307
  0
LINE
  8
0
 10
105.947
 20
17.9307
 11
105.948
 21
17.9473
  0
LINE
  8
0
 10
105.948
 20
17.9473
 11
105.95
 21
17.9824
  0
LINE
  8
0
 10
105.95
 20
17.9824
 11
105.95
 21
36.0176
  0
LINE
  8
0
 10
105.95
 20
36.0176
 11
105.948
 21
36.0527
  0
LINE
  8
0
 10
105.948
 20
36.0527
 11
105.947
 21
36.0693
  0
LINE
  8
0
 10
105.947
 20
36.0693
 11
105.946
 21
36.0869
  0
LINE
  8
0
 10
105.946
 20
36.0869
 11
105.94
 21
36.1396
  0
LINE
  8
0
 10
105.94
 20
36.1396
 11
105.938
 21
36.1562
  0
LINE
  8
0
 10
105.938
 20
36.1562
 11
105.935
 21
36.1738
  0
LINE
  8
0
 10
105.935
 20
36.1738
 11
105.932
 21
36.1904
  0
LINE
  8
0
 10
105.932
 20
36.1904
 11
105.928
 21
36.208
  0
LINE
  8
0
 10
105.928
 20
36.208
 11
105.925
 21
36.2246
  0
LINE
  8
0
 10
105.925
 20
36.2246
 11
105.92
 21
36.2422
  0
LINE
  8
0
 10
105.92
 20
36.2422
 11
105.916
 21
36.2588
  0
LINE
  8
0
 10
105.916
 20
36.2588
 11
105.901
 21
36.3086
  0
LINE
  8
0
 10
105.901
 20
36.3086
 11
105.884
 21
36.3584
  0
LINE
  8
0
 10
105.884
 20
36.3584
 11
105.877
 21
36.375
  0
LINE
  8
0
 10
105.877
 20
36.375
 11
105.863
 21
36.4062
  0
LINE
  8
0
 10
105.863
 20
36.4062
 11
105.856
 21
36.4229
  0
LINE
  8
0
 10
105.856
 20
36.4229
 11
105.833
 21
36.4697
  0
LINE
  8
0
 10
105.833
 20
36.4697
 11
105.824
 21
36.4844
  0
LINE
  8
0
 10
105.824
 20
36.4844
 11
105.816
 21
36.5
  0
LINE
  8
0
 10
105.816
 20
36.5
 11
105.808
 21
36.5146
  0
LINE
  8
0
 10
105.808
 20
36.5146
 11
105.798
 21
36.5303
  0
LINE
  8
0
 10
105.798
 20
36.5303
 11
105.789
 21
36.5449
  0
LINE
  8
0
 10
105.789
 20
36.5449
 11
105.779
 21
36.5596
  0
LINE
  8
0
 10
105.779
 20
36.5596
 11
105.77
 21
36.5732
  0
LINE
  8
0
 10
105.77
 20
36.5732
 11
105.759
 21
36.5879
  0
LINE
  8
0
 10
105.759
 20
36.5879
 11
105.749
 21
36.6016
  0
LINE
  8
0
 10
105.749
 20
36.6016
 11
105.728
 21
36.6289
  0
LINE
  8
0
 10
105.728
 20
36.6289
 11
105.716
 21
36.6426
  0
LINE
  8
0
 10
105.716
 20
36.6426
 11
105.705
 21
36.6562
  0
LINE
  8
0
 10
105.705
 20
36.6562
 11
105.682
 21
36.6816
  0
LINE
  8
0
 10
105.682
 20
36.6816
 11
105.669
 21
36.6943
  0
LINE
  8
0
 10
105.669
 20
36.6943
 11
105.657
 21
36.707
  0
LINE
  8
0
 10
105.657
 20
36.707
 11
105.645
 21
36.7197
  0
LINE
  8
0
 10
105.645
 20
36.7197
 11
105.606
 21
36.7549
  0
LINE
  8
0
 10
105.606
 20
36.7549
 11
105.593
 21
36.7656
  0
LINE
  8
0
 10
105.593
 20
36.7656
 11
105.579
 21
36.7773
  0
LINE
  8
0
 10
105.579
 20
36.7773
 11
105.552
 21
36.7988
  0
LINE
  8
0
 10
105.552
 20
36.7988
 11
105.538
 21
36.8086
  0
LINE
  8
0
 10
105.538
 20
36.8086
 11
105.523
 21
36.8193
  0
LINE
  8
0
 10
105.523
 20
36.8193
 11
105.509
 21
36.8291
  0
LINE
  8
0
 10
105.509
 20
36.8291
 11
105.495
 21
36.8389
  0
LINE
  8
0
 10
105.495
 20
36.8389
 11
105.479
 21
36.8477
  0
LINE
  8
0
 10
105.479
 20
36.8477
 11
105.465
 21
36.8574
  0
LINE
  8
0
 10
105.465
 20
36.8574
 11
105.45
 21
36.8662
  0
LINE
  8
0
 10
105.45
 20
36.8662
 11
105.435
 21
36.875
  0
LINE
  8
0
 10
105.435
 20
36.875
 11
105.42
 21
36.8828
  0
LINE
  8
0
 10
105.42
 20
36.8828
 11
105.373
 21
36.9062
  0
LINE
  8
0
 10
105.373
 20
36.9062
 11
105.356
 21
36.9131
  0
LINE
  8
0
 10
105.356
 20
36.9131
 11
105.341
 21
36.9209
  0
LINE
  8
0
 10
105.341
 20
36.9209
 11
105.324
 21
36.9268
  0
LINE
  8
0
 10
105.324
 20
36.9268
 11
105.309
 21
36.9336
  0
LINE
  8
0
 10
105.309
 20
36.9336
 11
105.259
 21
36.9512
  0
LINE
  8
0
 10
105.259
 20
36.9512
 11
105.192
 21
36.9707
  0
LINE
  8
0
 10
105.192
 20
36.9707
 11
105.175
 21
36.9746
  0
LINE
  8
0
 10
105.175
 20
36.9746
 11
105.158
 21
36.9785
  0
LINE
  8
0
 10
105.158
 20
36.9785
 11
105.141
 21
36.9814
  0
LINE
  8
0
 10
105.141
 20
36.9814
 11
105.124
 21
36.9844
  0
LINE
  8
0
 10
105.124
 20
36.9844
 11
105.089
 21
36.9902
  0
LINE
  8
0
 10
105.089
 20
36.9902
 11
105.072
 21
36.9922
  0
LINE
  8
0
 10
105.072
 20
36.9922
 11
105.02
 21
36.998
  0
LINE
  8
0
 10
105.02
 20
36.998
 11
105.002
 21
36.999
  0
LINE
  8
0
 10
105.002
 20
36.999
 11
104.985
 21
36.999
  0
LINE
  8
0
 10
104.985
 20
36.999
 11
104.968
 21
37
  0
LINE
  8
0
 10
104.968
 20
37
 11
-4.01758
 21
37
  0
LINE
  8
0
 10
-4.01758
 20
37
 11
-4.03516
 21
36.999
  0
LINE
  8
0
 10
-4.03516
 20
36.999
 11
-4.05273
 21
36.999
  0
LINE
  8
0
 10
-4.05273
 20
36.999
 11
-4.06934
 21
36.998
  0
LINE
  8
0
 10
-4.06934
 20
36.998
 11
-4.13965
 21
36.9902
  0
LINE
  8
0
 10
-4.13965
 20
36.9902
 11
-4.15625
 21
36.9873
  0
LINE
  8
0
 10
-4.15625
 20
36.9873
 11
-4.17383
 21
36.9844
  0
LINE
  8
0
 10
-4.17383
 20
36.9844
 11
-4.19043
 21
36.9814
  0
LINE
  8
0
 10
-4.19043
 20
36.9814
 11
-4.20801
 21
36.9785
  0
LINE
  8
0
 10
-4.20801
 20
36.9785
 11
-4.22461
 21
36.9746
  0
LINE
  8
0
 10
-4.22461
 20
36.9746
 11
-4.24219
 21
36.9707
  0
LINE
  8
0
 10
-4.24219
 20
36.9707
 11
-4.30859
 21
36.9512
  0
LINE
  8
0
 10
-4.30859
 20
36.9512
 11
-4.3584
 21
36.9336
  0
LINE
  8
0
 10
-4.3584
 20
36.9336
 11
-4.375
 21
36.9268
  0
LINE
  8
0
 10
-4.375
 20
36.9268
 11
-4.39062
 21
36.9209
  0
LINE
  8
0
 10
-4.39062
 20
36.9209
 11
-4.40625
 21
36.9131
  0
LINE
  8
0
 10
-4.40625
 20
36.9131
 11
-4.42285
 21
36.9062
  0
LINE
  8
0
 10
-4.42285
 20
36.9062
 11
-4.46973
 21
36.8828
  0
LINE
  8
0
 10
-4.46973
 20
36.8828
 11
-4.48438
 21
36.875
  0
LINE
  8
0
 10
-4.48438
 20
36.875
 11
-4.5
 21
36.8662
  0
LINE
  8
0
 10
-4.5
 20
36.8662
 11
-4.51465
 21
36.8574
  0
LINE
  8
0
 10
-4.51465
 20
36.8574
 11
-4.53027
 21
36.8477
  0
LINE
  8
0
 10
-4.53027
 20
36.8477
 11
-4.54492
 21
36.8389
  0
LINE
  8
0
 10
-4.54492
 20
36.8389
 11
-4.55957
 21
36.8291
  0
LINE
  8
0
 10
-4.55957
 20
36.8291
 11
-4.57324
 21
36.8193
  0
LINE
  8
0
 10
-4.57324
 20
36.8193
 11
-4.58789
 21
36.8086
  0
LINE
  8
0
 10
-4.58789
 20
36.8086
 11
-4.60156
 21
36.7988
  0
LINE
  8
0
 10
-4.60156
 20
36.7988
 11
-4.62891
 21
36.7773
  0
LINE
  8
0
 10
-4.62891
 20
36.7773
 11
-4.64258
 21
36.7656
  0
LINE
  8
0
 10
-4.64258
 20
36.7656
 11
-4.65625
 21
36.7549
  0
LINE
  8
0
 10
-4.65625
 20
36.7549
 11
-4.69434
 21
36.7197
  0
LINE
  8
0
 10
-4.69434
 20
36.7197
 11
-4.71973
 21
36.6943
  0
LINE
  8
0
 10
-4.71973
 20
36.6943
 11
-4.75488
 21
36.6562
  0
LINE
  8
0
 10
-4.75488
 20
36.6562
 11
-4.76562
 21
36.6426
  0
LINE
  8
0
 10
-4.76562
 20
36.6426
 11
-4.77734
 21
36.6289
  0
LINE
  8
0
 10
-4.77734
 20
36.6289
 11
-4.79883
 21
36.6016
  0
LINE
  8
0
 10
-4.79883
 20
36.6016
 11
-4.80859
 21
36.5879
  0
LINE
  8
0
 10
-4.80859
 20
36.5879
 11
-4.81934
 21
36.5732
  0
LINE
  8
0
 10
-4.81934
 20
36.5732
 11
-4.8291
 21
36.5596
  0
LINE
  8
0
 10
-4.8291
 20
36.5596
 11
-4.83887
 21
36.5449
  0
LINE
  8
0
 10
-4.83887
 20
36.5449
 11
-4.84766
 21
36.5303
  0
LINE
  8
0
 10
-4.84766
 20
36.5303
 11
-4.85742
 21
36.5146
  0
LINE
  8
0
 10
-4.85742
 20
36.5146
 11
-4.86621
 21
36.5
  0
LINE
  8
0
 10
-4.86621
 20
36.5
 11
-4.875
 21
36.4844
  0
LINE
  8
0
 10
-4.875
 20
36.4844
 11
-4.88281
 21
36.4697
  0
LINE
  8
0
 10
-4.88281
 20
36.4697
 11
-4.90625
 21
36.4229
  0
LINE
  8
0
 10
-4.90625
 20
36.4229
 11
-4.91309
 21
36.4062
  0
LINE
  8
0
 10
-4.91309
 20
36.4062
 11
-4.9209
 21
36.3906
  0
LINE
  8
0
 10
-4.9209
 20
36.3906
 11
-4.92676
 21
36.375
  0
LINE
  8
0
 10
-4.92676
 20
36.375
 11
-4.93359
 21
36.3584
  0
LINE
  8
0
 10
-4.93359
 20
36.3584
 11
-4.95117
 21
36.3086
  0
LINE
  8
0
 10
-4.95117
 20
36.3086
 11
-4.9707
 21
36.2422
  0
LINE
  8
0
 10
-4.9707
 20
36.2422
 11
-4.97461
 21
36.2246
  0
LINE
  8
0
 10
-4.97461
 20
36.2246
 11
-4.97852
 21
36.208
  0
LINE
  8
0
 10
-4.97852
 20
36.208
 11
-4.98145
 21
36.1904
  0
LINE
  8
0
 10
-4.98145
 20
36.1904
 11
-4.98438
 21
36.1738
  0
LINE
  8
0
 10
-4.98438
 20
36.1738
 11
-4.9873
 21
36.1562
  0
LINE
  8
0
 10
-4.9873
 20
36.1562
 11
-4.99023
 21
36.1396
  0
LINE
  8
0
 10
-4.99023
 20
36.1396
 11
-4.99805
 21
36.0693
  0
LINE
  8
0
 10
-4.99805
 20
36.0693
 11
-4.99902
 21
36.0527
  0
LINE
  8
0
 10
-4.99902
 20
36.0527
 11
-4.99902
 21
36.0352
  0
LINE
  8
0
 10
-4.99902
 20
36.0352
 11
-5
 21
36.0176
  0
LINE
  8
0
 10
-5
 20
36.0176
 11
-5
 21
17.9824
  0
LINE
  8
0
 10
-5
 20
17.9824
 11
-4.99902
 21
17.9648
  0
LINE
  8
0
 10
-4.99902
 20
17.9648
 11
-4.99902
 21
17.9473
  0
LINE
  8
0
 10
-4.99902
 20
17.9473
 11
-4.99805
 21
17.9307
  0
LINE
  8
0
 10
-4.99805
 20
17.9307
 11
-4.99023
 21
17.8604
  0
LINE
  8
0
 10
-4.99023
 20
17.8604
 11
-4.9873
 21
17.8438
  0
LINE
  8
0
 10
-4.9873
 20
17.8438
 11
-4.98438
 21
17.8262
  0
LINE
  8
0
 10
-4.98438
 20
17.8262
 11
-4.98145
 21
17.8096
  0
LINE
  8
0
 10
-4.98145
 20
17.8096
 11
-4.97852
 21
17.792
  0
LINE
  8
0
 10
-4.97852
 20
17.792
 11
-4.97461
 21
17.7754
  0
LINE
  8
0
 10
-4.97461
 20
17.7754
 11
-4.9707
 21
17.7578
  0
LINE
  8
0
 10
-4.9707
 20
17.7578
 11
-4.95117
 21
17.6914
  0
LINE
  8
0
 10
-4.95117
 20
17.6914
 11
-4.93359
 21
17.6416
  0
LINE
  8
0
 10
-4.93359
 20
17.6416
 11
-4.92676
 21
17.625
  0
LINE
  8
0
 10
-4.92676
 20
17.625
 11
-4.9209
 21
17.6094
  0
LINE
  8
0
 10
-4.9209
 20
17.6094
 11
-4.91309
 21
17.5938
  0
LINE
  8
0
 10
-4.91309
 20
17.5938
 11
-4.90625
 21
17.5771
  0
LINE
  8
0
 10
-4.90625
 20
17.5771
 11
-4.88281
 21
17.5303
  0
LINE
  8
0
 10
-4.88281
 20
17.5303
 11
-4.875
 21
17.5156
  0
LINE
  8
0
 10
-4.875
 20
17.5156
 11
-4.86621
 21
17.5
  0
LINE
  8
0
 10
-4.86621
 20
17.5
 11
-4.85742
 21
17.4854
  0
LINE
  8
0
 10
-4.85742
 20
17.4854
 11
-4.84766
 21
17.4697
  0
LINE
  8
0
 10
-4.84766
 20
17.4697
 11
-4.83887
 21
17.4551
  0
LINE
  8
0
 10
-4.83887
 20
17.4551
 11
-4.8291
 21
17.4404
  0
LINE
  8
0
 10
-4.8291
 20
17.4404
 11
-4.81934
 21
17.4268
  0
LINE
  8
0
 10
-4.81934
 20
17.4268
 11
-4.80859
 21
17.4121
  0
LINE
  8
0
 10
-4.80859
 20
17.4121
 11
-4.79883
 21
17.3984
  0
LINE
  8
0
 10
-4.79883
 20
17.3984
 11
-4.77734
 21
17.3711
  0
LINE
  8
0
 10
-4.77734
 20
17.3711
 11
-4.76562
 21
17.3574
  0
LINE
  8
0
 10
-4.76562
 20
17.3574
 11
-4.75488
 21
17.3438
  0
LINE
  8
0
 10
-4.75488
 20
17.3438
 11
-4.71973
 21
17.3057
  0
LINE
  8
0
 10
-4.71973
 20
17.3057
 11
-4.69434
 21
17.2803
  0
LINE
  8
0
 10
-4.69434
 20
17.2803
 11
-4.65625
 21
17.2451
  0
LINE
  8
0
 10
-4.65625
 20
17.2451
 11
-4.64258
 21
17.2344
  0
LINE
  8
0
 10
-4.64258
 20
17.2344
 11
-4.62891
 21
17.2227
  0
LINE
  8
0
 10
-4.62891
 20
17.2227
 11
-4.60156
 21
17.2012
  0
LINE
  8
0
 10
-4.60156
 20
17.2012
 11
-4.58789
 21
17.1914
  0
LINE
  8
0
 10
-4.58789
 20
17.1914
 11
-4.57324
 21
17.1807
  0
LINE
  8
0
 10
-4.57324
 20
17.1807
 11
-4.55957
 21
17.1709
  0
LINE
  8
0
 10
-4.55957
 20
17.1709
 11
-4.54492
 21
17.1611
  0
LINE
  8
0
 10
-4.54492
 20
17.1611
 11
-4.53027
 21
17.1523
  0
LINE
  8
0
 10
-4.53027
 20
17.1523
 11
-4.51465
 21
17.1426
  0
LINE
  8
0
 10
-4.51465
 20
17.1426
 11
-4.5
 21
17.1338
  0
LINE
  8
0
 10
-4.5
 20
17.1338
 11
-4.48438
 21
17.125
  0
LINE
  8
0
 10
-4.48438
 20
17.125
 11
-4.46973
 21
17.1172
  0
LINE
  8
0
 10
-4.46973
 20
17.1172
 11
-4.42285
 21
17.0938
  0
LINE
  8
0
 10
-4.42285
 20
17.0938
 11
-4.40625
 21
17.0869
  0
LINE
  8
0
 10
-4.40625
 20
17.0869
 11
-4.39062
 21
17.0791
  0
LINE
  8
0
 10
-4.39062
 20
17.0791
 11
-4.375
 21
17.0732
  0
LINE
  8
0
 10
-4.375
 20
17.0732
 11
-4.3584
 21
17.0664
  0
LINE
  8
0
 10
-4.3584
 20
17.0664
 11
-4.30859
 21
17.0488
  0
LINE
  8
0
 10
-4.30859
 20
17.0488
 11
-4.24219
 21
17.0293
  0
LINE
  8
0
 10
-4.24219
 20
17.0293
 11
-4.22461
 21
17.0254
  0
LINE
  8
0
 10
-4.22461
 20
17.0254
 11
-4.20801
 21
17.0215
  0
LINE
  8
0
 10
-4.20801
 20
17.0215
 11
-4.19043
 21
17.0186
  0
LINE
  8
0
 10
-4.19043
 20
17.0186
 11
-4.17383
 21
17.0156
  0
LINE
  8
0
 10
-4.17383
 20
17.0156
 11
-4.15625
 21
17.0127
  0
LINE
  8
0
 10
-4.15625
 20
17.0127
 11
-4.13965
 21
17.0098
  0
LINE
  8
0
 10
-4.13965
 20
17.0098
 11
-4.06934
 21
17.002
  0
LINE
  8
0
 10
-4.06934
 20
17.002
 11
-4.05273
 21
17.001
  0
LINE
  8
0
 10
-4.05273
 20
17.001
 11
-4.03516
 21
17.001
  0
LINE
  8
0
 10
-4.03516
 20
17.001
 11
-4.01758
 21
17
  0
LINE
  8
0
 10
-4.01758
 20
17
 11
0
 21
17
  0
LINE
  8
0
 10
0
 20
17
 11
0
 21
9.63281
  0
LINE
  8
0
 10
0
 20
9.63281
 11
0.000976562
 21
9.61523
  0
LINE
  8
0
 10
0.000976562
 20
9.61523
 11
0.000976562
 21
9.59766
  0
LINE
  8
0
 10
0.000976562
 20
9.59766
 11
0.00195312
 21
9.58008
  0
LINE
  8
0
 10
0.00195312
 20
9.58008
 11
0.00390625
 21
9.5625
  0
LINE
  8
0
 10
0.00390625
 20
9.5625
 11
0.00585938
 21
9.5459
  0
LINE
  8
0
 10
0.00585938
 20
9.5459
 11
0.00976562
 21
9.51074
  0
LINE
  8
0
 10
0.00976562
 20
9.51074
 11
0.0126953
 21
9.49316
  0
LINE
  8
0
 10
0.0126953
 20
9.49316
 11
0.015625
 21
9.47656
  0
LINE
  8
0
 10
0.015625
 20
9.47656
 11
0.0185547
 21
9.45898
  0
LINE
  8
0
 10
0.0185547
 20
9.45898
 11
0.0214844
 21
9.44238
  0
LINE
  8
0
 10
0.0214844
 20
9.44238
 11
0.0253906
 21
9.4248
  0
LINE
  8
0
 10
0.0253906
 20
9.4248
 11
0.0292969
 21
9.4082
  0
LINE
  8
0
 10
0.0292969
 20
9.4082
 11
0.0341797
 21
9.3916
  0
LINE
  8
0
 10
0.0341797
 20
9.3916
 11
0.0390625
 21
9.37402
  0
LINE
  8
0
 10
0.0390625
 20
9.37402
 11
0.0488281
 21
9.34082
  0
LINE
  8
0
 10
0.0488281
 20
9.34082
 11
0.0605469
 21
9.30762
  0
LINE
  8
0
 10
0.0605469
 20
9.30762
 11
0.0664062
 21
9.29199
  0
LINE
  8
0
 10
0.0664062
 20
9.29199
 11
0.0732422
 21
9.27539
  0
LINE
  8
0
 10
0.0732422
 20
9.27539
 11
0.0791016
 21
9.25879
  0
LINE
  8
0
 10
0.0791016
 20
9.25879
 11
0.0869141
 21
9.24316
  0
LINE
  8
0
 10
0.0869141
 20
9.24316
 11
0.09375
 21
9.22754
  0
LINE
  8
0
 10
0.09375
 20
9.22754
 11
0.125
 21
9.16504
  0
LINE
  8
0
 10
0.125
 20
9.16504
 11
0.133789
 21
9.15039
  0
LINE
  8
0
 10
0.133789
 20
9.15039
 11
0.142578
 21
9.13477
  0
LINE
  8
0
 10
0.142578
 20
9.13477
 11
0.152344
 21
9.12012
  0
LINE
  8
0
 10
0.152344
 20
9.12012
 11
0.161133
 21
9.10547
  0
LINE
  8
0
 10
0.161133
 20
9.10547
 11
0.180664
 21
9.07617
  0
LINE
  8
0
 10
0.180664
 20
9.07617
 11
0.191406
 21
9.0625
  0
LINE
  8
0
 10
0.191406
 20
9.0625
 11
0.201172
 21
9.04785
  0
LINE
  8
0
 10
0.201172
 20
9.04785
 11
0.222656
 21
9.02051
  0
LINE
  8
0
 10
0.222656
 20
9.02051
 11
0.234375
 21
9.00684
  0
LINE
  8
0
 10
0.234375
 20
9.00684
 11
0.245117
 21
8.99414
  0
LINE
  8
0
 10
0.245117
 20
8.99414
 11
0.256836
 21
8.98047
  0
LINE
  8
0
 10
0.256836
 20
8.98047
 11
0.280273
 21
8.95508
  0
LINE
  8
0
 10
0.280273
 20
8.95508
 11
0.292969
 21
8.94336
  0
LINE
  8
0
 10
0.292969
 20
8.94336
 11
0.305664
 21
8.93066
  0
LINE
  8
0
 10
0.305664
 20
8.93066
 11
0.34375
 21
8.89551
  0
LINE
  8
0
 10
0.34375
 20
8.89551
 11
0.357422
 21
8.88379
  0
LINE
  8
0
 10
0.357422
 20
8.88379
 11
0.412109
 21
8.84082
  0
LINE
  8
0
 10
0.412109
 20
8.84082
 11
0.426758
 21
8.83105
  0
LINE
  8
0
 10
0.426758
 20
8.83105
 11
0.44043
 21
8.82129
  0
LINE
  8
0
 10
0.44043
 20
8.82129
 11
0.469727
 21
8.80176
  0
LINE
  8
0
 10
0.469727
 20
8.80176
 11
0.485352
 21
8.79297
  0
LINE
  8
0
 10
0.485352
 20
8.79297
 11
0.5
 21
8.78418
  0
LINE
  8
0
 10
0.5
 20
8.78418
 11
0.515625
 21
8.77539
  0
LINE
  8
0
 10
0.515625
 20
8.77539
 11
0.530273
 21
8.7666
  0
LINE
  8
0
 10
0.530273
 20
8.7666
 11
0.561523
 21
8.75098
  0
LINE
  8
0
 10
0.561523
 20
8.75098
 11
0.577148
 21
8.74414
  0
LINE
  8
0
 10
0.577148
 20
8.74414
 11
0.59375
 21
8.73633
  0
LINE
  8
0
 10
0.59375
 20
8.73633
 11
0.625
 21
8.72266
  0
LINE
  8
0
 10
0.625
 20
8.72266
 11
0.641602
 21
8.7168
  0
LINE
  8
0
 10
0.641602
 20
8.7168
 11
0.658203
 21
8.70996
  0
LINE
  8
0
 10
0.658203
 20
8.70996
 11
0.674805
 21
8.7041
  0
LINE
  8
0
 10
0.674805
 20
8.7041
 11
0.691406
 21
8.69922
  0
LINE
  8
0
 10
0.691406
 20
8.69922
 11
0.708008
 21
8.69336
  0
LINE
  8
0
 10
0.708008
 20
8.69336
 11
0.741211
 21
8.68359
  0
LINE
  8
0
 10
0.741211
 20
8.68359
 11
0.757812
 21
8.67969
  0
LINE
  8
0
 10
0.757812
 20
8.67969
 11
0.775391
 21
8.67578
  0
LINE
  8
0
 10
0.775391
 20
8.67578
 11
0.791992
 21
8.67188
  0
LINE
  8
0
 10
0.791992
 20
8.67188
 11
0.80957
 21
8.66797
  0
LINE
  8
0
 10
0.80957
 20
8.66797
 11
0.826172
 21
8.66504
  0
LINE
  8
0
 10
0.826172
 20
8.66504
 11
0.84375
 21
8.66211
  0
LINE
  8
0
 10
0.84375
 20
8.66211
 11
0.860352
 21
8.66016
  0
LINE
  8
0
 10
0.860352
 20
8.66016
 11
0.87793
 21
8.65723
  0
LINE
  8
0
 10
0.87793
 20
8.65723
 11
0.913086
 21
8.65332
  0
LINE
  8
0
 10
0.913086
 20
8.65332
 11
0.930664
 21
8.65234
  0
LINE
  8
0
 10
0.930664
 20
8.65234
 11
0.947266
 21
8.65137
  0
LINE
  8
0
 10
0.947266
 20
8.65137
 11
0.964844
 21
8.65039
  0
LINE
  8
0
 10
0.964844
 20
8.65039
 11
12
 21
8.65039
  0
LINE
  8
0
 10
12
 20
8.65039
 11
12.0176
 21
8.64941
  0
LINE
  8
0
 10
12.0176
 20
8.64941
 11
12.0352
 21
8.64941
  0
LINE
  8
0
 10
12.0352
 20
8.64941
 11
12.0527
 21
8.64844
  0
LINE
  8
0
 10
12.0527
 20
8.64844
 11
12.0693
 21
8.64746
  0
LINE
  8
0
 10
12.0693
 20
8.64746
 11
12.0869
 21
8.64648
  0
LINE
  8
0
 10
12.0869
 20
8.64648
 11
12.1396
 21
8.64062
  0
LINE
  8
0
 10
12.1396
 20
8.64062
 11
12.1562
 21
8.6377
  0
LINE
  8
0
 10
12.1562
 20
8.6377
 11
12.1738
 21
8.63477
  0
LINE
  8
0
 10
12.1738
 20
8.63477
 11
12.1904
 21
8.63184
  0
LINE
  8
0
 10
12.1904
 20
8.63184
 11
12.208
 21
8.62793
  0
LINE
  8
0
 10
12.208
 20
8.62793
 11
12.2246
 21
8.62402
  0
LINE
  8
0
 10
12.2246
 20
8.62402
 11
12.2422
 21
8.62012
  0
LINE
  8
0
 10
12.2422
 20
8.62012
 11
12.2588
 21
8.61621
  0
LINE
  8
0
 10
12.2588
 20
8.61621
 11
12.292
 21
8.60645
  0
LINE
  8
0
 10
12.292
 20
8.60645
 11
12.3086
 21
8.60059
  0
LINE
  8
0
 10
12.3086
 20
8.60059
 11
12.3252
 21
8.5957
  0
LINE
  8
0
 10
12.3252
 20
8.5957
 11
12.3584
 21
8.58398
  0
LINE
  8
0
 10
12.3584
 20
8.58398
 11
12.375
 21
8.57715
  0
LINE
  8
0
 10
12.375
 20
8.57715
 11
12.4062
 21
8.56348
  0
LINE
  8
0
 10
12.4062
 20
8.56348
 11
12.4229
 21
8.55664
  0
LINE
  8
0
 10
12.4229
 20
8.55664
 11
12.4697
 21
8.5332
  0
LINE
  8
0
 10
12.4697
 20
8.5332
 11
12.4844
 21
8.52441
  0
LINE
  8
0
 10
12.4844
 20
8.52441
 11
12.5
 21
8.51562
  0
LINE
  8
0
 10
12.5
 20
8.51562
 11
12.5146
 21
8.50684
  0
LINE
  8
0
 10
12.5146
 20
8.50684
 11
12.5303
 21
8.49805
  0
LINE
  8
0
 10
12.5303
 20
8.49805
 11
12.5449
 21
8.48828
  0
LINE
  8
0
 10
12.5449
 20
8.48828
 11
12.5596
 21
8.47949
  0
LINE
  8
0
 10
12.5596
 20
8.47949
 11
12.5732
 21
8.46875
  0
LINE
  8
0
 10
12.5732
 20
8.46875
 11
12.5879
 21
8.45898
  0
LINE
  8
0
 10
12.5879
 20
8.45898
 11
12.6016
 21
8.44824
  0
LINE
  8
0
 10
12.6016
 20
8.44824
 11
12.6152
 21
8.43848
  0
LINE
  8
0
 10
12.6152
 20
8.43848
 11
12.6289
 21
8.42676
  0
LINE
  8
0
 10
12.6289
 20
8.42676
 11
12.6426
 21
8.41602
  0
LINE
  8
0
 10
12.6426
 20
8.41602
 11
12.6562
 21
8.4043
  0
LINE
  8
0
 10
12.6562
 20
8.4043
 11
12.6689
 21
8.39355
  0
LINE
  8
0
 10
12.6689
 20
8.39355
 11
12.6816
 21
8.38184
  0
LINE
  8
0
 10
12.6816
 20
8.38184
 11
12.6943
 21
8.36914
  0
LINE
  8
0
 10
12.6943
 20
8.36914
 11
12.707
 21
8.35742
  0
LINE
  8
0
 10
12.707
 20
8.35742
 11
12.7197
 21
8.34473
  0
LINE
  8
0
 10
12.7197
 20
8.34473
 11
12.7432
 21
8.31934
  0
LINE
  8
0
 10
12.7432
 20
8.31934
 11
12.7549
 21
8.30566
  0
LINE
  8
0
 10
12.7549
 20
8.30566
 11
12.7656
 21
8.29297
  0
LINE
  8
0
 10
12.7656
 20
8.29297
 11
12.7773
 21
8.2793
  0
LINE
  8
0
 10
12.7773
 20
8.2793
 11
12.7988
 21
8.25195
  0
LINE
  8
0
 10
12.7988
 20
8.25195
 11
12.8086
 21
8.2373
  0
LINE
  8
0
 10
12.8086
 20
8.2373
 11
12.8193
 21
8.22363
  0
LINE
  8
0
 10
12.8193
 20
8.22363
 11
12.8389
 21
8.19434
  0
LINE
  8
0
 10
12.8389
 20
8.19434
 11
12.8477
 21
8.17969
  0
LINE
  8
0
 10
12.8477
 20
8.17969
 11
12.8574
 21
8.16504
  0
LINE
  8
0
 10
12.8574
 20
8.16504
 11
12.8662
 21
8.15039
  0
LINE
  8
0
 10
12.8662
 20
8.15039
 11
12.875
 21
8.13477
  0
LINE
  8
0
 10
12.875
 20
8.13477
 11
12.9062
 21
8.07227
  0
LINE
  8
0
 10
12.9062
 20
8.07227
 11
12.9131
 21
8.05664
  0
LINE
  8
0
 10
12.9131
 20
8.05664
 11
12.9209
 21
8.04102
  0
LINE
  8
0
 10
12.9209
 20
8.04102
 11
12.9268
 21
8.02441
  0
LINE
  8
0
 10
12.9268
 20
8.02441
 11
12.9336
 21
8.00879
  0
LINE
  8
0
 10
12.9336
 20
8.00879
 11
12.9512
 21
7.95898
  0
LINE
  8
0
 10
12.9512
 20
7.95898
 11
12.9658
 21
7.90918
  0
LINE
  8
0
 10
12.9658
 20
7.90918
 11
12.9707
 21
7.8916
  0
LINE
  8
0
 10
12.9707
 20
7.8916
 11
12.9785
 21
7.8584
  0
LINE
  8
0
 10
12.9785
 20
7.8584
 11
12.9844
 21
7.82324
  0
LINE
  8
0
 10
12.9844
 20
7.82324
 11
12.9873
 21
7.80664
  0
LINE
  8
0
 10
12.9873
 20
7.80664
 11
12.9902
 21
7.78906
  0
LINE
  8
0
 10
12.9902
 20
7.78906
 11
12.9922
 21
7.77148
  0
LINE
  8
0
 10
12.9922
 20
7.77148
 11
12.9941
 21
7.75488
  0
LINE
  8
0
 10
12.9941
 20
7.75488
 11
12.998
 21
7.71973
  0
LINE
  8
0
 10
12.998
 20
7.71973
 11
12.999
 21
7.70215
  0
LINE
  8
0
 10
12.999
 20
7.70215
 11
12.999
 21
7.68457
  0
LINE
  8
0
 10
12.999
 20
7.68457
 11
13
 21
7.66699
  0
LINE
  8
0
 10
13
 20
7.66699
 11
13
 21
5.93262
  0
LINE
  8
0
 10
13
 20
5.93262
 11
12.999
 21
5.91504
  0
LINE
  8
0
 10
12.999
 20
5.91504
 11
12.999
 21
5.89746
  0
LINE
  8
0
 10
12.999
 20
5.89746
 11
12.998
 21
5.87988
  0
LINE
  8
0
 10
12.998
 20
5.87988
 11
12.9961
 21
5.86328
  0
LINE
  8
0
 10
12.9961
 20
5.86328
 11
12.9902
 21
5.81055
  0
LINE
  8
0
 10
12.9902
 20
5.81055
 11
12.9873
 21
5.79395
  0
LINE
  8
0
 10
12.9873
 20
5.79395
 11
12.9814
 21
5.75879
  0
LINE
  8
0
 10
12.9814
 20
5.75879
 11
12.9785
 21
5.74219
  0
LINE
  8
0
 10
12.9785
 20
5.74219
 11
12.9746
 21
5.72461
  0
LINE
  8
0
 10
12.9746
 20
5.72461
 11
12.9707
 21
5.70801
  0
LINE
  8
0
 10
12.9707
 20
5.70801
 11
12.9609
 21
5.6748
  0
LINE
  8
0
 10
12.9609
 20
5.6748
 11
12.9561
 21
5.65723
  0
LINE
  8
0
 10
12.9561
 20
5.65723
 11
12.9512
 21
5.64062
  0
LINE
  8
0
 10
12.9512
 20
5.64062
 11
12.9453
 21
5.62402
  0
LINE
  8
0
 10
12.9453
 20
5.62402
 11
12.9395
 21
5.6084
  0
LINE
  8
0
 10
12.9395
 20
5.6084
 11
12.9336
 21
5.5918
  0
LINE
  8
0
 10
12.9336
 20
5.5918
 11
12.9268
 21
5.5752
  0
LINE
  8
0
 10
12.9268
 20
5.5752
 11
12.9209
 21
5.55957
  0
LINE
  8
0
 10
12.9209
 20
5.55957
 11
12.9131
 21
5.54297
  0
LINE
  8
0
 10
12.9131
 20
5.54297
 11
12.9062
 21
5.52734
  0
LINE
  8
0
 10
12.9062
 20
5.52734
 11
12.875
 21
5.46484
  0
LINE
  8
0
 10
12.875
 20
5.46484
 11
12.8662
 21
5.4502
  0
LINE
  8
0
 10
12.8662
 20
5.4502
 11
12.8574
 21
5.43457
  0
LINE
  8
0
 10
12.8574
 20
5.43457
 11
12.8477
 21
5.41992
  0
LINE
  8
0
 10
12.8477
 20
5.41992
 11
12.8389
 21
5.40527
  0
LINE
  8
0
 10
12.8389
 20
5.40527
 11
12.8193
 21
5.37598
  0
LINE
  8
0
 10
12.8193
 20
5.37598
 11
12.8086
 21
5.3623
  0
LINE
  8
0
 10
12.8086
 20
5.3623
 11
12.7988
 21
5.34863
  0
LINE
  8
0
 10
12.7988
 20
5.34863
 11
12.7881
 21
5.33398
  0
LINE
  8
0
 10
12.7881
 20
5.33398
 11
12.7773
 21
5.32031
  0
LINE
  8
0
 10
12.7773
 20
5.32031
 11
12.7656
 21
5.30762
  0
LINE
  8
0
 10
12.7656
 20
5.30762
 11
12.7549
 21
5.29395
  0
LINE
  8
0
 10
12.7549
 20
5.29395
 11
12.7432
 21
5.28125
  0
LINE
  8
0
 10
12.7432
 20
5.28125
 11
12.7314
 21
5.26758
  0
LINE
  8
0
 10
12.7314
 20
5.26758
 11
12.7197
 21
5.25488
  0
LINE
  8
0
 10
12.7197
 20
5.25488
 11
12.707
 21
5.24316
  0
LINE
  8
0
 10
12.707
 20
5.24316
 11
12.6943
 21
5.23047
  0
LINE
  8
0
 10
12.6943
 20
5.23047
 11
12.6562
 21
5.19531
  0
LINE
  8
0
 10
12.6562
 20
5.19531
 11
12.6426
 21
5.18359
  0
LINE
  8
0
 10
12.6426
 20
5.18359
 11
12.5879
 21
5.14062
  0
LINE
  8
0
 10
12.5879
 20
5.14062
 11
12.5732
 21
5.13086
  0
LINE
  8
0
 10
12.5732
 20
5.13086
 11
12.5596
 21
5.12109
  0
LINE
  8
0
 10
12.5596
 20
5.12109
 11
12.5303
 21
5.10156
  0
LINE
  8
0
 10
12.5303
 20
5.10156
 11
12.5146
 21
5.09277
  0
LINE
  8
0
 10
12.5146
 20
5.09277
 11
12.5
 21
5.08398
  0
LINE
  8
0
 10
12.5
 20
5.08398
 11
12.4844
 21
5.0752
  0
LINE
  8
0
 10
12.4844
 20
5.0752
 11
12.4697
 21
5.06738
  0
LINE
  8
0
 10
12.4697
 20
5.06738
 11
12.4541
 21
5.05859
  0
LINE
  8
0
 10
12.4541
 20
5.05859
 11
12.4385
 21
5.05078
  0
LINE
  8
0
 10
12.4385
 20
5.05078
 11
12.4229
 21
5.04395
  0
LINE
  8
0
 10
12.4229
 20
5.04395
 11
12.4062
 21
5.03613
  0
LINE
  8
0
 10
12.4062
 20
5.03613
 11
12.375
 21
5.02246
  0
LINE
  8
0
 10
12.375
 20
5.02246
 11
12.3086
 21
4.99902
  0
LINE
  8
0
 10
12.3086
 20
4.99902
 11
12.292
 21
4.99414
  0
LINE
  8
0
 10
12.292
 20
4.99414
 11
12.2754
 21
4.98828
  0
LINE
  8
0
 10
12.2754
 20
4.98828
 11
12.2588
 21
4.98438
  0
LINE
  8
0
 10
12.2588
 20
4.98438
 11
12.2422
 21
4.97949
  0
LINE
  8
0
 10
12.2422
 20
4.97949
 11
12.2246
 21
4.97559
  0
LINE
  8
0
 10
12.2246
 20
4.97559
 11
12.208
 21
4.97168
  0
LINE
  8
0
 10
12.208
 20
4.97168
 11
12.1904
 21
4.96875
  0
LINE
  8
0
 10
12.1904
 20
4.96875
 11
12.1738
 21
4.96484
  0
LINE
  8
0
 10
12.1738
 20
4.96484
 11
12.1562
 21
4.96191
  0
LINE
  8
0
 10
12.1562
 20
4.96191
 11
12.1396
 21
4.95996
  0
LINE
  8
0
 10
12.1396
 20
4.95996
 11
12.1221
 21
4.95703
  0
LINE
  8
0
 10
12.1221
 20
4.95703
 11
12.1045
 21
4.95508
  0
LINE
  8
0
 10
12.1045
 20
4.95508
 11
12.0869
 21
4.9541
  0
LINE
  8
0
 10
12.0869
 20
4.9541
 11
12.0693
 21
4.95215
  0
LINE
  8
0
 10
12.0693
 20
4.95215
 11
12.0527
 21
4.95117
  0
LINE
  8
0
 10
12.0527
 20
4.95117
 11
12.0352
 21
4.9502
  0
LINE
  8
0
 10
12.0352
 20
4.9502
 11
0.982422
 21
4.9502
  0
LINE
  8
0
 10
0.982422
 20
4.9502
 11
0.947266
 21
4.94824
  0
LINE
  8
0
 10
0.947266
 20
4.94824
 11
0.930664
 21
4.94727
  0
LINE
  8
0
 10
0.930664
 20
4.94727
 11
0.913086
 21
4.94629
  0
LINE
  8
0
 10
0.913086
 20
4.94629
 11
0.860352
 21
4.94043
  0
LINE
  8
0
 10
0.860352
 20
4.94043
 11
0.84375
 21
4.9375
  0
LINE
  8
0
 10
0.84375
 20
4.9375
 11
0.826172
 21
4.93457
  0
LINE
  8
0
 10
0.826172
 20
4.93457
 11
0.80957
 21
4.93164
  0
LINE
  8
0
 10
0.80957
 20
4.93164
 11
0.791992
 21
4.92773
  0
LINE
  8
0
 10
0.791992
 20
4.92773
 11
0.775391
 21
4.9248
  0
LINE
  8
0
 10
0.775391
 20
4.9248
 11
0.757812
 21
4.91992
  0
LINE
  8
0
 10
0.757812
 20
4.91992
 11
0.741211
 21
4.91602
  0
LINE
  8
0
 10
0.741211
 20
4.91602
 11
0.691406
 21
4.90137
  0
LINE
  8
0
 10
0.691406
 20
4.90137
 11
0.641602
 21
4.88379
  0
LINE
  8
0
 10
0.641602
 20
4.88379
 11
0.625
 21
4.87695
  0
LINE
  8
0
 10
0.625
 20
4.87695
 11
0.59375
 21
4.86328
  0
LINE
  8
0
 10
0.59375
 20
4.86328
 11
0.577148
 21
4.85645
  0
LINE
  8
0
 10
0.577148
 20
4.85645
 11
0.530273
 21
4.83301
  0
LINE
  8
0
 10
0.530273
 20
4.83301
 11
0.515625
 21
4.82422
  0
LINE
  8
0
 10
0.515625
 20
4.82422
 11
0.5
 21
4.81641
  0
LINE
  8
0
 10
0.5
 20
4.81641
 11
0.485352
 21
4.80762
  0
LINE
  8
0
 10
0.485352
 20
4.80762
 11
0.469727
 21
4.79785
  0
LINE
  8
0
 10
0.469727
 20
4.79785
 11
0.455078
 21
4.78906
  0
LINE
  8
0
 10
0.455078
 20
4.78906
 11
0.44043
 21
4.7793
  0
LINE
  8
0
 10
0.44043
 20
4.7793
 11
0.426758
 21
4.76953
  0
LINE
  8
0
 10
0.426758
 20
4.76953
 11
0.412109
 21
4.75879
  0
LINE
  8
0
 10
0.412109
 20
4.75879
 11
0.398438
 21
4.74902
  0
LINE
  8
0
 10
0.398438
 20
4.74902
 11
0.371094
 21
4.72754
  0
LINE
  8
0
 10
0.371094
 20
4.72754
 11
0.357422
 21
4.71582
  0
LINE
  8
0
 10
0.357422
 20
4.71582
 11
0.34375
 21
4.70508
  0
LINE
  8
0
 10
0.34375
 20
4.70508
 11
0.318359
 21
4.68164
  0
LINE
  8
0
 10
0.318359
 20
4.68164
 11
0.305664
 21
4.66895
  0
LINE
  8
0
 10
0.305664
 20
4.66895
 11
0.292969
 21
4.65723
  0
LINE
  8
0
 10
0.292969
 20
4.65723
 11
0.280273
 21
4.64453
  0
LINE
  8
0
 10
0.280273
 20
4.64453
 11
0.245117
 21
4.60645
  0
LINE
  8
0
 10
0.245117
 20
4.60645
 11
0.234375
 21
4.59277
  0
LINE
  8
0
 10
0.234375
 20
4.59277
 11
0.222656
 21
4.5791
  0
LINE
  8
0
 10
0.222656
 20
4.5791
 11
0.201172
 21
4.55176
  0
LINE
  8
0
 10
0.201172
 20
4.55176
 11
0.191406
 21
4.53809
  0
LINE
  8
0
 10
0.191406
 20
4.53809
 11
0.180664
 21
4.52344
  0
LINE
  8
0
 10
0.180664
 20
4.52344
 11
0.170898
 21
4.50879
  0
LINE
  8
0
 10
0.170898
 20
4.50879
 11
0.161133
 21
4.49512
  0
LINE
  8
0
 10
0.161133
 20
4.49512
 11
0.152344
 21
4.47949
  0
LINE
  8
0
 10
0.152344
 20
4.47949
 11
0.142578
 21
4.46484
  0
LINE
  8
0
 10
0.142578
 20
4.46484
 11
0.133789
 21
4.4502
  0
LINE
  8
0
 10
0.133789
 20
4.4502
 11
0.125
 21
4.43457
  0
LINE
  8
0
 10
0.125
 20
4.43457
 11
0.117188
 21
4.41992
  0
LINE
  8
0
 10
0.117188
 20
4.41992
 11
0.09375
 21
4.37305
  0
LINE
  8
0
 10
0.09375
 20
4.37305
 11
0.0869141
 21
4.35645
  0
LINE
  8
0
 10
0.0869141
 20
4.35645
 11
0.0791016
 21
4.34082
  0
LINE
  8
0
 10
0.0791016
 20
4.34082
 11
0.0732422
 21
4.32422
  0
LINE
  8
0
 10
0.0732422
 20
4.32422
 11
0.0664062
 21
4.30859
  0
LINE
  8
0
 10
0.0664062
 20
4.30859
 11
0.0488281
 21
4.25879
  0
LINE
  8
0
 10
0.0488281
 20
4.25879
 11
0.0292969
 21
4.19238
  0
LINE
  8
0
 10
0.0292969
 20
4.19238
 11
0.0253906
 21
4.1748
  0
LINE
  8
0
 10
0.0253906
 20
4.1748
 11
0.0214844
 21
4.1582
  0
LINE
  8
0
 10
0.0214844
 20
4.1582
 11
0.0185547
 21
4.14062
  0
LINE
  8
0
 10
0.0185547
 20
4.14062
 11
0.015625
 21
4.12402
  0
LINE
  8
0
 10
0.015625
 20
4.12402
 11
0.00976562
 21
4.08887
  0
LINE
  8
0
 10
0.00976562
 20
4.08887
 11
0.0078125
 21
4.07227
  0
LINE
  8
0
 10
0.0078125
 20
4.07227
 11
0.00195312
 21
4.01953
  0
LINE
  8
0
 10
0.00195312
 20
4.01953
 11
0.000976562
 21
4.00195
  0
LINE
  8
0
 10
0.000976562
 20
4.00195
 11
0.000976562
 21
3.98535
  0
LINE
  8
0
 10
0.000976562
 20
3.98535
 11
0
 21
3.96777
  0
LINE
  8
0
 10
0
 20
3.96777
 11
0
 21
0.982422
  0
LINE
  8
0
 10
0
 20
0.982422
 11
0.000976562
 21
0.964844
  0
LINE
  8
0
 10
0.000976562
 20
0.964844
 11
0.000976562
 21
0.947266
  0
LINE
  8
0
 10
0.000976562
 20
0.947266
 11
0.00195312
 21
0.930664
  0
LINE
  8
0
 10
0.00195312
 20
0.930664
 11
0.00976562
 21
0.860352
  0
LINE
  8
0
 10
0.00976562
 20
0.860352
 11
0.0126953
 21
0.84375
  0
LINE
  8
0
 10
0.0126953
 20
0.84375
 11
0.015625
 21
0.826172
  0
LINE
  8
0
 10
0.015625
 20
0.826172
 11
0.0185547
 21
0.80957
  0
LINE
  8
0
 10
0.0185547
 20
0.80957
 11
0.0214844
 21
0.791992
  0
LINE
  8
0
 10
0.0214844
 20
0.791992
 11
0.0253906
 21
0.775391
  0
LINE
  8
0
 10
0.0253906
 20
0.775391
 11
0.0292969
 21
0.757812
  0
LINE
  8
0
 10
0.0292969
 20
0.757812
 11
0.0488281
 21
0.691406
  0
LINE
  8
0
 10
0.0488281
 20
0.691406
 11
0.0664062
 21
0.641602
  0
LINE
  8
0
 10
0.0664062
 20
0.641602
 11
0.0732422
 21
0.625
  0
LINE
  8
0
 10
0.0732422
 20
0.625
 11
0.0791016
 21
0.609375
  0
LINE
  8
0
 10
0.0791016
 20
0.609375
 11
0.0869141
 21
0.59375
  0
LINE
  8
0
 10
0.0869141
 20
0.59375
 11
0.09375
 21
0.577148
  0
LINE
  8
0
 10
0.09375
 20
0.577148
 11
0.117188
 21
0.530273
  0
LINE
  8
0
 10
0.117188
 20
0.530273
 11
0.125
 21
0.515625
  0
LINE
  8
0
 10
0.125
 20
0.515625
 11
0.133789
 21
0.5
  0
LINE
  8
0
 10
0.133789
 20
0.5
 11
0.142578
 21
0.485352
  0
LINE
  8
0
 10
0.142578
 20
0.485352
 11
0.152344
 21
0.469727
  0
LINE
  8
0
 10
0.152344
 20
0.469727
 11
0.161133
 21
0.455078
  0
LINE
  8
0
 10
0.161133
 20
0.455078
 11
0.170898
 21
0.44043
  0
LINE
  8
0
 10
0.170898
 20
0.44043
 11
0.180664
 21
0.426758
  0
LINE
  8
0
 10
0.180664
 20
0.426758
 11
0.191406
 21
0.412109
  0
LINE
  8
0
 10
0.191406
 20
0.412109
 11
0.201172
 21
0.398438
  0
LINE
  8
0
 10
0.201172
 20
0.398438
 11
0.222656
 21
0.371094
  0
LINE
  8
0
 10
0.222656
 20
0.371094
 11
0.234375
 21
0.357422
  0
LINE
  8
0
 10
0.234375
 20
0.357422
 11
0.245117
 21
0.34375
  0
LINE
  8
0
 10
0.245117
 20
0.34375
 11
0.280273
 21
0.305664
  0
LINE
  8
0
 10
0.280273
 20
0.305664
 11
0.305664
 21
0.280273
  0
LINE
  8
0
 10
0.305664
 20
0.280273
 11
0.34375
 21
0.245117
  0
LINE
  8
0
 10
0.34375
 20
0.245117
 11
0.357422
 21
0.234375
  0
LINE
  8
0
 10
0.357422
 20
0.234375
 11
0.371094
 21
0.222656
  0
LINE
  8
0
 10
0.371094
 20
0.222656
 11
0.398438
 21
0.201172
  0
LINE
  8
0
 10
0.398438
 20
0.201172
 11
0.412109
 21
0.191406
  0
LINE
  8
0
 10
0.412109
 20
0.191406
 11
0.426758
 21
0.180664
  0
LINE
  8
0
 10
0.426758
 20
0.180664
 11
0.44043
 21
0.170898
  0
LINE
  8
0
 10
0.44043
 20
0.170898
 11
0.455078
 21
0.161133
  0
LINE
  8
0
 10
0.455078
 20
0.161133
 11
0.469727
 21
0.152344
  0
LINE
  8
0
 10
0.469727
 20
0.152344
 11
0.485352
 21
0.142578
  0
LINE
  8
0
 10
0.485352
 20
0.142578
 11
0.5
 21
0.133789
  0
LINE
  8
0
 10
0.5
 20
0.133789
 11
0.515625
 21
0.125
  0
LINE
  8
0
 10
0.515625
 20
0.125
 11
0.530273
 21
0.117188
  0
LINE
  8
0
 10
0.530273
 20
0.117188
 11
0.577148
 21
0.09375
  0
LINE
  8
0
 10
0.577148
 20
0.09375
 11
0.59375
 21
0.0869141
  0
LINE
  8
0
 10
0.59375
 20
0.0869141
 11
0.609375
 21
0.0791016
  0
LINE
  8
0
 10
0.609375
 20
0.0791016
 11
0.625
 21
0.0732422
  0
LINE
  8
0
 10
0.625
 20
0.0732422
 11
0.641602
 21
0.0664062
  0
LINE
  8
0
 10
0.641602
 20
0.0664062
 11
0.691406
 21
0.0488281
  0
LINE
  8
0
 10
0.691406
 20
0.0488281
 11
0.757812
 21
0.0292969
  0
LINE
  8
0
 10
0.757812
 20
0.0292969
 11
0.775391
 21
0.0253906
  0
LINE
  8
0
 10
0.775391
 20
0.0253906
 11
0.791992
 21
0.0214844
  0
LINE
  8
0
 10
0.791992
 20
0.0214844
 11
0.80957
 21
0.0185547
  0
LINE
  8
0
 10
0.80957
 20
0.0185547
 11
0.826172
 21
0.015625
  0
LINE
  8
0
 10
0.826172
 20
0.015625
 11
0.84375
 21
0.0126953
  0
LINE
  8
0
 10
0.84375
 20
0.0126953
 11
0.860352
 21
0.00976562
  0
LINE
  8
0
 10
0.860352
 20
0.00976562
 11
0.930664
 21
0.00195312
  0
LINE
  8
0
 10
0.930664
 20
0.00195312
 11
0.947266
 21
0.000976562
  0
LINE
  8
0
 10
0.947266
 20
0.000976562
 11
0.964844
 21
0.000976562
  0
LINE
  8
0
 10
0.964844
 20
0.000976562
 11
0.982422
 21
0
  0
LINE
  8
0
 10
0.982422
 20
0
 11
16.0352
 21
0
  0
LINE
  8
0
 10
16.0352
 20
0
 11
16.0693
 21
0.000976562
  0
LINE
  8
0
 10
26.4893
 20
17.5
 11
26.4717
 21
17.501
  0
LINE
  8
0
 10
26.4717
 20
17.501
 11
26.4541
 21
17.501
  0
LINE
  8
0
 10
26.4541
 20
17.501
 11
26.4365
 21
17.502
  0
LINE
  8
0
 10
26.4365
 20
17.502
 11
26.4189
 21
17.5039
  0
LINE
  8
0
 10
26.4189
 20
17.5039
 11
26.4023
 21
17.5059
  0
LINE
  8
0
 10
26.4023
 20
17.5059
 11
26.3672
 21
17.5098
  0
LINE
  8
0
 10
26.3672
 20
17.5098
 11
26.3506
 21
17.5127
  0
LINE
  8
0
 10
26.3506
 20
17.5127
 11
26.3154
 21
17.5186
  0
LINE
  8
0
 10
26.3154
 20
17.5186
 11
26.2988
 21
17.5215
  0
LINE
  8
0
 10
26.2988
 20
17.5215
 11
26.2812
 21
17.5254
  0
LINE
  8
0
 10
26.2812
 20
17.5254
 11
26.2646
 21
17.5293
  0
LINE
  8
0
 10
26.2646
 20
17.5293
 11
26.248
 21
17.5342
  0
LINE
  8
0
 10
26.248
 20
17.5342
 11
26.2305
 21
17.5391
  0
LINE
  8
0
 10
26.2305
 20
17.5391
 11
26.1973
 21
17.5488
  0
LINE
  8
0
 10
26.1973
 20
17.5488
 11
26.1807
 21
17.5547
  0
LINE
  8
0
 10
26.1807
 20
17.5547
 11
26.165
 21
17.5605
  0
LINE
  8
0
 10
26.165
 20
17.5605
 11
26.1484
 21
17.5664
  0
LINE
  8
0
 10
26.1484
 20
17.5664
 11
26.1318
 21
17.5732
  0
LINE
  8
0
 10
26.1318
 20
17.5732
 11
26.1162
 21
17.5791
  0
LINE
  8
0
 10
26.1162
 20
17.5791
 11
26.0996
 21
17.5869
  0
LINE
  8
0
 10
26.0996
 20
17.5869
 11
26.084
 21
17.5938
  0
LINE
  8
0
 10
26.084
 20
17.5938
 11
26.0215
 21
17.625
  0
LINE
  8
0
 10
26.0215
 20
17.625
 11
26.0068
 21
17.6338
  0
LINE
  8
0
 10
26.0068
 20
17.6338
 11
25.9912
 21
17.6426
  0
LINE
  8
0
 10
25.9912
 20
17.6426
 11
25.9766
 21
17.6523
  0
LINE
  8
0
 10
25.9766
 20
17.6523
 11
25.9619
 21
17.6611
  0
LINE
  8
0
 10
25.9619
 20
17.6611
 11
25.9326
 21
17.6807
  0
LINE
  8
0
 10
25.9326
 20
17.6807
 11
25.9189
 21
17.6914
  0
LINE
  8
0
 10
25.9189
 20
17.6914
 11
25.9043
 21
17.7012
  0
LINE
  8
0
 10
25.9043
 20
17.7012
 11
25.877
 21
17.7227
  0
LINE
  8
0
 10
25.877
 20
17.7227
 11
25.8643
 21
17.7344
  0
LINE
  8
0
 10
25.8643
 20
17.7344
 11
25.8506
 21
17.7451
  0
LINE
  8
0
 10
25.8506
 20
17.7451
 11
25.8379
 21
17.7568
  0
LINE
  8
0
 10
25.8379
 20
17.7568
 11
25.8242
 21
17.7686
  0
LINE
  8
0
 10
25.8242
 20
17.7686
 11
25.8115
 21
17.7803
  0
LINE
  8
0
 10
25.8115
 20
17.7803
 11
25.7998
 21
17.793
  0
LINE
  8
0
 10
25.7998
 20
17.793
 11
25.7871
 21
17.8057
  0
LINE
  8
0
 10
25.7871
 20
17.8057
 11
25.752
 21
17.8438
  0
LINE
  8
0
 10
25.752
 20
17.8438
 11
25.7402
 21
17.8574
  0
LINE
  8
0
 10
25.7402
 20
17.8574
 11
25.6973
 21
17.9121
  0
LINE
  8
0
 10
25.6973
 20
17.9121
 11
25.6875
 21
17.9268
  0
LINE
  8
0
 10
25.6875
 20
17.9268
 11
25.6777
 21
17.9404
  0
LINE
  8
0
 10
25.6777
 20
17.9404
 11
25.6582
 21
17.9697
  0
LINE
  8
0
 10
25.6582
 20
17.9697
 11
25.6494
 21
17.9854
  0
LINE
  8
0
 10
25.6494
 20
17.9854
 11
25.6406
 21
18
  0
LINE
  8
0
 10
25.6406
 20
18
 11
25.6318
 21
18.0156
  0
LINE
  8
0
 10
25.6318
 20
18.0156
 11
25.624
 21
18.0303
  0
LINE
  8
0
 10
25.624
 20
18.0303
 11
25.6152
 21
18.0459
  0
LINE
  8
0
 10
25.6152
 20
18.0459
 11
25.6074
 21
18.0615
  0
LINE
  8
0
 10
25.6074
 20
18.0615
 11
25.6006
 21
18.0771
  0
LINE
  8
0
 10
25.6006
 20
18.0771
 11
25.5928
 21
18.0938
  0
LINE
  8
0
 10
25.5928
 20
18.0938
 11
25.5791
 21
18.125
  0
LINE
  8
0
 10
25.5791
 20
18.125
 11
25.5732
 21
18.1416
  0
LINE
  8
0
 10
25.5732
 20
18.1416
 11
25.5664
 21
18.1582
  0
LINE
  8
0
 10
25.5664
 20
18.1582
 11
25.5615
 21
18.1748
  0
LINE
  8
0
 10
25.5615
 20
18.1748
 11
25.5498
 21
18.208
  0
LINE
  8
0
 10
25.5498
 20
18.208
 11
25.5449
 21
18.2246
  0
LINE
  8
0
 10
25.5449
 20
18.2246
 11
25.541
 21
18.2412
  0
LINE
  8
0
 10
25.541
 20
18.2412
 11
25.5361
 21
18.2578
  0
LINE
  8
0
 10
25.5361
 20
18.2578
 11
25.5322
 21
18.2754
  0
LINE
  8
0
 10
25.5322
 20
18.2754
 11
25.5283
 21
18.292
  0
LINE
  8
0
 10
25.5283
 20
18.292
 11
25.5254
 21
18.3096
  0
LINE
  8
0
 10
25.5254
 20
18.3096
 11
25.5215
 21
18.3262
  0
LINE
  8
0
 10
25.5215
 20
18.3262
 11
25.5186
 21
18.3438
  0
LINE
  8
0
 10
25.5186
 20
18.3438
 11
25.5166
 21
18.3604
  0
LINE
  8
0
 10
25.5166
 20
18.3604
 11
25.5137
 21
18.3779
  0
LINE
  8
0
 10
25.5137
 20
18.3779
 11
25.5117
 21
18.3955
  0
LINE
  8
0
 10
25.5117
 20
18.3955
 11
25.5107
 21
18.4131
  0
LINE
  8
0
 10
25.5107
 20
18.4131
 11
25.5088
 21
18.4307
  0
LINE
  8
0
 10
25.5088
 20
18.4307
 11
25.5078
 21
18.4473
  0
LINE
  8
0
 10
25.5078
 20
18.4473
 11
25.5068
 21
18.4648
  0
LINE
  8
0
 10
25.5068
 20
18.4648
 11
25.5068
 21
18.5
  0
LINE
  8
0
 10
25.5068
 20
18.5
 11
25.5
 21
18.5
  0
LINE
  8
0
 10
25.5
 20
18.5
 11
25.502
 21
26.0459
  0
LINE
  8
0
 10
25.502
 20
26.0459
 11
25.5029
 21
26.0635
  0
LINE
  8
0
 10
25.5029
 20
26.0635
 11
25.5039
 21
26.0801
  0
LINE
  8
0
 10
25.5039
 20
26.0801
 11
25.5049
 21
26.0977
  0
LINE
  8
0
 10
25.5049
 20
26.0977
 11
25.5068
 21
26.1143
  0
LINE
  8
0
 10
25.5068
 20
26.1143
 11
25.5088
 21
26.1318
  0
LINE
  8
0
 10
25.5088
 20
26.1318
 11
25.5107
 21
26.1484
  0
LINE
  8
0
 10
25.5107
 20
26.1484
 11
25.5137
 21
26.166
  0
LINE
  8
0
 10
25.5137
 20
26.166
 11
25.5195
 21
26.1992
  0
LINE
  8
0
 10
25.5195
 20
26.1992
 11
25.5225
 21
26.2168
  0
LINE
  8
0
 10
25.5225
 20
26.2168
 11
25.5303
 21
26.25
  0
LINE
  8
0
 10
25.5303
 20
26.25
 11
25.5352
 21
26.2666
  0
LINE
  8
0
 10
25.5352
 20
26.2666
 11
25.5391
 21
26.2832
  0
LINE
  8
0
 10
25.5391
 20
26.2832
 11
25.5488
 21
26.3164
  0
LINE
  8
0
 10
25.5488
 20
26.3164
 11
25.5547
 21
26.333
  0
LINE
  8
0
 10
25.5547
 20
26.333
 11
25.5605
 21
26.3486
  0
LINE
  8
0
 10
25.5605
 20
26.3486
 11
25.5664
 21
26.3652
  0
LINE
  8
0
 10
25.5664
 20
26.3652
 11
25.5723
 21
26.3809
  0
LINE
  8
0
 10
25.5723
 20
26.3809
 11
25.5791
 21
26.3965
  0
LINE
  8
0
 10
25.5791
 20
26.3965
 11
25.5859
 21
26.4131
  0
LINE
  8
0
 10
25.5859
 20
26.4131
 11
25.5928
 21
26.4287
  0
LINE
  8
0
 10
25.5928
 20
26.4287
 11
25.6006
 21
26.4443
  0
LINE
  8
0
 10
25.6006
 20
26.4443
 11
25.6084
 21
26.459
  0
LINE
  8
0
 10
25.6084
 20
26.459
 11
25.6162
 21
26.4746
  0
LINE
  8
0
 10
25.6162
 20
26.4746
 11
25.624
 21
26.4893
  0
LINE
  8
0
 10
25.624
 20
26.4893
 11
25.6328
 21
26.5049
  0
LINE
  8
0
 10
25.6328
 20
26.5049
 11
25.6592
 21
26.5488
  0
LINE
  8
0
 10
25.6592
 20
26.5488
 11
25.6689
 21
26.5635
  0
LINE
  8
0
 10
25.6689
 20
26.5635
 11
25.6787
 21
26.5771
  0
LINE
  8
0
 10
25.6787
 20
26.5771
 11
25.6885
 21
26.5918
  0
LINE
  8
0
 10
25.6885
 20
26.5918
 11
25.6982
 21
26.6055
  0
LINE
  8
0
 10
25.6982
 20
26.6055
 11
25.7197
 21
26.6328
  0
LINE
  8
0
 10
25.7197
 20
26.6328
 11
25.7305
 21
26.6455
  0
LINE
  8
0
 10
25.7305
 20
26.6455
 11
25.7422
 21
26.6592
  0
LINE
  8
0
 10
25.7422
 20
26.6592
 11
25.7529
 21
26.6719
  0
LINE
  8
0
 10
25.7529
 20
26.6719
 11
25.7764
 21
26.6973
  0
LINE
  8
0
 10
25.7764
 20
26.6973
 11
25.8008
 21
26.7217
  0
LINE
  8
0
 10
25.8008
 20
26.7217
 11
25.8389
 21
26.7568
  0
LINE
  8
0
 10
25.8389
 20
26.7568
 11
25.8516
 21
26.7676
  0
LINE
  8
0
 10
25.8516
 20
26.7676
 11
25.8789
 21
26.7891
  0
LINE
  8
0
 10
25.8789
 20
26.7891
 11
25.8916
 21
26.7998
  0
LINE
  8
0
 10
25.8916
 20
26.7998
 11
25.9062
 21
26.8105
  0
LINE
  8
0
 10
25.9062
 20
26.8105
 11
25.9336
 21
26.8301
  0
LINE
  8
0
 10
25.9336
 20
26.8301
 11
25.9482
 21
26.8398
  0
LINE
  8
0
 10
25.9482
 20
26.8398
 11
26.0068
 21
26.875
  0
LINE
  8
0
 10
26.0068
 20
26.875
 11
26.0225
 21
26.8838
  0
LINE
  8
0
 10
26.0225
 20
26.8838
 11
26.0371
 21
26.8916
  0
LINE
  8
0
 10
26.0371
 20
26.8916
 11
26.0527
 21
26.8994
  0
LINE
  8
0
 10
26.0527
 20
26.8994
 11
26.0684
 21
26.9062
  0
LINE
  8
0
 10
26.0684
 20
26.9062
 11
26.084
 21
26.9141
  0
LINE
  8
0
 10
26.084
 20
26.9141
 11
26.1152
 21
26.9277
  0
LINE
  8
0
 10
26.1152
 20
26.9277
 11
26.1318
 21
26.9336
  0
LINE
  8
0
 10
26.1318
 20
26.9336
 11
26.1475
 21
26.9395
  0
LINE
  8
0
 10
26.1475
 20
26.9395
 11
26.1807
 21
26.9512
  0
LINE
  8
0
 10
26.1807
 20
26.9512
 11
26.1963
 21
26.9561
  0
LINE
  8
0
 10
26.1963
 20
26.9561
 11
26.2295
 21
26.9658
  0
LINE
  8
0
 10
26.2295
 20
26.9658
 11
26.2461
 21
26.9697
  0
LINE
  8
0
 10
26.2461
 20
26.9697
 11
26.2627
 21
26.9746
  0
LINE
  8
0
 10
26.2627
 20
26.9746
 11
26.2803
 21
26.9775
  0
LINE
  8
0
 10
26.2803
 20
26.9775
 11
26.2969
 21
26.9814
  0
LINE
  8
0
 10
26.2969
 20
26.9814
 11
26.3301
 21
26.9873
  0
LINE
  8
0
 10
26.3301
 20
26.9873
 11
26.3477
 21
26.9902
  0
LINE
  8
0
 10
26.3477
 20
26.9902
 11
26.3643
 21
26.9922
  0
LINE
  8
0
 10
26.3643
 20
26.9922
 11
26.3818
 21
26.9941
  0
LINE
  8
0
 10
26.3818
 20
26.9941
 11
26.3984
 21
26.9961
  0
LINE
  8
0
 10
26.3984
 20
26.9961
 11
26.416
 21
26.9971
  0
LINE
  8
0
 10
26.416
 20
26.9971
 11
26.4336
 21
26.999
  0
LINE
  8
0
 10
26.4336
 20
26.999
 11
26.4502
 21
26.999
  0
LINE
  8
0
 10
26.4502
 20
26.999
 11
26.4678
 21
27
  0
LINE
  8
0
 10
26.4678
 20
27
 11
41.0342
 21
27
  0
LINE
  8
0
 10
41.0342
 20
27
 11
41.0508
 21
26.999
  0
LINE
  8
0
 10
41.0508
 20
26.999
 11
41.0684
 21
26.999
  0
LINE
  8
0
 10
41.0684
 20
26.999
 11
41.085
 21
26.9971
  0
LINE
  8
0
 10
41.085
 20
26.9971
 11
41.1016
 21
26.9961
  0
LINE
  8
0
 10
41.1016
 20
26.9961
 11
41.1191
 21
26.9941
  0
LINE
  8
0
 10
41.1191
 20
26.9941
 11
41.1523
 21
26.9902
  0
LINE
  8
0
 10
41.1523
 20
26.9902
 11
41.1689
 21
26.9873
  0
LINE
  8
0
 10
41.1689
 20
26.9873
 11
41.1865
 21
26.9854
  0
LINE
  8
0
 10
41.1865
 20
26.9854
 11
41.2031
 21
26.9814
  0
LINE
  8
0
 10
41.2031
 20
26.9814
 11
41.2197
 21
26.9785
  0
LINE
  8
0
 10
41.2197
 20
26.9785
 11
41.2695
 21
26.9668
  0
LINE
  8
0
 10
41.2695
 20
26.9668
 11
41.2852
 21
26.9619
  0
LINE
  8
0
 10
41.2852
 20
26.9619
 11
41.3184
 21
26.9521
  0
LINE
  8
0
 10
41.3184
 20
26.9521
 11
41.334
 21
26.9463
  0
LINE
  8
0
 10
41.334
 20
26.9463
 11
41.3506
 21
26.9414
  0
LINE
  8
0
 10
41.3506
 20
26.9414
 11
41.3662
 21
26.9346
  0
LINE
  8
0
 10
41.3662
 20
26.9346
 11
41.3818
 21
26.9287
  0
LINE
  8
0
 10
41.3818
 20
26.9287
 11
41.3975
 21
26.9219
  0
LINE
  8
0
 10
41.3975
 20
26.9219
 11
41.4131
 21
26.916
  0
LINE
  8
0
 10
41.4131
 20
26.916
 11
41.4287
 21
26.9082
  0
LINE
  8
0
 10
41.4287
 20
26.9082
 11
41.4443
 21
26.9014
  0
LINE
  8
0
 10
41.4443
 20
26.9014
 11
41.46
 21
26.8936
  0
LINE
  8
0
 10
41.46
 20
26.8936
 11
41.4893
 21
26.8779
  0
LINE
  8
0
 10
41.4893
 20
26.8779
 11
41.5049
 21
26.8691
  0
LINE
  8
0
 10
41.5049
 20
26.8691
 11
41.5195
 21
26.8613
  0
LINE
  8
0
 10
41.5195
 20
26.8613
 11
41.5342
 21
26.8525
  0
LINE
  8
0
 10
41.5342
 20
26.8525
 11
41.5479
 21
26.8428
  0
LINE
  8
0
 10
41.5479
 20
26.8428
 11
41.5625
 21
26.834
  0
LINE
  8
0
 10
41.5625
 20
26.834
 11
41.5898
 21
26.8145
  0
LINE
  8
0
 10
41.5898
 20
26.8145
 11
41.6035
 21
26.8037
  0
LINE
  8
0
 10
41.6035
 20
26.8037
 11
41.6172
 21
26.7939
  0
LINE
  8
0
 10
41.6172
 20
26.7939
 11
41.6445
 21
26.7725
  0
LINE
  8
0
 10
41.6445
 20
26.7725
 11
41.6572
 21
26.7617
  0
LINE
  8
0
 10
41.6572
 20
26.7617
 11
41.6699
 21
26.75
  0
LINE
  8
0
 10
41.6699
 20
26.75
 11
41.6826
 21
26.7393
  0
LINE
  8
0
 10
41.6826
 20
26.7393
 11
41.6953
 21
26.7275
  0
LINE
  8
0
 10
41.6953
 20
26.7275
 11
41.707
 21
26.7158
  0
LINE
  8
0
 10
41.707
 20
26.7158
 11
41.7188
 21
26.7031
  0
LINE
  8
0
 10
41.7188
 20
26.7031
 11
41.7305
 21
26.6914
  0
LINE
  8
0
 10
41.7305
 20
26.6914
 11
41.7539
 21
26.666
  0
LINE
  8
0
 10
41.7539
 20
26.666
 11
41.7646
 21
26.6533
  0
LINE
  8
0
 10
41.7646
 20
26.6533
 11
41.7754
 21
26.6396
  0
LINE
  8
0
 10
41.7754
 20
26.6396
 11
41.7861
 21
26.627
  0
LINE
  8
0
 10
41.7861
 20
26.627
 11
41.8076
 21
26.5996
  0
LINE
  8
0
 10
41.8076
 20
26.5996
 11
41.8271
 21
26.5723
  0
LINE
  8
0
 10
41.8271
 20
26.5723
 11
41.8369
 21
26.5576
  0
LINE
  8
0
 10
41.8369
 20
26.5576
 11
41.8457
 21
26.5439
  0
LINE
  8
0
 10
41.8457
 20
26.5439
 11
41.8721
 21
26.5
  0
LINE
  8
0
 10
41.8721
 20
26.5
 11
41.8799
 21
26.4854
  0
LINE
  8
0
 10
41.8799
 20
26.4854
 11
41.8887
 21
26.4697
  0
LINE
  8
0
 10
41.8887
 20
26.4697
 11
41.8965
 21
26.4551
  0
LINE
  8
0
 10
41.8965
 20
26.4551
 11
41.9033
 21
26.4395
  0
LINE
  8
0
 10
41.9033
 20
26.4395
 11
41.9111
 21
26.4238
  0
LINE
  8
0
 10
41.9111
 20
26.4238
 11
41.918
 21
26.4082
  0
LINE
  8
0
 10
41.918
 20
26.4082
 11
41.9238
 21
26.3926
  0
LINE
  8
0
 10
41.9238
 20
26.3926
 11
41.9307
 21
26.377
  0
LINE
  8
0
 10
41.9307
 20
26.377
 11
41.9424
 21
26.3457
  0
LINE
  8
0
 10
41.9424
 20
26.3457
 11
41.9482
 21
26.3291
  0
LINE
  8
0
 10
41.9482
 20
26.3291
 11
41.9531
 21
26.3135
  0
LINE
  8
0
 10
41.9531
 20
26.3135
 11
41.959
 21
26.2969
  0
LINE
  8
0
 10
41.959
 20
26.2969
 11
41.9629
 21
26.2803
  0
LINE
  8
0
 10
41.9629
 20
26.2803
 11
41.9678
 21
26.2637
  0
LINE
  8
0
 10
41.9678
 20
26.2637
 11
41.9717
 21
26.248
  0
LINE
  8
0
 10
41.9717
 20
26.248
 11
41.9795
 21
26.2148
  0
LINE
  8
0
 10
41.9795
 20
26.2148
 11
41.9824
 21
26.1973
  0
LINE
  8
0
 10
41.9824
 20
26.1973
 11
41.9912
 21
26.1475
  0
LINE
  8
0
 10
41.9912
 20
26.1475
 11
41.9932
 21
26.1309
  0
LINE
  8
0
 10
41.9932
 20
26.1309
 11
41.9951
 21
26.1133
  0
LINE
  8
0
 10
41.9951
 20
26.1133
 11
41.9961
 21
26.0967
  0
LINE
  8
0
 10
41.9961
 20
26.0967
 11
41.998
 21
26.0801
  0
LINE
  8
0
 10
41.998
 20
26.0801
 11
41.999
 21
26.0625
  0
LINE
  8
0
 10
41.999
 20
26.0625
 11
41.999
 21
26.0459
  0
LINE
  8
0
 10
41.999
 20
26.0459
 11
42
 21
26.0283
  0
LINE
  8
0
 10
42
 20
26.0283
 11
41.9912
 21
18.5
  0
LINE
  8
0
 10
41.9912
 20
18.5
 11
41.998
 21
18.5
  0
LINE
  8
0
 10
41.998
 20
18.5
 11
41.998
 21
18.4824
  0
LINE
  8
0
 10
41.998
 20
18.4824
 11
41.9961
 21
18.4473
  0
LINE
  8
0
 10
41.9961
 20
18.4473
 11
41.9951
 21
18.4307
  0
LINE
  8
0
 10
41.9951
 20
18.4307
 11
41.9941
 21
18.4131
  0
LINE
  8
0
 10
41.9941
 20
18.4131
 11
41.9883
 21
18.3604
  0
LINE
  8
0
 10
41.9883
 20
18.3604
 11
41.9854
 21
18.3438
  0
LINE
  8
0
 10
41.9854
 20
18.3438
 11
41.9824
 21
18.3262
  0
LINE
  8
0
 10
41.9824
 20
18.3262
 11
41.9795
 21
18.3096
  0
LINE
  8
0
 10
41.9795
 20
18.3096
 11
41.9756
 21
18.292
  0
LINE
  8
0
 10
41.9756
 20
18.292
 11
41.9727
 21
18.2754
  0
LINE
  8
0
 10
41.9727
 20
18.2754
 11
41.9678
 21
18.2578
  0
LINE
  8
0
 10
41.9678
 20
18.2578
 11
41.9639
 21
18.2412
  0
LINE
  8
0
 10
41.9639
 20
18.2412
 11
41.9492
 21
18.1914
  0
LINE
  8
0
 10
41.9492
 20
18.1914
 11
41.9316
 21
18.1416
  0
LINE
  8
0
 10
41.9316
 20
18.1416
 11
41.9248
 21
18.125
  0
LINE
  8
0
 10
41.9248
 20
18.125
 11
41.9111
 21
18.0938
  0
LINE
  8
0
 10
41.9111
 20
18.0938
 11
41.9043
 21
18.0771
  0
LINE
  8
0
 10
41.9043
 20
18.0771
 11
41.8809
 21
18.0303
  0
LINE
  8
0
 10
41.8809
 20
18.0303
 11
41.8721
 21
18.0156
  0
LINE
  8
0
 10
41.8721
 20
18.0156
 11
41.8643
 21
18
  0
LINE
  8
0
 10
41.8643
 20
18
 11
41.8555
 21
17.9854
  0
LINE
  8
0
 10
41.8555
 20
17.9854
 11
41.8457
 21
17.9697
  0
LINE
  8
0
 10
41.8457
 20
17.9697
 11
41.8369
 21
17.9551
  0
LINE
  8
0
 10
41.8369
 20
17.9551
 11
41.8271
 21
17.9404
  0
LINE
  8
0
 10
41.8271
 20
17.9404
 11
41.8174
 21
17.9268
  0
LINE
  8
0
 10
41.8174
 20
17.9268
 11
41.8066
 21
17.9121
  0
LINE
  8
0
 10
41.8066
 20
17.9121
 11
41.7969
 21
17.8984
  0
LINE
  8
0
 10
41.7969
 20
17.8984
 11
41.7754
 21
17.8711
  0
LINE
  8
0
 10
41.7754
 20
17.8711
 11
41.7637
 21
17.8574
  0
LINE
  8
0
 10
41.7637
 20
17.8574
 11
41.7529
 21
17.8438
  0
LINE
  8
0
 10
41.7529
 20
17.8438
 11
41.7295
 21
17.8184
  0
LINE
  8
0
 10
41.7295
 20
17.8184
 11
41.7168
 21
17.8057
  0
LINE
  8
0
 10
41.7168
 20
17.8057
 11
41.7051
 21
17.793
  0
LINE
  8
0
 10
41.7051
 20
17.793
 11
41.6924
 21
17.7803
  0
LINE
  8
0
 10
41.6924
 20
17.7803
 11
41.6543
 21
17.7451
  0
LINE
  8
0
 10
41.6543
 20
17.7451
 11
41.6406
 21
17.7344
  0
LINE
  8
0
 10
41.6406
 20
17.7344
 11
41.627
 21
17.7227
  0
LINE
  8
0
 10
41.627
 20
17.7227
 11
41.5996
 21
17.7012
  0
LINE
  8
0
 10
41.5996
 20
17.7012
 11
41.5859
 21
17.6914
  0
LINE
  8
0
 10
41.5859
 20
17.6914
 11
41.5713
 21
17.6807
  0
LINE
  8
0
 10
41.5713
 20
17.6807
 11
41.5566
 21
17.6709
  0
LINE
  8
0
 10
41.5566
 20
17.6709
 11
41.543
 21
17.6611
  0
LINE
  8
0
 10
41.543
 20
17.6611
 11
41.5273
 21
17.6523
  0
LINE
  8
0
 10
41.5273
 20
17.6523
 11
41.5127
 21
17.6426
  0
LINE
  8
0
 10
41.5127
 20
17.6426
 11
41.498
 21
17.6338
  0
LINE
  8
0
 10
41.498
 20
17.6338
 11
41.4824
 21
17.625
  0
LINE
  8
0
 10
41.4824
 20
17.625
 11
41.4678
 21
17.6172
  0
LINE
  8
0
 10
41.4678
 20
17.6172
 11
41.4209
 21
17.5938
  0
LINE
  8
0
 10
41.4209
 20
17.5938
 11
41.4043
 21
17.5869
  0
LINE
  8
0
 10
41.4043
 20
17.5869
 11
41.3887
 21
17.5791
  0
LINE
  8
0
 10
41.3887
 20
17.5791
 11
41.3721
 21
17.5732
  0
LINE
  8
0
 10
41.3721
 20
17.5732
 11
41.3564
 21
17.5664
  0
LINE
  8
0
 10
41.3564
 20
17.5664
 11
41.3066
 21
17.5488
  0
LINE
  8
0
 10
41.3066
 20
17.5488
 11
41.2402
 21
17.5293
  0
LINE
  8
0
 10
41.2402
 20
17.5293
 11
41.2227
 21
17.5254
  0
LINE
  8
0
 10
41.2227
 20
17.5254
 11
41.2061
 21
17.5215
  0
LINE
  8
0
 10
41.2061
 20
17.5215
 11
41.1885
 21
17.5186
  0
LINE
  8
0
 10
41.1885
 20
17.5186
 11
41.1719
 21
17.5156
  0
LINE
  8
0
 10
41.1719
 20
17.5156
 11
41.1367
 21
17.5098
  0
LINE
  8
0
 10
41.1367
 20
17.5098
 11
41.1201
 21
17.5078
  0
LINE
  8
0
 10
41.1201
 20
17.5078
 11
41.0674
 21
17.502
  0
LINE
  8
0
 10
41.0674
 20
17.502
 11
41.0498
 21
17.501
  0
LINE
  8
0
 10
41.0498
 20
17.501
 11
41.0332
 21
17.501
  0
LINE
  8
0
 10
41.0332
 20
17.501
 11
41.0156
 21
17.5
  0
LINE
  8
0
 10
41.0156
 20
17.5
 11
26.4893
 21
17.5
  0
LINE
  8
0
 10
47.4893
 20
9.00977
 11
47.4717
 21
9.01074
  0
LINE
  8
0
 10
47.4717
 20
9.01074
 11
47.4541
 21
9.0127
  0
LINE
  8
0
 10
47.4541
 20
9.0127
 11
47.4365
 21
9.01367
  0
LINE
  8
0
 10
47.4365
 20
9.01367
 11
47.4189
 21
9.01562
  0
LINE
  8
0
 10
47.4189
 20
9.01562
 11
47.4023
 21
9.01855
  0
LINE
  8
0
 10
47.4023
 20
9.01855
 11
47.3848
 21
9.02051
  0
LINE
  8
0
 10
47.3848
 20
9.02051
 11
47.3672
 21
9.02344
  0
LINE
  8
0
 10
47.3672
 20
9.02344
 11
47.3506
 21
9.02637
  0
LINE
  8
0
 10
47.3506
 20
9.02637
 11
47.333
 21
9.03027
  0
LINE
  8
0
 10
47.333
 20
9.03027
 11
47.3164
 21
9.03418
  0
LINE
  8
0
 10
47.3164
 20
9.03418
 11
47.2988
 21
9.03809
  0
LINE
  8
0
 10
47.2988
 20
9.03809
 11
47.2822
 21
9.04297
  0
LINE
  8
0
 10
47.2822
 20
9.04297
 11
47.2656
 21
9.04688
  0
LINE
  8
0
 10
47.2656
 20
9.04688
 11
47.249
 21
9.05176
  0
LINE
  8
0
 10
47.249
 20
9.05176
 11
47.2324
 21
9.05762
  0
LINE
  8
0
 10
47.2324
 20
9.05762
 11
47.2158
 21
9.0625
  0
LINE
  8
0
 10
47.2158
 20
9.0625
 11
47.1992
 21
9.06836
  0
LINE
  8
0
 10
47.1992
 20
9.06836
 11
47.1826
 21
9.0752
  0
LINE
  8
0
 10
47.1826
 20
9.0752
 11
47.167
 21
9.08105
  0
LINE
  8
0
 10
47.167
 20
9.08105
 11
47.1504
 21
9.08789
  0
LINE
  8
0
 10
47.1504
 20
9.08789
 11
47.1348
 21
9.09473
  0
LINE
  8
0
 10
47.1348
 20
9.09473
 11
47.1182
 21
9.10254
  0
LINE
  8
0
 10
47.1182
 20
9.10254
 11
47.1025
 21
9.10938
  0
LINE
  8
0
 10
47.1025
 20
9.10938
 11
47.0713
 21
9.125
  0
LINE
  8
0
 10
47.0713
 20
9.125
 11
47.0566
 21
9.13379
  0
LINE
  8
0
 10
47.0566
 20
9.13379
 11
47.041
 21
9.14258
  0
LINE
  8
0
 10
47.041
 20
9.14258
 11
47.0117
 21
9.16016
  0
LINE
  8
0
 10
47.0117
 20
9.16016
 11
46.9531
 21
9.19922
  0
LINE
  8
0
 10
46.9531
 20
9.19922
 11
46.8984
 21
9.24219
  0
LINE
  8
0
 10
46.8984
 20
9.24219
 11
46.8848
 21
9.25391
  0
LINE
  8
0
 10
46.8848
 20
9.25391
 11
46.8467
 21
9.28906
  0
LINE
  8
0
 10
46.8467
 20
9.28906
 11
46.8096
 21
9.32617
  0
LINE
  8
0
 10
46.8096
 20
9.32617
 11
46.7979
 21
9.33887
  0
LINE
  8
0
 10
46.7979
 20
9.33887
 11
46.7861
 21
9.35254
  0
LINE
  8
0
 10
46.7861
 20
9.35254
 11
46.7754
 21
9.36523
  0
LINE
  8
0
 10
46.7754
 20
9.36523
 11
46.7637
 21
9.37891
  0
LINE
  8
0
 10
46.7637
 20
9.37891
 11
46.7422
 21
9.40625
  0
LINE
  8
0
 10
46.7422
 20
9.40625
 11
46.7324
 21
9.4209
  0
LINE
  8
0
 10
46.7324
 20
9.4209
 11
46.7217
 21
9.43457
  0
LINE
  8
0
 10
46.7217
 20
9.43457
 11
46.7021
 21
9.46387
  0
LINE
  8
0
 10
46.7021
 20
9.46387
 11
46.6934
 21
9.47852
  0
LINE
  8
0
 10
46.6934
 20
9.47852
 11
46.6836
 21
9.49316
  0
LINE
  8
0
 10
46.6836
 20
9.49316
 11
46.6748
 21
9.50879
  0
LINE
  8
0
 10
46.6748
 20
9.50879
 11
46.667
 21
9.52344
  0
LINE
  8
0
 10
46.667
 20
9.52344
 11
46.6582
 21
9.53906
  0
LINE
  8
0
 10
46.6582
 20
9.53906
 11
46.6348
 21
9.58594
  0
LINE
  8
0
 10
46.6348
 20
9.58594
 11
46.6279
 21
9.60156
  0
LINE
  8
0
 10
46.6279
 20
9.60156
 11
46.6211
 21
9.61816
  0
LINE
  8
0
 10
46.6211
 20
9.61816
 11
46.6143
 21
9.63379
  0
LINE
  8
0
 10
46.6143
 20
9.63379
 11
46.6074
 21
9.65039
  0
LINE
  8
0
 10
46.6074
 20
9.65039
 11
46.6016
 21
9.66602
  0
LINE
  8
0
 10
46.6016
 20
9.66602
 11
46.5898
 21
9.69922
  0
LINE
  8
0
 10
46.5898
 20
9.69922
 11
46.5801
 21
9.73242
  0
LINE
  8
0
 10
46.5801
 20
9.73242
 11
46.5752
 21
9.75
  0
LINE
  8
0
 10
46.5752
 20
9.75
 11
46.5713
 21
9.7666
  0
LINE
  8
0
 10
46.5713
 20
9.7666
 11
46.5664
 21
9.7832
  0
LINE
  8
0
 10
46.5664
 20
9.7832
 11
46.5635
 21
9.80078
  0
LINE
  8
0
 10
46.5635
 20
9.80078
 11
46.5596
 21
9.81738
  0
LINE
  8
0
 10
46.5596
 20
9.81738
 11
46.5566
 21
9.83496
  0
LINE
  8
0
 10
46.5566
 20
9.83496
 11
46.5537
 21
9.85156
  0
LINE
  8
0
 10
46.5537
 20
9.85156
 11
46.5508
 21
9.86914
  0
LINE
  8
0
 10
46.5508
 20
9.86914
 11
46.5469
 21
9.9043
  0
LINE
  8
0
 10
46.5469
 20
9.9043
 11
46.5449
 21
9.9209
  0
LINE
  8
0
 10
46.5449
 20
9.9209
 11
46.541
 21
9.99121
  0
LINE
  8
0
 10
46.541
 20
9.99121
 11
46.541
 21
10.0088
  0
LINE
  8
0
 10
46.541
 20
10.0088
 11
46.4785
 21
25.0088
  0
LINE
  8
0
 10
46.4785
 20
25.0088
 11
46.4785
 21
25.0264
  0
LINE
  8
0
 10
46.4785
 20
25.0264
 11
46.4814
 21
25.0791
  0
LINE
  8
0
 10
46.4814
 20
25.0791
 11
46.4824
 21
25.0957
  0
LINE
  8
0
 10
46.4824
 20
25.0957
 11
46.4883
 21
25.1484
  0
LINE
  8
0
 10
46.4883
 20
25.1484
 11
46.4912
 21
25.165
  0
LINE
  8
0
 10
46.4912
 20
25.165
 11
46.4971
 21
25.2002
  0
LINE
  8
0
 10
46.4971
 20
25.2002
 11
46.501
 21
25.2168
  0
LINE
  8
0
 10
46.501
 20
25.2168
 11
46.5049
 21
25.2344
  0
LINE
  8
0
 10
46.5049
 20
25.2344
 11
46.5127
 21
25.2676
  0
LINE
  8
0
 10
46.5127
 20
25.2676
 11
46.5176
 21
25.2842
  0
LINE
  8
0
 10
46.5176
 20
25.2842
 11
46.5225
 21
25.3018
  0
LINE
  8
0
 10
46.5225
 20
25.3018
 11
46.5273
 21
25.3184
  0
LINE
  8
0
 10
46.5273
 20
25.3184
 11
46.5332
 21
25.335
  0
LINE
  8
0
 10
46.5332
 20
25.335
 11
46.5391
 21
25.3506
  0
LINE
  8
0
 10
46.5391
 20
25.3506
 11
46.5449
 21
25.3672
  0
LINE
  8
0
 10
46.5449
 20
25.3672
 11
46.5518
 21
25.3838
  0
LINE
  8
0
 10
46.5518
 20
25.3838
 11
46.5586
 21
25.3994
  0
LINE
  8
0
 10
46.5586
 20
25.3994
 11
46.5654
 21
25.416
  0
LINE
  8
0
 10
46.5654
 20
25.416
 11
46.5723
 21
25.4316
  0
LINE
  8
0
 10
46.5723
 20
25.4316
 11
46.5957
 21
25.4785
  0
LINE
  8
0
 10
46.5957
 20
25.4785
 11
46.6045
 21
25.4941
  0
LINE
  8
0
 10
46.6045
 20
25.4941
 11
46.6123
 21
25.5088
  0
LINE
  8
0
 10
46.6123
 20
25.5088
 11
46.6221
 21
25.5244
  0
LINE
  8
0
 10
46.6221
 20
25.5244
 11
46.6396
 21
25.5537
  0
LINE
  8
0
 10
46.6396
 20
25.5537
 11
46.6592
 21
25.583
  0
LINE
  8
0
 10
46.6592
 20
25.583
 11
46.6699
 21
25.5967
  0
LINE
  8
0
 10
46.6699
 20
25.5967
 11
46.6797
 21
25.6104
  0
LINE
  8
0
 10
46.6797
 20
25.6104
 11
46.6904
 21
25.625
  0
LINE
  8
0
 10
46.6904
 20
25.625
 11
46.7012
 21
25.6387
  0
LINE
  8
0
 10
46.7012
 20
25.6387
 11
46.7129
 21
25.6514
  0
LINE
  8
0
 10
46.7129
 20
25.6514
 11
46.7236
 21
25.665
  0
LINE
  8
0
 10
46.7236
 20
25.665
 11
46.7354
 21
25.6777
  0
LINE
  8
0
 10
46.7354
 20
25.6777
 11
46.7471
 21
25.6914
  0
LINE
  8
0
 10
46.7471
 20
25.6914
 11
46.7842
 21
25.7285
  0
LINE
  8
0
 10
46.7842
 20
25.7285
 11
46.8223
 21
25.7637
  0
LINE
  8
0
 10
46.8223
 20
25.7637
 11
46.8359
 21
25.7754
  0
LINE
  8
0
 10
46.8359
 20
25.7754
 11
46.8906
 21
25.8184
  0
LINE
  8
0
 10
46.8906
 20
25.8184
 11
46.9492
 21
25.8574
  0
LINE
  8
0
 10
46.9492
 20
25.8574
 11
46.9785
 21
25.875
  0
LINE
  8
0
 10
46.9785
 20
25.875
 11
46.9941
 21
25.8838
  0
LINE
  8
0
 10
46.9941
 20
25.8838
 11
47.0098
 21
25.8916
  0
LINE
  8
0
 10
47.0098
 20
25.8916
 11
47.0244
 21
25.9004
  0
LINE
  8
0
 10
47.0244
 20
25.9004
 11
47.04
 21
25.9082
  0
LINE
  8
0
 10
47.04
 20
25.9082
 11
47.0566
 21
25.915
  0
LINE
  8
0
 10
47.0566
 20
25.915
 11
47.0723
 21
25.9229
  0
LINE
  8
0
 10
47.0723
 20
25.9229
 11
47.0879
 21
25.9297
  0
LINE
  8
0
 10
47.0879
 20
25.9297
 11
47.1045
 21
25.9365
  0
LINE
  8
0
 10
47.1045
 20
25.9365
 11
47.1201
 21
25.9424
  0
LINE
  8
0
 10
47.1201
 20
25.9424
 11
47.1699
 21
25.96
  0
LINE
  8
0
 10
47.1699
 20
25.96
 11
47.1865
 21
25.9648
  0
LINE
  8
0
 10
47.1865
 20
25.9648
 11
47.2031
 21
25.9707
  0
LINE
  8
0
 10
47.2031
 20
25.9707
 11
47.2197
 21
25.9746
  0
LINE
  8
0
 10
47.2197
 20
25.9746
 11
47.2373
 21
25.9795
  0
LINE
  8
0
 10
47.2373
 20
25.9795
 11
47.2705
 21
25.9873
  0
LINE
  8
0
 10
47.2705
 20
25.9873
 11
47.2881
 21
25.9902
  0
LINE
  8
0
 10
47.2881
 20
25.9902
 11
47.3047
 21
25.9941
  0
LINE
  8
0
 10
47.3047
 20
25.9941
 11
47.3223
 21
25.9971
  0
LINE
  8
0
 10
47.3223
 20
25.9971
 11
47.3398
 21
25.999
  0
LINE
  8
0
 10
47.3398
 20
25.999
 11
47.3564
 21
26.002
  0
LINE
  8
0
 10
47.3564
 20
26.002
 11
47.374
 21
26.0039
  0
LINE
  8
0
 10
47.374
 20
26.0039
 11
47.3916
 21
26.0049
  0
LINE
  8
0
 10
47.3916
 20
26.0049
 11
47.4092
 21
26.0068
  0
LINE
  8
0
 10
47.4092
 20
26.0068
 11
47.4443
 21
26.0088
  0
LINE
  8
0
 10
47.4443
 20
26.0088
 11
59.9785
 21
26.0107
  0
LINE
  8
0
 10
59.9785
 20
26.0107
 11
59.9961
 21
26.0098
  0
LINE
  8
0
 10
59.9961
 20
26.0098
 11
60.0137
 21
26.0098
  0
LINE
  8
0
 10
60.0137
 20
26.0098
 11
60.0664
 21
26.0068
  0
LINE
  8
0
 10
60.0664
 20
26.0068
 11
60.083
 21
26.0049
  0
LINE
  8
0
 10
60.083
 20
26.0049
 11
60.1182
 21
26.001
  0
LINE
  8
0
 10
60.1182
 20
26.001
 11
60.1348
 21
25.998
  0
LINE
  8
0
 10
60.1348
 20
25.998
 11
60.1699
 21
25.9922
  0
LINE
  8
0
 10
60.1699
 20
25.9922
 11
60.1865
 21
25.9883
  0
LINE
  8
0
 10
60.1865
 20
25.9883
 11
60.2041
 21
25.9844
  0
LINE
  8
0
 10
60.2041
 20
25.9844
 11
60.2373
 21
25.9766
  0
LINE
  8
0
 10
60.2373
 20
25.9766
 11
60.2549
 21
25.9717
  0
LINE
  8
0
 10
60.2549
 20
25.9717
 11
60.2881
 21
25.9619
  0
LINE
  8
0
 10
60.2881
 20
25.9619
 11
60.3213
 21
25.9502
  0
LINE
  8
0
 10
60.3213
 20
25.9502
 11
60.3369
 21
25.9443
  0
LINE
  8
0
 10
60.3369
 20
25.9443
 11
60.3535
 21
25.9375
  0
LINE
  8
0
 10
60.3535
 20
25.9375
 11
60.3691
 21
25.9307
  0
LINE
  8
0
 10
60.3691
 20
25.9307
 11
60.3857
 21
25.9238
  0
LINE
  8
0
 10
60.3857
 20
25.9238
 11
60.4014
 21
25.917
  0
LINE
  8
0
 10
60.4014
 20
25.917
 11
60.4482
 21
25.8936
  0
LINE
  8
0
 10
60.4482
 20
25.8936
 11
60.4639
 21
25.8848
  0
LINE
  8
0
 10
60.4639
 20
25.8848
 11
60.4785
 21
25.876
  0
LINE
  8
0
 10
60.4785
 20
25.876
 11
60.4941
 21
25.8672
  0
LINE
  8
0
 10
60.4941
 20
25.8672
 11
60.5088
 21
25.8584
  0
LINE
  8
0
 10
60.5088
 20
25.8584
 11
60.5234
 21
25.8486
  0
LINE
  8
0
 10
60.5234
 20
25.8486
 11
60.5381
 21
25.8398
  0
LINE
  8
0
 10
60.5381
 20
25.8398
 11
60.5527
 21
25.8291
  0
LINE
  8
0
 10
60.5527
 20
25.8291
 11
60.5664
 21
25.8193
  0
LINE
  8
0
 10
60.5664
 20
25.8193
 11
60.5811
 21
25.8086
  0
LINE
  8
0
 10
60.5811
 20
25.8086
 11
60.5947
 21
25.7988
  0
LINE
  8
0
 10
60.5947
 20
25.7988
 11
60.6084
 21
25.7871
  0
LINE
  8
0
 10
60.6084
 20
25.7871
 11
60.6211
 21
25.7764
  0
LINE
  8
0
 10
60.6211
 20
25.7764
 11
60.6348
 21
25.7646
  0
LINE
  8
0
 10
60.6348
 20
25.7646
 11
60.6475
 21
25.7539
  0
LINE
  8
0
 10
60.6475
 20
25.7539
 11
60.6611
 21
25.7422
  0
LINE
  8
0
 10
60.6611
 20
25.7422
 11
60.6982
 21
25.7051
  0
LINE
  8
0
 10
60.6982
 20
25.7051
 11
60.7217
 21
25.6797
  0
LINE
  8
0
 10
60.7217
 20
25.6797
 11
60.7334
 21
25.666
  0
LINE
  8
0
 10
60.7334
 20
25.666
 11
60.7451
 21
25.6533
  0
LINE
  8
0
 10
60.7451
 20
25.6533
 11
60.7881
 21
25.5986
  0
LINE
  8
0
 10
60.7881
 20
25.5986
 11
60.8271
 21
25.54
  0
LINE
  8
0
 10
60.8271
 20
25.54
 11
60.8447
 21
25.5107
  0
LINE
  8
0
 10
60.8447
 20
25.5107
 11
60.8535
 21
25.4951
  0
LINE
  8
0
 10
60.8535
 20
25.4951
 11
60.8613
 21
25.4795
  0
LINE
  8
0
 10
60.8613
 20
25.4795
 11
60.8701
 21
25.4648
  0
LINE
  8
0
 10
60.8701
 20
25.4648
 11
60.8779
 21
25.4492
  0
LINE
  8
0
 10
60.8779
 20
25.4492
 11
60.8848
 21
25.4326
  0
LINE
  8
0
 10
60.8848
 20
25.4326
 11
60.8926
 21
25.417
  0
LINE
  8
0
 10
60.8926
 20
25.417
 11
60.8994
 21
25.4014
  0
LINE
  8
0
 10
60.8994
 20
25.4014
 11
60.9062
 21
25.3848
  0
LINE
  8
0
 10
60.9062
 20
25.3848
 11
60.9121
 21
25.3691
  0
LINE
  8
0
 10
60.9121
 20
25.3691
 11
60.9189
 21
25.3525
  0
LINE
  8
0
 10
60.9189
 20
25.3525
 11
60.9238
 21
25.3359
  0
LINE
  8
0
 10
60.9238
 20
25.3359
 11
60.9355
 21
25.3027
  0
LINE
  8
0
 10
60.9355
 20
25.3027
 11
60.9404
 21
25.2861
  0
LINE
  8
0
 10
60.9404
 20
25.2861
 11
60.9443
 21
25.2695
  0
LINE
  8
0
 10
60.9443
 20
25.2695
 11
60.9492
 21
25.252
  0
LINE
  8
0
 10
60.9492
 20
25.252
 11
60.957
 21
25.2188
  0
LINE
  8
0
 10
60.957
 20
25.2188
 11
60.96
 21
25.2012
  0
LINE
  8
0
 10
60.96
 20
25.2012
 11
60.9639
 21
25.1836
  0
LINE
  8
0
 10
60.9639
 20
25.1836
 11
60.9668
 21
25.167
  0
LINE
  8
0
 10
60.9668
 20
25.167
 11
60.9688
 21
25.1494
  0
LINE
  8
0
 10
60.9688
 20
25.1494
 11
60.9717
 21
25.1318
  0
LINE
  8
0
 10
60.9717
 20
25.1318
 11
60.9736
 21
25.1152
  0
LINE
  8
0
 10
60.9736
 20
25.1152
 11
60.9746
 21
25.0977
  0
LINE
  8
0
 10
60.9746
 20
25.0977
 11
60.9766
 21
25.0801
  0
LINE
  8
0
 10
60.9766
 20
25.0801
 11
60.9785
 21
25.0449
  0
LINE
  8
0
 10
60.9785
 20
25.0449
 11
60.9785
 21
25.0107
  0
LINE
  8
0
 10
60.9785
 20
25.0107
 11
61.041
 21
10.0098
  0
LINE
  8
0
 10
61.041
 20
10.0098
 11
61.041
 21
9.97461
  0
LINE
  8
0
 10
61.041
 20
9.97461
 11
61.04
 21
9.95703
  0
LINE
  8
0
 10
61.04
 20
9.95703
 11
61.0391
 21
9.94043
  0
LINE
  8
0
 10
61.0391
 20
9.94043
 11
61.0371
 21
9.92285
  0
LINE
  8
0
 10
61.0371
 20
9.92285
 11
61.0361
 21
9.90527
  0
LINE
  8
0
 10
61.0361
 20
9.90527
 11
61.0342
 21
9.8877
  0
LINE
  8
0
 10
61.0342
 20
9.8877
 11
61.0312
 21
9.87109
  0
LINE
  8
0
 10
61.0312
 20
9.87109
 11
61.0293
 21
9.85352
  0
LINE
  8
0
 10
61.0293
 20
9.85352
 11
61.0264
 21
9.83594
  0
LINE
  8
0
 10
61.0264
 20
9.83594
 11
61.0225
 21
9.81934
  0
LINE
  8
0
 10
61.0225
 20
9.81934
 11
61.0195
 21
9.80176
  0
LINE
  8
0
 10
61.0195
 20
9.80176
 11
61.0156
 21
9.78516
  0
LINE
  8
0
 10
61.0156
 20
9.78516
 11
61.0117
 21
9.76758
  0
LINE
  8
0
 10
61.0117
 20
9.76758
 11
61.0068
 21
9.75098
  0
LINE
  8
0
 10
61.0068
 20
9.75098
 11
61.0029
 21
9.73438
  0
LINE
  8
0
 10
61.0029
 20
9.73438
 11
60.9971
 21
9.71777
  0
LINE
  8
0
 10
60.9971
 20
9.71777
 11
60.9922
 21
9.70117
  0
LINE
  8
0
 10
60.9922
 20
9.70117
 11
60.9688
 21
9.63477
  0
LINE
  8
0
 10
60.9688
 20
9.63477
 11
60.9551
 21
9.60352
  0
LINE
  8
0
 10
60.9551
 20
9.60352
 11
60.9473
 21
9.58691
  0
LINE
  8
0
 10
60.9473
 20
9.58691
 11
60.9404
 21
9.57129
  0
LINE
  8
0
 10
60.9404
 20
9.57129
 11
60.9326
 21
9.55566
  0
LINE
  8
0
 10
60.9326
 20
9.55566
 11
60.9238
 21
9.54004
  0
LINE
  8
0
 10
60.9238
 20
9.54004
 11
60.916
 21
9.52539
  0
LINE
  8
0
 10
60.916
 20
9.52539
 11
60.9072
 21
9.50977
  0
LINE
  8
0
 10
60.9072
 20
9.50977
 11
60.8984
 21
9.49512
  0
LINE
  8
0
 10
60.8984
 20
9.49512
 11
60.8896
 21
9.47949
  0
LINE
  8
0
 10
60.8896
 20
9.47949
 11
60.8701
 21
9.4502
  0
LINE
  8
0
 10
60.8701
 20
9.4502
 11
60.8604
 21
9.43652
  0
LINE
  8
0
 10
60.8604
 20
9.43652
 11
60.8506
 21
9.42188
  0
LINE
  8
0
 10
60.8506
 20
9.42188
 11
60.8076
 21
9.36719
  0
LINE
  8
0
 10
60.8076
 20
9.36719
 11
60.7959
 21
9.35352
  0
LINE
  8
0
 10
60.7959
 20
9.35352
 11
60.7607
 21
9.31543
  0
LINE
  8
0
 10
60.7607
 20
9.31543
 11
60.748
 21
9.30273
  0
LINE
  8
0
 10
60.748
 20
9.30273
 11
60.7363
 21
9.29004
  0
LINE
  8
0
 10
60.7363
 20
9.29004
 11
60.7236
 21
9.27832
  0
LINE
  8
0
 10
60.7236
 20
9.27832
 11
60.71
 21
9.2666
  0
LINE
  8
0
 10
60.71
 20
9.2666
 11
60.6973
 21
9.25488
  0
LINE
  8
0
 10
60.6973
 20
9.25488
 11
60.6836
 21
9.24414
  0
LINE
  8
0
 10
60.6836
 20
9.24414
 11
60.6709
 21
9.23242
  0
LINE
  8
0
 10
60.6709
 20
9.23242
 11
60.6572
 21
9.22168
  0
LINE
  8
0
 10
60.6572
 20
9.22168
 11
60.6426
 21
9.21094
  0
LINE
  8
0
 10
60.6426
 20
9.21094
 11
60.6289
 21
9.20117
  0
LINE
  8
0
 10
60.6289
 20
9.20117
 11
60.6152
 21
9.19043
  0
LINE
  8
0
 10
60.6152
 20
9.19043
 11
60.5859
 21
9.1709
  0
LINE
  8
0
 10
60.5859
 20
9.1709
 11
60.5713
 21
9.16211
  0
LINE
  8
0
 10
60.5713
 20
9.16211
 11
60.5566
 21
9.15234
  0
LINE
  8
0
 10
60.5566
 20
9.15234
 11
60.541
 21
9.14355
  0
LINE
  8
0
 10
60.541
 20
9.14355
 11
60.5264
 21
9.13477
  0
LINE
  8
0
 10
60.5264
 20
9.13477
 11
60.4639
 21
9.10352
  0
LINE
  8
0
 10
60.4639
 20
9.10352
 11
60.4482
 21
9.09668
  0
LINE
  8
0
 10
60.4482
 20
9.09668
 11
60.4316
 21
9.08887
  0
LINE
  8
0
 10
60.4316
 20
9.08887
 11
60.416
 21
9.08301
  0
LINE
  8
0
 10
60.416
 20
9.08301
 11
60.3994
 21
9.07617
  0
LINE
  8
0
 10
60.3994
 20
9.07617
 11
60.3828
 21
9.07031
  0
LINE
  8
0
 10
60.3828
 20
9.07031
 11
60.3672
 21
9.06445
  0
LINE
  8
0
 10
60.3672
 20
9.06445
 11
60.3506
 21
9.05859
  0
LINE
  8
0
 10
60.3506
 20
9.05859
 11
60.334
 21
9.05371
  0
LINE
  8
0
 10
60.334
 20
9.05371
 11
60.3164
 21
9.04883
  0
LINE
  8
0
 10
60.3164
 20
9.04883
 11
60.2832
 21
9.03906
  0
LINE
  8
0
 10
60.2832
 20
9.03906
 11
60.2666
 21
9.03516
  0
LINE
  8
0
 10
60.2666
 20
9.03516
 11
60.249
 21
9.03125
  0
LINE
  8
0
 10
60.249
 20
9.03125
 11
60.2324
 21
9.02832
  0
LINE
  8
0
 10
60.2324
 20
9.02832
 11
60.1973
 21
9.02246
  0
LINE
  8
0
 10
60.1973
 20
9.02246
 11
60.1807
 21
9.01953
  0
LINE
  8
0
 10
60.1807
 20
9.01953
 11
60.1279
 21
9.01367
  0
LINE
  8
0
 10
60.1279
 20
9.01367
 11
60.1113
 21
9.0127
  0
LINE
  8
0
 10
60.1113
 20
9.0127
 11
60.0938
 21
9.01074
  0
LINE
  8
0
 10
60.0938
 20
9.01074
 11
60.0762
 21
9.01074
  0
LINE
  8
0
 10
60.0762
 20
9.01074
 11
60.0586
 21
9.00977
  0
LINE
  8
0
 10
60.0586
 20
9.00977
 11
47.5059
 21
9.00879
  0
LINE
  8
0
 10
47.5059
 20
9.00879
 11
47.4893
 21
9.00977
  0
LINE
  8
0
 10
65.4717
 20
9.00098
 11
65.4541
 21
9.00293
  0
LINE
  8
0
 10
65.4541
 20
9.00293
 11
65.4365
 21
9.00391
  0
LINE
  8
0
 10
65.4365
 20
9.00391
 11
65.4199
 21
9.00586
  0
LINE
  8
0
 10
65.4199
 20
9.00586
 11
65.4023
 21
9.00879
  0
LINE
  8
0
 10
65.4023
 20
9.00879
 11
65.3848
 21
9.01074
  0
LINE
  8
0
 10
65.3848
 20
9.01074
 11
65.3682
 21
9.01367
  0
LINE
  8
0
 10
65.3682
 20
9.01367
 11
65.3506
 21
9.0166
  0
LINE
  8
0
 10
65.3506
 20
9.0166
 11
65.334
 21
9.02051
  0
LINE
  8
0
 10
65.334
 20
9.02051
 11
65.3164
 21
9.02441
  0
LINE
  8
0
 10
65.3164
 20
9.02441
 11
65.2998
 21
9.02832
  0
LINE
  8
0
 10
65.2998
 20
9.02832
 11
65.2822
 21
9.0332
  0
LINE
  8
0
 10
65.2822
 20
9.0332
 11
65.2656
 21
9.03711
  0
LINE
  8
0
 10
65.2656
 20
9.03711
 11
65.249
 21
9.04199
  0
LINE
  8
0
 10
65.249
 20
9.04199
 11
65.2324
 21
9.04785
  0
LINE
  8
0
 10
65.2324
 20
9.04785
 11
65.2158
 21
9.05273
  0
LINE
  8
0
 10
65.2158
 20
9.05273
 11
65.1992
 21
9.05859
  0
LINE
  8
0
 10
65.1992
 20
9.05859
 11
65.1826
 21
9.06543
  0
LINE
  8
0
 10
65.1826
 20
9.06543
 11
65.167
 21
9.07129
  0
LINE
  8
0
 10
65.167
 20
9.07129
 11
65.1504
 21
9.07812
  0
LINE
  8
0
 10
65.1504
 20
9.07812
 11
65.1348
 21
9.08496
  0
LINE
  8
0
 10
65.1348
 20
9.08496
 11
65.1191
 21
9.09277
  0
LINE
  8
0
 10
65.1191
 20
9.09277
 11
65.1035
 21
9.09961
  0
LINE
  8
0
 10
65.1035
 20
9.09961
 11
65.0879
 21
9.10742
  0
LINE
  8
0
 10
65.0879
 20
9.10742
 11
65.0723
 21
9.11621
  0
LINE
  8
0
 10
65.0723
 20
9.11621
 11
65.0566
 21
9.12402
  0
LINE
  8
0
 10
65.0566
 20
9.12402
 11
65.041
 21
9.13281
  0
LINE
  8
0
 10
65.041
 20
9.13281
 11
65.0117
 21
9.15039
  0
LINE
  8
0
 10
65.0117
 20
9.15039
 11
64.9678
 21
9.17969
  0
LINE
  8
0
 10
64.9678
 20
9.17969
 11
64.9541
 21
9.18945
  0
LINE
  8
0
 10
64.9541
 20
9.18945
 11
64.9395
 21
9.2002
  0
LINE
  8
0
 10
64.9395
 20
9.2002
 11
64.8984
 21
9.23242
  0
LINE
  8
0
 10
64.8984
 20
9.23242
 11
64.8857
 21
9.24414
  0
LINE
  8
0
 10
64.8857
 20
9.24414
 11
64.8721
 21
9.25586
  0
LINE
  8
0
 10
64.8721
 20
9.25586
 11
64.8467
 21
9.2793
  0
LINE
  8
0
 10
64.8467
 20
9.2793
 11
64.8223
 21
9.30371
  0
LINE
  8
0
 10
64.8223
 20
9.30371
 11
64.8105
 21
9.31641
  0
LINE
  8
0
 10
64.8105
 20
9.31641
 11
64.7979
 21
9.3291
  0
LINE
  8
0
 10
64.7979
 20
9.3291
 11
64.7871
 21
9.34277
  0
LINE
  8
0
 10
64.7871
 20
9.34277
 11
64.7754
 21
9.35547
  0
LINE
  8
0
 10
64.7754
 20
9.35547
 11
64.7646
 21
9.36914
  0
LINE
  8
0
 10
64.7646
 20
9.36914
 11
64.7529
 21
9.38281
  0
LINE
  8
0
 10
64.7529
 20
9.38281
 11
64.7432
 21
9.39648
  0
LINE
  8
0
 10
64.7432
 20
9.39648
 11
64.7324
 21
9.41113
  0
LINE
  8
0
 10
64.7324
 20
9.41113
 11
64.7227
 21
9.4248
  0
LINE
  8
0
 10
64.7227
 20
9.4248
 11
64.7119
 21
9.43945
  0
LINE
  8
0
 10
64.7119
 20
9.43945
 11
64.7031
 21
9.4541
  0
LINE
  8
0
 10
64.7031
 20
9.4541
 11
64.6934
 21
9.46875
  0
LINE
  8
0
 10
64.6934
 20
9.46875
 11
64.6846
 21
9.4834
  0
LINE
  8
0
 10
64.6846
 20
9.4834
 11
64.6758
 21
9.49902
  0
LINE
  8
0
 10
64.6758
 20
9.49902
 11
64.667
 21
9.51367
  0
LINE
  8
0
 10
64.667
 20
9.51367
 11
64.6582
 21
9.5293
  0
LINE
  8
0
 10
64.6582
 20
9.5293
 11
64.6348
 21
9.57617
  0
LINE
  8
0
 10
64.6348
 20
9.57617
 11
64.6279
 21
9.5918
  0
LINE
  8
0
 10
64.6279
 20
9.5918
 11
64.6211
 21
9.6084
  0
LINE
  8
0
 10
64.6211
 20
9.6084
 11
64.6143
 21
9.62402
  0
LINE
  8
0
 10
64.6143
 20
9.62402
 11
64.6074
 21
9.64062
  0
LINE
  8
0
 10
64.6074
 20
9.64062
 11
64.6016
 21
9.65625
  0
LINE
  8
0
 10
64.6016
 20
9.65625
 11
64.5957
 21
9.67285
  0
LINE
  8
0
 10
64.5957
 20
9.67285
 11
64.5908
 21
9.68945
  0
LINE
  8
0
 10
64.5908
 20
9.68945
 11
64.585
 21
9.70605
  0
LINE
  8
0
 10
64.585
 20
9.70605
 11
64.5801
 21
9.72266
  0
LINE
  8
0
 10
64.5801
 20
9.72266
 11
64.5752
 21
9.74023
  0
LINE
  8
0
 10
64.5752
 20
9.74023
 11
64.5674
 21
9.77344
  0
LINE
  8
0
 10
64.5674
 20
9.77344
 11
64.5635
 21
9.79102
  0
LINE
  8
0
 10
64.5635
 20
9.79102
 11
64.5596
 21
9.80762
  0
LINE
  8
0
 10
64.5596
 20
9.80762
 11
64.5566
 21
9.8252
  0
LINE
  8
0
 10
64.5566
 20
9.8252
 11
64.5537
 21
9.8418
  0
LINE
  8
0
 10
64.5537
 20
9.8418
 11
64.5508
 21
9.85938
  0
LINE
  8
0
 10
64.5508
 20
9.85938
 11
64.5469
 21
9.89453
  0
LINE
  8
0
 10
64.5469
 20
9.89453
 11
64.5449
 21
9.91113
  0
LINE
  8
0
 10
64.5449
 20
9.91113
 11
64.542
 21
9.96387
  0
LINE
  8
0
 10
64.542
 20
9.96387
 11
64.542
 21
9.98145
  0
LINE
  8
0
 10
64.542
 20
9.98145
 11
64.541
 21
9.99902
  0
LINE
  8
0
 10
64.541
 20
9.99902
 11
64.4785
 21
24.999
  0
LINE
  8
0
 10
64.4785
 20
24.999
 11
64.4795
 21
25.0166
  0
LINE
  8
0
 10
64.4795
 20
25.0166
 11
64.4795
 21
25.0342
  0
LINE
  8
0
 10
64.4795
 20
25.0342
 11
64.4824
 21
25.0869
  0
LINE
  8
0
 10
64.4824
 20
25.0869
 11
64.4844
 21
25.1035
  0
LINE
  8
0
 10
64.4844
 20
25.1035
 11
64.4883
 21
25.1387
  0
LINE
  8
0
 10
64.4883
 20
25.1387
 11
64.4912
 21
25.1553
  0
LINE
  8
0
 10
64.4912
 20
25.1553
 11
64.4971
 21
25.1904
  0
LINE
  8
0
 10
64.4971
 20
25.1904
 11
64.501
 21
25.207
  0
LINE
  8
0
 10
64.501
 20
25.207
 11
64.5049
 21
25.2246
  0
LINE
  8
0
 10
64.5049
 20
25.2246
 11
64.5127
 21
25.2578
  0
LINE
  8
0
 10
64.5127
 20
25.2578
 11
64.5176
 21
25.2754
  0
LINE
  8
0
 10
64.5176
 20
25.2754
 11
64.5225
 21
25.292
  0
LINE
  8
0
 10
64.5225
 20
25.292
 11
64.5283
 21
25.3086
  0
LINE
  8
0
 10
64.5283
 20
25.3086
 11
64.5332
 21
25.3252
  0
LINE
  8
0
 10
64.5332
 20
25.3252
 11
64.5391
 21
25.3418
  0
LINE
  8
0
 10
64.5391
 20
25.3418
 11
64.5449
 21
25.3574
  0
LINE
  8
0
 10
64.5449
 20
25.3574
 11
64.5518
 21
25.374
  0
LINE
  8
0
 10
64.5518
 20
25.374
 11
64.5586
 21
25.3896
  0
LINE
  8
0
 10
64.5586
 20
25.3896
 11
64.5654
 21
25.4062
  0
LINE
  8
0
 10
64.5654
 20
25.4062
 11
64.5723
 21
25.4219
  0
LINE
  8
0
 10
64.5723
 20
25.4219
 11
64.5957
 21
25.4688
  0
LINE
  8
0
 10
64.5957
 20
25.4688
 11
64.6045
 21
25.4844
  0
LINE
  8
0
 10
64.6045
 20
25.4844
 11
64.6133
 21
25.499
  0
LINE
  8
0
 10
64.6133
 20
25.499
 11
64.6221
 21
25.5146
  0
LINE
  8
0
 10
64.6221
 20
25.5146
 11
64.6309
 21
25.5293
  0
LINE
  8
0
 10
64.6309
 20
25.5293
 11
64.6602
 21
25.5732
  0
LINE
  8
0
 10
64.6602
 20
25.5732
 11
64.6699
 21
25.5869
  0
LINE
  8
0
 10
64.6699
 20
25.5869
 11
64.6807
 21
25.6016
  0
LINE
  8
0
 10
64.6807
 20
25.6016
 11
64.7021
 21
25.6289
  0
LINE
  8
0
 10
64.7021
 20
25.6289
 11
64.7129
 21
25.6416
  0
LINE
  8
0
 10
64.7129
 20
25.6416
 11
64.7246
 21
25.6553
  0
LINE
  8
0
 10
64.7246
 20
25.6553
 11
64.7363
 21
25.668
  0
LINE
  8
0
 10
64.7363
 20
25.668
 11
64.748
 21
25.6816
  0
LINE
  8
0
 10
64.748
 20
25.6816
 11
64.7598
 21
25.6943
  0
LINE
  8
0
 10
64.7598
 20
25.6943
 11
64.7842
 21
25.7188
  0
LINE
  8
0
 10
64.7842
 20
25.7188
 11
64.8096
 21
25.7422
  0
LINE
  8
0
 10
64.8096
 20
25.7422
 11
64.8232
 21
25.7539
  0
LINE
  8
0
 10
64.8232
 20
25.7539
 11
64.8359
 21
25.7656
  0
LINE
  8
0
 10
64.8359
 20
25.7656
 11
64.877
 21
25.7979
  0
LINE
  8
0
 10
64.877
 20
25.7979
 11
64.8916
 21
25.8086
  0
LINE
  8
0
 10
64.8916
 20
25.8086
 11
64.9053
 21
25.8184
  0
LINE
  8
0
 10
64.9053
 20
25.8184
 11
64.9492
 21
25.8477
  0
LINE
  8
0
 10
64.9492
 20
25.8477
 11
64.9785
 21
25.8652
  0
LINE
  8
0
 10
64.9785
 20
25.8652
 11
64.9941
 21
25.874
  0
LINE
  8
0
 10
64.9941
 20
25.874
 11
65.0098
 21
25.8818
  0
LINE
  8
0
 10
65.0098
 20
25.8818
 11
65.0254
 21
25.8906
  0
LINE
  8
0
 10
65.0254
 20
25.8906
 11
65.041
 21
25.8984
  0
LINE
  8
0
 10
65.041
 20
25.8984
 11
65.0566
 21
25.9053
  0
LINE
  8
0
 10
65.0566
 20
25.9053
 11
65.0723
 21
25.9131
  0
LINE
  8
0
 10
65.0723
 20
25.9131
 11
65.0879
 21
25.9199
  0
LINE
  8
0
 10
65.0879
 20
25.9199
 11
65.1045
 21
25.9268
  0
LINE
  8
0
 10
65.1045
 20
25.9268
 11
65.1211
 21
25.9326
  0
LINE
  8
0
 10
65.1211
 20
25.9326
 11
65.1367
 21
25.9395
  0
LINE
  8
0
 10
65.1367
 20
25.9395
 11
65.1533
 21
25.9443
  0
LINE
  8
0
 10
65.1533
 20
25.9443
 11
65.1865
 21
25.9561
  0
LINE
  8
0
 10
65.1865
 20
25.9561
 11
65.2031
 21
25.9609
  0
LINE
  8
0
 10
65.2031
 20
25.9609
 11
65.2197
 21
25.9648
  0
LINE
  8
0
 10
65.2197
 20
25.9648
 11
65.2373
 21
25.9697
  0
LINE
  8
0
 10
65.2373
 20
25.9697
 11
65.2539
 21
25.9736
  0
LINE
  8
0
 10
65.2539
 20
25.9736
 11
65.2715
 21
25.9775
  0
LINE
  8
0
 10
65.2715
 20
25.9775
 11
65.2881
 21
25.9805
  0
LINE
  8
0
 10
65.2881
 20
25.9805
 11
65.3057
 21
25.9844
  0
LINE
  8
0
 10
65.3057
 20
25.9844
 11
65.3223
 21
25.9873
  0
LINE
  8
0
 10
65.3223
 20
25.9873
 11
65.3398
 21
25.9893
  0
LINE
  8
0
 10
65.3398
 20
25.9893
 11
65.3574
 21
25.9922
  0
LINE
  8
0
 10
65.3574
 20
25.9922
 11
65.374
 21
25.9941
  0
LINE
  8
0
 10
65.374
 20
25.9941
 11
65.3916
 21
25.9951
  0
LINE
  8
0
 10
65.3916
 20
25.9951
 11
65.4092
 21
25.9971
  0
LINE
  8
0
 10
65.4092
 20
25.9971
 11
65.4443
 21
25.999
  0
LINE
  8
0
 10
65.4443
 20
25.999
 11
77.9961
 21
26.001
  0
LINE
  8
0
 10
77.9961
 20
26.001
 11
78.0664
 21
25.9971
  0
LINE
  8
0
 10
78.0664
 20
25.9971
 11
78.083
 21
25.9951
  0
LINE
  8
0
 10
78.083
 20
25.9951
 11
78.1182
 21
25.9912
  0
LINE
  8
0
 10
78.1182
 20
25.9912
 11
78.1357
 21
25.9883
  0
LINE
  8
0
 10
78.1357
 20
25.9883
 11
78.1523
 21
25.9854
  0
LINE
  8
0
 10
78.1523
 20
25.9854
 11
78.1699
 21
25.9824
  0
LINE
  8
0
 10
78.1699
 20
25.9824
 11
78.1865
 21
25.9785
  0
LINE
  8
0
 10
78.1865
 20
25.9785
 11
78.2041
 21
25.9746
  0
LINE
  8
0
 10
78.2041
 20
25.9746
 11
78.2373
 21
25.9668
  0
LINE
  8
0
 10
78.2373
 20
25.9668
 11
78.2549
 21
25.9619
  0
LINE
  8
0
 10
78.2549
 20
25.9619
 11
78.2881
 21
25.9521
  0
LINE
  8
0
 10
78.2881
 20
25.9521
 11
78.3213
 21
25.9404
  0
LINE
  8
0
 10
78.3213
 20
25.9404
 11
78.3369
 21
25.9346
  0
LINE
  8
0
 10
78.3369
 20
25.9346
 11
78.3535
 21
25.9277
  0
LINE
  8
0
 10
78.3535
 20
25.9277
 11
78.3691
 21
25.9209
  0
LINE
  8
0
 10
78.3691
 20
25.9209
 11
78.3857
 21
25.9141
  0
LINE
  8
0
 10
78.3857
 20
25.9141
 11
78.4014
 21
25.9072
  0
LINE
  8
0
 10
78.4014
 20
25.9072
 11
78.4482
 21
25.8838
  0
LINE
  8
0
 10
78.4482
 20
25.8838
 11
78.4639
 21
25.875
  0
LINE
  8
0
 10
78.4639
 20
25.875
 11
78.4785
 21
25.8662
  0
LINE
  8
0
 10
78.4785
 20
25.8662
 11
78.4941
 21
25.8574
  0
LINE
  8
0
 10
78.4941
 20
25.8574
 11
78.5088
 21
25.8486
  0
LINE
  8
0
 10
78.5088
 20
25.8486
 11
78.5234
 21
25.8389
  0
LINE
  8
0
 10
78.5234
 20
25.8389
 11
78.5381
 21
25.8301
  0
LINE
  8
0
 10
78.5381
 20
25.8301
 11
78.5527
 21
25.8193
  0
LINE
  8
0
 10
78.5527
 20
25.8193
 11
78.5664
 21
25.8096
  0
LINE
  8
0
 10
78.5664
 20
25.8096
 11
78.5811
 21
25.7988
  0
LINE
  8
0
 10
78.5811
 20
25.7988
 11
78.5947
 21
25.7891
  0
LINE
  8
0
 10
78.5947
 20
25.7891
 11
78.6084
 21
25.7773
  0
LINE
  8
0
 10
78.6084
 20
25.7773
 11
78.6221
 21
25.7666
  0
LINE
  8
0
 10
78.6221
 20
25.7666
 11
78.6348
 21
25.7559
  0
LINE
  8
0
 10
78.6348
 20
25.7559
 11
78.6484
 21
25.7441
  0
LINE
  8
0
 10
78.6484
 20
25.7441
 11
78.6611
 21
25.7324
  0
LINE
  8
0
 10
78.6611
 20
25.7324
 11
78.6982
 21
25.6953
  0
LINE
  8
0
 10
78.6982
 20
25.6953
 11
78.7217
 21
25.6699
  0
LINE
  8
0
 10
78.7217
 20
25.6699
 11
78.7334
 21
25.6562
  0
LINE
  8
0
 10
78.7334
 20
25.6562
 11
78.7451
 21
25.6436
  0
LINE
  8
0
 10
78.7451
 20
25.6436
 11
78.7881
 21
25.5889
  0
LINE
  8
0
 10
78.7881
 20
25.5889
 11
78.8271
 21
25.5303
  0
LINE
  8
0
 10
78.8271
 20
25.5303
 11
78.8447
 21
25.501
  0
LINE
  8
0
 10
78.8447
 20
25.501
 11
78.8535
 21
25.4854
  0
LINE
  8
0
 10
78.8535
 20
25.4854
 11
78.8613
 21
25.4697
  0
LINE
  8
0
 10
78.8613
 20
25.4697
 11
78.8701
 21
25.4551
  0
LINE
  8
0
 10
78.8701
 20
25.4551
 11
78.8779
 21
25.4395
  0
LINE
  8
0
 10
78.8779
 20
25.4395
 11
78.8848
 21
25.4229
  0
LINE
  8
0
 10
78.8848
 20
25.4229
 11
78.8926
 21
25.4072
  0
LINE
  8
0
 10
78.8926
 20
25.4072
 11
78.8994
 21
25.3916
  0
LINE
  8
0
 10
78.8994
 20
25.3916
 11
78.9062
 21
25.375
  0
LINE
  8
0
 10
78.9062
 20
25.375
 11
78.9121
 21
25.3594
  0
LINE
  8
0
 10
78.9121
 20
25.3594
 11
78.9189
 21
25.3428
  0
LINE
  8
0
 10
78.9189
 20
25.3428
 11
78.9248
 21
25.3262
  0
LINE
  8
0
 10
78.9248
 20
25.3262
 11
78.9297
 21
25.3096
  0
LINE
  8
0
 10
78.9297
 20
25.3096
 11
78.9355
 21
25.293
  0
LINE
  8
0
 10
78.9355
 20
25.293
 11
78.9404
 21
25.2764
  0
LINE
  8
0
 10
78.9404
 20
25.2764
 11
78.9443
 21
25.2598
  0
LINE
  8
0
 10
78.9443
 20
25.2598
 11
78.9492
 21
25.2422
  0
LINE
  8
0
 10
78.9492
 20
25.2422
 11
78.957
 21
25.209
  0
LINE
  8
0
 10
78.957
 20
25.209
 11
78.96
 21
25.1914
  0
LINE
  8
0
 10
78.96
 20
25.1914
 11
78.9639
 21
25.1738
  0
LINE
  8
0
 10
78.9639
 20
25.1738
 11
78.9668
 21
25.1572
  0
LINE
  8
0
 10
78.9668
 20
25.1572
 11
78.9688
 21
25.1396
  0
LINE
  8
0
 10
78.9688
 20
25.1396
 11
78.9717
 21
25.1221
  0
LINE
  8
0
 10
78.9717
 20
25.1221
 11
78.9736
 21
25.1055
  0
LINE
  8
0
 10
78.9736
 20
25.1055
 11
78.9746
 21
25.0879
  0
LINE
  8
0
 10
78.9746
 20
25.0879
 11
78.9766
 21
25.0703
  0
LINE
  8
0
 10
78.9766
 20
25.0703
 11
78.9785
 21
25.0352
  0
LINE
  8
0
 10
78.9785
 20
25.0352
 11
78.9785
 21
25.001
  0
LINE
  8
0
 10
78.9785
 20
25.001
 11
79.041
 21
10
  0
LINE
  8
0
 10
79.041
 20
10
 11
79.041
 21
9.96484
  0
LINE
  8
0
 10
79.041
 20
9.96484
 11
79.04
 21
9.94727
  0
LINE
  8
0
 10
79.04
 20
9.94727
 11
79.0391
 21
9.93066
  0
LINE
  8
0
 10
79.0391
 20
9.93066
 11
79.0371
 21
9.91309
  0
LINE
  8
0
 10
79.0371
 20
9.91309
 11
79.0361
 21
9.89551
  0
LINE
  8
0
 10
79.0361
 20
9.89551
 11
79.0342
 21
9.87793
  0
LINE
  8
0
 10
79.0342
 20
9.87793
 11
79.0312
 21
9.86133
  0
LINE
  8
0
 10
79.0312
 20
9.86133
 11
79.0293
 21
9.84375
  0
LINE
  8
0
 10
79.0293
 20
9.84375
 11
79.0264
 21
9.82617
  0
LINE
  8
0
 10
79.0264
 20
9.82617
 11
79.0225
 21
9.80957
  0
LINE
  8
0
 10
79.0225
 20
9.80957
 11
79.0195
 21
9.79199
  0
LINE
  8
0
 10
79.0195
 20
9.79199
 11
79.0156
 21
9.77539
  0
LINE
  8
0
 10
79.0156
 20
9.77539
 11
79.0117
 21
9.75781
  0
LINE
  8
0
 10
79.0117
 20
9.75781
 11
79.0068
 21
9.74121
  0
LINE
  8
0
 10
79.0068
 20
9.74121
 11
79.0029
 21
9.72461
  0
LINE
  8
0
 10
79.0029
 20
9.72461
 11
78.998
 21
9.70801
  0
LINE
  8
0
 10
78.998
 20
9.70801
 11
78.9688
 21
9.625
  0
LINE
  8
0
 10
78.9688
 20
9.625
 11
78.9551
 21
9.59375
  0
LINE
  8
0
 10
78.9551
 20
9.59375
 11
78.9473
 21
9.57715
  0
LINE
  8
0
 10
78.9473
 20
9.57715
 11
78.9404
 21
9.56152
  0
LINE
  8
0
 10
78.9404
 20
9.56152
 11
78.9326
 21
9.5459
  0
LINE
  8
0
 10
78.9326
 20
9.5459
 11
78.9238
 21
9.53027
  0
LINE
  8
0
 10
78.9238
 20
9.53027
 11
78.916
 21
9.51562
  0
LINE
  8
0
 10
78.916
 20
9.51562
 11
78.9072
 21
9.5
  0
LINE
  8
0
 10
78.9072
 20
9.5
 11
78.8984
 21
9.48535
  0
LINE
  8
0
 10
78.8984
 20
9.48535
 11
78.8896
 21
9.46973
  0
LINE
  8
0
 10
78.8896
 20
9.46973
 11
78.8701
 21
9.44043
  0
LINE
  8
0
 10
78.8701
 20
9.44043
 11
78.8604
 21
9.42676
  0
LINE
  8
0
 10
78.8604
 20
9.42676
 11
78.8506
 21
9.41211
  0
LINE
  8
0
 10
78.8506
 20
9.41211
 11
78.8076
 21
9.35742
  0
LINE
  8
0
 10
78.8076
 20
9.35742
 11
78.7959
 21
9.34375
  0
LINE
  8
0
 10
78.7959
 20
9.34375
 11
78.7607
 21
9.30566
  0
LINE
  8
0
 10
78.7607
 20
9.30566
 11
78.748
 21
9.29297
  0
LINE
  8
0
 10
78.748
 20
9.29297
 11
78.7363
 21
9.28027
  0
LINE
  8
0
 10
78.7363
 20
9.28027
 11
78.7236
 21
9.26855
  0
LINE
  8
0
 10
78.7236
 20
9.26855
 11
78.71
 21
9.25684
  0
LINE
  8
0
 10
78.71
 20
9.25684
 11
78.6973
 21
9.24512
  0
LINE
  8
0
 10
78.6973
 20
9.24512
 11
78.6836
 21
9.23438
  0
LINE
  8
0
 10
78.6836
 20
9.23438
 11
78.6709
 21
9.22266
  0
LINE
  8
0
 10
78.6709
 20
9.22266
 11
78.6436
 21
9.20117
  0
LINE
  8
0
 10
78.6436
 20
9.20117
 11
78.6289
 21
9.19141
  0
LINE
  8
0
 10
78.6289
 20
9.19141
 11
78.6152
 21
9.18066
  0
LINE
  8
0
 10
78.6152
 20
9.18066
 11
78.5859
 21
9.16113
  0
LINE
  8
0
 10
78.5859
 20
9.16113
 11
78.5713
 21
9.15234
  0
LINE
  8
0
 10
78.5713
 20
9.15234
 11
78.5566
 21
9.14258
  0
LINE
  8
0
 10
78.5566
 20
9.14258
 11
78.541
 21
9.13379
  0
LINE
  8
0
 10
78.541
 20
9.13379
 11
78.5264
 21
9.125
  0
LINE
  8
0
 10
78.5264
 20
9.125
 11
78.4639
 21
9.09375
  0
LINE
  8
0
 10
78.4639
 20
9.09375
 11
78.4482
 21
9.08691
  0
LINE
  8
0
 10
78.4482
 20
9.08691
 11
78.4316
 21
9.0791
  0
LINE
  8
0
 10
78.4316
 20
9.0791
 11
78.416
 21
9.07324
  0
LINE
  8
0
 10
78.416
 20
9.07324
 11
78.3994
 21
9.06641
  0
LINE
  8
0
 10
78.3994
 20
9.06641
 11
78.3828
 21
9.06055
  0
LINE
  8
0
 10
78.3828
 20
9.06055
 11
78.3672
 21
9.05469
  0
LINE
  8
0
 10
78.3672
 20
9.05469
 11
78.3506
 21
9.04883
  0
LINE
  8
0
 10
78.3506
 20
9.04883
 11
78.3174
 21
9.03906
  0
LINE
  8
0
 10
78.3174
 20
9.03906
 11
78.2998
 21
9.03418
  0
LINE
  8
0
 10
78.2998
 20
9.03418
 11
78.2832
 21
9.0293
  0
LINE
  8
0
 10
78.2832
 20
9.0293
 11
78.2666
 21
9.02539
  0
LINE
  8
0
 10
78.2666
 20
9.02539
 11
78.249
 21
9.02148
  0
LINE
  8
0
 10
78.249
 20
9.02148
 11
78.2324
 21
9.01855
  0
LINE
  8
0
 10
78.2324
 20
9.01855
 11
78.1973
 21
9.0127
  0
LINE
  8
0
 10
78.1973
 20
9.0127
 11
78.1807
 21
9.00977
  0
LINE
  8
0
 10
78.1807
 20
9.00977
 11
78.1455
 21
9.00586
  0
LINE
  8
0
 10
78.1455
 20
9.00586
 11
78.1289
 21
9.00391
  0
LINE
  8
0
 10
78.1289
 20
9.00391
 11
78.1113
 21
9.00293
  0
LINE
  8
0
 10
78.1113
 20
9.00293
 11
78.0938
 21
9.00098
  0
LINE
  8
0
 10
78.0938
 20
9.00098
 11
78.0762
 21
9.00098
  0
LINE
  8
0
 10
78.0762
 20
9.00098
 11
78.0586
 21
9
  0
LINE
  8
0
 10
78.0586
 20
9
 11
65.5068
 21
8.99902
  0
LINE
  8
0
 10
65.5068
 20
8.99902
 11
65.4717
 21
9.00098
  0
LINE
  8
0
 10
86.4688
 20
15.5508
 11
86.4336
 21
15.5527
  0
LINE
  8
0
 10
86.4336
 20
15.5527
 11
86.416
 21
15.5547
  0
LINE
  8
0
 10
86.416
 20
15.5547
 11
86.3984
 21
15.5557
  0
LINE
  8
0
 10
86.3984
 20
15.5557
 11
86.3818
 21
15.5576
  0
LINE
  8
0
 10
86.3818
 20
15.5576
 11
86.3643
 21
15.5605
  0
LINE
  8
0
 10
86.3643
 20
15.5605
 11
86.3467
 21
15.5625
  0
LINE
  8
0
 10
86.3467
 20
15.5625
 11
86.3301
 21
15.5654
  0
LINE
  8
0
 10
86.3301
 20
15.5654
 11
86.3125
 21
15.5693
  0
LINE
  8
0
 10
86.3125
 20
15.5693
 11
86.2959
 21
15.5723
  0
LINE
  8
0
 10
86.2959
 20
15.5723
 11
86.2783
 21
15.5762
  0
LINE
  8
0
 10
86.2783
 20
15.5762
 11
86.2617
 21
15.5801
  0
LINE
  8
0
 10
86.2617
 20
15.5801
 11
86.2441
 21
15.585
  0
LINE
  8
0
 10
86.2441
 20
15.585
 11
86.2275
 21
15.5889
  0
LINE
  8
0
 10
86.2275
 20
15.5889
 11
86.2109
 21
15.5947
  0
LINE
  8
0
 10
86.2109
 20
15.5947
 11
86.1943
 21
15.5996
  0
LINE
  8
0
 10
86.1943
 20
15.5996
 11
86.1445
 21
15.6172
  0
LINE
  8
0
 10
86.1445
 20
15.6172
 11
86.1289
 21
15.623
  0
LINE
  8
0
 10
86.1289
 20
15.623
 11
86.1123
 21
15.6299
  0
LINE
  8
0
 10
86.1123
 20
15.6299
 11
86.0967
 21
15.6367
  0
LINE
  8
0
 10
86.0967
 20
15.6367
 11
86.0811
 21
15.6445
  0
LINE
  8
0
 10
86.0811
 20
15.6445
 11
86.0654
 21
15.6514
  0
LINE
  8
0
 10
86.0654
 20
15.6514
 11
86.0498
 21
15.6592
  0
LINE
  8
0
 10
86.0498
 20
15.6592
 11
86.0342
 21
15.668
  0
LINE
  8
0
 10
86.0342
 20
15.668
 11
86.0186
 21
15.6758
  0
LINE
  8
0
 10
86.0186
 20
15.6758
 11
86.0029
 21
15.6846
  0
LINE
  8
0
 10
86.0029
 20
15.6846
 11
85.9736
 21
15.7021
  0
LINE
  8
0
 10
85.9736
 20
15.7021
 11
85.9297
 21
15.7314
  0
LINE
  8
0
 10
85.9297
 20
15.7314
 11
85.916
 21
15.7412
  0
LINE
  8
0
 10
85.916
 20
15.7412
 11
85.9014
 21
15.752
  0
LINE
  8
0
 10
85.9014
 20
15.752
 11
85.8604
 21
15.7842
  0
LINE
  8
0
 10
85.8604
 20
15.7842
 11
85.8477
 21
15.7959
  0
LINE
  8
0
 10
85.8477
 20
15.7959
 11
85.834
 21
15.8076
  0
LINE
  8
0
 10
85.834
 20
15.8076
 11
85.8086
 21
15.8311
  0
LINE
  8
0
 10
85.8086
 20
15.8311
 11
85.7842
 21
15.8555
  0
LINE
  8
0
 10
85.7842
 20
15.8555
 11
85.7725
 21
15.8682
  0
LINE
  8
0
 10
85.7725
 20
15.8682
 11
85.7598
 21
15.8818
  0
LINE
  8
0
 10
85.7598
 20
15.8818
 11
85.749
 21
15.8945
  0
LINE
  8
0
 10
85.749
 20
15.8945
 11
85.7373
 21
15.9082
  0
LINE
  8
0
 10
85.7373
 20
15.9082
 11
85.7266
 21
15.9209
  0
LINE
  8
0
 10
85.7266
 20
15.9209
 11
85.7158
 21
15.9346
  0
LINE
  8
0
 10
85.7158
 20
15.9346
 11
85.7051
 21
15.9492
  0
LINE
  8
0
 10
85.7051
 20
15.9492
 11
85.6943
 21
15.9629
  0
LINE
  8
0
 10
85.6943
 20
15.9629
 11
85.6846
 21
15.9766
  0
LINE
  8
0
 10
85.6846
 20
15.9766
 11
85.6738
 21
15.9912
  0
LINE
  8
0
 10
85.6738
 20
15.9912
 11
85.665
 21
16.0059
  0
LINE
  8
0
 10
85.665
 20
16.0059
 11
85.6553
 21
16.0205
  0
LINE
  8
0
 10
85.6553
 20
16.0205
 11
85.6465
 21
16.0352
  0
LINE
  8
0
 10
85.6465
 20
16.0352
 11
85.6377
 21
16.0508
  0
LINE
  8
0
 10
85.6377
 20
16.0508
 11
85.6289
 21
16.0654
  0
LINE
  8
0
 10
85.6289
 20
16.0654
 11
85.6201
 21
16.0811
  0
LINE
  8
0
 10
85.6201
 20
16.0811
 11
85.5967
 21
16.1279
  0
LINE
  8
0
 10
85.5967
 20
16.1279
 11
85.5898
 21
16.1436
  0
LINE
  8
0
 10
85.5898
 20
16.1436
 11
85.583
 21
16.1602
  0
LINE
  8
0
 10
85.583
 20
16.1602
 11
85.5762
 21
16.1758
  0
LINE
  8
0
 10
85.5762
 20
16.1758
 11
85.5693
 21
16.1924
  0
LINE
  8
0
 10
85.5693
 20
16.1924
 11
85.5635
 21
16.209
  0
LINE
  8
0
 10
85.5635
 20
16.209
 11
85.5576
 21
16.2246
  0
LINE
  8
0
 10
85.5576
 20
16.2246
 11
85.5527
 21
16.2412
  0
LINE
  8
0
 10
85.5527
 20
16.2412
 11
85.5469
 21
16.2578
  0
LINE
  8
0
 10
85.5469
 20
16.2578
 11
85.542
 21
16.2754
  0
LINE
  8
0
 10
85.542
 20
16.2754
 11
85.5371
 21
16.292
  0
LINE
  8
0
 10
85.5371
 20
16.292
 11
85.5293
 21
16.3252
  0
LINE
  8
0
 10
85.5293
 20
16.3252
 11
85.5254
 21
16.3428
  0
LINE
  8
0
 10
85.5254
 20
16.3428
 11
85.5215
 21
16.3594
  0
LINE
  8
0
 10
85.5215
 20
16.3594
 11
85.5156
 21
16.3945
  0
LINE
  8
0
 10
85.5156
 20
16.3945
 11
85.5127
 21
16.4111
  0
LINE
  8
0
 10
85.5127
 20
16.4111
 11
85.5068
 21
16.4639
  0
LINE
  8
0
 10
85.5068
 20
16.4639
 11
85.5059
 21
16.4805
  0
LINE
  8
0
 10
85.5059
 20
16.4805
 11
85.5039
 21
16.5156
  0
LINE
  8
0
 10
85.5039
 20
16.5156
 11
85.5039
 21
16.5332
  0
LINE
  8
0
 10
85.5039
 20
16.5332
 11
85.5029
 21
16.5508
  0
LINE
  8
0
 10
85.5029
 20
16.5508
 11
85.5029
 21
24.5996
  0
LINE
  8
0
 10
85.5029
 20
24.5996
 11
85.5039
 21
24.6172
  0
LINE
  8
0
 10
85.5039
 20
24.6172
 11
85.5039
 21
24.6348
  0
LINE
  8
0
 10
85.5039
 20
24.6348
 11
85.5059
 21
24.6699
  0
LINE
  8
0
 10
85.5059
 20
24.6699
 11
85.5068
 21
24.6865
  0
LINE
  8
0
 10
85.5068
 20
24.6865
 11
85.5127
 21
24.7393
  0
LINE
  8
0
 10
85.5127
 20
24.7393
 11
85.5156
 21
24.7559
  0
LINE
  8
0
 10
85.5156
 20
24.7559
 11
85.5215
 21
24.791
  0
LINE
  8
0
 10
85.5215
 20
24.791
 11
85.5254
 21
24.8076
  0
LINE
  8
0
 10
85.5254
 20
24.8076
 11
85.5293
 21
24.8252
  0
LINE
  8
0
 10
85.5293
 20
24.8252
 11
85.5371
 21
24.8584
  0
LINE
  8
0
 10
85.5371
 20
24.8584
 11
85.542
 21
24.875
  0
LINE
  8
0
 10
85.542
 20
24.875
 11
85.5469
 21
24.8926
  0
LINE
  8
0
 10
85.5469
 20
24.8926
 11
85.5527
 21
24.9092
  0
LINE
  8
0
 10
85.5527
 20
24.9092
 11
85.5576
 21
24.9258
  0
LINE
  8
0
 10
85.5576
 20
24.9258
 11
85.5635
 21
24.9414
  0
LINE
  8
0
 10
85.5635
 20
24.9414
 11
85.5693
 21
24.958
  0
LINE
  8
0
 10
85.5693
 20
24.958
 11
85.5762
 21
24.9746
  0
LINE
  8
0
 10
85.5762
 20
24.9746
 11
85.583
 21
24.9902
  0
LINE
  8
0
 10
85.583
 20
24.9902
 11
85.5898
 21
25.0068
  0
LINE
  8
0
 10
85.5898
 20
25.0068
 11
85.5967
 21
25.0225
  0
LINE
  8
0
 10
85.5967
 20
25.0225
 11
85.6201
 21
25.0693
  0
LINE
  8
0
 10
85.6201
 20
25.0693
 11
85.6289
 21
25.085
  0
LINE
  8
0
 10
85.6289
 20
25.085
 11
85.6377
 21
25.0996
  0
LINE
  8
0
 10
85.6377
 20
25.0996
 11
85.6465
 21
25.1152
  0
LINE
  8
0
 10
85.6465
 20
25.1152
 11
85.6553
 21
25.1299
  0
LINE
  8
0
 10
85.6553
 20
25.1299
 11
85.665
 21
25.1445
  0
LINE
  8
0
 10
85.665
 20
25.1445
 11
85.6738
 21
25.1592
  0
LINE
  8
0
 10
85.6738
 20
25.1592
 11
85.6846
 21
25.1738
  0
LINE
  8
0
 10
85.6846
 20
25.1738
 11
85.6943
 21
25.1875
  0
LINE
  8
0
 10
85.6943
 20
25.1875
 11
85.7051
 21
25.2012
  0
LINE
  8
0
 10
85.7051
 20
25.2012
 11
85.7158
 21
25.2158
  0
LINE
  8
0
 10
85.7158
 20
25.2158
 11
85.7266
 21
25.2295
  0
LINE
  8
0
 10
85.7266
 20
25.2295
 11
85.7373
 21
25.2422
  0
LINE
  8
0
 10
85.7373
 20
25.2422
 11
85.749
 21
25.2559
  0
LINE
  8
0
 10
85.749
 20
25.2559
 11
85.7598
 21
25.2686
  0
LINE
  8
0
 10
85.7598
 20
25.2686
 11
85.7725
 21
25.2822
  0
LINE
  8
0
 10
85.7725
 20
25.2822
 11
85.7842
 21
25.2949
  0
LINE
  8
0
 10
85.7842
 20
25.2949
 11
85.8086
 21
25.3193
  0
LINE
  8
0
 10
85.8086
 20
25.3193
 11
85.834
 21
25.3428
  0
LINE
  8
0
 10
85.834
 20
25.3428
 11
85.8477
 21
25.3545
  0
LINE
  8
0
 10
85.8477
 20
25.3545
 11
85.8604
 21
25.3662
  0
LINE
  8
0
 10
85.8604
 20
25.3662
 11
85.9014
 21
25.3984
  0
LINE
  8
0
 10
85.9014
 20
25.3984
 11
85.916
 21
25.4092
  0
LINE
  8
0
 10
85.916
 20
25.4092
 11
85.9297
 21
25.4189
  0
LINE
  8
0
 10
85.9297
 20
25.4189
 11
85.9736
 21
25.4482
  0
LINE
  8
0
 10
85.9736
 20
25.4482
 11
86.0029
 21
25.4658
  0
LINE
  8
0
 10
86.0029
 20
25.4658
 11
86.0186
 21
25.4746
  0
LINE
  8
0
 10
86.0186
 20
25.4746
 11
86.0342
 21
25.4824
  0
LINE
  8
0
 10
86.0342
 20
25.4824
 11
86.0498
 21
25.4912
  0
LINE
  8
0
 10
86.0498
 20
25.4912
 11
86.0654
 21
25.499
  0
LINE
  8
0
 10
86.0654
 20
25.499
 11
86.0811
 21
25.5059
  0
LINE
  8
0
 10
86.0811
 20
25.5059
 11
86.0967
 21
25.5137
  0
LINE
  8
0
 10
86.0967
 20
25.5137
 11
86.1123
 21
25.5205
  0
LINE
  8
0
 10
86.1123
 20
25.5205
 11
86.1289
 21
25.5273
  0
LINE
  8
0
 10
86.1289
 20
25.5273
 11
86.1445
 21
25.5332
  0
LINE
  8
0
 10
86.1445
 20
25.5332
 11
86.1943
 21
25.5508
  0
LINE
  8
0
 10
86.1943
 20
25.5508
 11
86.2109
 21
25.5557
  0
LINE
  8
0
 10
86.2109
 20
25.5557
 11
86.2275
 21
25.5615
  0
LINE
  8
0
 10
86.2275
 20
25.5615
 11
86.2441
 21
25.5654
  0
LINE
  8
0
 10
86.2441
 20
25.5654
 11
86.2617
 21
25.5703
  0
LINE
  8
0
 10
86.2617
 20
25.5703
 11
86.2783
 21
25.5742
  0
LINE
  8
0
 10
86.2783
 20
25.5742
 11
86.2959
 21
25.5781
  0
LINE
  8
0
 10
86.2959
 20
25.5781
 11
86.3125
 21
25.5811
  0
LINE
  8
0
 10
86.3125
 20
25.5811
 11
86.3301
 21
25.585
  0
LINE
  8
0
 10
86.3301
 20
25.585
 11
86.3467
 21
25.5879
  0
LINE
  8
0
 10
86.3467
 20
25.5879
 11
86.3643
 21
25.5898
  0
LINE
  8
0
 10
86.3643
 20
25.5898
 11
86.3818
 21
25.5928
  0
LINE
  8
0
 10
86.3818
 20
25.5928
 11
86.3984
 21
25.5947
  0
LINE
  8
0
 10
86.3984
 20
25.5947
 11
86.416
 21
25.5957
  0
LINE
  8
0
 10
86.416
 20
25.5957
 11
86.4336
 21
25.5977
  0
LINE
  8
0
 10
86.4336
 20
25.5977
 11
86.4688
 21
25.5996
  0
LINE
  8
0
 10
86.4688
 20
25.5996
 11
93.0352
 21
25.5996
  0
LINE
  8
0
 10
93.0352
 20
25.5996
 11
93.0527
 21
25.5986
  0
LINE
  8
0
 10
93.0527
 20
25.5986
 11
93.0693
 21
25.5977
  0
LINE
  8
0
 10
93.0693
 20
25.5977
 11
93.0869
 21
25.5957
  0
LINE
  8
0
 10
93.0869
 20
25.5957
 11
93.1045
 21
25.5947
  0
LINE
  8
0
 10
93.1045
 20
25.5947
 11
93.1221
 21
25.5928
  0
LINE
  8
0
 10
93.1221
 20
25.5928
 11
93.1396
 21
25.5898
  0
LINE
  8
0
 10
93.1396
 20
25.5898
 11
93.1562
 21
25.5879
  0
LINE
  8
0
 10
93.1562
 20
25.5879
 11
93.1738
 21
25.585
  0
LINE
  8
0
 10
93.1738
 20
25.585
 11
93.1904
 21
25.5811
  0
LINE
  8
0
 10
93.1904
 20
25.5811
 11
93.208
 21
25.5781
  0
LINE
  8
0
 10
93.208
 20
25.5781
 11
93.2246
 21
25.5742
  0
LINE
  8
0
 10
93.2246
 20
25.5742
 11
93.2422
 21
25.5703
  0
LINE
  8
0
 10
93.2422
 20
25.5703
 11
93.2588
 21
25.5654
  0
LINE
  8
0
 10
93.2588
 20
25.5654
 11
93.2754
 21
25.5615
  0
LINE
  8
0
 10
93.2754
 20
25.5615
 11
93.292
 21
25.5557
  0
LINE
  8
0
 10
93.292
 20
25.5557
 11
93.3086
 21
25.5508
  0
LINE
  8
0
 10
93.3086
 20
25.5508
 11
93.375
 21
25.5273
  0
LINE
  8
0
 10
93.375
 20
25.5273
 11
93.4062
 21
25.5137
  0
LINE
  8
0
 10
93.4062
 20
25.5137
 11
93.4229
 21
25.5059
  0
LINE
  8
0
 10
93.4229
 20
25.5059
 11
93.4385
 21
25.499
  0
LINE
  8
0
 10
93.4385
 20
25.499
 11
93.4541
 21
25.4912
  0
LINE
  8
0
 10
93.4541
 20
25.4912
 11
93.4697
 21
25.4824
  0
LINE
  8
0
 10
93.4697
 20
25.4824
 11
93.4844
 21
25.4746
  0
LINE
  8
0
 10
93.4844
 20
25.4746
 11
93.5
 21
25.4658
  0
LINE
  8
0
 10
93.5
 20
25.4658
 11
93.5146
 21
25.457
  0
LINE
  8
0
 10
93.5146
 20
25.457
 11
93.5303
 21
25.4482
  0
LINE
  8
0
 10
93.5303
 20
25.4482
 11
93.5596
 21
25.4287
  0
LINE
  8
0
 10
93.5596
 20
25.4287
 11
93.5732
 21
25.4189
  0
LINE
  8
0
 10
93.5732
 20
25.4189
 11
93.5879
 21
25.4092
  0
LINE
  8
0
 10
93.5879
 20
25.4092
 11
93.6426
 21
25.3662
  0
LINE
  8
0
 10
93.6426
 20
25.3662
 11
93.6562
 21
25.3545
  0
LINE
  8
0
 10
93.6562
 20
25.3545
 11
93.6943
 21
25.3193
  0
LINE
  8
0
 10
93.6943
 20
25.3193
 11
93.707
 21
25.3066
  0
LINE
  8
0
 10
93.707
 20
25.3066
 11
93.7197
 21
25.2949
  0
LINE
  8
0
 10
93.7197
 20
25.2949
 11
93.7314
 21
25.2822
  0
LINE
  8
0
 10
93.7314
 20
25.2822
 11
93.7432
 21
25.2686
  0
LINE
  8
0
 10
93.7432
 20
25.2686
 11
93.7549
 21
25.2559
  0
LINE
  8
0
 10
93.7549
 20
25.2559
 11
93.7656
 21
25.2422
  0
LINE
  8
0
 10
93.7656
 20
25.2422
 11
93.7773
 21
25.2295
  0
LINE
  8
0
 10
93.7773
 20
25.2295
 11
93.7881
 21
25.2158
  0
LINE
  8
0
 10
93.7881
 20
25.2158
 11
93.7988
 21
25.2012
  0
LINE
  8
0
 10
93.7988
 20
25.2012
 11
93.8086
 21
25.1875
  0
LINE
  8
0
 10
93.8086
 20
25.1875
 11
93.8193
 21
25.1738
  0
LINE
  8
0
 10
93.8193
 20
25.1738
 11
93.8389
 21
25.1445
  0
LINE
  8
0
 10
93.8389
 20
25.1445
 11
93.8477
 21
25.1299
  0
LINE
  8
0
 10
93.8477
 20
25.1299
 11
93.8574
 21
25.1152
  0
LINE
  8
0
 10
93.8574
 20
25.1152
 11
93.8662
 21
25.0996
  0
LINE
  8
0
 10
93.8662
 20
25.0996
 11
93.875
 21
25.085
  0
LINE
  8
0
 10
93.875
 20
25.085
 11
93.9062
 21
25.0225
  0
LINE
  8
0
 10
93.9062
 20
25.0225
 11
93.9131
 21
25.0068
  0
LINE
  8
0
 10
93.9131
 20
25.0068
 11
93.9209
 21
24.9902
  0
LINE
  8
0
 10
93.9209
 20
24.9902
 11
93.9268
 21
24.9746
  0
LINE
  8
0
 10
93.9268
 20
24.9746
 11
93.9336
 21
24.958
  0
LINE
  8
0
 10
93.9336
 20
24.958
 11
93.9395
 21
24.9414
  0
LINE
  8
0
 10
93.9395
 20
24.9414
 11
93.9453
 21
24.9258
  0
LINE
  8
0
 10
93.9453
 20
24.9258
 11
93.9512
 21
24.9092
  0
LINE
  8
0
 10
93.9512
 20
24.9092
 11
93.9561
 21
24.8926
  0
LINE
  8
0
 10
93.9561
 20
24.8926
 11
93.9609
 21
24.875
  0
LINE
  8
0
 10
93.9609
 20
24.875
 11
93.9707
 21
24.8418
  0
LINE
  8
0
 10
93.9707
 20
24.8418
 11
93.9746
 21
24.8252
  0
LINE
  8
0
 10
93.9746
 20
24.8252
 11
93.9785
 21
24.8076
  0
LINE
  8
0
 10
93.9785
 20
24.8076
 11
93.9814
 21
24.791
  0
LINE
  8
0
 10
93.9814
 20
24.791
 11
93.9873
 21
24.7559
  0
LINE
  8
0
 10
93.9873
 20
24.7559
 11
93.9902
 21
24.7393
  0
LINE
  8
0
 10
93.9902
 20
24.7393
 11
93.9961
 21
24.6865
  0
LINE
  8
0
 10
93.9961
 20
24.6865
 11
93.998
 21
24.6699
  0
LINE
  8
0
 10
93.998
 20
24.6699
 11
93.999
 21
24.6523
  0
LINE
  8
0
 10
93.999
 20
24.6523
 11
93.999
 21
24.6348
  0
LINE
  8
0
 10
93.999
 20
24.6348
 11
94
 21
24.6172
  0
LINE
  8
0
 10
94
 20
24.6172
 11
94
 21
16.5332
  0
LINE
  8
0
 10
94
 20
16.5332
 11
93.999
 21
16.5156
  0
LINE
  8
0
 10
93.999
 20
16.5156
 11
93.999
 21
16.498
  0
LINE
  8
0
 10
93.999
 20
16.498
 11
93.998
 21
16.4805
  0
LINE
  8
0
 10
93.998
 20
16.4805
 11
93.9961
 21
16.4639
  0
LINE
  8
0
 10
93.9961
 20
16.4639
 11
93.9902
 21
16.4111
  0
LINE
  8
0
 10
93.9902
 20
16.4111
 11
93.9873
 21
16.3945
  0
LINE
  8
0
 10
93.9873
 20
16.3945
 11
93.9814
 21
16.3594
  0
LINE
  8
0
 10
93.9814
 20
16.3594
 11
93.9785
 21
16.3428
  0
LINE
  8
0
 10
93.9785
 20
16.3428
 11
93.9746
 21
16.3252
  0
LINE
  8
0
 10
93.9746
 20
16.3252
 11
93.9707
 21
16.3086
  0
LINE
  8
0
 10
93.9707
 20
16.3086
 11
93.9609
 21
16.2754
  0
LINE
  8
0
 10
93.9609
 20
16.2754
 11
93.9561
 21
16.2578
  0
LINE
  8
0
 10
93.9561
 20
16.2578
 11
93.9512
 21
16.2412
  0
LINE
  8
0
 10
93.9512
 20
16.2412
 11
93.9453
 21
16.2246
  0
LINE
  8
0
 10
93.9453
 20
16.2246
 11
93.9395
 21
16.209
  0
LINE
  8
0
 10
93.9395
 20
16.209
 11
93.9336
 21
16.1924
  0
LINE
  8
0
 10
93.9336
 20
16.1924
 11
93.9268
 21
16.1758
  0
LINE
  8
0
 10
93.9268
 20
16.1758
 11
93.9209
 21
16.1602
  0
LINE
  8
0
 10
93.9209
 20
16.1602
 11
93.9131
 21
16.1436
  0
LINE
  8
0
 10
93.9131
 20
16.1436
 11
93.9062
 21
16.1279
  0
LINE
  8
0
 10
93.9062
 20
16.1279
 11
93.875
 21
16.0654
  0
LINE
  8
0
 10
93.875
 20
16.0654
 11
93.8662
 21
16.0508
  0
LINE
  8
0
 10
93.8662
 20
16.0508
 11
93.8574
 21
16.0352
  0
LINE
  8
0
 10
93.8574
 20
16.0352
 11
93.8477
 21
16.0205
  0
LINE
  8
0
 10
93.8477
 20
16.0205
 11
93.8389
 21
16.0059
  0
LINE
  8
0
 10
93.8389
 20
16.0059
 11
93.8193
 21
15.9766
  0
LINE
  8
0
 10
93.8193
 20
15.9766
 11
93.8086
 21
15.9629
  0
LINE
  8
0
 10
93.8086
 20
15.9629
 11
93.7988
 21
15.9492
  0
LINE
  8
0
 10
93.7988
 20
15.9492
 11
93.7881
 21
15.9346
  0
LINE
  8
0
 10
93.7881
 20
15.9346
 11
93.7773
 21
15.9209
  0
LINE
  8
0
 10
93.7773
 20
15.9209
 11
93.7656
 21
15.9082
  0
LINE
  8
0
 10
93.7656
 20
15.9082
 11
93.7549
 21
15.8945
  0
LINE
  8
0
 10
93.7549
 20
15.8945
 11
93.7432
 21
15.8818
  0
LINE
  8
0
 10
93.7432
 20
15.8818
 11
93.7314
 21
15.8682
  0
LINE
  8
0
 10
93.7314
 20
15.8682
 11
93.7197
 21
15.8555
  0
LINE
  8
0
 10
93.7197
 20
15.8555
 11
93.707
 21
15.8438
  0
LINE
  8
0
 10
93.707
 20
15.8438
 11
93.6943
 21
15.8311
  0
LINE
  8
0
 10
93.6943
 20
15.8311
 11
93.6562
 21
15.7959
  0
LINE
  8
0
 10
93.6562
 20
15.7959
 11
93.6426
 21
15.7842
  0
LINE
  8
0
 10
93.6426
 20
15.7842
 11
93.5879
 21
15.7412
  0
LINE
  8
0
 10
93.5879
 20
15.7412
 11
93.5732
 21
15.7314
  0
LINE
  8
0
 10
93.5732
 20
15.7314
 11
93.5596
 21
15.7217
  0
LINE
  8
0
 10
93.5596
 20
15.7217
 11
93.5303
 21
15.7021
  0
LINE
  8
0
 10
93.5303
 20
15.7021
 11
93.5146
 21
15.6934
  0
LINE
  8
0
 10
93.5146
 20
15.6934
 11
93.5
 21
15.6846
  0
LINE
  8
0
 10
93.5
 20
15.6846
 11
93.4844
 21
15.6758
  0
LINE
  8
0
 10
93.4844
 20
15.6758
 11
93.4697
 21
15.668
  0
LINE
  8
0
 10
93.4697
 20
15.668
 11
93.4541
 21
15.6592
  0
LINE
  8
0
 10
93.4541
 20
15.6592
 11
93.4385
 21
15.6514
  0
LINE
  8
0
 10
93.4385
 20
15.6514
 11
93.4229
 21
15.6445
  0
LINE
  8
0
 10
93.4229
 20
15.6445
 11
93.4062
 21
15.6367
  0
LINE
  8
0
 10
93.4062
 20
15.6367
 11
93.375
 21
15.623
  0
LINE
  8
0
 10
93.375
 20
15.623
 11
93.3086
 21
15.5996
  0
LINE
  8
0
 10
93.3086
 20
15.5996
 11
93.292
 21
15.5947
  0
LINE
  8
0
 10
93.292
 20
15.5947
 11
93.2754
 21
15.5889
  0
LINE
  8
0
 10
93.2754
 20
15.5889
 11
93.2588
 21
15.585
  0
LINE
  8
0
 10
93.2588
 20
15.585
 11
93.2422
 21
15.5801
  0
LINE
  8
0
 10
93.2422
 20
15.5801
 11
93.2246
 21
15.5762
  0
LINE
  8
0
 10
93.2246
 20
15.5762
 11
93.208
 21
15.5723
  0
LINE
  8
0
 10
93.208
 20
15.5723
 11
93.1904
 21
15.5693
  0
LINE
  8
0
 10
93.1904
 20
15.5693
 11
93.1738
 21
15.5654
  0
LINE
  8
0
 10
93.1738
 20
15.5654
 11
93.1562
 21
15.5625
  0
LINE
  8
0
 10
93.1562
 20
15.5625
 11
93.1396
 21
15.5605
  0
LINE
  8
0
 10
93.1396
 20
15.5605
 11
93.1221
 21
15.5576
  0
LINE
  8
0
 10
93.1221
 20
15.5576
 11
93.1045
 21
15.5557
  0
LINE
  8
0
 10
93.1045
 20
15.5557
 11
93.0869
 21
15.5547
  0
LINE
  8
0
 10
93.0869
 20
15.5547
 11
93.0693
 21
15.5527
  0
LINE
  8
0
 10
93.0693
 20
15.5527
 11
93.0527
 21
15.5518
  0
LINE
  8
0
 10
93.0527
 20
15.5518
 11
93.0352
 21
15.5508
  0
LINE
  8
0
 10
93.0352
 20
15.5508
 11
86.4688
 21
15.5508
  0
LINE
  8
0
 10
9.04102
 20
11.5
 11
9.02441
 21
11.501
  0
LINE
  8
0
 10
9.02441
 20
11.501
 11
9.00684
 21
11.501
  0
LINE
  8
0
 10
9.00684
 20
11.501
 11
8.98926
 21
11.502
  0
LINE
  8
0
 10
8.98926
 20
11.502
 11
8.93652
 21
11.5078
  0
LINE
  8
0
 10
8.93652
 20
11.5078
 11
8.91992
 21
11.5098
  0
LINE
  8
0
 10
8.91992
 20
11.5098
 11
8.88477
 21
11.5156
  0
LINE
  8
0
 10
8.88477
 20
11.5156
 11
8.86816
 21
11.5186
  0
LINE
  8
0
 10
8.86816
 20
11.5186
 11
8.85059
 21
11.5215
  0
LINE
  8
0
 10
8.85059
 20
11.5215
 11
8.81738
 21
11.5293
  0
LINE
  8
0
 10
8.81738
 20
11.5293
 11
8.7998
 21
11.5342
  0
LINE
  8
0
 10
8.7998
 20
11.5342
 11
8.75
 21
11.5488
  0
LINE
  8
0
 10
8.75
 20
11.5488
 11
8.7002
 21
11.5664
  0
LINE
  8
0
 10
8.7002
 20
11.5664
 11
8.68457
 21
11.5732
  0
LINE
  8
0
 10
8.68457
 20
11.5732
 11
8.66797
 21
11.5791
  0
LINE
  8
0
 10
8.66797
 20
11.5791
 11
8.65234
 21
11.5869
  0
LINE
  8
0
 10
8.65234
 20
11.5869
 11
8.63672
 21
11.5938
  0
LINE
  8
0
 10
8.63672
 20
11.5938
 11
8.62012
 21
11.6016
  0
LINE
  8
0
 10
8.62012
 20
11.6016
 11
8.60449
 21
11.6094
  0
LINE
  8
0
 10
8.60449
 20
11.6094
 11
8.58984
 21
11.6172
  0
LINE
  8
0
 10
8.58984
 20
11.6172
 11
8.57422
 21
11.625
  0
LINE
  8
0
 10
8.57422
 20
11.625
 11
8.55859
 21
11.6338
  0
LINE
  8
0
 10
8.55859
 20
11.6338
 11
8.54395
 21
11.6426
  0
LINE
  8
0
 10
8.54395
 20
11.6426
 11
8.5293
 21
11.6523
  0
LINE
  8
0
 10
8.5293
 20
11.6523
 11
8.51465
 21
11.6611
  0
LINE
  8
0
 10
8.51465
 20
11.6611
 11
8.48535
 21
11.6807
  0
LINE
  8
0
 10
8.48535
 20
11.6807
 11
8.4707
 21
11.6914
  0
LINE
  8
0
 10
8.4707
 20
11.6914
 11
8.45703
 21
11.7012
  0
LINE
  8
0
 10
8.45703
 20
11.7012
 11
8.42969
 21
11.7227
  0
LINE
  8
0
 10
8.42969
 20
11.7227
 11
8.41602
 21
11.7344
  0
LINE
  8
0
 10
8.41602
 20
11.7344
 11
8.40234
 21
11.7451
  0
LINE
  8
0
 10
8.40234
 20
11.7451
 11
8.36426
 21
11.7803
  0
LINE
  8
0
 10
8.36426
 20
11.7803
 11
8.35156
 21
11.793
  0
LINE
  8
0
 10
8.35156
 20
11.793
 11
8.33984
 21
11.8057
  0
LINE
  8
0
 10
8.33984
 20
11.8057
 11
8.32715
 21
11.8184
  0
LINE
  8
0
 10
8.32715
 20
11.8184
 11
8.30371
 21
11.8438
  0
LINE
  8
0
 10
8.30371
 20
11.8438
 11
8.29297
 21
11.8574
  0
LINE
  8
0
 10
8.29297
 20
11.8574
 11
8.28125
 21
11.8711
  0
LINE
  8
0
 10
8.28125
 20
11.8711
 11
8.25977
 21
11.8984
  0
LINE
  8
0
 10
8.25977
 20
11.8984
 11
8.25
 21
11.9121
  0
LINE
  8
0
 10
8.25
 20
11.9121
 11
8.23926
 21
11.9268
  0
LINE
  8
0
 10
8.23926
 20
11.9268
 11
8.22949
 21
11.9404
  0
LINE
  8
0
 10
8.22949
 20
11.9404
 11
8.21973
 21
11.9551
  0
LINE
  8
0
 10
8.21973
 20
11.9551
 11
8.21094
 21
11.9697
  0
LINE
  8
0
 10
8.21094
 20
11.9697
 11
8.20215
 21
11.9854
  0
LINE
  8
0
 10
8.20215
 20
11.9854
 11
8.19238
 21
12
  0
LINE
  8
0
 10
8.19238
 20
12
 11
8.18457
 21
12.0156
  0
LINE
  8
0
 10
8.18457
 20
12.0156
 11
8.17578
 21
12.0303
  0
LINE
  8
0
 10
8.17578
 20
12.0303
 11
8.15234
 21
12.0771
  0
LINE
  8
0
 10
8.15234
 20
12.0771
 11
8.14551
 21
12.0938
  0
LINE
  8
0
 10
8.14551
 20
12.0938
 11
8.13184
 21
12.125
  0
LINE
  8
0
 10
8.13184
 20
12.125
 11
8.125
 21
12.1416
  0
LINE
  8
0
 10
8.125
 20
12.1416
 11
8.10742
 21
12.1914
  0
LINE
  8
0
 10
8.10742
 20
12.1914
 11
8.09277
 21
12.2412
  0
LINE
  8
0
 10
8.09277
 20
12.2412
 11
8.08887
 21
12.2578
  0
LINE
  8
0
 10
8.08887
 20
12.2578
 11
8.08496
 21
12.2754
  0
LINE
  8
0
 10
8.08496
 20
12.2754
 11
8.08105
 21
12.292
  0
LINE
  8
0
 10
8.08105
 20
12.292
 11
8.07715
 21
12.3096
  0
LINE
  8
0
 10
8.07715
 20
12.3096
 11
8.07422
 21
12.3262
  0
LINE
  8
0
 10
8.07422
 20
12.3262
 11
8.07129
 21
12.3438
  0
LINE
  8
0
 10
8.07129
 20
12.3438
 11
8.06836
 21
12.3604
  0
LINE
  8
0
 10
8.06836
 20
12.3604
 11
8.0625
 21
12.4131
  0
LINE
  8
0
 10
8.0625
 20
12.4131
 11
8.06152
 21
12.4307
  0
LINE
  8
0
 10
8.06152
 20
12.4307
 11
8.06055
 21
12.4473
  0
LINE
  8
0
 10
8.06055
 20
12.4473
 11
8.05859
 21
12.4824
  0
LINE
  8
0
 10
8.05859
 20
12.4824
 11
8.04785
 21
24.001
  0
LINE
  8
0
 10
8.04785
 20
24.001
 11
8.04785
 21
24.0361
  0
LINE
  8
0
 10
8.04785
 20
24.0361
 11
8.0498
 21
24.0713
  0
LINE
  8
0
 10
8.0498
 20
24.0713
 11
8.05176
 21
24.0889
  0
LINE
  8
0
 10
8.05176
 20
24.0889
 11
8.05273
 21
24.1055
  0
LINE
  8
0
 10
8.05273
 20
24.1055
 11
8.05469
 21
24.123
  0
LINE
  8
0
 10
8.05469
 20
24.123
 11
8.05762
 21
24.1406
  0
LINE
  8
0
 10
8.05762
 20
24.1406
 11
8.05957
 21
24.1582
  0
LINE
  8
0
 10
8.05957
 20
24.1582
 11
8.0625
 21
24.1748
  0
LINE
  8
0
 10
8.0625
 20
24.1748
 11
8.06641
 21
24.1924
  0
LINE
  8
0
 10
8.06641
 20
24.1924
 11
8.06934
 21
24.209
  0
LINE
  8
0
 10
8.06934
 20
24.209
 11
8.07324
 21
24.2266
  0
LINE
  8
0
 10
8.07324
 20
24.2266
 11
8.07715
 21
24.2432
  0
LINE
  8
0
 10
8.07715
 20
24.2432
 11
8.08203
 21
24.2598
  0
LINE
  8
0
 10
8.08203
 20
24.2598
 11
8.08594
 21
24.2773
  0
LINE
  8
0
 10
8.08594
 20
24.2773
 11
8.09082
 21
24.2939
  0
LINE
  8
0
 10
8.09082
 20
24.2939
 11
8.10254
 21
24.3271
  0
LINE
  8
0
 10
8.10254
 20
24.3271
 11
8.10742
 21
24.3438
  0
LINE
  8
0
 10
8.10742
 20
24.3438
 11
8.11426
 21
24.3594
  0
LINE
  8
0
 10
8.11426
 20
24.3594
 11
8.12012
 21
24.376
  0
LINE
  8
0
 10
8.12012
 20
24.376
 11
8.12695
 21
24.3916
  0
LINE
  8
0
 10
8.12695
 20
24.3916
 11
8.13379
 21
24.4082
  0
LINE
  8
0
 10
8.13379
 20
24.4082
 11
8.1416
 21
24.4238
  0
LINE
  8
0
 10
8.1416
 20
24.4238
 11
8.14844
 21
24.4395
  0
LINE
  8
0
 10
8.14844
 20
24.4395
 11
8.15625
 21
24.4551
  0
LINE
  8
0
 10
8.15625
 20
24.4551
 11
8.16504
 21
24.4707
  0
LINE
  8
0
 10
8.16504
 20
24.4707
 11
8.17285
 21
24.4863
  0
LINE
  8
0
 10
8.17285
 20
24.4863
 11
8.18164
 21
24.501
  0
LINE
  8
0
 10
8.18164
 20
24.501
 11
8.19043
 21
24.5166
  0
LINE
  8
0
 10
8.19043
 20
24.5166
 11
8.19922
 21
24.5312
  0
LINE
  8
0
 10
8.19922
 20
24.5312
 11
8.22852
 21
24.5752
  0
LINE
  8
0
 10
8.22852
 20
24.5752
 11
8.23828
 21
24.5889
  0
LINE
  8
0
 10
8.23828
 20
24.5889
 11
8.24902
 21
24.6035
  0
LINE
  8
0
 10
8.24902
 20
24.6035
 11
8.28125
 21
24.6445
  0
LINE
  8
0
 10
8.28125
 20
24.6445
 11
8.29297
 21
24.6572
  0
LINE
  8
0
 10
8.29297
 20
24.6572
 11
8.30469
 21
24.6709
  0
LINE
  8
0
 10
8.30469
 20
24.6709
 11
8.32812
 21
24.6963
  0
LINE
  8
0
 10
8.32812
 20
24.6963
 11
8.34082
 21
24.708
  0
LINE
  8
0
 10
8.34082
 20
24.708
 11
8.35254
 21
24.7207
  0
LINE
  8
0
 10
8.35254
 20
24.7207
 11
8.36523
 21
24.7324
  0
LINE
  8
0
 10
8.36523
 20
24.7324
 11
8.37891
 21
24.7441
  0
LINE
  8
0
 10
8.37891
 20
24.7441
 11
8.3916
 21
24.7559
  0
LINE
  8
0
 10
8.3916
 20
24.7559
 11
8.40527
 21
24.7676
  0
LINE
  8
0
 10
8.40527
 20
24.7676
 11
8.41797
 21
24.7783
  0
LINE
  8
0
 10
8.41797
 20
24.7783
 11
8.44531
 21
24.7998
  0
LINE
  8
0
 10
8.44531
 20
24.7998
 11
8.45996
 21
24.8105
  0
LINE
  8
0
 10
8.45996
 20
24.8105
 11
8.47363
 21
24.8203
  0
LINE
  8
0
 10
8.47363
 20
24.8203
 11
8.51758
 21
24.8496
  0
LINE
  8
0
 10
8.51758
 20
24.8496
 11
8.53223
 21
24.8584
  0
LINE
  8
0
 10
8.53223
 20
24.8584
 11
8.54785
 21
24.8672
  0
LINE
  8
0
 10
8.54785
 20
24.8672
 11
8.5625
 21
24.876
  0
LINE
  8
0
 10
8.5625
 20
24.876
 11
8.57812
 21
24.8838
  0
LINE
  8
0
 10
8.57812
 20
24.8838
 11
8.59375
 21
24.8926
  0
LINE
  8
0
 10
8.59375
 20
24.8926
 11
8.60938
 21
24.9004
  0
LINE
  8
0
 10
8.60938
 20
24.9004
 11
8.625
 21
24.9072
  0
LINE
  8
0
 10
8.625
 20
24.9072
 11
8.64062
 21
24.915
  0
LINE
  8
0
 10
8.64062
 20
24.915
 11
8.65723
 21
24.9219
  0
LINE
  8
0
 10
8.65723
 20
24.9219
 11
8.67285
 21
24.9287
  0
LINE
  8
0
 10
8.67285
 20
24.9287
 11
8.68945
 21
24.9346
  0
LINE
  8
0
 10
8.68945
 20
24.9346
 11
8.70508
 21
24.9414
  0
LINE
  8
0
 10
8.70508
 20
24.9414
 11
8.72168
 21
24.9473
  0
LINE
  8
0
 10
8.72168
 20
24.9473
 11
8.73828
 21
24.9521
  0
LINE
  8
0
 10
8.73828
 20
24.9521
 11
8.75488
 21
24.958
  0
LINE
  8
0
 10
8.75488
 20
24.958
 11
8.77148
 21
24.9629
  0
LINE
  8
0
 10
8.77148
 20
24.9629
 11
8.78906
 21
24.9668
  0
LINE
  8
0
 10
8.78906
 20
24.9668
 11
8.80566
 21
24.9717
  0
LINE
  8
0
 10
8.80566
 20
24.9717
 11
8.82227
 21
24.9756
  0
LINE
  8
0
 10
8.82227
 20
24.9756
 11
8.83984
 21
24.9795
  0
LINE
  8
0
 10
8.83984
 20
24.9795
 11
8.85645
 21
24.9834
  0
LINE
  8
0
 10
8.85645
 20
24.9834
 11
8.8916
 21
24.9893
  0
LINE
  8
0
 10
8.8916
 20
24.9893
 11
8.9082
 21
24.9912
  0
LINE
  8
0
 10
8.9082
 20
24.9912
 11
8.92578
 21
24.9941
  0
LINE
  8
0
 10
8.92578
 20
24.9941
 11
8.94336
 21
24.9961
  0
LINE
  8
0
 10
8.94336
 20
24.9961
 11
8.95996
 21
24.9971
  0
LINE
  8
0
 10
8.95996
 20
24.9971
 11
8.97754
 21
24.999
  0
LINE
  8
0
 10
8.97754
 20
24.999
 11
9.0127
 21
25.001
  0
LINE
  8
0
 10
9.0127
 20
25.001
 11
22.541
 21
25.002
  0
LINE
  8
0
 10
22.541
 20
25.002
 11
22.5586
 21
25.001
  0
LINE
  8
0
 10
22.5586
 20
25.001
 11
22.5762
 21
25.001
  0
LINE
  8
0
 10
22.5762
 20
25.001
 11
22.6289
 21
24.998
  0
LINE
  8
0
 10
22.6289
 20
24.998
 11
22.6455
 21
24.9961
  0
LINE
  8
0
 10
22.6455
 20
24.9961
 11
22.6807
 21
24.9922
  0
LINE
  8
0
 10
22.6807
 20
24.9922
 11
22.6982
 21
24.9893
  0
LINE
  8
0
 10
22.6982
 20
24.9893
 11
22.7148
 21
24.9863
  0
LINE
  8
0
 10
22.7148
 20
24.9863
 11
22.7324
 21
24.9834
  0
LINE
  8
0
 10
22.7324
 20
24.9834
 11
22.749
 21
24.9795
  0
LINE
  8
0
 10
22.749
 20
24.9795
 11
22.7666
 21
24.9756
  0
LINE
  8
0
 10
22.7666
 20
24.9756
 11
22.7998
 21
24.9678
  0
LINE
  8
0
 10
22.7998
 20
24.9678
 11
22.8174
 21
24.9629
  0
LINE
  8
0
 10
22.8174
 20
24.9629
 11
22.834
 21
24.958
  0
LINE
  8
0
 10
22.834
 20
24.958
 11
22.8506
 21
24.9521
  0
LINE
  8
0
 10
22.8506
 20
24.9521
 11
22.8672
 21
24.9473
  0
LINE
  8
0
 10
22.8672
 20
24.9473
 11
22.8838
 21
24.9414
  0
LINE
  8
0
 10
22.8838
 20
24.9414
 11
22.8994
 21
24.9346
  0
LINE
  8
0
 10
22.8994
 20
24.9346
 11
22.916
 21
24.9287
  0
LINE
  8
0
 10
22.916
 20
24.9287
 11
22.9326
 21
24.9219
  0
LINE
  8
0
 10
22.9326
 20
24.9219
 11
22.9639
 21
24.9082
  0
LINE
  8
0
 10
22.9639
 20
24.9082
 11
23.0107
 21
24.8848
  0
LINE
  8
0
 10
23.0107
 20
24.8848
 11
23.0264
 21
24.876
  0
LINE
  8
0
 10
23.0264
 20
24.876
 11
23.041
 21
24.8672
  0
LINE
  8
0
 10
23.041
 20
24.8672
 11
23.0566
 21
24.8584
  0
LINE
  8
0
 10
23.0566
 20
24.8584
 11
23.0713
 21
24.8496
  0
LINE
  8
0
 10
23.0713
 20
24.8496
 11
23.1152
 21
24.8203
  0
LINE
  8
0
 10
23.1152
 20
24.8203
 11
23.1289
 21
24.8105
  0
LINE
  8
0
 10
23.1289
 20
24.8105
 11
23.1436
 21
24.7998
  0
LINE
  8
0
 10
23.1436
 20
24.7998
 11
23.1846
 21
24.7676
  0
LINE
  8
0
 10
23.1846
 20
24.7676
 11
23.1973
 21
24.7559
  0
LINE
  8
0
 10
23.1973
 20
24.7559
 11
23.2109
 21
24.7441
  0
LINE
  8
0
 10
23.2109
 20
24.7441
 11
23.249
 21
24.709
  0
LINE
  8
0
 10
23.249
 20
24.709
 11
23.2842
 21
24.6709
  0
LINE
  8
0
 10
23.2842
 20
24.6709
 11
23.2959
 21
24.6572
  0
LINE
  8
0
 10
23.2959
 20
24.6572
 11
23.3076
 21
24.6445
  0
LINE
  8
0
 10
23.3076
 20
24.6445
 11
23.3398
 21
24.6035
  0
LINE
  8
0
 10
23.3398
 20
24.6035
 11
23.3506
 21
24.5889
  0
LINE
  8
0
 10
23.3506
 20
24.5889
 11
23.3604
 21
24.5752
  0
LINE
  8
0
 10
23.3604
 20
24.5752
 11
23.3896
 21
24.5312
  0
LINE
  8
0
 10
23.3896
 20
24.5312
 11
23.4072
 21
24.502
  0
LINE
  8
0
 10
23.4072
 20
24.502
 11
23.4248
 21
24.4707
  0
LINE
  8
0
 10
23.4248
 20
24.4707
 11
23.4404
 21
24.4395
  0
LINE
  8
0
 10
23.4404
 20
24.4395
 11
23.4473
 21
24.4238
  0
LINE
  8
0
 10
23.4473
 20
24.4238
 11
23.4551
 21
24.4082
  0
LINE
  8
0
 10
23.4551
 20
24.4082
 11
23.4619
 21
24.3926
  0
LINE
  8
0
 10
23.4619
 20
24.3926
 11
23.4688
 21
24.376
  0
LINE
  8
0
 10
23.4688
 20
24.376
 11
23.4746
 21
24.3594
  0
LINE
  8
0
 10
23.4746
 20
24.3594
 11
23.4814
 21
24.3438
  0
LINE
  8
0
 10
23.4814
 20
24.3438
 11
23.4873
 21
24.3271
  0
LINE
  8
0
 10
23.4873
 20
24.3271
 11
23.4922
 21
24.3105
  0
LINE
  8
0
 10
23.4922
 20
24.3105
 11
23.498
 21
24.2939
  0
LINE
  8
0
 10
23.498
 20
24.2939
 11
23.5078
 21
24.2607
  0
LINE
  8
0
 10
23.5078
 20
24.2607
 11
23.5117
 21
24.2432
  0
LINE
  8
0
 10
23.5117
 20
24.2432
 11
23.5156
 21
24.2266
  0
LINE
  8
0
 10
23.5156
 20
24.2266
 11
23.5195
 21
24.209
  0
LINE
  8
0
 10
23.5195
 20
24.209
 11
23.5234
 21
24.1924
  0
LINE
  8
0
 10
23.5234
 20
24.1924
 11
23.5264
 21
24.1748
  0
LINE
  8
0
 10
23.5264
 20
24.1748
 11
23.5293
 21
24.1582
  0
LINE
  8
0
 10
23.5293
 20
24.1582
 11
23.5312
 21
24.1406
  0
LINE
  8
0
 10
23.5312
 20
24.1406
 11
23.5342
 21
24.123
  0
LINE
  8
0
 10
23.5342
 20
24.123
 11
23.5361
 21
24.1064
  0
LINE
  8
0
 10
23.5361
 20
24.1064
 11
23.5381
 21
24.0889
  0
LINE
  8
0
 10
23.5381
 20
24.0889
 11
23.541
 21
24.0361
  0
LINE
  8
0
 10
23.541
 20
24.0361
 11
23.542
 21
12.4648
  0
LINE
  8
0
 10
23.542
 20
12.4648
 11
23.541
 21
12.4473
  0
LINE
  8
0
 10
23.541
 20
12.4473
 11
23.54
 21
12.4307
  0
LINE
  8
0
 10
23.54
 20
12.4307
 11
23.5381
 21
12.4131
  0
LINE
  8
0
 10
23.5381
 20
12.4131
 11
23.5371
 21
12.3955
  0
LINE
  8
0
 10
23.5371
 20
12.3955
 11
23.5352
 21
12.3779
  0
LINE
  8
0
 10
23.5352
 20
12.3779
 11
23.5322
 21
12.3604
  0
LINE
  8
0
 10
23.5322
 20
12.3604
 11
23.5303
 21
12.3438
  0
LINE
  8
0
 10
23.5303
 20
12.3438
 11
23.5273
 21
12.3262
  0
LINE
  8
0
 10
23.5273
 20
12.3262
 11
23.5234
 21
12.3096
  0
LINE
  8
0
 10
23.5234
 20
12.3096
 11
23.5205
 21
12.292
  0
LINE
  8
0
 10
23.5205
 20
12.292
 11
23.5166
 21
12.2754
  0
LINE
  8
0
 10
23.5166
 20
12.2754
 11
23.5127
 21
12.2578
  0
LINE
  8
0
 10
23.5127
 20
12.2578
 11
23.4932
 21
12.1914
  0
LINE
  8
0
 10
23.4932
 20
12.1914
 11
23.4697
 21
12.125
  0
LINE
  8
0
 10
23.4697
 20
12.125
 11
23.4561
 21
12.0938
  0
LINE
  8
0
 10
23.4561
 20
12.0938
 11
23.4482
 21
12.0771
  0
LINE
  8
0
 10
23.4482
 20
12.0771
 11
23.4414
 21
12.0615
  0
LINE
  8
0
 10
23.4414
 20
12.0615
 11
23.4336
 21
12.0459
  0
LINE
  8
0
 10
23.4336
 20
12.0459
 11
23.4248
 21
12.0303
  0
LINE
  8
0
 10
23.4248
 20
12.0303
 11
23.417
 21
12.0156
  0
LINE
  8
0
 10
23.417
 20
12.0156
 11
23.4082
 21
12
  0
LINE
  8
0
 10
23.4082
 20
12
 11
23.3994
 21
11.9854
  0
LINE
  8
0
 10
23.3994
 20
11.9854
 11
23.3906
 21
11.9697
  0
LINE
  8
0
 10
23.3906
 20
11.9697
 11
23.3711
 21
11.9404
  0
LINE
  8
0
 10
23.3711
 20
11.9404
 11
23.3613
 21
11.9268
  0
LINE
  8
0
 10
23.3613
 20
11.9268
 11
23.3516
 21
11.9121
  0
LINE
  8
0
 10
23.3516
 20
11.9121
 11
23.3086
 21
11.8574
  0
LINE
  8
0
 10
23.3086
 20
11.8574
 11
23.2969
 21
11.8438
  0
LINE
  8
0
 10
23.2969
 20
11.8438
 11
23.2617
 21
11.8057
  0
LINE
  8
0
 10
23.2617
 20
11.8057
 11
23.2246
 21
11.7686
  0
LINE
  8
0
 10
23.2246
 20
11.7686
 11
23.2109
 21
11.7568
  0
LINE
  8
0
 10
23.2109
 20
11.7568
 11
23.1982
 21
11.7451
  0
LINE
  8
0
 10
23.1982
 20
11.7451
 11
23.1846
 21
11.7344
  0
LINE
  8
0
 10
23.1846
 20
11.7344
 11
23.1719
 21
11.7227
  0
LINE
  8
0
 10
23.1719
 20
11.7227
 11
23.1582
 21
11.7119
  0
LINE
  8
0
 10
23.1582
 20
11.7119
 11
23.1436
 21
11.7012
  0
LINE
  8
0
 10
23.1436
 20
11.7012
 11
23.1299
 21
11.6914
  0
LINE
  8
0
 10
23.1299
 20
11.6914
 11
23.1152
 21
11.6807
  0
LINE
  8
0
 10
23.1152
 20
11.6807
 11
23.1016
 21
11.6709
  0
LINE
  8
0
 10
23.1016
 20
11.6709
 11
23.0869
 21
11.6611
  0
LINE
  8
0
 10
23.0869
 20
11.6611
 11
23.0723
 21
11.6523
  0
LINE
  8
0
 10
23.0723
 20
11.6523
 11
23.0576
 21
11.6426
  0
LINE
  8
0
 10
23.0576
 20
11.6426
 11
23.042
 21
11.6338
  0
LINE
  8
0
 10
23.042
 20
11.6338
 11
23.0273
 21
11.625
  0
LINE
  8
0
 10
23.0273
 20
11.625
 11
22.9648
 21
11.5938
  0
LINE
  8
0
 10
22.9648
 20
11.5938
 11
22.9492
 21
11.5869
  0
LINE
  8
0
 10
22.9492
 20
11.5869
 11
22.9326
 21
11.5791
  0
LINE
  8
0
 10
22.9326
 20
11.5791
 11
22.917
 21
11.5732
  0
LINE
  8
0
 10
22.917
 20
11.5732
 11
22.9004
 21
11.5664
  0
LINE
  8
0
 10
22.9004
 20
11.5664
 11
22.8838
 21
11.5605
  0
LINE
  8
0
 10
22.8838
 20
11.5605
 11
22.8682
 21
11.5547
  0
LINE
  8
0
 10
22.8682
 20
11.5547
 11
22.8516
 21
11.5488
  0
LINE
  8
0
 10
22.8516
 20
11.5488
 11
22.835
 21
11.5439
  0
LINE
  8
0
 10
22.835
 20
11.5439
 11
22.8174
 21
11.5391
  0
LINE
  8
0
 10
22.8174
 20
11.5391
 11
22.7842
 21
11.5293
  0
LINE
  8
0
 10
22.7842
 20
11.5293
 11
22.7666
 21
11.5254
  0
LINE
  8
0
 10
22.7666
 20
11.5254
 11
22.75
 21
11.5215
  0
LINE
  8
0
 10
22.75
 20
11.5215
 11
22.7334
 21
11.5186
  0
LINE
  8
0
 10
22.7334
 20
11.5186
 11
22.6982
 21
11.5127
  0
LINE
  8
0
 10
22.6982
 20
11.5127
 11
22.6816
 21
11.5098
  0
LINE
  8
0
 10
22.6816
 20
11.5098
 11
22.6289
 21
11.5039
  0
LINE
  8
0
 10
22.6289
 20
11.5039
 11
22.6123
 21
11.502
  0
LINE
  8
0
 10
22.6123
 20
11.502
 11
22.5947
 21
11.501
  0
LINE
  8
0
 10
22.5947
 20
11.501
 11
22.5771
 21
11.501
  0
LINE
  8
0
 10
22.5771
 20
11.501
 11
22.5596
 21
11.5
  0
LINE
  8
0
 10
22.5596
 20
11.5
 11
9.04102
 21
11.5
  0
ENDSEC
  0
SECTION
  2
OBJECTS
  0
DICTIONARY
  0
ENDSEC
  0
EOF
