  0
SECTION
  2
BLOCKS
  0
ENDSEC
  0
SECTION
  2
ENTITIES
  0
LINE
  8
0
 10
0.0869141
 20
-4.99902
 11
0.174805
 21
-4.99707
  0
LINE
  8
0
 10
0.174805
 20
-4.99707
 11
0.261719
 21
-4.99316
  0
LINE
  8
0
 10
0.261719
 20
-4.99316
 11
0.348633
 21
-4.98828
  0
LINE
  8
0
 10
0.348633
 20
-4.98828
 11
0.435547
 21
-4.98145
  0
LINE
  8
0
 10
0.435547
 20
-4.98145
 11
0.522461
 21
-4.97266
  0
LINE
  8
0
 10
0.522461
 20
-4.97266
 11
0.609375
 21
-4.96289
  0
LINE
  8
0
 10
0.609375
 20
-4.96289
 11
0.696289
 21
-4.95117
  0
LINE
  8
0
 10
0.696289
 20
-4.95117
 11
0.782227
 21
-4.93848
  0
LINE
  8
0
 10
0.782227
 20
-4.93848
 11
0.868164
 21
-4.92383
  0
LINE
  8
0
 10
0.868164
 20
-4.92383
 11
0.954102
 21
-4.9082
  0
LINE
  8
0
 10
0.954102
 20
-4.9082
 11
1.04004
 21
-4.89062
  0
LINE
  8
0
 10
1.04004
 20
-4.89062
 11
1.125
 21
-4.87207
  0
LINE
  8
0
 10
1.125
 20
-4.87207
 11
1.20996
 21
-4.85156
  0
LINE
  8
0
 10
1.20996
 20
-4.85156
 11
1.29395
 21
-4.83008
  0
LINE
  8
0
 10
1.29395
 20
-4.83008
 11
1.37793
 21
-4.80664
  0
LINE
  8
0
 10
1.37793
 20
-4.80664
 11
1.46191
 21
-4.78125
  0
LINE
  8
0
 10
1.46191
 20
-4.78125
 11
1.54492
 21
-4.75488
  0
LINE
  8
0
 10
1.54492
 20
-4.75488
 11
1.62793
 21
-4.72754
  0
LINE
  8
0
 10
1.62793
 20
-4.72754
 11
1.70996
 21
-4.69824
  0
LINE
  8
0
 10
1.70996
 20
-4.69824
 11
1.79199
 21
-4.66797
  0
LINE
  8
0
 10
1.79199
 20
-4.66797
 11
1.87305
 21
-4.63574
  0
LINE
  8
0
 10
1.87305
 20
-4.63574
 11
1.9541
 21
-4.60254
  0
LINE
  8
0
 10
1.9541
 20
-4.60254
 11
2.0332
 21
-4.56738
  0
LINE
  8
0
 10
2.0332
 20
-4.56738
 11
2.11328
 21
-4.53125
  0
LINE
  8
0
 10
2.11328
 20
-4.53125
 11
2.19141
 21
-4.49414
  0
LINE
  8
0
 10
2.19141
 20
-4.49414
 11
2.26953
 21
-4.45508
  0
LINE
  8
0
 10
2.26953
 20
-4.45508
 11
2.34766
 21
-4.41504
  0
LINE
  8
0
 10
2.34766
 20
-4.41504
 11
2.42383
 21
-4.37305
  0
LINE
  8
0
 10
2.42383
 20
-4.37305
 11
2.5
 21
-4.33008
  0
LINE
  8
0
 10
2.5
 20
-4.33008
 11
2.5752
 21
-4.28613
  0
LINE
  8
0
 10
2.5752
 20
-4.28613
 11
2.64941
 21
-4.24023
  0
LINE
  8
0
 10
2.64941
 20
-4.24023
 11
2.72363
 21
-4.19336
  0
LINE
  8
0
 10
2.72363
 20
-4.19336
 11
2.7959
 21
-4.14551
  0
LINE
  8
0
 10
2.7959
 20
-4.14551
 11
2.86816
 21
-4.0957
  0
LINE
  8
0
 10
2.86816
 20
-4.0957
 11
2.93848
 21
-4.04492
  0
LINE
  8
0
 10
2.93848
 20
-4.04492
 11
3.00879
 21
-3.99316
  0
LINE
  8
0
 10
3.00879
 20
-3.99316
 11
3.07812
 21
-3.94043
  0
LINE
  8
0
 10
3.07812
 20
-3.94043
 11
3.14648
 21
-3.88574
  0
LINE
  8
0
 10
3.14648
 20
-3.88574
 11
3.21387
 21
-3.83008
  0
LINE
  8
0
 10
3.21387
 20
-3.83008
 11
3.28027
 21
-3.77344
  0
LINE
  8
0
 10
3.28027
 20
-3.77344
 11
3.3457
 21
-3.71582
  0
LINE
  8
0
 10
3.3457
 20
-3.71582
 11
3.41016
 21
-3.65723
  0
LINE
  8
0
 10
3.41016
 20
-3.65723
 11
3.47363
 21
-3.59668
  0
LINE
  8
0
 10
3.47363
 20
-3.59668
 11
3.59668
 21
-3.47363
  0
LINE
  8
0
 10
3.59668
 20
-3.47363
 11
3.65723
 21
-3.41016
  0
LINE
  8
0
 10
3.65723
 20
-3.41016
 11
3.71582
 21
-3.3457
  0
LINE
  8
0
 10
3.71582
 20
-3.3457
 11
3.77344
 21
-3.28027
  0
LINE
  8
0
 10
3.77344
 20
-3.28027
 11
3.83008
 21
-3.21387
  0
LINE
  8
0
 10
3.83008
 20
-3.21387
 11
3.88574
 21
-3.14648
  0
LINE
  8
0
 10
3.88574
 20
-3.14648
 11
3.94043
 21
-3.07812
  0
LINE
  8
0
 10
3.94043
 20
-3.07812
 11
3.99316
 21
-3.00879
  0
LINE
  8
0
 10
3.99316
 20
-3.00879
 11
4.04492
 21
-2.93848
  0
LINE
  8
0
 10
4.04492
 20
-2.93848
 11
4.0957
 21
-2.86816
  0
LINE
  8
0
 10
4.0957
 20
-2.86816
 11
4.14551
 21
-2.7959
  0
LINE
  8
0
 10
4.14551
 20
-2.7959
 11
4.19336
 21
-2.72363
  0
LINE
  8
0
 10
4.19336
 20
-2.72363
 11
4.24023
 21
-2.64941
  0
LINE
  8
0
 10
4.24023
 20
-2.64941
 11
4.28613
 21
-2.5752
  0
LINE
  8
0
 10
4.28613
 20
-2.5752
 11
4.33008
 21
-2.5
  0
LINE
  8
0
 10
4.33008
 20
-2.5
 11
4.37305
 21
-2.42383
  0
LINE
  8
0
 10
4.37305
 20
-2.42383
 11
4.41504
 21
-2.34766
  0
LINE
  8
0
 10
4.41504
 20
-2.34766
 11
4.45508
 21
-2.26953
  0
LINE
  8
0
 10
4.45508
 20
-2.26953
 11
4.49414
 21
-2.19141
  0
LINE
  8
0
 10
4.49414
 20
-2.19141
 11
4.53125
 21
-2.11328
  0
LINE
  8
0
 10
4.53125
 20
-2.11328
 11
4.56738
 21
-2.0332
  0
LINE
  8
0
 10
4.56738
 20
-2.0332
 11
4.60254
 21
-1.9541
  0
LINE
  8
0
 10
4.60254
 20
-1.9541
 11
4.63574
 21
-1.87305
  0
LINE
  8
0
 10
4.63574
 20
-1.87305
 11
4.66797
 21
-1.79199
  0
LINE
  8
0
 10
4.66797
 20
-1.79199
 11
4.69824
 21
-1.70996
  0
LINE
  8
0
 10
4.69824
 20
-1.70996
 11
4.72754
 21
-1.62793
  0
LINE
  8
0
 10
4.72754
 20
-1.62793
 11
4.75488
 21
-1.54492
  0
LINE
  8
0
 10
4.75488
 20
-1.54492
 11
4.78125
 21
-1.46191
  0
LINE
  8
0
 10
4.78125
 20
-1.46191
 11
4.80664
 21
-1.37793
  0
LINE
  8
0
 10
4.80664
 20
-1.37793
 11
4.83008
 21
-1.29395
  0
LINE
  8
0
 10
4.83008
 20
-1.29395
 11
4.85156
 21
-1.20996
  0
LINE
  8
0
 10
4.85156
 20
-1.20996
 11
4.87207
 21
-1.125
  0
LINE
  8
0
 10
4.87207
 20
-1.125
 11
4.89062
 21
-1.04004
  0
LINE
  8
0
 10
4.89062
 20
-1.04004
 11
4.9082
 21
-0.954102
  0
LINE
  8
0
 10
4.9082
 20
-0.954102
 11
4.92383
 21
-0.868164
  0
LINE
  8
0
 10
4.92383
 20
-0.868164
 11
4.93848
 21
-0.782227
  0
LINE
  8
0
 10
4.93848
 20
-0.782227
 11
4.95117
 21
-0.696289
  0
LINE
  8
0
 10
4.95117
 20
-0.696289
 11
4.96289
 21
-0.609375
  0
LINE
  8
0
 10
4.96289
 20
-0.609375
 11
4.97266
 21
-0.522461
  0
LINE
  8
0
 10
4.97266
 20
-0.522461
 11
4.98145
 21
-0.435547
  0
LINE
  8
0
 10
4.98145
 20
-0.435547
 11
4.98828
 21
-0.348633
  0
LINE
  8
0
 10
4.98828
 20
-0.348633
 11
4.99316
 21
-0.261719
  0
LINE
  8
0
 10
4.99316
 20
-0.261719
 11
4.99707
 21
-0.174805
  0
LINE
  8
0
 10
4.99707
 20
-0.174805
 11
4.99902
 21
-0.0869141
  0
LINE
  8
0
 10
4.99902
 20
-0.0869141
 11
5
 21
0
  0
LINE
  8
0
 10
5
 20
0
 11
5
 21
8.15039
  0
LINE
  8
0
 10
5
 20
8.15039
 11
9.47461
 21
8.15039
  0
LINE
  8
0
 10
9.47461
 20
8.15039
 11
9.47461
 21
12.1846
  0
LINE
  8
0
 10
9.47461
 20
12.1846
 11
9.47168
 21
12.2373
  0
LINE
  8
0
 10
9.47168
 20
12.2373
 11
9.46973
 21
12.2549
  0
LINE
  8
0
 10
9.46973
 20
12.2549
 11
9.46777
 21
12.2715
  0
LINE
  8
0
 10
9.46777
 20
12.2715
 11
9.46484
 21
12.2891
  0
LINE
  8
0
 10
9.46484
 20
12.2891
 11
9.46289
 21
12.3066
  0
LINE
  8
0
 10
9.46289
 20
12.3066
 11
9.45996
 21
12.3232
  0
LINE
  8
0
 10
9.45996
 20
12.3232
 11
9.45703
 21
12.3408
  0
LINE
  8
0
 10
9.45703
 20
12.3408
 11
9.45312
 21
12.3584
  0
LINE
  8
0
 10
9.45312
 20
12.3584
 11
9.44531
 21
12.3916
  0
LINE
  8
0
 10
9.44531
 20
12.3916
 11
9.44141
 21
12.4092
  0
LINE
  8
0
 10
9.44141
 20
12.4092
 11
9.43164
 21
12.4424
  0
LINE
  8
0
 10
9.43164
 20
12.4424
 11
9.42578
 21
12.459
  0
LINE
  8
0
 10
9.42578
 20
12.459
 11
9.4209
 21
12.4756
  0
LINE
  8
0
 10
9.4209
 20
12.4756
 11
9.41504
 21
12.4922
  0
LINE
  8
0
 10
9.41504
 20
12.4922
 11
9.4082
 21
12.5088
  0
LINE
  8
0
 10
9.4082
 20
12.5088
 11
9.40234
 21
12.5244
  0
LINE
  8
0
 10
9.40234
 20
12.5244
 11
9.39551
 21
12.541
  0
LINE
  8
0
 10
9.39551
 20
12.541
 11
9.38867
 21
12.5566
  0
LINE
  8
0
 10
9.38867
 20
12.5566
 11
9.38086
 21
12.5723
  0
LINE
  8
0
 10
9.38086
 20
12.5723
 11
9.37402
 21
12.5879
  0
LINE
  8
0
 10
9.37402
 20
12.5879
 11
9.3584
 21
12.6191
  0
LINE
  8
0
 10
9.3584
 20
12.6191
 11
9.34082
 21
12.6504
  0
LINE
  8
0
 10
9.34082
 20
12.6504
 11
9.32324
 21
12.6797
  0
LINE
  8
0
 10
9.32324
 20
12.6797
 11
9.29395
 21
12.7236
  0
LINE
  8
0
 10
9.29395
 20
12.7236
 11
9.28418
 21
12.7373
  0
LINE
  8
0
 10
9.28418
 20
12.7373
 11
9.27344
 21
12.752
  0
LINE
  8
0
 10
9.27344
 20
12.752
 11
9.24121
 21
12.793
  0
LINE
  8
0
 10
9.24121
 20
12.793
 11
9.22949
 21
12.8057
  0
LINE
  8
0
 10
9.22949
 20
12.8057
 11
9.21777
 21
12.8193
  0
LINE
  8
0
 10
9.21777
 20
12.8193
 11
9.19434
 21
12.8447
  0
LINE
  8
0
 10
9.19434
 20
12.8447
 11
9.15723
 21
12.8818
  0
LINE
  8
0
 10
9.15723
 20
12.8818
 11
9.14453
 21
12.8936
  0
LINE
  8
0
 10
9.14453
 20
12.8936
 11
9.13086
 21
12.9043
  0
LINE
  8
0
 10
9.13086
 20
12.9043
 11
9.11816
 21
12.916
  0
LINE
  8
0
 10
9.11816
 20
12.916
 11
9.10449
 21
12.9268
  0
LINE
  8
0
 10
9.10449
 20
12.9268
 11
9.09082
 21
12.9385
  0
LINE
  8
0
 10
9.09082
 20
12.9385
 11
9.07715
 21
12.9482
  0
LINE
  8
0
 10
9.07715
 20
12.9482
 11
9.0625
 21
12.959
  0
LINE
  8
0
 10
9.0625
 20
12.959
 11
9.04883
 21
12.9688
  0
LINE
  8
0
 10
9.04883
 20
12.9688
 11
9.03418
 21
12.9795
  0
LINE
  8
0
 10
9.03418
 20
12.9795
 11
9.01953
 21
12.9883
  0
LINE
  8
0
 10
9.01953
 20
12.9883
 11
9.00488
 21
12.998
  0
LINE
  8
0
 10
9.00488
 20
12.998
 11
8.99023
 21
13.0068
  0
LINE
  8
0
 10
8.99023
 20
13.0068
 11
8.97461
 21
13.0156
  0
LINE
  8
0
 10
8.97461
 20
13.0156
 11
8.95996
 21
13.0244
  0
LINE
  8
0
 10
8.95996
 20
13.0244
 11
8.94434
 21
13.0332
  0
LINE
  8
0
 10
8.94434
 20
13.0332
 11
8.89746
 21
13.0566
  0
LINE
  8
0
 10
8.89746
 20
13.0566
 11
8.86621
 21
13.0703
  0
LINE
  8
0
 10
8.86621
 20
13.0703
 11
8.83301
 21
13.084
  0
LINE
  8
0
 10
8.83301
 20
13.084
 11
8.81738
 21
13.0898
  0
LINE
  8
0
 10
8.81738
 20
13.0898
 11
8.80078
 21
13.0957
  0
LINE
  8
0
 10
8.80078
 20
13.0957
 11
8.78418
 21
13.1006
  0
LINE
  8
0
 10
8.78418
 20
13.1006
 11
8.76758
 21
13.1064
  0
LINE
  8
0
 10
8.76758
 20
13.1064
 11
8.75098
 21
13.1113
  0
LINE
  8
0
 10
8.75098
 20
13.1113
 11
8.7334
 21
13.1162
  0
LINE
  8
0
 10
8.7334
 20
13.1162
 11
8.7002
 21
13.124
  0
LINE
  8
0
 10
8.7002
 20
13.124
 11
8.68262
 21
13.1279
  0
LINE
  8
0
 10
8.68262
 20
13.1279
 11
8.66602
 21
13.1318
  0
LINE
  8
0
 10
8.66602
 20
13.1318
 11
8.64844
 21
13.1348
  0
LINE
  8
0
 10
8.64844
 20
13.1348
 11
8.63184
 21
13.1377
  0
LINE
  8
0
 10
8.63184
 20
13.1377
 11
8.61426
 21
13.1406
  0
LINE
  8
0
 10
8.61426
 20
13.1406
 11
8.5791
 21
13.1445
  0
LINE
  8
0
 10
8.5791
 20
13.1445
 11
8.5625
 21
13.1465
  0
LINE
  8
0
 10
8.5625
 20
13.1465
 11
8.50977
 21
13.1494
  0
LINE
  8
0
 10
8.50977
 20
13.1494
 11
8.49219
 21
13.1494
  0
LINE
  8
0
 10
8.49219
 20
13.1494
 11
8.47461
 21
13.1504
  0
LINE
  8
0
 10
8.47461
 20
13.1504
 11
-8.47461
 21
13.1504
  0
LINE
  8
0
 10
-8.47461
 20
13.1504
 11
-8.49219
 21
13.1494
  0
LINE
  8
0
 10
-8.49219
 20
13.1494
 11
-8.50977
 21
13.1494
  0
LINE
  8
0
 10
-8.50977
 20
13.1494
 11
-8.5625
 21
13.1465
  0
LINE
  8
0
 10
-8.5625
 20
13.1465
 11
-8.5791
 21
13.1445
  0
LINE
  8
0
 10
-8.5791
 20
13.1445
 11
-8.61426
 21
13.1406
  0
LINE
  8
0
 10
-8.61426
 20
13.1406
 11
-8.63184
 21
13.1377
  0
LINE
  8
0
 10
-8.63184
 20
13.1377
 11
-8.64844
 21
13.1348
  0
LINE
  8
0
 10
-8.64844
 20
13.1348
 11
-8.66602
 21
13.1318
  0
LINE
  8
0
 10
-8.66602
 20
13.1318
 11
-8.68262
 21
13.1279
  0
LINE
  8
0
 10
-8.68262
 20
13.1279
 11
-8.7002
 21
13.124
  0
LINE
  8
0
 10
-8.7002
 20
13.124
 11
-8.7334
 21
13.1162
  0
LINE
  8
0
 10
-8.7334
 20
13.1162
 11
-8.75098
 21
13.1113
  0
LINE
  8
0
 10
-8.75098
 20
13.1113
 11
-8.76758
 21
13.1064
  0
LINE
  8
0
 10
-8.76758
 20
13.1064
 11
-8.78418
 21
13.1006
  0
LINE
  8
0
 10
-8.78418
 20
13.1006
 11
-8.80078
 21
13.0957
  0
LINE
  8
0
 10
-8.80078
 20
13.0957
 11
-8.81738
 21
13.0898
  0
LINE
  8
0
 10
-8.81738
 20
13.0898
 11
-8.83301
 21
13.084
  0
LINE
  8
0
 10
-8.83301
 20
13.084
 11
-8.86621
 21
13.0703
  0
LINE
  8
0
 10
-8.86621
 20
13.0703
 11
-8.89746
 21
13.0566
  0
LINE
  8
0
 10
-8.89746
 20
13.0566
 11
-8.94434
 21
13.0332
  0
LINE
  8
0
 10
-8.94434
 20
13.0332
 11
-8.95996
 21
13.0244
  0
LINE
  8
0
 10
-8.95996
 20
13.0244
 11
-8.97461
 21
13.0156
  0
LINE
  8
0
 10
-8.97461
 20
13.0156
 11
-8.99023
 21
13.0068
  0
LINE
  8
0
 10
-8.99023
 20
13.0068
 11
-9.00488
 21
12.998
  0
LINE
  8
0
 10
-9.00488
 20
12.998
 11
-9.01953
 21
12.9883
  0
LINE
  8
0
 10
-9.01953
 20
12.9883
 11
-9.03418
 21
12.9795
  0
LINE
  8
0
 10
-9.03418
 20
12.9795
 11
-9.04883
 21
12.9688
  0
LINE
  8
0
 10
-9.04883
 20
12.9688
 11
-9.0625
 21
12.959
  0
LINE
  8
0
 10
-9.0625
 20
12.959
 11
-9.07715
 21
12.9482
  0
LINE
  8
0
 10
-9.07715
 20
12.9482
 11
-9.09082
 21
12.9385
  0
LINE
  8
0
 10
-9.09082
 20
12.9385
 11
-9.10449
 21
12.9268
  0
LINE
  8
0
 10
-9.10449
 20
12.9268
 11
-9.11816
 21
12.916
  0
LINE
  8
0
 10
-9.11816
 20
12.916
 11
-9.13086
 21
12.9043
  0
LINE
  8
0
 10
-9.13086
 20
12.9043
 11
-9.14453
 21
12.8936
  0
LINE
  8
0
 10
-9.14453
 20
12.8936
 11
-9.15723
 21
12.8818
  0
LINE
  8
0
 10
-9.15723
 20
12.8818
 11
-9.19434
 21
12.8447
  0
LINE
  8
0
 10
-9.19434
 20
12.8447
 11
-9.21777
 21
12.8193
  0
LINE
  8
0
 10
-9.21777
 20
12.8193
 11
-9.22949
 21
12.8057
  0
LINE
  8
0
 10
-9.22949
 20
12.8057
 11
-9.24121
 21
12.793
  0
LINE
  8
0
 10
-9.24121
 20
12.793
 11
-9.27344
 21
12.752
  0
LINE
  8
0
 10
-9.27344
 20
12.752
 11
-9.28418
 21
12.7373
  0
LINE
  8
0
 10
-9.28418
 20
12.7373
 11
-9.29395
 21
12.7236
  0
LINE
  8
0
 10
-9.29395
 20
12.7236
 11
-9.32324
 21
12.6797
  0
LINE
  8
0
 10
-9.32324
 20
12.6797
 11
-9.34082
 21
12.6504
  0
LINE
  8
0
 10
-9.34082
 20
12.6504
 11
-9.3584
 21
12.6191
  0
LINE
  8
0
 10
-9.3584
 20
12.6191
 11
-9.37402
 21
12.5879
  0
LINE
  8
0
 10
-9.37402
 20
12.5879
 11
-9.38086
 21
12.5723
  0
LINE
  8
0
 10
-9.38086
 20
12.5723
 11
-9.38867
 21
12.5566
  0
LINE
  8
0
 10
-9.38867
 20
12.5566
 11
-9.39551
 21
12.541
  0
LINE
  8
0
 10
-9.39551
 20
12.541
 11
-9.40234
 21
12.5244
  0
LINE
  8
0
 10
-9.40234
 20
12.5244
 11
-9.4082
 21
12.5088
  0
LINE
  8
0
 10
-9.4082
 20
12.5088
 11
-9.41504
 21
12.4922
  0
LINE
  8
0
 10
-9.41504
 20
12.4922
 11
-9.4209
 21
12.4756
  0
LINE
  8
0
 10
-9.4209
 20
12.4756
 11
-9.42578
 21
12.459
  0
LINE
  8
0
 10
-9.42578
 20
12.459
 11
-9.43164
 21
12.4424
  0
LINE
  8
0
 10
-9.43164
 20
12.4424
 11
-9.44141
 21
12.4092
  0
LINE
  8
0
 10
-9.44141
 20
12.4092
 11
-9.44531
 21
12.3916
  0
LINE
  8
0
 10
-9.44531
 20
12.3916
 11
-9.45312
 21
12.3584
  0
LINE
  8
0
 10
-9.45312
 20
12.3584
 11
-9.45703
 21
12.3408
  0
LINE
  8
0
 10
-9.45703
 20
12.3408
 11
-9.45996
 21
12.3232
  0
LINE
  8
0
 10
-9.45996
 20
12.3232
 11
-9.46289
 21
12.3066
  0
LINE
  8
0
 10
-9.46289
 20
12.3066
 11
-9.46484
 21
12.2891
  0
LINE
  8
0
 10
-9.46484
 20
12.2891
 11
-9.46777
 21
12.2715
  0
LINE
  8
0
 10
-9.46777
 20
12.2715
 11
-9.46973
 21
12.2549
  0
LINE
  8
0
 10
-9.46973
 20
12.2549
 11
-9.47168
 21
12.2373
  0
LINE
  8
0
 10
-9.47168
 20
12.2373
 11
-9.47461
 21
12.1846
  0
LINE
  8
0
 10
-9.47461
 20
12.1846
 11
-9.47461
 21
8.15039
  0
LINE
  8
0
 10
-9.47461
 20
8.15039
 11
-5
 21
8.15039
  0
LINE
  8
0
 10
-5
 20
8.15039
 11
-5
 21
0
  0
LINE
  8
0
 10
-5
 20
0
 11
-4.99902
 21
-0.0869141
  0
LINE
  8
0
 10
-4.99902
 20
-0.0869141
 11
-4.99707
 21
-0.174805
  0
LINE
  8
0
 10
-4.99707
 20
-0.174805
 11
-4.99316
 21
-0.261719
  0
LINE
  8
0
 10
-4.99316
 20
-0.261719
 11
-4.98828
 21
-0.348633
  0
LINE
  8
0
 10
-4.98828
 20
-0.348633
 11
-4.98145
 21
-0.435547
  0
LINE
  8
0
 10
-4.98145
 20
-0.435547
 11
-4.97266
 21
-0.522461
  0
LINE
  8
0
 10
-4.97266
 20
-0.522461
 11
-4.96289
 21
-0.609375
  0
LINE
  8
0
 10
-4.96289
 20
-0.609375
 11
-4.95117
 21
-0.696289
  0
LINE
  8
0
 10
-4.95117
 20
-0.696289
 11
-4.93848
 21
-0.782227
  0
LINE
  8
0
 10
-4.93848
 20
-0.782227
 11
-4.92383
 21
-0.868164
  0
LINE
  8
0
 10
-4.92383
 20
-0.868164
 11
-4.9082
 21
-0.954102
  0
LINE
  8
0
 10
-4.9082
 20
-0.954102
 11
-4.89062
 21
-1.04004
  0
LINE
  8
0
 10
-4.89062
 20
-1.04004
 11
-4.87207
 21
-1.125
  0
LINE
  8
0
 10
-4.87207
 20
-1.125
 11
-4.85156
 21
-1.20996
  0
LINE
  8
0
 10
-4.85156
 20
-1.20996
 11
-4.83008
 21
-1.29395
  0
LINE
  8
0
 10
-4.83008
 20
-1.29395
 11
-4.80664
 21
-1.37793
  0
LINE
  8
0
 10
-4.80664
 20
-1.37793
 11
-4.78125
 21
-1.46191
  0
LINE
  8
0
 10
-4.78125
 20
-1.46191
 11
-4.75488
 21
-1.54492
  0
LINE
  8
0
 10
-4.75488
 20
-1.54492
 11
-4.72754
 21
-1.62793
  0
LINE
  8
0
 10
-4.72754
 20
-1.62793
 11
-4.69824
 21
-1.70996
  0
LINE
  8
0
 10
-4.69824
 20
-1.70996
 11
-4.66797
 21
-1.79199
  0
LINE
  8
0
 10
-4.66797
 20
-1.79199
 11
-4.63574
 21
-1.87305
  0
LINE
  8
0
 10
-4.63574
 20
-1.87305
 11
-4.60254
 21
-1.9541
  0
LINE
  8
0
 10
-4.60254
 20
-1.9541
 11
-4.56738
 21
-2.0332
  0
LINE
  8
0
 10
-4.56738
 20
-2.0332
 11
-4.53125
 21
-2.11328
  0
LINE
  8
0
 10
-4.53125
 20
-2.11328
 11
-4.49414
 21
-2.19141
  0
LINE
  8
0
 10
-4.49414
 20
-2.19141
 11
-4.45508
 21
-2.26953
  0
LINE
  8
0
 10
-4.45508
 20
-2.26953
 11
-4.41504
 21
-2.34766
  0
LINE
  8
0
 10
-4.41504
 20
-2.34766
 11
-4.37305
 21
-2.42383
  0
LINE
  8
0
 10
-4.37305
 20
-2.42383
 11
-4.33008
 21
-2.5
  0
LINE
  8
0
 10
-4.33008
 20
-2.5
 11
-4.28613
 21
-2.5752
  0
LINE
  8
0
 10
-4.28613
 20
-2.5752
 11
-4.24023
 21
-2.64941
  0
LINE
  8
0
 10
-4.24023
 20
-2.64941
 11
-4.19336
 21
-2.72363
  0
LINE
  8
0
 10
-4.19336
 20
-2.72363
 11
-4.14551
 21
-2.7959
  0
LINE
  8
0
 10
-4.14551
 20
-2.7959
 11
-4.0957
 21
-2.86816
  0
LINE
  8
0
 10
-4.0957
 20
-2.86816
 11
-4.04492
 21
-2.93848
  0
LINE
  8
0
 10
-4.04492
 20
-2.93848
 11
-3.99316
 21
-3.00879
  0
LINE
  8
0
 10
-3.99316
 20
-3.00879
 11
-3.94043
 21
-3.07812
  0
LINE
  8
0
 10
-3.94043
 20
-3.07812
 11
-3.88574
 21
-3.14648
  0
LINE
  8
0
 10
-3.88574
 20
-3.14648
 11
-3.83008
 21
-3.21387
  0
LINE
  8
0
 10
-3.83008
 20
-3.21387
 11
-3.77344
 21
-3.28027
  0
LINE
  8
0
 10
-3.77344
 20
-3.28027
 11
-3.71582
 21
-3.3457
  0
LINE
  8
0
 10
-3.71582
 20
-3.3457
 11
-3.65723
 21
-3.41016
  0
LINE
  8
0
 10
-3.65723
 20
-3.41016
 11
-3.59668
 21
-3.47363
  0
LINE
  8
0
 10
-3.59668
 20
-3.47363
 11
-3.47363
 21
-3.59668
  0
LINE
  8
0
 10
-3.47363
 20
-3.59668
 11
-3.41016
 21
-3.65723
  0
LINE
  8
0
 10
-3.41016
 20
-3.65723
 11
-3.3457
 21
-3.71582
  0
LINE
  8
0
 10
-3.3457
 20
-3.71582
 11
-3.28027
 21
-3.77344
  0
LINE
  8
0
 10
-3.28027
 20
-3.77344
 11
-3.21387
 21
-3.83008
  0
LINE
  8
0
 10
-3.21387
 20
-3.83008
 11
-3.14648
 21
-3.88574
  0
LINE
  8
0
 10
-3.14648
 20
-3.88574
 11
-3.07812
 21
-3.94043
  0
LINE
  8
0
 10
-3.07812
 20
-3.94043
 11
-3.00879
 21
-3.99316
  0
LINE
  8
0
 10
-3.00879
 20
-3.99316
 11
-2.93848
 21
-4.04492
  0
LINE
  8
0
 10
-2.93848
 20
-4.04492
 11
-2.86816
 21
-4.0957
  0
LINE
  8
0
 10
-2.86816
 20
-4.0957
 11
-2.7959
 21
-4.14551
  0
LINE
  8
0
 10
-2.7959
 20
-4.14551
 11
-2.72363
 21
-4.19336
  0
LINE
  8
0
 10
-2.72363
 20
-4.19336
 11
-2.64941
 21
-4.24023
  0
LINE
  8
0
 10
-2.64941
 20
-4.24023
 11
-2.5752
 21
-4.28613
  0
LINE
  8
0
 10
-2.5752
 20
-4.28613
 11
-2.5
 21
-4.33008
  0
LINE
  8
0
 10
-2.5
 20
-4.33008
 11
-2.42383
 21
-4.37305
  0
LINE
  8
0
 10
-2.42383
 20
-4.37305
 11
-2.34766
 21
-4.41504
  0
LINE
  8
0
 10
-2.34766
 20
-4.41504
 11
-2.26953
 21
-4.45508
  0
LINE
  8
0
 10
-2.26953
 20
-4.45508
 11
-2.19141
 21
-4.49414
  0
LINE
  8
0
 10
-2.19141
 20
-4.49414
 11
-2.11328
 21
-4.53125
  0
LINE
  8
0
 10
-2.11328
 20
-4.53125
 11
-2.0332
 21
-4.56738
  0
LINE
  8
0
 10
-2.0332
 20
-4.56738
 11
-1.9541
 21
-4.60254
  0
LINE
  8
0
 10
-1.9541
 20
-4.60254
 11
-1.87305
 21
-4.63574
  0
LINE
  8
0
 10
-1.87305
 20
-4.63574
 11
-1.79199
 21
-4.66797
  0
LINE
  8
0
 10
-1.79199
 20
-4.66797
 11
-1.70996
 21
-4.69824
  0
LINE
  8
0
 10
-1.70996
 20
-4.69824
 11
-1.62793
 21
-4.72754
  0
LINE
  8
0
 10
-1.62793
 20
-4.72754
 11
-1.54492
 21
-4.75488
  0
LINE
  8
0
 10
-1.54492
 20
-4.75488
 11
-1.46191
 21
-4.78125
  0
LINE
  8
0
 10
-1.46191
 20
-4.78125
 11
-1.37793
 21
-4.80664
  0
LINE
  8
0
 10
-1.37793
 20
-4.80664
 11
-1.29395
 21
-4.83008
  0
LINE
  8
0
 10
-1.29395
 20
-4.83008
 11
-1.20996
 21
-4.85156
  0
LINE
  8
0
 10
-1.20996
 20
-4.85156
 11
-1.125
 21
-4.87207
  0
LINE
  8
0
 10
-1.125
 20
-4.87207
 11
-1.04004
 21
-4.89062
  0
LINE
  8
0
 10
-1.04004
 20
-4.89062
 11
-0.954102
 21
-4.9082
  0
LINE
  8
0
 10
-0.954102
 20
-4.9082
 11
-0.868164
 21
-4.92383
  0
LINE
  8
0
 10
-0.868164
 20
-4.92383
 11
-0.782227
 21
-4.93848
  0
LINE
  8
0
 10
-0.782227
 20
-4.93848
 11
-0.696289
 21
-4.95117
  0
LINE
  8
0
 10
-0.696289
 20
-4.95117
 11
-0.609375
 21
-4.96289
  0
LINE
  8
0
 10
-0.609375
 20
-4.96289
 11
-0.522461
 21
-4.97266
  0
LINE
  8
0
 10
-0.522461
 20
-4.97266
 11
-0.435547
 21
-4.98145
  0
LINE
  8
0
 10
-0.435547
 20
-4.98145
 11
-0.348633
 21
-4.98828
  0
LINE
  8
0
 10
-0.348633
 20
-4.98828
 11
-0.261719
 21
-4.99316
  0
LINE
  8
0
 10
-0.261719
 20
-4.99316
 11
-0.174805
 21
-4.99707
  0
LINE
  8
0
 10
-0.174805
 20
-4.99707
 11
-0.0869141
 21
-4.99902
  0
LINE
  8
0
 10
-0.0869141
 20
-4.99902
 11
0
 21
-5
  0
LINE
  8
0
 10
0
 20
-5
 11
0.0869141
 21
-4.99902
  0
LINE
  8
0
 10
-0.046875
 20
-1.34961
 11
-0.0703125
 21
-1.34863
  0
LINE
  8
0
 10
-0.0703125
 20
-1.34863
 11
-0.117188
 21
-1.34473
  0
LINE
  8
0
 10
-0.117188
 20
-1.34473
 11
-0.141602
 21
-1.34277
  0
LINE
  8
0
 10
-0.141602
 20
-1.34277
 11
-0.164062
 21
-1.33984
  0
LINE
  8
0
 10
-0.164062
 20
-1.33984
 11
-0.1875
 21
-1.33691
  0
LINE
  8
0
 10
-0.1875
 20
-1.33691
 11
-0.257812
 21
-1.3252
  0
LINE
  8
0
 10
-0.257812
 20
-1.3252
 11
-0.280273
 21
-1.32031
  0
LINE
  8
0
 10
-0.280273
 20
-1.32031
 11
-0.303711
 21
-1.31543
  0
LINE
  8
0
 10
-0.303711
 20
-1.31543
 11
-0.326172
 21
-1.30957
  0
LINE
  8
0
 10
-0.326172
 20
-1.30957
 11
-0.349609
 21
-1.30371
  0
LINE
  8
0
 10
-0.349609
 20
-1.30371
 11
-0.37207
 21
-1.29785
  0
LINE
  8
0
 10
-0.37207
 20
-1.29785
 11
-0.416992
 21
-1.28418
  0
LINE
  8
0
 10
-0.416992
 20
-1.28418
 11
-0.461914
 21
-1.26855
  0
LINE
  8
0
 10
-0.461914
 20
-1.26855
 11
-0.483398
 21
-1.26074
  0
LINE
  8
0
 10
-0.483398
 20
-1.26074
 11
-0.505859
 21
-1.25195
  0
LINE
  8
0
 10
-0.505859
 20
-1.25195
 11
-0.527344
 21
-1.24316
  0
LINE
  8
0
 10
-0.527344
 20
-1.24316
 11
-0.570312
 21
-1.22363
  0
LINE
  8
0
 10
-0.570312
 20
-1.22363
 11
-0.591797
 21
-1.21289
  0
LINE
  8
0
 10
-0.591797
 20
-1.21289
 11
-0.613281
 21
-1.20312
  0
LINE
  8
0
 10
-0.613281
 20
-1.20312
 11
-0.633789
 21
-1.19238
  0
LINE
  8
0
 10
-0.633789
 20
-1.19238
 11
-0.695312
 21
-1.15723
  0
LINE
  8
0
 10
-0.695312
 20
-1.15723
 11
-0.71582
 21
-1.14453
  0
LINE
  8
0
 10
-0.71582
 20
-1.14453
 11
-0.754883
 21
-1.11914
  0
LINE
  8
0
 10
-0.754883
 20
-1.11914
 11
-0.793945
 21
-1.0918
  0
LINE
  8
0
 10
-0.793945
 20
-1.0918
 11
-0.8125
 21
-1.07812
  0
LINE
  8
0
 10
-0.8125
 20
-1.07812
 11
-0.868164
 21
-1.03418
  0
LINE
  8
0
 10
-0.868164
 20
-1.03418
 11
-0.920898
 21
-0.987305
  0
LINE
  8
0
 10
-0.920898
 20
-0.987305
 11
-0.9375
 21
-0.970703
  0
LINE
  8
0
 10
-0.9375
 20
-0.970703
 11
-0.955078
 21
-0.955078
  0
LINE
  8
0
 10
-0.955078
 20
-0.955078
 11
-0.970703
 21
-0.9375
  0
LINE
  8
0
 10
-0.970703
 20
-0.9375
 11
-0.987305
 21
-0.920898
  0
LINE
  8
0
 10
-0.987305
 20
-0.920898
 11
-1.03418
 21
-0.868164
  0
LINE
  8
0
 10
-1.03418
 20
-0.868164
 11
-1.07812
 21
-0.8125
  0
LINE
  8
0
 10
-1.07812
 20
-0.8125
 11
-1.0918
 21
-0.793945
  0
LINE
  8
0
 10
-1.0918
 20
-0.793945
 11
-1.11914
 21
-0.754883
  0
LINE
  8
0
 10
-1.11914
 20
-0.754883
 11
-1.14453
 21
-0.71582
  0
LINE
  8
0
 10
-1.14453
 20
-0.71582
 11
-1.15723
 21
-0.695312
  0
LINE
  8
0
 10
-1.15723
 20
-0.695312
 11
-1.19238
 21
-0.633789
  0
LINE
  8
0
 10
-1.19238
 20
-0.633789
 11
-1.20312
 21
-0.613281
  0
LINE
  8
0
 10
-1.20312
 20
-0.613281
 11
-1.21289
 21
-0.591797
  0
LINE
  8
0
 10
-1.21289
 20
-0.591797
 11
-1.22363
 21
-0.570312
  0
LINE
  8
0
 10
-1.22363
 20
-0.570312
 11
-1.24316
 21
-0.527344
  0
LINE
  8
0
 10
-1.24316
 20
-0.527344
 11
-1.25195
 21
-0.505859
  0
LINE
  8
0
 10
-1.25195
 20
-0.505859
 11
-1.26074
 21
-0.483398
  0
LINE
  8
0
 10
-1.26074
 20
-0.483398
 11
-1.26855
 21
-0.461914
  0
LINE
  8
0
 10
-1.26855
 20
-0.461914
 11
-1.28418
 21
-0.416992
  0
LINE
  8
0
 10
-1.28418
 20
-0.416992
 11
-1.29785
 21
-0.37207
  0
LINE
  8
0
 10
-1.29785
 20
-0.37207
 11
-1.30371
 21
-0.349609
  0
LINE
  8
0
 10
-1.30371
 20
-0.349609
 11
-1.30957
 21
-0.326172
  0
LINE
  8
0
 10
-1.30957
 20
-0.326172
 11
-1.31543
 21
-0.303711
  0
LINE
  8
0
 10
-1.31543
 20
-0.303711
 11
-1.32031
 21
-0.280273
  0
LINE
  8
0
 10
-1.32031
 20
-0.280273
 11
-1.3252
 21
-0.257812
  0
LINE
  8
0
 10
-1.3252
 20
-0.257812
 11
-1.33691
 21
-0.1875
  0
LINE
  8
0
 10
-1.33691
 20
-0.1875
 11
-1.33984
 21
-0.164062
  0
LINE
  8
0
 10
-1.33984
 20
-0.164062
 11
-1.34277
 21
-0.141602
  0
LINE
  8
0
 10
-1.34277
 20
-0.141602
 11
-1.34473
 21
-0.117188
  0
LINE
  8
0
 10
-1.34473
 20
-0.117188
 11
-1.34863
 21
-0.0703125
  0
LINE
  8
0
 10
-1.34863
 20
-0.0703125
 11
-1.34961
 21
-0.046875
  0
LINE
  8
0
 10
-1.34961
 20
-0.046875
 11
-1.34961
 21
0.046875
  0
LINE
  8
0
 10
-1.34961
 20
0.046875
 11
-1.34863
 21
0.0703125
  0
LINE
  8
0
 10
-1.34863
 20
0.0703125
 11
-1.34473
 21
0.117188
  0
LINE
  8
0
 10
-1.34473
 20
0.117188
 11
-1.34277
 21
0.141602
  0
LINE
  8
0
 10
-1.34277
 20
0.141602
 11
-1.33984
 21
0.164062
  0
LINE
  8
0
 10
-1.33984
 20
0.164062
 11
-1.33691
 21
0.1875
  0
LINE
  8
0
 10
-1.33691
 20
0.1875
 11
-1.3252
 21
0.257812
  0
LINE
  8
0
 10
-1.3252
 20
0.257812
 11
-1.32031
 21
0.280273
  0
LINE
  8
0
 10
-1.32031
 20
0.280273
 11
-1.31543
 21
0.303711
  0
LINE
  8
0
 10
-1.31543
 20
0.303711
 11
-1.30957
 21
0.326172
  0
LINE
  8
0
 10
-1.30957
 20
0.326172
 11
-1.30371
 21
0.349609
  0
LINE
  8
0
 10
-1.30371
 20
0.349609
 11
-1.29785
 21
0.37207
  0
LINE
  8
0
 10
-1.29785
 20
0.37207
 11
-1.28418
 21
0.416992
  0
LINE
  8
0
 10
-1.28418
 20
0.416992
 11
-1.26855
 21
0.461914
  0
LINE
  8
0
 10
-1.26855
 20
0.461914
 11
-1.26074
 21
0.483398
  0
LINE
  8
0
 10
-1.26074
 20
0.483398
 11
-1.25195
 21
0.505859
  0
LINE
  8
0
 10
-1.25195
 20
0.505859
 11
-1.24316
 21
0.527344
  0
LINE
  8
0
 10
-1.24316
 20
0.527344
 11
-1.22363
 21
0.570312
  0
LINE
  8
0
 10
-1.22363
 20
0.570312
 11
-1.21289
 21
0.591797
  0
LINE
  8
0
 10
-1.21289
 20
0.591797
 11
-1.20312
 21
0.613281
  0
LINE
  8
0
 10
-1.20312
 20
0.613281
 11
-1.19238
 21
0.633789
  0
LINE
  8
0
 10
-1.19238
 20
0.633789
 11
-1.15723
 21
0.695312
  0
LINE
  8
0
 10
-1.15723
 20
0.695312
 11
-1.14453
 21
0.71582
  0
LINE
  8
0
 10
-1.14453
 20
0.71582
 11
-1.11914
 21
0.754883
  0
LINE
  8
0
 10
-1.11914
 20
0.754883
 11
-1.0918
 21
0.793945
  0
LINE
  8
0
 10
-1.0918
 20
0.793945
 11
-1.07812
 21
0.8125
  0
LINE
  8
0
 10
-1.07812
 20
0.8125
 11
-1.03418
 21
0.868164
  0
LINE
  8
0
 10
-1.03418
 20
0.868164
 11
-0.987305
 21
0.920898
  0
LINE
  8
0
 10
-0.987305
 20
0.920898
 11
-0.970703
 21
0.9375
  0
LINE
  8
0
 10
-0.970703
 20
0.9375
 11
-0.955078
 21
0.955078
  0
LINE
  8
0
 10
-0.955078
 20
0.955078
 11
-0.9375
 21
0.970703
  0
LINE
  8
0
 10
-0.9375
 20
0.970703
 11
-0.920898
 21
0.987305
  0
LINE
  8
0
 10
-0.920898
 20
0.987305
 11
-0.868164
 21
1.03418
  0
LINE
  8
0
 10
-0.868164
 20
1.03418
 11
-0.8125
 21
1.07812
  0
LINE
  8
0
 10
-0.8125
 20
1.07812
 11
-0.793945
 21
1.0918
  0
LINE
  8
0
 10
-0.793945
 20
1.0918
 11
-0.754883
 21
1.11914
  0
LINE
  8
0
 10
-0.754883
 20
1.11914
 11
-0.71582
 21
1.14453
  0
LINE
  8
0
 10
-0.71582
 20
1.14453
 11
-0.695312
 21
1.15723
  0
LINE
  8
0
 10
-0.695312
 20
1.15723
 11
-0.633789
 21
1.19238
  0
LINE
  8
0
 10
-0.633789
 20
1.19238
 11
-0.613281
 21
1.20312
  0
LINE
  8
0
 10
-0.613281
 20
1.20312
 11
-0.591797
 21
1.21289
  0
LINE
  8
0
 10
-0.591797
 20
1.21289
 11
-0.570312
 21
1.22363
  0
LINE
  8
0
 10
-0.570312
 20
1.22363
 11
-0.527344
 21
1.24316
  0
LINE
  8
0
 10
-0.527344
 20
1.24316
 11
-0.505859
 21
1.25195
  0
LINE
  8
0
 10
-0.505859
 20
1.25195
 11
-0.483398
 21
1.26074
  0
LINE
  8
0
 10
-0.483398
 20
1.26074
 11
-0.461914
 21
1.26855
  0
LINE
  8
0
 10
-0.461914
 20
1.26855
 11
-0.416992
 21
1.28418
  0
LINE
  8
0
 10
-0.416992
 20
1.28418
 11
-0.37207
 21
1.29785
  0
LINE
  8
0
 10
-0.37207
 20
1.29785
 11
-0.349609
 21
1.30371
  0
LINE
  8
0
 10
-0.349609
 20
1.30371
 11
-0.326172
 21
1.30957
  0
LINE
  8
0
 10
-0.326172
 20
1.30957
 11
-0.303711
 21
1.31543
  0
LINE
  8
0
 10
-0.303711
 20
1.31543
 11
-0.280273
 21
1.32031
  0
LINE
  8
0
 10
-0.280273
 20
1.32031
 11
-0.257812
 21
1.3252
  0
LINE
  8
0
 10
-0.257812
 20
1.3252
 11
-0.1875
 21
1.33691
  0
LINE
  8
0
 10
-0.1875
 20
1.33691
 11
-0.164062
 21
1.33984
  0
LINE
  8
0
 10
-0.164062
 20
1.33984
 11
-0.141602
 21
1.34277
  0
LINE
  8
0
 10
-0.141602
 20
1.34277
 11
-0.117188
 21
1.34473
  0
LINE
  8
0
 10
-0.117188
 20
1.34473
 11
-0.0703125
 21
1.34863
  0
LINE
  8
0
 10
-0.0703125
 20
1.34863
 11
-0.046875
 21
1.34961
  0
LINE
  8
0
 10
-0.046875
 20
1.34961
 11
0.046875
 21
1.34961
  0
LINE
  8
0
 10
0.046875
 20
1.34961
 11
0.0703125
 21
1.34863
  0
LINE
  8
0
 10
0.0703125
 20
1.34863
 11
0.117188
 21
1.34473
  0
LINE
  8
0
 10
0.117188
 20
1.34473
 11
0.141602
 21
1.34277
  0
LINE
  8
0
 10
0.141602
 20
1.34277
 11
0.164062
 21
1.33984
  0
LINE
  8
0
 10
0.164062
 20
1.33984
 11
0.1875
 21
1.33691
  0
LINE
  8
0
 10
0.1875
 20
1.33691
 11
0.257812
 21
1.3252
  0
LINE
  8
0
 10
0.257812
 20
1.3252
 11
0.280273
 21
1.32031
  0
LINE
  8
0
 10
0.280273
 20
1.32031
 11
0.303711
 21
1.31543
  0
LINE
  8
0
 10
0.303711
 20
1.31543
 11
0.326172
 21
1.30957
  0
LINE
  8
0
 10
0.326172
 20
1.30957
 11
0.349609
 21
1.30371
  0
LINE
  8
0
 10
0.349609
 20
1.30371
 11
0.37207
 21
1.29785
  0
LINE
  8
0
 10
0.37207
 20
1.29785
 11
0.416992
 21
1.28418
  0
LINE
  8
0
 10
0.416992
 20
1.28418
 11
0.461914
 21
1.26855
  0
LINE
  8
0
 10
0.461914
 20
1.26855
 11
0.483398
 21
1.26074
  0
LINE
  8
0
 10
0.483398
 20
1.26074
 11
0.505859
 21
1.25195
  0
LINE
  8
0
 10
0.505859
 20
1.25195
 11
0.527344
 21
1.24316
  0
LINE
  8
0
 10
0.527344
 20
1.24316
 11
0.570312
 21
1.22363
  0
LINE
  8
0
 10
0.570312
 20
1.22363
 11
0.591797
 21
1.21289
  0
LINE
  8
0
 10
0.591797
 20
1.21289
 11
0.613281
 21
1.20312
  0
LINE
  8
0
 10
0.613281
 20
1.20312
 11
0.633789
 21
1.19238
  0
LINE
  8
0
 10
0.633789
 20
1.19238
 11
0.695312
 21
1.15723
  0
LINE
  8
0
 10
0.695312
 20
1.15723
 11
0.71582
 21
1.14453
  0
LINE
  8
0
 10
0.71582
 20
1.14453
 11
0.754883
 21
1.11914
  0
LINE
  8
0
 10
0.754883
 20
1.11914
 11
0.793945
 21
1.0918
  0
LINE
  8
0
 10
0.793945
 20
1.0918
 11
0.8125
 21
1.07812
  0
LINE
  8
0
 10
0.8125
 20
1.07812
 11
0.868164
 21
1.03418
  0
LINE
  8
0
 10
0.868164
 20
1.03418
 11
0.920898
 21
0.987305
  0
LINE
  8
0
 10
0.920898
 20
0.987305
 11
0.9375
 21
0.970703
  0
LINE
  8
0
 10
0.9375
 20
0.970703
 11
0.955078
 21
0.955078
  0
LINE
  8
0
 10
0.955078
 20
0.955078
 11
0.970703
 21
0.9375
  0
LINE
  8
0
 10
0.970703
 20
0.9375
 11
0.987305
 21
0.920898
  0
LINE
  8
0
 10
0.987305
 20
0.920898
 11
1.03418
 21
0.868164
  0
LINE
  8
0
 10
1.03418
 20
0.868164
 11
1.07812
 21
0.8125
  0
LINE
  8
0
 10
1.07812
 20
0.8125
 11
1.0918
 21
0.793945
  0
LINE
  8
0
 10
1.0918
 20
0.793945
 11
1.11914
 21
0.754883
  0
LINE
  8
0
 10
1.11914
 20
0.754883
 11
1.14453
 21
0.71582
  0
LINE
  8
0
 10
1.14453
 20
0.71582
 11
1.15723
 21
0.695312
  0
LINE
  8
0
 10
1.15723
 20
0.695312
 11
1.19238
 21
0.633789
  0
LINE
  8
0
 10
1.19238
 20
0.633789
 11
1.20312
 21
0.613281
  0
LINE
  8
0
 10
1.20312
 20
0.613281
 11
1.21289
 21
0.591797
  0
LINE
  8
0
 10
1.21289
 20
0.591797
 11
1.22363
 21
0.570312
  0
LINE
  8
0
 10
1.22363
 20
0.570312
 11
1.24316
 21
0.527344
  0
LINE
  8
0
 10
1.24316
 20
0.527344
 11
1.25195
 21
0.505859
  0
LINE
  8
0
 10
1.25195
 20
0.505859
 11
1.26074
 21
0.483398
  0
LINE
  8
0
 10
1.26074
 20
0.483398
 11
1.26855
 21
0.461914
  0
LINE
  8
0
 10
1.26855
 20
0.461914
 11
1.28418
 21
0.416992
  0
LINE
  8
0
 10
1.28418
 20
0.416992
 11
1.29785
 21
0.37207
  0
LINE
  8
0
 10
1.29785
 20
0.37207
 11
1.30371
 21
0.349609
  0
LINE
  8
0
 10
1.30371
 20
0.349609
 11
1.30957
 21
0.326172
  0
LINE
  8
0
 10
1.30957
 20
0.326172
 11
1.31543
 21
0.303711
  0
LINE
  8
0
 10
1.31543
 20
0.303711
 11
1.32031
 21
0.280273
  0
LINE
  8
0
 10
1.32031
 20
0.280273
 11
1.3252
 21
0.257812
  0
LINE
  8
0
 10
1.3252
 20
0.257812
 11
1.33691
 21
0.1875
  0
LINE
  8
0
 10
1.33691
 20
0.1875
 11
1.33984
 21
0.164062
  0
LINE
  8
0
 10
1.33984
 20
0.164062
 11
1.34277
 21
0.141602
  0
LINE
  8
0
 10
1.34277
 20
0.141602
 11
1.34473
 21
0.117188
  0
LINE
  8
0
 10
1.34473
 20
0.117188
 11
1.34863
 21
0.0703125
  0
LINE
  8
0
 10
1.34863
 20
0.0703125
 11
1.34961
 21
0.046875
  0
LINE
  8
0
 10
1.34961
 20
0.046875
 11
1.34961
 21
-0.046875
  0
LINE
  8
0
 10
1.34961
 20
-0.046875
 11
1.34863
 21
-0.0703125
  0
LINE
  8
0
 10
1.34863
 20
-0.0703125
 11
1.34473
 21
-0.117188
  0
LINE
  8
0
 10
1.34473
 20
-0.117188
 11
1.34277
 21
-0.141602
  0
LINE
  8
0
 10
1.34277
 20
-0.141602
 11
1.33984
 21
-0.164062
  0
LINE
  8
0
 10
1.33984
 20
-0.164062
 11
1.33691
 21
-0.1875
  0
LINE
  8
0
 10
1.33691
 20
-0.1875
 11
1.3252
 21
-0.257812
  0
LINE
  8
0
 10
1.3252
 20
-0.257812
 11
1.32031
 21
-0.280273
  0
LINE
  8
0
 10
1.32031
 20
-0.280273
 11
1.31543
 21
-0.303711
  0
LINE
  8
0
 10
1.31543
 20
-0.303711
 11
1.30957
 21
-0.326172
  0
LINE
  8
0
 10
1.30957
 20
-0.326172
 11
1.30371
 21
-0.349609
  0
LINE
  8
0
 10
1.30371
 20
-0.349609
 11
1.29785
 21
-0.37207
  0
LINE
  8
0
 10
1.29785
 20
-0.37207
 11
1.28418
 21
-0.416992
  0
LINE
  8
0
 10
1.28418
 20
-0.416992
 11
1.26855
 21
-0.461914
  0
LINE
  8
0
 10
1.26855
 20
-0.461914
 11
1.26074
 21
-0.483398
  0
LINE
  8
0
 10
1.26074
 20
-0.483398
 11
1.25195
 21
-0.505859
  0
LINE
  8
0
 10
1.25195
 20
-0.505859
 11
1.24316
 21
-0.527344
  0
LINE
  8
0
 10
1.24316
 20
-0.527344
 11
1.22363
 21
-0.570312
  0
LINE
  8
0
 10
1.22363
 20
-0.570312
 11
1.21289
 21
-0.591797
  0
LINE
  8
0
 10
1.21289
 20
-0.591797
 11
1.20312
 21
-0.613281
  0
LINE
  8
0
 10
1.20312
 20
-0.613281
 11
1.19238
 21
-0.633789
  0
LINE
  8
0
 10
1.19238
 20
-0.633789
 11
1.15723
 21
-0.695312
  0
LINE
  8
0
 10
1.15723
 20
-0.695312
 11
1.14453
 21
-0.71582
  0
LINE
  8
0
 10
1.14453
 20
-0.71582
 11
1.11914
 21
-0.754883
  0
LINE
  8
0
 10
1.11914
 20
-0.754883
 11
1.0918
 21
-0.793945
  0
LINE
  8
0
 10
1.0918
 20
-0.793945
 11
1.07812
 21
-0.8125
  0
LINE
  8
0
 10
1.07812
 20
-0.8125
 11
1.03418
 21
-0.868164
  0
LINE
  8
0
 10
1.03418
 20
-0.868164
 11
0.987305
 21
-0.920898
  0
LINE
  8
0
 10
0.987305
 20
-0.920898
 11
0.970703
 21
-0.9375
  0
LINE
  8
0
 10
0.970703
 20
-0.9375
 11
0.955078
 21
-0.955078
  0
LINE
  8
0
 10
0.955078
 20
-0.955078
 11
0.9375
 21
-0.970703
  0
LINE
  8
0
 10
0.9375
 20
-0.970703
 11
0.920898
 21
-0.987305
  0
LINE
  8
0
 10
0.920898
 20
-0.987305
 11
0.868164
 21
-1.03418
  0
LINE
  8
0
 10
0.868164
 20
-1.03418
 11
0.8125
 21
-1.07812
  0
LINE
  8
0
 10
0.8125
 20
-1.07812
 11
0.793945
 21
-1.0918
  0
LINE
  8
0
 10
0.793945
 20
-1.0918
 11
0.754883
 21
-1.11914
  0
LINE
  8
0
 10
0.754883
 20
-1.11914
 11
0.71582
 21
-1.14453
  0
LINE
  8
0
 10
0.71582
 20
-1.14453
 11
0.695312
 21
-1.15723
  0
LINE
  8
0
 10
0.695312
 20
-1.15723
 11
0.633789
 21
-1.19238
  0
LINE
  8
0
 10
0.633789
 20
-1.19238
 11
0.613281
 21
-1.20312
  0
LINE
  8
0
 10
0.613281
 20
-1.20312
 11
0.591797
 21
-1.21289
  0
LINE
  8
0
 10
0.591797
 20
-1.21289
 11
0.570312
 21
-1.22363
  0
LINE
  8
0
 10
0.570312
 20
-1.22363
 11
0.527344
 21
-1.24316
  0
LINE
  8
0
 10
0.527344
 20
-1.24316
 11
0.505859
 21
-1.25195
  0
LINE
  8
0
 10
0.505859
 20
-1.25195
 11
0.483398
 21
-1.26074
  0
LINE
  8
0
 10
0.483398
 20
-1.26074
 11
0.461914
 21
-1.26855
  0
LINE
  8
0
 10
0.461914
 20
-1.26855
 11
0.416992
 21
-1.28418
  0
LINE
  8
0
 10
0.416992
 20
-1.28418
 11
0.37207
 21
-1.29785
  0
LINE
  8
0
 10
0.37207
 20
-1.29785
 11
0.349609
 21
-1.30371
  0
LINE
  8
0
 10
0.349609
 20
-1.30371
 11
0.326172
 21
-1.30957
  0
LINE
  8
0
 10
0.326172
 20
-1.30957
 11
0.303711
 21
-1.31543
  0
LINE
  8
0
 10
0.303711
 20
-1.31543
 11
0.280273
 21
-1.32031
  0
LINE
  8
0
 10
0.280273
 20
-1.32031
 11
0.257812
 21
-1.3252
  0
LINE
  8
0
 10
0.257812
 20
-1.3252
 11
0.1875
 21
-1.33691
  0
LINE
  8
0
 10
0.1875
 20
-1.33691
 11
0.164062
 21
-1.33984
  0
LINE
  8
0
 10
0.164062
 20
-1.33984
 11
0.141602
 21
-1.34277
  0
LINE
  8
0
 10
0.141602
 20
-1.34277
 11
0.117188
 21
-1.34473
  0
LINE
  8
0
 10
0.117188
 20
-1.34473
 11
0.0703125
 21
-1.34863
  0
LINE
  8
0
 10
0.0703125
 20
-1.34863
 11
0.046875
 21
-1.34961
  0
LINE
  8
0
 10
0.046875
 20
-1.34961
 11
-0.046875
 21
-1.34961
  0
ENDSEC
  0
SECTION
  2
OBJECTS
  0
DICTIONARY
  0
ENDSEC
  0
EOF
