  0
SECTION
  2
BLOCKS
  0
ENDSEC
  0
SECTION
  2
ENTITIES
  0
LINE
  8
0
 10
100.95
 20
6.5
 11
103.018
 21
6.5
  0
LINE
  8
0
 10
103.018
 20
6.5
 11
103.035
 21
6.50098
  0
LINE
  8
0
 10
103.035
 20
6.50098
 11
103.053
 21
6.50098
  0
LINE
  8
0
 10
103.053
 20
6.50098
 11
103.069
 21
6.50195
  0
LINE
  8
0
 10
103.069
 20
6.50195
 11
103.14
 21
6.50977
  0
LINE
  8
0
 10
103.14
 20
6.50977
 11
103.156
 21
6.5127
  0
LINE
  8
0
 10
103.156
 20
6.5127
 11
103.174
 21
6.51562
  0
LINE
  8
0
 10
103.174
 20
6.51562
 11
103.19
 21
6.51855
  0
LINE
  8
0
 10
103.19
 20
6.51855
 11
103.208
 21
6.52148
  0
LINE
  8
0
 10
103.208
 20
6.52148
 11
103.225
 21
6.52539
  0
LINE
  8
0
 10
103.225
 20
6.52539
 11
103.242
 21
6.5293
  0
LINE
  8
0
 10
103.242
 20
6.5293
 11
103.309
 21
6.54883
  0
LINE
  8
0
 10
103.309
 20
6.54883
 11
103.358
 21
6.56641
  0
LINE
  8
0
 10
103.358
 20
6.56641
 11
103.375
 21
6.57324
  0
LINE
  8
0
 10
103.375
 20
6.57324
 11
103.391
 21
6.5791
  0
LINE
  8
0
 10
103.391
 20
6.5791
 11
103.406
 21
6.58691
  0
LINE
  8
0
 10
103.406
 20
6.58691
 11
103.423
 21
6.59375
  0
LINE
  8
0
 10
103.423
 20
6.59375
 11
103.47
 21
6.61719
  0
LINE
  8
0
 10
103.47
 20
6.61719
 11
103.484
 21
6.625
  0
LINE
  8
0
 10
103.484
 20
6.625
 11
103.5
 21
6.63379
  0
LINE
  8
0
 10
103.5
 20
6.63379
 11
103.515
 21
6.64258
  0
LINE
  8
0
 10
103.515
 20
6.64258
 11
103.53
 21
6.65234
  0
LINE
  8
0
 10
103.53
 20
6.65234
 11
103.545
 21
6.66113
  0
LINE
  8
0
 10
103.545
 20
6.66113
 11
103.56
 21
6.6709
  0
LINE
  8
0
 10
103.56
 20
6.6709
 11
103.573
 21
6.68066
  0
LINE
  8
0
 10
103.573
 20
6.68066
 11
103.588
 21
6.69141
  0
LINE
  8
0
 10
103.588
 20
6.69141
 11
103.602
 21
6.70117
  0
LINE
  8
0
 10
103.602
 20
6.70117
 11
103.629
 21
6.72266
  0
LINE
  8
0
 10
103.629
 20
6.72266
 11
103.643
 21
6.73438
  0
LINE
  8
0
 10
103.643
 20
6.73438
 11
103.656
 21
6.74512
  0
LINE
  8
0
 10
103.656
 20
6.74512
 11
103.694
 21
6.78027
  0
LINE
  8
0
 10
103.694
 20
6.78027
 11
103.72
 21
6.80566
  0
LINE
  8
0
 10
103.72
 20
6.80566
 11
103.755
 21
6.84375
  0
LINE
  8
0
 10
103.755
 20
6.84375
 11
103.766
 21
6.85742
  0
LINE
  8
0
 10
103.766
 20
6.85742
 11
103.777
 21
6.87109
  0
LINE
  8
0
 10
103.777
 20
6.87109
 11
103.799
 21
6.89844
  0
LINE
  8
0
 10
103.799
 20
6.89844
 11
103.809
 21
6.91211
  0
LINE
  8
0
 10
103.809
 20
6.91211
 11
103.819
 21
6.92676
  0
LINE
  8
0
 10
103.819
 20
6.92676
 11
103.829
 21
6.94043
  0
LINE
  8
0
 10
103.829
 20
6.94043
 11
103.839
 21
6.95508
  0
LINE
  8
0
 10
103.839
 20
6.95508
 11
103.848
 21
6.96973
  0
LINE
  8
0
 10
103.848
 20
6.96973
 11
103.857
 21
6.98535
  0
LINE
  8
0
 10
103.857
 20
6.98535
 11
103.866
 21
7
  0
LINE
  8
0
 10
103.866
 20
7
 11
103.875
 21
7.01562
  0
LINE
  8
0
 10
103.875
 20
7.01562
 11
103.883
 21
7.03027
  0
LINE
  8
0
 10
103.883
 20
7.03027
 11
103.906
 21
7.07715
  0
LINE
  8
0
 10
103.906
 20
7.07715
 11
103.913
 21
7.09375
  0
LINE
  8
0
 10
103.913
 20
7.09375
 11
103.921
 21
7.10938
  0
LINE
  8
0
 10
103.921
 20
7.10938
 11
103.927
 21
7.125
  0
LINE
  8
0
 10
103.927
 20
7.125
 11
103.934
 21
7.1416
  0
LINE
  8
0
 10
103.934
 20
7.1416
 11
103.951
 21
7.19141
  0
LINE
  8
0
 10
103.951
 20
7.19141
 11
103.971
 21
7.25781
  0
LINE
  8
0
 10
103.971
 20
7.25781
 11
103.975
 21
7.27539
  0
LINE
  8
0
 10
103.975
 20
7.27539
 11
103.979
 21
7.29199
  0
LINE
  8
0
 10
103.979
 20
7.29199
 11
103.981
 21
7.30957
  0
LINE
  8
0
 10
103.981
 20
7.30957
 11
103.984
 21
7.32617
  0
LINE
  8
0
 10
103.984
 20
7.32617
 11
103.987
 21
7.34375
  0
LINE
  8
0
 10
103.987
 20
7.34375
 11
103.99
 21
7.36035
  0
LINE
  8
0
 10
103.99
 20
7.36035
 11
103.998
 21
7.43066
  0
LINE
  8
0
 10
103.998
 20
7.43066
 11
103.999
 21
7.44727
  0
LINE
  8
0
 10
103.999
 20
7.44727
 11
103.999
 21
7.46484
  0
LINE
  8
0
 10
103.999
 20
7.46484
 11
104
 21
7.48242
  0
LINE
  8
0
 10
104
 20
7.48242
 11
104
 21
14.5518
  0
LINE
  8
0
 10
104
 20
14.5518
 11
103.999
 21
14.5693
  0
LINE
  8
0
 10
103.999
 20
14.5693
 11
103.999
 21
14.5869
  0
LINE
  8
0
 10
103.999
 20
14.5869
 11
103.998
 21
14.6045
  0
LINE
  8
0
 10
103.998
 20
14.6045
 11
103.996
 21
14.6211
  0
LINE
  8
0
 10
103.996
 20
14.6211
 11
103.99
 21
14.6738
  0
LINE
  8
0
 10
103.99
 20
14.6738
 11
103.987
 21
14.6904
  0
LINE
  8
0
 10
103.987
 20
14.6904
 11
103.981
 21
14.7256
  0
LINE
  8
0
 10
103.981
 20
14.7256
 11
103.979
 21
14.7422
  0
LINE
  8
0
 10
103.979
 20
14.7422
 11
103.975
 21
14.7598
  0
LINE
  8
0
 10
103.975
 20
14.7598
 11
103.971
 21
14.7764
  0
LINE
  8
0
 10
103.971
 20
14.7764
 11
103.961
 21
14.8096
  0
LINE
  8
0
 10
103.961
 20
14.8096
 11
103.956
 21
14.8271
  0
LINE
  8
0
 10
103.956
 20
14.8271
 11
103.951
 21
14.8438
  0
LINE
  8
0
 10
103.951
 20
14.8438
 11
103.945
 21
14.8604
  0
LINE
  8
0
 10
103.945
 20
14.8604
 11
103.939
 21
14.876
  0
LINE
  8
0
 10
103.939
 20
14.876
 11
103.934
 21
14.8926
  0
LINE
  8
0
 10
103.934
 20
14.8926
 11
103.927
 21
14.9092
  0
LINE
  8
0
 10
103.927
 20
14.9092
 11
103.921
 21
14.9248
  0
LINE
  8
0
 10
103.921
 20
14.9248
 11
103.913
 21
14.9414
  0
LINE
  8
0
 10
103.913
 20
14.9414
 11
103.906
 21
14.957
  0
LINE
  8
0
 10
103.906
 20
14.957
 11
103.875
 21
15.0195
  0
LINE
  8
0
 10
103.875
 20
15.0195
 11
103.866
 21
15.0342
  0
LINE
  8
0
 10
103.866
 20
15.0342
 11
103.857
 21
15.0498
  0
LINE
  8
0
 10
103.857
 20
15.0498
 11
103.848
 21
15.0645
  0
LINE
  8
0
 10
103.848
 20
15.0645
 11
103.839
 21
15.0791
  0
LINE
  8
0
 10
103.839
 20
15.0791
 11
103.819
 21
15.1084
  0
LINE
  8
0
 10
103.819
 20
15.1084
 11
103.809
 21
15.1221
  0
LINE
  8
0
 10
103.809
 20
15.1221
 11
103.799
 21
15.1357
  0
LINE
  8
0
 10
103.799
 20
15.1357
 11
103.788
 21
15.1504
  0
LINE
  8
0
 10
103.788
 20
15.1504
 11
103.777
 21
15.1641
  0
LINE
  8
0
 10
103.777
 20
15.1641
 11
103.766
 21
15.1768
  0
LINE
  8
0
 10
103.766
 20
15.1768
 11
103.755
 21
15.1904
  0
LINE
  8
0
 10
103.755
 20
15.1904
 11
103.743
 21
15.2031
  0
LINE
  8
0
 10
103.743
 20
15.2031
 11
103.731
 21
15.2168
  0
LINE
  8
0
 10
103.731
 20
15.2168
 11
103.694
 21
15.2539
  0
LINE
  8
0
 10
103.694
 20
15.2539
 11
103.656
 21
15.2891
  0
LINE
  8
0
 10
103.656
 20
15.2891
 11
103.643
 21
15.3008
  0
LINE
  8
0
 10
103.643
 20
15.3008
 11
103.588
 21
15.3438
  0
LINE
  8
0
 10
103.588
 20
15.3438
 11
103.573
 21
15.3535
  0
LINE
  8
0
 10
103.573
 20
15.3535
 11
103.56
 21
15.3633
  0
LINE
  8
0
 10
103.56
 20
15.3633
 11
103.53
 21
15.3828
  0
LINE
  8
0
 10
103.53
 20
15.3828
 11
103.515
 21
15.3916
  0
LINE
  8
0
 10
103.515
 20
15.3916
 11
103.5
 21
15.4004
  0
LINE
  8
0
 10
103.5
 20
15.4004
 11
103.484
 21
15.4092
  0
LINE
  8
0
 10
103.484
 20
15.4092
 11
103.47
 21
15.417
  0
LINE
  8
0
 10
103.47
 20
15.417
 11
103.454
 21
15.4258
  0
LINE
  8
0
 10
103.454
 20
15.4258
 11
103.438
 21
15.4336
  0
LINE
  8
0
 10
103.438
 20
15.4336
 11
103.423
 21
15.4404
  0
LINE
  8
0
 10
103.423
 20
15.4404
 11
103.406
 21
15.4482
  0
LINE
  8
0
 10
103.406
 20
15.4482
 11
103.375
 21
15.4619
  0
LINE
  8
0
 10
103.375
 20
15.4619
 11
103.309
 21
15.4854
  0
LINE
  8
0
 10
103.309
 20
15.4854
 11
103.242
 21
15.5049
  0
LINE
  8
0
 10
103.242
 20
15.5049
 11
103.225
 21
15.5088
  0
LINE
  8
0
 10
103.225
 20
15.5088
 11
103.208
 21
15.5127
  0
LINE
  8
0
 10
103.208
 20
15.5127
 11
103.19
 21
15.5156
  0
LINE
  8
0
 10
103.19
 20
15.5156
 11
103.174
 21
15.5195
  0
LINE
  8
0
 10
103.174
 20
15.5195
 11
103.156
 21
15.5225
  0
LINE
  8
0
 10
103.156
 20
15.5225
 11
103.14
 21
15.5244
  0
LINE
  8
0
 10
103.14
 20
15.5244
 11
103.122
 21
15.5273
  0
LINE
  8
0
 10
103.122
 20
15.5273
 11
103.104
 21
15.5293
  0
LINE
  8
0
 10
103.104
 20
15.5293
 11
103.087
 21
15.5303
  0
LINE
  8
0
 10
103.087
 20
15.5303
 11
103.069
 21
15.5322
  0
LINE
  8
0
 10
103.069
 20
15.5322
 11
103.053
 21
15.5332
  0
LINE
  8
0
 10
103.053
 20
15.5332
 11
103.035
 21
15.5342
  0
LINE
  8
0
 10
103.035
 20
15.5342
 11
100.95
 21
15.5342
  0
LINE
  8
0
 10
100.95
 20
15.5342
 11
100.95
 21
117.672
  0
LINE
  8
0
 10
100.95
 20
117.672
 11
103.035
 21
117.672
  0
LINE
  8
0
 10
103.035
 20
117.672
 11
103.053
 21
117.673
  0
LINE
  8
0
 10
103.053
 20
117.673
 11
103.069
 21
117.674
  0
LINE
  8
0
 10
103.069
 20
117.674
 11
103.087
 21
117.676
  0
LINE
  8
0
 10
103.087
 20
117.676
 11
103.104
 21
117.677
  0
LINE
  8
0
 10
103.104
 20
117.677
 11
103.122
 21
117.679
  0
LINE
  8
0
 10
103.122
 20
117.679
 11
103.14
 21
117.682
  0
LINE
  8
0
 10
103.14
 20
117.682
 11
103.156
 21
117.684
  0
LINE
  8
0
 10
103.156
 20
117.684
 11
103.174
 21
117.687
  0
LINE
  8
0
 10
103.174
 20
117.687
 11
103.19
 21
117.69
  0
LINE
  8
0
 10
103.19
 20
117.69
 11
103.208
 21
117.693
  0
LINE
  8
0
 10
103.208
 20
117.693
 11
103.225
 21
117.697
  0
LINE
  8
0
 10
103.225
 20
117.697
 11
103.242
 21
117.701
  0
LINE
  8
0
 10
103.242
 20
117.701
 11
103.309
 21
117.721
  0
LINE
  8
0
 10
103.309
 20
117.721
 11
103.375
 21
117.744
  0
LINE
  8
0
 10
103.375
 20
117.744
 11
103.406
 21
117.758
  0
LINE
  8
0
 10
103.406
 20
117.758
 11
103.423
 21
117.766
  0
LINE
  8
0
 10
103.423
 20
117.766
 11
103.438
 21
117.772
  0
LINE
  8
0
 10
103.438
 20
117.772
 11
103.454
 21
117.78
  0
LINE
  8
0
 10
103.454
 20
117.78
 11
103.47
 21
117.789
  0
LINE
  8
0
 10
103.47
 20
117.789
 11
103.484
 21
117.797
  0
LINE
  8
0
 10
103.484
 20
117.797
 11
103.5
 21
117.806
  0
LINE
  8
0
 10
103.5
 20
117.806
 11
103.515
 21
117.814
  0
LINE
  8
0
 10
103.515
 20
117.814
 11
103.53
 21
117.823
  0
LINE
  8
0
 10
103.53
 20
117.823
 11
103.56
 21
117.843
  0
LINE
  8
0
 10
103.56
 20
117.843
 11
103.573
 21
117.853
  0
LINE
  8
0
 10
103.573
 20
117.853
 11
103.588
 21
117.862
  0
LINE
  8
0
 10
103.588
 20
117.862
 11
103.643
 21
117.905
  0
LINE
  8
0
 10
103.643
 20
117.905
 11
103.656
 21
117.917
  0
LINE
  8
0
 10
103.656
 20
117.917
 11
103.694
 21
117.952
  0
LINE
  8
0
 10
103.694
 20
117.952
 11
103.731
 21
117.989
  0
LINE
  8
0
 10
103.731
 20
117.989
 11
103.743
 21
118.003
  0
LINE
  8
0
 10
103.743
 20
118.003
 11
103.755
 21
118.016
  0
LINE
  8
0
 10
103.755
 20
118.016
 11
103.766
 21
118.029
  0
LINE
  8
0
 10
103.766
 20
118.029
 11
103.777
 21
118.042
  0
LINE
  8
0
 10
103.777
 20
118.042
 11
103.788
 21
118.056
  0
LINE
  8
0
 10
103.788
 20
118.056
 11
103.799
 21
118.07
  0
LINE
  8
0
 10
103.799
 20
118.07
 11
103.809
 21
118.084
  0
LINE
  8
0
 10
103.809
 20
118.084
 11
103.819
 21
118.099
  0
LINE
  8
0
 10
103.819
 20
118.099
 11
103.829
 21
118.112
  0
LINE
  8
0
 10
103.829
 20
118.112
 11
103.839
 21
118.127
  0
LINE
  8
0
 10
103.839
 20
118.127
 11
103.848
 21
118.142
  0
LINE
  8
0
 10
103.848
 20
118.142
 11
103.857
 21
118.156
  0
LINE
  8
0
 10
103.857
 20
118.156
 11
103.866
 21
118.172
  0
LINE
  8
0
 10
103.866
 20
118.172
 11
103.875
 21
118.187
  0
LINE
  8
0
 10
103.875
 20
118.187
 11
103.906
 21
118.249
  0
LINE
  8
0
 10
103.906
 20
118.249
 11
103.913
 21
118.265
  0
LINE
  8
0
 10
103.913
 20
118.265
 11
103.921
 21
118.281
  0
LINE
  8
0
 10
103.921
 20
118.281
 11
103.927
 21
118.297
  0
LINE
  8
0
 10
103.927
 20
118.297
 11
103.934
 21
118.313
  0
LINE
  8
0
 10
103.934
 20
118.313
 11
103.939
 21
118.33
  0
LINE
  8
0
 10
103.939
 20
118.33
 11
103.945
 21
118.346
  0
LINE
  8
0
 10
103.945
 20
118.346
 11
103.951
 21
118.362
  0
LINE
  8
0
 10
103.951
 20
118.362
 11
103.956
 21
118.379
  0
LINE
  8
0
 10
103.956
 20
118.379
 11
103.961
 21
118.396
  0
LINE
  8
0
 10
103.961
 20
118.396
 11
103.971
 21
118.43
  0
LINE
  8
0
 10
103.971
 20
118.43
 11
103.975
 21
118.447
  0
LINE
  8
0
 10
103.975
 20
118.447
 11
103.979
 21
118.464
  0
LINE
  8
0
 10
103.979
 20
118.464
 11
103.981
 21
118.48
  0
LINE
  8
0
 10
103.981
 20
118.48
 11
103.987
 21
118.516
  0
LINE
  8
0
 10
103.987
 20
118.516
 11
103.99
 21
118.532
  0
LINE
  8
0
 10
103.99
 20
118.532
 11
103.996
 21
118.585
  0
LINE
  8
0
 10
103.996
 20
118.585
 11
103.998
 21
118.602
  0
LINE
  8
0
 10
103.998
 20
118.602
 11
103.999
 21
118.619
  0
LINE
  8
0
 10
103.999
 20
118.619
 11
103.999
 21
118.637
  0
LINE
  8
0
 10
103.999
 20
118.637
 11
104
 21
118.654
  0
LINE
  8
0
 10
104
 20
118.654
 11
104
 21
125.518
  0
LINE
  8
0
 10
104
 20
125.518
 11
103.999
 21
125.535
  0
LINE
  8
0
 10
103.999
 20
125.535
 11
103.999
 21
125.553
  0
LINE
  8
0
 10
103.999
 20
125.553
 11
103.998
 21
125.569
  0
LINE
  8
0
 10
103.998
 20
125.569
 11
103.99
 21
125.64
  0
LINE
  8
0
 10
103.99
 20
125.64
 11
103.987
 21
125.656
  0
LINE
  8
0
 10
103.987
 20
125.656
 11
103.984
 21
125.674
  0
LINE
  8
0
 10
103.984
 20
125.674
 11
103.981
 21
125.69
  0
LINE
  8
0
 10
103.981
 20
125.69
 11
103.979
 21
125.708
  0
LINE
  8
0
 10
103.979
 20
125.708
 11
103.975
 21
125.725
  0
LINE
  8
0
 10
103.975
 20
125.725
 11
103.971
 21
125.742
  0
LINE
  8
0
 10
103.971
 20
125.742
 11
103.951
 21
125.809
  0
LINE
  8
0
 10
103.951
 20
125.809
 11
103.934
 21
125.858
  0
LINE
  8
0
 10
103.934
 20
125.858
 11
103.927
 21
125.875
  0
LINE
  8
0
 10
103.927
 20
125.875
 11
103.921
 21
125.891
  0
LINE
  8
0
 10
103.921
 20
125.891
 11
103.913
 21
125.906
  0
LINE
  8
0
 10
103.913
 20
125.906
 11
103.906
 21
125.923
  0
LINE
  8
0
 10
103.906
 20
125.923
 11
103.883
 21
125.97
  0
LINE
  8
0
 10
103.883
 20
125.97
 11
103.875
 21
125.984
  0
LINE
  8
0
 10
103.875
 20
125.984
 11
103.866
 21
126
  0
LINE
  8
0
 10
103.866
 20
126
 11
103.857
 21
126.015
  0
LINE
  8
0
 10
103.857
 20
126.015
 11
103.848
 21
126.03
  0
LINE
  8
0
 10
103.848
 20
126.03
 11
103.839
 21
126.045
  0
LINE
  8
0
 10
103.839
 20
126.045
 11
103.829
 21
126.06
  0
LINE
  8
0
 10
103.829
 20
126.06
 11
103.819
 21
126.073
  0
LINE
  8
0
 10
103.819
 20
126.073
 11
103.809
 21
126.088
  0
LINE
  8
0
 10
103.809
 20
126.088
 11
103.799
 21
126.102
  0
LINE
  8
0
 10
103.799
 20
126.102
 11
103.777
 21
126.129
  0
LINE
  8
0
 10
103.777
 20
126.129
 11
103.766
 21
126.143
  0
LINE
  8
0
 10
103.766
 20
126.143
 11
103.755
 21
126.156
  0
LINE
  8
0
 10
103.755
 20
126.156
 11
103.72
 21
126.194
  0
LINE
  8
0
 10
103.72
 20
126.194
 11
103.694
 21
126.22
  0
LINE
  8
0
 10
103.694
 20
126.22
 11
103.656
 21
126.255
  0
LINE
  8
0
 10
103.656
 20
126.255
 11
103.643
 21
126.266
  0
LINE
  8
0
 10
103.643
 20
126.266
 11
103.629
 21
126.277
  0
LINE
  8
0
 10
103.629
 20
126.277
 11
103.602
 21
126.299
  0
LINE
  8
0
 10
103.602
 20
126.299
 11
103.588
 21
126.309
  0
LINE
  8
0
 10
103.588
 20
126.309
 11
103.573
 21
126.319
  0
LINE
  8
0
 10
103.573
 20
126.319
 11
103.56
 21
126.329
  0
LINE
  8
0
 10
103.56
 20
126.329
 11
103.545
 21
126.339
  0
LINE
  8
0
 10
103.545
 20
126.339
 11
103.53
 21
126.348
  0
LINE
  8
0
 10
103.53
 20
126.348
 11
103.515
 21
126.357
  0
LINE
  8
0
 10
103.515
 20
126.357
 11
103.5
 21
126.366
  0
LINE
  8
0
 10
103.5
 20
126.366
 11
103.484
 21
126.375
  0
LINE
  8
0
 10
103.484
 20
126.375
 11
103.47
 21
126.383
  0
LINE
  8
0
 10
103.47
 20
126.383
 11
103.423
 21
126.406
  0
LINE
  8
0
 10
103.423
 20
126.406
 11
103.406
 21
126.413
  0
LINE
  8
0
 10
103.406
 20
126.413
 11
103.391
 21
126.421
  0
LINE
  8
0
 10
103.391
 20
126.421
 11
103.375
 21
126.427
  0
LINE
  8
0
 10
103.375
 20
126.427
 11
103.358
 21
126.434
  0
LINE
  8
0
 10
103.358
 20
126.434
 11
103.309
 21
126.451
  0
LINE
  8
0
 10
103.309
 20
126.451
 11
103.242
 21
126.471
  0
LINE
  8
0
 10
103.242
 20
126.471
 11
103.225
 21
126.475
  0
LINE
  8
0
 10
103.225
 20
126.475
 11
103.208
 21
126.479
  0
LINE
  8
0
 10
103.208
 20
126.479
 11
103.19
 21
126.481
  0
LINE
  8
0
 10
103.19
 20
126.481
 11
103.174
 21
126.484
  0
LINE
  8
0
 10
103.174
 20
126.484
 11
103.156
 21
126.487
  0
LINE
  8
0
 10
103.156
 20
126.487
 11
103.14
 21
126.49
  0
LINE
  8
0
 10
103.14
 20
126.49
 11
103.069
 21
126.498
  0
LINE
  8
0
 10
103.069
 20
126.498
 11
103.053
 21
126.499
  0
LINE
  8
0
 10
103.053
 20
126.499
 11
103.035
 21
126.499
  0
LINE
  8
0
 10
103.035
 20
126.499
 11
103.018
 21
126.5
  0
LINE
  8
0
 10
103.018
 20
126.5
 11
98.75
 21
126.5
  0
LINE
  8
0
 10
98.75
 20
126.5
 11
98.75
 21
2
  0
LINE
  8
0
 10
98.75
 20
2
 11
95.7842
 21
2
  0
LINE
  8
0
 10
95.7842
 20
2
 11
95.7842
 21
126.5
  0
LINE
  8
0
 10
95.7842
 20
126.5
 11
83.5
 21
126.5
  0
LINE
  8
0
 10
83.5
 20
126.5
 11
83.4854
 21
2
  0
LINE
  8
0
 10
83.4854
 20
2
 11
17.2354
 21
2
  0
LINE
  8
0
 10
17.2354
 20
2
 11
17.25
 21
126.582
  0
LINE
  8
0
 10
17.25
 20
126.582
 11
5.25
 21
126.582
  0
LINE
  8
0
 10
5.25
 20
126.582
 11
5.25
 21
2
  0
LINE
  8
0
 10
5.25
 20
2
 11
2.25
 21
2
  0
LINE
  8
0
 10
2.25
 20
2
 11
2.25
 21
126.5
  0
LINE
  8
0
 10
2.25
 20
126.5
 11
-2.01758
 21
126.5
  0
LINE
  8
0
 10
-2.01758
 20
126.5
 11
-2.03516
 21
126.499
  0
LINE
  8
0
 10
-2.03516
 20
126.499
 11
-2.05273
 21
126.499
  0
LINE
  8
0
 10
-2.05273
 20
126.499
 11
-2.06934
 21
126.498
  0
LINE
  8
0
 10
-2.06934
 20
126.498
 11
-2.13965
 21
126.49
  0
LINE
  8
0
 10
-2.13965
 20
126.49
 11
-2.15625
 21
126.487
  0
LINE
  8
0
 10
-2.15625
 20
126.487
 11
-2.17383
 21
126.484
  0
LINE
  8
0
 10
-2.17383
 20
126.484
 11
-2.19043
 21
126.481
  0
LINE
  8
0
 10
-2.19043
 20
126.481
 11
-2.20801
 21
126.479
  0
LINE
  8
0
 10
-2.20801
 20
126.479
 11
-2.22461
 21
126.475
  0
LINE
  8
0
 10
-2.22461
 20
126.475
 11
-2.24219
 21
126.471
  0
LINE
  8
0
 10
-2.24219
 20
126.471
 11
-2.30859
 21
126.451
  0
LINE
  8
0
 10
-2.30859
 20
126.451
 11
-2.3584
 21
126.434
  0
LINE
  8
0
 10
-2.3584
 20
126.434
 11
-2.375
 21
126.427
  0
LINE
  8
0
 10
-2.375
 20
126.427
 11
-2.39062
 21
126.421
  0
LINE
  8
0
 10
-2.39062
 20
126.421
 11
-2.40625
 21
126.413
  0
LINE
  8
0
 10
-2.40625
 20
126.413
 11
-2.42285
 21
126.406
  0
LINE
  8
0
 10
-2.42285
 20
126.406
 11
-2.46973
 21
126.383
  0
LINE
  8
0
 10
-2.46973
 20
126.383
 11
-2.48438
 21
126.375
  0
LINE
  8
0
 10
-2.48438
 20
126.375
 11
-2.5
 21
126.366
  0
LINE
  8
0
 10
-2.5
 20
126.366
 11
-2.51465
 21
126.357
  0
LINE
  8
0
 10
-2.51465
 20
126.357
 11
-2.53027
 21
126.348
  0
LINE
  8
0
 10
-2.53027
 20
126.348
 11
-2.54492
 21
126.339
  0
LINE
  8
0
 10
-2.54492
 20
126.339
 11
-2.55957
 21
126.329
  0
LINE
  8
0
 10
-2.55957
 20
126.329
 11
-2.57324
 21
126.319
  0
LINE
  8
0
 10
-2.57324
 20
126.319
 11
-2.58789
 21
126.309
  0
LINE
  8
0
 10
-2.58789
 20
126.309
 11
-2.60156
 21
126.299
  0
LINE
  8
0
 10
-2.60156
 20
126.299
 11
-2.62891
 21
126.277
  0
LINE
  8
0
 10
-2.62891
 20
126.277
 11
-2.64258
 21
126.266
  0
LINE
  8
0
 10
-2.64258
 20
126.266
 11
-2.65625
 21
126.255
  0
LINE
  8
0
 10
-2.65625
 20
126.255
 11
-2.69434
 21
126.22
  0
LINE
  8
0
 10
-2.69434
 20
126.22
 11
-2.71973
 21
126.194
  0
LINE
  8
0
 10
-2.71973
 20
126.194
 11
-2.75488
 21
126.156
  0
LINE
  8
0
 10
-2.75488
 20
126.156
 11
-2.76562
 21
126.143
  0
LINE
  8
0
 10
-2.76562
 20
126.143
 11
-2.77734
 21
126.129
  0
LINE
  8
0
 10
-2.77734
 20
126.129
 11
-2.79883
 21
126.102
  0
LINE
  8
0
 10
-2.79883
 20
126.102
 11
-2.80859
 21
126.088
  0
LINE
  8
0
 10
-2.80859
 20
126.088
 11
-2.81934
 21
126.073
  0
LINE
  8
0
 10
-2.81934
 20
126.073
 11
-2.8291
 21
126.06
  0
LINE
  8
0
 10
-2.8291
 20
126.06
 11
-2.83887
 21
126.045
  0
LINE
  8
0
 10
-2.83887
 20
126.045
 11
-2.84766
 21
126.03
  0
LINE
  8
0
 10
-2.84766
 20
126.03
 11
-2.85742
 21
126.015
  0
LINE
  8
0
 10
-2.85742
 20
126.015
 11
-2.86621
 21
126
  0
LINE
  8
0
 10
-2.86621
 20
126
 11
-2.875
 21
125.984
  0
LINE
  8
0
 10
-2.875
 20
125.984
 11
-2.88281
 21
125.97
  0
LINE
  8
0
 10
-2.88281
 20
125.97
 11
-2.90625
 21
125.923
  0
LINE
  8
0
 10
-2.90625
 20
125.923
 11
-2.91309
 21
125.906
  0
LINE
  8
0
 10
-2.91309
 20
125.906
 11
-2.9209
 21
125.891
  0
LINE
  8
0
 10
-2.9209
 20
125.891
 11
-2.92676
 21
125.875
  0
LINE
  8
0
 10
-2.92676
 20
125.875
 11
-2.93359
 21
125.858
  0
LINE
  8
0
 10
-2.93359
 20
125.858
 11
-2.95117
 21
125.809
  0
LINE
  8
0
 10
-2.95117
 20
125.809
 11
-2.9707
 21
125.742
  0
LINE
  8
0
 10
-2.9707
 20
125.742
 11
-2.97461
 21
125.725
  0
LINE
  8
0
 10
-2.97461
 20
125.725
 11
-2.97852
 21
125.708
  0
LINE
  8
0
 10
-2.97852
 20
125.708
 11
-2.98145
 21
125.69
  0
LINE
  8
0
 10
-2.98145
 20
125.69
 11
-2.98438
 21
125.674
  0
LINE
  8
0
 10
-2.98438
 20
125.674
 11
-2.9873
 21
125.656
  0
LINE
  8
0
 10
-2.9873
 20
125.656
 11
-2.99023
 21
125.64
  0
LINE
  8
0
 10
-2.99023
 20
125.64
 11
-2.99805
 21
125.569
  0
LINE
  8
0
 10
-2.99805
 20
125.569
 11
-2.99902
 21
125.553
  0
LINE
  8
0
 10
-2.99902
 20
125.553
 11
-2.99902
 21
125.535
  0
LINE
  8
0
 10
-2.99902
 20
125.535
 11
-3
 21
125.518
  0
LINE
  8
0
 10
-3
 20
125.518
 11
-3
 21
118.654
  0
LINE
  8
0
 10
-3
 20
118.654
 11
-2.99902
 21
118.637
  0
LINE
  8
0
 10
-2.99902
 20
118.637
 11
-2.99902
 21
118.619
  0
LINE
  8
0
 10
-2.99902
 20
118.619
 11
-2.99805
 21
118.602
  0
LINE
  8
0
 10
-2.99805
 20
118.602
 11
-2.99609
 21
118.585
  0
LINE
  8
0
 10
-2.99609
 20
118.585
 11
-2.99023
 21
118.532
  0
LINE
  8
0
 10
-2.99023
 20
118.532
 11
-2.9873
 21
118.516
  0
LINE
  8
0
 10
-2.9873
 20
118.516
 11
-2.98145
 21
118.48
  0
LINE
  8
0
 10
-2.98145
 20
118.48
 11
-2.97852
 21
118.464
  0
LINE
  8
0
 10
-2.97852
 20
118.464
 11
-2.97461
 21
118.447
  0
LINE
  8
0
 10
-2.97461
 20
118.447
 11
-2.9707
 21
118.43
  0
LINE
  8
0
 10
-2.9707
 20
118.43
 11
-2.96094
 21
118.396
  0
LINE
  8
0
 10
-2.96094
 20
118.396
 11
-2.95605
 21
118.379
  0
LINE
  8
0
 10
-2.95605
 20
118.379
 11
-2.95117
 21
118.362
  0
LINE
  8
0
 10
-2.95117
 20
118.362
 11
-2.94531
 21
118.346
  0
LINE
  8
0
 10
-2.94531
 20
118.346
 11
-2.93945
 21
118.33
  0
LINE
  8
0
 10
-2.93945
 20
118.33
 11
-2.93359
 21
118.313
  0
LINE
  8
0
 10
-2.93359
 20
118.313
 11
-2.92676
 21
118.297
  0
LINE
  8
0
 10
-2.92676
 20
118.297
 11
-2.9209
 21
118.281
  0
LINE
  8
0
 10
-2.9209
 20
118.281
 11
-2.91309
 21
118.265
  0
LINE
  8
0
 10
-2.91309
 20
118.265
 11
-2.90625
 21
118.249
  0
LINE
  8
0
 10
-2.90625
 20
118.249
 11
-2.875
 21
118.187
  0
LINE
  8
0
 10
-2.875
 20
118.187
 11
-2.86621
 21
118.172
  0
LINE
  8
0
 10
-2.86621
 20
118.172
 11
-2.85742
 21
118.156
  0
LINE
  8
0
 10
-2.85742
 20
118.156
 11
-2.84766
 21
118.142
  0
LINE
  8
0
 10
-2.84766
 20
118.142
 11
-2.83887
 21
118.127
  0
LINE
  8
0
 10
-2.83887
 20
118.127
 11
-2.8291
 21
118.112
  0
LINE
  8
0
 10
-2.8291
 20
118.112
 11
-2.81934
 21
118.099
  0
LINE
  8
0
 10
-2.81934
 20
118.099
 11
-2.80859
 21
118.084
  0
LINE
  8
0
 10
-2.80859
 20
118.084
 11
-2.79883
 21
118.07
  0
LINE
  8
0
 10
-2.79883
 20
118.07
 11
-2.78809
 21
118.056
  0
LINE
  8
0
 10
-2.78809
 20
118.056
 11
-2.77734
 21
118.042
  0
LINE
  8
0
 10
-2.77734
 20
118.042
 11
-2.76562
 21
118.029
  0
LINE
  8
0
 10
-2.76562
 20
118.029
 11
-2.75488
 21
118.016
  0
LINE
  8
0
 10
-2.75488
 20
118.016
 11
-2.74316
 21
118.003
  0
LINE
  8
0
 10
-2.74316
 20
118.003
 11
-2.73145
 21
117.989
  0
LINE
  8
0
 10
-2.73145
 20
117.989
 11
-2.69434
 21
117.952
  0
LINE
  8
0
 10
-2.69434
 20
117.952
 11
-2.65625
 21
117.917
  0
LINE
  8
0
 10
-2.65625
 20
117.917
 11
-2.64258
 21
117.905
  0
LINE
  8
0
 10
-2.64258
 20
117.905
 11
-2.58789
 21
117.862
  0
LINE
  8
0
 10
-2.58789
 20
117.862
 11
-2.57324
 21
117.853
  0
LINE
  8
0
 10
-2.57324
 20
117.853
 11
-2.55957
 21
117.843
  0
LINE
  8
0
 10
-2.55957
 20
117.843
 11
-2.53027
 21
117.823
  0
LINE
  8
0
 10
-2.53027
 20
117.823
 11
-2.51465
 21
117.814
  0
LINE
  8
0
 10
-2.51465
 20
117.814
 11
-2.5
 21
117.806
  0
LINE
  8
0
 10
-2.5
 20
117.806
 11
-2.48438
 21
117.797
  0
LINE
  8
0
 10
-2.48438
 20
117.797
 11
-2.46973
 21
117.789
  0
LINE
  8
0
 10
-2.46973
 20
117.789
 11
-2.4541
 21
117.78
  0
LINE
  8
0
 10
-2.4541
 20
117.78
 11
-2.43848
 21
117.772
  0
LINE
  8
0
 10
-2.43848
 20
117.772
 11
-2.42285
 21
117.766
  0
LINE
  8
0
 10
-2.42285
 20
117.766
 11
-2.40625
 21
117.758
  0
LINE
  8
0
 10
-2.40625
 20
117.758
 11
-2.375
 21
117.744
  0
LINE
  8
0
 10
-2.375
 20
117.744
 11
-2.30859
 21
117.721
  0
LINE
  8
0
 10
-2.30859
 20
117.721
 11
-2.24219
 21
117.701
  0
LINE
  8
0
 10
-2.24219
 20
117.701
 11
-2.22461
 21
117.697
  0
LINE
  8
0
 10
-2.22461
 20
117.697
 11
-2.20801
 21
117.693
  0
LINE
  8
0
 10
-2.20801
 20
117.693
 11
-2.19043
 21
117.69
  0
LINE
  8
0
 10
-2.19043
 20
117.69
 11
-2.17383
 21
117.687
  0
LINE
  8
0
 10
-2.17383
 20
117.687
 11
-2.15625
 21
117.684
  0
LINE
  8
0
 10
-2.15625
 20
117.684
 11
-2.13965
 21
117.682
  0
LINE
  8
0
 10
-2.13965
 20
117.682
 11
-2.12207
 21
117.679
  0
LINE
  8
0
 10
-2.12207
 20
117.679
 11
-2.10449
 21
117.677
  0
LINE
  8
0
 10
-2.10449
 20
117.677
 11
-2.08691
 21
117.676
  0
LINE
  8
0
 10
-2.08691
 20
117.676
 11
-2.06934
 21
117.674
  0
LINE
  8
0
 10
-2.06934
 20
117.674
 11
-2.05273
 21
117.673
  0
LINE
  8
0
 10
-2.05273
 20
117.673
 11
-2.03516
 21
117.672
  0
LINE
  8
0
 10
-2.03516
 20
117.672
 11
0
 21
117.672
  0
LINE
  8
0
 10
0
 20
117.672
 11
0
 21
15.5342
  0
LINE
  8
0
 10
0
 20
15.5342
 11
-2.03516
 21
15.5342
  0
LINE
  8
0
 10
-2.03516
 20
15.5342
 11
-2.05273
 21
15.5332
  0
LINE
  8
0
 10
-2.05273
 20
15.5332
 11
-2.06934
 21
15.5322
  0
LINE
  8
0
 10
-2.06934
 20
15.5322
 11
-2.08691
 21
15.5303
  0
LINE
  8
0
 10
-2.08691
 20
15.5303
 11
-2.10449
 21
15.5293
  0
LINE
  8
0
 10
-2.10449
 20
15.5293
 11
-2.12207
 21
15.5273
  0
LINE
  8
0
 10
-2.12207
 20
15.5273
 11
-2.13965
 21
15.5244
  0
LINE
  8
0
 10
-2.13965
 20
15.5244
 11
-2.15625
 21
15.5225
  0
LINE
  8
0
 10
-2.15625
 20
15.5225
 11
-2.17383
 21
15.5195
  0
LINE
  8
0
 10
-2.17383
 20
15.5195
 11
-2.19043
 21
15.5156
  0
LINE
  8
0
 10
-2.19043
 20
15.5156
 11
-2.20801
 21
15.5127
  0
LINE
  8
0
 10
-2.20801
 20
15.5127
 11
-2.22461
 21
15.5088
  0
LINE
  8
0
 10
-2.22461
 20
15.5088
 11
-2.24219
 21
15.5049
  0
LINE
  8
0
 10
-2.24219
 20
15.5049
 11
-2.30859
 21
15.4854
  0
LINE
  8
0
 10
-2.30859
 20
15.4854
 11
-2.375
 21
15.4619
  0
LINE
  8
0
 10
-2.375
 20
15.4619
 11
-2.40625
 21
15.4482
  0
LINE
  8
0
 10
-2.40625
 20
15.4482
 11
-2.42285
 21
15.4404
  0
LINE
  8
0
 10
-2.42285
 20
15.4404
 11
-2.43848
 21
15.4336
  0
LINE
  8
0
 10
-2.43848
 20
15.4336
 11
-2.4541
 21
15.4258
  0
LINE
  8
0
 10
-2.4541
 20
15.4258
 11
-2.46973
 21
15.417
  0
LINE
  8
0
 10
-2.46973
 20
15.417
 11
-2.48438
 21
15.4092
  0
LINE
  8
0
 10
-2.48438
 20
15.4092
 11
-2.5
 21
15.4004
  0
LINE
  8
0
 10
-2.5
 20
15.4004
 11
-2.51465
 21
15.3916
  0
LINE
  8
0
 10
-2.51465
 20
15.3916
 11
-2.53027
 21
15.3828
  0
LINE
  8
0
 10
-2.53027
 20
15.3828
 11
-2.55957
 21
15.3633
  0
LINE
  8
0
 10
-2.55957
 20
15.3633
 11
-2.57324
 21
15.3535
  0
LINE
  8
0
 10
-2.57324
 20
15.3535
 11
-2.58789
 21
15.3438
  0
LINE
  8
0
 10
-2.58789
 20
15.3438
 11
-2.64258
 21
15.3008
  0
LINE
  8
0
 10
-2.64258
 20
15.3008
 11
-2.65625
 21
15.2891
  0
LINE
  8
0
 10
-2.65625
 20
15.2891
 11
-2.69434
 21
15.2539
  0
LINE
  8
0
 10
-2.69434
 20
15.2539
 11
-2.73145
 21
15.2168
  0
LINE
  8
0
 10
-2.73145
 20
15.2168
 11
-2.74316
 21
15.2031
  0
LINE
  8
0
 10
-2.74316
 20
15.2031
 11
-2.75488
 21
15.1904
  0
LINE
  8
0
 10
-2.75488
 20
15.1904
 11
-2.76562
 21
15.1768
  0
LINE
  8
0
 10
-2.76562
 20
15.1768
 11
-2.77734
 21
15.1641
  0
LINE
  8
0
 10
-2.77734
 20
15.1641
 11
-2.78809
 21
15.1504
  0
LINE
  8
0
 10
-2.78809
 20
15.1504
 11
-2.79883
 21
15.1357
  0
LINE
  8
0
 10
-2.79883
 20
15.1357
 11
-2.80859
 21
15.1221
  0
LINE
  8
0
 10
-2.80859
 20
15.1221
 11
-2.81934
 21
15.1084
  0
LINE
  8
0
 10
-2.81934
 20
15.1084
 11
-2.83887
 21
15.0791
  0
LINE
  8
0
 10
-2.83887
 20
15.0791
 11
-2.84766
 21
15.0645
  0
LINE
  8
0
 10
-2.84766
 20
15.0645
 11
-2.85742
 21
15.0498
  0
LINE
  8
0
 10
-2.85742
 20
15.0498
 11
-2.86621
 21
15.0342
  0
LINE
  8
0
 10
-2.86621
 20
15.0342
 11
-2.875
 21
15.0195
  0
LINE
  8
0
 10
-2.875
 20
15.0195
 11
-2.90625
 21
14.957
  0
LINE
  8
0
 10
-2.90625
 20
14.957
 11
-2.91309
 21
14.9414
  0
LINE
  8
0
 10
-2.91309
 20
14.9414
 11
-2.9209
 21
14.9248
  0
LINE
  8
0
 10
-2.9209
 20
14.9248
 11
-2.92676
 21
14.9092
  0
LINE
  8
0
 10
-2.92676
 20
14.9092
 11
-2.93359
 21
14.8926
  0
LINE
  8
0
 10
-2.93359
 20
14.8926
 11
-2.93945
 21
14.876
  0
LINE
  8
0
 10
-2.93945
 20
14.876
 11
-2.94531
 21
14.8604
  0
LINE
  8
0
 10
-2.94531
 20
14.8604
 11
-2.95117
 21
14.8438
  0
LINE
  8
0
 10
-2.95117
 20
14.8438
 11
-2.95605
 21
14.8271
  0
LINE
  8
0
 10
-2.95605
 20
14.8271
 11
-2.96094
 21
14.8096
  0
LINE
  8
0
 10
-2.96094
 20
14.8096
 11
-2.9707
 21
14.7764
  0
LINE
  8
0
 10
-2.9707
 20
14.7764
 11
-2.97461
 21
14.7598
  0
LINE
  8
0
 10
-2.97461
 20
14.7598
 11
-2.97852
 21
14.7422
  0
LINE
  8
0
 10
-2.97852
 20
14.7422
 11
-2.98145
 21
14.7256
  0
LINE
  8
0
 10
-2.98145
 20
14.7256
 11
-2.9873
 21
14.6904
  0
LINE
  8
0
 10
-2.9873
 20
14.6904
 11
-2.99023
 21
14.6738
  0
LINE
  8
0
 10
-2.99023
 20
14.6738
 11
-2.99609
 21
14.6211
  0
LINE
  8
0
 10
-2.99609
 20
14.6211
 11
-2.99805
 21
14.6045
  0
LINE
  8
0
 10
-2.99805
 20
14.6045
 11
-2.99902
 21
14.5869
  0
LINE
  8
0
 10
-2.99902
 20
14.5869
 11
-2.99902
 21
14.5693
  0
LINE
  8
0
 10
-2.99902
 20
14.5693
 11
-3
 21
14.5518
  0
LINE
  8
0
 10
-3
 20
14.5518
 11
-3
 21
7.48242
  0
LINE
  8
0
 10
-3
 20
7.48242
 11
-2.99902
 21
7.46484
  0
LINE
  8
0
 10
-2.99902
 20
7.46484
 11
-2.99902
 21
7.44727
  0
LINE
  8
0
 10
-2.99902
 20
7.44727
 11
-2.99805
 21
7.43066
  0
LINE
  8
0
 10
-2.99805
 20
7.43066
 11
-2.99023
 21
7.36035
  0
LINE
  8
0
 10
-2.99023
 20
7.36035
 11
-2.9873
 21
7.34375
  0
LINE
  8
0
 10
-2.9873
 20
7.34375
 11
-2.98438
 21
7.32617
  0
LINE
  8
0
 10
-2.98438
 20
7.32617
 11
-2.98145
 21
7.30957
  0
LINE
  8
0
 10
-2.98145
 20
7.30957
 11
-2.97852
 21
7.29199
  0
LINE
  8
0
 10
-2.97852
 20
7.29199
 11
-2.97461
 21
7.27539
  0
LINE
  8
0
 10
-2.97461
 20
7.27539
 11
-2.9707
 21
7.25781
  0
LINE
  8
0
 10
-2.9707
 20
7.25781
 11
-2.95117
 21
7.19141
  0
LINE
  8
0
 10
-2.95117
 20
7.19141
 11
-2.93359
 21
7.1416
  0
LINE
  8
0
 10
-2.93359
 20
7.1416
 11
-2.92676
 21
7.125
  0
LINE
  8
0
 10
-2.92676
 20
7.125
 11
-2.9209
 21
7.10938
  0
LINE
  8
0
 10
-2.9209
 20
7.10938
 11
-2.91309
 21
7.09375
  0
LINE
  8
0
 10
-2.91309
 20
7.09375
 11
-2.90625
 21
7.07715
  0
LINE
  8
0
 10
-2.90625
 20
7.07715
 11
-2.88281
 21
7.03027
  0
LINE
  8
0
 10
-2.88281
 20
7.03027
 11
-2.875
 21
7.01562
  0
LINE
  8
0
 10
-2.875
 20
7.01562
 11
-2.86621
 21
7
  0
LINE
  8
0
 10
-2.86621
 20
7
 11
-2.85742
 21
6.98535
  0
LINE
  8
0
 10
-2.85742
 20
6.98535
 11
-2.84766
 21
6.96973
  0
LINE
  8
0
 10
-2.84766
 20
6.96973
 11
-2.83887
 21
6.95508
  0
LINE
  8
0
 10
-2.83887
 20
6.95508
 11
-2.8291
 21
6.94043
  0
LINE
  8
0
 10
-2.8291
 20
6.94043
 11
-2.81934
 21
6.92676
  0
LINE
  8
0
 10
-2.81934
 20
6.92676
 11
-2.80859
 21
6.91211
  0
LINE
  8
0
 10
-2.80859
 20
6.91211
 11
-2.79883
 21
6.89844
  0
LINE
  8
0
 10
-2.79883
 20
6.89844
 11
-2.77734
 21
6.87109
  0
LINE
  8
0
 10
-2.77734
 20
6.87109
 11
-2.76562
 21
6.85742
  0
LINE
  8
0
 10
-2.76562
 20
6.85742
 11
-2.75488
 21
6.84375
  0
LINE
  8
0
 10
-2.75488
 20
6.84375
 11
-2.71973
 21
6.80566
  0
LINE
  8
0
 10
-2.71973
 20
6.80566
 11
-2.69434
 21
6.78027
  0
LINE
  8
0
 10
-2.69434
 20
6.78027
 11
-2.65625
 21
6.74512
  0
LINE
  8
0
 10
-2.65625
 20
6.74512
 11
-2.64258
 21
6.73438
  0
LINE
  8
0
 10
-2.64258
 20
6.73438
 11
-2.62891
 21
6.72266
  0
LINE
  8
0
 10
-2.62891
 20
6.72266
 11
-2.60156
 21
6.70117
  0
LINE
  8
0
 10
-2.60156
 20
6.70117
 11
-2.58789
 21
6.69141
  0
LINE
  8
0
 10
-2.58789
 20
6.69141
 11
-2.57324
 21
6.68066
  0
LINE
  8
0
 10
-2.57324
 20
6.68066
 11
-2.55957
 21
6.6709
  0
LINE
  8
0
 10
-2.55957
 20
6.6709
 11
-2.54492
 21
6.66113
  0
LINE
  8
0
 10
-2.54492
 20
6.66113
 11
-2.53027
 21
6.65234
  0
LINE
  8
0
 10
-2.53027
 20
6.65234
 11
-2.51465
 21
6.64258
  0
LINE
  8
0
 10
-2.51465
 20
6.64258
 11
-2.5
 21
6.63379
  0
LINE
  8
0
 10
-2.5
 20
6.63379
 11
-2.48438
 21
6.625
  0
LINE
  8
0
 10
-2.48438
 20
6.625
 11
-2.46973
 21
6.61719
  0
LINE
  8
0
 10
-2.46973
 20
6.61719
 11
-2.42285
 21
6.59375
  0
LINE
  8
0
 10
-2.42285
 20
6.59375
 11
-2.40625
 21
6.58691
  0
LINE
  8
0
 10
-2.40625
 20
6.58691
 11
-2.39062
 21
6.5791
  0
LINE
  8
0
 10
-2.39062
 20
6.5791
 11
-2.375
 21
6.57324
  0
LINE
  8
0
 10
-2.375
 20
6.57324
 11
-2.3584
 21
6.56641
  0
LINE
  8
0
 10
-2.3584
 20
6.56641
 11
-2.30859
 21
6.54883
  0
LINE
  8
0
 10
-2.30859
 20
6.54883
 11
-2.24219
 21
6.5293
  0
LINE
  8
0
 10
-2.24219
 20
6.5293
 11
-2.22461
 21
6.52539
  0
LINE
  8
0
 10
-2.22461
 20
6.52539
 11
-2.20801
 21
6.52148
  0
LINE
  8
0
 10
-2.20801
 20
6.52148
 11
-2.19043
 21
6.51855
  0
LINE
  8
0
 10
-2.19043
 20
6.51855
 11
-2.17383
 21
6.51562
  0
LINE
  8
0
 10
-2.17383
 20
6.51562
 11
-2.15625
 21
6.5127
  0
LINE
  8
0
 10
-2.15625
 20
6.5127
 11
-2.13965
 21
6.50977
  0
LINE
  8
0
 10
-2.13965
 20
6.50977
 11
-2.06934
 21
6.50195
  0
LINE
  8
0
 10
-2.06934
 20
6.50195
 11
-2.05273
 21
6.50098
  0
LINE
  8
0
 10
-2.05273
 20
6.50098
 11
-2.03516
 21
6.50098
  0
LINE
  8
0
 10
-2.03516
 20
6.50098
 11
-2.01758
 21
6.5
  0
LINE
  8
0
 10
-2.01758
 20
6.5
 11
0
 21
6.5
  0
LINE
  8
0
 10
0
 20
6.5
 11
0
 21
0
  0
LINE
  8
0
 10
0
 20
0
 11
100.95
 21
0
  0
LINE
  8
0
 10
100.95
 20
0
 11
100.95
 21
6.5
  0
LINE
  8
0
 10
14.7217
 20
114.4
 11
14.666
 21
114.402
  0
LINE
  8
0
 10
14.666
 20
114.402
 11
14.6387
 21
114.404
  0
LINE
  8
0
 10
14.6387
 20
114.404
 11
14.6104
 21
114.406
  0
LINE
  8
0
 10
14.6104
 20
114.406
 11
14.583
 21
114.409
  0
LINE
  8
0
 10
14.583
 20
114.409
 11
14.5547
 21
114.412
  0
LINE
  8
0
 10
14.5547
 20
114.412
 11
14.5
 21
114.42
  0
LINE
  8
0
 10
14.5
 20
114.42
 11
14.4717
 21
114.424
  0
LINE
  8
0
 10
14.4717
 20
114.424
 11
14.4443
 21
114.43
  0
LINE
  8
0
 10
14.4443
 20
114.43
 11
14.417
 21
114.435
  0
LINE
  8
0
 10
14.417
 20
114.435
 11
14.3896
 21
114.441
  0
LINE
  8
0
 10
14.3896
 20
114.441
 11
14.3633
 21
114.447
  0
LINE
  8
0
 10
14.3633
 20
114.447
 11
14.3359
 21
114.454
  0
LINE
  8
0
 10
14.3359
 20
114.454
 11
14.3086
 21
114.462
  0
LINE
  8
0
 10
14.3086
 20
114.462
 11
14.2822
 21
114.47
  0
LINE
  8
0
 10
14.2822
 20
114.47
 11
14.2031
 21
114.496
  0
LINE
  8
0
 10
14.2031
 20
114.496
 11
14.1768
 21
114.506
  0
LINE
  8
0
 10
14.1768
 20
114.506
 11
14.1504
 21
114.517
  0
LINE
  8
0
 10
14.1504
 20
114.517
 11
14.0996
 21
114.538
  0
LINE
  8
0
 10
14.0996
 20
114.538
 11
14.0488
 21
114.562
  0
LINE
  8
0
 10
14.0488
 20
114.562
 11
14.0234
 21
114.574
  0
LINE
  8
0
 10
14.0234
 20
114.574
 11
13.999
 21
114.587
  0
LINE
  8
0
 10
13.999
 20
114.587
 11
13.9502
 21
114.614
  0
LINE
  8
0
 10
13.9502
 20
114.614
 11
13.9258
 21
114.629
  0
LINE
  8
0
 10
13.9258
 20
114.629
 11
13.8789
 21
114.658
  0
LINE
  8
0
 10
13.8789
 20
114.658
 11
13.832
 21
114.689
  0
LINE
  8
0
 10
13.832
 20
114.689
 11
13.7646
 21
114.739
  0
LINE
  8
0
 10
13.7646
 20
114.739
 11
13.7002
 21
114.792
  0
LINE
  8
0
 10
13.7002
 20
114.792
 11
13.6797
 21
114.811
  0
LINE
  8
0
 10
13.6797
 20
114.811
 11
13.6592
 21
114.83
  0
LINE
  8
0
 10
13.6592
 20
114.83
 11
13.6387
 21
114.849
  0
LINE
  8
0
 10
13.6387
 20
114.849
 11
13.6182
 21
114.868
  0
LINE
  8
0
 10
13.6182
 20
114.868
 11
13.5986
 21
114.889
  0
LINE
  8
0
 10
13.5986
 20
114.889
 11
13.5801
 21
114.909
  0
LINE
  8
0
 10
13.5801
 20
114.909
 11
13.5605
 21
114.93
  0
LINE
  8
0
 10
13.5605
 20
114.93
 11
13.542
 21
114.95
  0
LINE
  8
0
 10
13.542
 20
114.95
 11
13.4893
 21
115.015
  0
LINE
  8
0
 10
13.4893
 20
115.015
 11
13.4395
 21
115.082
  0
LINE
  8
0
 10
13.4395
 20
115.082
 11
13.4082
 21
115.129
  0
LINE
  8
0
 10
13.4082
 20
115.129
 11
13.3789
 21
115.176
  0
LINE
  8
0
 10
13.3789
 20
115.176
 11
13.3643
 21
115.2
  0
LINE
  8
0
 10
13.3643
 20
115.2
 11
13.3369
 21
115.249
  0
LINE
  8
0
 10
13.3369
 20
115.249
 11
13.3242
 21
115.273
  0
LINE
  8
0
 10
13.3242
 20
115.273
 11
13.3115
 21
115.299
  0
LINE
  8
0
 10
13.3115
 20
115.299
 11
13.2881
 21
115.35
  0
LINE
  8
0
 10
13.2881
 20
115.35
 11
13.2666
 21
115.4
  0
LINE
  8
0
 10
13.2666
 20
115.4
 11
13.2559
 21
115.427
  0
LINE
  8
0
 10
13.2559
 20
115.427
 11
13.2461
 21
115.453
  0
LINE
  8
0
 10
13.2461
 20
115.453
 11
13.2197
 21
115.532
  0
LINE
  8
0
 10
13.2197
 20
115.532
 11
13.2119
 21
115.559
  0
LINE
  8
0
 10
13.2119
 20
115.559
 11
13.2041
 21
115.586
  0
LINE
  8
0
 10
13.2041
 20
115.586
 11
13.1973
 21
115.613
  0
LINE
  8
0
 10
13.1973
 20
115.613
 11
13.1914
 21
115.64
  0
LINE
  8
0
 10
13.1914
 20
115.64
 11
13.1846
 21
115.667
  0
LINE
  8
0
 10
13.1846
 20
115.667
 11
13.1797
 21
115.694
  0
LINE
  8
0
 10
13.1797
 20
115.694
 11
13.1738
 21
115.722
  0
LINE
  8
0
 10
13.1738
 20
115.722
 11
13.1699
 21
115.75
  0
LINE
  8
0
 10
13.1699
 20
115.75
 11
13.1621
 21
115.805
  0
LINE
  8
0
 10
13.1621
 20
115.805
 11
13.1592
 21
115.833
  0
LINE
  8
0
 10
13.1592
 20
115.833
 11
13.1562
 21
115.86
  0
LINE
  8
0
 10
13.1562
 20
115.86
 11
13.1543
 21
115.889
  0
LINE
  8
0
 10
13.1543
 20
115.889
 11
13.1523
 21
115.916
  0
LINE
  8
0
 10
13.1523
 20
115.916
 11
13.1504
 21
115.972
  0
LINE
  8
0
 10
13.1504
 20
115.972
 11
13.1504
 21
117.528
  0
LINE
  8
0
 10
13.1504
 20
117.528
 11
13.1523
 21
117.584
  0
LINE
  8
0
 10
13.1523
 20
117.584
 11
13.1543
 21
117.611
  0
LINE
  8
0
 10
13.1543
 20
117.611
 11
13.1562
 21
117.64
  0
LINE
  8
0
 10
13.1562
 20
117.64
 11
13.1592
 21
117.667
  0
LINE
  8
0
 10
13.1592
 20
117.667
 11
13.1621
 21
117.695
  0
LINE
  8
0
 10
13.1621
 20
117.695
 11
13.1699
 21
117.75
  0
LINE
  8
0
 10
13.1699
 20
117.75
 11
13.1738
 21
117.778
  0
LINE
  8
0
 10
13.1738
 20
117.778
 11
13.1797
 21
117.806
  0
LINE
  8
0
 10
13.1797
 20
117.806
 11
13.1846
 21
117.833
  0
LINE
  8
0
 10
13.1846
 20
117.833
 11
13.1914
 21
117.86
  0
LINE
  8
0
 10
13.1914
 20
117.86
 11
13.1973
 21
117.887
  0
LINE
  8
0
 10
13.1973
 20
117.887
 11
13.2041
 21
117.914
  0
LINE
  8
0
 10
13.2041
 20
117.914
 11
13.2119
 21
117.941
  0
LINE
  8
0
 10
13.2119
 20
117.941
 11
13.2197
 21
117.968
  0
LINE
  8
0
 10
13.2197
 20
117.968
 11
13.2461
 21
118.047
  0
LINE
  8
0
 10
13.2461
 20
118.047
 11
13.2559
 21
118.073
  0
LINE
  8
0
 10
13.2559
 20
118.073
 11
13.2666
 21
118.1
  0
LINE
  8
0
 10
13.2666
 20
118.1
 11
13.2881
 21
118.15
  0
LINE
  8
0
 10
13.2881
 20
118.15
 11
13.3115
 21
118.201
  0
LINE
  8
0
 10
13.3115
 20
118.201
 11
13.3242
 21
118.227
  0
LINE
  8
0
 10
13.3242
 20
118.227
 11
13.3369
 21
118.251
  0
LINE
  8
0
 10
13.3369
 20
118.251
 11
13.3643
 21
118.3
  0
LINE
  8
0
 10
13.3643
 20
118.3
 11
13.3789
 21
118.324
  0
LINE
  8
0
 10
13.3789
 20
118.324
 11
13.4082
 21
118.371
  0
LINE
  8
0
 10
13.4082
 20
118.371
 11
13.4395
 21
118.418
  0
LINE
  8
0
 10
13.4395
 20
118.418
 11
13.4893
 21
118.485
  0
LINE
  8
0
 10
13.4893
 20
118.485
 11
13.542
 21
118.55
  0
LINE
  8
0
 10
13.542
 20
118.55
 11
13.5605
 21
118.57
  0
LINE
  8
0
 10
13.5605
 20
118.57
 11
13.5801
 21
118.591
  0
LINE
  8
0
 10
13.5801
 20
118.591
 11
13.5986
 21
118.611
  0
LINE
  8
0
 10
13.5986
 20
118.611
 11
13.6182
 21
118.632
  0
LINE
  8
0
 10
13.6182
 20
118.632
 11
13.6387
 21
118.651
  0
LINE
  8
0
 10
13.6387
 20
118.651
 11
13.6592
 21
118.67
  0
LINE
  8
0
 10
13.6592
 20
118.67
 11
13.6797
 21
118.689
  0
LINE
  8
0
 10
13.6797
 20
118.689
 11
13.7002
 21
118.708
  0
LINE
  8
0
 10
13.7002
 20
118.708
 11
13.7646
 21
118.761
  0
LINE
  8
0
 10
13.7646
 20
118.761
 11
13.832
 21
118.811
  0
LINE
  8
0
 10
13.832
 20
118.811
 11
13.8789
 21
118.842
  0
LINE
  8
0
 10
13.8789
 20
118.842
 11
13.9258
 21
118.871
  0
LINE
  8
0
 10
13.9258
 20
118.871
 11
13.9502
 21
118.886
  0
LINE
  8
0
 10
13.9502
 20
118.886
 11
13.999
 21
118.913
  0
LINE
  8
0
 10
13.999
 20
118.913
 11
14.0234
 21
118.926
  0
LINE
  8
0
 10
14.0234
 20
118.926
 11
14.0488
 21
118.938
  0
LINE
  8
0
 10
14.0488
 20
118.938
 11
14.0996
 21
118.962
  0
LINE
  8
0
 10
14.0996
 20
118.962
 11
14.1504
 21
118.983
  0
LINE
  8
0
 10
14.1504
 20
118.983
 11
14.1768
 21
118.994
  0
LINE
  8
0
 10
14.1768
 20
118.994
 11
14.2031
 21
119.004
  0
LINE
  8
0
 10
14.2031
 20
119.004
 11
14.2822
 21
119.03
  0
LINE
  8
0
 10
14.2822
 20
119.03
 11
14.3086
 21
119.038
  0
LINE
  8
0
 10
14.3086
 20
119.038
 11
14.3359
 21
119.046
  0
LINE
  8
0
 10
14.3359
 20
119.046
 11
14.3633
 21
119.053
  0
LINE
  8
0
 10
14.3633
 20
119.053
 11
14.3896
 21
119.059
  0
LINE
  8
0
 10
14.3896
 20
119.059
 11
14.417
 21
119.065
  0
LINE
  8
0
 10
14.417
 20
119.065
 11
14.4443
 21
119.07
  0
LINE
  8
0
 10
14.4443
 20
119.07
 11
14.4717
 21
119.076
  0
LINE
  8
0
 10
14.4717
 20
119.076
 11
14.5
 21
119.08
  0
LINE
  8
0
 10
14.5
 20
119.08
 11
14.5547
 21
119.088
  0
LINE
  8
0
 10
14.5547
 20
119.088
 11
14.583
 21
119.091
  0
LINE
  8
0
 10
14.583
 20
119.091
 11
14.6104
 21
119.094
  0
LINE
  8
0
 10
14.6104
 20
119.094
 11
14.6387
 21
119.096
  0
LINE
  8
0
 10
14.6387
 20
119.096
 11
14.666
 21
119.098
  0
LINE
  8
0
 10
14.666
 20
119.098
 11
14.7217
 21
119.1
  0
LINE
  8
0
 10
14.7217
 20
119.1
 11
14.7783
 21
119.1
  0
LINE
  8
0
 10
14.7783
 20
119.1
 11
14.834
 21
119.098
  0
LINE
  8
0
 10
14.834
 20
119.098
 11
14.8613
 21
119.096
  0
LINE
  8
0
 10
14.8613
 20
119.096
 11
14.8896
 21
119.094
  0
LINE
  8
0
 10
14.8896
 20
119.094
 11
14.917
 21
119.091
  0
LINE
  8
0
 10
14.917
 20
119.091
 11
14.9453
 21
119.088
  0
LINE
  8
0
 10
14.9453
 20
119.088
 11
15
 21
119.08
  0
LINE
  8
0
 10
15
 20
119.08
 11
15.0283
 21
119.076
  0
LINE
  8
0
 10
15.0283
 20
119.076
 11
15.0557
 21
119.07
  0
LINE
  8
0
 10
15.0557
 20
119.07
 11
15.083
 21
119.065
  0
LINE
  8
0
 10
15.083
 20
119.065
 11
15.1104
 21
119.059
  0
LINE
  8
0
 10
15.1104
 20
119.059
 11
15.1367
 21
119.053
  0
LINE
  8
0
 10
15.1367
 20
119.053
 11
15.1641
 21
119.046
  0
LINE
  8
0
 10
15.1641
 20
119.046
 11
15.1914
 21
119.038
  0
LINE
  8
0
 10
15.1914
 20
119.038
 11
15.2178
 21
119.03
  0
LINE
  8
0
 10
15.2178
 20
119.03
 11
15.2969
 21
119.004
  0
LINE
  8
0
 10
15.2969
 20
119.004
 11
15.3232
 21
118.994
  0
LINE
  8
0
 10
15.3232
 20
118.994
 11
15.3496
 21
118.983
  0
LINE
  8
0
 10
15.3496
 20
118.983
 11
15.4004
 21
118.962
  0
LINE
  8
0
 10
15.4004
 20
118.962
 11
15.4512
 21
118.938
  0
LINE
  8
0
 10
15.4512
 20
118.938
 11
15.4766
 21
118.926
  0
LINE
  8
0
 10
15.4766
 20
118.926
 11
15.501
 21
118.913
  0
LINE
  8
0
 10
15.501
 20
118.913
 11
15.5498
 21
118.886
  0
LINE
  8
0
 10
15.5498
 20
118.886
 11
15.5742
 21
118.871
  0
LINE
  8
0
 10
15.5742
 20
118.871
 11
15.6211
 21
118.842
  0
LINE
  8
0
 10
15.6211
 20
118.842
 11
15.668
 21
118.811
  0
LINE
  8
0
 10
15.668
 20
118.811
 11
15.7354
 21
118.761
  0
LINE
  8
0
 10
15.7354
 20
118.761
 11
15.7998
 21
118.708
  0
LINE
  8
0
 10
15.7998
 20
118.708
 11
15.8203
 21
118.689
  0
LINE
  8
0
 10
15.8203
 20
118.689
 11
15.8408
 21
118.67
  0
LINE
  8
0
 10
15.8408
 20
118.67
 11
15.8613
 21
118.651
  0
LINE
  8
0
 10
15.8613
 20
118.651
 11
15.8818
 21
118.632
  0
LINE
  8
0
 10
15.8818
 20
118.632
 11
15.9014
 21
118.611
  0
LINE
  8
0
 10
15.9014
 20
118.611
 11
15.9199
 21
118.591
  0
LINE
  8
0
 10
15.9199
 20
118.591
 11
15.9395
 21
118.57
  0
LINE
  8
0
 10
15.9395
 20
118.57
 11
15.958
 21
118.55
  0
LINE
  8
0
 10
15.958
 20
118.55
 11
16.0107
 21
118.485
  0
LINE
  8
0
 10
16.0107
 20
118.485
 11
16.0605
 21
118.418
  0
LINE
  8
0
 10
16.0605
 20
118.418
 11
16.0918
 21
118.371
  0
LINE
  8
0
 10
16.0918
 20
118.371
 11
16.1211
 21
118.324
  0
LINE
  8
0
 10
16.1211
 20
118.324
 11
16.1357
 21
118.3
  0
LINE
  8
0
 10
16.1357
 20
118.3
 11
16.1631
 21
118.251
  0
LINE
  8
0
 10
16.1631
 20
118.251
 11
16.1758
 21
118.227
  0
LINE
  8
0
 10
16.1758
 20
118.227
 11
16.1885
 21
118.201
  0
LINE
  8
0
 10
16.1885
 20
118.201
 11
16.2119
 21
118.15
  0
LINE
  8
0
 10
16.2119
 20
118.15
 11
16.2334
 21
118.1
  0
LINE
  8
0
 10
16.2334
 20
118.1
 11
16.2441
 21
118.073
  0
LINE
  8
0
 10
16.2441
 20
118.073
 11
16.2539
 21
118.047
  0
LINE
  8
0
 10
16.2539
 20
118.047
 11
16.2803
 21
117.968
  0
LINE
  8
0
 10
16.2803
 20
117.968
 11
16.2881
 21
117.941
  0
LINE
  8
0
 10
16.2881
 20
117.941
 11
16.2959
 21
117.914
  0
LINE
  8
0
 10
16.2959
 20
117.914
 11
16.3027
 21
117.887
  0
LINE
  8
0
 10
16.3027
 20
117.887
 11
16.3086
 21
117.86
  0
LINE
  8
0
 10
16.3086
 20
117.86
 11
16.3154
 21
117.833
  0
LINE
  8
0
 10
16.3154
 20
117.833
 11
16.3203
 21
117.806
  0
LINE
  8
0
 10
16.3203
 20
117.806
 11
16.3262
 21
117.778
  0
LINE
  8
0
 10
16.3262
 20
117.778
 11
16.3301
 21
117.75
  0
LINE
  8
0
 10
16.3301
 20
117.75
 11
16.3379
 21
117.695
  0
LINE
  8
0
 10
16.3379
 20
117.695
 11
16.3408
 21
117.667
  0
LINE
  8
0
 10
16.3408
 20
117.667
 11
16.3438
 21
117.64
  0
LINE
  8
0
 10
16.3438
 20
117.64
 11
16.3457
 21
117.611
  0
LINE
  8
0
 10
16.3457
 20
117.611
 11
16.3477
 21
117.584
  0
LINE
  8
0
 10
16.3477
 20
117.584
 11
16.3496
 21
117.528
  0
LINE
  8
0
 10
16.3496
 20
117.528
 11
16.3496
 21
115.972
  0
LINE
  8
0
 10
16.3496
 20
115.972
 11
16.3477
 21
115.916
  0
LINE
  8
0
 10
16.3477
 20
115.916
 11
16.3457
 21
115.889
  0
LINE
  8
0
 10
16.3457
 20
115.889
 11
16.3438
 21
115.86
  0
LINE
  8
0
 10
16.3438
 20
115.86
 11
16.3408
 21
115.833
  0
LINE
  8
0
 10
16.3408
 20
115.833
 11
16.3379
 21
115.805
  0
LINE
  8
0
 10
16.3379
 20
115.805
 11
16.3301
 21
115.75
  0
LINE
  8
0
 10
16.3301
 20
115.75
 11
16.3262
 21
115.722
  0
LINE
  8
0
 10
16.3262
 20
115.722
 11
16.3203
 21
115.694
  0
LINE
  8
0
 10
16.3203
 20
115.694
 11
16.3154
 21
115.667
  0
LINE
  8
0
 10
16.3154
 20
115.667
 11
16.3086
 21
115.64
  0
LINE
  8
0
 10
16.3086
 20
115.64
 11
16.3027
 21
115.613
  0
LINE
  8
0
 10
16.3027
 20
115.613
 11
16.2959
 21
115.586
  0
LINE
  8
0
 10
16.2959
 20
115.586
 11
16.2881
 21
115.559
  0
LINE
  8
0
 10
16.2881
 20
115.559
 11
16.2803
 21
115.532
  0
LINE
  8
0
 10
16.2803
 20
115.532
 11
16.2539
 21
115.453
  0
LINE
  8
0
 10
16.2539
 20
115.453
 11
16.2441
 21
115.427
  0
LINE
  8
0
 10
16.2441
 20
115.427
 11
16.2334
 21
115.4
  0
LINE
  8
0
 10
16.2334
 20
115.4
 11
16.2119
 21
115.35
  0
LINE
  8
0
 10
16.2119
 20
115.35
 11
16.1885
 21
115.299
  0
LINE
  8
0
 10
16.1885
 20
115.299
 11
16.1758
 21
115.273
  0
LINE
  8
0
 10
16.1758
 20
115.273
 11
16.1631
 21
115.249
  0
LINE
  8
0
 10
16.1631
 20
115.249
 11
16.1357
 21
115.2
  0
LINE
  8
0
 10
16.1357
 20
115.2
 11
16.1211
 21
115.176
  0
LINE
  8
0
 10
16.1211
 20
115.176
 11
16.0918
 21
115.129
  0
LINE
  8
0
 10
16.0918
 20
115.129
 11
16.0605
 21
115.082
  0
LINE
  8
0
 10
16.0605
 20
115.082
 11
16.0107
 21
115.015
  0
LINE
  8
0
 10
16.0107
 20
115.015
 11
15.958
 21
114.95
  0
LINE
  8
0
 10
15.958
 20
114.95
 11
15.9395
 21
114.93
  0
LINE
  8
0
 10
15.9395
 20
114.93
 11
15.9199
 21
114.909
  0
LINE
  8
0
 10
15.9199
 20
114.909
 11
15.9014
 21
114.889
  0
LINE
  8
0
 10
15.9014
 20
114.889
 11
15.8818
 21
114.868
  0
LINE
  8
0
 10
15.8818
 20
114.868
 11
15.8613
 21
114.849
  0
LINE
  8
0
 10
15.8613
 20
114.849
 11
15.8408
 21
114.83
  0
LINE
  8
0
 10
15.8408
 20
114.83
 11
15.8203
 21
114.811
  0
LINE
  8
0
 10
15.8203
 20
114.811
 11
15.7998
 21
114.792
  0
LINE
  8
0
 10
15.7998
 20
114.792
 11
15.7354
 21
114.739
  0
LINE
  8
0
 10
15.7354
 20
114.739
 11
15.668
 21
114.689
  0
LINE
  8
0
 10
15.668
 20
114.689
 11
15.6211
 21
114.658
  0
LINE
  8
0
 10
15.6211
 20
114.658
 11
15.5742
 21
114.629
  0
LINE
  8
0
 10
15.5742
 20
114.629
 11
15.5498
 21
114.614
  0
LINE
  8
0
 10
15.5498
 20
114.614
 11
15.501
 21
114.587
  0
LINE
  8
0
 10
15.501
 20
114.587
 11
15.4766
 21
114.574
  0
LINE
  8
0
 10
15.4766
 20
114.574
 11
15.4512
 21
114.562
  0
LINE
  8
0
 10
15.4512
 20
114.562
 11
15.4004
 21
114.538
  0
LINE
  8
0
 10
15.4004
 20
114.538
 11
15.3496
 21
114.517
  0
LINE
  8
0
 10
15.3496
 20
114.517
 11
15.3232
 21
114.506
  0
LINE
  8
0
 10
15.3232
 20
114.506
 11
15.2969
 21
114.496
  0
LINE
  8
0
 10
15.2969
 20
114.496
 11
15.2178
 21
114.47
  0
LINE
  8
0
 10
15.2178
 20
114.47
 11
15.1914
 21
114.462
  0
LINE
  8
0
 10
15.1914
 20
114.462
 11
15.1641
 21
114.454
  0
LINE
  8
0
 10
15.1641
 20
114.454
 11
15.1367
 21
114.447
  0
LINE
  8
0
 10
15.1367
 20
114.447
 11
15.1104
 21
114.441
  0
LINE
  8
0
 10
15.1104
 20
114.441
 11
15.083
 21
114.435
  0
LINE
  8
0
 10
15.083
 20
114.435
 11
15.0557
 21
114.43
  0
LINE
  8
0
 10
15.0557
 20
114.43
 11
15.0283
 21
114.424
  0
LINE
  8
0
 10
15.0283
 20
114.424
 11
15
 21
114.42
  0
LINE
  8
0
 10
15
 20
114.42
 11
14.9453
 21
114.412
  0
LINE
  8
0
 10
14.9453
 20
114.412
 11
14.917
 21
114.409
  0
LINE
  8
0
 10
14.917
 20
114.409
 11
14.8896
 21
114.406
  0
LINE
  8
0
 10
14.8896
 20
114.406
 11
14.8613
 21
114.404
  0
LINE
  8
0
 10
14.8613
 20
114.404
 11
14.834
 21
114.402
  0
LINE
  8
0
 10
14.834
 20
114.402
 11
14.7783
 21
114.4
  0
LINE
  8
0
 10
14.7783
 20
114.4
 11
14.7217
 21
114.4
  0
LINE
  8
0
 10
86.2217
 20
114.4
 11
86.166
 21
114.402
  0
LINE
  8
0
 10
86.166
 20
114.402
 11
86.1387
 21
114.404
  0
LINE
  8
0
 10
86.1387
 20
114.404
 11
86.1104
 21
114.406
  0
LINE
  8
0
 10
86.1104
 20
114.406
 11
86.083
 21
114.409
  0
LINE
  8
0
 10
86.083
 20
114.409
 11
86.0547
 21
114.412
  0
LINE
  8
0
 10
86.0547
 20
114.412
 11
86
 21
114.42
  0
LINE
  8
0
 10
86
 20
114.42
 11
85.9717
 21
114.424
  0
LINE
  8
0
 10
85.9717
 20
114.424
 11
85.9443
 21
114.43
  0
LINE
  8
0
 10
85.9443
 20
114.43
 11
85.917
 21
114.435
  0
LINE
  8
0
 10
85.917
 20
114.435
 11
85.8896
 21
114.441
  0
LINE
  8
0
 10
85.8896
 20
114.441
 11
85.8633
 21
114.447
  0
LINE
  8
0
 10
85.8633
 20
114.447
 11
85.8359
 21
114.454
  0
LINE
  8
0
 10
85.8359
 20
114.454
 11
85.8086
 21
114.462
  0
LINE
  8
0
 10
85.8086
 20
114.462
 11
85.7822
 21
114.47
  0
LINE
  8
0
 10
85.7822
 20
114.47
 11
85.7031
 21
114.496
  0
LINE
  8
0
 10
85.7031
 20
114.496
 11
85.6768
 21
114.506
  0
LINE
  8
0
 10
85.6768
 20
114.506
 11
85.6504
 21
114.517
  0
LINE
  8
0
 10
85.6504
 20
114.517
 11
85.5996
 21
114.538
  0
LINE
  8
0
 10
85.5996
 20
114.538
 11
85.5488
 21
114.562
  0
LINE
  8
0
 10
85.5488
 20
114.562
 11
85.5234
 21
114.574
  0
LINE
  8
0
 10
85.5234
 20
114.574
 11
85.499
 21
114.587
  0
LINE
  8
0
 10
85.499
 20
114.587
 11
85.4502
 21
114.614
  0
LINE
  8
0
 10
85.4502
 20
114.614
 11
85.4258
 21
114.629
  0
LINE
  8
0
 10
85.4258
 20
114.629
 11
85.3789
 21
114.658
  0
LINE
  8
0
 10
85.3789
 20
114.658
 11
85.332
 21
114.689
  0
LINE
  8
0
 10
85.332
 20
114.689
 11
85.2646
 21
114.739
  0
LINE
  8
0
 10
85.2646
 20
114.739
 11
85.2002
 21
114.792
  0
LINE
  8
0
 10
85.2002
 20
114.792
 11
85.1797
 21
114.811
  0
LINE
  8
0
 10
85.1797
 20
114.811
 11
85.1592
 21
114.83
  0
LINE
  8
0
 10
85.1592
 20
114.83
 11
85.1387
 21
114.849
  0
LINE
  8
0
 10
85.1387
 20
114.849
 11
85.1182
 21
114.868
  0
LINE
  8
0
 10
85.1182
 20
114.868
 11
85.0986
 21
114.889
  0
LINE
  8
0
 10
85.0986
 20
114.889
 11
85.0801
 21
114.909
  0
LINE
  8
0
 10
85.0801
 20
114.909
 11
85.0605
 21
114.93
  0
LINE
  8
0
 10
85.0605
 20
114.93
 11
85.042
 21
114.95
  0
LINE
  8
0
 10
85.042
 20
114.95
 11
84.9893
 21
115.015
  0
LINE
  8
0
 10
84.9893
 20
115.015
 11
84.9395
 21
115.082
  0
LINE
  8
0
 10
84.9395
 20
115.082
 11
84.9082
 21
115.129
  0
LINE
  8
0
 10
84.9082
 20
115.129
 11
84.8789
 21
115.176
  0
LINE
  8
0
 10
84.8789
 20
115.176
 11
84.8643
 21
115.2
  0
LINE
  8
0
 10
84.8643
 20
115.2
 11
84.8369
 21
115.249
  0
LINE
  8
0
 10
84.8369
 20
115.249
 11
84.8242
 21
115.273
  0
LINE
  8
0
 10
84.8242
 20
115.273
 11
84.8115
 21
115.299
  0
LINE
  8
0
 10
84.8115
 20
115.299
 11
84.7881
 21
115.35
  0
LINE
  8
0
 10
84.7881
 20
115.35
 11
84.7666
 21
115.4
  0
LINE
  8
0
 10
84.7666
 20
115.4
 11
84.7559
 21
115.427
  0
LINE
  8
0
 10
84.7559
 20
115.427
 11
84.7461
 21
115.453
  0
LINE
  8
0
 10
84.7461
 20
115.453
 11
84.7197
 21
115.532
  0
LINE
  8
0
 10
84.7197
 20
115.532
 11
84.7119
 21
115.559
  0
LINE
  8
0
 10
84.7119
 20
115.559
 11
84.7041
 21
115.586
  0
LINE
  8
0
 10
84.7041
 20
115.586
 11
84.6973
 21
115.613
  0
LINE
  8
0
 10
84.6973
 20
115.613
 11
84.6914
 21
115.64
  0
LINE
  8
0
 10
84.6914
 20
115.64
 11
84.6846
 21
115.667
  0
LINE
  8
0
 10
84.6846
 20
115.667
 11
84.6797
 21
115.694
  0
LINE
  8
0
 10
84.6797
 20
115.694
 11
84.6738
 21
115.722
  0
LINE
  8
0
 10
84.6738
 20
115.722
 11
84.6699
 21
115.75
  0
LINE
  8
0
 10
84.6699
 20
115.75
 11
84.6621
 21
115.805
  0
LINE
  8
0
 10
84.6621
 20
115.805
 11
84.6592
 21
115.833
  0
LINE
  8
0
 10
84.6592
 20
115.833
 11
84.6562
 21
115.86
  0
LINE
  8
0
 10
84.6562
 20
115.86
 11
84.6543
 21
115.889
  0
LINE
  8
0
 10
84.6543
 20
115.889
 11
84.6523
 21
115.916
  0
LINE
  8
0
 10
84.6523
 20
115.916
 11
84.6504
 21
115.972
  0
LINE
  8
0
 10
84.6504
 20
115.972
 11
84.6504
 21
117.528
  0
LINE
  8
0
 10
84.6504
 20
117.528
 11
84.6523
 21
117.584
  0
LINE
  8
0
 10
84.6523
 20
117.584
 11
84.6543
 21
117.611
  0
LINE
  8
0
 10
84.6543
 20
117.611
 11
84.6562
 21
117.64
  0
LINE
  8
0
 10
84.6562
 20
117.64
 11
84.6592
 21
117.667
  0
LINE
  8
0
 10
84.6592
 20
117.667
 11
84.6621
 21
117.695
  0
LINE
  8
0
 10
84.6621
 20
117.695
 11
84.6699
 21
117.75
  0
LINE
  8
0
 10
84.6699
 20
117.75
 11
84.6738
 21
117.778
  0
LINE
  8
0
 10
84.6738
 20
117.778
 11
84.6797
 21
117.806
  0
LINE
  8
0
 10
84.6797
 20
117.806
 11
84.6846
 21
117.833
  0
LINE
  8
0
 10
84.6846
 20
117.833
 11
84.6914
 21
117.86
  0
LINE
  8
0
 10
84.6914
 20
117.86
 11
84.6973
 21
117.887
  0
LINE
  8
0
 10
84.6973
 20
117.887
 11
84.7041
 21
117.914
  0
LINE
  8
0
 10
84.7041
 20
117.914
 11
84.7119
 21
117.941
  0
LINE
  8
0
 10
84.7119
 20
117.941
 11
84.7197
 21
117.968
  0
LINE
  8
0
 10
84.7197
 20
117.968
 11
84.7461
 21
118.047
  0
LINE
  8
0
 10
84.7461
 20
118.047
 11
84.7559
 21
118.073
  0
LINE
  8
0
 10
84.7559
 20
118.073
 11
84.7666
 21
118.1
  0
LINE
  8
0
 10
84.7666
 20
118.1
 11
84.7881
 21
118.15
  0
LINE
  8
0
 10
84.7881
 20
118.15
 11
84.8115
 21
118.201
  0
LINE
  8
0
 10
84.8115
 20
118.201
 11
84.8242
 21
118.227
  0
LINE
  8
0
 10
84.8242
 20
118.227
 11
84.8369
 21
118.251
  0
LINE
  8
0
 10
84.8369
 20
118.251
 11
84.8643
 21
118.3
  0
LINE
  8
0
 10
84.8643
 20
118.3
 11
84.8789
 21
118.324
  0
LINE
  8
0
 10
84.8789
 20
118.324
 11
84.9082
 21
118.371
  0
LINE
  8
0
 10
84.9082
 20
118.371
 11
84.9395
 21
118.418
  0
LINE
  8
0
 10
84.9395
 20
118.418
 11
84.9893
 21
118.485
  0
LINE
  8
0
 10
84.9893
 20
118.485
 11
85.042
 21
118.55
  0
LINE
  8
0
 10
85.042
 20
118.55
 11
85.0605
 21
118.57
  0
LINE
  8
0
 10
85.0605
 20
118.57
 11
85.0801
 21
118.591
  0
LINE
  8
0
 10
85.0801
 20
118.591
 11
85.0986
 21
118.611
  0
LINE
  8
0
 10
85.0986
 20
118.611
 11
85.1182
 21
118.632
  0
LINE
  8
0
 10
85.1182
 20
118.632
 11
85.1387
 21
118.651
  0
LINE
  8
0
 10
85.1387
 20
118.651
 11
85.1592
 21
118.67
  0
LINE
  8
0
 10
85.1592
 20
118.67
 11
85.1797
 21
118.689
  0
LINE
  8
0
 10
85.1797
 20
118.689
 11
85.2002
 21
118.708
  0
LINE
  8
0
 10
85.2002
 20
118.708
 11
85.2646
 21
118.761
  0
LINE
  8
0
 10
85.2646
 20
118.761
 11
85.332
 21
118.811
  0
LINE
  8
0
 10
85.332
 20
118.811
 11
85.3789
 21
118.842
  0
LINE
  8
0
 10
85.3789
 20
118.842
 11
85.4258
 21
118.871
  0
LINE
  8
0
 10
85.4258
 20
118.871
 11
85.4502
 21
118.886
  0
LINE
  8
0
 10
85.4502
 20
118.886
 11
85.499
 21
118.913
  0
LINE
  8
0
 10
85.499
 20
118.913
 11
85.5234
 21
118.926
  0
LINE
  8
0
 10
85.5234
 20
118.926
 11
85.5488
 21
118.938
  0
LINE
  8
0
 10
85.5488
 20
118.938
 11
85.5996
 21
118.962
  0
LINE
  8
0
 10
85.5996
 20
118.962
 11
85.6504
 21
118.983
  0
LINE
  8
0
 10
85.6504
 20
118.983
 11
85.6768
 21
118.994
  0
LINE
  8
0
 10
85.6768
 20
118.994
 11
85.7031
 21
119.004
  0
LINE
  8
0
 10
85.7031
 20
119.004
 11
85.7822
 21
119.03
  0
LINE
  8
0
 10
85.7822
 20
119.03
 11
85.8086
 21
119.038
  0
LINE
  8
0
 10
85.8086
 20
119.038
 11
85.8359
 21
119.046
  0
LINE
  8
0
 10
85.8359
 20
119.046
 11
85.8633
 21
119.053
  0
LINE
  8
0
 10
85.8633
 20
119.053
 11
85.8896
 21
119.059
  0
LINE
  8
0
 10
85.8896
 20
119.059
 11
85.917
 21
119.065
  0
LINE
  8
0
 10
85.917
 20
119.065
 11
85.9443
 21
119.07
  0
LINE
  8
0
 10
85.9443
 20
119.07
 11
85.9717
 21
119.076
  0
LINE
  8
0
 10
85.9717
 20
119.076
 11
86
 21
119.08
  0
LINE
  8
0
 10
86
 20
119.08
 11
86.0547
 21
119.088
  0
LINE
  8
0
 10
86.0547
 20
119.088
 11
86.083
 21
119.091
  0
LINE
  8
0
 10
86.083
 20
119.091
 11
86.1104
 21
119.094
  0
LINE
  8
0
 10
86.1104
 20
119.094
 11
86.1387
 21
119.096
  0
LINE
  8
0
 10
86.1387
 20
119.096
 11
86.166
 21
119.098
  0
LINE
  8
0
 10
86.166
 20
119.098
 11
86.2217
 21
119.1
  0
LINE
  8
0
 10
86.2217
 20
119.1
 11
86.2783
 21
119.1
  0
LINE
  8
0
 10
86.2783
 20
119.1
 11
86.334
 21
119.098
  0
LINE
  8
0
 10
86.334
 20
119.098
 11
86.3613
 21
119.096
  0
LINE
  8
0
 10
86.3613
 20
119.096
 11
86.3896
 21
119.094
  0
LINE
  8
0
 10
86.3896
 20
119.094
 11
86.417
 21
119.091
  0
LINE
  8
0
 10
86.417
 20
119.091
 11
86.4453
 21
119.088
  0
LINE
  8
0
 10
86.4453
 20
119.088
 11
86.5
 21
119.08
  0
LINE
  8
0
 10
86.5
 20
119.08
 11
86.5283
 21
119.076
  0
LINE
  8
0
 10
86.5283
 20
119.076
 11
86.5557
 21
119.07
  0
LINE
  8
0
 10
86.5557
 20
119.07
 11
86.583
 21
119.065
  0
LINE
  8
0
 10
86.583
 20
119.065
 11
86.6104
 21
119.059
  0
LINE
  8
0
 10
86.6104
 20
119.059
 11
86.6367
 21
119.053
  0
LINE
  8
0
 10
86.6367
 20
119.053
 11
86.6641
 21
119.046
  0
LINE
  8
0
 10
86.6641
 20
119.046
 11
86.6914
 21
119.038
  0
LINE
  8
0
 10
86.6914
 20
119.038
 11
86.7178
 21
119.03
  0
LINE
  8
0
 10
86.7178
 20
119.03
 11
86.7969
 21
119.004
  0
LINE
  8
0
 10
86.7969
 20
119.004
 11
86.8232
 21
118.994
  0
LINE
  8
0
 10
86.8232
 20
118.994
 11
86.8496
 21
118.983
  0
LINE
  8
0
 10
86.8496
 20
118.983
 11
86.9004
 21
118.962
  0
LINE
  8
0
 10
86.9004
 20
118.962
 11
86.9512
 21
118.938
  0
LINE
  8
0
 10
86.9512
 20
118.938
 11
86.9766
 21
118.926
  0
LINE
  8
0
 10
86.9766
 20
118.926
 11
87.001
 21
118.913
  0
LINE
  8
0
 10
87.001
 20
118.913
 11
87.0498
 21
118.886
  0
LINE
  8
0
 10
87.0498
 20
118.886
 11
87.0742
 21
118.871
  0
LINE
  8
0
 10
87.0742
 20
118.871
 11
87.1211
 21
118.842
  0
LINE
  8
0
 10
87.1211
 20
118.842
 11
87.168
 21
118.811
  0
LINE
  8
0
 10
87.168
 20
118.811
 11
87.2354
 21
118.761
  0
LINE
  8
0
 10
87.2354
 20
118.761
 11
87.2998
 21
118.708
  0
LINE
  8
0
 10
87.2998
 20
118.708
 11
87.3203
 21
118.689
  0
LINE
  8
0
 10
87.3203
 20
118.689
 11
87.3408
 21
118.67
  0
LINE
  8
0
 10
87.3408
 20
118.67
 11
87.3613
 21
118.651
  0
LINE
  8
0
 10
87.3613
 20
118.651
 11
87.3818
 21
118.632
  0
LINE
  8
0
 10
87.3818
 20
118.632
 11
87.4014
 21
118.611
  0
LINE
  8
0
 10
87.4014
 20
118.611
 11
87.4199
 21
118.591
  0
LINE
  8
0
 10
87.4199
 20
118.591
 11
87.4395
 21
118.57
  0
LINE
  8
0
 10
87.4395
 20
118.57
 11
87.458
 21
118.55
  0
LINE
  8
0
 10
87.458
 20
118.55
 11
87.5107
 21
118.485
  0
LINE
  8
0
 10
87.5107
 20
118.485
 11
87.5605
 21
118.418
  0
LINE
  8
0
 10
87.5605
 20
118.418
 11
87.5918
 21
118.371
  0
LINE
  8
0
 10
87.5918
 20
118.371
 11
87.6211
 21
118.324
  0
LINE
  8
0
 10
87.6211
 20
118.324
 11
87.6357
 21
118.3
  0
LINE
  8
0
 10
87.6357
 20
118.3
 11
87.6631
 21
118.251
  0
LINE
  8
0
 10
87.6631
 20
118.251
 11
87.6758
 21
118.227
  0
LINE
  8
0
 10
87.6758
 20
118.227
 11
87.6885
 21
118.201
  0
LINE
  8
0
 10
87.6885
 20
118.201
 11
87.7119
 21
118.15
  0
LINE
  8
0
 10
87.7119
 20
118.15
 11
87.7334
 21
118.1
  0
LINE
  8
0
 10
87.7334
 20
118.1
 11
87.7441
 21
118.073
  0
LINE
  8
0
 10
87.7441
 20
118.073
 11
87.7539
 21
118.047
  0
LINE
  8
0
 10
87.7539
 20
118.047
 11
87.7803
 21
117.968
  0
LINE
  8
0
 10
87.7803
 20
117.968
 11
87.7881
 21
117.941
  0
LINE
  8
0
 10
87.7881
 20
117.941
 11
87.7959
 21
117.914
  0
LINE
  8
0
 10
87.7959
 20
117.914
 11
87.8027
 21
117.887
  0
LINE
  8
0
 10
87.8027
 20
117.887
 11
87.8086
 21
117.86
  0
LINE
  8
0
 10
87.8086
 20
117.86
 11
87.8154
 21
117.833
  0
LINE
  8
0
 10
87.8154
 20
117.833
 11
87.8203
 21
117.806
  0
LINE
  8
0
 10
87.8203
 20
117.806
 11
87.8262
 21
117.778
  0
LINE
  8
0
 10
87.8262
 20
117.778
 11
87.8301
 21
117.75
  0
LINE
  8
0
 10
87.8301
 20
117.75
 11
87.8379
 21
117.695
  0
LINE
  8
0
 10
87.8379
 20
117.695
 11
87.8408
 21
117.667
  0
LINE
  8
0
 10
87.8408
 20
117.667
 11
87.8438
 21
117.64
  0
LINE
  8
0
 10
87.8438
 20
117.64
 11
87.8457
 21
117.611
  0
LINE
  8
0
 10
87.8457
 20
117.611
 11
87.8477
 21
117.584
  0
LINE
  8
0
 10
87.8477
 20
117.584
 11
87.8496
 21
117.528
  0
LINE
  8
0
 10
87.8496
 20
117.528
 11
87.8496
 21
115.972
  0
LINE
  8
0
 10
87.8496
 20
115.972
 11
87.8477
 21
115.916
  0
LINE
  8
0
 10
87.8477
 20
115.916
 11
87.8457
 21
115.889
  0
LINE
  8
0
 10
87.8457
 20
115.889
 11
87.8438
 21
115.86
  0
LINE
  8
0
 10
87.8438
 20
115.86
 11
87.8408
 21
115.833
  0
LINE
  8
0
 10
87.8408
 20
115.833
 11
87.8379
 21
115.805
  0
LINE
  8
0
 10
87.8379
 20
115.805
 11
87.8301
 21
115.75
  0
LINE
  8
0
 10
87.8301
 20
115.75
 11
87.8262
 21
115.722
  0
LINE
  8
0
 10
87.8262
 20
115.722
 11
87.8203
 21
115.694
  0
LINE
  8
0
 10
87.8203
 20
115.694
 11
87.8154
 21
115.667
  0
LINE
  8
0
 10
87.8154
 20
115.667
 11
87.8086
 21
115.64
  0
LINE
  8
0
 10
87.8086
 20
115.64
 11
87.8027
 21
115.613
  0
LINE
  8
0
 10
87.8027
 20
115.613
 11
87.7959
 21
115.586
  0
LINE
  8
0
 10
87.7959
 20
115.586
 11
87.7881
 21
115.559
  0
LINE
  8
0
 10
87.7881
 20
115.559
 11
87.7803
 21
115.532
  0
LINE
  8
0
 10
87.7803
 20
115.532
 11
87.7539
 21
115.453
  0
LINE
  8
0
 10
87.7539
 20
115.453
 11
87.7441
 21
115.427
  0
LINE
  8
0
 10
87.7441
 20
115.427
 11
87.7334
 21
115.4
  0
LINE
  8
0
 10
87.7334
 20
115.4
 11
87.7119
 21
115.35
  0
LINE
  8
0
 10
87.7119
 20
115.35
 11
87.6885
 21
115.299
  0
LINE
  8
0
 10
87.6885
 20
115.299
 11
87.6758
 21
115.273
  0
LINE
  8
0
 10
87.6758
 20
115.273
 11
87.6631
 21
115.249
  0
LINE
  8
0
 10
87.6631
 20
115.249
 11
87.6357
 21
115.2
  0
LINE
  8
0
 10
87.6357
 20
115.2
 11
87.6211
 21
115.176
  0
LINE
  8
0
 10
87.6211
 20
115.176
 11
87.5918
 21
115.129
  0
LINE
  8
0
 10
87.5918
 20
115.129
 11
87.5605
 21
115.082
  0
LINE
  8
0
 10
87.5605
 20
115.082
 11
87.5107
 21
115.015
  0
LINE
  8
0
 10
87.5107
 20
115.015
 11
87.458
 21
114.95
  0
LINE
  8
0
 10
87.458
 20
114.95
 11
87.4395
 21
114.93
  0
LINE
  8
0
 10
87.4395
 20
114.93
 11
87.4199
 21
114.909
  0
LINE
  8
0
 10
87.4199
 20
114.909
 11
87.4014
 21
114.889
  0
LINE
  8
0
 10
87.4014
 20
114.889
 11
87.3818
 21
114.868
  0
LINE
  8
0
 10
87.3818
 20
114.868
 11
87.3613
 21
114.849
  0
LINE
  8
0
 10
87.3613
 20
114.849
 11
87.3408
 21
114.83
  0
LINE
  8
0
 10
87.3408
 20
114.83
 11
87.3203
 21
114.811
  0
LINE
  8
0
 10
87.3203
 20
114.811
 11
87.2998
 21
114.792
  0
LINE
  8
0
 10
87.2998
 20
114.792
 11
87.2354
 21
114.739
  0
LINE
  8
0
 10
87.2354
 20
114.739
 11
87.168
 21
114.689
  0
LINE
  8
0
 10
87.168
 20
114.689
 11
87.1211
 21
114.658
  0
LINE
  8
0
 10
87.1211
 20
114.658
 11
87.0742
 21
114.629
  0
LINE
  8
0
 10
87.0742
 20
114.629
 11
87.0498
 21
114.614
  0
LINE
  8
0
 10
87.0498
 20
114.614
 11
87.001
 21
114.587
  0
LINE
  8
0
 10
87.001
 20
114.587
 11
86.9766
 21
114.574
  0
LINE
  8
0
 10
86.9766
 20
114.574
 11
86.9512
 21
114.562
  0
LINE
  8
0
 10
86.9512
 20
114.562
 11
86.9004
 21
114.538
  0
LINE
  8
0
 10
86.9004
 20
114.538
 11
86.8496
 21
114.517
  0
LINE
  8
0
 10
86.8496
 20
114.517
 11
86.8232
 21
114.506
  0
LINE
  8
0
 10
86.8232
 20
114.506
 11
86.7969
 21
114.496
  0
LINE
  8
0
 10
86.7969
 20
114.496
 11
86.7178
 21
114.47
  0
LINE
  8
0
 10
86.7178
 20
114.47
 11
86.6914
 21
114.462
  0
LINE
  8
0
 10
86.6914
 20
114.462
 11
86.6641
 21
114.454
  0
LINE
  8
0
 10
86.6641
 20
114.454
 11
86.6367
 21
114.447
  0
LINE
  8
0
 10
86.6367
 20
114.447
 11
86.6104
 21
114.441
  0
LINE
  8
0
 10
86.6104
 20
114.441
 11
86.583
 21
114.435
  0
LINE
  8
0
 10
86.583
 20
114.435
 11
86.5557
 21
114.43
  0
LINE
  8
0
 10
86.5557
 20
114.43
 11
86.5283
 21
114.424
  0
LINE
  8
0
 10
86.5283
 20
114.424
 11
86.5
 21
114.42
  0
LINE
  8
0
 10
86.5
 20
114.42
 11
86.4453
 21
114.412
  0
LINE
  8
0
 10
86.4453
 20
114.412
 11
86.417
 21
114.409
  0
LINE
  8
0
 10
86.417
 20
114.409
 11
86.3896
 21
114.406
  0
LINE
  8
0
 10
86.3896
 20
114.406
 11
86.3613
 21
114.404
  0
LINE
  8
0
 10
86.3613
 20
114.404
 11
86.334
 21
114.402
  0
LINE
  8
0
 10
86.334
 20
114.402
 11
86.2783
 21
114.4
  0
LINE
  8
0
 10
86.2783
 20
114.4
 11
86.2217
 21
114.4
  0
LINE
  8
0
 10
14.7217
 20
82.4004
 11
14.666
 21
82.4023
  0
LINE
  8
0
 10
14.666
 20
82.4023
 11
14.6387
 21
82.4043
  0
LINE
  8
0
 10
14.6387
 20
82.4043
 11
14.6104
 21
82.4062
  0
LINE
  8
0
 10
14.6104
 20
82.4062
 11
14.583
 21
82.4092
  0
LINE
  8
0
 10
14.583
 20
82.4092
 11
14.5547
 21
82.4121
  0
LINE
  8
0
 10
14.5547
 20
82.4121
 11
14.5
 21
82.4199
  0
LINE
  8
0
 10
14.5
 20
82.4199
 11
14.4717
 21
82.4238
  0
LINE
  8
0
 10
14.4717
 20
82.4238
 11
14.4443
 21
82.4297
  0
LINE
  8
0
 10
14.4443
 20
82.4297
 11
14.417
 21
82.4346
  0
LINE
  8
0
 10
14.417
 20
82.4346
 11
14.3896
 21
82.4414
  0
LINE
  8
0
 10
14.3896
 20
82.4414
 11
14.3633
 21
82.4473
  0
LINE
  8
0
 10
14.3633
 20
82.4473
 11
14.3359
 21
82.4541
  0
LINE
  8
0
 10
14.3359
 20
82.4541
 11
14.3086
 21
82.4619
  0
LINE
  8
0
 10
14.3086
 20
82.4619
 11
14.2822
 21
82.4697
  0
LINE
  8
0
 10
14.2822
 20
82.4697
 11
14.2031
 21
82.4961
  0
LINE
  8
0
 10
14.2031
 20
82.4961
 11
14.1768
 21
82.5059
  0
LINE
  8
0
 10
14.1768
 20
82.5059
 11
14.1504
 21
82.5166
  0
LINE
  8
0
 10
14.1504
 20
82.5166
 11
14.0996
 21
82.5381
  0
LINE
  8
0
 10
14.0996
 20
82.5381
 11
14.0488
 21
82.5615
  0
LINE
  8
0
 10
14.0488
 20
82.5615
 11
14.0234
 21
82.5742
  0
LINE
  8
0
 10
14.0234
 20
82.5742
 11
13.999
 21
82.5869
  0
LINE
  8
0
 10
13.999
 20
82.5869
 11
13.9502
 21
82.6143
  0
LINE
  8
0
 10
13.9502
 20
82.6143
 11
13.9258
 21
82.6289
  0
LINE
  8
0
 10
13.9258
 20
82.6289
 11
13.8789
 21
82.6582
  0
LINE
  8
0
 10
13.8789
 20
82.6582
 11
13.832
 21
82.6895
  0
LINE
  8
0
 10
13.832
 20
82.6895
 11
13.7646
 21
82.7393
  0
LINE
  8
0
 10
13.7646
 20
82.7393
 11
13.7002
 21
82.792
  0
LINE
  8
0
 10
13.7002
 20
82.792
 11
13.6797
 21
82.8105
  0
LINE
  8
0
 10
13.6797
 20
82.8105
 11
13.6592
 21
82.8301
  0
LINE
  8
0
 10
13.6592
 20
82.8301
 11
13.6387
 21
82.8486
  0
LINE
  8
0
 10
13.6387
 20
82.8486
 11
13.6182
 21
82.8682
  0
LINE
  8
0
 10
13.6182
 20
82.8682
 11
13.5986
 21
82.8887
  0
LINE
  8
0
 10
13.5986
 20
82.8887
 11
13.5801
 21
82.9092
  0
LINE
  8
0
 10
13.5801
 20
82.9092
 11
13.5605
 21
82.9297
  0
LINE
  8
0
 10
13.5605
 20
82.9297
 11
13.542
 21
82.9502
  0
LINE
  8
0
 10
13.542
 20
82.9502
 11
13.4893
 21
83.0146
  0
LINE
  8
0
 10
13.4893
 20
83.0146
 11
13.4395
 21
83.082
  0
LINE
  8
0
 10
13.4395
 20
83.082
 11
13.4082
 21
83.1289
  0
LINE
  8
0
 10
13.4082
 20
83.1289
 11
13.3789
 21
83.1758
  0
LINE
  8
0
 10
13.3789
 20
83.1758
 11
13.3643
 21
83.2002
  0
LINE
  8
0
 10
13.3643
 20
83.2002
 11
13.3369
 21
83.249
  0
LINE
  8
0
 10
13.3369
 20
83.249
 11
13.3242
 21
83.2734
  0
LINE
  8
0
 10
13.3242
 20
83.2734
 11
13.3115
 21
83.2988
  0
LINE
  8
0
 10
13.3115
 20
83.2988
 11
13.2881
 21
83.3496
  0
LINE
  8
0
 10
13.2881
 20
83.3496
 11
13.2666
 21
83.4004
  0
LINE
  8
0
 10
13.2666
 20
83.4004
 11
13.2559
 21
83.4268
  0
LINE
  8
0
 10
13.2559
 20
83.4268
 11
13.2461
 21
83.4531
  0
LINE
  8
0
 10
13.2461
 20
83.4531
 11
13.2197
 21
83.5322
  0
LINE
  8
0
 10
13.2197
 20
83.5322
 11
13.2119
 21
83.5586
  0
LINE
  8
0
 10
13.2119
 20
83.5586
 11
13.2041
 21
83.5859
  0
LINE
  8
0
 10
13.2041
 20
83.5859
 11
13.1973
 21
83.6133
  0
LINE
  8
0
 10
13.1973
 20
83.6133
 11
13.1914
 21
83.6396
  0
LINE
  8
0
 10
13.1914
 20
83.6396
 11
13.1846
 21
83.667
  0
LINE
  8
0
 10
13.1846
 20
83.667
 11
13.1797
 21
83.6943
  0
LINE
  8
0
 10
13.1797
 20
83.6943
 11
13.1738
 21
83.7217
  0
LINE
  8
0
 10
13.1738
 20
83.7217
 11
13.1699
 21
83.75
  0
LINE
  8
0
 10
13.1699
 20
83.75
 11
13.1621
 21
83.8047
  0
LINE
  8
0
 10
13.1621
 20
83.8047
 11
13.1592
 21
83.833
  0
LINE
  8
0
 10
13.1592
 20
83.833
 11
13.1562
 21
83.8604
  0
LINE
  8
0
 10
13.1562
 20
83.8604
 11
13.1543
 21
83.8887
  0
LINE
  8
0
 10
13.1543
 20
83.8887
 11
13.1523
 21
83.916
  0
LINE
  8
0
 10
13.1523
 20
83.916
 11
13.1504
 21
83.9717
  0
LINE
  8
0
 10
13.1504
 20
83.9717
 11
13.1504
 21
85.5283
  0
LINE
  8
0
 10
13.1504
 20
85.5283
 11
13.1523
 21
85.584
  0
LINE
  8
0
 10
13.1523
 20
85.584
 11
13.1543
 21
85.6113
  0
LINE
  8
0
 10
13.1543
 20
85.6113
 11
13.1562
 21
85.6396
  0
LINE
  8
0
 10
13.1562
 20
85.6396
 11
13.1592
 21
85.667
  0
LINE
  8
0
 10
13.1592
 20
85.667
 11
13.1621
 21
85.6953
  0
LINE
  8
0
 10
13.1621
 20
85.6953
 11
13.1699
 21
85.75
  0
LINE
  8
0
 10
13.1699
 20
85.75
 11
13.1738
 21
85.7783
  0
LINE
  8
0
 10
13.1738
 20
85.7783
 11
13.1797
 21
85.8057
  0
LINE
  8
0
 10
13.1797
 20
85.8057
 11
13.1846
 21
85.833
  0
LINE
  8
0
 10
13.1846
 20
85.833
 11
13.1914
 21
85.8604
  0
LINE
  8
0
 10
13.1914
 20
85.8604
 11
13.1973
 21
85.8867
  0
LINE
  8
0
 10
13.1973
 20
85.8867
 11
13.2041
 21
85.9141
  0
LINE
  8
0
 10
13.2041
 20
85.9141
 11
13.2119
 21
85.9414
  0
LINE
  8
0
 10
13.2119
 20
85.9414
 11
13.2197
 21
85.9678
  0
LINE
  8
0
 10
13.2197
 20
85.9678
 11
13.2461
 21
86.0469
  0
LINE
  8
0
 10
13.2461
 20
86.0469
 11
13.2559
 21
86.0732
  0
LINE
  8
0
 10
13.2559
 20
86.0732
 11
13.2666
 21
86.0996
  0
LINE
  8
0
 10
13.2666
 20
86.0996
 11
13.2881
 21
86.1504
  0
LINE
  8
0
 10
13.2881
 20
86.1504
 11
13.3115
 21
86.2012
  0
LINE
  8
0
 10
13.3115
 20
86.2012
 11
13.3242
 21
86.2266
  0
LINE
  8
0
 10
13.3242
 20
86.2266
 11
13.3369
 21
86.251
  0
LINE
  8
0
 10
13.3369
 20
86.251
 11
13.3643
 21
86.2998
  0
LINE
  8
0
 10
13.3643
 20
86.2998
 11
13.3789
 21
86.3242
  0
LINE
  8
0
 10
13.3789
 20
86.3242
 11
13.4082
 21
86.3711
  0
LINE
  8
0
 10
13.4082
 20
86.3711
 11
13.4395
 21
86.418
  0
LINE
  8
0
 10
13.4395
 20
86.418
 11
13.4893
 21
86.4854
  0
LINE
  8
0
 10
13.4893
 20
86.4854
 11
13.542
 21
86.5498
  0
LINE
  8
0
 10
13.542
 20
86.5498
 11
13.5605
 21
86.5703
  0
LINE
  8
0
 10
13.5605
 20
86.5703
 11
13.5801
 21
86.5908
  0
LINE
  8
0
 10
13.5801
 20
86.5908
 11
13.5986
 21
86.6113
  0
LINE
  8
0
 10
13.5986
 20
86.6113
 11
13.6182
 21
86.6318
  0
LINE
  8
0
 10
13.6182
 20
86.6318
 11
13.6387
 21
86.6514
  0
LINE
  8
0
 10
13.6387
 20
86.6514
 11
13.6592
 21
86.6699
  0
LINE
  8
0
 10
13.6592
 20
86.6699
 11
13.6797
 21
86.6895
  0
LINE
  8
0
 10
13.6797
 20
86.6895
 11
13.7002
 21
86.708
  0
LINE
  8
0
 10
13.7002
 20
86.708
 11
13.7646
 21
86.7607
  0
LINE
  8
0
 10
13.7646
 20
86.7607
 11
13.832
 21
86.8105
  0
LINE
  8
0
 10
13.832
 20
86.8105
 11
13.8789
 21
86.8418
  0
LINE
  8
0
 10
13.8789
 20
86.8418
 11
13.9258
 21
86.8711
  0
LINE
  8
0
 10
13.9258
 20
86.8711
 11
13.9502
 21
86.8857
  0
LINE
  8
0
 10
13.9502
 20
86.8857
 11
13.999
 21
86.9131
  0
LINE
  8
0
 10
13.999
 20
86.9131
 11
14.0234
 21
86.9258
  0
LINE
  8
0
 10
14.0234
 20
86.9258
 11
14.0488
 21
86.9385
  0
LINE
  8
0
 10
14.0488
 20
86.9385
 11
14.0996
 21
86.9619
  0
LINE
  8
0
 10
14.0996
 20
86.9619
 11
14.1504
 21
86.9834
  0
LINE
  8
0
 10
14.1504
 20
86.9834
 11
14.1768
 21
86.9941
  0
LINE
  8
0
 10
14.1768
 20
86.9941
 11
14.2031
 21
87.0039
  0
LINE
  8
0
 10
14.2031
 20
87.0039
 11
14.2822
 21
87.0303
  0
LINE
  8
0
 10
14.2822
 20
87.0303
 11
14.3086
 21
87.0381
  0
LINE
  8
0
 10
14.3086
 20
87.0381
 11
14.3359
 21
87.0459
  0
LINE
  8
0
 10
14.3359
 20
87.0459
 11
14.3633
 21
87.0527
  0
LINE
  8
0
 10
14.3633
 20
87.0527
 11
14.3896
 21
87.0586
  0
LINE
  8
0
 10
14.3896
 20
87.0586
 11
14.417
 21
87.0654
  0
LINE
  8
0
 10
14.417
 20
87.0654
 11
14.4443
 21
87.0703
  0
LINE
  8
0
 10
14.4443
 20
87.0703
 11
14.4717
 21
87.0762
  0
LINE
  8
0
 10
14.4717
 20
87.0762
 11
14.5
 21
87.0801
  0
LINE
  8
0
 10
14.5
 20
87.0801
 11
14.5547
 21
87.0879
  0
LINE
  8
0
 10
14.5547
 20
87.0879
 11
14.583
 21
87.0908
  0
LINE
  8
0
 10
14.583
 20
87.0908
 11
14.6104
 21
87.0938
  0
LINE
  8
0
 10
14.6104
 20
87.0938
 11
14.6387
 21
87.0957
  0
LINE
  8
0
 10
14.6387
 20
87.0957
 11
14.666
 21
87.0977
  0
LINE
  8
0
 10
14.666
 20
87.0977
 11
14.7217
 21
87.0996
  0
LINE
  8
0
 10
14.7217
 20
87.0996
 11
14.7783
 21
87.0996
  0
LINE
  8
0
 10
14.7783
 20
87.0996
 11
14.834
 21
87.0977
  0
LINE
  8
0
 10
14.834
 20
87.0977
 11
14.8613
 21
87.0957
  0
LINE
  8
0
 10
14.8613
 20
87.0957
 11
14.8896
 21
87.0938
  0
LINE
  8
0
 10
14.8896
 20
87.0938
 11
14.917
 21
87.0908
  0
LINE
  8
0
 10
14.917
 20
87.0908
 11
14.9453
 21
87.0879
  0
LINE
  8
0
 10
14.9453
 20
87.0879
 11
15
 21
87.0801
  0
LINE
  8
0
 10
15
 20
87.0801
 11
15.0283
 21
87.0762
  0
LINE
  8
0
 10
15.0283
 20
87.0762
 11
15.0557
 21
87.0703
  0
LINE
  8
0
 10
15.0557
 20
87.0703
 11
15.083
 21
87.0654
  0
LINE
  8
0
 10
15.083
 20
87.0654
 11
15.1104
 21
87.0586
  0
LINE
  8
0
 10
15.1104
 20
87.0586
 11
15.1367
 21
87.0527
  0
LINE
  8
0
 10
15.1367
 20
87.0527
 11
15.1641
 21
87.0459
  0
LINE
  8
0
 10
15.1641
 20
87.0459
 11
15.1914
 21
87.0381
  0
LINE
  8
0
 10
15.1914
 20
87.0381
 11
15.2178
 21
87.0303
  0
LINE
  8
0
 10
15.2178
 20
87.0303
 11
15.2969
 21
87.0039
  0
LINE
  8
0
 10
15.2969
 20
87.0039
 11
15.3232
 21
86.9941
  0
LINE
  8
0
 10
15.3232
 20
86.9941
 11
15.3496
 21
86.9834
  0
LINE
  8
0
 10
15.3496
 20
86.9834
 11
15.4004
 21
86.9619
  0
LINE
  8
0
 10
15.4004
 20
86.9619
 11
15.4512
 21
86.9385
  0
LINE
  8
0
 10
15.4512
 20
86.9385
 11
15.4766
 21
86.9258
  0
LINE
  8
0
 10
15.4766
 20
86.9258
 11
15.501
 21
86.9131
  0
LINE
  8
0
 10
15.501
 20
86.9131
 11
15.5498
 21
86.8857
  0
LINE
  8
0
 10
15.5498
 20
86.8857
 11
15.5742
 21
86.8711
  0
LINE
  8
0
 10
15.5742
 20
86.8711
 11
15.6211
 21
86.8418
  0
LINE
  8
0
 10
15.6211
 20
86.8418
 11
15.668
 21
86.8105
  0
LINE
  8
0
 10
15.668
 20
86.8105
 11
15.7354
 21
86.7607
  0
LINE
  8
0
 10
15.7354
 20
86.7607
 11
15.7998
 21
86.708
  0
LINE
  8
0
 10
15.7998
 20
86.708
 11
15.8203
 21
86.6895
  0
LINE
  8
0
 10
15.8203
 20
86.6895
 11
15.8408
 21
86.6699
  0
LINE
  8
0
 10
15.8408
 20
86.6699
 11
15.8613
 21
86.6514
  0
LINE
  8
0
 10
15.8613
 20
86.6514
 11
15.8818
 21
86.6318
  0
LINE
  8
0
 10
15.8818
 20
86.6318
 11
15.9014
 21
86.6113
  0
LINE
  8
0
 10
15.9014
 20
86.6113
 11
15.9199
 21
86.5908
  0
LINE
  8
0
 10
15.9199
 20
86.5908
 11
15.9395
 21
86.5703
  0
LINE
  8
0
 10
15.9395
 20
86.5703
 11
15.958
 21
86.5498
  0
LINE
  8
0
 10
15.958
 20
86.5498
 11
16.0107
 21
86.4854
  0
LINE
  8
0
 10
16.0107
 20
86.4854
 11
16.0605
 21
86.418
  0
LINE
  8
0
 10
16.0605
 20
86.418
 11
16.0918
 21
86.3711
  0
LINE
  8
0
 10
16.0918
 20
86.3711
 11
16.1211
 21
86.3242
  0
LINE
  8
0
 10
16.1211
 20
86.3242
 11
16.1357
 21
86.2998
  0
LINE
  8
0
 10
16.1357
 20
86.2998
 11
16.1631
 21
86.251
  0
LINE
  8
0
 10
16.1631
 20
86.251
 11
16.1758
 21
86.2266
  0
LINE
  8
0
 10
16.1758
 20
86.2266
 11
16.1885
 21
86.2012
  0
LINE
  8
0
 10
16.1885
 20
86.2012
 11
16.2119
 21
86.1504
  0
LINE
  8
0
 10
16.2119
 20
86.1504
 11
16.2334
 21
86.0996
  0
LINE
  8
0
 10
16.2334
 20
86.0996
 11
16.2441
 21
86.0732
  0
LINE
  8
0
 10
16.2441
 20
86.0732
 11
16.2539
 21
86.0469
  0
LINE
  8
0
 10
16.2539
 20
86.0469
 11
16.2803
 21
85.9678
  0
LINE
  8
0
 10
16.2803
 20
85.9678
 11
16.2881
 21
85.9414
  0
LINE
  8
0
 10
16.2881
 20
85.9414
 11
16.2959
 21
85.9141
  0
LINE
  8
0
 10
16.2959
 20
85.9141
 11
16.3027
 21
85.8867
  0
LINE
  8
0
 10
16.3027
 20
85.8867
 11
16.3086
 21
85.8604
  0
LINE
  8
0
 10
16.3086
 20
85.8604
 11
16.3154
 21
85.833
  0
LINE
  8
0
 10
16.3154
 20
85.833
 11
16.3203
 21
85.8057
  0
LINE
  8
0
 10
16.3203
 20
85.8057
 11
16.3262
 21
85.7783
  0
LINE
  8
0
 10
16.3262
 20
85.7783
 11
16.3301
 21
85.75
  0
LINE
  8
0
 10
16.3301
 20
85.75
 11
16.3379
 21
85.6953
  0
LINE
  8
0
 10
16.3379
 20
85.6953
 11
16.3408
 21
85.667
  0
LINE
  8
0
 10
16.3408
 20
85.667
 11
16.3438
 21
85.6396
  0
LINE
  8
0
 10
16.3438
 20
85.6396
 11
16.3457
 21
85.6113
  0
LINE
  8
0
 10
16.3457
 20
85.6113
 11
16.3477
 21
85.584
  0
LINE
  8
0
 10
16.3477
 20
85.584
 11
16.3496
 21
85.5283
  0
LINE
  8
0
 10
16.3496
 20
85.5283
 11
16.3496
 21
83.9717
  0
LINE
  8
0
 10
16.3496
 20
83.9717
 11
16.3477
 21
83.916
  0
LINE
  8
0
 10
16.3477
 20
83.916
 11
16.3457
 21
83.8887
  0
LINE
  8
0
 10
16.3457
 20
83.8887
 11
16.3438
 21
83.8604
  0
LINE
  8
0
 10
16.3438
 20
83.8604
 11
16.3408
 21
83.833
  0
LINE
  8
0
 10
16.3408
 20
83.833
 11
16.3379
 21
83.8047
  0
LINE
  8
0
 10
16.3379
 20
83.8047
 11
16.3301
 21
83.75
  0
LINE
  8
0
 10
16.3301
 20
83.75
 11
16.3262
 21
83.7217
  0
LINE
  8
0
 10
16.3262
 20
83.7217
 11
16.3203
 21
83.6943
  0
LINE
  8
0
 10
16.3203
 20
83.6943
 11
16.3154
 21
83.667
  0
LINE
  8
0
 10
16.3154
 20
83.667
 11
16.3086
 21
83.6396
  0
LINE
  8
0
 10
16.3086
 20
83.6396
 11
16.3027
 21
83.6133
  0
LINE
  8
0
 10
16.3027
 20
83.6133
 11
16.2959
 21
83.5859
  0
LINE
  8
0
 10
16.2959
 20
83.5859
 11
16.2881
 21
83.5586
  0
LINE
  8
0
 10
16.2881
 20
83.5586
 11
16.2803
 21
83.5322
  0
LINE
  8
0
 10
16.2803
 20
83.5322
 11
16.2539
 21
83.4531
  0
LINE
  8
0
 10
16.2539
 20
83.4531
 11
16.2441
 21
83.4268
  0
LINE
  8
0
 10
16.2441
 20
83.4268
 11
16.2334
 21
83.4004
  0
LINE
  8
0
 10
16.2334
 20
83.4004
 11
16.2119
 21
83.3496
  0
LINE
  8
0
 10
16.2119
 20
83.3496
 11
16.1885
 21
83.2988
  0
LINE
  8
0
 10
16.1885
 20
83.2988
 11
16.1758
 21
83.2734
  0
LINE
  8
0
 10
16.1758
 20
83.2734
 11
16.1631
 21
83.249
  0
LINE
  8
0
 10
16.1631
 20
83.249
 11
16.1357
 21
83.2002
  0
LINE
  8
0
 10
16.1357
 20
83.2002
 11
16.1211
 21
83.1758
  0
LINE
  8
0
 10
16.1211
 20
83.1758
 11
16.0918
 21
83.1289
  0
LINE
  8
0
 10
16.0918
 20
83.1289
 11
16.0605
 21
83.082
  0
LINE
  8
0
 10
16.0605
 20
83.082
 11
16.0107
 21
83.0146
  0
LINE
  8
0
 10
16.0107
 20
83.0146
 11
15.958
 21
82.9502
  0
LINE
  8
0
 10
15.958
 20
82.9502
 11
15.9395
 21
82.9297
  0
LINE
  8
0
 10
15.9395
 20
82.9297
 11
15.9199
 21
82.9092
  0
LINE
  8
0
 10
15.9199
 20
82.9092
 11
15.9014
 21
82.8887
  0
LINE
  8
0
 10
15.9014
 20
82.8887
 11
15.8818
 21
82.8682
  0
LINE
  8
0
 10
15.8818
 20
82.8682
 11
15.8613
 21
82.8486
  0
LINE
  8
0
 10
15.8613
 20
82.8486
 11
15.8408
 21
82.8301
  0
LINE
  8
0
 10
15.8408
 20
82.8301
 11
15.8203
 21
82.8105
  0
LINE
  8
0
 10
15.8203
 20
82.8105
 11
15.7998
 21
82.792
  0
LINE
  8
0
 10
15.7998
 20
82.792
 11
15.7354
 21
82.7393
  0
LINE
  8
0
 10
15.7354
 20
82.7393
 11
15.668
 21
82.6895
  0
LINE
  8
0
 10
15.668
 20
82.6895
 11
15.6211
 21
82.6582
  0
LINE
  8
0
 10
15.6211
 20
82.6582
 11
15.5742
 21
82.6289
  0
LINE
  8
0
 10
15.5742
 20
82.6289
 11
15.5498
 21
82.6143
  0
LINE
  8
0
 10
15.5498
 20
82.6143
 11
15.501
 21
82.5869
  0
LINE
  8
0
 10
15.501
 20
82.5869
 11
15.4766
 21
82.5742
  0
LINE
  8
0
 10
15.4766
 20
82.5742
 11
15.4512
 21
82.5615
  0
LINE
  8
0
 10
15.4512
 20
82.5615
 11
15.4004
 21
82.5381
  0
LINE
  8
0
 10
15.4004
 20
82.5381
 11
15.3496
 21
82.5166
  0
LINE
  8
0
 10
15.3496
 20
82.5166
 11
15.3232
 21
82.5059
  0
LINE
  8
0
 10
15.3232
 20
82.5059
 11
15.2969
 21
82.4961
  0
LINE
  8
0
 10
15.2969
 20
82.4961
 11
15.2178
 21
82.4697
  0
LINE
  8
0
 10
15.2178
 20
82.4697
 11
15.1914
 21
82.4619
  0
LINE
  8
0
 10
15.1914
 20
82.4619
 11
15.1641
 21
82.4541
  0
LINE
  8
0
 10
15.1641
 20
82.4541
 11
15.1367
 21
82.4473
  0
LINE
  8
0
 10
15.1367
 20
82.4473
 11
15.1104
 21
82.4414
  0
LINE
  8
0
 10
15.1104
 20
82.4414
 11
15.083
 21
82.4346
  0
LINE
  8
0
 10
15.083
 20
82.4346
 11
15.0557
 21
82.4297
  0
LINE
  8
0
 10
15.0557
 20
82.4297
 11
15.0283
 21
82.4238
  0
LINE
  8
0
 10
15.0283
 20
82.4238
 11
15
 21
82.4199
  0
LINE
  8
0
 10
15
 20
82.4199
 11
14.9453
 21
82.4121
  0
LINE
  8
0
 10
14.9453
 20
82.4121
 11
14.917
 21
82.4092
  0
LINE
  8
0
 10
14.917
 20
82.4092
 11
14.8896
 21
82.4062
  0
LINE
  8
0
 10
14.8896
 20
82.4062
 11
14.8613
 21
82.4043
  0
LINE
  8
0
 10
14.8613
 20
82.4043
 11
14.834
 21
82.4023
  0
LINE
  8
0
 10
14.834
 20
82.4023
 11
14.7783
 21
82.4004
  0
LINE
  8
0
 10
14.7783
 20
82.4004
 11
14.7217
 21
82.4004
  0
LINE
  8
0
 10
86.2217
 20
82.4004
 11
86.166
 21
82.4023
  0
LINE
  8
0
 10
86.166
 20
82.4023
 11
86.1387
 21
82.4043
  0
LINE
  8
0
 10
86.1387
 20
82.4043
 11
86.1104
 21
82.4062
  0
LINE
  8
0
 10
86.1104
 20
82.4062
 11
86.083
 21
82.4092
  0
LINE
  8
0
 10
86.083
 20
82.4092
 11
86.0547
 21
82.4121
  0
LINE
  8
0
 10
86.0547
 20
82.4121
 11
86
 21
82.4199
  0
LINE
  8
0
 10
86
 20
82.4199
 11
85.9717
 21
82.4238
  0
LINE
  8
0
 10
85.9717
 20
82.4238
 11
85.9443
 21
82.4297
  0
LINE
  8
0
 10
85.9443
 20
82.4297
 11
85.917
 21
82.4346
  0
LINE
  8
0
 10
85.917
 20
82.4346
 11
85.8896
 21
82.4414
  0
LINE
  8
0
 10
85.8896
 20
82.4414
 11
85.8633
 21
82.4473
  0
LINE
  8
0
 10
85.8633
 20
82.4473
 11
85.8359
 21
82.4541
  0
LINE
  8
0
 10
85.8359
 20
82.4541
 11
85.8086
 21
82.4619
  0
LINE
  8
0
 10
85.8086
 20
82.4619
 11
85.7822
 21
82.4697
  0
LINE
  8
0
 10
85.7822
 20
82.4697
 11
85.7031
 21
82.4961
  0
LINE
  8
0
 10
85.7031
 20
82.4961
 11
85.6768
 21
82.5059
  0
LINE
  8
0
 10
85.6768
 20
82.5059
 11
85.6504
 21
82.5166
  0
LINE
  8
0
 10
85.6504
 20
82.5166
 11
85.5996
 21
82.5381
  0
LINE
  8
0
 10
85.5996
 20
82.5381
 11
85.5488
 21
82.5615
  0
LINE
  8
0
 10
85.5488
 20
82.5615
 11
85.5234
 21
82.5742
  0
LINE
  8
0
 10
85.5234
 20
82.5742
 11
85.499
 21
82.5869
  0
LINE
  8
0
 10
85.499
 20
82.5869
 11
85.4502
 21
82.6143
  0
LINE
  8
0
 10
85.4502
 20
82.6143
 11
85.4258
 21
82.6289
  0
LINE
  8
0
 10
85.4258
 20
82.6289
 11
85.3789
 21
82.6582
  0
LINE
  8
0
 10
85.3789
 20
82.6582
 11
85.332
 21
82.6895
  0
LINE
  8
0
 10
85.332
 20
82.6895
 11
85.2646
 21
82.7393
  0
LINE
  8
0
 10
85.2646
 20
82.7393
 11
85.2002
 21
82.792
  0
LINE
  8
0
 10
85.2002
 20
82.792
 11
85.1797
 21
82.8105
  0
LINE
  8
0
 10
85.1797
 20
82.8105
 11
85.1592
 21
82.8301
  0
LINE
  8
0
 10
85.1592
 20
82.8301
 11
85.1387
 21
82.8486
  0
LINE
  8
0
 10
85.1387
 20
82.8486
 11
85.1182
 21
82.8682
  0
LINE
  8
0
 10
85.1182
 20
82.8682
 11
85.0986
 21
82.8887
  0
LINE
  8
0
 10
85.0986
 20
82.8887
 11
85.0801
 21
82.9092
  0
LINE
  8
0
 10
85.0801
 20
82.9092
 11
85.0605
 21
82.9297
  0
LINE
  8
0
 10
85.0605
 20
82.9297
 11
85.042
 21
82.9502
  0
LINE
  8
0
 10
85.042
 20
82.9502
 11
84.9893
 21
83.0146
  0
LINE
  8
0
 10
84.9893
 20
83.0146
 11
84.9395
 21
83.082
  0
LINE
  8
0
 10
84.9395
 20
83.082
 11
84.9082
 21
83.1289
  0
LINE
  8
0
 10
84.9082
 20
83.1289
 11
84.8789
 21
83.1758
  0
LINE
  8
0
 10
84.8789
 20
83.1758
 11
84.8643
 21
83.2002
  0
LINE
  8
0
 10
84.8643
 20
83.2002
 11
84.8369
 21
83.249
  0
LINE
  8
0
 10
84.8369
 20
83.249
 11
84.8242
 21
83.2734
  0
LINE
  8
0
 10
84.8242
 20
83.2734
 11
84.8115
 21
83.2988
  0
LINE
  8
0
 10
84.8115
 20
83.2988
 11
84.7881
 21
83.3496
  0
LINE
  8
0
 10
84.7881
 20
83.3496
 11
84.7666
 21
83.4004
  0
LINE
  8
0
 10
84.7666
 20
83.4004
 11
84.7559
 21
83.4268
  0
LINE
  8
0
 10
84.7559
 20
83.4268
 11
84.7461
 21
83.4531
  0
LINE
  8
0
 10
84.7461
 20
83.4531
 11
84.7197
 21
83.5322
  0
LINE
  8
0
 10
84.7197
 20
83.5322
 11
84.7119
 21
83.5586
  0
LINE
  8
0
 10
84.7119
 20
83.5586
 11
84.7041
 21
83.5859
  0
LINE
  8
0
 10
84.7041
 20
83.5859
 11
84.6973
 21
83.6133
  0
LINE
  8
0
 10
84.6973
 20
83.6133
 11
84.6914
 21
83.6396
  0
LINE
  8
0
 10
84.6914
 20
83.6396
 11
84.6846
 21
83.667
  0
LINE
  8
0
 10
84.6846
 20
83.667
 11
84.6797
 21
83.6943
  0
LINE
  8
0
 10
84.6797
 20
83.6943
 11
84.6738
 21
83.7217
  0
LINE
  8
0
 10
84.6738
 20
83.7217
 11
84.6699
 21
83.75
  0
LINE
  8
0
 10
84.6699
 20
83.75
 11
84.6621
 21
83.8047
  0
LINE
  8
0
 10
84.6621
 20
83.8047
 11
84.6592
 21
83.833
  0
LINE
  8
0
 10
84.6592
 20
83.833
 11
84.6562
 21
83.8604
  0
LINE
  8
0
 10
84.6562
 20
83.8604
 11
84.6543
 21
83.8887
  0
LINE
  8
0
 10
84.6543
 20
83.8887
 11
84.6523
 21
83.916
  0
LINE
  8
0
 10
84.6523
 20
83.916
 11
84.6504
 21
83.9717
  0
LINE
  8
0
 10
84.6504
 20
83.9717
 11
84.6504
 21
85.5283
  0
LINE
  8
0
 10
84.6504
 20
85.5283
 11
84.6523
 21
85.584
  0
LINE
  8
0
 10
84.6523
 20
85.584
 11
84.6543
 21
85.6113
  0
LINE
  8
0
 10
84.6543
 20
85.6113
 11
84.6562
 21
85.6396
  0
LINE
  8
0
 10
84.6562
 20
85.6396
 11
84.6592
 21
85.667
  0
LINE
  8
0
 10
84.6592
 20
85.667
 11
84.6621
 21
85.6953
  0
LINE
  8
0
 10
84.6621
 20
85.6953
 11
84.6699
 21
85.75
  0
LINE
  8
0
 10
84.6699
 20
85.75
 11
84.6738
 21
85.7783
  0
LINE
  8
0
 10
84.6738
 20
85.7783
 11
84.6797
 21
85.8057
  0
LINE
  8
0
 10
84.6797
 20
85.8057
 11
84.6846
 21
85.833
  0
LINE
  8
0
 10
84.6846
 20
85.833
 11
84.6914
 21
85.8604
  0
LINE
  8
0
 10
84.6914
 20
85.8604
 11
84.6973
 21
85.8867
  0
LINE
  8
0
 10
84.6973
 20
85.8867
 11
84.7041
 21
85.9141
  0
LINE
  8
0
 10
84.7041
 20
85.9141
 11
84.7119
 21
85.9414
  0
LINE
  8
0
 10
84.7119
 20
85.9414
 11
84.7197
 21
85.9678
  0
LINE
  8
0
 10
84.7197
 20
85.9678
 11
84.7461
 21
86.0469
  0
LINE
  8
0
 10
84.7461
 20
86.0469
 11
84.7559
 21
86.0732
  0
LINE
  8
0
 10
84.7559
 20
86.0732
 11
84.7666
 21
86.0996
  0
LINE
  8
0
 10
84.7666
 20
86.0996
 11
84.7881
 21
86.1504
  0
LINE
  8
0
 10
84.7881
 20
86.1504
 11
84.8115
 21
86.2012
  0
LINE
  8
0
 10
84.8115
 20
86.2012
 11
84.8242
 21
86.2266
  0
LINE
  8
0
 10
84.8242
 20
86.2266
 11
84.8369
 21
86.251
  0
LINE
  8
0
 10
84.8369
 20
86.251
 11
84.8643
 21
86.2998
  0
LINE
  8
0
 10
84.8643
 20
86.2998
 11
84.8789
 21
86.3242
  0
LINE
  8
0
 10
84.8789
 20
86.3242
 11
84.9082
 21
86.3711
  0
LINE
  8
0
 10
84.9082
 20
86.3711
 11
84.9395
 21
86.418
  0
LINE
  8
0
 10
84.9395
 20
86.418
 11
84.9893
 21
86.4854
  0
LINE
  8
0
 10
84.9893
 20
86.4854
 11
85.042
 21
86.5498
  0
LINE
  8
0
 10
85.042
 20
86.5498
 11
85.0605
 21
86.5703
  0
LINE
  8
0
 10
85.0605
 20
86.5703
 11
85.0801
 21
86.5908
  0
LINE
  8
0
 10
85.0801
 20
86.5908
 11
85.0986
 21
86.6113
  0
LINE
  8
0
 10
85.0986
 20
86.6113
 11
85.1182
 21
86.6318
  0
LINE
  8
0
 10
85.1182
 20
86.6318
 11
85.1387
 21
86.6514
  0
LINE
  8
0
 10
85.1387
 20
86.6514
 11
85.1592
 21
86.6699
  0
LINE
  8
0
 10
85.1592
 20
86.6699
 11
85.1797
 21
86.6895
  0
LINE
  8
0
 10
85.1797
 20
86.6895
 11
85.2002
 21
86.708
  0
LINE
  8
0
 10
85.2002
 20
86.708
 11
85.2646
 21
86.7607
  0
LINE
  8
0
 10
85.2646
 20
86.7607
 11
85.332
 21
86.8105
  0
LINE
  8
0
 10
85.332
 20
86.8105
 11
85.3789
 21
86.8418
  0
LINE
  8
0
 10
85.3789
 20
86.8418
 11
85.4258
 21
86.8711
  0
LINE
  8
0
 10
85.4258
 20
86.8711
 11
85.4502
 21
86.8857
  0
LINE
  8
0
 10
85.4502
 20
86.8857
 11
85.499
 21
86.9131
  0
LINE
  8
0
 10
85.499
 20
86.9131
 11
85.5234
 21
86.9258
  0
LINE
  8
0
 10
85.5234
 20
86.9258
 11
85.5488
 21
86.9385
  0
LINE
  8
0
 10
85.5488
 20
86.9385
 11
85.5996
 21
86.9619
  0
LINE
  8
0
 10
85.5996
 20
86.9619
 11
85.6504
 21
86.9834
  0
LINE
  8
0
 10
85.6504
 20
86.9834
 11
85.6768
 21
86.9941
  0
LINE
  8
0
 10
85.6768
 20
86.9941
 11
85.7031
 21
87.0039
  0
LINE
  8
0
 10
85.7031
 20
87.0039
 11
85.7822
 21
87.0303
  0
LINE
  8
0
 10
85.7822
 20
87.0303
 11
85.8086
 21
87.0381
  0
LINE
  8
0
 10
85.8086
 20
87.0381
 11
85.8359
 21
87.0459
  0
LINE
  8
0
 10
85.8359
 20
87.0459
 11
85.8633
 21
87.0527
  0
LINE
  8
0
 10
85.8633
 20
87.0527
 11
85.8896
 21
87.0586
  0
LINE
  8
0
 10
85.8896
 20
87.0586
 11
85.917
 21
87.0654
  0
LINE
  8
0
 10
85.917
 20
87.0654
 11
85.9443
 21
87.0703
  0
LINE
  8
0
 10
85.9443
 20
87.0703
 11
85.9717
 21
87.0762
  0
LINE
  8
0
 10
85.9717
 20
87.0762
 11
86
 21
87.0801
  0
LINE
  8
0
 10
86
 20
87.0801
 11
86.0547
 21
87.0879
  0
LINE
  8
0
 10
86.0547
 20
87.0879
 11
86.083
 21
87.0908
  0
LINE
  8
0
 10
86.083
 20
87.0908
 11
86.1104
 21
87.0938
  0
LINE
  8
0
 10
86.1104
 20
87.0938
 11
86.1387
 21
87.0957
  0
LINE
  8
0
 10
86.1387
 20
87.0957
 11
86.166
 21
87.0977
  0
LINE
  8
0
 10
86.166
 20
87.0977
 11
86.2217
 21
87.0996
  0
LINE
  8
0
 10
86.2217
 20
87.0996
 11
86.2783
 21
87.0996
  0
LINE
  8
0
 10
86.2783
 20
87.0996
 11
86.334
 21
87.0977
  0
LINE
  8
0
 10
86.334
 20
87.0977
 11
86.3613
 21
87.0957
  0
LINE
  8
0
 10
86.3613
 20
87.0957
 11
86.3896
 21
87.0938
  0
LINE
  8
0
 10
86.3896
 20
87.0938
 11
86.417
 21
87.0908
  0
LINE
  8
0
 10
86.417
 20
87.0908
 11
86.4453
 21
87.0879
  0
LINE
  8
0
 10
86.4453
 20
87.0879
 11
86.5
 21
87.0801
  0
LINE
  8
0
 10
86.5
 20
87.0801
 11
86.5283
 21
87.0762
  0
LINE
  8
0
 10
86.5283
 20
87.0762
 11
86.5557
 21
87.0703
  0
LINE
  8
0
 10
86.5557
 20
87.0703
 11
86.583
 21
87.0654
  0
LINE
  8
0
 10
86.583
 20
87.0654
 11
86.6104
 21
87.0586
  0
LINE
  8
0
 10
86.6104
 20
87.0586
 11
86.6367
 21
87.0527
  0
LINE
  8
0
 10
86.6367
 20
87.0527
 11
86.6641
 21
87.0459
  0
LINE
  8
0
 10
86.6641
 20
87.0459
 11
86.6914
 21
87.0381
  0
LINE
  8
0
 10
86.6914
 20
87.0381
 11
86.7178
 21
87.0303
  0
LINE
  8
0
 10
86.7178
 20
87.0303
 11
86.7969
 21
87.0039
  0
LINE
  8
0
 10
86.7969
 20
87.0039
 11
86.8232
 21
86.9941
  0
LINE
  8
0
 10
86.8232
 20
86.9941
 11
86.8496
 21
86.9834
  0
LINE
  8
0
 10
86.8496
 20
86.9834
 11
86.9004
 21
86.9619
  0
LINE
  8
0
 10
86.9004
 20
86.9619
 11
86.9512
 21
86.9385
  0
LINE
  8
0
 10
86.9512
 20
86.9385
 11
86.9766
 21
86.9258
  0
LINE
  8
0
 10
86.9766
 20
86.9258
 11
87.001
 21
86.9131
  0
LINE
  8
0
 10
87.001
 20
86.9131
 11
87.0498
 21
86.8857
  0
LINE
  8
0
 10
87.0498
 20
86.8857
 11
87.0742
 21
86.8711
  0
LINE
  8
0
 10
87.0742
 20
86.8711
 11
87.1211
 21
86.8418
  0
LINE
  8
0
 10
87.1211
 20
86.8418
 11
87.168
 21
86.8105
  0
LINE
  8
0
 10
87.168
 20
86.8105
 11
87.2354
 21
86.7607
  0
LINE
  8
0
 10
87.2354
 20
86.7607
 11
87.2998
 21
86.708
  0
LINE
  8
0
 10
87.2998
 20
86.708
 11
87.3203
 21
86.6895
  0
LINE
  8
0
 10
87.3203
 20
86.6895
 11
87.3408
 21
86.6699
  0
LINE
  8
0
 10
87.3408
 20
86.6699
 11
87.3613
 21
86.6514
  0
LINE
  8
0
 10
87.3613
 20
86.6514
 11
87.3818
 21
86.6318
  0
LINE
  8
0
 10
87.3818
 20
86.6318
 11
87.4014
 21
86.6113
  0
LINE
  8
0
 10
87.4014
 20
86.6113
 11
87.4199
 21
86.5908
  0
LINE
  8
0
 10
87.4199
 20
86.5908
 11
87.4395
 21
86.5703
  0
LINE
  8
0
 10
87.4395
 20
86.5703
 11
87.458
 21
86.5498
  0
LINE
  8
0
 10
87.458
 20
86.5498
 11
87.5107
 21
86.4854
  0
LINE
  8
0
 10
87.5107
 20
86.4854
 11
87.5605
 21
86.418
  0
LINE
  8
0
 10
87.5605
 20
86.418
 11
87.5918
 21
86.3711
  0
LINE
  8
0
 10
87.5918
 20
86.3711
 11
87.6211
 21
86.3242
  0
LINE
  8
0
 10
87.6211
 20
86.3242
 11
87.6357
 21
86.2998
  0
LINE
  8
0
 10
87.6357
 20
86.2998
 11
87.6631
 21
86.251
  0
LINE
  8
0
 10
87.6631
 20
86.251
 11
87.6758
 21
86.2266
  0
LINE
  8
0
 10
87.6758
 20
86.2266
 11
87.6885
 21
86.2012
  0
LINE
  8
0
 10
87.6885
 20
86.2012
 11
87.7119
 21
86.1504
  0
LINE
  8
0
 10
87.7119
 20
86.1504
 11
87.7334
 21
86.0996
  0
LINE
  8
0
 10
87.7334
 20
86.0996
 11
87.7441
 21
86.0732
  0
LINE
  8
0
 10
87.7441
 20
86.0732
 11
87.7539
 21
86.0469
  0
LINE
  8
0
 10
87.7539
 20
86.0469
 11
87.7803
 21
85.9678
  0
LINE
  8
0
 10
87.7803
 20
85.9678
 11
87.7881
 21
85.9414
  0
LINE
  8
0
 10
87.7881
 20
85.9414
 11
87.7959
 21
85.9141
  0
LINE
  8
0
 10
87.7959
 20
85.9141
 11
87.8027
 21
85.8867
  0
LINE
  8
0
 10
87.8027
 20
85.8867
 11
87.8086
 21
85.8604
  0
LINE
  8
0
 10
87.8086
 20
85.8604
 11
87.8154
 21
85.833
  0
LINE
  8
0
 10
87.8154
 20
85.833
 11
87.8203
 21
85.8057
  0
LINE
  8
0
 10
87.8203
 20
85.8057
 11
87.8262
 21
85.7783
  0
LINE
  8
0
 10
87.8262
 20
85.7783
 11
87.8301
 21
85.75
  0
LINE
  8
0
 10
87.8301
 20
85.75
 11
87.8379
 21
85.6953
  0
LINE
  8
0
 10
87.8379
 20
85.6953
 11
87.8408
 21
85.667
  0
LINE
  8
0
 10
87.8408
 20
85.667
 11
87.8438
 21
85.6396
  0
LINE
  8
0
 10
87.8438
 20
85.6396
 11
87.8457
 21
85.6113
  0
LINE
  8
0
 10
87.8457
 20
85.6113
 11
87.8477
 21
85.584
  0
LINE
  8
0
 10
87.8477
 20
85.584
 11
87.8496
 21
85.5283
  0
LINE
  8
0
 10
87.8496
 20
85.5283
 11
87.8496
 21
83.9717
  0
LINE
  8
0
 10
87.8496
 20
83.9717
 11
87.8477
 21
83.916
  0
LINE
  8
0
 10
87.8477
 20
83.916
 11
87.8457
 21
83.8887
  0
LINE
  8
0
 10
87.8457
 20
83.8887
 11
87.8438
 21
83.8604
  0
LINE
  8
0
 10
87.8438
 20
83.8604
 11
87.8408
 21
83.833
  0
LINE
  8
0
 10
87.8408
 20
83.833
 11
87.8379
 21
83.8047
  0
LINE
  8
0
 10
87.8379
 20
83.8047
 11
87.8301
 21
83.75
  0
LINE
  8
0
 10
87.8301
 20
83.75
 11
87.8262
 21
83.7217
  0
LINE
  8
0
 10
87.8262
 20
83.7217
 11
87.8203
 21
83.6943
  0
LINE
  8
0
 10
87.8203
 20
83.6943
 11
87.8154
 21
83.667
  0
LINE
  8
0
 10
87.8154
 20
83.667
 11
87.8086
 21
83.6396
  0
LINE
  8
0
 10
87.8086
 20
83.6396
 11
87.8027
 21
83.6133
  0
LINE
  8
0
 10
87.8027
 20
83.6133
 11
87.7959
 21
83.5859
  0
LINE
  8
0
 10
87.7959
 20
83.5859
 11
87.7881
 21
83.5586
  0
LINE
  8
0
 10
87.7881
 20
83.5586
 11
87.7803
 21
83.5322
  0
LINE
  8
0
 10
87.7803
 20
83.5322
 11
87.7539
 21
83.4531
  0
LINE
  8
0
 10
87.7539
 20
83.4531
 11
87.7441
 21
83.4268
  0
LINE
  8
0
 10
87.7441
 20
83.4268
 11
87.7334
 21
83.4004
  0
LINE
  8
0
 10
87.7334
 20
83.4004
 11
87.7119
 21
83.3496
  0
LINE
  8
0
 10
87.7119
 20
83.3496
 11
87.6885
 21
83.2988
  0
LINE
  8
0
 10
87.6885
 20
83.2988
 11
87.6758
 21
83.2734
  0
LINE
  8
0
 10
87.6758
 20
83.2734
 11
87.6631
 21
83.249
  0
LINE
  8
0
 10
87.6631
 20
83.249
 11
87.6357
 21
83.2002
  0
LINE
  8
0
 10
87.6357
 20
83.2002
 11
87.6211
 21
83.1758
  0
LINE
  8
0
 10
87.6211
 20
83.1758
 11
87.5918
 21
83.1289
  0
LINE
  8
0
 10
87.5918
 20
83.1289
 11
87.5605
 21
83.082
  0
LINE
  8
0
 10
87.5605
 20
83.082
 11
87.5107
 21
83.0146
  0
LINE
  8
0
 10
87.5107
 20
83.0146
 11
87.458
 21
82.9502
  0
LINE
  8
0
 10
87.458
 20
82.9502
 11
87.4395
 21
82.9297
  0
LINE
  8
0
 10
87.4395
 20
82.9297
 11
87.4199
 21
82.9092
  0
LINE
  8
0
 10
87.4199
 20
82.9092
 11
87.4014
 21
82.8887
  0
LINE
  8
0
 10
87.4014
 20
82.8887
 11
87.3818
 21
82.8682
  0
LINE
  8
0
 10
87.3818
 20
82.8682
 11
87.3613
 21
82.8486
  0
LINE
  8
0
 10
87.3613
 20
82.8486
 11
87.3408
 21
82.8301
  0
LINE
  8
0
 10
87.3408
 20
82.8301
 11
87.3203
 21
82.8105
  0
LINE
  8
0
 10
87.3203
 20
82.8105
 11
87.2998
 21
82.792
  0
LINE
  8
0
 10
87.2998
 20
82.792
 11
87.2354
 21
82.7393
  0
LINE
  8
0
 10
87.2354
 20
82.7393
 11
87.168
 21
82.6895
  0
LINE
  8
0
 10
87.168
 20
82.6895
 11
87.1211
 21
82.6582
  0
LINE
  8
0
 10
87.1211
 20
82.6582
 11
87.0742
 21
82.6289
  0
LINE
  8
0
 10
87.0742
 20
82.6289
 11
87.0498
 21
82.6143
  0
LINE
  8
0
 10
87.0498
 20
82.6143
 11
87.001
 21
82.5869
  0
LINE
  8
0
 10
87.001
 20
82.5869
 11
86.9766
 21
82.5742
  0
LINE
  8
0
 10
86.9766
 20
82.5742
 11
86.9512
 21
82.5615
  0
LINE
  8
0
 10
86.9512
 20
82.5615
 11
86.9004
 21
82.5381
  0
LINE
  8
0
 10
86.9004
 20
82.5381
 11
86.8496
 21
82.5166
  0
LINE
  8
0
 10
86.8496
 20
82.5166
 11
86.8232
 21
82.5059
  0
LINE
  8
0
 10
86.8232
 20
82.5059
 11
86.7969
 21
82.4961
  0
LINE
  8
0
 10
86.7969
 20
82.4961
 11
86.7178
 21
82.4697
  0
LINE
  8
0
 10
86.7178
 20
82.4697
 11
86.6914
 21
82.4619
  0
LINE
  8
0
 10
86.6914
 20
82.4619
 11
86.6641
 21
82.4541
  0
LINE
  8
0
 10
86.6641
 20
82.4541
 11
86.6367
 21
82.4473
  0
LINE
  8
0
 10
86.6367
 20
82.4473
 11
86.6104
 21
82.4414
  0
LINE
  8
0
 10
86.6104
 20
82.4414
 11
86.583
 21
82.4346
  0
LINE
  8
0
 10
86.583
 20
82.4346
 11
86.5557
 21
82.4297
  0
LINE
  8
0
 10
86.5557
 20
82.4297
 11
86.5283
 21
82.4238
  0
LINE
  8
0
 10
86.5283
 20
82.4238
 11
86.5
 21
82.4199
  0
LINE
  8
0
 10
86.5
 20
82.4199
 11
86.4453
 21
82.4121
  0
LINE
  8
0
 10
86.4453
 20
82.4121
 11
86.417
 21
82.4092
  0
LINE
  8
0
 10
86.417
 20
82.4092
 11
86.3896
 21
82.4062
  0
LINE
  8
0
 10
86.3896
 20
82.4062
 11
86.3613
 21
82.4043
  0
LINE
  8
0
 10
86.3613
 20
82.4043
 11
86.334
 21
82.4023
  0
LINE
  8
0
 10
86.334
 20
82.4023
 11
86.2783
 21
82.4004
  0
LINE
  8
0
 10
86.2783
 20
82.4004
 11
86.2217
 21
82.4004
  0
LINE
  8
0
 10
14.7217
 20
42.9004
 11
14.666
 21
42.9023
  0
LINE
  8
0
 10
14.666
 20
42.9023
 11
14.6387
 21
42.9043
  0
LINE
  8
0
 10
14.6387
 20
42.9043
 11
14.6104
 21
42.9062
  0
LINE
  8
0
 10
14.6104
 20
42.9062
 11
14.583
 21
42.9092
  0
LINE
  8
0
 10
14.583
 20
42.9092
 11
14.5547
 21
42.9121
  0
LINE
  8
0
 10
14.5547
 20
42.9121
 11
14.5
 21
42.9199
  0
LINE
  8
0
 10
14.5
 20
42.9199
 11
14.4717
 21
42.9238
  0
LINE
  8
0
 10
14.4717
 20
42.9238
 11
14.4443
 21
42.9297
  0
LINE
  8
0
 10
14.4443
 20
42.9297
 11
14.417
 21
42.9346
  0
LINE
  8
0
 10
14.417
 20
42.9346
 11
14.3896
 21
42.9414
  0
LINE
  8
0
 10
14.3896
 20
42.9414
 11
14.3633
 21
42.9473
  0
LINE
  8
0
 10
14.3633
 20
42.9473
 11
14.3359
 21
42.9541
  0
LINE
  8
0
 10
14.3359
 20
42.9541
 11
14.3086
 21
42.9619
  0
LINE
  8
0
 10
14.3086
 20
42.9619
 11
14.2822
 21
42.9697
  0
LINE
  8
0
 10
14.2822
 20
42.9697
 11
14.2031
 21
42.9961
  0
LINE
  8
0
 10
14.2031
 20
42.9961
 11
14.1768
 21
43.0059
  0
LINE
  8
0
 10
14.1768
 20
43.0059
 11
14.1504
 21
43.0166
  0
LINE
  8
0
 10
14.1504
 20
43.0166
 11
14.0996
 21
43.0381
  0
LINE
  8
0
 10
14.0996
 20
43.0381
 11
14.0488
 21
43.0615
  0
LINE
  8
0
 10
14.0488
 20
43.0615
 11
14.0234
 21
43.0742
  0
LINE
  8
0
 10
14.0234
 20
43.0742
 11
13.999
 21
43.0869
  0
LINE
  8
0
 10
13.999
 20
43.0869
 11
13.9502
 21
43.1143
  0
LINE
  8
0
 10
13.9502
 20
43.1143
 11
13.9258
 21
43.1289
  0
LINE
  8
0
 10
13.9258
 20
43.1289
 11
13.8789
 21
43.1582
  0
LINE
  8
0
 10
13.8789
 20
43.1582
 11
13.832
 21
43.1895
  0
LINE
  8
0
 10
13.832
 20
43.1895
 11
13.7646
 21
43.2393
  0
LINE
  8
0
 10
13.7646
 20
43.2393
 11
13.7002
 21
43.292
  0
LINE
  8
0
 10
13.7002
 20
43.292
 11
13.6797
 21
43.3105
  0
LINE
  8
0
 10
13.6797
 20
43.3105
 11
13.6592
 21
43.3301
  0
LINE
  8
0
 10
13.6592
 20
43.3301
 11
13.6387
 21
43.3486
  0
LINE
  8
0
 10
13.6387
 20
43.3486
 11
13.6182
 21
43.3682
  0
LINE
  8
0
 10
13.6182
 20
43.3682
 11
13.5986
 21
43.3887
  0
LINE
  8
0
 10
13.5986
 20
43.3887
 11
13.5801
 21
43.4092
  0
LINE
  8
0
 10
13.5801
 20
43.4092
 11
13.5605
 21
43.4297
  0
LINE
  8
0
 10
13.5605
 20
43.4297
 11
13.542
 21
43.4502
  0
LINE
  8
0
 10
13.542
 20
43.4502
 11
13.4893
 21
43.5146
  0
LINE
  8
0
 10
13.4893
 20
43.5146
 11
13.4395
 21
43.582
  0
LINE
  8
0
 10
13.4395
 20
43.582
 11
13.4082
 21
43.6289
  0
LINE
  8
0
 10
13.4082
 20
43.6289
 11
13.3789
 21
43.6758
  0
LINE
  8
0
 10
13.3789
 20
43.6758
 11
13.3643
 21
43.7002
  0
LINE
  8
0
 10
13.3643
 20
43.7002
 11
13.3369
 21
43.749
  0
LINE
  8
0
 10
13.3369
 20
43.749
 11
13.3242
 21
43.7734
  0
LINE
  8
0
 10
13.3242
 20
43.7734
 11
13.3115
 21
43.7988
  0
LINE
  8
0
 10
13.3115
 20
43.7988
 11
13.2881
 21
43.8496
  0
LINE
  8
0
 10
13.2881
 20
43.8496
 11
13.2666
 21
43.9004
  0
LINE
  8
0
 10
13.2666
 20
43.9004
 11
13.2559
 21
43.9268
  0
LINE
  8
0
 10
13.2559
 20
43.9268
 11
13.2461
 21
43.9531
  0
LINE
  8
0
 10
13.2461
 20
43.9531
 11
13.2197
 21
44.0322
  0
LINE
  8
0
 10
13.2197
 20
44.0322
 11
13.2119
 21
44.0586
  0
LINE
  8
0
 10
13.2119
 20
44.0586
 11
13.2041
 21
44.0859
  0
LINE
  8
0
 10
13.2041
 20
44.0859
 11
13.1973
 21
44.1133
  0
LINE
  8
0
 10
13.1973
 20
44.1133
 11
13.1914
 21
44.1396
  0
LINE
  8
0
 10
13.1914
 20
44.1396
 11
13.1846
 21
44.167
  0
LINE
  8
0
 10
13.1846
 20
44.167
 11
13.1797
 21
44.1943
  0
LINE
  8
0
 10
13.1797
 20
44.1943
 11
13.1738
 21
44.2217
  0
LINE
  8
0
 10
13.1738
 20
44.2217
 11
13.1699
 21
44.25
  0
LINE
  8
0
 10
13.1699
 20
44.25
 11
13.1621
 21
44.3047
  0
LINE
  8
0
 10
13.1621
 20
44.3047
 11
13.1592
 21
44.333
  0
LINE
  8
0
 10
13.1592
 20
44.333
 11
13.1562
 21
44.3604
  0
LINE
  8
0
 10
13.1562
 20
44.3604
 11
13.1543
 21
44.3887
  0
LINE
  8
0
 10
13.1543
 20
44.3887
 11
13.1523
 21
44.416
  0
LINE
  8
0
 10
13.1523
 20
44.416
 11
13.1504
 21
44.4717
  0
LINE
  8
0
 10
13.1504
 20
44.4717
 11
13.1504
 21
46.0283
  0
LINE
  8
0
 10
13.1504
 20
46.0283
 11
13.1523
 21
46.084
  0
LINE
  8
0
 10
13.1523
 20
46.084
 11
13.1543
 21
46.1113
  0
LINE
  8
0
 10
13.1543
 20
46.1113
 11
13.1562
 21
46.1396
  0
LINE
  8
0
 10
13.1562
 20
46.1396
 11
13.1592
 21
46.167
  0
LINE
  8
0
 10
13.1592
 20
46.167
 11
13.1621
 21
46.1953
  0
LINE
  8
0
 10
13.1621
 20
46.1953
 11
13.1699
 21
46.25
  0
LINE
  8
0
 10
13.1699
 20
46.25
 11
13.1738
 21
46.2783
  0
LINE
  8
0
 10
13.1738
 20
46.2783
 11
13.1797
 21
46.3057
  0
LINE
  8
0
 10
13.1797
 20
46.3057
 11
13.1846
 21
46.333
  0
LINE
  8
0
 10
13.1846
 20
46.333
 11
13.1914
 21
46.3604
  0
LINE
  8
0
 10
13.1914
 20
46.3604
 11
13.1973
 21
46.3867
  0
LINE
  8
0
 10
13.1973
 20
46.3867
 11
13.2041
 21
46.4141
  0
LINE
  8
0
 10
13.2041
 20
46.4141
 11
13.2119
 21
46.4414
  0
LINE
  8
0
 10
13.2119
 20
46.4414
 11
13.2197
 21
46.4678
  0
LINE
  8
0
 10
13.2197
 20
46.4678
 11
13.2461
 21
46.5469
  0
LINE
  8
0
 10
13.2461
 20
46.5469
 11
13.2559
 21
46.5732
  0
LINE
  8
0
 10
13.2559
 20
46.5732
 11
13.2666
 21
46.5996
  0
LINE
  8
0
 10
13.2666
 20
46.5996
 11
13.2881
 21
46.6504
  0
LINE
  8
0
 10
13.2881
 20
46.6504
 11
13.3115
 21
46.7012
  0
LINE
  8
0
 10
13.3115
 20
46.7012
 11
13.3242
 21
46.7266
  0
LINE
  8
0
 10
13.3242
 20
46.7266
 11
13.3369
 21
46.751
  0
LINE
  8
0
 10
13.3369
 20
46.751
 11
13.3643
 21
46.7998
  0
LINE
  8
0
 10
13.3643
 20
46.7998
 11
13.3789
 21
46.8242
  0
LINE
  8
0
 10
13.3789
 20
46.8242
 11
13.4082
 21
46.8711
  0
LINE
  8
0
 10
13.4082
 20
46.8711
 11
13.4395
 21
46.918
  0
LINE
  8
0
 10
13.4395
 20
46.918
 11
13.4893
 21
46.9854
  0
LINE
  8
0
 10
13.4893
 20
46.9854
 11
13.542
 21
47.0498
  0
LINE
  8
0
 10
13.542
 20
47.0498
 11
13.5605
 21
47.0703
  0
LINE
  8
0
 10
13.5605
 20
47.0703
 11
13.5801
 21
47.0908
  0
LINE
  8
0
 10
13.5801
 20
47.0908
 11
13.5986
 21
47.1113
  0
LINE
  8
0
 10
13.5986
 20
47.1113
 11
13.6182
 21
47.1318
  0
LINE
  8
0
 10
13.6182
 20
47.1318
 11
13.6387
 21
47.1514
  0
LINE
  8
0
 10
13.6387
 20
47.1514
 11
13.6592
 21
47.1699
  0
LINE
  8
0
 10
13.6592
 20
47.1699
 11
13.6797
 21
47.1895
  0
LINE
  8
0
 10
13.6797
 20
47.1895
 11
13.7002
 21
47.208
  0
LINE
  8
0
 10
13.7002
 20
47.208
 11
13.7646
 21
47.2607
  0
LINE
  8
0
 10
13.7646
 20
47.2607
 11
13.832
 21
47.3105
  0
LINE
  8
0
 10
13.832
 20
47.3105
 11
13.8789
 21
47.3418
  0
LINE
  8
0
 10
13.8789
 20
47.3418
 11
13.9258
 21
47.3711
  0
LINE
  8
0
 10
13.9258
 20
47.3711
 11
13.9502
 21
47.3857
  0
LINE
  8
0
 10
13.9502
 20
47.3857
 11
13.999
 21
47.4131
  0
LINE
  8
0
 10
13.999
 20
47.4131
 11
14.0234
 21
47.4258
  0
LINE
  8
0
 10
14.0234
 20
47.4258
 11
14.0488
 21
47.4385
  0
LINE
  8
0
 10
14.0488
 20
47.4385
 11
14.0996
 21
47.4619
  0
LINE
  8
0
 10
14.0996
 20
47.4619
 11
14.1504
 21
47.4834
  0
LINE
  8
0
 10
14.1504
 20
47.4834
 11
14.1768
 21
47.4941
  0
LINE
  8
0
 10
14.1768
 20
47.4941
 11
14.2031
 21
47.5039
  0
LINE
  8
0
 10
14.2031
 20
47.5039
 11
14.2822
 21
47.5303
  0
LINE
  8
0
 10
14.2822
 20
47.5303
 11
14.3086
 21
47.5381
  0
LINE
  8
0
 10
14.3086
 20
47.5381
 11
14.3359
 21
47.5459
  0
LINE
  8
0
 10
14.3359
 20
47.5459
 11
14.3633
 21
47.5527
  0
LINE
  8
0
 10
14.3633
 20
47.5527
 11
14.3896
 21
47.5586
  0
LINE
  8
0
 10
14.3896
 20
47.5586
 11
14.417
 21
47.5654
  0
LINE
  8
0
 10
14.417
 20
47.5654
 11
14.4443
 21
47.5703
  0
LINE
  8
0
 10
14.4443
 20
47.5703
 11
14.4717
 21
47.5762
  0
LINE
  8
0
 10
14.4717
 20
47.5762
 11
14.5
 21
47.5801
  0
LINE
  8
0
 10
14.5
 20
47.5801
 11
14.5547
 21
47.5879
  0
LINE
  8
0
 10
14.5547
 20
47.5879
 11
14.583
 21
47.5908
  0
LINE
  8
0
 10
14.583
 20
47.5908
 11
14.6104
 21
47.5938
  0
LINE
  8
0
 10
14.6104
 20
47.5938
 11
14.6387
 21
47.5957
  0
LINE
  8
0
 10
14.6387
 20
47.5957
 11
14.666
 21
47.5977
  0
LINE
  8
0
 10
14.666
 20
47.5977
 11
14.7217
 21
47.5996
  0
LINE
  8
0
 10
14.7217
 20
47.5996
 11
14.7783
 21
47.5996
  0
LINE
  8
0
 10
14.7783
 20
47.5996
 11
14.834
 21
47.5977
  0
LINE
  8
0
 10
14.834
 20
47.5977
 11
14.8613
 21
47.5957
  0
LINE
  8
0
 10
14.8613
 20
47.5957
 11
14.8896
 21
47.5938
  0
LINE
  8
0
 10
14.8896
 20
47.5938
 11
14.917
 21
47.5908
  0
LINE
  8
0
 10
14.917
 20
47.5908
 11
14.9453
 21
47.5879
  0
LINE
  8
0
 10
14.9453
 20
47.5879
 11
15
 21
47.5801
  0
LINE
  8
0
 10
15
 20
47.5801
 11
15.0283
 21
47.5762
  0
LINE
  8
0
 10
15.0283
 20
47.5762
 11
15.0557
 21
47.5703
  0
LINE
  8
0
 10
15.0557
 20
47.5703
 11
15.083
 21
47.5654
  0
LINE
  8
0
 10
15.083
 20
47.5654
 11
15.1104
 21
47.5586
  0
LINE
  8
0
 10
15.1104
 20
47.5586
 11
15.1367
 21
47.5527
  0
LINE
  8
0
 10
15.1367
 20
47.5527
 11
15.1641
 21
47.5459
  0
LINE
  8
0
 10
15.1641
 20
47.5459
 11
15.1914
 21
47.5381
  0
LINE
  8
0
 10
15.1914
 20
47.5381
 11
15.2178
 21
47.5303
  0
LINE
  8
0
 10
15.2178
 20
47.5303
 11
15.2969
 21
47.5039
  0
LINE
  8
0
 10
15.2969
 20
47.5039
 11
15.3232
 21
47.4941
  0
LINE
  8
0
 10
15.3232
 20
47.4941
 11
15.3496
 21
47.4834
  0
LINE
  8
0
 10
15.3496
 20
47.4834
 11
15.4004
 21
47.4619
  0
LINE
  8
0
 10
15.4004
 20
47.4619
 11
15.4512
 21
47.4385
  0
LINE
  8
0
 10
15.4512
 20
47.4385
 11
15.4766
 21
47.4258
  0
LINE
  8
0
 10
15.4766
 20
47.4258
 11
15.501
 21
47.4131
  0
LINE
  8
0
 10
15.501
 20
47.4131
 11
15.5498
 21
47.3857
  0
LINE
  8
0
 10
15.5498
 20
47.3857
 11
15.5742
 21
47.3711
  0
LINE
  8
0
 10
15.5742
 20
47.3711
 11
15.6211
 21
47.3418
  0
LINE
  8
0
 10
15.6211
 20
47.3418
 11
15.668
 21
47.3105
  0
LINE
  8
0
 10
15.668
 20
47.3105
 11
15.7354
 21
47.2607
  0
LINE
  8
0
 10
15.7354
 20
47.2607
 11
15.7998
 21
47.208
  0
LINE
  8
0
 10
15.7998
 20
47.208
 11
15.8203
 21
47.1895
  0
LINE
  8
0
 10
15.8203
 20
47.1895
 11
15.8408
 21
47.1699
  0
LINE
  8
0
 10
15.8408
 20
47.1699
 11
15.8613
 21
47.1514
  0
LINE
  8
0
 10
15.8613
 20
47.1514
 11
15.8818
 21
47.1318
  0
LINE
  8
0
 10
15.8818
 20
47.1318
 11
15.9014
 21
47.1113
  0
LINE
  8
0
 10
15.9014
 20
47.1113
 11
15.9199
 21
47.0908
  0
LINE
  8
0
 10
15.9199
 20
47.0908
 11
15.9395
 21
47.0703
  0
LINE
  8
0
 10
15.9395
 20
47.0703
 11
15.958
 21
47.0498
  0
LINE
  8
0
 10
15.958
 20
47.0498
 11
16.0107
 21
46.9854
  0
LINE
  8
0
 10
16.0107
 20
46.9854
 11
16.0605
 21
46.918
  0
LINE
  8
0
 10
16.0605
 20
46.918
 11
16.0918
 21
46.8711
  0
LINE
  8
0
 10
16.0918
 20
46.8711
 11
16.1211
 21
46.8242
  0
LINE
  8
0
 10
16.1211
 20
46.8242
 11
16.1357
 21
46.7998
  0
LINE
  8
0
 10
16.1357
 20
46.7998
 11
16.1631
 21
46.751
  0
LINE
  8
0
 10
16.1631
 20
46.751
 11
16.1758
 21
46.7266
  0
LINE
  8
0
 10
16.1758
 20
46.7266
 11
16.1885
 21
46.7012
  0
LINE
  8
0
 10
16.1885
 20
46.7012
 11
16.2119
 21
46.6504
  0
LINE
  8
0
 10
16.2119
 20
46.6504
 11
16.2334
 21
46.5996
  0
LINE
  8
0
 10
16.2334
 20
46.5996
 11
16.2441
 21
46.5732
  0
LINE
  8
0
 10
16.2441
 20
46.5732
 11
16.2539
 21
46.5469
  0
LINE
  8
0
 10
16.2539
 20
46.5469
 11
16.2803
 21
46.4678
  0
LINE
  8
0
 10
16.2803
 20
46.4678
 11
16.2881
 21
46.4414
  0
LINE
  8
0
 10
16.2881
 20
46.4414
 11
16.2959
 21
46.4141
  0
LINE
  8
0
 10
16.2959
 20
46.4141
 11
16.3027
 21
46.3867
  0
LINE
  8
0
 10
16.3027
 20
46.3867
 11
16.3086
 21
46.3604
  0
LINE
  8
0
 10
16.3086
 20
46.3604
 11
16.3154
 21
46.333
  0
LINE
  8
0
 10
16.3154
 20
46.333
 11
16.3203
 21
46.3057
  0
LINE
  8
0
 10
16.3203
 20
46.3057
 11
16.3262
 21
46.2783
  0
LINE
  8
0
 10
16.3262
 20
46.2783
 11
16.3301
 21
46.25
  0
LINE
  8
0
 10
16.3301
 20
46.25
 11
16.3379
 21
46.1953
  0
LINE
  8
0
 10
16.3379
 20
46.1953
 11
16.3408
 21
46.167
  0
LINE
  8
0
 10
16.3408
 20
46.167
 11
16.3438
 21
46.1396
  0
LINE
  8
0
 10
16.3438
 20
46.1396
 11
16.3457
 21
46.1113
  0
LINE
  8
0
 10
16.3457
 20
46.1113
 11
16.3477
 21
46.084
  0
LINE
  8
0
 10
16.3477
 20
46.084
 11
16.3496
 21
46.0283
  0
LINE
  8
0
 10
16.3496
 20
46.0283
 11
16.3496
 21
44.4717
  0
LINE
  8
0
 10
16.3496
 20
44.4717
 11
16.3477
 21
44.416
  0
LINE
  8
0
 10
16.3477
 20
44.416
 11
16.3457
 21
44.3887
  0
LINE
  8
0
 10
16.3457
 20
44.3887
 11
16.3438
 21
44.3604
  0
LINE
  8
0
 10
16.3438
 20
44.3604
 11
16.3408
 21
44.333
  0
LINE
  8
0
 10
16.3408
 20
44.333
 11
16.3379
 21
44.3047
  0
LINE
  8
0
 10
16.3379
 20
44.3047
 11
16.3301
 21
44.25
  0
LINE
  8
0
 10
16.3301
 20
44.25
 11
16.3262
 21
44.2217
  0
LINE
  8
0
 10
16.3262
 20
44.2217
 11
16.3203
 21
44.1943
  0
LINE
  8
0
 10
16.3203
 20
44.1943
 11
16.3154
 21
44.167
  0
LINE
  8
0
 10
16.3154
 20
44.167
 11
16.3086
 21
44.1396
  0
LINE
  8
0
 10
16.3086
 20
44.1396
 11
16.3027
 21
44.1133
  0
LINE
  8
0
 10
16.3027
 20
44.1133
 11
16.2959
 21
44.0859
  0
LINE
  8
0
 10
16.2959
 20
44.0859
 11
16.2881
 21
44.0586
  0
LINE
  8
0
 10
16.2881
 20
44.0586
 11
16.2803
 21
44.0322
  0
LINE
  8
0
 10
16.2803
 20
44.0322
 11
16.2539
 21
43.9531
  0
LINE
  8
0
 10
16.2539
 20
43.9531
 11
16.2441
 21
43.9268
  0
LINE
  8
0
 10
16.2441
 20
43.9268
 11
16.2334
 21
43.9004
  0
LINE
  8
0
 10
16.2334
 20
43.9004
 11
16.2119
 21
43.8496
  0
LINE
  8
0
 10
16.2119
 20
43.8496
 11
16.1885
 21
43.7988
  0
LINE
  8
0
 10
16.1885
 20
43.7988
 11
16.1758
 21
43.7734
  0
LINE
  8
0
 10
16.1758
 20
43.7734
 11
16.1631
 21
43.749
  0
LINE
  8
0
 10
16.1631
 20
43.749
 11
16.1357
 21
43.7002
  0
LINE
  8
0
 10
16.1357
 20
43.7002
 11
16.1211
 21
43.6758
  0
LINE
  8
0
 10
16.1211
 20
43.6758
 11
16.0918
 21
43.6289
  0
LINE
  8
0
 10
16.0918
 20
43.6289
 11
16.0605
 21
43.582
  0
LINE
  8
0
 10
16.0605
 20
43.582
 11
16.0107
 21
43.5146
  0
LINE
  8
0
 10
16.0107
 20
43.5146
 11
15.958
 21
43.4502
  0
LINE
  8
0
 10
15.958
 20
43.4502
 11
15.9395
 21
43.4297
  0
LINE
  8
0
 10
15.9395
 20
43.4297
 11
15.9199
 21
43.4092
  0
LINE
  8
0
 10
15.9199
 20
43.4092
 11
15.9014
 21
43.3887
  0
LINE
  8
0
 10
15.9014
 20
43.3887
 11
15.8818
 21
43.3682
  0
LINE
  8
0
 10
15.8818
 20
43.3682
 11
15.8613
 21
43.3486
  0
LINE
  8
0
 10
15.8613
 20
43.3486
 11
15.8408
 21
43.3301
  0
LINE
  8
0
 10
15.8408
 20
43.3301
 11
15.8203
 21
43.3105
  0
LINE
  8
0
 10
15.8203
 20
43.3105
 11
15.7998
 21
43.292
  0
LINE
  8
0
 10
15.7998
 20
43.292
 11
15.7354
 21
43.2393
  0
LINE
  8
0
 10
15.7354
 20
43.2393
 11
15.668
 21
43.1895
  0
LINE
  8
0
 10
15.668
 20
43.1895
 11
15.6211
 21
43.1582
  0
LINE
  8
0
 10
15.6211
 20
43.1582
 11
15.5742
 21
43.1289
  0
LINE
  8
0
 10
15.5742
 20
43.1289
 11
15.5498
 21
43.1143
  0
LINE
  8
0
 10
15.5498
 20
43.1143
 11
15.501
 21
43.0869
  0
LINE
  8
0
 10
15.501
 20
43.0869
 11
15.4766
 21
43.0742
  0
LINE
  8
0
 10
15.4766
 20
43.0742
 11
15.4512
 21
43.0615
  0
LINE
  8
0
 10
15.4512
 20
43.0615
 11
15.4004
 21
43.0381
  0
LINE
  8
0
 10
15.4004
 20
43.0381
 11
15.3496
 21
43.0166
  0
LINE
  8
0
 10
15.3496
 20
43.0166
 11
15.3232
 21
43.0059
  0
LINE
  8
0
 10
15.3232
 20
43.0059
 11
15.2969
 21
42.9961
  0
LINE
  8
0
 10
15.2969
 20
42.9961
 11
15.2178
 21
42.9697
  0
LINE
  8
0
 10
15.2178
 20
42.9697
 11
15.1914
 21
42.9619
  0
LINE
  8
0
 10
15.1914
 20
42.9619
 11
15.1641
 21
42.9541
  0
LINE
  8
0
 10
15.1641
 20
42.9541
 11
15.1367
 21
42.9473
  0
LINE
  8
0
 10
15.1367
 20
42.9473
 11
15.1104
 21
42.9414
  0
LINE
  8
0
 10
15.1104
 20
42.9414
 11
15.083
 21
42.9346
  0
LINE
  8
0
 10
15.083
 20
42.9346
 11
15.0557
 21
42.9297
  0
LINE
  8
0
 10
15.0557
 20
42.9297
 11
15.0283
 21
42.9238
  0
LINE
  8
0
 10
15.0283
 20
42.9238
 11
15
 21
42.9199
  0
LINE
  8
0
 10
15
 20
42.9199
 11
14.9453
 21
42.9121
  0
LINE
  8
0
 10
14.9453
 20
42.9121
 11
14.917
 21
42.9092
  0
LINE
  8
0
 10
14.917
 20
42.9092
 11
14.8896
 21
42.9062
  0
LINE
  8
0
 10
14.8896
 20
42.9062
 11
14.8613
 21
42.9043
  0
LINE
  8
0
 10
14.8613
 20
42.9043
 11
14.834
 21
42.9023
  0
LINE
  8
0
 10
14.834
 20
42.9023
 11
14.7783
 21
42.9004
  0
LINE
  8
0
 10
14.7783
 20
42.9004
 11
14.7217
 21
42.9004
  0
LINE
  8
0
 10
86.2217
 20
42.9004
 11
86.166
 21
42.9023
  0
LINE
  8
0
 10
86.166
 20
42.9023
 11
86.1387
 21
42.9043
  0
LINE
  8
0
 10
86.1387
 20
42.9043
 11
86.1104
 21
42.9062
  0
LINE
  8
0
 10
86.1104
 20
42.9062
 11
86.083
 21
42.9092
  0
LINE
  8
0
 10
86.083
 20
42.9092
 11
86.0547
 21
42.9121
  0
LINE
  8
0
 10
86.0547
 20
42.9121
 11
86
 21
42.9199
  0
LINE
  8
0
 10
86
 20
42.9199
 11
85.9717
 21
42.9238
  0
LINE
  8
0
 10
85.9717
 20
42.9238
 11
85.9443
 21
42.9297
  0
LINE
  8
0
 10
85.9443
 20
42.9297
 11
85.917
 21
42.9346
  0
LINE
  8
0
 10
85.917
 20
42.9346
 11
85.8896
 21
42.9414
  0
LINE
  8
0
 10
85.8896
 20
42.9414
 11
85.8633
 21
42.9473
  0
LINE
  8
0
 10
85.8633
 20
42.9473
 11
85.8359
 21
42.9541
  0
LINE
  8
0
 10
85.8359
 20
42.9541
 11
85.8086
 21
42.9619
  0
LINE
  8
0
 10
85.8086
 20
42.9619
 11
85.7822
 21
42.9697
  0
LINE
  8
0
 10
85.7822
 20
42.9697
 11
85.7031
 21
42.9961
  0
LINE
  8
0
 10
85.7031
 20
42.9961
 11
85.6768
 21
43.0059
  0
LINE
  8
0
 10
85.6768
 20
43.0059
 11
85.6504
 21
43.0166
  0
LINE
  8
0
 10
85.6504
 20
43.0166
 11
85.5996
 21
43.0381
  0
LINE
  8
0
 10
85.5996
 20
43.0381
 11
85.5488
 21
43.0615
  0
LINE
  8
0
 10
85.5488
 20
43.0615
 11
85.5234
 21
43.0742
  0
LINE
  8
0
 10
85.5234
 20
43.0742
 11
85.499
 21
43.0869
  0
LINE
  8
0
 10
85.499
 20
43.0869
 11
85.4502
 21
43.1143
  0
LINE
  8
0
 10
85.4502
 20
43.1143
 11
85.4258
 21
43.1289
  0
LINE
  8
0
 10
85.4258
 20
43.1289
 11
85.3789
 21
43.1582
  0
LINE
  8
0
 10
85.3789
 20
43.1582
 11
85.332
 21
43.1895
  0
LINE
  8
0
 10
85.332
 20
43.1895
 11
85.2646
 21
43.2393
  0
LINE
  8
0
 10
85.2646
 20
43.2393
 11
85.2002
 21
43.292
  0
LINE
  8
0
 10
85.2002
 20
43.292
 11
85.1797
 21
43.3105
  0
LINE
  8
0
 10
85.1797
 20
43.3105
 11
85.1592
 21
43.3301
  0
LINE
  8
0
 10
85.1592
 20
43.3301
 11
85.1387
 21
43.3486
  0
LINE
  8
0
 10
85.1387
 20
43.3486
 11
85.1182
 21
43.3682
  0
LINE
  8
0
 10
85.1182
 20
43.3682
 11
85.0986
 21
43.3887
  0
LINE
  8
0
 10
85.0986
 20
43.3887
 11
85.0801
 21
43.4092
  0
LINE
  8
0
 10
85.0801
 20
43.4092
 11
85.0605
 21
43.4297
  0
LINE
  8
0
 10
85.0605
 20
43.4297
 11
85.042
 21
43.4502
  0
LINE
  8
0
 10
85.042
 20
43.4502
 11
84.9893
 21
43.5146
  0
LINE
  8
0
 10
84.9893
 20
43.5146
 11
84.9395
 21
43.582
  0
LINE
  8
0
 10
84.9395
 20
43.582
 11
84.9082
 21
43.6289
  0
LINE
  8
0
 10
84.9082
 20
43.6289
 11
84.8789
 21
43.6758
  0
LINE
  8
0
 10
84.8789
 20
43.6758
 11
84.8643
 21
43.7002
  0
LINE
  8
0
 10
84.8643
 20
43.7002
 11
84.8369
 21
43.749
  0
LINE
  8
0
 10
84.8369
 20
43.749
 11
84.8242
 21
43.7734
  0
LINE
  8
0
 10
84.8242
 20
43.7734
 11
84.8115
 21
43.7988
  0
LINE
  8
0
 10
84.8115
 20
43.7988
 11
84.7881
 21
43.8496
  0
LINE
  8
0
 10
84.7881
 20
43.8496
 11
84.7666
 21
43.9004
  0
LINE
  8
0
 10
84.7666
 20
43.9004
 11
84.7559
 21
43.9268
  0
LINE
  8
0
 10
84.7559
 20
43.9268
 11
84.7461
 21
43.9531
  0
LINE
  8
0
 10
84.7461
 20
43.9531
 11
84.7197
 21
44.0322
  0
LINE
  8
0
 10
84.7197
 20
44.0322
 11
84.7119
 21
44.0586
  0
LINE
  8
0
 10
84.7119
 20
44.0586
 11
84.7041
 21
44.0859
  0
LINE
  8
0
 10
84.7041
 20
44.0859
 11
84.6973
 21
44.1133
  0
LINE
  8
0
 10
84.6973
 20
44.1133
 11
84.6914
 21
44.1396
  0
LINE
  8
0
 10
84.6914
 20
44.1396
 11
84.6846
 21
44.167
  0
LINE
  8
0
 10
84.6846
 20
44.167
 11
84.6797
 21
44.1943
  0
LINE
  8
0
 10
84.6797
 20
44.1943
 11
84.6738
 21
44.2217
  0
LINE
  8
0
 10
84.6738
 20
44.2217
 11
84.6699
 21
44.25
  0
LINE
  8
0
 10
84.6699
 20
44.25
 11
84.6621
 21
44.3047
  0
LINE
  8
0
 10
84.6621
 20
44.3047
 11
84.6592
 21
44.333
  0
LINE
  8
0
 10
84.6592
 20
44.333
 11
84.6562
 21
44.3604
  0
LINE
  8
0
 10
84.6562
 20
44.3604
 11
84.6543
 21
44.3887
  0
LINE
  8
0
 10
84.6543
 20
44.3887
 11
84.6523
 21
44.416
  0
LINE
  8
0
 10
84.6523
 20
44.416
 11
84.6504
 21
44.4717
  0
LINE
  8
0
 10
84.6504
 20
44.4717
 11
84.6504
 21
46.0283
  0
LINE
  8
0
 10
84.6504
 20
46.0283
 11
84.6523
 21
46.084
  0
LINE
  8
0
 10
84.6523
 20
46.084
 11
84.6543
 21
46.1113
  0
LINE
  8
0
 10
84.6543
 20
46.1113
 11
84.6562
 21
46.1396
  0
LINE
  8
0
 10
84.6562
 20
46.1396
 11
84.6592
 21
46.167
  0
LINE
  8
0
 10
84.6592
 20
46.167
 11
84.6621
 21
46.1953
  0
LINE
  8
0
 10
84.6621
 20
46.1953
 11
84.6699
 21
46.25
  0
LINE
  8
0
 10
84.6699
 20
46.25
 11
84.6738
 21
46.2783
  0
LINE
  8
0
 10
84.6738
 20
46.2783
 11
84.6797
 21
46.3057
  0
LINE
  8
0
 10
84.6797
 20
46.3057
 11
84.6846
 21
46.333
  0
LINE
  8
0
 10
84.6846
 20
46.333
 11
84.6914
 21
46.3604
  0
LINE
  8
0
 10
84.6914
 20
46.3604
 11
84.6973
 21
46.3867
  0
LINE
  8
0
 10
84.6973
 20
46.3867
 11
84.7041
 21
46.4141
  0
LINE
  8
0
 10
84.7041
 20
46.4141
 11
84.7119
 21
46.4414
  0
LINE
  8
0
 10
84.7119
 20
46.4414
 11
84.7197
 21
46.4678
  0
LINE
  8
0
 10
84.7197
 20
46.4678
 11
84.7461
 21
46.5469
  0
LINE
  8
0
 10
84.7461
 20
46.5469
 11
84.7559
 21
46.5732
  0
LINE
  8
0
 10
84.7559
 20
46.5732
 11
84.7666
 21
46.5996
  0
LINE
  8
0
 10
84.7666
 20
46.5996
 11
84.7881
 21
46.6504
  0
LINE
  8
0
 10
84.7881
 20
46.6504
 11
84.8115
 21
46.7012
  0
LINE
  8
0
 10
84.8115
 20
46.7012
 11
84.8242
 21
46.7266
  0
LINE
  8
0
 10
84.8242
 20
46.7266
 11
84.8369
 21
46.751
  0
LINE
  8
0
 10
84.8369
 20
46.751
 11
84.8643
 21
46.7998
  0
LINE
  8
0
 10
84.8643
 20
46.7998
 11
84.8789
 21
46.8242
  0
LINE
  8
0
 10
84.8789
 20
46.8242
 11
84.9082
 21
46.8711
  0
LINE
  8
0
 10
84.9082
 20
46.8711
 11
84.9395
 21
46.918
  0
LINE
  8
0
 10
84.9395
 20
46.918
 11
84.9893
 21
46.9854
  0
LINE
  8
0
 10
84.9893
 20
46.9854
 11
85.042
 21
47.0498
  0
LINE
  8
0
 10
85.042
 20
47.0498
 11
85.0605
 21
47.0703
  0
LINE
  8
0
 10
85.0605
 20
47.0703
 11
85.0801
 21
47.0908
  0
LINE
  8
0
 10
85.0801
 20
47.0908
 11
85.0986
 21
47.1113
  0
LINE
  8
0
 10
85.0986
 20
47.1113
 11
85.1182
 21
47.1318
  0
LINE
  8
0
 10
85.1182
 20
47.1318
 11
85.1387
 21
47.1514
  0
LINE
  8
0
 10
85.1387
 20
47.1514
 11
85.1592
 21
47.1699
  0
LINE
  8
0
 10
85.1592
 20
47.1699
 11
85.1797
 21
47.1895
  0
LINE
  8
0
 10
85.1797
 20
47.1895
 11
85.2002
 21
47.208
  0
LINE
  8
0
 10
85.2002
 20
47.208
 11
85.2646
 21
47.2607
  0
LINE
  8
0
 10
85.2646
 20
47.2607
 11
85.332
 21
47.3105
  0
LINE
  8
0
 10
85.332
 20
47.3105
 11
85.3789
 21
47.3418
  0
LINE
  8
0
 10
85.3789
 20
47.3418
 11
85.4258
 21
47.3711
  0
LINE
  8
0
 10
85.4258
 20
47.3711
 11
85.4502
 21
47.3857
  0
LINE
  8
0
 10
85.4502
 20
47.3857
 11
85.499
 21
47.4131
  0
LINE
  8
0
 10
85.499
 20
47.4131
 11
85.5234
 21
47.4258
  0
LINE
  8
0
 10
85.5234
 20
47.4258
 11
85.5488
 21
47.4385
  0
LINE
  8
0
 10
85.5488
 20
47.4385
 11
85.5996
 21
47.4619
  0
LINE
  8
0
 10
85.5996
 20
47.4619
 11
85.6504
 21
47.4834
  0
LINE
  8
0
 10
85.6504
 20
47.4834
 11
85.6768
 21
47.4941
  0
LINE
  8
0
 10
85.6768
 20
47.4941
 11
85.7031
 21
47.5039
  0
LINE
  8
0
 10
85.7031
 20
47.5039
 11
85.7822
 21
47.5303
  0
LINE
  8
0
 10
85.7822
 20
47.5303
 11
85.8086
 21
47.5381
  0
LINE
  8
0
 10
85.8086
 20
47.5381
 11
85.8359
 21
47.5459
  0
LINE
  8
0
 10
85.8359
 20
47.5459
 11
85.8633
 21
47.5527
  0
LINE
  8
0
 10
85.8633
 20
47.5527
 11
85.8896
 21
47.5586
  0
LINE
  8
0
 10
85.8896
 20
47.5586
 11
85.917
 21
47.5654
  0
LINE
  8
0
 10
85.917
 20
47.5654
 11
85.9443
 21
47.5703
  0
LINE
  8
0
 10
85.9443
 20
47.5703
 11
85.9717
 21
47.5762
  0
LINE
  8
0
 10
85.9717
 20
47.5762
 11
86
 21
47.5801
  0
LINE
  8
0
 10
86
 20
47.5801
 11
86.0547
 21
47.5879
  0
LINE
  8
0
 10
86.0547
 20
47.5879
 11
86.083
 21
47.5908
  0
LINE
  8
0
 10
86.083
 20
47.5908
 11
86.1104
 21
47.5938
  0
LINE
  8
0
 10
86.1104
 20
47.5938
 11
86.1387
 21
47.5957
  0
LINE
  8
0
 10
86.1387
 20
47.5957
 11
86.166
 21
47.5977
  0
LINE
  8
0
 10
86.166
 20
47.5977
 11
86.2217
 21
47.5996
  0
LINE
  8
0
 10
86.2217
 20
47.5996
 11
86.2783
 21
47.5996
  0
LINE
  8
0
 10
86.2783
 20
47.5996
 11
86.334
 21
47.5977
  0
LINE
  8
0
 10
86.334
 20
47.5977
 11
86.3613
 21
47.5957
  0
LINE
  8
0
 10
86.3613
 20
47.5957
 11
86.3896
 21
47.5938
  0
LINE
  8
0
 10
86.3896
 20
47.5938
 11
86.417
 21
47.5908
  0
LINE
  8
0
 10
86.417
 20
47.5908
 11
86.4453
 21
47.5879
  0
LINE
  8
0
 10
86.4453
 20
47.5879
 11
86.5
 21
47.5801
  0
LINE
  8
0
 10
86.5
 20
47.5801
 11
86.5283
 21
47.5762
  0
LINE
  8
0
 10
86.5283
 20
47.5762
 11
86.5557
 21
47.5703
  0
LINE
  8
0
 10
86.5557
 20
47.5703
 11
86.583
 21
47.5654
  0
LINE
  8
0
 10
86.583
 20
47.5654
 11
86.6104
 21
47.5586
  0
LINE
  8
0
 10
86.6104
 20
47.5586
 11
86.6367
 21
47.5527
  0
LINE
  8
0
 10
86.6367
 20
47.5527
 11
86.6641
 21
47.5459
  0
LINE
  8
0
 10
86.6641
 20
47.5459
 11
86.6914
 21
47.5381
  0
LINE
  8
0
 10
86.6914
 20
47.5381
 11
86.7178
 21
47.5303
  0
LINE
  8
0
 10
86.7178
 20
47.5303
 11
86.7969
 21
47.5039
  0
LINE
  8
0
 10
86.7969
 20
47.5039
 11
86.8232
 21
47.4941
  0
LINE
  8
0
 10
86.8232
 20
47.4941
 11
86.8496
 21
47.4834
  0
LINE
  8
0
 10
86.8496
 20
47.4834
 11
86.9004
 21
47.4619
  0
LINE
  8
0
 10
86.9004
 20
47.4619
 11
86.9512
 21
47.4385
  0
LINE
  8
0
 10
86.9512
 20
47.4385
 11
86.9766
 21
47.4258
  0
LINE
  8
0
 10
86.9766
 20
47.4258
 11
87.001
 21
47.4131
  0
LINE
  8
0
 10
87.001
 20
47.4131
 11
87.0498
 21
47.3857
  0
LINE
  8
0
 10
87.0498
 20
47.3857
 11
87.0742
 21
47.3711
  0
LINE
  8
0
 10
87.0742
 20
47.3711
 11
87.1211
 21
47.3418
  0
LINE
  8
0
 10
87.1211
 20
47.3418
 11
87.168
 21
47.3105
  0
LINE
  8
0
 10
87.168
 20
47.3105
 11
87.2354
 21
47.2607
  0
LINE
  8
0
 10
87.2354
 20
47.2607
 11
87.2998
 21
47.208
  0
LINE
  8
0
 10
87.2998
 20
47.208
 11
87.3203
 21
47.1895
  0
LINE
  8
0
 10
87.3203
 20
47.1895
 11
87.3408
 21
47.1699
  0
LINE
  8
0
 10
87.3408
 20
47.1699
 11
87.3613
 21
47.1514
  0
LINE
  8
0
 10
87.3613
 20
47.1514
 11
87.3818
 21
47.1318
  0
LINE
  8
0
 10
87.3818
 20
47.1318
 11
87.4014
 21
47.1113
  0
LINE
  8
0
 10
87.4014
 20
47.1113
 11
87.4199
 21
47.0908
  0
LINE
  8
0
 10
87.4199
 20
47.0908
 11
87.4395
 21
47.0703
  0
LINE
  8
0
 10
87.4395
 20
47.0703
 11
87.458
 21
47.0498
  0
LINE
  8
0
 10
87.458
 20
47.0498
 11
87.5107
 21
46.9854
  0
LINE
  8
0
 10
87.5107
 20
46.9854
 11
87.5605
 21
46.918
  0
LINE
  8
0
 10
87.5605
 20
46.918
 11
87.5918
 21
46.8711
  0
LINE
  8
0
 10
87.5918
 20
46.8711
 11
87.6211
 21
46.8242
  0
LINE
  8
0
 10
87.6211
 20
46.8242
 11
87.6357
 21
46.7998
  0
LINE
  8
0
 10
87.6357
 20
46.7998
 11
87.6631
 21
46.751
  0
LINE
  8
0
 10
87.6631
 20
46.751
 11
87.6758
 21
46.7266
  0
LINE
  8
0
 10
87.6758
 20
46.7266
 11
87.6885
 21
46.7012
  0
LINE
  8
0
 10
87.6885
 20
46.7012
 11
87.7119
 21
46.6504
  0
LINE
  8
0
 10
87.7119
 20
46.6504
 11
87.7334
 21
46.5996
  0
LINE
  8
0
 10
87.7334
 20
46.5996
 11
87.7441
 21
46.5732
  0
LINE
  8
0
 10
87.7441
 20
46.5732
 11
87.7539
 21
46.5469
  0
LINE
  8
0
 10
87.7539
 20
46.5469
 11
87.7803
 21
46.4678
  0
LINE
  8
0
 10
87.7803
 20
46.4678
 11
87.7881
 21
46.4414
  0
LINE
  8
0
 10
87.7881
 20
46.4414
 11
87.7959
 21
46.4141
  0
LINE
  8
0
 10
87.7959
 20
46.4141
 11
87.8027
 21
46.3867
  0
LINE
  8
0
 10
87.8027
 20
46.3867
 11
87.8086
 21
46.3604
  0
LINE
  8
0
 10
87.8086
 20
46.3604
 11
87.8154
 21
46.333
  0
LINE
  8
0
 10
87.8154
 20
46.333
 11
87.8203
 21
46.3057
  0
LINE
  8
0
 10
87.8203
 20
46.3057
 11
87.8262
 21
46.2783
  0
LINE
  8
0
 10
87.8262
 20
46.2783
 11
87.8301
 21
46.25
  0
LINE
  8
0
 10
87.8301
 20
46.25
 11
87.8379
 21
46.1953
  0
LINE
  8
0
 10
87.8379
 20
46.1953
 11
87.8408
 21
46.167
  0
LINE
  8
0
 10
87.8408
 20
46.167
 11
87.8438
 21
46.1396
  0
LINE
  8
0
 10
87.8438
 20
46.1396
 11
87.8457
 21
46.1113
  0
LINE
  8
0
 10
87.8457
 20
46.1113
 11
87.8477
 21
46.084
  0
LINE
  8
0
 10
87.8477
 20
46.084
 11
87.8496
 21
46.0283
  0
LINE
  8
0
 10
87.8496
 20
46.0283
 11
87.8496
 21
44.4717
  0
LINE
  8
0
 10
87.8496
 20
44.4717
 11
87.8477
 21
44.416
  0
LINE
  8
0
 10
87.8477
 20
44.416
 11
87.8457
 21
44.3887
  0
LINE
  8
0
 10
87.8457
 20
44.3887
 11
87.8438
 21
44.3604
  0
LINE
  8
0
 10
87.8438
 20
44.3604
 11
87.8408
 21
44.333
  0
LINE
  8
0
 10
87.8408
 20
44.333
 11
87.8379
 21
44.3047
  0
LINE
  8
0
 10
87.8379
 20
44.3047
 11
87.8301
 21
44.25
  0
LINE
  8
0
 10
87.8301
 20
44.25
 11
87.8262
 21
44.2217
  0
LINE
  8
0
 10
87.8262
 20
44.2217
 11
87.8203
 21
44.1943
  0
LINE
  8
0
 10
87.8203
 20
44.1943
 11
87.8154
 21
44.167
  0
LINE
  8
0
 10
87.8154
 20
44.167
 11
87.8086
 21
44.1396
  0
LINE
  8
0
 10
87.8086
 20
44.1396
 11
87.8027
 21
44.1133
  0
LINE
  8
0
 10
87.8027
 20
44.1133
 11
87.7959
 21
44.0859
  0
LINE
  8
0
 10
87.7959
 20
44.0859
 11
87.7881
 21
44.0586
  0
LINE
  8
0
 10
87.7881
 20
44.0586
 11
87.7803
 21
44.0322
  0
LINE
  8
0
 10
87.7803
 20
44.0322
 11
87.7539
 21
43.9531
  0
LINE
  8
0
 10
87.7539
 20
43.9531
 11
87.7441
 21
43.9268
  0
LINE
  8
0
 10
87.7441
 20
43.9268
 11
87.7334
 21
43.9004
  0
LINE
  8
0
 10
87.7334
 20
43.9004
 11
87.7119
 21
43.8496
  0
LINE
  8
0
 10
87.7119
 20
43.8496
 11
87.6885
 21
43.7988
  0
LINE
  8
0
 10
87.6885
 20
43.7988
 11
87.6758
 21
43.7734
  0
LINE
  8
0
 10
87.6758
 20
43.7734
 11
87.6631
 21
43.749
  0
LINE
  8
0
 10
87.6631
 20
43.749
 11
87.6357
 21
43.7002
  0
LINE
  8
0
 10
87.6357
 20
43.7002
 11
87.6211
 21
43.6758
  0
LINE
  8
0
 10
87.6211
 20
43.6758
 11
87.5918
 21
43.6289
  0
LINE
  8
0
 10
87.5918
 20
43.6289
 11
87.5605
 21
43.582
  0
LINE
  8
0
 10
87.5605
 20
43.582
 11
87.5107
 21
43.5146
  0
LINE
  8
0
 10
87.5107
 20
43.5146
 11
87.458
 21
43.4502
  0
LINE
  8
0
 10
87.458
 20
43.4502
 11
87.4395
 21
43.4297
  0
LINE
  8
0
 10
87.4395
 20
43.4297
 11
87.4199
 21
43.4092
  0
LINE
  8
0
 10
87.4199
 20
43.4092
 11
87.4014
 21
43.3887
  0
LINE
  8
0
 10
87.4014
 20
43.3887
 11
87.3818
 21
43.3682
  0
LINE
  8
0
 10
87.3818
 20
43.3682
 11
87.3613
 21
43.3486
  0
LINE
  8
0
 10
87.3613
 20
43.3486
 11
87.3408
 21
43.3301
  0
LINE
  8
0
 10
87.3408
 20
43.3301
 11
87.3203
 21
43.3105
  0
LINE
  8
0
 10
87.3203
 20
43.3105
 11
87.2998
 21
43.292
  0
LINE
  8
0
 10
87.2998
 20
43.292
 11
87.2354
 21
43.2393
  0
LINE
  8
0
 10
87.2354
 20
43.2393
 11
87.168
 21
43.1895
  0
LINE
  8
0
 10
87.168
 20
43.1895
 11
87.1211
 21
43.1582
  0
LINE
  8
0
 10
87.1211
 20
43.1582
 11
87.0742
 21
43.1289
  0
LINE
  8
0
 10
87.0742
 20
43.1289
 11
87.0498
 21
43.1143
  0
LINE
  8
0
 10
87.0498
 20
43.1143
 11
87.001
 21
43.0869
  0
LINE
  8
0
 10
87.001
 20
43.0869
 11
86.9766
 21
43.0742
  0
LINE
  8
0
 10
86.9766
 20
43.0742
 11
86.9512
 21
43.0615
  0
LINE
  8
0
 10
86.9512
 20
43.0615
 11
86.9004
 21
43.0381
  0
LINE
  8
0
 10
86.9004
 20
43.0381
 11
86.8496
 21
43.0166
  0
LINE
  8
0
 10
86.8496
 20
43.0166
 11
86.8232
 21
43.0059
  0
LINE
  8
0
 10
86.8232
 20
43.0059
 11
86.7969
 21
42.9961
  0
LINE
  8
0
 10
86.7969
 20
42.9961
 11
86.7178
 21
42.9697
  0
LINE
  8
0
 10
86.7178
 20
42.9697
 11
86.6914
 21
42.9619
  0
LINE
  8
0
 10
86.6914
 20
42.9619
 11
86.6641
 21
42.9541
  0
LINE
  8
0
 10
86.6641
 20
42.9541
 11
86.6367
 21
42.9473
  0
LINE
  8
0
 10
86.6367
 20
42.9473
 11
86.6104
 21
42.9414
  0
LINE
  8
0
 10
86.6104
 20
42.9414
 11
86.583
 21
42.9346
  0
LINE
  8
0
 10
86.583
 20
42.9346
 11
86.5557
 21
42.9297
  0
LINE
  8
0
 10
86.5557
 20
42.9297
 11
86.5283
 21
42.9238
  0
LINE
  8
0
 10
86.5283
 20
42.9238
 11
86.5
 21
42.9199
  0
LINE
  8
0
 10
86.5
 20
42.9199
 11
86.4453
 21
42.9121
  0
LINE
  8
0
 10
86.4453
 20
42.9121
 11
86.417
 21
42.9092
  0
LINE
  8
0
 10
86.417
 20
42.9092
 11
86.3896
 21
42.9062
  0
LINE
  8
0
 10
86.3896
 20
42.9062
 11
86.3613
 21
42.9043
  0
LINE
  8
0
 10
86.3613
 20
42.9043
 11
86.334
 21
42.9023
  0
LINE
  8
0
 10
86.334
 20
42.9023
 11
86.2783
 21
42.9004
  0
LINE
  8
0
 10
86.2783
 20
42.9004
 11
86.2217
 21
42.9004
  0
LINE
  8
0
 10
86.2217
 20
10.9004
 11
86.166
 21
10.9023
  0
LINE
  8
0
 10
86.166
 20
10.9023
 11
86.1387
 21
10.9043
  0
LINE
  8
0
 10
86.1387
 20
10.9043
 11
86.1104
 21
10.9062
  0
LINE
  8
0
 10
86.1104
 20
10.9062
 11
86.083
 21
10.9092
  0
LINE
  8
0
 10
86.083
 20
10.9092
 11
86.0547
 21
10.9121
  0
LINE
  8
0
 10
86.0547
 20
10.9121
 11
86
 21
10.9199
  0
LINE
  8
0
 10
86
 20
10.9199
 11
85.9717
 21
10.9238
  0
LINE
  8
0
 10
85.9717
 20
10.9238
 11
85.9443
 21
10.9297
  0
LINE
  8
0
 10
85.9443
 20
10.9297
 11
85.917
 21
10.9346
  0
LINE
  8
0
 10
85.917
 20
10.9346
 11
85.8896
 21
10.9414
  0
LINE
  8
0
 10
85.8896
 20
10.9414
 11
85.8633
 21
10.9473
  0
LINE
  8
0
 10
85.8633
 20
10.9473
 11
85.8359
 21
10.9541
  0
LINE
  8
0
 10
85.8359
 20
10.9541
 11
85.8086
 21
10.9619
  0
LINE
  8
0
 10
85.8086
 20
10.9619
 11
85.7822
 21
10.9697
  0
LINE
  8
0
 10
85.7822
 20
10.9697
 11
85.7031
 21
10.9961
  0
LINE
  8
0
 10
85.7031
 20
10.9961
 11
85.6768
 21
11.0059
  0
LINE
  8
0
 10
85.6768
 20
11.0059
 11
85.6504
 21
11.0166
  0
LINE
  8
0
 10
85.6504
 20
11.0166
 11
85.5996
 21
11.0381
  0
LINE
  8
0
 10
85.5996
 20
11.0381
 11
85.5488
 21
11.0615
  0
LINE
  8
0
 10
85.5488
 20
11.0615
 11
85.5234
 21
11.0742
  0
LINE
  8
0
 10
85.5234
 20
11.0742
 11
85.499
 21
11.0869
  0
LINE
  8
0
 10
85.499
 20
11.0869
 11
85.4502
 21
11.1143
  0
LINE
  8
0
 10
85.4502
 20
11.1143
 11
85.4258
 21
11.1289
  0
LINE
  8
0
 10
85.4258
 20
11.1289
 11
85.3789
 21
11.1582
  0
LINE
  8
0
 10
85.3789
 20
11.1582
 11
85.332
 21
11.1895
  0
LINE
  8
0
 10
85.332
 20
11.1895
 11
85.2646
 21
11.2393
  0
LINE
  8
0
 10
85.2646
 20
11.2393
 11
85.2002
 21
11.292
  0
LINE
  8
0
 10
85.2002
 20
11.292
 11
85.1797
 21
11.3105
  0
LINE
  8
0
 10
85.1797
 20
11.3105
 11
85.1592
 21
11.3301
  0
LINE
  8
0
 10
85.1592
 20
11.3301
 11
85.1387
 21
11.3486
  0
LINE
  8
0
 10
85.1387
 20
11.3486
 11
85.1182
 21
11.3682
  0
LINE
  8
0
 10
85.1182
 20
11.3682
 11
85.0986
 21
11.3887
  0
LINE
  8
0
 10
85.0986
 20
11.3887
 11
85.0801
 21
11.4092
  0
LINE
  8
0
 10
85.0801
 20
11.4092
 11
85.0605
 21
11.4297
  0
LINE
  8
0
 10
85.0605
 20
11.4297
 11
85.042
 21
11.4502
  0
LINE
  8
0
 10
85.042
 20
11.4502
 11
84.9893
 21
11.5146
  0
LINE
  8
0
 10
84.9893
 20
11.5146
 11
84.9395
 21
11.582
  0
LINE
  8
0
 10
84.9395
 20
11.582
 11
84.9082
 21
11.6289
  0
LINE
  8
0
 10
84.9082
 20
11.6289
 11
84.8789
 21
11.6758
  0
LINE
  8
0
 10
84.8789
 20
11.6758
 11
84.8643
 21
11.7002
  0
LINE
  8
0
 10
84.8643
 20
11.7002
 11
84.8369
 21
11.749
  0
LINE
  8
0
 10
84.8369
 20
11.749
 11
84.8242
 21
11.7734
  0
LINE
  8
0
 10
84.8242
 20
11.7734
 11
84.8115
 21
11.7988
  0
LINE
  8
0
 10
84.8115
 20
11.7988
 11
84.7881
 21
11.8496
  0
LINE
  8
0
 10
84.7881
 20
11.8496
 11
84.7666
 21
11.9004
  0
LINE
  8
0
 10
84.7666
 20
11.9004
 11
84.7559
 21
11.9268
  0
LINE
  8
0
 10
84.7559
 20
11.9268
 11
84.7461
 21
11.9531
  0
LINE
  8
0
 10
84.7461
 20
11.9531
 11
84.7197
 21
12.0322
  0
LINE
  8
0
 10
84.7197
 20
12.0322
 11
84.7119
 21
12.0586
  0
LINE
  8
0
 10
84.7119
 20
12.0586
 11
84.7041
 21
12.0859
  0
LINE
  8
0
 10
84.7041
 20
12.0859
 11
84.6973
 21
12.1133
  0
LINE
  8
0
 10
84.6973
 20
12.1133
 11
84.6914
 21
12.1396
  0
LINE
  8
0
 10
84.6914
 20
12.1396
 11
84.6846
 21
12.167
  0
LINE
  8
0
 10
84.6846
 20
12.167
 11
84.6797
 21
12.1943
  0
LINE
  8
0
 10
84.6797
 20
12.1943
 11
84.6738
 21
12.2217
  0
LINE
  8
0
 10
84.6738
 20
12.2217
 11
84.6699
 21
12.25
  0
LINE
  8
0
 10
84.6699
 20
12.25
 11
84.6621
 21
12.3047
  0
LINE
  8
0
 10
84.6621
 20
12.3047
 11
84.6592
 21
12.333
  0
LINE
  8
0
 10
84.6592
 20
12.333
 11
84.6562
 21
12.3604
  0
LINE
  8
0
 10
84.6562
 20
12.3604
 11
84.6543
 21
12.3887
  0
LINE
  8
0
 10
84.6543
 20
12.3887
 11
84.6523
 21
12.416
  0
LINE
  8
0
 10
84.6523
 20
12.416
 11
84.6504
 21
12.4717
  0
LINE
  8
0
 10
84.6504
 20
12.4717
 11
84.6504
 21
14.0283
  0
LINE
  8
0
 10
84.6504
 20
14.0283
 11
84.6523
 21
14.084
  0
LINE
  8
0
 10
84.6523
 20
14.084
 11
84.6543
 21
14.1113
  0
LINE
  8
0
 10
84.6543
 20
14.1113
 11
84.6562
 21
14.1396
  0
LINE
  8
0
 10
84.6562
 20
14.1396
 11
84.6592
 21
14.167
  0
LINE
  8
0
 10
84.6592
 20
14.167
 11
84.6621
 21
14.1953
  0
LINE
  8
0
 10
84.6621
 20
14.1953
 11
84.6699
 21
14.25
  0
LINE
  8
0
 10
84.6699
 20
14.25
 11
84.6738
 21
14.2783
  0
LINE
  8
0
 10
84.6738
 20
14.2783
 11
84.6797
 21
14.3057
  0
LINE
  8
0
 10
84.6797
 20
14.3057
 11
84.6846
 21
14.333
  0
LINE
  8
0
 10
84.6846
 20
14.333
 11
84.6914
 21
14.3604
  0
LINE
  8
0
 10
84.6914
 20
14.3604
 11
84.6973
 21
14.3867
  0
LINE
  8
0
 10
84.6973
 20
14.3867
 11
84.7041
 21
14.4141
  0
LINE
  8
0
 10
84.7041
 20
14.4141
 11
84.7119
 21
14.4414
  0
LINE
  8
0
 10
84.7119
 20
14.4414
 11
84.7197
 21
14.4678
  0
LINE
  8
0
 10
84.7197
 20
14.4678
 11
84.7461
 21
14.5469
  0
LINE
  8
0
 10
84.7461
 20
14.5469
 11
84.7559
 21
14.5732
  0
LINE
  8
0
 10
84.7559
 20
14.5732
 11
84.7666
 21
14.5996
  0
LINE
  8
0
 10
84.7666
 20
14.5996
 11
84.7881
 21
14.6504
  0
LINE
  8
0
 10
84.7881
 20
14.6504
 11
84.8115
 21
14.7012
  0
LINE
  8
0
 10
84.8115
 20
14.7012
 11
84.8242
 21
14.7266
  0
LINE
  8
0
 10
84.8242
 20
14.7266
 11
84.8369
 21
14.751
  0
LINE
  8
0
 10
84.8369
 20
14.751
 11
84.8643
 21
14.7998
  0
LINE
  8
0
 10
84.8643
 20
14.7998
 11
84.8789
 21
14.8242
  0
LINE
  8
0
 10
84.8789
 20
14.8242
 11
84.9082
 21
14.8711
  0
LINE
  8
0
 10
84.9082
 20
14.8711
 11
84.9395
 21
14.918
  0
LINE
  8
0
 10
84.9395
 20
14.918
 11
84.9893
 21
14.9854
  0
LINE
  8
0
 10
84.9893
 20
14.9854
 11
85.042
 21
15.0498
  0
LINE
  8
0
 10
85.042
 20
15.0498
 11
85.0605
 21
15.0703
  0
LINE
  8
0
 10
85.0605
 20
15.0703
 11
85.0801
 21
15.0908
  0
LINE
  8
0
 10
85.0801
 20
15.0908
 11
85.0986
 21
15.1113
  0
LINE
  8
0
 10
85.0986
 20
15.1113
 11
85.1182
 21
15.1318
  0
LINE
  8
0
 10
85.1182
 20
15.1318
 11
85.1387
 21
15.1514
  0
LINE
  8
0
 10
85.1387
 20
15.1514
 11
85.1592
 21
15.1699
  0
LINE
  8
0
 10
85.1592
 20
15.1699
 11
85.1797
 21
15.1895
  0
LINE
  8
0
 10
85.1797
 20
15.1895
 11
85.2002
 21
15.208
  0
LINE
  8
0
 10
85.2002
 20
15.208
 11
85.2646
 21
15.2607
  0
LINE
  8
0
 10
85.2646
 20
15.2607
 11
85.332
 21
15.3105
  0
LINE
  8
0
 10
85.332
 20
15.3105
 11
85.3789
 21
15.3418
  0
LINE
  8
0
 10
85.3789
 20
15.3418
 11
85.4258
 21
15.3711
  0
LINE
  8
0
 10
85.4258
 20
15.3711
 11
85.4502
 21
15.3857
  0
LINE
  8
0
 10
85.4502
 20
15.3857
 11
85.499
 21
15.4131
  0
LINE
  8
0
 10
85.499
 20
15.4131
 11
85.5234
 21
15.4258
  0
LINE
  8
0
 10
85.5234
 20
15.4258
 11
85.5488
 21
15.4385
  0
LINE
  8
0
 10
85.5488
 20
15.4385
 11
85.5996
 21
15.4619
  0
LINE
  8
0
 10
85.5996
 20
15.4619
 11
85.6504
 21
15.4834
  0
LINE
  8
0
 10
85.6504
 20
15.4834
 11
85.6768
 21
15.4941
  0
LINE
  8
0
 10
85.6768
 20
15.4941
 11
85.7031
 21
15.5039
  0
LINE
  8
0
 10
85.7031
 20
15.5039
 11
85.7822
 21
15.5303
  0
LINE
  8
0
 10
85.7822
 20
15.5303
 11
85.8086
 21
15.5381
  0
LINE
  8
0
 10
85.8086
 20
15.5381
 11
85.8359
 21
15.5459
  0
LINE
  8
0
 10
85.8359
 20
15.5459
 11
85.8633
 21
15.5527
  0
LINE
  8
0
 10
85.8633
 20
15.5527
 11
85.8896
 21
15.5586
  0
LINE
  8
0
 10
85.8896
 20
15.5586
 11
85.917
 21
15.5654
  0
LINE
  8
0
 10
85.917
 20
15.5654
 11
85.9443
 21
15.5703
  0
LINE
  8
0
 10
85.9443
 20
15.5703
 11
85.9717
 21
15.5762
  0
LINE
  8
0
 10
85.9717
 20
15.5762
 11
86
 21
15.5801
  0
LINE
  8
0
 10
86
 20
15.5801
 11
86.0547
 21
15.5879
  0
LINE
  8
0
 10
86.0547
 20
15.5879
 11
86.083
 21
15.5908
  0
LINE
  8
0
 10
86.083
 20
15.5908
 11
86.1104
 21
15.5938
  0
LINE
  8
0
 10
86.1104
 20
15.5938
 11
86.1387
 21
15.5957
  0
LINE
  8
0
 10
86.1387
 20
15.5957
 11
86.166
 21
15.5977
  0
LINE
  8
0
 10
86.166
 20
15.5977
 11
86.2217
 21
15.5996
  0
LINE
  8
0
 10
86.2217
 20
15.5996
 11
86.2783
 21
15.5996
  0
LINE
  8
0
 10
86.2783
 20
15.5996
 11
86.334
 21
15.5977
  0
LINE
  8
0
 10
86.334
 20
15.5977
 11
86.3613
 21
15.5957
  0
LINE
  8
0
 10
86.3613
 20
15.5957
 11
86.3896
 21
15.5938
  0
LINE
  8
0
 10
86.3896
 20
15.5938
 11
86.417
 21
15.5908
  0
LINE
  8
0
 10
86.417
 20
15.5908
 11
86.4453
 21
15.5879
  0
LINE
  8
0
 10
86.4453
 20
15.5879
 11
86.5
 21
15.5801
  0
LINE
  8
0
 10
86.5
 20
15.5801
 11
86.5283
 21
15.5762
  0
LINE
  8
0
 10
86.5283
 20
15.5762
 11
86.5557
 21
15.5703
  0
LINE
  8
0
 10
86.5557
 20
15.5703
 11
86.583
 21
15.5654
  0
LINE
  8
0
 10
86.583
 20
15.5654
 11
86.6104
 21
15.5586
  0
LINE
  8
0
 10
86.6104
 20
15.5586
 11
86.6367
 21
15.5527
  0
LINE
  8
0
 10
86.6367
 20
15.5527
 11
86.6641
 21
15.5459
  0
LINE
  8
0
 10
86.6641
 20
15.5459
 11
86.6914
 21
15.5381
  0
LINE
  8
0
 10
86.6914
 20
15.5381
 11
86.7178
 21
15.5303
  0
LINE
  8
0
 10
86.7178
 20
15.5303
 11
86.7969
 21
15.5039
  0
LINE
  8
0
 10
86.7969
 20
15.5039
 11
86.8232
 21
15.4941
  0
LINE
  8
0
 10
86.8232
 20
15.4941
 11
86.8496
 21
15.4834
  0
LINE
  8
0
 10
86.8496
 20
15.4834
 11
86.9004
 21
15.4619
  0
LINE
  8
0
 10
86.9004
 20
15.4619
 11
86.9512
 21
15.4385
  0
LINE
  8
0
 10
86.9512
 20
15.4385
 11
86.9766
 21
15.4258
  0
LINE
  8
0
 10
86.9766
 20
15.4258
 11
87.001
 21
15.4131
  0
LINE
  8
0
 10
87.001
 20
15.4131
 11
87.0498
 21
15.3857
  0
LINE
  8
0
 10
87.0498
 20
15.3857
 11
87.0742
 21
15.3711
  0
LINE
  8
0
 10
87.0742
 20
15.3711
 11
87.1211
 21
15.3418
  0
LINE
  8
0
 10
87.1211
 20
15.3418
 11
87.168
 21
15.3105
  0
LINE
  8
0
 10
87.168
 20
15.3105
 11
87.2354
 21
15.2607
  0
LINE
  8
0
 10
87.2354
 20
15.2607
 11
87.2998
 21
15.208
  0
LINE
  8
0
 10
87.2998
 20
15.208
 11
87.3203
 21
15.1895
  0
LINE
  8
0
 10
87.3203
 20
15.1895
 11
87.3408
 21
15.1699
  0
LINE
  8
0
 10
87.3408
 20
15.1699
 11
87.3613
 21
15.1514
  0
LINE
  8
0
 10
87.3613
 20
15.1514
 11
87.3818
 21
15.1318
  0
LINE
  8
0
 10
87.3818
 20
15.1318
 11
87.4014
 21
15.1113
  0
LINE
  8
0
 10
87.4014
 20
15.1113
 11
87.4199
 21
15.0908
  0
LINE
  8
0
 10
87.4199
 20
15.0908
 11
87.4395
 21
15.0703
  0
LINE
  8
0
 10
87.4395
 20
15.0703
 11
87.458
 21
15.0498
  0
LINE
  8
0
 10
87.458
 20
15.0498
 11
87.5107
 21
14.9854
  0
LINE
  8
0
 10
87.5107
 20
14.9854
 11
87.5605
 21
14.918
  0
LINE
  8
0
 10
87.5605
 20
14.918
 11
87.5918
 21
14.8711
  0
LINE
  8
0
 10
87.5918
 20
14.8711
 11
87.6211
 21
14.8242
  0
LINE
  8
0
 10
87.6211
 20
14.8242
 11
87.6357
 21
14.7998
  0
LINE
  8
0
 10
87.6357
 20
14.7998
 11
87.6631
 21
14.751
  0
LINE
  8
0
 10
87.6631
 20
14.751
 11
87.6758
 21
14.7266
  0
LINE
  8
0
 10
87.6758
 20
14.7266
 11
87.6885
 21
14.7012
  0
LINE
  8
0
 10
87.6885
 20
14.7012
 11
87.7119
 21
14.6504
  0
LINE
  8
0
 10
87.7119
 20
14.6504
 11
87.7334
 21
14.5996
  0
LINE
  8
0
 10
87.7334
 20
14.5996
 11
87.7441
 21
14.5732
  0
LINE
  8
0
 10
87.7441
 20
14.5732
 11
87.7539
 21
14.5469
  0
LINE
  8
0
 10
87.7539
 20
14.5469
 11
87.7803
 21
14.4678
  0
LINE
  8
0
 10
87.7803
 20
14.4678
 11
87.7881
 21
14.4414
  0
LINE
  8
0
 10
87.7881
 20
14.4414
 11
87.7959
 21
14.4141
  0
LINE
  8
0
 10
87.7959
 20
14.4141
 11
87.8027
 21
14.3867
  0
LINE
  8
0
 10
87.8027
 20
14.3867
 11
87.8086
 21
14.3604
  0
LINE
  8
0
 10
87.8086
 20
14.3604
 11
87.8154
 21
14.333
  0
LINE
  8
0
 10
87.8154
 20
14.333
 11
87.8203
 21
14.3057
  0
LINE
  8
0
 10
87.8203
 20
14.3057
 11
87.8262
 21
14.2783
  0
LINE
  8
0
 10
87.8262
 20
14.2783
 11
87.8301
 21
14.25
  0
LINE
  8
0
 10
87.8301
 20
14.25
 11
87.8379
 21
14.1953
  0
LINE
  8
0
 10
87.8379
 20
14.1953
 11
87.8408
 21
14.167
  0
LINE
  8
0
 10
87.8408
 20
14.167
 11
87.8438
 21
14.1396
  0
LINE
  8
0
 10
87.8438
 20
14.1396
 11
87.8457
 21
14.1113
  0
LINE
  8
0
 10
87.8457
 20
14.1113
 11
87.8477
 21
14.084
  0
LINE
  8
0
 10
87.8477
 20
14.084
 11
87.8496
 21
14.0283
  0
LINE
  8
0
 10
87.8496
 20
14.0283
 11
87.8496
 21
12.4717
  0
LINE
  8
0
 10
87.8496
 20
12.4717
 11
87.8477
 21
12.416
  0
LINE
  8
0
 10
87.8477
 20
12.416
 11
87.8457
 21
12.3887
  0
LINE
  8
0
 10
87.8457
 20
12.3887
 11
87.8438
 21
12.3604
  0
LINE
  8
0
 10
87.8438
 20
12.3604
 11
87.8408
 21
12.333
  0
LINE
  8
0
 10
87.8408
 20
12.333
 11
87.8379
 21
12.3047
  0
LINE
  8
0
 10
87.8379
 20
12.3047
 11
87.8301
 21
12.25
  0
LINE
  8
0
 10
87.8301
 20
12.25
 11
87.8262
 21
12.2217
  0
LINE
  8
0
 10
87.8262
 20
12.2217
 11
87.8203
 21
12.1943
  0
LINE
  8
0
 10
87.8203
 20
12.1943
 11
87.8154
 21
12.167
  0
LINE
  8
0
 10
87.8154
 20
12.167
 11
87.8086
 21
12.1396
  0
LINE
  8
0
 10
87.8086
 20
12.1396
 11
87.8027
 21
12.1133
  0
LINE
  8
0
 10
87.8027
 20
12.1133
 11
87.7959
 21
12.0859
  0
LINE
  8
0
 10
87.7959
 20
12.0859
 11
87.7881
 21
12.0586
  0
LINE
  8
0
 10
87.7881
 20
12.0586
 11
87.7803
 21
12.0322
  0
LINE
  8
0
 10
87.7803
 20
12.0322
 11
87.7539
 21
11.9531
  0
LINE
  8
0
 10
87.7539
 20
11.9531
 11
87.7441
 21
11.9268
  0
LINE
  8
0
 10
87.7441
 20
11.9268
 11
87.7334
 21
11.9004
  0
LINE
  8
0
 10
87.7334
 20
11.9004
 11
87.7119
 21
11.8496
  0
LINE
  8
0
 10
87.7119
 20
11.8496
 11
87.6885
 21
11.7988
  0
LINE
  8
0
 10
87.6885
 20
11.7988
 11
87.6758
 21
11.7734
  0
LINE
  8
0
 10
87.6758
 20
11.7734
 11
87.6631
 21
11.749
  0
LINE
  8
0
 10
87.6631
 20
11.749
 11
87.6357
 21
11.7002
  0
LINE
  8
0
 10
87.6357
 20
11.7002
 11
87.6211
 21
11.6758
  0
LINE
  8
0
 10
87.6211
 20
11.6758
 11
87.5918
 21
11.6289
  0
LINE
  8
0
 10
87.5918
 20
11.6289
 11
87.5605
 21
11.582
  0
LINE
  8
0
 10
87.5605
 20
11.582
 11
87.5107
 21
11.5146
  0
LINE
  8
0
 10
87.5107
 20
11.5146
 11
87.458
 21
11.4502
  0
LINE
  8
0
 10
87.458
 20
11.4502
 11
87.4395
 21
11.4297
  0
LINE
  8
0
 10
87.4395
 20
11.4297
 11
87.4199
 21
11.4092
  0
LINE
  8
0
 10
87.4199
 20
11.4092
 11
87.4014
 21
11.3887
  0
LINE
  8
0
 10
87.4014
 20
11.3887
 11
87.3818
 21
11.3682
  0
LINE
  8
0
 10
87.3818
 20
11.3682
 11
87.3613
 21
11.3486
  0
LINE
  8
0
 10
87.3613
 20
11.3486
 11
87.3408
 21
11.3301
  0
LINE
  8
0
 10
87.3408
 20
11.3301
 11
87.3203
 21
11.3105
  0
LINE
  8
0
 10
87.3203
 20
11.3105
 11
87.2998
 21
11.292
  0
LINE
  8
0
 10
87.2998
 20
11.292
 11
87.2354
 21
11.2393
  0
LINE
  8
0
 10
87.2354
 20
11.2393
 11
87.168
 21
11.1895
  0
LINE
  8
0
 10
87.168
 20
11.1895
 11
87.1211
 21
11.1582
  0
LINE
  8
0
 10
87.1211
 20
11.1582
 11
87.0742
 21
11.1289
  0
LINE
  8
0
 10
87.0742
 20
11.1289
 11
87.0498
 21
11.1143
  0
LINE
  8
0
 10
87.0498
 20
11.1143
 11
87.001
 21
11.0869
  0
LINE
  8
0
 10
87.001
 20
11.0869
 11
86.9766
 21
11.0742
  0
LINE
  8
0
 10
86.9766
 20
11.0742
 11
86.9512
 21
11.0615
  0
LINE
  8
0
 10
86.9512
 20
11.0615
 11
86.9004
 21
11.0381
  0
LINE
  8
0
 10
86.9004
 20
11.0381
 11
86.8496
 21
11.0166
  0
LINE
  8
0
 10
86.8496
 20
11.0166
 11
86.8232
 21
11.0059
  0
LINE
  8
0
 10
86.8232
 20
11.0059
 11
86.7969
 21
10.9961
  0
LINE
  8
0
 10
86.7969
 20
10.9961
 11
86.7178
 21
10.9697
  0
LINE
  8
0
 10
86.7178
 20
10.9697
 11
86.6914
 21
10.9619
  0
LINE
  8
0
 10
86.6914
 20
10.9619
 11
86.6641
 21
10.9541
  0
LINE
  8
0
 10
86.6641
 20
10.9541
 11
86.6367
 21
10.9473
  0
LINE
  8
0
 10
86.6367
 20
10.9473
 11
86.6104
 21
10.9414
  0
LINE
  8
0
 10
86.6104
 20
10.9414
 11
86.583
 21
10.9346
  0
LINE
  8
0
 10
86.583
 20
10.9346
 11
86.5557
 21
10.9297
  0
LINE
  8
0
 10
86.5557
 20
10.9297
 11
86.5283
 21
10.9238
  0
LINE
  8
0
 10
86.5283
 20
10.9238
 11
86.5
 21
10.9199
  0
LINE
  8
0
 10
86.5
 20
10.9199
 11
86.4453
 21
10.9121
  0
LINE
  8
0
 10
86.4453
 20
10.9121
 11
86.417
 21
10.9092
  0
LINE
  8
0
 10
86.417
 20
10.9092
 11
86.3896
 21
10.9062
  0
LINE
  8
0
 10
86.3896
 20
10.9062
 11
86.3613
 21
10.9043
  0
LINE
  8
0
 10
86.3613
 20
10.9043
 11
86.334
 21
10.9023
  0
LINE
  8
0
 10
86.334
 20
10.9023
 11
86.2783
 21
10.9004
  0
LINE
  8
0
 10
86.2783
 20
10.9004
 11
86.2217
 21
10.9004
  0
LINE
  8
0
 10
14.7217
 20
10.9004
 11
14.666
 21
10.9023
  0
LINE
  8
0
 10
14.666
 20
10.9023
 11
14.6387
 21
10.9043
  0
LINE
  8
0
 10
14.6387
 20
10.9043
 11
14.6104
 21
10.9062
  0
LINE
  8
0
 10
14.6104
 20
10.9062
 11
14.583
 21
10.9092
  0
LINE
  8
0
 10
14.583
 20
10.9092
 11
14.5547
 21
10.9121
  0
LINE
  8
0
 10
14.5547
 20
10.9121
 11
14.5
 21
10.9199
  0
LINE
  8
0
 10
14.5
 20
10.9199
 11
14.4717
 21
10.9238
  0
LINE
  8
0
 10
14.4717
 20
10.9238
 11
14.4443
 21
10.9297
  0
LINE
  8
0
 10
14.4443
 20
10.9297
 11
14.417
 21
10.9346
  0
LINE
  8
0
 10
14.417
 20
10.9346
 11
14.3896
 21
10.9414
  0
LINE
  8
0
 10
14.3896
 20
10.9414
 11
14.3633
 21
10.9473
  0
LINE
  8
0
 10
14.3633
 20
10.9473
 11
14.3359
 21
10.9541
  0
LINE
  8
0
 10
14.3359
 20
10.9541
 11
14.3086
 21
10.9619
  0
LINE
  8
0
 10
14.3086
 20
10.9619
 11
14.2822
 21
10.9697
  0
LINE
  8
0
 10
14.2822
 20
10.9697
 11
14.2031
 21
10.9961
  0
LINE
  8
0
 10
14.2031
 20
10.9961
 11
14.1768
 21
11.0059
  0
LINE
  8
0
 10
14.1768
 20
11.0059
 11
14.1504
 21
11.0166
  0
LINE
  8
0
 10
14.1504
 20
11.0166
 11
14.0996
 21
11.0381
  0
LINE
  8
0
 10
14.0996
 20
11.0381
 11
14.0488
 21
11.0615
  0
LINE
  8
0
 10
14.0488
 20
11.0615
 11
14.0234
 21
11.0742
  0
LINE
  8
0
 10
14.0234
 20
11.0742
 11
13.999
 21
11.0869
  0
LINE
  8
0
 10
13.999
 20
11.0869
 11
13.9502
 21
11.1143
  0
LINE
  8
0
 10
13.9502
 20
11.1143
 11
13.9258
 21
11.1289
  0
LINE
  8
0
 10
13.9258
 20
11.1289
 11
13.8789
 21
11.1582
  0
LINE
  8
0
 10
13.8789
 20
11.1582
 11
13.832
 21
11.1895
  0
LINE
  8
0
 10
13.832
 20
11.1895
 11
13.7646
 21
11.2393
  0
LINE
  8
0
 10
13.7646
 20
11.2393
 11
13.7002
 21
11.292
  0
LINE
  8
0
 10
13.7002
 20
11.292
 11
13.6797
 21
11.3105
  0
LINE
  8
0
 10
13.6797
 20
11.3105
 11
13.6592
 21
11.3301
  0
LINE
  8
0
 10
13.6592
 20
11.3301
 11
13.6387
 21
11.3486
  0
LINE
  8
0
 10
13.6387
 20
11.3486
 11
13.6182
 21
11.3682
  0
LINE
  8
0
 10
13.6182
 20
11.3682
 11
13.5986
 21
11.3887
  0
LINE
  8
0
 10
13.5986
 20
11.3887
 11
13.5801
 21
11.4092
  0
LINE
  8
0
 10
13.5801
 20
11.4092
 11
13.5605
 21
11.4297
  0
LINE
  8
0
 10
13.5605
 20
11.4297
 11
13.542
 21
11.4502
  0
LINE
  8
0
 10
13.542
 20
11.4502
 11
13.4893
 21
11.5146
  0
LINE
  8
0
 10
13.4893
 20
11.5146
 11
13.4395
 21
11.582
  0
LINE
  8
0
 10
13.4395
 20
11.582
 11
13.4082
 21
11.6289
  0
LINE
  8
0
 10
13.4082
 20
11.6289
 11
13.3789
 21
11.6758
  0
LINE
  8
0
 10
13.3789
 20
11.6758
 11
13.3643
 21
11.7002
  0
LINE
  8
0
 10
13.3643
 20
11.7002
 11
13.3369
 21
11.749
  0
LINE
  8
0
 10
13.3369
 20
11.749
 11
13.3242
 21
11.7734
  0
LINE
  8
0
 10
13.3242
 20
11.7734
 11
13.3115
 21
11.7988
  0
LINE
  8
0
 10
13.3115
 20
11.7988
 11
13.2881
 21
11.8496
  0
LINE
  8
0
 10
13.2881
 20
11.8496
 11
13.2666
 21
11.9004
  0
LINE
  8
0
 10
13.2666
 20
11.9004
 11
13.2559
 21
11.9268
  0
LINE
  8
0
 10
13.2559
 20
11.9268
 11
13.2461
 21
11.9531
  0
LINE
  8
0
 10
13.2461
 20
11.9531
 11
13.2197
 21
12.0322
  0
LINE
  8
0
 10
13.2197
 20
12.0322
 11
13.2119
 21
12.0586
  0
LINE
  8
0
 10
13.2119
 20
12.0586
 11
13.2041
 21
12.0859
  0
LINE
  8
0
 10
13.2041
 20
12.0859
 11
13.1973
 21
12.1133
  0
LINE
  8
0
 10
13.1973
 20
12.1133
 11
13.1914
 21
12.1396
  0
LINE
  8
0
 10
13.1914
 20
12.1396
 11
13.1846
 21
12.167
  0
LINE
  8
0
 10
13.1846
 20
12.167
 11
13.1797
 21
12.1943
  0
LINE
  8
0
 10
13.1797
 20
12.1943
 11
13.1738
 21
12.2217
  0
LINE
  8
0
 10
13.1738
 20
12.2217
 11
13.1699
 21
12.25
  0
LINE
  8
0
 10
13.1699
 20
12.25
 11
13.1621
 21
12.3047
  0
LINE
  8
0
 10
13.1621
 20
12.3047
 11
13.1592
 21
12.333
  0
LINE
  8
0
 10
13.1592
 20
12.333
 11
13.1562
 21
12.3604
  0
LINE
  8
0
 10
13.1562
 20
12.3604
 11
13.1543
 21
12.3887
  0
LINE
  8
0
 10
13.1543
 20
12.3887
 11
13.1523
 21
12.416
  0
LINE
  8
0
 10
13.1523
 20
12.416
 11
13.1504
 21
12.4717
  0
LINE
  8
0
 10
13.1504
 20
12.4717
 11
13.1504
 21
14.0283
  0
LINE
  8
0
 10
13.1504
 20
14.0283
 11
13.1523
 21
14.084
  0
LINE
  8
0
 10
13.1523
 20
14.084
 11
13.1543
 21
14.1113
  0
LINE
  8
0
 10
13.1543
 20
14.1113
 11
13.1562
 21
14.1396
  0
LINE
  8
0
 10
13.1562
 20
14.1396
 11
13.1592
 21
14.167
  0
LINE
  8
0
 10
13.1592
 20
14.167
 11
13.1621
 21
14.1953
  0
LINE
  8
0
 10
13.1621
 20
14.1953
 11
13.1699
 21
14.25
  0
LINE
  8
0
 10
13.1699
 20
14.25
 11
13.1738
 21
14.2783
  0
LINE
  8
0
 10
13.1738
 20
14.2783
 11
13.1797
 21
14.3057
  0
LINE
  8
0
 10
13.1797
 20
14.3057
 11
13.1846
 21
14.333
  0
LINE
  8
0
 10
13.1846
 20
14.333
 11
13.1914
 21
14.3604
  0
LINE
  8
0
 10
13.1914
 20
14.3604
 11
13.1973
 21
14.3867
  0
LINE
  8
0
 10
13.1973
 20
14.3867
 11
13.2041
 21
14.4141
  0
LINE
  8
0
 10
13.2041
 20
14.4141
 11
13.2119
 21
14.4414
  0
LINE
  8
0
 10
13.2119
 20
14.4414
 11
13.2197
 21
14.4678
  0
LINE
  8
0
 10
13.2197
 20
14.4678
 11
13.2461
 21
14.5469
  0
LINE
  8
0
 10
13.2461
 20
14.5469
 11
13.2559
 21
14.5732
  0
LINE
  8
0
 10
13.2559
 20
14.5732
 11
13.2666
 21
14.5996
  0
LINE
  8
0
 10
13.2666
 20
14.5996
 11
13.2881
 21
14.6504
  0
LINE
  8
0
 10
13.2881
 20
14.6504
 11
13.3115
 21
14.7012
  0
LINE
  8
0
 10
13.3115
 20
14.7012
 11
13.3242
 21
14.7266
  0
LINE
  8
0
 10
13.3242
 20
14.7266
 11
13.3369
 21
14.751
  0
LINE
  8
0
 10
13.3369
 20
14.751
 11
13.3643
 21
14.7998
  0
LINE
  8
0
 10
13.3643
 20
14.7998
 11
13.3789
 21
14.8242
  0
LINE
  8
0
 10
13.3789
 20
14.8242
 11
13.4082
 21
14.8711
  0
LINE
  8
0
 10
13.4082
 20
14.8711
 11
13.4395
 21
14.918
  0
LINE
  8
0
 10
13.4395
 20
14.918
 11
13.4893
 21
14.9854
  0
LINE
  8
0
 10
13.4893
 20
14.9854
 11
13.542
 21
15.0498
  0
LINE
  8
0
 10
13.542
 20
15.0498
 11
13.5605
 21
15.0703
  0
LINE
  8
0
 10
13.5605
 20
15.0703
 11
13.5801
 21
15.0908
  0
LINE
  8
0
 10
13.5801
 20
15.0908
 11
13.5986
 21
15.1113
  0
LINE
  8
0
 10
13.5986
 20
15.1113
 11
13.6182
 21
15.1318
  0
LINE
  8
0
 10
13.6182
 20
15.1318
 11
13.6387
 21
15.1514
  0
LINE
  8
0
 10
13.6387
 20
15.1514
 11
13.6592
 21
15.1699
  0
LINE
  8
0
 10
13.6592
 20
15.1699
 11
13.6797
 21
15.1895
  0
LINE
  8
0
 10
13.6797
 20
15.1895
 11
13.7002
 21
15.208
  0
LINE
  8
0
 10
13.7002
 20
15.208
 11
13.7646
 21
15.2607
  0
LINE
  8
0
 10
13.7646
 20
15.2607
 11
13.832
 21
15.3105
  0
LINE
  8
0
 10
13.832
 20
15.3105
 11
13.8789
 21
15.3418
  0
LINE
  8
0
 10
13.8789
 20
15.3418
 11
13.9258
 21
15.3711
  0
LINE
  8
0
 10
13.9258
 20
15.3711
 11
13.9502
 21
15.3857
  0
LINE
  8
0
 10
13.9502
 20
15.3857
 11
13.999
 21
15.4131
  0
LINE
  8
0
 10
13.999
 20
15.4131
 11
14.0234
 21
15.4258
  0
LINE
  8
0
 10
14.0234
 20
15.4258
 11
14.0488
 21
15.4385
  0
LINE
  8
0
 10
14.0488
 20
15.4385
 11
14.0996
 21
15.4619
  0
LINE
  8
0
 10
14.0996
 20
15.4619
 11
14.1504
 21
15.4834
  0
LINE
  8
0
 10
14.1504
 20
15.4834
 11
14.1768
 21
15.4941
  0
LINE
  8
0
 10
14.1768
 20
15.4941
 11
14.2031
 21
15.5039
  0
LINE
  8
0
 10
14.2031
 20
15.5039
 11
14.2822
 21
15.5303
  0
LINE
  8
0
 10
14.2822
 20
15.5303
 11
14.3086
 21
15.5381
  0
LINE
  8
0
 10
14.3086
 20
15.5381
 11
14.3359
 21
15.5459
  0
LINE
  8
0
 10
14.3359
 20
15.5459
 11
14.3633
 21
15.5527
  0
LINE
  8
0
 10
14.3633
 20
15.5527
 11
14.3896
 21
15.5586
  0
LINE
  8
0
 10
14.3896
 20
15.5586
 11
14.417
 21
15.5654
  0
LINE
  8
0
 10
14.417
 20
15.5654
 11
14.4443
 21
15.5703
  0
LINE
  8
0
 10
14.4443
 20
15.5703
 11
14.4717
 21
15.5762
  0
LINE
  8
0
 10
14.4717
 20
15.5762
 11
14.5
 21
15.5801
  0
LINE
  8
0
 10
14.5
 20
15.5801
 11
14.5547
 21
15.5879
  0
LINE
  8
0
 10
14.5547
 20
15.5879
 11
14.583
 21
15.5908
  0
LINE
  8
0
 10
14.583
 20
15.5908
 11
14.6104
 21
15.5938
  0
LINE
  8
0
 10
14.6104
 20
15.5938
 11
14.6387
 21
15.5957
  0
LINE
  8
0
 10
14.6387
 20
15.5957
 11
14.666
 21
15.5977
  0
LINE
  8
0
 10
14.666
 20
15.5977
 11
14.7217
 21
15.5996
  0
LINE
  8
0
 10
14.7217
 20
15.5996
 11
14.7783
 21
15.5996
  0
LINE
  8
0
 10
14.7783
 20
15.5996
 11
14.834
 21
15.5977
  0
LINE
  8
0
 10
14.834
 20
15.5977
 11
14.8613
 21
15.5957
  0
LINE
  8
0
 10
14.8613
 20
15.5957
 11
14.8896
 21
15.5938
  0
LINE
  8
0
 10
14.8896
 20
15.5938
 11
14.917
 21
15.5908
  0
LINE
  8
0
 10
14.917
 20
15.5908
 11
14.9453
 21
15.5879
  0
LINE
  8
0
 10
14.9453
 20
15.5879
 11
15
 21
15.5801
  0
LINE
  8
0
 10
15
 20
15.5801
 11
15.0283
 21
15.5762
  0
LINE
  8
0
 10
15.0283
 20
15.5762
 11
15.0557
 21
15.5703
  0
LINE
  8
0
 10
15.0557
 20
15.5703
 11
15.083
 21
15.5654
  0
LINE
  8
0
 10
15.083
 20
15.5654
 11
15.1104
 21
15.5586
  0
LINE
  8
0
 10
15.1104
 20
15.5586
 11
15.1367
 21
15.5527
  0
LINE
  8
0
 10
15.1367
 20
15.5527
 11
15.1641
 21
15.5459
  0
LINE
  8
0
 10
15.1641
 20
15.5459
 11
15.1914
 21
15.5381
  0
LINE
  8
0
 10
15.1914
 20
15.5381
 11
15.2178
 21
15.5303
  0
LINE
  8
0
 10
15.2178
 20
15.5303
 11
15.2969
 21
15.5039
  0
LINE
  8
0
 10
15.2969
 20
15.5039
 11
15.3232
 21
15.4941
  0
LINE
  8
0
 10
15.3232
 20
15.4941
 11
15.3496
 21
15.4834
  0
LINE
  8
0
 10
15.3496
 20
15.4834
 11
15.4004
 21
15.4619
  0
LINE
  8
0
 10
15.4004
 20
15.4619
 11
15.4512
 21
15.4385
  0
LINE
  8
0
 10
15.4512
 20
15.4385
 11
15.4766
 21
15.4258
  0
LINE
  8
0
 10
15.4766
 20
15.4258
 11
15.501
 21
15.4131
  0
LINE
  8
0
 10
15.501
 20
15.4131
 11
15.5498
 21
15.3857
  0
LINE
  8
0
 10
15.5498
 20
15.3857
 11
15.5742
 21
15.3711
  0
LINE
  8
0
 10
15.5742
 20
15.3711
 11
15.6211
 21
15.3418
  0
LINE
  8
0
 10
15.6211
 20
15.3418
 11
15.668
 21
15.3105
  0
LINE
  8
0
 10
15.668
 20
15.3105
 11
15.7354
 21
15.2607
  0
LINE
  8
0
 10
15.7354
 20
15.2607
 11
15.7998
 21
15.208
  0
LINE
  8
0
 10
15.7998
 20
15.208
 11
15.8203
 21
15.1895
  0
LINE
  8
0
 10
15.8203
 20
15.1895
 11
15.8408
 21
15.1699
  0
LINE
  8
0
 10
15.8408
 20
15.1699
 11
15.8613
 21
15.1514
  0
LINE
  8
0
 10
15.8613
 20
15.1514
 11
15.8818
 21
15.1318
  0
LINE
  8
0
 10
15.8818
 20
15.1318
 11
15.9014
 21
15.1113
  0
LINE
  8
0
 10
15.9014
 20
15.1113
 11
15.9199
 21
15.0908
  0
LINE
  8
0
 10
15.9199
 20
15.0908
 11
15.9395
 21
15.0703
  0
LINE
  8
0
 10
15.9395
 20
15.0703
 11
15.958
 21
15.0498
  0
LINE
  8
0
 10
15.958
 20
15.0498
 11
16.0107
 21
14.9854
  0
LINE
  8
0
 10
16.0107
 20
14.9854
 11
16.0605
 21
14.918
  0
LINE
  8
0
 10
16.0605
 20
14.918
 11
16.0918
 21
14.8711
  0
LINE
  8
0
 10
16.0918
 20
14.8711
 11
16.1211
 21
14.8242
  0
LINE
  8
0
 10
16.1211
 20
14.8242
 11
16.1357
 21
14.7998
  0
LINE
  8
0
 10
16.1357
 20
14.7998
 11
16.1631
 21
14.751
  0
LINE
  8
0
 10
16.1631
 20
14.751
 11
16.1758
 21
14.7266
  0
LINE
  8
0
 10
16.1758
 20
14.7266
 11
16.1885
 21
14.7012
  0
LINE
  8
0
 10
16.1885
 20
14.7012
 11
16.2119
 21
14.6504
  0
LINE
  8
0
 10
16.2119
 20
14.6504
 11
16.2334
 21
14.5996
  0
LINE
  8
0
 10
16.2334
 20
14.5996
 11
16.2441
 21
14.5732
  0
LINE
  8
0
 10
16.2441
 20
14.5732
 11
16.2539
 21
14.5469
  0
LINE
  8
0
 10
16.2539
 20
14.5469
 11
16.2803
 21
14.4678
  0
LINE
  8
0
 10
16.2803
 20
14.4678
 11
16.2881
 21
14.4414
  0
LINE
  8
0
 10
16.2881
 20
14.4414
 11
16.2959
 21
14.4141
  0
LINE
  8
0
 10
16.2959
 20
14.4141
 11
16.3027
 21
14.3867
  0
LINE
  8
0
 10
16.3027
 20
14.3867
 11
16.3086
 21
14.3604
  0
LINE
  8
0
 10
16.3086
 20
14.3604
 11
16.3154
 21
14.333
  0
LINE
  8
0
 10
16.3154
 20
14.333
 11
16.3203
 21
14.3057
  0
LINE
  8
0
 10
16.3203
 20
14.3057
 11
16.3262
 21
14.2783
  0
LINE
  8
0
 10
16.3262
 20
14.2783
 11
16.3301
 21
14.25
  0
LINE
  8
0
 10
16.3301
 20
14.25
 11
16.3379
 21
14.1953
  0
LINE
  8
0
 10
16.3379
 20
14.1953
 11
16.3408
 21
14.167
  0
LINE
  8
0
 10
16.3408
 20
14.167
 11
16.3438
 21
14.1396
  0
LINE
  8
0
 10
16.3438
 20
14.1396
 11
16.3457
 21
14.1113
  0
LINE
  8
0
 10
16.3457
 20
14.1113
 11
16.3477
 21
14.084
  0
LINE
  8
0
 10
16.3477
 20
14.084
 11
16.3496
 21
14.0283
  0
LINE
  8
0
 10
16.3496
 20
14.0283
 11
16.3496
 21
12.4717
  0
LINE
  8
0
 10
16.3496
 20
12.4717
 11
16.3477
 21
12.416
  0
LINE
  8
0
 10
16.3477
 20
12.416
 11
16.3457
 21
12.3887
  0
LINE
  8
0
 10
16.3457
 20
12.3887
 11
16.3438
 21
12.3604
  0
LINE
  8
0
 10
16.3438
 20
12.3604
 11
16.3408
 21
12.333
  0
LINE
  8
0
 10
16.3408
 20
12.333
 11
16.3379
 21
12.3047
  0
LINE
  8
0
 10
16.3379
 20
12.3047
 11
16.3301
 21
12.25
  0
LINE
  8
0
 10
16.3301
 20
12.25
 11
16.3262
 21
12.2217
  0
LINE
  8
0
 10
16.3262
 20
12.2217
 11
16.3203
 21
12.1943
  0
LINE
  8
0
 10
16.3203
 20
12.1943
 11
16.3154
 21
12.167
  0
LINE
  8
0
 10
16.3154
 20
12.167
 11
16.3086
 21
12.1396
  0
LINE
  8
0
 10
16.3086
 20
12.1396
 11
16.3027
 21
12.1133
  0
LINE
  8
0
 10
16.3027
 20
12.1133
 11
16.2959
 21
12.0859
  0
LINE
  8
0
 10
16.2959
 20
12.0859
 11
16.2881
 21
12.0586
  0
LINE
  8
0
 10
16.2881
 20
12.0586
 11
16.2803
 21
12.0322
  0
LINE
  8
0
 10
16.2803
 20
12.0322
 11
16.2539
 21
11.9531
  0
LINE
  8
0
 10
16.2539
 20
11.9531
 11
16.2441
 21
11.9268
  0
LINE
  8
0
 10
16.2441
 20
11.9268
 11
16.2334
 21
11.9004
  0
LINE
  8
0
 10
16.2334
 20
11.9004
 11
16.2119
 21
11.8496
  0
LINE
  8
0
 10
16.2119
 20
11.8496
 11
16.1885
 21
11.7988
  0
LINE
  8
0
 10
16.1885
 20
11.7988
 11
16.1758
 21
11.7734
  0
LINE
  8
0
 10
16.1758
 20
11.7734
 11
16.1631
 21
11.749
  0
LINE
  8
0
 10
16.1631
 20
11.749
 11
16.1357
 21
11.7002
  0
LINE
  8
0
 10
16.1357
 20
11.7002
 11
16.1211
 21
11.6758
  0
LINE
  8
0
 10
16.1211
 20
11.6758
 11
16.0918
 21
11.6289
  0
LINE
  8
0
 10
16.0918
 20
11.6289
 11
16.0605
 21
11.582
  0
LINE
  8
0
 10
16.0605
 20
11.582
 11
16.0107
 21
11.5146
  0
LINE
  8
0
 10
16.0107
 20
11.5146
 11
15.958
 21
11.4502
  0
LINE
  8
0
 10
15.958
 20
11.4502
 11
15.9395
 21
11.4297
  0
LINE
  8
0
 10
15.9395
 20
11.4297
 11
15.9199
 21
11.4092
  0
LINE
  8
0
 10
15.9199
 20
11.4092
 11
15.9014
 21
11.3887
  0
LINE
  8
0
 10
15.9014
 20
11.3887
 11
15.8818
 21
11.3682
  0
LINE
  8
0
 10
15.8818
 20
11.3682
 11
15.8613
 21
11.3486
  0
LINE
  8
0
 10
15.8613
 20
11.3486
 11
15.8408
 21
11.3301
  0
LINE
  8
0
 10
15.8408
 20
11.3301
 11
15.8203
 21
11.3105
  0
LINE
  8
0
 10
15.8203
 20
11.3105
 11
15.7998
 21
11.292
  0
LINE
  8
0
 10
15.7998
 20
11.292
 11
15.7354
 21
11.2393
  0
LINE
  8
0
 10
15.7354
 20
11.2393
 11
15.668
 21
11.1895
  0
LINE
  8
0
 10
15.668
 20
11.1895
 11
15.6211
 21
11.1582
  0
LINE
  8
0
 10
15.6211
 20
11.1582
 11
15.5742
 21
11.1289
  0
LINE
  8
0
 10
15.5742
 20
11.1289
 11
15.5498
 21
11.1143
  0
LINE
  8
0
 10
15.5498
 20
11.1143
 11
15.501
 21
11.0869
  0
LINE
  8
0
 10
15.501
 20
11.0869
 11
15.4766
 21
11.0742
  0
LINE
  8
0
 10
15.4766
 20
11.0742
 11
15.4512
 21
11.0615
  0
LINE
  8
0
 10
15.4512
 20
11.0615
 11
15.4004
 21
11.0381
  0
LINE
  8
0
 10
15.4004
 20
11.0381
 11
15.3496
 21
11.0166
  0
LINE
  8
0
 10
15.3496
 20
11.0166
 11
15.3232
 21
11.0059
  0
LINE
  8
0
 10
15.3232
 20
11.0059
 11
15.2969
 21
10.9961
  0
LINE
  8
0
 10
15.2969
 20
10.9961
 11
15.2178
 21
10.9697
  0
LINE
  8
0
 10
15.2178
 20
10.9697
 11
15.1914
 21
10.9619
  0
LINE
  8
0
 10
15.1914
 20
10.9619
 11
15.1641
 21
10.9541
  0
LINE
  8
0
 10
15.1641
 20
10.9541
 11
15.1367
 21
10.9473
  0
LINE
  8
0
 10
15.1367
 20
10.9473
 11
15.1104
 21
10.9414
  0
LINE
  8
0
 10
15.1104
 20
10.9414
 11
15.083
 21
10.9346
  0
LINE
  8
0
 10
15.083
 20
10.9346
 11
15.0557
 21
10.9297
  0
LINE
  8
0
 10
15.0557
 20
10.9297
 11
15.0283
 21
10.9238
  0
LINE
  8
0
 10
15.0283
 20
10.9238
 11
15
 21
10.9199
  0
LINE
  8
0
 10
15
 20
10.9199
 11
14.9453
 21
10.9121
  0
LINE
  8
0
 10
14.9453
 20
10.9121
 11
14.917
 21
10.9092
  0
LINE
  8
0
 10
14.917
 20
10.9092
 11
14.8896
 21
10.9062
  0
LINE
  8
0
 10
14.8896
 20
10.9062
 11
14.8613
 21
10.9043
  0
LINE
  8
0
 10
14.8613
 20
10.9043
 11
14.834
 21
10.9023
  0
LINE
  8
0
 10
14.834
 20
10.9023
 11
14.7783
 21
10.9004
  0
LINE
  8
0
 10
14.7783
 20
10.9004
 11
14.7217
 21
10.9004
  0
ENDSEC
  0
SECTION
  2
OBJECTS
  0
DICTIONARY
  0
ENDSEC
  0
EOF
