  0
SECTION
  2
BLOCKS
  0
ENDSEC
  0
SECTION
  2
ENTITIES
  0
LINE
  8
0
 10
16.0693
 20
0.000976562
 11
16.1396
 21
0.00488281
  0
LINE
  8
0
 10
16.1396
 20
0.00488281
 11
16.1738
 21
0.0078125
  0
LINE
  8
0
 10
16.1738
 20
0.0078125
 11
16.209
 21
0.0107422
  0
LINE
  8
0
 10
16.209
 20
0.0107422
 11
16.2441
 21
0.0146484
  0
LINE
  8
0
 10
16.2441
 20
0.0146484
 11
16.3125
 21
0.0244141
  0
LINE
  8
0
 10
16.3125
 20
0.0244141
 11
16.3477
 21
0.0302734
  0
LINE
  8
0
 10
16.3477
 20
0.0302734
 11
16.4502
 21
0.0507812
  0
LINE
  8
0
 10
16.4502
 20
0.0507812
 11
16.4834
 21
0.0595703
  0
LINE
  8
0
 10
16.4834
 20
0.0595703
 11
16.5518
 21
0.0771484
  0
LINE
  8
0
 10
16.5518
 20
0.0771484
 11
16.585
 21
0.0869141
  0
LINE
  8
0
 10
16.585
 20
0.0869141
 11
16.6182
 21
0.0976562
  0
LINE
  8
0
 10
16.6182
 20
0.0976562
 11
16.6514
 21
0.109375
  0
LINE
  8
0
 10
16.6514
 20
0.109375
 11
16.6836
 21
0.121094
  0
LINE
  8
0
 10
16.6836
 20
0.121094
 11
16.7168
 21
0.132812
  0
LINE
  8
0
 10
16.7168
 20
0.132812
 11
16.749
 21
0.145508
  0
LINE
  8
0
 10
16.749
 20
0.145508
 11
16.8135
 21
0.172852
  0
LINE
  8
0
 10
16.8135
 20
0.172852
 11
16.8457
 21
0.1875
  0
LINE
  8
0
 10
16.8457
 20
0.1875
 11
16.877
 21
0.202148
  0
LINE
  8
0
 10
16.877
 20
0.202148
 11
16.9082
 21
0.217773
  0
LINE
  8
0
 10
16.9082
 20
0.217773
 11
16.9385
 21
0.234375
  0
LINE
  8
0
 10
16.9385
 20
0.234375
 11
16.9697
 21
0.250977
  0
LINE
  8
0
 10
16.9697
 20
0.250977
 11
17
 21
0.267578
  0
LINE
  8
0
 10
17
 20
0.267578
 11
17.0303
 21
0.286133
  0
LINE
  8
0
 10
17.0303
 20
0.286133
 11
17.0596
 21
0.303711
  0
LINE
  8
0
 10
17.0596
 20
0.303711
 11
17.0889
 21
0.322266
  0
LINE
  8
0
 10
17.0889
 20
0.322266
 11
17.1475
 21
0.361328
  0
LINE
  8
0
 10
17.1475
 20
0.361328
 11
17.2041
 21
0.402344
  0
LINE
  8
0
 10
17.2041
 20
0.402344
 11
17.2588
 21
0.445312
  0
LINE
  8
0
 10
17.2588
 20
0.445312
 11
17.2852
 21
0.467773
  0
LINE
  8
0
 10
17.2852
 20
0.467773
 11
17.3125
 21
0.490234
  0
LINE
  8
0
 10
17.3125
 20
0.490234
 11
17.3379
 21
0.513672
  0
LINE
  8
0
 10
17.3379
 20
0.513672
 11
17.3643
 21
0.537109
  0
LINE
  8
0
 10
17.3643
 20
0.537109
 11
17.3896
 21
0.561523
  0
LINE
  8
0
 10
17.3896
 20
0.561523
 11
17.4385
 21
0.610352
  0
LINE
  8
0
 10
17.4385
 20
0.610352
 11
17.4629
 21
0.635742
  0
LINE
  8
0
 10
17.4629
 20
0.635742
 11
17.4863
 21
0.662109
  0
LINE
  8
0
 10
17.4863
 20
0.662109
 11
17.5098
 21
0.6875
  0
LINE
  8
0
 10
17.5098
 20
0.6875
 11
17.5322
 21
0.714844
  0
LINE
  8
0
 10
17.5322
 20
0.714844
 11
17.5547
 21
0.741211
  0
LINE
  8
0
 10
17.5547
 20
0.741211
 11
17.5977
 21
0.795898
  0
LINE
  8
0
 10
17.5977
 20
0.795898
 11
17.6387
 21
0.852539
  0
LINE
  8
0
 10
17.6387
 20
0.852539
 11
17.6777
 21
0.911133
  0
LINE
  8
0
 10
17.6777
 20
0.911133
 11
17.6963
 21
0.94043
  0
LINE
  8
0
 10
17.6963
 20
0.94043
 11
17.7139
 21
0.969727
  0
LINE
  8
0
 10
17.7139
 20
0.969727
 11
17.7324
 21
1
  0
LINE
  8
0
 10
17.7324
 20
1
 11
17.749
 21
1.03027
  0
LINE
  8
0
 10
17.749
 20
1.03027
 11
17.7656
 21
1.06152
  0
LINE
  8
0
 10
17.7656
 20
1.06152
 11
17.7822
 21
1.0918
  0
LINE
  8
0
 10
17.7822
 20
1.0918
 11
17.7979
 21
1.12305
  0
LINE
  8
0
 10
17.7979
 20
1.12305
 11
17.8125
 21
1.1543
  0
LINE
  8
0
 10
17.8125
 20
1.1543
 11
17.8271
 21
1.18652
  0
LINE
  8
0
 10
17.8271
 20
1.18652
 11
17.8545
 21
1.25098
  0
LINE
  8
0
 10
17.8545
 20
1.25098
 11
17.8672
 21
1.2832
  0
LINE
  8
0
 10
17.8672
 20
1.2832
 11
17.8789
 21
1.31641
  0
LINE
  8
0
 10
17.8789
 20
1.31641
 11
17.8906
 21
1.34863
  0
LINE
  8
0
 10
17.8906
 20
1.34863
 11
17.9023
 21
1.38184
  0
LINE
  8
0
 10
17.9023
 20
1.38184
 11
17.9131
 21
1.41504
  0
LINE
  8
0
 10
17.9131
 20
1.41504
 11
17.9229
 21
1.44824
  0
LINE
  8
0
 10
17.9229
 20
1.44824
 11
17.9404
 21
1.5166
  0
LINE
  8
0
 10
17.9404
 20
1.5166
 11
17.9492
 21
1.5498
  0
LINE
  8
0
 10
17.9492
 20
1.5498
 11
17.9697
 21
1.65234
  0
LINE
  8
0
 10
17.9697
 20
1.65234
 11
17.9756
 21
1.6875
  0
LINE
  8
0
 10
17.9756
 20
1.6875
 11
17.9854
 21
1.75586
  0
LINE
  8
0
 10
17.9854
 20
1.75586
 11
17.9893
 21
1.79102
  0
LINE
  8
0
 10
17.9893
 20
1.79102
 11
17.9922
 21
1.82617
  0
LINE
  8
0
 10
17.9922
 20
1.82617
 11
17.9951
 21
1.86035
  0
LINE
  8
0
 10
17.9951
 20
1.86035
 11
17.999
 21
1.93066
  0
LINE
  8
0
 10
17.999
 20
1.93066
 11
18
 21
1.96484
  0
LINE
  8
0
 10
18
 20
1.96484
 11
18
 21
2.53516
  0
LINE
  8
0
 10
18
 20
2.53516
 11
18.001
 21
2.56934
  0
LINE
  8
0
 10
18.001
 20
2.56934
 11
18.0049
 21
2.63965
  0
LINE
  8
0
 10
18.0049
 20
2.63965
 11
18.0078
 21
2.67383
  0
LINE
  8
0
 10
18.0078
 20
2.67383
 11
18.0107
 21
2.70898
  0
LINE
  8
0
 10
18.0107
 20
2.70898
 11
18.0146
 21
2.74414
  0
LINE
  8
0
 10
18.0146
 20
2.74414
 11
18.0244
 21
2.8125
  0
LINE
  8
0
 10
18.0244
 20
2.8125
 11
18.0303
 21
2.84766
  0
LINE
  8
0
 10
18.0303
 20
2.84766
 11
18.0508
 21
2.9502
  0
LINE
  8
0
 10
18.0508
 20
2.9502
 11
18.0596
 21
2.9834
  0
LINE
  8
0
 10
18.0596
 20
2.9834
 11
18.0771
 21
3.05176
  0
LINE
  8
0
 10
18.0771
 20
3.05176
 11
18.0869
 21
3.08496
  0
LINE
  8
0
 10
18.0869
 20
3.08496
 11
18.0977
 21
3.11816
  0
LINE
  8
0
 10
18.0977
 20
3.11816
 11
18.1094
 21
3.15137
  0
LINE
  8
0
 10
18.1094
 20
3.15137
 11
18.1211
 21
3.18359
  0
LINE
  8
0
 10
18.1211
 20
3.18359
 11
18.1328
 21
3.2168
  0
LINE
  8
0
 10
18.1328
 20
3.2168
 11
18.1455
 21
3.24902
  0
LINE
  8
0
 10
18.1455
 20
3.24902
 11
18.1729
 21
3.31348
  0
LINE
  8
0
 10
18.1729
 20
3.31348
 11
18.1875
 21
3.3457
  0
LINE
  8
0
 10
18.1875
 20
3.3457
 11
18.2021
 21
3.37695
  0
LINE
  8
0
 10
18.2021
 20
3.37695
 11
18.2178
 21
3.4082
  0
LINE
  8
0
 10
18.2178
 20
3.4082
 11
18.2344
 21
3.43848
  0
LINE
  8
0
 10
18.2344
 20
3.43848
 11
18.251
 21
3.46973
  0
LINE
  8
0
 10
18.251
 20
3.46973
 11
18.2676
 21
3.5
  0
LINE
  8
0
 10
18.2676
 20
3.5
 11
18.2861
 21
3.53027
  0
LINE
  8
0
 10
18.2861
 20
3.53027
 11
18.3037
 21
3.55957
  0
LINE
  8
0
 10
18.3037
 20
3.55957
 11
18.3223
 21
3.58887
  0
LINE
  8
0
 10
18.3223
 20
3.58887
 11
18.3613
 21
3.64746
  0
LINE
  8
0
 10
18.3613
 20
3.64746
 11
18.4023
 21
3.7041
  0
LINE
  8
0
 10
18.4023
 20
3.7041
 11
18.4453
 21
3.75879
  0
LINE
  8
0
 10
18.4453
 20
3.75879
 11
18.4678
 21
3.78516
  0
LINE
  8
0
 10
18.4678
 20
3.78516
 11
18.4902
 21
3.8125
  0
LINE
  8
0
 10
18.4902
 20
3.8125
 11
18.5137
 21
3.83789
  0
LINE
  8
0
 10
18.5137
 20
3.83789
 11
18.5371
 21
3.86426
  0
LINE
  8
0
 10
18.5371
 20
3.86426
 11
18.5615
 21
3.88965
  0
LINE
  8
0
 10
18.5615
 20
3.88965
 11
18.6104
 21
3.93848
  0
LINE
  8
0
 10
18.6104
 20
3.93848
 11
18.6357
 21
3.96289
  0
LINE
  8
0
 10
18.6357
 20
3.96289
 11
18.6621
 21
3.98633
  0
LINE
  8
0
 10
18.6621
 20
3.98633
 11
18.6875
 21
4.00977
  0
LINE
  8
0
 10
18.6875
 20
4.00977
 11
18.7148
 21
4.03223
  0
LINE
  8
0
 10
18.7148
 20
4.03223
 11
18.7412
 21
4.05469
  0
LINE
  8
0
 10
18.7412
 20
4.05469
 11
18.7959
 21
4.09766
  0
LINE
  8
0
 10
18.7959
 20
4.09766
 11
18.8525
 21
4.13867
  0
LINE
  8
0
 10
18.8525
 20
4.13867
 11
18.9111
 21
4.17773
  0
LINE
  8
0
 10
18.9111
 20
4.17773
 11
18.9404
 21
4.19629
  0
LINE
  8
0
 10
18.9404
 20
4.19629
 11
18.9697
 21
4.21387
  0
LINE
  8
0
 10
18.9697
 20
4.21387
 11
19
 21
4.23242
  0
LINE
  8
0
 10
19
 20
4.23242
 11
19.0303
 21
4.24902
  0
LINE
  8
0
 10
19.0303
 20
4.24902
 11
19.0615
 21
4.26562
  0
LINE
  8
0
 10
19.0615
 20
4.26562
 11
19.0918
 21
4.28223
  0
LINE
  8
0
 10
19.0918
 20
4.28223
 11
19.123
 21
4.29785
  0
LINE
  8
0
 10
19.123
 20
4.29785
 11
19.1543
 21
4.3125
  0
LINE
  8
0
 10
19.1543
 20
4.3125
 11
19.1865
 21
4.32715
  0
LINE
  8
0
 10
19.1865
 20
4.32715
 11
19.251
 21
4.35449
  0
LINE
  8
0
 10
19.251
 20
4.35449
 11
19.2832
 21
4.36719
  0
LINE
  8
0
 10
19.2832
 20
4.36719
 11
19.3164
 21
4.37891
  0
LINE
  8
0
 10
19.3164
 20
4.37891
 11
19.3486
 21
4.39062
  0
LINE
  8
0
 10
19.3486
 20
4.39062
 11
19.3818
 21
4.40234
  0
LINE
  8
0
 10
19.3818
 20
4.40234
 11
19.415
 21
4.41309
  0
LINE
  8
0
 10
19.415
 20
4.41309
 11
19.4482
 21
4.42285
  0
LINE
  8
0
 10
19.4482
 20
4.42285
 11
19.5166
 21
4.44043
  0
LINE
  8
0
 10
19.5166
 20
4.44043
 11
19.5498
 21
4.44922
  0
LINE
  8
0
 10
19.5498
 20
4.44922
 11
19.6523
 21
4.46973
  0
LINE
  8
0
 10
19.6523
 20
4.46973
 11
19.6875
 21
4.47559
  0
LINE
  8
0
 10
19.6875
 20
4.47559
 11
19.7559
 21
4.48535
  0
LINE
  8
0
 10
19.7559
 20
4.48535
 11
19.791
 21
4.48926
  0
LINE
  8
0
 10
19.791
 20
4.48926
 11
19.8262
 21
4.49219
  0
LINE
  8
0
 10
19.8262
 20
4.49219
 11
19.8604
 21
4.49512
  0
LINE
  8
0
 10
19.8604
 20
4.49512
 11
19.9307
 21
4.49902
  0
LINE
  8
0
 10
19.9307
 20
4.49902
 11
19.9648
 21
4.5
  0
LINE
  8
0
 10
19.9648
 20
4.5
 11
80.0352
 21
4.5
  0
LINE
  8
0
 10
80.0352
 20
4.5
 11
80.0693
 21
4.49902
  0
LINE
  8
0
 10
80.0693
 20
4.49902
 11
80.1396
 21
4.49512
  0
LINE
  8
0
 10
80.1396
 20
4.49512
 11
80.1738
 21
4.49219
  0
LINE
  8
0
 10
80.1738
 20
4.49219
 11
80.209
 21
4.48926
  0
LINE
  8
0
 10
80.209
 20
4.48926
 11
80.2441
 21
4.48535
  0
LINE
  8
0
 10
80.2441
 20
4.48535
 11
80.3125
 21
4.47559
  0
LINE
  8
0
 10
80.3125
 20
4.47559
 11
80.3477
 21
4.46973
  0
LINE
  8
0
 10
80.3477
 20
4.46973
 11
80.4502
 21
4.44922
  0
LINE
  8
0
 10
80.4502
 20
4.44922
 11
80.4834
 21
4.44043
  0
LINE
  8
0
 10
80.4834
 20
4.44043
 11
80.5518
 21
4.42285
  0
LINE
  8
0
 10
80.5518
 20
4.42285
 11
80.585
 21
4.41309
  0
LINE
  8
0
 10
80.585
 20
4.41309
 11
80.6182
 21
4.40234
  0
LINE
  8
0
 10
80.6182
 20
4.40234
 11
80.6514
 21
4.39062
  0
LINE
  8
0
 10
80.6514
 20
4.39062
 11
80.6836
 21
4.37891
  0
LINE
  8
0
 10
80.6836
 20
4.37891
 11
80.7168
 21
4.36719
  0
LINE
  8
0
 10
80.7168
 20
4.36719
 11
80.749
 21
4.35449
  0
LINE
  8
0
 10
80.749
 20
4.35449
 11
80.8135
 21
4.32715
  0
LINE
  8
0
 10
80.8135
 20
4.32715
 11
80.8457
 21
4.3125
  0
LINE
  8
0
 10
80.8457
 20
4.3125
 11
80.877
 21
4.29785
  0
LINE
  8
0
 10
80.877
 20
4.29785
 11
80.9082
 21
4.28223
  0
LINE
  8
0
 10
80.9082
 20
4.28223
 11
80.9385
 21
4.26562
  0
LINE
  8
0
 10
80.9385
 20
4.26562
 11
80.9697
 21
4.24902
  0
LINE
  8
0
 10
80.9697
 20
4.24902
 11
81
 21
4.23242
  0
LINE
  8
0
 10
81
 20
4.23242
 11
81.0303
 21
4.21387
  0
LINE
  8
0
 10
81.0303
 20
4.21387
 11
81.0596
 21
4.19629
  0
LINE
  8
0
 10
81.0596
 20
4.19629
 11
81.0889
 21
4.17773
  0
LINE
  8
0
 10
81.0889
 20
4.17773
 11
81.1475
 21
4.13867
  0
LINE
  8
0
 10
81.1475
 20
4.13867
 11
81.2041
 21
4.09766
  0
LINE
  8
0
 10
81.2041
 20
4.09766
 11
81.2588
 21
4.05469
  0
LINE
  8
0
 10
81.2588
 20
4.05469
 11
81.2852
 21
4.03223
  0
LINE
  8
0
 10
81.2852
 20
4.03223
 11
81.3125
 21
4.00977
  0
LINE
  8
0
 10
81.3125
 20
4.00977
 11
81.3379
 21
3.98633
  0
LINE
  8
0
 10
81.3379
 20
3.98633
 11
81.3643
 21
3.96289
  0
LINE
  8
0
 10
81.3643
 20
3.96289
 11
81.3896
 21
3.93848
  0
LINE
  8
0
 10
81.3896
 20
3.93848
 11
81.4385
 21
3.88965
  0
LINE
  8
0
 10
81.4385
 20
3.88965
 11
81.4629
 21
3.86426
  0
LINE
  8
0
 10
81.4629
 20
3.86426
 11
81.4863
 21
3.83789
  0
LINE
  8
0
 10
81.4863
 20
3.83789
 11
81.5098
 21
3.8125
  0
LINE
  8
0
 10
81.5098
 20
3.8125
 11
81.5322
 21
3.78516
  0
LINE
  8
0
 10
81.5322
 20
3.78516
 11
81.5547
 21
3.75879
  0
LINE
  8
0
 10
81.5547
 20
3.75879
 11
81.5977
 21
3.7041
  0
LINE
  8
0
 10
81.5977
 20
3.7041
 11
81.6387
 21
3.64746
  0
LINE
  8
0
 10
81.6387
 20
3.64746
 11
81.6777
 21
3.58887
  0
LINE
  8
0
 10
81.6777
 20
3.58887
 11
81.6963
 21
3.55957
  0
LINE
  8
0
 10
81.6963
 20
3.55957
 11
81.7139
 21
3.53027
  0
LINE
  8
0
 10
81.7139
 20
3.53027
 11
81.7324
 21
3.5
  0
LINE
  8
0
 10
81.7324
 20
3.5
 11
81.749
 21
3.46973
  0
LINE
  8
0
 10
81.749
 20
3.46973
 11
81.7656
 21
3.43848
  0
LINE
  8
0
 10
81.7656
 20
3.43848
 11
81.7822
 21
3.4082
  0
LINE
  8
0
 10
81.7822
 20
3.4082
 11
81.7979
 21
3.37695
  0
LINE
  8
0
 10
81.7979
 20
3.37695
 11
81.8125
 21
3.3457
  0
LINE
  8
0
 10
81.8125
 20
3.3457
 11
81.8271
 21
3.31348
  0
LINE
  8
0
 10
81.8271
 20
3.31348
 11
81.8545
 21
3.24902
  0
LINE
  8
0
 10
81.8545
 20
3.24902
 11
81.8672
 21
3.2168
  0
LINE
  8
0
 10
81.8672
 20
3.2168
 11
81.8789
 21
3.18359
  0
LINE
  8
0
 10
81.8789
 20
3.18359
 11
81.8906
 21
3.15137
  0
LINE
  8
0
 10
81.8906
 20
3.15137
 11
81.9023
 21
3.11816
  0
LINE
  8
0
 10
81.9023
 20
3.11816
 11
81.9131
 21
3.08496
  0
LINE
  8
0
 10
81.9131
 20
3.08496
 11
81.9229
 21
3.05176
  0
LINE
  8
0
 10
81.9229
 20
3.05176
 11
81.9404
 21
2.9834
  0
LINE
  8
0
 10
81.9404
 20
2.9834
 11
81.9492
 21
2.9502
  0
LINE
  8
0
 10
81.9492
 20
2.9502
 11
81.9697
 21
2.84766
  0
LINE
  8
0
 10
81.9697
 20
2.84766
 11
81.9756
 21
2.8125
  0
LINE
  8
0
 10
81.9756
 20
2.8125
 11
81.9854
 21
2.74414
  0
LINE
  8
0
 10
81.9854
 20
2.74414
 11
81.9893
 21
2.70898
  0
LINE
  8
0
 10
81.9893
 20
2.70898
 11
81.9922
 21
2.67383
  0
LINE
  8
0
 10
81.9922
 20
2.67383
 11
81.9951
 21
2.63965
  0
LINE
  8
0
 10
81.9951
 20
2.63965
 11
81.999
 21
2.56934
  0
LINE
  8
0
 10
81.999
 20
2.56934
 11
82
 21
2.53516
  0
LINE
  8
0
 10
82
 20
2.53516
 11
82
 21
1.96484
  0
LINE
  8
0
 10
82
 20
1.96484
 11
82.001
 21
1.93066
  0
LINE
  8
0
 10
82.001
 20
1.93066
 11
82.0049
 21
1.86035
  0
LINE
  8
0
 10
82.0049
 20
1.86035
 11
82.0078
 21
1.82617
  0
LINE
  8
0
 10
82.0078
 20
1.82617
 11
82.0107
 21
1.79102
  0
LINE
  8
0
 10
82.0107
 20
1.79102
 11
82.0146
 21
1.75586
  0
LINE
  8
0
 10
82.0146
 20
1.75586
 11
82.0244
 21
1.6875
  0
LINE
  8
0
 10
82.0244
 20
1.6875
 11
82.0303
 21
1.65234
  0
LINE
  8
0
 10
82.0303
 20
1.65234
 11
82.0508
 21
1.5498
  0
LINE
  8
0
 10
82.0508
 20
1.5498
 11
82.0596
 21
1.5166
  0
LINE
  8
0
 10
82.0596
 20
1.5166
 11
82.0771
 21
1.44824
  0
LINE
  8
0
 10
82.0771
 20
1.44824
 11
82.0869
 21
1.41504
  0
LINE
  8
0
 10
82.0869
 20
1.41504
 11
82.0977
 21
1.38184
  0
LINE
  8
0
 10
82.0977
 20
1.38184
 11
82.1094
 21
1.34863
  0
LINE
  8
0
 10
82.1094
 20
1.34863
 11
82.1211
 21
1.31641
  0
LINE
  8
0
 10
82.1211
 20
1.31641
 11
82.1328
 21
1.2832
  0
LINE
  8
0
 10
82.1328
 20
1.2832
 11
82.1455
 21
1.25098
  0
LINE
  8
0
 10
82.1455
 20
1.25098
 11
82.1729
 21
1.18652
  0
LINE
  8
0
 10
82.1729
 20
1.18652
 11
82.1875
 21
1.1543
  0
LINE
  8
0
 10
82.1875
 20
1.1543
 11
82.2021
 21
1.12305
  0
LINE
  8
0
 10
82.2021
 20
1.12305
 11
82.2178
 21
1.0918
  0
LINE
  8
0
 10
82.2178
 20
1.0918
 11
82.2344
 21
1.06152
  0
LINE
  8
0
 10
82.2344
 20
1.06152
 11
82.251
 21
1.03027
  0
LINE
  8
0
 10
82.251
 20
1.03027
 11
82.2676
 21
1
  0
LINE
  8
0
 10
82.2676
 20
1
 11
82.2861
 21
0.969727
  0
LINE
  8
0
 10
82.2861
 20
0.969727
 11
82.3037
 21
0.94043
  0
LINE
  8
0
 10
82.3037
 20
0.94043
 11
82.3223
 21
0.911133
  0
LINE
  8
0
 10
82.3223
 20
0.911133
 11
82.3613
 21
0.852539
  0
LINE
  8
0
 10
82.3613
 20
0.852539
 11
82.4023
 21
0.795898
  0
LINE
  8
0
 10
82.4023
 20
0.795898
 11
82.4453
 21
0.741211
  0
LINE
  8
0
 10
82.4453
 20
0.741211
 11
82.4678
 21
0.714844
  0
LINE
  8
0
 10
82.4678
 20
0.714844
 11
82.4902
 21
0.6875
  0
LINE
  8
0
 10
82.4902
 20
0.6875
 11
82.5137
 21
0.662109
  0
LINE
  8
0
 10
82.5137
 20
0.662109
 11
82.5371
 21
0.635742
  0
LINE
  8
0
 10
82.5371
 20
0.635742
 11
82.5615
 21
0.610352
  0
LINE
  8
0
 10
82.5615
 20
0.610352
 11
82.6104
 21
0.561523
  0
LINE
  8
0
 10
82.6104
 20
0.561523
 11
82.6357
 21
0.537109
  0
LINE
  8
0
 10
82.6357
 20
0.537109
 11
82.6621
 21
0.513672
  0
LINE
  8
0
 10
82.6621
 20
0.513672
 11
82.6875
 21
0.490234
  0
LINE
  8
0
 10
82.6875
 20
0.490234
 11
82.7148
 21
0.467773
  0
LINE
  8
0
 10
82.7148
 20
0.467773
 11
82.7412
 21
0.445312
  0
LINE
  8
0
 10
82.7412
 20
0.445312
 11
82.7959
 21
0.402344
  0
LINE
  8
0
 10
82.7959
 20
0.402344
 11
82.8525
 21
0.361328
  0
LINE
  8
0
 10
82.8525
 20
0.361328
 11
82.9111
 21
0.322266
  0
LINE
  8
0
 10
82.9111
 20
0.322266
 11
82.9404
 21
0.303711
  0
LINE
  8
0
 10
82.9404
 20
0.303711
 11
82.9697
 21
0.286133
  0
LINE
  8
0
 10
82.9697
 20
0.286133
 11
83
 21
0.267578
  0
LINE
  8
0
 10
83
 20
0.267578
 11
83.0303
 21
0.250977
  0
LINE
  8
0
 10
83.0303
 20
0.250977
 11
83.0615
 21
0.234375
  0
LINE
  8
0
 10
83.0615
 20
0.234375
 11
83.0918
 21
0.217773
  0
LINE
  8
0
 10
83.0918
 20
0.217773
 11
83.123
 21
0.202148
  0
LINE
  8
0
 10
83.123
 20
0.202148
 11
83.1543
 21
0.1875
  0
LINE
  8
0
 10
83.1543
 20
0.1875
 11
83.1865
 21
0.172852
  0
LINE
  8
0
 10
83.1865
 20
0.172852
 11
83.251
 21
0.145508
  0
LINE
  8
0
 10
83.251
 20
0.145508
 11
83.2832
 21
0.132812
  0
LINE
  8
0
 10
83.2832
 20
0.132812
 11
83.3164
 21
0.121094
  0
LINE
  8
0
 10
83.3164
 20
0.121094
 11
83.3486
 21
0.109375
  0
LINE
  8
0
 10
83.3486
 20
0.109375
 11
83.3818
 21
0.0976562
  0
LINE
  8
0
 10
83.3818
 20
0.0976562
 11
83.415
 21
0.0869141
  0
LINE
  8
0
 10
83.415
 20
0.0869141
 11
83.4482
 21
0.0771484
  0
LINE
  8
0
 10
83.4482
 20
0.0771484
 11
83.5166
 21
0.0595703
  0
LINE
  8
0
 10
83.5166
 20
0.0595703
 11
83.5498
 21
0.0507812
  0
LINE
  8
0
 10
83.5498
 20
0.0507812
 11
83.6523
 21
0.0302734
  0
LINE
  8
0
 10
83.6523
 20
0.0302734
 11
83.6875
 21
0.0244141
  0
LINE
  8
0
 10
83.6875
 20
0.0244141
 11
83.7559
 21
0.0146484
  0
LINE
  8
0
 10
83.7559
 20
0.0146484
 11
83.791
 21
0.0107422
  0
LINE
  8
0
 10
83.791
 20
0.0107422
 11
83.8262
 21
0.0078125
  0
LINE
  8
0
 10
83.8262
 20
0.0078125
 11
83.8604
 21
0.00488281
  0
LINE
  8
0
 10
83.8604
 20
0.00488281
 11
83.9307
 21
0.000976562
  0
LINE
  8
0
 10
83.9307
 20
0.000976562
 11
83.9648
 21
0
  0
LINE
  8
0
 10
83.9648
 20
0
 11
99.9678
 21
0
  0
LINE
  8
0
 10
99.9678
 20
0
 11
99.9854
 21
0.000976562
  0
LINE
  8
0
 10
99.9854
 20
0.000976562
 11
100.002
 21
0.000976562
  0
LINE
  8
0
 10
100.002
 20
0.000976562
 11
100.02
 21
0.00195312
  0
LINE
  8
0
 10
100.02
 20
0.00195312
 11
100.072
 21
0.0078125
  0
LINE
  8
0
 10
100.072
 20
0.0078125
 11
100.089
 21
0.00976562
  0
LINE
  8
0
 10
100.089
 20
0.00976562
 11
100.124
 21
0.015625
  0
LINE
  8
0
 10
100.124
 20
0.015625
 11
100.141
 21
0.0185547
  0
LINE
  8
0
 10
100.141
 20
0.0185547
 11
100.158
 21
0.0214844
  0
LINE
  8
0
 10
100.158
 20
0.0214844
 11
100.175
 21
0.0253906
  0
LINE
  8
0
 10
100.175
 20
0.0253906
 11
100.192
 21
0.0292969
  0
LINE
  8
0
 10
100.192
 20
0.0292969
 11
100.259
 21
0.0488281
  0
LINE
  8
0
 10
100.259
 20
0.0488281
 11
100.309
 21
0.0664062
  0
LINE
  8
0
 10
100.309
 20
0.0664062
 11
100.324
 21
0.0732422
  0
LINE
  8
0
 10
100.324
 20
0.0732422
 11
100.341
 21
0.0791016
  0
LINE
  8
0
 10
100.341
 20
0.0791016
 11
100.356
 21
0.0869141
  0
LINE
  8
0
 10
100.356
 20
0.0869141
 11
100.373
 21
0.09375
  0
LINE
  8
0
 10
100.373
 20
0.09375
 11
100.42
 21
0.117188
  0
LINE
  8
0
 10
100.42
 20
0.117188
 11
100.435
 21
0.125
  0
LINE
  8
0
 10
100.435
 20
0.125
 11
100.45
 21
0.133789
  0
LINE
  8
0
 10
100.45
 20
0.133789
 11
100.465
 21
0.142578
  0
LINE
  8
0
 10
100.465
 20
0.142578
 11
100.479
 21
0.152344
  0
LINE
  8
0
 10
100.479
 20
0.152344
 11
100.495
 21
0.161133
  0
LINE
  8
0
 10
100.495
 20
0.161133
 11
100.509
 21
0.170898
  0
LINE
  8
0
 10
100.509
 20
0.170898
 11
100.523
 21
0.180664
  0
LINE
  8
0
 10
100.523
 20
0.180664
 11
100.538
 21
0.191406
  0
LINE
  8
0
 10
100.538
 20
0.191406
 11
100.552
 21
0.201172
  0
LINE
  8
0
 10
100.552
 20
0.201172
 11
100.579
 21
0.222656
  0
LINE
  8
0
 10
100.579
 20
0.222656
 11
100.593
 21
0.234375
  0
LINE
  8
0
 10
100.593
 20
0.234375
 11
100.606
 21
0.245117
  0
LINE
  8
0
 10
100.606
 20
0.245117
 11
100.645
 21
0.280273
  0
LINE
  8
0
 10
100.645
 20
0.280273
 11
100.657
 21
0.292969
  0
LINE
  8
0
 10
100.657
 20
0.292969
 11
100.669
 21
0.305664
  0
LINE
  8
0
 10
100.669
 20
0.305664
 11
100.682
 21
0.318359
  0
LINE
  8
0
 10
100.682
 20
0.318359
 11
100.705
 21
0.34375
  0
LINE
  8
0
 10
100.705
 20
0.34375
 11
100.716
 21
0.357422
  0
LINE
  8
0
 10
100.716
 20
0.357422
 11
100.728
 21
0.371094
  0
LINE
  8
0
 10
100.728
 20
0.371094
 11
100.749
 21
0.398438
  0
LINE
  8
0
 10
100.749
 20
0.398438
 11
100.759
 21
0.412109
  0
LINE
  8
0
 10
100.759
 20
0.412109
 11
100.77
 21
0.426758
  0
LINE
  8
0
 10
100.77
 20
0.426758
 11
100.779
 21
0.44043
  0
LINE
  8
0
 10
100.779
 20
0.44043
 11
100.789
 21
0.455078
  0
LINE
  8
0
 10
100.789
 20
0.455078
 11
100.798
 21
0.469727
  0
LINE
  8
0
 10
100.798
 20
0.469727
 11
100.808
 21
0.485352
  0
LINE
  8
0
 10
100.808
 20
0.485352
 11
100.816
 21
0.5
  0
LINE
  8
0
 10
100.816
 20
0.5
 11
100.824
 21
0.515625
  0
LINE
  8
0
 10
100.824
 20
0.515625
 11
100.833
 21
0.530273
  0
LINE
  8
0
 10
100.833
 20
0.530273
 11
100.856
 21
0.577148
  0
LINE
  8
0
 10
100.856
 20
0.577148
 11
100.863
 21
0.59375
  0
LINE
  8
0
 10
100.863
 20
0.59375
 11
100.877
 21
0.625
  0
LINE
  8
0
 10
100.877
 20
0.625
 11
100.884
 21
0.641602
  0
LINE
  8
0
 10
100.884
 20
0.641602
 11
100.901
 21
0.691406
  0
LINE
  8
0
 10
100.901
 20
0.691406
 11
100.916
 21
0.741211
  0
LINE
  8
0
 10
100.916
 20
0.741211
 11
100.92
 21
0.757812
  0
LINE
  8
0
 10
100.92
 20
0.757812
 11
100.925
 21
0.775391
  0
LINE
  8
0
 10
100.925
 20
0.775391
 11
100.928
 21
0.791992
  0
LINE
  8
0
 10
100.928
 20
0.791992
 11
100.932
 21
0.80957
  0
LINE
  8
0
 10
100.932
 20
0.80957
 11
100.935
 21
0.826172
  0
LINE
  8
0
 10
100.935
 20
0.826172
 11
100.938
 21
0.84375
  0
LINE
  8
0
 10
100.938
 20
0.84375
 11
100.94
 21
0.860352
  0
LINE
  8
0
 10
100.94
 20
0.860352
 11
100.946
 21
0.913086
  0
LINE
  8
0
 10
100.946
 20
0.913086
 11
100.947
 21
0.930664
  0
LINE
  8
0
 10
100.947
 20
0.930664
 11
100.948
 21
0.947266
  0
LINE
  8
0
 10
100.948
 20
0.947266
 11
100.95
 21
0.982422
  0
LINE
  8
0
 10
100.95
 20
0.982422
 11
100.95
 21
3.96777
  0
LINE
  8
0
 10
100.95
 20
3.96777
 11
100.949
 21
3.98535
  0
LINE
  8
0
 10
100.949
 20
3.98535
 11
100.948
 21
4.00195
  0
LINE
  8
0
 10
100.948
 20
4.00195
 11
100.946
 21
4.03711
  0
LINE
  8
0
 10
100.946
 20
4.03711
 11
100.942
 21
4.07227
  0
LINE
  8
0
 10
100.942
 20
4.07227
 11
100.94
 21
4.08887
  0
LINE
  8
0
 10
100.94
 20
4.08887
 11
100.935
 21
4.12402
  0
LINE
  8
0
 10
100.935
 20
4.12402
 11
100.932
 21
4.14062
  0
LINE
  8
0
 10
100.932
 20
4.14062
 11
100.928
 21
4.1582
  0
LINE
  8
0
 10
100.928
 20
4.1582
 11
100.925
 21
4.1748
  0
LINE
  8
0
 10
100.925
 20
4.1748
 11
100.92
 21
4.19238
  0
LINE
  8
0
 10
100.92
 20
4.19238
 11
100.916
 21
4.20898
  0
LINE
  8
0
 10
100.916
 20
4.20898
 11
100.901
 21
4.25879
  0
LINE
  8
0
 10
100.901
 20
4.25879
 11
100.884
 21
4.30859
  0
LINE
  8
0
 10
100.884
 20
4.30859
 11
100.877
 21
4.32422
  0
LINE
  8
0
 10
100.877
 20
4.32422
 11
100.87
 21
4.34082
  0
LINE
  8
0
 10
100.87
 20
4.34082
 11
100.863
 21
4.35645
  0
LINE
  8
0
 10
100.863
 20
4.35645
 11
100.856
 21
4.37305
  0
LINE
  8
0
 10
100.856
 20
4.37305
 11
100.833
 21
4.41992
  0
LINE
  8
0
 10
100.833
 20
4.41992
 11
100.824
 21
4.43457
  0
LINE
  8
0
 10
100.824
 20
4.43457
 11
100.816
 21
4.4502
  0
LINE
  8
0
 10
100.816
 20
4.4502
 11
100.808
 21
4.46484
  0
LINE
  8
0
 10
100.808
 20
4.46484
 11
100.798
 21
4.47949
  0
LINE
  8
0
 10
100.798
 20
4.47949
 11
100.789
 21
4.49512
  0
LINE
  8
0
 10
100.789
 20
4.49512
 11
100.779
 21
4.50879
  0
LINE
  8
0
 10
100.779
 20
4.50879
 11
100.77
 21
4.52344
  0
LINE
  8
0
 10
100.77
 20
4.52344
 11
100.759
 21
4.53809
  0
LINE
  8
0
 10
100.759
 20
4.53809
 11
100.749
 21
4.55176
  0
LINE
  8
0
 10
100.749
 20
4.55176
 11
100.728
 21
4.5791
  0
LINE
  8
0
 10
100.728
 20
4.5791
 11
100.716
 21
4.59277
  0
LINE
  8
0
 10
100.716
 20
4.59277
 11
100.705
 21
4.60645
  0
LINE
  8
0
 10
100.705
 20
4.60645
 11
100.682
 21
4.63184
  0
LINE
  8
0
 10
100.682
 20
4.63184
 11
100.669
 21
4.64453
  0
LINE
  8
0
 10
100.669
 20
4.64453
 11
100.657
 21
4.65723
  0
LINE
  8
0
 10
100.657
 20
4.65723
 11
100.645
 21
4.66895
  0
LINE
  8
0
 10
100.645
 20
4.66895
 11
100.632
 21
4.68164
  0
LINE
  8
0
 10
100.632
 20
4.68164
 11
100.606
 21
4.70508
  0
LINE
  8
0
 10
100.606
 20
4.70508
 11
100.593
 21
4.71582
  0
LINE
  8
0
 10
100.593
 20
4.71582
 11
100.579
 21
4.72754
  0
LINE
  8
0
 10
100.579
 20
4.72754
 11
100.552
 21
4.74902
  0
LINE
  8
0
 10
100.552
 20
4.74902
 11
100.538
 21
4.75879
  0
LINE
  8
0
 10
100.538
 20
4.75879
 11
100.523
 21
4.76953
  0
LINE
  8
0
 10
100.523
 20
4.76953
 11
100.509
 21
4.7793
  0
LINE
  8
0
 10
100.509
 20
4.7793
 11
100.495
 21
4.78906
  0
LINE
  8
0
 10
100.495
 20
4.78906
 11
100.479
 21
4.79785
  0
LINE
  8
0
 10
100.479
 20
4.79785
 11
100.465
 21
4.80762
  0
LINE
  8
0
 10
100.465
 20
4.80762
 11
100.45
 21
4.81641
  0
LINE
  8
0
 10
100.45
 20
4.81641
 11
100.435
 21
4.82422
  0
LINE
  8
0
 10
100.435
 20
4.82422
 11
100.42
 21
4.83301
  0
LINE
  8
0
 10
100.42
 20
4.83301
 11
100.373
 21
4.85645
  0
LINE
  8
0
 10
100.373
 20
4.85645
 11
100.356
 21
4.86328
  0
LINE
  8
0
 10
100.356
 20
4.86328
 11
100.341
 21
4.87012
  0
LINE
  8
0
 10
100.341
 20
4.87012
 11
100.324
 21
4.87695
  0
LINE
  8
0
 10
100.324
 20
4.87695
 11
100.309
 21
4.88379
  0
LINE
  8
0
 10
100.309
 20
4.88379
 11
100.259
 21
4.90137
  0
LINE
  8
0
 10
100.259
 20
4.90137
 11
100.209
 21
4.91602
  0
LINE
  8
0
 10
100.209
 20
4.91602
 11
100.192
 21
4.91992
  0
LINE
  8
0
 10
100.192
 20
4.91992
 11
100.175
 21
4.9248
  0
LINE
  8
0
 10
100.175
 20
4.9248
 11
100.158
 21
4.92773
  0
LINE
  8
0
 10
100.158
 20
4.92773
 11
100.141
 21
4.93164
  0
LINE
  8
0
 10
100.141
 20
4.93164
 11
100.124
 21
4.93457
  0
LINE
  8
0
 10
100.124
 20
4.93457
 11
100.089
 21
4.94043
  0
LINE
  8
0
 10
100.089
 20
4.94043
 11
100.072
 21
4.94238
  0
LINE
  8
0
 10
100.072
 20
4.94238
 11
100.037
 21
4.94629
  0
LINE
  8
0
 10
100.037
 20
4.94629
 11
100.002
 21
4.94824
  0
LINE
  8
0
 10
100.002
 20
4.94824
 11
99.9854
 21
4.94922
  0
LINE
  8
0
 10
99.9854
 20
4.94922
 11
99.9678
 21
4.9502
  0
LINE
  8
0
 10
99.9678
 20
4.9502
 11
87.915
 21
4.9502
  0
LINE
  8
0
 10
87.915
 20
4.9502
 11
87.8799
 21
4.95215
  0
LINE
  8
0
 10
87.8799
 20
4.95215
 11
87.8633
 21
4.9541
  0
LINE
  8
0
 10
87.8633
 20
4.9541
 11
87.8457
 21
4.95508
  0
LINE
  8
0
 10
87.8457
 20
4.95508
 11
87.8281
 21
4.95703
  0
LINE
  8
0
 10
87.8281
 20
4.95703
 11
87.8105
 21
4.95996
  0
LINE
  8
0
 10
87.8105
 20
4.95996
 11
87.7939
 21
4.96191
  0
LINE
  8
0
 10
87.7939
 20
4.96191
 11
87.7764
 21
4.96484
  0
LINE
  8
0
 10
87.7764
 20
4.96484
 11
87.7588
 21
4.96875
  0
LINE
  8
0
 10
87.7588
 20
4.96875
 11
87.7422
 21
4.97168
  0
LINE
  8
0
 10
87.7422
 20
4.97168
 11
87.7246
 21
4.97559
  0
LINE
  8
0
 10
87.7246
 20
4.97559
 11
87.708
 21
4.97949
  0
LINE
  8
0
 10
87.708
 20
4.97949
 11
87.6914
 21
4.98438
  0
LINE
  8
0
 10
87.6914
 20
4.98438
 11
87.6748
 21
4.98828
  0
LINE
  8
0
 10
87.6748
 20
4.98828
 11
87.6572
 21
4.99414
  0
LINE
  8
0
 10
87.6572
 20
4.99414
 11
87.6406
 21
4.99902
  0
LINE
  8
0
 10
87.6406
 20
4.99902
 11
87.624
 21
5.00488
  0
LINE
  8
0
 10
87.624
 20
5.00488
 11
87.6084
 21
5.01074
  0
LINE
  8
0
 10
87.6084
 20
5.01074
 11
87.5752
 21
5.02246
  0
LINE
  8
0
 10
87.5752
 20
5.02246
 11
87.5596
 21
5.0293
  0
LINE
  8
0
 10
87.5596
 20
5.0293
 11
87.543
 21
5.03613
  0
LINE
  8
0
 10
87.543
 20
5.03613
 11
87.5273
 21
5.04395
  0
LINE
  8
0
 10
87.5273
 20
5.04395
 11
87.5117
 21
5.05078
  0
LINE
  8
0
 10
87.5117
 20
5.05078
 11
87.4961
 21
5.05859
  0
LINE
  8
0
 10
87.4961
 20
5.05859
 11
87.4805
 21
5.06738
  0
LINE
  8
0
 10
87.4805
 20
5.06738
 11
87.4648
 21
5.0752
  0
LINE
  8
0
 10
87.4648
 20
5.0752
 11
87.4502
 21
5.08398
  0
LINE
  8
0
 10
87.4502
 20
5.08398
 11
87.4346
 21
5.09277
  0
LINE
  8
0
 10
87.4346
 20
5.09277
 11
87.4199
 21
5.10156
  0
LINE
  8
0
 10
87.4199
 20
5.10156
 11
87.376
 21
5.13086
  0
LINE
  8
0
 10
87.376
 20
5.13086
 11
87.3623
 21
5.14062
  0
LINE
  8
0
 10
87.3623
 20
5.14062
 11
87.3486
 21
5.15137
  0
LINE
  8
0
 10
87.3486
 20
5.15137
 11
87.334
 21
5.16211
  0
LINE
  8
0
 10
87.334
 20
5.16211
 11
87.3203
 21
5.17285
  0
LINE
  8
0
 10
87.3203
 20
5.17285
 11
87.3076
 21
5.18359
  0
LINE
  8
0
 10
87.3076
 20
5.18359
 11
87.2939
 21
5.19531
  0
LINE
  8
0
 10
87.2939
 20
5.19531
 11
87.2812
 21
5.20703
  0
LINE
  8
0
 10
87.2812
 20
5.20703
 11
87.2676
 21
5.21875
  0
LINE
  8
0
 10
87.2676
 20
5.21875
 11
87.2549
 21
5.23047
  0
LINE
  8
0
 10
87.2549
 20
5.23047
 11
87.2432
 21
5.24316
  0
LINE
  8
0
 10
87.2432
 20
5.24316
 11
87.2305
 21
5.25488
  0
LINE
  8
0
 10
87.2305
 20
5.25488
 11
87.2188
 21
5.26758
  0
LINE
  8
0
 10
87.2188
 20
5.26758
 11
87.207
 21
5.28125
  0
LINE
  8
0
 10
87.207
 20
5.28125
 11
87.1953
 21
5.29395
  0
LINE
  8
0
 10
87.1953
 20
5.29395
 11
87.1836
 21
5.30762
  0
LINE
  8
0
 10
87.1836
 20
5.30762
 11
87.1729
 21
5.32031
  0
LINE
  8
0
 10
87.1729
 20
5.32031
 11
87.1621
 21
5.33398
  0
LINE
  8
0
 10
87.1621
 20
5.33398
 11
87.1514
 21
5.34863
  0
LINE
  8
0
 10
87.1514
 20
5.34863
 11
87.1406
 21
5.3623
  0
LINE
  8
0
 10
87.1406
 20
5.3623
 11
87.1309
 21
5.37598
  0
LINE
  8
0
 10
87.1309
 20
5.37598
 11
87.1016
 21
5.41992
  0
LINE
  8
0
 10
87.1016
 20
5.41992
 11
87.0928
 21
5.43457
  0
LINE
  8
0
 10
87.0928
 20
5.43457
 11
87.084
 21
5.4502
  0
LINE
  8
0
 10
87.084
 20
5.4502
 11
87.0752
 21
5.46484
  0
LINE
  8
0
 10
87.0752
 20
5.46484
 11
87.0674
 21
5.48047
  0
LINE
  8
0
 10
87.0674
 20
5.48047
 11
87.0586
 21
5.49609
  0
LINE
  8
0
 10
87.0586
 20
5.49609
 11
87.0508
 21
5.51172
  0
LINE
  8
0
 10
87.0508
 20
5.51172
 11
87.0439
 21
5.52734
  0
LINE
  8
0
 10
87.0439
 20
5.52734
 11
87.0361
 21
5.54297
  0
LINE
  8
0
 10
87.0361
 20
5.54297
 11
87.0293
 21
5.55957
  0
LINE
  8
0
 10
87.0293
 20
5.55957
 11
87.0225
 21
5.5752
  0
LINE
  8
0
 10
87.0225
 20
5.5752
 11
87.0107
 21
5.6084
  0
LINE
  8
0
 10
87.0107
 20
5.6084
 11
87.0049
 21
5.62402
  0
LINE
  8
0
 10
87.0049
 20
5.62402
 11
86.999
 21
5.64062
  0
LINE
  8
0
 10
86.999
 20
5.64062
 11
86.9941
 21
5.65723
  0
LINE
  8
0
 10
86.9941
 20
5.65723
 11
86.9883
 21
5.6748
  0
LINE
  8
0
 10
86.9883
 20
5.6748
 11
86.9844
 21
5.69141
  0
LINE
  8
0
 10
86.9844
 20
5.69141
 11
86.9795
 21
5.70801
  0
LINE
  8
0
 10
86.9795
 20
5.70801
 11
86.9756
 21
5.72461
  0
LINE
  8
0
 10
86.9756
 20
5.72461
 11
86.9717
 21
5.74219
  0
LINE
  8
0
 10
86.9717
 20
5.74219
 11
86.9688
 21
5.75879
  0
LINE
  8
0
 10
86.9688
 20
5.75879
 11
86.9648
 21
5.77637
  0
LINE
  8
0
 10
86.9648
 20
5.77637
 11
86.9619
 21
5.79395
  0
LINE
  8
0
 10
86.9619
 20
5.79395
 11
86.96
 21
5.81055
  0
LINE
  8
0
 10
86.96
 20
5.81055
 11
86.957
 21
5.82812
  0
LINE
  8
0
 10
86.957
 20
5.82812
 11
86.9551
 21
5.8457
  0
LINE
  8
0
 10
86.9551
 20
5.8457
 11
86.9541
 21
5.86328
  0
LINE
  8
0
 10
86.9541
 20
5.86328
 11
86.9521
 21
5.87988
  0
LINE
  8
0
 10
86.9521
 20
5.87988
 11
86.9502
 21
5.91504
  0
LINE
  8
0
 10
86.9502
 20
5.91504
 11
86.9502
 21
7.68457
  0
LINE
  8
0
 10
86.9502
 20
7.68457
 11
86.9521
 21
7.71973
  0
LINE
  8
0
 10
86.9521
 20
7.71973
 11
86.9541
 21
7.7373
  0
LINE
  8
0
 10
86.9541
 20
7.7373
 11
86.9551
 21
7.75488
  0
LINE
  8
0
 10
86.9551
 20
7.75488
 11
86.957
 21
7.77148
  0
LINE
  8
0
 10
86.957
 20
7.77148
 11
86.96
 21
7.78906
  0
LINE
  8
0
 10
86.96
 20
7.78906
 11
86.9619
 21
7.80664
  0
LINE
  8
0
 10
86.9619
 20
7.80664
 11
86.9648
 21
7.82324
  0
LINE
  8
0
 10
86.9648
 20
7.82324
 11
86.9688
 21
7.84082
  0
LINE
  8
0
 10
86.9688
 20
7.84082
 11
86.9717
 21
7.8584
  0
LINE
  8
0
 10
86.9717
 20
7.8584
 11
86.9795
 21
7.8916
  0
LINE
  8
0
 10
86.9795
 20
7.8916
 11
86.9844
 21
7.90918
  0
LINE
  8
0
 10
86.9844
 20
7.90918
 11
86.9883
 21
7.92578
  0
LINE
  8
0
 10
86.9883
 20
7.92578
 11
86.9941
 21
7.94238
  0
LINE
  8
0
 10
86.9941
 20
7.94238
 11
86.999
 21
7.95898
  0
LINE
  8
0
 10
86.999
 20
7.95898
 11
87.0166
 21
8.00879
  0
LINE
  8
0
 10
87.0166
 20
8.00879
 11
87.0225
 21
8.02441
  0
LINE
  8
0
 10
87.0225
 20
8.02441
 11
87.0293
 21
8.04102
  0
LINE
  8
0
 10
87.0293
 20
8.04102
 11
87.0361
 21
8.05664
  0
LINE
  8
0
 10
87.0361
 20
8.05664
 11
87.0439
 21
8.07227
  0
LINE
  8
0
 10
87.0439
 20
8.07227
 11
87.0508
 21
8.08789
  0
LINE
  8
0
 10
87.0508
 20
8.08789
 11
87.0586
 21
8.10352
  0
LINE
  8
0
 10
87.0586
 20
8.10352
 11
87.0674
 21
8.11914
  0
LINE
  8
0
 10
87.0674
 20
8.11914
 11
87.0752
 21
8.13477
  0
LINE
  8
0
 10
87.0752
 20
8.13477
 11
87.084
 21
8.15039
  0
LINE
  8
0
 10
87.084
 20
8.15039
 11
87.1016
 21
8.17969
  0
LINE
  8
0
 10
87.1016
 20
8.17969
 11
87.1309
 21
8.22363
  0
LINE
  8
0
 10
87.1309
 20
8.22363
 11
87.1406
 21
8.2373
  0
LINE
  8
0
 10
87.1406
 20
8.2373
 11
87.1514
 21
8.25195
  0
LINE
  8
0
 10
87.1514
 20
8.25195
 11
87.1836
 21
8.29297
  0
LINE
  8
0
 10
87.1836
 20
8.29297
 11
87.1953
 21
8.30566
  0
LINE
  8
0
 10
87.1953
 20
8.30566
 11
87.207
 21
8.31934
  0
LINE
  8
0
 10
87.207
 20
8.31934
 11
87.2305
 21
8.34473
  0
LINE
  8
0
 10
87.2305
 20
8.34473
 11
87.2676
 21
8.38184
  0
LINE
  8
0
 10
87.2676
 20
8.38184
 11
87.2812
 21
8.39355
  0
LINE
  8
0
 10
87.2812
 20
8.39355
 11
87.2939
 21
8.4043
  0
LINE
  8
0
 10
87.2939
 20
8.4043
 11
87.3076
 21
8.41602
  0
LINE
  8
0
 10
87.3076
 20
8.41602
 11
87.3203
 21
8.42676
  0
LINE
  8
0
 10
87.3203
 20
8.42676
 11
87.334
 21
8.43848
  0
LINE
  8
0
 10
87.334
 20
8.43848
 11
87.3486
 21
8.44824
  0
LINE
  8
0
 10
87.3486
 20
8.44824
 11
87.3623
 21
8.45898
  0
LINE
  8
0
 10
87.3623
 20
8.45898
 11
87.376
 21
8.46875
  0
LINE
  8
0
 10
87.376
 20
8.46875
 11
87.3906
 21
8.47949
  0
LINE
  8
0
 10
87.3906
 20
8.47949
 11
87.4053
 21
8.48828
  0
LINE
  8
0
 10
87.4053
 20
8.48828
 11
87.4199
 21
8.49805
  0
LINE
  8
0
 10
87.4199
 20
8.49805
 11
87.4346
 21
8.50684
  0
LINE
  8
0
 10
87.4346
 20
8.50684
 11
87.4502
 21
8.51562
  0
LINE
  8
0
 10
87.4502
 20
8.51562
 11
87.4648
 21
8.52441
  0
LINE
  8
0
 10
87.4648
 20
8.52441
 11
87.4805
 21
8.5332
  0
LINE
  8
0
 10
87.4805
 20
8.5332
 11
87.5273
 21
8.55664
  0
LINE
  8
0
 10
87.5273
 20
8.55664
 11
87.543
 21
8.56348
  0
LINE
  8
0
 10
87.543
 20
8.56348
 11
87.5596
 21
8.57031
  0
LINE
  8
0
 10
87.5596
 20
8.57031
 11
87.5752
 21
8.57715
  0
LINE
  8
0
 10
87.5752
 20
8.57715
 11
87.5918
 21
8.58398
  0
LINE
  8
0
 10
87.5918
 20
8.58398
 11
87.6084
 21
8.58984
  0
LINE
  8
0
 10
87.6084
 20
8.58984
 11
87.624
 21
8.5957
  0
LINE
  8
0
 10
87.624
 20
8.5957
 11
87.6406
 21
8.60059
  0
LINE
  8
0
 10
87.6406
 20
8.60059
 11
87.6572
 21
8.60645
  0
LINE
  8
0
 10
87.6572
 20
8.60645
 11
87.6748
 21
8.61133
  0
LINE
  8
0
 10
87.6748
 20
8.61133
 11
87.6914
 21
8.61621
  0
LINE
  8
0
 10
87.6914
 20
8.61621
 11
87.7246
 21
8.62402
  0
LINE
  8
0
 10
87.7246
 20
8.62402
 11
87.7422
 21
8.62793
  0
LINE
  8
0
 10
87.7422
 20
8.62793
 11
87.7588
 21
8.63184
  0
LINE
  8
0
 10
87.7588
 20
8.63184
 11
87.7939
 21
8.6377
  0
LINE
  8
0
 10
87.7939
 20
8.6377
 11
87.8105
 21
8.64062
  0
LINE
  8
0
 10
87.8105
 20
8.64062
 11
87.8633
 21
8.64648
  0
LINE
  8
0
 10
87.8633
 20
8.64648
 11
87.8799
 21
8.64746
  0
LINE
  8
0
 10
87.8799
 20
8.64746
 11
87.915
 21
8.64941
  0
LINE
  8
0
 10
87.915
 20
8.64941
 11
87.9326
 21
8.64941
  0
LINE
  8
0
 10
87.9326
 20
8.64941
 11
87.9502
 21
8.65039
  0
LINE
  8
0
 10
87.9502
 20
8.65039
 11
99.9854
 21
8.65039
  0
LINE
  8
0
 10
99.9854
 20
8.65039
 11
100.002
 21
8.65137
  0
LINE
  8
0
 10
100.002
 20
8.65137
 11
100.037
 21
8.65332
  0
LINE
  8
0
 10
100.037
 20
8.65332
 11
100.072
 21
8.65723
  0
LINE
  8
0
 10
100.072
 20
8.65723
 11
100.089
 21
8.66016
  0
LINE
  8
0
 10
100.089
 20
8.66016
 11
100.106
 21
8.66211
  0
LINE
  8
0
 10
100.106
 20
8.66211
 11
100.124
 21
8.66504
  0
LINE
  8
0
 10
100.124
 20
8.66504
 11
100.141
 21
8.66797
  0
LINE
  8
0
 10
100.141
 20
8.66797
 11
100.158
 21
8.67188
  0
LINE
  8
0
 10
100.158
 20
8.67188
 11
100.175
 21
8.67578
  0
LINE
  8
0
 10
100.175
 20
8.67578
 11
100.192
 21
8.67969
  0
LINE
  8
0
 10
100.192
 20
8.67969
 11
100.209
 21
8.68359
  0
LINE
  8
0
 10
100.209
 20
8.68359
 11
100.242
 21
8.69336
  0
LINE
  8
0
 10
100.242
 20
8.69336
 11
100.259
 21
8.69922
  0
LINE
  8
0
 10
100.259
 20
8.69922
 11
100.275
 21
8.7041
  0
LINE
  8
0
 10
100.275
 20
8.7041
 11
100.292
 21
8.70996
  0
LINE
  8
0
 10
100.292
 20
8.70996
 11
100.309
 21
8.7168
  0
LINE
  8
0
 10
100.309
 20
8.7168
 11
100.324
 21
8.72266
  0
LINE
  8
0
 10
100.324
 20
8.72266
 11
100.341
 21
8.72949
  0
LINE
  8
0
 10
100.341
 20
8.72949
 11
100.356
 21
8.73633
  0
LINE
  8
0
 10
100.356
 20
8.73633
 11
100.373
 21
8.74414
  0
LINE
  8
0
 10
100.373
 20
8.74414
 11
100.389
 21
8.75098
  0
LINE
  8
0
 10
100.389
 20
8.75098
 11
100.42
 21
8.7666
  0
LINE
  8
0
 10
100.42
 20
8.7666
 11
100.435
 21
8.77539
  0
LINE
  8
0
 10
100.435
 20
8.77539
 11
100.45
 21
8.78418
  0
LINE
  8
0
 10
100.45
 20
8.78418
 11
100.479
 21
8.80176
  0
LINE
  8
0
 10
100.479
 20
8.80176
 11
100.495
 21
8.81152
  0
LINE
  8
0
 10
100.495
 20
8.81152
 11
100.509
 21
8.82129
  0
LINE
  8
0
 10
100.509
 20
8.82129
 11
100.538
 21
8.84082
  0
LINE
  8
0
 10
100.538
 20
8.84082
 11
100.593
 21
8.88379
  0
LINE
  8
0
 10
100.593
 20
8.88379
 11
100.606
 21
8.89551
  0
LINE
  8
0
 10
100.606
 20
8.89551
 11
100.645
 21
8.93066
  0
LINE
  8
0
 10
100.645
 20
8.93066
 11
100.682
 21
8.96777
  0
LINE
  8
0
 10
100.682
 20
8.96777
 11
100.693
 21
8.98047
  0
LINE
  8
0
 10
100.693
 20
8.98047
 11
100.705
 21
8.99414
  0
LINE
  8
0
 10
100.705
 20
8.99414
 11
100.716
 21
9.00684
  0
LINE
  8
0
 10
100.716
 20
9.00684
 11
100.728
 21
9.02051
  0
LINE
  8
0
 10
100.728
 20
9.02051
 11
100.749
 21
9.04785
  0
LINE
  8
0
 10
100.749
 20
9.04785
 11
100.759
 21
9.0625
  0
LINE
  8
0
 10
100.759
 20
9.0625
 11
100.77
 21
9.07617
  0
LINE
  8
0
 10
100.77
 20
9.07617
 11
100.789
 21
9.10547
  0
LINE
  8
0
 10
100.789
 20
9.10547
 11
100.798
 21
9.12012
  0
LINE
  8
0
 10
100.798
 20
9.12012
 11
100.808
 21
9.13477
  0
LINE
  8
0
 10
100.808
 20
9.13477
 11
100.816
 21
9.15039
  0
LINE
  8
0
 10
100.816
 20
9.15039
 11
100.824
 21
9.16504
  0
LINE
  8
0
 10
100.824
 20
9.16504
 11
100.833
 21
9.18066
  0
LINE
  8
0
 10
100.833
 20
9.18066
 11
100.856
 21
9.22754
  0
LINE
  8
0
 10
100.856
 20
9.22754
 11
100.87
 21
9.25879
  0
LINE
  8
0
 10
100.87
 20
9.25879
 11
100.884
 21
9.29199
  0
LINE
  8
0
 10
100.884
 20
9.29199
 11
100.89
 21
9.30762
  0
LINE
  8
0
 10
100.89
 20
9.30762
 11
100.901
 21
9.34082
  0
LINE
  8
0
 10
100.901
 20
9.34082
 11
100.911
 21
9.37402
  0
LINE
  8
0
 10
100.911
 20
9.37402
 11
100.916
 21
9.3916
  0
LINE
  8
0
 10
100.916
 20
9.3916
 11
100.92
 21
9.4082
  0
LINE
  8
0
 10
100.92
 20
9.4082
 11
100.925
 21
9.4248
  0
LINE
  8
0
 10
100.925
 20
9.4248
 11
100.928
 21
9.44238
  0
LINE
  8
0
 10
100.928
 20
9.44238
 11
100.932
 21
9.45898
  0
LINE
  8
0
 10
100.932
 20
9.45898
 11
100.935
 21
9.47656
  0
LINE
  8
0
 10
100.935
 20
9.47656
 11
100.938
 21
9.49316
  0
LINE
  8
0
 10
100.938
 20
9.49316
 11
100.94
 21
9.51074
  0
LINE
  8
0
 10
100.94
 20
9.51074
 11
100.944
 21
9.5459
  0
LINE
  8
0
 10
100.944
 20
9.5459
 11
100.946
 21
9.5625
  0
LINE
  8
0
 10
100.946
 20
9.5625
 11
100.95
 21
9.63281
  0
LINE
  8
0
 10
100.95
 20
9.63281
 11
100.95
 21
17
  0
LINE
  8
0
 10
100.95
 20
17
 11
103.018
 21
17
  0
LINE
  8
0
 10
103.018
 20
17
 11
103.035
 21
17.001
  0
LINE
  8
0
 10
103.035
 20
17.001
 11
103.053
 21
17.001
  0
LINE
  8
0
 10
103.053
 20
17.001
 11
103.069
 21
17.002
  0
LINE
  8
0
 10
103.069
 20
17.002
 11
103.14
 21
17.0098
  0
LINE
  8
0
 10
103.14
 20
17.0098
 11
103.156
 21
17.0127
  0
LINE
  8
0
 10
103.156
 20
17.0127
 11
103.174
 21
17.0156
  0
LINE
  8
0
 10
103.174
 20
17.0156
 11
103.19
 21
17.0186
  0
LINE
  8
0
 10
103.19
 20
17.0186
 11
103.208
 21
17.0215
  0
LINE
  8
0
 10
103.208
 20
17.0215
 11
103.225
 21
17.0254
  0
LINE
  8
0
 10
103.225
 20
17.0254
 11
103.242
 21
17.0293
  0
LINE
  8
0
 10
103.242
 20
17.0293
 11
103.309
 21
17.0488
  0
LINE
  8
0
 10
103.309
 20
17.0488
 11
103.358
 21
17.0664
  0
LINE
  8
0
 10
103.358
 20
17.0664
 11
103.375
 21
17.0732
  0
LINE
  8
0
 10
103.375
 20
17.0732
 11
103.391
 21
17.0791
  0
LINE
  8
0
 10
103.391
 20
17.0791
 11
103.406
 21
17.0869
  0
LINE
  8
0
 10
103.406
 20
17.0869
 11
103.423
 21
17.0938
  0
LINE
  8
0
 10
103.423
 20
17.0938
 11
103.47
 21
17.1172
  0
LINE
  8
0
 10
103.47
 20
17.1172
 11
103.484
 21
17.125
  0
LINE
  8
0
 10
103.484
 20
17.125
 11
103.5
 21
17.1338
  0
LINE
  8
0
 10
103.5
 20
17.1338
 11
103.515
 21
17.1426
  0
LINE
  8
0
 10
103.515
 20
17.1426
 11
103.53
 21
17.1523
  0
LINE
  8
0
 10
103.53
 20
17.1523
 11
103.545
 21
17.1611
  0
LINE
  8
0
 10
103.545
 20
17.1611
 11
103.56
 21
17.1709
  0
LINE
  8
0
 10
103.56
 20
17.1709
 11
103.573
 21
17.1807
  0
LINE
  8
0
 10
103.573
 20
17.1807
 11
103.588
 21
17.1914
  0
LINE
  8
0
 10
103.588
 20
17.1914
 11
103.602
 21
17.2012
  0
LINE
  8
0
 10
103.602
 20
17.2012
 11
103.629
 21
17.2227
  0
LINE
  8
0
 10
103.629
 20
17.2227
 11
103.643
 21
17.2344
  0
LINE
  8
0
 10
103.643
 20
17.2344
 11
103.656
 21
17.2451
  0
LINE
  8
0
 10
103.656
 20
17.2451
 11
103.694
 21
17.2803
  0
LINE
  8
0
 10
103.694
 20
17.2803
 11
103.72
 21
17.3057
  0
LINE
  8
0
 10
103.72
 20
17.3057
 11
103.755
 21
17.3438
  0
LINE
  8
0
 10
103.755
 20
17.3438
 11
103.766
 21
17.3574
  0
LINE
  8
0
 10
103.766
 20
17.3574
 11
103.777
 21
17.3711
  0
LINE
  8
0
 10
103.777
 20
17.3711
 11
103.799
 21
17.3984
  0
LINE
  8
0
 10
103.799
 20
17.3984
 11
103.809
 21
17.4121
  0
LINE
  8
0
 10
103.809
 20
17.4121
 11
103.819
 21
17.4268
  0
LINE
  8
0
 10
103.819
 20
17.4268
 11
103.829
 21
17.4404
  0
LINE
  8
0
 10
103.829
 20
17.4404
 11
103.839
 21
17.4551
  0
LINE
  8
0
 10
103.839
 20
17.4551
 11
103.848
 21
17.4697
  0
LINE
  8
0
 10
103.848
 20
17.4697
 11
103.857
 21
17.4854
  0
LINE
  8
0
 10
103.857
 20
17.4854
 11
103.866
 21
17.5
  0
LINE
  8
0
 10
103.866
 20
17.5
 11
103.875
 21
17.5156
  0
LINE
  8
0
 10
103.875
 20
17.5156
 11
103.883
 21
17.5303
  0
LINE
  8
0
 10
103.883
 20
17.5303
 11
103.906
 21
17.5771
  0
LINE
  8
0
 10
103.906
 20
17.5771
 11
103.913
 21
17.5938
  0
LINE
  8
0
 10
103.913
 20
17.5938
 11
103.921
 21
17.6094
  0
LINE
  8
0
 10
103.921
 20
17.6094
 11
103.927
 21
17.625
  0
LINE
  8
0
 10
103.927
 20
17.625
 11
103.934
 21
17.6416
  0
LINE
  8
0
 10
103.934
 20
17.6416
 11
103.951
 21
17.6914
  0
LINE
  8
0
 10
103.951
 20
17.6914
 11
103.971
 21
17.7578
  0
LINE
  8
0
 10
103.971
 20
17.7578
 11
103.975
 21
17.7754
  0
LINE
  8
0
 10
103.975
 20
17.7754
 11
103.979
 21
17.792
  0
LINE
  8
0
 10
103.979
 20
17.792
 11
103.981
 21
17.8096
  0
LINE
  8
0
 10
103.981
 20
17.8096
 11
103.984
 21
17.8262
  0
LINE
  8
0
 10
103.984
 20
17.8262
 11
103.987
 21
17.8438
  0
LINE
  8
0
 10
103.987
 20
17.8438
 11
103.99
 21
17.8604
  0
LINE
  8
0
 10
103.99
 20
17.8604
 11
103.998
 21
17.9307
  0
LINE
  8
0
 10
103.998
 20
17.9307
 11
103.999
 21
17.9473
  0
LINE
  8
0
 10
103.999
 20
17.9473
 11
103.999
 21
17.9648
  0
LINE
  8
0
 10
103.999
 20
17.9648
 11
104
 21
17.9824
  0
LINE
  8
0
 10
104
 20
17.9824
 11
104
 21
36.0176
  0
LINE
  8
0
 10
104
 20
36.0176
 11
103.999
 21
36.0352
  0
LINE
  8
0
 10
103.999
 20
36.0352
 11
103.999
 21
36.0527
  0
LINE
  8
0
 10
103.999
 20
36.0527
 11
103.998
 21
36.0693
  0
LINE
  8
0
 10
103.998
 20
36.0693
 11
103.99
 21
36.1396
  0
LINE
  8
0
 10
103.99
 20
36.1396
 11
103.987
 21
36.1562
  0
LINE
  8
0
 10
103.987
 20
36.1562
 11
103.984
 21
36.1738
  0
LINE
  8
0
 10
103.984
 20
36.1738
 11
103.981
 21
36.1904
  0
LINE
  8
0
 10
103.981
 20
36.1904
 11
103.979
 21
36.208
  0
LINE
  8
0
 10
103.979
 20
36.208
 11
103.975
 21
36.2246
  0
LINE
  8
0
 10
103.975
 20
36.2246
 11
103.971
 21
36.2422
  0
LINE
  8
0
 10
103.971
 20
36.2422
 11
103.951
 21
36.3086
  0
LINE
  8
0
 10
103.951
 20
36.3086
 11
103.934
 21
36.3584
  0
LINE
  8
0
 10
103.934
 20
36.3584
 11
103.927
 21
36.375
  0
LINE
  8
0
 10
103.927
 20
36.375
 11
103.921
 21
36.3906
  0
LINE
  8
0
 10
103.921
 20
36.3906
 11
103.913
 21
36.4062
  0
LINE
  8
0
 10
103.913
 20
36.4062
 11
103.906
 21
36.4229
  0
LINE
  8
0
 10
103.906
 20
36.4229
 11
103.883
 21
36.4697
  0
LINE
  8
0
 10
103.883
 20
36.4697
 11
103.875
 21
36.4844
  0
LINE
  8
0
 10
103.875
 20
36.4844
 11
103.866
 21
36.5
  0
LINE
  8
0
 10
103.866
 20
36.5
 11
103.857
 21
36.5146
  0
LINE
  8
0
 10
103.857
 20
36.5146
 11
103.848
 21
36.5303
  0
LINE
  8
0
 10
103.848
 20
36.5303
 11
103.839
 21
36.5449
  0
LINE
  8
0
 10
103.839
 20
36.5449
 11
103.829
 21
36.5596
  0
LINE
  8
0
 10
103.829
 20
36.5596
 11
103.819
 21
36.5732
  0
LINE
  8
0
 10
103.819
 20
36.5732
 11
103.809
 21
36.5879
  0
LINE
  8
0
 10
103.809
 20
36.5879
 11
103.799
 21
36.6016
  0
LINE
  8
0
 10
103.799
 20
36.6016
 11
103.777
 21
36.6289
  0
LINE
  8
0
 10
103.777
 20
36.6289
 11
103.766
 21
36.6426
  0
LINE
  8
0
 10
103.766
 20
36.6426
 11
103.755
 21
36.6562
  0
LINE
  8
0
 10
103.755
 20
36.6562
 11
103.72
 21
36.6943
  0
LINE
  8
0
 10
103.72
 20
36.6943
 11
103.694
 21
36.7197
  0
LINE
  8
0
 10
103.694
 20
36.7197
 11
103.656
 21
36.7549
  0
LINE
  8
0
 10
103.656
 20
36.7549
 11
103.643
 21
36.7656
  0
LINE
  8
0
 10
103.643
 20
36.7656
 11
103.629
 21
36.7773
  0
LINE
  8
0
 10
103.629
 20
36.7773
 11
103.602
 21
36.7988
  0
LINE
  8
0
 10
103.602
 20
36.7988
 11
103.588
 21
36.8086
  0
LINE
  8
0
 10
103.588
 20
36.8086
 11
103.573
 21
36.8193
  0
LINE
  8
0
 10
103.573
 20
36.8193
 11
103.56
 21
36.8291
  0
LINE
  8
0
 10
103.56
 20
36.8291
 11
103.545
 21
36.8389
  0
LINE
  8
0
 10
103.545
 20
36.8389
 11
103.53
 21
36.8477
  0
LINE
  8
0
 10
103.53
 20
36.8477
 11
103.515
 21
36.8574
  0
LINE
  8
0
 10
103.515
 20
36.8574
 11
103.5
 21
36.8662
  0
LINE
  8
0
 10
103.5
 20
36.8662
 11
103.484
 21
36.875
  0
LINE
  8
0
 10
103.484
 20
36.875
 11
103.47
 21
36.8828
  0
LINE
  8
0
 10
103.47
 20
36.8828
 11
103.423
 21
36.9062
  0
LINE
  8
0
 10
103.423
 20
36.9062
 11
103.406
 21
36.9131
  0
LINE
  8
0
 10
103.406
 20
36.9131
 11
103.391
 21
36.9209
  0
LINE
  8
0
 10
103.391
 20
36.9209
 11
103.375
 21
36.9268
  0
LINE
  8
0
 10
103.375
 20
36.9268
 11
103.358
 21
36.9336
  0
LINE
  8
0
 10
103.358
 20
36.9336
 11
103.309
 21
36.9512
  0
LINE
  8
0
 10
103.309
 20
36.9512
 11
103.242
 21
36.9707
  0
LINE
  8
0
 10
103.242
 20
36.9707
 11
103.225
 21
36.9746
  0
LINE
  8
0
 10
103.225
 20
36.9746
 11
103.208
 21
36.9785
  0
LINE
  8
0
 10
103.208
 20
36.9785
 11
103.19
 21
36.9814
  0
LINE
  8
0
 10
103.19
 20
36.9814
 11
103.174
 21
36.9844
  0
LINE
  8
0
 10
103.174
 20
36.9844
 11
103.156
 21
36.9873
  0
LINE
  8
0
 10
103.156
 20
36.9873
 11
103.14
 21
36.9902
  0
LINE
  8
0
 10
103.14
 20
36.9902
 11
103.069
 21
36.998
  0
LINE
  8
0
 10
103.069
 20
36.998
 11
103.053
 21
36.999
  0
LINE
  8
0
 10
103.053
 20
36.999
 11
103.035
 21
36.999
  0
LINE
  8
0
 10
103.035
 20
36.999
 11
103.018
 21
37
  0
LINE
  8
0
 10
103.018
 20
37
 11
-2.01758
 21
37
  0
LINE
  8
0
 10
-2.01758
 20
37
 11
-2.03516
 21
36.999
  0
LINE
  8
0
 10
-2.03516
 20
36.999
 11
-2.05273
 21
36.999
  0
LINE
  8
0
 10
-2.05273
 20
36.999
 11
-2.06934
 21
36.998
  0
LINE
  8
0
 10
-2.06934
 20
36.998
 11
-2.13965
 21
36.9902
  0
LINE
  8
0
 10
-2.13965
 20
36.9902
 11
-2.15625
 21
36.9873
  0
LINE
  8
0
 10
-2.15625
 20
36.9873
 11
-2.17383
 21
36.9844
  0
LINE
  8
0
 10
-2.17383
 20
36.9844
 11
-2.19043
 21
36.9814
  0
LINE
  8
0
 10
-2.19043
 20
36.9814
 11
-2.20801
 21
36.9785
  0
LINE
  8
0
 10
-2.20801
 20
36.9785
 11
-2.22461
 21
36.9746
  0
LINE
  8
0
 10
-2.22461
 20
36.9746
 11
-2.24219
 21
36.9707
  0
LINE
  8
0
 10
-2.24219
 20
36.9707
 11
-2.30859
 21
36.9512
  0
LINE
  8
0
 10
-2.30859
 20
36.9512
 11
-2.3584
 21
36.9336
  0
LINE
  8
0
 10
-2.3584
 20
36.9336
 11
-2.375
 21
36.9268
  0
LINE
  8
0
 10
-2.375
 20
36.9268
 11
-2.39062
 21
36.9209
  0
LINE
  8
0
 10
-2.39062
 20
36.9209
 11
-2.40625
 21
36.9131
  0
LINE
  8
0
 10
-2.40625
 20
36.9131
 11
-2.42285
 21
36.9062
  0
LINE
  8
0
 10
-2.42285
 20
36.9062
 11
-2.46973
 21
36.8828
  0
LINE
  8
0
 10
-2.46973
 20
36.8828
 11
-2.48438
 21
36.875
  0
LINE
  8
0
 10
-2.48438
 20
36.875
 11
-2.5
 21
36.8662
  0
LINE
  8
0
 10
-2.5
 20
36.8662
 11
-2.51465
 21
36.8574
  0
LINE
  8
0
 10
-2.51465
 20
36.8574
 11
-2.53027
 21
36.8477
  0
LINE
  8
0
 10
-2.53027
 20
36.8477
 11
-2.54492
 21
36.8389
  0
LINE
  8
0
 10
-2.54492
 20
36.8389
 11
-2.55957
 21
36.8291
  0
LINE
  8
0
 10
-2.55957
 20
36.8291
 11
-2.57324
 21
36.8193
  0
LINE
  8
0
 10
-2.57324
 20
36.8193
 11
-2.58789
 21
36.8086
  0
LINE
  8
0
 10
-2.58789
 20
36.8086
 11
-2.60156
 21
36.7988
  0
LINE
  8
0
 10
-2.60156
 20
36.7988
 11
-2.62891
 21
36.7773
  0
LINE
  8
0
 10
-2.62891
 20
36.7773
 11
-2.64258
 21
36.7656
  0
LINE
  8
0
 10
-2.64258
 20
36.7656
 11
-2.65625
 21
36.7549
  0
LINE
  8
0
 10
-2.65625
 20
36.7549
 11
-2.69434
 21
36.7197
  0
LINE
  8
0
 10
-2.69434
 20
36.7197
 11
-2.71973
 21
36.6943
  0
LINE
  8
0
 10
-2.71973
 20
36.6943
 11
-2.75488
 21
36.6562
  0
LINE
  8
0
 10
-2.75488
 20
36.6562
 11
-2.76562
 21
36.6426
  0
LINE
  8
0
 10
-2.76562
 20
36.6426
 11
-2.77734
 21
36.6289
  0
LINE
  8
0
 10
-2.77734
 20
36.6289
 11
-2.79883
 21
36.6016
  0
LINE
  8
0
 10
-2.79883
 20
36.6016
 11
-2.80859
 21
36.5879
  0
LINE
  8
0
 10
-2.80859
 20
36.5879
 11
-2.81934
 21
36.5732
  0
LINE
  8
0
 10
-2.81934
 20
36.5732
 11
-2.8291
 21
36.5596
  0
LINE
  8
0
 10
-2.8291
 20
36.5596
 11
-2.83887
 21
36.5449
  0
LINE
  8
0
 10
-2.83887
 20
36.5449
 11
-2.84766
 21
36.5303
  0
LINE
  8
0
 10
-2.84766
 20
36.5303
 11
-2.85742
 21
36.5146
  0
LINE
  8
0
 10
-2.85742
 20
36.5146
 11
-2.86621
 21
36.5
  0
LINE
  8
0
 10
-2.86621
 20
36.5
 11
-2.875
 21
36.4844
  0
LINE
  8
0
 10
-2.875
 20
36.4844
 11
-2.88281
 21
36.4697
  0
LINE
  8
0
 10
-2.88281
 20
36.4697
 11
-2.90625
 21
36.4229
  0
LINE
  8
0
 10
-2.90625
 20
36.4229
 11
-2.91309
 21
36.4062
  0
LINE
  8
0
 10
-2.91309
 20
36.4062
 11
-2.9209
 21
36.3906
  0
LINE
  8
0
 10
-2.9209
 20
36.3906
 11
-2.92676
 21
36.375
  0
LINE
  8
0
 10
-2.92676
 20
36.375
 11
-2.93359
 21
36.3584
  0
LINE
  8
0
 10
-2.93359
 20
36.3584
 11
-2.95117
 21
36.3086
  0
LINE
  8
0
 10
-2.95117
 20
36.3086
 11
-2.9707
 21
36.2422
  0
LINE
  8
0
 10
-2.9707
 20
36.2422
 11
-2.97461
 21
36.2246
  0
LINE
  8
0
 10
-2.97461
 20
36.2246
 11
-2.97852
 21
36.208
  0
LINE
  8
0
 10
-2.97852
 20
36.208
 11
-2.98145
 21
36.1904
  0
LINE
  8
0
 10
-2.98145
 20
36.1904
 11
-2.98438
 21
36.1738
  0
LINE
  8
0
 10
-2.98438
 20
36.1738
 11
-2.9873
 21
36.1562
  0
LINE
  8
0
 10
-2.9873
 20
36.1562
 11
-2.99023
 21
36.1396
  0
LINE
  8
0
 10
-2.99023
 20
36.1396
 11
-2.99805
 21
36.0693
  0
LINE
  8
0
 10
-2.99805
 20
36.0693
 11
-2.99902
 21
36.0527
  0
LINE
  8
0
 10
-2.99902
 20
36.0527
 11
-2.99902
 21
36.0352
  0
LINE
  8
0
 10
-2.99902
 20
36.0352
 11
-3
 21
36.0176
  0
LINE
  8
0
 10
-3
 20
36.0176
 11
-3
 21
17.9824
  0
LINE
  8
0
 10
-3
 20
17.9824
 11
-2.99902
 21
17.9648
  0
LINE
  8
0
 10
-2.99902
 20
17.9648
 11
-2.99902
 21
17.9473
  0
LINE
  8
0
 10
-2.99902
 20
17.9473
 11
-2.99805
 21
17.9307
  0
LINE
  8
0
 10
-2.99805
 20
17.9307
 11
-2.99023
 21
17.8604
  0
LINE
  8
0
 10
-2.99023
 20
17.8604
 11
-2.9873
 21
17.8438
  0
LINE
  8
0
 10
-2.9873
 20
17.8438
 11
-2.98438
 21
17.8262
  0
LINE
  8
0
 10
-2.98438
 20
17.8262
 11
-2.98145
 21
17.8096
  0
LINE
  8
0
 10
-2.98145
 20
17.8096
 11
-2.97852
 21
17.792
  0
LINE
  8
0
 10
-2.97852
 20
17.792
 11
-2.97461
 21
17.7754
  0
LINE
  8
0
 10
-2.97461
 20
17.7754
 11
-2.9707
 21
17.7578
  0
LINE
  8
0
 10
-2.9707
 20
17.7578
 11
-2.95117
 21
17.6914
  0
LINE
  8
0
 10
-2.95117
 20
17.6914
 11
-2.93359
 21
17.6416
  0
LINE
  8
0
 10
-2.93359
 20
17.6416
 11
-2.92676
 21
17.625
  0
LINE
  8
0
 10
-2.92676
 20
17.625
 11
-2.9209
 21
17.6094
  0
LINE
  8
0
 10
-2.9209
 20
17.6094
 11
-2.91309
 21
17.5938
  0
LINE
  8
0
 10
-2.91309
 20
17.5938
 11
-2.90625
 21
17.5771
  0
LINE
  8
0
 10
-2.90625
 20
17.5771
 11
-2.88281
 21
17.5303
  0
LINE
  8
0
 10
-2.88281
 20
17.5303
 11
-2.875
 21
17.5156
  0
LINE
  8
0
 10
-2.875
 20
17.5156
 11
-2.86621
 21
17.5
  0
LINE
  8
0
 10
-2.86621
 20
17.5
 11
-2.85742
 21
17.4854
  0
LINE
  8
0
 10
-2.85742
 20
17.4854
 11
-2.84766
 21
17.4697
  0
LINE
  8
0
 10
-2.84766
 20
17.4697
 11
-2.83887
 21
17.4551
  0
LINE
  8
0
 10
-2.83887
 20
17.4551
 11
-2.8291
 21
17.4404
  0
LINE
  8
0
 10
-2.8291
 20
17.4404
 11
-2.81934
 21
17.4268
  0
LINE
  8
0
 10
-2.81934
 20
17.4268
 11
-2.80859
 21
17.4121
  0
LINE
  8
0
 10
-2.80859
 20
17.4121
 11
-2.79883
 21
17.3984
  0
LINE
  8
0
 10
-2.79883
 20
17.3984
 11
-2.77734
 21
17.3711
  0
LINE
  8
0
 10
-2.77734
 20
17.3711
 11
-2.76562
 21
17.3574
  0
LINE
  8
0
 10
-2.76562
 20
17.3574
 11
-2.75488
 21
17.3438
  0
LINE
  8
0
 10
-2.75488
 20
17.3438
 11
-2.71973
 21
17.3057
  0
LINE
  8
0
 10
-2.71973
 20
17.3057
 11
-2.69434
 21
17.2803
  0
LINE
  8
0
 10
-2.69434
 20
17.2803
 11
-2.65625
 21
17.2451
  0
LINE
  8
0
 10
-2.65625
 20
17.2451
 11
-2.64258
 21
17.2344
  0
LINE
  8
0
 10
-2.64258
 20
17.2344
 11
-2.62891
 21
17.2227
  0
LINE
  8
0
 10
-2.62891
 20
17.2227
 11
-2.60156
 21
17.2012
  0
LINE
  8
0
 10
-2.60156
 20
17.2012
 11
-2.58789
 21
17.1914
  0
LINE
  8
0
 10
-2.58789
 20
17.1914
 11
-2.57324
 21
17.1807
  0
LINE
  8
0
 10
-2.57324
 20
17.1807
 11
-2.55957
 21
17.1709
  0
LINE
  8
0
 10
-2.55957
 20
17.1709
 11
-2.54492
 21
17.1611
  0
LINE
  8
0
 10
-2.54492
 20
17.1611
 11
-2.53027
 21
17.1523
  0
LINE
  8
0
 10
-2.53027
 20
17.1523
 11
-2.51465
 21
17.1426
  0
LINE
  8
0
 10
-2.51465
 20
17.1426
 11
-2.5
 21
17.1338
  0
LINE
  8
0
 10
-2.5
 20
17.1338
 11
-2.48438
 21
17.125
  0
LINE
  8
0
 10
-2.48438
 20
17.125
 11
-2.46973
 21
17.1172
  0
LINE
  8
0
 10
-2.46973
 20
17.1172
 11
-2.42285
 21
17.0938
  0
LINE
  8
0
 10
-2.42285
 20
17.0938
 11
-2.40625
 21
17.0869
  0
LINE
  8
0
 10
-2.40625
 20
17.0869
 11
-2.39062
 21
17.0791
  0
LINE
  8
0
 10
-2.39062
 20
17.0791
 11
-2.375
 21
17.0732
  0
LINE
  8
0
 10
-2.375
 20
17.0732
 11
-2.3584
 21
17.0664
  0
LINE
  8
0
 10
-2.3584
 20
17.0664
 11
-2.30859
 21
17.0488
  0
LINE
  8
0
 10
-2.30859
 20
17.0488
 11
-2.24219
 21
17.0293
  0
LINE
  8
0
 10
-2.24219
 20
17.0293
 11
-2.22461
 21
17.0254
  0
LINE
  8
0
 10
-2.22461
 20
17.0254
 11
-2.20801
 21
17.0215
  0
LINE
  8
0
 10
-2.20801
 20
17.0215
 11
-2.19043
 21
17.0186
  0
LINE
  8
0
 10
-2.19043
 20
17.0186
 11
-2.17383
 21
17.0156
  0
LINE
  8
0
 10
-2.17383
 20
17.0156
 11
-2.15625
 21
17.0127
  0
LINE
  8
0
 10
-2.15625
 20
17.0127
 11
-2.13965
 21
17.0098
  0
LINE
  8
0
 10
-2.13965
 20
17.0098
 11
-2.06934
 21
17.002
  0
LINE
  8
0
 10
-2.06934
 20
17.002
 11
-2.05273
 21
17.001
  0
LINE
  8
0
 10
-2.05273
 20
17.001
 11
-2.03516
 21
17.001
  0
LINE
  8
0
 10
-2.03516
 20
17.001
 11
-2.01758
 21
17
  0
LINE
  8
0
 10
-2.01758
 20
17
 11
0
 21
17
  0
LINE
  8
0
 10
0
 20
17
 11
0
 21
9.63281
  0
LINE
  8
0
 10
0
 20
9.63281
 11
0.000976562
 21
9.61523
  0
LINE
  8
0
 10
0.000976562
 20
9.61523
 11
0.000976562
 21
9.59766
  0
LINE
  8
0
 10
0.000976562
 20
9.59766
 11
0.00195312
 21
9.58008
  0
LINE
  8
0
 10
0.00195312
 20
9.58008
 11
0.00390625
 21
9.5625
  0
LINE
  8
0
 10
0.00390625
 20
9.5625
 11
0.00585938
 21
9.5459
  0
LINE
  8
0
 10
0.00585938
 20
9.5459
 11
0.00976562
 21
9.51074
  0
LINE
  8
0
 10
0.00976562
 20
9.51074
 11
0.0126953
 21
9.49316
  0
LINE
  8
0
 10
0.0126953
 20
9.49316
 11
0.015625
 21
9.47656
  0
LINE
  8
0
 10
0.015625
 20
9.47656
 11
0.0185547
 21
9.45898
  0
LINE
  8
0
 10
0.0185547
 20
9.45898
 11
0.0214844
 21
9.44238
  0
LINE
  8
0
 10
0.0214844
 20
9.44238
 11
0.0253906
 21
9.4248
  0
LINE
  8
0
 10
0.0253906
 20
9.4248
 11
0.0292969
 21
9.4082
  0
LINE
  8
0
 10
0.0292969
 20
9.4082
 11
0.0341797
 21
9.3916
  0
LINE
  8
0
 10
0.0341797
 20
9.3916
 11
0.0390625
 21
9.37402
  0
LINE
  8
0
 10
0.0390625
 20
9.37402
 11
0.0488281
 21
9.34082
  0
LINE
  8
0
 10
0.0488281
 20
9.34082
 11
0.0605469
 21
9.30762
  0
LINE
  8
0
 10
0.0605469
 20
9.30762
 11
0.0664062
 21
9.29199
  0
LINE
  8
0
 10
0.0664062
 20
9.29199
 11
0.0732422
 21
9.27539
  0
LINE
  8
0
 10
0.0732422
 20
9.27539
 11
0.0791016
 21
9.25879
  0
LINE
  8
0
 10
0.0791016
 20
9.25879
 11
0.0869141
 21
9.24316
  0
LINE
  8
0
 10
0.0869141
 20
9.24316
 11
0.09375
 21
9.22754
  0
LINE
  8
0
 10
0.09375
 20
9.22754
 11
0.125
 21
9.16504
  0
LINE
  8
0
 10
0.125
 20
9.16504
 11
0.133789
 21
9.15039
  0
LINE
  8
0
 10
0.133789
 20
9.15039
 11
0.142578
 21
9.13477
  0
LINE
  8
0
 10
0.142578
 20
9.13477
 11
0.152344
 21
9.12012
  0
LINE
  8
0
 10
0.152344
 20
9.12012
 11
0.161133
 21
9.10547
  0
LINE
  8
0
 10
0.161133
 20
9.10547
 11
0.180664
 21
9.07617
  0
LINE
  8
0
 10
0.180664
 20
9.07617
 11
0.191406
 21
9.0625
  0
LINE
  8
0
 10
0.191406
 20
9.0625
 11
0.201172
 21
9.04785
  0
LINE
  8
0
 10
0.201172
 20
9.04785
 11
0.222656
 21
9.02051
  0
LINE
  8
0
 10
0.222656
 20
9.02051
 11
0.234375
 21
9.00684
  0
LINE
  8
0
 10
0.234375
 20
9.00684
 11
0.245117
 21
8.99414
  0
LINE
  8
0
 10
0.245117
 20
8.99414
 11
0.256836
 21
8.98047
  0
LINE
  8
0
 10
0.256836
 20
8.98047
 11
0.280273
 21
8.95508
  0
LINE
  8
0
 10
0.280273
 20
8.95508
 11
0.292969
 21
8.94336
  0
LINE
  8
0
 10
0.292969
 20
8.94336
 11
0.305664
 21
8.93066
  0
LINE
  8
0
 10
0.305664
 20
8.93066
 11
0.34375
 21
8.89551
  0
LINE
  8
0
 10
0.34375
 20
8.89551
 11
0.357422
 21
8.88379
  0
LINE
  8
0
 10
0.357422
 20
8.88379
 11
0.412109
 21
8.84082
  0
LINE
  8
0
 10
0.412109
 20
8.84082
 11
0.426758
 21
8.83105
  0
LINE
  8
0
 10
0.426758
 20
8.83105
 11
0.44043
 21
8.82129
  0
LINE
  8
0
 10
0.44043
 20
8.82129
 11
0.469727
 21
8.80176
  0
LINE
  8
0
 10
0.469727
 20
8.80176
 11
0.485352
 21
8.79297
  0
LINE
  8
0
 10
0.485352
 20
8.79297
 11
0.5
 21
8.78418
  0
LINE
  8
0
 10
0.5
 20
8.78418
 11
0.515625
 21
8.77539
  0
LINE
  8
0
 10
0.515625
 20
8.77539
 11
0.530273
 21
8.7666
  0
LINE
  8
0
 10
0.530273
 20
8.7666
 11
0.561523
 21
8.75098
  0
LINE
  8
0
 10
0.561523
 20
8.75098
 11
0.577148
 21
8.74414
  0
LINE
  8
0
 10
0.577148
 20
8.74414
 11
0.59375
 21
8.73633
  0
LINE
  8
0
 10
0.59375
 20
8.73633
 11
0.625
 21
8.72266
  0
LINE
  8
0
 10
0.625
 20
8.72266
 11
0.641602
 21
8.7168
  0
LINE
  8
0
 10
0.641602
 20
8.7168
 11
0.658203
 21
8.70996
  0
LINE
  8
0
 10
0.658203
 20
8.70996
 11
0.674805
 21
8.7041
  0
LINE
  8
0
 10
0.674805
 20
8.7041
 11
0.691406
 21
8.69922
  0
LINE
  8
0
 10
0.691406
 20
8.69922
 11
0.708008
 21
8.69336
  0
LINE
  8
0
 10
0.708008
 20
8.69336
 11
0.741211
 21
8.68359
  0
LINE
  8
0
 10
0.741211
 20
8.68359
 11
0.757812
 21
8.67969
  0
LINE
  8
0
 10
0.757812
 20
8.67969
 11
0.775391
 21
8.67578
  0
LINE
  8
0
 10
0.775391
 20
8.67578
 11
0.791992
 21
8.67188
  0
LINE
  8
0
 10
0.791992
 20
8.67188
 11
0.80957
 21
8.66797
  0
LINE
  8
0
 10
0.80957
 20
8.66797
 11
0.826172
 21
8.66504
  0
LINE
  8
0
 10
0.826172
 20
8.66504
 11
0.84375
 21
8.66211
  0
LINE
  8
0
 10
0.84375
 20
8.66211
 11
0.860352
 21
8.66016
  0
LINE
  8
0
 10
0.860352
 20
8.66016
 11
0.87793
 21
8.65723
  0
LINE
  8
0
 10
0.87793
 20
8.65723
 11
0.913086
 21
8.65332
  0
LINE
  8
0
 10
0.913086
 20
8.65332
 11
0.930664
 21
8.65234
  0
LINE
  8
0
 10
0.930664
 20
8.65234
 11
0.947266
 21
8.65137
  0
LINE
  8
0
 10
0.947266
 20
8.65137
 11
0.964844
 21
8.65039
  0
LINE
  8
0
 10
0.964844
 20
8.65039
 11
12
 21
8.65039
  0
LINE
  8
0
 10
12
 20
8.65039
 11
12.0176
 21
8.64941
  0
LINE
  8
0
 10
12.0176
 20
8.64941
 11
12.0352
 21
8.64941
  0
LINE
  8
0
 10
12.0352
 20
8.64941
 11
12.0527
 21
8.64844
  0
LINE
  8
0
 10
12.0527
 20
8.64844
 11
12.0693
 21
8.64746
  0
LINE
  8
0
 10
12.0693
 20
8.64746
 11
12.0869
 21
8.64648
  0
LINE
  8
0
 10
12.0869
 20
8.64648
 11
12.1396
 21
8.64062
  0
LINE
  8
0
 10
12.1396
 20
8.64062
 11
12.1562
 21
8.6377
  0
LINE
  8
0
 10
12.1562
 20
8.6377
 11
12.1738
 21
8.63477
  0
LINE
  8
0
 10
12.1738
 20
8.63477
 11
12.1904
 21
8.63184
  0
LINE
  8
0
 10
12.1904
 20
8.63184
 11
12.208
 21
8.62793
  0
LINE
  8
0
 10
12.208
 20
8.62793
 11
12.2246
 21
8.62402
  0
LINE
  8
0
 10
12.2246
 20
8.62402
 11
12.2422
 21
8.62012
  0
LINE
  8
0
 10
12.2422
 20
8.62012
 11
12.2588
 21
8.61621
  0
LINE
  8
0
 10
12.2588
 20
8.61621
 11
12.292
 21
8.60645
  0
LINE
  8
0
 10
12.292
 20
8.60645
 11
12.3086
 21
8.60059
  0
LINE
  8
0
 10
12.3086
 20
8.60059
 11
12.3252
 21
8.5957
  0
LINE
  8
0
 10
12.3252
 20
8.5957
 11
12.3584
 21
8.58398
  0
LINE
  8
0
 10
12.3584
 20
8.58398
 11
12.375
 21
8.57715
  0
LINE
  8
0
 10
12.375
 20
8.57715
 11
12.4062
 21
8.56348
  0
LINE
  8
0
 10
12.4062
 20
8.56348
 11
12.4229
 21
8.55664
  0
LINE
  8
0
 10
12.4229
 20
8.55664
 11
12.4697
 21
8.5332
  0
LINE
  8
0
 10
12.4697
 20
8.5332
 11
12.4844
 21
8.52441
  0
LINE
  8
0
 10
12.4844
 20
8.52441
 11
12.5
 21
8.51562
  0
LINE
  8
0
 10
12.5
 20
8.51562
 11
12.5146
 21
8.50684
  0
LINE
  8
0
 10
12.5146
 20
8.50684
 11
12.5303
 21
8.49805
  0
LINE
  8
0
 10
12.5303
 20
8.49805
 11
12.5449
 21
8.48828
  0
LINE
  8
0
 10
12.5449
 20
8.48828
 11
12.5596
 21
8.47949
  0
LINE
  8
0
 10
12.5596
 20
8.47949
 11
12.5732
 21
8.46875
  0
LINE
  8
0
 10
12.5732
 20
8.46875
 11
12.5879
 21
8.45898
  0
LINE
  8
0
 10
12.5879
 20
8.45898
 11
12.6016
 21
8.44824
  0
LINE
  8
0
 10
12.6016
 20
8.44824
 11
12.6152
 21
8.43848
  0
LINE
  8
0
 10
12.6152
 20
8.43848
 11
12.6289
 21
8.42676
  0
LINE
  8
0
 10
12.6289
 20
8.42676
 11
12.6426
 21
8.41602
  0
LINE
  8
0
 10
12.6426
 20
8.41602
 11
12.6562
 21
8.4043
  0
LINE
  8
0
 10
12.6562
 20
8.4043
 11
12.6689
 21
8.39355
  0
LINE
  8
0
 10
12.6689
 20
8.39355
 11
12.6816
 21
8.38184
  0
LINE
  8
0
 10
12.6816
 20
8.38184
 11
12.6943
 21
8.36914
  0
LINE
  8
0
 10
12.6943
 20
8.36914
 11
12.707
 21
8.35742
  0
LINE
  8
0
 10
12.707
 20
8.35742
 11
12.7197
 21
8.34473
  0
LINE
  8
0
 10
12.7197
 20
8.34473
 11
12.7432
 21
8.31934
  0
LINE
  8
0
 10
12.7432
 20
8.31934
 11
12.7549
 21
8.30566
  0
LINE
  8
0
 10
12.7549
 20
8.30566
 11
12.7656
 21
8.29297
  0
LINE
  8
0
 10
12.7656
 20
8.29297
 11
12.7773
 21
8.2793
  0
LINE
  8
0
 10
12.7773
 20
8.2793
 11
12.7988
 21
8.25195
  0
LINE
  8
0
 10
12.7988
 20
8.25195
 11
12.8086
 21
8.2373
  0
LINE
  8
0
 10
12.8086
 20
8.2373
 11
12.8193
 21
8.22363
  0
LINE
  8
0
 10
12.8193
 20
8.22363
 11
12.8389
 21
8.19434
  0
LINE
  8
0
 10
12.8389
 20
8.19434
 11
12.8477
 21
8.17969
  0
LINE
  8
0
 10
12.8477
 20
8.17969
 11
12.8574
 21
8.16504
  0
LINE
  8
0
 10
12.8574
 20
8.16504
 11
12.8662
 21
8.15039
  0
LINE
  8
0
 10
12.8662
 20
8.15039
 11
12.875
 21
8.13477
  0
LINE
  8
0
 10
12.875
 20
8.13477
 11
12.9062
 21
8.07227
  0
LINE
  8
0
 10
12.9062
 20
8.07227
 11
12.9131
 21
8.05664
  0
LINE
  8
0
 10
12.9131
 20
8.05664
 11
12.9209
 21
8.04102
  0
LINE
  8
0
 10
12.9209
 20
8.04102
 11
12.9268
 21
8.02441
  0
LINE
  8
0
 10
12.9268
 20
8.02441
 11
12.9336
 21
8.00879
  0
LINE
  8
0
 10
12.9336
 20
8.00879
 11
12.9512
 21
7.95898
  0
LINE
  8
0
 10
12.9512
 20
7.95898
 11
12.9658
 21
7.90918
  0
LINE
  8
0
 10
12.9658
 20
7.90918
 11
12.9707
 21
7.8916
  0
LINE
  8
0
 10
12.9707
 20
7.8916
 11
12.9785
 21
7.8584
  0
LINE
  8
0
 10
12.9785
 20
7.8584
 11
12.9844
 21
7.82324
  0
LINE
  8
0
 10
12.9844
 20
7.82324
 11
12.9873
 21
7.80664
  0
LINE
  8
0
 10
12.9873
 20
7.80664
 11
12.9902
 21
7.78906
  0
LINE
  8
0
 10
12.9902
 20
7.78906
 11
12.9922
 21
7.77148
  0
LINE
  8
0
 10
12.9922
 20
7.77148
 11
12.9941
 21
7.75488
  0
LINE
  8
0
 10
12.9941
 20
7.75488
 11
12.998
 21
7.71973
  0
LINE
  8
0
 10
12.998
 20
7.71973
 11
12.999
 21
7.70215
  0
LINE
  8
0
 10
12.999
 20
7.70215
 11
12.999
 21
7.68457
  0
LINE
  8
0
 10
12.999
 20
7.68457
 11
13
 21
7.66699
  0
LINE
  8
0
 10
13
 20
7.66699
 11
13
 21
5.93262
  0
LINE
  8
0
 10
13
 20
5.93262
 11
12.999
 21
5.91504
  0
LINE
  8
0
 10
12.999
 20
5.91504
 11
12.999
 21
5.89746
  0
LINE
  8
0
 10
12.999
 20
5.89746
 11
12.998
 21
5.87988
  0
LINE
  8
0
 10
12.998
 20
5.87988
 11
12.9961
 21
5.86328
  0
LINE
  8
0
 10
12.9961
 20
5.86328
 11
12.9902
 21
5.81055
  0
LINE
  8
0
 10
12.9902
 20
5.81055
 11
12.9873
 21
5.79395
  0
LINE
  8
0
 10
12.9873
 20
5.79395
 11
12.9814
 21
5.75879
  0
LINE
  8
0
 10
12.9814
 20
5.75879
 11
12.9785
 21
5.74219
  0
LINE
  8
0
 10
12.9785
 20
5.74219
 11
12.9746
 21
5.72461
  0
LINE
  8
0
 10
12.9746
 20
5.72461
 11
12.9707
 21
5.70801
  0
LINE
  8
0
 10
12.9707
 20
5.70801
 11
12.9609
 21
5.6748
  0
LINE
  8
0
 10
12.9609
 20
5.6748
 11
12.9561
 21
5.65723
  0
LINE
  8
0
 10
12.9561
 20
5.65723
 11
12.9512
 21
5.64062
  0
LINE
  8
0
 10
12.9512
 20
5.64062
 11
12.9453
 21
5.62402
  0
LINE
  8
0
 10
12.9453
 20
5.62402
 11
12.9395
 21
5.6084
  0
LINE
  8
0
 10
12.9395
 20
5.6084
 11
12.9336
 21
5.5918
  0
LINE
  8
0
 10
12.9336
 20
5.5918
 11
12.9268
 21
5.5752
  0
LINE
  8
0
 10
12.9268
 20
5.5752
 11
12.9209
 21
5.55957
  0
LINE
  8
0
 10
12.9209
 20
5.55957
 11
12.9131
 21
5.54297
  0
LINE
  8
0
 10
12.9131
 20
5.54297
 11
12.9062
 21
5.52734
  0
LINE
  8
0
 10
12.9062
 20
5.52734
 11
12.875
 21
5.46484
  0
LINE
  8
0
 10
12.875
 20
5.46484
 11
12.8662
 21
5.4502
  0
LINE
  8
0
 10
12.8662
 20
5.4502
 11
12.8574
 21
5.43457
  0
LINE
  8
0
 10
12.8574
 20
5.43457
 11
12.8477
 21
5.41992
  0
LINE
  8
0
 10
12.8477
 20
5.41992
 11
12.8389
 21
5.40527
  0
LINE
  8
0
 10
12.8389
 20
5.40527
 11
12.8193
 21
5.37598
  0
LINE
  8
0
 10
12.8193
 20
5.37598
 11
12.8086
 21
5.3623
  0
LINE
  8
0
 10
12.8086
 20
5.3623
 11
12.7988
 21
5.34863
  0
LINE
  8
0
 10
12.7988
 20
5.34863
 11
12.7881
 21
5.33398
  0
LINE
  8
0
 10
12.7881
 20
5.33398
 11
12.7773
 21
5.32031
  0
LINE
  8
0
 10
12.7773
 20
5.32031
 11
12.7656
 21
5.30762
  0
LINE
  8
0
 10
12.7656
 20
5.30762
 11
12.7549
 21
5.29395
  0
LINE
  8
0
 10
12.7549
 20
5.29395
 11
12.7432
 21
5.28125
  0
LINE
  8
0
 10
12.7432
 20
5.28125
 11
12.7314
 21
5.26758
  0
LINE
  8
0
 10
12.7314
 20
5.26758
 11
12.7197
 21
5.25488
  0
LINE
  8
0
 10
12.7197
 20
5.25488
 11
12.707
 21
5.24316
  0
LINE
  8
0
 10
12.707
 20
5.24316
 11
12.6943
 21
5.23047
  0
LINE
  8
0
 10
12.6943
 20
5.23047
 11
12.6562
 21
5.19531
  0
LINE
  8
0
 10
12.6562
 20
5.19531
 11
12.6426
 21
5.18359
  0
LINE
  8
0
 10
12.6426
 20
5.18359
 11
12.5879
 21
5.14062
  0
LINE
  8
0
 10
12.5879
 20
5.14062
 11
12.5732
 21
5.13086
  0
LINE
  8
0
 10
12.5732
 20
5.13086
 11
12.5596
 21
5.12109
  0
LINE
  8
0
 10
12.5596
 20
5.12109
 11
12.5303
 21
5.10156
  0
LINE
  8
0
 10
12.5303
 20
5.10156
 11
12.5146
 21
5.09277
  0
LINE
  8
0
 10
12.5146
 20
5.09277
 11
12.5
 21
5.08398
  0
LINE
  8
0
 10
12.5
 20
5.08398
 11
12.4844
 21
5.0752
  0
LINE
  8
0
 10
12.4844
 20
5.0752
 11
12.4697
 21
5.06738
  0
LINE
  8
0
 10
12.4697
 20
5.06738
 11
12.4541
 21
5.05859
  0
LINE
  8
0
 10
12.4541
 20
5.05859
 11
12.4385
 21
5.05078
  0
LINE
  8
0
 10
12.4385
 20
5.05078
 11
12.4229
 21
5.04395
  0
LINE
  8
0
 10
12.4229
 20
5.04395
 11
12.4062
 21
5.03613
  0
LINE
  8
0
 10
12.4062
 20
5.03613
 11
12.375
 21
5.02246
  0
LINE
  8
0
 10
12.375
 20
5.02246
 11
12.3086
 21
4.99902
  0
LINE
  8
0
 10
12.3086
 20
4.99902
 11
12.292
 21
4.99414
  0
LINE
  8
0
 10
12.292
 20
4.99414
 11
12.2754
 21
4.98828
  0
LINE
  8
0
 10
12.2754
 20
4.98828
 11
12.2588
 21
4.98438
  0
LINE
  8
0
 10
12.2588
 20
4.98438
 11
12.2422
 21
4.97949
  0
LINE
  8
0
 10
12.2422
 20
4.97949
 11
12.2246
 21
4.97559
  0
LINE
  8
0
 10
12.2246
 20
4.97559
 11
12.208
 21
4.97168
  0
LINE
  8
0
 10
12.208
 20
4.97168
 11
12.1904
 21
4.96875
  0
LINE
  8
0
 10
12.1904
 20
4.96875
 11
12.1738
 21
4.96484
  0
LINE
  8
0
 10
12.1738
 20
4.96484
 11
12.1562
 21
4.96191
  0
LINE
  8
0
 10
12.1562
 20
4.96191
 11
12.1396
 21
4.95996
  0
LINE
  8
0
 10
12.1396
 20
4.95996
 11
12.1221
 21
4.95703
  0
LINE
  8
0
 10
12.1221
 20
4.95703
 11
12.1045
 21
4.95508
  0
LINE
  8
0
 10
12.1045
 20
4.95508
 11
12.0869
 21
4.9541
  0
LINE
  8
0
 10
12.0869
 20
4.9541
 11
12.0693
 21
4.95215
  0
LINE
  8
0
 10
12.0693
 20
4.95215
 11
12.0527
 21
4.95117
  0
LINE
  8
0
 10
12.0527
 20
4.95117
 11
12.0352
 21
4.9502
  0
LINE
  8
0
 10
12.0352
 20
4.9502
 11
0.982422
 21
4.9502
  0
LINE
  8
0
 10
0.982422
 20
4.9502
 11
0.947266
 21
4.94824
  0
LINE
  8
0
 10
0.947266
 20
4.94824
 11
0.930664
 21
4.94727
  0
LINE
  8
0
 10
0.930664
 20
4.94727
 11
0.913086
 21
4.94629
  0
LINE
  8
0
 10
0.913086
 20
4.94629
 11
0.860352
 21
4.94043
  0
LINE
  8
0
 10
0.860352
 20
4.94043
 11
0.84375
 21
4.9375
  0
LINE
  8
0
 10
0.84375
 20
4.9375
 11
0.826172
 21
4.93457
  0
LINE
  8
0
 10
0.826172
 20
4.93457
 11
0.80957
 21
4.93164
  0
LINE
  8
0
 10
0.80957
 20
4.93164
 11
0.791992
 21
4.92773
  0
LINE
  8
0
 10
0.791992
 20
4.92773
 11
0.775391
 21
4.9248
  0
LINE
  8
0
 10
0.775391
 20
4.9248
 11
0.757812
 21
4.91992
  0
LINE
  8
0
 10
0.757812
 20
4.91992
 11
0.741211
 21
4.91602
  0
LINE
  8
0
 10
0.741211
 20
4.91602
 11
0.691406
 21
4.90137
  0
LINE
  8
0
 10
0.691406
 20
4.90137
 11
0.641602
 21
4.88379
  0
LINE
  8
0
 10
0.641602
 20
4.88379
 11
0.625
 21
4.87695
  0
LINE
  8
0
 10
0.625
 20
4.87695
 11
0.59375
 21
4.86328
  0
LINE
  8
0
 10
0.59375
 20
4.86328
 11
0.577148
 21
4.85645
  0
LINE
  8
0
 10
0.577148
 20
4.85645
 11
0.530273
 21
4.83301
  0
LINE
  8
0
 10
0.530273
 20
4.83301
 11
0.515625
 21
4.82422
  0
LINE
  8
0
 10
0.515625
 20
4.82422
 11
0.5
 21
4.81641
  0
LINE
  8
0
 10
0.5
 20
4.81641
 11
0.485352
 21
4.80762
  0
LINE
  8
0
 10
0.485352
 20
4.80762
 11
0.469727
 21
4.79785
  0
LINE
  8
0
 10
0.469727
 20
4.79785
 11
0.455078
 21
4.78906
  0
LINE
  8
0
 10
0.455078
 20
4.78906
 11
0.44043
 21
4.7793
  0
LINE
  8
0
 10
0.44043
 20
4.7793
 11
0.426758
 21
4.76953
  0
LINE
  8
0
 10
0.426758
 20
4.76953
 11
0.412109
 21
4.75879
  0
LINE
  8
0
 10
0.412109
 20
4.75879
 11
0.398438
 21
4.74902
  0
LINE
  8
0
 10
0.398438
 20
4.74902
 11
0.371094
 21
4.72754
  0
LINE
  8
0
 10
0.371094
 20
4.72754
 11
0.357422
 21
4.71582
  0
LINE
  8
0
 10
0.357422
 20
4.71582
 11
0.34375
 21
4.70508
  0
LINE
  8
0
 10
0.34375
 20
4.70508
 11
0.318359
 21
4.68164
  0
LINE
  8
0
 10
0.318359
 20
4.68164
 11
0.305664
 21
4.66895
  0
LINE
  8
0
 10
0.305664
 20
4.66895
 11
0.292969
 21
4.65723
  0
LINE
  8
0
 10
0.292969
 20
4.65723
 11
0.280273
 21
4.64453
  0
LINE
  8
0
 10
0.280273
 20
4.64453
 11
0.245117
 21
4.60645
  0
LINE
  8
0
 10
0.245117
 20
4.60645
 11
0.234375
 21
4.59277
  0
LINE
  8
0
 10
0.234375
 20
4.59277
 11
0.222656
 21
4.5791
  0
LINE
  8
0
 10
0.222656
 20
4.5791
 11
0.201172
 21
4.55176
  0
LINE
  8
0
 10
0.201172
 20
4.55176
 11
0.191406
 21
4.53809
  0
LINE
  8
0
 10
0.191406
 20
4.53809
 11
0.180664
 21
4.52344
  0
LINE
  8
0
 10
0.180664
 20
4.52344
 11
0.170898
 21
4.50879
  0
LINE
  8
0
 10
0.170898
 20
4.50879
 11
0.161133
 21
4.49512
  0
LINE
  8
0
 10
0.161133
 20
4.49512
 11
0.152344
 21
4.47949
  0
LINE
  8
0
 10
0.152344
 20
4.47949
 11
0.142578
 21
4.46484
  0
LINE
  8
0
 10
0.142578
 20
4.46484
 11
0.133789
 21
4.4502
  0
LINE
  8
0
 10
0.133789
 20
4.4502
 11
0.125
 21
4.43457
  0
LINE
  8
0
 10
0.125
 20
4.43457
 11
0.117188
 21
4.41992
  0
LINE
  8
0
 10
0.117188
 20
4.41992
 11
0.09375
 21
4.37305
  0
LINE
  8
0
 10
0.09375
 20
4.37305
 11
0.0869141
 21
4.35645
  0
LINE
  8
0
 10
0.0869141
 20
4.35645
 11
0.0791016
 21
4.34082
  0
LINE
  8
0
 10
0.0791016
 20
4.34082
 11
0.0732422
 21
4.32422
  0
LINE
  8
0
 10
0.0732422
 20
4.32422
 11
0.0664062
 21
4.30859
  0
LINE
  8
0
 10
0.0664062
 20
4.30859
 11
0.0488281
 21
4.25879
  0
LINE
  8
0
 10
0.0488281
 20
4.25879
 11
0.0292969
 21
4.19238
  0
LINE
  8
0
 10
0.0292969
 20
4.19238
 11
0.0253906
 21
4.1748
  0
LINE
  8
0
 10
0.0253906
 20
4.1748
 11
0.0214844
 21
4.1582
  0
LINE
  8
0
 10
0.0214844
 20
4.1582
 11
0.0185547
 21
4.14062
  0
LINE
  8
0
 10
0.0185547
 20
4.14062
 11
0.015625
 21
4.12402
  0
LINE
  8
0
 10
0.015625
 20
4.12402
 11
0.00976562
 21
4.08887
  0
LINE
  8
0
 10
0.00976562
 20
4.08887
 11
0.0078125
 21
4.07227
  0
LINE
  8
0
 10
0.0078125
 20
4.07227
 11
0.00195312
 21
4.01953
  0
LINE
  8
0
 10
0.00195312
 20
4.01953
 11
0.000976562
 21
4.00195
  0
LINE
  8
0
 10
0.000976562
 20
4.00195
 11
0.000976562
 21
3.98535
  0
LINE
  8
0
 10
0.000976562
 20
3.98535
 11
0
 21
3.96777
  0
LINE
  8
0
 10
0
 20
3.96777
 11
0
 21
0.982422
  0
LINE
  8
0
 10
0
 20
0.982422
 11
0.000976562
 21
0.964844
  0
LINE
  8
0
 10
0.000976562
 20
0.964844
 11
0.000976562
 21
0.947266
  0
LINE
  8
0
 10
0.000976562
 20
0.947266
 11
0.00195312
 21
0.930664
  0
LINE
  8
0
 10
0.00195312
 20
0.930664
 11
0.00976562
 21
0.860352
  0
LINE
  8
0
 10
0.00976562
 20
0.860352
 11
0.0126953
 21
0.84375
  0
LINE
  8
0
 10
0.0126953
 20
0.84375
 11
0.015625
 21
0.826172
  0
LINE
  8
0
 10
0.015625
 20
0.826172
 11
0.0185547
 21
0.80957
  0
LINE
  8
0
 10
0.0185547
 20
0.80957
 11
0.0214844
 21
0.791992
  0
LINE
  8
0
 10
0.0214844
 20
0.791992
 11
0.0253906
 21
0.775391
  0
LINE
  8
0
 10
0.0253906
 20
0.775391
 11
0.0292969
 21
0.757812
  0
LINE
  8
0
 10
0.0292969
 20
0.757812
 11
0.0488281
 21
0.691406
  0
LINE
  8
0
 10
0.0488281
 20
0.691406
 11
0.0664062
 21
0.641602
  0
LINE
  8
0
 10
0.0664062
 20
0.641602
 11
0.0732422
 21
0.625
  0
LINE
  8
0
 10
0.0732422
 20
0.625
 11
0.0791016
 21
0.609375
  0
LINE
  8
0
 10
0.0791016
 20
0.609375
 11
0.0869141
 21
0.59375
  0
LINE
  8
0
 10
0.0869141
 20
0.59375
 11
0.09375
 21
0.577148
  0
LINE
  8
0
 10
0.09375
 20
0.577148
 11
0.117188
 21
0.530273
  0
LINE
  8
0
 10
0.117188
 20
0.530273
 11
0.125
 21
0.515625
  0
LINE
  8
0
 10
0.125
 20
0.515625
 11
0.133789
 21
0.5
  0
LINE
  8
0
 10
0.133789
 20
0.5
 11
0.142578
 21
0.485352
  0
LINE
  8
0
 10
0.142578
 20
0.485352
 11
0.152344
 21
0.469727
  0
LINE
  8
0
 10
0.152344
 20
0.469727
 11
0.161133
 21
0.455078
  0
LINE
  8
0
 10
0.161133
 20
0.455078
 11
0.170898
 21
0.44043
  0
LINE
  8
0
 10
0.170898
 20
0.44043
 11
0.180664
 21
0.426758
  0
LINE
  8
0
 10
0.180664
 20
0.426758
 11
0.191406
 21
0.412109
  0
LINE
  8
0
 10
0.191406
 20
0.412109
 11
0.201172
 21
0.398438
  0
LINE
  8
0
 10
0.201172
 20
0.398438
 11
0.222656
 21
0.371094
  0
LINE
  8
0
 10
0.222656
 20
0.371094
 11
0.234375
 21
0.357422
  0
LINE
  8
0
 10
0.234375
 20
0.357422
 11
0.245117
 21
0.34375
  0
LINE
  8
0
 10
0.245117
 20
0.34375
 11
0.280273
 21
0.305664
  0
LINE
  8
0
 10
0.280273
 20
0.305664
 11
0.305664
 21
0.280273
  0
LINE
  8
0
 10
0.305664
 20
0.280273
 11
0.34375
 21
0.245117
  0
LINE
  8
0
 10
0.34375
 20
0.245117
 11
0.357422
 21
0.234375
  0
LINE
  8
0
 10
0.357422
 20
0.234375
 11
0.371094
 21
0.222656
  0
LINE
  8
0
 10
0.371094
 20
0.222656
 11
0.398438
 21
0.201172
  0
LINE
  8
0
 10
0.398438
 20
0.201172
 11
0.412109
 21
0.191406
  0
LINE
  8
0
 10
0.412109
 20
0.191406
 11
0.426758
 21
0.180664
  0
LINE
  8
0
 10
0.426758
 20
0.180664
 11
0.44043
 21
0.170898
  0
LINE
  8
0
 10
0.44043
 20
0.170898
 11
0.455078
 21
0.161133
  0
LINE
  8
0
 10
0.455078
 20
0.161133
 11
0.469727
 21
0.152344
  0
LINE
  8
0
 10
0.469727
 20
0.152344
 11
0.485352
 21
0.142578
  0
LINE
  8
0
 10
0.485352
 20
0.142578
 11
0.5
 21
0.133789
  0
LINE
  8
0
 10
0.5
 20
0.133789
 11
0.515625
 21
0.125
  0
LINE
  8
0
 10
0.515625
 20
0.125
 11
0.530273
 21
0.117188
  0
LINE
  8
0
 10
0.530273
 20
0.117188
 11
0.577148
 21
0.09375
  0
LINE
  8
0
 10
0.577148
 20
0.09375
 11
0.59375
 21
0.0869141
  0
LINE
  8
0
 10
0.59375
 20
0.0869141
 11
0.609375
 21
0.0791016
  0
LINE
  8
0
 10
0.609375
 20
0.0791016
 11
0.625
 21
0.0732422
  0
LINE
  8
0
 10
0.625
 20
0.0732422
 11
0.641602
 21
0.0664062
  0
LINE
  8
0
 10
0.641602
 20
0.0664062
 11
0.691406
 21
0.0488281
  0
LINE
  8
0
 10
0.691406
 20
0.0488281
 11
0.757812
 21
0.0292969
  0
LINE
  8
0
 10
0.757812
 20
0.0292969
 11
0.775391
 21
0.0253906
  0
LINE
  8
0
 10
0.775391
 20
0.0253906
 11
0.791992
 21
0.0214844
  0
LINE
  8
0
 10
0.791992
 20
0.0214844
 11
0.80957
 21
0.0185547
  0
LINE
  8
0
 10
0.80957
 20
0.0185547
 11
0.826172
 21
0.015625
  0
LINE
  8
0
 10
0.826172
 20
0.015625
 11
0.84375
 21
0.0126953
  0
LINE
  8
0
 10
0.84375
 20
0.0126953
 11
0.860352
 21
0.00976562
  0
LINE
  8
0
 10
0.860352
 20
0.00976562
 11
0.930664
 21
0.00195312
  0
LINE
  8
0
 10
0.930664
 20
0.00195312
 11
0.947266
 21
0.000976562
  0
LINE
  8
0
 10
0.947266
 20
0.000976562
 11
0.964844
 21
0.000976562
  0
LINE
  8
0
 10
0.964844
 20
0.000976562
 11
0.982422
 21
0
  0
LINE
  8
0
 10
0.982422
 20
0
 11
16.0352
 21
0
  0
LINE
  8
0
 10
16.0352
 20
0
 11
16.0693
 21
0.000976562
  0
LINE
  8
0
 10
34.7314
 20
26.5
 11
34.7148
 21
26.501
  0
LINE
  8
0
 10
34.7148
 20
26.501
 11
34.6973
 21
26.501
  0
LINE
  8
0
 10
34.6973
 20
26.501
 11
34.6797
 21
26.502
  0
LINE
  8
0
 10
34.6797
 20
26.502
 11
34.6445
 21
26.5059
  0
LINE
  8
0
 10
34.6445
 20
26.5059
 11
34.6279
 21
26.5078
  0
LINE
  8
0
 10
34.6279
 20
26.5078
 11
34.6104
 21
26.5098
  0
LINE
  8
0
 10
34.6104
 20
26.5098
 11
34.5752
 21
26.5156
  0
LINE
  8
0
 10
34.5752
 20
26.5156
 11
34.5586
 21
26.5186
  0
LINE
  8
0
 10
34.5586
 20
26.5186
 11
34.541
 21
26.5215
  0
LINE
  8
0
 10
34.541
 20
26.5215
 11
34.5078
 21
26.5293
  0
LINE
  8
0
 10
34.5078
 20
26.5293
 11
34.4902
 21
26.5342
  0
LINE
  8
0
 10
34.4902
 20
26.5342
 11
34.4404
 21
26.5488
  0
LINE
  8
0
 10
34.4404
 20
26.5488
 11
34.3906
 21
26.5664
  0
LINE
  8
0
 10
34.3906
 20
26.5664
 11
34.375
 21
26.5732
  0
LINE
  8
0
 10
34.375
 20
26.5732
 11
34.3584
 21
26.5791
  0
LINE
  8
0
 10
34.3584
 20
26.5791
 11
34.3428
 21
26.5869
  0
LINE
  8
0
 10
34.3428
 20
26.5869
 11
34.3271
 21
26.5938
  0
LINE
  8
0
 10
34.3271
 20
26.5938
 11
34.3105
 21
26.6016
  0
LINE
  8
0
 10
34.3105
 20
26.6016
 11
34.2949
 21
26.6094
  0
LINE
  8
0
 10
34.2949
 20
26.6094
 11
34.2803
 21
26.6172
  0
LINE
  8
0
 10
34.2803
 20
26.6172
 11
34.2646
 21
26.625
  0
LINE
  8
0
 10
34.2646
 20
26.625
 11
34.249
 21
26.6338
  0
LINE
  8
0
 10
34.249
 20
26.6338
 11
34.2344
 21
26.6426
  0
LINE
  8
0
 10
34.2344
 20
26.6426
 11
34.2197
 21
26.6523
  0
LINE
  8
0
 10
34.2197
 20
26.6523
 11
34.2051
 21
26.6611
  0
LINE
  8
0
 10
34.2051
 20
26.6611
 11
34.1758
 21
26.6807
  0
LINE
  8
0
 10
34.1758
 20
26.6807
 11
34.1611
 21
26.6914
  0
LINE
  8
0
 10
34.1611
 20
26.6914
 11
34.1475
 21
26.7012
  0
LINE
  8
0
 10
34.1475
 20
26.7012
 11
34.1201
 21
26.7227
  0
LINE
  8
0
 10
34.1201
 20
26.7227
 11
34.1064
 21
26.7344
  0
LINE
  8
0
 10
34.1064
 20
26.7344
 11
34.0938
 21
26.7451
  0
LINE
  8
0
 10
34.0938
 20
26.7451
 11
34.0801
 21
26.7568
  0
LINE
  8
0
 10
34.0801
 20
26.7568
 11
34.0547
 21
26.7803
  0
LINE
  8
0
 10
34.0547
 20
26.7803
 11
34.042
 21
26.793
  0
LINE
  8
0
 10
34.042
 20
26.793
 11
34.0303
 21
26.8057
  0
LINE
  8
0
 10
34.0303
 20
26.8057
 11
34.0176
 21
26.8184
  0
LINE
  8
0
 10
34.0176
 20
26.8184
 11
33.9941
 21
26.8438
  0
LINE
  8
0
 10
33.9941
 20
26.8438
 11
33.9727
 21
26.8711
  0
LINE
  8
0
 10
33.9727
 20
26.8711
 11
33.9609
 21
26.8848
  0
LINE
  8
0
 10
33.9609
 20
26.8848
 11
33.9512
 21
26.8984
  0
LINE
  8
0
 10
33.9512
 20
26.8984
 11
33.9404
 21
26.9121
  0
LINE
  8
0
 10
33.9404
 20
26.9121
 11
33.9307
 21
26.9268
  0
LINE
  8
0
 10
33.9307
 20
26.9268
 11
33.9199
 21
26.9404
  0
LINE
  8
0
 10
33.9199
 20
26.9404
 11
33.9111
 21
26.9551
  0
LINE
  8
0
 10
33.9111
 20
26.9551
 11
33.9014
 21
26.9697
  0
LINE
  8
0
 10
33.9014
 20
26.9697
 11
33.8926
 21
26.9854
  0
LINE
  8
0
 10
33.8926
 20
26.9854
 11
33.8838
 21
27
  0
LINE
  8
0
 10
33.8838
 20
27
 11
33.875
 21
27.0156
  0
LINE
  8
0
 10
33.875
 20
27.0156
 11
33.8662
 21
27.0303
  0
LINE
  8
0
 10
33.8662
 20
27.0303
 11
33.8428
 21
27.0771
  0
LINE
  8
0
 10
33.8428
 20
27.0771
 11
33.8359
 21
27.0938
  0
LINE
  8
0
 10
33.8359
 20
27.0938
 11
33.8223
 21
27.125
  0
LINE
  8
0
 10
33.8223
 20
27.125
 11
33.8154
 21
27.1416
  0
LINE
  8
0
 10
33.8154
 20
27.1416
 11
33.7979
 21
27.1914
  0
LINE
  8
0
 10
33.7979
 20
27.1914
 11
33.7832
 21
27.2412
  0
LINE
  8
0
 10
33.7832
 20
27.2412
 11
33.7793
 21
27.2578
  0
LINE
  8
0
 10
33.7793
 20
27.2578
 11
33.7754
 21
27.2754
  0
LINE
  8
0
 10
33.7754
 20
27.2754
 11
33.7715
 21
27.292
  0
LINE
  8
0
 10
33.7715
 20
27.292
 11
33.7676
 21
27.3096
  0
LINE
  8
0
 10
33.7676
 20
27.3096
 11
33.7646
 21
27.3262
  0
LINE
  8
0
 10
33.7646
 20
27.3262
 11
33.7617
 21
27.3438
  0
LINE
  8
0
 10
33.7617
 20
27.3438
 11
33.7588
 21
27.3604
  0
LINE
  8
0
 10
33.7588
 20
27.3604
 11
33.7529
 21
27.4131
  0
LINE
  8
0
 10
33.7529
 20
27.4131
 11
33.752
 21
27.4307
  0
LINE
  8
0
 10
33.752
 20
27.4307
 11
33.751
 21
27.4473
  0
LINE
  8
0
 10
33.751
 20
27.4473
 11
33.749
 21
27.4824
  0
LINE
  8
0
 10
33.749
 20
27.4824
 11
33.751
 21
31.5176
  0
LINE
  8
0
 10
33.751
 20
31.5176
 11
33.752
 21
31.5352
  0
LINE
  8
0
 10
33.752
 20
31.5352
 11
33.752
 21
31.5527
  0
LINE
  8
0
 10
33.752
 20
31.5527
 11
33.7539
 21
31.5693
  0
LINE
  8
0
 10
33.7539
 20
31.5693
 11
33.7549
 21
31.5869
  0
LINE
  8
0
 10
33.7549
 20
31.5869
 11
33.7588
 21
31.6221
  0
LINE
  8
0
 10
33.7588
 20
31.6221
 11
33.7607
 21
31.6387
  0
LINE
  8
0
 10
33.7607
 20
31.6387
 11
33.7666
 21
31.6738
  0
LINE
  8
0
 10
33.7666
 20
31.6738
 11
33.7695
 21
31.6904
  0
LINE
  8
0
 10
33.7695
 20
31.6904
 11
33.7725
 21
31.708
  0
LINE
  8
0
 10
33.7725
 20
31.708
 11
33.7764
 21
31.7246
  0
LINE
  8
0
 10
33.7764
 20
31.7246
 11
33.7803
 21
31.7422
  0
LINE
  8
0
 10
33.7803
 20
31.7422
 11
33.7998
 21
31.8086
  0
LINE
  8
0
 10
33.7998
 20
31.8086
 11
33.8174
 21
31.8584
  0
LINE
  8
0
 10
33.8174
 20
31.8584
 11
33.8242
 21
31.875
  0
LINE
  8
0
 10
33.8242
 20
31.875
 11
33.8301
 21
31.8906
  0
LINE
  8
0
 10
33.8301
 20
31.8906
 11
33.8379
 21
31.9062
  0
LINE
  8
0
 10
33.8379
 20
31.9062
 11
33.8447
 21
31.9229
  0
LINE
  8
0
 10
33.8447
 20
31.9229
 11
33.8682
 21
31.9697
  0
LINE
  8
0
 10
33.8682
 20
31.9697
 11
33.876
 21
31.9844
  0
LINE
  8
0
 10
33.876
 20
31.9844
 11
33.8848
 21
32
  0
LINE
  8
0
 10
33.8848
 20
32
 11
33.8936
 21
32.0146
  0
LINE
  8
0
 10
33.8936
 20
32.0146
 11
33.9033
 21
32.0303
  0
LINE
  8
0
 10
33.9033
 20
32.0303
 11
33.9121
 21
32.0449
  0
LINE
  8
0
 10
33.9121
 20
32.0449
 11
33.9219
 21
32.0596
  0
LINE
  8
0
 10
33.9219
 20
32.0596
 11
33.9316
 21
32.0732
  0
LINE
  8
0
 10
33.9316
 20
32.0732
 11
33.9424
 21
32.0879
  0
LINE
  8
0
 10
33.9424
 20
32.0879
 11
33.9521
 21
32.1016
  0
LINE
  8
0
 10
33.9521
 20
32.1016
 11
33.9736
 21
32.1289
  0
LINE
  8
0
 10
33.9736
 20
32.1289
 11
33.9854
 21
32.1426
  0
LINE
  8
0
 10
33.9854
 20
32.1426
 11
33.9961
 21
32.1562
  0
LINE
  8
0
 10
33.9961
 20
32.1562
 11
34.0312
 21
32.1943
  0
LINE
  8
0
 10
34.0312
 20
32.1943
 11
34.0566
 21
32.2197
  0
LINE
  8
0
 10
34.0566
 20
32.2197
 11
34.0947
 21
32.2549
  0
LINE
  8
0
 10
34.0947
 20
32.2549
 11
34.1084
 21
32.2656
  0
LINE
  8
0
 10
34.1084
 20
32.2656
 11
34.1221
 21
32.2773
  0
LINE
  8
0
 10
34.1221
 20
32.2773
 11
34.1494
 21
32.2988
  0
LINE
  8
0
 10
34.1494
 20
32.2988
 11
34.1631
 21
32.3086
  0
LINE
  8
0
 10
34.1631
 20
32.3086
 11
34.1777
 21
32.3193
  0
LINE
  8
0
 10
34.1777
 20
32.3193
 11
34.1914
 21
32.3291
  0
LINE
  8
0
 10
34.1914
 20
32.3291
 11
34.2061
 21
32.3389
  0
LINE
  8
0
 10
34.2061
 20
32.3389
 11
34.2207
 21
32.3477
  0
LINE
  8
0
 10
34.2207
 20
32.3477
 11
34.2363
 21
32.3574
  0
LINE
  8
0
 10
34.2363
 20
32.3574
 11
34.251
 21
32.3662
  0
LINE
  8
0
 10
34.251
 20
32.3662
 11
34.2666
 21
32.375
  0
LINE
  8
0
 10
34.2666
 20
32.375
 11
34.2812
 21
32.3828
  0
LINE
  8
0
 10
34.2812
 20
32.3828
 11
34.3281
 21
32.4062
  0
LINE
  8
0
 10
34.3281
 20
32.4062
 11
34.3447
 21
32.4131
  0
LINE
  8
0
 10
34.3447
 20
32.4131
 11
34.3604
 21
32.4209
  0
LINE
  8
0
 10
34.3604
 20
32.4209
 11
34.376
 21
32.4268
  0
LINE
  8
0
 10
34.376
 20
32.4268
 11
34.3926
 21
32.4336
  0
LINE
  8
0
 10
34.3926
 20
32.4336
 11
34.4424
 21
32.4512
  0
LINE
  8
0
 10
34.4424
 20
32.4512
 11
34.5088
 21
32.4707
  0
LINE
  8
0
 10
34.5088
 20
32.4707
 11
34.5264
 21
32.4746
  0
LINE
  8
0
 10
34.5264
 20
32.4746
 11
34.543
 21
32.4785
  0
LINE
  8
0
 10
34.543
 20
32.4785
 11
34.5605
 21
32.4814
  0
LINE
  8
0
 10
34.5605
 20
32.4814
 11
34.5771
 21
32.4844
  0
LINE
  8
0
 10
34.5771
 20
32.4844
 11
34.6123
 21
32.4902
  0
LINE
  8
0
 10
34.6123
 20
32.4902
 11
34.6289
 21
32.4922
  0
LINE
  8
0
 10
34.6289
 20
32.4922
 11
34.6641
 21
32.4961
  0
LINE
  8
0
 10
34.6641
 20
32.4961
 11
34.6816
 21
32.4971
  0
LINE
  8
0
 10
34.6816
 20
32.4971
 11
34.6982
 21
32.499
  0
LINE
  8
0
 10
34.6982
 20
32.499
 11
34.7158
 21
32.499
  0
LINE
  8
0
 10
34.7158
 20
32.499
 11
34.7334
 21
32.5
  0
LINE
  8
0
 10
34.7334
 20
32.5
 11
48.4307
 21
32.5
  0
LINE
  8
0
 10
48.4307
 20
32.5
 11
48.4482
 21
32.499
  0
LINE
  8
0
 10
48.4482
 20
32.499
 11
48.4658
 21
32.499
  0
LINE
  8
0
 10
48.4658
 20
32.499
 11
48.4834
 21
32.498
  0
LINE
  8
0
 10
48.4834
 20
32.498
 11
48.5
 21
32.4961
  0
LINE
  8
0
 10
48.5
 20
32.4961
 11
48.5527
 21
32.4902
  0
LINE
  8
0
 10
48.5527
 20
32.4902
 11
48.5693
 21
32.4873
  0
LINE
  8
0
 10
48.5693
 20
32.4873
 11
48.5869
 21
32.4854
  0
LINE
  8
0
 10
48.5869
 20
32.4854
 11
48.6045
 21
32.4814
  0
LINE
  8
0
 10
48.6045
 20
32.4814
 11
48.6211
 21
32.4785
  0
LINE
  8
0
 10
48.6211
 20
32.4785
 11
48.6387
 21
32.4746
  0
LINE
  8
0
 10
48.6387
 20
32.4746
 11
48.6553
 21
32.4707
  0
LINE
  8
0
 10
48.6553
 20
32.4707
 11
48.6885
 21
32.4609
  0
LINE
  8
0
 10
48.6885
 20
32.4609
 11
48.7061
 21
32.4561
  0
LINE
  8
0
 10
48.7061
 20
32.4561
 11
48.7227
 21
32.4512
  0
LINE
  8
0
 10
48.7227
 20
32.4512
 11
48.7393
 21
32.4453
  0
LINE
  8
0
 10
48.7393
 20
32.4453
 11
48.7549
 21
32.4395
  0
LINE
  8
0
 10
48.7549
 20
32.4395
 11
48.7881
 21
32.4277
  0
LINE
  8
0
 10
48.7881
 20
32.4277
 11
48.8037
 21
32.4209
  0
LINE
  8
0
 10
48.8037
 20
32.4209
 11
48.8203
 21
32.4141
  0
LINE
  8
0
 10
48.8203
 20
32.4141
 11
48.8984
 21
32.375
  0
LINE
  8
0
 10
48.8984
 20
32.375
 11
48.9131
 21
32.3662
  0
LINE
  8
0
 10
48.9131
 20
32.3662
 11
48.9287
 21
32.3574
  0
LINE
  8
0
 10
48.9287
 20
32.3574
 11
48.9434
 21
32.3486
  0
LINE
  8
0
 10
48.9434
 20
32.3486
 11
48.9873
 21
32.3193
  0
LINE
  8
0
 10
48.9873
 20
32.3193
 11
49.001
 21
32.3096
  0
LINE
  8
0
 10
49.001
 20
32.3096
 11
49.0146
 21
32.2988
  0
LINE
  8
0
 10
49.0146
 20
32.2988
 11
49.0293
 21
32.2881
  0
LINE
  8
0
 10
49.0293
 20
32.2881
 11
49.043
 21
32.2773
  0
LINE
  8
0
 10
49.043
 20
32.2773
 11
49.0557
 21
32.2666
  0
LINE
  8
0
 10
49.0557
 20
32.2666
 11
49.0693
 21
32.2549
  0
LINE
  8
0
 10
49.0693
 20
32.2549
 11
49.082
 21
32.2432
  0
LINE
  8
0
 10
49.082
 20
32.2432
 11
49.0957
 21
32.2314
  0
LINE
  8
0
 10
49.0957
 20
32.2314
 11
49.1084
 21
32.2197
  0
LINE
  8
0
 10
49.1084
 20
32.2197
 11
49.1201
 21
32.207
  0
LINE
  8
0
 10
49.1201
 20
32.207
 11
49.1328
 21
32.1943
  0
LINE
  8
0
 10
49.1328
 20
32.1943
 11
49.168
 21
32.1562
  0
LINE
  8
0
 10
49.168
 20
32.1562
 11
49.1797
 21
32.1426
  0
LINE
  8
0
 10
49.1797
 20
32.1426
 11
49.1904
 21
32.1299
  0
LINE
  8
0
 10
49.1904
 20
32.1299
 11
49.2012
 21
32.1162
  0
LINE
  8
0
 10
49.2012
 20
32.1162
 11
49.2119
 21
32.1016
  0
LINE
  8
0
 10
49.2119
 20
32.1016
 11
49.2227
 21
32.0879
  0
LINE
  8
0
 10
49.2227
 20
32.0879
 11
49.2324
 21
32.0732
  0
LINE
  8
0
 10
49.2324
 20
32.0732
 11
49.2422
 21
32.0596
  0
LINE
  8
0
 10
49.2422
 20
32.0596
 11
49.2617
 21
32.0303
  0
LINE
  8
0
 10
49.2617
 20
32.0303
 11
49.2705
 21
32.0156
  0
LINE
  8
0
 10
49.2705
 20
32.0156
 11
49.2793
 21
32
  0
LINE
  8
0
 10
49.2793
 20
32
 11
49.2881
 21
31.9854
  0
LINE
  8
0
 10
49.2881
 20
31.9854
 11
49.2959
 21
31.9697
  0
LINE
  8
0
 10
49.2959
 20
31.9697
 11
49.3047
 21
31.9541
  0
LINE
  8
0
 10
49.3047
 20
31.9541
 11
49.3125
 21
31.9385
  0
LINE
  8
0
 10
49.3125
 20
31.9385
 11
49.3193
 21
31.9229
  0
LINE
  8
0
 10
49.3193
 20
31.9229
 11
49.3271
 21
31.9072
  0
LINE
  8
0
 10
49.3271
 20
31.9072
 11
49.334
 21
31.8906
  0
LINE
  8
0
 10
49.334
 20
31.8906
 11
49.3408
 21
31.875
  0
LINE
  8
0
 10
49.3408
 20
31.875
 11
49.3584
 21
31.8252
  0
LINE
  8
0
 10
49.3584
 20
31.8252
 11
49.3643
 21
31.8096
  0
LINE
  8
0
 10
49.3643
 20
31.8096
 11
49.3691
 21
31.792
  0
LINE
  8
0
 10
49.3691
 20
31.792
 11
49.375
 21
31.7754
  0
LINE
  8
0
 10
49.375
 20
31.7754
 11
49.3789
 21
31.7588
  0
LINE
  8
0
 10
49.3789
 20
31.7588
 11
49.3838
 21
31.7422
  0
LINE
  8
0
 10
49.3838
 20
31.7422
 11
49.3877
 21
31.7246
  0
LINE
  8
0
 10
49.3877
 20
31.7246
 11
49.3916
 21
31.708
  0
LINE
  8
0
 10
49.3916
 20
31.708
 11
49.3945
 21
31.6904
  0
LINE
  8
0
 10
49.3945
 20
31.6904
 11
49.3984
 21
31.6738
  0
LINE
  8
0
 10
49.3984
 20
31.6738
 11
49.4014
 21
31.6562
  0
LINE
  8
0
 10
49.4014
 20
31.6562
 11
49.4033
 21
31.6396
  0
LINE
  8
0
 10
49.4033
 20
31.6396
 11
49.4062
 21
31.6221
  0
LINE
  8
0
 10
49.4062
 20
31.6221
 11
49.4082
 21
31.6045
  0
LINE
  8
0
 10
49.4082
 20
31.6045
 11
49.4092
 21
31.5869
  0
LINE
  8
0
 10
49.4092
 20
31.5869
 11
49.4111
 21
31.5703
  0
LINE
  8
0
 10
49.4111
 20
31.5703
 11
49.4131
 21
31.5352
  0
LINE
  8
0
 10
49.4131
 20
31.5352
 11
49.4131
 21
31.5
  0
LINE
  8
0
 10
49.4131
 20
31.5
 11
49.4082
 21
27.4824
  0
LINE
  8
0
 10
49.4082
 20
27.4824
 11
49.4062
 21
27.4473
  0
LINE
  8
0
 10
49.4062
 20
27.4473
 11
49.4053
 21
27.4307
  0
LINE
  8
0
 10
49.4053
 20
27.4307
 11
49.4043
 21
27.4131
  0
LINE
  8
0
 10
49.4043
 20
27.4131
 11
49.3984
 21
27.3604
  0
LINE
  8
0
 10
49.3984
 20
27.3604
 11
49.3955
 21
27.3438
  0
LINE
  8
0
 10
49.3955
 20
27.3438
 11
49.3926
 21
27.3262
  0
LINE
  8
0
 10
49.3926
 20
27.3262
 11
49.3896
 21
27.3096
  0
LINE
  8
0
 10
49.3896
 20
27.3096
 11
49.3857
 21
27.292
  0
LINE
  8
0
 10
49.3857
 20
27.292
 11
49.3828
 21
27.2754
  0
LINE
  8
0
 10
49.3828
 20
27.2754
 11
49.3779
 21
27.2578
  0
LINE
  8
0
 10
49.3779
 20
27.2578
 11
49.374
 21
27.2412
  0
LINE
  8
0
 10
49.374
 20
27.2412
 11
49.3594
 21
27.1914
  0
LINE
  8
0
 10
49.3594
 20
27.1914
 11
49.3418
 21
27.1416
  0
LINE
  8
0
 10
49.3418
 20
27.1416
 11
49.335
 21
27.125
  0
LINE
  8
0
 10
49.335
 20
27.125
 11
49.3213
 21
27.0938
  0
LINE
  8
0
 10
49.3213
 20
27.0938
 11
49.3145
 21
27.0771
  0
LINE
  8
0
 10
49.3145
 20
27.0771
 11
49.291
 21
27.0303
  0
LINE
  8
0
 10
49.291
 20
27.0303
 11
49.2822
 21
27.0156
  0
LINE
  8
0
 10
49.2822
 20
27.0156
 11
49.2744
 21
27
  0
LINE
  8
0
 10
49.2744
 20
27
 11
49.2656
 21
26.9854
  0
LINE
  8
0
 10
49.2656
 20
26.9854
 11
49.2559
 21
26.9697
  0
LINE
  8
0
 10
49.2559
 20
26.9697
 11
49.2471
 21
26.9551
  0
LINE
  8
0
 10
49.2471
 20
26.9551
 11
49.2373
 21
26.9404
  0
LINE
  8
0
 10
49.2373
 20
26.9404
 11
49.2275
 21
26.9268
  0
LINE
  8
0
 10
49.2275
 20
26.9268
 11
49.2168
 21
26.9121
  0
LINE
  8
0
 10
49.2168
 20
26.9121
 11
49.207
 21
26.8984
  0
LINE
  8
0
 10
49.207
 20
26.8984
 11
49.1855
 21
26.8711
  0
LINE
  8
0
 10
49.1855
 20
26.8711
 11
49.1738
 21
26.8574
  0
LINE
  8
0
 10
49.1738
 20
26.8574
 11
49.1631
 21
26.8438
  0
LINE
  8
0
 10
49.1631
 20
26.8438
 11
49.1396
 21
26.8184
  0
LINE
  8
0
 10
49.1396
 20
26.8184
 11
49.127
 21
26.8057
  0
LINE
  8
0
 10
49.127
 20
26.8057
 11
49.1152
 21
26.793
  0
LINE
  8
0
 10
49.1152
 20
26.793
 11
49.1025
 21
26.7803
  0
LINE
  8
0
 10
49.1025
 20
26.7803
 11
49.0645
 21
26.7451
  0
LINE
  8
0
 10
49.0645
 20
26.7451
 11
49.0508
 21
26.7344
  0
LINE
  8
0
 10
49.0508
 20
26.7344
 11
49.0371
 21
26.7227
  0
LINE
  8
0
 10
49.0371
 20
26.7227
 11
49.0098
 21
26.7012
  0
LINE
  8
0
 10
49.0098
 20
26.7012
 11
48.9961
 21
26.6914
  0
LINE
  8
0
 10
48.9961
 20
26.6914
 11
48.9814
 21
26.6807
  0
LINE
  8
0
 10
48.9814
 20
26.6807
 11
48.9668
 21
26.6709
  0
LINE
  8
0
 10
48.9668
 20
26.6709
 11
48.9531
 21
26.6611
  0
LINE
  8
0
 10
48.9531
 20
26.6611
 11
48.9375
 21
26.6523
  0
LINE
  8
0
 10
48.9375
 20
26.6523
 11
48.9229
 21
26.6426
  0
LINE
  8
0
 10
48.9229
 20
26.6426
 11
48.9082
 21
26.6338
  0
LINE
  8
0
 10
48.9082
 20
26.6338
 11
48.8926
 21
26.625
  0
LINE
  8
0
 10
48.8926
 20
26.625
 11
48.8779
 21
26.6172
  0
LINE
  8
0
 10
48.8779
 20
26.6172
 11
48.8311
 21
26.5938
  0
LINE
  8
0
 10
48.8311
 20
26.5938
 11
48.8145
 21
26.5869
  0
LINE
  8
0
 10
48.8145
 20
26.5869
 11
48.7988
 21
26.5791
  0
LINE
  8
0
 10
48.7988
 20
26.5791
 11
48.7822
 21
26.5732
  0
LINE
  8
0
 10
48.7822
 20
26.5732
 11
48.7666
 21
26.5664
  0
LINE
  8
0
 10
48.7666
 20
26.5664
 11
48.7168
 21
26.5488
  0
LINE
  8
0
 10
48.7168
 20
26.5488
 11
48.6504
 21
26.5293
  0
LINE
  8
0
 10
48.6504
 20
26.5293
 11
48.6328
 21
26.5254
  0
LINE
  8
0
 10
48.6328
 20
26.5254
 11
48.6162
 21
26.5215
  0
LINE
  8
0
 10
48.6162
 20
26.5215
 11
48.5986
 21
26.5186
  0
LINE
  8
0
 10
48.5986
 20
26.5186
 11
48.582
 21
26.5156
  0
LINE
  8
0
 10
48.582
 20
26.5156
 11
48.5469
 21
26.5098
  0
LINE
  8
0
 10
48.5469
 20
26.5098
 11
48.5303
 21
26.5078
  0
LINE
  8
0
 10
48.5303
 20
26.5078
 11
48.4775
 21
26.502
  0
LINE
  8
0
 10
48.4775
 20
26.502
 11
48.46
 21
26.501
  0
LINE
  8
0
 10
48.46
 20
26.501
 11
48.4434
 21
26.501
  0
LINE
  8
0
 10
48.4434
 20
26.501
 11
48.4258
 21
26.5
  0
LINE
  8
0
 10
48.4258
 20
26.5
 11
34.7314
 21
26.5
  0
LINE
  8
0
 10
54.4824
 20
9
 11
54.4648
 21
9.00098
  0
LINE
  8
0
 10
54.4648
 20
9.00098
 11
54.4473
 21
9.00098
  0
LINE
  8
0
 10
54.4473
 20
9.00098
 11
54.4307
 21
9.00195
  0
LINE
  8
0
 10
54.4307
 20
9.00195
 11
54.3604
 21
9.00977
  0
LINE
  8
0
 10
54.3604
 20
9.00977
 11
54.3438
 21
9.0127
  0
LINE
  8
0
 10
54.3438
 20
9.0127
 11
54.3262
 21
9.01562
  0
LINE
  8
0
 10
54.3262
 20
9.01562
 11
54.3096
 21
9.01855
  0
LINE
  8
0
 10
54.3096
 20
9.01855
 11
54.292
 21
9.02148
  0
LINE
  8
0
 10
54.292
 20
9.02148
 11
54.2754
 21
9.02539
  0
LINE
  8
0
 10
54.2754
 20
9.02539
 11
54.2578
 21
9.0293
  0
LINE
  8
0
 10
54.2578
 20
9.0293
 11
54.1914
 21
9.04883
  0
LINE
  8
0
 10
54.1914
 20
9.04883
 11
54.1416
 21
9.06641
  0
LINE
  8
0
 10
54.1416
 20
9.06641
 11
54.125
 21
9.07324
  0
LINE
  8
0
 10
54.125
 20
9.07324
 11
54.1094
 21
9.0791
  0
LINE
  8
0
 10
54.1094
 20
9.0791
 11
54.0938
 21
9.08691
  0
LINE
  8
0
 10
54.0938
 20
9.08691
 11
54.0771
 21
9.09375
  0
LINE
  8
0
 10
54.0771
 20
9.09375
 11
54.0303
 21
9.11719
  0
LINE
  8
0
 10
54.0303
 20
9.11719
 11
54.0156
 21
9.125
  0
LINE
  8
0
 10
54.0156
 20
9.125
 11
54
 21
9.13379
  0
LINE
  8
0
 10
54
 20
9.13379
 11
53.9854
 21
9.14258
  0
LINE
  8
0
 10
53.9854
 20
9.14258
 11
53.9697
 21
9.15234
  0
LINE
  8
0
 10
53.9697
 20
9.15234
 11
53.9551
 21
9.16113
  0
LINE
  8
0
 10
53.9551
 20
9.16113
 11
53.9404
 21
9.1709
  0
LINE
  8
0
 10
53.9404
 20
9.1709
 11
53.9268
 21
9.18066
  0
LINE
  8
0
 10
53.9268
 20
9.18066
 11
53.9121
 21
9.19141
  0
LINE
  8
0
 10
53.9121
 20
9.19141
 11
53.8984
 21
9.20117
  0
LINE
  8
0
 10
53.8984
 20
9.20117
 11
53.8711
 21
9.22266
  0
LINE
  8
0
 10
53.8711
 20
9.22266
 11
53.8574
 21
9.23438
  0
LINE
  8
0
 10
53.8574
 20
9.23438
 11
53.8438
 21
9.24512
  0
LINE
  8
0
 10
53.8438
 20
9.24512
 11
53.8057
 21
9.28027
  0
LINE
  8
0
 10
53.8057
 20
9.28027
 11
53.7803
 21
9.30566
  0
LINE
  8
0
 10
53.7803
 20
9.30566
 11
53.7451
 21
9.34375
  0
LINE
  8
0
 10
53.7451
 20
9.34375
 11
53.7344
 21
9.35742
  0
LINE
  8
0
 10
53.7344
 20
9.35742
 11
53.7227
 21
9.37109
  0
LINE
  8
0
 10
53.7227
 20
9.37109
 11
53.7012
 21
9.39844
  0
LINE
  8
0
 10
53.7012
 20
9.39844
 11
53.6914
 21
9.41211
  0
LINE
  8
0
 10
53.6914
 20
9.41211
 11
53.6807
 21
9.42676
  0
LINE
  8
0
 10
53.6807
 20
9.42676
 11
53.6709
 21
9.44043
  0
LINE
  8
0
 10
53.6709
 20
9.44043
 11
53.6611
 21
9.45508
  0
LINE
  8
0
 10
53.6611
 20
9.45508
 11
53.6523
 21
9.46973
  0
LINE
  8
0
 10
53.6523
 20
9.46973
 11
53.6426
 21
9.48535
  0
LINE
  8
0
 10
53.6426
 20
9.48535
 11
53.6338
 21
9.5
  0
LINE
  8
0
 10
53.6338
 20
9.5
 11
53.625
 21
9.51562
  0
LINE
  8
0
 10
53.625
 20
9.51562
 11
53.6172
 21
9.53027
  0
LINE
  8
0
 10
53.6172
 20
9.53027
 11
53.5938
 21
9.57715
  0
LINE
  8
0
 10
53.5938
 20
9.57715
 11
53.5869
 21
9.59375
  0
LINE
  8
0
 10
53.5869
 20
9.59375
 11
53.5791
 21
9.60938
  0
LINE
  8
0
 10
53.5791
 20
9.60938
 11
53.5732
 21
9.625
  0
LINE
  8
0
 10
53.5732
 20
9.625
 11
53.5664
 21
9.6416
  0
LINE
  8
0
 10
53.5664
 20
9.6416
 11
53.5488
 21
9.69141
  0
LINE
  8
0
 10
53.5488
 20
9.69141
 11
53.5293
 21
9.75781
  0
LINE
  8
0
 10
53.5293
 20
9.75781
 11
53.5254
 21
9.77539
  0
LINE
  8
0
 10
53.5254
 20
9.77539
 11
53.5215
 21
9.79199
  0
LINE
  8
0
 10
53.5215
 20
9.79199
 11
53.5186
 21
9.80957
  0
LINE
  8
0
 10
53.5186
 20
9.80957
 11
53.5156
 21
9.82617
  0
LINE
  8
0
 10
53.5156
 20
9.82617
 11
53.5127
 21
9.84375
  0
LINE
  8
0
 10
53.5127
 20
9.84375
 11
53.5098
 21
9.86035
  0
LINE
  8
0
 10
53.5098
 20
9.86035
 11
53.502
 21
9.93066
  0
LINE
  8
0
 10
53.502
 20
9.93066
 11
53.501
 21
9.94727
  0
LINE
  8
0
 10
53.501
 20
9.94727
 11
53.501
 21
9.96484
  0
LINE
  8
0
 10
53.501
 20
9.96484
 11
53.5
 21
9.98242
  0
LINE
  8
0
 10
53.5
 20
9.98242
 11
53.5
 21
23.0664
  0
LINE
  8
0
 10
53.5
 20
23.0664
 11
53.501
 21
23.084
  0
LINE
  8
0
 10
53.501
 20
23.084
 11
53.501
 21
23.1016
  0
LINE
  8
0
 10
53.501
 20
23.1016
 11
53.502
 21
23.1191
  0
LINE
  8
0
 10
53.502
 20
23.1191
 11
53.5039
 21
23.1367
  0
LINE
  8
0
 10
53.5039
 20
23.1367
 11
53.5059
 21
23.1533
  0
LINE
  8
0
 10
53.5059
 20
23.1533
 11
53.5098
 21
23.1885
  0
LINE
  8
0
 10
53.5098
 20
23.1885
 11
53.5127
 21
23.2061
  0
LINE
  8
0
 10
53.5127
 20
23.2061
 11
53.5156
 21
23.2227
  0
LINE
  8
0
 10
53.5156
 20
23.2227
 11
53.5186
 21
23.2402
  0
LINE
  8
0
 10
53.5186
 20
23.2402
 11
53.5215
 21
23.2568
  0
LINE
  8
0
 10
53.5215
 20
23.2568
 11
53.5254
 21
23.2744
  0
LINE
  8
0
 10
53.5254
 20
23.2744
 11
53.5293
 21
23.291
  0
LINE
  8
0
 10
53.5293
 20
23.291
 11
53.5342
 21
23.3076
  0
LINE
  8
0
 10
53.5342
 20
23.3076
 11
53.5391
 21
23.3252
  0
LINE
  8
0
 10
53.5391
 20
23.3252
 11
53.5488
 21
23.3584
  0
LINE
  8
0
 10
53.5488
 20
23.3584
 11
53.5605
 21
23.3916
  0
LINE
  8
0
 10
53.5605
 20
23.3916
 11
53.5664
 21
23.4072
  0
LINE
  8
0
 10
53.5664
 20
23.4072
 11
53.5732
 21
23.4238
  0
LINE
  8
0
 10
53.5732
 20
23.4238
 11
53.5791
 21
23.4395
  0
LINE
  8
0
 10
53.5791
 20
23.4395
 11
53.5869
 21
23.4561
  0
LINE
  8
0
 10
53.5869
 20
23.4561
 11
53.5938
 21
23.4717
  0
LINE
  8
0
 10
53.5938
 20
23.4717
 11
53.625
 21
23.5342
  0
LINE
  8
0
 10
53.625
 20
23.5342
 11
53.6338
 21
23.5488
  0
LINE
  8
0
 10
53.6338
 20
23.5488
 11
53.6426
 21
23.5645
  0
LINE
  8
0
 10
53.6426
 20
23.5645
 11
53.6523
 21
23.5791
  0
LINE
  8
0
 10
53.6523
 20
23.5791
 11
53.6611
 21
23.5938
  0
LINE
  8
0
 10
53.6611
 20
23.5938
 11
53.6807
 21
23.623
  0
LINE
  8
0
 10
53.6807
 20
23.623
 11
53.6914
 21
23.6367
  0
LINE
  8
0
 10
53.6914
 20
23.6367
 11
53.7012
 21
23.6514
  0
LINE
  8
0
 10
53.7012
 20
23.6514
 11
53.7227
 21
23.6787
  0
LINE
  8
0
 10
53.7227
 20
23.6787
 11
53.7344
 21
23.6924
  0
LINE
  8
0
 10
53.7344
 20
23.6924
 11
53.7451
 21
23.7051
  0
LINE
  8
0
 10
53.7451
 20
23.7051
 11
53.7568
 21
23.7188
  0
LINE
  8
0
 10
53.7568
 20
23.7188
 11
53.7803
 21
23.7441
  0
LINE
  8
0
 10
53.7803
 20
23.7441
 11
53.793
 21
23.7559
  0
LINE
  8
0
 10
53.793
 20
23.7559
 11
53.8057
 21
23.7686
  0
LINE
  8
0
 10
53.8057
 20
23.7686
 11
53.8438
 21
23.8037
  0
LINE
  8
0
 10
53.8438
 20
23.8037
 11
53.8574
 21
23.8154
  0
LINE
  8
0
 10
53.8574
 20
23.8154
 11
53.9121
 21
23.8584
  0
LINE
  8
0
 10
53.9121
 20
23.8584
 11
53.9268
 21
23.8682
  0
LINE
  8
0
 10
53.9268
 20
23.8682
 11
53.9404
 21
23.8779
  0
LINE
  8
0
 10
53.9404
 20
23.8779
 11
53.9697
 21
23.8975
  0
LINE
  8
0
 10
53.9697
 20
23.8975
 11
53.9854
 21
23.9062
  0
LINE
  8
0
 10
53.9854
 20
23.9062
 11
54
 21
23.915
  0
LINE
  8
0
 10
54
 20
23.915
 11
54.0156
 21
23.9238
  0
LINE
  8
0
 10
54.0156
 20
23.9238
 11
54.0303
 21
23.9326
  0
LINE
  8
0
 10
54.0303
 20
23.9326
 11
54.0615
 21
23.9482
  0
LINE
  8
0
 10
54.0615
 20
23.9482
 11
54.0771
 21
23.9551
  0
LINE
  8
0
 10
54.0771
 20
23.9551
 11
54.0938
 21
23.9629
  0
LINE
  8
0
 10
54.0938
 20
23.9629
 11
54.125
 21
23.9766
  0
LINE
  8
0
 10
54.125
 20
23.9766
 11
54.1416
 21
23.9824
  0
LINE
  8
0
 10
54.1416
 20
23.9824
 11
54.1582
 21
23.9893
  0
LINE
  8
0
 10
54.1582
 20
23.9893
 11
54.1748
 21
23.9951
  0
LINE
  8
0
 10
54.1748
 20
23.9951
 11
54.1914
 21
24
  0
LINE
  8
0
 10
54.1914
 20
24
 11
54.208
 21
24.0059
  0
LINE
  8
0
 10
54.208
 20
24.0059
 11
54.2246
 21
24.0107
  0
LINE
  8
0
 10
54.2246
 20
24.0107
 11
54.2412
 21
24.0146
  0
LINE
  8
0
 10
54.2412
 20
24.0146
 11
54.2578
 21
24.0195
  0
LINE
  8
0
 10
54.2578
 20
24.0195
 11
54.2754
 21
24.0234
  0
LINE
  8
0
 10
54.2754
 20
24.0234
 11
54.292
 21
24.0273
  0
LINE
  8
0
 10
54.292
 20
24.0273
 11
54.3096
 21
24.0312
  0
LINE
  8
0
 10
54.3096
 20
24.0312
 11
54.3262
 21
24.0342
  0
LINE
  8
0
 10
54.3262
 20
24.0342
 11
54.3438
 21
24.0371
  0
LINE
  8
0
 10
54.3438
 20
24.0371
 11
54.3604
 21
24.0391
  0
LINE
  8
0
 10
54.3604
 20
24.0391
 11
54.3779
 21
24.042
  0
LINE
  8
0
 10
54.3779
 20
24.042
 11
54.3955
 21
24.0439
  0
LINE
  8
0
 10
54.3955
 20
24.0439
 11
54.4131
 21
24.0449
  0
LINE
  8
0
 10
54.4131
 20
24.0449
 11
54.4307
 21
24.0469
  0
LINE
  8
0
 10
54.4307
 20
24.0469
 11
54.4473
 21
24.0479
  0
LINE
  8
0
 10
54.4473
 20
24.0479
 11
54.4648
 21
24.0488
  0
LINE
  8
0
 10
54.4648
 20
24.0488
 11
60.0381
 21
24.0488
  0
LINE
  8
0
 10
60.0381
 20
24.0488
 11
60.0732
 21
24.0469
  0
LINE
  8
0
 10
60.0732
 20
24.0469
 11
60.0908
 21
24.0449
  0
LINE
  8
0
 10
60.0908
 20
24.0449
 11
60.1074
 21
24.0439
  0
LINE
  8
0
 10
60.1074
 20
24.0439
 11
60.125
 21
24.042
  0
LINE
  8
0
 10
60.125
 20
24.042
 11
60.1426
 21
24.0391
  0
LINE
  8
0
 10
60.1426
 20
24.0391
 11
60.1602
 21
24.0371
  0
LINE
  8
0
 10
60.1602
 20
24.0371
 11
60.1768
 21
24.0342
  0
LINE
  8
0
 10
60.1768
 20
24.0342
 11
60.1943
 21
24.0312
  0
LINE
  8
0
 10
60.1943
 20
24.0312
 11
60.2109
 21
24.0273
  0
LINE
  8
0
 10
60.2109
 20
24.0273
 11
60.2285
 21
24.0234
  0
LINE
  8
0
 10
60.2285
 20
24.0234
 11
60.2451
 21
24.0195
  0
LINE
  8
0
 10
60.2451
 20
24.0195
 11
60.2617
 21
24.0146
  0
LINE
  8
0
 10
60.2617
 20
24.0146
 11
60.2793
 21
24.0107
  0
LINE
  8
0
 10
60.2793
 20
24.0107
 11
60.2959
 21
24.0059
  0
LINE
  8
0
 10
60.2959
 20
24.0059
 11
60.3125
 21
24
  0
LINE
  8
0
 10
60.3125
 20
24
 11
60.3291
 21
23.9951
  0
LINE
  8
0
 10
60.3291
 20
23.9951
 11
60.3457
 21
23.9893
  0
LINE
  8
0
 10
60.3457
 20
23.9893
 11
60.3613
 21
23.9824
  0
LINE
  8
0
 10
60.3613
 20
23.9824
 11
60.3779
 21
23.9766
  0
LINE
  8
0
 10
60.3779
 20
23.9766
 11
60.3945
 21
23.9697
  0
LINE
  8
0
 10
60.3945
 20
23.9697
 11
60.4102
 21
23.9629
  0
LINE
  8
0
 10
60.4102
 20
23.9629
 11
60.4258
 21
23.9551
  0
LINE
  8
0
 10
60.4258
 20
23.9551
 11
60.4414
 21
23.9482
  0
LINE
  8
0
 10
60.4414
 20
23.9482
 11
60.4727
 21
23.9326
  0
LINE
  8
0
 10
60.4727
 20
23.9326
 11
60.4883
 21
23.9238
  0
LINE
  8
0
 10
60.4883
 20
23.9238
 11
60.5029
 21
23.915
  0
LINE
  8
0
 10
60.5029
 20
23.915
 11
60.5186
 21
23.9062
  0
LINE
  8
0
 10
60.5186
 20
23.9062
 11
60.5332
 21
23.8975
  0
LINE
  8
0
 10
60.5332
 20
23.8975
 11
60.5771
 21
23.8682
  0
LINE
  8
0
 10
60.5771
 20
23.8682
 11
60.5908
 21
23.8584
  0
LINE
  8
0
 10
60.5908
 20
23.8584
 11
60.6055
 21
23.8477
  0
LINE
  8
0
 10
60.6055
 20
23.8477
 11
60.6465
 21
23.8154
  0
LINE
  8
0
 10
60.6465
 20
23.8154
 11
60.6592
 21
23.8037
  0
LINE
  8
0
 10
60.6592
 20
23.8037
 11
60.6729
 21
23.792
  0
LINE
  8
0
 10
60.6729
 20
23.792
 11
60.6982
 21
23.7686
  0
LINE
  8
0
 10
60.6982
 20
23.7686
 11
60.7227
 21
23.7441
  0
LINE
  8
0
 10
60.7227
 20
23.7441
 11
60.7461
 21
23.7188
  0
LINE
  8
0
 10
60.7461
 20
23.7188
 11
60.7578
 21
23.7051
  0
LINE
  8
0
 10
60.7578
 20
23.7051
 11
60.7695
 21
23.6924
  0
LINE
  8
0
 10
60.7695
 20
23.6924
 11
60.8018
 21
23.6514
  0
LINE
  8
0
 10
60.8018
 20
23.6514
 11
60.8125
 21
23.6367
  0
LINE
  8
0
 10
60.8125
 20
23.6367
 11
60.8223
 21
23.623
  0
LINE
  8
0
 10
60.8223
 20
23.623
 11
60.8516
 21
23.5791
  0
LINE
  8
0
 10
60.8516
 20
23.5791
 11
60.8604
 21
23.5645
  0
LINE
  8
0
 10
60.8604
 20
23.5645
 11
60.8691
 21
23.5488
  0
LINE
  8
0
 10
60.8691
 20
23.5488
 11
60.8779
 21
23.5342
  0
LINE
  8
0
 10
60.8779
 20
23.5342
 11
60.8867
 21
23.5186
  0
LINE
  8
0
 10
60.8867
 20
23.5186
 11
60.9023
 21
23.4873
  0
LINE
  8
0
 10
60.9023
 20
23.4873
 11
60.9092
 21
23.4717
  0
LINE
  8
0
 10
60.9092
 20
23.4717
 11
60.917
 21
23.4561
  0
LINE
  8
0
 10
60.917
 20
23.4561
 11
60.9238
 21
23.4395
  0
LINE
  8
0
 10
60.9238
 20
23.4395
 11
60.9307
 21
23.4238
  0
LINE
  8
0
 10
60.9307
 20
23.4238
 11
60.9365
 21
23.4072
  0
LINE
  8
0
 10
60.9365
 20
23.4072
 11
60.9434
 21
23.3916
  0
LINE
  8
0
 10
60.9434
 20
23.3916
 11
60.9492
 21
23.375
  0
LINE
  8
0
 10
60.9492
 20
23.375
 11
60.9541
 21
23.3584
  0
LINE
  8
0
 10
60.9541
 20
23.3584
 11
60.96
 21
23.3418
  0
LINE
  8
0
 10
60.96
 20
23.3418
 11
60.9648
 21
23.3252
  0
LINE
  8
0
 10
60.9648
 20
23.3252
 11
60.9697
 21
23.3076
  0
LINE
  8
0
 10
60.9697
 20
23.3076
 11
60.9775
 21
23.2744
  0
LINE
  8
0
 10
60.9775
 20
23.2744
 11
60.9814
 21
23.2568
  0
LINE
  8
0
 10
60.9814
 20
23.2568
 11
60.9854
 21
23.2402
  0
LINE
  8
0
 10
60.9854
 20
23.2402
 11
60.9883
 21
23.2227
  0
LINE
  8
0
 10
60.9883
 20
23.2227
 11
60.9912
 21
23.2061
  0
LINE
  8
0
 10
60.9912
 20
23.2061
 11
60.9932
 21
23.1885
  0
LINE
  8
0
 10
60.9932
 20
23.1885
 11
60.9961
 21
23.1709
  0
LINE
  8
0
 10
60.9961
 20
23.1709
 11
60.998
 21
23.1533
  0
LINE
  8
0
 10
60.998
 20
23.1533
 11
61
 21
23.1367
  0
LINE
  8
0
 10
61
 20
23.1367
 11
61.0029
 21
23.084
  0
LINE
  8
0
 10
61.0029
 20
23.084
 11
61.0029
 21
9.96484
  0
LINE
  8
0
 10
61.0029
 20
9.96484
 11
61.002
 21
9.94727
  0
LINE
  8
0
 10
61.002
 20
9.94727
 11
61.001
 21
9.93066
  0
LINE
  8
0
 10
61.001
 20
9.93066
 11
61
 21
9.91309
  0
LINE
  8
0
 10
61
 20
9.91309
 11
60.9961
 21
9.87793
  0
LINE
  8
0
 10
60.9961
 20
9.87793
 11
60.9932
 21
9.86035
  0
LINE
  8
0
 10
60.9932
 20
9.86035
 11
60.9912
 21
9.84375
  0
LINE
  8
0
 10
60.9912
 20
9.84375
 11
60.9883
 21
9.82617
  0
LINE
  8
0
 10
60.9883
 20
9.82617
 11
60.9854
 21
9.80957
  0
LINE
  8
0
 10
60.9854
 20
9.80957
 11
60.9814
 21
9.79199
  0
LINE
  8
0
 10
60.9814
 20
9.79199
 11
60.9775
 21
9.77539
  0
LINE
  8
0
 10
60.9775
 20
9.77539
 11
60.9736
 21
9.75781
  0
LINE
  8
0
 10
60.9736
 20
9.75781
 11
60.9697
 21
9.74121
  0
LINE
  8
0
 10
60.9697
 20
9.74121
 11
60.96
 21
9.70801
  0
LINE
  8
0
 10
60.96
 20
9.70801
 11
60.9541
 21
9.69141
  0
LINE
  8
0
 10
60.9541
 20
9.69141
 11
60.9492
 21
9.6748
  0
LINE
  8
0
 10
60.9492
 20
9.6748
 11
60.9434
 21
9.6582
  0
LINE
  8
0
 10
60.9434
 20
9.6582
 11
60.9365
 21
9.6416
  0
LINE
  8
0
 10
60.9365
 20
9.6416
 11
60.9307
 21
9.625
  0
LINE
  8
0
 10
60.9307
 20
9.625
 11
60.917
 21
9.59375
  0
LINE
  8
0
 10
60.917
 20
9.59375
 11
60.9092
 21
9.57715
  0
LINE
  8
0
 10
60.9092
 20
9.57715
 11
60.9023
 21
9.56152
  0
LINE
  8
0
 10
60.9023
 20
9.56152
 11
60.8867
 21
9.53027
  0
LINE
  8
0
 10
60.8867
 20
9.53027
 11
60.8779
 21
9.51562
  0
LINE
  8
0
 10
60.8779
 20
9.51562
 11
60.8691
 21
9.5
  0
LINE
  8
0
 10
60.8691
 20
9.5
 11
60.8604
 21
9.48535
  0
LINE
  8
0
 10
60.8604
 20
9.48535
 11
60.8516
 21
9.46973
  0
LINE
  8
0
 10
60.8516
 20
9.46973
 11
60.832
 21
9.44043
  0
LINE
  8
0
 10
60.832
 20
9.44043
 11
60.8223
 21
9.42676
  0
LINE
  8
0
 10
60.8223
 20
9.42676
 11
60.8125
 21
9.41211
  0
LINE
  8
0
 10
60.8125
 20
9.41211
 11
60.7695
 21
9.35742
  0
LINE
  8
0
 10
60.7695
 20
9.35742
 11
60.7578
 21
9.34375
  0
LINE
  8
0
 10
60.7578
 20
9.34375
 11
60.7109
 21
9.29297
  0
LINE
  8
0
 10
60.7109
 20
9.29297
 11
60.6982
 21
9.28027
  0
LINE
  8
0
 10
60.6982
 20
9.28027
 11
60.6729
 21
9.25684
  0
LINE
  8
0
 10
60.6729
 20
9.25684
 11
60.6592
 21
9.24512
  0
LINE
  8
0
 10
60.6592
 20
9.24512
 11
60.6465
 21
9.23438
  0
LINE
  8
0
 10
60.6465
 20
9.23438
 11
60.6328
 21
9.22266
  0
LINE
  8
0
 10
60.6328
 20
9.22266
 11
60.6055
 21
9.20117
  0
LINE
  8
0
 10
60.6055
 20
9.20117
 11
60.5908
 21
9.19141
  0
LINE
  8
0
 10
60.5908
 20
9.19141
 11
60.5771
 21
9.18066
  0
LINE
  8
0
 10
60.5771
 20
9.18066
 11
60.5479
 21
9.16113
  0
LINE
  8
0
 10
60.5479
 20
9.16113
 11
60.5332
 21
9.15234
  0
LINE
  8
0
 10
60.5332
 20
9.15234
 11
60.5186
 21
9.14258
  0
LINE
  8
0
 10
60.5186
 20
9.14258
 11
60.5029
 21
9.13379
  0
LINE
  8
0
 10
60.5029
 20
9.13379
 11
60.4883
 21
9.125
  0
LINE
  8
0
 10
60.4883
 20
9.125
 11
60.4258
 21
9.09375
  0
LINE
  8
0
 10
60.4258
 20
9.09375
 11
60.4102
 21
9.08691
  0
LINE
  8
0
 10
60.4102
 20
9.08691
 11
60.3945
 21
9.0791
  0
LINE
  8
0
 10
60.3945
 20
9.0791
 11
60.3779
 21
9.07324
  0
LINE
  8
0
 10
60.3779
 20
9.07324
 11
60.3613
 21
9.06641
  0
LINE
  8
0
 10
60.3613
 20
9.06641
 11
60.3457
 21
9.06055
  0
LINE
  8
0
 10
60.3457
 20
9.06055
 11
60.3125
 21
9.04883
  0
LINE
  8
0
 10
60.3125
 20
9.04883
 11
60.2793
 21
9.03906
  0
LINE
  8
0
 10
60.2793
 20
9.03906
 11
60.2617
 21
9.03418
  0
LINE
  8
0
 10
60.2617
 20
9.03418
 11
60.2451
 21
9.0293
  0
LINE
  8
0
 10
60.2451
 20
9.0293
 11
60.2285
 21
9.02539
  0
LINE
  8
0
 10
60.2285
 20
9.02539
 11
60.2109
 21
9.02148
  0
LINE
  8
0
 10
60.2109
 20
9.02148
 11
60.1943
 21
9.01855
  0
LINE
  8
0
 10
60.1943
 20
9.01855
 11
60.1768
 21
9.01562
  0
LINE
  8
0
 10
60.1768
 20
9.01562
 11
60.1602
 21
9.0127
  0
LINE
  8
0
 10
60.1602
 20
9.0127
 11
60.1426
 21
9.00977
  0
LINE
  8
0
 10
60.1426
 20
9.00977
 11
60.1074
 21
9.00586
  0
LINE
  8
0
 10
60.1074
 20
9.00586
 11
60.0908
 21
9.00391
  0
LINE
  8
0
 10
60.0908
 20
9.00391
 11
60.0732
 21
9.00195
  0
LINE
  8
0
 10
60.0732
 20
9.00195
 11
60.0557
 21
9.00098
  0
LINE
  8
0
 10
60.0557
 20
9.00098
 11
60.0381
 21
9.00098
  0
LINE
  8
0
 10
60.0381
 20
9.00098
 11
60.0205
 21
9
  0
LINE
  8
0
 10
60.0205
 20
9
 11
54.4824
 21
9
  0
LINE
  8
0
 10
81.9824
 20
13.6064
 11
81.9473
 21
13.6084
  0
LINE
  8
0
 10
81.9473
 20
13.6084
 11
81.9307
 21
13.6094
  0
LINE
  8
0
 10
81.9307
 20
13.6094
 11
81.9131
 21
13.6104
  0
LINE
  8
0
 10
81.9131
 20
13.6104
 11
81.8604
 21
13.6162
  0
LINE
  8
0
 10
81.8604
 20
13.6162
 11
81.8438
 21
13.6191
  0
LINE
  8
0
 10
81.8438
 20
13.6191
 11
81.8262
 21
13.6221
  0
LINE
  8
0
 10
81.8262
 20
13.6221
 11
81.8096
 21
13.625
  0
LINE
  8
0
 10
81.8096
 20
13.625
 11
81.792
 21
13.6289
  0
LINE
  8
0
 10
81.792
 20
13.6289
 11
81.7754
 21
13.6328
  0
LINE
  8
0
 10
81.7754
 20
13.6328
 11
81.7578
 21
13.6367
  0
LINE
  8
0
 10
81.7578
 20
13.6367
 11
81.7412
 21
13.6406
  0
LINE
  8
0
 10
81.7412
 20
13.6406
 11
81.6914
 21
13.6553
  0
LINE
  8
0
 10
81.6914
 20
13.6553
 11
81.6416
 21
13.6729
  0
LINE
  8
0
 10
81.6416
 20
13.6729
 11
81.625
 21
13.6797
  0
LINE
  8
0
 10
81.625
 20
13.6797
 11
81.5938
 21
13.6934
  0
LINE
  8
0
 10
81.5938
 20
13.6934
 11
81.5771
 21
13.7002
  0
LINE
  8
0
 10
81.5771
 20
13.7002
 11
81.5303
 21
13.7236
  0
LINE
  8
0
 10
81.5303
 20
13.7236
 11
81.5156
 21
13.7324
  0
LINE
  8
0
 10
81.5156
 20
13.7324
 11
81.5
 21
13.7402
  0
LINE
  8
0
 10
81.5
 20
13.7402
 11
81.4854
 21
13.75
  0
LINE
  8
0
 10
81.4854
 20
13.75
 11
81.4697
 21
13.7588
  0
LINE
  8
0
 10
81.4697
 20
13.7588
 11
81.4551
 21
13.7686
  0
LINE
  8
0
 10
81.4551
 20
13.7686
 11
81.4404
 21
13.7773
  0
LINE
  8
0
 10
81.4404
 20
13.7773
 11
81.4268
 21
13.7871
  0
LINE
  8
0
 10
81.4268
 20
13.7871
 11
81.4121
 21
13.7979
  0
LINE
  8
0
 10
81.4121
 20
13.7979
 11
81.3984
 21
13.8086
  0
LINE
  8
0
 10
81.3984
 20
13.8086
 11
81.3848
 21
13.8184
  0
LINE
  8
0
 10
81.3848
 20
13.8184
 11
81.3711
 21
13.8301
  0
LINE
  8
0
 10
81.3711
 20
13.8301
 11
81.3438
 21
13.8516
  0
LINE
  8
0
 10
81.3438
 20
13.8516
 11
81.3184
 21
13.875
  0
LINE
  8
0
 10
81.3184
 20
13.875
 11
81.3057
 21
13.8877
  0
LINE
  8
0
 10
81.3057
 20
13.8877
 11
81.293
 21
13.8994
  0
LINE
  8
0
 10
81.293
 20
13.8994
 11
81.2803
 21
13.9121
  0
LINE
  8
0
 10
81.2803
 20
13.9121
 11
81.2451
 21
13.9502
  0
LINE
  8
0
 10
81.2451
 20
13.9502
 11
81.2344
 21
13.9639
  0
LINE
  8
0
 10
81.2344
 20
13.9639
 11
81.2227
 21
13.9775
  0
LINE
  8
0
 10
81.2227
 20
13.9775
 11
81.2012
 21
14.0049
  0
LINE
  8
0
 10
81.2012
 20
14.0049
 11
81.1914
 21
14.0186
  0
LINE
  8
0
 10
81.1914
 20
14.0186
 11
81.1807
 21
14.0332
  0
LINE
  8
0
 10
81.1807
 20
14.0332
 11
81.1611
 21
14.0625
  0
LINE
  8
0
 10
81.1611
 20
14.0625
 11
81.1523
 21
14.0771
  0
LINE
  8
0
 10
81.1523
 20
14.0771
 11
81.1426
 21
14.0918
  0
LINE
  8
0
 10
81.1426
 20
14.0918
 11
81.1338
 21
14.1064
  0
LINE
  8
0
 10
81.1338
 20
14.1064
 11
81.125
 21
14.1221
  0
LINE
  8
0
 10
81.125
 20
14.1221
 11
81.1172
 21
14.1377
  0
LINE
  8
0
 10
81.1172
 20
14.1377
 11
81.1094
 21
14.1523
  0
LINE
  8
0
 10
81.1094
 20
14.1523
 11
81.1016
 21
14.168
  0
LINE
  8
0
 10
81.1016
 20
14.168
 11
81.0938
 21
14.1846
  0
LINE
  8
0
 10
81.0938
 20
14.1846
 11
81.0869
 21
14.2002
  0
LINE
  8
0
 10
81.0869
 20
14.2002
 11
81.0791
 21
14.2158
  0
LINE
  8
0
 10
81.0791
 20
14.2158
 11
81.0732
 21
14.2324
  0
LINE
  8
0
 10
81.0732
 20
14.2324
 11
81.0664
 21
14.248
  0
LINE
  8
0
 10
81.0664
 20
14.248
 11
81.0488
 21
14.2979
  0
LINE
  8
0
 10
81.0488
 20
14.2979
 11
81.0342
 21
14.3477
  0
LINE
  8
0
 10
81.0342
 20
14.3477
 11
81.0293
 21
14.3652
  0
LINE
  8
0
 10
81.0293
 20
14.3652
 11
81.0215
 21
14.3984
  0
LINE
  8
0
 10
81.0215
 20
14.3984
 11
81.0186
 21
14.416
  0
LINE
  8
0
 10
81.0186
 20
14.416
 11
81.0156
 21
14.4326
  0
LINE
  8
0
 10
81.0156
 20
14.4326
 11
81.0098
 21
14.4678
  0
LINE
  8
0
 10
81.0098
 20
14.4678
 11
81.0078
 21
14.4854
  0
LINE
  8
0
 10
81.0078
 20
14.4854
 11
81.0059
 21
14.502
  0
LINE
  8
0
 10
81.0059
 20
14.502
 11
81.002
 21
14.5371
  0
LINE
  8
0
 10
81.002
 20
14.5371
 11
81.001
 21
14.5547
  0
LINE
  8
0
 10
81.001
 20
14.5547
 11
81.001
 21
14.5723
  0
LINE
  8
0
 10
81.001
 20
14.5723
 11
81
 21
14.5889
  0
LINE
  8
0
 10
81
 20
14.5889
 11
81
 21
22.6738
  0
LINE
  8
0
 10
81
 20
22.6738
 11
81.001
 21
22.6904
  0
LINE
  8
0
 10
81.001
 20
22.6904
 11
81.001
 21
22.708
  0
LINE
  8
0
 10
81.001
 20
22.708
 11
81.002
 21
22.7256
  0
LINE
  8
0
 10
81.002
 20
22.7256
 11
81.0059
 21
22.7607
  0
LINE
  8
0
 10
81.0059
 20
22.7607
 11
81.0078
 21
22.7773
  0
LINE
  8
0
 10
81.0078
 20
22.7773
 11
81.0098
 21
22.7949
  0
LINE
  8
0
 10
81.0098
 20
22.7949
 11
81.0156
 21
22.8301
  0
LINE
  8
0
 10
81.0156
 20
22.8301
 11
81.0186
 21
22.8467
  0
LINE
  8
0
 10
81.0186
 20
22.8467
 11
81.0215
 21
22.8643
  0
LINE
  8
0
 10
81.0215
 20
22.8643
 11
81.0293
 21
22.8975
  0
LINE
  8
0
 10
81.0293
 20
22.8975
 11
81.0342
 21
22.915
  0
LINE
  8
0
 10
81.0342
 20
22.915
 11
81.0488
 21
22.9648
  0
LINE
  8
0
 10
81.0488
 20
22.9648
 11
81.0664
 21
23.0146
  0
LINE
  8
0
 10
81.0664
 20
23.0146
 11
81.0732
 21
23.0303
  0
LINE
  8
0
 10
81.0732
 20
23.0303
 11
81.0791
 21
23.0469
  0
LINE
  8
0
 10
81.0791
 20
23.0469
 11
81.0869
 21
23.0625
  0
LINE
  8
0
 10
81.0869
 20
23.0625
 11
81.0938
 21
23.0781
  0
LINE
  8
0
 10
81.0938
 20
23.0781
 11
81.1016
 21
23.0947
  0
LINE
  8
0
 10
81.1016
 20
23.0947
 11
81.1094
 21
23.1104
  0
LINE
  8
0
 10
81.1094
 20
23.1104
 11
81.1172
 21
23.125
  0
LINE
  8
0
 10
81.1172
 20
23.125
 11
81.125
 21
23.1406
  0
LINE
  8
0
 10
81.125
 20
23.1406
 11
81.1338
 21
23.1562
  0
LINE
  8
0
 10
81.1338
 20
23.1562
 11
81.1426
 21
23.1709
  0
LINE
  8
0
 10
81.1426
 20
23.1709
 11
81.1523
 21
23.1855
  0
LINE
  8
0
 10
81.1523
 20
23.1855
 11
81.1611
 21
23.2002
  0
LINE
  8
0
 10
81.1611
 20
23.2002
 11
81.1807
 21
23.2295
  0
LINE
  8
0
 10
81.1807
 20
23.2295
 11
81.1914
 21
23.2441
  0
LINE
  8
0
 10
81.1914
 20
23.2441
 11
81.2012
 21
23.2578
  0
LINE
  8
0
 10
81.2012
 20
23.2578
 11
81.2227
 21
23.2852
  0
LINE
  8
0
 10
81.2227
 20
23.2852
 11
81.2344
 21
23.2988
  0
LINE
  8
0
 10
81.2344
 20
23.2988
 11
81.2451
 21
23.3115
  0
LINE
  8
0
 10
81.2451
 20
23.3115
 11
81.2568
 21
23.3252
  0
LINE
  8
0
 10
81.2568
 20
23.3252
 11
81.2803
 21
23.3506
  0
LINE
  8
0
 10
81.2803
 20
23.3506
 11
81.293
 21
23.3633
  0
LINE
  8
0
 10
81.293
 20
23.3633
 11
81.3057
 21
23.375
  0
LINE
  8
0
 10
81.3057
 20
23.375
 11
81.3184
 21
23.3877
  0
LINE
  8
0
 10
81.3184
 20
23.3877
 11
81.3438
 21
23.4111
  0
LINE
  8
0
 10
81.3438
 20
23.4111
 11
81.3711
 21
23.4326
  0
LINE
  8
0
 10
81.3711
 20
23.4326
 11
81.3848
 21
23.4443
  0
LINE
  8
0
 10
81.3848
 20
23.4443
 11
81.3984
 21
23.4541
  0
LINE
  8
0
 10
81.3984
 20
23.4541
 11
81.4121
 21
23.4648
  0
LINE
  8
0
 10
81.4121
 20
23.4648
 11
81.4268
 21
23.4756
  0
LINE
  8
0
 10
81.4268
 20
23.4756
 11
81.4404
 21
23.4854
  0
LINE
  8
0
 10
81.4404
 20
23.4854
 11
81.4551
 21
23.4941
  0
LINE
  8
0
 10
81.4551
 20
23.4941
 11
81.4697
 21
23.5039
  0
LINE
  8
0
 10
81.4697
 20
23.5039
 11
81.4854
 21
23.5127
  0
LINE
  8
0
 10
81.4854
 20
23.5127
 11
81.5
 21
23.5225
  0
LINE
  8
0
 10
81.5
 20
23.5225
 11
81.5156
 21
23.5303
  0
LINE
  8
0
 10
81.5156
 20
23.5303
 11
81.5303
 21
23.5391
  0
LINE
  8
0
 10
81.5303
 20
23.5391
 11
81.5771
 21
23.5625
  0
LINE
  8
0
 10
81.5771
 20
23.5625
 11
81.5938
 21
23.5693
  0
LINE
  8
0
 10
81.5938
 20
23.5693
 11
81.625
 21
23.583
  0
LINE
  8
0
 10
81.625
 20
23.583
 11
81.6416
 21
23.5898
  0
LINE
  8
0
 10
81.6416
 20
23.5898
 11
81.6914
 21
23.6074
  0
LINE
  8
0
 10
81.6914
 20
23.6074
 11
81.7412
 21
23.6221
  0
LINE
  8
0
 10
81.7412
 20
23.6221
 11
81.7578
 21
23.626
  0
LINE
  8
0
 10
81.7578
 20
23.626
 11
81.7754
 21
23.6299
  0
LINE
  8
0
 10
81.7754
 20
23.6299
 11
81.792
 21
23.6338
  0
LINE
  8
0
 10
81.792
 20
23.6338
 11
81.8096
 21
23.6377
  0
LINE
  8
0
 10
81.8096
 20
23.6377
 11
81.8262
 21
23.6406
  0
LINE
  8
0
 10
81.8262
 20
23.6406
 11
81.8438
 21
23.6436
  0
LINE
  8
0
 10
81.8438
 20
23.6436
 11
81.8604
 21
23.6465
  0
LINE
  8
0
 10
81.8604
 20
23.6465
 11
81.9131
 21
23.6523
  0
LINE
  8
0
 10
81.9131
 20
23.6523
 11
81.9307
 21
23.6533
  0
LINE
  8
0
 10
81.9307
 20
23.6533
 11
81.9473
 21
23.6543
  0
LINE
  8
0
 10
81.9473
 20
23.6543
 11
81.9824
 21
23.6562
  0
LINE
  8
0
 10
81.9824
 20
23.6562
 11
88.0137
 21
23.6562
  0
LINE
  8
0
 10
88.0137
 20
23.6562
 11
88.084
 21
23.6523
  0
LINE
  8
0
 10
88.084
 20
23.6523
 11
88.1016
 21
23.6504
  0
LINE
  8
0
 10
88.1016
 20
23.6504
 11
88.1182
 21
23.6484
  0
LINE
  8
0
 10
88.1182
 20
23.6484
 11
88.1357
 21
23.6465
  0
LINE
  8
0
 10
88.1357
 20
23.6465
 11
88.1533
 21
23.6436
  0
LINE
  8
0
 10
88.1533
 20
23.6436
 11
88.1699
 21
23.6406
  0
LINE
  8
0
 10
88.1699
 20
23.6406
 11
88.1875
 21
23.6377
  0
LINE
  8
0
 10
88.1875
 20
23.6377
 11
88.2041
 21
23.6338
  0
LINE
  8
0
 10
88.2041
 20
23.6338
 11
88.2217
 21
23.6299
  0
LINE
  8
0
 10
88.2217
 20
23.6299
 11
88.2383
 21
23.626
  0
LINE
  8
0
 10
88.2383
 20
23.626
 11
88.2559
 21
23.6221
  0
LINE
  8
0
 10
88.2559
 20
23.6221
 11
88.3057
 21
23.6074
  0
LINE
  8
0
 10
88.3057
 20
23.6074
 11
88.3555
 21
23.5898
  0
LINE
  8
0
 10
88.3555
 20
23.5898
 11
88.3711
 21
23.583
  0
LINE
  8
0
 10
88.3711
 20
23.583
 11
88.3877
 21
23.5762
  0
LINE
  8
0
 10
88.3877
 20
23.5762
 11
88.4189
 21
23.5625
  0
LINE
  8
0
 10
88.4189
 20
23.5625
 11
88.4658
 21
23.5391
  0
LINE
  8
0
 10
88.4658
 20
23.5391
 11
88.4814
 21
23.5303
  0
LINE
  8
0
 10
88.4814
 20
23.5303
 11
88.4971
 21
23.5225
  0
LINE
  8
0
 10
88.4971
 20
23.5225
 11
88.5117
 21
23.5127
  0
LINE
  8
0
 10
88.5117
 20
23.5127
 11
88.5264
 21
23.5039
  0
LINE
  8
0
 10
88.5264
 20
23.5039
 11
88.541
 21
23.4941
  0
LINE
  8
0
 10
88.541
 20
23.4941
 11
88.5557
 21
23.4854
  0
LINE
  8
0
 10
88.5557
 20
23.4854
 11
88.5703
 21
23.4756
  0
LINE
  8
0
 10
88.5703
 20
23.4756
 11
88.584
 21
23.4648
  0
LINE
  8
0
 10
88.584
 20
23.4648
 11
88.5986
 21
23.4541
  0
LINE
  8
0
 10
88.5986
 20
23.4541
 11
88.6123
 21
23.4443
  0
LINE
  8
0
 10
88.6123
 20
23.4443
 11
88.626
 21
23.4326
  0
LINE
  8
0
 10
88.626
 20
23.4326
 11
88.6396
 21
23.4219
  0
LINE
  8
0
 10
88.6396
 20
23.4219
 11
88.6523
 21
23.4111
  0
LINE
  8
0
 10
88.6523
 20
23.4111
 11
88.666
 21
23.3994
  0
LINE
  8
0
 10
88.666
 20
23.3994
 11
88.6787
 21
23.3877
  0
LINE
  8
0
 10
88.6787
 20
23.3877
 11
88.6914
 21
23.375
  0
LINE
  8
0
 10
88.6914
 20
23.375
 11
88.7041
 21
23.3633
  0
LINE
  8
0
 10
88.7041
 20
23.3633
 11
88.7275
 21
23.3379
  0
LINE
  8
0
 10
88.7275
 20
23.3379
 11
88.7402
 21
23.3252
  0
LINE
  8
0
 10
88.7402
 20
23.3252
 11
88.751
 21
23.3115
  0
LINE
  8
0
 10
88.751
 20
23.3115
 11
88.7627
 21
23.2988
  0
LINE
  8
0
 10
88.7627
 20
23.2988
 11
88.8057
 21
23.2441
  0
LINE
  8
0
 10
88.8057
 20
23.2441
 11
88.8154
 21
23.2295
  0
LINE
  8
0
 10
88.8154
 20
23.2295
 11
88.8262
 21
23.2148
  0
LINE
  8
0
 10
88.8262
 20
23.2148
 11
88.835
 21
23.2002
  0
LINE
  8
0
 10
88.835
 20
23.2002
 11
88.8447
 21
23.1855
  0
LINE
  8
0
 10
88.8447
 20
23.1855
 11
88.8623
 21
23.1562
  0
LINE
  8
0
 10
88.8623
 20
23.1562
 11
88.8799
 21
23.125
  0
LINE
  8
0
 10
88.8799
 20
23.125
 11
88.8877
 21
23.1104
  0
LINE
  8
0
 10
88.8877
 20
23.1104
 11
88.8955
 21
23.0947
  0
LINE
  8
0
 10
88.8955
 20
23.0947
 11
88.9033
 21
23.0781
  0
LINE
  8
0
 10
88.9033
 20
23.0781
 11
88.917
 21
23.0469
  0
LINE
  8
0
 10
88.917
 20
23.0469
 11
88.9238
 21
23.0303
  0
LINE
  8
0
 10
88.9238
 20
23.0303
 11
88.9307
 21
23.0146
  0
LINE
  8
0
 10
88.9307
 20
23.0146
 11
88.9424
 21
22.9814
  0
LINE
  8
0
 10
88.9424
 20
22.9814
 11
88.9473
 21
22.9648
  0
LINE
  8
0
 10
88.9473
 20
22.9648
 11
88.9531
 21
22.9482
  0
LINE
  8
0
 10
88.9531
 20
22.9482
 11
88.9629
 21
22.915
  0
LINE
  8
0
 10
88.9629
 20
22.915
 11
88.9668
 21
22.8975
  0
LINE
  8
0
 10
88.9668
 20
22.8975
 11
88.9746
 21
22.8643
  0
LINE
  8
0
 10
88.9746
 20
22.8643
 11
88.9785
 21
22.8467
  0
LINE
  8
0
 10
88.9785
 20
22.8467
 11
88.9814
 21
22.8301
  0
LINE
  8
0
 10
88.9814
 20
22.8301
 11
88.9873
 21
22.7949
  0
LINE
  8
0
 10
88.9873
 20
22.7949
 11
88.9893
 21
22.7773
  0
LINE
  8
0
 10
88.9893
 20
22.7773
 11
88.9912
 21
22.7607
  0
LINE
  8
0
 10
88.9912
 20
22.7607
 11
88.9932
 21
22.7432
  0
LINE
  8
0
 10
88.9932
 20
22.7432
 11
88.9961
 21
22.6904
  0
LINE
  8
0
 10
88.9961
 20
22.6904
 11
88.9961
 21
22.6738
  0
LINE
  8
0
 10
88.9961
 20
22.6738
 11
88.9971
 21
22.6562
  0
LINE
  8
0
 10
88.9971
 20
22.6562
 11
88.9971
 21
14.6064
  0
LINE
  8
0
 10
88.9971
 20
14.6064
 11
88.9961
 21
14.5889
  0
LINE
  8
0
 10
88.9961
 20
14.5889
 11
88.9961
 21
14.5723
  0
LINE
  8
0
 10
88.9961
 20
14.5723
 11
88.9932
 21
14.5195
  0
LINE
  8
0
 10
88.9932
 20
14.5195
 11
88.9912
 21
14.502
  0
LINE
  8
0
 10
88.9912
 20
14.502
 11
88.9893
 21
14.4854
  0
LINE
  8
0
 10
88.9893
 20
14.4854
 11
88.9873
 21
14.4678
  0
LINE
  8
0
 10
88.9873
 20
14.4678
 11
88.9814
 21
14.4326
  0
LINE
  8
0
 10
88.9814
 20
14.4326
 11
88.9785
 21
14.416
  0
LINE
  8
0
 10
88.9785
 20
14.416
 11
88.9746
 21
14.3984
  0
LINE
  8
0
 10
88.9746
 20
14.3984
 11
88.9668
 21
14.3652
  0
LINE
  8
0
 10
88.9668
 20
14.3652
 11
88.9629
 21
14.3477
  0
LINE
  8
0
 10
88.9629
 20
14.3477
 11
88.9531
 21
14.3145
  0
LINE
  8
0
 10
88.9531
 20
14.3145
 11
88.9473
 21
14.2979
  0
LINE
  8
0
 10
88.9473
 20
14.2979
 11
88.9424
 21
14.2812
  0
LINE
  8
0
 10
88.9424
 20
14.2812
 11
88.9307
 21
14.248
  0
LINE
  8
0
 10
88.9307
 20
14.248
 11
88.9238
 21
14.2324
  0
LINE
  8
0
 10
88.9238
 20
14.2324
 11
88.917
 21
14.2158
  0
LINE
  8
0
 10
88.917
 20
14.2158
 11
88.9033
 21
14.1846
  0
LINE
  8
0
 10
88.9033
 20
14.1846
 11
88.8955
 21
14.168
  0
LINE
  8
0
 10
88.8955
 20
14.168
 11
88.8877
 21
14.1523
  0
LINE
  8
0
 10
88.8877
 20
14.1523
 11
88.8799
 21
14.1377
  0
LINE
  8
0
 10
88.8799
 20
14.1377
 11
88.8623
 21
14.1064
  0
LINE
  8
0
 10
88.8623
 20
14.1064
 11
88.8447
 21
14.0771
  0
LINE
  8
0
 10
88.8447
 20
14.0771
 11
88.835
 21
14.0625
  0
LINE
  8
0
 10
88.835
 20
14.0625
 11
88.8262
 21
14.0479
  0
LINE
  8
0
 10
88.8262
 20
14.0479
 11
88.8154
 21
14.0332
  0
LINE
  8
0
 10
88.8154
 20
14.0332
 11
88.8057
 21
14.0186
  0
LINE
  8
0
 10
88.8057
 20
14.0186
 11
88.7627
 21
13.9639
  0
LINE
  8
0
 10
88.7627
 20
13.9639
 11
88.751
 21
13.9502
  0
LINE
  8
0
 10
88.751
 20
13.9502
 11
88.7402
 21
13.9375
  0
LINE
  8
0
 10
88.7402
 20
13.9375
 11
88.7275
 21
13.9248
  0
LINE
  8
0
 10
88.7275
 20
13.9248
 11
88.7041
 21
13.8994
  0
LINE
  8
0
 10
88.7041
 20
13.8994
 11
88.6914
 21
13.8877
  0
LINE
  8
0
 10
88.6914
 20
13.8877
 11
88.6787
 21
13.875
  0
LINE
  8
0
 10
88.6787
 20
13.875
 11
88.666
 21
13.8633
  0
LINE
  8
0
 10
88.666
 20
13.8633
 11
88.6523
 21
13.8516
  0
LINE
  8
0
 10
88.6523
 20
13.8516
 11
88.6396
 21
13.8408
  0
LINE
  8
0
 10
88.6396
 20
13.8408
 11
88.626
 21
13.8301
  0
LINE
  8
0
 10
88.626
 20
13.8301
 11
88.6123
 21
13.8184
  0
LINE
  8
0
 10
88.6123
 20
13.8184
 11
88.5986
 21
13.8086
  0
LINE
  8
0
 10
88.5986
 20
13.8086
 11
88.584
 21
13.7979
  0
LINE
  8
0
 10
88.584
 20
13.7979
 11
88.5703
 21
13.7871
  0
LINE
  8
0
 10
88.5703
 20
13.7871
 11
88.5557
 21
13.7773
  0
LINE
  8
0
 10
88.5557
 20
13.7773
 11
88.541
 21
13.7686
  0
LINE
  8
0
 10
88.541
 20
13.7686
 11
88.5264
 21
13.7588
  0
LINE
  8
0
 10
88.5264
 20
13.7588
 11
88.5117
 21
13.75
  0
LINE
  8
0
 10
88.5117
 20
13.75
 11
88.4971
 21
13.7402
  0
LINE
  8
0
 10
88.4971
 20
13.7402
 11
88.4814
 21
13.7324
  0
LINE
  8
0
 10
88.4814
 20
13.7324
 11
88.4658
 21
13.7236
  0
LINE
  8
0
 10
88.4658
 20
13.7236
 11
88.4189
 21
13.7002
  0
LINE
  8
0
 10
88.4189
 20
13.7002
 11
88.3877
 21
13.6865
  0
LINE
  8
0
 10
88.3877
 20
13.6865
 11
88.3711
 21
13.6797
  0
LINE
  8
0
 10
88.3711
 20
13.6797
 11
88.3555
 21
13.6729
  0
LINE
  8
0
 10
88.3555
 20
13.6729
 11
88.3057
 21
13.6553
  0
LINE
  8
0
 10
88.3057
 20
13.6553
 11
88.2559
 21
13.6406
  0
LINE
  8
0
 10
88.2559
 20
13.6406
 11
88.2383
 21
13.6367
  0
LINE
  8
0
 10
88.2383
 20
13.6367
 11
88.2217
 21
13.6328
  0
LINE
  8
0
 10
88.2217
 20
13.6328
 11
88.2041
 21
13.6289
  0
LINE
  8
0
 10
88.2041
 20
13.6289
 11
88.1875
 21
13.625
  0
LINE
  8
0
 10
88.1875
 20
13.625
 11
88.1699
 21
13.6221
  0
LINE
  8
0
 10
88.1699
 20
13.6221
 11
88.1533
 21
13.6191
  0
LINE
  8
0
 10
88.1533
 20
13.6191
 11
88.1357
 21
13.6162
  0
LINE
  8
0
 10
88.1357
 20
13.6162
 11
88.1182
 21
13.6143
  0
LINE
  8
0
 10
88.1182
 20
13.6143
 11
88.1016
 21
13.6123
  0
LINE
  8
0
 10
88.1016
 20
13.6123
 11
88.084
 21
13.6104
  0
LINE
  8
0
 10
88.084
 20
13.6104
 11
88.0137
 21
13.6064
  0
LINE
  8
0
 10
88.0137
 20
13.6064
 11
81.9824
 21
13.6064
  0
LINE
  8
0
 10
14.249
 20
10
 11
14.2324
 21
10.001
  0
LINE
  8
0
 10
14.2324
 20
10.001
 11
14.2148
 21
10.001
  0
LINE
  8
0
 10
14.2148
 20
10.001
 11
14.1973
 21
10.002
  0
LINE
  8
0
 10
14.1973
 20
10.002
 11
14.1621
 21
10.0059
  0
LINE
  8
0
 10
14.1621
 20
10.0059
 11
14.1455
 21
10.0078
  0
LINE
  8
0
 10
14.1455
 20
10.0078
 11
14.1279
 21
10.0098
  0
LINE
  8
0
 10
14.1279
 20
10.0098
 11
14.1104
 21
10.0127
  0
LINE
  8
0
 10
14.1104
 20
10.0127
 11
14.0938
 21
10.0156
  0
LINE
  8
0
 10
14.0938
 20
10.0156
 11
14.0586
 21
10.0215
  0
LINE
  8
0
 10
14.0586
 20
10.0215
 11
14.0254
 21
10.0293
  0
LINE
  8
0
 10
14.0254
 20
10.0293
 11
14.0078
 21
10.0342
  0
LINE
  8
0
 10
14.0078
 20
10.0342
 11
13.958
 21
10.0488
  0
LINE
  8
0
 10
13.958
 20
10.0488
 11
13.9082
 21
10.0664
  0
LINE
  8
0
 10
13.9082
 20
10.0664
 11
13.8926
 21
10.0732
  0
LINE
  8
0
 10
13.8926
 20
10.0732
 11
13.876
 21
10.0791
  0
LINE
  8
0
 10
13.876
 20
10.0791
 11
13.8604
 21
10.0869
  0
LINE
  8
0
 10
13.8604
 20
10.0869
 11
13.8447
 21
10.0938
  0
LINE
  8
0
 10
13.8447
 20
10.0938
 11
13.8281
 21
10.1016
  0
LINE
  8
0
 10
13.8281
 20
10.1016
 11
13.8125
 21
10.1094
  0
LINE
  8
0
 10
13.8125
 20
10.1094
 11
13.7979
 21
10.1172
  0
LINE
  8
0
 10
13.7979
 20
10.1172
 11
13.7822
 21
10.125
  0
LINE
  8
0
 10
13.7822
 20
10.125
 11
13.7666
 21
10.1338
  0
LINE
  8
0
 10
13.7666
 20
10.1338
 11
13.752
 21
10.1426
  0
LINE
  8
0
 10
13.752
 20
10.1426
 11
13.7373
 21
10.1523
  0
LINE
  8
0
 10
13.7373
 20
10.1523
 11
13.7227
 21
10.1611
  0
LINE
  8
0
 10
13.7227
 20
10.1611
 11
13.6934
 21
10.1807
  0
LINE
  8
0
 10
13.6934
 20
10.1807
 11
13.6787
 21
10.1914
  0
LINE
  8
0
 10
13.6787
 20
10.1914
 11
13.665
 21
10.2012
  0
LINE
  8
0
 10
13.665
 20
10.2012
 11
13.6377
 21
10.2227
  0
LINE
  8
0
 10
13.6377
 20
10.2227
 11
13.624
 21
10.2344
  0
LINE
  8
0
 10
13.624
 20
10.2344
 11
13.6113
 21
10.2451
  0
LINE
  8
0
 10
13.6113
 20
10.2451
 11
13.5977
 21
10.2568
  0
LINE
  8
0
 10
13.5977
 20
10.2568
 11
13.5723
 21
10.2803
  0
LINE
  8
0
 10
13.5723
 20
10.2803
 11
13.5596
 21
10.293
  0
LINE
  8
0
 10
13.5596
 20
10.293
 11
13.5479
 21
10.3057
  0
LINE
  8
0
 10
13.5479
 20
10.3057
 11
13.5352
 21
10.3184
  0
LINE
  8
0
 10
13.5352
 20
10.3184
 11
13.5234
 21
10.3311
  0
LINE
  8
0
 10
13.5234
 20
10.3311
 11
13.5127
 21
10.3438
  0
LINE
  8
0
 10
13.5127
 20
10.3438
 11
13.501
 21
10.3574
  0
LINE
  8
0
 10
13.501
 20
10.3574
 11
13.4902
 21
10.3711
  0
LINE
  8
0
 10
13.4902
 20
10.3711
 11
13.4785
 21
10.3848
  0
LINE
  8
0
 10
13.4785
 20
10.3848
 11
13.4688
 21
10.3984
  0
LINE
  8
0
 10
13.4688
 20
10.3984
 11
13.458
 21
10.4121
  0
LINE
  8
0
 10
13.458
 20
10.4121
 11
13.4482
 21
10.4268
  0
LINE
  8
0
 10
13.4482
 20
10.4268
 11
13.4375
 21
10.4404
  0
LINE
  8
0
 10
13.4375
 20
10.4404
 11
13.4287
 21
10.4551
  0
LINE
  8
0
 10
13.4287
 20
10.4551
 11
13.4189
 21
10.4697
  0
LINE
  8
0
 10
13.4189
 20
10.4697
 11
13.4102
 21
10.4854
  0
LINE
  8
0
 10
13.4102
 20
10.4854
 11
13.4014
 21
10.5
  0
LINE
  8
0
 10
13.4014
 20
10.5
 11
13.3926
 21
10.5156
  0
LINE
  8
0
 10
13.3926
 20
10.5156
 11
13.3838
 21
10.5303
  0
LINE
  8
0
 10
13.3838
 20
10.5303
 11
13.3604
 21
10.5771
  0
LINE
  8
0
 10
13.3604
 20
10.5771
 11
13.3535
 21
10.5938
  0
LINE
  8
0
 10
13.3535
 20
10.5938
 11
13.3398
 21
10.625
  0
LINE
  8
0
 10
13.3398
 20
10.625
 11
13.333
 21
10.6416
  0
LINE
  8
0
 10
13.333
 20
10.6416
 11
13.3154
 21
10.6914
  0
LINE
  8
0
 10
13.3154
 20
10.6914
 11
13.3008
 21
10.7412
  0
LINE
  8
0
 10
13.3008
 20
10.7412
 11
13.2969
 21
10.7578
  0
LINE
  8
0
 10
13.2969
 20
10.7578
 11
13.293
 21
10.7754
  0
LINE
  8
0
 10
13.293
 20
10.7754
 11
13.2891
 21
10.792
  0
LINE
  8
0
 10
13.2891
 20
10.792
 11
13.2852
 21
10.8096
  0
LINE
  8
0
 10
13.2852
 20
10.8096
 11
13.2822
 21
10.8262
  0
LINE
  8
0
 10
13.2822
 20
10.8262
 11
13.2793
 21
10.8438
  0
LINE
  8
0
 10
13.2793
 20
10.8438
 11
13.2764
 21
10.8604
  0
LINE
  8
0
 10
13.2764
 20
10.8604
 11
13.2705
 21
10.9131
  0
LINE
  8
0
 10
13.2705
 20
10.9131
 11
13.2695
 21
10.9307
  0
LINE
  8
0
 10
13.2695
 20
10.9307
 11
13.2686
 21
10.9473
  0
LINE
  8
0
 10
13.2686
 20
10.9473
 11
13.2676
 21
10.9648
  0
LINE
  8
0
 10
13.2676
 20
10.9648
 11
13.2676
 21
10.9824
  0
LINE
  8
0
 10
13.2676
 20
10.9824
 11
13.2666
 21
11
  0
LINE
  8
0
 10
13.2666
 20
11
 11
13.2559
 21
22.501
  0
LINE
  8
0
 10
13.2559
 20
22.501
 11
13.2559
 21
22.5361
  0
LINE
  8
0
 10
13.2559
 20
22.5361
 11
13.2578
 21
22.5713
  0
LINE
  8
0
 10
13.2578
 20
22.5713
 11
13.2598
 21
22.5889
  0
LINE
  8
0
 10
13.2598
 20
22.5889
 11
13.2607
 21
22.6055
  0
LINE
  8
0
 10
13.2607
 20
22.6055
 11
13.2627
 21
22.623
  0
LINE
  8
0
 10
13.2627
 20
22.623
 11
13.2656
 21
22.6406
  0
LINE
  8
0
 10
13.2656
 20
22.6406
 11
13.2676
 21
22.6582
  0
LINE
  8
0
 10
13.2676
 20
22.6582
 11
13.2705
 21
22.6748
  0
LINE
  8
0
 10
13.2705
 20
22.6748
 11
13.2744
 21
22.6924
  0
LINE
  8
0
 10
13.2744
 20
22.6924
 11
13.2773
 21
22.709
  0
LINE
  8
0
 10
13.2773
 20
22.709
 11
13.2812
 21
22.7266
  0
LINE
  8
0
 10
13.2812
 20
22.7266
 11
13.2852
 21
22.7432
  0
LINE
  8
0
 10
13.2852
 20
22.7432
 11
13.29
 21
22.7598
  0
LINE
  8
0
 10
13.29
 20
22.7598
 11
13.2939
 21
22.7773
  0
LINE
  8
0
 10
13.2939
 20
22.7773
 11
13.2998
 21
22.7939
  0
LINE
  8
0
 10
13.2998
 20
22.7939
 11
13.3047
 21
22.8105
  0
LINE
  8
0
 10
13.3047
 20
22.8105
 11
13.3164
 21
22.8438
  0
LINE
  8
0
 10
13.3164
 20
22.8438
 11
13.3223
 21
22.8594
  0
LINE
  8
0
 10
13.3223
 20
22.8594
 11
13.3281
 21
22.876
  0
LINE
  8
0
 10
13.3281
 20
22.876
 11
13.335
 21
22.8916
  0
LINE
  8
0
 10
13.335
 20
22.8916
 11
13.3418
 21
22.9082
  0
LINE
  8
0
 10
13.3418
 20
22.9082
 11
13.3496
 21
22.9238
  0
LINE
  8
0
 10
13.3496
 20
22.9238
 11
13.3564
 21
22.9395
  0
LINE
  8
0
 10
13.3564
 20
22.9395
 11
13.3643
 21
22.9551
  0
LINE
  8
0
 10
13.3643
 20
22.9551
 11
13.373
 21
22.9707
  0
LINE
  8
0
 10
13.373
 20
22.9707
 11
13.3809
 21
22.9863
  0
LINE
  8
0
 10
13.3809
 20
22.9863
 11
13.3896
 21
23.001
  0
LINE
  8
0
 10
13.3896
 20
23.001
 11
13.3984
 21
23.0166
  0
LINE
  8
0
 10
13.3984
 20
23.0166
 11
13.4072
 21
23.0312
  0
LINE
  8
0
 10
13.4072
 20
23.0312
 11
13.4365
 21
23.0752
  0
LINE
  8
0
 10
13.4365
 20
23.0752
 11
13.4463
 21
23.0889
  0
LINE
  8
0
 10
13.4463
 20
23.0889
 11
13.457
 21
23.1035
  0
LINE
  8
0
 10
13.457
 20
23.1035
 11
13.4893
 21
23.1445
  0
LINE
  8
0
 10
13.4893
 20
23.1445
 11
13.501
 21
23.1572
  0
LINE
  8
0
 10
13.501
 20
23.1572
 11
13.5127
 21
23.1709
  0
LINE
  8
0
 10
13.5127
 20
23.1709
 11
13.5361
 21
23.1963
  0
LINE
  8
0
 10
13.5361
 20
23.1963
 11
13.5488
 21
23.208
  0
LINE
  8
0
 10
13.5488
 20
23.208
 11
13.5605
 21
23.2207
  0
LINE
  8
0
 10
13.5605
 20
23.2207
 11
13.5732
 21
23.2324
  0
LINE
  8
0
 10
13.5732
 20
23.2324
 11
13.5869
 21
23.2441
  0
LINE
  8
0
 10
13.5869
 20
23.2441
 11
13.5996
 21
23.2559
  0
LINE
  8
0
 10
13.5996
 20
23.2559
 11
13.6133
 21
23.2676
  0
LINE
  8
0
 10
13.6133
 20
23.2676
 11
13.626
 21
23.2783
  0
LINE
  8
0
 10
13.626
 20
23.2783
 11
13.6396
 21
23.2891
  0
LINE
  8
0
 10
13.6396
 20
23.2891
 11
13.6543
 21
23.2998
  0
LINE
  8
0
 10
13.6543
 20
23.2998
 11
13.668
 21
23.3105
  0
LINE
  8
0
 10
13.668
 20
23.3105
 11
13.6816
 21
23.3203
  0
LINE
  8
0
 10
13.6816
 20
23.3203
 11
13.7256
 21
23.3496
  0
LINE
  8
0
 10
13.7256
 20
23.3496
 11
13.7402
 21
23.3584
  0
LINE
  8
0
 10
13.7402
 20
23.3584
 11
13.7559
 21
23.3672
  0
LINE
  8
0
 10
13.7559
 20
23.3672
 11
13.7705
 21
23.376
  0
LINE
  8
0
 10
13.7705
 20
23.376
 11
13.7861
 21
23.3838
  0
LINE
  8
0
 10
13.7861
 20
23.3838
 11
13.8018
 21
23.3926
  0
LINE
  8
0
 10
13.8018
 20
23.3926
 11
13.8174
 21
23.4004
  0
LINE
  8
0
 10
13.8174
 20
23.4004
 11
13.833
 21
23.4072
  0
LINE
  8
0
 10
13.833
 20
23.4072
 11
13.8486
 21
23.415
  0
LINE
  8
0
 10
13.8486
 20
23.415
 11
13.8652
 21
23.4219
  0
LINE
  8
0
 10
13.8652
 20
23.4219
 11
13.8809
 21
23.4287
  0
LINE
  8
0
 10
13.8809
 20
23.4287
 11
13.8975
 21
23.4346
  0
LINE
  8
0
 10
13.8975
 20
23.4346
 11
13.9141
 21
23.4414
  0
LINE
  8
0
 10
13.9141
 20
23.4414
 11
13.9297
 21
23.4473
  0
LINE
  8
0
 10
13.9297
 20
23.4473
 11
13.9463
 21
23.4521
  0
LINE
  8
0
 10
13.9463
 20
23.4521
 11
13.9629
 21
23.458
  0
LINE
  8
0
 10
13.9629
 20
23.458
 11
13.9805
 21
23.4629
  0
LINE
  8
0
 10
13.9805
 20
23.4629
 11
13.9971
 21
23.4668
  0
LINE
  8
0
 10
13.9971
 20
23.4668
 11
14.0137
 21
23.4717
  0
LINE
  8
0
 10
14.0137
 20
23.4717
 11
14.0303
 21
23.4756
  0
LINE
  8
0
 10
14.0303
 20
23.4756
 11
14.0479
 21
23.4795
  0
LINE
  8
0
 10
14.0479
 20
23.4795
 11
14.0645
 21
23.4834
  0
LINE
  8
0
 10
14.0645
 20
23.4834
 11
14.0996
 21
23.4893
  0
LINE
  8
0
 10
14.0996
 20
23.4893
 11
14.1162
 21
23.4912
  0
LINE
  8
0
 10
14.1162
 20
23.4912
 11
14.1338
 21
23.4941
  0
LINE
  8
0
 10
14.1338
 20
23.4941
 11
14.1514
 21
23.4961
  0
LINE
  8
0
 10
14.1514
 20
23.4961
 11
14.1689
 21
23.4971
  0
LINE
  8
0
 10
14.1689
 20
23.4971
 11
14.1855
 21
23.499
  0
LINE
  8
0
 10
14.1855
 20
23.499
 11
14.2207
 21
23.501
  0
LINE
  8
0
 10
14.2207
 20
23.501
 11
27.75
 21
23.502
  0
LINE
  8
0
 10
27.75
 20
23.502
 11
27.7666
 21
23.501
  0
LINE
  8
0
 10
27.7666
 20
23.501
 11
27.7842
 21
23.501
  0
LINE
  8
0
 10
27.7842
 20
23.501
 11
27.8369
 21
23.498
  0
LINE
  8
0
 10
27.8369
 20
23.498
 11
27.8545
 21
23.4961
  0
LINE
  8
0
 10
27.8545
 20
23.4961
 11
27.8711
 21
23.4941
  0
LINE
  8
0
 10
27.8711
 20
23.4941
 11
27.8887
 21
23.4922
  0
LINE
  8
0
 10
27.8887
 20
23.4922
 11
27.9062
 21
23.4893
  0
LINE
  8
0
 10
27.9062
 20
23.4893
 11
27.9229
 21
23.4863
  0
LINE
  8
0
 10
27.9229
 20
23.4863
 11
27.9404
 21
23.4834
  0
LINE
  8
0
 10
27.9404
 20
23.4834
 11
27.957
 21
23.4795
  0
LINE
  8
0
 10
27.957
 20
23.4795
 11
27.9746
 21
23.4756
  0
LINE
  8
0
 10
27.9746
 20
23.4756
 11
27.9912
 21
23.4717
  0
LINE
  8
0
 10
27.9912
 20
23.4717
 11
28.0088
 21
23.4678
  0
LINE
  8
0
 10
28.0088
 20
23.4678
 11
28.042
 21
23.458
  0
LINE
  8
0
 10
28.042
 20
23.458
 11
28.0586
 21
23.4521
  0
LINE
  8
0
 10
28.0586
 20
23.4521
 11
28.0752
 21
23.4473
  0
LINE
  8
0
 10
28.0752
 20
23.4473
 11
28.0918
 21
23.4414
  0
LINE
  8
0
 10
28.0918
 20
23.4414
 11
28.1084
 21
23.4346
  0
LINE
  8
0
 10
28.1084
 20
23.4346
 11
28.124
 21
23.4287
  0
LINE
  8
0
 10
28.124
 20
23.4287
 11
28.1406
 21
23.4219
  0
LINE
  8
0
 10
28.1406
 20
23.4219
 11
28.1719
 21
23.4082
  0
LINE
  8
0
 10
28.1719
 20
23.4082
 11
28.2188
 21
23.3848
  0
LINE
  8
0
 10
28.2188
 20
23.3848
 11
28.25
 21
23.3672
  0
LINE
  8
0
 10
28.25
 20
23.3672
 11
28.2793
 21
23.3496
  0
LINE
  8
0
 10
28.2793
 20
23.3496
 11
28.3232
 21
23.3203
  0
LINE
  8
0
 10
28.3232
 20
23.3203
 11
28.3369
 21
23.3105
  0
LINE
  8
0
 10
28.3369
 20
23.3105
 11
28.3516
 21
23.2998
  0
LINE
  8
0
 10
28.3516
 20
23.2998
 11
28.3926
 21
23.2676
  0
LINE
  8
0
 10
28.3926
 20
23.2676
 11
28.4053
 21
23.2559
  0
LINE
  8
0
 10
28.4053
 20
23.2559
 11
28.4189
 21
23.2441
  0
LINE
  8
0
 10
28.4189
 20
23.2441
 11
28.457
 21
23.209
  0
LINE
  8
0
 10
28.457
 20
23.209
 11
28.4805
 21
23.1836
  0
LINE
  8
0
 10
28.4805
 20
23.1836
 11
28.4932
 21
23.1709
  0
LINE
  8
0
 10
28.4932
 20
23.1709
 11
28.5039
 21
23.1572
  0
LINE
  8
0
 10
28.5039
 20
23.1572
 11
28.5156
 21
23.1445
  0
LINE
  8
0
 10
28.5156
 20
23.1445
 11
28.5479
 21
23.1035
  0
LINE
  8
0
 10
28.5479
 20
23.1035
 11
28.5586
 21
23.0889
  0
LINE
  8
0
 10
28.5586
 20
23.0889
 11
28.5684
 21
23.0752
  0
LINE
  8
0
 10
28.5684
 20
23.0752
 11
28.5977
 21
23.0312
  0
LINE
  8
0
 10
28.5977
 20
23.0312
 11
28.6152
 21
23.002
  0
LINE
  8
0
 10
28.6152
 20
23.002
 11
28.6328
 21
22.9707
  0
LINE
  8
0
 10
28.6328
 20
22.9707
 11
28.6562
 21
22.9238
  0
LINE
  8
0
 10
28.6562
 20
22.9238
 11
28.6699
 21
22.8926
  0
LINE
  8
0
 10
28.6699
 20
22.8926
 11
28.6836
 21
22.8594
  0
LINE
  8
0
 10
28.6836
 20
22.8594
 11
28.6895
 21
22.8438
  0
LINE
  8
0
 10
28.6895
 20
22.8438
 11
28.6953
 21
22.8271
  0
LINE
  8
0
 10
28.6953
 20
22.8271
 11
28.7002
 21
22.8105
  0
LINE
  8
0
 10
28.7002
 20
22.8105
 11
28.7061
 21
22.7939
  0
LINE
  8
0
 10
28.7061
 20
22.7939
 11
28.7158
 21
22.7607
  0
LINE
  8
0
 10
28.7158
 20
22.7607
 11
28.7197
 21
22.7432
  0
LINE
  8
0
 10
28.7197
 20
22.7432
 11
28.7236
 21
22.7266
  0
LINE
  8
0
 10
28.7236
 20
22.7266
 11
28.7275
 21
22.709
  0
LINE
  8
0
 10
28.7275
 20
22.709
 11
28.7314
 21
22.6924
  0
LINE
  8
0
 10
28.7314
 20
22.6924
 11
28.7344
 21
22.6748
  0
LINE
  8
0
 10
28.7344
 20
22.6748
 11
28.7373
 21
22.6582
  0
LINE
  8
0
 10
28.7373
 20
22.6582
 11
28.7402
 21
22.6406
  0
LINE
  8
0
 10
28.7402
 20
22.6406
 11
28.7422
 21
22.623
  0
LINE
  8
0
 10
28.7422
 20
22.623
 11
28.7441
 21
22.6064
  0
LINE
  8
0
 10
28.7441
 20
22.6064
 11
28.7461
 21
22.5889
  0
LINE
  8
0
 10
28.7461
 20
22.5889
 11
28.749
 21
22.5361
  0
LINE
  8
0
 10
28.749
 20
22.5361
 11
28.749
 21
22.5186
  0
LINE
  8
0
 10
28.749
 20
22.5186
 11
28.75
 21
22.502
  0
LINE
  8
0
 10
28.75
 20
22.502
 11
28.75
 21
10.9648
  0
LINE
  8
0
 10
28.75
 20
10.9648
 11
28.749
 21
10.9473
  0
LINE
  8
0
 10
28.749
 20
10.9473
 11
28.748
 21
10.9307
  0
LINE
  8
0
 10
28.748
 20
10.9307
 11
28.7461
 21
10.9131
  0
LINE
  8
0
 10
28.7461
 20
10.9131
 11
28.7451
 21
10.8955
  0
LINE
  8
0
 10
28.7451
 20
10.8955
 11
28.7432
 21
10.8779
  0
LINE
  8
0
 10
28.7432
 20
10.8779
 11
28.7402
 21
10.8604
  0
LINE
  8
0
 10
28.7402
 20
10.8604
 11
28.7383
 21
10.8438
  0
LINE
  8
0
 10
28.7383
 20
10.8438
 11
28.7354
 21
10.8262
  0
LINE
  8
0
 10
28.7354
 20
10.8262
 11
28.7314
 21
10.8096
  0
LINE
  8
0
 10
28.7314
 20
10.8096
 11
28.7285
 21
10.792
  0
LINE
  8
0
 10
28.7285
 20
10.792
 11
28.7246
 21
10.7754
  0
LINE
  8
0
 10
28.7246
 20
10.7754
 11
28.7207
 21
10.7578
  0
LINE
  8
0
 10
28.7207
 20
10.7578
 11
28.7158
 21
10.7412
  0
LINE
  8
0
 10
28.7158
 20
10.7412
 11
28.7119
 21
10.7246
  0
LINE
  8
0
 10
28.7119
 20
10.7246
 11
28.7061
 21
10.708
  0
LINE
  8
0
 10
28.7061
 20
10.708
 11
28.7012
 21
10.6914
  0
LINE
  8
0
 10
28.7012
 20
10.6914
 11
28.6777
 21
10.625
  0
LINE
  8
0
 10
28.6777
 20
10.625
 11
28.6641
 21
10.5938
  0
LINE
  8
0
 10
28.6641
 20
10.5938
 11
28.6562
 21
10.5771
  0
LINE
  8
0
 10
28.6562
 20
10.5771
 11
28.6494
 21
10.5615
  0
LINE
  8
0
 10
28.6494
 20
10.5615
 11
28.6416
 21
10.5459
  0
LINE
  8
0
 10
28.6416
 20
10.5459
 11
28.6328
 21
10.5303
  0
LINE
  8
0
 10
28.6328
 20
10.5303
 11
28.625
 21
10.5156
  0
LINE
  8
0
 10
28.625
 20
10.5156
 11
28.6162
 21
10.5
  0
LINE
  8
0
 10
28.6162
 20
10.5
 11
28.6074
 21
10.4854
  0
LINE
  8
0
 10
28.6074
 20
10.4854
 11
28.5986
 21
10.4697
  0
LINE
  8
0
 10
28.5986
 20
10.4697
 11
28.5791
 21
10.4404
  0
LINE
  8
0
 10
28.5791
 20
10.4404
 11
28.5693
 21
10.4268
  0
LINE
  8
0
 10
28.5693
 20
10.4268
 11
28.5596
 21
10.4121
  0
LINE
  8
0
 10
28.5596
 20
10.4121
 11
28.5166
 21
10.3574
  0
LINE
  8
0
 10
28.5166
 20
10.3574
 11
28.5049
 21
10.3438
  0
LINE
  8
0
 10
28.5049
 20
10.3438
 11
28.4697
 21
10.3057
  0
LINE
  8
0
 10
28.4697
 20
10.3057
 11
28.457
 21
10.293
  0
LINE
  8
0
 10
28.457
 20
10.293
 11
28.4453
 21
10.2803
  0
LINE
  8
0
 10
28.4453
 20
10.2803
 11
28.4326
 21
10.2686
  0
LINE
  8
0
 10
28.4326
 20
10.2686
 11
28.4189
 21
10.2568
  0
LINE
  8
0
 10
28.4189
 20
10.2568
 11
28.4062
 21
10.2451
  0
LINE
  8
0
 10
28.4062
 20
10.2451
 11
28.3926
 21
10.2344
  0
LINE
  8
0
 10
28.3926
 20
10.2344
 11
28.3799
 21
10.2227
  0
LINE
  8
0
 10
28.3799
 20
10.2227
 11
28.3662
 21
10.2119
  0
LINE
  8
0
 10
28.3662
 20
10.2119
 11
28.3516
 21
10.2012
  0
LINE
  8
0
 10
28.3516
 20
10.2012
 11
28.3379
 21
10.1914
  0
LINE
  8
0
 10
28.3379
 20
10.1914
 11
28.3242
 21
10.1807
  0
LINE
  8
0
 10
28.3242
 20
10.1807
 11
28.2949
 21
10.1611
  0
LINE
  8
0
 10
28.2949
 20
10.1611
 11
28.2803
 21
10.1523
  0
LINE
  8
0
 10
28.2803
 20
10.1523
 11
28.2656
 21
10.1426
  0
LINE
  8
0
 10
28.2656
 20
10.1426
 11
28.25
 21
10.1338
  0
LINE
  8
0
 10
28.25
 20
10.1338
 11
28.2354
 21
10.125
  0
LINE
  8
0
 10
28.2354
 20
10.125
 11
28.1729
 21
10.0938
  0
LINE
  8
0
 10
28.1729
 20
10.0938
 11
28.1572
 21
10.0869
  0
LINE
  8
0
 10
28.1572
 20
10.0869
 11
28.1406
 21
10.0791
  0
LINE
  8
0
 10
28.1406
 20
10.0791
 11
28.125
 21
10.0732
  0
LINE
  8
0
 10
28.125
 20
10.0732
 11
28.1084
 21
10.0664
  0
LINE
  8
0
 10
28.1084
 20
10.0664
 11
28.0918
 21
10.0605
  0
LINE
  8
0
 10
28.0918
 20
10.0605
 11
28.0762
 21
10.0547
  0
LINE
  8
0
 10
28.0762
 20
10.0547
 11
28.0596
 21
10.0488
  0
LINE
  8
0
 10
28.0596
 20
10.0488
 11
28.043
 21
10.0439
  0
LINE
  8
0
 10
28.043
 20
10.0439
 11
28.0254
 21
10.0391
  0
LINE
  8
0
 10
28.0254
 20
10.0391
 11
27.9922
 21
10.0293
  0
LINE
  8
0
 10
27.9922
 20
10.0293
 11
27.9756
 21
10.0254
  0
LINE
  8
0
 10
27.9756
 20
10.0254
 11
27.958
 21
10.0215
  0
LINE
  8
0
 10
27.958
 20
10.0215
 11
27.9414
 21
10.0186
  0
LINE
  8
0
 10
27.9414
 20
10.0186
 11
27.9062
 21
10.0127
  0
LINE
  8
0
 10
27.9062
 20
10.0127
 11
27.8896
 21
10.0098
  0
LINE
  8
0
 10
27.8896
 20
10.0098
 11
27.8369
 21
10.0039
  0
LINE
  8
0
 10
27.8369
 20
10.0039
 11
27.8203
 21
10.002
  0
LINE
  8
0
 10
27.8203
 20
10.002
 11
27.8027
 21
10.001
  0
LINE
  8
0
 10
27.8027
 20
10.001
 11
27.7852
 21
10.001
  0
LINE
  8
0
 10
27.7852
 20
10.001
 11
27.7676
 21
10
  0
LINE
  8
0
 10
27.7676
 20
10
 11
14.249
 21
10
  0
LINE
  8
0
 10
63.9648
 20
20.4932
 11
63.9473
 21
20.4932
  0
LINE
  8
0
 10
63.9473
 20
20.4932
 11
63.9307
 21
20.4951
  0
LINE
  8
0
 10
63.9307
 20
20.4951
 11
63.9131
 21
20.4961
  0
LINE
  8
0
 10
63.9131
 20
20.4961
 11
63.8604
 21
20.502
  0
LINE
  8
0
 10
63.8604
 20
20.502
 11
63.8438
 21
20.5049
  0
LINE
  8
0
 10
63.8438
 20
20.5049
 11
63.8262
 21
20.5078
  0
LINE
  8
0
 10
63.8262
 20
20.5078
 11
63.8096
 21
20.5107
  0
LINE
  8
0
 10
63.8096
 20
20.5107
 11
63.792
 21
20.5137
  0
LINE
  8
0
 10
63.792
 20
20.5137
 11
63.7754
 21
20.5176
  0
LINE
  8
0
 10
63.7754
 20
20.5176
 11
63.7578
 21
20.5215
  0
LINE
  8
0
 10
63.7578
 20
20.5215
 11
63.6914
 21
20.541
  0
LINE
  8
0
 10
63.6914
 20
20.541
 11
63.6416
 21
20.5586
  0
LINE
  8
0
 10
63.6416
 20
20.5586
 11
63.625
 21
20.5654
  0
LINE
  8
0
 10
63.625
 20
20.5654
 11
63.6094
 21
20.5713
  0
LINE
  8
0
 10
63.6094
 20
20.5713
 11
63.5938
 21
20.5791
  0
LINE
  8
0
 10
63.5938
 20
20.5791
 11
63.5771
 21
20.5859
  0
LINE
  8
0
 10
63.5771
 20
20.5859
 11
63.5303
 21
20.6094
  0
LINE
  8
0
 10
63.5303
 20
20.6094
 11
63.5156
 21
20.6172
  0
LINE
  8
0
 10
63.5156
 20
20.6172
 11
63.5
 21
20.626
  0
LINE
  8
0
 10
63.5
 20
20.626
 11
63.4854
 21
20.6348
  0
LINE
  8
0
 10
63.4854
 20
20.6348
 11
63.4697
 21
20.6445
  0
LINE
  8
0
 10
63.4697
 20
20.6445
 11
63.4551
 21
20.6533
  0
LINE
  8
0
 10
63.4551
 20
20.6533
 11
63.4404
 21
20.6631
  0
LINE
  8
0
 10
63.4404
 20
20.6631
 11
63.4268
 21
20.6729
  0
LINE
  8
0
 10
63.4268
 20
20.6729
 11
63.4121
 21
20.6836
  0
LINE
  8
0
 10
63.4121
 20
20.6836
 11
63.3984
 21
20.6934
  0
LINE
  8
0
 10
63.3984
 20
20.6934
 11
63.3711
 21
20.7148
  0
LINE
  8
0
 10
63.3711
 20
20.7148
 11
63.3574
 21
20.7266
  0
LINE
  8
0
 10
63.3574
 20
20.7266
 11
63.3438
 21
20.7373
  0
LINE
  8
0
 10
63.3438
 20
20.7373
 11
63.3057
 21
20.7725
  0
LINE
  8
0
 10
63.3057
 20
20.7725
 11
63.2803
 21
20.7979
  0
LINE
  8
0
 10
63.2803
 20
20.7979
 11
63.2451
 21
20.8359
  0
LINE
  8
0
 10
63.2451
 20
20.8359
 11
63.2344
 21
20.8496
  0
LINE
  8
0
 10
63.2344
 20
20.8496
 11
63.2227
 21
20.8633
  0
LINE
  8
0
 10
63.2227
 20
20.8633
 11
63.2012
 21
20.8906
  0
LINE
  8
0
 10
63.2012
 20
20.8906
 11
63.1914
 21
20.9043
  0
LINE
  8
0
 10
63.1914
 20
20.9043
 11
63.1807
 21
20.9189
  0
LINE
  8
0
 10
63.1807
 20
20.9189
 11
63.1709
 21
20.9326
  0
LINE
  8
0
 10
63.1709
 20
20.9326
 11
63.1611
 21
20.9473
  0
LINE
  8
0
 10
63.1611
 20
20.9473
 11
63.1523
 21
20.9619
  0
LINE
  8
0
 10
63.1523
 20
20.9619
 11
63.1426
 21
20.9775
  0
LINE
  8
0
 10
63.1426
 20
20.9775
 11
63.1338
 21
20.9922
  0
LINE
  8
0
 10
63.1338
 20
20.9922
 11
63.125
 21
21.0078
  0
LINE
  8
0
 10
63.125
 20
21.0078
 11
63.1172
 21
21.0225
  0
LINE
  8
0
 10
63.1172
 20
21.0225
 11
63.0938
 21
21.0693
  0
LINE
  8
0
 10
63.0938
 20
21.0693
 11
63.0869
 21
21.0859
  0
LINE
  8
0
 10
63.0869
 20
21.0859
 11
63.0791
 21
21.1016
  0
LINE
  8
0
 10
63.0791
 20
21.1016
 11
63.0732
 21
21.1172
  0
LINE
  8
0
 10
63.0732
 20
21.1172
 11
63.0664
 21
21.1338
  0
LINE
  8
0
 10
63.0664
 20
21.1338
 11
63.0488
 21
21.1836
  0
LINE
  8
0
 10
63.0488
 20
21.1836
 11
63.0293
 21
21.25
  0
LINE
  8
0
 10
63.0293
 20
21.25
 11
63.0254
 21
21.2676
  0
LINE
  8
0
 10
63.0254
 20
21.2676
 11
63.0215
 21
21.2842
  0
LINE
  8
0
 10
63.0215
 20
21.2842
 11
63.0186
 21
21.3018
  0
LINE
  8
0
 10
63.0186
 20
21.3018
 11
63.0156
 21
21.3184
  0
LINE
  8
0
 10
63.0156
 20
21.3184
 11
63.0098
 21
21.3535
  0
LINE
  8
0
 10
63.0098
 20
21.3535
 11
63.0078
 21
21.3701
  0
LINE
  8
0
 10
63.0078
 20
21.3701
 11
63.002
 21
21.4229
  0
LINE
  8
0
 10
63.002
 20
21.4229
 11
63.001
 21
21.4395
  0
LINE
  8
0
 10
63.001
 20
21.4395
 11
63.001
 21
21.457
  0
LINE
  8
0
 10
63.001
 20
21.457
 11
63
 21
21.4746
  0
LINE
  8
0
 10
63
 20
21.4746
 11
63
 21
22.5049
  0
LINE
  8
0
 10
63
 20
22.5049
 11
63.001
 21
22.5225
  0
LINE
  8
0
 10
63.001
 20
22.5225
 11
63.001
 21
22.54
  0
LINE
  8
0
 10
63.001
 20
22.54
 11
63.002
 21
22.5576
  0
LINE
  8
0
 10
63.002
 20
22.5576
 11
63.0059
 21
22.5928
  0
LINE
  8
0
 10
63.0059
 20
22.5928
 11
63.0078
 21
22.6094
  0
LINE
  8
0
 10
63.0078
 20
22.6094
 11
63.0098
 21
22.627
  0
LINE
  8
0
 10
63.0098
 20
22.627
 11
63.0127
 21
22.6445
  0
LINE
  8
0
 10
63.0127
 20
22.6445
 11
63.0156
 21
22.6611
  0
LINE
  8
0
 10
63.0156
 20
22.6611
 11
63.0186
 21
22.6787
  0
LINE
  8
0
 10
63.0186
 20
22.6787
 11
63.0215
 21
22.6953
  0
LINE
  8
0
 10
63.0215
 20
22.6953
 11
63.0254
 21
22.7129
  0
LINE
  8
0
 10
63.0254
 20
22.7129
 11
63.0293
 21
22.7295
  0
LINE
  8
0
 10
63.0293
 20
22.7295
 11
63.0342
 21
22.7471
  0
LINE
  8
0
 10
63.0342
 20
22.7471
 11
63.0488
 21
22.7969
  0
LINE
  8
0
 10
63.0488
 20
22.7969
 11
63.0605
 21
22.8301
  0
LINE
  8
0
 10
63.0605
 20
22.8301
 11
63.0664
 21
22.8457
  0
LINE
  8
0
 10
63.0664
 20
22.8457
 11
63.0732
 21
22.8623
  0
LINE
  8
0
 10
63.0732
 20
22.8623
 11
63.0791
 21
22.8789
  0
LINE
  8
0
 10
63.0791
 20
22.8789
 11
63.0869
 21
22.8945
  0
LINE
  8
0
 10
63.0869
 20
22.8945
 11
63.0938
 21
22.9102
  0
LINE
  8
0
 10
63.0938
 20
22.9102
 11
63.125
 21
22.9727
  0
LINE
  8
0
 10
63.125
 20
22.9727
 11
63.1338
 21
22.9883
  0
LINE
  8
0
 10
63.1338
 20
22.9883
 11
63.1426
 21
23.0029
  0
LINE
  8
0
 10
63.1426
 20
23.0029
 11
63.1523
 21
23.0176
  0
LINE
  8
0
 10
63.1523
 20
23.0176
 11
63.1611
 21
23.0322
  0
LINE
  8
0
 10
63.1611
 20
23.0322
 11
63.1807
 21
23.0615
  0
LINE
  8
0
 10
63.1807
 20
23.0615
 11
63.1914
 21
23.0752
  0
LINE
  8
0
 10
63.1914
 20
23.0752
 11
63.2012
 21
23.0898
  0
LINE
  8
0
 10
63.2012
 20
23.0898
 11
63.2227
 21
23.1172
  0
LINE
  8
0
 10
63.2227
 20
23.1172
 11
63.2344
 21
23.1309
  0
LINE
  8
0
 10
63.2344
 20
23.1309
 11
63.2451
 21
23.1436
  0
LINE
  8
0
 10
63.2451
 20
23.1436
 11
63.2568
 21
23.1572
  0
LINE
  8
0
 10
63.2568
 20
23.1572
 11
63.2803
 21
23.1826
  0
LINE
  8
0
 10
63.2803
 20
23.1826
 11
63.293
 21
23.1953
  0
LINE
  8
0
 10
63.293
 20
23.1953
 11
63.3438
 21
23.2422
  0
LINE
  8
0
 10
63.3438
 20
23.2422
 11
63.3574
 21
23.2539
  0
LINE
  8
0
 10
63.3574
 20
23.2539
 11
63.4121
 21
23.2969
  0
LINE
  8
0
 10
63.4121
 20
23.2969
 11
63.4268
 21
23.3066
  0
LINE
  8
0
 10
63.4268
 20
23.3066
 11
63.4404
 21
23.3164
  0
LINE
  8
0
 10
63.4404
 20
23.3164
 11
63.4697
 21
23.3359
  0
LINE
  8
0
 10
63.4697
 20
23.3359
 11
63.4854
 21
23.3447
  0
LINE
  8
0
 10
63.4854
 20
23.3447
 11
63.5
 21
23.3535
  0
LINE
  8
0
 10
63.5
 20
23.3535
 11
63.5156
 21
23.3623
  0
LINE
  8
0
 10
63.5156
 20
23.3623
 11
63.5303
 21
23.3711
  0
LINE
  8
0
 10
63.5303
 20
23.3711
 11
63.5771
 21
23.3945
  0
LINE
  8
0
 10
63.5771
 20
23.3945
 11
63.5938
 21
23.4014
  0
LINE
  8
0
 10
63.5938
 20
23.4014
 11
63.625
 21
23.415
  0
LINE
  8
0
 10
63.625
 20
23.415
 11
63.6416
 21
23.4219
  0
LINE
  8
0
 10
63.6416
 20
23.4219
 11
63.6748
 21
23.4336
  0
LINE
  8
0
 10
63.6748
 20
23.4336
 11
63.6914
 21
23.4385
  0
LINE
  8
0
 10
63.6914
 20
23.4385
 11
63.708
 21
23.4443
  0
LINE
  8
0
 10
63.708
 20
23.4443
 11
63.7412
 21
23.4541
  0
LINE
  8
0
 10
63.7412
 20
23.4541
 11
63.7578
 21
23.458
  0
LINE
  8
0
 10
63.7578
 20
23.458
 11
63.7754
 21
23.4619
  0
LINE
  8
0
 10
63.7754
 20
23.4619
 11
63.792
 21
23.4658
  0
LINE
  8
0
 10
63.792
 20
23.4658
 11
63.8096
 21
23.4697
  0
LINE
  8
0
 10
63.8096
 20
23.4697
 11
63.8262
 21
23.4727
  0
LINE
  8
0
 10
63.8262
 20
23.4727
 11
63.8438
 21
23.4756
  0
LINE
  8
0
 10
63.8438
 20
23.4756
 11
63.8604
 21
23.4785
  0
LINE
  8
0
 10
63.8604
 20
23.4785
 11
63.9131
 21
23.4844
  0
LINE
  8
0
 10
63.9131
 20
23.4844
 11
63.9307
 21
23.4854
  0
LINE
  8
0
 10
63.9307
 20
23.4854
 11
63.9473
 21
23.4863
  0
LINE
  8
0
 10
63.9473
 20
23.4863
 11
63.9648
 21
23.4873
  0
LINE
  8
0
 10
63.9648
 20
23.4873
 11
63.9824
 21
23.4873
  0
LINE
  8
0
 10
63.9824
 20
23.4873
 11
64
 21
23.4883
  0
LINE
  8
0
 10
64
 20
23.4883
 11
64
 21
23.4678
  0
LINE
  8
0
 10
64
 20
23.4678
 11
77.5
 21
23.499
  0
LINE
  8
0
 10
77.5
 20
23.499
 11
77.5352
 21
23.499
  0
LINE
  8
0
 10
77.5352
 20
23.499
 11
77.5527
 21
23.498
  0
LINE
  8
0
 10
77.5527
 20
23.498
 11
77.5693
 21
23.4971
  0
LINE
  8
0
 10
77.5693
 20
23.4971
 11
77.5869
 21
23.4961
  0
LINE
  8
0
 10
77.5869
 20
23.4961
 11
77.6221
 21
23.4922
  0
LINE
  8
0
 10
77.6221
 20
23.4922
 11
77.6396
 21
23.4893
  0
LINE
  8
0
 10
77.6396
 20
23.4893
 11
77.6562
 21
23.4873
  0
LINE
  8
0
 10
77.6562
 20
23.4873
 11
77.6738
 21
23.4844
  0
LINE
  8
0
 10
77.6738
 20
23.4844
 11
77.6904
 21
23.4814
  0
LINE
  8
0
 10
77.6904
 20
23.4814
 11
77.708
 21
23.4775
  0
LINE
  8
0
 10
77.708
 20
23.4775
 11
77.7246
 21
23.4736
  0
LINE
  8
0
 10
77.7246
 20
23.4736
 11
77.7422
 21
23.4697
  0
LINE
  8
0
 10
77.7422
 20
23.4697
 11
77.7588
 21
23.4658
  0
LINE
  8
0
 10
77.7588
 20
23.4658
 11
77.792
 21
23.4561
  0
LINE
  8
0
 10
77.792
 20
23.4561
 11
77.8086
 21
23.4502
  0
LINE
  8
0
 10
77.8086
 20
23.4502
 11
77.8252
 21
23.4453
  0
LINE
  8
0
 10
77.8252
 20
23.4453
 11
77.8418
 21
23.4395
  0
LINE
  8
0
 10
77.8418
 20
23.4395
 11
77.8584
 21
23.4326
  0
LINE
  8
0
 10
77.8584
 20
23.4326
 11
77.875
 21
23.4268
  0
LINE
  8
0
 10
77.875
 20
23.4268
 11
77.9062
 21
23.4131
  0
LINE
  8
0
 10
77.9062
 20
23.4131
 11
77.9229
 21
23.4053
  0
LINE
  8
0
 10
77.9229
 20
23.4053
 11
77.9385
 21
23.3984
  0
LINE
  8
0
 10
77.9385
 20
23.3984
 11
77.9697
 21
23.3828
  0
LINE
  8
0
 10
77.9697
 20
23.3828
 11
77.9844
 21
23.374
  0
LINE
  8
0
 10
77.9844
 20
23.374
 11
78
 21
23.3652
  0
LINE
  8
0
 10
78
 20
23.3652
 11
78.0146
 21
23.3564
  0
LINE
  8
0
 10
78.0146
 20
23.3564
 11
78.0303
 21
23.3477
  0
LINE
  8
0
 10
78.0303
 20
23.3477
 11
78.0596
 21
23.3281
  0
LINE
  8
0
 10
78.0596
 20
23.3281
 11
78.0732
 21
23.3184
  0
LINE
  8
0
 10
78.0732
 20
23.3184
 11
78.0879
 21
23.3086
  0
LINE
  8
0
 10
78.0879
 20
23.3086
 11
78.1426
 21
23.2656
  0
LINE
  8
0
 10
78.1426
 20
23.2656
 11
78.1562
 21
23.2539
  0
LINE
  8
0
 10
78.1562
 20
23.2539
 11
78.1943
 21
23.2188
  0
LINE
  8
0
 10
78.1943
 20
23.2188
 11
78.207
 21
23.2061
  0
LINE
  8
0
 10
78.207
 20
23.2061
 11
78.2197
 21
23.1943
  0
LINE
  8
0
 10
78.2197
 20
23.1943
 11
78.2432
 21
23.1689
  0
LINE
  8
0
 10
78.2432
 20
23.1689
 11
78.2549
 21
23.1553
  0
LINE
  8
0
 10
78.2549
 20
23.1553
 11
78.2656
 21
23.1426
  0
LINE
  8
0
 10
78.2656
 20
23.1426
 11
78.2773
 21
23.1289
  0
LINE
  8
0
 10
78.2773
 20
23.1289
 11
78.2988
 21
23.1016
  0
LINE
  8
0
 10
78.2988
 20
23.1016
 11
78.3086
 21
23.0869
  0
LINE
  8
0
 10
78.3086
 20
23.0869
 11
78.3193
 21
23.0732
  0
LINE
  8
0
 10
78.3193
 20
23.0732
 11
78.3389
 21
23.0439
  0
LINE
  8
0
 10
78.3389
 20
23.0439
 11
78.3477
 21
23.0293
  0
LINE
  8
0
 10
78.3477
 20
23.0293
 11
78.3574
 21
23.0146
  0
LINE
  8
0
 10
78.3574
 20
23.0146
 11
78.3662
 21
22.999
  0
LINE
  8
0
 10
78.3662
 20
22.999
 11
78.375
 21
22.9844
  0
LINE
  8
0
 10
78.375
 20
22.9844
 11
78.4062
 21
22.9219
  0
LINE
  8
0
 10
78.4062
 20
22.9219
 11
78.4131
 21
22.9062
  0
LINE
  8
0
 10
78.4131
 20
22.9062
 11
78.4209
 21
22.8906
  0
LINE
  8
0
 10
78.4209
 20
22.8906
 11
78.4268
 21
22.874
  0
LINE
  8
0
 10
78.4268
 20
22.874
 11
78.4336
 21
22.8574
  0
LINE
  8
0
 10
78.4336
 20
22.8574
 11
78.4395
 21
22.8418
  0
LINE
  8
0
 10
78.4395
 20
22.8418
 11
78.4512
 21
22.8086
  0
LINE
  8
0
 10
78.4512
 20
22.8086
 11
78.4609
 21
22.7754
  0
LINE
  8
0
 10
78.4609
 20
22.7754
 11
78.4658
 21
22.7578
  0
LINE
  8
0
 10
78.4658
 20
22.7578
 11
78.4707
 21
22.7412
  0
LINE
  8
0
 10
78.4707
 20
22.7412
 11
78.4746
 21
22.7246
  0
LINE
  8
0
 10
78.4746
 20
22.7246
 11
78.4785
 21
22.707
  0
LINE
  8
0
 10
78.4785
 20
22.707
 11
78.4814
 21
22.6904
  0
LINE
  8
0
 10
78.4814
 20
22.6904
 11
78.4844
 21
22.6729
  0
LINE
  8
0
 10
78.4844
 20
22.6729
 11
78.4873
 21
22.6562
  0
LINE
  8
0
 10
78.4873
 20
22.6562
 11
78.4902
 21
22.6387
  0
LINE
  8
0
 10
78.4902
 20
22.6387
 11
78.4941
 21
22.6035
  0
LINE
  8
0
 10
78.4941
 20
22.6035
 11
78.4961
 21
22.5869
  0
LINE
  8
0
 10
78.4961
 20
22.5869
 11
78.498
 21
22.5693
  0
LINE
  8
0
 10
78.498
 20
22.5693
 11
78.499
 21
22.5518
  0
LINE
  8
0
 10
78.499
 20
22.5518
 11
78.499
 21
22.5342
  0
LINE
  8
0
 10
78.499
 20
22.5342
 11
78.5
 21
22.5166
  0
LINE
  8
0
 10
78.5
 20
22.5166
 11
78.5
 21
21.4863
  0
LINE
  8
0
 10
78.5
 20
21.4863
 11
78.499
 21
21.4688
  0
LINE
  8
0
 10
78.499
 20
21.4688
 11
78.499
 21
21.4512
  0
LINE
  8
0
 10
78.499
 20
21.4512
 11
78.498
 21
21.4336
  0
LINE
  8
0
 10
78.498
 20
21.4336
 11
78.4961
 21
21.417
  0
LINE
  8
0
 10
78.4961
 20
21.417
 11
78.4902
 21
21.3643
  0
LINE
  8
0
 10
78.4902
 20
21.3643
 11
78.4873
 21
21.3477
  0
LINE
  8
0
 10
78.4873
 20
21.3477
 11
78.4844
 21
21.3301
  0
LINE
  8
0
 10
78.4844
 20
21.3301
 11
78.4814
 21
21.3135
  0
LINE
  8
0
 10
78.4814
 20
21.3135
 11
78.4785
 21
21.2959
  0
LINE
  8
0
 10
78.4785
 20
21.2959
 11
78.4746
 21
21.2793
  0
LINE
  8
0
 10
78.4746
 20
21.2793
 11
78.4707
 21
21.2617
  0
LINE
  8
0
 10
78.4707
 20
21.2617
 11
78.4561
 21
21.2119
  0
LINE
  8
0
 10
78.4561
 20
21.2119
 11
78.4512
 21
21.1943
  0
LINE
  8
0
 10
78.4512
 20
21.1943
 11
78.4453
 21
21.1787
  0
LINE
  8
0
 10
78.4453
 20
21.1787
 11
78.4336
 21
21.1455
  0
LINE
  8
0
 10
78.4336
 20
21.1455
 11
78.4268
 21
21.1289
  0
LINE
  8
0
 10
78.4268
 20
21.1289
 11
78.4209
 21
21.1133
  0
LINE
  8
0
 10
78.4209
 20
21.1133
 11
78.4131
 21
21.0967
  0
LINE
  8
0
 10
78.4131
 20
21.0967
 11
78.4062
 21
21.0811
  0
LINE
  8
0
 10
78.4062
 20
21.0811
 11
78.375
 21
21.0186
  0
LINE
  8
0
 10
78.375
 20
21.0186
 11
78.3574
 21
20.9893
  0
LINE
  8
0
 10
78.3574
 20
20.9893
 11
78.3477
 21
20.9736
  0
LINE
  8
0
 10
78.3477
 20
20.9736
 11
78.3389
 21
20.959
  0
LINE
  8
0
 10
78.3389
 20
20.959
 11
78.3291
 21
20.9443
  0
LINE
  8
0
 10
78.3291
 20
20.9443
 11
78.3193
 21
20.9307
  0
LINE
  8
0
 10
78.3193
 20
20.9307
 11
78.3086
 21
20.916
  0
LINE
  8
0
 10
78.3086
 20
20.916
 11
78.2988
 21
20.9023
  0
LINE
  8
0
 10
78.2988
 20
20.9023
 11
78.2881
 21
20.8877
  0
LINE
  8
0
 10
78.2881
 20
20.8877
 11
78.2773
 21
20.874
  0
LINE
  8
0
 10
78.2773
 20
20.874
 11
78.2656
 21
20.8613
  0
LINE
  8
0
 10
78.2656
 20
20.8613
 11
78.2549
 21
20.8477
  0
LINE
  8
0
 10
78.2549
 20
20.8477
 11
78.2197
 21
20.8096
  0
LINE
  8
0
 10
78.2197
 20
20.8096
 11
78.1943
 21
20.7842
  0
LINE
  8
0
 10
78.1943
 20
20.7842
 11
78.1562
 21
20.749
  0
LINE
  8
0
 10
78.1562
 20
20.749
 11
78.1426
 21
20.7373
  0
LINE
  8
0
 10
78.1426
 20
20.7373
 11
78.0879
 21
20.6943
  0
LINE
  8
0
 10
78.0879
 20
20.6943
 11
78.0732
 21
20.6846
  0
LINE
  8
0
 10
78.0732
 20
20.6846
 11
78.0596
 21
20.6748
  0
LINE
  8
0
 10
78.0596
 20
20.6748
 11
78.0449
 21
20.665
  0
LINE
  8
0
 10
78.0449
 20
20.665
 11
78.0303
 21
20.6562
  0
LINE
  8
0
 10
78.0303
 20
20.6562
 11
78.0146
 21
20.6465
  0
LINE
  8
0
 10
78.0146
 20
20.6465
 11
78
 21
20.6377
  0
LINE
  8
0
 10
78
 20
20.6377
 11
77.9844
 21
20.6289
  0
LINE
  8
0
 10
77.9844
 20
20.6289
 11
77.9697
 21
20.6211
  0
LINE
  8
0
 10
77.9697
 20
20.6211
 11
77.9229
 21
20.5977
  0
LINE
  8
0
 10
77.9229
 20
20.5977
 11
77.9062
 21
20.5898
  0
LINE
  8
0
 10
77.9062
 20
20.5898
 11
77.875
 21
20.5762
  0
LINE
  8
0
 10
77.875
 20
20.5762
 11
77.8086
 21
20.5527
  0
LINE
  8
0
 10
77.8086
 20
20.5527
 11
77.7422
 21
20.5332
  0
LINE
  8
0
 10
77.7422
 20
20.5332
 11
77.7246
 21
20.5293
  0
LINE
  8
0
 10
77.7246
 20
20.5293
 11
77.708
 21
20.5254
  0
LINE
  8
0
 10
77.708
 20
20.5254
 11
77.6904
 21
20.5225
  0
LINE
  8
0
 10
77.6904
 20
20.5225
 11
77.6738
 21
20.5186
  0
LINE
  8
0
 10
77.6738
 20
20.5186
 11
77.6562
 21
20.5166
  0
LINE
  8
0
 10
77.6562
 20
20.5166
 11
77.6396
 21
20.5137
  0
LINE
  8
0
 10
77.6396
 20
20.5137
 11
77.5693
 21
20.5059
  0
LINE
  8
0
 10
77.5693
 20
20.5059
 11
77.5527
 21
20.5049
  0
LINE
  8
0
 10
77.5527
 20
20.5049
 11
77.5352
 21
20.5049
  0
LINE
  8
0
 10
77.5352
 20
20.5049
 11
77.5176
 21
20.5039
  0
LINE
  8
0
 10
77.5176
 20
20.5039
 11
63.9824
 21
20.4922
  0
LINE
  8
0
 10
63.9824
 20
20.4922
 11
63.9648
 21
20.4932
  0
ENDSEC
  0
SECTION
  2
OBJECTS
  0
DICTIONARY
  0
ENDSEC
  0
EOF
