  0
SECTION
  2
BLOCKS
  0
ENDSEC
  0
SECTION
  2
ENTITIES
  0
LINE
  8
0
 10
100.95
 20
30
 11
103.018
 21
30
  0
LINE
  8
0
 10
103.018
 20
30
 11
103.035
 21
30.001
  0
LINE
  8
0
 10
103.035
 20
30.001
 11
103.053
 21
30.001
  0
LINE
  8
0
 10
103.053
 20
30.001
 11
103.069
 21
30.002
  0
LINE
  8
0
 10
103.069
 20
30.002
 11
103.14
 21
30.0098
  0
LINE
  8
0
 10
103.14
 20
30.0098
 11
103.156
 21
30.0127
  0
LINE
  8
0
 10
103.156
 20
30.0127
 11
103.174
 21
30.0156
  0
LINE
  8
0
 10
103.174
 20
30.0156
 11
103.19
 21
30.0186
  0
LINE
  8
0
 10
103.19
 20
30.0186
 11
103.208
 21
30.0215
  0
LINE
  8
0
 10
103.208
 20
30.0215
 11
103.225
 21
30.0254
  0
LINE
  8
0
 10
103.225
 20
30.0254
 11
103.242
 21
30.0293
  0
LINE
  8
0
 10
103.242
 20
30.0293
 11
103.309
 21
30.0488
  0
LINE
  8
0
 10
103.309
 20
30.0488
 11
103.358
 21
30.0664
  0
LINE
  8
0
 10
103.358
 20
30.0664
 11
103.375
 21
30.0732
  0
LINE
  8
0
 10
103.375
 20
30.0732
 11
103.391
 21
30.0791
  0
LINE
  8
0
 10
103.391
 20
30.0791
 11
103.406
 21
30.0869
  0
LINE
  8
0
 10
103.406
 20
30.0869
 11
103.423
 21
30.0938
  0
LINE
  8
0
 10
103.423
 20
30.0938
 11
103.47
 21
30.1172
  0
LINE
  8
0
 10
103.47
 20
30.1172
 11
103.484
 21
30.125
  0
LINE
  8
0
 10
103.484
 20
30.125
 11
103.5
 21
30.1338
  0
LINE
  8
0
 10
103.5
 20
30.1338
 11
103.515
 21
30.1426
  0
LINE
  8
0
 10
103.515
 20
30.1426
 11
103.53
 21
30.1523
  0
LINE
  8
0
 10
103.53
 20
30.1523
 11
103.545
 21
30.1611
  0
LINE
  8
0
 10
103.545
 20
30.1611
 11
103.56
 21
30.1709
  0
LINE
  8
0
 10
103.56
 20
30.1709
 11
103.573
 21
30.1807
  0
LINE
  8
0
 10
103.573
 20
30.1807
 11
103.588
 21
30.1914
  0
LINE
  8
0
 10
103.588
 20
30.1914
 11
103.602
 21
30.2012
  0
LINE
  8
0
 10
103.602
 20
30.2012
 11
103.629
 21
30.2227
  0
LINE
  8
0
 10
103.629
 20
30.2227
 11
103.643
 21
30.2344
  0
LINE
  8
0
 10
103.643
 20
30.2344
 11
103.656
 21
30.2451
  0
LINE
  8
0
 10
103.656
 20
30.2451
 11
103.694
 21
30.2803
  0
LINE
  8
0
 10
103.694
 20
30.2803
 11
103.72
 21
30.3057
  0
LINE
  8
0
 10
103.72
 20
30.3057
 11
103.755
 21
30.3438
  0
LINE
  8
0
 10
103.755
 20
30.3438
 11
103.766
 21
30.3574
  0
LINE
  8
0
 10
103.766
 20
30.3574
 11
103.777
 21
30.3711
  0
LINE
  8
0
 10
103.777
 20
30.3711
 11
103.799
 21
30.3984
  0
LINE
  8
0
 10
103.799
 20
30.3984
 11
103.809
 21
30.4121
  0
LINE
  8
0
 10
103.809
 20
30.4121
 11
103.819
 21
30.4268
  0
LINE
  8
0
 10
103.819
 20
30.4268
 11
103.829
 21
30.4404
  0
LINE
  8
0
 10
103.829
 20
30.4404
 11
103.839
 21
30.4551
  0
LINE
  8
0
 10
103.839
 20
30.4551
 11
103.848
 21
30.4697
  0
LINE
  8
0
 10
103.848
 20
30.4697
 11
103.857
 21
30.4854
  0
LINE
  8
0
 10
103.857
 20
30.4854
 11
103.866
 21
30.5
  0
LINE
  8
0
 10
103.866
 20
30.5
 11
103.875
 21
30.5156
  0
LINE
  8
0
 10
103.875
 20
30.5156
 11
103.883
 21
30.5303
  0
LINE
  8
0
 10
103.883
 20
30.5303
 11
103.906
 21
30.5771
  0
LINE
  8
0
 10
103.906
 20
30.5771
 11
103.913
 21
30.5938
  0
LINE
  8
0
 10
103.913
 20
30.5938
 11
103.921
 21
30.6094
  0
LINE
  8
0
 10
103.921
 20
30.6094
 11
103.927
 21
30.625
  0
LINE
  8
0
 10
103.927
 20
30.625
 11
103.934
 21
30.6416
  0
LINE
  8
0
 10
103.934
 20
30.6416
 11
103.951
 21
30.6914
  0
LINE
  8
0
 10
103.951
 20
30.6914
 11
103.971
 21
30.7578
  0
LINE
  8
0
 10
103.971
 20
30.7578
 11
103.975
 21
30.7754
  0
LINE
  8
0
 10
103.975
 20
30.7754
 11
103.979
 21
30.792
  0
LINE
  8
0
 10
103.979
 20
30.792
 11
103.981
 21
30.8096
  0
LINE
  8
0
 10
103.981
 20
30.8096
 11
103.984
 21
30.8262
  0
LINE
  8
0
 10
103.984
 20
30.8262
 11
103.987
 21
30.8438
  0
LINE
  8
0
 10
103.987
 20
30.8438
 11
103.99
 21
30.8604
  0
LINE
  8
0
 10
103.99
 20
30.8604
 11
103.998
 21
30.9307
  0
LINE
  8
0
 10
103.998
 20
30.9307
 11
103.999
 21
30.9473
  0
LINE
  8
0
 10
103.999
 20
30.9473
 11
103.999
 21
30.9648
  0
LINE
  8
0
 10
103.999
 20
30.9648
 11
104
 21
30.9824
  0
LINE
  8
0
 10
104
 20
30.9824
 11
104
 21
39.0176
  0
LINE
  8
0
 10
104
 20
39.0176
 11
103.999
 21
39.0352
  0
LINE
  8
0
 10
103.999
 20
39.0352
 11
103.999
 21
39.0527
  0
LINE
  8
0
 10
103.999
 20
39.0527
 11
103.998
 21
39.0693
  0
LINE
  8
0
 10
103.998
 20
39.0693
 11
103.99
 21
39.1396
  0
LINE
  8
0
 10
103.99
 20
39.1396
 11
103.987
 21
39.1562
  0
LINE
  8
0
 10
103.987
 20
39.1562
 11
103.984
 21
39.1738
  0
LINE
  8
0
 10
103.984
 20
39.1738
 11
103.981
 21
39.1904
  0
LINE
  8
0
 10
103.981
 20
39.1904
 11
103.979
 21
39.208
  0
LINE
  8
0
 10
103.979
 20
39.208
 11
103.975
 21
39.2246
  0
LINE
  8
0
 10
103.975
 20
39.2246
 11
103.971
 21
39.2422
  0
LINE
  8
0
 10
103.971
 20
39.2422
 11
103.951
 21
39.3086
  0
LINE
  8
0
 10
103.951
 20
39.3086
 11
103.934
 21
39.3584
  0
LINE
  8
0
 10
103.934
 20
39.3584
 11
103.927
 21
39.375
  0
LINE
  8
0
 10
103.927
 20
39.375
 11
103.921
 21
39.3906
  0
LINE
  8
0
 10
103.921
 20
39.3906
 11
103.913
 21
39.4062
  0
LINE
  8
0
 10
103.913
 20
39.4062
 11
103.906
 21
39.4229
  0
LINE
  8
0
 10
103.906
 20
39.4229
 11
103.883
 21
39.4697
  0
LINE
  8
0
 10
103.883
 20
39.4697
 11
103.875
 21
39.4844
  0
LINE
  8
0
 10
103.875
 20
39.4844
 11
103.866
 21
39.5
  0
LINE
  8
0
 10
103.866
 20
39.5
 11
103.857
 21
39.5146
  0
LINE
  8
0
 10
103.857
 20
39.5146
 11
103.848
 21
39.5303
  0
LINE
  8
0
 10
103.848
 20
39.5303
 11
103.839
 21
39.5449
  0
LINE
  8
0
 10
103.839
 20
39.5449
 11
103.829
 21
39.5596
  0
LINE
  8
0
 10
103.829
 20
39.5596
 11
103.819
 21
39.5732
  0
LINE
  8
0
 10
103.819
 20
39.5732
 11
103.809
 21
39.5879
  0
LINE
  8
0
 10
103.809
 20
39.5879
 11
103.799
 21
39.6016
  0
LINE
  8
0
 10
103.799
 20
39.6016
 11
103.777
 21
39.6289
  0
LINE
  8
0
 10
103.777
 20
39.6289
 11
103.766
 21
39.6426
  0
LINE
  8
0
 10
103.766
 20
39.6426
 11
103.755
 21
39.6562
  0
LINE
  8
0
 10
103.755
 20
39.6562
 11
103.72
 21
39.6943
  0
LINE
  8
0
 10
103.72
 20
39.6943
 11
103.694
 21
39.7197
  0
LINE
  8
0
 10
103.694
 20
39.7197
 11
103.656
 21
39.7549
  0
LINE
  8
0
 10
103.656
 20
39.7549
 11
103.643
 21
39.7656
  0
LINE
  8
0
 10
103.643
 20
39.7656
 11
103.629
 21
39.7773
  0
LINE
  8
0
 10
103.629
 20
39.7773
 11
103.602
 21
39.7988
  0
LINE
  8
0
 10
103.602
 20
39.7988
 11
103.588
 21
39.8086
  0
LINE
  8
0
 10
103.588
 20
39.8086
 11
103.573
 21
39.8193
  0
LINE
  8
0
 10
103.573
 20
39.8193
 11
103.56
 21
39.8291
  0
LINE
  8
0
 10
103.56
 20
39.8291
 11
103.545
 21
39.8389
  0
LINE
  8
0
 10
103.545
 20
39.8389
 11
103.53
 21
39.8477
  0
LINE
  8
0
 10
103.53
 20
39.8477
 11
103.515
 21
39.8574
  0
LINE
  8
0
 10
103.515
 20
39.8574
 11
103.5
 21
39.8662
  0
LINE
  8
0
 10
103.5
 20
39.8662
 11
103.484
 21
39.875
  0
LINE
  8
0
 10
103.484
 20
39.875
 11
103.47
 21
39.8828
  0
LINE
  8
0
 10
103.47
 20
39.8828
 11
103.423
 21
39.9062
  0
LINE
  8
0
 10
103.423
 20
39.9062
 11
103.406
 21
39.9131
  0
LINE
  8
0
 10
103.406
 20
39.9131
 11
103.391
 21
39.9209
  0
LINE
  8
0
 10
103.391
 20
39.9209
 11
103.375
 21
39.9268
  0
LINE
  8
0
 10
103.375
 20
39.9268
 11
103.358
 21
39.9336
  0
LINE
  8
0
 10
103.358
 20
39.9336
 11
103.309
 21
39.9512
  0
LINE
  8
0
 10
103.309
 20
39.9512
 11
103.242
 21
39.9707
  0
LINE
  8
0
 10
103.242
 20
39.9707
 11
103.225
 21
39.9746
  0
LINE
  8
0
 10
103.225
 20
39.9746
 11
103.208
 21
39.9785
  0
LINE
  8
0
 10
103.208
 20
39.9785
 11
103.19
 21
39.9814
  0
LINE
  8
0
 10
103.19
 20
39.9814
 11
103.174
 21
39.9844
  0
LINE
  8
0
 10
103.174
 20
39.9844
 11
103.156
 21
39.9873
  0
LINE
  8
0
 10
103.156
 20
39.9873
 11
103.14
 21
39.9902
  0
LINE
  8
0
 10
103.14
 20
39.9902
 11
103.069
 21
39.998
  0
LINE
  8
0
 10
103.069
 20
39.998
 11
103.053
 21
39.999
  0
LINE
  8
0
 10
103.053
 20
39.999
 11
103.035
 21
39.999
  0
LINE
  8
0
 10
103.035
 20
39.999
 11
103.018
 21
40
  0
LINE
  8
0
 10
103.018
 20
40
 11
100.95
 21
40
  0
LINE
  8
0
 10
100.95
 20
40
 11
100.95
 21
100
  0
LINE
  8
0
 10
100.95
 20
100
 11
103.018
 21
100
  0
LINE
  8
0
 10
103.018
 20
100
 11
103.035
 21
100.001
  0
LINE
  8
0
 10
103.035
 20
100.001
 11
103.053
 21
100.001
  0
LINE
  8
0
 10
103.053
 20
100.001
 11
103.069
 21
100.002
  0
LINE
  8
0
 10
103.069
 20
100.002
 11
103.14
 21
100.01
  0
LINE
  8
0
 10
103.14
 20
100.01
 11
103.156
 21
100.013
  0
LINE
  8
0
 10
103.156
 20
100.013
 11
103.174
 21
100.016
  0
LINE
  8
0
 10
103.174
 20
100.016
 11
103.19
 21
100.019
  0
LINE
  8
0
 10
103.19
 20
100.019
 11
103.208
 21
100.021
  0
LINE
  8
0
 10
103.208
 20
100.021
 11
103.225
 21
100.025
  0
LINE
  8
0
 10
103.225
 20
100.025
 11
103.242
 21
100.029
  0
LINE
  8
0
 10
103.242
 20
100.029
 11
103.309
 21
100.049
  0
LINE
  8
0
 10
103.309
 20
100.049
 11
103.358
 21
100.066
  0
LINE
  8
0
 10
103.358
 20
100.066
 11
103.375
 21
100.073
  0
LINE
  8
0
 10
103.375
 20
100.073
 11
103.391
 21
100.079
  0
LINE
  8
0
 10
103.391
 20
100.079
 11
103.406
 21
100.087
  0
LINE
  8
0
 10
103.406
 20
100.087
 11
103.423
 21
100.094
  0
LINE
  8
0
 10
103.423
 20
100.094
 11
103.47
 21
100.117
  0
LINE
  8
0
 10
103.47
 20
100.117
 11
103.484
 21
100.125
  0
LINE
  8
0
 10
103.484
 20
100.125
 11
103.5
 21
100.134
  0
LINE
  8
0
 10
103.5
 20
100.134
 11
103.515
 21
100.143
  0
LINE
  8
0
 10
103.515
 20
100.143
 11
103.53
 21
100.152
  0
LINE
  8
0
 10
103.53
 20
100.152
 11
103.545
 21
100.161
  0
LINE
  8
0
 10
103.545
 20
100.161
 11
103.56
 21
100.171
  0
LINE
  8
0
 10
103.56
 20
100.171
 11
103.573
 21
100.181
  0
LINE
  8
0
 10
103.573
 20
100.181
 11
103.588
 21
100.191
  0
LINE
  8
0
 10
103.588
 20
100.191
 11
103.602
 21
100.201
  0
LINE
  8
0
 10
103.602
 20
100.201
 11
103.629
 21
100.223
  0
LINE
  8
0
 10
103.629
 20
100.223
 11
103.643
 21
100.234
  0
LINE
  8
0
 10
103.643
 20
100.234
 11
103.656
 21
100.245
  0
LINE
  8
0
 10
103.656
 20
100.245
 11
103.694
 21
100.28
  0
LINE
  8
0
 10
103.694
 20
100.28
 11
103.72
 21
100.306
  0
LINE
  8
0
 10
103.72
 20
100.306
 11
103.755
 21
100.344
  0
LINE
  8
0
 10
103.755
 20
100.344
 11
103.766
 21
100.357
  0
LINE
  8
0
 10
103.766
 20
100.357
 11
103.777
 21
100.371
  0
LINE
  8
0
 10
103.777
 20
100.371
 11
103.799
 21
100.398
  0
LINE
  8
0
 10
103.799
 20
100.398
 11
103.809
 21
100.412
  0
LINE
  8
0
 10
103.809
 20
100.412
 11
103.819
 21
100.427
  0
LINE
  8
0
 10
103.819
 20
100.427
 11
103.829
 21
100.44
  0
LINE
  8
0
 10
103.829
 20
100.44
 11
103.839
 21
100.455
  0
LINE
  8
0
 10
103.839
 20
100.455
 11
103.848
 21
100.47
  0
LINE
  8
0
 10
103.848
 20
100.47
 11
103.857
 21
100.485
  0
LINE
  8
0
 10
103.857
 20
100.485
 11
103.866
 21
100.5
  0
LINE
  8
0
 10
103.866
 20
100.5
 11
103.875
 21
100.516
  0
LINE
  8
0
 10
103.875
 20
100.516
 11
103.883
 21
100.53
  0
LINE
  8
0
 10
103.883
 20
100.53
 11
103.906
 21
100.577
  0
LINE
  8
0
 10
103.906
 20
100.577
 11
103.913
 21
100.594
  0
LINE
  8
0
 10
103.913
 20
100.594
 11
103.921
 21
100.609
  0
LINE
  8
0
 10
103.921
 20
100.609
 11
103.927
 21
100.625
  0
LINE
  8
0
 10
103.927
 20
100.625
 11
103.934
 21
100.642
  0
LINE
  8
0
 10
103.934
 20
100.642
 11
103.951
 21
100.691
  0
LINE
  8
0
 10
103.951
 20
100.691
 11
103.971
 21
100.758
  0
LINE
  8
0
 10
103.971
 20
100.758
 11
103.975
 21
100.775
  0
LINE
  8
0
 10
103.975
 20
100.775
 11
103.979
 21
100.792
  0
LINE
  8
0
 10
103.979
 20
100.792
 11
103.981
 21
100.81
  0
LINE
  8
0
 10
103.981
 20
100.81
 11
103.984
 21
100.826
  0
LINE
  8
0
 10
103.984
 20
100.826
 11
103.987
 21
100.844
  0
LINE
  8
0
 10
103.987
 20
100.844
 11
103.99
 21
100.86
  0
LINE
  8
0
 10
103.99
 20
100.86
 11
103.998
 21
100.931
  0
LINE
  8
0
 10
103.998
 20
100.931
 11
103.999
 21
100.947
  0
LINE
  8
0
 10
103.999
 20
100.947
 11
103.999
 21
100.965
  0
LINE
  8
0
 10
103.999
 20
100.965
 11
104
 21
100.982
  0
LINE
  8
0
 10
104
 20
100.982
 11
104
 21
109.018
  0
LINE
  8
0
 10
104
 20
109.018
 11
103.999
 21
109.035
  0
LINE
  8
0
 10
103.999
 20
109.035
 11
103.999
 21
109.053
  0
LINE
  8
0
 10
103.999
 20
109.053
 11
103.998
 21
109.069
  0
LINE
  8
0
 10
103.998
 20
109.069
 11
103.99
 21
109.14
  0
LINE
  8
0
 10
103.99
 20
109.14
 11
103.987
 21
109.156
  0
LINE
  8
0
 10
103.987
 20
109.156
 11
103.984
 21
109.174
  0
LINE
  8
0
 10
103.984
 20
109.174
 11
103.981
 21
109.19
  0
LINE
  8
0
 10
103.981
 20
109.19
 11
103.979
 21
109.208
  0
LINE
  8
0
 10
103.979
 20
109.208
 11
103.975
 21
109.225
  0
LINE
  8
0
 10
103.975
 20
109.225
 11
103.971
 21
109.242
  0
LINE
  8
0
 10
103.971
 20
109.242
 11
103.951
 21
109.309
  0
LINE
  8
0
 10
103.951
 20
109.309
 11
103.934
 21
109.358
  0
LINE
  8
0
 10
103.934
 20
109.358
 11
103.927
 21
109.375
  0
LINE
  8
0
 10
103.927
 20
109.375
 11
103.921
 21
109.391
  0
LINE
  8
0
 10
103.921
 20
109.391
 11
103.913
 21
109.406
  0
LINE
  8
0
 10
103.913
 20
109.406
 11
103.906
 21
109.423
  0
LINE
  8
0
 10
103.906
 20
109.423
 11
103.883
 21
109.47
  0
LINE
  8
0
 10
103.883
 20
109.47
 11
103.875
 21
109.484
  0
LINE
  8
0
 10
103.875
 20
109.484
 11
103.866
 21
109.5
  0
LINE
  8
0
 10
103.866
 20
109.5
 11
103.857
 21
109.515
  0
LINE
  8
0
 10
103.857
 20
109.515
 11
103.848
 21
109.53
  0
LINE
  8
0
 10
103.848
 20
109.53
 11
103.839
 21
109.545
  0
LINE
  8
0
 10
103.839
 20
109.545
 11
103.829
 21
109.56
  0
LINE
  8
0
 10
103.829
 20
109.56
 11
103.819
 21
109.573
  0
LINE
  8
0
 10
103.819
 20
109.573
 11
103.809
 21
109.588
  0
LINE
  8
0
 10
103.809
 20
109.588
 11
103.799
 21
109.602
  0
LINE
  8
0
 10
103.799
 20
109.602
 11
103.777
 21
109.629
  0
LINE
  8
0
 10
103.777
 20
109.629
 11
103.766
 21
109.643
  0
LINE
  8
0
 10
103.766
 20
109.643
 11
103.755
 21
109.656
  0
LINE
  8
0
 10
103.755
 20
109.656
 11
103.72
 21
109.694
  0
LINE
  8
0
 10
103.72
 20
109.694
 11
103.694
 21
109.72
  0
LINE
  8
0
 10
103.694
 20
109.72
 11
103.656
 21
109.755
  0
LINE
  8
0
 10
103.656
 20
109.755
 11
103.643
 21
109.766
  0
LINE
  8
0
 10
103.643
 20
109.766
 11
103.629
 21
109.777
  0
LINE
  8
0
 10
103.629
 20
109.777
 11
103.602
 21
109.799
  0
LINE
  8
0
 10
103.602
 20
109.799
 11
103.588
 21
109.809
  0
LINE
  8
0
 10
103.588
 20
109.809
 11
103.573
 21
109.819
  0
LINE
  8
0
 10
103.573
 20
109.819
 11
103.56
 21
109.829
  0
LINE
  8
0
 10
103.56
 20
109.829
 11
103.545
 21
109.839
  0
LINE
  8
0
 10
103.545
 20
109.839
 11
103.53
 21
109.848
  0
LINE
  8
0
 10
103.53
 20
109.848
 11
103.515
 21
109.857
  0
LINE
  8
0
 10
103.515
 20
109.857
 11
103.5
 21
109.866
  0
LINE
  8
0
 10
103.5
 20
109.866
 11
103.484
 21
109.875
  0
LINE
  8
0
 10
103.484
 20
109.875
 11
103.47
 21
109.883
  0
LINE
  8
0
 10
103.47
 20
109.883
 11
103.423
 21
109.906
  0
LINE
  8
0
 10
103.423
 20
109.906
 11
103.406
 21
109.913
  0
LINE
  8
0
 10
103.406
 20
109.913
 11
103.391
 21
109.921
  0
LINE
  8
0
 10
103.391
 20
109.921
 11
103.375
 21
109.927
  0
LINE
  8
0
 10
103.375
 20
109.927
 11
103.358
 21
109.934
  0
LINE
  8
0
 10
103.358
 20
109.934
 11
103.309
 21
109.951
  0
LINE
  8
0
 10
103.309
 20
109.951
 11
103.242
 21
109.971
  0
LINE
  8
0
 10
103.242
 20
109.971
 11
103.225
 21
109.975
  0
LINE
  8
0
 10
103.225
 20
109.975
 11
103.208
 21
109.979
  0
LINE
  8
0
 10
103.208
 20
109.979
 11
103.19
 21
109.981
  0
LINE
  8
0
 10
103.19
 20
109.981
 11
103.174
 21
109.984
  0
LINE
  8
0
 10
103.174
 20
109.984
 11
103.156
 21
109.987
  0
LINE
  8
0
 10
103.156
 20
109.987
 11
103.14
 21
109.99
  0
LINE
  8
0
 10
103.14
 20
109.99
 11
103.069
 21
109.998
  0
LINE
  8
0
 10
103.069
 20
109.998
 11
103.053
 21
109.999
  0
LINE
  8
0
 10
103.053
 20
109.999
 11
103.035
 21
109.999
  0
LINE
  8
0
 10
103.035
 20
109.999
 11
103.018
 21
110
  0
LINE
  8
0
 10
103.018
 20
110
 11
103
 21
110
  0
LINE
  8
0
 10
103
 20
110
 11
98.75
 21
110.032
  0
LINE
  8
0
 10
98.75
 20
110.032
 11
98.75
 21
18.25
  0
LINE
  8
0
 10
98.75
 20
18.25
 11
95.7842
 21
18.25
  0
LINE
  8
0
 10
95.7842
 20
18.25
 11
95.7842
 21
110
  0
LINE
  8
0
 10
95.7842
 20
110
 11
83.5
 21
110
  0
LINE
  8
0
 10
83.5
 20
110
 11
83.4854
 21
18.168
  0
LINE
  8
0
 10
83.4854
 20
18.168
 11
62.4854
 21
18.168
  0
LINE
  8
0
 10
62.4854
 20
18.168
 11
62.4854
 21
14.418
  0
LINE
  8
0
 10
62.4854
 20
14.418
 11
54.9854
 21
14.418
  0
LINE
  8
0
 10
54.9854
 20
14.418
 11
54.9785
 21
18.168
  0
LINE
  8
0
 10
54.9785
 20
18.168
 11
17.2354
 21
18.168
  0
LINE
  8
0
 10
17.2354
 20
18.168
 11
17.25
 21
110
  0
LINE
  8
0
 10
17.25
 20
110
 11
5.25
 21
110
  0
LINE
  8
0
 10
5.25
 20
110
 11
5.25
 21
18.25
  0
LINE
  8
0
 10
5.25
 20
18.25
 11
2.25
 21
18.25
  0
LINE
  8
0
 10
2.25
 20
18.25
 11
2.25
 21
110
  0
LINE
  8
0
 10
2.25
 20
110
 11
-2.01758
 21
110
  0
LINE
  8
0
 10
-2.01758
 20
110
 11
-2.03516
 21
109.999
  0
LINE
  8
0
 10
-2.03516
 20
109.999
 11
-2.05273
 21
109.999
  0
LINE
  8
0
 10
-2.05273
 20
109.999
 11
-2.06934
 21
109.998
  0
LINE
  8
0
 10
-2.06934
 20
109.998
 11
-2.13965
 21
109.99
  0
LINE
  8
0
 10
-2.13965
 20
109.99
 11
-2.15625
 21
109.987
  0
LINE
  8
0
 10
-2.15625
 20
109.987
 11
-2.17383
 21
109.984
  0
LINE
  8
0
 10
-2.17383
 20
109.984
 11
-2.19043
 21
109.981
  0
LINE
  8
0
 10
-2.19043
 20
109.981
 11
-2.20801
 21
109.979
  0
LINE
  8
0
 10
-2.20801
 20
109.979
 11
-2.22461
 21
109.975
  0
LINE
  8
0
 10
-2.22461
 20
109.975
 11
-2.24219
 21
109.971
  0
LINE
  8
0
 10
-2.24219
 20
109.971
 11
-2.30859
 21
109.951
  0
LINE
  8
0
 10
-2.30859
 20
109.951
 11
-2.3584
 21
109.934
  0
LINE
  8
0
 10
-2.3584
 20
109.934
 11
-2.375
 21
109.927
  0
LINE
  8
0
 10
-2.375
 20
109.927
 11
-2.39062
 21
109.921
  0
LINE
  8
0
 10
-2.39062
 20
109.921
 11
-2.40625
 21
109.913
  0
LINE
  8
0
 10
-2.40625
 20
109.913
 11
-2.42285
 21
109.906
  0
LINE
  8
0
 10
-2.42285
 20
109.906
 11
-2.46973
 21
109.883
  0
LINE
  8
0
 10
-2.46973
 20
109.883
 11
-2.48438
 21
109.875
  0
LINE
  8
0
 10
-2.48438
 20
109.875
 11
-2.5
 21
109.866
  0
LINE
  8
0
 10
-2.5
 20
109.866
 11
-2.51465
 21
109.857
  0
LINE
  8
0
 10
-2.51465
 20
109.857
 11
-2.53027
 21
109.848
  0
LINE
  8
0
 10
-2.53027
 20
109.848
 11
-2.54492
 21
109.839
  0
LINE
  8
0
 10
-2.54492
 20
109.839
 11
-2.55957
 21
109.829
  0
LINE
  8
0
 10
-2.55957
 20
109.829
 11
-2.57324
 21
109.819
  0
LINE
  8
0
 10
-2.57324
 20
109.819
 11
-2.58789
 21
109.809
  0
LINE
  8
0
 10
-2.58789
 20
109.809
 11
-2.60156
 21
109.799
  0
LINE
  8
0
 10
-2.60156
 20
109.799
 11
-2.62891
 21
109.777
  0
LINE
  8
0
 10
-2.62891
 20
109.777
 11
-2.64258
 21
109.766
  0
LINE
  8
0
 10
-2.64258
 20
109.766
 11
-2.65625
 21
109.755
  0
LINE
  8
0
 10
-2.65625
 20
109.755
 11
-2.69434
 21
109.72
  0
LINE
  8
0
 10
-2.69434
 20
109.72
 11
-2.71973
 21
109.694
  0
LINE
  8
0
 10
-2.71973
 20
109.694
 11
-2.75488
 21
109.656
  0
LINE
  8
0
 10
-2.75488
 20
109.656
 11
-2.76562
 21
109.643
  0
LINE
  8
0
 10
-2.76562
 20
109.643
 11
-2.77734
 21
109.629
  0
LINE
  8
0
 10
-2.77734
 20
109.629
 11
-2.79883
 21
109.602
  0
LINE
  8
0
 10
-2.79883
 20
109.602
 11
-2.80859
 21
109.588
  0
LINE
  8
0
 10
-2.80859
 20
109.588
 11
-2.81934
 21
109.573
  0
LINE
  8
0
 10
-2.81934
 20
109.573
 11
-2.8291
 21
109.56
  0
LINE
  8
0
 10
-2.8291
 20
109.56
 11
-2.83887
 21
109.545
  0
LINE
  8
0
 10
-2.83887
 20
109.545
 11
-2.84766
 21
109.53
  0
LINE
  8
0
 10
-2.84766
 20
109.53
 11
-2.85742
 21
109.515
  0
LINE
  8
0
 10
-2.85742
 20
109.515
 11
-2.86621
 21
109.5
  0
LINE
  8
0
 10
-2.86621
 20
109.5
 11
-2.875
 21
109.484
  0
LINE
  8
0
 10
-2.875
 20
109.484
 11
-2.88281
 21
109.47
  0
LINE
  8
0
 10
-2.88281
 20
109.47
 11
-2.90625
 21
109.423
  0
LINE
  8
0
 10
-2.90625
 20
109.423
 11
-2.91309
 21
109.406
  0
LINE
  8
0
 10
-2.91309
 20
109.406
 11
-2.9209
 21
109.391
  0
LINE
  8
0
 10
-2.9209
 20
109.391
 11
-2.92676
 21
109.375
  0
LINE
  8
0
 10
-2.92676
 20
109.375
 11
-2.93359
 21
109.358
  0
LINE
  8
0
 10
-2.93359
 20
109.358
 11
-2.95117
 21
109.309
  0
LINE
  8
0
 10
-2.95117
 20
109.309
 11
-2.9707
 21
109.242
  0
LINE
  8
0
 10
-2.9707
 20
109.242
 11
-2.97461
 21
109.225
  0
LINE
  8
0
 10
-2.97461
 20
109.225
 11
-2.97852
 21
109.208
  0
LINE
  8
0
 10
-2.97852
 20
109.208
 11
-2.98145
 21
109.19
  0
LINE
  8
0
 10
-2.98145
 20
109.19
 11
-2.98438
 21
109.174
  0
LINE
  8
0
 10
-2.98438
 20
109.174
 11
-2.9873
 21
109.156
  0
LINE
  8
0
 10
-2.9873
 20
109.156
 11
-2.99023
 21
109.14
  0
LINE
  8
0
 10
-2.99023
 20
109.14
 11
-2.99805
 21
109.069
  0
LINE
  8
0
 10
-2.99805
 20
109.069
 11
-2.99902
 21
109.053
  0
LINE
  8
0
 10
-2.99902
 20
109.053
 11
-2.99902
 21
109.035
  0
LINE
  8
0
 10
-2.99902
 20
109.035
 11
-3
 21
109.018
  0
LINE
  8
0
 10
-3
 20
109.018
 11
-3
 21
100.982
  0
LINE
  8
0
 10
-3
 20
100.982
 11
-2.99902
 21
100.965
  0
LINE
  8
0
 10
-2.99902
 20
100.965
 11
-2.99902
 21
100.947
  0
LINE
  8
0
 10
-2.99902
 20
100.947
 11
-2.99805
 21
100.931
  0
LINE
  8
0
 10
-2.99805
 20
100.931
 11
-2.99023
 21
100.86
  0
LINE
  8
0
 10
-2.99023
 20
100.86
 11
-2.9873
 21
100.844
  0
LINE
  8
0
 10
-2.9873
 20
100.844
 11
-2.98438
 21
100.826
  0
LINE
  8
0
 10
-2.98438
 20
100.826
 11
-2.98145
 21
100.81
  0
LINE
  8
0
 10
-2.98145
 20
100.81
 11
-2.97852
 21
100.792
  0
LINE
  8
0
 10
-2.97852
 20
100.792
 11
-2.97461
 21
100.775
  0
LINE
  8
0
 10
-2.97461
 20
100.775
 11
-2.9707
 21
100.758
  0
LINE
  8
0
 10
-2.9707
 20
100.758
 11
-2.95117
 21
100.691
  0
LINE
  8
0
 10
-2.95117
 20
100.691
 11
-2.93359
 21
100.642
  0
LINE
  8
0
 10
-2.93359
 20
100.642
 11
-2.92676
 21
100.625
  0
LINE
  8
0
 10
-2.92676
 20
100.625
 11
-2.9209
 21
100.609
  0
LINE
  8
0
 10
-2.9209
 20
100.609
 11
-2.91309
 21
100.594
  0
LINE
  8
0
 10
-2.91309
 20
100.594
 11
-2.90625
 21
100.577
  0
LINE
  8
0
 10
-2.90625
 20
100.577
 11
-2.88281
 21
100.53
  0
LINE
  8
0
 10
-2.88281
 20
100.53
 11
-2.875
 21
100.516
  0
LINE
  8
0
 10
-2.875
 20
100.516
 11
-2.86621
 21
100.5
  0
LINE
  8
0
 10
-2.86621
 20
100.5
 11
-2.85742
 21
100.485
  0
LINE
  8
0
 10
-2.85742
 20
100.485
 11
-2.84766
 21
100.47
  0
LINE
  8
0
 10
-2.84766
 20
100.47
 11
-2.83887
 21
100.455
  0
LINE
  8
0
 10
-2.83887
 20
100.455
 11
-2.8291
 21
100.44
  0
LINE
  8
0
 10
-2.8291
 20
100.44
 11
-2.81934
 21
100.427
  0
LINE
  8
0
 10
-2.81934
 20
100.427
 11
-2.80859
 21
100.412
  0
LINE
  8
0
 10
-2.80859
 20
100.412
 11
-2.79883
 21
100.398
  0
LINE
  8
0
 10
-2.79883
 20
100.398
 11
-2.77734
 21
100.371
  0
LINE
  8
0
 10
-2.77734
 20
100.371
 11
-2.76562
 21
100.357
  0
LINE
  8
0
 10
-2.76562
 20
100.357
 11
-2.75488
 21
100.344
  0
LINE
  8
0
 10
-2.75488
 20
100.344
 11
-2.71973
 21
100.306
  0
LINE
  8
0
 10
-2.71973
 20
100.306
 11
-2.69434
 21
100.28
  0
LINE
  8
0
 10
-2.69434
 20
100.28
 11
-2.65625
 21
100.245
  0
LINE
  8
0
 10
-2.65625
 20
100.245
 11
-2.64258
 21
100.234
  0
LINE
  8
0
 10
-2.64258
 20
100.234
 11
-2.62891
 21
100.223
  0
LINE
  8
0
 10
-2.62891
 20
100.223
 11
-2.60156
 21
100.201
  0
LINE
  8
0
 10
-2.60156
 20
100.201
 11
-2.58789
 21
100.191
  0
LINE
  8
0
 10
-2.58789
 20
100.191
 11
-2.57324
 21
100.181
  0
LINE
  8
0
 10
-2.57324
 20
100.181
 11
-2.55957
 21
100.171
  0
LINE
  8
0
 10
-2.55957
 20
100.171
 11
-2.54492
 21
100.161
  0
LINE
  8
0
 10
-2.54492
 20
100.161
 11
-2.53027
 21
100.152
  0
LINE
  8
0
 10
-2.53027
 20
100.152
 11
-2.51465
 21
100.143
  0
LINE
  8
0
 10
-2.51465
 20
100.143
 11
-2.5
 21
100.134
  0
LINE
  8
0
 10
-2.5
 20
100.134
 11
-2.48438
 21
100.125
  0
LINE
  8
0
 10
-2.48438
 20
100.125
 11
-2.46973
 21
100.117
  0
LINE
  8
0
 10
-2.46973
 20
100.117
 11
-2.42285
 21
100.094
  0
LINE
  8
0
 10
-2.42285
 20
100.094
 11
-2.40625
 21
100.087
  0
LINE
  8
0
 10
-2.40625
 20
100.087
 11
-2.39062
 21
100.079
  0
LINE
  8
0
 10
-2.39062
 20
100.079
 11
-2.375
 21
100.073
  0
LINE
  8
0
 10
-2.375
 20
100.073
 11
-2.3584
 21
100.066
  0
LINE
  8
0
 10
-2.3584
 20
100.066
 11
-2.30859
 21
100.049
  0
LINE
  8
0
 10
-2.30859
 20
100.049
 11
-2.24219
 21
100.029
  0
LINE
  8
0
 10
-2.24219
 20
100.029
 11
-2.22461
 21
100.025
  0
LINE
  8
0
 10
-2.22461
 20
100.025
 11
-2.20801
 21
100.021
  0
LINE
  8
0
 10
-2.20801
 20
100.021
 11
-2.19043
 21
100.019
  0
LINE
  8
0
 10
-2.19043
 20
100.019
 11
-2.17383
 21
100.016
  0
LINE
  8
0
 10
-2.17383
 20
100.016
 11
-2.15625
 21
100.013
  0
LINE
  8
0
 10
-2.15625
 20
100.013
 11
-2.13965
 21
100.01
  0
LINE
  8
0
 10
-2.13965
 20
100.01
 11
-2.06934
 21
100.002
  0
LINE
  8
0
 10
-2.06934
 20
100.002
 11
-2.05273
 21
100.001
  0
LINE
  8
0
 10
-2.05273
 20
100.001
 11
-2.03516
 21
100.001
  0
LINE
  8
0
 10
-2.03516
 20
100.001
 11
-2.01758
 21
100
  0
LINE
  8
0
 10
-2.01758
 20
100
 11
0
 21
100
  0
LINE
  8
0
 10
0
 20
100
 11
0
 21
40
  0
LINE
  8
0
 10
0
 20
40
 11
-2.01758
 21
40
  0
LINE
  8
0
 10
-2.01758
 20
40
 11
-2.03516
 21
39.999
  0
LINE
  8
0
 10
-2.03516
 20
39.999
 11
-2.05273
 21
39.999
  0
LINE
  8
0
 10
-2.05273
 20
39.999
 11
-2.06934
 21
39.998
  0
LINE
  8
0
 10
-2.06934
 20
39.998
 11
-2.13965
 21
39.9902
  0
LINE
  8
0
 10
-2.13965
 20
39.9902
 11
-2.15625
 21
39.9873
  0
LINE
  8
0
 10
-2.15625
 20
39.9873
 11
-2.17383
 21
39.9844
  0
LINE
  8
0
 10
-2.17383
 20
39.9844
 11
-2.19043
 21
39.9814
  0
LINE
  8
0
 10
-2.19043
 20
39.9814
 11
-2.20801
 21
39.9785
  0
LINE
  8
0
 10
-2.20801
 20
39.9785
 11
-2.22461
 21
39.9746
  0
LINE
  8
0
 10
-2.22461
 20
39.9746
 11
-2.24219
 21
39.9707
  0
LINE
  8
0
 10
-2.24219
 20
39.9707
 11
-2.30859
 21
39.9512
  0
LINE
  8
0
 10
-2.30859
 20
39.9512
 11
-2.3584
 21
39.9336
  0
LINE
  8
0
 10
-2.3584
 20
39.9336
 11
-2.375
 21
39.9268
  0
LINE
  8
0
 10
-2.375
 20
39.9268
 11
-2.39062
 21
39.9209
  0
LINE
  8
0
 10
-2.39062
 20
39.9209
 11
-2.40625
 21
39.9131
  0
LINE
  8
0
 10
-2.40625
 20
39.9131
 11
-2.42285
 21
39.9062
  0
LINE
  8
0
 10
-2.42285
 20
39.9062
 11
-2.46973
 21
39.8828
  0
LINE
  8
0
 10
-2.46973
 20
39.8828
 11
-2.48438
 21
39.875
  0
LINE
  8
0
 10
-2.48438
 20
39.875
 11
-2.5
 21
39.8662
  0
LINE
  8
0
 10
-2.5
 20
39.8662
 11
-2.51465
 21
39.8574
  0
LINE
  8
0
 10
-2.51465
 20
39.8574
 11
-2.53027
 21
39.8477
  0
LINE
  8
0
 10
-2.53027
 20
39.8477
 11
-2.54492
 21
39.8389
  0
LINE
  8
0
 10
-2.54492
 20
39.8389
 11
-2.55957
 21
39.8291
  0
LINE
  8
0
 10
-2.55957
 20
39.8291
 11
-2.57324
 21
39.8193
  0
LINE
  8
0
 10
-2.57324
 20
39.8193
 11
-2.58789
 21
39.8086
  0
LINE
  8
0
 10
-2.58789
 20
39.8086
 11
-2.60156
 21
39.7988
  0
LINE
  8
0
 10
-2.60156
 20
39.7988
 11
-2.62891
 21
39.7773
  0
LINE
  8
0
 10
-2.62891
 20
39.7773
 11
-2.64258
 21
39.7656
  0
LINE
  8
0
 10
-2.64258
 20
39.7656
 11
-2.65625
 21
39.7549
  0
LINE
  8
0
 10
-2.65625
 20
39.7549
 11
-2.69434
 21
39.7197
  0
LINE
  8
0
 10
-2.69434
 20
39.7197
 11
-2.71973
 21
39.6943
  0
LINE
  8
0
 10
-2.71973
 20
39.6943
 11
-2.75488
 21
39.6562
  0
LINE
  8
0
 10
-2.75488
 20
39.6562
 11
-2.76562
 21
39.6426
  0
LINE
  8
0
 10
-2.76562
 20
39.6426
 11
-2.77734
 21
39.6289
  0
LINE
  8
0
 10
-2.77734
 20
39.6289
 11
-2.79883
 21
39.6016
  0
LINE
  8
0
 10
-2.79883
 20
39.6016
 11
-2.80859
 21
39.5879
  0
LINE
  8
0
 10
-2.80859
 20
39.5879
 11
-2.81934
 21
39.5732
  0
LINE
  8
0
 10
-2.81934
 20
39.5732
 11
-2.8291
 21
39.5596
  0
LINE
  8
0
 10
-2.8291
 20
39.5596
 11
-2.83887
 21
39.5449
  0
LINE
  8
0
 10
-2.83887
 20
39.5449
 11
-2.84766
 21
39.5303
  0
LINE
  8
0
 10
-2.84766
 20
39.5303
 11
-2.85742
 21
39.5146
  0
LINE
  8
0
 10
-2.85742
 20
39.5146
 11
-2.86621
 21
39.5
  0
LINE
  8
0
 10
-2.86621
 20
39.5
 11
-2.875
 21
39.4844
  0
LINE
  8
0
 10
-2.875
 20
39.4844
 11
-2.88281
 21
39.4697
  0
LINE
  8
0
 10
-2.88281
 20
39.4697
 11
-2.90625
 21
39.4229
  0
LINE
  8
0
 10
-2.90625
 20
39.4229
 11
-2.91309
 21
39.4062
  0
LINE
  8
0
 10
-2.91309
 20
39.4062
 11
-2.9209
 21
39.3906
  0
LINE
  8
0
 10
-2.9209
 20
39.3906
 11
-2.92676
 21
39.375
  0
LINE
  8
0
 10
-2.92676
 20
39.375
 11
-2.93359
 21
39.3584
  0
LINE
  8
0
 10
-2.93359
 20
39.3584
 11
-2.95117
 21
39.3086
  0
LINE
  8
0
 10
-2.95117
 20
39.3086
 11
-2.9707
 21
39.2422
  0
LINE
  8
0
 10
-2.9707
 20
39.2422
 11
-2.97461
 21
39.2246
  0
LINE
  8
0
 10
-2.97461
 20
39.2246
 11
-2.97852
 21
39.208
  0
LINE
  8
0
 10
-2.97852
 20
39.208
 11
-2.98145
 21
39.1904
  0
LINE
  8
0
 10
-2.98145
 20
39.1904
 11
-2.98438
 21
39.1738
  0
LINE
  8
0
 10
-2.98438
 20
39.1738
 11
-2.9873
 21
39.1562
  0
LINE
  8
0
 10
-2.9873
 20
39.1562
 11
-2.99023
 21
39.1396
  0
LINE
  8
0
 10
-2.99023
 20
39.1396
 11
-2.99805
 21
39.0693
  0
LINE
  8
0
 10
-2.99805
 20
39.0693
 11
-2.99902
 21
39.0527
  0
LINE
  8
0
 10
-2.99902
 20
39.0527
 11
-2.99902
 21
39.0352
  0
LINE
  8
0
 10
-2.99902
 20
39.0352
 11
-3
 21
39.0176
  0
LINE
  8
0
 10
-3
 20
39.0176
 11
-3
 21
30.9824
  0
LINE
  8
0
 10
-3
 20
30.9824
 11
-2.99902
 21
30.9648
  0
LINE
  8
0
 10
-2.99902
 20
30.9648
 11
-2.99902
 21
30.9473
  0
LINE
  8
0
 10
-2.99902
 20
30.9473
 11
-2.99805
 21
30.9307
  0
LINE
  8
0
 10
-2.99805
 20
30.9307
 11
-2.99023
 21
30.8604
  0
LINE
  8
0
 10
-2.99023
 20
30.8604
 11
-2.9873
 21
30.8438
  0
LINE
  8
0
 10
-2.9873
 20
30.8438
 11
-2.98438
 21
30.8262
  0
LINE
  8
0
 10
-2.98438
 20
30.8262
 11
-2.98145
 21
30.8096
  0
LINE
  8
0
 10
-2.98145
 20
30.8096
 11
-2.97852
 21
30.792
  0
LINE
  8
0
 10
-2.97852
 20
30.792
 11
-2.97461
 21
30.7754
  0
LINE
  8
0
 10
-2.97461
 20
30.7754
 11
-2.9707
 21
30.7578
  0
LINE
  8
0
 10
-2.9707
 20
30.7578
 11
-2.95117
 21
30.6914
  0
LINE
  8
0
 10
-2.95117
 20
30.6914
 11
-2.93359
 21
30.6416
  0
LINE
  8
0
 10
-2.93359
 20
30.6416
 11
-2.92676
 21
30.625
  0
LINE
  8
0
 10
-2.92676
 20
30.625
 11
-2.9209
 21
30.6094
  0
LINE
  8
0
 10
-2.9209
 20
30.6094
 11
-2.91309
 21
30.5938
  0
LINE
  8
0
 10
-2.91309
 20
30.5938
 11
-2.90625
 21
30.5771
  0
LINE
  8
0
 10
-2.90625
 20
30.5771
 11
-2.88281
 21
30.5303
  0
LINE
  8
0
 10
-2.88281
 20
30.5303
 11
-2.875
 21
30.5156
  0
LINE
  8
0
 10
-2.875
 20
30.5156
 11
-2.86621
 21
30.5
  0
LINE
  8
0
 10
-2.86621
 20
30.5
 11
-2.85742
 21
30.4854
  0
LINE
  8
0
 10
-2.85742
 20
30.4854
 11
-2.84766
 21
30.4697
  0
LINE
  8
0
 10
-2.84766
 20
30.4697
 11
-2.83887
 21
30.4551
  0
LINE
  8
0
 10
-2.83887
 20
30.4551
 11
-2.8291
 21
30.4404
  0
LINE
  8
0
 10
-2.8291
 20
30.4404
 11
-2.81934
 21
30.4268
  0
LINE
  8
0
 10
-2.81934
 20
30.4268
 11
-2.80859
 21
30.4121
  0
LINE
  8
0
 10
-2.80859
 20
30.4121
 11
-2.79883
 21
30.3984
  0
LINE
  8
0
 10
-2.79883
 20
30.3984
 11
-2.77734
 21
30.3711
  0
LINE
  8
0
 10
-2.77734
 20
30.3711
 11
-2.76562
 21
30.3574
  0
LINE
  8
0
 10
-2.76562
 20
30.3574
 11
-2.75488
 21
30.3438
  0
LINE
  8
0
 10
-2.75488
 20
30.3438
 11
-2.71973
 21
30.3057
  0
LINE
  8
0
 10
-2.71973
 20
30.3057
 11
-2.69434
 21
30.2803
  0
LINE
  8
0
 10
-2.69434
 20
30.2803
 11
-2.65625
 21
30.2451
  0
LINE
  8
0
 10
-2.65625
 20
30.2451
 11
-2.64258
 21
30.2344
  0
LINE
  8
0
 10
-2.64258
 20
30.2344
 11
-2.62891
 21
30.2227
  0
LINE
  8
0
 10
-2.62891
 20
30.2227
 11
-2.60156
 21
30.2012
  0
LINE
  8
0
 10
-2.60156
 20
30.2012
 11
-2.58789
 21
30.1914
  0
LINE
  8
0
 10
-2.58789
 20
30.1914
 11
-2.57324
 21
30.1807
  0
LINE
  8
0
 10
-2.57324
 20
30.1807
 11
-2.55957
 21
30.1709
  0
LINE
  8
0
 10
-2.55957
 20
30.1709
 11
-2.54492
 21
30.1611
  0
LINE
  8
0
 10
-2.54492
 20
30.1611
 11
-2.53027
 21
30.1523
  0
LINE
  8
0
 10
-2.53027
 20
30.1523
 11
-2.51465
 21
30.1426
  0
LINE
  8
0
 10
-2.51465
 20
30.1426
 11
-2.5
 21
30.1338
  0
LINE
  8
0
 10
-2.5
 20
30.1338
 11
-2.48438
 21
30.125
  0
LINE
  8
0
 10
-2.48438
 20
30.125
 11
-2.46973
 21
30.1172
  0
LINE
  8
0
 10
-2.46973
 20
30.1172
 11
-2.42285
 21
30.0938
  0
LINE
  8
0
 10
-2.42285
 20
30.0938
 11
-2.40625
 21
30.0869
  0
LINE
  8
0
 10
-2.40625
 20
30.0869
 11
-2.39062
 21
30.0791
  0
LINE
  8
0
 10
-2.39062
 20
30.0791
 11
-2.375
 21
30.0732
  0
LINE
  8
0
 10
-2.375
 20
30.0732
 11
-2.3584
 21
30.0664
  0
LINE
  8
0
 10
-2.3584
 20
30.0664
 11
-2.30859
 21
30.0488
  0
LINE
  8
0
 10
-2.30859
 20
30.0488
 11
-2.24219
 21
30.0293
  0
LINE
  8
0
 10
-2.24219
 20
30.0293
 11
-2.22461
 21
30.0254
  0
LINE
  8
0
 10
-2.22461
 20
30.0254
 11
-2.20801
 21
30.0215
  0
LINE
  8
0
 10
-2.20801
 20
30.0215
 11
-2.19043
 21
30.0186
  0
LINE
  8
0
 10
-2.19043
 20
30.0186
 11
-2.17383
 21
30.0156
  0
LINE
  8
0
 10
-2.17383
 20
30.0156
 11
-2.15625
 21
30.0127
  0
LINE
  8
0
 10
-2.15625
 20
30.0127
 11
-2.13965
 21
30.0098
  0
LINE
  8
0
 10
-2.13965
 20
30.0098
 11
-2.06934
 21
30.002
  0
LINE
  8
0
 10
-2.06934
 20
30.002
 11
-2.05273
 21
30.001
  0
LINE
  8
0
 10
-2.05273
 20
30.001
 11
-2.03516
 21
30.001
  0
LINE
  8
0
 10
-2.03516
 20
30.001
 11
-2.01758
 21
30
  0
LINE
  8
0
 10
-2.01758
 20
30
 11
0
 21
30
  0
LINE
  8
0
 10
0
 20
30
 11
0
 21
0
  0
LINE
  8
0
 10
0
 20
0
 11
100.95
 21
0
  0
LINE
  8
0
 10
100.95
 20
0
 11
100.95
 21
30
  0
LINE
  8
0
 10
14.7217
 20
98.1504
 11
14.666
 21
98.1523
  0
LINE
  8
0
 10
14.666
 20
98.1523
 11
14.6387
 21
98.1543
  0
LINE
  8
0
 10
14.6387
 20
98.1543
 11
14.6104
 21
98.1562
  0
LINE
  8
0
 10
14.6104
 20
98.1562
 11
14.583
 21
98.1592
  0
LINE
  8
0
 10
14.583
 20
98.1592
 11
14.5547
 21
98.1621
  0
LINE
  8
0
 10
14.5547
 20
98.1621
 11
14.5
 21
98.1699
  0
LINE
  8
0
 10
14.5
 20
98.1699
 11
14.4717
 21
98.1738
  0
LINE
  8
0
 10
14.4717
 20
98.1738
 11
14.4443
 21
98.1797
  0
LINE
  8
0
 10
14.4443
 20
98.1797
 11
14.417
 21
98.1846
  0
LINE
  8
0
 10
14.417
 20
98.1846
 11
14.3896
 21
98.1914
  0
LINE
  8
0
 10
14.3896
 20
98.1914
 11
14.3633
 21
98.1973
  0
LINE
  8
0
 10
14.3633
 20
98.1973
 11
14.3359
 21
98.2041
  0
LINE
  8
0
 10
14.3359
 20
98.2041
 11
14.3086
 21
98.2119
  0
LINE
  8
0
 10
14.3086
 20
98.2119
 11
14.2822
 21
98.2197
  0
LINE
  8
0
 10
14.2822
 20
98.2197
 11
14.2031
 21
98.2461
  0
LINE
  8
0
 10
14.2031
 20
98.2461
 11
14.1768
 21
98.2559
  0
LINE
  8
0
 10
14.1768
 20
98.2559
 11
14.1504
 21
98.2666
  0
LINE
  8
0
 10
14.1504
 20
98.2666
 11
14.0996
 21
98.2881
  0
LINE
  8
0
 10
14.0996
 20
98.2881
 11
14.0488
 21
98.3115
  0
LINE
  8
0
 10
14.0488
 20
98.3115
 11
14.0234
 21
98.3242
  0
LINE
  8
0
 10
14.0234
 20
98.3242
 11
13.999
 21
98.3369
  0
LINE
  8
0
 10
13.999
 20
98.3369
 11
13.9502
 21
98.3643
  0
LINE
  8
0
 10
13.9502
 20
98.3643
 11
13.9258
 21
98.3789
  0
LINE
  8
0
 10
13.9258
 20
98.3789
 11
13.8789
 21
98.4082
  0
LINE
  8
0
 10
13.8789
 20
98.4082
 11
13.832
 21
98.4395
  0
LINE
  8
0
 10
13.832
 20
98.4395
 11
13.7646
 21
98.4893
  0
LINE
  8
0
 10
13.7646
 20
98.4893
 11
13.7002
 21
98.542
  0
LINE
  8
0
 10
13.7002
 20
98.542
 11
13.6797
 21
98.5605
  0
LINE
  8
0
 10
13.6797
 20
98.5605
 11
13.6592
 21
98.5801
  0
LINE
  8
0
 10
13.6592
 20
98.5801
 11
13.6387
 21
98.5986
  0
LINE
  8
0
 10
13.6387
 20
98.5986
 11
13.6182
 21
98.6182
  0
LINE
  8
0
 10
13.6182
 20
98.6182
 11
13.5986
 21
98.6387
  0
LINE
  8
0
 10
13.5986
 20
98.6387
 11
13.5801
 21
98.6592
  0
LINE
  8
0
 10
13.5801
 20
98.6592
 11
13.5605
 21
98.6797
  0
LINE
  8
0
 10
13.5605
 20
98.6797
 11
13.542
 21
98.7002
  0
LINE
  8
0
 10
13.542
 20
98.7002
 11
13.4893
 21
98.7646
  0
LINE
  8
0
 10
13.4893
 20
98.7646
 11
13.4395
 21
98.832
  0
LINE
  8
0
 10
13.4395
 20
98.832
 11
13.4082
 21
98.8789
  0
LINE
  8
0
 10
13.4082
 20
98.8789
 11
13.3789
 21
98.9258
  0
LINE
  8
0
 10
13.3789
 20
98.9258
 11
13.3643
 21
98.9502
  0
LINE
  8
0
 10
13.3643
 20
98.9502
 11
13.3369
 21
98.999
  0
LINE
  8
0
 10
13.3369
 20
98.999
 11
13.3242
 21
99.0234
  0
LINE
  8
0
 10
13.3242
 20
99.0234
 11
13.3115
 21
99.0488
  0
LINE
  8
0
 10
13.3115
 20
99.0488
 11
13.2881
 21
99.0996
  0
LINE
  8
0
 10
13.2881
 20
99.0996
 11
13.2666
 21
99.1504
  0
LINE
  8
0
 10
13.2666
 20
99.1504
 11
13.2559
 21
99.1768
  0
LINE
  8
0
 10
13.2559
 20
99.1768
 11
13.2461
 21
99.2031
  0
LINE
  8
0
 10
13.2461
 20
99.2031
 11
13.2197
 21
99.2822
  0
LINE
  8
0
 10
13.2197
 20
99.2822
 11
13.2119
 21
99.3086
  0
LINE
  8
0
 10
13.2119
 20
99.3086
 11
13.2041
 21
99.3359
  0
LINE
  8
0
 10
13.2041
 20
99.3359
 11
13.1973
 21
99.3633
  0
LINE
  8
0
 10
13.1973
 20
99.3633
 11
13.1914
 21
99.3896
  0
LINE
  8
0
 10
13.1914
 20
99.3896
 11
13.1846
 21
99.417
  0
LINE
  8
0
 10
13.1846
 20
99.417
 11
13.1797
 21
99.4443
  0
LINE
  8
0
 10
13.1797
 20
99.4443
 11
13.1738
 21
99.4717
  0
LINE
  8
0
 10
13.1738
 20
99.4717
 11
13.1699
 21
99.5
  0
LINE
  8
0
 10
13.1699
 20
99.5
 11
13.1621
 21
99.5547
  0
LINE
  8
0
 10
13.1621
 20
99.5547
 11
13.1592
 21
99.583
  0
LINE
  8
0
 10
13.1592
 20
99.583
 11
13.1562
 21
99.6104
  0
LINE
  8
0
 10
13.1562
 20
99.6104
 11
13.1543
 21
99.6387
  0
LINE
  8
0
 10
13.1543
 20
99.6387
 11
13.1523
 21
99.666
  0
LINE
  8
0
 10
13.1523
 20
99.666
 11
13.1504
 21
99.7217
  0
LINE
  8
0
 10
13.1504
 20
99.7217
 11
13.1504
 21
99.7783
  0
LINE
  8
0
 10
13.1504
 20
99.7783
 11
13.1523
 21
99.834
  0
LINE
  8
0
 10
13.1523
 20
99.834
 11
13.1543
 21
99.8613
  0
LINE
  8
0
 10
13.1543
 20
99.8613
 11
13.1562
 21
99.8896
  0
LINE
  8
0
 10
13.1562
 20
99.8896
 11
13.1592
 21
99.917
  0
LINE
  8
0
 10
13.1592
 20
99.917
 11
13.1621
 21
99.9453
  0
LINE
  8
0
 10
13.1621
 20
99.9453
 11
13.1699
 21
100
  0
LINE
  8
0
 10
13.1699
 20
100
 11
13.1738
 21
100.028
  0
LINE
  8
0
 10
13.1738
 20
100.028
 11
13.1797
 21
100.056
  0
LINE
  8
0
 10
13.1797
 20
100.056
 11
13.1846
 21
100.083
  0
LINE
  8
0
 10
13.1846
 20
100.083
 11
13.1914
 21
100.11
  0
LINE
  8
0
 10
13.1914
 20
100.11
 11
13.1973
 21
100.137
  0
LINE
  8
0
 10
13.1973
 20
100.137
 11
13.2041
 21
100.164
  0
LINE
  8
0
 10
13.2041
 20
100.164
 11
13.2119
 21
100.191
  0
LINE
  8
0
 10
13.2119
 20
100.191
 11
13.2197
 21
100.218
  0
LINE
  8
0
 10
13.2197
 20
100.218
 11
13.2461
 21
100.297
  0
LINE
  8
0
 10
13.2461
 20
100.297
 11
13.2559
 21
100.323
  0
LINE
  8
0
 10
13.2559
 20
100.323
 11
13.2666
 21
100.35
  0
LINE
  8
0
 10
13.2666
 20
100.35
 11
13.2881
 21
100.4
  0
LINE
  8
0
 10
13.2881
 20
100.4
 11
13.3115
 21
100.451
  0
LINE
  8
0
 10
13.3115
 20
100.451
 11
13.3242
 21
100.477
  0
LINE
  8
0
 10
13.3242
 20
100.477
 11
13.3369
 21
100.501
  0
LINE
  8
0
 10
13.3369
 20
100.501
 11
13.3643
 21
100.55
  0
LINE
  8
0
 10
13.3643
 20
100.55
 11
13.3789
 21
100.574
  0
LINE
  8
0
 10
13.3789
 20
100.574
 11
13.4082
 21
100.621
  0
LINE
  8
0
 10
13.4082
 20
100.621
 11
13.4395
 21
100.668
  0
LINE
  8
0
 10
13.4395
 20
100.668
 11
13.4893
 21
100.735
  0
LINE
  8
0
 10
13.4893
 20
100.735
 11
13.542
 21
100.8
  0
LINE
  8
0
 10
13.542
 20
100.8
 11
13.5605
 21
100.82
  0
LINE
  8
0
 10
13.5605
 20
100.82
 11
13.5801
 21
100.841
  0
LINE
  8
0
 10
13.5801
 20
100.841
 11
13.5986
 21
100.861
  0
LINE
  8
0
 10
13.5986
 20
100.861
 11
13.6182
 21
100.882
  0
LINE
  8
0
 10
13.6182
 20
100.882
 11
13.6387
 21
100.901
  0
LINE
  8
0
 10
13.6387
 20
100.901
 11
13.6592
 21
100.92
  0
LINE
  8
0
 10
13.6592
 20
100.92
 11
13.6797
 21
100.939
  0
LINE
  8
0
 10
13.6797
 20
100.939
 11
13.7002
 21
100.958
  0
LINE
  8
0
 10
13.7002
 20
100.958
 11
13.7646
 21
101.011
  0
LINE
  8
0
 10
13.7646
 20
101.011
 11
13.832
 21
101.061
  0
LINE
  8
0
 10
13.832
 20
101.061
 11
13.8789
 21
101.092
  0
LINE
  8
0
 10
13.8789
 20
101.092
 11
13.9258
 21
101.121
  0
LINE
  8
0
 10
13.9258
 20
101.121
 11
13.9502
 21
101.136
  0
LINE
  8
0
 10
13.9502
 20
101.136
 11
13.999
 21
101.163
  0
LINE
  8
0
 10
13.999
 20
101.163
 11
14.0234
 21
101.176
  0
LINE
  8
0
 10
14.0234
 20
101.176
 11
14.0488
 21
101.188
  0
LINE
  8
0
 10
14.0488
 20
101.188
 11
14.0996
 21
101.212
  0
LINE
  8
0
 10
14.0996
 20
101.212
 11
14.1504
 21
101.233
  0
LINE
  8
0
 10
14.1504
 20
101.233
 11
14.1768
 21
101.244
  0
LINE
  8
0
 10
14.1768
 20
101.244
 11
14.2031
 21
101.254
  0
LINE
  8
0
 10
14.2031
 20
101.254
 11
14.2822
 21
101.28
  0
LINE
  8
0
 10
14.2822
 20
101.28
 11
14.3086
 21
101.288
  0
LINE
  8
0
 10
14.3086
 20
101.288
 11
14.3359
 21
101.296
  0
LINE
  8
0
 10
14.3359
 20
101.296
 11
14.3633
 21
101.303
  0
LINE
  8
0
 10
14.3633
 20
101.303
 11
14.3896
 21
101.309
  0
LINE
  8
0
 10
14.3896
 20
101.309
 11
14.417
 21
101.315
  0
LINE
  8
0
 10
14.417
 20
101.315
 11
14.4443
 21
101.32
  0
LINE
  8
0
 10
14.4443
 20
101.32
 11
14.4717
 21
101.326
  0
LINE
  8
0
 10
14.4717
 20
101.326
 11
14.5
 21
101.33
  0
LINE
  8
0
 10
14.5
 20
101.33
 11
14.5547
 21
101.338
  0
LINE
  8
0
 10
14.5547
 20
101.338
 11
14.583
 21
101.341
  0
LINE
  8
0
 10
14.583
 20
101.341
 11
14.6104
 21
101.344
  0
LINE
  8
0
 10
14.6104
 20
101.344
 11
14.6387
 21
101.346
  0
LINE
  8
0
 10
14.6387
 20
101.346
 11
14.666
 21
101.348
  0
LINE
  8
0
 10
14.666
 20
101.348
 11
14.7217
 21
101.35
  0
LINE
  8
0
 10
14.7217
 20
101.35
 11
14.7783
 21
101.35
  0
LINE
  8
0
 10
14.7783
 20
101.35
 11
14.834
 21
101.348
  0
LINE
  8
0
 10
14.834
 20
101.348
 11
14.8613
 21
101.346
  0
LINE
  8
0
 10
14.8613
 20
101.346
 11
14.8896
 21
101.344
  0
LINE
  8
0
 10
14.8896
 20
101.344
 11
14.917
 21
101.341
  0
LINE
  8
0
 10
14.917
 20
101.341
 11
14.9453
 21
101.338
  0
LINE
  8
0
 10
14.9453
 20
101.338
 11
15
 21
101.33
  0
LINE
  8
0
 10
15
 20
101.33
 11
15.0283
 21
101.326
  0
LINE
  8
0
 10
15.0283
 20
101.326
 11
15.0557
 21
101.32
  0
LINE
  8
0
 10
15.0557
 20
101.32
 11
15.083
 21
101.315
  0
LINE
  8
0
 10
15.083
 20
101.315
 11
15.1104
 21
101.309
  0
LINE
  8
0
 10
15.1104
 20
101.309
 11
15.1367
 21
101.303
  0
LINE
  8
0
 10
15.1367
 20
101.303
 11
15.1641
 21
101.296
  0
LINE
  8
0
 10
15.1641
 20
101.296
 11
15.1914
 21
101.288
  0
LINE
  8
0
 10
15.1914
 20
101.288
 11
15.2178
 21
101.28
  0
LINE
  8
0
 10
15.2178
 20
101.28
 11
15.2969
 21
101.254
  0
LINE
  8
0
 10
15.2969
 20
101.254
 11
15.3232
 21
101.244
  0
LINE
  8
0
 10
15.3232
 20
101.244
 11
15.3496
 21
101.233
  0
LINE
  8
0
 10
15.3496
 20
101.233
 11
15.4004
 21
101.212
  0
LINE
  8
0
 10
15.4004
 20
101.212
 11
15.4512
 21
101.188
  0
LINE
  8
0
 10
15.4512
 20
101.188
 11
15.4766
 21
101.176
  0
LINE
  8
0
 10
15.4766
 20
101.176
 11
15.501
 21
101.163
  0
LINE
  8
0
 10
15.501
 20
101.163
 11
15.5498
 21
101.136
  0
LINE
  8
0
 10
15.5498
 20
101.136
 11
15.5742
 21
101.121
  0
LINE
  8
0
 10
15.5742
 20
101.121
 11
15.6211
 21
101.092
  0
LINE
  8
0
 10
15.6211
 20
101.092
 11
15.668
 21
101.061
  0
LINE
  8
0
 10
15.668
 20
101.061
 11
15.7354
 21
101.011
  0
LINE
  8
0
 10
15.7354
 20
101.011
 11
15.7998
 21
100.958
  0
LINE
  8
0
 10
15.7998
 20
100.958
 11
15.8203
 21
100.939
  0
LINE
  8
0
 10
15.8203
 20
100.939
 11
15.8408
 21
100.92
  0
LINE
  8
0
 10
15.8408
 20
100.92
 11
15.8613
 21
100.901
  0
LINE
  8
0
 10
15.8613
 20
100.901
 11
15.8818
 21
100.882
  0
LINE
  8
0
 10
15.8818
 20
100.882
 11
15.9014
 21
100.861
  0
LINE
  8
0
 10
15.9014
 20
100.861
 11
15.9199
 21
100.841
  0
LINE
  8
0
 10
15.9199
 20
100.841
 11
15.9395
 21
100.82
  0
LINE
  8
0
 10
15.9395
 20
100.82
 11
15.958
 21
100.8
  0
LINE
  8
0
 10
15.958
 20
100.8
 11
16.0107
 21
100.735
  0
LINE
  8
0
 10
16.0107
 20
100.735
 11
16.0605
 21
100.668
  0
LINE
  8
0
 10
16.0605
 20
100.668
 11
16.0918
 21
100.621
  0
LINE
  8
0
 10
16.0918
 20
100.621
 11
16.1211
 21
100.574
  0
LINE
  8
0
 10
16.1211
 20
100.574
 11
16.1357
 21
100.55
  0
LINE
  8
0
 10
16.1357
 20
100.55
 11
16.1631
 21
100.501
  0
LINE
  8
0
 10
16.1631
 20
100.501
 11
16.1758
 21
100.477
  0
LINE
  8
0
 10
16.1758
 20
100.477
 11
16.1885
 21
100.451
  0
LINE
  8
0
 10
16.1885
 20
100.451
 11
16.2119
 21
100.4
  0
LINE
  8
0
 10
16.2119
 20
100.4
 11
16.2334
 21
100.35
  0
LINE
  8
0
 10
16.2334
 20
100.35
 11
16.2441
 21
100.323
  0
LINE
  8
0
 10
16.2441
 20
100.323
 11
16.2539
 21
100.297
  0
LINE
  8
0
 10
16.2539
 20
100.297
 11
16.2803
 21
100.218
  0
LINE
  8
0
 10
16.2803
 20
100.218
 11
16.2881
 21
100.191
  0
LINE
  8
0
 10
16.2881
 20
100.191
 11
16.2959
 21
100.164
  0
LINE
  8
0
 10
16.2959
 20
100.164
 11
16.3027
 21
100.137
  0
LINE
  8
0
 10
16.3027
 20
100.137
 11
16.3086
 21
100.11
  0
LINE
  8
0
 10
16.3086
 20
100.11
 11
16.3154
 21
100.083
  0
LINE
  8
0
 10
16.3154
 20
100.083
 11
16.3203
 21
100.056
  0
LINE
  8
0
 10
16.3203
 20
100.056
 11
16.3262
 21
100.028
  0
LINE
  8
0
 10
16.3262
 20
100.028
 11
16.3301
 21
100
  0
LINE
  8
0
 10
16.3301
 20
100
 11
16.3379
 21
99.9453
  0
LINE
  8
0
 10
16.3379
 20
99.9453
 11
16.3408
 21
99.917
  0
LINE
  8
0
 10
16.3408
 20
99.917
 11
16.3438
 21
99.8896
  0
LINE
  8
0
 10
16.3438
 20
99.8896
 11
16.3457
 21
99.8613
  0
LINE
  8
0
 10
16.3457
 20
99.8613
 11
16.3477
 21
99.834
  0
LINE
  8
0
 10
16.3477
 20
99.834
 11
16.3496
 21
99.7783
  0
LINE
  8
0
 10
16.3496
 20
99.7783
 11
16.3496
 21
99.7217
  0
LINE
  8
0
 10
16.3496
 20
99.7217
 11
16.3477
 21
99.666
  0
LINE
  8
0
 10
16.3477
 20
99.666
 11
16.3457
 21
99.6387
  0
LINE
  8
0
 10
16.3457
 20
99.6387
 11
16.3438
 21
99.6104
  0
LINE
  8
0
 10
16.3438
 20
99.6104
 11
16.3408
 21
99.583
  0
LINE
  8
0
 10
16.3408
 20
99.583
 11
16.3379
 21
99.5547
  0
LINE
  8
0
 10
16.3379
 20
99.5547
 11
16.3301
 21
99.5
  0
LINE
  8
0
 10
16.3301
 20
99.5
 11
16.3262
 21
99.4717
  0
LINE
  8
0
 10
16.3262
 20
99.4717
 11
16.3203
 21
99.4443
  0
LINE
  8
0
 10
16.3203
 20
99.4443
 11
16.3154
 21
99.417
  0
LINE
  8
0
 10
16.3154
 20
99.417
 11
16.3086
 21
99.3896
  0
LINE
  8
0
 10
16.3086
 20
99.3896
 11
16.3027
 21
99.3633
  0
LINE
  8
0
 10
16.3027
 20
99.3633
 11
16.2959
 21
99.3359
  0
LINE
  8
0
 10
16.2959
 20
99.3359
 11
16.2881
 21
99.3086
  0
LINE
  8
0
 10
16.2881
 20
99.3086
 11
16.2803
 21
99.2822
  0
LINE
  8
0
 10
16.2803
 20
99.2822
 11
16.2539
 21
99.2031
  0
LINE
  8
0
 10
16.2539
 20
99.2031
 11
16.2441
 21
99.1768
  0
LINE
  8
0
 10
16.2441
 20
99.1768
 11
16.2334
 21
99.1504
  0
LINE
  8
0
 10
16.2334
 20
99.1504
 11
16.2119
 21
99.0996
  0
LINE
  8
0
 10
16.2119
 20
99.0996
 11
16.1885
 21
99.0488
  0
LINE
  8
0
 10
16.1885
 20
99.0488
 11
16.1758
 21
99.0234
  0
LINE
  8
0
 10
16.1758
 20
99.0234
 11
16.1631
 21
98.999
  0
LINE
  8
0
 10
16.1631
 20
98.999
 11
16.1357
 21
98.9502
  0
LINE
  8
0
 10
16.1357
 20
98.9502
 11
16.1211
 21
98.9258
  0
LINE
  8
0
 10
16.1211
 20
98.9258
 11
16.0918
 21
98.8789
  0
LINE
  8
0
 10
16.0918
 20
98.8789
 11
16.0605
 21
98.832
  0
LINE
  8
0
 10
16.0605
 20
98.832
 11
16.0107
 21
98.7646
  0
LINE
  8
0
 10
16.0107
 20
98.7646
 11
15.958
 21
98.7002
  0
LINE
  8
0
 10
15.958
 20
98.7002
 11
15.9395
 21
98.6797
  0
LINE
  8
0
 10
15.9395
 20
98.6797
 11
15.9199
 21
98.6592
  0
LINE
  8
0
 10
15.9199
 20
98.6592
 11
15.9014
 21
98.6387
  0
LINE
  8
0
 10
15.9014
 20
98.6387
 11
15.8818
 21
98.6182
  0
LINE
  8
0
 10
15.8818
 20
98.6182
 11
15.8613
 21
98.5986
  0
LINE
  8
0
 10
15.8613
 20
98.5986
 11
15.8408
 21
98.5801
  0
LINE
  8
0
 10
15.8408
 20
98.5801
 11
15.8203
 21
98.5605
  0
LINE
  8
0
 10
15.8203
 20
98.5605
 11
15.7998
 21
98.542
  0
LINE
  8
0
 10
15.7998
 20
98.542
 11
15.7354
 21
98.4893
  0
LINE
  8
0
 10
15.7354
 20
98.4893
 11
15.668
 21
98.4395
  0
LINE
  8
0
 10
15.668
 20
98.4395
 11
15.6211
 21
98.4082
  0
LINE
  8
0
 10
15.6211
 20
98.4082
 11
15.5742
 21
98.3789
  0
LINE
  8
0
 10
15.5742
 20
98.3789
 11
15.5498
 21
98.3643
  0
LINE
  8
0
 10
15.5498
 20
98.3643
 11
15.501
 21
98.3369
  0
LINE
  8
0
 10
15.501
 20
98.3369
 11
15.4766
 21
98.3242
  0
LINE
  8
0
 10
15.4766
 20
98.3242
 11
15.4512
 21
98.3115
  0
LINE
  8
0
 10
15.4512
 20
98.3115
 11
15.4004
 21
98.2881
  0
LINE
  8
0
 10
15.4004
 20
98.2881
 11
15.3496
 21
98.2666
  0
LINE
  8
0
 10
15.3496
 20
98.2666
 11
15.3232
 21
98.2559
  0
LINE
  8
0
 10
15.3232
 20
98.2559
 11
15.2969
 21
98.2461
  0
LINE
  8
0
 10
15.2969
 20
98.2461
 11
15.2178
 21
98.2197
  0
LINE
  8
0
 10
15.2178
 20
98.2197
 11
15.1914
 21
98.2119
  0
LINE
  8
0
 10
15.1914
 20
98.2119
 11
15.1641
 21
98.2041
  0
LINE
  8
0
 10
15.1641
 20
98.2041
 11
15.1367
 21
98.1973
  0
LINE
  8
0
 10
15.1367
 20
98.1973
 11
15.1104
 21
98.1914
  0
LINE
  8
0
 10
15.1104
 20
98.1914
 11
15.083
 21
98.1846
  0
LINE
  8
0
 10
15.083
 20
98.1846
 11
15.0557
 21
98.1797
  0
LINE
  8
0
 10
15.0557
 20
98.1797
 11
15.0283
 21
98.1738
  0
LINE
  8
0
 10
15.0283
 20
98.1738
 11
15
 21
98.1699
  0
LINE
  8
0
 10
15
 20
98.1699
 11
14.9453
 21
98.1621
  0
LINE
  8
0
 10
14.9453
 20
98.1621
 11
14.917
 21
98.1592
  0
LINE
  8
0
 10
14.917
 20
98.1592
 11
14.8896
 21
98.1562
  0
LINE
  8
0
 10
14.8896
 20
98.1562
 11
14.8613
 21
98.1543
  0
LINE
  8
0
 10
14.8613
 20
98.1543
 11
14.834
 21
98.1523
  0
LINE
  8
0
 10
14.834
 20
98.1523
 11
14.7783
 21
98.1504
  0
LINE
  8
0
 10
14.7783
 20
98.1504
 11
14.7217
 21
98.1504
  0
LINE
  8
0
 10
86.2217
 20
98.1504
 11
86.166
 21
98.1523
  0
LINE
  8
0
 10
86.166
 20
98.1523
 11
86.1387
 21
98.1543
  0
LINE
  8
0
 10
86.1387
 20
98.1543
 11
86.1104
 21
98.1562
  0
LINE
  8
0
 10
86.1104
 20
98.1562
 11
86.083
 21
98.1592
  0
LINE
  8
0
 10
86.083
 20
98.1592
 11
86.0547
 21
98.1621
  0
LINE
  8
0
 10
86.0547
 20
98.1621
 11
86
 21
98.1699
  0
LINE
  8
0
 10
86
 20
98.1699
 11
85.9717
 21
98.1738
  0
LINE
  8
0
 10
85.9717
 20
98.1738
 11
85.9443
 21
98.1797
  0
LINE
  8
0
 10
85.9443
 20
98.1797
 11
85.917
 21
98.1846
  0
LINE
  8
0
 10
85.917
 20
98.1846
 11
85.8896
 21
98.1914
  0
LINE
  8
0
 10
85.8896
 20
98.1914
 11
85.8633
 21
98.1973
  0
LINE
  8
0
 10
85.8633
 20
98.1973
 11
85.8359
 21
98.2041
  0
LINE
  8
0
 10
85.8359
 20
98.2041
 11
85.8086
 21
98.2119
  0
LINE
  8
0
 10
85.8086
 20
98.2119
 11
85.7822
 21
98.2197
  0
LINE
  8
0
 10
85.7822
 20
98.2197
 11
85.7031
 21
98.2461
  0
LINE
  8
0
 10
85.7031
 20
98.2461
 11
85.6768
 21
98.2559
  0
LINE
  8
0
 10
85.6768
 20
98.2559
 11
85.6504
 21
98.2666
  0
LINE
  8
0
 10
85.6504
 20
98.2666
 11
85.5996
 21
98.2881
  0
LINE
  8
0
 10
85.5996
 20
98.2881
 11
85.5488
 21
98.3115
  0
LINE
  8
0
 10
85.5488
 20
98.3115
 11
85.5234
 21
98.3242
  0
LINE
  8
0
 10
85.5234
 20
98.3242
 11
85.499
 21
98.3369
  0
LINE
  8
0
 10
85.499
 20
98.3369
 11
85.4502
 21
98.3643
  0
LINE
  8
0
 10
85.4502
 20
98.3643
 11
85.4258
 21
98.3789
  0
LINE
  8
0
 10
85.4258
 20
98.3789
 11
85.3789
 21
98.4082
  0
LINE
  8
0
 10
85.3789
 20
98.4082
 11
85.332
 21
98.4395
  0
LINE
  8
0
 10
85.332
 20
98.4395
 11
85.2646
 21
98.4893
  0
LINE
  8
0
 10
85.2646
 20
98.4893
 11
85.2002
 21
98.542
  0
LINE
  8
0
 10
85.2002
 20
98.542
 11
85.1797
 21
98.5605
  0
LINE
  8
0
 10
85.1797
 20
98.5605
 11
85.1592
 21
98.5801
  0
LINE
  8
0
 10
85.1592
 20
98.5801
 11
85.1387
 21
98.5986
  0
LINE
  8
0
 10
85.1387
 20
98.5986
 11
85.1182
 21
98.6182
  0
LINE
  8
0
 10
85.1182
 20
98.6182
 11
85.0986
 21
98.6387
  0
LINE
  8
0
 10
85.0986
 20
98.6387
 11
85.0801
 21
98.6592
  0
LINE
  8
0
 10
85.0801
 20
98.6592
 11
85.0605
 21
98.6797
  0
LINE
  8
0
 10
85.0605
 20
98.6797
 11
85.042
 21
98.7002
  0
LINE
  8
0
 10
85.042
 20
98.7002
 11
84.9893
 21
98.7646
  0
LINE
  8
0
 10
84.9893
 20
98.7646
 11
84.9395
 21
98.832
  0
LINE
  8
0
 10
84.9395
 20
98.832
 11
84.9082
 21
98.8789
  0
LINE
  8
0
 10
84.9082
 20
98.8789
 11
84.8789
 21
98.9258
  0
LINE
  8
0
 10
84.8789
 20
98.9258
 11
84.8643
 21
98.9502
  0
LINE
  8
0
 10
84.8643
 20
98.9502
 11
84.8369
 21
98.999
  0
LINE
  8
0
 10
84.8369
 20
98.999
 11
84.8242
 21
99.0234
  0
LINE
  8
0
 10
84.8242
 20
99.0234
 11
84.8115
 21
99.0488
  0
LINE
  8
0
 10
84.8115
 20
99.0488
 11
84.7881
 21
99.0996
  0
LINE
  8
0
 10
84.7881
 20
99.0996
 11
84.7666
 21
99.1504
  0
LINE
  8
0
 10
84.7666
 20
99.1504
 11
84.7559
 21
99.1768
  0
LINE
  8
0
 10
84.7559
 20
99.1768
 11
84.7461
 21
99.2031
  0
LINE
  8
0
 10
84.7461
 20
99.2031
 11
84.7197
 21
99.2822
  0
LINE
  8
0
 10
84.7197
 20
99.2822
 11
84.7119
 21
99.3086
  0
LINE
  8
0
 10
84.7119
 20
99.3086
 11
84.7041
 21
99.3359
  0
LINE
  8
0
 10
84.7041
 20
99.3359
 11
84.6973
 21
99.3633
  0
LINE
  8
0
 10
84.6973
 20
99.3633
 11
84.6914
 21
99.3896
  0
LINE
  8
0
 10
84.6914
 20
99.3896
 11
84.6846
 21
99.417
  0
LINE
  8
0
 10
84.6846
 20
99.417
 11
84.6797
 21
99.4443
  0
LINE
  8
0
 10
84.6797
 20
99.4443
 11
84.6738
 21
99.4717
  0
LINE
  8
0
 10
84.6738
 20
99.4717
 11
84.6699
 21
99.5
  0
LINE
  8
0
 10
84.6699
 20
99.5
 11
84.6621
 21
99.5547
  0
LINE
  8
0
 10
84.6621
 20
99.5547
 11
84.6592
 21
99.583
  0
LINE
  8
0
 10
84.6592
 20
99.583
 11
84.6562
 21
99.6104
  0
LINE
  8
0
 10
84.6562
 20
99.6104
 11
84.6543
 21
99.6387
  0
LINE
  8
0
 10
84.6543
 20
99.6387
 11
84.6523
 21
99.666
  0
LINE
  8
0
 10
84.6523
 20
99.666
 11
84.6504
 21
99.7217
  0
LINE
  8
0
 10
84.6504
 20
99.7217
 11
84.6504
 21
99.7783
  0
LINE
  8
0
 10
84.6504
 20
99.7783
 11
84.6523
 21
99.834
  0
LINE
  8
0
 10
84.6523
 20
99.834
 11
84.6543
 21
99.8613
  0
LINE
  8
0
 10
84.6543
 20
99.8613
 11
84.6562
 21
99.8896
  0
LINE
  8
0
 10
84.6562
 20
99.8896
 11
84.6592
 21
99.917
  0
LINE
  8
0
 10
84.6592
 20
99.917
 11
84.6621
 21
99.9453
  0
LINE
  8
0
 10
84.6621
 20
99.9453
 11
84.6699
 21
100
  0
LINE
  8
0
 10
84.6699
 20
100
 11
84.6738
 21
100.028
  0
LINE
  8
0
 10
84.6738
 20
100.028
 11
84.6797
 21
100.056
  0
LINE
  8
0
 10
84.6797
 20
100.056
 11
84.6846
 21
100.083
  0
LINE
  8
0
 10
84.6846
 20
100.083
 11
84.6914
 21
100.11
  0
LINE
  8
0
 10
84.6914
 20
100.11
 11
84.6973
 21
100.137
  0
LINE
  8
0
 10
84.6973
 20
100.137
 11
84.7041
 21
100.164
  0
LINE
  8
0
 10
84.7041
 20
100.164
 11
84.7119
 21
100.191
  0
LINE
  8
0
 10
84.7119
 20
100.191
 11
84.7197
 21
100.218
  0
LINE
  8
0
 10
84.7197
 20
100.218
 11
84.7461
 21
100.297
  0
LINE
  8
0
 10
84.7461
 20
100.297
 11
84.7559
 21
100.323
  0
LINE
  8
0
 10
84.7559
 20
100.323
 11
84.7666
 21
100.35
  0
LINE
  8
0
 10
84.7666
 20
100.35
 11
84.7881
 21
100.4
  0
LINE
  8
0
 10
84.7881
 20
100.4
 11
84.8115
 21
100.451
  0
LINE
  8
0
 10
84.8115
 20
100.451
 11
84.8242
 21
100.477
  0
LINE
  8
0
 10
84.8242
 20
100.477
 11
84.8369
 21
100.501
  0
LINE
  8
0
 10
84.8369
 20
100.501
 11
84.8643
 21
100.55
  0
LINE
  8
0
 10
84.8643
 20
100.55
 11
84.8789
 21
100.574
  0
LINE
  8
0
 10
84.8789
 20
100.574
 11
84.9082
 21
100.621
  0
LINE
  8
0
 10
84.9082
 20
100.621
 11
84.9395
 21
100.668
  0
LINE
  8
0
 10
84.9395
 20
100.668
 11
84.9893
 21
100.735
  0
LINE
  8
0
 10
84.9893
 20
100.735
 11
85.042
 21
100.8
  0
LINE
  8
0
 10
85.042
 20
100.8
 11
85.0605
 21
100.82
  0
LINE
  8
0
 10
85.0605
 20
100.82
 11
85.0801
 21
100.841
  0
LINE
  8
0
 10
85.0801
 20
100.841
 11
85.0986
 21
100.861
  0
LINE
  8
0
 10
85.0986
 20
100.861
 11
85.1182
 21
100.882
  0
LINE
  8
0
 10
85.1182
 20
100.882
 11
85.1387
 21
100.901
  0
LINE
  8
0
 10
85.1387
 20
100.901
 11
85.1592
 21
100.92
  0
LINE
  8
0
 10
85.1592
 20
100.92
 11
85.1797
 21
100.939
  0
LINE
  8
0
 10
85.1797
 20
100.939
 11
85.2002
 21
100.958
  0
LINE
  8
0
 10
85.2002
 20
100.958
 11
85.2646
 21
101.011
  0
LINE
  8
0
 10
85.2646
 20
101.011
 11
85.332
 21
101.061
  0
LINE
  8
0
 10
85.332
 20
101.061
 11
85.3789
 21
101.092
  0
LINE
  8
0
 10
85.3789
 20
101.092
 11
85.4258
 21
101.121
  0
LINE
  8
0
 10
85.4258
 20
101.121
 11
85.4502
 21
101.136
  0
LINE
  8
0
 10
85.4502
 20
101.136
 11
85.499
 21
101.163
  0
LINE
  8
0
 10
85.499
 20
101.163
 11
85.5234
 21
101.176
  0
LINE
  8
0
 10
85.5234
 20
101.176
 11
85.5488
 21
101.188
  0
LINE
  8
0
 10
85.5488
 20
101.188
 11
85.5996
 21
101.212
  0
LINE
  8
0
 10
85.5996
 20
101.212
 11
85.6504
 21
101.233
  0
LINE
  8
0
 10
85.6504
 20
101.233
 11
85.6768
 21
101.244
  0
LINE
  8
0
 10
85.6768
 20
101.244
 11
85.7031
 21
101.254
  0
LINE
  8
0
 10
85.7031
 20
101.254
 11
85.7822
 21
101.28
  0
LINE
  8
0
 10
85.7822
 20
101.28
 11
85.8086
 21
101.288
  0
LINE
  8
0
 10
85.8086
 20
101.288
 11
85.8359
 21
101.296
  0
LINE
  8
0
 10
85.8359
 20
101.296
 11
85.8633
 21
101.303
  0
LINE
  8
0
 10
85.8633
 20
101.303
 11
85.8896
 21
101.309
  0
LINE
  8
0
 10
85.8896
 20
101.309
 11
85.917
 21
101.315
  0
LINE
  8
0
 10
85.917
 20
101.315
 11
85.9443
 21
101.32
  0
LINE
  8
0
 10
85.9443
 20
101.32
 11
85.9717
 21
101.326
  0
LINE
  8
0
 10
85.9717
 20
101.326
 11
86
 21
101.33
  0
LINE
  8
0
 10
86
 20
101.33
 11
86.0547
 21
101.338
  0
LINE
  8
0
 10
86.0547
 20
101.338
 11
86.083
 21
101.341
  0
LINE
  8
0
 10
86.083
 20
101.341
 11
86.1104
 21
101.344
  0
LINE
  8
0
 10
86.1104
 20
101.344
 11
86.1387
 21
101.346
  0
LINE
  8
0
 10
86.1387
 20
101.346
 11
86.166
 21
101.348
  0
LINE
  8
0
 10
86.166
 20
101.348
 11
86.2217
 21
101.35
  0
LINE
  8
0
 10
86.2217
 20
101.35
 11
86.2783
 21
101.35
  0
LINE
  8
0
 10
86.2783
 20
101.35
 11
86.334
 21
101.348
  0
LINE
  8
0
 10
86.334
 20
101.348
 11
86.3613
 21
101.346
  0
LINE
  8
0
 10
86.3613
 20
101.346
 11
86.3896
 21
101.344
  0
LINE
  8
0
 10
86.3896
 20
101.344
 11
86.417
 21
101.341
  0
LINE
  8
0
 10
86.417
 20
101.341
 11
86.4453
 21
101.338
  0
LINE
  8
0
 10
86.4453
 20
101.338
 11
86.5
 21
101.33
  0
LINE
  8
0
 10
86.5
 20
101.33
 11
86.5283
 21
101.326
  0
LINE
  8
0
 10
86.5283
 20
101.326
 11
86.5557
 21
101.32
  0
LINE
  8
0
 10
86.5557
 20
101.32
 11
86.583
 21
101.315
  0
LINE
  8
0
 10
86.583
 20
101.315
 11
86.6104
 21
101.309
  0
LINE
  8
0
 10
86.6104
 20
101.309
 11
86.6367
 21
101.303
  0
LINE
  8
0
 10
86.6367
 20
101.303
 11
86.6641
 21
101.296
  0
LINE
  8
0
 10
86.6641
 20
101.296
 11
86.6914
 21
101.288
  0
LINE
  8
0
 10
86.6914
 20
101.288
 11
86.7178
 21
101.28
  0
LINE
  8
0
 10
86.7178
 20
101.28
 11
86.7969
 21
101.254
  0
LINE
  8
0
 10
86.7969
 20
101.254
 11
86.8232
 21
101.244
  0
LINE
  8
0
 10
86.8232
 20
101.244
 11
86.8496
 21
101.233
  0
LINE
  8
0
 10
86.8496
 20
101.233
 11
86.9004
 21
101.212
  0
LINE
  8
0
 10
86.9004
 20
101.212
 11
86.9512
 21
101.188
  0
LINE
  8
0
 10
86.9512
 20
101.188
 11
86.9766
 21
101.176
  0
LINE
  8
0
 10
86.9766
 20
101.176
 11
87.001
 21
101.163
  0
LINE
  8
0
 10
87.001
 20
101.163
 11
87.0498
 21
101.136
  0
LINE
  8
0
 10
87.0498
 20
101.136
 11
87.0742
 21
101.121
  0
LINE
  8
0
 10
87.0742
 20
101.121
 11
87.1211
 21
101.092
  0
LINE
  8
0
 10
87.1211
 20
101.092
 11
87.168
 21
101.061
  0
LINE
  8
0
 10
87.168
 20
101.061
 11
87.2354
 21
101.011
  0
LINE
  8
0
 10
87.2354
 20
101.011
 11
87.2998
 21
100.958
  0
LINE
  8
0
 10
87.2998
 20
100.958
 11
87.3203
 21
100.939
  0
LINE
  8
0
 10
87.3203
 20
100.939
 11
87.3408
 21
100.92
  0
LINE
  8
0
 10
87.3408
 20
100.92
 11
87.3613
 21
100.901
  0
LINE
  8
0
 10
87.3613
 20
100.901
 11
87.3818
 21
100.882
  0
LINE
  8
0
 10
87.3818
 20
100.882
 11
87.4014
 21
100.861
  0
LINE
  8
0
 10
87.4014
 20
100.861
 11
87.4199
 21
100.841
  0
LINE
  8
0
 10
87.4199
 20
100.841
 11
87.4395
 21
100.82
  0
LINE
  8
0
 10
87.4395
 20
100.82
 11
87.458
 21
100.8
  0
LINE
  8
0
 10
87.458
 20
100.8
 11
87.5107
 21
100.735
  0
LINE
  8
0
 10
87.5107
 20
100.735
 11
87.5605
 21
100.668
  0
LINE
  8
0
 10
87.5605
 20
100.668
 11
87.5918
 21
100.621
  0
LINE
  8
0
 10
87.5918
 20
100.621
 11
87.6211
 21
100.574
  0
LINE
  8
0
 10
87.6211
 20
100.574
 11
87.6357
 21
100.55
  0
LINE
  8
0
 10
87.6357
 20
100.55
 11
87.6631
 21
100.501
  0
LINE
  8
0
 10
87.6631
 20
100.501
 11
87.6758
 21
100.477
  0
LINE
  8
0
 10
87.6758
 20
100.477
 11
87.6885
 21
100.451
  0
LINE
  8
0
 10
87.6885
 20
100.451
 11
87.7119
 21
100.4
  0
LINE
  8
0
 10
87.7119
 20
100.4
 11
87.7334
 21
100.35
  0
LINE
  8
0
 10
87.7334
 20
100.35
 11
87.7441
 21
100.323
  0
LINE
  8
0
 10
87.7441
 20
100.323
 11
87.7539
 21
100.297
  0
LINE
  8
0
 10
87.7539
 20
100.297
 11
87.7803
 21
100.218
  0
LINE
  8
0
 10
87.7803
 20
100.218
 11
87.7881
 21
100.191
  0
LINE
  8
0
 10
87.7881
 20
100.191
 11
87.7959
 21
100.164
  0
LINE
  8
0
 10
87.7959
 20
100.164
 11
87.8027
 21
100.137
  0
LINE
  8
0
 10
87.8027
 20
100.137
 11
87.8086
 21
100.11
  0
LINE
  8
0
 10
87.8086
 20
100.11
 11
87.8154
 21
100.083
  0
LINE
  8
0
 10
87.8154
 20
100.083
 11
87.8203
 21
100.056
  0
LINE
  8
0
 10
87.8203
 20
100.056
 11
87.8262
 21
100.028
  0
LINE
  8
0
 10
87.8262
 20
100.028
 11
87.8301
 21
100
  0
LINE
  8
0
 10
87.8301
 20
100
 11
87.8379
 21
99.9453
  0
LINE
  8
0
 10
87.8379
 20
99.9453
 11
87.8408
 21
99.917
  0
LINE
  8
0
 10
87.8408
 20
99.917
 11
87.8438
 21
99.8896
  0
LINE
  8
0
 10
87.8438
 20
99.8896
 11
87.8457
 21
99.8613
  0
LINE
  8
0
 10
87.8457
 20
99.8613
 11
87.8477
 21
99.834
  0
LINE
  8
0
 10
87.8477
 20
99.834
 11
87.8496
 21
99.7783
  0
LINE
  8
0
 10
87.8496
 20
99.7783
 11
87.8496
 21
99.7217
  0
LINE
  8
0
 10
87.8496
 20
99.7217
 11
87.8477
 21
99.666
  0
LINE
  8
0
 10
87.8477
 20
99.666
 11
87.8457
 21
99.6387
  0
LINE
  8
0
 10
87.8457
 20
99.6387
 11
87.8438
 21
99.6104
  0
LINE
  8
0
 10
87.8438
 20
99.6104
 11
87.8408
 21
99.583
  0
LINE
  8
0
 10
87.8408
 20
99.583
 11
87.8379
 21
99.5547
  0
LINE
  8
0
 10
87.8379
 20
99.5547
 11
87.8301
 21
99.5
  0
LINE
  8
0
 10
87.8301
 20
99.5
 11
87.8262
 21
99.4717
  0
LINE
  8
0
 10
87.8262
 20
99.4717
 11
87.8203
 21
99.4443
  0
LINE
  8
0
 10
87.8203
 20
99.4443
 11
87.8154
 21
99.417
  0
LINE
  8
0
 10
87.8154
 20
99.417
 11
87.8086
 21
99.3896
  0
LINE
  8
0
 10
87.8086
 20
99.3896
 11
87.8027
 21
99.3633
  0
LINE
  8
0
 10
87.8027
 20
99.3633
 11
87.7959
 21
99.3359
  0
LINE
  8
0
 10
87.7959
 20
99.3359
 11
87.7881
 21
99.3086
  0
LINE
  8
0
 10
87.7881
 20
99.3086
 11
87.7803
 21
99.2822
  0
LINE
  8
0
 10
87.7803
 20
99.2822
 11
87.7539
 21
99.2031
  0
LINE
  8
0
 10
87.7539
 20
99.2031
 11
87.7441
 21
99.1768
  0
LINE
  8
0
 10
87.7441
 20
99.1768
 11
87.7334
 21
99.1504
  0
LINE
  8
0
 10
87.7334
 20
99.1504
 11
87.7119
 21
99.0996
  0
LINE
  8
0
 10
87.7119
 20
99.0996
 11
87.6885
 21
99.0488
  0
LINE
  8
0
 10
87.6885
 20
99.0488
 11
87.6758
 21
99.0234
  0
LINE
  8
0
 10
87.6758
 20
99.0234
 11
87.6631
 21
98.999
  0
LINE
  8
0
 10
87.6631
 20
98.999
 11
87.6357
 21
98.9502
  0
LINE
  8
0
 10
87.6357
 20
98.9502
 11
87.6211
 21
98.9258
  0
LINE
  8
0
 10
87.6211
 20
98.9258
 11
87.5918
 21
98.8789
  0
LINE
  8
0
 10
87.5918
 20
98.8789
 11
87.5605
 21
98.832
  0
LINE
  8
0
 10
87.5605
 20
98.832
 11
87.5107
 21
98.7646
  0
LINE
  8
0
 10
87.5107
 20
98.7646
 11
87.458
 21
98.7002
  0
LINE
  8
0
 10
87.458
 20
98.7002
 11
87.4395
 21
98.6797
  0
LINE
  8
0
 10
87.4395
 20
98.6797
 11
87.4199
 21
98.6592
  0
LINE
  8
0
 10
87.4199
 20
98.6592
 11
87.4014
 21
98.6387
  0
LINE
  8
0
 10
87.4014
 20
98.6387
 11
87.3818
 21
98.6182
  0
LINE
  8
0
 10
87.3818
 20
98.6182
 11
87.3613
 21
98.5986
  0
LINE
  8
0
 10
87.3613
 20
98.5986
 11
87.3408
 21
98.5801
  0
LINE
  8
0
 10
87.3408
 20
98.5801
 11
87.3203
 21
98.5605
  0
LINE
  8
0
 10
87.3203
 20
98.5605
 11
87.2998
 21
98.542
  0
LINE
  8
0
 10
87.2998
 20
98.542
 11
87.2354
 21
98.4893
  0
LINE
  8
0
 10
87.2354
 20
98.4893
 11
87.168
 21
98.4395
  0
LINE
  8
0
 10
87.168
 20
98.4395
 11
87.1211
 21
98.4082
  0
LINE
  8
0
 10
87.1211
 20
98.4082
 11
87.0742
 21
98.3789
  0
LINE
  8
0
 10
87.0742
 20
98.3789
 11
87.0498
 21
98.3643
  0
LINE
  8
0
 10
87.0498
 20
98.3643
 11
87.001
 21
98.3369
  0
LINE
  8
0
 10
87.001
 20
98.3369
 11
86.9766
 21
98.3242
  0
LINE
  8
0
 10
86.9766
 20
98.3242
 11
86.9512
 21
98.3115
  0
LINE
  8
0
 10
86.9512
 20
98.3115
 11
86.9004
 21
98.2881
  0
LINE
  8
0
 10
86.9004
 20
98.2881
 11
86.8496
 21
98.2666
  0
LINE
  8
0
 10
86.8496
 20
98.2666
 11
86.8232
 21
98.2559
  0
LINE
  8
0
 10
86.8232
 20
98.2559
 11
86.7969
 21
98.2461
  0
LINE
  8
0
 10
86.7969
 20
98.2461
 11
86.7178
 21
98.2197
  0
LINE
  8
0
 10
86.7178
 20
98.2197
 11
86.6914
 21
98.2119
  0
LINE
  8
0
 10
86.6914
 20
98.2119
 11
86.6641
 21
98.2041
  0
LINE
  8
0
 10
86.6641
 20
98.2041
 11
86.6367
 21
98.1973
  0
LINE
  8
0
 10
86.6367
 20
98.1973
 11
86.6104
 21
98.1914
  0
LINE
  8
0
 10
86.6104
 20
98.1914
 11
86.583
 21
98.1846
  0
LINE
  8
0
 10
86.583
 20
98.1846
 11
86.5557
 21
98.1797
  0
LINE
  8
0
 10
86.5557
 20
98.1797
 11
86.5283
 21
98.1738
  0
LINE
  8
0
 10
86.5283
 20
98.1738
 11
86.5
 21
98.1699
  0
LINE
  8
0
 10
86.5
 20
98.1699
 11
86.4453
 21
98.1621
  0
LINE
  8
0
 10
86.4453
 20
98.1621
 11
86.417
 21
98.1592
  0
LINE
  8
0
 10
86.417
 20
98.1592
 11
86.3896
 21
98.1562
  0
LINE
  8
0
 10
86.3896
 20
98.1562
 11
86.3613
 21
98.1543
  0
LINE
  8
0
 10
86.3613
 20
98.1543
 11
86.334
 21
98.1523
  0
LINE
  8
0
 10
86.334
 20
98.1523
 11
86.2783
 21
98.1504
  0
LINE
  8
0
 10
86.2783
 20
98.1504
 11
86.2217
 21
98.1504
  0
LINE
  8
0
 10
86.2217
 20
26.6504
 11
86.166
 21
26.6523
  0
LINE
  8
0
 10
86.166
 20
26.6523
 11
86.1387
 21
26.6543
  0
LINE
  8
0
 10
86.1387
 20
26.6543
 11
86.1104
 21
26.6562
  0
LINE
  8
0
 10
86.1104
 20
26.6562
 11
86.083
 21
26.6592
  0
LINE
  8
0
 10
86.083
 20
26.6592
 11
86.0547
 21
26.6621
  0
LINE
  8
0
 10
86.0547
 20
26.6621
 11
86
 21
26.6699
  0
LINE
  8
0
 10
86
 20
26.6699
 11
85.9717
 21
26.6738
  0
LINE
  8
0
 10
85.9717
 20
26.6738
 11
85.9443
 21
26.6797
  0
LINE
  8
0
 10
85.9443
 20
26.6797
 11
85.917
 21
26.6846
  0
LINE
  8
0
 10
85.917
 20
26.6846
 11
85.8896
 21
26.6914
  0
LINE
  8
0
 10
85.8896
 20
26.6914
 11
85.8633
 21
26.6973
  0
LINE
  8
0
 10
85.8633
 20
26.6973
 11
85.8359
 21
26.7041
  0
LINE
  8
0
 10
85.8359
 20
26.7041
 11
85.8086
 21
26.7119
  0
LINE
  8
0
 10
85.8086
 20
26.7119
 11
85.7822
 21
26.7197
  0
LINE
  8
0
 10
85.7822
 20
26.7197
 11
85.7031
 21
26.7461
  0
LINE
  8
0
 10
85.7031
 20
26.7461
 11
85.6768
 21
26.7559
  0
LINE
  8
0
 10
85.6768
 20
26.7559
 11
85.6504
 21
26.7666
  0
LINE
  8
0
 10
85.6504
 20
26.7666
 11
85.5996
 21
26.7881
  0
LINE
  8
0
 10
85.5996
 20
26.7881
 11
85.5488
 21
26.8115
  0
LINE
  8
0
 10
85.5488
 20
26.8115
 11
85.5234
 21
26.8242
  0
LINE
  8
0
 10
85.5234
 20
26.8242
 11
85.499
 21
26.8369
  0
LINE
  8
0
 10
85.499
 20
26.8369
 11
85.4502
 21
26.8643
  0
LINE
  8
0
 10
85.4502
 20
26.8643
 11
85.4258
 21
26.8789
  0
LINE
  8
0
 10
85.4258
 20
26.8789
 11
85.3789
 21
26.9082
  0
LINE
  8
0
 10
85.3789
 20
26.9082
 11
85.332
 21
26.9395
  0
LINE
  8
0
 10
85.332
 20
26.9395
 11
85.2646
 21
26.9893
  0
LINE
  8
0
 10
85.2646
 20
26.9893
 11
85.2002
 21
27.042
  0
LINE
  8
0
 10
85.2002
 20
27.042
 11
85.1797
 21
27.0605
  0
LINE
  8
0
 10
85.1797
 20
27.0605
 11
85.1592
 21
27.0801
  0
LINE
  8
0
 10
85.1592
 20
27.0801
 11
85.1387
 21
27.0986
  0
LINE
  8
0
 10
85.1387
 20
27.0986
 11
85.1182
 21
27.1182
  0
LINE
  8
0
 10
85.1182
 20
27.1182
 11
85.0986
 21
27.1387
  0
LINE
  8
0
 10
85.0986
 20
27.1387
 11
85.0801
 21
27.1592
  0
LINE
  8
0
 10
85.0801
 20
27.1592
 11
85.0605
 21
27.1797
  0
LINE
  8
0
 10
85.0605
 20
27.1797
 11
85.042
 21
27.2002
  0
LINE
  8
0
 10
85.042
 20
27.2002
 11
84.9893
 21
27.2646
  0
LINE
  8
0
 10
84.9893
 20
27.2646
 11
84.9395
 21
27.332
  0
LINE
  8
0
 10
84.9395
 20
27.332
 11
84.9082
 21
27.3789
  0
LINE
  8
0
 10
84.9082
 20
27.3789
 11
84.8789
 21
27.4258
  0
LINE
  8
0
 10
84.8789
 20
27.4258
 11
84.8643
 21
27.4502
  0
LINE
  8
0
 10
84.8643
 20
27.4502
 11
84.8369
 21
27.499
  0
LINE
  8
0
 10
84.8369
 20
27.499
 11
84.8242
 21
27.5234
  0
LINE
  8
0
 10
84.8242
 20
27.5234
 11
84.8115
 21
27.5488
  0
LINE
  8
0
 10
84.8115
 20
27.5488
 11
84.7881
 21
27.5996
  0
LINE
  8
0
 10
84.7881
 20
27.5996
 11
84.7666
 21
27.6504
  0
LINE
  8
0
 10
84.7666
 20
27.6504
 11
84.7559
 21
27.6768
  0
LINE
  8
0
 10
84.7559
 20
27.6768
 11
84.7461
 21
27.7031
  0
LINE
  8
0
 10
84.7461
 20
27.7031
 11
84.7197
 21
27.7822
  0
LINE
  8
0
 10
84.7197
 20
27.7822
 11
84.7119
 21
27.8086
  0
LINE
  8
0
 10
84.7119
 20
27.8086
 11
84.7041
 21
27.8359
  0
LINE
  8
0
 10
84.7041
 20
27.8359
 11
84.6973
 21
27.8633
  0
LINE
  8
0
 10
84.6973
 20
27.8633
 11
84.6914
 21
27.8896
  0
LINE
  8
0
 10
84.6914
 20
27.8896
 11
84.6846
 21
27.917
  0
LINE
  8
0
 10
84.6846
 20
27.917
 11
84.6797
 21
27.9443
  0
LINE
  8
0
 10
84.6797
 20
27.9443
 11
84.6738
 21
27.9717
  0
LINE
  8
0
 10
84.6738
 20
27.9717
 11
84.6699
 21
28
  0
LINE
  8
0
 10
84.6699
 20
28
 11
84.6621
 21
28.0547
  0
LINE
  8
0
 10
84.6621
 20
28.0547
 11
84.6592
 21
28.083
  0
LINE
  8
0
 10
84.6592
 20
28.083
 11
84.6562
 21
28.1104
  0
LINE
  8
0
 10
84.6562
 20
28.1104
 11
84.6543
 21
28.1387
  0
LINE
  8
0
 10
84.6543
 20
28.1387
 11
84.6523
 21
28.166
  0
LINE
  8
0
 10
84.6523
 20
28.166
 11
84.6504
 21
28.2217
  0
LINE
  8
0
 10
84.6504
 20
28.2217
 11
84.6504
 21
28.2783
  0
LINE
  8
0
 10
84.6504
 20
28.2783
 11
84.6523
 21
28.334
  0
LINE
  8
0
 10
84.6523
 20
28.334
 11
84.6543
 21
28.3613
  0
LINE
  8
0
 10
84.6543
 20
28.3613
 11
84.6562
 21
28.3896
  0
LINE
  8
0
 10
84.6562
 20
28.3896
 11
84.6592
 21
28.417
  0
LINE
  8
0
 10
84.6592
 20
28.417
 11
84.6621
 21
28.4453
  0
LINE
  8
0
 10
84.6621
 20
28.4453
 11
84.6699
 21
28.5
  0
LINE
  8
0
 10
84.6699
 20
28.5
 11
84.6738
 21
28.5283
  0
LINE
  8
0
 10
84.6738
 20
28.5283
 11
84.6797
 21
28.5557
  0
LINE
  8
0
 10
84.6797
 20
28.5557
 11
84.6846
 21
28.583
  0
LINE
  8
0
 10
84.6846
 20
28.583
 11
84.6914
 21
28.6104
  0
LINE
  8
0
 10
84.6914
 20
28.6104
 11
84.6973
 21
28.6367
  0
LINE
  8
0
 10
84.6973
 20
28.6367
 11
84.7041
 21
28.6641
  0
LINE
  8
0
 10
84.7041
 20
28.6641
 11
84.7119
 21
28.6914
  0
LINE
  8
0
 10
84.7119
 20
28.6914
 11
84.7197
 21
28.7178
  0
LINE
  8
0
 10
84.7197
 20
28.7178
 11
84.7461
 21
28.7969
  0
LINE
  8
0
 10
84.7461
 20
28.7969
 11
84.7559
 21
28.8232
  0
LINE
  8
0
 10
84.7559
 20
28.8232
 11
84.7666
 21
28.8496
  0
LINE
  8
0
 10
84.7666
 20
28.8496
 11
84.7881
 21
28.9004
  0
LINE
  8
0
 10
84.7881
 20
28.9004
 11
84.8115
 21
28.9512
  0
LINE
  8
0
 10
84.8115
 20
28.9512
 11
84.8242
 21
28.9766
  0
LINE
  8
0
 10
84.8242
 20
28.9766
 11
84.8369
 21
29.001
  0
LINE
  8
0
 10
84.8369
 20
29.001
 11
84.8643
 21
29.0498
  0
LINE
  8
0
 10
84.8643
 20
29.0498
 11
84.8789
 21
29.0742
  0
LINE
  8
0
 10
84.8789
 20
29.0742
 11
84.9082
 21
29.1211
  0
LINE
  8
0
 10
84.9082
 20
29.1211
 11
84.9395
 21
29.168
  0
LINE
  8
0
 10
84.9395
 20
29.168
 11
84.9893
 21
29.2354
  0
LINE
  8
0
 10
84.9893
 20
29.2354
 11
85.042
 21
29.2998
  0
LINE
  8
0
 10
85.042
 20
29.2998
 11
85.0605
 21
29.3203
  0
LINE
  8
0
 10
85.0605
 20
29.3203
 11
85.0801
 21
29.3408
  0
LINE
  8
0
 10
85.0801
 20
29.3408
 11
85.0986
 21
29.3613
  0
LINE
  8
0
 10
85.0986
 20
29.3613
 11
85.1182
 21
29.3818
  0
LINE
  8
0
 10
85.1182
 20
29.3818
 11
85.1387
 21
29.4014
  0
LINE
  8
0
 10
85.1387
 20
29.4014
 11
85.1592
 21
29.4199
  0
LINE
  8
0
 10
85.1592
 20
29.4199
 11
85.1797
 21
29.4395
  0
LINE
  8
0
 10
85.1797
 20
29.4395
 11
85.2002
 21
29.458
  0
LINE
  8
0
 10
85.2002
 20
29.458
 11
85.2646
 21
29.5107
  0
LINE
  8
0
 10
85.2646
 20
29.5107
 11
85.332
 21
29.5605
  0
LINE
  8
0
 10
85.332
 20
29.5605
 11
85.3789
 21
29.5918
  0
LINE
  8
0
 10
85.3789
 20
29.5918
 11
85.4258
 21
29.6211
  0
LINE
  8
0
 10
85.4258
 20
29.6211
 11
85.4502
 21
29.6357
  0
LINE
  8
0
 10
85.4502
 20
29.6357
 11
85.499
 21
29.6631
  0
LINE
  8
0
 10
85.499
 20
29.6631
 11
85.5234
 21
29.6758
  0
LINE
  8
0
 10
85.5234
 20
29.6758
 11
85.5488
 21
29.6885
  0
LINE
  8
0
 10
85.5488
 20
29.6885
 11
85.5996
 21
29.7119
  0
LINE
  8
0
 10
85.5996
 20
29.7119
 11
85.6504
 21
29.7334
  0
LINE
  8
0
 10
85.6504
 20
29.7334
 11
85.6768
 21
29.7441
  0
LINE
  8
0
 10
85.6768
 20
29.7441
 11
85.7031
 21
29.7539
  0
LINE
  8
0
 10
85.7031
 20
29.7539
 11
85.7822
 21
29.7803
  0
LINE
  8
0
 10
85.7822
 20
29.7803
 11
85.8086
 21
29.7881
  0
LINE
  8
0
 10
85.8086
 20
29.7881
 11
85.8359
 21
29.7959
  0
LINE
  8
0
 10
85.8359
 20
29.7959
 11
85.8633
 21
29.8027
  0
LINE
  8
0
 10
85.8633
 20
29.8027
 11
85.8896
 21
29.8086
  0
LINE
  8
0
 10
85.8896
 20
29.8086
 11
85.917
 21
29.8154
  0
LINE
  8
0
 10
85.917
 20
29.8154
 11
85.9443
 21
29.8203
  0
LINE
  8
0
 10
85.9443
 20
29.8203
 11
85.9717
 21
29.8262
  0
LINE
  8
0
 10
85.9717
 20
29.8262
 11
86
 21
29.8301
  0
LINE
  8
0
 10
86
 20
29.8301
 11
86.0547
 21
29.8379
  0
LINE
  8
0
 10
86.0547
 20
29.8379
 11
86.083
 21
29.8408
  0
LINE
  8
0
 10
86.083
 20
29.8408
 11
86.1104
 21
29.8438
  0
LINE
  8
0
 10
86.1104
 20
29.8438
 11
86.1387
 21
29.8457
  0
LINE
  8
0
 10
86.1387
 20
29.8457
 11
86.166
 21
29.8477
  0
LINE
  8
0
 10
86.166
 20
29.8477
 11
86.2217
 21
29.8496
  0
LINE
  8
0
 10
86.2217
 20
29.8496
 11
86.2783
 21
29.8496
  0
LINE
  8
0
 10
86.2783
 20
29.8496
 11
86.334
 21
29.8477
  0
LINE
  8
0
 10
86.334
 20
29.8477
 11
86.3613
 21
29.8457
  0
LINE
  8
0
 10
86.3613
 20
29.8457
 11
86.3896
 21
29.8438
  0
LINE
  8
0
 10
86.3896
 20
29.8438
 11
86.417
 21
29.8408
  0
LINE
  8
0
 10
86.417
 20
29.8408
 11
86.4453
 21
29.8379
  0
LINE
  8
0
 10
86.4453
 20
29.8379
 11
86.5
 21
29.8301
  0
LINE
  8
0
 10
86.5
 20
29.8301
 11
86.5283
 21
29.8262
  0
LINE
  8
0
 10
86.5283
 20
29.8262
 11
86.5557
 21
29.8203
  0
LINE
  8
0
 10
86.5557
 20
29.8203
 11
86.583
 21
29.8154
  0
LINE
  8
0
 10
86.583
 20
29.8154
 11
86.6104
 21
29.8086
  0
LINE
  8
0
 10
86.6104
 20
29.8086
 11
86.6367
 21
29.8027
  0
LINE
  8
0
 10
86.6367
 20
29.8027
 11
86.6641
 21
29.7959
  0
LINE
  8
0
 10
86.6641
 20
29.7959
 11
86.6914
 21
29.7881
  0
LINE
  8
0
 10
86.6914
 20
29.7881
 11
86.7178
 21
29.7803
  0
LINE
  8
0
 10
86.7178
 20
29.7803
 11
86.7969
 21
29.7539
  0
LINE
  8
0
 10
86.7969
 20
29.7539
 11
86.8232
 21
29.7441
  0
LINE
  8
0
 10
86.8232
 20
29.7441
 11
86.8496
 21
29.7334
  0
LINE
  8
0
 10
86.8496
 20
29.7334
 11
86.9004
 21
29.7119
  0
LINE
  8
0
 10
86.9004
 20
29.7119
 11
86.9512
 21
29.6885
  0
LINE
  8
0
 10
86.9512
 20
29.6885
 11
86.9766
 21
29.6758
  0
LINE
  8
0
 10
86.9766
 20
29.6758
 11
87.001
 21
29.6631
  0
LINE
  8
0
 10
87.001
 20
29.6631
 11
87.0498
 21
29.6357
  0
LINE
  8
0
 10
87.0498
 20
29.6357
 11
87.0742
 21
29.6211
  0
LINE
  8
0
 10
87.0742
 20
29.6211
 11
87.1211
 21
29.5918
  0
LINE
  8
0
 10
87.1211
 20
29.5918
 11
87.168
 21
29.5605
  0
LINE
  8
0
 10
87.168
 20
29.5605
 11
87.2354
 21
29.5107
  0
LINE
  8
0
 10
87.2354
 20
29.5107
 11
87.2998
 21
29.458
  0
LINE
  8
0
 10
87.2998
 20
29.458
 11
87.3203
 21
29.4395
  0
LINE
  8
0
 10
87.3203
 20
29.4395
 11
87.3408
 21
29.4199
  0
LINE
  8
0
 10
87.3408
 20
29.4199
 11
87.3613
 21
29.4014
  0
LINE
  8
0
 10
87.3613
 20
29.4014
 11
87.3818
 21
29.3818
  0
LINE
  8
0
 10
87.3818
 20
29.3818
 11
87.4014
 21
29.3613
  0
LINE
  8
0
 10
87.4014
 20
29.3613
 11
87.4199
 21
29.3408
  0
LINE
  8
0
 10
87.4199
 20
29.3408
 11
87.4395
 21
29.3203
  0
LINE
  8
0
 10
87.4395
 20
29.3203
 11
87.458
 21
29.2998
  0
LINE
  8
0
 10
87.458
 20
29.2998
 11
87.5107
 21
29.2354
  0
LINE
  8
0
 10
87.5107
 20
29.2354
 11
87.5605
 21
29.168
  0
LINE
  8
0
 10
87.5605
 20
29.168
 11
87.5918
 21
29.1211
  0
LINE
  8
0
 10
87.5918
 20
29.1211
 11
87.6211
 21
29.0742
  0
LINE
  8
0
 10
87.6211
 20
29.0742
 11
87.6357
 21
29.0498
  0
LINE
  8
0
 10
87.6357
 20
29.0498
 11
87.6631
 21
29.001
  0
LINE
  8
0
 10
87.6631
 20
29.001
 11
87.6758
 21
28.9766
  0
LINE
  8
0
 10
87.6758
 20
28.9766
 11
87.6885
 21
28.9512
  0
LINE
  8
0
 10
87.6885
 20
28.9512
 11
87.7119
 21
28.9004
  0
LINE
  8
0
 10
87.7119
 20
28.9004
 11
87.7334
 21
28.8496
  0
LINE
  8
0
 10
87.7334
 20
28.8496
 11
87.7441
 21
28.8232
  0
LINE
  8
0
 10
87.7441
 20
28.8232
 11
87.7539
 21
28.7969
  0
LINE
  8
0
 10
87.7539
 20
28.7969
 11
87.7803
 21
28.7178
  0
LINE
  8
0
 10
87.7803
 20
28.7178
 11
87.7881
 21
28.6914
  0
LINE
  8
0
 10
87.7881
 20
28.6914
 11
87.7959
 21
28.6641
  0
LINE
  8
0
 10
87.7959
 20
28.6641
 11
87.8027
 21
28.6367
  0
LINE
  8
0
 10
87.8027
 20
28.6367
 11
87.8086
 21
28.6104
  0
LINE
  8
0
 10
87.8086
 20
28.6104
 11
87.8154
 21
28.583
  0
LINE
  8
0
 10
87.8154
 20
28.583
 11
87.8203
 21
28.5557
  0
LINE
  8
0
 10
87.8203
 20
28.5557
 11
87.8262
 21
28.5283
  0
LINE
  8
0
 10
87.8262
 20
28.5283
 11
87.8301
 21
28.5
  0
LINE
  8
0
 10
87.8301
 20
28.5
 11
87.8379
 21
28.4453
  0
LINE
  8
0
 10
87.8379
 20
28.4453
 11
87.8408
 21
28.417
  0
LINE
  8
0
 10
87.8408
 20
28.417
 11
87.8438
 21
28.3896
  0
LINE
  8
0
 10
87.8438
 20
28.3896
 11
87.8457
 21
28.3613
  0
LINE
  8
0
 10
87.8457
 20
28.3613
 11
87.8477
 21
28.334
  0
LINE
  8
0
 10
87.8477
 20
28.334
 11
87.8496
 21
28.2783
  0
LINE
  8
0
 10
87.8496
 20
28.2783
 11
87.8496
 21
28.2217
  0
LINE
  8
0
 10
87.8496
 20
28.2217
 11
87.8477
 21
28.166
  0
LINE
  8
0
 10
87.8477
 20
28.166
 11
87.8457
 21
28.1387
  0
LINE
  8
0
 10
87.8457
 20
28.1387
 11
87.8438
 21
28.1104
  0
LINE
  8
0
 10
87.8438
 20
28.1104
 11
87.8408
 21
28.083
  0
LINE
  8
0
 10
87.8408
 20
28.083
 11
87.8379
 21
28.0547
  0
LINE
  8
0
 10
87.8379
 20
28.0547
 11
87.8301
 21
28
  0
LINE
  8
0
 10
87.8301
 20
28
 11
87.8262
 21
27.9717
  0
LINE
  8
0
 10
87.8262
 20
27.9717
 11
87.8203
 21
27.9443
  0
LINE
  8
0
 10
87.8203
 20
27.9443
 11
87.8154
 21
27.917
  0
LINE
  8
0
 10
87.8154
 20
27.917
 11
87.8086
 21
27.8896
  0
LINE
  8
0
 10
87.8086
 20
27.8896
 11
87.8027
 21
27.8633
  0
LINE
  8
0
 10
87.8027
 20
27.8633
 11
87.7959
 21
27.8359
  0
LINE
  8
0
 10
87.7959
 20
27.8359
 11
87.7881
 21
27.8086
  0
LINE
  8
0
 10
87.7881
 20
27.8086
 11
87.7803
 21
27.7822
  0
LINE
  8
0
 10
87.7803
 20
27.7822
 11
87.7539
 21
27.7031
  0
LINE
  8
0
 10
87.7539
 20
27.7031
 11
87.7441
 21
27.6768
  0
LINE
  8
0
 10
87.7441
 20
27.6768
 11
87.7334
 21
27.6504
  0
LINE
  8
0
 10
87.7334
 20
27.6504
 11
87.7119
 21
27.5996
  0
LINE
  8
0
 10
87.7119
 20
27.5996
 11
87.6885
 21
27.5488
  0
LINE
  8
0
 10
87.6885
 20
27.5488
 11
87.6758
 21
27.5234
  0
LINE
  8
0
 10
87.6758
 20
27.5234
 11
87.6631
 21
27.499
  0
LINE
  8
0
 10
87.6631
 20
27.499
 11
87.6357
 21
27.4502
  0
LINE
  8
0
 10
87.6357
 20
27.4502
 11
87.6211
 21
27.4258
  0
LINE
  8
0
 10
87.6211
 20
27.4258
 11
87.5918
 21
27.3789
  0
LINE
  8
0
 10
87.5918
 20
27.3789
 11
87.5605
 21
27.332
  0
LINE
  8
0
 10
87.5605
 20
27.332
 11
87.5107
 21
27.2646
  0
LINE
  8
0
 10
87.5107
 20
27.2646
 11
87.458
 21
27.2002
  0
LINE
  8
0
 10
87.458
 20
27.2002
 11
87.4395
 21
27.1797
  0
LINE
  8
0
 10
87.4395
 20
27.1797
 11
87.4199
 21
27.1592
  0
LINE
  8
0
 10
87.4199
 20
27.1592
 11
87.4014
 21
27.1387
  0
LINE
  8
0
 10
87.4014
 20
27.1387
 11
87.3818
 21
27.1182
  0
LINE
  8
0
 10
87.3818
 20
27.1182
 11
87.3613
 21
27.0986
  0
LINE
  8
0
 10
87.3613
 20
27.0986
 11
87.3408
 21
27.0801
  0
LINE
  8
0
 10
87.3408
 20
27.0801
 11
87.3203
 21
27.0605
  0
LINE
  8
0
 10
87.3203
 20
27.0605
 11
87.2998
 21
27.042
  0
LINE
  8
0
 10
87.2998
 20
27.042
 11
87.2354
 21
26.9893
  0
LINE
  8
0
 10
87.2354
 20
26.9893
 11
87.168
 21
26.9395
  0
LINE
  8
0
 10
87.168
 20
26.9395
 11
87.1211
 21
26.9082
  0
LINE
  8
0
 10
87.1211
 20
26.9082
 11
87.0742
 21
26.8789
  0
LINE
  8
0
 10
87.0742
 20
26.8789
 11
87.0498
 21
26.8643
  0
LINE
  8
0
 10
87.0498
 20
26.8643
 11
87.001
 21
26.8369
  0
LINE
  8
0
 10
87.001
 20
26.8369
 11
86.9766
 21
26.8242
  0
LINE
  8
0
 10
86.9766
 20
26.8242
 11
86.9512
 21
26.8115
  0
LINE
  8
0
 10
86.9512
 20
26.8115
 11
86.9004
 21
26.7881
  0
LINE
  8
0
 10
86.9004
 20
26.7881
 11
86.8496
 21
26.7666
  0
LINE
  8
0
 10
86.8496
 20
26.7666
 11
86.8232
 21
26.7559
  0
LINE
  8
0
 10
86.8232
 20
26.7559
 11
86.7969
 21
26.7461
  0
LINE
  8
0
 10
86.7969
 20
26.7461
 11
86.7178
 21
26.7197
  0
LINE
  8
0
 10
86.7178
 20
26.7197
 11
86.6914
 21
26.7119
  0
LINE
  8
0
 10
86.6914
 20
26.7119
 11
86.6641
 21
26.7041
  0
LINE
  8
0
 10
86.6641
 20
26.7041
 11
86.6367
 21
26.6973
  0
LINE
  8
0
 10
86.6367
 20
26.6973
 11
86.6104
 21
26.6914
  0
LINE
  8
0
 10
86.6104
 20
26.6914
 11
86.583
 21
26.6846
  0
LINE
  8
0
 10
86.583
 20
26.6846
 11
86.5557
 21
26.6797
  0
LINE
  8
0
 10
86.5557
 20
26.6797
 11
86.5283
 21
26.6738
  0
LINE
  8
0
 10
86.5283
 20
26.6738
 11
86.5
 21
26.6699
  0
LINE
  8
0
 10
86.5
 20
26.6699
 11
86.4453
 21
26.6621
  0
LINE
  8
0
 10
86.4453
 20
26.6621
 11
86.417
 21
26.6592
  0
LINE
  8
0
 10
86.417
 20
26.6592
 11
86.3896
 21
26.6562
  0
LINE
  8
0
 10
86.3896
 20
26.6562
 11
86.3613
 21
26.6543
  0
LINE
  8
0
 10
86.3613
 20
26.6543
 11
86.334
 21
26.6523
  0
LINE
  8
0
 10
86.334
 20
26.6523
 11
86.2783
 21
26.6504
  0
LINE
  8
0
 10
86.2783
 20
26.6504
 11
86.2217
 21
26.6504
  0
LINE
  8
0
 10
14.7217
 20
26.6504
 11
14.666
 21
26.6523
  0
LINE
  8
0
 10
14.666
 20
26.6523
 11
14.6387
 21
26.6543
  0
LINE
  8
0
 10
14.6387
 20
26.6543
 11
14.6104
 21
26.6562
  0
LINE
  8
0
 10
14.6104
 20
26.6562
 11
14.583
 21
26.6592
  0
LINE
  8
0
 10
14.583
 20
26.6592
 11
14.5547
 21
26.6621
  0
LINE
  8
0
 10
14.5547
 20
26.6621
 11
14.5
 21
26.6699
  0
LINE
  8
0
 10
14.5
 20
26.6699
 11
14.4717
 21
26.6738
  0
LINE
  8
0
 10
14.4717
 20
26.6738
 11
14.4443
 21
26.6797
  0
LINE
  8
0
 10
14.4443
 20
26.6797
 11
14.417
 21
26.6846
  0
LINE
  8
0
 10
14.417
 20
26.6846
 11
14.3896
 21
26.6914
  0
LINE
  8
0
 10
14.3896
 20
26.6914
 11
14.3633
 21
26.6973
  0
LINE
  8
0
 10
14.3633
 20
26.6973
 11
14.3359
 21
26.7041
  0
LINE
  8
0
 10
14.3359
 20
26.7041
 11
14.3086
 21
26.7119
  0
LINE
  8
0
 10
14.3086
 20
26.7119
 11
14.2822
 21
26.7197
  0
LINE
  8
0
 10
14.2822
 20
26.7197
 11
14.2031
 21
26.7461
  0
LINE
  8
0
 10
14.2031
 20
26.7461
 11
14.1768
 21
26.7559
  0
LINE
  8
0
 10
14.1768
 20
26.7559
 11
14.1504
 21
26.7666
  0
LINE
  8
0
 10
14.1504
 20
26.7666
 11
14.0996
 21
26.7881
  0
LINE
  8
0
 10
14.0996
 20
26.7881
 11
14.0488
 21
26.8115
  0
LINE
  8
0
 10
14.0488
 20
26.8115
 11
14.0234
 21
26.8242
  0
LINE
  8
0
 10
14.0234
 20
26.8242
 11
13.999
 21
26.8369
  0
LINE
  8
0
 10
13.999
 20
26.8369
 11
13.9502
 21
26.8643
  0
LINE
  8
0
 10
13.9502
 20
26.8643
 11
13.9258
 21
26.8789
  0
LINE
  8
0
 10
13.9258
 20
26.8789
 11
13.8789
 21
26.9082
  0
LINE
  8
0
 10
13.8789
 20
26.9082
 11
13.832
 21
26.9395
  0
LINE
  8
0
 10
13.832
 20
26.9395
 11
13.7646
 21
26.9893
  0
LINE
  8
0
 10
13.7646
 20
26.9893
 11
13.7002
 21
27.042
  0
LINE
  8
0
 10
13.7002
 20
27.042
 11
13.6797
 21
27.0605
  0
LINE
  8
0
 10
13.6797
 20
27.0605
 11
13.6592
 21
27.0801
  0
LINE
  8
0
 10
13.6592
 20
27.0801
 11
13.6387
 21
27.0986
  0
LINE
  8
0
 10
13.6387
 20
27.0986
 11
13.6182
 21
27.1182
  0
LINE
  8
0
 10
13.6182
 20
27.1182
 11
13.5986
 21
27.1387
  0
LINE
  8
0
 10
13.5986
 20
27.1387
 11
13.5801
 21
27.1592
  0
LINE
  8
0
 10
13.5801
 20
27.1592
 11
13.5605
 21
27.1797
  0
LINE
  8
0
 10
13.5605
 20
27.1797
 11
13.542
 21
27.2002
  0
LINE
  8
0
 10
13.542
 20
27.2002
 11
13.4893
 21
27.2646
  0
LINE
  8
0
 10
13.4893
 20
27.2646
 11
13.4395
 21
27.332
  0
LINE
  8
0
 10
13.4395
 20
27.332
 11
13.4082
 21
27.3789
  0
LINE
  8
0
 10
13.4082
 20
27.3789
 11
13.3789
 21
27.4258
  0
LINE
  8
0
 10
13.3789
 20
27.4258
 11
13.3643
 21
27.4502
  0
LINE
  8
0
 10
13.3643
 20
27.4502
 11
13.3369
 21
27.499
  0
LINE
  8
0
 10
13.3369
 20
27.499
 11
13.3242
 21
27.5234
  0
LINE
  8
0
 10
13.3242
 20
27.5234
 11
13.3115
 21
27.5488
  0
LINE
  8
0
 10
13.3115
 20
27.5488
 11
13.2881
 21
27.5996
  0
LINE
  8
0
 10
13.2881
 20
27.5996
 11
13.2666
 21
27.6504
  0
LINE
  8
0
 10
13.2666
 20
27.6504
 11
13.2559
 21
27.6768
  0
LINE
  8
0
 10
13.2559
 20
27.6768
 11
13.2461
 21
27.7031
  0
LINE
  8
0
 10
13.2461
 20
27.7031
 11
13.2197
 21
27.7822
  0
LINE
  8
0
 10
13.2197
 20
27.7822
 11
13.2119
 21
27.8086
  0
LINE
  8
0
 10
13.2119
 20
27.8086
 11
13.2041
 21
27.8359
  0
LINE
  8
0
 10
13.2041
 20
27.8359
 11
13.1973
 21
27.8633
  0
LINE
  8
0
 10
13.1973
 20
27.8633
 11
13.1914
 21
27.8896
  0
LINE
  8
0
 10
13.1914
 20
27.8896
 11
13.1846
 21
27.917
  0
LINE
  8
0
 10
13.1846
 20
27.917
 11
13.1797
 21
27.9443
  0
LINE
  8
0
 10
13.1797
 20
27.9443
 11
13.1738
 21
27.9717
  0
LINE
  8
0
 10
13.1738
 20
27.9717
 11
13.1699
 21
28
  0
LINE
  8
0
 10
13.1699
 20
28
 11
13.1621
 21
28.0547
  0
LINE
  8
0
 10
13.1621
 20
28.0547
 11
13.1592
 21
28.083
  0
LINE
  8
0
 10
13.1592
 20
28.083
 11
13.1562
 21
28.1104
  0
LINE
  8
0
 10
13.1562
 20
28.1104
 11
13.1543
 21
28.1387
  0
LINE
  8
0
 10
13.1543
 20
28.1387
 11
13.1523
 21
28.166
  0
LINE
  8
0
 10
13.1523
 20
28.166
 11
13.1504
 21
28.2217
  0
LINE
  8
0
 10
13.1504
 20
28.2217
 11
13.1504
 21
28.2783
  0
LINE
  8
0
 10
13.1504
 20
28.2783
 11
13.1523
 21
28.334
  0
LINE
  8
0
 10
13.1523
 20
28.334
 11
13.1543
 21
28.3613
  0
LINE
  8
0
 10
13.1543
 20
28.3613
 11
13.1562
 21
28.3896
  0
LINE
  8
0
 10
13.1562
 20
28.3896
 11
13.1592
 21
28.417
  0
LINE
  8
0
 10
13.1592
 20
28.417
 11
13.1621
 21
28.4453
  0
LINE
  8
0
 10
13.1621
 20
28.4453
 11
13.1699
 21
28.5
  0
LINE
  8
0
 10
13.1699
 20
28.5
 11
13.1738
 21
28.5283
  0
LINE
  8
0
 10
13.1738
 20
28.5283
 11
13.1797
 21
28.5557
  0
LINE
  8
0
 10
13.1797
 20
28.5557
 11
13.1846
 21
28.583
  0
LINE
  8
0
 10
13.1846
 20
28.583
 11
13.1914
 21
28.6104
  0
LINE
  8
0
 10
13.1914
 20
28.6104
 11
13.1973
 21
28.6367
  0
LINE
  8
0
 10
13.1973
 20
28.6367
 11
13.2041
 21
28.6641
  0
LINE
  8
0
 10
13.2041
 20
28.6641
 11
13.2119
 21
28.6914
  0
LINE
  8
0
 10
13.2119
 20
28.6914
 11
13.2197
 21
28.7178
  0
LINE
  8
0
 10
13.2197
 20
28.7178
 11
13.2461
 21
28.7969
  0
LINE
  8
0
 10
13.2461
 20
28.7969
 11
13.2559
 21
28.8232
  0
LINE
  8
0
 10
13.2559
 20
28.8232
 11
13.2666
 21
28.8496
  0
LINE
  8
0
 10
13.2666
 20
28.8496
 11
13.2881
 21
28.9004
  0
LINE
  8
0
 10
13.2881
 20
28.9004
 11
13.3115
 21
28.9512
  0
LINE
  8
0
 10
13.3115
 20
28.9512
 11
13.3242
 21
28.9766
  0
LINE
  8
0
 10
13.3242
 20
28.9766
 11
13.3369
 21
29.001
  0
LINE
  8
0
 10
13.3369
 20
29.001
 11
13.3643
 21
29.0498
  0
LINE
  8
0
 10
13.3643
 20
29.0498
 11
13.3789
 21
29.0742
  0
LINE
  8
0
 10
13.3789
 20
29.0742
 11
13.4082
 21
29.1211
  0
LINE
  8
0
 10
13.4082
 20
29.1211
 11
13.4395
 21
29.168
  0
LINE
  8
0
 10
13.4395
 20
29.168
 11
13.4893
 21
29.2354
  0
LINE
  8
0
 10
13.4893
 20
29.2354
 11
13.542
 21
29.2998
  0
LINE
  8
0
 10
13.542
 20
29.2998
 11
13.5605
 21
29.3203
  0
LINE
  8
0
 10
13.5605
 20
29.3203
 11
13.5801
 21
29.3408
  0
LINE
  8
0
 10
13.5801
 20
29.3408
 11
13.5986
 21
29.3613
  0
LINE
  8
0
 10
13.5986
 20
29.3613
 11
13.6182
 21
29.3818
  0
LINE
  8
0
 10
13.6182
 20
29.3818
 11
13.6387
 21
29.4014
  0
LINE
  8
0
 10
13.6387
 20
29.4014
 11
13.6592
 21
29.4199
  0
LINE
  8
0
 10
13.6592
 20
29.4199
 11
13.6797
 21
29.4395
  0
LINE
  8
0
 10
13.6797
 20
29.4395
 11
13.7002
 21
29.458
  0
LINE
  8
0
 10
13.7002
 20
29.458
 11
13.7646
 21
29.5107
  0
LINE
  8
0
 10
13.7646
 20
29.5107
 11
13.832
 21
29.5605
  0
LINE
  8
0
 10
13.832
 20
29.5605
 11
13.8789
 21
29.5918
  0
LINE
  8
0
 10
13.8789
 20
29.5918
 11
13.9258
 21
29.6211
  0
LINE
  8
0
 10
13.9258
 20
29.6211
 11
13.9502
 21
29.6357
  0
LINE
  8
0
 10
13.9502
 20
29.6357
 11
13.999
 21
29.6631
  0
LINE
  8
0
 10
13.999
 20
29.6631
 11
14.0234
 21
29.6758
  0
LINE
  8
0
 10
14.0234
 20
29.6758
 11
14.0488
 21
29.6885
  0
LINE
  8
0
 10
14.0488
 20
29.6885
 11
14.0996
 21
29.7119
  0
LINE
  8
0
 10
14.0996
 20
29.7119
 11
14.1504
 21
29.7334
  0
LINE
  8
0
 10
14.1504
 20
29.7334
 11
14.1768
 21
29.7441
  0
LINE
  8
0
 10
14.1768
 20
29.7441
 11
14.2031
 21
29.7539
  0
LINE
  8
0
 10
14.2031
 20
29.7539
 11
14.2822
 21
29.7803
  0
LINE
  8
0
 10
14.2822
 20
29.7803
 11
14.3086
 21
29.7881
  0
LINE
  8
0
 10
14.3086
 20
29.7881
 11
14.3359
 21
29.7959
  0
LINE
  8
0
 10
14.3359
 20
29.7959
 11
14.3633
 21
29.8027
  0
LINE
  8
0
 10
14.3633
 20
29.8027
 11
14.3896
 21
29.8086
  0
LINE
  8
0
 10
14.3896
 20
29.8086
 11
14.417
 21
29.8154
  0
LINE
  8
0
 10
14.417
 20
29.8154
 11
14.4443
 21
29.8203
  0
LINE
  8
0
 10
14.4443
 20
29.8203
 11
14.4717
 21
29.8262
  0
LINE
  8
0
 10
14.4717
 20
29.8262
 11
14.5
 21
29.8301
  0
LINE
  8
0
 10
14.5
 20
29.8301
 11
14.5547
 21
29.8379
  0
LINE
  8
0
 10
14.5547
 20
29.8379
 11
14.583
 21
29.8408
  0
LINE
  8
0
 10
14.583
 20
29.8408
 11
14.6104
 21
29.8438
  0
LINE
  8
0
 10
14.6104
 20
29.8438
 11
14.6387
 21
29.8457
  0
LINE
  8
0
 10
14.6387
 20
29.8457
 11
14.666
 21
29.8477
  0
LINE
  8
0
 10
14.666
 20
29.8477
 11
14.7217
 21
29.8496
  0
LINE
  8
0
 10
14.7217
 20
29.8496
 11
14.7783
 21
29.8496
  0
LINE
  8
0
 10
14.7783
 20
29.8496
 11
14.834
 21
29.8477
  0
LINE
  8
0
 10
14.834
 20
29.8477
 11
14.8613
 21
29.8457
  0
LINE
  8
0
 10
14.8613
 20
29.8457
 11
14.8896
 21
29.8438
  0
LINE
  8
0
 10
14.8896
 20
29.8438
 11
14.917
 21
29.8408
  0
LINE
  8
0
 10
14.917
 20
29.8408
 11
14.9453
 21
29.8379
  0
LINE
  8
0
 10
14.9453
 20
29.8379
 11
15
 21
29.8301
  0
LINE
  8
0
 10
15
 20
29.8301
 11
15.0283
 21
29.8262
  0
LINE
  8
0
 10
15.0283
 20
29.8262
 11
15.0557
 21
29.8203
  0
LINE
  8
0
 10
15.0557
 20
29.8203
 11
15.083
 21
29.8154
  0
LINE
  8
0
 10
15.083
 20
29.8154
 11
15.1104
 21
29.8086
  0
LINE
  8
0
 10
15.1104
 20
29.8086
 11
15.1367
 21
29.8027
  0
LINE
  8
0
 10
15.1367
 20
29.8027
 11
15.1641
 21
29.7959
  0
LINE
  8
0
 10
15.1641
 20
29.7959
 11
15.1914
 21
29.7881
  0
LINE
  8
0
 10
15.1914
 20
29.7881
 11
15.2178
 21
29.7803
  0
LINE
  8
0
 10
15.2178
 20
29.7803
 11
15.2969
 21
29.7539
  0
LINE
  8
0
 10
15.2969
 20
29.7539
 11
15.3232
 21
29.7441
  0
LINE
  8
0
 10
15.3232
 20
29.7441
 11
15.3496
 21
29.7334
  0
LINE
  8
0
 10
15.3496
 20
29.7334
 11
15.4004
 21
29.7119
  0
LINE
  8
0
 10
15.4004
 20
29.7119
 11
15.4512
 21
29.6885
  0
LINE
  8
0
 10
15.4512
 20
29.6885
 11
15.4766
 21
29.6758
  0
LINE
  8
0
 10
15.4766
 20
29.6758
 11
15.501
 21
29.6631
  0
LINE
  8
0
 10
15.501
 20
29.6631
 11
15.5498
 21
29.6357
  0
LINE
  8
0
 10
15.5498
 20
29.6357
 11
15.5742
 21
29.6211
  0
LINE
  8
0
 10
15.5742
 20
29.6211
 11
15.6211
 21
29.5918
  0
LINE
  8
0
 10
15.6211
 20
29.5918
 11
15.668
 21
29.5605
  0
LINE
  8
0
 10
15.668
 20
29.5605
 11
15.7354
 21
29.5107
  0
LINE
  8
0
 10
15.7354
 20
29.5107
 11
15.7998
 21
29.458
  0
LINE
  8
0
 10
15.7998
 20
29.458
 11
15.8203
 21
29.4395
  0
LINE
  8
0
 10
15.8203
 20
29.4395
 11
15.8408
 21
29.4199
  0
LINE
  8
0
 10
15.8408
 20
29.4199
 11
15.8613
 21
29.4014
  0
LINE
  8
0
 10
15.8613
 20
29.4014
 11
15.8818
 21
29.3818
  0
LINE
  8
0
 10
15.8818
 20
29.3818
 11
15.9014
 21
29.3613
  0
LINE
  8
0
 10
15.9014
 20
29.3613
 11
15.9199
 21
29.3408
  0
LINE
  8
0
 10
15.9199
 20
29.3408
 11
15.9395
 21
29.3203
  0
LINE
  8
0
 10
15.9395
 20
29.3203
 11
15.958
 21
29.2998
  0
LINE
  8
0
 10
15.958
 20
29.2998
 11
16.0107
 21
29.2354
  0
LINE
  8
0
 10
16.0107
 20
29.2354
 11
16.0605
 21
29.168
  0
LINE
  8
0
 10
16.0605
 20
29.168
 11
16.0918
 21
29.1211
  0
LINE
  8
0
 10
16.0918
 20
29.1211
 11
16.1211
 21
29.0742
  0
LINE
  8
0
 10
16.1211
 20
29.0742
 11
16.1357
 21
29.0498
  0
LINE
  8
0
 10
16.1357
 20
29.0498
 11
16.1631
 21
29.001
  0
LINE
  8
0
 10
16.1631
 20
29.001
 11
16.1758
 21
28.9766
  0
LINE
  8
0
 10
16.1758
 20
28.9766
 11
16.1885
 21
28.9512
  0
LINE
  8
0
 10
16.1885
 20
28.9512
 11
16.2119
 21
28.9004
  0
LINE
  8
0
 10
16.2119
 20
28.9004
 11
16.2334
 21
28.8496
  0
LINE
  8
0
 10
16.2334
 20
28.8496
 11
16.2441
 21
28.8232
  0
LINE
  8
0
 10
16.2441
 20
28.8232
 11
16.2539
 21
28.7969
  0
LINE
  8
0
 10
16.2539
 20
28.7969
 11
16.2803
 21
28.7178
  0
LINE
  8
0
 10
16.2803
 20
28.7178
 11
16.2881
 21
28.6914
  0
LINE
  8
0
 10
16.2881
 20
28.6914
 11
16.2959
 21
28.6641
  0
LINE
  8
0
 10
16.2959
 20
28.6641
 11
16.3027
 21
28.6367
  0
LINE
  8
0
 10
16.3027
 20
28.6367
 11
16.3086
 21
28.6104
  0
LINE
  8
0
 10
16.3086
 20
28.6104
 11
16.3154
 21
28.583
  0
LINE
  8
0
 10
16.3154
 20
28.583
 11
16.3203
 21
28.5557
  0
LINE
  8
0
 10
16.3203
 20
28.5557
 11
16.3262
 21
28.5283
  0
LINE
  8
0
 10
16.3262
 20
28.5283
 11
16.3301
 21
28.5
  0
LINE
  8
0
 10
16.3301
 20
28.5
 11
16.3379
 21
28.4453
  0
LINE
  8
0
 10
16.3379
 20
28.4453
 11
16.3408
 21
28.417
  0
LINE
  8
0
 10
16.3408
 20
28.417
 11
16.3438
 21
28.3896
  0
LINE
  8
0
 10
16.3438
 20
28.3896
 11
16.3457
 21
28.3613
  0
LINE
  8
0
 10
16.3457
 20
28.3613
 11
16.3477
 21
28.334
  0
LINE
  8
0
 10
16.3477
 20
28.334
 11
16.3496
 21
28.2783
  0
LINE
  8
0
 10
16.3496
 20
28.2783
 11
16.3496
 21
28.2217
  0
LINE
  8
0
 10
16.3496
 20
28.2217
 11
16.3477
 21
28.166
  0
LINE
  8
0
 10
16.3477
 20
28.166
 11
16.3457
 21
28.1387
  0
LINE
  8
0
 10
16.3457
 20
28.1387
 11
16.3438
 21
28.1104
  0
LINE
  8
0
 10
16.3438
 20
28.1104
 11
16.3408
 21
28.083
  0
LINE
  8
0
 10
16.3408
 20
28.083
 11
16.3379
 21
28.0547
  0
LINE
  8
0
 10
16.3379
 20
28.0547
 11
16.3301
 21
28
  0
LINE
  8
0
 10
16.3301
 20
28
 11
16.3262
 21
27.9717
  0
LINE
  8
0
 10
16.3262
 20
27.9717
 11
16.3203
 21
27.9443
  0
LINE
  8
0
 10
16.3203
 20
27.9443
 11
16.3154
 21
27.917
  0
LINE
  8
0
 10
16.3154
 20
27.917
 11
16.3086
 21
27.8896
  0
LINE
  8
0
 10
16.3086
 20
27.8896
 11
16.3027
 21
27.8633
  0
LINE
  8
0
 10
16.3027
 20
27.8633
 11
16.2959
 21
27.8359
  0
LINE
  8
0
 10
16.2959
 20
27.8359
 11
16.2881
 21
27.8086
  0
LINE
  8
0
 10
16.2881
 20
27.8086
 11
16.2803
 21
27.7822
  0
LINE
  8
0
 10
16.2803
 20
27.7822
 11
16.2539
 21
27.7031
  0
LINE
  8
0
 10
16.2539
 20
27.7031
 11
16.2441
 21
27.6768
  0
LINE
  8
0
 10
16.2441
 20
27.6768
 11
16.2334
 21
27.6504
  0
LINE
  8
0
 10
16.2334
 20
27.6504
 11
16.2119
 21
27.5996
  0
LINE
  8
0
 10
16.2119
 20
27.5996
 11
16.1885
 21
27.5488
  0
LINE
  8
0
 10
16.1885
 20
27.5488
 11
16.1758
 21
27.5234
  0
LINE
  8
0
 10
16.1758
 20
27.5234
 11
16.1631
 21
27.499
  0
LINE
  8
0
 10
16.1631
 20
27.499
 11
16.1357
 21
27.4502
  0
LINE
  8
0
 10
16.1357
 20
27.4502
 11
16.1211
 21
27.4258
  0
LINE
  8
0
 10
16.1211
 20
27.4258
 11
16.0918
 21
27.3789
  0
LINE
  8
0
 10
16.0918
 20
27.3789
 11
16.0605
 21
27.332
  0
LINE
  8
0
 10
16.0605
 20
27.332
 11
16.0107
 21
27.2646
  0
LINE
  8
0
 10
16.0107
 20
27.2646
 11
15.958
 21
27.2002
  0
LINE
  8
0
 10
15.958
 20
27.2002
 11
15.9395
 21
27.1797
  0
LINE
  8
0
 10
15.9395
 20
27.1797
 11
15.9199
 21
27.1592
  0
LINE
  8
0
 10
15.9199
 20
27.1592
 11
15.9014
 21
27.1387
  0
LINE
  8
0
 10
15.9014
 20
27.1387
 11
15.8818
 21
27.1182
  0
LINE
  8
0
 10
15.8818
 20
27.1182
 11
15.8613
 21
27.0986
  0
LINE
  8
0
 10
15.8613
 20
27.0986
 11
15.8408
 21
27.0801
  0
LINE
  8
0
 10
15.8408
 20
27.0801
 11
15.8203
 21
27.0605
  0
LINE
  8
0
 10
15.8203
 20
27.0605
 11
15.7998
 21
27.042
  0
LINE
  8
0
 10
15.7998
 20
27.042
 11
15.7354
 21
26.9893
  0
LINE
  8
0
 10
15.7354
 20
26.9893
 11
15.668
 21
26.9395
  0
LINE
  8
0
 10
15.668
 20
26.9395
 11
15.6211
 21
26.9082
  0
LINE
  8
0
 10
15.6211
 20
26.9082
 11
15.5742
 21
26.8789
  0
LINE
  8
0
 10
15.5742
 20
26.8789
 11
15.5498
 21
26.8643
  0
LINE
  8
0
 10
15.5498
 20
26.8643
 11
15.501
 21
26.8369
  0
LINE
  8
0
 10
15.501
 20
26.8369
 11
15.4766
 21
26.8242
  0
LINE
  8
0
 10
15.4766
 20
26.8242
 11
15.4512
 21
26.8115
  0
LINE
  8
0
 10
15.4512
 20
26.8115
 11
15.4004
 21
26.7881
  0
LINE
  8
0
 10
15.4004
 20
26.7881
 11
15.3496
 21
26.7666
  0
LINE
  8
0
 10
15.3496
 20
26.7666
 11
15.3232
 21
26.7559
  0
LINE
  8
0
 10
15.3232
 20
26.7559
 11
15.2969
 21
26.7461
  0
LINE
  8
0
 10
15.2969
 20
26.7461
 11
15.2178
 21
26.7197
  0
LINE
  8
0
 10
15.2178
 20
26.7197
 11
15.1914
 21
26.7119
  0
LINE
  8
0
 10
15.1914
 20
26.7119
 11
15.1641
 21
26.7041
  0
LINE
  8
0
 10
15.1641
 20
26.7041
 11
15.1367
 21
26.6973
  0
LINE
  8
0
 10
15.1367
 20
26.6973
 11
15.1104
 21
26.6914
  0
LINE
  8
0
 10
15.1104
 20
26.6914
 11
15.083
 21
26.6846
  0
LINE
  8
0
 10
15.083
 20
26.6846
 11
15.0557
 21
26.6797
  0
LINE
  8
0
 10
15.0557
 20
26.6797
 11
15.0283
 21
26.6738
  0
LINE
  8
0
 10
15.0283
 20
26.6738
 11
15
 21
26.6699
  0
LINE
  8
0
 10
15
 20
26.6699
 11
14.9453
 21
26.6621
  0
LINE
  8
0
 10
14.9453
 20
26.6621
 11
14.917
 21
26.6592
  0
LINE
  8
0
 10
14.917
 20
26.6592
 11
14.8896
 21
26.6562
  0
LINE
  8
0
 10
14.8896
 20
26.6562
 11
14.8613
 21
26.6543
  0
LINE
  8
0
 10
14.8613
 20
26.6543
 11
14.834
 21
26.6523
  0
LINE
  8
0
 10
14.834
 20
26.6523
 11
14.7783
 21
26.6504
  0
LINE
  8
0
 10
14.7783
 20
26.6504
 11
14.7217
 21
26.6504
  0
ENDSEC
  0
SECTION
  2
OBJECTS
  0
DICTIONARY
  0
ENDSEC
  0
EOF
