  0
SECTION
  2
BLOCKS
  0
ENDSEC
  0
SECTION
  2
ENTITIES
  0
LINE
  8
0
 10
100.95
 20
30
 11
103.018
 21
30
  0
LINE
  8
0
 10
103.018
 20
30
 11
103.035
 21
30.001
  0
LINE
  8
0
 10
103.035
 20
30.001
 11
103.053
 21
30.001
  0
LINE
  8
0
 10
103.053
 20
30.001
 11
103.069
 21
30.002
  0
LINE
  8
0
 10
103.069
 20
30.002
 11
103.14
 21
30.0098
  0
LINE
  8
0
 10
103.14
 20
30.0098
 11
103.156
 21
30.0127
  0
LINE
  8
0
 10
103.156
 20
30.0127
 11
103.174
 21
30.0156
  0
LINE
  8
0
 10
103.174
 20
30.0156
 11
103.19
 21
30.0186
  0
LINE
  8
0
 10
103.19
 20
30.0186
 11
103.208
 21
30.0215
  0
LINE
  8
0
 10
103.208
 20
30.0215
 11
103.225
 21
30.0254
  0
LINE
  8
0
 10
103.225
 20
30.0254
 11
103.242
 21
30.0293
  0
LINE
  8
0
 10
103.242
 20
30.0293
 11
103.309
 21
30.0488
  0
LINE
  8
0
 10
103.309
 20
30.0488
 11
103.358
 21
30.0664
  0
LINE
  8
0
 10
103.358
 20
30.0664
 11
103.375
 21
30.0732
  0
LINE
  8
0
 10
103.375
 20
30.0732
 11
103.391
 21
30.0791
  0
LINE
  8
0
 10
103.391
 20
30.0791
 11
103.406
 21
30.0869
  0
LINE
  8
0
 10
103.406
 20
30.0869
 11
103.423
 21
30.0938
  0
LINE
  8
0
 10
103.423
 20
30.0938
 11
103.47
 21
30.1172
  0
LINE
  8
0
 10
103.47
 20
30.1172
 11
103.484
 21
30.125
  0
LINE
  8
0
 10
103.484
 20
30.125
 11
103.5
 21
30.1338
  0
LINE
  8
0
 10
103.5
 20
30.1338
 11
103.515
 21
30.1426
  0
LINE
  8
0
 10
103.515
 20
30.1426
 11
103.53
 21
30.1523
  0
LINE
  8
0
 10
103.53
 20
30.1523
 11
103.545
 21
30.1611
  0
LINE
  8
0
 10
103.545
 20
30.1611
 11
103.56
 21
30.1709
  0
LINE
  8
0
 10
103.56
 20
30.1709
 11
103.573
 21
30.1807
  0
LINE
  8
0
 10
103.573
 20
30.1807
 11
103.588
 21
30.1914
  0
LINE
  8
0
 10
103.588
 20
30.1914
 11
103.602
 21
30.2012
  0
LINE
  8
0
 10
103.602
 20
30.2012
 11
103.629
 21
30.2227
  0
LINE
  8
0
 10
103.629
 20
30.2227
 11
103.643
 21
30.2344
  0
LINE
  8
0
 10
103.643
 20
30.2344
 11
103.656
 21
30.2451
  0
LINE
  8
0
 10
103.656
 20
30.2451
 11
103.694
 21
30.2803
  0
LINE
  8
0
 10
103.694
 20
30.2803
 11
103.72
 21
30.3057
  0
LINE
  8
0
 10
103.72
 20
30.3057
 11
103.755
 21
30.3438
  0
LINE
  8
0
 10
103.755
 20
30.3438
 11
103.766
 21
30.3574
  0
LINE
  8
0
 10
103.766
 20
30.3574
 11
103.777
 21
30.3711
  0
LINE
  8
0
 10
103.777
 20
30.3711
 11
103.799
 21
30.3984
  0
LINE
  8
0
 10
103.799
 20
30.3984
 11
103.809
 21
30.4121
  0
LINE
  8
0
 10
103.809
 20
30.4121
 11
103.819
 21
30.4268
  0
LINE
  8
0
 10
103.819
 20
30.4268
 11
103.829
 21
30.4404
  0
LINE
  8
0
 10
103.829
 20
30.4404
 11
103.839
 21
30.4551
  0
LINE
  8
0
 10
103.839
 20
30.4551
 11
103.848
 21
30.4697
  0
LINE
  8
0
 10
103.848
 20
30.4697
 11
103.857
 21
30.4854
  0
LINE
  8
0
 10
103.857
 20
30.4854
 11
103.866
 21
30.5
  0
LINE
  8
0
 10
103.866
 20
30.5
 11
103.875
 21
30.5156
  0
LINE
  8
0
 10
103.875
 20
30.5156
 11
103.883
 21
30.5303
  0
LINE
  8
0
 10
103.883
 20
30.5303
 11
103.906
 21
30.5771
  0
LINE
  8
0
 10
103.906
 20
30.5771
 11
103.913
 21
30.5938
  0
LINE
  8
0
 10
103.913
 20
30.5938
 11
103.921
 21
30.6094
  0
LINE
  8
0
 10
103.921
 20
30.6094
 11
103.927
 21
30.625
  0
LINE
  8
0
 10
103.927
 20
30.625
 11
103.934
 21
30.6416
  0
LINE
  8
0
 10
103.934
 20
30.6416
 11
103.951
 21
30.6914
  0
LINE
  8
0
 10
103.951
 20
30.6914
 11
103.971
 21
30.7578
  0
LINE
  8
0
 10
103.971
 20
30.7578
 11
103.975
 21
30.7754
  0
LINE
  8
0
 10
103.975
 20
30.7754
 11
103.979
 21
30.792
  0
LINE
  8
0
 10
103.979
 20
30.792
 11
103.981
 21
30.8096
  0
LINE
  8
0
 10
103.981
 20
30.8096
 11
103.984
 21
30.8262
  0
LINE
  8
0
 10
103.984
 20
30.8262
 11
103.987
 21
30.8438
  0
LINE
  8
0
 10
103.987
 20
30.8438
 11
103.99
 21
30.8604
  0
LINE
  8
0
 10
103.99
 20
30.8604
 11
103.998
 21
30.9307
  0
LINE
  8
0
 10
103.998
 20
30.9307
 11
103.999
 21
30.9473
  0
LINE
  8
0
 10
103.999
 20
30.9473
 11
103.999
 21
30.9648
  0
LINE
  8
0
 10
103.999
 20
30.9648
 11
104
 21
30.9824
  0
LINE
  8
0
 10
104
 20
30.9824
 11
104
 21
39.0176
  0
LINE
  8
0
 10
104
 20
39.0176
 11
103.999
 21
39.0352
  0
LINE
  8
0
 10
103.999
 20
39.0352
 11
103.999
 21
39.0527
  0
LINE
  8
0
 10
103.999
 20
39.0527
 11
103.998
 21
39.0693
  0
LINE
  8
0
 10
103.998
 20
39.0693
 11
103.99
 21
39.1396
  0
LINE
  8
0
 10
103.99
 20
39.1396
 11
103.987
 21
39.1562
  0
LINE
  8
0
 10
103.987
 20
39.1562
 11
103.984
 21
39.1738
  0
LINE
  8
0
 10
103.984
 20
39.1738
 11
103.981
 21
39.1904
  0
LINE
  8
0
 10
103.981
 20
39.1904
 11
103.979
 21
39.208
  0
LINE
  8
0
 10
103.979
 20
39.208
 11
103.975
 21
39.2246
  0
LINE
  8
0
 10
103.975
 20
39.2246
 11
103.971
 21
39.2422
  0
LINE
  8
0
 10
103.971
 20
39.2422
 11
103.951
 21
39.3086
  0
LINE
  8
0
 10
103.951
 20
39.3086
 11
103.934
 21
39.3584
  0
LINE
  8
0
 10
103.934
 20
39.3584
 11
103.927
 21
39.375
  0
LINE
  8
0
 10
103.927
 20
39.375
 11
103.921
 21
39.3906
  0
LINE
  8
0
 10
103.921
 20
39.3906
 11
103.913
 21
39.4062
  0
LINE
  8
0
 10
103.913
 20
39.4062
 11
103.906
 21
39.4229
  0
LINE
  8
0
 10
103.906
 20
39.4229
 11
103.883
 21
39.4697
  0
LINE
  8
0
 10
103.883
 20
39.4697
 11
103.875
 21
39.4844
  0
LINE
  8
0
 10
103.875
 20
39.4844
 11
103.866
 21
39.5
  0
LINE
  8
0
 10
103.866
 20
39.5
 11
103.857
 21
39.5146
  0
LINE
  8
0
 10
103.857
 20
39.5146
 11
103.848
 21
39.5303
  0
LINE
  8
0
 10
103.848
 20
39.5303
 11
103.839
 21
39.5449
  0
LINE
  8
0
 10
103.839
 20
39.5449
 11
103.829
 21
39.5596
  0
LINE
  8
0
 10
103.829
 20
39.5596
 11
103.819
 21
39.5732
  0
LINE
  8
0
 10
103.819
 20
39.5732
 11
103.809
 21
39.5879
  0
LINE
  8
0
 10
103.809
 20
39.5879
 11
103.799
 21
39.6016
  0
LINE
  8
0
 10
103.799
 20
39.6016
 11
103.777
 21
39.6289
  0
LINE
  8
0
 10
103.777
 20
39.6289
 11
103.766
 21
39.6426
  0
LINE
  8
0
 10
103.766
 20
39.6426
 11
103.755
 21
39.6562
  0
LINE
  8
0
 10
103.755
 20
39.6562
 11
103.72
 21
39.6943
  0
LINE
  8
0
 10
103.72
 20
39.6943
 11
103.694
 21
39.7197
  0
LINE
  8
0
 10
103.694
 20
39.7197
 11
103.656
 21
39.7549
  0
LINE
  8
0
 10
103.656
 20
39.7549
 11
103.643
 21
39.7656
  0
LINE
  8
0
 10
103.643
 20
39.7656
 11
103.629
 21
39.7773
  0
LINE
  8
0
 10
103.629
 20
39.7773
 11
103.602
 21
39.7988
  0
LINE
  8
0
 10
103.602
 20
39.7988
 11
103.588
 21
39.8086
  0
LINE
  8
0
 10
103.588
 20
39.8086
 11
103.573
 21
39.8193
  0
LINE
  8
0
 10
103.573
 20
39.8193
 11
103.56
 21
39.8291
  0
LINE
  8
0
 10
103.56
 20
39.8291
 11
103.545
 21
39.8389
  0
LINE
  8
0
 10
103.545
 20
39.8389
 11
103.53
 21
39.8477
  0
LINE
  8
0
 10
103.53
 20
39.8477
 11
103.515
 21
39.8574
  0
LINE
  8
0
 10
103.515
 20
39.8574
 11
103.5
 21
39.8662
  0
LINE
  8
0
 10
103.5
 20
39.8662
 11
103.484
 21
39.875
  0
LINE
  8
0
 10
103.484
 20
39.875
 11
103.47
 21
39.8828
  0
LINE
  8
0
 10
103.47
 20
39.8828
 11
103.423
 21
39.9062
  0
LINE
  8
0
 10
103.423
 20
39.9062
 11
103.406
 21
39.9131
  0
LINE
  8
0
 10
103.406
 20
39.9131
 11
103.391
 21
39.9209
  0
LINE
  8
0
 10
103.391
 20
39.9209
 11
103.375
 21
39.9268
  0
LINE
  8
0
 10
103.375
 20
39.9268
 11
103.358
 21
39.9336
  0
LINE
  8
0
 10
103.358
 20
39.9336
 11
103.309
 21
39.9512
  0
LINE
  8
0
 10
103.309
 20
39.9512
 11
103.242
 21
39.9707
  0
LINE
  8
0
 10
103.242
 20
39.9707
 11
103.225
 21
39.9746
  0
LINE
  8
0
 10
103.225
 20
39.9746
 11
103.208
 21
39.9785
  0
LINE
  8
0
 10
103.208
 20
39.9785
 11
103.19
 21
39.9814
  0
LINE
  8
0
 10
103.19
 20
39.9814
 11
103.174
 21
39.9844
  0
LINE
  8
0
 10
103.174
 20
39.9844
 11
103.156
 21
39.9873
  0
LINE
  8
0
 10
103.156
 20
39.9873
 11
103.14
 21
39.9902
  0
LINE
  8
0
 10
103.14
 20
39.9902
 11
103.069
 21
39.998
  0
LINE
  8
0
 10
103.069
 20
39.998
 11
103.053
 21
39.999
  0
LINE
  8
0
 10
103.053
 20
39.999
 11
103.035
 21
39.999
  0
LINE
  8
0
 10
103.035
 20
39.999
 11
103.018
 21
40
  0
LINE
  8
0
 10
103.018
 20
40
 11
100.95
 21
40
  0
LINE
  8
0
 10
100.95
 20
40
 11
100.95
 21
100
  0
LINE
  8
0
 10
100.95
 20
100
 11
103.018
 21
100
  0
LINE
  8
0
 10
103.018
 20
100
 11
103.035
 21
100.001
  0
LINE
  8
0
 10
103.035
 20
100.001
 11
103.053
 21
100.001
  0
LINE
  8
0
 10
103.053
 20
100.001
 11
103.069
 21
100.002
  0
LINE
  8
0
 10
103.069
 20
100.002
 11
103.14
 21
100.01
  0
LINE
  8
0
 10
103.14
 20
100.01
 11
103.156
 21
100.013
  0
LINE
  8
0
 10
103.156
 20
100.013
 11
103.174
 21
100.016
  0
LINE
  8
0
 10
103.174
 20
100.016
 11
103.19
 21
100.019
  0
LINE
  8
0
 10
103.19
 20
100.019
 11
103.208
 21
100.021
  0
LINE
  8
0
 10
103.208
 20
100.021
 11
103.225
 21
100.025
  0
LINE
  8
0
 10
103.225
 20
100.025
 11
103.242
 21
100.029
  0
LINE
  8
0
 10
103.242
 20
100.029
 11
103.309
 21
100.049
  0
LINE
  8
0
 10
103.309
 20
100.049
 11
103.358
 21
100.066
  0
LINE
  8
0
 10
103.358
 20
100.066
 11
103.375
 21
100.073
  0
LINE
  8
0
 10
103.375
 20
100.073
 11
103.391
 21
100.079
  0
LINE
  8
0
 10
103.391
 20
100.079
 11
103.406
 21
100.087
  0
LINE
  8
0
 10
103.406
 20
100.087
 11
103.423
 21
100.094
  0
LINE
  8
0
 10
103.423
 20
100.094
 11
103.47
 21
100.117
  0
LINE
  8
0
 10
103.47
 20
100.117
 11
103.484
 21
100.125
  0
LINE
  8
0
 10
103.484
 20
100.125
 11
103.5
 21
100.134
  0
LINE
  8
0
 10
103.5
 20
100.134
 11
103.515
 21
100.143
  0
LINE
  8
0
 10
103.515
 20
100.143
 11
103.53
 21
100.152
  0
LINE
  8
0
 10
103.53
 20
100.152
 11
103.545
 21
100.161
  0
LINE
  8
0
 10
103.545
 20
100.161
 11
103.56
 21
100.171
  0
LINE
  8
0
 10
103.56
 20
100.171
 11
103.573
 21
100.181
  0
LINE
  8
0
 10
103.573
 20
100.181
 11
103.588
 21
100.191
  0
LINE
  8
0
 10
103.588
 20
100.191
 11
103.602
 21
100.201
  0
LINE
  8
0
 10
103.602
 20
100.201
 11
103.629
 21
100.223
  0
LINE
  8
0
 10
103.629
 20
100.223
 11
103.643
 21
100.234
  0
LINE
  8
0
 10
103.643
 20
100.234
 11
103.656
 21
100.245
  0
LINE
  8
0
 10
103.656
 20
100.245
 11
103.694
 21
100.28
  0
LINE
  8
0
 10
103.694
 20
100.28
 11
103.72
 21
100.306
  0
LINE
  8
0
 10
103.72
 20
100.306
 11
103.755
 21
100.344
  0
LINE
  8
0
 10
103.755
 20
100.344
 11
103.766
 21
100.357
  0
LINE
  8
0
 10
103.766
 20
100.357
 11
103.777
 21
100.371
  0
LINE
  8
0
 10
103.777
 20
100.371
 11
103.799
 21
100.398
  0
LINE
  8
0
 10
103.799
 20
100.398
 11
103.809
 21
100.412
  0
LINE
  8
0
 10
103.809
 20
100.412
 11
103.819
 21
100.427
  0
LINE
  8
0
 10
103.819
 20
100.427
 11
103.829
 21
100.44
  0
LINE
  8
0
 10
103.829
 20
100.44
 11
103.839
 21
100.455
  0
LINE
  8
0
 10
103.839
 20
100.455
 11
103.848
 21
100.47
  0
LINE
  8
0
 10
103.848
 20
100.47
 11
103.857
 21
100.485
  0
LINE
  8
0
 10
103.857
 20
100.485
 11
103.866
 21
100.5
  0
LINE
  8
0
 10
103.866
 20
100.5
 11
103.875
 21
100.516
  0
LINE
  8
0
 10
103.875
 20
100.516
 11
103.883
 21
100.53
  0
LINE
  8
0
 10
103.883
 20
100.53
 11
103.906
 21
100.577
  0
LINE
  8
0
 10
103.906
 20
100.577
 11
103.913
 21
100.594
  0
LINE
  8
0
 10
103.913
 20
100.594
 11
103.921
 21
100.609
  0
LINE
  8
0
 10
103.921
 20
100.609
 11
103.927
 21
100.625
  0
LINE
  8
0
 10
103.927
 20
100.625
 11
103.934
 21
100.642
  0
LINE
  8
0
 10
103.934
 20
100.642
 11
103.951
 21
100.691
  0
LINE
  8
0
 10
103.951
 20
100.691
 11
103.971
 21
100.758
  0
LINE
  8
0
 10
103.971
 20
100.758
 11
103.975
 21
100.775
  0
LINE
  8
0
 10
103.975
 20
100.775
 11
103.979
 21
100.792
  0
LINE
  8
0
 10
103.979
 20
100.792
 11
103.981
 21
100.81
  0
LINE
  8
0
 10
103.981
 20
100.81
 11
103.984
 21
100.826
  0
LINE
  8
0
 10
103.984
 20
100.826
 11
103.987
 21
100.844
  0
LINE
  8
0
 10
103.987
 20
100.844
 11
103.99
 21
100.86
  0
LINE
  8
0
 10
103.99
 20
100.86
 11
103.998
 21
100.931
  0
LINE
  8
0
 10
103.998
 20
100.931
 11
103.999
 21
100.947
  0
LINE
  8
0
 10
103.999
 20
100.947
 11
103.999
 21
100.965
  0
LINE
  8
0
 10
103.999
 20
100.965
 11
104
 21
100.982
  0
LINE
  8
0
 10
104
 20
100.982
 11
104
 21
109.018
  0
LINE
  8
0
 10
104
 20
109.018
 11
103.999
 21
109.035
  0
LINE
  8
0
 10
103.999
 20
109.035
 11
103.999
 21
109.053
  0
LINE
  8
0
 10
103.999
 20
109.053
 11
103.998
 21
109.069
  0
LINE
  8
0
 10
103.998
 20
109.069
 11
103.99
 21
109.14
  0
LINE
  8
0
 10
103.99
 20
109.14
 11
103.987
 21
109.156
  0
LINE
  8
0
 10
103.987
 20
109.156
 11
103.984
 21
109.174
  0
LINE
  8
0
 10
103.984
 20
109.174
 11
103.981
 21
109.19
  0
LINE
  8
0
 10
103.981
 20
109.19
 11
103.979
 21
109.208
  0
LINE
  8
0
 10
103.979
 20
109.208
 11
103.975
 21
109.225
  0
LINE
  8
0
 10
103.975
 20
109.225
 11
103.971
 21
109.242
  0
LINE
  8
0
 10
103.971
 20
109.242
 11
103.951
 21
109.309
  0
LINE
  8
0
 10
103.951
 20
109.309
 11
103.934
 21
109.358
  0
LINE
  8
0
 10
103.934
 20
109.358
 11
103.927
 21
109.375
  0
LINE
  8
0
 10
103.927
 20
109.375
 11
103.921
 21
109.391
  0
LINE
  8
0
 10
103.921
 20
109.391
 11
103.913
 21
109.406
  0
LINE
  8
0
 10
103.913
 20
109.406
 11
103.906
 21
109.423
  0
LINE
  8
0
 10
103.906
 20
109.423
 11
103.883
 21
109.47
  0
LINE
  8
0
 10
103.883
 20
109.47
 11
103.875
 21
109.484
  0
LINE
  8
0
 10
103.875
 20
109.484
 11
103.866
 21
109.5
  0
LINE
  8
0
 10
103.866
 20
109.5
 11
103.857
 21
109.515
  0
LINE
  8
0
 10
103.857
 20
109.515
 11
103.848
 21
109.53
  0
LINE
  8
0
 10
103.848
 20
109.53
 11
103.839
 21
109.545
  0
LINE
  8
0
 10
103.839
 20
109.545
 11
103.829
 21
109.56
  0
LINE
  8
0
 10
103.829
 20
109.56
 11
103.819
 21
109.573
  0
LINE
  8
0
 10
103.819
 20
109.573
 11
103.809
 21
109.588
  0
LINE
  8
0
 10
103.809
 20
109.588
 11
103.799
 21
109.602
  0
LINE
  8
0
 10
103.799
 20
109.602
 11
103.777
 21
109.629
  0
LINE
  8
0
 10
103.777
 20
109.629
 11
103.766
 21
109.643
  0
LINE
  8
0
 10
103.766
 20
109.643
 11
103.755
 21
109.656
  0
LINE
  8
0
 10
103.755
 20
109.656
 11
103.72
 21
109.694
  0
LINE
  8
0
 10
103.72
 20
109.694
 11
103.694
 21
109.72
  0
LINE
  8
0
 10
103.694
 20
109.72
 11
103.656
 21
109.755
  0
LINE
  8
0
 10
103.656
 20
109.755
 11
103.643
 21
109.766
  0
LINE
  8
0
 10
103.643
 20
109.766
 11
103.629
 21
109.777
  0
LINE
  8
0
 10
103.629
 20
109.777
 11
103.602
 21
109.799
  0
LINE
  8
0
 10
103.602
 20
109.799
 11
103.588
 21
109.809
  0
LINE
  8
0
 10
103.588
 20
109.809
 11
103.573
 21
109.819
  0
LINE
  8
0
 10
103.573
 20
109.819
 11
103.56
 21
109.829
  0
LINE
  8
0
 10
103.56
 20
109.829
 11
103.545
 21
109.839
  0
LINE
  8
0
 10
103.545
 20
109.839
 11
103.53
 21
109.848
  0
LINE
  8
0
 10
103.53
 20
109.848
 11
103.515
 21
109.857
  0
LINE
  8
0
 10
103.515
 20
109.857
 11
103.5
 21
109.866
  0
LINE
  8
0
 10
103.5
 20
109.866
 11
103.484
 21
109.875
  0
LINE
  8
0
 10
103.484
 20
109.875
 11
103.47
 21
109.883
  0
LINE
  8
0
 10
103.47
 20
109.883
 11
103.423
 21
109.906
  0
LINE
  8
0
 10
103.423
 20
109.906
 11
103.406
 21
109.913
  0
LINE
  8
0
 10
103.406
 20
109.913
 11
103.391
 21
109.921
  0
LINE
  8
0
 10
103.391
 20
109.921
 11
103.375
 21
109.927
  0
LINE
  8
0
 10
103.375
 20
109.927
 11
103.358
 21
109.934
  0
LINE
  8
0
 10
103.358
 20
109.934
 11
103.309
 21
109.951
  0
LINE
  8
0
 10
103.309
 20
109.951
 11
103.242
 21
109.971
  0
LINE
  8
0
 10
103.242
 20
109.971
 11
103.225
 21
109.975
  0
LINE
  8
0
 10
103.225
 20
109.975
 11
103.208
 21
109.979
  0
LINE
  8
0
 10
103.208
 20
109.979
 11
103.19
 21
109.981
  0
LINE
  8
0
 10
103.19
 20
109.981
 11
103.174
 21
109.984
  0
LINE
  8
0
 10
103.174
 20
109.984
 11
103.156
 21
109.987
  0
LINE
  8
0
 10
103.156
 20
109.987
 11
103.14
 21
109.99
  0
LINE
  8
0
 10
103.14
 20
109.99
 11
103.069
 21
109.998
  0
LINE
  8
0
 10
103.069
 20
109.998
 11
103.053
 21
109.999
  0
LINE
  8
0
 10
103.053
 20
109.999
 11
103.035
 21
109.999
  0
LINE
  8
0
 10
103.035
 20
109.999
 11
103.018
 21
110
  0
LINE
  8
0
 10
103.018
 20
110
 11
80.5996
 21
110
  0
LINE
  8
0
 10
80.5996
 20
110
 11
80.5996
 21
80
  0
LINE
  8
0
 10
80.5996
 20
80
 11
50.5996
 21
80
  0
LINE
  8
0
 10
50.5996
 20
80
 11
50.5996
 21
110
  0
LINE
  8
0
 10
50.5996
 20
110
 11
-2.01758
 21
110
  0
LINE
  8
0
 10
-2.01758
 20
110
 11
-2.03516
 21
109.999
  0
LINE
  8
0
 10
-2.03516
 20
109.999
 11
-2.05273
 21
109.999
  0
LINE
  8
0
 10
-2.05273
 20
109.999
 11
-2.06934
 21
109.998
  0
LINE
  8
0
 10
-2.06934
 20
109.998
 11
-2.13965
 21
109.99
  0
LINE
  8
0
 10
-2.13965
 20
109.99
 11
-2.15625
 21
109.987
  0
LINE
  8
0
 10
-2.15625
 20
109.987
 11
-2.17383
 21
109.984
  0
LINE
  8
0
 10
-2.17383
 20
109.984
 11
-2.19043
 21
109.981
  0
LINE
  8
0
 10
-2.19043
 20
109.981
 11
-2.20801
 21
109.979
  0
LINE
  8
0
 10
-2.20801
 20
109.979
 11
-2.22461
 21
109.975
  0
LINE
  8
0
 10
-2.22461
 20
109.975
 11
-2.24219
 21
109.971
  0
LINE
  8
0
 10
-2.24219
 20
109.971
 11
-2.30859
 21
109.951
  0
LINE
  8
0
 10
-2.30859
 20
109.951
 11
-2.3584
 21
109.934
  0
LINE
  8
0
 10
-2.3584
 20
109.934
 11
-2.375
 21
109.927
  0
LINE
  8
0
 10
-2.375
 20
109.927
 11
-2.39062
 21
109.921
  0
LINE
  8
0
 10
-2.39062
 20
109.921
 11
-2.40625
 21
109.913
  0
LINE
  8
0
 10
-2.40625
 20
109.913
 11
-2.42285
 21
109.906
  0
LINE
  8
0
 10
-2.42285
 20
109.906
 11
-2.46973
 21
109.883
  0
LINE
  8
0
 10
-2.46973
 20
109.883
 11
-2.48438
 21
109.875
  0
LINE
  8
0
 10
-2.48438
 20
109.875
 11
-2.5
 21
109.866
  0
LINE
  8
0
 10
-2.5
 20
109.866
 11
-2.51465
 21
109.857
  0
LINE
  8
0
 10
-2.51465
 20
109.857
 11
-2.53027
 21
109.848
  0
LINE
  8
0
 10
-2.53027
 20
109.848
 11
-2.54492
 21
109.839
  0
LINE
  8
0
 10
-2.54492
 20
109.839
 11
-2.55957
 21
109.829
  0
LINE
  8
0
 10
-2.55957
 20
109.829
 11
-2.57324
 21
109.819
  0
LINE
  8
0
 10
-2.57324
 20
109.819
 11
-2.58789
 21
109.809
  0
LINE
  8
0
 10
-2.58789
 20
109.809
 11
-2.60156
 21
109.799
  0
LINE
  8
0
 10
-2.60156
 20
109.799
 11
-2.62891
 21
109.777
  0
LINE
  8
0
 10
-2.62891
 20
109.777
 11
-2.64258
 21
109.766
  0
LINE
  8
0
 10
-2.64258
 20
109.766
 11
-2.65625
 21
109.755
  0
LINE
  8
0
 10
-2.65625
 20
109.755
 11
-2.69434
 21
109.72
  0
LINE
  8
0
 10
-2.69434
 20
109.72
 11
-2.71973
 21
109.694
  0
LINE
  8
0
 10
-2.71973
 20
109.694
 11
-2.75488
 21
109.656
  0
LINE
  8
0
 10
-2.75488
 20
109.656
 11
-2.76562
 21
109.643
  0
LINE
  8
0
 10
-2.76562
 20
109.643
 11
-2.77734
 21
109.629
  0
LINE
  8
0
 10
-2.77734
 20
109.629
 11
-2.79883
 21
109.602
  0
LINE
  8
0
 10
-2.79883
 20
109.602
 11
-2.80859
 21
109.588
  0
LINE
  8
0
 10
-2.80859
 20
109.588
 11
-2.81934
 21
109.573
  0
LINE
  8
0
 10
-2.81934
 20
109.573
 11
-2.8291
 21
109.56
  0
LINE
  8
0
 10
-2.8291
 20
109.56
 11
-2.83887
 21
109.545
  0
LINE
  8
0
 10
-2.83887
 20
109.545
 11
-2.84766
 21
109.53
  0
LINE
  8
0
 10
-2.84766
 20
109.53
 11
-2.85742
 21
109.515
  0
LINE
  8
0
 10
-2.85742
 20
109.515
 11
-2.86621
 21
109.5
  0
LINE
  8
0
 10
-2.86621
 20
109.5
 11
-2.875
 21
109.484
  0
LINE
  8
0
 10
-2.875
 20
109.484
 11
-2.88281
 21
109.47
  0
LINE
  8
0
 10
-2.88281
 20
109.47
 11
-2.90625
 21
109.423
  0
LINE
  8
0
 10
-2.90625
 20
109.423
 11
-2.91309
 21
109.406
  0
LINE
  8
0
 10
-2.91309
 20
109.406
 11
-2.9209
 21
109.391
  0
LINE
  8
0
 10
-2.9209
 20
109.391
 11
-2.92676
 21
109.375
  0
LINE
  8
0
 10
-2.92676
 20
109.375
 11
-2.93359
 21
109.358
  0
LINE
  8
0
 10
-2.93359
 20
109.358
 11
-2.95117
 21
109.309
  0
LINE
  8
0
 10
-2.95117
 20
109.309
 11
-2.9707
 21
109.242
  0
LINE
  8
0
 10
-2.9707
 20
109.242
 11
-2.97461
 21
109.225
  0
LINE
  8
0
 10
-2.97461
 20
109.225
 11
-2.97852
 21
109.208
  0
LINE
  8
0
 10
-2.97852
 20
109.208
 11
-2.98145
 21
109.19
  0
LINE
  8
0
 10
-2.98145
 20
109.19
 11
-2.98438
 21
109.174
  0
LINE
  8
0
 10
-2.98438
 20
109.174
 11
-2.9873
 21
109.156
  0
LINE
  8
0
 10
-2.9873
 20
109.156
 11
-2.99023
 21
109.14
  0
LINE
  8
0
 10
-2.99023
 20
109.14
 11
-2.99805
 21
109.069
  0
LINE
  8
0
 10
-2.99805
 20
109.069
 11
-2.99902
 21
109.053
  0
LINE
  8
0
 10
-2.99902
 20
109.053
 11
-2.99902
 21
109.035
  0
LINE
  8
0
 10
-2.99902
 20
109.035
 11
-3
 21
109.018
  0
LINE
  8
0
 10
-3
 20
109.018
 11
-3
 21
100.982
  0
LINE
  8
0
 10
-3
 20
100.982
 11
-2.99902
 21
100.965
  0
LINE
  8
0
 10
-2.99902
 20
100.965
 11
-2.99902
 21
100.947
  0
LINE
  8
0
 10
-2.99902
 20
100.947
 11
-2.99805
 21
100.931
  0
LINE
  8
0
 10
-2.99805
 20
100.931
 11
-2.99023
 21
100.86
  0
LINE
  8
0
 10
-2.99023
 20
100.86
 11
-2.9873
 21
100.844
  0
LINE
  8
0
 10
-2.9873
 20
100.844
 11
-2.98438
 21
100.826
  0
LINE
  8
0
 10
-2.98438
 20
100.826
 11
-2.98145
 21
100.81
  0
LINE
  8
0
 10
-2.98145
 20
100.81
 11
-2.97852
 21
100.792
  0
LINE
  8
0
 10
-2.97852
 20
100.792
 11
-2.97461
 21
100.775
  0
LINE
  8
0
 10
-2.97461
 20
100.775
 11
-2.9707
 21
100.758
  0
LINE
  8
0
 10
-2.9707
 20
100.758
 11
-2.95117
 21
100.691
  0
LINE
  8
0
 10
-2.95117
 20
100.691
 11
-2.93359
 21
100.642
  0
LINE
  8
0
 10
-2.93359
 20
100.642
 11
-2.92676
 21
100.625
  0
LINE
  8
0
 10
-2.92676
 20
100.625
 11
-2.9209
 21
100.609
  0
LINE
  8
0
 10
-2.9209
 20
100.609
 11
-2.91309
 21
100.594
  0
LINE
  8
0
 10
-2.91309
 20
100.594
 11
-2.90625
 21
100.577
  0
LINE
  8
0
 10
-2.90625
 20
100.577
 11
-2.88281
 21
100.53
  0
LINE
  8
0
 10
-2.88281
 20
100.53
 11
-2.875
 21
100.516
  0
LINE
  8
0
 10
-2.875
 20
100.516
 11
-2.86621
 21
100.5
  0
LINE
  8
0
 10
-2.86621
 20
100.5
 11
-2.85742
 21
100.485
  0
LINE
  8
0
 10
-2.85742
 20
100.485
 11
-2.84766
 21
100.47
  0
LINE
  8
0
 10
-2.84766
 20
100.47
 11
-2.83887
 21
100.455
  0
LINE
  8
0
 10
-2.83887
 20
100.455
 11
-2.8291
 21
100.44
  0
LINE
  8
0
 10
-2.8291
 20
100.44
 11
-2.81934
 21
100.427
  0
LINE
  8
0
 10
-2.81934
 20
100.427
 11
-2.80859
 21
100.412
  0
LINE
  8
0
 10
-2.80859
 20
100.412
 11
-2.79883
 21
100.398
  0
LINE
  8
0
 10
-2.79883
 20
100.398
 11
-2.77734
 21
100.371
  0
LINE
  8
0
 10
-2.77734
 20
100.371
 11
-2.76562
 21
100.357
  0
LINE
  8
0
 10
-2.76562
 20
100.357
 11
-2.75488
 21
100.344
  0
LINE
  8
0
 10
-2.75488
 20
100.344
 11
-2.71973
 21
100.306
  0
LINE
  8
0
 10
-2.71973
 20
100.306
 11
-2.69434
 21
100.28
  0
LINE
  8
0
 10
-2.69434
 20
100.28
 11
-2.65625
 21
100.245
  0
LINE
  8
0
 10
-2.65625
 20
100.245
 11
-2.64258
 21
100.234
  0
LINE
  8
0
 10
-2.64258
 20
100.234
 11
-2.62891
 21
100.223
  0
LINE
  8
0
 10
-2.62891
 20
100.223
 11
-2.60156
 21
100.201
  0
LINE
  8
0
 10
-2.60156
 20
100.201
 11
-2.58789
 21
100.191
  0
LINE
  8
0
 10
-2.58789
 20
100.191
 11
-2.57324
 21
100.181
  0
LINE
  8
0
 10
-2.57324
 20
100.181
 11
-2.55957
 21
100.171
  0
LINE
  8
0
 10
-2.55957
 20
100.171
 11
-2.54492
 21
100.161
  0
LINE
  8
0
 10
-2.54492
 20
100.161
 11
-2.53027
 21
100.152
  0
LINE
  8
0
 10
-2.53027
 20
100.152
 11
-2.51465
 21
100.143
  0
LINE
  8
0
 10
-2.51465
 20
100.143
 11
-2.5
 21
100.134
  0
LINE
  8
0
 10
-2.5
 20
100.134
 11
-2.48438
 21
100.125
  0
LINE
  8
0
 10
-2.48438
 20
100.125
 11
-2.46973
 21
100.117
  0
LINE
  8
0
 10
-2.46973
 20
100.117
 11
-2.42285
 21
100.094
  0
LINE
  8
0
 10
-2.42285
 20
100.094
 11
-2.40625
 21
100.087
  0
LINE
  8
0
 10
-2.40625
 20
100.087
 11
-2.39062
 21
100.079
  0
LINE
  8
0
 10
-2.39062
 20
100.079
 11
-2.375
 21
100.073
  0
LINE
  8
0
 10
-2.375
 20
100.073
 11
-2.3584
 21
100.066
  0
LINE
  8
0
 10
-2.3584
 20
100.066
 11
-2.30859
 21
100.049
  0
LINE
  8
0
 10
-2.30859
 20
100.049
 11
-2.24219
 21
100.029
  0
LINE
  8
0
 10
-2.24219
 20
100.029
 11
-2.22461
 21
100.025
  0
LINE
  8
0
 10
-2.22461
 20
100.025
 11
-2.20801
 21
100.021
  0
LINE
  8
0
 10
-2.20801
 20
100.021
 11
-2.19043
 21
100.019
  0
LINE
  8
0
 10
-2.19043
 20
100.019
 11
-2.17383
 21
100.016
  0
LINE
  8
0
 10
-2.17383
 20
100.016
 11
-2.15625
 21
100.013
  0
LINE
  8
0
 10
-2.15625
 20
100.013
 11
-2.13965
 21
100.01
  0
LINE
  8
0
 10
-2.13965
 20
100.01
 11
-2.06934
 21
100.002
  0
LINE
  8
0
 10
-2.06934
 20
100.002
 11
-2.05273
 21
100.001
  0
LINE
  8
0
 10
-2.05273
 20
100.001
 11
-2.03516
 21
100.001
  0
LINE
  8
0
 10
-2.03516
 20
100.001
 11
-2.01758
 21
100
  0
LINE
  8
0
 10
-2.01758
 20
100
 11
0
 21
100
  0
LINE
  8
0
 10
0
 20
100
 11
0
 21
72.2832
  0
LINE
  8
0
 10
0
 20
72.2832
 11
3
 21
72.2832
  0
LINE
  8
0
 10
3
 20
72.2832
 11
3
 21
62.2832
  0
LINE
  8
0
 10
3
 20
62.2832
 11
0
 21
62.2832
  0
LINE
  8
0
 10
0
 20
62.2832
 11
0
 21
40
  0
LINE
  8
0
 10
0
 20
40
 11
-2.01758
 21
40
  0
LINE
  8
0
 10
-2.01758
 20
40
 11
-2.03516
 21
39.999
  0
LINE
  8
0
 10
-2.03516
 20
39.999
 11
-2.05273
 21
39.999
  0
LINE
  8
0
 10
-2.05273
 20
39.999
 11
-2.06934
 21
39.998
  0
LINE
  8
0
 10
-2.06934
 20
39.998
 11
-2.13965
 21
39.9902
  0
LINE
  8
0
 10
-2.13965
 20
39.9902
 11
-2.15625
 21
39.9873
  0
LINE
  8
0
 10
-2.15625
 20
39.9873
 11
-2.17383
 21
39.9844
  0
LINE
  8
0
 10
-2.17383
 20
39.9844
 11
-2.19043
 21
39.9814
  0
LINE
  8
0
 10
-2.19043
 20
39.9814
 11
-2.20801
 21
39.9785
  0
LINE
  8
0
 10
-2.20801
 20
39.9785
 11
-2.22461
 21
39.9746
  0
LINE
  8
0
 10
-2.22461
 20
39.9746
 11
-2.24219
 21
39.9707
  0
LINE
  8
0
 10
-2.24219
 20
39.9707
 11
-2.30859
 21
39.9512
  0
LINE
  8
0
 10
-2.30859
 20
39.9512
 11
-2.3584
 21
39.9336
  0
LINE
  8
0
 10
-2.3584
 20
39.9336
 11
-2.375
 21
39.9268
  0
LINE
  8
0
 10
-2.375
 20
39.9268
 11
-2.39062
 21
39.9209
  0
LINE
  8
0
 10
-2.39062
 20
39.9209
 11
-2.40625
 21
39.9131
  0
LINE
  8
0
 10
-2.40625
 20
39.9131
 11
-2.42285
 21
39.9062
  0
LINE
  8
0
 10
-2.42285
 20
39.9062
 11
-2.46973
 21
39.8828
  0
LINE
  8
0
 10
-2.46973
 20
39.8828
 11
-2.48438
 21
39.875
  0
LINE
  8
0
 10
-2.48438
 20
39.875
 11
-2.5
 21
39.8662
  0
LINE
  8
0
 10
-2.5
 20
39.8662
 11
-2.51465
 21
39.8574
  0
LINE
  8
0
 10
-2.51465
 20
39.8574
 11
-2.53027
 21
39.8477
  0
LINE
  8
0
 10
-2.53027
 20
39.8477
 11
-2.54492
 21
39.8389
  0
LINE
  8
0
 10
-2.54492
 20
39.8389
 11
-2.55957
 21
39.8291
  0
LINE
  8
0
 10
-2.55957
 20
39.8291
 11
-2.57324
 21
39.8193
  0
LINE
  8
0
 10
-2.57324
 20
39.8193
 11
-2.58789
 21
39.8086
  0
LINE
  8
0
 10
-2.58789
 20
39.8086
 11
-2.60156
 21
39.7988
  0
LINE
  8
0
 10
-2.60156
 20
39.7988
 11
-2.62891
 21
39.7773
  0
LINE
  8
0
 10
-2.62891
 20
39.7773
 11
-2.64258
 21
39.7656
  0
LINE
  8
0
 10
-2.64258
 20
39.7656
 11
-2.65625
 21
39.7549
  0
LINE
  8
0
 10
-2.65625
 20
39.7549
 11
-2.69434
 21
39.7197
  0
LINE
  8
0
 10
-2.69434
 20
39.7197
 11
-2.71973
 21
39.6943
  0
LINE
  8
0
 10
-2.71973
 20
39.6943
 11
-2.75488
 21
39.6562
  0
LINE
  8
0
 10
-2.75488
 20
39.6562
 11
-2.76562
 21
39.6426
  0
LINE
  8
0
 10
-2.76562
 20
39.6426
 11
-2.77734
 21
39.6289
  0
LINE
  8
0
 10
-2.77734
 20
39.6289
 11
-2.79883
 21
39.6016
  0
LINE
  8
0
 10
-2.79883
 20
39.6016
 11
-2.80859
 21
39.5879
  0
LINE
  8
0
 10
-2.80859
 20
39.5879
 11
-2.81934
 21
39.5732
  0
LINE
  8
0
 10
-2.81934
 20
39.5732
 11
-2.8291
 21
39.5596
  0
LINE
  8
0
 10
-2.8291
 20
39.5596
 11
-2.83887
 21
39.5449
  0
LINE
  8
0
 10
-2.83887
 20
39.5449
 11
-2.84766
 21
39.5303
  0
LINE
  8
0
 10
-2.84766
 20
39.5303
 11
-2.85742
 21
39.5146
  0
LINE
  8
0
 10
-2.85742
 20
39.5146
 11
-2.86621
 21
39.5
  0
LINE
  8
0
 10
-2.86621
 20
39.5
 11
-2.875
 21
39.4844
  0
LINE
  8
0
 10
-2.875
 20
39.4844
 11
-2.88281
 21
39.4697
  0
LINE
  8
0
 10
-2.88281
 20
39.4697
 11
-2.90625
 21
39.4229
  0
LINE
  8
0
 10
-2.90625
 20
39.4229
 11
-2.91309
 21
39.4062
  0
LINE
  8
0
 10
-2.91309
 20
39.4062
 11
-2.9209
 21
39.3906
  0
LINE
  8
0
 10
-2.9209
 20
39.3906
 11
-2.92676
 21
39.375
  0
LINE
  8
0
 10
-2.92676
 20
39.375
 11
-2.93359
 21
39.3584
  0
LINE
  8
0
 10
-2.93359
 20
39.3584
 11
-2.95117
 21
39.3086
  0
LINE
  8
0
 10
-2.95117
 20
39.3086
 11
-2.9707
 21
39.2422
  0
LINE
  8
0
 10
-2.9707
 20
39.2422
 11
-2.97461
 21
39.2246
  0
LINE
  8
0
 10
-2.97461
 20
39.2246
 11
-2.97852
 21
39.208
  0
LINE
  8
0
 10
-2.97852
 20
39.208
 11
-2.98145
 21
39.1904
  0
LINE
  8
0
 10
-2.98145
 20
39.1904
 11
-2.98438
 21
39.1738
  0
LINE
  8
0
 10
-2.98438
 20
39.1738
 11
-2.9873
 21
39.1562
  0
LINE
  8
0
 10
-2.9873
 20
39.1562
 11
-2.99023
 21
39.1396
  0
LINE
  8
0
 10
-2.99023
 20
39.1396
 11
-2.99805
 21
39.0693
  0
LINE
  8
0
 10
-2.99805
 20
39.0693
 11
-2.99902
 21
39.0527
  0
LINE
  8
0
 10
-2.99902
 20
39.0527
 11
-2.99902
 21
39.0352
  0
LINE
  8
0
 10
-2.99902
 20
39.0352
 11
-3
 21
39.0176
  0
LINE
  8
0
 10
-3
 20
39.0176
 11
-3
 21
30.9824
  0
LINE
  8
0
 10
-3
 20
30.9824
 11
-2.99902
 21
30.9648
  0
LINE
  8
0
 10
-2.99902
 20
30.9648
 11
-2.99902
 21
30.9473
  0
LINE
  8
0
 10
-2.99902
 20
30.9473
 11
-2.99805
 21
30.9307
  0
LINE
  8
0
 10
-2.99805
 20
30.9307
 11
-2.99023
 21
30.8604
  0
LINE
  8
0
 10
-2.99023
 20
30.8604
 11
-2.9873
 21
30.8438
  0
LINE
  8
0
 10
-2.9873
 20
30.8438
 11
-2.98438
 21
30.8262
  0
LINE
  8
0
 10
-2.98438
 20
30.8262
 11
-2.98145
 21
30.8096
  0
LINE
  8
0
 10
-2.98145
 20
30.8096
 11
-2.97852
 21
30.792
  0
LINE
  8
0
 10
-2.97852
 20
30.792
 11
-2.97461
 21
30.7754
  0
LINE
  8
0
 10
-2.97461
 20
30.7754
 11
-2.9707
 21
30.7578
  0
LINE
  8
0
 10
-2.9707
 20
30.7578
 11
-2.95117
 21
30.6914
  0
LINE
  8
0
 10
-2.95117
 20
30.6914
 11
-2.93359
 21
30.6416
  0
LINE
  8
0
 10
-2.93359
 20
30.6416
 11
-2.92676
 21
30.625
  0
LINE
  8
0
 10
-2.92676
 20
30.625
 11
-2.9209
 21
30.6094
  0
LINE
  8
0
 10
-2.9209
 20
30.6094
 11
-2.91309
 21
30.5938
  0
LINE
  8
0
 10
-2.91309
 20
30.5938
 11
-2.90625
 21
30.5771
  0
LINE
  8
0
 10
-2.90625
 20
30.5771
 11
-2.88281
 21
30.5303
  0
LINE
  8
0
 10
-2.88281
 20
30.5303
 11
-2.875
 21
30.5156
  0
LINE
  8
0
 10
-2.875
 20
30.5156
 11
-2.86621
 21
30.5
  0
LINE
  8
0
 10
-2.86621
 20
30.5
 11
-2.85742
 21
30.4854
  0
LINE
  8
0
 10
-2.85742
 20
30.4854
 11
-2.84766
 21
30.4697
  0
LINE
  8
0
 10
-2.84766
 20
30.4697
 11
-2.83887
 21
30.4551
  0
LINE
  8
0
 10
-2.83887
 20
30.4551
 11
-2.8291
 21
30.4404
  0
LINE
  8
0
 10
-2.8291
 20
30.4404
 11
-2.81934
 21
30.4268
  0
LINE
  8
0
 10
-2.81934
 20
30.4268
 11
-2.80859
 21
30.4121
  0
LINE
  8
0
 10
-2.80859
 20
30.4121
 11
-2.79883
 21
30.3984
  0
LINE
  8
0
 10
-2.79883
 20
30.3984
 11
-2.77734
 21
30.3711
  0
LINE
  8
0
 10
-2.77734
 20
30.3711
 11
-2.76562
 21
30.3574
  0
LINE
  8
0
 10
-2.76562
 20
30.3574
 11
-2.75488
 21
30.3438
  0
LINE
  8
0
 10
-2.75488
 20
30.3438
 11
-2.71973
 21
30.3057
  0
LINE
  8
0
 10
-2.71973
 20
30.3057
 11
-2.69434
 21
30.2803
  0
LINE
  8
0
 10
-2.69434
 20
30.2803
 11
-2.65625
 21
30.2451
  0
LINE
  8
0
 10
-2.65625
 20
30.2451
 11
-2.64258
 21
30.2344
  0
LINE
  8
0
 10
-2.64258
 20
30.2344
 11
-2.62891
 21
30.2227
  0
LINE
  8
0
 10
-2.62891
 20
30.2227
 11
-2.60156
 21
30.2012
  0
LINE
  8
0
 10
-2.60156
 20
30.2012
 11
-2.58789
 21
30.1914
  0
LINE
  8
0
 10
-2.58789
 20
30.1914
 11
-2.57324
 21
30.1807
  0
LINE
  8
0
 10
-2.57324
 20
30.1807
 11
-2.55957
 21
30.1709
  0
LINE
  8
0
 10
-2.55957
 20
30.1709
 11
-2.54492
 21
30.1611
  0
LINE
  8
0
 10
-2.54492
 20
30.1611
 11
-2.53027
 21
30.1523
  0
LINE
  8
0
 10
-2.53027
 20
30.1523
 11
-2.51465
 21
30.1426
  0
LINE
  8
0
 10
-2.51465
 20
30.1426
 11
-2.5
 21
30.1338
  0
LINE
  8
0
 10
-2.5
 20
30.1338
 11
-2.48438
 21
30.125
  0
LINE
  8
0
 10
-2.48438
 20
30.125
 11
-2.46973
 21
30.1172
  0
LINE
  8
0
 10
-2.46973
 20
30.1172
 11
-2.42285
 21
30.0938
  0
LINE
  8
0
 10
-2.42285
 20
30.0938
 11
-2.40625
 21
30.0869
  0
LINE
  8
0
 10
-2.40625
 20
30.0869
 11
-2.39062
 21
30.0791
  0
LINE
  8
0
 10
-2.39062
 20
30.0791
 11
-2.375
 21
30.0732
  0
LINE
  8
0
 10
-2.375
 20
30.0732
 11
-2.3584
 21
30.0664
  0
LINE
  8
0
 10
-2.3584
 20
30.0664
 11
-2.30859
 21
30.0488
  0
LINE
  8
0
 10
-2.30859
 20
30.0488
 11
-2.24219
 21
30.0293
  0
LINE
  8
0
 10
-2.24219
 20
30.0293
 11
-2.22461
 21
30.0254
  0
LINE
  8
0
 10
-2.22461
 20
30.0254
 11
-2.20801
 21
30.0215
  0
LINE
  8
0
 10
-2.20801
 20
30.0215
 11
-2.19043
 21
30.0186
  0
LINE
  8
0
 10
-2.19043
 20
30.0186
 11
-2.17383
 21
30.0156
  0
LINE
  8
0
 10
-2.17383
 20
30.0156
 11
-2.15625
 21
30.0127
  0
LINE
  8
0
 10
-2.15625
 20
30.0127
 11
-2.13965
 21
30.0098
  0
LINE
  8
0
 10
-2.13965
 20
30.0098
 11
-2.06934
 21
30.002
  0
LINE
  8
0
 10
-2.06934
 20
30.002
 11
-2.05273
 21
30.001
  0
LINE
  8
0
 10
-2.05273
 20
30.001
 11
-2.03516
 21
30.001
  0
LINE
  8
0
 10
-2.03516
 20
30.001
 11
-2.01758
 21
30
  0
LINE
  8
0
 10
-2.01758
 20
30
 11
0
 21
30
  0
LINE
  8
0
 10
0
 20
30
 11
0
 21
0
  0
LINE
  8
0
 10
0
 20
0
 11
100.95
 21
0
  0
LINE
  8
0
 10
100.95
 20
0
 11
100.95
 21
30
  0
LINE
  8
0
 10
88.4473
 20
103.9
 11
88.3916
 21
103.902
  0
LINE
  8
0
 10
88.3916
 20
103.902
 11
88.3633
 21
103.904
  0
LINE
  8
0
 10
88.3633
 20
103.904
 11
88.3359
 21
103.906
  0
LINE
  8
0
 10
88.3359
 20
103.906
 11
88.3076
 21
103.909
  0
LINE
  8
0
 10
88.3076
 20
103.909
 11
88.2803
 21
103.912
  0
LINE
  8
0
 10
88.2803
 20
103.912
 11
88.252
 21
103.916
  0
LINE
  8
0
 10
88.252
 20
103.916
 11
88.1973
 21
103.924
  0
LINE
  8
0
 10
88.1973
 20
103.924
 11
88.1699
 21
103.93
  0
LINE
  8
0
 10
88.1699
 20
103.93
 11
88.1426
 21
103.935
  0
LINE
  8
0
 10
88.1426
 20
103.935
 11
88.1152
 21
103.941
  0
LINE
  8
0
 10
88.1152
 20
103.941
 11
88.0879
 21
103.947
  0
LINE
  8
0
 10
88.0879
 20
103.947
 11
88.0605
 21
103.954
  0
LINE
  8
0
 10
88.0605
 20
103.954
 11
88.0342
 21
103.962
  0
LINE
  8
0
 10
88.0342
 20
103.962
 11
88.0068
 21
103.97
  0
LINE
  8
0
 10
88.0068
 20
103.97
 11
87.9277
 21
103.996
  0
LINE
  8
0
 10
87.9277
 20
103.996
 11
87.9014
 21
104.006
  0
LINE
  8
0
 10
87.9014
 20
104.006
 11
87.876
 21
104.017
  0
LINE
  8
0
 10
87.876
 20
104.017
 11
87.8496
 21
104.027
  0
LINE
  8
0
 10
87.8496
 20
104.027
 11
87.8242
 21
104.038
  0
LINE
  8
0
 10
87.8242
 20
104.038
 11
87.7734
 21
104.062
  0
LINE
  8
0
 10
87.7734
 20
104.062
 11
87.749
 21
104.074
  0
LINE
  8
0
 10
87.749
 20
104.074
 11
87.7236
 21
104.087
  0
LINE
  8
0
 10
87.7236
 20
104.087
 11
87.6748
 21
104.114
  0
LINE
  8
0
 10
87.6748
 20
104.114
 11
87.6514
 21
104.129
  0
LINE
  8
0
 10
87.6514
 20
104.129
 11
87.627
 21
104.144
  0
LINE
  8
0
 10
87.627
 20
104.144
 11
87.6035
 21
104.158
  0
LINE
  8
0
 10
87.6035
 20
104.158
 11
87.5801
 21
104.174
  0
LINE
  8
0
 10
87.5801
 20
104.174
 11
87.5576
 21
104.189
  0
LINE
  8
0
 10
87.5576
 20
104.189
 11
87.5342
 21
104.206
  0
LINE
  8
0
 10
87.5342
 20
104.206
 11
87.5117
 21
104.223
  0
LINE
  8
0
 10
87.5117
 20
104.223
 11
87.4902
 21
104.239
  0
LINE
  8
0
 10
87.4902
 20
104.239
 11
87.4678
 21
104.257
  0
LINE
  8
0
 10
87.4678
 20
104.257
 11
87.4463
 21
104.274
  0
LINE
  8
0
 10
87.4463
 20
104.274
 11
87.4258
 21
104.292
  0
LINE
  8
0
 10
87.4258
 20
104.292
 11
87.4043
 21
104.311
  0
LINE
  8
0
 10
87.4043
 20
104.311
 11
87.3838
 21
104.33
  0
LINE
  8
0
 10
87.3838
 20
104.33
 11
87.3633
 21
104.349
  0
LINE
  8
0
 10
87.3633
 20
104.349
 11
87.3438
 21
104.368
  0
LINE
  8
0
 10
87.3438
 20
104.368
 11
87.3047
 21
104.409
  0
LINE
  8
0
 10
87.3047
 20
104.409
 11
87.2676
 21
104.45
  0
LINE
  8
0
 10
87.2676
 20
104.45
 11
87.249
 21
104.472
  0
LINE
  8
0
 10
87.249
 20
104.472
 11
87.2139
 21
104.515
  0
LINE
  8
0
 10
87.2139
 20
104.515
 11
87.1641
 21
104.582
  0
LINE
  8
0
 10
87.1641
 20
104.582
 11
87.1328
 21
104.629
  0
LINE
  8
0
 10
87.1328
 20
104.629
 11
87.1035
 21
104.676
  0
LINE
  8
0
 10
87.1035
 20
104.676
 11
87.0898
 21
104.7
  0
LINE
  8
0
 10
87.0898
 20
104.7
 11
87.0752
 21
104.725
  0
LINE
  8
0
 10
87.0752
 20
104.725
 11
87.0498
 21
104.773
  0
LINE
  8
0
 10
87.0498
 20
104.773
 11
87.0371
 21
104.799
  0
LINE
  8
0
 10
87.0371
 20
104.799
 11
87.002
 21
104.875
  0
LINE
  8
0
 10
87.002
 20
104.875
 11
86.9912
 21
104.9
  0
LINE
  8
0
 10
86.9912
 20
104.9
 11
86.9619
 21
104.979
  0
LINE
  8
0
 10
86.9619
 20
104.979
 11
86.9531
 21
105.006
  0
LINE
  8
0
 10
86.9531
 20
105.006
 11
86.9453
 21
105.032
  0
LINE
  8
0
 10
86.9453
 20
105.032
 11
86.9365
 21
105.059
  0
LINE
  8
0
 10
86.9365
 20
105.059
 11
86.9229
 21
105.113
  0
LINE
  8
0
 10
86.9229
 20
105.113
 11
86.916
 21
105.14
  0
LINE
  8
0
 10
86.916
 20
105.14
 11
86.9043
 21
105.194
  0
LINE
  8
0
 10
86.9043
 20
105.194
 11
86.8994
 21
105.222
  0
LINE
  8
0
 10
86.8994
 20
105.222
 11
86.8945
 21
105.25
  0
LINE
  8
0
 10
86.8945
 20
105.25
 11
86.8867
 21
105.305
  0
LINE
  8
0
 10
86.8867
 20
105.305
 11
86.8838
 21
105.333
  0
LINE
  8
0
 10
86.8838
 20
105.333
 11
86.8809
 21
105.36
  0
LINE
  8
0
 10
86.8809
 20
105.36
 11
86.8789
 21
105.389
  0
LINE
  8
0
 10
86.8789
 20
105.389
 11
86.877
 21
105.416
  0
LINE
  8
0
 10
86.877
 20
105.416
 11
86.875
 21
105.472
  0
LINE
  8
0
 10
86.875
 20
105.472
 11
86.875
 21
105.528
  0
LINE
  8
0
 10
86.875
 20
105.528
 11
86.877
 21
105.584
  0
LINE
  8
0
 10
86.877
 20
105.584
 11
86.8789
 21
105.611
  0
LINE
  8
0
 10
86.8789
 20
105.611
 11
86.8809
 21
105.64
  0
LINE
  8
0
 10
86.8809
 20
105.64
 11
86.8838
 21
105.667
  0
LINE
  8
0
 10
86.8838
 20
105.667
 11
86.8867
 21
105.695
  0
LINE
  8
0
 10
86.8867
 20
105.695
 11
86.8945
 21
105.75
  0
LINE
  8
0
 10
86.8945
 20
105.75
 11
86.8994
 21
105.778
  0
LINE
  8
0
 10
86.8994
 20
105.778
 11
86.9043
 21
105.806
  0
LINE
  8
0
 10
86.9043
 20
105.806
 11
86.916
 21
105.86
  0
LINE
  8
0
 10
86.916
 20
105.86
 11
86.9229
 21
105.887
  0
LINE
  8
0
 10
86.9229
 20
105.887
 11
86.9365
 21
105.941
  0
LINE
  8
0
 10
86.9365
 20
105.941
 11
86.9453
 21
105.968
  0
LINE
  8
0
 10
86.9453
 20
105.968
 11
86.9531
 21
105.994
  0
LINE
  8
0
 10
86.9531
 20
105.994
 11
86.9619
 21
106.021
  0
LINE
  8
0
 10
86.9619
 20
106.021
 11
86.9912
 21
106.1
  0
LINE
  8
0
 10
86.9912
 20
106.1
 11
87.002
 21
106.125
  0
LINE
  8
0
 10
87.002
 20
106.125
 11
87.0371
 21
106.201
  0
LINE
  8
0
 10
87.0371
 20
106.201
 11
87.0498
 21
106.227
  0
LINE
  8
0
 10
87.0498
 20
106.227
 11
87.0752
 21
106.275
  0
LINE
  8
0
 10
87.0752
 20
106.275
 11
87.0898
 21
106.3
  0
LINE
  8
0
 10
87.0898
 20
106.3
 11
87.1035
 21
106.324
  0
LINE
  8
0
 10
87.1035
 20
106.324
 11
87.1328
 21
106.371
  0
LINE
  8
0
 10
87.1328
 20
106.371
 11
87.1641
 21
106.418
  0
LINE
  8
0
 10
87.1641
 20
106.418
 11
87.2139
 21
106.485
  0
LINE
  8
0
 10
87.2139
 20
106.485
 11
87.249
 21
106.528
  0
LINE
  8
0
 10
87.249
 20
106.528
 11
87.2676
 21
106.55
  0
LINE
  8
0
 10
87.2676
 20
106.55
 11
87.3047
 21
106.591
  0
LINE
  8
0
 10
87.3047
 20
106.591
 11
87.3438
 21
106.632
  0
LINE
  8
0
 10
87.3438
 20
106.632
 11
87.3633
 21
106.651
  0
LINE
  8
0
 10
87.3633
 20
106.651
 11
87.3838
 21
106.67
  0
LINE
  8
0
 10
87.3838
 20
106.67
 11
87.4043
 21
106.689
  0
LINE
  8
0
 10
87.4043
 20
106.689
 11
87.4258
 21
106.708
  0
LINE
  8
0
 10
87.4258
 20
106.708
 11
87.4463
 21
106.726
  0
LINE
  8
0
 10
87.4463
 20
106.726
 11
87.4678
 21
106.743
  0
LINE
  8
0
 10
87.4678
 20
106.743
 11
87.4902
 21
106.761
  0
LINE
  8
0
 10
87.4902
 20
106.761
 11
87.5117
 21
106.777
  0
LINE
  8
0
 10
87.5117
 20
106.777
 11
87.5342
 21
106.794
  0
LINE
  8
0
 10
87.5342
 20
106.794
 11
87.5576
 21
106.811
  0
LINE
  8
0
 10
87.5576
 20
106.811
 11
87.5801
 21
106.826
  0
LINE
  8
0
 10
87.5801
 20
106.826
 11
87.6035
 21
106.842
  0
LINE
  8
0
 10
87.6035
 20
106.842
 11
87.627
 21
106.856
  0
LINE
  8
0
 10
87.627
 20
106.856
 11
87.6514
 21
106.871
  0
LINE
  8
0
 10
87.6514
 20
106.871
 11
87.6748
 21
106.886
  0
LINE
  8
0
 10
87.6748
 20
106.886
 11
87.7236
 21
106.913
  0
LINE
  8
0
 10
87.7236
 20
106.913
 11
87.749
 21
106.926
  0
LINE
  8
0
 10
87.749
 20
106.926
 11
87.7734
 21
106.938
  0
LINE
  8
0
 10
87.7734
 20
106.938
 11
87.8242
 21
106.962
  0
LINE
  8
0
 10
87.8242
 20
106.962
 11
87.8496
 21
106.973
  0
LINE
  8
0
 10
87.8496
 20
106.973
 11
87.876
 21
106.983
  0
LINE
  8
0
 10
87.876
 20
106.983
 11
87.9014
 21
106.994
  0
LINE
  8
0
 10
87.9014
 20
106.994
 11
87.9277
 21
107.004
  0
LINE
  8
0
 10
87.9277
 20
107.004
 11
88.0068
 21
107.03
  0
LINE
  8
0
 10
88.0068
 20
107.03
 11
88.0342
 21
107.038
  0
LINE
  8
0
 10
88.0342
 20
107.038
 11
88.0605
 21
107.046
  0
LINE
  8
0
 10
88.0605
 20
107.046
 11
88.0879
 21
107.053
  0
LINE
  8
0
 10
88.0879
 20
107.053
 11
88.1152
 21
107.059
  0
LINE
  8
0
 10
88.1152
 20
107.059
 11
88.1426
 21
107.065
  0
LINE
  8
0
 10
88.1426
 20
107.065
 11
88.1699
 21
107.07
  0
LINE
  8
0
 10
88.1699
 20
107.07
 11
88.1973
 21
107.076
  0
LINE
  8
0
 10
88.1973
 20
107.076
 11
88.252
 21
107.084
  0
LINE
  8
0
 10
88.252
 20
107.084
 11
88.2803
 21
107.088
  0
LINE
  8
0
 10
88.2803
 20
107.088
 11
88.3076
 21
107.091
  0
LINE
  8
0
 10
88.3076
 20
107.091
 11
88.3359
 21
107.094
  0
LINE
  8
0
 10
88.3359
 20
107.094
 11
88.3633
 21
107.096
  0
LINE
  8
0
 10
88.3633
 20
107.096
 11
88.3916
 21
107.098
  0
LINE
  8
0
 10
88.3916
 20
107.098
 11
88.4473
 21
107.1
  0
LINE
  8
0
 10
88.4473
 20
107.1
 11
88.5029
 21
107.1
  0
LINE
  8
0
 10
88.5029
 20
107.1
 11
88.5586
 21
107.098
  0
LINE
  8
0
 10
88.5586
 20
107.098
 11
88.5869
 21
107.096
  0
LINE
  8
0
 10
88.5869
 20
107.096
 11
88.6143
 21
107.094
  0
LINE
  8
0
 10
88.6143
 20
107.094
 11
88.6426
 21
107.091
  0
LINE
  8
0
 10
88.6426
 20
107.091
 11
88.6699
 21
107.088
  0
LINE
  8
0
 10
88.6699
 20
107.088
 11
88.6973
 21
107.084
  0
LINE
  8
0
 10
88.6973
 20
107.084
 11
88.7256
 21
107.08
  0
LINE
  8
0
 10
88.7256
 20
107.08
 11
88.7529
 21
107.076
  0
LINE
  8
0
 10
88.7529
 20
107.076
 11
88.7803
 21
107.07
  0
LINE
  8
0
 10
88.7803
 20
107.07
 11
88.8076
 21
107.065
  0
LINE
  8
0
 10
88.8076
 20
107.065
 11
88.835
 21
107.059
  0
LINE
  8
0
 10
88.835
 20
107.059
 11
88.8623
 21
107.053
  0
LINE
  8
0
 10
88.8623
 20
107.053
 11
88.8887
 21
107.046
  0
LINE
  8
0
 10
88.8887
 20
107.046
 11
88.916
 21
107.038
  0
LINE
  8
0
 10
88.916
 20
107.038
 11
88.9424
 21
107.03
  0
LINE
  8
0
 10
88.9424
 20
107.03
 11
88.9697
 21
107.021
  0
LINE
  8
0
 10
88.9697
 20
107.021
 11
89.0225
 21
107.004
  0
LINE
  8
0
 10
89.0225
 20
107.004
 11
89.0488
 21
106.994
  0
LINE
  8
0
 10
89.0488
 20
106.994
 11
89.0742
 21
106.983
  0
LINE
  8
0
 10
89.0742
 20
106.983
 11
89.1006
 21
106.973
  0
LINE
  8
0
 10
89.1006
 20
106.973
 11
89.126
 21
106.962
  0
LINE
  8
0
 10
89.126
 20
106.962
 11
89.1768
 21
106.938
  0
LINE
  8
0
 10
89.1768
 20
106.938
 11
89.2012
 21
106.926
  0
LINE
  8
0
 10
89.2012
 20
106.926
 11
89.2266
 21
106.913
  0
LINE
  8
0
 10
89.2266
 20
106.913
 11
89.2754
 21
106.886
  0
LINE
  8
0
 10
89.2754
 20
106.886
 11
89.2988
 21
106.871
  0
LINE
  8
0
 10
89.2988
 20
106.871
 11
89.3232
 21
106.856
  0
LINE
  8
0
 10
89.3232
 20
106.856
 11
89.3467
 21
106.842
  0
LINE
  8
0
 10
89.3467
 20
106.842
 11
89.3701
 21
106.826
  0
LINE
  8
0
 10
89.3701
 20
106.826
 11
89.3926
 21
106.811
  0
LINE
  8
0
 10
89.3926
 20
106.811
 11
89.46
 21
106.761
  0
LINE
  8
0
 10
89.46
 20
106.761
 11
89.4814
 21
106.743
  0
LINE
  8
0
 10
89.4814
 20
106.743
 11
89.5039
 21
106.726
  0
LINE
  8
0
 10
89.5039
 20
106.726
 11
89.5244
 21
106.708
  0
LINE
  8
0
 10
89.5244
 20
106.708
 11
89.5459
 21
106.689
  0
LINE
  8
0
 10
89.5459
 20
106.689
 11
89.5664
 21
106.67
  0
LINE
  8
0
 10
89.5664
 20
106.67
 11
89.5869
 21
106.651
  0
LINE
  8
0
 10
89.5869
 20
106.651
 11
89.6064
 21
106.632
  0
LINE
  8
0
 10
89.6064
 20
106.632
 11
89.6455
 21
106.591
  0
LINE
  8
0
 10
89.6455
 20
106.591
 11
89.6826
 21
106.55
  0
LINE
  8
0
 10
89.6826
 20
106.55
 11
89.7002
 21
106.528
  0
LINE
  8
0
 10
89.7002
 20
106.528
 11
89.7188
 21
106.507
  0
LINE
  8
0
 10
89.7188
 20
106.507
 11
89.7354
 21
106.485
  0
LINE
  8
0
 10
89.7354
 20
106.485
 11
89.7529
 21
106.463
  0
LINE
  8
0
 10
89.7529
 20
106.463
 11
89.7695
 21
106.44
  0
LINE
  8
0
 10
89.7695
 20
106.44
 11
89.7852
 21
106.418
  0
LINE
  8
0
 10
89.7852
 20
106.418
 11
89.8018
 21
106.395
  0
LINE
  8
0
 10
89.8018
 20
106.395
 11
89.8164
 21
106.371
  0
LINE
  8
0
 10
89.8164
 20
106.371
 11
89.832
 21
106.348
  0
LINE
  8
0
 10
89.832
 20
106.348
 11
89.8467
 21
106.324
  0
LINE
  8
0
 10
89.8467
 20
106.324
 11
89.8877
 21
106.251
  0
LINE
  8
0
 10
89.8877
 20
106.251
 11
89.9004
 21
106.227
  0
LINE
  8
0
 10
89.9004
 20
106.227
 11
89.9131
 21
106.201
  0
LINE
  8
0
 10
89.9131
 20
106.201
 11
89.9482
 21
106.125
  0
LINE
  8
0
 10
89.9482
 20
106.125
 11
89.958
 21
106.1
  0
LINE
  8
0
 10
89.958
 20
106.1
 11
89.9688
 21
106.073
  0
LINE
  8
0
 10
89.9688
 20
106.073
 11
89.9883
 21
106.021
  0
LINE
  8
0
 10
89.9883
 20
106.021
 11
89.9971
 21
105.994
  0
LINE
  8
0
 10
89.9971
 20
105.994
 11
90.0127
 21
105.941
  0
LINE
  8
0
 10
90.0127
 20
105.941
 11
90.0205
 21
105.914
  0
LINE
  8
0
 10
90.0205
 20
105.914
 11
90.0273
 21
105.887
  0
LINE
  8
0
 10
90.0273
 20
105.887
 11
90.0342
 21
105.86
  0
LINE
  8
0
 10
90.0342
 20
105.86
 11
90.0459
 21
105.806
  0
LINE
  8
0
 10
90.0459
 20
105.806
 11
90.0508
 21
105.778
  0
LINE
  8
0
 10
90.0508
 20
105.778
 11
90.0557
 21
105.75
  0
LINE
  8
0
 10
90.0557
 20
105.75
 11
90.0635
 21
105.695
  0
LINE
  8
0
 10
90.0635
 20
105.695
 11
90.0664
 21
105.667
  0
LINE
  8
0
 10
90.0664
 20
105.667
 11
90.0693
 21
105.64
  0
LINE
  8
0
 10
90.0693
 20
105.64
 11
90.0713
 21
105.611
  0
LINE
  8
0
 10
90.0713
 20
105.611
 11
90.0732
 21
105.584
  0
LINE
  8
0
 10
90.0732
 20
105.584
 11
90.0752
 21
105.528
  0
LINE
  8
0
 10
90.0752
 20
105.528
 11
90.0752
 21
105.472
  0
LINE
  8
0
 10
90.0752
 20
105.472
 11
90.0732
 21
105.416
  0
LINE
  8
0
 10
90.0732
 20
105.416
 11
90.0713
 21
105.389
  0
LINE
  8
0
 10
90.0713
 20
105.389
 11
90.0693
 21
105.36
  0
LINE
  8
0
 10
90.0693
 20
105.36
 11
90.0664
 21
105.333
  0
LINE
  8
0
 10
90.0664
 20
105.333
 11
90.0635
 21
105.305
  0
LINE
  8
0
 10
90.0635
 20
105.305
 11
90.0557
 21
105.25
  0
LINE
  8
0
 10
90.0557
 20
105.25
 11
90.0508
 21
105.222
  0
LINE
  8
0
 10
90.0508
 20
105.222
 11
90.0459
 21
105.194
  0
LINE
  8
0
 10
90.0459
 20
105.194
 11
90.0342
 21
105.14
  0
LINE
  8
0
 10
90.0342
 20
105.14
 11
90.0273
 21
105.113
  0
LINE
  8
0
 10
90.0273
 20
105.113
 11
90.0205
 21
105.086
  0
LINE
  8
0
 10
90.0205
 20
105.086
 11
90.0127
 21
105.059
  0
LINE
  8
0
 10
90.0127
 20
105.059
 11
89.9971
 21
105.006
  0
LINE
  8
0
 10
89.9971
 20
105.006
 11
89.9883
 21
104.979
  0
LINE
  8
0
 10
89.9883
 20
104.979
 11
89.9688
 21
104.927
  0
LINE
  8
0
 10
89.9688
 20
104.927
 11
89.958
 21
104.9
  0
LINE
  8
0
 10
89.958
 20
104.9
 11
89.9482
 21
104.875
  0
LINE
  8
0
 10
89.9482
 20
104.875
 11
89.9131
 21
104.799
  0
LINE
  8
0
 10
89.9131
 20
104.799
 11
89.9004
 21
104.773
  0
LINE
  8
0
 10
89.9004
 20
104.773
 11
89.8877
 21
104.749
  0
LINE
  8
0
 10
89.8877
 20
104.749
 11
89.8467
 21
104.676
  0
LINE
  8
0
 10
89.8467
 20
104.676
 11
89.832
 21
104.652
  0
LINE
  8
0
 10
89.832
 20
104.652
 11
89.8164
 21
104.629
  0
LINE
  8
0
 10
89.8164
 20
104.629
 11
89.8018
 21
104.605
  0
LINE
  8
0
 10
89.8018
 20
104.605
 11
89.7852
 21
104.582
  0
LINE
  8
0
 10
89.7852
 20
104.582
 11
89.7695
 21
104.56
  0
LINE
  8
0
 10
89.7695
 20
104.56
 11
89.7529
 21
104.537
  0
LINE
  8
0
 10
89.7529
 20
104.537
 11
89.7354
 21
104.515
  0
LINE
  8
0
 10
89.7354
 20
104.515
 11
89.7188
 21
104.493
  0
LINE
  8
0
 10
89.7188
 20
104.493
 11
89.7002
 21
104.472
  0
LINE
  8
0
 10
89.7002
 20
104.472
 11
89.6826
 21
104.45
  0
LINE
  8
0
 10
89.6826
 20
104.45
 11
89.6455
 21
104.409
  0
LINE
  8
0
 10
89.6455
 20
104.409
 11
89.6064
 21
104.368
  0
LINE
  8
0
 10
89.6064
 20
104.368
 11
89.5869
 21
104.349
  0
LINE
  8
0
 10
89.5869
 20
104.349
 11
89.5664
 21
104.33
  0
LINE
  8
0
 10
89.5664
 20
104.33
 11
89.5459
 21
104.311
  0
LINE
  8
0
 10
89.5459
 20
104.311
 11
89.5244
 21
104.292
  0
LINE
  8
0
 10
89.5244
 20
104.292
 11
89.5039
 21
104.274
  0
LINE
  8
0
 10
89.5039
 20
104.274
 11
89.4814
 21
104.257
  0
LINE
  8
0
 10
89.4814
 20
104.257
 11
89.46
 21
104.239
  0
LINE
  8
0
 10
89.46
 20
104.239
 11
89.3926
 21
104.189
  0
LINE
  8
0
 10
89.3926
 20
104.189
 11
89.3701
 21
104.174
  0
LINE
  8
0
 10
89.3701
 20
104.174
 11
89.3467
 21
104.158
  0
LINE
  8
0
 10
89.3467
 20
104.158
 11
89.3232
 21
104.144
  0
LINE
  8
0
 10
89.3232
 20
104.144
 11
89.2988
 21
104.129
  0
LINE
  8
0
 10
89.2988
 20
104.129
 11
89.2754
 21
104.114
  0
LINE
  8
0
 10
89.2754
 20
104.114
 11
89.2266
 21
104.087
  0
LINE
  8
0
 10
89.2266
 20
104.087
 11
89.2012
 21
104.074
  0
LINE
  8
0
 10
89.2012
 20
104.074
 11
89.1768
 21
104.062
  0
LINE
  8
0
 10
89.1768
 20
104.062
 11
89.126
 21
104.038
  0
LINE
  8
0
 10
89.126
 20
104.038
 11
89.1006
 21
104.027
  0
LINE
  8
0
 10
89.1006
 20
104.027
 11
89.0742
 21
104.017
  0
LINE
  8
0
 10
89.0742
 20
104.017
 11
89.0488
 21
104.006
  0
LINE
  8
0
 10
89.0488
 20
104.006
 11
89.0225
 21
103.996
  0
LINE
  8
0
 10
89.0225
 20
103.996
 11
88.9697
 21
103.979
  0
LINE
  8
0
 10
88.9697
 20
103.979
 11
88.9424
 21
103.97
  0
LINE
  8
0
 10
88.9424
 20
103.97
 11
88.916
 21
103.962
  0
LINE
  8
0
 10
88.916
 20
103.962
 11
88.8887
 21
103.954
  0
LINE
  8
0
 10
88.8887
 20
103.954
 11
88.8623
 21
103.947
  0
LINE
  8
0
 10
88.8623
 20
103.947
 11
88.835
 21
103.941
  0
LINE
  8
0
 10
88.835
 20
103.941
 11
88.8076
 21
103.935
  0
LINE
  8
0
 10
88.8076
 20
103.935
 11
88.7803
 21
103.93
  0
LINE
  8
0
 10
88.7803
 20
103.93
 11
88.7529
 21
103.924
  0
LINE
  8
0
 10
88.7529
 20
103.924
 11
88.7256
 21
103.92
  0
LINE
  8
0
 10
88.7256
 20
103.92
 11
88.6973
 21
103.916
  0
LINE
  8
0
 10
88.6973
 20
103.916
 11
88.6699
 21
103.912
  0
LINE
  8
0
 10
88.6699
 20
103.912
 11
88.6426
 21
103.909
  0
LINE
  8
0
 10
88.6426
 20
103.909
 11
88.6143
 21
103.906
  0
LINE
  8
0
 10
88.6143
 20
103.906
 11
88.5869
 21
103.904
  0
LINE
  8
0
 10
88.5869
 20
103.904
 11
88.5586
 21
103.902
  0
LINE
  8
0
 10
88.5586
 20
103.902
 11
88.5029
 21
103.9
  0
LINE
  8
0
 10
88.5029
 20
103.9
 11
88.4473
 21
103.9
  0
LINE
  8
0
 10
12.4473
 20
103.9
 11
12.3916
 21
103.902
  0
LINE
  8
0
 10
12.3916
 20
103.902
 11
12.3633
 21
103.904
  0
LINE
  8
0
 10
12.3633
 20
103.904
 11
12.3359
 21
103.906
  0
LINE
  8
0
 10
12.3359
 20
103.906
 11
12.3076
 21
103.909
  0
LINE
  8
0
 10
12.3076
 20
103.909
 11
12.2803
 21
103.912
  0
LINE
  8
0
 10
12.2803
 20
103.912
 11
12.252
 21
103.916
  0
LINE
  8
0
 10
12.252
 20
103.916
 11
12.1973
 21
103.924
  0
LINE
  8
0
 10
12.1973
 20
103.924
 11
12.1699
 21
103.93
  0
LINE
  8
0
 10
12.1699
 20
103.93
 11
12.1426
 21
103.935
  0
LINE
  8
0
 10
12.1426
 20
103.935
 11
12.1152
 21
103.941
  0
LINE
  8
0
 10
12.1152
 20
103.941
 11
12.0879
 21
103.947
  0
LINE
  8
0
 10
12.0879
 20
103.947
 11
12.0605
 21
103.954
  0
LINE
  8
0
 10
12.0605
 20
103.954
 11
12.0342
 21
103.962
  0
LINE
  8
0
 10
12.0342
 20
103.962
 11
12.0068
 21
103.97
  0
LINE
  8
0
 10
12.0068
 20
103.97
 11
11.9277
 21
103.996
  0
LINE
  8
0
 10
11.9277
 20
103.996
 11
11.9014
 21
104.006
  0
LINE
  8
0
 10
11.9014
 20
104.006
 11
11.876
 21
104.017
  0
LINE
  8
0
 10
11.876
 20
104.017
 11
11.8496
 21
104.027
  0
LINE
  8
0
 10
11.8496
 20
104.027
 11
11.8242
 21
104.038
  0
LINE
  8
0
 10
11.8242
 20
104.038
 11
11.7734
 21
104.062
  0
LINE
  8
0
 10
11.7734
 20
104.062
 11
11.749
 21
104.074
  0
LINE
  8
0
 10
11.749
 20
104.074
 11
11.7236
 21
104.087
  0
LINE
  8
0
 10
11.7236
 20
104.087
 11
11.6748
 21
104.114
  0
LINE
  8
0
 10
11.6748
 20
104.114
 11
11.6514
 21
104.129
  0
LINE
  8
0
 10
11.6514
 20
104.129
 11
11.627
 21
104.144
  0
LINE
  8
0
 10
11.627
 20
104.144
 11
11.6035
 21
104.158
  0
LINE
  8
0
 10
11.6035
 20
104.158
 11
11.5801
 21
104.174
  0
LINE
  8
0
 10
11.5801
 20
104.174
 11
11.5576
 21
104.189
  0
LINE
  8
0
 10
11.5576
 20
104.189
 11
11.5342
 21
104.206
  0
LINE
  8
0
 10
11.5342
 20
104.206
 11
11.5117
 21
104.223
  0
LINE
  8
0
 10
11.5117
 20
104.223
 11
11.4902
 21
104.239
  0
LINE
  8
0
 10
11.4902
 20
104.239
 11
11.4678
 21
104.257
  0
LINE
  8
0
 10
11.4678
 20
104.257
 11
11.4463
 21
104.274
  0
LINE
  8
0
 10
11.4463
 20
104.274
 11
11.4258
 21
104.292
  0
LINE
  8
0
 10
11.4258
 20
104.292
 11
11.4043
 21
104.311
  0
LINE
  8
0
 10
11.4043
 20
104.311
 11
11.3838
 21
104.33
  0
LINE
  8
0
 10
11.3838
 20
104.33
 11
11.3633
 21
104.349
  0
LINE
  8
0
 10
11.3633
 20
104.349
 11
11.3438
 21
104.368
  0
LINE
  8
0
 10
11.3438
 20
104.368
 11
11.3047
 21
104.409
  0
LINE
  8
0
 10
11.3047
 20
104.409
 11
11.2676
 21
104.45
  0
LINE
  8
0
 10
11.2676
 20
104.45
 11
11.249
 21
104.472
  0
LINE
  8
0
 10
11.249
 20
104.472
 11
11.2139
 21
104.515
  0
LINE
  8
0
 10
11.2139
 20
104.515
 11
11.1641
 21
104.582
  0
LINE
  8
0
 10
11.1641
 20
104.582
 11
11.1328
 21
104.629
  0
LINE
  8
0
 10
11.1328
 20
104.629
 11
11.1035
 21
104.676
  0
LINE
  8
0
 10
11.1035
 20
104.676
 11
11.0898
 21
104.7
  0
LINE
  8
0
 10
11.0898
 20
104.7
 11
11.0752
 21
104.725
  0
LINE
  8
0
 10
11.0752
 20
104.725
 11
11.0498
 21
104.773
  0
LINE
  8
0
 10
11.0498
 20
104.773
 11
11.0371
 21
104.799
  0
LINE
  8
0
 10
11.0371
 20
104.799
 11
11.002
 21
104.875
  0
LINE
  8
0
 10
11.002
 20
104.875
 11
10.9912
 21
104.9
  0
LINE
  8
0
 10
10.9912
 20
104.9
 11
10.9619
 21
104.979
  0
LINE
  8
0
 10
10.9619
 20
104.979
 11
10.9531
 21
105.006
  0
LINE
  8
0
 10
10.9531
 20
105.006
 11
10.9453
 21
105.032
  0
LINE
  8
0
 10
10.9453
 20
105.032
 11
10.9365
 21
105.059
  0
LINE
  8
0
 10
10.9365
 20
105.059
 11
10.9229
 21
105.113
  0
LINE
  8
0
 10
10.9229
 20
105.113
 11
10.916
 21
105.14
  0
LINE
  8
0
 10
10.916
 20
105.14
 11
10.9043
 21
105.194
  0
LINE
  8
0
 10
10.9043
 20
105.194
 11
10.8994
 21
105.222
  0
LINE
  8
0
 10
10.8994
 20
105.222
 11
10.8945
 21
105.25
  0
LINE
  8
0
 10
10.8945
 20
105.25
 11
10.8867
 21
105.305
  0
LINE
  8
0
 10
10.8867
 20
105.305
 11
10.8838
 21
105.333
  0
LINE
  8
0
 10
10.8838
 20
105.333
 11
10.8809
 21
105.36
  0
LINE
  8
0
 10
10.8809
 20
105.36
 11
10.8789
 21
105.389
  0
LINE
  8
0
 10
10.8789
 20
105.389
 11
10.877
 21
105.416
  0
LINE
  8
0
 10
10.877
 20
105.416
 11
10.875
 21
105.472
  0
LINE
  8
0
 10
10.875
 20
105.472
 11
10.875
 21
105.528
  0
LINE
  8
0
 10
10.875
 20
105.528
 11
10.877
 21
105.584
  0
LINE
  8
0
 10
10.877
 20
105.584
 11
10.8789
 21
105.611
  0
LINE
  8
0
 10
10.8789
 20
105.611
 11
10.8809
 21
105.64
  0
LINE
  8
0
 10
10.8809
 20
105.64
 11
10.8838
 21
105.667
  0
LINE
  8
0
 10
10.8838
 20
105.667
 11
10.8867
 21
105.695
  0
LINE
  8
0
 10
10.8867
 20
105.695
 11
10.8945
 21
105.75
  0
LINE
  8
0
 10
10.8945
 20
105.75
 11
10.8994
 21
105.778
  0
LINE
  8
0
 10
10.8994
 20
105.778
 11
10.9043
 21
105.806
  0
LINE
  8
0
 10
10.9043
 20
105.806
 11
10.916
 21
105.86
  0
LINE
  8
0
 10
10.916
 20
105.86
 11
10.9229
 21
105.887
  0
LINE
  8
0
 10
10.9229
 20
105.887
 11
10.9365
 21
105.941
  0
LINE
  8
0
 10
10.9365
 20
105.941
 11
10.9453
 21
105.968
  0
LINE
  8
0
 10
10.9453
 20
105.968
 11
10.9531
 21
105.994
  0
LINE
  8
0
 10
10.9531
 20
105.994
 11
10.9619
 21
106.021
  0
LINE
  8
0
 10
10.9619
 20
106.021
 11
10.9912
 21
106.1
  0
LINE
  8
0
 10
10.9912
 20
106.1
 11
11.002
 21
106.125
  0
LINE
  8
0
 10
11.002
 20
106.125
 11
11.0371
 21
106.201
  0
LINE
  8
0
 10
11.0371
 20
106.201
 11
11.0498
 21
106.227
  0
LINE
  8
0
 10
11.0498
 20
106.227
 11
11.0752
 21
106.275
  0
LINE
  8
0
 10
11.0752
 20
106.275
 11
11.0898
 21
106.3
  0
LINE
  8
0
 10
11.0898
 20
106.3
 11
11.1035
 21
106.324
  0
LINE
  8
0
 10
11.1035
 20
106.324
 11
11.1328
 21
106.371
  0
LINE
  8
0
 10
11.1328
 20
106.371
 11
11.1641
 21
106.418
  0
LINE
  8
0
 10
11.1641
 20
106.418
 11
11.2139
 21
106.485
  0
LINE
  8
0
 10
11.2139
 20
106.485
 11
11.249
 21
106.528
  0
LINE
  8
0
 10
11.249
 20
106.528
 11
11.2676
 21
106.55
  0
LINE
  8
0
 10
11.2676
 20
106.55
 11
11.3047
 21
106.591
  0
LINE
  8
0
 10
11.3047
 20
106.591
 11
11.3438
 21
106.632
  0
LINE
  8
0
 10
11.3438
 20
106.632
 11
11.3633
 21
106.651
  0
LINE
  8
0
 10
11.3633
 20
106.651
 11
11.3838
 21
106.67
  0
LINE
  8
0
 10
11.3838
 20
106.67
 11
11.4043
 21
106.689
  0
LINE
  8
0
 10
11.4043
 20
106.689
 11
11.4258
 21
106.708
  0
LINE
  8
0
 10
11.4258
 20
106.708
 11
11.4463
 21
106.726
  0
LINE
  8
0
 10
11.4463
 20
106.726
 11
11.4678
 21
106.743
  0
LINE
  8
0
 10
11.4678
 20
106.743
 11
11.4902
 21
106.761
  0
LINE
  8
0
 10
11.4902
 20
106.761
 11
11.5117
 21
106.777
  0
LINE
  8
0
 10
11.5117
 20
106.777
 11
11.5342
 21
106.794
  0
LINE
  8
0
 10
11.5342
 20
106.794
 11
11.5576
 21
106.811
  0
LINE
  8
0
 10
11.5576
 20
106.811
 11
11.5801
 21
106.826
  0
LINE
  8
0
 10
11.5801
 20
106.826
 11
11.6035
 21
106.842
  0
LINE
  8
0
 10
11.6035
 20
106.842
 11
11.627
 21
106.856
  0
LINE
  8
0
 10
11.627
 20
106.856
 11
11.6514
 21
106.871
  0
LINE
  8
0
 10
11.6514
 20
106.871
 11
11.6748
 21
106.886
  0
LINE
  8
0
 10
11.6748
 20
106.886
 11
11.7236
 21
106.913
  0
LINE
  8
0
 10
11.7236
 20
106.913
 11
11.749
 21
106.926
  0
LINE
  8
0
 10
11.749
 20
106.926
 11
11.7734
 21
106.938
  0
LINE
  8
0
 10
11.7734
 20
106.938
 11
11.8242
 21
106.962
  0
LINE
  8
0
 10
11.8242
 20
106.962
 11
11.8496
 21
106.973
  0
LINE
  8
0
 10
11.8496
 20
106.973
 11
11.876
 21
106.983
  0
LINE
  8
0
 10
11.876
 20
106.983
 11
11.9014
 21
106.994
  0
LINE
  8
0
 10
11.9014
 20
106.994
 11
11.9277
 21
107.004
  0
LINE
  8
0
 10
11.9277
 20
107.004
 11
12.0068
 21
107.03
  0
LINE
  8
0
 10
12.0068
 20
107.03
 11
12.0342
 21
107.038
  0
LINE
  8
0
 10
12.0342
 20
107.038
 11
12.0605
 21
107.046
  0
LINE
  8
0
 10
12.0605
 20
107.046
 11
12.0879
 21
107.053
  0
LINE
  8
0
 10
12.0879
 20
107.053
 11
12.1152
 21
107.059
  0
LINE
  8
0
 10
12.1152
 20
107.059
 11
12.1426
 21
107.065
  0
LINE
  8
0
 10
12.1426
 20
107.065
 11
12.1699
 21
107.07
  0
LINE
  8
0
 10
12.1699
 20
107.07
 11
12.1973
 21
107.076
  0
LINE
  8
0
 10
12.1973
 20
107.076
 11
12.252
 21
107.084
  0
LINE
  8
0
 10
12.252
 20
107.084
 11
12.2803
 21
107.088
  0
LINE
  8
0
 10
12.2803
 20
107.088
 11
12.3076
 21
107.091
  0
LINE
  8
0
 10
12.3076
 20
107.091
 11
12.3359
 21
107.094
  0
LINE
  8
0
 10
12.3359
 20
107.094
 11
12.3633
 21
107.096
  0
LINE
  8
0
 10
12.3633
 20
107.096
 11
12.3916
 21
107.098
  0
LINE
  8
0
 10
12.3916
 20
107.098
 11
12.4473
 21
107.1
  0
LINE
  8
0
 10
12.4473
 20
107.1
 11
12.5029
 21
107.1
  0
LINE
  8
0
 10
12.5029
 20
107.1
 11
12.5586
 21
107.098
  0
LINE
  8
0
 10
12.5586
 20
107.098
 11
12.5869
 21
107.096
  0
LINE
  8
0
 10
12.5869
 20
107.096
 11
12.6143
 21
107.094
  0
LINE
  8
0
 10
12.6143
 20
107.094
 11
12.6426
 21
107.091
  0
LINE
  8
0
 10
12.6426
 20
107.091
 11
12.6699
 21
107.088
  0
LINE
  8
0
 10
12.6699
 20
107.088
 11
12.6973
 21
107.084
  0
LINE
  8
0
 10
12.6973
 20
107.084
 11
12.7256
 21
107.08
  0
LINE
  8
0
 10
12.7256
 20
107.08
 11
12.7529
 21
107.076
  0
LINE
  8
0
 10
12.7529
 20
107.076
 11
12.7803
 21
107.07
  0
LINE
  8
0
 10
12.7803
 20
107.07
 11
12.8076
 21
107.065
  0
LINE
  8
0
 10
12.8076
 20
107.065
 11
12.835
 21
107.059
  0
LINE
  8
0
 10
12.835
 20
107.059
 11
12.8623
 21
107.053
  0
LINE
  8
0
 10
12.8623
 20
107.053
 11
12.8887
 21
107.046
  0
LINE
  8
0
 10
12.8887
 20
107.046
 11
12.916
 21
107.038
  0
LINE
  8
0
 10
12.916
 20
107.038
 11
12.9424
 21
107.03
  0
LINE
  8
0
 10
12.9424
 20
107.03
 11
12.9697
 21
107.021
  0
LINE
  8
0
 10
12.9697
 20
107.021
 11
13.0225
 21
107.004
  0
LINE
  8
0
 10
13.0225
 20
107.004
 11
13.0488
 21
106.994
  0
LINE
  8
0
 10
13.0488
 20
106.994
 11
13.0742
 21
106.983
  0
LINE
  8
0
 10
13.0742
 20
106.983
 11
13.1006
 21
106.973
  0
LINE
  8
0
 10
13.1006
 20
106.973
 11
13.126
 21
106.962
  0
LINE
  8
0
 10
13.126
 20
106.962
 11
13.1768
 21
106.938
  0
LINE
  8
0
 10
13.1768
 20
106.938
 11
13.2012
 21
106.926
  0
LINE
  8
0
 10
13.2012
 20
106.926
 11
13.2266
 21
106.913
  0
LINE
  8
0
 10
13.2266
 20
106.913
 11
13.2754
 21
106.886
  0
LINE
  8
0
 10
13.2754
 20
106.886
 11
13.2988
 21
106.871
  0
LINE
  8
0
 10
13.2988
 20
106.871
 11
13.3232
 21
106.856
  0
LINE
  8
0
 10
13.3232
 20
106.856
 11
13.3467
 21
106.842
  0
LINE
  8
0
 10
13.3467
 20
106.842
 11
13.3701
 21
106.826
  0
LINE
  8
0
 10
13.3701
 20
106.826
 11
13.3926
 21
106.811
  0
LINE
  8
0
 10
13.3926
 20
106.811
 11
13.46
 21
106.761
  0
LINE
  8
0
 10
13.46
 20
106.761
 11
13.4814
 21
106.743
  0
LINE
  8
0
 10
13.4814
 20
106.743
 11
13.5039
 21
106.726
  0
LINE
  8
0
 10
13.5039
 20
106.726
 11
13.5244
 21
106.708
  0
LINE
  8
0
 10
13.5244
 20
106.708
 11
13.5459
 21
106.689
  0
LINE
  8
0
 10
13.5459
 20
106.689
 11
13.5664
 21
106.67
  0
LINE
  8
0
 10
13.5664
 20
106.67
 11
13.5869
 21
106.651
  0
LINE
  8
0
 10
13.5869
 20
106.651
 11
13.6064
 21
106.632
  0
LINE
  8
0
 10
13.6064
 20
106.632
 11
13.6455
 21
106.591
  0
LINE
  8
0
 10
13.6455
 20
106.591
 11
13.6826
 21
106.55
  0
LINE
  8
0
 10
13.6826
 20
106.55
 11
13.7002
 21
106.528
  0
LINE
  8
0
 10
13.7002
 20
106.528
 11
13.7188
 21
106.507
  0
LINE
  8
0
 10
13.7188
 20
106.507
 11
13.7354
 21
106.485
  0
LINE
  8
0
 10
13.7354
 20
106.485
 11
13.7529
 21
106.463
  0
LINE
  8
0
 10
13.7529
 20
106.463
 11
13.7695
 21
106.44
  0
LINE
  8
0
 10
13.7695
 20
106.44
 11
13.7852
 21
106.418
  0
LINE
  8
0
 10
13.7852
 20
106.418
 11
13.8018
 21
106.395
  0
LINE
  8
0
 10
13.8018
 20
106.395
 11
13.8164
 21
106.371
  0
LINE
  8
0
 10
13.8164
 20
106.371
 11
13.832
 21
106.348
  0
LINE
  8
0
 10
13.832
 20
106.348
 11
13.8467
 21
106.324
  0
LINE
  8
0
 10
13.8467
 20
106.324
 11
13.8877
 21
106.251
  0
LINE
  8
0
 10
13.8877
 20
106.251
 11
13.9004
 21
106.227
  0
LINE
  8
0
 10
13.9004
 20
106.227
 11
13.9131
 21
106.201
  0
LINE
  8
0
 10
13.9131
 20
106.201
 11
13.9482
 21
106.125
  0
LINE
  8
0
 10
13.9482
 20
106.125
 11
13.958
 21
106.1
  0
LINE
  8
0
 10
13.958
 20
106.1
 11
13.9688
 21
106.073
  0
LINE
  8
0
 10
13.9688
 20
106.073
 11
13.9883
 21
106.021
  0
LINE
  8
0
 10
13.9883
 20
106.021
 11
13.9971
 21
105.994
  0
LINE
  8
0
 10
13.9971
 20
105.994
 11
14.0127
 21
105.941
  0
LINE
  8
0
 10
14.0127
 20
105.941
 11
14.0205
 21
105.914
  0
LINE
  8
0
 10
14.0205
 20
105.914
 11
14.0273
 21
105.887
  0
LINE
  8
0
 10
14.0273
 20
105.887
 11
14.0342
 21
105.86
  0
LINE
  8
0
 10
14.0342
 20
105.86
 11
14.0459
 21
105.806
  0
LINE
  8
0
 10
14.0459
 20
105.806
 11
14.0508
 21
105.778
  0
LINE
  8
0
 10
14.0508
 20
105.778
 11
14.0557
 21
105.75
  0
LINE
  8
0
 10
14.0557
 20
105.75
 11
14.0635
 21
105.695
  0
LINE
  8
0
 10
14.0635
 20
105.695
 11
14.0664
 21
105.667
  0
LINE
  8
0
 10
14.0664
 20
105.667
 11
14.0693
 21
105.64
  0
LINE
  8
0
 10
14.0693
 20
105.64
 11
14.0713
 21
105.611
  0
LINE
  8
0
 10
14.0713
 20
105.611
 11
14.0732
 21
105.584
  0
LINE
  8
0
 10
14.0732
 20
105.584
 11
14.0752
 21
105.528
  0
LINE
  8
0
 10
14.0752
 20
105.528
 11
14.0752
 21
105.472
  0
LINE
  8
0
 10
14.0752
 20
105.472
 11
14.0732
 21
105.416
  0
LINE
  8
0
 10
14.0732
 20
105.416
 11
14.0713
 21
105.389
  0
LINE
  8
0
 10
14.0713
 20
105.389
 11
14.0693
 21
105.36
  0
LINE
  8
0
 10
14.0693
 20
105.36
 11
14.0664
 21
105.333
  0
LINE
  8
0
 10
14.0664
 20
105.333
 11
14.0635
 21
105.305
  0
LINE
  8
0
 10
14.0635
 20
105.305
 11
14.0557
 21
105.25
  0
LINE
  8
0
 10
14.0557
 20
105.25
 11
14.0508
 21
105.222
  0
LINE
  8
0
 10
14.0508
 20
105.222
 11
14.0459
 21
105.194
  0
LINE
  8
0
 10
14.0459
 20
105.194
 11
14.0342
 21
105.14
  0
LINE
  8
0
 10
14.0342
 20
105.14
 11
14.0273
 21
105.113
  0
LINE
  8
0
 10
14.0273
 20
105.113
 11
14.0205
 21
105.086
  0
LINE
  8
0
 10
14.0205
 20
105.086
 11
14.0127
 21
105.059
  0
LINE
  8
0
 10
14.0127
 20
105.059
 11
13.9971
 21
105.006
  0
LINE
  8
0
 10
13.9971
 20
105.006
 11
13.9883
 21
104.979
  0
LINE
  8
0
 10
13.9883
 20
104.979
 11
13.9688
 21
104.927
  0
LINE
  8
0
 10
13.9688
 20
104.927
 11
13.958
 21
104.9
  0
LINE
  8
0
 10
13.958
 20
104.9
 11
13.9482
 21
104.875
  0
LINE
  8
0
 10
13.9482
 20
104.875
 11
13.9131
 21
104.799
  0
LINE
  8
0
 10
13.9131
 20
104.799
 11
13.9004
 21
104.773
  0
LINE
  8
0
 10
13.9004
 20
104.773
 11
13.8877
 21
104.749
  0
LINE
  8
0
 10
13.8877
 20
104.749
 11
13.8467
 21
104.676
  0
LINE
  8
0
 10
13.8467
 20
104.676
 11
13.832
 21
104.652
  0
LINE
  8
0
 10
13.832
 20
104.652
 11
13.8164
 21
104.629
  0
LINE
  8
0
 10
13.8164
 20
104.629
 11
13.8018
 21
104.605
  0
LINE
  8
0
 10
13.8018
 20
104.605
 11
13.7852
 21
104.582
  0
LINE
  8
0
 10
13.7852
 20
104.582
 11
13.7695
 21
104.56
  0
LINE
  8
0
 10
13.7695
 20
104.56
 11
13.7529
 21
104.537
  0
LINE
  8
0
 10
13.7529
 20
104.537
 11
13.7354
 21
104.515
  0
LINE
  8
0
 10
13.7354
 20
104.515
 11
13.7188
 21
104.493
  0
LINE
  8
0
 10
13.7188
 20
104.493
 11
13.7002
 21
104.472
  0
LINE
  8
0
 10
13.7002
 20
104.472
 11
13.6826
 21
104.45
  0
LINE
  8
0
 10
13.6826
 20
104.45
 11
13.6455
 21
104.409
  0
LINE
  8
0
 10
13.6455
 20
104.409
 11
13.6064
 21
104.368
  0
LINE
  8
0
 10
13.6064
 20
104.368
 11
13.5869
 21
104.349
  0
LINE
  8
0
 10
13.5869
 20
104.349
 11
13.5664
 21
104.33
  0
LINE
  8
0
 10
13.5664
 20
104.33
 11
13.5459
 21
104.311
  0
LINE
  8
0
 10
13.5459
 20
104.311
 11
13.5244
 21
104.292
  0
LINE
  8
0
 10
13.5244
 20
104.292
 11
13.5039
 21
104.274
  0
LINE
  8
0
 10
13.5039
 20
104.274
 11
13.4814
 21
104.257
  0
LINE
  8
0
 10
13.4814
 20
104.257
 11
13.46
 21
104.239
  0
LINE
  8
0
 10
13.46
 20
104.239
 11
13.3926
 21
104.189
  0
LINE
  8
0
 10
13.3926
 20
104.189
 11
13.3701
 21
104.174
  0
LINE
  8
0
 10
13.3701
 20
104.174
 11
13.3467
 21
104.158
  0
LINE
  8
0
 10
13.3467
 20
104.158
 11
13.3232
 21
104.144
  0
LINE
  8
0
 10
13.3232
 20
104.144
 11
13.2988
 21
104.129
  0
LINE
  8
0
 10
13.2988
 20
104.129
 11
13.2754
 21
104.114
  0
LINE
  8
0
 10
13.2754
 20
104.114
 11
13.2266
 21
104.087
  0
LINE
  8
0
 10
13.2266
 20
104.087
 11
13.2012
 21
104.074
  0
LINE
  8
0
 10
13.2012
 20
104.074
 11
13.1768
 21
104.062
  0
LINE
  8
0
 10
13.1768
 20
104.062
 11
13.126
 21
104.038
  0
LINE
  8
0
 10
13.126
 20
104.038
 11
13.1006
 21
104.027
  0
LINE
  8
0
 10
13.1006
 20
104.027
 11
13.0742
 21
104.017
  0
LINE
  8
0
 10
13.0742
 20
104.017
 11
13.0488
 21
104.006
  0
LINE
  8
0
 10
13.0488
 20
104.006
 11
13.0225
 21
103.996
  0
LINE
  8
0
 10
13.0225
 20
103.996
 11
12.9697
 21
103.979
  0
LINE
  8
0
 10
12.9697
 20
103.979
 11
12.9424
 21
103.97
  0
LINE
  8
0
 10
12.9424
 20
103.97
 11
12.916
 21
103.962
  0
LINE
  8
0
 10
12.916
 20
103.962
 11
12.8887
 21
103.954
  0
LINE
  8
0
 10
12.8887
 20
103.954
 11
12.8623
 21
103.947
  0
LINE
  8
0
 10
12.8623
 20
103.947
 11
12.835
 21
103.941
  0
LINE
  8
0
 10
12.835
 20
103.941
 11
12.8076
 21
103.935
  0
LINE
  8
0
 10
12.8076
 20
103.935
 11
12.7803
 21
103.93
  0
LINE
  8
0
 10
12.7803
 20
103.93
 11
12.7529
 21
103.924
  0
LINE
  8
0
 10
12.7529
 20
103.924
 11
12.7256
 21
103.92
  0
LINE
  8
0
 10
12.7256
 20
103.92
 11
12.6973
 21
103.916
  0
LINE
  8
0
 10
12.6973
 20
103.916
 11
12.6699
 21
103.912
  0
LINE
  8
0
 10
12.6699
 20
103.912
 11
12.6426
 21
103.909
  0
LINE
  8
0
 10
12.6426
 20
103.909
 11
12.6143
 21
103.906
  0
LINE
  8
0
 10
12.6143
 20
103.906
 11
12.5869
 21
103.904
  0
LINE
  8
0
 10
12.5869
 20
103.904
 11
12.5586
 21
103.902
  0
LINE
  8
0
 10
12.5586
 20
103.902
 11
12.5029
 21
103.9
  0
LINE
  8
0
 10
12.5029
 20
103.9
 11
12.4473
 21
103.9
  0
LINE
  8
0
 10
88.4473
 20
51.9004
 11
88.3916
 21
51.9023
  0
LINE
  8
0
 10
88.3916
 20
51.9023
 11
88.3633
 21
51.9043
  0
LINE
  8
0
 10
88.3633
 20
51.9043
 11
88.3359
 21
51.9062
  0
LINE
  8
0
 10
88.3359
 20
51.9062
 11
88.3076
 21
51.9092
  0
LINE
  8
0
 10
88.3076
 20
51.9092
 11
88.2803
 21
51.9121
  0
LINE
  8
0
 10
88.2803
 20
51.9121
 11
88.252
 21
51.916
  0
LINE
  8
0
 10
88.252
 20
51.916
 11
88.1973
 21
51.9238
  0
LINE
  8
0
 10
88.1973
 20
51.9238
 11
88.1699
 21
51.9297
  0
LINE
  8
0
 10
88.1699
 20
51.9297
 11
88.1426
 21
51.9346
  0
LINE
  8
0
 10
88.1426
 20
51.9346
 11
88.1152
 21
51.9414
  0
LINE
  8
0
 10
88.1152
 20
51.9414
 11
88.0879
 21
51.9473
  0
LINE
  8
0
 10
88.0879
 20
51.9473
 11
88.0605
 21
51.9541
  0
LINE
  8
0
 10
88.0605
 20
51.9541
 11
88.0342
 21
51.9619
  0
LINE
  8
0
 10
88.0342
 20
51.9619
 11
88.0068
 21
51.9697
  0
LINE
  8
0
 10
88.0068
 20
51.9697
 11
87.9277
 21
51.9961
  0
LINE
  8
0
 10
87.9277
 20
51.9961
 11
87.9014
 21
52.0059
  0
LINE
  8
0
 10
87.9014
 20
52.0059
 11
87.876
 21
52.0166
  0
LINE
  8
0
 10
87.876
 20
52.0166
 11
87.8496
 21
52.0273
  0
LINE
  8
0
 10
87.8496
 20
52.0273
 11
87.8242
 21
52.0381
  0
LINE
  8
0
 10
87.8242
 20
52.0381
 11
87.7734
 21
52.0615
  0
LINE
  8
0
 10
87.7734
 20
52.0615
 11
87.749
 21
52.0742
  0
LINE
  8
0
 10
87.749
 20
52.0742
 11
87.7236
 21
52.0869
  0
LINE
  8
0
 10
87.7236
 20
52.0869
 11
87.6748
 21
52.1143
  0
LINE
  8
0
 10
87.6748
 20
52.1143
 11
87.6514
 21
52.1289
  0
LINE
  8
0
 10
87.6514
 20
52.1289
 11
87.627
 21
52.1436
  0
LINE
  8
0
 10
87.627
 20
52.1436
 11
87.6035
 21
52.1582
  0
LINE
  8
0
 10
87.6035
 20
52.1582
 11
87.5801
 21
52.1738
  0
LINE
  8
0
 10
87.5801
 20
52.1738
 11
87.5576
 21
52.1895
  0
LINE
  8
0
 10
87.5576
 20
52.1895
 11
87.5342
 21
52.2061
  0
LINE
  8
0
 10
87.5342
 20
52.2061
 11
87.5117
 21
52.2227
  0
LINE
  8
0
 10
87.5117
 20
52.2227
 11
87.4902
 21
52.2393
  0
LINE
  8
0
 10
87.4902
 20
52.2393
 11
87.4678
 21
52.2568
  0
LINE
  8
0
 10
87.4678
 20
52.2568
 11
87.4463
 21
52.2744
  0
LINE
  8
0
 10
87.4463
 20
52.2744
 11
87.4258
 21
52.292
  0
LINE
  8
0
 10
87.4258
 20
52.292
 11
87.4043
 21
52.3105
  0
LINE
  8
0
 10
87.4043
 20
52.3105
 11
87.3838
 21
52.3301
  0
LINE
  8
0
 10
87.3838
 20
52.3301
 11
87.3633
 21
52.3486
  0
LINE
  8
0
 10
87.3633
 20
52.3486
 11
87.3438
 21
52.3682
  0
LINE
  8
0
 10
87.3438
 20
52.3682
 11
87.3047
 21
52.4092
  0
LINE
  8
0
 10
87.3047
 20
52.4092
 11
87.2676
 21
52.4502
  0
LINE
  8
0
 10
87.2676
 20
52.4502
 11
87.249
 21
52.4717
  0
LINE
  8
0
 10
87.249
 20
52.4717
 11
87.2139
 21
52.5146
  0
LINE
  8
0
 10
87.2139
 20
52.5146
 11
87.1641
 21
52.582
  0
LINE
  8
0
 10
87.1641
 20
52.582
 11
87.1328
 21
52.6289
  0
LINE
  8
0
 10
87.1328
 20
52.6289
 11
87.1035
 21
52.6758
  0
LINE
  8
0
 10
87.1035
 20
52.6758
 11
87.0898
 21
52.7002
  0
LINE
  8
0
 10
87.0898
 20
52.7002
 11
87.0752
 21
52.7246
  0
LINE
  8
0
 10
87.0752
 20
52.7246
 11
87.0498
 21
52.7734
  0
LINE
  8
0
 10
87.0498
 20
52.7734
 11
87.0371
 21
52.7988
  0
LINE
  8
0
 10
87.0371
 20
52.7988
 11
87.002
 21
52.875
  0
LINE
  8
0
 10
87.002
 20
52.875
 11
86.9912
 21
52.9004
  0
LINE
  8
0
 10
86.9912
 20
52.9004
 11
86.9619
 21
52.9795
  0
LINE
  8
0
 10
86.9619
 20
52.9795
 11
86.9531
 21
53.0059
  0
LINE
  8
0
 10
86.9531
 20
53.0059
 11
86.9453
 21
53.0322
  0
LINE
  8
0
 10
86.9453
 20
53.0322
 11
86.9365
 21
53.0586
  0
LINE
  8
0
 10
86.9365
 20
53.0586
 11
86.9229
 21
53.1133
  0
LINE
  8
0
 10
86.9229
 20
53.1133
 11
86.916
 21
53.1396
  0
LINE
  8
0
 10
86.916
 20
53.1396
 11
86.9043
 21
53.1943
  0
LINE
  8
0
 10
86.9043
 20
53.1943
 11
86.8994
 21
53.2217
  0
LINE
  8
0
 10
86.8994
 20
53.2217
 11
86.8945
 21
53.25
  0
LINE
  8
0
 10
86.8945
 20
53.25
 11
86.8867
 21
53.3047
  0
LINE
  8
0
 10
86.8867
 20
53.3047
 11
86.8838
 21
53.333
  0
LINE
  8
0
 10
86.8838
 20
53.333
 11
86.8809
 21
53.3604
  0
LINE
  8
0
 10
86.8809
 20
53.3604
 11
86.8789
 21
53.3887
  0
LINE
  8
0
 10
86.8789
 20
53.3887
 11
86.877
 21
53.416
  0
LINE
  8
0
 10
86.877
 20
53.416
 11
86.875
 21
53.4717
  0
LINE
  8
0
 10
86.875
 20
53.4717
 11
86.875
 21
53.5283
  0
LINE
  8
0
 10
86.875
 20
53.5283
 11
86.877
 21
53.584
  0
LINE
  8
0
 10
86.877
 20
53.584
 11
86.8789
 21
53.6113
  0
LINE
  8
0
 10
86.8789
 20
53.6113
 11
86.8809
 21
53.6396
  0
LINE
  8
0
 10
86.8809
 20
53.6396
 11
86.8838
 21
53.667
  0
LINE
  8
0
 10
86.8838
 20
53.667
 11
86.8867
 21
53.6953
  0
LINE
  8
0
 10
86.8867
 20
53.6953
 11
86.8945
 21
53.75
  0
LINE
  8
0
 10
86.8945
 20
53.75
 11
86.8994
 21
53.7783
  0
LINE
  8
0
 10
86.8994
 20
53.7783
 11
86.9043
 21
53.8057
  0
LINE
  8
0
 10
86.9043
 20
53.8057
 11
86.916
 21
53.8604
  0
LINE
  8
0
 10
86.916
 20
53.8604
 11
86.9229
 21
53.8867
  0
LINE
  8
0
 10
86.9229
 20
53.8867
 11
86.9365
 21
53.9414
  0
LINE
  8
0
 10
86.9365
 20
53.9414
 11
86.9453
 21
53.9678
  0
LINE
  8
0
 10
86.9453
 20
53.9678
 11
86.9531
 21
53.9941
  0
LINE
  8
0
 10
86.9531
 20
53.9941
 11
86.9619
 21
54.0205
  0
LINE
  8
0
 10
86.9619
 20
54.0205
 11
86.9912
 21
54.0996
  0
LINE
  8
0
 10
86.9912
 20
54.0996
 11
87.002
 21
54.125
  0
LINE
  8
0
 10
87.002
 20
54.125
 11
87.0371
 21
54.2012
  0
LINE
  8
0
 10
87.0371
 20
54.2012
 11
87.0498
 21
54.2266
  0
LINE
  8
0
 10
87.0498
 20
54.2266
 11
87.0752
 21
54.2754
  0
LINE
  8
0
 10
87.0752
 20
54.2754
 11
87.0898
 21
54.2998
  0
LINE
  8
0
 10
87.0898
 20
54.2998
 11
87.1035
 21
54.3242
  0
LINE
  8
0
 10
87.1035
 20
54.3242
 11
87.1328
 21
54.3711
  0
LINE
  8
0
 10
87.1328
 20
54.3711
 11
87.1641
 21
54.418
  0
LINE
  8
0
 10
87.1641
 20
54.418
 11
87.2139
 21
54.4854
  0
LINE
  8
0
 10
87.2139
 20
54.4854
 11
87.249
 21
54.5283
  0
LINE
  8
0
 10
87.249
 20
54.5283
 11
87.2676
 21
54.5498
  0
LINE
  8
0
 10
87.2676
 20
54.5498
 11
87.3047
 21
54.5908
  0
LINE
  8
0
 10
87.3047
 20
54.5908
 11
87.3438
 21
54.6318
  0
LINE
  8
0
 10
87.3438
 20
54.6318
 11
87.3633
 21
54.6514
  0
LINE
  8
0
 10
87.3633
 20
54.6514
 11
87.3838
 21
54.6699
  0
LINE
  8
0
 10
87.3838
 20
54.6699
 11
87.4043
 21
54.6895
  0
LINE
  8
0
 10
87.4043
 20
54.6895
 11
87.4258
 21
54.708
  0
LINE
  8
0
 10
87.4258
 20
54.708
 11
87.4463
 21
54.7256
  0
LINE
  8
0
 10
87.4463
 20
54.7256
 11
87.4678
 21
54.7432
  0
LINE
  8
0
 10
87.4678
 20
54.7432
 11
87.4902
 21
54.7607
  0
LINE
  8
0
 10
87.4902
 20
54.7607
 11
87.5117
 21
54.7773
  0
LINE
  8
0
 10
87.5117
 20
54.7773
 11
87.5342
 21
54.7939
  0
LINE
  8
0
 10
87.5342
 20
54.7939
 11
87.5576
 21
54.8105
  0
LINE
  8
0
 10
87.5576
 20
54.8105
 11
87.5801
 21
54.8262
  0
LINE
  8
0
 10
87.5801
 20
54.8262
 11
87.6035
 21
54.8418
  0
LINE
  8
0
 10
87.6035
 20
54.8418
 11
87.627
 21
54.8564
  0
LINE
  8
0
 10
87.627
 20
54.8564
 11
87.6514
 21
54.8711
  0
LINE
  8
0
 10
87.6514
 20
54.8711
 11
87.6748
 21
54.8857
  0
LINE
  8
0
 10
87.6748
 20
54.8857
 11
87.7236
 21
54.9131
  0
LINE
  8
0
 10
87.7236
 20
54.9131
 11
87.749
 21
54.9258
  0
LINE
  8
0
 10
87.749
 20
54.9258
 11
87.7734
 21
54.9385
  0
LINE
  8
0
 10
87.7734
 20
54.9385
 11
87.8242
 21
54.9619
  0
LINE
  8
0
 10
87.8242
 20
54.9619
 11
87.8496
 21
54.9727
  0
LINE
  8
0
 10
87.8496
 20
54.9727
 11
87.876
 21
54.9834
  0
LINE
  8
0
 10
87.876
 20
54.9834
 11
87.9014
 21
54.9941
  0
LINE
  8
0
 10
87.9014
 20
54.9941
 11
87.9277
 21
55.0039
  0
LINE
  8
0
 10
87.9277
 20
55.0039
 11
88.0068
 21
55.0303
  0
LINE
  8
0
 10
88.0068
 20
55.0303
 11
88.0342
 21
55.0381
  0
LINE
  8
0
 10
88.0342
 20
55.0381
 11
88.0605
 21
55.0459
  0
LINE
  8
0
 10
88.0605
 20
55.0459
 11
88.0879
 21
55.0527
  0
LINE
  8
0
 10
88.0879
 20
55.0527
 11
88.1152
 21
55.0586
  0
LINE
  8
0
 10
88.1152
 20
55.0586
 11
88.1426
 21
55.0654
  0
LINE
  8
0
 10
88.1426
 20
55.0654
 11
88.1699
 21
55.0703
  0
LINE
  8
0
 10
88.1699
 20
55.0703
 11
88.1973
 21
55.0762
  0
LINE
  8
0
 10
88.1973
 20
55.0762
 11
88.252
 21
55.084
  0
LINE
  8
0
 10
88.252
 20
55.084
 11
88.2803
 21
55.0879
  0
LINE
  8
0
 10
88.2803
 20
55.0879
 11
88.3076
 21
55.0908
  0
LINE
  8
0
 10
88.3076
 20
55.0908
 11
88.3359
 21
55.0938
  0
LINE
  8
0
 10
88.3359
 20
55.0938
 11
88.3633
 21
55.0957
  0
LINE
  8
0
 10
88.3633
 20
55.0957
 11
88.3916
 21
55.0977
  0
LINE
  8
0
 10
88.3916
 20
55.0977
 11
88.4473
 21
55.0996
  0
LINE
  8
0
 10
88.4473
 20
55.0996
 11
88.5029
 21
55.0996
  0
LINE
  8
0
 10
88.5029
 20
55.0996
 11
88.5586
 21
55.0977
  0
LINE
  8
0
 10
88.5586
 20
55.0977
 11
88.5869
 21
55.0957
  0
LINE
  8
0
 10
88.5869
 20
55.0957
 11
88.6143
 21
55.0938
  0
LINE
  8
0
 10
88.6143
 20
55.0938
 11
88.6426
 21
55.0908
  0
LINE
  8
0
 10
88.6426
 20
55.0908
 11
88.6699
 21
55.0879
  0
LINE
  8
0
 10
88.6699
 20
55.0879
 11
88.6973
 21
55.084
  0
LINE
  8
0
 10
88.6973
 20
55.084
 11
88.7256
 21
55.0801
  0
LINE
  8
0
 10
88.7256
 20
55.0801
 11
88.7529
 21
55.0762
  0
LINE
  8
0
 10
88.7529
 20
55.0762
 11
88.7803
 21
55.0703
  0
LINE
  8
0
 10
88.7803
 20
55.0703
 11
88.8076
 21
55.0654
  0
LINE
  8
0
 10
88.8076
 20
55.0654
 11
88.835
 21
55.0586
  0
LINE
  8
0
 10
88.835
 20
55.0586
 11
88.8623
 21
55.0527
  0
LINE
  8
0
 10
88.8623
 20
55.0527
 11
88.8887
 21
55.0459
  0
LINE
  8
0
 10
88.8887
 20
55.0459
 11
88.916
 21
55.0381
  0
LINE
  8
0
 10
88.916
 20
55.0381
 11
88.9424
 21
55.0303
  0
LINE
  8
0
 10
88.9424
 20
55.0303
 11
88.9697
 21
55.0215
  0
LINE
  8
0
 10
88.9697
 20
55.0215
 11
89.0225
 21
55.0039
  0
LINE
  8
0
 10
89.0225
 20
55.0039
 11
89.0488
 21
54.9941
  0
LINE
  8
0
 10
89.0488
 20
54.9941
 11
89.0742
 21
54.9834
  0
LINE
  8
0
 10
89.0742
 20
54.9834
 11
89.1006
 21
54.9727
  0
LINE
  8
0
 10
89.1006
 20
54.9727
 11
89.126
 21
54.9619
  0
LINE
  8
0
 10
89.126
 20
54.9619
 11
89.1768
 21
54.9385
  0
LINE
  8
0
 10
89.1768
 20
54.9385
 11
89.2012
 21
54.9258
  0
LINE
  8
0
 10
89.2012
 20
54.9258
 11
89.2266
 21
54.9131
  0
LINE
  8
0
 10
89.2266
 20
54.9131
 11
89.2754
 21
54.8857
  0
LINE
  8
0
 10
89.2754
 20
54.8857
 11
89.2988
 21
54.8711
  0
LINE
  8
0
 10
89.2988
 20
54.8711
 11
89.3232
 21
54.8564
  0
LINE
  8
0
 10
89.3232
 20
54.8564
 11
89.3467
 21
54.8418
  0
LINE
  8
0
 10
89.3467
 20
54.8418
 11
89.3701
 21
54.8262
  0
LINE
  8
0
 10
89.3701
 20
54.8262
 11
89.3926
 21
54.8105
  0
LINE
  8
0
 10
89.3926
 20
54.8105
 11
89.46
 21
54.7607
  0
LINE
  8
0
 10
89.46
 20
54.7607
 11
89.4814
 21
54.7432
  0
LINE
  8
0
 10
89.4814
 20
54.7432
 11
89.5039
 21
54.7256
  0
LINE
  8
0
 10
89.5039
 20
54.7256
 11
89.5244
 21
54.708
  0
LINE
  8
0
 10
89.5244
 20
54.708
 11
89.5459
 21
54.6895
  0
LINE
  8
0
 10
89.5459
 20
54.6895
 11
89.5664
 21
54.6699
  0
LINE
  8
0
 10
89.5664
 20
54.6699
 11
89.5869
 21
54.6514
  0
LINE
  8
0
 10
89.5869
 20
54.6514
 11
89.6064
 21
54.6318
  0
LINE
  8
0
 10
89.6064
 20
54.6318
 11
89.6455
 21
54.5908
  0
LINE
  8
0
 10
89.6455
 20
54.5908
 11
89.6826
 21
54.5498
  0
LINE
  8
0
 10
89.6826
 20
54.5498
 11
89.7002
 21
54.5283
  0
LINE
  8
0
 10
89.7002
 20
54.5283
 11
89.7188
 21
54.5068
  0
LINE
  8
0
 10
89.7188
 20
54.5068
 11
89.7354
 21
54.4854
  0
LINE
  8
0
 10
89.7354
 20
54.4854
 11
89.7529
 21
54.4629
  0
LINE
  8
0
 10
89.7529
 20
54.4629
 11
89.7695
 21
54.4404
  0
LINE
  8
0
 10
89.7695
 20
54.4404
 11
89.7852
 21
54.418
  0
LINE
  8
0
 10
89.7852
 20
54.418
 11
89.8018
 21
54.3945
  0
LINE
  8
0
 10
89.8018
 20
54.3945
 11
89.8164
 21
54.3711
  0
LINE
  8
0
 10
89.8164
 20
54.3711
 11
89.832
 21
54.3477
  0
LINE
  8
0
 10
89.832
 20
54.3477
 11
89.8467
 21
54.3242
  0
LINE
  8
0
 10
89.8467
 20
54.3242
 11
89.8877
 21
54.251
  0
LINE
  8
0
 10
89.8877
 20
54.251
 11
89.9004
 21
54.2266
  0
LINE
  8
0
 10
89.9004
 20
54.2266
 11
89.9131
 21
54.2012
  0
LINE
  8
0
 10
89.9131
 20
54.2012
 11
89.9482
 21
54.125
  0
LINE
  8
0
 10
89.9482
 20
54.125
 11
89.958
 21
54.0996
  0
LINE
  8
0
 10
89.958
 20
54.0996
 11
89.9688
 21
54.0732
  0
LINE
  8
0
 10
89.9688
 20
54.0732
 11
89.9883
 21
54.0205
  0
LINE
  8
0
 10
89.9883
 20
54.0205
 11
89.9971
 21
53.9941
  0
LINE
  8
0
 10
89.9971
 20
53.9941
 11
90.0127
 21
53.9414
  0
LINE
  8
0
 10
90.0127
 20
53.9414
 11
90.0205
 21
53.9141
  0
LINE
  8
0
 10
90.0205
 20
53.9141
 11
90.0273
 21
53.8867
  0
LINE
  8
0
 10
90.0273
 20
53.8867
 11
90.0342
 21
53.8604
  0
LINE
  8
0
 10
90.0342
 20
53.8604
 11
90.0459
 21
53.8057
  0
LINE
  8
0
 10
90.0459
 20
53.8057
 11
90.0508
 21
53.7783
  0
LINE
  8
0
 10
90.0508
 20
53.7783
 11
90.0557
 21
53.75
  0
LINE
  8
0
 10
90.0557
 20
53.75
 11
90.0635
 21
53.6953
  0
LINE
  8
0
 10
90.0635
 20
53.6953
 11
90.0664
 21
53.667
  0
LINE
  8
0
 10
90.0664
 20
53.667
 11
90.0693
 21
53.6396
  0
LINE
  8
0
 10
90.0693
 20
53.6396
 11
90.0713
 21
53.6113
  0
LINE
  8
0
 10
90.0713
 20
53.6113
 11
90.0732
 21
53.584
  0
LINE
  8
0
 10
90.0732
 20
53.584
 11
90.0752
 21
53.5283
  0
LINE
  8
0
 10
90.0752
 20
53.5283
 11
90.0752
 21
53.4717
  0
LINE
  8
0
 10
90.0752
 20
53.4717
 11
90.0732
 21
53.416
  0
LINE
  8
0
 10
90.0732
 20
53.416
 11
90.0713
 21
53.3887
  0
LINE
  8
0
 10
90.0713
 20
53.3887
 11
90.0693
 21
53.3604
  0
LINE
  8
0
 10
90.0693
 20
53.3604
 11
90.0664
 21
53.333
  0
LINE
  8
0
 10
90.0664
 20
53.333
 11
90.0635
 21
53.3047
  0
LINE
  8
0
 10
90.0635
 20
53.3047
 11
90.0557
 21
53.25
  0
LINE
  8
0
 10
90.0557
 20
53.25
 11
90.0508
 21
53.2217
  0
LINE
  8
0
 10
90.0508
 20
53.2217
 11
90.0459
 21
53.1943
  0
LINE
  8
0
 10
90.0459
 20
53.1943
 11
90.0342
 21
53.1396
  0
LINE
  8
0
 10
90.0342
 20
53.1396
 11
90.0273
 21
53.1133
  0
LINE
  8
0
 10
90.0273
 20
53.1133
 11
90.0205
 21
53.0859
  0
LINE
  8
0
 10
90.0205
 20
53.0859
 11
90.0127
 21
53.0586
  0
LINE
  8
0
 10
90.0127
 20
53.0586
 11
89.9971
 21
53.0059
  0
LINE
  8
0
 10
89.9971
 20
53.0059
 11
89.9883
 21
52.9795
  0
LINE
  8
0
 10
89.9883
 20
52.9795
 11
89.9688
 21
52.9268
  0
LINE
  8
0
 10
89.9688
 20
52.9268
 11
89.958
 21
52.9004
  0
LINE
  8
0
 10
89.958
 20
52.9004
 11
89.9482
 21
52.875
  0
LINE
  8
0
 10
89.9482
 20
52.875
 11
89.9131
 21
52.7988
  0
LINE
  8
0
 10
89.9131
 20
52.7988
 11
89.9004
 21
52.7734
  0
LINE
  8
0
 10
89.9004
 20
52.7734
 11
89.8877
 21
52.749
  0
LINE
  8
0
 10
89.8877
 20
52.749
 11
89.8467
 21
52.6758
  0
LINE
  8
0
 10
89.8467
 20
52.6758
 11
89.832
 21
52.6523
  0
LINE
  8
0
 10
89.832
 20
52.6523
 11
89.8164
 21
52.6289
  0
LINE
  8
0
 10
89.8164
 20
52.6289
 11
89.8018
 21
52.6055
  0
LINE
  8
0
 10
89.8018
 20
52.6055
 11
89.7852
 21
52.582
  0
LINE
  8
0
 10
89.7852
 20
52.582
 11
89.7695
 21
52.5596
  0
LINE
  8
0
 10
89.7695
 20
52.5596
 11
89.7529
 21
52.5371
  0
LINE
  8
0
 10
89.7529
 20
52.5371
 11
89.7354
 21
52.5146
  0
LINE
  8
0
 10
89.7354
 20
52.5146
 11
89.7188
 21
52.4932
  0
LINE
  8
0
 10
89.7188
 20
52.4932
 11
89.7002
 21
52.4717
  0
LINE
  8
0
 10
89.7002
 20
52.4717
 11
89.6826
 21
52.4502
  0
LINE
  8
0
 10
89.6826
 20
52.4502
 11
89.6455
 21
52.4092
  0
LINE
  8
0
 10
89.6455
 20
52.4092
 11
89.6064
 21
52.3682
  0
LINE
  8
0
 10
89.6064
 20
52.3682
 11
89.5869
 21
52.3486
  0
LINE
  8
0
 10
89.5869
 20
52.3486
 11
89.5664
 21
52.3301
  0
LINE
  8
0
 10
89.5664
 20
52.3301
 11
89.5459
 21
52.3105
  0
LINE
  8
0
 10
89.5459
 20
52.3105
 11
89.5244
 21
52.292
  0
LINE
  8
0
 10
89.5244
 20
52.292
 11
89.5039
 21
52.2744
  0
LINE
  8
0
 10
89.5039
 20
52.2744
 11
89.4814
 21
52.2568
  0
LINE
  8
0
 10
89.4814
 20
52.2568
 11
89.46
 21
52.2393
  0
LINE
  8
0
 10
89.46
 20
52.2393
 11
89.3926
 21
52.1895
  0
LINE
  8
0
 10
89.3926
 20
52.1895
 11
89.3701
 21
52.1738
  0
LINE
  8
0
 10
89.3701
 20
52.1738
 11
89.3467
 21
52.1582
  0
LINE
  8
0
 10
89.3467
 20
52.1582
 11
89.3232
 21
52.1436
  0
LINE
  8
0
 10
89.3232
 20
52.1436
 11
89.2988
 21
52.1289
  0
LINE
  8
0
 10
89.2988
 20
52.1289
 11
89.2754
 21
52.1143
  0
LINE
  8
0
 10
89.2754
 20
52.1143
 11
89.2266
 21
52.0869
  0
LINE
  8
0
 10
89.2266
 20
52.0869
 11
89.2012
 21
52.0742
  0
LINE
  8
0
 10
89.2012
 20
52.0742
 11
89.1768
 21
52.0615
  0
LINE
  8
0
 10
89.1768
 20
52.0615
 11
89.126
 21
52.0381
  0
LINE
  8
0
 10
89.126
 20
52.0381
 11
89.1006
 21
52.0273
  0
LINE
  8
0
 10
89.1006
 20
52.0273
 11
89.0742
 21
52.0166
  0
LINE
  8
0
 10
89.0742
 20
52.0166
 11
89.0488
 21
52.0059
  0
LINE
  8
0
 10
89.0488
 20
52.0059
 11
89.0225
 21
51.9961
  0
LINE
  8
0
 10
89.0225
 20
51.9961
 11
88.9697
 21
51.9785
  0
LINE
  8
0
 10
88.9697
 20
51.9785
 11
88.9424
 21
51.9697
  0
LINE
  8
0
 10
88.9424
 20
51.9697
 11
88.916
 21
51.9619
  0
LINE
  8
0
 10
88.916
 20
51.9619
 11
88.8887
 21
51.9541
  0
LINE
  8
0
 10
88.8887
 20
51.9541
 11
88.8623
 21
51.9473
  0
LINE
  8
0
 10
88.8623
 20
51.9473
 11
88.835
 21
51.9414
  0
LINE
  8
0
 10
88.835
 20
51.9414
 11
88.8076
 21
51.9346
  0
LINE
  8
0
 10
88.8076
 20
51.9346
 11
88.7803
 21
51.9297
  0
LINE
  8
0
 10
88.7803
 20
51.9297
 11
88.7529
 21
51.9238
  0
LINE
  8
0
 10
88.7529
 20
51.9238
 11
88.7256
 21
51.9199
  0
LINE
  8
0
 10
88.7256
 20
51.9199
 11
88.6973
 21
51.916
  0
LINE
  8
0
 10
88.6973
 20
51.916
 11
88.6699
 21
51.9121
  0
LINE
  8
0
 10
88.6699
 20
51.9121
 11
88.6426
 21
51.9092
  0
LINE
  8
0
 10
88.6426
 20
51.9092
 11
88.6143
 21
51.9062
  0
LINE
  8
0
 10
88.6143
 20
51.9062
 11
88.5869
 21
51.9043
  0
LINE
  8
0
 10
88.5869
 20
51.9043
 11
88.5586
 21
51.9023
  0
LINE
  8
0
 10
88.5586
 20
51.9023
 11
88.5029
 21
51.9004
  0
LINE
  8
0
 10
88.5029
 20
51.9004
 11
88.4473
 21
51.9004
  0
LINE
  8
0
 10
12.4473
 20
51.9004
 11
12.3916
 21
51.9023
  0
LINE
  8
0
 10
12.3916
 20
51.9023
 11
12.3633
 21
51.9043
  0
LINE
  8
0
 10
12.3633
 20
51.9043
 11
12.3359
 21
51.9062
  0
LINE
  8
0
 10
12.3359
 20
51.9062
 11
12.3076
 21
51.9092
  0
LINE
  8
0
 10
12.3076
 20
51.9092
 11
12.2803
 21
51.9121
  0
LINE
  8
0
 10
12.2803
 20
51.9121
 11
12.252
 21
51.916
  0
LINE
  8
0
 10
12.252
 20
51.916
 11
12.1973
 21
51.9238
  0
LINE
  8
0
 10
12.1973
 20
51.9238
 11
12.1699
 21
51.9297
  0
LINE
  8
0
 10
12.1699
 20
51.9297
 11
12.1426
 21
51.9346
  0
LINE
  8
0
 10
12.1426
 20
51.9346
 11
12.1152
 21
51.9414
  0
LINE
  8
0
 10
12.1152
 20
51.9414
 11
12.0879
 21
51.9473
  0
LINE
  8
0
 10
12.0879
 20
51.9473
 11
12.0605
 21
51.9541
  0
LINE
  8
0
 10
12.0605
 20
51.9541
 11
12.0342
 21
51.9619
  0
LINE
  8
0
 10
12.0342
 20
51.9619
 11
12.0068
 21
51.9697
  0
LINE
  8
0
 10
12.0068
 20
51.9697
 11
11.9277
 21
51.9961
  0
LINE
  8
0
 10
11.9277
 20
51.9961
 11
11.9014
 21
52.0059
  0
LINE
  8
0
 10
11.9014
 20
52.0059
 11
11.876
 21
52.0166
  0
LINE
  8
0
 10
11.876
 20
52.0166
 11
11.8496
 21
52.0273
  0
LINE
  8
0
 10
11.8496
 20
52.0273
 11
11.8242
 21
52.0381
  0
LINE
  8
0
 10
11.8242
 20
52.0381
 11
11.7734
 21
52.0615
  0
LINE
  8
0
 10
11.7734
 20
52.0615
 11
11.749
 21
52.0742
  0
LINE
  8
0
 10
11.749
 20
52.0742
 11
11.7236
 21
52.0869
  0
LINE
  8
0
 10
11.7236
 20
52.0869
 11
11.6748
 21
52.1143
  0
LINE
  8
0
 10
11.6748
 20
52.1143
 11
11.6514
 21
52.1289
  0
LINE
  8
0
 10
11.6514
 20
52.1289
 11
11.627
 21
52.1436
  0
LINE
  8
0
 10
11.627
 20
52.1436
 11
11.6035
 21
52.1582
  0
LINE
  8
0
 10
11.6035
 20
52.1582
 11
11.5801
 21
52.1738
  0
LINE
  8
0
 10
11.5801
 20
52.1738
 11
11.5576
 21
52.1895
  0
LINE
  8
0
 10
11.5576
 20
52.1895
 11
11.5342
 21
52.2061
  0
LINE
  8
0
 10
11.5342
 20
52.2061
 11
11.5117
 21
52.2227
  0
LINE
  8
0
 10
11.5117
 20
52.2227
 11
11.4902
 21
52.2393
  0
LINE
  8
0
 10
11.4902
 20
52.2393
 11
11.4678
 21
52.2568
  0
LINE
  8
0
 10
11.4678
 20
52.2568
 11
11.4463
 21
52.2744
  0
LINE
  8
0
 10
11.4463
 20
52.2744
 11
11.4258
 21
52.292
  0
LINE
  8
0
 10
11.4258
 20
52.292
 11
11.4043
 21
52.3105
  0
LINE
  8
0
 10
11.4043
 20
52.3105
 11
11.3838
 21
52.3301
  0
LINE
  8
0
 10
11.3838
 20
52.3301
 11
11.3633
 21
52.3486
  0
LINE
  8
0
 10
11.3633
 20
52.3486
 11
11.3438
 21
52.3682
  0
LINE
  8
0
 10
11.3438
 20
52.3682
 11
11.3047
 21
52.4092
  0
LINE
  8
0
 10
11.3047
 20
52.4092
 11
11.2676
 21
52.4502
  0
LINE
  8
0
 10
11.2676
 20
52.4502
 11
11.249
 21
52.4717
  0
LINE
  8
0
 10
11.249
 20
52.4717
 11
11.2139
 21
52.5146
  0
LINE
  8
0
 10
11.2139
 20
52.5146
 11
11.1641
 21
52.582
  0
LINE
  8
0
 10
11.1641
 20
52.582
 11
11.1328
 21
52.6289
  0
LINE
  8
0
 10
11.1328
 20
52.6289
 11
11.1035
 21
52.6758
  0
LINE
  8
0
 10
11.1035
 20
52.6758
 11
11.0898
 21
52.7002
  0
LINE
  8
0
 10
11.0898
 20
52.7002
 11
11.0752
 21
52.7246
  0
LINE
  8
0
 10
11.0752
 20
52.7246
 11
11.0498
 21
52.7734
  0
LINE
  8
0
 10
11.0498
 20
52.7734
 11
11.0371
 21
52.7988
  0
LINE
  8
0
 10
11.0371
 20
52.7988
 11
11.002
 21
52.875
  0
LINE
  8
0
 10
11.002
 20
52.875
 11
10.9912
 21
52.9004
  0
LINE
  8
0
 10
10.9912
 20
52.9004
 11
10.9619
 21
52.9795
  0
LINE
  8
0
 10
10.9619
 20
52.9795
 11
10.9531
 21
53.0059
  0
LINE
  8
0
 10
10.9531
 20
53.0059
 11
10.9453
 21
53.0322
  0
LINE
  8
0
 10
10.9453
 20
53.0322
 11
10.9365
 21
53.0586
  0
LINE
  8
0
 10
10.9365
 20
53.0586
 11
10.9229
 21
53.1133
  0
LINE
  8
0
 10
10.9229
 20
53.1133
 11
10.916
 21
53.1396
  0
LINE
  8
0
 10
10.916
 20
53.1396
 11
10.9043
 21
53.1943
  0
LINE
  8
0
 10
10.9043
 20
53.1943
 11
10.8994
 21
53.2217
  0
LINE
  8
0
 10
10.8994
 20
53.2217
 11
10.8945
 21
53.25
  0
LINE
  8
0
 10
10.8945
 20
53.25
 11
10.8867
 21
53.3047
  0
LINE
  8
0
 10
10.8867
 20
53.3047
 11
10.8838
 21
53.333
  0
LINE
  8
0
 10
10.8838
 20
53.333
 11
10.8809
 21
53.3604
  0
LINE
  8
0
 10
10.8809
 20
53.3604
 11
10.8789
 21
53.3887
  0
LINE
  8
0
 10
10.8789
 20
53.3887
 11
10.877
 21
53.416
  0
LINE
  8
0
 10
10.877
 20
53.416
 11
10.875
 21
53.4717
  0
LINE
  8
0
 10
10.875
 20
53.4717
 11
10.875
 21
53.5283
  0
LINE
  8
0
 10
10.875
 20
53.5283
 11
10.877
 21
53.584
  0
LINE
  8
0
 10
10.877
 20
53.584
 11
10.8789
 21
53.6113
  0
LINE
  8
0
 10
10.8789
 20
53.6113
 11
10.8809
 21
53.6396
  0
LINE
  8
0
 10
10.8809
 20
53.6396
 11
10.8838
 21
53.667
  0
LINE
  8
0
 10
10.8838
 20
53.667
 11
10.8867
 21
53.6953
  0
LINE
  8
0
 10
10.8867
 20
53.6953
 11
10.8945
 21
53.75
  0
LINE
  8
0
 10
10.8945
 20
53.75
 11
10.8994
 21
53.7783
  0
LINE
  8
0
 10
10.8994
 20
53.7783
 11
10.9043
 21
53.8057
  0
LINE
  8
0
 10
10.9043
 20
53.8057
 11
10.916
 21
53.8604
  0
LINE
  8
0
 10
10.916
 20
53.8604
 11
10.9229
 21
53.8867
  0
LINE
  8
0
 10
10.9229
 20
53.8867
 11
10.9365
 21
53.9414
  0
LINE
  8
0
 10
10.9365
 20
53.9414
 11
10.9453
 21
53.9678
  0
LINE
  8
0
 10
10.9453
 20
53.9678
 11
10.9531
 21
53.9941
  0
LINE
  8
0
 10
10.9531
 20
53.9941
 11
10.9619
 21
54.0205
  0
LINE
  8
0
 10
10.9619
 20
54.0205
 11
10.9912
 21
54.0996
  0
LINE
  8
0
 10
10.9912
 20
54.0996
 11
11.002
 21
54.125
  0
LINE
  8
0
 10
11.002
 20
54.125
 11
11.0371
 21
54.2012
  0
LINE
  8
0
 10
11.0371
 20
54.2012
 11
11.0498
 21
54.2266
  0
LINE
  8
0
 10
11.0498
 20
54.2266
 11
11.0752
 21
54.2754
  0
LINE
  8
0
 10
11.0752
 20
54.2754
 11
11.0898
 21
54.2998
  0
LINE
  8
0
 10
11.0898
 20
54.2998
 11
11.1035
 21
54.3242
  0
LINE
  8
0
 10
11.1035
 20
54.3242
 11
11.1328
 21
54.3711
  0
LINE
  8
0
 10
11.1328
 20
54.3711
 11
11.1641
 21
54.418
  0
LINE
  8
0
 10
11.1641
 20
54.418
 11
11.2139
 21
54.4854
  0
LINE
  8
0
 10
11.2139
 20
54.4854
 11
11.249
 21
54.5283
  0
LINE
  8
0
 10
11.249
 20
54.5283
 11
11.2676
 21
54.5498
  0
LINE
  8
0
 10
11.2676
 20
54.5498
 11
11.3047
 21
54.5908
  0
LINE
  8
0
 10
11.3047
 20
54.5908
 11
11.3438
 21
54.6318
  0
LINE
  8
0
 10
11.3438
 20
54.6318
 11
11.3633
 21
54.6514
  0
LINE
  8
0
 10
11.3633
 20
54.6514
 11
11.3838
 21
54.6699
  0
LINE
  8
0
 10
11.3838
 20
54.6699
 11
11.4043
 21
54.6895
  0
LINE
  8
0
 10
11.4043
 20
54.6895
 11
11.4258
 21
54.708
  0
LINE
  8
0
 10
11.4258
 20
54.708
 11
11.4463
 21
54.7256
  0
LINE
  8
0
 10
11.4463
 20
54.7256
 11
11.4678
 21
54.7432
  0
LINE
  8
0
 10
11.4678
 20
54.7432
 11
11.4902
 21
54.7607
  0
LINE
  8
0
 10
11.4902
 20
54.7607
 11
11.5117
 21
54.7773
  0
LINE
  8
0
 10
11.5117
 20
54.7773
 11
11.5342
 21
54.7939
  0
LINE
  8
0
 10
11.5342
 20
54.7939
 11
11.5576
 21
54.8105
  0
LINE
  8
0
 10
11.5576
 20
54.8105
 11
11.5801
 21
54.8262
  0
LINE
  8
0
 10
11.5801
 20
54.8262
 11
11.6035
 21
54.8418
  0
LINE
  8
0
 10
11.6035
 20
54.8418
 11
11.627
 21
54.8564
  0
LINE
  8
0
 10
11.627
 20
54.8564
 11
11.6514
 21
54.8711
  0
LINE
  8
0
 10
11.6514
 20
54.8711
 11
11.6748
 21
54.8857
  0
LINE
  8
0
 10
11.6748
 20
54.8857
 11
11.7236
 21
54.9131
  0
LINE
  8
0
 10
11.7236
 20
54.9131
 11
11.749
 21
54.9258
  0
LINE
  8
0
 10
11.749
 20
54.9258
 11
11.7734
 21
54.9385
  0
LINE
  8
0
 10
11.7734
 20
54.9385
 11
11.8242
 21
54.9619
  0
LINE
  8
0
 10
11.8242
 20
54.9619
 11
11.8496
 21
54.9727
  0
LINE
  8
0
 10
11.8496
 20
54.9727
 11
11.876
 21
54.9834
  0
LINE
  8
0
 10
11.876
 20
54.9834
 11
11.9014
 21
54.9941
  0
LINE
  8
0
 10
11.9014
 20
54.9941
 11
11.9277
 21
55.0039
  0
LINE
  8
0
 10
11.9277
 20
55.0039
 11
12.0068
 21
55.0303
  0
LINE
  8
0
 10
12.0068
 20
55.0303
 11
12.0342
 21
55.0381
  0
LINE
  8
0
 10
12.0342
 20
55.0381
 11
12.0605
 21
55.0459
  0
LINE
  8
0
 10
12.0605
 20
55.0459
 11
12.0879
 21
55.0527
  0
LINE
  8
0
 10
12.0879
 20
55.0527
 11
12.1152
 21
55.0586
  0
LINE
  8
0
 10
12.1152
 20
55.0586
 11
12.1426
 21
55.0654
  0
LINE
  8
0
 10
12.1426
 20
55.0654
 11
12.1699
 21
55.0703
  0
LINE
  8
0
 10
12.1699
 20
55.0703
 11
12.1973
 21
55.0762
  0
LINE
  8
0
 10
12.1973
 20
55.0762
 11
12.252
 21
55.084
  0
LINE
  8
0
 10
12.252
 20
55.084
 11
12.2803
 21
55.0879
  0
LINE
  8
0
 10
12.2803
 20
55.0879
 11
12.3076
 21
55.0908
  0
LINE
  8
0
 10
12.3076
 20
55.0908
 11
12.3359
 21
55.0938
  0
LINE
  8
0
 10
12.3359
 20
55.0938
 11
12.3633
 21
55.0957
  0
LINE
  8
0
 10
12.3633
 20
55.0957
 11
12.3916
 21
55.0977
  0
LINE
  8
0
 10
12.3916
 20
55.0977
 11
12.4473
 21
55.0996
  0
LINE
  8
0
 10
12.4473
 20
55.0996
 11
12.5029
 21
55.0996
  0
LINE
  8
0
 10
12.5029
 20
55.0996
 11
12.5586
 21
55.0977
  0
LINE
  8
0
 10
12.5586
 20
55.0977
 11
12.5869
 21
55.0957
  0
LINE
  8
0
 10
12.5869
 20
55.0957
 11
12.6143
 21
55.0938
  0
LINE
  8
0
 10
12.6143
 20
55.0938
 11
12.6426
 21
55.0908
  0
LINE
  8
0
 10
12.6426
 20
55.0908
 11
12.6699
 21
55.0879
  0
LINE
  8
0
 10
12.6699
 20
55.0879
 11
12.6973
 21
55.084
  0
LINE
  8
0
 10
12.6973
 20
55.084
 11
12.7256
 21
55.0801
  0
LINE
  8
0
 10
12.7256
 20
55.0801
 11
12.7529
 21
55.0762
  0
LINE
  8
0
 10
12.7529
 20
55.0762
 11
12.7803
 21
55.0703
  0
LINE
  8
0
 10
12.7803
 20
55.0703
 11
12.8076
 21
55.0654
  0
LINE
  8
0
 10
12.8076
 20
55.0654
 11
12.835
 21
55.0586
  0
LINE
  8
0
 10
12.835
 20
55.0586
 11
12.8623
 21
55.0527
  0
LINE
  8
0
 10
12.8623
 20
55.0527
 11
12.8887
 21
55.0459
  0
LINE
  8
0
 10
12.8887
 20
55.0459
 11
12.916
 21
55.0381
  0
LINE
  8
0
 10
12.916
 20
55.0381
 11
12.9424
 21
55.0303
  0
LINE
  8
0
 10
12.9424
 20
55.0303
 11
12.9697
 21
55.0215
  0
LINE
  8
0
 10
12.9697
 20
55.0215
 11
13.0225
 21
55.0039
  0
LINE
  8
0
 10
13.0225
 20
55.0039
 11
13.0488
 21
54.9941
  0
LINE
  8
0
 10
13.0488
 20
54.9941
 11
13.0742
 21
54.9834
  0
LINE
  8
0
 10
13.0742
 20
54.9834
 11
13.1006
 21
54.9727
  0
LINE
  8
0
 10
13.1006
 20
54.9727
 11
13.126
 21
54.9619
  0
LINE
  8
0
 10
13.126
 20
54.9619
 11
13.1768
 21
54.9385
  0
LINE
  8
0
 10
13.1768
 20
54.9385
 11
13.2012
 21
54.9258
  0
LINE
  8
0
 10
13.2012
 20
54.9258
 11
13.2266
 21
54.9131
  0
LINE
  8
0
 10
13.2266
 20
54.9131
 11
13.2754
 21
54.8857
  0
LINE
  8
0
 10
13.2754
 20
54.8857
 11
13.2988
 21
54.8711
  0
LINE
  8
0
 10
13.2988
 20
54.8711
 11
13.3232
 21
54.8564
  0
LINE
  8
0
 10
13.3232
 20
54.8564
 11
13.3467
 21
54.8418
  0
LINE
  8
0
 10
13.3467
 20
54.8418
 11
13.3701
 21
54.8262
  0
LINE
  8
0
 10
13.3701
 20
54.8262
 11
13.3926
 21
54.8105
  0
LINE
  8
0
 10
13.3926
 20
54.8105
 11
13.46
 21
54.7607
  0
LINE
  8
0
 10
13.46
 20
54.7607
 11
13.4814
 21
54.7432
  0
LINE
  8
0
 10
13.4814
 20
54.7432
 11
13.5039
 21
54.7256
  0
LINE
  8
0
 10
13.5039
 20
54.7256
 11
13.5244
 21
54.708
  0
LINE
  8
0
 10
13.5244
 20
54.708
 11
13.5459
 21
54.6895
  0
LINE
  8
0
 10
13.5459
 20
54.6895
 11
13.5664
 21
54.6699
  0
LINE
  8
0
 10
13.5664
 20
54.6699
 11
13.5869
 21
54.6514
  0
LINE
  8
0
 10
13.5869
 20
54.6514
 11
13.6064
 21
54.6318
  0
LINE
  8
0
 10
13.6064
 20
54.6318
 11
13.6455
 21
54.5908
  0
LINE
  8
0
 10
13.6455
 20
54.5908
 11
13.6826
 21
54.5498
  0
LINE
  8
0
 10
13.6826
 20
54.5498
 11
13.7002
 21
54.5283
  0
LINE
  8
0
 10
13.7002
 20
54.5283
 11
13.7188
 21
54.5068
  0
LINE
  8
0
 10
13.7188
 20
54.5068
 11
13.7354
 21
54.4854
  0
LINE
  8
0
 10
13.7354
 20
54.4854
 11
13.7529
 21
54.4629
  0
LINE
  8
0
 10
13.7529
 20
54.4629
 11
13.7695
 21
54.4404
  0
LINE
  8
0
 10
13.7695
 20
54.4404
 11
13.7852
 21
54.418
  0
LINE
  8
0
 10
13.7852
 20
54.418
 11
13.8018
 21
54.3945
  0
LINE
  8
0
 10
13.8018
 20
54.3945
 11
13.8164
 21
54.3711
  0
LINE
  8
0
 10
13.8164
 20
54.3711
 11
13.832
 21
54.3477
  0
LINE
  8
0
 10
13.832
 20
54.3477
 11
13.8467
 21
54.3242
  0
LINE
  8
0
 10
13.8467
 20
54.3242
 11
13.8877
 21
54.251
  0
LINE
  8
0
 10
13.8877
 20
54.251
 11
13.9004
 21
54.2266
  0
LINE
  8
0
 10
13.9004
 20
54.2266
 11
13.9131
 21
54.2012
  0
LINE
  8
0
 10
13.9131
 20
54.2012
 11
13.9482
 21
54.125
  0
LINE
  8
0
 10
13.9482
 20
54.125
 11
13.958
 21
54.0996
  0
LINE
  8
0
 10
13.958
 20
54.0996
 11
13.9688
 21
54.0732
  0
LINE
  8
0
 10
13.9688
 20
54.0732
 11
13.9883
 21
54.0205
  0
LINE
  8
0
 10
13.9883
 20
54.0205
 11
13.9971
 21
53.9941
  0
LINE
  8
0
 10
13.9971
 20
53.9941
 11
14.0127
 21
53.9414
  0
LINE
  8
0
 10
14.0127
 20
53.9414
 11
14.0205
 21
53.9141
  0
LINE
  8
0
 10
14.0205
 20
53.9141
 11
14.0273
 21
53.8867
  0
LINE
  8
0
 10
14.0273
 20
53.8867
 11
14.0342
 21
53.8604
  0
LINE
  8
0
 10
14.0342
 20
53.8604
 11
14.0459
 21
53.8057
  0
LINE
  8
0
 10
14.0459
 20
53.8057
 11
14.0508
 21
53.7783
  0
LINE
  8
0
 10
14.0508
 20
53.7783
 11
14.0557
 21
53.75
  0
LINE
  8
0
 10
14.0557
 20
53.75
 11
14.0635
 21
53.6953
  0
LINE
  8
0
 10
14.0635
 20
53.6953
 11
14.0664
 21
53.667
  0
LINE
  8
0
 10
14.0664
 20
53.667
 11
14.0693
 21
53.6396
  0
LINE
  8
0
 10
14.0693
 20
53.6396
 11
14.0713
 21
53.6113
  0
LINE
  8
0
 10
14.0713
 20
53.6113
 11
14.0732
 21
53.584
  0
LINE
  8
0
 10
14.0732
 20
53.584
 11
14.0752
 21
53.5283
  0
LINE
  8
0
 10
14.0752
 20
53.5283
 11
14.0752
 21
53.4717
  0
LINE
  8
0
 10
14.0752
 20
53.4717
 11
14.0732
 21
53.416
  0
LINE
  8
0
 10
14.0732
 20
53.416
 11
14.0713
 21
53.3887
  0
LINE
  8
0
 10
14.0713
 20
53.3887
 11
14.0693
 21
53.3604
  0
LINE
  8
0
 10
14.0693
 20
53.3604
 11
14.0664
 21
53.333
  0
LINE
  8
0
 10
14.0664
 20
53.333
 11
14.0635
 21
53.3047
  0
LINE
  8
0
 10
14.0635
 20
53.3047
 11
14.0557
 21
53.25
  0
LINE
  8
0
 10
14.0557
 20
53.25
 11
14.0508
 21
53.2217
  0
LINE
  8
0
 10
14.0508
 20
53.2217
 11
14.0459
 21
53.1943
  0
LINE
  8
0
 10
14.0459
 20
53.1943
 11
14.0342
 21
53.1396
  0
LINE
  8
0
 10
14.0342
 20
53.1396
 11
14.0273
 21
53.1133
  0
LINE
  8
0
 10
14.0273
 20
53.1133
 11
14.0205
 21
53.0859
  0
LINE
  8
0
 10
14.0205
 20
53.0859
 11
14.0127
 21
53.0586
  0
LINE
  8
0
 10
14.0127
 20
53.0586
 11
13.9971
 21
53.0059
  0
LINE
  8
0
 10
13.9971
 20
53.0059
 11
13.9883
 21
52.9795
  0
LINE
  8
0
 10
13.9883
 20
52.9795
 11
13.9688
 21
52.9268
  0
LINE
  8
0
 10
13.9688
 20
52.9268
 11
13.958
 21
52.9004
  0
LINE
  8
0
 10
13.958
 20
52.9004
 11
13.9482
 21
52.875
  0
LINE
  8
0
 10
13.9482
 20
52.875
 11
13.9131
 21
52.7988
  0
LINE
  8
0
 10
13.9131
 20
52.7988
 11
13.9004
 21
52.7734
  0
LINE
  8
0
 10
13.9004
 20
52.7734
 11
13.8877
 21
52.749
  0
LINE
  8
0
 10
13.8877
 20
52.749
 11
13.8467
 21
52.6758
  0
LINE
  8
0
 10
13.8467
 20
52.6758
 11
13.832
 21
52.6523
  0
LINE
  8
0
 10
13.832
 20
52.6523
 11
13.8164
 21
52.6289
  0
LINE
  8
0
 10
13.8164
 20
52.6289
 11
13.8018
 21
52.6055
  0
LINE
  8
0
 10
13.8018
 20
52.6055
 11
13.7852
 21
52.582
  0
LINE
  8
0
 10
13.7852
 20
52.582
 11
13.7695
 21
52.5596
  0
LINE
  8
0
 10
13.7695
 20
52.5596
 11
13.7529
 21
52.5371
  0
LINE
  8
0
 10
13.7529
 20
52.5371
 11
13.7354
 21
52.5146
  0
LINE
  8
0
 10
13.7354
 20
52.5146
 11
13.7188
 21
52.4932
  0
LINE
  8
0
 10
13.7188
 20
52.4932
 11
13.7002
 21
52.4717
  0
LINE
  8
0
 10
13.7002
 20
52.4717
 11
13.6826
 21
52.4502
  0
LINE
  8
0
 10
13.6826
 20
52.4502
 11
13.6455
 21
52.4092
  0
LINE
  8
0
 10
13.6455
 20
52.4092
 11
13.6064
 21
52.3682
  0
LINE
  8
0
 10
13.6064
 20
52.3682
 11
13.5869
 21
52.3486
  0
LINE
  8
0
 10
13.5869
 20
52.3486
 11
13.5664
 21
52.3301
  0
LINE
  8
0
 10
13.5664
 20
52.3301
 11
13.5459
 21
52.3105
  0
LINE
  8
0
 10
13.5459
 20
52.3105
 11
13.5244
 21
52.292
  0
LINE
  8
0
 10
13.5244
 20
52.292
 11
13.5039
 21
52.2744
  0
LINE
  8
0
 10
13.5039
 20
52.2744
 11
13.4814
 21
52.2568
  0
LINE
  8
0
 10
13.4814
 20
52.2568
 11
13.46
 21
52.2393
  0
LINE
  8
0
 10
13.46
 20
52.2393
 11
13.3926
 21
52.1895
  0
LINE
  8
0
 10
13.3926
 20
52.1895
 11
13.3701
 21
52.1738
  0
LINE
  8
0
 10
13.3701
 20
52.1738
 11
13.3467
 21
52.1582
  0
LINE
  8
0
 10
13.3467
 20
52.1582
 11
13.3232
 21
52.1436
  0
LINE
  8
0
 10
13.3232
 20
52.1436
 11
13.2988
 21
52.1289
  0
LINE
  8
0
 10
13.2988
 20
52.1289
 11
13.2754
 21
52.1143
  0
LINE
  8
0
 10
13.2754
 20
52.1143
 11
13.2266
 21
52.0869
  0
LINE
  8
0
 10
13.2266
 20
52.0869
 11
13.2012
 21
52.0742
  0
LINE
  8
0
 10
13.2012
 20
52.0742
 11
13.1768
 21
52.0615
  0
LINE
  8
0
 10
13.1768
 20
52.0615
 11
13.126
 21
52.0381
  0
LINE
  8
0
 10
13.126
 20
52.0381
 11
13.1006
 21
52.0273
  0
LINE
  8
0
 10
13.1006
 20
52.0273
 11
13.0742
 21
52.0166
  0
LINE
  8
0
 10
13.0742
 20
52.0166
 11
13.0488
 21
52.0059
  0
LINE
  8
0
 10
13.0488
 20
52.0059
 11
13.0225
 21
51.9961
  0
LINE
  8
0
 10
13.0225
 20
51.9961
 11
12.9697
 21
51.9785
  0
LINE
  8
0
 10
12.9697
 20
51.9785
 11
12.9424
 21
51.9697
  0
LINE
  8
0
 10
12.9424
 20
51.9697
 11
12.916
 21
51.9619
  0
LINE
  8
0
 10
12.916
 20
51.9619
 11
12.8887
 21
51.9541
  0
LINE
  8
0
 10
12.8887
 20
51.9541
 11
12.8623
 21
51.9473
  0
LINE
  8
0
 10
12.8623
 20
51.9473
 11
12.835
 21
51.9414
  0
LINE
  8
0
 10
12.835
 20
51.9414
 11
12.8076
 21
51.9346
  0
LINE
  8
0
 10
12.8076
 20
51.9346
 11
12.7803
 21
51.9297
  0
LINE
  8
0
 10
12.7803
 20
51.9297
 11
12.7529
 21
51.9238
  0
LINE
  8
0
 10
12.7529
 20
51.9238
 11
12.7256
 21
51.9199
  0
LINE
  8
0
 10
12.7256
 20
51.9199
 11
12.6973
 21
51.916
  0
LINE
  8
0
 10
12.6973
 20
51.916
 11
12.6699
 21
51.9121
  0
LINE
  8
0
 10
12.6699
 20
51.9121
 11
12.6426
 21
51.9092
  0
LINE
  8
0
 10
12.6426
 20
51.9092
 11
12.6143
 21
51.9062
  0
LINE
  8
0
 10
12.6143
 20
51.9062
 11
12.5869
 21
51.9043
  0
LINE
  8
0
 10
12.5869
 20
51.9043
 11
12.5586
 21
51.9023
  0
LINE
  8
0
 10
12.5586
 20
51.9023
 11
12.5029
 21
51.9004
  0
LINE
  8
0
 10
12.5029
 20
51.9004
 11
12.4473
 21
51.9004
  0
LINE
  8
0
 10
25.4746
 20
30
 11
25.4746
 21
50
  0
LINE
  8
0
 10
25.4746
 20
50
 11
50.4746
 21
50
  0
LINE
  8
0
 10
50.4746
 20
50
 11
50.4746
 21
30
  0
LINE
  8
0
 10
50.4746
 20
30
 11
25.4746
 21
30
  0
ENDSEC
  0
SECTION
  2
OBJECTS
  0
DICTIONARY
  0
ENDSEC
  0
EOF
