  0
SECTION
  2
BLOCKS
  0
ENDSEC
  0
SECTION
  2
ENTITIES
  0
LINE
  8
0
 10
100.95
 20
55
 11
104.968
 21
55
  0
LINE
  8
0
 10
104.968
 20
55
 11
104.985
 21
55.001
  0
LINE
  8
0
 10
104.985
 20
55.001
 11
105.002
 21
55.001
  0
LINE
  8
0
 10
105.002
 20
55.001
 11
105.02
 21
55.002
  0
LINE
  8
0
 10
105.02
 20
55.002
 11
105.072
 21
55.0078
  0
LINE
  8
0
 10
105.072
 20
55.0078
 11
105.089
 21
55.0098
  0
LINE
  8
0
 10
105.089
 20
55.0098
 11
105.124
 21
55.0156
  0
LINE
  8
0
 10
105.124
 20
55.0156
 11
105.141
 21
55.0186
  0
LINE
  8
0
 10
105.141
 20
55.0186
 11
105.158
 21
55.0215
  0
LINE
  8
0
 10
105.158
 20
55.0215
 11
105.175
 21
55.0254
  0
LINE
  8
0
 10
105.175
 20
55.0254
 11
105.192
 21
55.0293
  0
LINE
  8
0
 10
105.192
 20
55.0293
 11
105.259
 21
55.0488
  0
LINE
  8
0
 10
105.259
 20
55.0488
 11
105.309
 21
55.0664
  0
LINE
  8
0
 10
105.309
 20
55.0664
 11
105.324
 21
55.0732
  0
LINE
  8
0
 10
105.324
 20
55.0732
 11
105.341
 21
55.0791
  0
LINE
  8
0
 10
105.341
 20
55.0791
 11
105.356
 21
55.0869
  0
LINE
  8
0
 10
105.356
 20
55.0869
 11
105.373
 21
55.0938
  0
LINE
  8
0
 10
105.373
 20
55.0938
 11
105.42
 21
55.1172
  0
LINE
  8
0
 10
105.42
 20
55.1172
 11
105.435
 21
55.125
  0
LINE
  8
0
 10
105.435
 20
55.125
 11
105.45
 21
55.1338
  0
LINE
  8
0
 10
105.45
 20
55.1338
 11
105.465
 21
55.1426
  0
LINE
  8
0
 10
105.465
 20
55.1426
 11
105.479
 21
55.1523
  0
LINE
  8
0
 10
105.479
 20
55.1523
 11
105.495
 21
55.1611
  0
LINE
  8
0
 10
105.495
 20
55.1611
 11
105.509
 21
55.1709
  0
LINE
  8
0
 10
105.509
 20
55.1709
 11
105.523
 21
55.1807
  0
LINE
  8
0
 10
105.523
 20
55.1807
 11
105.538
 21
55.1914
  0
LINE
  8
0
 10
105.538
 20
55.1914
 11
105.552
 21
55.2012
  0
LINE
  8
0
 10
105.552
 20
55.2012
 11
105.579
 21
55.2227
  0
LINE
  8
0
 10
105.579
 20
55.2227
 11
105.593
 21
55.2344
  0
LINE
  8
0
 10
105.593
 20
55.2344
 11
105.606
 21
55.2451
  0
LINE
  8
0
 10
105.606
 20
55.2451
 11
105.645
 21
55.2803
  0
LINE
  8
0
 10
105.645
 20
55.2803
 11
105.657
 21
55.293
  0
LINE
  8
0
 10
105.657
 20
55.293
 11
105.669
 21
55.3057
  0
LINE
  8
0
 10
105.669
 20
55.3057
 11
105.682
 21
55.3184
  0
LINE
  8
0
 10
105.682
 20
55.3184
 11
105.705
 21
55.3438
  0
LINE
  8
0
 10
105.705
 20
55.3438
 11
105.716
 21
55.3574
  0
LINE
  8
0
 10
105.716
 20
55.3574
 11
105.728
 21
55.3711
  0
LINE
  8
0
 10
105.728
 20
55.3711
 11
105.749
 21
55.3984
  0
LINE
  8
0
 10
105.749
 20
55.3984
 11
105.759
 21
55.4121
  0
LINE
  8
0
 10
105.759
 20
55.4121
 11
105.77
 21
55.4268
  0
LINE
  8
0
 10
105.77
 20
55.4268
 11
105.779
 21
55.4404
  0
LINE
  8
0
 10
105.779
 20
55.4404
 11
105.789
 21
55.4551
  0
LINE
  8
0
 10
105.789
 20
55.4551
 11
105.798
 21
55.4697
  0
LINE
  8
0
 10
105.798
 20
55.4697
 11
105.808
 21
55.4854
  0
LINE
  8
0
 10
105.808
 20
55.4854
 11
105.816
 21
55.5
  0
LINE
  8
0
 10
105.816
 20
55.5
 11
105.824
 21
55.5156
  0
LINE
  8
0
 10
105.824
 20
55.5156
 11
105.833
 21
55.5303
  0
LINE
  8
0
 10
105.833
 20
55.5303
 11
105.856
 21
55.5771
  0
LINE
  8
0
 10
105.856
 20
55.5771
 11
105.863
 21
55.5938
  0
LINE
  8
0
 10
105.863
 20
55.5938
 11
105.877
 21
55.625
  0
LINE
  8
0
 10
105.877
 20
55.625
 11
105.884
 21
55.6416
  0
LINE
  8
0
 10
105.884
 20
55.6416
 11
105.901
 21
55.6914
  0
LINE
  8
0
 10
105.901
 20
55.6914
 11
105.916
 21
55.7412
  0
LINE
  8
0
 10
105.916
 20
55.7412
 11
105.92
 21
55.7578
  0
LINE
  8
0
 10
105.92
 20
55.7578
 11
105.925
 21
55.7754
  0
LINE
  8
0
 10
105.925
 20
55.7754
 11
105.928
 21
55.792
  0
LINE
  8
0
 10
105.928
 20
55.792
 11
105.932
 21
55.8096
  0
LINE
  8
0
 10
105.932
 20
55.8096
 11
105.935
 21
55.8262
  0
LINE
  8
0
 10
105.935
 20
55.8262
 11
105.938
 21
55.8438
  0
LINE
  8
0
 10
105.938
 20
55.8438
 11
105.94
 21
55.8604
  0
LINE
  8
0
 10
105.94
 20
55.8604
 11
105.946
 21
55.9131
  0
LINE
  8
0
 10
105.946
 20
55.9131
 11
105.947
 21
55.9307
  0
LINE
  8
0
 10
105.947
 20
55.9307
 11
105.948
 21
55.9473
  0
LINE
  8
0
 10
105.948
 20
55.9473
 11
105.95
 21
55.9824
  0
LINE
  8
0
 10
105.95
 20
55.9824
 11
105.95
 21
64.0176
  0
LINE
  8
0
 10
105.95
 20
64.0176
 11
105.948
 21
64.0527
  0
LINE
  8
0
 10
105.948
 20
64.0527
 11
105.947
 21
64.0693
  0
LINE
  8
0
 10
105.947
 20
64.0693
 11
105.946
 21
64.0869
  0
LINE
  8
0
 10
105.946
 20
64.0869
 11
105.94
 21
64.1396
  0
LINE
  8
0
 10
105.94
 20
64.1396
 11
105.938
 21
64.1562
  0
LINE
  8
0
 10
105.938
 20
64.1562
 11
105.935
 21
64.1738
  0
LINE
  8
0
 10
105.935
 20
64.1738
 11
105.932
 21
64.1904
  0
LINE
  8
0
 10
105.932
 20
64.1904
 11
105.928
 21
64.208
  0
LINE
  8
0
 10
105.928
 20
64.208
 11
105.925
 21
64.2246
  0
LINE
  8
0
 10
105.925
 20
64.2246
 11
105.92
 21
64.2422
  0
LINE
  8
0
 10
105.92
 20
64.2422
 11
105.916
 21
64.2588
  0
LINE
  8
0
 10
105.916
 20
64.2588
 11
105.901
 21
64.3086
  0
LINE
  8
0
 10
105.901
 20
64.3086
 11
105.884
 21
64.3584
  0
LINE
  8
0
 10
105.884
 20
64.3584
 11
105.877
 21
64.375
  0
LINE
  8
0
 10
105.877
 20
64.375
 11
105.863
 21
64.4062
  0
LINE
  8
0
 10
105.863
 20
64.4062
 11
105.856
 21
64.4229
  0
LINE
  8
0
 10
105.856
 20
64.4229
 11
105.833
 21
64.4697
  0
LINE
  8
0
 10
105.833
 20
64.4697
 11
105.824
 21
64.4844
  0
LINE
  8
0
 10
105.824
 20
64.4844
 11
105.816
 21
64.5
  0
LINE
  8
0
 10
105.816
 20
64.5
 11
105.808
 21
64.5146
  0
LINE
  8
0
 10
105.808
 20
64.5146
 11
105.798
 21
64.5303
  0
LINE
  8
0
 10
105.798
 20
64.5303
 11
105.789
 21
64.5449
  0
LINE
  8
0
 10
105.789
 20
64.5449
 11
105.779
 21
64.5596
  0
LINE
  8
0
 10
105.779
 20
64.5596
 11
105.77
 21
64.5732
  0
LINE
  8
0
 10
105.77
 20
64.5732
 11
105.759
 21
64.5879
  0
LINE
  8
0
 10
105.759
 20
64.5879
 11
105.749
 21
64.6016
  0
LINE
  8
0
 10
105.749
 20
64.6016
 11
105.728
 21
64.6289
  0
LINE
  8
0
 10
105.728
 20
64.6289
 11
105.716
 21
64.6426
  0
LINE
  8
0
 10
105.716
 20
64.6426
 11
105.705
 21
64.6562
  0
LINE
  8
0
 10
105.705
 20
64.6562
 11
105.682
 21
64.6816
  0
LINE
  8
0
 10
105.682
 20
64.6816
 11
105.669
 21
64.6943
  0
LINE
  8
0
 10
105.669
 20
64.6943
 11
105.657
 21
64.707
  0
LINE
  8
0
 10
105.657
 20
64.707
 11
105.645
 21
64.7197
  0
LINE
  8
0
 10
105.645
 20
64.7197
 11
105.606
 21
64.7549
  0
LINE
  8
0
 10
105.606
 20
64.7549
 11
105.593
 21
64.7656
  0
LINE
  8
0
 10
105.593
 20
64.7656
 11
105.579
 21
64.7773
  0
LINE
  8
0
 10
105.579
 20
64.7773
 11
105.552
 21
64.7988
  0
LINE
  8
0
 10
105.552
 20
64.7988
 11
105.538
 21
64.8086
  0
LINE
  8
0
 10
105.538
 20
64.8086
 11
105.523
 21
64.8193
  0
LINE
  8
0
 10
105.523
 20
64.8193
 11
105.509
 21
64.8291
  0
LINE
  8
0
 10
105.509
 20
64.8291
 11
105.495
 21
64.8389
  0
LINE
  8
0
 10
105.495
 20
64.8389
 11
105.479
 21
64.8477
  0
LINE
  8
0
 10
105.479
 20
64.8477
 11
105.465
 21
64.8574
  0
LINE
  8
0
 10
105.465
 20
64.8574
 11
105.45
 21
64.8662
  0
LINE
  8
0
 10
105.45
 20
64.8662
 11
105.435
 21
64.875
  0
LINE
  8
0
 10
105.435
 20
64.875
 11
105.42
 21
64.8828
  0
LINE
  8
0
 10
105.42
 20
64.8828
 11
105.373
 21
64.9062
  0
LINE
  8
0
 10
105.373
 20
64.9062
 11
105.356
 21
64.9131
  0
LINE
  8
0
 10
105.356
 20
64.9131
 11
105.341
 21
64.9209
  0
LINE
  8
0
 10
105.341
 20
64.9209
 11
105.324
 21
64.9268
  0
LINE
  8
0
 10
105.324
 20
64.9268
 11
105.309
 21
64.9336
  0
LINE
  8
0
 10
105.309
 20
64.9336
 11
105.259
 21
64.9512
  0
LINE
  8
0
 10
105.259
 20
64.9512
 11
105.192
 21
64.9707
  0
LINE
  8
0
 10
105.192
 20
64.9707
 11
105.175
 21
64.9746
  0
LINE
  8
0
 10
105.175
 20
64.9746
 11
105.158
 21
64.9785
  0
LINE
  8
0
 10
105.158
 20
64.9785
 11
105.141
 21
64.9814
  0
LINE
  8
0
 10
105.141
 20
64.9814
 11
105.124
 21
64.9844
  0
LINE
  8
0
 10
105.124
 20
64.9844
 11
105.089
 21
64.9902
  0
LINE
  8
0
 10
105.089
 20
64.9902
 11
105.072
 21
64.9922
  0
LINE
  8
0
 10
105.072
 20
64.9922
 11
105.02
 21
64.998
  0
LINE
  8
0
 10
105.02
 20
64.998
 11
105.002
 21
64.999
  0
LINE
  8
0
 10
105.002
 20
64.999
 11
104.985
 21
64.999
  0
LINE
  8
0
 10
104.985
 20
64.999
 11
104.968
 21
65
  0
LINE
  8
0
 10
104.968
 20
65
 11
100.95
 21
65
  0
LINE
  8
0
 10
100.95
 20
65
 11
100.95
 21
125
  0
LINE
  8
0
 10
100.95
 20
125
 11
104.968
 21
125
  0
LINE
  8
0
 10
104.968
 20
125
 11
104.985
 21
125.001
  0
LINE
  8
0
 10
104.985
 20
125.001
 11
105.002
 21
125.001
  0
LINE
  8
0
 10
105.002
 20
125.001
 11
105.02
 21
125.002
  0
LINE
  8
0
 10
105.02
 20
125.002
 11
105.072
 21
125.008
  0
LINE
  8
0
 10
105.072
 20
125.008
 11
105.089
 21
125.01
  0
LINE
  8
0
 10
105.089
 20
125.01
 11
105.124
 21
125.016
  0
LINE
  8
0
 10
105.124
 20
125.016
 11
105.141
 21
125.019
  0
LINE
  8
0
 10
105.141
 20
125.019
 11
105.158
 21
125.021
  0
LINE
  8
0
 10
105.158
 20
125.021
 11
105.175
 21
125.025
  0
LINE
  8
0
 10
105.175
 20
125.025
 11
105.192
 21
125.029
  0
LINE
  8
0
 10
105.192
 20
125.029
 11
105.259
 21
125.049
  0
LINE
  8
0
 10
105.259
 20
125.049
 11
105.309
 21
125.066
  0
LINE
  8
0
 10
105.309
 20
125.066
 11
105.324
 21
125.073
  0
LINE
  8
0
 10
105.324
 20
125.073
 11
105.341
 21
125.079
  0
LINE
  8
0
 10
105.341
 20
125.079
 11
105.356
 21
125.087
  0
LINE
  8
0
 10
105.356
 20
125.087
 11
105.373
 21
125.094
  0
LINE
  8
0
 10
105.373
 20
125.094
 11
105.42
 21
125.117
  0
LINE
  8
0
 10
105.42
 20
125.117
 11
105.435
 21
125.125
  0
LINE
  8
0
 10
105.435
 20
125.125
 11
105.45
 21
125.134
  0
LINE
  8
0
 10
105.45
 20
125.134
 11
105.465
 21
125.143
  0
LINE
  8
0
 10
105.465
 20
125.143
 11
105.479
 21
125.152
  0
LINE
  8
0
 10
105.479
 20
125.152
 11
105.495
 21
125.161
  0
LINE
  8
0
 10
105.495
 20
125.161
 11
105.509
 21
125.171
  0
LINE
  8
0
 10
105.509
 20
125.171
 11
105.523
 21
125.181
  0
LINE
  8
0
 10
105.523
 20
125.181
 11
105.538
 21
125.191
  0
LINE
  8
0
 10
105.538
 20
125.191
 11
105.552
 21
125.201
  0
LINE
  8
0
 10
105.552
 20
125.201
 11
105.579
 21
125.223
  0
LINE
  8
0
 10
105.579
 20
125.223
 11
105.593
 21
125.234
  0
LINE
  8
0
 10
105.593
 20
125.234
 11
105.606
 21
125.245
  0
LINE
  8
0
 10
105.606
 20
125.245
 11
105.645
 21
125.28
  0
LINE
  8
0
 10
105.645
 20
125.28
 11
105.657
 21
125.293
  0
LINE
  8
0
 10
105.657
 20
125.293
 11
105.669
 21
125.306
  0
LINE
  8
0
 10
105.669
 20
125.306
 11
105.682
 21
125.318
  0
LINE
  8
0
 10
105.682
 20
125.318
 11
105.705
 21
125.344
  0
LINE
  8
0
 10
105.705
 20
125.344
 11
105.716
 21
125.357
  0
LINE
  8
0
 10
105.716
 20
125.357
 11
105.728
 21
125.371
  0
LINE
  8
0
 10
105.728
 20
125.371
 11
105.749
 21
125.398
  0
LINE
  8
0
 10
105.749
 20
125.398
 11
105.759
 21
125.412
  0
LINE
  8
0
 10
105.759
 20
125.412
 11
105.77
 21
125.427
  0
LINE
  8
0
 10
105.77
 20
125.427
 11
105.779
 21
125.44
  0
LINE
  8
0
 10
105.779
 20
125.44
 11
105.789
 21
125.455
  0
LINE
  8
0
 10
105.789
 20
125.455
 11
105.798
 21
125.47
  0
LINE
  8
0
 10
105.798
 20
125.47
 11
105.808
 21
125.485
  0
LINE
  8
0
 10
105.808
 20
125.485
 11
105.816
 21
125.5
  0
LINE
  8
0
 10
105.816
 20
125.5
 11
105.824
 21
125.516
  0
LINE
  8
0
 10
105.824
 20
125.516
 11
105.833
 21
125.53
  0
LINE
  8
0
 10
105.833
 20
125.53
 11
105.856
 21
125.577
  0
LINE
  8
0
 10
105.856
 20
125.577
 11
105.863
 21
125.594
  0
LINE
  8
0
 10
105.863
 20
125.594
 11
105.877
 21
125.625
  0
LINE
  8
0
 10
105.877
 20
125.625
 11
105.884
 21
125.642
  0
LINE
  8
0
 10
105.884
 20
125.642
 11
105.901
 21
125.691
  0
LINE
  8
0
 10
105.901
 20
125.691
 11
105.916
 21
125.741
  0
LINE
  8
0
 10
105.916
 20
125.741
 11
105.92
 21
125.758
  0
LINE
  8
0
 10
105.92
 20
125.758
 11
105.925
 21
125.775
  0
LINE
  8
0
 10
105.925
 20
125.775
 11
105.928
 21
125.792
  0
LINE
  8
0
 10
105.928
 20
125.792
 11
105.932
 21
125.81
  0
LINE
  8
0
 10
105.932
 20
125.81
 11
105.935
 21
125.826
  0
LINE
  8
0
 10
105.935
 20
125.826
 11
105.938
 21
125.844
  0
LINE
  8
0
 10
105.938
 20
125.844
 11
105.94
 21
125.86
  0
LINE
  8
0
 10
105.94
 20
125.86
 11
105.946
 21
125.913
  0
LINE
  8
0
 10
105.946
 20
125.913
 11
105.947
 21
125.931
  0
LINE
  8
0
 10
105.947
 20
125.931
 11
105.948
 21
125.947
  0
LINE
  8
0
 10
105.948
 20
125.947
 11
105.95
 21
125.982
  0
LINE
  8
0
 10
105.95
 20
125.982
 11
105.95
 21
134.018
  0
LINE
  8
0
 10
105.95
 20
134.018
 11
105.948
 21
134.053
  0
LINE
  8
0
 10
105.948
 20
134.053
 11
105.947
 21
134.069
  0
LINE
  8
0
 10
105.947
 20
134.069
 11
105.946
 21
134.087
  0
LINE
  8
0
 10
105.946
 20
134.087
 11
105.94
 21
134.14
  0
LINE
  8
0
 10
105.94
 20
134.14
 11
105.938
 21
134.156
  0
LINE
  8
0
 10
105.938
 20
134.156
 11
105.935
 21
134.174
  0
LINE
  8
0
 10
105.935
 20
134.174
 11
105.932
 21
134.19
  0
LINE
  8
0
 10
105.932
 20
134.19
 11
105.928
 21
134.208
  0
LINE
  8
0
 10
105.928
 20
134.208
 11
105.925
 21
134.225
  0
LINE
  8
0
 10
105.925
 20
134.225
 11
105.92
 21
134.242
  0
LINE
  8
0
 10
105.92
 20
134.242
 11
105.916
 21
134.259
  0
LINE
  8
0
 10
105.916
 20
134.259
 11
105.901
 21
134.309
  0
LINE
  8
0
 10
105.901
 20
134.309
 11
105.884
 21
134.358
  0
LINE
  8
0
 10
105.884
 20
134.358
 11
105.877
 21
134.375
  0
LINE
  8
0
 10
105.877
 20
134.375
 11
105.863
 21
134.406
  0
LINE
  8
0
 10
105.863
 20
134.406
 11
105.856
 21
134.423
  0
LINE
  8
0
 10
105.856
 20
134.423
 11
105.833
 21
134.47
  0
LINE
  8
0
 10
105.833
 20
134.47
 11
105.824
 21
134.484
  0
LINE
  8
0
 10
105.824
 20
134.484
 11
105.816
 21
134.5
  0
LINE
  8
0
 10
105.816
 20
134.5
 11
105.808
 21
134.515
  0
LINE
  8
0
 10
105.808
 20
134.515
 11
105.798
 21
134.53
  0
LINE
  8
0
 10
105.798
 20
134.53
 11
105.789
 21
134.545
  0
LINE
  8
0
 10
105.789
 20
134.545
 11
105.779
 21
134.56
  0
LINE
  8
0
 10
105.779
 20
134.56
 11
105.77
 21
134.573
  0
LINE
  8
0
 10
105.77
 20
134.573
 11
105.759
 21
134.588
  0
LINE
  8
0
 10
105.759
 20
134.588
 11
105.749
 21
134.602
  0
LINE
  8
0
 10
105.749
 20
134.602
 11
105.728
 21
134.629
  0
LINE
  8
0
 10
105.728
 20
134.629
 11
105.716
 21
134.643
  0
LINE
  8
0
 10
105.716
 20
134.643
 11
105.705
 21
134.656
  0
LINE
  8
0
 10
105.705
 20
134.656
 11
105.682
 21
134.682
  0
LINE
  8
0
 10
105.682
 20
134.682
 11
105.669
 21
134.694
  0
LINE
  8
0
 10
105.669
 20
134.694
 11
105.657
 21
134.707
  0
LINE
  8
0
 10
105.657
 20
134.707
 11
105.645
 21
134.72
  0
LINE
  8
0
 10
105.645
 20
134.72
 11
105.606
 21
134.755
  0
LINE
  8
0
 10
105.606
 20
134.755
 11
105.593
 21
134.766
  0
LINE
  8
0
 10
105.593
 20
134.766
 11
105.579
 21
134.777
  0
LINE
  8
0
 10
105.579
 20
134.777
 11
105.552
 21
134.799
  0
LINE
  8
0
 10
105.552
 20
134.799
 11
105.538
 21
134.809
  0
LINE
  8
0
 10
105.538
 20
134.809
 11
105.523
 21
134.819
  0
LINE
  8
0
 10
105.523
 20
134.819
 11
105.509
 21
134.829
  0
LINE
  8
0
 10
105.509
 20
134.829
 11
105.495
 21
134.839
  0
LINE
  8
0
 10
105.495
 20
134.839
 11
105.479
 21
134.848
  0
LINE
  8
0
 10
105.479
 20
134.848
 11
105.465
 21
134.857
  0
LINE
  8
0
 10
105.465
 20
134.857
 11
105.45
 21
134.866
  0
LINE
  8
0
 10
105.45
 20
134.866
 11
105.435
 21
134.875
  0
LINE
  8
0
 10
105.435
 20
134.875
 11
105.42
 21
134.883
  0
LINE
  8
0
 10
105.42
 20
134.883
 11
105.373
 21
134.906
  0
LINE
  8
0
 10
105.373
 20
134.906
 11
105.356
 21
134.913
  0
LINE
  8
0
 10
105.356
 20
134.913
 11
105.341
 21
134.921
  0
LINE
  8
0
 10
105.341
 20
134.921
 11
105.324
 21
134.927
  0
LINE
  8
0
 10
105.324
 20
134.927
 11
105.309
 21
134.934
  0
LINE
  8
0
 10
105.309
 20
134.934
 11
105.259
 21
134.951
  0
LINE
  8
0
 10
105.259
 20
134.951
 11
105.192
 21
134.971
  0
LINE
  8
0
 10
105.192
 20
134.971
 11
105.175
 21
134.975
  0
LINE
  8
0
 10
105.175
 20
134.975
 11
105.158
 21
134.979
  0
LINE
  8
0
 10
105.158
 20
134.979
 11
105.141
 21
134.981
  0
LINE
  8
0
 10
105.141
 20
134.981
 11
105.124
 21
134.984
  0
LINE
  8
0
 10
105.124
 20
134.984
 11
105.089
 21
134.99
  0
LINE
  8
0
 10
105.089
 20
134.99
 11
105.072
 21
134.992
  0
LINE
  8
0
 10
105.072
 20
134.992
 11
105.02
 21
134.998
  0
LINE
  8
0
 10
105.02
 20
134.998
 11
105.002
 21
134.999
  0
LINE
  8
0
 10
105.002
 20
134.999
 11
104.985
 21
134.999
  0
LINE
  8
0
 10
104.985
 20
134.999
 11
104.968
 21
135
  0
LINE
  8
0
 10
104.968
 20
135
 11
104.95
 21
135
  0
LINE
  8
0
 10
104.95
 20
135
 11
98.75
 21
135.032
  0
LINE
  8
0
 10
98.75
 20
135.032
 11
98.75
 21
43.25
  0
LINE
  8
0
 10
98.75
 20
43.25
 11
95.7842
 21
43.25
  0
LINE
  8
0
 10
95.7842
 20
43.25
 11
95.7842
 21
135
  0
LINE
  8
0
 10
95.7842
 20
135
 11
83.5
 21
135
  0
LINE
  8
0
 10
83.5
 20
135
 11
83.4854
 21
43.168
  0
LINE
  8
0
 10
83.4854
 20
43.168
 11
62.4854
 21
43.168
  0
LINE
  8
0
 10
62.4854
 20
43.168
 11
62.4854
 21
39.418
  0
LINE
  8
0
 10
62.4854
 20
39.418
 11
54.9854
 21
39.418
  0
LINE
  8
0
 10
54.9854
 20
39.418
 11
54.9785
 21
43.168
  0
LINE
  8
0
 10
54.9785
 20
43.168
 11
17.2354
 21
43.168
  0
LINE
  8
0
 10
17.2354
 20
43.168
 11
17.25
 21
135
  0
LINE
  8
0
 10
17.25
 20
135
 11
5.25
 21
135
  0
LINE
  8
0
 10
5.25
 20
135
 11
5.25
 21
43.25
  0
LINE
  8
0
 10
5.25
 20
43.25
 11
2.25
 21
43.25
  0
LINE
  8
0
 10
2.25
 20
43.25
 11
2.25
 21
135
  0
LINE
  8
0
 10
2.25
 20
135
 11
-4.01758
 21
135
  0
LINE
  8
0
 10
-4.01758
 20
135
 11
-4.03516
 21
134.999
  0
LINE
  8
0
 10
-4.03516
 20
134.999
 11
-4.05273
 21
134.999
  0
LINE
  8
0
 10
-4.05273
 20
134.999
 11
-4.06934
 21
134.998
  0
LINE
  8
0
 10
-4.06934
 20
134.998
 11
-4.13965
 21
134.99
  0
LINE
  8
0
 10
-4.13965
 20
134.99
 11
-4.15625
 21
134.987
  0
LINE
  8
0
 10
-4.15625
 20
134.987
 11
-4.17383
 21
134.984
  0
LINE
  8
0
 10
-4.17383
 20
134.984
 11
-4.19043
 21
134.981
  0
LINE
  8
0
 10
-4.19043
 20
134.981
 11
-4.20801
 21
134.979
  0
LINE
  8
0
 10
-4.20801
 20
134.979
 11
-4.22461
 21
134.975
  0
LINE
  8
0
 10
-4.22461
 20
134.975
 11
-4.24219
 21
134.971
  0
LINE
  8
0
 10
-4.24219
 20
134.971
 11
-4.30859
 21
134.951
  0
LINE
  8
0
 10
-4.30859
 20
134.951
 11
-4.3584
 21
134.934
  0
LINE
  8
0
 10
-4.3584
 20
134.934
 11
-4.375
 21
134.927
  0
LINE
  8
0
 10
-4.375
 20
134.927
 11
-4.39062
 21
134.921
  0
LINE
  8
0
 10
-4.39062
 20
134.921
 11
-4.40625
 21
134.913
  0
LINE
  8
0
 10
-4.40625
 20
134.913
 11
-4.42285
 21
134.906
  0
LINE
  8
0
 10
-4.42285
 20
134.906
 11
-4.46973
 21
134.883
  0
LINE
  8
0
 10
-4.46973
 20
134.883
 11
-4.48438
 21
134.875
  0
LINE
  8
0
 10
-4.48438
 20
134.875
 11
-4.5
 21
134.866
  0
LINE
  8
0
 10
-4.5
 20
134.866
 11
-4.51465
 21
134.857
  0
LINE
  8
0
 10
-4.51465
 20
134.857
 11
-4.53027
 21
134.848
  0
LINE
  8
0
 10
-4.53027
 20
134.848
 11
-4.54492
 21
134.839
  0
LINE
  8
0
 10
-4.54492
 20
134.839
 11
-4.55957
 21
134.829
  0
LINE
  8
0
 10
-4.55957
 20
134.829
 11
-4.57324
 21
134.819
  0
LINE
  8
0
 10
-4.57324
 20
134.819
 11
-4.58789
 21
134.809
  0
LINE
  8
0
 10
-4.58789
 20
134.809
 11
-4.60156
 21
134.799
  0
LINE
  8
0
 10
-4.60156
 20
134.799
 11
-4.62891
 21
134.777
  0
LINE
  8
0
 10
-4.62891
 20
134.777
 11
-4.64258
 21
134.766
  0
LINE
  8
0
 10
-4.64258
 20
134.766
 11
-4.65625
 21
134.755
  0
LINE
  8
0
 10
-4.65625
 20
134.755
 11
-4.69434
 21
134.72
  0
LINE
  8
0
 10
-4.69434
 20
134.72
 11
-4.71973
 21
134.694
  0
LINE
  8
0
 10
-4.71973
 20
134.694
 11
-4.75488
 21
134.656
  0
LINE
  8
0
 10
-4.75488
 20
134.656
 11
-4.76562
 21
134.643
  0
LINE
  8
0
 10
-4.76562
 20
134.643
 11
-4.77734
 21
134.629
  0
LINE
  8
0
 10
-4.77734
 20
134.629
 11
-4.79883
 21
134.602
  0
LINE
  8
0
 10
-4.79883
 20
134.602
 11
-4.80859
 21
134.588
  0
LINE
  8
0
 10
-4.80859
 20
134.588
 11
-4.81934
 21
134.573
  0
LINE
  8
0
 10
-4.81934
 20
134.573
 11
-4.8291
 21
134.56
  0
LINE
  8
0
 10
-4.8291
 20
134.56
 11
-4.83887
 21
134.545
  0
LINE
  8
0
 10
-4.83887
 20
134.545
 11
-4.84766
 21
134.53
  0
LINE
  8
0
 10
-4.84766
 20
134.53
 11
-4.85742
 21
134.515
  0
LINE
  8
0
 10
-4.85742
 20
134.515
 11
-4.86621
 21
134.5
  0
LINE
  8
0
 10
-4.86621
 20
134.5
 11
-4.875
 21
134.484
  0
LINE
  8
0
 10
-4.875
 20
134.484
 11
-4.88281
 21
134.47
  0
LINE
  8
0
 10
-4.88281
 20
134.47
 11
-4.90625
 21
134.423
  0
LINE
  8
0
 10
-4.90625
 20
134.423
 11
-4.91309
 21
134.406
  0
LINE
  8
0
 10
-4.91309
 20
134.406
 11
-4.9209
 21
134.391
  0
LINE
  8
0
 10
-4.9209
 20
134.391
 11
-4.92676
 21
134.375
  0
LINE
  8
0
 10
-4.92676
 20
134.375
 11
-4.93359
 21
134.358
  0
LINE
  8
0
 10
-4.93359
 20
134.358
 11
-4.95117
 21
134.309
  0
LINE
  8
0
 10
-4.95117
 20
134.309
 11
-4.9707
 21
134.242
  0
LINE
  8
0
 10
-4.9707
 20
134.242
 11
-4.97461
 21
134.225
  0
LINE
  8
0
 10
-4.97461
 20
134.225
 11
-4.97852
 21
134.208
  0
LINE
  8
0
 10
-4.97852
 20
134.208
 11
-4.98145
 21
134.19
  0
LINE
  8
0
 10
-4.98145
 20
134.19
 11
-4.98438
 21
134.174
  0
LINE
  8
0
 10
-4.98438
 20
134.174
 11
-4.9873
 21
134.156
  0
LINE
  8
0
 10
-4.9873
 20
134.156
 11
-4.99023
 21
134.14
  0
LINE
  8
0
 10
-4.99023
 20
134.14
 11
-4.99805
 21
134.069
  0
LINE
  8
0
 10
-4.99805
 20
134.069
 11
-4.99902
 21
134.053
  0
LINE
  8
0
 10
-4.99902
 20
134.053
 11
-4.99902
 21
134.035
  0
LINE
  8
0
 10
-4.99902
 20
134.035
 11
-5
 21
134.018
  0
LINE
  8
0
 10
-5
 20
134.018
 11
-5
 21
125.982
  0
LINE
  8
0
 10
-5
 20
125.982
 11
-4.99902
 21
125.965
  0
LINE
  8
0
 10
-4.99902
 20
125.965
 11
-4.99902
 21
125.947
  0
LINE
  8
0
 10
-4.99902
 20
125.947
 11
-4.99805
 21
125.931
  0
LINE
  8
0
 10
-4.99805
 20
125.931
 11
-4.99023
 21
125.86
  0
LINE
  8
0
 10
-4.99023
 20
125.86
 11
-4.9873
 21
125.844
  0
LINE
  8
0
 10
-4.9873
 20
125.844
 11
-4.98438
 21
125.826
  0
LINE
  8
0
 10
-4.98438
 20
125.826
 11
-4.98145
 21
125.81
  0
LINE
  8
0
 10
-4.98145
 20
125.81
 11
-4.97852
 21
125.792
  0
LINE
  8
0
 10
-4.97852
 20
125.792
 11
-4.97461
 21
125.775
  0
LINE
  8
0
 10
-4.97461
 20
125.775
 11
-4.9707
 21
125.758
  0
LINE
  8
0
 10
-4.9707
 20
125.758
 11
-4.95117
 21
125.691
  0
LINE
  8
0
 10
-4.95117
 20
125.691
 11
-4.93359
 21
125.642
  0
LINE
  8
0
 10
-4.93359
 20
125.642
 11
-4.92676
 21
125.625
  0
LINE
  8
0
 10
-4.92676
 20
125.625
 11
-4.9209
 21
125.609
  0
LINE
  8
0
 10
-4.9209
 20
125.609
 11
-4.91309
 21
125.594
  0
LINE
  8
0
 10
-4.91309
 20
125.594
 11
-4.90625
 21
125.577
  0
LINE
  8
0
 10
-4.90625
 20
125.577
 11
-4.88281
 21
125.53
  0
LINE
  8
0
 10
-4.88281
 20
125.53
 11
-4.875
 21
125.516
  0
LINE
  8
0
 10
-4.875
 20
125.516
 11
-4.86621
 21
125.5
  0
LINE
  8
0
 10
-4.86621
 20
125.5
 11
-4.85742
 21
125.485
  0
LINE
  8
0
 10
-4.85742
 20
125.485
 11
-4.84766
 21
125.47
  0
LINE
  8
0
 10
-4.84766
 20
125.47
 11
-4.83887
 21
125.455
  0
LINE
  8
0
 10
-4.83887
 20
125.455
 11
-4.8291
 21
125.44
  0
LINE
  8
0
 10
-4.8291
 20
125.44
 11
-4.81934
 21
125.427
  0
LINE
  8
0
 10
-4.81934
 20
125.427
 11
-4.80859
 21
125.412
  0
LINE
  8
0
 10
-4.80859
 20
125.412
 11
-4.79883
 21
125.398
  0
LINE
  8
0
 10
-4.79883
 20
125.398
 11
-4.77734
 21
125.371
  0
LINE
  8
0
 10
-4.77734
 20
125.371
 11
-4.76562
 21
125.357
  0
LINE
  8
0
 10
-4.76562
 20
125.357
 11
-4.75488
 21
125.344
  0
LINE
  8
0
 10
-4.75488
 20
125.344
 11
-4.71973
 21
125.306
  0
LINE
  8
0
 10
-4.71973
 20
125.306
 11
-4.69434
 21
125.28
  0
LINE
  8
0
 10
-4.69434
 20
125.28
 11
-4.65625
 21
125.245
  0
LINE
  8
0
 10
-4.65625
 20
125.245
 11
-4.64258
 21
125.234
  0
LINE
  8
0
 10
-4.64258
 20
125.234
 11
-4.62891
 21
125.223
  0
LINE
  8
0
 10
-4.62891
 20
125.223
 11
-4.60156
 21
125.201
  0
LINE
  8
0
 10
-4.60156
 20
125.201
 11
-4.58789
 21
125.191
  0
LINE
  8
0
 10
-4.58789
 20
125.191
 11
-4.57324
 21
125.181
  0
LINE
  8
0
 10
-4.57324
 20
125.181
 11
-4.55957
 21
125.171
  0
LINE
  8
0
 10
-4.55957
 20
125.171
 11
-4.54492
 21
125.161
  0
LINE
  8
0
 10
-4.54492
 20
125.161
 11
-4.53027
 21
125.152
  0
LINE
  8
0
 10
-4.53027
 20
125.152
 11
-4.51465
 21
125.143
  0
LINE
  8
0
 10
-4.51465
 20
125.143
 11
-4.5
 21
125.134
  0
LINE
  8
0
 10
-4.5
 20
125.134
 11
-4.48438
 21
125.125
  0
LINE
  8
0
 10
-4.48438
 20
125.125
 11
-4.46973
 21
125.117
  0
LINE
  8
0
 10
-4.46973
 20
125.117
 11
-4.42285
 21
125.094
  0
LINE
  8
0
 10
-4.42285
 20
125.094
 11
-4.40625
 21
125.087
  0
LINE
  8
0
 10
-4.40625
 20
125.087
 11
-4.39062
 21
125.079
  0
LINE
  8
0
 10
-4.39062
 20
125.079
 11
-4.375
 21
125.073
  0
LINE
  8
0
 10
-4.375
 20
125.073
 11
-4.3584
 21
125.066
  0
LINE
  8
0
 10
-4.3584
 20
125.066
 11
-4.30859
 21
125.049
  0
LINE
  8
0
 10
-4.30859
 20
125.049
 11
-4.24219
 21
125.029
  0
LINE
  8
0
 10
-4.24219
 20
125.029
 11
-4.22461
 21
125.025
  0
LINE
  8
0
 10
-4.22461
 20
125.025
 11
-4.20801
 21
125.021
  0
LINE
  8
0
 10
-4.20801
 20
125.021
 11
-4.19043
 21
125.019
  0
LINE
  8
0
 10
-4.19043
 20
125.019
 11
-4.17383
 21
125.016
  0
LINE
  8
0
 10
-4.17383
 20
125.016
 11
-4.15625
 21
125.013
  0
LINE
  8
0
 10
-4.15625
 20
125.013
 11
-4.13965
 21
125.01
  0
LINE
  8
0
 10
-4.13965
 20
125.01
 11
-4.06934
 21
125.002
  0
LINE
  8
0
 10
-4.06934
 20
125.002
 11
-4.05273
 21
125.001
  0
LINE
  8
0
 10
-4.05273
 20
125.001
 11
-4.03516
 21
125.001
  0
LINE
  8
0
 10
-4.03516
 20
125.001
 11
-4.01758
 21
125
  0
LINE
  8
0
 10
-4.01758
 20
125
 11
0
 21
125
  0
LINE
  8
0
 10
0
 20
125
 11
0
 21
65
  0
LINE
  8
0
 10
0
 20
65
 11
-4.01758
 21
65
  0
LINE
  8
0
 10
-4.01758
 20
65
 11
-4.03516
 21
64.999
  0
LINE
  8
0
 10
-4.03516
 20
64.999
 11
-4.05273
 21
64.999
  0
LINE
  8
0
 10
-4.05273
 20
64.999
 11
-4.06934
 21
64.998
  0
LINE
  8
0
 10
-4.06934
 20
64.998
 11
-4.13965
 21
64.9902
  0
LINE
  8
0
 10
-4.13965
 20
64.9902
 11
-4.15625
 21
64.9873
  0
LINE
  8
0
 10
-4.15625
 20
64.9873
 11
-4.17383
 21
64.9844
  0
LINE
  8
0
 10
-4.17383
 20
64.9844
 11
-4.19043
 21
64.9814
  0
LINE
  8
0
 10
-4.19043
 20
64.9814
 11
-4.20801
 21
64.9785
  0
LINE
  8
0
 10
-4.20801
 20
64.9785
 11
-4.22461
 21
64.9746
  0
LINE
  8
0
 10
-4.22461
 20
64.9746
 11
-4.24219
 21
64.9707
  0
LINE
  8
0
 10
-4.24219
 20
64.9707
 11
-4.30859
 21
64.9512
  0
LINE
  8
0
 10
-4.30859
 20
64.9512
 11
-4.3584
 21
64.9336
  0
LINE
  8
0
 10
-4.3584
 20
64.9336
 11
-4.375
 21
64.9268
  0
LINE
  8
0
 10
-4.375
 20
64.9268
 11
-4.39062
 21
64.9209
  0
LINE
  8
0
 10
-4.39062
 20
64.9209
 11
-4.40625
 21
64.9131
  0
LINE
  8
0
 10
-4.40625
 20
64.9131
 11
-4.42285
 21
64.9062
  0
LINE
  8
0
 10
-4.42285
 20
64.9062
 11
-4.46973
 21
64.8828
  0
LINE
  8
0
 10
-4.46973
 20
64.8828
 11
-4.48438
 21
64.875
  0
LINE
  8
0
 10
-4.48438
 20
64.875
 11
-4.5
 21
64.8662
  0
LINE
  8
0
 10
-4.5
 20
64.8662
 11
-4.51465
 21
64.8574
  0
LINE
  8
0
 10
-4.51465
 20
64.8574
 11
-4.53027
 21
64.8477
  0
LINE
  8
0
 10
-4.53027
 20
64.8477
 11
-4.54492
 21
64.8389
  0
LINE
  8
0
 10
-4.54492
 20
64.8389
 11
-4.55957
 21
64.8291
  0
LINE
  8
0
 10
-4.55957
 20
64.8291
 11
-4.57324
 21
64.8193
  0
LINE
  8
0
 10
-4.57324
 20
64.8193
 11
-4.58789
 21
64.8086
  0
LINE
  8
0
 10
-4.58789
 20
64.8086
 11
-4.60156
 21
64.7988
  0
LINE
  8
0
 10
-4.60156
 20
64.7988
 11
-4.62891
 21
64.7773
  0
LINE
  8
0
 10
-4.62891
 20
64.7773
 11
-4.64258
 21
64.7656
  0
LINE
  8
0
 10
-4.64258
 20
64.7656
 11
-4.65625
 21
64.7549
  0
LINE
  8
0
 10
-4.65625
 20
64.7549
 11
-4.69434
 21
64.7197
  0
LINE
  8
0
 10
-4.69434
 20
64.7197
 11
-4.71973
 21
64.6943
  0
LINE
  8
0
 10
-4.71973
 20
64.6943
 11
-4.75488
 21
64.6562
  0
LINE
  8
0
 10
-4.75488
 20
64.6562
 11
-4.76562
 21
64.6426
  0
LINE
  8
0
 10
-4.76562
 20
64.6426
 11
-4.77734
 21
64.6289
  0
LINE
  8
0
 10
-4.77734
 20
64.6289
 11
-4.79883
 21
64.6016
  0
LINE
  8
0
 10
-4.79883
 20
64.6016
 11
-4.80859
 21
64.5879
  0
LINE
  8
0
 10
-4.80859
 20
64.5879
 11
-4.81934
 21
64.5732
  0
LINE
  8
0
 10
-4.81934
 20
64.5732
 11
-4.8291
 21
64.5596
  0
LINE
  8
0
 10
-4.8291
 20
64.5596
 11
-4.83887
 21
64.5449
  0
LINE
  8
0
 10
-4.83887
 20
64.5449
 11
-4.84766
 21
64.5303
  0
LINE
  8
0
 10
-4.84766
 20
64.5303
 11
-4.85742
 21
64.5146
  0
LINE
  8
0
 10
-4.85742
 20
64.5146
 11
-4.86621
 21
64.5
  0
LINE
  8
0
 10
-4.86621
 20
64.5
 11
-4.875
 21
64.4844
  0
LINE
  8
0
 10
-4.875
 20
64.4844
 11
-4.88281
 21
64.4697
  0
LINE
  8
0
 10
-4.88281
 20
64.4697
 11
-4.90625
 21
64.4229
  0
LINE
  8
0
 10
-4.90625
 20
64.4229
 11
-4.91309
 21
64.4062
  0
LINE
  8
0
 10
-4.91309
 20
64.4062
 11
-4.9209
 21
64.3906
  0
LINE
  8
0
 10
-4.9209
 20
64.3906
 11
-4.92676
 21
64.375
  0
LINE
  8
0
 10
-4.92676
 20
64.375
 11
-4.93359
 21
64.3584
  0
LINE
  8
0
 10
-4.93359
 20
64.3584
 11
-4.95117
 21
64.3086
  0
LINE
  8
0
 10
-4.95117
 20
64.3086
 11
-4.9707
 21
64.2422
  0
LINE
  8
0
 10
-4.9707
 20
64.2422
 11
-4.97461
 21
64.2246
  0
LINE
  8
0
 10
-4.97461
 20
64.2246
 11
-4.97852
 21
64.208
  0
LINE
  8
0
 10
-4.97852
 20
64.208
 11
-4.98145
 21
64.1904
  0
LINE
  8
0
 10
-4.98145
 20
64.1904
 11
-4.98438
 21
64.1738
  0
LINE
  8
0
 10
-4.98438
 20
64.1738
 11
-4.9873
 21
64.1562
  0
LINE
  8
0
 10
-4.9873
 20
64.1562
 11
-4.99023
 21
64.1396
  0
LINE
  8
0
 10
-4.99023
 20
64.1396
 11
-4.99805
 21
64.0693
  0
LINE
  8
0
 10
-4.99805
 20
64.0693
 11
-4.99902
 21
64.0527
  0
LINE
  8
0
 10
-4.99902
 20
64.0527
 11
-4.99902
 21
64.0352
  0
LINE
  8
0
 10
-4.99902
 20
64.0352
 11
-5
 21
64.0176
  0
LINE
  8
0
 10
-5
 20
64.0176
 11
-5
 21
55.9824
  0
LINE
  8
0
 10
-5
 20
55.9824
 11
-4.99902
 21
55.9648
  0
LINE
  8
0
 10
-4.99902
 20
55.9648
 11
-4.99902
 21
55.9473
  0
LINE
  8
0
 10
-4.99902
 20
55.9473
 11
-4.99805
 21
55.9307
  0
LINE
  8
0
 10
-4.99805
 20
55.9307
 11
-4.99023
 21
55.8604
  0
LINE
  8
0
 10
-4.99023
 20
55.8604
 11
-4.9873
 21
55.8438
  0
LINE
  8
0
 10
-4.9873
 20
55.8438
 11
-4.98438
 21
55.8262
  0
LINE
  8
0
 10
-4.98438
 20
55.8262
 11
-4.98145
 21
55.8096
  0
LINE
  8
0
 10
-4.98145
 20
55.8096
 11
-4.97852
 21
55.792
  0
LINE
  8
0
 10
-4.97852
 20
55.792
 11
-4.97461
 21
55.7754
  0
LINE
  8
0
 10
-4.97461
 20
55.7754
 11
-4.9707
 21
55.7578
  0
LINE
  8
0
 10
-4.9707
 20
55.7578
 11
-4.95117
 21
55.6914
  0
LINE
  8
0
 10
-4.95117
 20
55.6914
 11
-4.93359
 21
55.6416
  0
LINE
  8
0
 10
-4.93359
 20
55.6416
 11
-4.92676
 21
55.625
  0
LINE
  8
0
 10
-4.92676
 20
55.625
 11
-4.9209
 21
55.6094
  0
LINE
  8
0
 10
-4.9209
 20
55.6094
 11
-4.91309
 21
55.5938
  0
LINE
  8
0
 10
-4.91309
 20
55.5938
 11
-4.90625
 21
55.5771
  0
LINE
  8
0
 10
-4.90625
 20
55.5771
 11
-4.88281
 21
55.5303
  0
LINE
  8
0
 10
-4.88281
 20
55.5303
 11
-4.875
 21
55.5156
  0
LINE
  8
0
 10
-4.875
 20
55.5156
 11
-4.86621
 21
55.5
  0
LINE
  8
0
 10
-4.86621
 20
55.5
 11
-4.85742
 21
55.4854
  0
LINE
  8
0
 10
-4.85742
 20
55.4854
 11
-4.84766
 21
55.4697
  0
LINE
  8
0
 10
-4.84766
 20
55.4697
 11
-4.83887
 21
55.4551
  0
LINE
  8
0
 10
-4.83887
 20
55.4551
 11
-4.8291
 21
55.4404
  0
LINE
  8
0
 10
-4.8291
 20
55.4404
 11
-4.81934
 21
55.4268
  0
LINE
  8
0
 10
-4.81934
 20
55.4268
 11
-4.80859
 21
55.4121
  0
LINE
  8
0
 10
-4.80859
 20
55.4121
 11
-4.79883
 21
55.3984
  0
LINE
  8
0
 10
-4.79883
 20
55.3984
 11
-4.77734
 21
55.3711
  0
LINE
  8
0
 10
-4.77734
 20
55.3711
 11
-4.76562
 21
55.3574
  0
LINE
  8
0
 10
-4.76562
 20
55.3574
 11
-4.75488
 21
55.3438
  0
LINE
  8
0
 10
-4.75488
 20
55.3438
 11
-4.71973
 21
55.3057
  0
LINE
  8
0
 10
-4.71973
 20
55.3057
 11
-4.69434
 21
55.2803
  0
LINE
  8
0
 10
-4.69434
 20
55.2803
 11
-4.65625
 21
55.2451
  0
LINE
  8
0
 10
-4.65625
 20
55.2451
 11
-4.64258
 21
55.2344
  0
LINE
  8
0
 10
-4.64258
 20
55.2344
 11
-4.62891
 21
55.2227
  0
LINE
  8
0
 10
-4.62891
 20
55.2227
 11
-4.60156
 21
55.2012
  0
LINE
  8
0
 10
-4.60156
 20
55.2012
 11
-4.58789
 21
55.1914
  0
LINE
  8
0
 10
-4.58789
 20
55.1914
 11
-4.57324
 21
55.1807
  0
LINE
  8
0
 10
-4.57324
 20
55.1807
 11
-4.55957
 21
55.1709
  0
LINE
  8
0
 10
-4.55957
 20
55.1709
 11
-4.54492
 21
55.1611
  0
LINE
  8
0
 10
-4.54492
 20
55.1611
 11
-4.53027
 21
55.1523
  0
LINE
  8
0
 10
-4.53027
 20
55.1523
 11
-4.51465
 21
55.1426
  0
LINE
  8
0
 10
-4.51465
 20
55.1426
 11
-4.5
 21
55.1338
  0
LINE
  8
0
 10
-4.5
 20
55.1338
 11
-4.48438
 21
55.125
  0
LINE
  8
0
 10
-4.48438
 20
55.125
 11
-4.46973
 21
55.1172
  0
LINE
  8
0
 10
-4.46973
 20
55.1172
 11
-4.42285
 21
55.0938
  0
LINE
  8
0
 10
-4.42285
 20
55.0938
 11
-4.40625
 21
55.0869
  0
LINE
  8
0
 10
-4.40625
 20
55.0869
 11
-4.39062
 21
55.0791
  0
LINE
  8
0
 10
-4.39062
 20
55.0791
 11
-4.375
 21
55.0732
  0
LINE
  8
0
 10
-4.375
 20
55.0732
 11
-4.3584
 21
55.0664
  0
LINE
  8
0
 10
-4.3584
 20
55.0664
 11
-4.30859
 21
55.0488
  0
LINE
  8
0
 10
-4.30859
 20
55.0488
 11
-4.24219
 21
55.0293
  0
LINE
  8
0
 10
-4.24219
 20
55.0293
 11
-4.22461
 21
55.0254
  0
LINE
  8
0
 10
-4.22461
 20
55.0254
 11
-4.20801
 21
55.0215
  0
LINE
  8
0
 10
-4.20801
 20
55.0215
 11
-4.19043
 21
55.0186
  0
LINE
  8
0
 10
-4.19043
 20
55.0186
 11
-4.17383
 21
55.0156
  0
LINE
  8
0
 10
-4.17383
 20
55.0156
 11
-4.15625
 21
55.0127
  0
LINE
  8
0
 10
-4.15625
 20
55.0127
 11
-4.13965
 21
55.0098
  0
LINE
  8
0
 10
-4.13965
 20
55.0098
 11
-4.06934
 21
55.002
  0
LINE
  8
0
 10
-4.06934
 20
55.002
 11
-4.05273
 21
55.001
  0
LINE
  8
0
 10
-4.05273
 20
55.001
 11
-4.03516
 21
55.001
  0
LINE
  8
0
 10
-4.03516
 20
55.001
 11
-4.01758
 21
55
  0
LINE
  8
0
 10
-4.01758
 20
55
 11
0
 21
55
  0
LINE
  8
0
 10
0
 20
55
 11
0
 21
0
  0
LINE
  8
0
 10
0
 20
0
 11
100.95
 21
0
  0
LINE
  8
0
 10
100.95
 20
0
 11
100.95
 21
55
  0
LINE
  8
0
 10
87.4717
 20
126.4
 11
87.416
 21
126.402
  0
LINE
  8
0
 10
87.416
 20
126.402
 11
87.3887
 21
126.404
  0
LINE
  8
0
 10
87.3887
 20
126.404
 11
87.3604
 21
126.406
  0
LINE
  8
0
 10
87.3604
 20
126.406
 11
87.333
 21
126.409
  0
LINE
  8
0
 10
87.333
 20
126.409
 11
87.3047
 21
126.412
  0
LINE
  8
0
 10
87.3047
 20
126.412
 11
87.25
 21
126.42
  0
LINE
  8
0
 10
87.25
 20
126.42
 11
87.2217
 21
126.424
  0
LINE
  8
0
 10
87.2217
 20
126.424
 11
87.1943
 21
126.43
  0
LINE
  8
0
 10
87.1943
 20
126.43
 11
87.167
 21
126.435
  0
LINE
  8
0
 10
87.167
 20
126.435
 11
87.1396
 21
126.441
  0
LINE
  8
0
 10
87.1396
 20
126.441
 11
87.1133
 21
126.447
  0
LINE
  8
0
 10
87.1133
 20
126.447
 11
87.0859
 21
126.454
  0
LINE
  8
0
 10
87.0859
 20
126.454
 11
87.0586
 21
126.462
  0
LINE
  8
0
 10
87.0586
 20
126.462
 11
87.0322
 21
126.47
  0
LINE
  8
0
 10
87.0322
 20
126.47
 11
86.9531
 21
126.496
  0
LINE
  8
0
 10
86.9531
 20
126.496
 11
86.9268
 21
126.506
  0
LINE
  8
0
 10
86.9268
 20
126.506
 11
86.9004
 21
126.517
  0
LINE
  8
0
 10
86.9004
 20
126.517
 11
86.8496
 21
126.538
  0
LINE
  8
0
 10
86.8496
 20
126.538
 11
86.7988
 21
126.562
  0
LINE
  8
0
 10
86.7988
 20
126.562
 11
86.7734
 21
126.574
  0
LINE
  8
0
 10
86.7734
 20
126.574
 11
86.749
 21
126.587
  0
LINE
  8
0
 10
86.749
 20
126.587
 11
86.7002
 21
126.614
  0
LINE
  8
0
 10
86.7002
 20
126.614
 11
86.6758
 21
126.629
  0
LINE
  8
0
 10
86.6758
 20
126.629
 11
86.6289
 21
126.658
  0
LINE
  8
0
 10
86.6289
 20
126.658
 11
86.582
 21
126.689
  0
LINE
  8
0
 10
86.582
 20
126.689
 11
86.5146
 21
126.739
  0
LINE
  8
0
 10
86.5146
 20
126.739
 11
86.4502
 21
126.792
  0
LINE
  8
0
 10
86.4502
 20
126.792
 11
86.4297
 21
126.811
  0
LINE
  8
0
 10
86.4297
 20
126.811
 11
86.4092
 21
126.83
  0
LINE
  8
0
 10
86.4092
 20
126.83
 11
86.3887
 21
126.849
  0
LINE
  8
0
 10
86.3887
 20
126.849
 11
86.3682
 21
126.868
  0
LINE
  8
0
 10
86.3682
 20
126.868
 11
86.3486
 21
126.889
  0
LINE
  8
0
 10
86.3486
 20
126.889
 11
86.3301
 21
126.909
  0
LINE
  8
0
 10
86.3301
 20
126.909
 11
86.3105
 21
126.93
  0
LINE
  8
0
 10
86.3105
 20
126.93
 11
86.292
 21
126.95
  0
LINE
  8
0
 10
86.292
 20
126.95
 11
86.2393
 21
127.015
  0
LINE
  8
0
 10
86.2393
 20
127.015
 11
86.1895
 21
127.082
  0
LINE
  8
0
 10
86.1895
 20
127.082
 11
86.1582
 21
127.129
  0
LINE
  8
0
 10
86.1582
 20
127.129
 11
86.1289
 21
127.176
  0
LINE
  8
0
 10
86.1289
 20
127.176
 11
86.1143
 21
127.2
  0
LINE
  8
0
 10
86.1143
 20
127.2
 11
86.0869
 21
127.249
  0
LINE
  8
0
 10
86.0869
 20
127.249
 11
86.0742
 21
127.273
  0
LINE
  8
0
 10
86.0742
 20
127.273
 11
86.0615
 21
127.299
  0
LINE
  8
0
 10
86.0615
 20
127.299
 11
86.0381
 21
127.35
  0
LINE
  8
0
 10
86.0381
 20
127.35
 11
86.0166
 21
127.4
  0
LINE
  8
0
 10
86.0166
 20
127.4
 11
86.0059
 21
127.427
  0
LINE
  8
0
 10
86.0059
 20
127.427
 11
85.9961
 21
127.453
  0
LINE
  8
0
 10
85.9961
 20
127.453
 11
85.9697
 21
127.532
  0
LINE
  8
0
 10
85.9697
 20
127.532
 11
85.9619
 21
127.559
  0
LINE
  8
0
 10
85.9619
 20
127.559
 11
85.9541
 21
127.586
  0
LINE
  8
0
 10
85.9541
 20
127.586
 11
85.9473
 21
127.613
  0
LINE
  8
0
 10
85.9473
 20
127.613
 11
85.9414
 21
127.64
  0
LINE
  8
0
 10
85.9414
 20
127.64
 11
85.9346
 21
127.667
  0
LINE
  8
0
 10
85.9346
 20
127.667
 11
85.9297
 21
127.694
  0
LINE
  8
0
 10
85.9297
 20
127.694
 11
85.9238
 21
127.722
  0
LINE
  8
0
 10
85.9238
 20
127.722
 11
85.9199
 21
127.75
  0
LINE
  8
0
 10
85.9199
 20
127.75
 11
85.9121
 21
127.805
  0
LINE
  8
0
 10
85.9121
 20
127.805
 11
85.9092
 21
127.833
  0
LINE
  8
0
 10
85.9092
 20
127.833
 11
85.9062
 21
127.86
  0
LINE
  8
0
 10
85.9062
 20
127.86
 11
85.9043
 21
127.889
  0
LINE
  8
0
 10
85.9043
 20
127.889
 11
85.9023
 21
127.916
  0
LINE
  8
0
 10
85.9023
 20
127.916
 11
85.9004
 21
127.972
  0
LINE
  8
0
 10
85.9004
 20
127.972
 11
85.9004
 21
128.028
  0
LINE
  8
0
 10
85.9004
 20
128.028
 11
85.9023
 21
128.084
  0
LINE
  8
0
 10
85.9023
 20
128.084
 11
85.9043
 21
128.111
  0
LINE
  8
0
 10
85.9043
 20
128.111
 11
85.9062
 21
128.14
  0
LINE
  8
0
 10
85.9062
 20
128.14
 11
85.9092
 21
128.167
  0
LINE
  8
0
 10
85.9092
 20
128.167
 11
85.9121
 21
128.195
  0
LINE
  8
0
 10
85.9121
 20
128.195
 11
85.9199
 21
128.25
  0
LINE
  8
0
 10
85.9199
 20
128.25
 11
85.9238
 21
128.278
  0
LINE
  8
0
 10
85.9238
 20
128.278
 11
85.9297
 21
128.306
  0
LINE
  8
0
 10
85.9297
 20
128.306
 11
85.9346
 21
128.333
  0
LINE
  8
0
 10
85.9346
 20
128.333
 11
85.9414
 21
128.36
  0
LINE
  8
0
 10
85.9414
 20
128.36
 11
85.9473
 21
128.387
  0
LINE
  8
0
 10
85.9473
 20
128.387
 11
85.9541
 21
128.414
  0
LINE
  8
0
 10
85.9541
 20
128.414
 11
85.9619
 21
128.441
  0
LINE
  8
0
 10
85.9619
 20
128.441
 11
85.9697
 21
128.468
  0
LINE
  8
0
 10
85.9697
 20
128.468
 11
85.9961
 21
128.547
  0
LINE
  8
0
 10
85.9961
 20
128.547
 11
86.0059
 21
128.573
  0
LINE
  8
0
 10
86.0059
 20
128.573
 11
86.0166
 21
128.6
  0
LINE
  8
0
 10
86.0166
 20
128.6
 11
86.0381
 21
128.65
  0
LINE
  8
0
 10
86.0381
 20
128.65
 11
86.0615
 21
128.701
  0
LINE
  8
0
 10
86.0615
 20
128.701
 11
86.0742
 21
128.727
  0
LINE
  8
0
 10
86.0742
 20
128.727
 11
86.0869
 21
128.751
  0
LINE
  8
0
 10
86.0869
 20
128.751
 11
86.1143
 21
128.8
  0
LINE
  8
0
 10
86.1143
 20
128.8
 11
86.1289
 21
128.824
  0
LINE
  8
0
 10
86.1289
 20
128.824
 11
86.1582
 21
128.871
  0
LINE
  8
0
 10
86.1582
 20
128.871
 11
86.1895
 21
128.918
  0
LINE
  8
0
 10
86.1895
 20
128.918
 11
86.2393
 21
128.985
  0
LINE
  8
0
 10
86.2393
 20
128.985
 11
86.292
 21
129.05
  0
LINE
  8
0
 10
86.292
 20
129.05
 11
86.3105
 21
129.07
  0
LINE
  8
0
 10
86.3105
 20
129.07
 11
86.3301
 21
129.091
  0
LINE
  8
0
 10
86.3301
 20
129.091
 11
86.3486
 21
129.111
  0
LINE
  8
0
 10
86.3486
 20
129.111
 11
86.3682
 21
129.132
  0
LINE
  8
0
 10
86.3682
 20
129.132
 11
86.3887
 21
129.151
  0
LINE
  8
0
 10
86.3887
 20
129.151
 11
86.4092
 21
129.17
  0
LINE
  8
0
 10
86.4092
 20
129.17
 11
86.4297
 21
129.189
  0
LINE
  8
0
 10
86.4297
 20
129.189
 11
86.4502
 21
129.208
  0
LINE
  8
0
 10
86.4502
 20
129.208
 11
86.5146
 21
129.261
  0
LINE
  8
0
 10
86.5146
 20
129.261
 11
86.582
 21
129.311
  0
LINE
  8
0
 10
86.582
 20
129.311
 11
86.6289
 21
129.342
  0
LINE
  8
0
 10
86.6289
 20
129.342
 11
86.6758
 21
129.371
  0
LINE
  8
0
 10
86.6758
 20
129.371
 11
86.7002
 21
129.386
  0
LINE
  8
0
 10
86.7002
 20
129.386
 11
86.749
 21
129.413
  0
LINE
  8
0
 10
86.749
 20
129.413
 11
86.7734
 21
129.426
  0
LINE
  8
0
 10
86.7734
 20
129.426
 11
86.7988
 21
129.438
  0
LINE
  8
0
 10
86.7988
 20
129.438
 11
86.8496
 21
129.462
  0
LINE
  8
0
 10
86.8496
 20
129.462
 11
86.9004
 21
129.483
  0
LINE
  8
0
 10
86.9004
 20
129.483
 11
86.9268
 21
129.494
  0
LINE
  8
0
 10
86.9268
 20
129.494
 11
86.9531
 21
129.504
  0
LINE
  8
0
 10
86.9531
 20
129.504
 11
87.0322
 21
129.53
  0
LINE
  8
0
 10
87.0322
 20
129.53
 11
87.0586
 21
129.538
  0
LINE
  8
0
 10
87.0586
 20
129.538
 11
87.0859
 21
129.546
  0
LINE
  8
0
 10
87.0859
 20
129.546
 11
87.1133
 21
129.553
  0
LINE
  8
0
 10
87.1133
 20
129.553
 11
87.1396
 21
129.559
  0
LINE
  8
0
 10
87.1396
 20
129.559
 11
87.167
 21
129.565
  0
LINE
  8
0
 10
87.167
 20
129.565
 11
87.1943
 21
129.57
  0
LINE
  8
0
 10
87.1943
 20
129.57
 11
87.2217
 21
129.576
  0
LINE
  8
0
 10
87.2217
 20
129.576
 11
87.25
 21
129.58
  0
LINE
  8
0
 10
87.25
 20
129.58
 11
87.3047
 21
129.588
  0
LINE
  8
0
 10
87.3047
 20
129.588
 11
87.333
 21
129.591
  0
LINE
  8
0
 10
87.333
 20
129.591
 11
87.3604
 21
129.594
  0
LINE
  8
0
 10
87.3604
 20
129.594
 11
87.3887
 21
129.596
  0
LINE
  8
0
 10
87.3887
 20
129.596
 11
87.416
 21
129.598
  0
LINE
  8
0
 10
87.416
 20
129.598
 11
87.4717
 21
129.6
  0
LINE
  8
0
 10
87.4717
 20
129.6
 11
87.5283
 21
129.6
  0
LINE
  8
0
 10
87.5283
 20
129.6
 11
87.584
 21
129.598
  0
LINE
  8
0
 10
87.584
 20
129.598
 11
87.6113
 21
129.596
  0
LINE
  8
0
 10
87.6113
 20
129.596
 11
87.6396
 21
129.594
  0
LINE
  8
0
 10
87.6396
 20
129.594
 11
87.667
 21
129.591
  0
LINE
  8
0
 10
87.667
 20
129.591
 11
87.6953
 21
129.588
  0
LINE
  8
0
 10
87.6953
 20
129.588
 11
87.75
 21
129.58
  0
LINE
  8
0
 10
87.75
 20
129.58
 11
87.7783
 21
129.576
  0
LINE
  8
0
 10
87.7783
 20
129.576
 11
87.8057
 21
129.57
  0
LINE
  8
0
 10
87.8057
 20
129.57
 11
87.833
 21
129.565
  0
LINE
  8
0
 10
87.833
 20
129.565
 11
87.8604
 21
129.559
  0
LINE
  8
0
 10
87.8604
 20
129.559
 11
87.8867
 21
129.553
  0
LINE
  8
0
 10
87.8867
 20
129.553
 11
87.9141
 21
129.546
  0
LINE
  8
0
 10
87.9141
 20
129.546
 11
87.9414
 21
129.538
  0
LINE
  8
0
 10
87.9414
 20
129.538
 11
87.9678
 21
129.53
  0
LINE
  8
0
 10
87.9678
 20
129.53
 11
88.0469
 21
129.504
  0
LINE
  8
0
 10
88.0469
 20
129.504
 11
88.0732
 21
129.494
  0
LINE
  8
0
 10
88.0732
 20
129.494
 11
88.0996
 21
129.483
  0
LINE
  8
0
 10
88.0996
 20
129.483
 11
88.1504
 21
129.462
  0
LINE
  8
0
 10
88.1504
 20
129.462
 11
88.2012
 21
129.438
  0
LINE
  8
0
 10
88.2012
 20
129.438
 11
88.2266
 21
129.426
  0
LINE
  8
0
 10
88.2266
 20
129.426
 11
88.251
 21
129.413
  0
LINE
  8
0
 10
88.251
 20
129.413
 11
88.2998
 21
129.386
  0
LINE
  8
0
 10
88.2998
 20
129.386
 11
88.3242
 21
129.371
  0
LINE
  8
0
 10
88.3242
 20
129.371
 11
88.3711
 21
129.342
  0
LINE
  8
0
 10
88.3711
 20
129.342
 11
88.418
 21
129.311
  0
LINE
  8
0
 10
88.418
 20
129.311
 11
88.4854
 21
129.261
  0
LINE
  8
0
 10
88.4854
 20
129.261
 11
88.5498
 21
129.208
  0
LINE
  8
0
 10
88.5498
 20
129.208
 11
88.5703
 21
129.189
  0
LINE
  8
0
 10
88.5703
 20
129.189
 11
88.5908
 21
129.17
  0
LINE
  8
0
 10
88.5908
 20
129.17
 11
88.6113
 21
129.151
  0
LINE
  8
0
 10
88.6113
 20
129.151
 11
88.6318
 21
129.132
  0
LINE
  8
0
 10
88.6318
 20
129.132
 11
88.6514
 21
129.111
  0
LINE
  8
0
 10
88.6514
 20
129.111
 11
88.6699
 21
129.091
  0
LINE
  8
0
 10
88.6699
 20
129.091
 11
88.6895
 21
129.07
  0
LINE
  8
0
 10
88.6895
 20
129.07
 11
88.708
 21
129.05
  0
LINE
  8
0
 10
88.708
 20
129.05
 11
88.7607
 21
128.985
  0
LINE
  8
0
 10
88.7607
 20
128.985
 11
88.8105
 21
128.918
  0
LINE
  8
0
 10
88.8105
 20
128.918
 11
88.8418
 21
128.871
  0
LINE
  8
0
 10
88.8418
 20
128.871
 11
88.8711
 21
128.824
  0
LINE
  8
0
 10
88.8711
 20
128.824
 11
88.8857
 21
128.8
  0
LINE
  8
0
 10
88.8857
 20
128.8
 11
88.9131
 21
128.751
  0
LINE
  8
0
 10
88.9131
 20
128.751
 11
88.9258
 21
128.727
  0
LINE
  8
0
 10
88.9258
 20
128.727
 11
88.9385
 21
128.701
  0
LINE
  8
0
 10
88.9385
 20
128.701
 11
88.9619
 21
128.65
  0
LINE
  8
0
 10
88.9619
 20
128.65
 11
88.9834
 21
128.6
  0
LINE
  8
0
 10
88.9834
 20
128.6
 11
88.9941
 21
128.573
  0
LINE
  8
0
 10
88.9941
 20
128.573
 11
89.0039
 21
128.547
  0
LINE
  8
0
 10
89.0039
 20
128.547
 11
89.0303
 21
128.468
  0
LINE
  8
0
 10
89.0303
 20
128.468
 11
89.0381
 21
128.441
  0
LINE
  8
0
 10
89.0381
 20
128.441
 11
89.0459
 21
128.414
  0
LINE
  8
0
 10
89.0459
 20
128.414
 11
89.0527
 21
128.387
  0
LINE
  8
0
 10
89.0527
 20
128.387
 11
89.0586
 21
128.36
  0
LINE
  8
0
 10
89.0586
 20
128.36
 11
89.0654
 21
128.333
  0
LINE
  8
0
 10
89.0654
 20
128.333
 11
89.0703
 21
128.306
  0
LINE
  8
0
 10
89.0703
 20
128.306
 11
89.0762
 21
128.278
  0
LINE
  8
0
 10
89.0762
 20
128.278
 11
89.0801
 21
128.25
  0
LINE
  8
0
 10
89.0801
 20
128.25
 11
89.0879
 21
128.195
  0
LINE
  8
0
 10
89.0879
 20
128.195
 11
89.0908
 21
128.167
  0
LINE
  8
0
 10
89.0908
 20
128.167
 11
89.0938
 21
128.14
  0
LINE
  8
0
 10
89.0938
 20
128.14
 11
89.0957
 21
128.111
  0
LINE
  8
0
 10
89.0957
 20
128.111
 11
89.0977
 21
128.084
  0
LINE
  8
0
 10
89.0977
 20
128.084
 11
89.0996
 21
128.028
  0
LINE
  8
0
 10
89.0996
 20
128.028
 11
89.0996
 21
127.972
  0
LINE
  8
0
 10
89.0996
 20
127.972
 11
89.0977
 21
127.916
  0
LINE
  8
0
 10
89.0977
 20
127.916
 11
89.0957
 21
127.889
  0
LINE
  8
0
 10
89.0957
 20
127.889
 11
89.0938
 21
127.86
  0
LINE
  8
0
 10
89.0938
 20
127.86
 11
89.0908
 21
127.833
  0
LINE
  8
0
 10
89.0908
 20
127.833
 11
89.0879
 21
127.805
  0
LINE
  8
0
 10
89.0879
 20
127.805
 11
89.0801
 21
127.75
  0
LINE
  8
0
 10
89.0801
 20
127.75
 11
89.0762
 21
127.722
  0
LINE
  8
0
 10
89.0762
 20
127.722
 11
89.0703
 21
127.694
  0
LINE
  8
0
 10
89.0703
 20
127.694
 11
89.0654
 21
127.667
  0
LINE
  8
0
 10
89.0654
 20
127.667
 11
89.0586
 21
127.64
  0
LINE
  8
0
 10
89.0586
 20
127.64
 11
89.0527
 21
127.613
  0
LINE
  8
0
 10
89.0527
 20
127.613
 11
89.0459
 21
127.586
  0
LINE
  8
0
 10
89.0459
 20
127.586
 11
89.0381
 21
127.559
  0
LINE
  8
0
 10
89.0381
 20
127.559
 11
89.0303
 21
127.532
  0
LINE
  8
0
 10
89.0303
 20
127.532
 11
89.0039
 21
127.453
  0
LINE
  8
0
 10
89.0039
 20
127.453
 11
88.9941
 21
127.427
  0
LINE
  8
0
 10
88.9941
 20
127.427
 11
88.9834
 21
127.4
  0
LINE
  8
0
 10
88.9834
 20
127.4
 11
88.9619
 21
127.35
  0
LINE
  8
0
 10
88.9619
 20
127.35
 11
88.9385
 21
127.299
  0
LINE
  8
0
 10
88.9385
 20
127.299
 11
88.9258
 21
127.273
  0
LINE
  8
0
 10
88.9258
 20
127.273
 11
88.9131
 21
127.249
  0
LINE
  8
0
 10
88.9131
 20
127.249
 11
88.8857
 21
127.2
  0
LINE
  8
0
 10
88.8857
 20
127.2
 11
88.8711
 21
127.176
  0
LINE
  8
0
 10
88.8711
 20
127.176
 11
88.8418
 21
127.129
  0
LINE
  8
0
 10
88.8418
 20
127.129
 11
88.8105
 21
127.082
  0
LINE
  8
0
 10
88.8105
 20
127.082
 11
88.7607
 21
127.015
  0
LINE
  8
0
 10
88.7607
 20
127.015
 11
88.708
 21
126.95
  0
LINE
  8
0
 10
88.708
 20
126.95
 11
88.6895
 21
126.93
  0
LINE
  8
0
 10
88.6895
 20
126.93
 11
88.6699
 21
126.909
  0
LINE
  8
0
 10
88.6699
 20
126.909
 11
88.6514
 21
126.889
  0
LINE
  8
0
 10
88.6514
 20
126.889
 11
88.6318
 21
126.868
  0
LINE
  8
0
 10
88.6318
 20
126.868
 11
88.6113
 21
126.849
  0
LINE
  8
0
 10
88.6113
 20
126.849
 11
88.5908
 21
126.83
  0
LINE
  8
0
 10
88.5908
 20
126.83
 11
88.5703
 21
126.811
  0
LINE
  8
0
 10
88.5703
 20
126.811
 11
88.5498
 21
126.792
  0
LINE
  8
0
 10
88.5498
 20
126.792
 11
88.4854
 21
126.739
  0
LINE
  8
0
 10
88.4854
 20
126.739
 11
88.418
 21
126.689
  0
LINE
  8
0
 10
88.418
 20
126.689
 11
88.3711
 21
126.658
  0
LINE
  8
0
 10
88.3711
 20
126.658
 11
88.3242
 21
126.629
  0
LINE
  8
0
 10
88.3242
 20
126.629
 11
88.2998
 21
126.614
  0
LINE
  8
0
 10
88.2998
 20
126.614
 11
88.251
 21
126.587
  0
LINE
  8
0
 10
88.251
 20
126.587
 11
88.2266
 21
126.574
  0
LINE
  8
0
 10
88.2266
 20
126.574
 11
88.2012
 21
126.562
  0
LINE
  8
0
 10
88.2012
 20
126.562
 11
88.1504
 21
126.538
  0
LINE
  8
0
 10
88.1504
 20
126.538
 11
88.0996
 21
126.517
  0
LINE
  8
0
 10
88.0996
 20
126.517
 11
88.0732
 21
126.506
  0
LINE
  8
0
 10
88.0732
 20
126.506
 11
88.0469
 21
126.496
  0
LINE
  8
0
 10
88.0469
 20
126.496
 11
87.9678
 21
126.47
  0
LINE
  8
0
 10
87.9678
 20
126.47
 11
87.9414
 21
126.462
  0
LINE
  8
0
 10
87.9414
 20
126.462
 11
87.9141
 21
126.454
  0
LINE
  8
0
 10
87.9141
 20
126.454
 11
87.8867
 21
126.447
  0
LINE
  8
0
 10
87.8867
 20
126.447
 11
87.8604
 21
126.441
  0
LINE
  8
0
 10
87.8604
 20
126.441
 11
87.833
 21
126.435
  0
LINE
  8
0
 10
87.833
 20
126.435
 11
87.8057
 21
126.43
  0
LINE
  8
0
 10
87.8057
 20
126.43
 11
87.7783
 21
126.424
  0
LINE
  8
0
 10
87.7783
 20
126.424
 11
87.75
 21
126.42
  0
LINE
  8
0
 10
87.75
 20
126.42
 11
87.6953
 21
126.412
  0
LINE
  8
0
 10
87.6953
 20
126.412
 11
87.667
 21
126.409
  0
LINE
  8
0
 10
87.667
 20
126.409
 11
87.6396
 21
126.406
  0
LINE
  8
0
 10
87.6396
 20
126.406
 11
87.6113
 21
126.404
  0
LINE
  8
0
 10
87.6113
 20
126.404
 11
87.584
 21
126.402
  0
LINE
  8
0
 10
87.584
 20
126.402
 11
87.5283
 21
126.4
  0
LINE
  8
0
 10
87.5283
 20
126.4
 11
87.4717
 21
126.4
  0
LINE
  8
0
 10
12.4717
 20
117.15
 11
12.416
 21
117.152
  0
LINE
  8
0
 10
12.416
 20
117.152
 11
12.3887
 21
117.154
  0
LINE
  8
0
 10
12.3887
 20
117.154
 11
12.3604
 21
117.156
  0
LINE
  8
0
 10
12.3604
 20
117.156
 11
12.333
 21
117.159
  0
LINE
  8
0
 10
12.333
 20
117.159
 11
12.3047
 21
117.162
  0
LINE
  8
0
 10
12.3047
 20
117.162
 11
12.25
 21
117.17
  0
LINE
  8
0
 10
12.25
 20
117.17
 11
12.2217
 21
117.174
  0
LINE
  8
0
 10
12.2217
 20
117.174
 11
12.1943
 21
117.18
  0
LINE
  8
0
 10
12.1943
 20
117.18
 11
12.167
 21
117.185
  0
LINE
  8
0
 10
12.167
 20
117.185
 11
12.1396
 21
117.191
  0
LINE
  8
0
 10
12.1396
 20
117.191
 11
12.1133
 21
117.197
  0
LINE
  8
0
 10
12.1133
 20
117.197
 11
12.0859
 21
117.204
  0
LINE
  8
0
 10
12.0859
 20
117.204
 11
12.0586
 21
117.212
  0
LINE
  8
0
 10
12.0586
 20
117.212
 11
12.0322
 21
117.22
  0
LINE
  8
0
 10
12.0322
 20
117.22
 11
11.9531
 21
117.246
  0
LINE
  8
0
 10
11.9531
 20
117.246
 11
11.9268
 21
117.256
  0
LINE
  8
0
 10
11.9268
 20
117.256
 11
11.9004
 21
117.267
  0
LINE
  8
0
 10
11.9004
 20
117.267
 11
11.8496
 21
117.288
  0
LINE
  8
0
 10
11.8496
 20
117.288
 11
11.7988
 21
117.312
  0
LINE
  8
0
 10
11.7988
 20
117.312
 11
11.7734
 21
117.324
  0
LINE
  8
0
 10
11.7734
 20
117.324
 11
11.749
 21
117.337
  0
LINE
  8
0
 10
11.749
 20
117.337
 11
11.7002
 21
117.364
  0
LINE
  8
0
 10
11.7002
 20
117.364
 11
11.6758
 21
117.379
  0
LINE
  8
0
 10
11.6758
 20
117.379
 11
11.6289
 21
117.408
  0
LINE
  8
0
 10
11.6289
 20
117.408
 11
11.582
 21
117.439
  0
LINE
  8
0
 10
11.582
 20
117.439
 11
11.5146
 21
117.489
  0
LINE
  8
0
 10
11.5146
 20
117.489
 11
11.4502
 21
117.542
  0
LINE
  8
0
 10
11.4502
 20
117.542
 11
11.4297
 21
117.561
  0
LINE
  8
0
 10
11.4297
 20
117.561
 11
11.4092
 21
117.58
  0
LINE
  8
0
 10
11.4092
 20
117.58
 11
11.3887
 21
117.599
  0
LINE
  8
0
 10
11.3887
 20
117.599
 11
11.3682
 21
117.618
  0
LINE
  8
0
 10
11.3682
 20
117.618
 11
11.3486
 21
117.639
  0
LINE
  8
0
 10
11.3486
 20
117.639
 11
11.3301
 21
117.659
  0
LINE
  8
0
 10
11.3301
 20
117.659
 11
11.3105
 21
117.68
  0
LINE
  8
0
 10
11.3105
 20
117.68
 11
11.292
 21
117.7
  0
LINE
  8
0
 10
11.292
 20
117.7
 11
11.2393
 21
117.765
  0
LINE
  8
0
 10
11.2393
 20
117.765
 11
11.1895
 21
117.832
  0
LINE
  8
0
 10
11.1895
 20
117.832
 11
11.1582
 21
117.879
  0
LINE
  8
0
 10
11.1582
 20
117.879
 11
11.1289
 21
117.926
  0
LINE
  8
0
 10
11.1289
 20
117.926
 11
11.1143
 21
117.95
  0
LINE
  8
0
 10
11.1143
 20
117.95
 11
11.0869
 21
117.999
  0
LINE
  8
0
 10
11.0869
 20
117.999
 11
11.0742
 21
118.023
  0
LINE
  8
0
 10
11.0742
 20
118.023
 11
11.0615
 21
118.049
  0
LINE
  8
0
 10
11.0615
 20
118.049
 11
11.0381
 21
118.1
  0
LINE
  8
0
 10
11.0381
 20
118.1
 11
11.0166
 21
118.15
  0
LINE
  8
0
 10
11.0166
 20
118.15
 11
11.0059
 21
118.177
  0
LINE
  8
0
 10
11.0059
 20
118.177
 11
10.9961
 21
118.203
  0
LINE
  8
0
 10
10.9961
 20
118.203
 11
10.9697
 21
118.282
  0
LINE
  8
0
 10
10.9697
 20
118.282
 11
10.9619
 21
118.309
  0
LINE
  8
0
 10
10.9619
 20
118.309
 11
10.9541
 21
118.336
  0
LINE
  8
0
 10
10.9541
 20
118.336
 11
10.9473
 21
118.363
  0
LINE
  8
0
 10
10.9473
 20
118.363
 11
10.9414
 21
118.39
  0
LINE
  8
0
 10
10.9414
 20
118.39
 11
10.9346
 21
118.417
  0
LINE
  8
0
 10
10.9346
 20
118.417
 11
10.9297
 21
118.444
  0
LINE
  8
0
 10
10.9297
 20
118.444
 11
10.9238
 21
118.472
  0
LINE
  8
0
 10
10.9238
 20
118.472
 11
10.9199
 21
118.5
  0
LINE
  8
0
 10
10.9199
 20
118.5
 11
10.9121
 21
118.555
  0
LINE
  8
0
 10
10.9121
 20
118.555
 11
10.9092
 21
118.583
  0
LINE
  8
0
 10
10.9092
 20
118.583
 11
10.9062
 21
118.61
  0
LINE
  8
0
 10
10.9062
 20
118.61
 11
10.9043
 21
118.639
  0
LINE
  8
0
 10
10.9043
 20
118.639
 11
10.9023
 21
118.666
  0
LINE
  8
0
 10
10.9023
 20
118.666
 11
10.9004
 21
118.722
  0
LINE
  8
0
 10
10.9004
 20
118.722
 11
10.9004
 21
118.778
  0
LINE
  8
0
 10
10.9004
 20
118.778
 11
10.9023
 21
118.834
  0
LINE
  8
0
 10
10.9023
 20
118.834
 11
10.9043
 21
118.861
  0
LINE
  8
0
 10
10.9043
 20
118.861
 11
10.9062
 21
118.89
  0
LINE
  8
0
 10
10.9062
 20
118.89
 11
10.9092
 21
118.917
  0
LINE
  8
0
 10
10.9092
 20
118.917
 11
10.9121
 21
118.945
  0
LINE
  8
0
 10
10.9121
 20
118.945
 11
10.9199
 21
119
  0
LINE
  8
0
 10
10.9199
 20
119
 11
10.9238
 21
119.028
  0
LINE
  8
0
 10
10.9238
 20
119.028
 11
10.9297
 21
119.056
  0
LINE
  8
0
 10
10.9297
 20
119.056
 11
10.9346
 21
119.083
  0
LINE
  8
0
 10
10.9346
 20
119.083
 11
10.9414
 21
119.11
  0
LINE
  8
0
 10
10.9414
 20
119.11
 11
10.9473
 21
119.137
  0
LINE
  8
0
 10
10.9473
 20
119.137
 11
10.9541
 21
119.164
  0
LINE
  8
0
 10
10.9541
 20
119.164
 11
10.9619
 21
119.191
  0
LINE
  8
0
 10
10.9619
 20
119.191
 11
10.9697
 21
119.218
  0
LINE
  8
0
 10
10.9697
 20
119.218
 11
10.9961
 21
119.297
  0
LINE
  8
0
 10
10.9961
 20
119.297
 11
11.0059
 21
119.323
  0
LINE
  8
0
 10
11.0059
 20
119.323
 11
11.0166
 21
119.35
  0
LINE
  8
0
 10
11.0166
 20
119.35
 11
11.0381
 21
119.4
  0
LINE
  8
0
 10
11.0381
 20
119.4
 11
11.0615
 21
119.451
  0
LINE
  8
0
 10
11.0615
 20
119.451
 11
11.0742
 21
119.477
  0
LINE
  8
0
 10
11.0742
 20
119.477
 11
11.0869
 21
119.501
  0
LINE
  8
0
 10
11.0869
 20
119.501
 11
11.1143
 21
119.55
  0
LINE
  8
0
 10
11.1143
 20
119.55
 11
11.1289
 21
119.574
  0
LINE
  8
0
 10
11.1289
 20
119.574
 11
11.1582
 21
119.621
  0
LINE
  8
0
 10
11.1582
 20
119.621
 11
11.1895
 21
119.668
  0
LINE
  8
0
 10
11.1895
 20
119.668
 11
11.2393
 21
119.735
  0
LINE
  8
0
 10
11.2393
 20
119.735
 11
11.292
 21
119.8
  0
LINE
  8
0
 10
11.292
 20
119.8
 11
11.3105
 21
119.82
  0
LINE
  8
0
 10
11.3105
 20
119.82
 11
11.3301
 21
119.841
  0
LINE
  8
0
 10
11.3301
 20
119.841
 11
11.3486
 21
119.861
  0
LINE
  8
0
 10
11.3486
 20
119.861
 11
11.3682
 21
119.882
  0
LINE
  8
0
 10
11.3682
 20
119.882
 11
11.3887
 21
119.901
  0
LINE
  8
0
 10
11.3887
 20
119.901
 11
11.4092
 21
119.92
  0
LINE
  8
0
 10
11.4092
 20
119.92
 11
11.4297
 21
119.939
  0
LINE
  8
0
 10
11.4297
 20
119.939
 11
11.4502
 21
119.958
  0
LINE
  8
0
 10
11.4502
 20
119.958
 11
11.5146
 21
120.011
  0
LINE
  8
0
 10
11.5146
 20
120.011
 11
11.582
 21
120.061
  0
LINE
  8
0
 10
11.582
 20
120.061
 11
11.6289
 21
120.092
  0
LINE
  8
0
 10
11.6289
 20
120.092
 11
11.6758
 21
120.121
  0
LINE
  8
0
 10
11.6758
 20
120.121
 11
11.7002
 21
120.136
  0
LINE
  8
0
 10
11.7002
 20
120.136
 11
11.749
 21
120.163
  0
LINE
  8
0
 10
11.749
 20
120.163
 11
11.7734
 21
120.176
  0
LINE
  8
0
 10
11.7734
 20
120.176
 11
11.7988
 21
120.188
  0
LINE
  8
0
 10
11.7988
 20
120.188
 11
11.8496
 21
120.212
  0
LINE
  8
0
 10
11.8496
 20
120.212
 11
11.9004
 21
120.233
  0
LINE
  8
0
 10
11.9004
 20
120.233
 11
11.9268
 21
120.244
  0
LINE
  8
0
 10
11.9268
 20
120.244
 11
11.9531
 21
120.254
  0
LINE
  8
0
 10
11.9531
 20
120.254
 11
12.0322
 21
120.28
  0
LINE
  8
0
 10
12.0322
 20
120.28
 11
12.0586
 21
120.288
  0
LINE
  8
0
 10
12.0586
 20
120.288
 11
12.0859
 21
120.296
  0
LINE
  8
0
 10
12.0859
 20
120.296
 11
12.1133
 21
120.303
  0
LINE
  8
0
 10
12.1133
 20
120.303
 11
12.1396
 21
120.309
  0
LINE
  8
0
 10
12.1396
 20
120.309
 11
12.167
 21
120.315
  0
LINE
  8
0
 10
12.167
 20
120.315
 11
12.1943
 21
120.32
  0
LINE
  8
0
 10
12.1943
 20
120.32
 11
12.2217
 21
120.326
  0
LINE
  8
0
 10
12.2217
 20
120.326
 11
12.25
 21
120.33
  0
LINE
  8
0
 10
12.25
 20
120.33
 11
12.3047
 21
120.338
  0
LINE
  8
0
 10
12.3047
 20
120.338
 11
12.333
 21
120.341
  0
LINE
  8
0
 10
12.333
 20
120.341
 11
12.3604
 21
120.344
  0
LINE
  8
0
 10
12.3604
 20
120.344
 11
12.3887
 21
120.346
  0
LINE
  8
0
 10
12.3887
 20
120.346
 11
12.416
 21
120.348
  0
LINE
  8
0
 10
12.416
 20
120.348
 11
12.4717
 21
120.35
  0
LINE
  8
0
 10
12.4717
 20
120.35
 11
12.5283
 21
120.35
  0
LINE
  8
0
 10
12.5283
 20
120.35
 11
12.584
 21
120.348
  0
LINE
  8
0
 10
12.584
 20
120.348
 11
12.6113
 21
120.346
  0
LINE
  8
0
 10
12.6113
 20
120.346
 11
12.6396
 21
120.344
  0
LINE
  8
0
 10
12.6396
 20
120.344
 11
12.667
 21
120.341
  0
LINE
  8
0
 10
12.667
 20
120.341
 11
12.6953
 21
120.338
  0
LINE
  8
0
 10
12.6953
 20
120.338
 11
12.75
 21
120.33
  0
LINE
  8
0
 10
12.75
 20
120.33
 11
12.7783
 21
120.326
  0
LINE
  8
0
 10
12.7783
 20
120.326
 11
12.8057
 21
120.32
  0
LINE
  8
0
 10
12.8057
 20
120.32
 11
12.833
 21
120.315
  0
LINE
  8
0
 10
12.833
 20
120.315
 11
12.8604
 21
120.309
  0
LINE
  8
0
 10
12.8604
 20
120.309
 11
12.8867
 21
120.303
  0
LINE
  8
0
 10
12.8867
 20
120.303
 11
12.9141
 21
120.296
  0
LINE
  8
0
 10
12.9141
 20
120.296
 11
12.9414
 21
120.288
  0
LINE
  8
0
 10
12.9414
 20
120.288
 11
12.9678
 21
120.28
  0
LINE
  8
0
 10
12.9678
 20
120.28
 11
13.0469
 21
120.254
  0
LINE
  8
0
 10
13.0469
 20
120.254
 11
13.0732
 21
120.244
  0
LINE
  8
0
 10
13.0732
 20
120.244
 11
13.0996
 21
120.233
  0
LINE
  8
0
 10
13.0996
 20
120.233
 11
13.1504
 21
120.212
  0
LINE
  8
0
 10
13.1504
 20
120.212
 11
13.2012
 21
120.188
  0
LINE
  8
0
 10
13.2012
 20
120.188
 11
13.2266
 21
120.176
  0
LINE
  8
0
 10
13.2266
 20
120.176
 11
13.251
 21
120.163
  0
LINE
  8
0
 10
13.251
 20
120.163
 11
13.2998
 21
120.136
  0
LINE
  8
0
 10
13.2998
 20
120.136
 11
13.3242
 21
120.121
  0
LINE
  8
0
 10
13.3242
 20
120.121
 11
13.3711
 21
120.092
  0
LINE
  8
0
 10
13.3711
 20
120.092
 11
13.418
 21
120.061
  0
LINE
  8
0
 10
13.418
 20
120.061
 11
13.4854
 21
120.011
  0
LINE
  8
0
 10
13.4854
 20
120.011
 11
13.5498
 21
119.958
  0
LINE
  8
0
 10
13.5498
 20
119.958
 11
13.5703
 21
119.939
  0
LINE
  8
0
 10
13.5703
 20
119.939
 11
13.5908
 21
119.92
  0
LINE
  8
0
 10
13.5908
 20
119.92
 11
13.6113
 21
119.901
  0
LINE
  8
0
 10
13.6113
 20
119.901
 11
13.6318
 21
119.882
  0
LINE
  8
0
 10
13.6318
 20
119.882
 11
13.6514
 21
119.861
  0
LINE
  8
0
 10
13.6514
 20
119.861
 11
13.6699
 21
119.841
  0
LINE
  8
0
 10
13.6699
 20
119.841
 11
13.6895
 21
119.82
  0
LINE
  8
0
 10
13.6895
 20
119.82
 11
13.708
 21
119.8
  0
LINE
  8
0
 10
13.708
 20
119.8
 11
13.7607
 21
119.735
  0
LINE
  8
0
 10
13.7607
 20
119.735
 11
13.8105
 21
119.668
  0
LINE
  8
0
 10
13.8105
 20
119.668
 11
13.8418
 21
119.621
  0
LINE
  8
0
 10
13.8418
 20
119.621
 11
13.8711
 21
119.574
  0
LINE
  8
0
 10
13.8711
 20
119.574
 11
13.8857
 21
119.55
  0
LINE
  8
0
 10
13.8857
 20
119.55
 11
13.9131
 21
119.501
  0
LINE
  8
0
 10
13.9131
 20
119.501
 11
13.9258
 21
119.477
  0
LINE
  8
0
 10
13.9258
 20
119.477
 11
13.9385
 21
119.451
  0
LINE
  8
0
 10
13.9385
 20
119.451
 11
13.9619
 21
119.4
  0
LINE
  8
0
 10
13.9619
 20
119.4
 11
13.9834
 21
119.35
  0
LINE
  8
0
 10
13.9834
 20
119.35
 11
13.9941
 21
119.323
  0
LINE
  8
0
 10
13.9941
 20
119.323
 11
14.0039
 21
119.297
  0
LINE
  8
0
 10
14.0039
 20
119.297
 11
14.0303
 21
119.218
  0
LINE
  8
0
 10
14.0303
 20
119.218
 11
14.0381
 21
119.191
  0
LINE
  8
0
 10
14.0381
 20
119.191
 11
14.0459
 21
119.164
  0
LINE
  8
0
 10
14.0459
 20
119.164
 11
14.0527
 21
119.137
  0
LINE
  8
0
 10
14.0527
 20
119.137
 11
14.0586
 21
119.11
  0
LINE
  8
0
 10
14.0586
 20
119.11
 11
14.0654
 21
119.083
  0
LINE
  8
0
 10
14.0654
 20
119.083
 11
14.0703
 21
119.056
  0
LINE
  8
0
 10
14.0703
 20
119.056
 11
14.0762
 21
119.028
  0
LINE
  8
0
 10
14.0762
 20
119.028
 11
14.0801
 21
119
  0
LINE
  8
0
 10
14.0801
 20
119
 11
14.0879
 21
118.945
  0
LINE
  8
0
 10
14.0879
 20
118.945
 11
14.0908
 21
118.917
  0
LINE
  8
0
 10
14.0908
 20
118.917
 11
14.0938
 21
118.89
  0
LINE
  8
0
 10
14.0938
 20
118.89
 11
14.0957
 21
118.861
  0
LINE
  8
0
 10
14.0957
 20
118.861
 11
14.0977
 21
118.834
  0
LINE
  8
0
 10
14.0977
 20
118.834
 11
14.0996
 21
118.778
  0
LINE
  8
0
 10
14.0996
 20
118.778
 11
14.0996
 21
118.722
  0
LINE
  8
0
 10
14.0996
 20
118.722
 11
14.0977
 21
118.666
  0
LINE
  8
0
 10
14.0977
 20
118.666
 11
14.0957
 21
118.639
  0
LINE
  8
0
 10
14.0957
 20
118.639
 11
14.0938
 21
118.61
  0
LINE
  8
0
 10
14.0938
 20
118.61
 11
14.0908
 21
118.583
  0
LINE
  8
0
 10
14.0908
 20
118.583
 11
14.0879
 21
118.555
  0
LINE
  8
0
 10
14.0879
 20
118.555
 11
14.0801
 21
118.5
  0
LINE
  8
0
 10
14.0801
 20
118.5
 11
14.0762
 21
118.472
  0
LINE
  8
0
 10
14.0762
 20
118.472
 11
14.0703
 21
118.444
  0
LINE
  8
0
 10
14.0703
 20
118.444
 11
14.0654
 21
118.417
  0
LINE
  8
0
 10
14.0654
 20
118.417
 11
14.0586
 21
118.39
  0
LINE
  8
0
 10
14.0586
 20
118.39
 11
14.0527
 21
118.363
  0
LINE
  8
0
 10
14.0527
 20
118.363
 11
14.0459
 21
118.336
  0
LINE
  8
0
 10
14.0459
 20
118.336
 11
14.0381
 21
118.309
  0
LINE
  8
0
 10
14.0381
 20
118.309
 11
14.0303
 21
118.282
  0
LINE
  8
0
 10
14.0303
 20
118.282
 11
14.0039
 21
118.203
  0
LINE
  8
0
 10
14.0039
 20
118.203
 11
13.9941
 21
118.177
  0
LINE
  8
0
 10
13.9941
 20
118.177
 11
13.9834
 21
118.15
  0
LINE
  8
0
 10
13.9834
 20
118.15
 11
13.9619
 21
118.1
  0
LINE
  8
0
 10
13.9619
 20
118.1
 11
13.9385
 21
118.049
  0
LINE
  8
0
 10
13.9385
 20
118.049
 11
13.9258
 21
118.023
  0
LINE
  8
0
 10
13.9258
 20
118.023
 11
13.9131
 21
117.999
  0
LINE
  8
0
 10
13.9131
 20
117.999
 11
13.8857
 21
117.95
  0
LINE
  8
0
 10
13.8857
 20
117.95
 11
13.8711
 21
117.926
  0
LINE
  8
0
 10
13.8711
 20
117.926
 11
13.8418
 21
117.879
  0
LINE
  8
0
 10
13.8418
 20
117.879
 11
13.8105
 21
117.832
  0
LINE
  8
0
 10
13.8105
 20
117.832
 11
13.7607
 21
117.765
  0
LINE
  8
0
 10
13.7607
 20
117.765
 11
13.708
 21
117.7
  0
LINE
  8
0
 10
13.708
 20
117.7
 11
13.6895
 21
117.68
  0
LINE
  8
0
 10
13.6895
 20
117.68
 11
13.6699
 21
117.659
  0
LINE
  8
0
 10
13.6699
 20
117.659
 11
13.6514
 21
117.639
  0
LINE
  8
0
 10
13.6514
 20
117.639
 11
13.6318
 21
117.618
  0
LINE
  8
0
 10
13.6318
 20
117.618
 11
13.6113
 21
117.599
  0
LINE
  8
0
 10
13.6113
 20
117.599
 11
13.5908
 21
117.58
  0
LINE
  8
0
 10
13.5908
 20
117.58
 11
13.5703
 21
117.561
  0
LINE
  8
0
 10
13.5703
 20
117.561
 11
13.5498
 21
117.542
  0
LINE
  8
0
 10
13.5498
 20
117.542
 11
13.4854
 21
117.489
  0
LINE
  8
0
 10
13.4854
 20
117.489
 11
13.418
 21
117.439
  0
LINE
  8
0
 10
13.418
 20
117.439
 11
13.3711
 21
117.408
  0
LINE
  8
0
 10
13.3711
 20
117.408
 11
13.3242
 21
117.379
  0
LINE
  8
0
 10
13.3242
 20
117.379
 11
13.2998
 21
117.364
  0
LINE
  8
0
 10
13.2998
 20
117.364
 11
13.251
 21
117.337
  0
LINE
  8
0
 10
13.251
 20
117.337
 11
13.2266
 21
117.324
  0
LINE
  8
0
 10
13.2266
 20
117.324
 11
13.2012
 21
117.312
  0
LINE
  8
0
 10
13.2012
 20
117.312
 11
13.1504
 21
117.288
  0
LINE
  8
0
 10
13.1504
 20
117.288
 11
13.0996
 21
117.267
  0
LINE
  8
0
 10
13.0996
 20
117.267
 11
13.0732
 21
117.256
  0
LINE
  8
0
 10
13.0732
 20
117.256
 11
13.0469
 21
117.246
  0
LINE
  8
0
 10
13.0469
 20
117.246
 11
12.9678
 21
117.22
  0
LINE
  8
0
 10
12.9678
 20
117.22
 11
12.9414
 21
117.212
  0
LINE
  8
0
 10
12.9414
 20
117.212
 11
12.9141
 21
117.204
  0
LINE
  8
0
 10
12.9141
 20
117.204
 11
12.8867
 21
117.197
  0
LINE
  8
0
 10
12.8867
 20
117.197
 11
12.8604
 21
117.191
  0
LINE
  8
0
 10
12.8604
 20
117.191
 11
12.833
 21
117.185
  0
LINE
  8
0
 10
12.833
 20
117.185
 11
12.8057
 21
117.18
  0
LINE
  8
0
 10
12.8057
 20
117.18
 11
12.7783
 21
117.174
  0
LINE
  8
0
 10
12.7783
 20
117.174
 11
12.75
 21
117.17
  0
LINE
  8
0
 10
12.75
 20
117.17
 11
12.6953
 21
117.162
  0
LINE
  8
0
 10
12.6953
 20
117.162
 11
12.667
 21
117.159
  0
LINE
  8
0
 10
12.667
 20
117.159
 11
12.6396
 21
117.156
  0
LINE
  8
0
 10
12.6396
 20
117.156
 11
12.6113
 21
117.154
  0
LINE
  8
0
 10
12.6113
 20
117.154
 11
12.584
 21
117.152
  0
LINE
  8
0
 10
12.584
 20
117.152
 11
12.5283
 21
117.15
  0
LINE
  8
0
 10
12.5283
 20
117.15
 11
12.4717
 21
117.15
  0
LINE
  8
0
 10
87.4717
 20
57.4004
 11
87.416
 21
57.4023
  0
LINE
  8
0
 10
87.416
 20
57.4023
 11
87.3887
 21
57.4043
  0
LINE
  8
0
 10
87.3887
 20
57.4043
 11
87.3604
 21
57.4062
  0
LINE
  8
0
 10
87.3604
 20
57.4062
 11
87.333
 21
57.4092
  0
LINE
  8
0
 10
87.333
 20
57.4092
 11
87.3047
 21
57.4121
  0
LINE
  8
0
 10
87.3047
 20
57.4121
 11
87.25
 21
57.4199
  0
LINE
  8
0
 10
87.25
 20
57.4199
 11
87.2217
 21
57.4238
  0
LINE
  8
0
 10
87.2217
 20
57.4238
 11
87.1943
 21
57.4297
  0
LINE
  8
0
 10
87.1943
 20
57.4297
 11
87.167
 21
57.4346
  0
LINE
  8
0
 10
87.167
 20
57.4346
 11
87.1396
 21
57.4414
  0
LINE
  8
0
 10
87.1396
 20
57.4414
 11
87.1133
 21
57.4473
  0
LINE
  8
0
 10
87.1133
 20
57.4473
 11
87.0859
 21
57.4541
  0
LINE
  8
0
 10
87.0859
 20
57.4541
 11
87.0586
 21
57.4619
  0
LINE
  8
0
 10
87.0586
 20
57.4619
 11
87.0322
 21
57.4697
  0
LINE
  8
0
 10
87.0322
 20
57.4697
 11
86.9531
 21
57.4961
  0
LINE
  8
0
 10
86.9531
 20
57.4961
 11
86.9268
 21
57.5059
  0
LINE
  8
0
 10
86.9268
 20
57.5059
 11
86.9004
 21
57.5166
  0
LINE
  8
0
 10
86.9004
 20
57.5166
 11
86.8496
 21
57.5381
  0
LINE
  8
0
 10
86.8496
 20
57.5381
 11
86.7988
 21
57.5615
  0
LINE
  8
0
 10
86.7988
 20
57.5615
 11
86.7734
 21
57.5742
  0
LINE
  8
0
 10
86.7734
 20
57.5742
 11
86.749
 21
57.5869
  0
LINE
  8
0
 10
86.749
 20
57.5869
 11
86.7002
 21
57.6143
  0
LINE
  8
0
 10
86.7002
 20
57.6143
 11
86.6758
 21
57.6289
  0
LINE
  8
0
 10
86.6758
 20
57.6289
 11
86.6289
 21
57.6582
  0
LINE
  8
0
 10
86.6289
 20
57.6582
 11
86.582
 21
57.6895
  0
LINE
  8
0
 10
86.582
 20
57.6895
 11
86.5146
 21
57.7393
  0
LINE
  8
0
 10
86.5146
 20
57.7393
 11
86.4502
 21
57.792
  0
LINE
  8
0
 10
86.4502
 20
57.792
 11
86.4297
 21
57.8105
  0
LINE
  8
0
 10
86.4297
 20
57.8105
 11
86.4092
 21
57.8301
  0
LINE
  8
0
 10
86.4092
 20
57.8301
 11
86.3887
 21
57.8486
  0
LINE
  8
0
 10
86.3887
 20
57.8486
 11
86.3682
 21
57.8682
  0
LINE
  8
0
 10
86.3682
 20
57.8682
 11
86.3486
 21
57.8887
  0
LINE
  8
0
 10
86.3486
 20
57.8887
 11
86.3301
 21
57.9092
  0
LINE
  8
0
 10
86.3301
 20
57.9092
 11
86.3105
 21
57.9297
  0
LINE
  8
0
 10
86.3105
 20
57.9297
 11
86.292
 21
57.9502
  0
LINE
  8
0
 10
86.292
 20
57.9502
 11
86.2393
 21
58.0146
  0
LINE
  8
0
 10
86.2393
 20
58.0146
 11
86.1895
 21
58.082
  0
LINE
  8
0
 10
86.1895
 20
58.082
 11
86.1582
 21
58.1289
  0
LINE
  8
0
 10
86.1582
 20
58.1289
 11
86.1289
 21
58.1758
  0
LINE
  8
0
 10
86.1289
 20
58.1758
 11
86.1143
 21
58.2002
  0
LINE
  8
0
 10
86.1143
 20
58.2002
 11
86.0869
 21
58.249
  0
LINE
  8
0
 10
86.0869
 20
58.249
 11
86.0742
 21
58.2734
  0
LINE
  8
0
 10
86.0742
 20
58.2734
 11
86.0615
 21
58.2988
  0
LINE
  8
0
 10
86.0615
 20
58.2988
 11
86.0381
 21
58.3496
  0
LINE
  8
0
 10
86.0381
 20
58.3496
 11
86.0166
 21
58.4004
  0
LINE
  8
0
 10
86.0166
 20
58.4004
 11
86.0059
 21
58.4268
  0
LINE
  8
0
 10
86.0059
 20
58.4268
 11
85.9961
 21
58.4531
  0
LINE
  8
0
 10
85.9961
 20
58.4531
 11
85.9697
 21
58.5322
  0
LINE
  8
0
 10
85.9697
 20
58.5322
 11
85.9619
 21
58.5586
  0
LINE
  8
0
 10
85.9619
 20
58.5586
 11
85.9541
 21
58.5859
  0
LINE
  8
0
 10
85.9541
 20
58.5859
 11
85.9473
 21
58.6133
  0
LINE
  8
0
 10
85.9473
 20
58.6133
 11
85.9414
 21
58.6396
  0
LINE
  8
0
 10
85.9414
 20
58.6396
 11
85.9346
 21
58.667
  0
LINE
  8
0
 10
85.9346
 20
58.667
 11
85.9297
 21
58.6943
  0
LINE
  8
0
 10
85.9297
 20
58.6943
 11
85.9238
 21
58.7217
  0
LINE
  8
0
 10
85.9238
 20
58.7217
 11
85.9199
 21
58.75
  0
LINE
  8
0
 10
85.9199
 20
58.75
 11
85.9121
 21
58.8047
  0
LINE
  8
0
 10
85.9121
 20
58.8047
 11
85.9092
 21
58.833
  0
LINE
  8
0
 10
85.9092
 20
58.833
 11
85.9062
 21
58.8604
  0
LINE
  8
0
 10
85.9062
 20
58.8604
 11
85.9043
 21
58.8887
  0
LINE
  8
0
 10
85.9043
 20
58.8887
 11
85.9023
 21
58.916
  0
LINE
  8
0
 10
85.9023
 20
58.916
 11
85.9004
 21
58.9717
  0
LINE
  8
0
 10
85.9004
 20
58.9717
 11
85.9004
 21
59.0283
  0
LINE
  8
0
 10
85.9004
 20
59.0283
 11
85.9023
 21
59.084
  0
LINE
  8
0
 10
85.9023
 20
59.084
 11
85.9043
 21
59.1113
  0
LINE
  8
0
 10
85.9043
 20
59.1113
 11
85.9062
 21
59.1396
  0
LINE
  8
0
 10
85.9062
 20
59.1396
 11
85.9092
 21
59.167
  0
LINE
  8
0
 10
85.9092
 20
59.167
 11
85.9121
 21
59.1953
  0
LINE
  8
0
 10
85.9121
 20
59.1953
 11
85.9199
 21
59.25
  0
LINE
  8
0
 10
85.9199
 20
59.25
 11
85.9238
 21
59.2783
  0
LINE
  8
0
 10
85.9238
 20
59.2783
 11
85.9297
 21
59.3057
  0
LINE
  8
0
 10
85.9297
 20
59.3057
 11
85.9346
 21
59.333
  0
LINE
  8
0
 10
85.9346
 20
59.333
 11
85.9414
 21
59.3604
  0
LINE
  8
0
 10
85.9414
 20
59.3604
 11
85.9473
 21
59.3867
  0
LINE
  8
0
 10
85.9473
 20
59.3867
 11
85.9541
 21
59.4141
  0
LINE
  8
0
 10
85.9541
 20
59.4141
 11
85.9619
 21
59.4414
  0
LINE
  8
0
 10
85.9619
 20
59.4414
 11
85.9697
 21
59.4678
  0
LINE
  8
0
 10
85.9697
 20
59.4678
 11
85.9961
 21
59.5469
  0
LINE
  8
0
 10
85.9961
 20
59.5469
 11
86.0059
 21
59.5732
  0
LINE
  8
0
 10
86.0059
 20
59.5732
 11
86.0166
 21
59.5996
  0
LINE
  8
0
 10
86.0166
 20
59.5996
 11
86.0381
 21
59.6504
  0
LINE
  8
0
 10
86.0381
 20
59.6504
 11
86.0615
 21
59.7012
  0
LINE
  8
0
 10
86.0615
 20
59.7012
 11
86.0742
 21
59.7266
  0
LINE
  8
0
 10
86.0742
 20
59.7266
 11
86.0869
 21
59.751
  0
LINE
  8
0
 10
86.0869
 20
59.751
 11
86.1143
 21
59.7998
  0
LINE
  8
0
 10
86.1143
 20
59.7998
 11
86.1289
 21
59.8242
  0
LINE
  8
0
 10
86.1289
 20
59.8242
 11
86.1582
 21
59.8711
  0
LINE
  8
0
 10
86.1582
 20
59.8711
 11
86.1895
 21
59.918
  0
LINE
  8
0
 10
86.1895
 20
59.918
 11
86.2393
 21
59.9854
  0
LINE
  8
0
 10
86.2393
 20
59.9854
 11
86.292
 21
60.0498
  0
LINE
  8
0
 10
86.292
 20
60.0498
 11
86.3105
 21
60.0703
  0
LINE
  8
0
 10
86.3105
 20
60.0703
 11
86.3301
 21
60.0908
  0
LINE
  8
0
 10
86.3301
 20
60.0908
 11
86.3486
 21
60.1113
  0
LINE
  8
0
 10
86.3486
 20
60.1113
 11
86.3682
 21
60.1318
  0
LINE
  8
0
 10
86.3682
 20
60.1318
 11
86.3887
 21
60.1514
  0
LINE
  8
0
 10
86.3887
 20
60.1514
 11
86.4092
 21
60.1699
  0
LINE
  8
0
 10
86.4092
 20
60.1699
 11
86.4297
 21
60.1895
  0
LINE
  8
0
 10
86.4297
 20
60.1895
 11
86.4502
 21
60.208
  0
LINE
  8
0
 10
86.4502
 20
60.208
 11
86.5146
 21
60.2607
  0
LINE
  8
0
 10
86.5146
 20
60.2607
 11
86.582
 21
60.3105
  0
LINE
  8
0
 10
86.582
 20
60.3105
 11
86.6289
 21
60.3418
  0
LINE
  8
0
 10
86.6289
 20
60.3418
 11
86.6758
 21
60.3711
  0
LINE
  8
0
 10
86.6758
 20
60.3711
 11
86.7002
 21
60.3857
  0
LINE
  8
0
 10
86.7002
 20
60.3857
 11
86.749
 21
60.4131
  0
LINE
  8
0
 10
86.749
 20
60.4131
 11
86.7734
 21
60.4258
  0
LINE
  8
0
 10
86.7734
 20
60.4258
 11
86.7988
 21
60.4385
  0
LINE
  8
0
 10
86.7988
 20
60.4385
 11
86.8496
 21
60.4619
  0
LINE
  8
0
 10
86.8496
 20
60.4619
 11
86.9004
 21
60.4834
  0
LINE
  8
0
 10
86.9004
 20
60.4834
 11
86.9268
 21
60.4941
  0
LINE
  8
0
 10
86.9268
 20
60.4941
 11
86.9531
 21
60.5039
  0
LINE
  8
0
 10
86.9531
 20
60.5039
 11
87.0322
 21
60.5303
  0
LINE
  8
0
 10
87.0322
 20
60.5303
 11
87.0586
 21
60.5381
  0
LINE
  8
0
 10
87.0586
 20
60.5381
 11
87.0859
 21
60.5459
  0
LINE
  8
0
 10
87.0859
 20
60.5459
 11
87.1133
 21
60.5527
  0
LINE
  8
0
 10
87.1133
 20
60.5527
 11
87.1396
 21
60.5586
  0
LINE
  8
0
 10
87.1396
 20
60.5586
 11
87.167
 21
60.5654
  0
LINE
  8
0
 10
87.167
 20
60.5654
 11
87.1943
 21
60.5703
  0
LINE
  8
0
 10
87.1943
 20
60.5703
 11
87.2217
 21
60.5762
  0
LINE
  8
0
 10
87.2217
 20
60.5762
 11
87.25
 21
60.5801
  0
LINE
  8
0
 10
87.25
 20
60.5801
 11
87.3047
 21
60.5879
  0
LINE
  8
0
 10
87.3047
 20
60.5879
 11
87.333
 21
60.5908
  0
LINE
  8
0
 10
87.333
 20
60.5908
 11
87.3604
 21
60.5938
  0
LINE
  8
0
 10
87.3604
 20
60.5938
 11
87.3887
 21
60.5957
  0
LINE
  8
0
 10
87.3887
 20
60.5957
 11
87.416
 21
60.5977
  0
LINE
  8
0
 10
87.416
 20
60.5977
 11
87.4717
 21
60.5996
  0
LINE
  8
0
 10
87.4717
 20
60.5996
 11
87.5283
 21
60.5996
  0
LINE
  8
0
 10
87.5283
 20
60.5996
 11
87.584
 21
60.5977
  0
LINE
  8
0
 10
87.584
 20
60.5977
 11
87.6113
 21
60.5957
  0
LINE
  8
0
 10
87.6113
 20
60.5957
 11
87.6396
 21
60.5938
  0
LINE
  8
0
 10
87.6396
 20
60.5938
 11
87.667
 21
60.5908
  0
LINE
  8
0
 10
87.667
 20
60.5908
 11
87.6953
 21
60.5879
  0
LINE
  8
0
 10
87.6953
 20
60.5879
 11
87.75
 21
60.5801
  0
LINE
  8
0
 10
87.75
 20
60.5801
 11
87.7783
 21
60.5762
  0
LINE
  8
0
 10
87.7783
 20
60.5762
 11
87.8057
 21
60.5703
  0
LINE
  8
0
 10
87.8057
 20
60.5703
 11
87.833
 21
60.5654
  0
LINE
  8
0
 10
87.833
 20
60.5654
 11
87.8604
 21
60.5586
  0
LINE
  8
0
 10
87.8604
 20
60.5586
 11
87.8867
 21
60.5527
  0
LINE
  8
0
 10
87.8867
 20
60.5527
 11
87.9141
 21
60.5459
  0
LINE
  8
0
 10
87.9141
 20
60.5459
 11
87.9414
 21
60.5381
  0
LINE
  8
0
 10
87.9414
 20
60.5381
 11
87.9678
 21
60.5303
  0
LINE
  8
0
 10
87.9678
 20
60.5303
 11
88.0469
 21
60.5039
  0
LINE
  8
0
 10
88.0469
 20
60.5039
 11
88.0732
 21
60.4941
  0
LINE
  8
0
 10
88.0732
 20
60.4941
 11
88.0996
 21
60.4834
  0
LINE
  8
0
 10
88.0996
 20
60.4834
 11
88.1504
 21
60.4619
  0
LINE
  8
0
 10
88.1504
 20
60.4619
 11
88.2012
 21
60.4385
  0
LINE
  8
0
 10
88.2012
 20
60.4385
 11
88.2266
 21
60.4258
  0
LINE
  8
0
 10
88.2266
 20
60.4258
 11
88.251
 21
60.4131
  0
LINE
  8
0
 10
88.251
 20
60.4131
 11
88.2998
 21
60.3857
  0
LINE
  8
0
 10
88.2998
 20
60.3857
 11
88.3242
 21
60.3711
  0
LINE
  8
0
 10
88.3242
 20
60.3711
 11
88.3711
 21
60.3418
  0
LINE
  8
0
 10
88.3711
 20
60.3418
 11
88.418
 21
60.3105
  0
LINE
  8
0
 10
88.418
 20
60.3105
 11
88.4854
 21
60.2607
  0
LINE
  8
0
 10
88.4854
 20
60.2607
 11
88.5498
 21
60.208
  0
LINE
  8
0
 10
88.5498
 20
60.208
 11
88.5703
 21
60.1895
  0
LINE
  8
0
 10
88.5703
 20
60.1895
 11
88.5908
 21
60.1699
  0
LINE
  8
0
 10
88.5908
 20
60.1699
 11
88.6113
 21
60.1514
  0
LINE
  8
0
 10
88.6113
 20
60.1514
 11
88.6318
 21
60.1318
  0
LINE
  8
0
 10
88.6318
 20
60.1318
 11
88.6514
 21
60.1113
  0
LINE
  8
0
 10
88.6514
 20
60.1113
 11
88.6699
 21
60.0908
  0
LINE
  8
0
 10
88.6699
 20
60.0908
 11
88.6895
 21
60.0703
  0
LINE
  8
0
 10
88.6895
 20
60.0703
 11
88.708
 21
60.0498
  0
LINE
  8
0
 10
88.708
 20
60.0498
 11
88.7607
 21
59.9854
  0
LINE
  8
0
 10
88.7607
 20
59.9854
 11
88.8105
 21
59.918
  0
LINE
  8
0
 10
88.8105
 20
59.918
 11
88.8418
 21
59.8711
  0
LINE
  8
0
 10
88.8418
 20
59.8711
 11
88.8711
 21
59.8242
  0
LINE
  8
0
 10
88.8711
 20
59.8242
 11
88.8857
 21
59.7998
  0
LINE
  8
0
 10
88.8857
 20
59.7998
 11
88.9131
 21
59.751
  0
LINE
  8
0
 10
88.9131
 20
59.751
 11
88.9258
 21
59.7266
  0
LINE
  8
0
 10
88.9258
 20
59.7266
 11
88.9385
 21
59.7012
  0
LINE
  8
0
 10
88.9385
 20
59.7012
 11
88.9619
 21
59.6504
  0
LINE
  8
0
 10
88.9619
 20
59.6504
 11
88.9834
 21
59.5996
  0
LINE
  8
0
 10
88.9834
 20
59.5996
 11
88.9941
 21
59.5732
  0
LINE
  8
0
 10
88.9941
 20
59.5732
 11
89.0039
 21
59.5469
  0
LINE
  8
0
 10
89.0039
 20
59.5469
 11
89.0303
 21
59.4678
  0
LINE
  8
0
 10
89.0303
 20
59.4678
 11
89.0381
 21
59.4414
  0
LINE
  8
0
 10
89.0381
 20
59.4414
 11
89.0459
 21
59.4141
  0
LINE
  8
0
 10
89.0459
 20
59.4141
 11
89.0527
 21
59.3867
  0
LINE
  8
0
 10
89.0527
 20
59.3867
 11
89.0586
 21
59.3604
  0
LINE
  8
0
 10
89.0586
 20
59.3604
 11
89.0654
 21
59.333
  0
LINE
  8
0
 10
89.0654
 20
59.333
 11
89.0703
 21
59.3057
  0
LINE
  8
0
 10
89.0703
 20
59.3057
 11
89.0762
 21
59.2783
  0
LINE
  8
0
 10
89.0762
 20
59.2783
 11
89.0801
 21
59.25
  0
LINE
  8
0
 10
89.0801
 20
59.25
 11
89.0879
 21
59.1953
  0
LINE
  8
0
 10
89.0879
 20
59.1953
 11
89.0908
 21
59.167
  0
LINE
  8
0
 10
89.0908
 20
59.167
 11
89.0938
 21
59.1396
  0
LINE
  8
0
 10
89.0938
 20
59.1396
 11
89.0957
 21
59.1113
  0
LINE
  8
0
 10
89.0957
 20
59.1113
 11
89.0977
 21
59.084
  0
LINE
  8
0
 10
89.0977
 20
59.084
 11
89.0996
 21
59.0283
  0
LINE
  8
0
 10
89.0996
 20
59.0283
 11
89.0996
 21
58.9717
  0
LINE
  8
0
 10
89.0996
 20
58.9717
 11
89.0977
 21
58.916
  0
LINE
  8
0
 10
89.0977
 20
58.916
 11
89.0957
 21
58.8887
  0
LINE
  8
0
 10
89.0957
 20
58.8887
 11
89.0938
 21
58.8604
  0
LINE
  8
0
 10
89.0938
 20
58.8604
 11
89.0908
 21
58.833
  0
LINE
  8
0
 10
89.0908
 20
58.833
 11
89.0879
 21
58.8047
  0
LINE
  8
0
 10
89.0879
 20
58.8047
 11
89.0801
 21
58.75
  0
LINE
  8
0
 10
89.0801
 20
58.75
 11
89.0762
 21
58.7217
  0
LINE
  8
0
 10
89.0762
 20
58.7217
 11
89.0703
 21
58.6943
  0
LINE
  8
0
 10
89.0703
 20
58.6943
 11
89.0654
 21
58.667
  0
LINE
  8
0
 10
89.0654
 20
58.667
 11
89.0586
 21
58.6396
  0
LINE
  8
0
 10
89.0586
 20
58.6396
 11
89.0527
 21
58.6133
  0
LINE
  8
0
 10
89.0527
 20
58.6133
 11
89.0459
 21
58.5859
  0
LINE
  8
0
 10
89.0459
 20
58.5859
 11
89.0381
 21
58.5586
  0
LINE
  8
0
 10
89.0381
 20
58.5586
 11
89.0303
 21
58.5322
  0
LINE
  8
0
 10
89.0303
 20
58.5322
 11
89.0039
 21
58.4531
  0
LINE
  8
0
 10
89.0039
 20
58.4531
 11
88.9941
 21
58.4268
  0
LINE
  8
0
 10
88.9941
 20
58.4268
 11
88.9834
 21
58.4004
  0
LINE
  8
0
 10
88.9834
 20
58.4004
 11
88.9619
 21
58.3496
  0
LINE
  8
0
 10
88.9619
 20
58.3496
 11
88.9385
 21
58.2988
  0
LINE
  8
0
 10
88.9385
 20
58.2988
 11
88.9258
 21
58.2734
  0
LINE
  8
0
 10
88.9258
 20
58.2734
 11
88.9131
 21
58.249
  0
LINE
  8
0
 10
88.9131
 20
58.249
 11
88.8857
 21
58.2002
  0
LINE
  8
0
 10
88.8857
 20
58.2002
 11
88.8711
 21
58.1758
  0
LINE
  8
0
 10
88.8711
 20
58.1758
 11
88.8418
 21
58.1289
  0
LINE
  8
0
 10
88.8418
 20
58.1289
 11
88.8105
 21
58.082
  0
LINE
  8
0
 10
88.8105
 20
58.082
 11
88.7607
 21
58.0146
  0
LINE
  8
0
 10
88.7607
 20
58.0146
 11
88.708
 21
57.9502
  0
LINE
  8
0
 10
88.708
 20
57.9502
 11
88.6895
 21
57.9297
  0
LINE
  8
0
 10
88.6895
 20
57.9297
 11
88.6699
 21
57.9092
  0
LINE
  8
0
 10
88.6699
 20
57.9092
 11
88.6514
 21
57.8887
  0
LINE
  8
0
 10
88.6514
 20
57.8887
 11
88.6318
 21
57.8682
  0
LINE
  8
0
 10
88.6318
 20
57.8682
 11
88.6113
 21
57.8486
  0
LINE
  8
0
 10
88.6113
 20
57.8486
 11
88.5908
 21
57.8301
  0
LINE
  8
0
 10
88.5908
 20
57.8301
 11
88.5703
 21
57.8105
  0
LINE
  8
0
 10
88.5703
 20
57.8105
 11
88.5498
 21
57.792
  0
LINE
  8
0
 10
88.5498
 20
57.792
 11
88.4854
 21
57.7393
  0
LINE
  8
0
 10
88.4854
 20
57.7393
 11
88.418
 21
57.6895
  0
LINE
  8
0
 10
88.418
 20
57.6895
 11
88.3711
 21
57.6582
  0
LINE
  8
0
 10
88.3711
 20
57.6582
 11
88.3242
 21
57.6289
  0
LINE
  8
0
 10
88.3242
 20
57.6289
 11
88.2998
 21
57.6143
  0
LINE
  8
0
 10
88.2998
 20
57.6143
 11
88.251
 21
57.5869
  0
LINE
  8
0
 10
88.251
 20
57.5869
 11
88.2266
 21
57.5742
  0
LINE
  8
0
 10
88.2266
 20
57.5742
 11
88.2012
 21
57.5615
  0
LINE
  8
0
 10
88.2012
 20
57.5615
 11
88.1504
 21
57.5381
  0
LINE
  8
0
 10
88.1504
 20
57.5381
 11
88.0996
 21
57.5166
  0
LINE
  8
0
 10
88.0996
 20
57.5166
 11
88.0732
 21
57.5059
  0
LINE
  8
0
 10
88.0732
 20
57.5059
 11
88.0469
 21
57.4961
  0
LINE
  8
0
 10
88.0469
 20
57.4961
 11
87.9678
 21
57.4697
  0
LINE
  8
0
 10
87.9678
 20
57.4697
 11
87.9414
 21
57.4619
  0
LINE
  8
0
 10
87.9414
 20
57.4619
 11
87.9141
 21
57.4541
  0
LINE
  8
0
 10
87.9141
 20
57.4541
 11
87.8867
 21
57.4473
  0
LINE
  8
0
 10
87.8867
 20
57.4473
 11
87.8604
 21
57.4414
  0
LINE
  8
0
 10
87.8604
 20
57.4414
 11
87.833
 21
57.4346
  0
LINE
  8
0
 10
87.833
 20
57.4346
 11
87.8057
 21
57.4297
  0
LINE
  8
0
 10
87.8057
 20
57.4297
 11
87.7783
 21
57.4238
  0
LINE
  8
0
 10
87.7783
 20
57.4238
 11
87.75
 21
57.4199
  0
LINE
  8
0
 10
87.75
 20
57.4199
 11
87.6953
 21
57.4121
  0
LINE
  8
0
 10
87.6953
 20
57.4121
 11
87.667
 21
57.4092
  0
LINE
  8
0
 10
87.667
 20
57.4092
 11
87.6396
 21
57.4062
  0
LINE
  8
0
 10
87.6396
 20
57.4062
 11
87.6113
 21
57.4043
  0
LINE
  8
0
 10
87.6113
 20
57.4043
 11
87.584
 21
57.4023
  0
LINE
  8
0
 10
87.584
 20
57.4023
 11
87.5283
 21
57.4004
  0
LINE
  8
0
 10
87.5283
 20
57.4004
 11
87.4717
 21
57.4004
  0
LINE
  8
0
 10
13.4717
 20
57.4004
 11
13.416
 21
57.4023
  0
LINE
  8
0
 10
13.416
 20
57.4023
 11
13.3887
 21
57.4043
  0
LINE
  8
0
 10
13.3887
 20
57.4043
 11
13.3604
 21
57.4062
  0
LINE
  8
0
 10
13.3604
 20
57.4062
 11
13.333
 21
57.4092
  0
LINE
  8
0
 10
13.333
 20
57.4092
 11
13.3047
 21
57.4121
  0
LINE
  8
0
 10
13.3047
 20
57.4121
 11
13.25
 21
57.4199
  0
LINE
  8
0
 10
13.25
 20
57.4199
 11
13.2217
 21
57.4238
  0
LINE
  8
0
 10
13.2217
 20
57.4238
 11
13.1943
 21
57.4297
  0
LINE
  8
0
 10
13.1943
 20
57.4297
 11
13.167
 21
57.4346
  0
LINE
  8
0
 10
13.167
 20
57.4346
 11
13.1396
 21
57.4414
  0
LINE
  8
0
 10
13.1396
 20
57.4414
 11
13.1133
 21
57.4473
  0
LINE
  8
0
 10
13.1133
 20
57.4473
 11
13.0859
 21
57.4541
  0
LINE
  8
0
 10
13.0859
 20
57.4541
 11
13.0586
 21
57.4619
  0
LINE
  8
0
 10
13.0586
 20
57.4619
 11
13.0322
 21
57.4697
  0
LINE
  8
0
 10
13.0322
 20
57.4697
 11
12.9531
 21
57.4961
  0
LINE
  8
0
 10
12.9531
 20
57.4961
 11
12.9268
 21
57.5059
  0
LINE
  8
0
 10
12.9268
 20
57.5059
 11
12.9004
 21
57.5166
  0
LINE
  8
0
 10
12.9004
 20
57.5166
 11
12.8496
 21
57.5381
  0
LINE
  8
0
 10
12.8496
 20
57.5381
 11
12.7988
 21
57.5615
  0
LINE
  8
0
 10
12.7988
 20
57.5615
 11
12.7734
 21
57.5742
  0
LINE
  8
0
 10
12.7734
 20
57.5742
 11
12.749
 21
57.5869
  0
LINE
  8
0
 10
12.749
 20
57.5869
 11
12.7002
 21
57.6143
  0
LINE
  8
0
 10
12.7002
 20
57.6143
 11
12.6758
 21
57.6289
  0
LINE
  8
0
 10
12.6758
 20
57.6289
 11
12.6289
 21
57.6582
  0
LINE
  8
0
 10
12.6289
 20
57.6582
 11
12.582
 21
57.6895
  0
LINE
  8
0
 10
12.582
 20
57.6895
 11
12.5146
 21
57.7393
  0
LINE
  8
0
 10
12.5146
 20
57.7393
 11
12.4502
 21
57.792
  0
LINE
  8
0
 10
12.4502
 20
57.792
 11
12.4297
 21
57.8105
  0
LINE
  8
0
 10
12.4297
 20
57.8105
 11
12.4092
 21
57.8301
  0
LINE
  8
0
 10
12.4092
 20
57.8301
 11
12.3887
 21
57.8486
  0
LINE
  8
0
 10
12.3887
 20
57.8486
 11
12.3682
 21
57.8682
  0
LINE
  8
0
 10
12.3682
 20
57.8682
 11
12.3486
 21
57.8887
  0
LINE
  8
0
 10
12.3486
 20
57.8887
 11
12.3301
 21
57.9092
  0
LINE
  8
0
 10
12.3301
 20
57.9092
 11
12.3105
 21
57.9297
  0
LINE
  8
0
 10
12.3105
 20
57.9297
 11
12.292
 21
57.9502
  0
LINE
  8
0
 10
12.292
 20
57.9502
 11
12.2393
 21
58.0146
  0
LINE
  8
0
 10
12.2393
 20
58.0146
 11
12.1895
 21
58.082
  0
LINE
  8
0
 10
12.1895
 20
58.082
 11
12.1582
 21
58.1289
  0
LINE
  8
0
 10
12.1582
 20
58.1289
 11
12.1289
 21
58.1758
  0
LINE
  8
0
 10
12.1289
 20
58.1758
 11
12.1143
 21
58.2002
  0
LINE
  8
0
 10
12.1143
 20
58.2002
 11
12.0869
 21
58.249
  0
LINE
  8
0
 10
12.0869
 20
58.249
 11
12.0742
 21
58.2734
  0
LINE
  8
0
 10
12.0742
 20
58.2734
 11
12.0615
 21
58.2988
  0
LINE
  8
0
 10
12.0615
 20
58.2988
 11
12.0381
 21
58.3496
  0
LINE
  8
0
 10
12.0381
 20
58.3496
 11
12.0166
 21
58.4004
  0
LINE
  8
0
 10
12.0166
 20
58.4004
 11
12.0059
 21
58.4268
  0
LINE
  8
0
 10
12.0059
 20
58.4268
 11
11.9961
 21
58.4531
  0
LINE
  8
0
 10
11.9961
 20
58.4531
 11
11.9697
 21
58.5322
  0
LINE
  8
0
 10
11.9697
 20
58.5322
 11
11.9619
 21
58.5586
  0
LINE
  8
0
 10
11.9619
 20
58.5586
 11
11.9541
 21
58.5859
  0
LINE
  8
0
 10
11.9541
 20
58.5859
 11
11.9473
 21
58.6133
  0
LINE
  8
0
 10
11.9473
 20
58.6133
 11
11.9414
 21
58.6396
  0
LINE
  8
0
 10
11.9414
 20
58.6396
 11
11.9346
 21
58.667
  0
LINE
  8
0
 10
11.9346
 20
58.667
 11
11.9297
 21
58.6943
  0
LINE
  8
0
 10
11.9297
 20
58.6943
 11
11.9238
 21
58.7217
  0
LINE
  8
0
 10
11.9238
 20
58.7217
 11
11.9199
 21
58.75
  0
LINE
  8
0
 10
11.9199
 20
58.75
 11
11.9121
 21
58.8047
  0
LINE
  8
0
 10
11.9121
 20
58.8047
 11
11.9092
 21
58.833
  0
LINE
  8
0
 10
11.9092
 20
58.833
 11
11.9062
 21
58.8604
  0
LINE
  8
0
 10
11.9062
 20
58.8604
 11
11.9043
 21
58.8887
  0
LINE
  8
0
 10
11.9043
 20
58.8887
 11
11.9023
 21
58.916
  0
LINE
  8
0
 10
11.9023
 20
58.916
 11
11.9004
 21
58.9717
  0
LINE
  8
0
 10
11.9004
 20
58.9717
 11
11.9004
 21
59.0283
  0
LINE
  8
0
 10
11.9004
 20
59.0283
 11
11.9023
 21
59.084
  0
LINE
  8
0
 10
11.9023
 20
59.084
 11
11.9043
 21
59.1113
  0
LINE
  8
0
 10
11.9043
 20
59.1113
 11
11.9062
 21
59.1396
  0
LINE
  8
0
 10
11.9062
 20
59.1396
 11
11.9092
 21
59.167
  0
LINE
  8
0
 10
11.9092
 20
59.167
 11
11.9121
 21
59.1953
  0
LINE
  8
0
 10
11.9121
 20
59.1953
 11
11.9199
 21
59.25
  0
LINE
  8
0
 10
11.9199
 20
59.25
 11
11.9238
 21
59.2783
  0
LINE
  8
0
 10
11.9238
 20
59.2783
 11
11.9297
 21
59.3057
  0
LINE
  8
0
 10
11.9297
 20
59.3057
 11
11.9346
 21
59.333
  0
LINE
  8
0
 10
11.9346
 20
59.333
 11
11.9414
 21
59.3604
  0
LINE
  8
0
 10
11.9414
 20
59.3604
 11
11.9473
 21
59.3867
  0
LINE
  8
0
 10
11.9473
 20
59.3867
 11
11.9541
 21
59.4141
  0
LINE
  8
0
 10
11.9541
 20
59.4141
 11
11.9619
 21
59.4414
  0
LINE
  8
0
 10
11.9619
 20
59.4414
 11
11.9697
 21
59.4678
  0
LINE
  8
0
 10
11.9697
 20
59.4678
 11
11.9961
 21
59.5469
  0
LINE
  8
0
 10
11.9961
 20
59.5469
 11
12.0059
 21
59.5732
  0
LINE
  8
0
 10
12.0059
 20
59.5732
 11
12.0166
 21
59.5996
  0
LINE
  8
0
 10
12.0166
 20
59.5996
 11
12.0381
 21
59.6504
  0
LINE
  8
0
 10
12.0381
 20
59.6504
 11
12.0615
 21
59.7012
  0
LINE
  8
0
 10
12.0615
 20
59.7012
 11
12.0742
 21
59.7266
  0
LINE
  8
0
 10
12.0742
 20
59.7266
 11
12.0869
 21
59.751
  0
LINE
  8
0
 10
12.0869
 20
59.751
 11
12.1143
 21
59.7998
  0
LINE
  8
0
 10
12.1143
 20
59.7998
 11
12.1289
 21
59.8242
  0
LINE
  8
0
 10
12.1289
 20
59.8242
 11
12.1582
 21
59.8711
  0
LINE
  8
0
 10
12.1582
 20
59.8711
 11
12.1895
 21
59.918
  0
LINE
  8
0
 10
12.1895
 20
59.918
 11
12.2393
 21
59.9854
  0
LINE
  8
0
 10
12.2393
 20
59.9854
 11
12.292
 21
60.0498
  0
LINE
  8
0
 10
12.292
 20
60.0498
 11
12.3105
 21
60.0703
  0
LINE
  8
0
 10
12.3105
 20
60.0703
 11
12.3301
 21
60.0908
  0
LINE
  8
0
 10
12.3301
 20
60.0908
 11
12.3486
 21
60.1113
  0
LINE
  8
0
 10
12.3486
 20
60.1113
 11
12.3682
 21
60.1318
  0
LINE
  8
0
 10
12.3682
 20
60.1318
 11
12.3887
 21
60.1514
  0
LINE
  8
0
 10
12.3887
 20
60.1514
 11
12.4092
 21
60.1699
  0
LINE
  8
0
 10
12.4092
 20
60.1699
 11
12.4297
 21
60.1895
  0
LINE
  8
0
 10
12.4297
 20
60.1895
 11
12.4502
 21
60.208
  0
LINE
  8
0
 10
12.4502
 20
60.208
 11
12.5146
 21
60.2607
  0
LINE
  8
0
 10
12.5146
 20
60.2607
 11
12.582
 21
60.3105
  0
LINE
  8
0
 10
12.582
 20
60.3105
 11
12.6289
 21
60.3418
  0
LINE
  8
0
 10
12.6289
 20
60.3418
 11
12.6758
 21
60.3711
  0
LINE
  8
0
 10
12.6758
 20
60.3711
 11
12.7002
 21
60.3857
  0
LINE
  8
0
 10
12.7002
 20
60.3857
 11
12.749
 21
60.4131
  0
LINE
  8
0
 10
12.749
 20
60.4131
 11
12.7734
 21
60.4258
  0
LINE
  8
0
 10
12.7734
 20
60.4258
 11
12.7988
 21
60.4385
  0
LINE
  8
0
 10
12.7988
 20
60.4385
 11
12.8496
 21
60.4619
  0
LINE
  8
0
 10
12.8496
 20
60.4619
 11
12.9004
 21
60.4834
  0
LINE
  8
0
 10
12.9004
 20
60.4834
 11
12.9268
 21
60.4941
  0
LINE
  8
0
 10
12.9268
 20
60.4941
 11
12.9531
 21
60.5039
  0
LINE
  8
0
 10
12.9531
 20
60.5039
 11
13.0322
 21
60.5303
  0
LINE
  8
0
 10
13.0322
 20
60.5303
 11
13.0586
 21
60.5381
  0
LINE
  8
0
 10
13.0586
 20
60.5381
 11
13.0859
 21
60.5459
  0
LINE
  8
0
 10
13.0859
 20
60.5459
 11
13.1133
 21
60.5527
  0
LINE
  8
0
 10
13.1133
 20
60.5527
 11
13.1396
 21
60.5586
  0
LINE
  8
0
 10
13.1396
 20
60.5586
 11
13.167
 21
60.5654
  0
LINE
  8
0
 10
13.167
 20
60.5654
 11
13.1943
 21
60.5703
  0
LINE
  8
0
 10
13.1943
 20
60.5703
 11
13.2217
 21
60.5762
  0
LINE
  8
0
 10
13.2217
 20
60.5762
 11
13.25
 21
60.5801
  0
LINE
  8
0
 10
13.25
 20
60.5801
 11
13.3047
 21
60.5879
  0
LINE
  8
0
 10
13.3047
 20
60.5879
 11
13.333
 21
60.5908
  0
LINE
  8
0
 10
13.333
 20
60.5908
 11
13.3604
 21
60.5938
  0
LINE
  8
0
 10
13.3604
 20
60.5938
 11
13.3887
 21
60.5957
  0
LINE
  8
0
 10
13.3887
 20
60.5957
 11
13.416
 21
60.5977
  0
LINE
  8
0
 10
13.416
 20
60.5977
 11
13.4717
 21
60.5996
  0
LINE
  8
0
 10
13.4717
 20
60.5996
 11
13.5283
 21
60.5996
  0
LINE
  8
0
 10
13.5283
 20
60.5996
 11
13.584
 21
60.5977
  0
LINE
  8
0
 10
13.584
 20
60.5977
 11
13.6113
 21
60.5957
  0
LINE
  8
0
 10
13.6113
 20
60.5957
 11
13.6396
 21
60.5938
  0
LINE
  8
0
 10
13.6396
 20
60.5938
 11
13.667
 21
60.5908
  0
LINE
  8
0
 10
13.667
 20
60.5908
 11
13.6953
 21
60.5879
  0
LINE
  8
0
 10
13.6953
 20
60.5879
 11
13.75
 21
60.5801
  0
LINE
  8
0
 10
13.75
 20
60.5801
 11
13.7783
 21
60.5762
  0
LINE
  8
0
 10
13.7783
 20
60.5762
 11
13.8057
 21
60.5703
  0
LINE
  8
0
 10
13.8057
 20
60.5703
 11
13.833
 21
60.5654
  0
LINE
  8
0
 10
13.833
 20
60.5654
 11
13.8604
 21
60.5586
  0
LINE
  8
0
 10
13.8604
 20
60.5586
 11
13.8867
 21
60.5527
  0
LINE
  8
0
 10
13.8867
 20
60.5527
 11
13.9141
 21
60.5459
  0
LINE
  8
0
 10
13.9141
 20
60.5459
 11
13.9414
 21
60.5381
  0
LINE
  8
0
 10
13.9414
 20
60.5381
 11
13.9678
 21
60.5303
  0
LINE
  8
0
 10
13.9678
 20
60.5303
 11
14.0469
 21
60.5039
  0
LINE
  8
0
 10
14.0469
 20
60.5039
 11
14.0732
 21
60.4941
  0
LINE
  8
0
 10
14.0732
 20
60.4941
 11
14.0996
 21
60.4834
  0
LINE
  8
0
 10
14.0996
 20
60.4834
 11
14.1504
 21
60.4619
  0
LINE
  8
0
 10
14.1504
 20
60.4619
 11
14.2012
 21
60.4385
  0
LINE
  8
0
 10
14.2012
 20
60.4385
 11
14.2266
 21
60.4258
  0
LINE
  8
0
 10
14.2266
 20
60.4258
 11
14.251
 21
60.4131
  0
LINE
  8
0
 10
14.251
 20
60.4131
 11
14.2998
 21
60.3857
  0
LINE
  8
0
 10
14.2998
 20
60.3857
 11
14.3242
 21
60.3711
  0
LINE
  8
0
 10
14.3242
 20
60.3711
 11
14.3711
 21
60.3418
  0
LINE
  8
0
 10
14.3711
 20
60.3418
 11
14.418
 21
60.3105
  0
LINE
  8
0
 10
14.418
 20
60.3105
 11
14.4854
 21
60.2607
  0
LINE
  8
0
 10
14.4854
 20
60.2607
 11
14.5498
 21
60.208
  0
LINE
  8
0
 10
14.5498
 20
60.208
 11
14.5703
 21
60.1895
  0
LINE
  8
0
 10
14.5703
 20
60.1895
 11
14.5908
 21
60.1699
  0
LINE
  8
0
 10
14.5908
 20
60.1699
 11
14.6113
 21
60.1514
  0
LINE
  8
0
 10
14.6113
 20
60.1514
 11
14.6318
 21
60.1318
  0
LINE
  8
0
 10
14.6318
 20
60.1318
 11
14.6514
 21
60.1113
  0
LINE
  8
0
 10
14.6514
 20
60.1113
 11
14.6699
 21
60.0908
  0
LINE
  8
0
 10
14.6699
 20
60.0908
 11
14.6895
 21
60.0703
  0
LINE
  8
0
 10
14.6895
 20
60.0703
 11
14.708
 21
60.0498
  0
LINE
  8
0
 10
14.708
 20
60.0498
 11
14.7607
 21
59.9854
  0
LINE
  8
0
 10
14.7607
 20
59.9854
 11
14.8105
 21
59.918
  0
LINE
  8
0
 10
14.8105
 20
59.918
 11
14.8418
 21
59.8711
  0
LINE
  8
0
 10
14.8418
 20
59.8711
 11
14.8711
 21
59.8242
  0
LINE
  8
0
 10
14.8711
 20
59.8242
 11
14.8857
 21
59.7998
  0
LINE
  8
0
 10
14.8857
 20
59.7998
 11
14.9131
 21
59.751
  0
LINE
  8
0
 10
14.9131
 20
59.751
 11
14.9258
 21
59.7266
  0
LINE
  8
0
 10
14.9258
 20
59.7266
 11
14.9385
 21
59.7012
  0
LINE
  8
0
 10
14.9385
 20
59.7012
 11
14.9619
 21
59.6504
  0
LINE
  8
0
 10
14.9619
 20
59.6504
 11
14.9834
 21
59.5996
  0
LINE
  8
0
 10
14.9834
 20
59.5996
 11
14.9941
 21
59.5732
  0
LINE
  8
0
 10
14.9941
 20
59.5732
 11
15.0039
 21
59.5469
  0
LINE
  8
0
 10
15.0039
 20
59.5469
 11
15.0303
 21
59.4678
  0
LINE
  8
0
 10
15.0303
 20
59.4678
 11
15.0381
 21
59.4414
  0
LINE
  8
0
 10
15.0381
 20
59.4414
 11
15.0459
 21
59.4141
  0
LINE
  8
0
 10
15.0459
 20
59.4141
 11
15.0527
 21
59.3867
  0
LINE
  8
0
 10
15.0527
 20
59.3867
 11
15.0586
 21
59.3604
  0
LINE
  8
0
 10
15.0586
 20
59.3604
 11
15.0654
 21
59.333
  0
LINE
  8
0
 10
15.0654
 20
59.333
 11
15.0703
 21
59.3057
  0
LINE
  8
0
 10
15.0703
 20
59.3057
 11
15.0762
 21
59.2783
  0
LINE
  8
0
 10
15.0762
 20
59.2783
 11
15.0801
 21
59.25
  0
LINE
  8
0
 10
15.0801
 20
59.25
 11
15.0879
 21
59.1953
  0
LINE
  8
0
 10
15.0879
 20
59.1953
 11
15.0908
 21
59.167
  0
LINE
  8
0
 10
15.0908
 20
59.167
 11
15.0938
 21
59.1396
  0
LINE
  8
0
 10
15.0938
 20
59.1396
 11
15.0957
 21
59.1113
  0
LINE
  8
0
 10
15.0957
 20
59.1113
 11
15.0977
 21
59.084
  0
LINE
  8
0
 10
15.0977
 20
59.084
 11
15.0996
 21
59.0283
  0
LINE
  8
0
 10
15.0996
 20
59.0283
 11
15.0996
 21
58.9717
  0
LINE
  8
0
 10
15.0996
 20
58.9717
 11
15.0977
 21
58.916
  0
LINE
  8
0
 10
15.0977
 20
58.916
 11
15.0957
 21
58.8887
  0
LINE
  8
0
 10
15.0957
 20
58.8887
 11
15.0938
 21
58.8604
  0
LINE
  8
0
 10
15.0938
 20
58.8604
 11
15.0908
 21
58.833
  0
LINE
  8
0
 10
15.0908
 20
58.833
 11
15.0879
 21
58.8047
  0
LINE
  8
0
 10
15.0879
 20
58.8047
 11
15.0801
 21
58.75
  0
LINE
  8
0
 10
15.0801
 20
58.75
 11
15.0762
 21
58.7217
  0
LINE
  8
0
 10
15.0762
 20
58.7217
 11
15.0703
 21
58.6943
  0
LINE
  8
0
 10
15.0703
 20
58.6943
 11
15.0654
 21
58.667
  0
LINE
  8
0
 10
15.0654
 20
58.667
 11
15.0586
 21
58.6396
  0
LINE
  8
0
 10
15.0586
 20
58.6396
 11
15.0527
 21
58.6133
  0
LINE
  8
0
 10
15.0527
 20
58.6133
 11
15.0459
 21
58.5859
  0
LINE
  8
0
 10
15.0459
 20
58.5859
 11
15.0381
 21
58.5586
  0
LINE
  8
0
 10
15.0381
 20
58.5586
 11
15.0303
 21
58.5322
  0
LINE
  8
0
 10
15.0303
 20
58.5322
 11
15.0039
 21
58.4531
  0
LINE
  8
0
 10
15.0039
 20
58.4531
 11
14.9941
 21
58.4268
  0
LINE
  8
0
 10
14.9941
 20
58.4268
 11
14.9834
 21
58.4004
  0
LINE
  8
0
 10
14.9834
 20
58.4004
 11
14.9619
 21
58.3496
  0
LINE
  8
0
 10
14.9619
 20
58.3496
 11
14.9385
 21
58.2988
  0
LINE
  8
0
 10
14.9385
 20
58.2988
 11
14.9258
 21
58.2734
  0
LINE
  8
0
 10
14.9258
 20
58.2734
 11
14.9131
 21
58.249
  0
LINE
  8
0
 10
14.9131
 20
58.249
 11
14.8857
 21
58.2002
  0
LINE
  8
0
 10
14.8857
 20
58.2002
 11
14.8711
 21
58.1758
  0
LINE
  8
0
 10
14.8711
 20
58.1758
 11
14.8418
 21
58.1289
  0
LINE
  8
0
 10
14.8418
 20
58.1289
 11
14.8105
 21
58.082
  0
LINE
  8
0
 10
14.8105
 20
58.082
 11
14.7607
 21
58.0146
  0
LINE
  8
0
 10
14.7607
 20
58.0146
 11
14.708
 21
57.9502
  0
LINE
  8
0
 10
14.708
 20
57.9502
 11
14.6895
 21
57.9297
  0
LINE
  8
0
 10
14.6895
 20
57.9297
 11
14.6699
 21
57.9092
  0
LINE
  8
0
 10
14.6699
 20
57.9092
 11
14.6514
 21
57.8887
  0
LINE
  8
0
 10
14.6514
 20
57.8887
 11
14.6318
 21
57.8682
  0
LINE
  8
0
 10
14.6318
 20
57.8682
 11
14.6113
 21
57.8486
  0
LINE
  8
0
 10
14.6113
 20
57.8486
 11
14.5908
 21
57.8301
  0
LINE
  8
0
 10
14.5908
 20
57.8301
 11
14.5703
 21
57.8105
  0
LINE
  8
0
 10
14.5703
 20
57.8105
 11
14.5498
 21
57.792
  0
LINE
  8
0
 10
14.5498
 20
57.792
 11
14.4854
 21
57.7393
  0
LINE
  8
0
 10
14.4854
 20
57.7393
 11
14.418
 21
57.6895
  0
LINE
  8
0
 10
14.418
 20
57.6895
 11
14.3711
 21
57.6582
  0
LINE
  8
0
 10
14.3711
 20
57.6582
 11
14.3242
 21
57.6289
  0
LINE
  8
0
 10
14.3242
 20
57.6289
 11
14.2998
 21
57.6143
  0
LINE
  8
0
 10
14.2998
 20
57.6143
 11
14.251
 21
57.5869
  0
LINE
  8
0
 10
14.251
 20
57.5869
 11
14.2266
 21
57.5742
  0
LINE
  8
0
 10
14.2266
 20
57.5742
 11
14.2012
 21
57.5615
  0
LINE
  8
0
 10
14.2012
 20
57.5615
 11
14.1504
 21
57.5381
  0
LINE
  8
0
 10
14.1504
 20
57.5381
 11
14.0996
 21
57.5166
  0
LINE
  8
0
 10
14.0996
 20
57.5166
 11
14.0732
 21
57.5059
  0
LINE
  8
0
 10
14.0732
 20
57.5059
 11
14.0469
 21
57.4961
  0
LINE
  8
0
 10
14.0469
 20
57.4961
 11
13.9678
 21
57.4697
  0
LINE
  8
0
 10
13.9678
 20
57.4697
 11
13.9414
 21
57.4619
  0
LINE
  8
0
 10
13.9414
 20
57.4619
 11
13.9141
 21
57.4541
  0
LINE
  8
0
 10
13.9141
 20
57.4541
 11
13.8867
 21
57.4473
  0
LINE
  8
0
 10
13.8867
 20
57.4473
 11
13.8604
 21
57.4414
  0
LINE
  8
0
 10
13.8604
 20
57.4414
 11
13.833
 21
57.4346
  0
LINE
  8
0
 10
13.833
 20
57.4346
 11
13.8057
 21
57.4297
  0
LINE
  8
0
 10
13.8057
 20
57.4297
 11
13.7783
 21
57.4238
  0
LINE
  8
0
 10
13.7783
 20
57.4238
 11
13.75
 21
57.4199
  0
LINE
  8
0
 10
13.75
 20
57.4199
 11
13.6953
 21
57.4121
  0
LINE
  8
0
 10
13.6953
 20
57.4121
 11
13.667
 21
57.4092
  0
LINE
  8
0
 10
13.667
 20
57.4092
 11
13.6396
 21
57.4062
  0
LINE
  8
0
 10
13.6396
 20
57.4062
 11
13.6113
 21
57.4043
  0
LINE
  8
0
 10
13.6113
 20
57.4043
 11
13.584
 21
57.4023
  0
LINE
  8
0
 10
13.584
 20
57.4023
 11
13.5283
 21
57.4004
  0
LINE
  8
0
 10
13.5283
 20
57.4004
 11
13.4717
 21
57.4004
  0
ENDSEC
  0
SECTION
  2
OBJECTS
  0
DICTIONARY
  0
ENDSEC
  0
EOF
