  0
SECTION
  2
BLOCKS
  0
ENDSEC
  0
SECTION
  2
ENTITIES
  0
LINE
  8
0
 10
16.0693
 20
0.000976562
 11
16.1396
 21
0.00488281
  0
LINE
  8
0
 10
16.1396
 20
0.00488281
 11
16.1738
 21
0.0078125
  0
LINE
  8
0
 10
16.1738
 20
0.0078125
 11
16.209
 21
0.0107422
  0
LINE
  8
0
 10
16.209
 20
0.0107422
 11
16.2441
 21
0.0146484
  0
LINE
  8
0
 10
16.2441
 20
0.0146484
 11
16.3125
 21
0.0244141
  0
LINE
  8
0
 10
16.3125
 20
0.0244141
 11
16.3477
 21
0.0302734
  0
LINE
  8
0
 10
16.3477
 20
0.0302734
 11
16.4502
 21
0.0507812
  0
LINE
  8
0
 10
16.4502
 20
0.0507812
 11
16.4834
 21
0.0595703
  0
LINE
  8
0
 10
16.4834
 20
0.0595703
 11
16.5518
 21
0.0771484
  0
LINE
  8
0
 10
16.5518
 20
0.0771484
 11
16.585
 21
0.0869141
  0
LINE
  8
0
 10
16.585
 20
0.0869141
 11
16.6182
 21
0.0976562
  0
LINE
  8
0
 10
16.6182
 20
0.0976562
 11
16.6514
 21
0.109375
  0
LINE
  8
0
 10
16.6514
 20
0.109375
 11
16.6836
 21
0.121094
  0
LINE
  8
0
 10
16.6836
 20
0.121094
 11
16.7168
 21
0.132812
  0
LINE
  8
0
 10
16.7168
 20
0.132812
 11
16.749
 21
0.145508
  0
LINE
  8
0
 10
16.749
 20
0.145508
 11
16.8135
 21
0.172852
  0
LINE
  8
0
 10
16.8135
 20
0.172852
 11
16.8457
 21
0.1875
  0
LINE
  8
0
 10
16.8457
 20
0.1875
 11
16.877
 21
0.202148
  0
LINE
  8
0
 10
16.877
 20
0.202148
 11
16.9082
 21
0.217773
  0
LINE
  8
0
 10
16.9082
 20
0.217773
 11
16.9385
 21
0.234375
  0
LINE
  8
0
 10
16.9385
 20
0.234375
 11
16.9697
 21
0.250977
  0
LINE
  8
0
 10
16.9697
 20
0.250977
 11
17
 21
0.267578
  0
LINE
  8
0
 10
17
 20
0.267578
 11
17.0303
 21
0.286133
  0
LINE
  8
0
 10
17.0303
 20
0.286133
 11
17.0596
 21
0.303711
  0
LINE
  8
0
 10
17.0596
 20
0.303711
 11
17.0889
 21
0.322266
  0
LINE
  8
0
 10
17.0889
 20
0.322266
 11
17.1475
 21
0.361328
  0
LINE
  8
0
 10
17.1475
 20
0.361328
 11
17.2041
 21
0.402344
  0
LINE
  8
0
 10
17.2041
 20
0.402344
 11
17.2588
 21
0.445312
  0
LINE
  8
0
 10
17.2588
 20
0.445312
 11
17.2852
 21
0.467773
  0
LINE
  8
0
 10
17.2852
 20
0.467773
 11
17.3125
 21
0.490234
  0
LINE
  8
0
 10
17.3125
 20
0.490234
 11
17.3379
 21
0.513672
  0
LINE
  8
0
 10
17.3379
 20
0.513672
 11
17.3643
 21
0.537109
  0
LINE
  8
0
 10
17.3643
 20
0.537109
 11
17.3896
 21
0.561523
  0
LINE
  8
0
 10
17.3896
 20
0.561523
 11
17.4385
 21
0.610352
  0
LINE
  8
0
 10
17.4385
 20
0.610352
 11
17.4629
 21
0.635742
  0
LINE
  8
0
 10
17.4629
 20
0.635742
 11
17.4863
 21
0.662109
  0
LINE
  8
0
 10
17.4863
 20
0.662109
 11
17.5098
 21
0.6875
  0
LINE
  8
0
 10
17.5098
 20
0.6875
 11
17.5322
 21
0.714844
  0
LINE
  8
0
 10
17.5322
 20
0.714844
 11
17.5547
 21
0.741211
  0
LINE
  8
0
 10
17.5547
 20
0.741211
 11
17.5977
 21
0.795898
  0
LINE
  8
0
 10
17.5977
 20
0.795898
 11
17.6387
 21
0.852539
  0
LINE
  8
0
 10
17.6387
 20
0.852539
 11
17.6777
 21
0.911133
  0
LINE
  8
0
 10
17.6777
 20
0.911133
 11
17.6963
 21
0.94043
  0
LINE
  8
0
 10
17.6963
 20
0.94043
 11
17.7139
 21
0.969727
  0
LINE
  8
0
 10
17.7139
 20
0.969727
 11
17.7324
 21
1
  0
LINE
  8
0
 10
17.7324
 20
1
 11
17.749
 21
1.03027
  0
LINE
  8
0
 10
17.749
 20
1.03027
 11
17.7656
 21
1.06152
  0
LINE
  8
0
 10
17.7656
 20
1.06152
 11
17.7822
 21
1.0918
  0
LINE
  8
0
 10
17.7822
 20
1.0918
 11
17.7979
 21
1.12305
  0
LINE
  8
0
 10
17.7979
 20
1.12305
 11
17.8125
 21
1.1543
  0
LINE
  8
0
 10
17.8125
 20
1.1543
 11
17.8271
 21
1.18652
  0
LINE
  8
0
 10
17.8271
 20
1.18652
 11
17.8545
 21
1.25098
  0
LINE
  8
0
 10
17.8545
 20
1.25098
 11
17.8672
 21
1.2832
  0
LINE
  8
0
 10
17.8672
 20
1.2832
 11
17.8789
 21
1.31641
  0
LINE
  8
0
 10
17.8789
 20
1.31641
 11
17.8906
 21
1.34863
  0
LINE
  8
0
 10
17.8906
 20
1.34863
 11
17.9023
 21
1.38184
  0
LINE
  8
0
 10
17.9023
 20
1.38184
 11
17.9131
 21
1.41504
  0
LINE
  8
0
 10
17.9131
 20
1.41504
 11
17.9229
 21
1.44824
  0
LINE
  8
0
 10
17.9229
 20
1.44824
 11
17.9404
 21
1.5166
  0
LINE
  8
0
 10
17.9404
 20
1.5166
 11
17.9492
 21
1.5498
  0
LINE
  8
0
 10
17.9492
 20
1.5498
 11
17.9697
 21
1.65234
  0
LINE
  8
0
 10
17.9697
 20
1.65234
 11
17.9756
 21
1.6875
  0
LINE
  8
0
 10
17.9756
 20
1.6875
 11
17.9854
 21
1.75586
  0
LINE
  8
0
 10
17.9854
 20
1.75586
 11
17.9893
 21
1.79102
  0
LINE
  8
0
 10
17.9893
 20
1.79102
 11
17.9922
 21
1.82617
  0
LINE
  8
0
 10
17.9922
 20
1.82617
 11
17.9951
 21
1.86035
  0
LINE
  8
0
 10
17.9951
 20
1.86035
 11
17.999
 21
1.93066
  0
LINE
  8
0
 10
17.999
 20
1.93066
 11
18
 21
1.96484
  0
LINE
  8
0
 10
18
 20
1.96484
 11
18
 21
2.53516
  0
LINE
  8
0
 10
18
 20
2.53516
 11
18.001
 21
2.56934
  0
LINE
  8
0
 10
18.001
 20
2.56934
 11
18.0049
 21
2.63965
  0
LINE
  8
0
 10
18.0049
 20
2.63965
 11
18.0078
 21
2.67383
  0
LINE
  8
0
 10
18.0078
 20
2.67383
 11
18.0107
 21
2.70898
  0
LINE
  8
0
 10
18.0107
 20
2.70898
 11
18.0146
 21
2.74414
  0
LINE
  8
0
 10
18.0146
 20
2.74414
 11
18.0244
 21
2.8125
  0
LINE
  8
0
 10
18.0244
 20
2.8125
 11
18.0303
 21
2.84766
  0
LINE
  8
0
 10
18.0303
 20
2.84766
 11
18.0508
 21
2.9502
  0
LINE
  8
0
 10
18.0508
 20
2.9502
 11
18.0596
 21
2.9834
  0
LINE
  8
0
 10
18.0596
 20
2.9834
 11
18.0771
 21
3.05176
  0
LINE
  8
0
 10
18.0771
 20
3.05176
 11
18.0869
 21
3.08496
  0
LINE
  8
0
 10
18.0869
 20
3.08496
 11
18.0977
 21
3.11816
  0
LINE
  8
0
 10
18.0977
 20
3.11816
 11
18.1094
 21
3.15137
  0
LINE
  8
0
 10
18.1094
 20
3.15137
 11
18.1211
 21
3.18359
  0
LINE
  8
0
 10
18.1211
 20
3.18359
 11
18.1328
 21
3.2168
  0
LINE
  8
0
 10
18.1328
 20
3.2168
 11
18.1455
 21
3.24902
  0
LINE
  8
0
 10
18.1455
 20
3.24902
 11
18.1729
 21
3.31348
  0
LINE
  8
0
 10
18.1729
 20
3.31348
 11
18.1875
 21
3.3457
  0
LINE
  8
0
 10
18.1875
 20
3.3457
 11
18.2021
 21
3.37695
  0
LINE
  8
0
 10
18.2021
 20
3.37695
 11
18.2178
 21
3.4082
  0
LINE
  8
0
 10
18.2178
 20
3.4082
 11
18.2344
 21
3.43848
  0
LINE
  8
0
 10
18.2344
 20
3.43848
 11
18.251
 21
3.46973
  0
LINE
  8
0
 10
18.251
 20
3.46973
 11
18.2676
 21
3.5
  0
LINE
  8
0
 10
18.2676
 20
3.5
 11
18.2861
 21
3.53027
  0
LINE
  8
0
 10
18.2861
 20
3.53027
 11
18.3037
 21
3.55957
  0
LINE
  8
0
 10
18.3037
 20
3.55957
 11
18.3223
 21
3.58887
  0
LINE
  8
0
 10
18.3223
 20
3.58887
 11
18.3613
 21
3.64746
  0
LINE
  8
0
 10
18.3613
 20
3.64746
 11
18.4023
 21
3.7041
  0
LINE
  8
0
 10
18.4023
 20
3.7041
 11
18.4453
 21
3.75879
  0
LINE
  8
0
 10
18.4453
 20
3.75879
 11
18.4678
 21
3.78516
  0
LINE
  8
0
 10
18.4678
 20
3.78516
 11
18.4902
 21
3.8125
  0
LINE
  8
0
 10
18.4902
 20
3.8125
 11
18.5137
 21
3.83789
  0
LINE
  8
0
 10
18.5137
 20
3.83789
 11
18.5371
 21
3.86426
  0
LINE
  8
0
 10
18.5371
 20
3.86426
 11
18.5615
 21
3.88965
  0
LINE
  8
0
 10
18.5615
 20
3.88965
 11
18.6104
 21
3.93848
  0
LINE
  8
0
 10
18.6104
 20
3.93848
 11
18.6357
 21
3.96289
  0
LINE
  8
0
 10
18.6357
 20
3.96289
 11
18.6621
 21
3.98633
  0
LINE
  8
0
 10
18.6621
 20
3.98633
 11
18.6875
 21
4.00977
  0
LINE
  8
0
 10
18.6875
 20
4.00977
 11
18.7148
 21
4.03223
  0
LINE
  8
0
 10
18.7148
 20
4.03223
 11
18.7412
 21
4.05469
  0
LINE
  8
0
 10
18.7412
 20
4.05469
 11
18.7959
 21
4.09766
  0
LINE
  8
0
 10
18.7959
 20
4.09766
 11
18.8525
 21
4.13867
  0
LINE
  8
0
 10
18.8525
 20
4.13867
 11
18.9111
 21
4.17773
  0
LINE
  8
0
 10
18.9111
 20
4.17773
 11
18.9404
 21
4.19629
  0
LINE
  8
0
 10
18.9404
 20
4.19629
 11
18.9697
 21
4.21387
  0
LINE
  8
0
 10
18.9697
 20
4.21387
 11
19
 21
4.23242
  0
LINE
  8
0
 10
19
 20
4.23242
 11
19.0303
 21
4.24902
  0
LINE
  8
0
 10
19.0303
 20
4.24902
 11
19.0615
 21
4.26562
  0
LINE
  8
0
 10
19.0615
 20
4.26562
 11
19.0918
 21
4.28223
  0
LINE
  8
0
 10
19.0918
 20
4.28223
 11
19.123
 21
4.29785
  0
LINE
  8
0
 10
19.123
 20
4.29785
 11
19.1543
 21
4.3125
  0
LINE
  8
0
 10
19.1543
 20
4.3125
 11
19.1865
 21
4.32715
  0
LINE
  8
0
 10
19.1865
 20
4.32715
 11
19.251
 21
4.35449
  0
LINE
  8
0
 10
19.251
 20
4.35449
 11
19.2832
 21
4.36719
  0
LINE
  8
0
 10
19.2832
 20
4.36719
 11
19.3164
 21
4.37891
  0
LINE
  8
0
 10
19.3164
 20
4.37891
 11
19.3486
 21
4.39062
  0
LINE
  8
0
 10
19.3486
 20
4.39062
 11
19.3818
 21
4.40234
  0
LINE
  8
0
 10
19.3818
 20
4.40234
 11
19.415
 21
4.41309
  0
LINE
  8
0
 10
19.415
 20
4.41309
 11
19.4482
 21
4.42285
  0
LINE
  8
0
 10
19.4482
 20
4.42285
 11
19.5166
 21
4.44043
  0
LINE
  8
0
 10
19.5166
 20
4.44043
 11
19.5498
 21
4.44922
  0
LINE
  8
0
 10
19.5498
 20
4.44922
 11
19.6523
 21
4.46973
  0
LINE
  8
0
 10
19.6523
 20
4.46973
 11
19.6875
 21
4.47559
  0
LINE
  8
0
 10
19.6875
 20
4.47559
 11
19.7559
 21
4.48535
  0
LINE
  8
0
 10
19.7559
 20
4.48535
 11
19.791
 21
4.48926
  0
LINE
  8
0
 10
19.791
 20
4.48926
 11
19.8262
 21
4.49219
  0
LINE
  8
0
 10
19.8262
 20
4.49219
 11
19.8604
 21
4.49512
  0
LINE
  8
0
 10
19.8604
 20
4.49512
 11
19.9307
 21
4.49902
  0
LINE
  8
0
 10
19.9307
 20
4.49902
 11
19.9648
 21
4.5
  0
LINE
  8
0
 10
19.9648
 20
4.5
 11
80.0352
 21
4.5
  0
LINE
  8
0
 10
80.0352
 20
4.5
 11
80.0693
 21
4.49902
  0
LINE
  8
0
 10
80.0693
 20
4.49902
 11
80.1396
 21
4.49512
  0
LINE
  8
0
 10
80.1396
 20
4.49512
 11
80.1738
 21
4.49219
  0
LINE
  8
0
 10
80.1738
 20
4.49219
 11
80.209
 21
4.48926
  0
LINE
  8
0
 10
80.209
 20
4.48926
 11
80.2441
 21
4.48535
  0
LINE
  8
0
 10
80.2441
 20
4.48535
 11
80.3125
 21
4.47559
  0
LINE
  8
0
 10
80.3125
 20
4.47559
 11
80.3477
 21
4.46973
  0
LINE
  8
0
 10
80.3477
 20
4.46973
 11
80.4502
 21
4.44922
  0
LINE
  8
0
 10
80.4502
 20
4.44922
 11
80.4834
 21
4.44043
  0
LINE
  8
0
 10
80.4834
 20
4.44043
 11
80.5518
 21
4.42285
  0
LINE
  8
0
 10
80.5518
 20
4.42285
 11
80.585
 21
4.41309
  0
LINE
  8
0
 10
80.585
 20
4.41309
 11
80.6182
 21
4.40234
  0
LINE
  8
0
 10
80.6182
 20
4.40234
 11
80.6514
 21
4.39062
  0
LINE
  8
0
 10
80.6514
 20
4.39062
 11
80.6836
 21
4.37891
  0
LINE
  8
0
 10
80.6836
 20
4.37891
 11
80.7168
 21
4.36719
  0
LINE
  8
0
 10
80.7168
 20
4.36719
 11
80.749
 21
4.35449
  0
LINE
  8
0
 10
80.749
 20
4.35449
 11
80.8135
 21
4.32715
  0
LINE
  8
0
 10
80.8135
 20
4.32715
 11
80.8457
 21
4.3125
  0
LINE
  8
0
 10
80.8457
 20
4.3125
 11
80.877
 21
4.29785
  0
LINE
  8
0
 10
80.877
 20
4.29785
 11
80.9082
 21
4.28223
  0
LINE
  8
0
 10
80.9082
 20
4.28223
 11
80.9385
 21
4.26562
  0
LINE
  8
0
 10
80.9385
 20
4.26562
 11
80.9697
 21
4.24902
  0
LINE
  8
0
 10
80.9697
 20
4.24902
 11
81
 21
4.23242
  0
LINE
  8
0
 10
81
 20
4.23242
 11
81.0303
 21
4.21387
  0
LINE
  8
0
 10
81.0303
 20
4.21387
 11
81.0596
 21
4.19629
  0
LINE
  8
0
 10
81.0596
 20
4.19629
 11
81.0889
 21
4.17773
  0
LINE
  8
0
 10
81.0889
 20
4.17773
 11
81.1475
 21
4.13867
  0
LINE
  8
0
 10
81.1475
 20
4.13867
 11
81.2041
 21
4.09766
  0
LINE
  8
0
 10
81.2041
 20
4.09766
 11
81.2588
 21
4.05469
  0
LINE
  8
0
 10
81.2588
 20
4.05469
 11
81.2852
 21
4.03223
  0
LINE
  8
0
 10
81.2852
 20
4.03223
 11
81.3125
 21
4.00977
  0
LINE
  8
0
 10
81.3125
 20
4.00977
 11
81.3379
 21
3.98633
  0
LINE
  8
0
 10
81.3379
 20
3.98633
 11
81.3643
 21
3.96289
  0
LINE
  8
0
 10
81.3643
 20
3.96289
 11
81.3896
 21
3.93848
  0
LINE
  8
0
 10
81.3896
 20
3.93848
 11
81.4385
 21
3.88965
  0
LINE
  8
0
 10
81.4385
 20
3.88965
 11
81.4629
 21
3.86426
  0
LINE
  8
0
 10
81.4629
 20
3.86426
 11
81.4863
 21
3.83789
  0
LINE
  8
0
 10
81.4863
 20
3.83789
 11
81.5098
 21
3.8125
  0
LINE
  8
0
 10
81.5098
 20
3.8125
 11
81.5322
 21
3.78516
  0
LINE
  8
0
 10
81.5322
 20
3.78516
 11
81.5547
 21
3.75879
  0
LINE
  8
0
 10
81.5547
 20
3.75879
 11
81.5977
 21
3.7041
  0
LINE
  8
0
 10
81.5977
 20
3.7041
 11
81.6387
 21
3.64746
  0
LINE
  8
0
 10
81.6387
 20
3.64746
 11
81.6777
 21
3.58887
  0
LINE
  8
0
 10
81.6777
 20
3.58887
 11
81.6963
 21
3.55957
  0
LINE
  8
0
 10
81.6963
 20
3.55957
 11
81.7139
 21
3.53027
  0
LINE
  8
0
 10
81.7139
 20
3.53027
 11
81.7324
 21
3.5
  0
LINE
  8
0
 10
81.7324
 20
3.5
 11
81.749
 21
3.46973
  0
LINE
  8
0
 10
81.749
 20
3.46973
 11
81.7656
 21
3.43848
  0
LINE
  8
0
 10
81.7656
 20
3.43848
 11
81.7822
 21
3.4082
  0
LINE
  8
0
 10
81.7822
 20
3.4082
 11
81.7979
 21
3.37695
  0
LINE
  8
0
 10
81.7979
 20
3.37695
 11
81.8125
 21
3.3457
  0
LINE
  8
0
 10
81.8125
 20
3.3457
 11
81.8271
 21
3.31348
  0
LINE
  8
0
 10
81.8271
 20
3.31348
 11
81.8545
 21
3.24902
  0
LINE
  8
0
 10
81.8545
 20
3.24902
 11
81.8672
 21
3.2168
  0
LINE
  8
0
 10
81.8672
 20
3.2168
 11
81.8789
 21
3.18359
  0
LINE
  8
0
 10
81.8789
 20
3.18359
 11
81.8906
 21
3.15137
  0
LINE
  8
0
 10
81.8906
 20
3.15137
 11
81.9023
 21
3.11816
  0
LINE
  8
0
 10
81.9023
 20
3.11816
 11
81.9131
 21
3.08496
  0
LINE
  8
0
 10
81.9131
 20
3.08496
 11
81.9229
 21
3.05176
  0
LINE
  8
0
 10
81.9229
 20
3.05176
 11
81.9404
 21
2.9834
  0
LINE
  8
0
 10
81.9404
 20
2.9834
 11
81.9492
 21
2.9502
  0
LINE
  8
0
 10
81.9492
 20
2.9502
 11
81.9697
 21
2.84766
  0
LINE
  8
0
 10
81.9697
 20
2.84766
 11
81.9756
 21
2.8125
  0
LINE
  8
0
 10
81.9756
 20
2.8125
 11
81.9854
 21
2.74414
  0
LINE
  8
0
 10
81.9854
 20
2.74414
 11
81.9893
 21
2.70898
  0
LINE
  8
0
 10
81.9893
 20
2.70898
 11
81.9922
 21
2.67383
  0
LINE
  8
0
 10
81.9922
 20
2.67383
 11
81.9951
 21
2.63965
  0
LINE
  8
0
 10
81.9951
 20
2.63965
 11
81.999
 21
2.56934
  0
LINE
  8
0
 10
81.999
 20
2.56934
 11
82
 21
2.53516
  0
LINE
  8
0
 10
82
 20
2.53516
 11
82
 21
1.96484
  0
LINE
  8
0
 10
82
 20
1.96484
 11
82.001
 21
1.93066
  0
LINE
  8
0
 10
82.001
 20
1.93066
 11
82.0049
 21
1.86035
  0
LINE
  8
0
 10
82.0049
 20
1.86035
 11
82.0078
 21
1.82617
  0
LINE
  8
0
 10
82.0078
 20
1.82617
 11
82.0107
 21
1.79102
  0
LINE
  8
0
 10
82.0107
 20
1.79102
 11
82.0146
 21
1.75586
  0
LINE
  8
0
 10
82.0146
 20
1.75586
 11
82.0244
 21
1.6875
  0
LINE
  8
0
 10
82.0244
 20
1.6875
 11
82.0303
 21
1.65234
  0
LINE
  8
0
 10
82.0303
 20
1.65234
 11
82.0508
 21
1.5498
  0
LINE
  8
0
 10
82.0508
 20
1.5498
 11
82.0596
 21
1.5166
  0
LINE
  8
0
 10
82.0596
 20
1.5166
 11
82.0771
 21
1.44824
  0
LINE
  8
0
 10
82.0771
 20
1.44824
 11
82.0869
 21
1.41504
  0
LINE
  8
0
 10
82.0869
 20
1.41504
 11
82.0977
 21
1.38184
  0
LINE
  8
0
 10
82.0977
 20
1.38184
 11
82.1094
 21
1.34863
  0
LINE
  8
0
 10
82.1094
 20
1.34863
 11
82.1211
 21
1.31641
  0
LINE
  8
0
 10
82.1211
 20
1.31641
 11
82.1328
 21
1.2832
  0
LINE
  8
0
 10
82.1328
 20
1.2832
 11
82.1455
 21
1.25098
  0
LINE
  8
0
 10
82.1455
 20
1.25098
 11
82.1729
 21
1.18652
  0
LINE
  8
0
 10
82.1729
 20
1.18652
 11
82.1875
 21
1.1543
  0
LINE
  8
0
 10
82.1875
 20
1.1543
 11
82.2021
 21
1.12305
  0
LINE
  8
0
 10
82.2021
 20
1.12305
 11
82.2178
 21
1.0918
  0
LINE
  8
0
 10
82.2178
 20
1.0918
 11
82.2344
 21
1.06152
  0
LINE
  8
0
 10
82.2344
 20
1.06152
 11
82.251
 21
1.03027
  0
LINE
  8
0
 10
82.251
 20
1.03027
 11
82.2676
 21
1
  0
LINE
  8
0
 10
82.2676
 20
1
 11
82.2861
 21
0.969727
  0
LINE
  8
0
 10
82.2861
 20
0.969727
 11
82.3037
 21
0.94043
  0
LINE
  8
0
 10
82.3037
 20
0.94043
 11
82.3223
 21
0.911133
  0
LINE
  8
0
 10
82.3223
 20
0.911133
 11
82.3613
 21
0.852539
  0
LINE
  8
0
 10
82.3613
 20
0.852539
 11
82.4023
 21
0.795898
  0
LINE
  8
0
 10
82.4023
 20
0.795898
 11
82.4453
 21
0.741211
  0
LINE
  8
0
 10
82.4453
 20
0.741211
 11
82.4678
 21
0.714844
  0
LINE
  8
0
 10
82.4678
 20
0.714844
 11
82.4902
 21
0.6875
  0
LINE
  8
0
 10
82.4902
 20
0.6875
 11
82.5137
 21
0.662109
  0
LINE
  8
0
 10
82.5137
 20
0.662109
 11
82.5371
 21
0.635742
  0
LINE
  8
0
 10
82.5371
 20
0.635742
 11
82.5615
 21
0.610352
  0
LINE
  8
0
 10
82.5615
 20
0.610352
 11
82.6104
 21
0.561523
  0
LINE
  8
0
 10
82.6104
 20
0.561523
 11
82.6357
 21
0.537109
  0
LINE
  8
0
 10
82.6357
 20
0.537109
 11
82.6621
 21
0.513672
  0
LINE
  8
0
 10
82.6621
 20
0.513672
 11
82.6875
 21
0.490234
  0
LINE
  8
0
 10
82.6875
 20
0.490234
 11
82.7148
 21
0.467773
  0
LINE
  8
0
 10
82.7148
 20
0.467773
 11
82.7412
 21
0.445312
  0
LINE
  8
0
 10
82.7412
 20
0.445312
 11
82.7959
 21
0.402344
  0
LINE
  8
0
 10
82.7959
 20
0.402344
 11
82.8525
 21
0.361328
  0
LINE
  8
0
 10
82.8525
 20
0.361328
 11
82.9111
 21
0.322266
  0
LINE
  8
0
 10
82.9111
 20
0.322266
 11
82.9404
 21
0.303711
  0
LINE
  8
0
 10
82.9404
 20
0.303711
 11
82.9697
 21
0.286133
  0
LINE
  8
0
 10
82.9697
 20
0.286133
 11
83
 21
0.267578
  0
LINE
  8
0
 10
83
 20
0.267578
 11
83.0303
 21
0.250977
  0
LINE
  8
0
 10
83.0303
 20
0.250977
 11
83.0615
 21
0.234375
  0
LINE
  8
0
 10
83.0615
 20
0.234375
 11
83.0918
 21
0.217773
  0
LINE
  8
0
 10
83.0918
 20
0.217773
 11
83.123
 21
0.202148
  0
LINE
  8
0
 10
83.123
 20
0.202148
 11
83.1543
 21
0.1875
  0
LINE
  8
0
 10
83.1543
 20
0.1875
 11
83.1865
 21
0.172852
  0
LINE
  8
0
 10
83.1865
 20
0.172852
 11
83.251
 21
0.145508
  0
LINE
  8
0
 10
83.251
 20
0.145508
 11
83.2832
 21
0.132812
  0
LINE
  8
0
 10
83.2832
 20
0.132812
 11
83.3164
 21
0.121094
  0
LINE
  8
0
 10
83.3164
 20
0.121094
 11
83.3486
 21
0.109375
  0
LINE
  8
0
 10
83.3486
 20
0.109375
 11
83.3818
 21
0.0976562
  0
LINE
  8
0
 10
83.3818
 20
0.0976562
 11
83.415
 21
0.0869141
  0
LINE
  8
0
 10
83.415
 20
0.0869141
 11
83.4482
 21
0.0771484
  0
LINE
  8
0
 10
83.4482
 20
0.0771484
 11
83.5166
 21
0.0595703
  0
LINE
  8
0
 10
83.5166
 20
0.0595703
 11
83.5498
 21
0.0507812
  0
LINE
  8
0
 10
83.5498
 20
0.0507812
 11
83.6523
 21
0.0302734
  0
LINE
  8
0
 10
83.6523
 20
0.0302734
 11
83.6875
 21
0.0244141
  0
LINE
  8
0
 10
83.6875
 20
0.0244141
 11
83.7559
 21
0.0146484
  0
LINE
  8
0
 10
83.7559
 20
0.0146484
 11
83.791
 21
0.0107422
  0
LINE
  8
0
 10
83.791
 20
0.0107422
 11
83.8262
 21
0.0078125
  0
LINE
  8
0
 10
83.8262
 20
0.0078125
 11
83.8604
 21
0.00488281
  0
LINE
  8
0
 10
83.8604
 20
0.00488281
 11
83.9307
 21
0.000976562
  0
LINE
  8
0
 10
83.9307
 20
0.000976562
 11
83.9648
 21
0
  0
LINE
  8
0
 10
83.9648
 20
0
 11
99.9678
 21
0
  0
LINE
  8
0
 10
99.9678
 20
0
 11
99.9854
 21
0.000976562
  0
LINE
  8
0
 10
99.9854
 20
0.000976562
 11
100.002
 21
0.000976562
  0
LINE
  8
0
 10
100.002
 20
0.000976562
 11
100.02
 21
0.00195312
  0
LINE
  8
0
 10
100.02
 20
0.00195312
 11
100.072
 21
0.0078125
  0
LINE
  8
0
 10
100.072
 20
0.0078125
 11
100.089
 21
0.00976562
  0
LINE
  8
0
 10
100.089
 20
0.00976562
 11
100.124
 21
0.015625
  0
LINE
  8
0
 10
100.124
 20
0.015625
 11
100.141
 21
0.0185547
  0
LINE
  8
0
 10
100.141
 20
0.0185547
 11
100.158
 21
0.0214844
  0
LINE
  8
0
 10
100.158
 20
0.0214844
 11
100.175
 21
0.0253906
  0
LINE
  8
0
 10
100.175
 20
0.0253906
 11
100.192
 21
0.0292969
  0
LINE
  8
0
 10
100.192
 20
0.0292969
 11
100.259
 21
0.0488281
  0
LINE
  8
0
 10
100.259
 20
0.0488281
 11
100.309
 21
0.0664062
  0
LINE
  8
0
 10
100.309
 20
0.0664062
 11
100.324
 21
0.0732422
  0
LINE
  8
0
 10
100.324
 20
0.0732422
 11
100.341
 21
0.0791016
  0
LINE
  8
0
 10
100.341
 20
0.0791016
 11
100.356
 21
0.0869141
  0
LINE
  8
0
 10
100.356
 20
0.0869141
 11
100.373
 21
0.09375
  0
LINE
  8
0
 10
100.373
 20
0.09375
 11
100.42
 21
0.117188
  0
LINE
  8
0
 10
100.42
 20
0.117188
 11
100.435
 21
0.125
  0
LINE
  8
0
 10
100.435
 20
0.125
 11
100.45
 21
0.133789
  0
LINE
  8
0
 10
100.45
 20
0.133789
 11
100.465
 21
0.142578
  0
LINE
  8
0
 10
100.465
 20
0.142578
 11
100.479
 21
0.152344
  0
LINE
  8
0
 10
100.479
 20
0.152344
 11
100.495
 21
0.161133
  0
LINE
  8
0
 10
100.495
 20
0.161133
 11
100.509
 21
0.170898
  0
LINE
  8
0
 10
100.509
 20
0.170898
 11
100.523
 21
0.180664
  0
LINE
  8
0
 10
100.523
 20
0.180664
 11
100.538
 21
0.191406
  0
LINE
  8
0
 10
100.538
 20
0.191406
 11
100.552
 21
0.201172
  0
LINE
  8
0
 10
100.552
 20
0.201172
 11
100.579
 21
0.222656
  0
LINE
  8
0
 10
100.579
 20
0.222656
 11
100.593
 21
0.234375
  0
LINE
  8
0
 10
100.593
 20
0.234375
 11
100.606
 21
0.245117
  0
LINE
  8
0
 10
100.606
 20
0.245117
 11
100.645
 21
0.280273
  0
LINE
  8
0
 10
100.645
 20
0.280273
 11
100.657
 21
0.292969
  0
LINE
  8
0
 10
100.657
 20
0.292969
 11
100.669
 21
0.305664
  0
LINE
  8
0
 10
100.669
 20
0.305664
 11
100.682
 21
0.318359
  0
LINE
  8
0
 10
100.682
 20
0.318359
 11
100.705
 21
0.34375
  0
LINE
  8
0
 10
100.705
 20
0.34375
 11
100.716
 21
0.357422
  0
LINE
  8
0
 10
100.716
 20
0.357422
 11
100.728
 21
0.371094
  0
LINE
  8
0
 10
100.728
 20
0.371094
 11
100.749
 21
0.398438
  0
LINE
  8
0
 10
100.749
 20
0.398438
 11
100.759
 21
0.412109
  0
LINE
  8
0
 10
100.759
 20
0.412109
 11
100.77
 21
0.426758
  0
LINE
  8
0
 10
100.77
 20
0.426758
 11
100.779
 21
0.44043
  0
LINE
  8
0
 10
100.779
 20
0.44043
 11
100.789
 21
0.455078
  0
LINE
  8
0
 10
100.789
 20
0.455078
 11
100.798
 21
0.469727
  0
LINE
  8
0
 10
100.798
 20
0.469727
 11
100.808
 21
0.485352
  0
LINE
  8
0
 10
100.808
 20
0.485352
 11
100.816
 21
0.5
  0
LINE
  8
0
 10
100.816
 20
0.5
 11
100.824
 21
0.515625
  0
LINE
  8
0
 10
100.824
 20
0.515625
 11
100.833
 21
0.530273
  0
LINE
  8
0
 10
100.833
 20
0.530273
 11
100.856
 21
0.577148
  0
LINE
  8
0
 10
100.856
 20
0.577148
 11
100.863
 21
0.59375
  0
LINE
  8
0
 10
100.863
 20
0.59375
 11
100.877
 21
0.625
  0
LINE
  8
0
 10
100.877
 20
0.625
 11
100.884
 21
0.641602
  0
LINE
  8
0
 10
100.884
 20
0.641602
 11
100.901
 21
0.691406
  0
LINE
  8
0
 10
100.901
 20
0.691406
 11
100.916
 21
0.741211
  0
LINE
  8
0
 10
100.916
 20
0.741211
 11
100.92
 21
0.757812
  0
LINE
  8
0
 10
100.92
 20
0.757812
 11
100.925
 21
0.775391
  0
LINE
  8
0
 10
100.925
 20
0.775391
 11
100.928
 21
0.791992
  0
LINE
  8
0
 10
100.928
 20
0.791992
 11
100.932
 21
0.80957
  0
LINE
  8
0
 10
100.932
 20
0.80957
 11
100.935
 21
0.826172
  0
LINE
  8
0
 10
100.935
 20
0.826172
 11
100.938
 21
0.84375
  0
LINE
  8
0
 10
100.938
 20
0.84375
 11
100.94
 21
0.860352
  0
LINE
  8
0
 10
100.94
 20
0.860352
 11
100.946
 21
0.913086
  0
LINE
  8
0
 10
100.946
 20
0.913086
 11
100.947
 21
0.930664
  0
LINE
  8
0
 10
100.947
 20
0.930664
 11
100.948
 21
0.947266
  0
LINE
  8
0
 10
100.948
 20
0.947266
 11
100.95
 21
0.982422
  0
LINE
  8
0
 10
100.95
 20
0.982422
 11
100.95
 21
3.96777
  0
LINE
  8
0
 10
100.95
 20
3.96777
 11
100.949
 21
3.98535
  0
LINE
  8
0
 10
100.949
 20
3.98535
 11
100.948
 21
4.00195
  0
LINE
  8
0
 10
100.948
 20
4.00195
 11
100.946
 21
4.03711
  0
LINE
  8
0
 10
100.946
 20
4.03711
 11
100.942
 21
4.07227
  0
LINE
  8
0
 10
100.942
 20
4.07227
 11
100.94
 21
4.08887
  0
LINE
  8
0
 10
100.94
 20
4.08887
 11
100.935
 21
4.12402
  0
LINE
  8
0
 10
100.935
 20
4.12402
 11
100.932
 21
4.14062
  0
LINE
  8
0
 10
100.932
 20
4.14062
 11
100.928
 21
4.1582
  0
LINE
  8
0
 10
100.928
 20
4.1582
 11
100.925
 21
4.1748
  0
LINE
  8
0
 10
100.925
 20
4.1748
 11
100.92
 21
4.19238
  0
LINE
  8
0
 10
100.92
 20
4.19238
 11
100.916
 21
4.20898
  0
LINE
  8
0
 10
100.916
 20
4.20898
 11
100.901
 21
4.25879
  0
LINE
  8
0
 10
100.901
 20
4.25879
 11
100.884
 21
4.30859
  0
LINE
  8
0
 10
100.884
 20
4.30859
 11
100.877
 21
4.32422
  0
LINE
  8
0
 10
100.877
 20
4.32422
 11
100.87
 21
4.34082
  0
LINE
  8
0
 10
100.87
 20
4.34082
 11
100.863
 21
4.35645
  0
LINE
  8
0
 10
100.863
 20
4.35645
 11
100.856
 21
4.37305
  0
LINE
  8
0
 10
100.856
 20
4.37305
 11
100.833
 21
4.41992
  0
LINE
  8
0
 10
100.833
 20
4.41992
 11
100.824
 21
4.43457
  0
LINE
  8
0
 10
100.824
 20
4.43457
 11
100.816
 21
4.4502
  0
LINE
  8
0
 10
100.816
 20
4.4502
 11
100.808
 21
4.46484
  0
LINE
  8
0
 10
100.808
 20
4.46484
 11
100.798
 21
4.47949
  0
LINE
  8
0
 10
100.798
 20
4.47949
 11
100.789
 21
4.49512
  0
LINE
  8
0
 10
100.789
 20
4.49512
 11
100.779
 21
4.50879
  0
LINE
  8
0
 10
100.779
 20
4.50879
 11
100.77
 21
4.52344
  0
LINE
  8
0
 10
100.77
 20
4.52344
 11
100.759
 21
4.53809
  0
LINE
  8
0
 10
100.759
 20
4.53809
 11
100.749
 21
4.55176
  0
LINE
  8
0
 10
100.749
 20
4.55176
 11
100.728
 21
4.5791
  0
LINE
  8
0
 10
100.728
 20
4.5791
 11
100.716
 21
4.59277
  0
LINE
  8
0
 10
100.716
 20
4.59277
 11
100.705
 21
4.60645
  0
LINE
  8
0
 10
100.705
 20
4.60645
 11
100.682
 21
4.63184
  0
LINE
  8
0
 10
100.682
 20
4.63184
 11
100.669
 21
4.64453
  0
LINE
  8
0
 10
100.669
 20
4.64453
 11
100.657
 21
4.65723
  0
LINE
  8
0
 10
100.657
 20
4.65723
 11
100.645
 21
4.66895
  0
LINE
  8
0
 10
100.645
 20
4.66895
 11
100.632
 21
4.68164
  0
LINE
  8
0
 10
100.632
 20
4.68164
 11
100.606
 21
4.70508
  0
LINE
  8
0
 10
100.606
 20
4.70508
 11
100.593
 21
4.71582
  0
LINE
  8
0
 10
100.593
 20
4.71582
 11
100.579
 21
4.72754
  0
LINE
  8
0
 10
100.579
 20
4.72754
 11
100.552
 21
4.74902
  0
LINE
  8
0
 10
100.552
 20
4.74902
 11
100.538
 21
4.75879
  0
LINE
  8
0
 10
100.538
 20
4.75879
 11
100.523
 21
4.76953
  0
LINE
  8
0
 10
100.523
 20
4.76953
 11
100.509
 21
4.7793
  0
LINE
  8
0
 10
100.509
 20
4.7793
 11
100.495
 21
4.78906
  0
LINE
  8
0
 10
100.495
 20
4.78906
 11
100.479
 21
4.79785
  0
LINE
  8
0
 10
100.479
 20
4.79785
 11
100.465
 21
4.80762
  0
LINE
  8
0
 10
100.465
 20
4.80762
 11
100.45
 21
4.81641
  0
LINE
  8
0
 10
100.45
 20
4.81641
 11
100.435
 21
4.82422
  0
LINE
  8
0
 10
100.435
 20
4.82422
 11
100.42
 21
4.83301
  0
LINE
  8
0
 10
100.42
 20
4.83301
 11
100.373
 21
4.85645
  0
LINE
  8
0
 10
100.373
 20
4.85645
 11
100.356
 21
4.86328
  0
LINE
  8
0
 10
100.356
 20
4.86328
 11
100.341
 21
4.87012
  0
LINE
  8
0
 10
100.341
 20
4.87012
 11
100.324
 21
4.87695
  0
LINE
  8
0
 10
100.324
 20
4.87695
 11
100.309
 21
4.88379
  0
LINE
  8
0
 10
100.309
 20
4.88379
 11
100.259
 21
4.90137
  0
LINE
  8
0
 10
100.259
 20
4.90137
 11
100.209
 21
4.91602
  0
LINE
  8
0
 10
100.209
 20
4.91602
 11
100.192
 21
4.91992
  0
LINE
  8
0
 10
100.192
 20
4.91992
 11
100.175
 21
4.9248
  0
LINE
  8
0
 10
100.175
 20
4.9248
 11
100.158
 21
4.92773
  0
LINE
  8
0
 10
100.158
 20
4.92773
 11
100.141
 21
4.93164
  0
LINE
  8
0
 10
100.141
 20
4.93164
 11
100.124
 21
4.93457
  0
LINE
  8
0
 10
100.124
 20
4.93457
 11
100.089
 21
4.94043
  0
LINE
  8
0
 10
100.089
 20
4.94043
 11
100.072
 21
4.94238
  0
LINE
  8
0
 10
100.072
 20
4.94238
 11
100.037
 21
4.94629
  0
LINE
  8
0
 10
100.037
 20
4.94629
 11
100.002
 21
4.94824
  0
LINE
  8
0
 10
100.002
 20
4.94824
 11
99.9854
 21
4.94922
  0
LINE
  8
0
 10
99.9854
 20
4.94922
 11
99.9678
 21
4.9502
  0
LINE
  8
0
 10
99.9678
 20
4.9502
 11
87.915
 21
4.9502
  0
LINE
  8
0
 10
87.915
 20
4.9502
 11
87.8799
 21
4.95215
  0
LINE
  8
0
 10
87.8799
 20
4.95215
 11
87.8633
 21
4.9541
  0
LINE
  8
0
 10
87.8633
 20
4.9541
 11
87.8457
 21
4.95508
  0
LINE
  8
0
 10
87.8457
 20
4.95508
 11
87.8281
 21
4.95703
  0
LINE
  8
0
 10
87.8281
 20
4.95703
 11
87.8105
 21
4.95996
  0
LINE
  8
0
 10
87.8105
 20
4.95996
 11
87.7939
 21
4.96191
  0
LINE
  8
0
 10
87.7939
 20
4.96191
 11
87.7764
 21
4.96484
  0
LINE
  8
0
 10
87.7764
 20
4.96484
 11
87.7588
 21
4.96875
  0
LINE
  8
0
 10
87.7588
 20
4.96875
 11
87.7422
 21
4.97168
  0
LINE
  8
0
 10
87.7422
 20
4.97168
 11
87.7246
 21
4.97559
  0
LINE
  8
0
 10
87.7246
 20
4.97559
 11
87.708
 21
4.97949
  0
LINE
  8
0
 10
87.708
 20
4.97949
 11
87.6914
 21
4.98438
  0
LINE
  8
0
 10
87.6914
 20
4.98438
 11
87.6748
 21
4.98828
  0
LINE
  8
0
 10
87.6748
 20
4.98828
 11
87.6572
 21
4.99414
  0
LINE
  8
0
 10
87.6572
 20
4.99414
 11
87.6406
 21
4.99902
  0
LINE
  8
0
 10
87.6406
 20
4.99902
 11
87.624
 21
5.00488
  0
LINE
  8
0
 10
87.624
 20
5.00488
 11
87.6084
 21
5.01074
  0
LINE
  8
0
 10
87.6084
 20
5.01074
 11
87.5752
 21
5.02246
  0
LINE
  8
0
 10
87.5752
 20
5.02246
 11
87.5596
 21
5.0293
  0
LINE
  8
0
 10
87.5596
 20
5.0293
 11
87.543
 21
5.03613
  0
LINE
  8
0
 10
87.543
 20
5.03613
 11
87.5273
 21
5.04395
  0
LINE
  8
0
 10
87.5273
 20
5.04395
 11
87.5117
 21
5.05078
  0
LINE
  8
0
 10
87.5117
 20
5.05078
 11
87.4961
 21
5.05859
  0
LINE
  8
0
 10
87.4961
 20
5.05859
 11
87.4805
 21
5.06738
  0
LINE
  8
0
 10
87.4805
 20
5.06738
 11
87.4648
 21
5.0752
  0
LINE
  8
0
 10
87.4648
 20
5.0752
 11
87.4502
 21
5.08398
  0
LINE
  8
0
 10
87.4502
 20
5.08398
 11
87.4346
 21
5.09277
  0
LINE
  8
0
 10
87.4346
 20
5.09277
 11
87.4199
 21
5.10156
  0
LINE
  8
0
 10
87.4199
 20
5.10156
 11
87.376
 21
5.13086
  0
LINE
  8
0
 10
87.376
 20
5.13086
 11
87.3623
 21
5.14062
  0
LINE
  8
0
 10
87.3623
 20
5.14062
 11
87.3486
 21
5.15137
  0
LINE
  8
0
 10
87.3486
 20
5.15137
 11
87.334
 21
5.16211
  0
LINE
  8
0
 10
87.334
 20
5.16211
 11
87.3203
 21
5.17285
  0
LINE
  8
0
 10
87.3203
 20
5.17285
 11
87.3076
 21
5.18359
  0
LINE
  8
0
 10
87.3076
 20
5.18359
 11
87.2939
 21
5.19531
  0
LINE
  8
0
 10
87.2939
 20
5.19531
 11
87.2812
 21
5.20703
  0
LINE
  8
0
 10
87.2812
 20
5.20703
 11
87.2676
 21
5.21875
  0
LINE
  8
0
 10
87.2676
 20
5.21875
 11
87.2549
 21
5.23047
  0
LINE
  8
0
 10
87.2549
 20
5.23047
 11
87.2432
 21
5.24316
  0
LINE
  8
0
 10
87.2432
 20
5.24316
 11
87.2305
 21
5.25488
  0
LINE
  8
0
 10
87.2305
 20
5.25488
 11
87.2188
 21
5.26758
  0
LINE
  8
0
 10
87.2188
 20
5.26758
 11
87.207
 21
5.28125
  0
LINE
  8
0
 10
87.207
 20
5.28125
 11
87.1953
 21
5.29395
  0
LINE
  8
0
 10
87.1953
 20
5.29395
 11
87.1836
 21
5.30762
  0
LINE
  8
0
 10
87.1836
 20
5.30762
 11
87.1729
 21
5.32031
  0
LINE
  8
0
 10
87.1729
 20
5.32031
 11
87.1621
 21
5.33398
  0
LINE
  8
0
 10
87.1621
 20
5.33398
 11
87.1514
 21
5.34863
  0
LINE
  8
0
 10
87.1514
 20
5.34863
 11
87.1406
 21
5.3623
  0
LINE
  8
0
 10
87.1406
 20
5.3623
 11
87.1309
 21
5.37598
  0
LINE
  8
0
 10
87.1309
 20
5.37598
 11
87.1016
 21
5.41992
  0
LINE
  8
0
 10
87.1016
 20
5.41992
 11
87.0928
 21
5.43457
  0
LINE
  8
0
 10
87.0928
 20
5.43457
 11
87.084
 21
5.4502
  0
LINE
  8
0
 10
87.084
 20
5.4502
 11
87.0752
 21
5.46484
  0
LINE
  8
0
 10
87.0752
 20
5.46484
 11
87.0674
 21
5.48047
  0
LINE
  8
0
 10
87.0674
 20
5.48047
 11
87.0586
 21
5.49609
  0
LINE
  8
0
 10
87.0586
 20
5.49609
 11
87.0508
 21
5.51172
  0
LINE
  8
0
 10
87.0508
 20
5.51172
 11
87.0439
 21
5.52734
  0
LINE
  8
0
 10
87.0439
 20
5.52734
 11
87.0361
 21
5.54297
  0
LINE
  8
0
 10
87.0361
 20
5.54297
 11
87.0293
 21
5.55957
  0
LINE
  8
0
 10
87.0293
 20
5.55957
 11
87.0225
 21
5.5752
  0
LINE
  8
0
 10
87.0225
 20
5.5752
 11
87.0107
 21
5.6084
  0
LINE
  8
0
 10
87.0107
 20
5.6084
 11
87.0049
 21
5.62402
  0
LINE
  8
0
 10
87.0049
 20
5.62402
 11
86.999
 21
5.64062
  0
LINE
  8
0
 10
86.999
 20
5.64062
 11
86.9941
 21
5.65723
  0
LINE
  8
0
 10
86.9941
 20
5.65723
 11
86.9883
 21
5.6748
  0
LINE
  8
0
 10
86.9883
 20
5.6748
 11
86.9844
 21
5.69141
  0
LINE
  8
0
 10
86.9844
 20
5.69141
 11
86.9795
 21
5.70801
  0
LINE
  8
0
 10
86.9795
 20
5.70801
 11
86.9756
 21
5.72461
  0
LINE
  8
0
 10
86.9756
 20
5.72461
 11
86.9717
 21
5.74219
  0
LINE
  8
0
 10
86.9717
 20
5.74219
 11
86.9688
 21
5.75879
  0
LINE
  8
0
 10
86.9688
 20
5.75879
 11
86.9648
 21
5.77637
  0
LINE
  8
0
 10
86.9648
 20
5.77637
 11
86.9619
 21
5.79395
  0
LINE
  8
0
 10
86.9619
 20
5.79395
 11
86.96
 21
5.81055
  0
LINE
  8
0
 10
86.96
 20
5.81055
 11
86.957
 21
5.82812
  0
LINE
  8
0
 10
86.957
 20
5.82812
 11
86.9551
 21
5.8457
  0
LINE
  8
0
 10
86.9551
 20
5.8457
 11
86.9541
 21
5.86328
  0
LINE
  8
0
 10
86.9541
 20
5.86328
 11
86.9521
 21
5.87988
  0
LINE
  8
0
 10
86.9521
 20
5.87988
 11
86.9502
 21
5.91504
  0
LINE
  8
0
 10
86.9502
 20
5.91504
 11
86.9502
 21
7.68457
  0
LINE
  8
0
 10
86.9502
 20
7.68457
 11
86.9521
 21
7.71973
  0
LINE
  8
0
 10
86.9521
 20
7.71973
 11
86.9541
 21
7.7373
  0
LINE
  8
0
 10
86.9541
 20
7.7373
 11
86.9551
 21
7.75488
  0
LINE
  8
0
 10
86.9551
 20
7.75488
 11
86.957
 21
7.77148
  0
LINE
  8
0
 10
86.957
 20
7.77148
 11
86.96
 21
7.78906
  0
LINE
  8
0
 10
86.96
 20
7.78906
 11
86.9619
 21
7.80664
  0
LINE
  8
0
 10
86.9619
 20
7.80664
 11
86.9648
 21
7.82324
  0
LINE
  8
0
 10
86.9648
 20
7.82324
 11
86.9688
 21
7.84082
  0
LINE
  8
0
 10
86.9688
 20
7.84082
 11
86.9717
 21
7.8584
  0
LINE
  8
0
 10
86.9717
 20
7.8584
 11
86.9795
 21
7.8916
  0
LINE
  8
0
 10
86.9795
 20
7.8916
 11
86.9844
 21
7.90918
  0
LINE
  8
0
 10
86.9844
 20
7.90918
 11
86.9883
 21
7.92578
  0
LINE
  8
0
 10
86.9883
 20
7.92578
 11
86.9941
 21
7.94238
  0
LINE
  8
0
 10
86.9941
 20
7.94238
 11
86.999
 21
7.95898
  0
LINE
  8
0
 10
86.999
 20
7.95898
 11
87.0166
 21
8.00879
  0
LINE
  8
0
 10
87.0166
 20
8.00879
 11
87.0225
 21
8.02441
  0
LINE
  8
0
 10
87.0225
 20
8.02441
 11
87.0293
 21
8.04102
  0
LINE
  8
0
 10
87.0293
 20
8.04102
 11
87.0361
 21
8.05664
  0
LINE
  8
0
 10
87.0361
 20
8.05664
 11
87.0439
 21
8.07227
  0
LINE
  8
0
 10
87.0439
 20
8.07227
 11
87.0508
 21
8.08789
  0
LINE
  8
0
 10
87.0508
 20
8.08789
 11
87.0586
 21
8.10352
  0
LINE
  8
0
 10
87.0586
 20
8.10352
 11
87.0674
 21
8.11914
  0
LINE
  8
0
 10
87.0674
 20
8.11914
 11
87.0752
 21
8.13477
  0
LINE
  8
0
 10
87.0752
 20
8.13477
 11
87.084
 21
8.15039
  0
LINE
  8
0
 10
87.084
 20
8.15039
 11
87.1016
 21
8.17969
  0
LINE
  8
0
 10
87.1016
 20
8.17969
 11
87.1309
 21
8.22363
  0
LINE
  8
0
 10
87.1309
 20
8.22363
 11
87.1406
 21
8.2373
  0
LINE
  8
0
 10
87.1406
 20
8.2373
 11
87.1514
 21
8.25195
  0
LINE
  8
0
 10
87.1514
 20
8.25195
 11
87.1836
 21
8.29297
  0
LINE
  8
0
 10
87.1836
 20
8.29297
 11
87.1953
 21
8.30566
  0
LINE
  8
0
 10
87.1953
 20
8.30566
 11
87.207
 21
8.31934
  0
LINE
  8
0
 10
87.207
 20
8.31934
 11
87.2305
 21
8.34473
  0
LINE
  8
0
 10
87.2305
 20
8.34473
 11
87.2676
 21
8.38184
  0
LINE
  8
0
 10
87.2676
 20
8.38184
 11
87.2812
 21
8.39355
  0
LINE
  8
0
 10
87.2812
 20
8.39355
 11
87.2939
 21
8.4043
  0
LINE
  8
0
 10
87.2939
 20
8.4043
 11
87.3076
 21
8.41602
  0
LINE
  8
0
 10
87.3076
 20
8.41602
 11
87.3203
 21
8.42676
  0
LINE
  8
0
 10
87.3203
 20
8.42676
 11
87.334
 21
8.43848
  0
LINE
  8
0
 10
87.334
 20
8.43848
 11
87.3486
 21
8.44824
  0
LINE
  8
0
 10
87.3486
 20
8.44824
 11
87.3623
 21
8.45898
  0
LINE
  8
0
 10
87.3623
 20
8.45898
 11
87.376
 21
8.46875
  0
LINE
  8
0
 10
87.376
 20
8.46875
 11
87.3906
 21
8.47949
  0
LINE
  8
0
 10
87.3906
 20
8.47949
 11
87.4053
 21
8.48828
  0
LINE
  8
0
 10
87.4053
 20
8.48828
 11
87.4199
 21
8.49805
  0
LINE
  8
0
 10
87.4199
 20
8.49805
 11
87.4346
 21
8.50684
  0
LINE
  8
0
 10
87.4346
 20
8.50684
 11
87.4502
 21
8.51562
  0
LINE
  8
0
 10
87.4502
 20
8.51562
 11
87.4648
 21
8.52441
  0
LINE
  8
0
 10
87.4648
 20
8.52441
 11
87.4805
 21
8.5332
  0
LINE
  8
0
 10
87.4805
 20
8.5332
 11
87.5273
 21
8.55664
  0
LINE
  8
0
 10
87.5273
 20
8.55664
 11
87.543
 21
8.56348
  0
LINE
  8
0
 10
87.543
 20
8.56348
 11
87.5596
 21
8.57031
  0
LINE
  8
0
 10
87.5596
 20
8.57031
 11
87.5752
 21
8.57715
  0
LINE
  8
0
 10
87.5752
 20
8.57715
 11
87.5918
 21
8.58398
  0
LINE
  8
0
 10
87.5918
 20
8.58398
 11
87.6084
 21
8.58984
  0
LINE
  8
0
 10
87.6084
 20
8.58984
 11
87.624
 21
8.5957
  0
LINE
  8
0
 10
87.624
 20
8.5957
 11
87.6406
 21
8.60059
  0
LINE
  8
0
 10
87.6406
 20
8.60059
 11
87.6572
 21
8.60645
  0
LINE
  8
0
 10
87.6572
 20
8.60645
 11
87.6748
 21
8.61133
  0
LINE
  8
0
 10
87.6748
 20
8.61133
 11
87.6914
 21
8.61621
  0
LINE
  8
0
 10
87.6914
 20
8.61621
 11
87.7246
 21
8.62402
  0
LINE
  8
0
 10
87.7246
 20
8.62402
 11
87.7422
 21
8.62793
  0
LINE
  8
0
 10
87.7422
 20
8.62793
 11
87.7588
 21
8.63184
  0
LINE
  8
0
 10
87.7588
 20
8.63184
 11
87.7939
 21
8.6377
  0
LINE
  8
0
 10
87.7939
 20
8.6377
 11
87.8105
 21
8.64062
  0
LINE
  8
0
 10
87.8105
 20
8.64062
 11
87.8633
 21
8.64648
  0
LINE
  8
0
 10
87.8633
 20
8.64648
 11
87.8799
 21
8.64746
  0
LINE
  8
0
 10
87.8799
 20
8.64746
 11
87.915
 21
8.64941
  0
LINE
  8
0
 10
87.915
 20
8.64941
 11
87.9326
 21
8.64941
  0
LINE
  8
0
 10
87.9326
 20
8.64941
 11
87.9502
 21
8.65039
  0
LINE
  8
0
 10
87.9502
 20
8.65039
 11
99.9854
 21
8.65039
  0
LINE
  8
0
 10
99.9854
 20
8.65039
 11
100.002
 21
8.65137
  0
LINE
  8
0
 10
100.002
 20
8.65137
 11
100.037
 21
8.65332
  0
LINE
  8
0
 10
100.037
 20
8.65332
 11
100.072
 21
8.65723
  0
LINE
  8
0
 10
100.072
 20
8.65723
 11
100.089
 21
8.66016
  0
LINE
  8
0
 10
100.089
 20
8.66016
 11
100.106
 21
8.66211
  0
LINE
  8
0
 10
100.106
 20
8.66211
 11
100.124
 21
8.66504
  0
LINE
  8
0
 10
100.124
 20
8.66504
 11
100.141
 21
8.66797
  0
LINE
  8
0
 10
100.141
 20
8.66797
 11
100.158
 21
8.67188
  0
LINE
  8
0
 10
100.158
 20
8.67188
 11
100.175
 21
8.67578
  0
LINE
  8
0
 10
100.175
 20
8.67578
 11
100.192
 21
8.67969
  0
LINE
  8
0
 10
100.192
 20
8.67969
 11
100.209
 21
8.68359
  0
LINE
  8
0
 10
100.209
 20
8.68359
 11
100.242
 21
8.69336
  0
LINE
  8
0
 10
100.242
 20
8.69336
 11
100.259
 21
8.69922
  0
LINE
  8
0
 10
100.259
 20
8.69922
 11
100.275
 21
8.7041
  0
LINE
  8
0
 10
100.275
 20
8.7041
 11
100.292
 21
8.70996
  0
LINE
  8
0
 10
100.292
 20
8.70996
 11
100.309
 21
8.7168
  0
LINE
  8
0
 10
100.309
 20
8.7168
 11
100.324
 21
8.72266
  0
LINE
  8
0
 10
100.324
 20
8.72266
 11
100.341
 21
8.72949
  0
LINE
  8
0
 10
100.341
 20
8.72949
 11
100.356
 21
8.73633
  0
LINE
  8
0
 10
100.356
 20
8.73633
 11
100.373
 21
8.74414
  0
LINE
  8
0
 10
100.373
 20
8.74414
 11
100.389
 21
8.75098
  0
LINE
  8
0
 10
100.389
 20
8.75098
 11
100.42
 21
8.7666
  0
LINE
  8
0
 10
100.42
 20
8.7666
 11
100.435
 21
8.77539
  0
LINE
  8
0
 10
100.435
 20
8.77539
 11
100.45
 21
8.78418
  0
LINE
  8
0
 10
100.45
 20
8.78418
 11
100.479
 21
8.80176
  0
LINE
  8
0
 10
100.479
 20
8.80176
 11
100.495
 21
8.81152
  0
LINE
  8
0
 10
100.495
 20
8.81152
 11
100.509
 21
8.82129
  0
LINE
  8
0
 10
100.509
 20
8.82129
 11
100.538
 21
8.84082
  0
LINE
  8
0
 10
100.538
 20
8.84082
 11
100.593
 21
8.88379
  0
LINE
  8
0
 10
100.593
 20
8.88379
 11
100.606
 21
8.89551
  0
LINE
  8
0
 10
100.606
 20
8.89551
 11
100.645
 21
8.93066
  0
LINE
  8
0
 10
100.645
 20
8.93066
 11
100.682
 21
8.96777
  0
LINE
  8
0
 10
100.682
 20
8.96777
 11
100.693
 21
8.98047
  0
LINE
  8
0
 10
100.693
 20
8.98047
 11
100.705
 21
8.99414
  0
LINE
  8
0
 10
100.705
 20
8.99414
 11
100.716
 21
9.00684
  0
LINE
  8
0
 10
100.716
 20
9.00684
 11
100.728
 21
9.02051
  0
LINE
  8
0
 10
100.728
 20
9.02051
 11
100.749
 21
9.04785
  0
LINE
  8
0
 10
100.749
 20
9.04785
 11
100.759
 21
9.0625
  0
LINE
  8
0
 10
100.759
 20
9.0625
 11
100.77
 21
9.07617
  0
LINE
  8
0
 10
100.77
 20
9.07617
 11
100.789
 21
9.10547
  0
LINE
  8
0
 10
100.789
 20
9.10547
 11
100.798
 21
9.12012
  0
LINE
  8
0
 10
100.798
 20
9.12012
 11
100.808
 21
9.13477
  0
LINE
  8
0
 10
100.808
 20
9.13477
 11
100.816
 21
9.15039
  0
LINE
  8
0
 10
100.816
 20
9.15039
 11
100.824
 21
9.16504
  0
LINE
  8
0
 10
100.824
 20
9.16504
 11
100.833
 21
9.18066
  0
LINE
  8
0
 10
100.833
 20
9.18066
 11
100.856
 21
9.22754
  0
LINE
  8
0
 10
100.856
 20
9.22754
 11
100.87
 21
9.25879
  0
LINE
  8
0
 10
100.87
 20
9.25879
 11
100.884
 21
9.29199
  0
LINE
  8
0
 10
100.884
 20
9.29199
 11
100.89
 21
9.30762
  0
LINE
  8
0
 10
100.89
 20
9.30762
 11
100.901
 21
9.34082
  0
LINE
  8
0
 10
100.901
 20
9.34082
 11
100.911
 21
9.37402
  0
LINE
  8
0
 10
100.911
 20
9.37402
 11
100.916
 21
9.3916
  0
LINE
  8
0
 10
100.916
 20
9.3916
 11
100.92
 21
9.4082
  0
LINE
  8
0
 10
100.92
 20
9.4082
 11
100.925
 21
9.4248
  0
LINE
  8
0
 10
100.925
 20
9.4248
 11
100.928
 21
9.44238
  0
LINE
  8
0
 10
100.928
 20
9.44238
 11
100.932
 21
9.45898
  0
LINE
  8
0
 10
100.932
 20
9.45898
 11
100.935
 21
9.47656
  0
LINE
  8
0
 10
100.935
 20
9.47656
 11
100.938
 21
9.49316
  0
LINE
  8
0
 10
100.938
 20
9.49316
 11
100.94
 21
9.51074
  0
LINE
  8
0
 10
100.94
 20
9.51074
 11
100.944
 21
9.5459
  0
LINE
  8
0
 10
100.944
 20
9.5459
 11
100.946
 21
9.5625
  0
LINE
  8
0
 10
100.946
 20
9.5625
 11
100.95
 21
9.63281
  0
LINE
  8
0
 10
100.95
 20
9.63281
 11
100.95
 21
17
  0
LINE
  8
0
 10
100.95
 20
17
 11
104.968
 21
17
  0
LINE
  8
0
 10
104.968
 20
17
 11
104.985
 21
17.001
  0
LINE
  8
0
 10
104.985
 20
17.001
 11
105.002
 21
17.001
  0
LINE
  8
0
 10
105.002
 20
17.001
 11
105.02
 21
17.002
  0
LINE
  8
0
 10
105.02
 20
17.002
 11
105.072
 21
17.0078
  0
LINE
  8
0
 10
105.072
 20
17.0078
 11
105.089
 21
17.0098
  0
LINE
  8
0
 10
105.089
 20
17.0098
 11
105.124
 21
17.0156
  0
LINE
  8
0
 10
105.124
 20
17.0156
 11
105.141
 21
17.0186
  0
LINE
  8
0
 10
105.141
 20
17.0186
 11
105.158
 21
17.0215
  0
LINE
  8
0
 10
105.158
 20
17.0215
 11
105.175
 21
17.0254
  0
LINE
  8
0
 10
105.175
 20
17.0254
 11
105.192
 21
17.0293
  0
LINE
  8
0
 10
105.192
 20
17.0293
 11
105.259
 21
17.0488
  0
LINE
  8
0
 10
105.259
 20
17.0488
 11
105.309
 21
17.0664
  0
LINE
  8
0
 10
105.309
 20
17.0664
 11
105.324
 21
17.0732
  0
LINE
  8
0
 10
105.324
 20
17.0732
 11
105.341
 21
17.0791
  0
LINE
  8
0
 10
105.341
 20
17.0791
 11
105.356
 21
17.0869
  0
LINE
  8
0
 10
105.356
 20
17.0869
 11
105.373
 21
17.0938
  0
LINE
  8
0
 10
105.373
 20
17.0938
 11
105.42
 21
17.1172
  0
LINE
  8
0
 10
105.42
 20
17.1172
 11
105.435
 21
17.125
  0
LINE
  8
0
 10
105.435
 20
17.125
 11
105.45
 21
17.1338
  0
LINE
  8
0
 10
105.45
 20
17.1338
 11
105.465
 21
17.1426
  0
LINE
  8
0
 10
105.465
 20
17.1426
 11
105.479
 21
17.1523
  0
LINE
  8
0
 10
105.479
 20
17.1523
 11
105.495
 21
17.1611
  0
LINE
  8
0
 10
105.495
 20
17.1611
 11
105.509
 21
17.1709
  0
LINE
  8
0
 10
105.509
 20
17.1709
 11
105.523
 21
17.1807
  0
LINE
  8
0
 10
105.523
 20
17.1807
 11
105.538
 21
17.1914
  0
LINE
  8
0
 10
105.538
 20
17.1914
 11
105.552
 21
17.2012
  0
LINE
  8
0
 10
105.552
 20
17.2012
 11
105.579
 21
17.2227
  0
LINE
  8
0
 10
105.579
 20
17.2227
 11
105.593
 21
17.2344
  0
LINE
  8
0
 10
105.593
 20
17.2344
 11
105.606
 21
17.2451
  0
LINE
  8
0
 10
105.606
 20
17.2451
 11
105.645
 21
17.2803
  0
LINE
  8
0
 10
105.645
 20
17.2803
 11
105.657
 21
17.293
  0
LINE
  8
0
 10
105.657
 20
17.293
 11
105.669
 21
17.3057
  0
LINE
  8
0
 10
105.669
 20
17.3057
 11
105.682
 21
17.3184
  0
LINE
  8
0
 10
105.682
 20
17.3184
 11
105.705
 21
17.3438
  0
LINE
  8
0
 10
105.705
 20
17.3438
 11
105.716
 21
17.3574
  0
LINE
  8
0
 10
105.716
 20
17.3574
 11
105.728
 21
17.3711
  0
LINE
  8
0
 10
105.728
 20
17.3711
 11
105.749
 21
17.3984
  0
LINE
  8
0
 10
105.749
 20
17.3984
 11
105.759
 21
17.4121
  0
LINE
  8
0
 10
105.759
 20
17.4121
 11
105.77
 21
17.4268
  0
LINE
  8
0
 10
105.77
 20
17.4268
 11
105.779
 21
17.4404
  0
LINE
  8
0
 10
105.779
 20
17.4404
 11
105.789
 21
17.4551
  0
LINE
  8
0
 10
105.789
 20
17.4551
 11
105.798
 21
17.4697
  0
LINE
  8
0
 10
105.798
 20
17.4697
 11
105.808
 21
17.4854
  0
LINE
  8
0
 10
105.808
 20
17.4854
 11
105.816
 21
17.5
  0
LINE
  8
0
 10
105.816
 20
17.5
 11
105.824
 21
17.5156
  0
LINE
  8
0
 10
105.824
 20
17.5156
 11
105.833
 21
17.5303
  0
LINE
  8
0
 10
105.833
 20
17.5303
 11
105.856
 21
17.5771
  0
LINE
  8
0
 10
105.856
 20
17.5771
 11
105.863
 21
17.5938
  0
LINE
  8
0
 10
105.863
 20
17.5938
 11
105.877
 21
17.625
  0
LINE
  8
0
 10
105.877
 20
17.625
 11
105.884
 21
17.6416
  0
LINE
  8
0
 10
105.884
 20
17.6416
 11
105.901
 21
17.6914
  0
LINE
  8
0
 10
105.901
 20
17.6914
 11
105.916
 21
17.7412
  0
LINE
  8
0
 10
105.916
 20
17.7412
 11
105.92
 21
17.7578
  0
LINE
  8
0
 10
105.92
 20
17.7578
 11
105.925
 21
17.7754
  0
LINE
  8
0
 10
105.925
 20
17.7754
 11
105.928
 21
17.792
  0
LINE
  8
0
 10
105.928
 20
17.792
 11
105.932
 21
17.8096
  0
LINE
  8
0
 10
105.932
 20
17.8096
 11
105.935
 21
17.8262
  0
LINE
  8
0
 10
105.935
 20
17.8262
 11
105.938
 21
17.8438
  0
LINE
  8
0
 10
105.938
 20
17.8438
 11
105.94
 21
17.8604
  0
LINE
  8
0
 10
105.94
 20
17.8604
 11
105.946
 21
17.9131
  0
LINE
  8
0
 10
105.946
 20
17.9131
 11
105.947
 21
17.9307
  0
LINE
  8
0
 10
105.947
 20
17.9307
 11
105.948
 21
17.9473
  0
LINE
  8
0
 10
105.948
 20
17.9473
 11
105.95
 21
17.9824
  0
LINE
  8
0
 10
105.95
 20
17.9824
 11
105.95
 21
36.0176
  0
LINE
  8
0
 10
105.95
 20
36.0176
 11
105.948
 21
36.0527
  0
LINE
  8
0
 10
105.948
 20
36.0527
 11
105.947
 21
36.0693
  0
LINE
  8
0
 10
105.947
 20
36.0693
 11
105.946
 21
36.0869
  0
LINE
  8
0
 10
105.946
 20
36.0869
 11
105.94
 21
36.1396
  0
LINE
  8
0
 10
105.94
 20
36.1396
 11
105.938
 21
36.1562
  0
LINE
  8
0
 10
105.938
 20
36.1562
 11
105.935
 21
36.1738
  0
LINE
  8
0
 10
105.935
 20
36.1738
 11
105.932
 21
36.1904
  0
LINE
  8
0
 10
105.932
 20
36.1904
 11
105.928
 21
36.208
  0
LINE
  8
0
 10
105.928
 20
36.208
 11
105.925
 21
36.2246
  0
LINE
  8
0
 10
105.925
 20
36.2246
 11
105.92
 21
36.2422
  0
LINE
  8
0
 10
105.92
 20
36.2422
 11
105.916
 21
36.2588
  0
LINE
  8
0
 10
105.916
 20
36.2588
 11
105.901
 21
36.3086
  0
LINE
  8
0
 10
105.901
 20
36.3086
 11
105.884
 21
36.3584
  0
LINE
  8
0
 10
105.884
 20
36.3584
 11
105.877
 21
36.375
  0
LINE
  8
0
 10
105.877
 20
36.375
 11
105.863
 21
36.4062
  0
LINE
  8
0
 10
105.863
 20
36.4062
 11
105.856
 21
36.4229
  0
LINE
  8
0
 10
105.856
 20
36.4229
 11
105.833
 21
36.4697
  0
LINE
  8
0
 10
105.833
 20
36.4697
 11
105.824
 21
36.4844
  0
LINE
  8
0
 10
105.824
 20
36.4844
 11
105.816
 21
36.5
  0
LINE
  8
0
 10
105.816
 20
36.5
 11
105.808
 21
36.5146
  0
LINE
  8
0
 10
105.808
 20
36.5146
 11
105.798
 21
36.5303
  0
LINE
  8
0
 10
105.798
 20
36.5303
 11
105.789
 21
36.5449
  0
LINE
  8
0
 10
105.789
 20
36.5449
 11
105.779
 21
36.5596
  0
LINE
  8
0
 10
105.779
 20
36.5596
 11
105.77
 21
36.5732
  0
LINE
  8
0
 10
105.77
 20
36.5732
 11
105.759
 21
36.5879
  0
LINE
  8
0
 10
105.759
 20
36.5879
 11
105.749
 21
36.6016
  0
LINE
  8
0
 10
105.749
 20
36.6016
 11
105.728
 21
36.6289
  0
LINE
  8
0
 10
105.728
 20
36.6289
 11
105.716
 21
36.6426
  0
LINE
  8
0
 10
105.716
 20
36.6426
 11
105.705
 21
36.6562
  0
LINE
  8
0
 10
105.705
 20
36.6562
 11
105.682
 21
36.6816
  0
LINE
  8
0
 10
105.682
 20
36.6816
 11
105.669
 21
36.6943
  0
LINE
  8
0
 10
105.669
 20
36.6943
 11
105.657
 21
36.707
  0
LINE
  8
0
 10
105.657
 20
36.707
 11
105.645
 21
36.7197
  0
LINE
  8
0
 10
105.645
 20
36.7197
 11
105.606
 21
36.7549
  0
LINE
  8
0
 10
105.606
 20
36.7549
 11
105.593
 21
36.7656
  0
LINE
  8
0
 10
105.593
 20
36.7656
 11
105.579
 21
36.7773
  0
LINE
  8
0
 10
105.579
 20
36.7773
 11
105.552
 21
36.7988
  0
LINE
  8
0
 10
105.552
 20
36.7988
 11
105.538
 21
36.8086
  0
LINE
  8
0
 10
105.538
 20
36.8086
 11
105.523
 21
36.8193
  0
LINE
  8
0
 10
105.523
 20
36.8193
 11
105.509
 21
36.8291
  0
LINE
  8
0
 10
105.509
 20
36.8291
 11
105.495
 21
36.8389
  0
LINE
  8
0
 10
105.495
 20
36.8389
 11
105.479
 21
36.8477
  0
LINE
  8
0
 10
105.479
 20
36.8477
 11
105.465
 21
36.8574
  0
LINE
  8
0
 10
105.465
 20
36.8574
 11
105.45
 21
36.8662
  0
LINE
  8
0
 10
105.45
 20
36.8662
 11
105.435
 21
36.875
  0
LINE
  8
0
 10
105.435
 20
36.875
 11
105.42
 21
36.8828
  0
LINE
  8
0
 10
105.42
 20
36.8828
 11
105.373
 21
36.9062
  0
LINE
  8
0
 10
105.373
 20
36.9062
 11
105.356
 21
36.9131
  0
LINE
  8
0
 10
105.356
 20
36.9131
 11
105.341
 21
36.9209
  0
LINE
  8
0
 10
105.341
 20
36.9209
 11
105.324
 21
36.9268
  0
LINE
  8
0
 10
105.324
 20
36.9268
 11
105.309
 21
36.9336
  0
LINE
  8
0
 10
105.309
 20
36.9336
 11
105.259
 21
36.9512
  0
LINE
  8
0
 10
105.259
 20
36.9512
 11
105.192
 21
36.9707
  0
LINE
  8
0
 10
105.192
 20
36.9707
 11
105.175
 21
36.9746
  0
LINE
  8
0
 10
105.175
 20
36.9746
 11
105.158
 21
36.9785
  0
LINE
  8
0
 10
105.158
 20
36.9785
 11
105.141
 21
36.9814
  0
LINE
  8
0
 10
105.141
 20
36.9814
 11
105.124
 21
36.9844
  0
LINE
  8
0
 10
105.124
 20
36.9844
 11
105.089
 21
36.9902
  0
LINE
  8
0
 10
105.089
 20
36.9902
 11
105.072
 21
36.9922
  0
LINE
  8
0
 10
105.072
 20
36.9922
 11
105.02
 21
36.998
  0
LINE
  8
0
 10
105.02
 20
36.998
 11
105.002
 21
36.999
  0
LINE
  8
0
 10
105.002
 20
36.999
 11
104.985
 21
36.999
  0
LINE
  8
0
 10
104.985
 20
36.999
 11
104.968
 21
37
  0
LINE
  8
0
 10
104.968
 20
37
 11
-4.01758
 21
37
  0
LINE
  8
0
 10
-4.01758
 20
37
 11
-4.03516
 21
36.999
  0
LINE
  8
0
 10
-4.03516
 20
36.999
 11
-4.05273
 21
36.999
  0
LINE
  8
0
 10
-4.05273
 20
36.999
 11
-4.06934
 21
36.998
  0
LINE
  8
0
 10
-4.06934
 20
36.998
 11
-4.13965
 21
36.9902
  0
LINE
  8
0
 10
-4.13965
 20
36.9902
 11
-4.15625
 21
36.9873
  0
LINE
  8
0
 10
-4.15625
 20
36.9873
 11
-4.17383
 21
36.9844
  0
LINE
  8
0
 10
-4.17383
 20
36.9844
 11
-4.19043
 21
36.9814
  0
LINE
  8
0
 10
-4.19043
 20
36.9814
 11
-4.20801
 21
36.9785
  0
LINE
  8
0
 10
-4.20801
 20
36.9785
 11
-4.22461
 21
36.9746
  0
LINE
  8
0
 10
-4.22461
 20
36.9746
 11
-4.24219
 21
36.9707
  0
LINE
  8
0
 10
-4.24219
 20
36.9707
 11
-4.30859
 21
36.9512
  0
LINE
  8
0
 10
-4.30859
 20
36.9512
 11
-4.3584
 21
36.9336
  0
LINE
  8
0
 10
-4.3584
 20
36.9336
 11
-4.375
 21
36.9268
  0
LINE
  8
0
 10
-4.375
 20
36.9268
 11
-4.39062
 21
36.9209
  0
LINE
  8
0
 10
-4.39062
 20
36.9209
 11
-4.40625
 21
36.9131
  0
LINE
  8
0
 10
-4.40625
 20
36.9131
 11
-4.42285
 21
36.9062
  0
LINE
  8
0
 10
-4.42285
 20
36.9062
 11
-4.46973
 21
36.8828
  0
LINE
  8
0
 10
-4.46973
 20
36.8828
 11
-4.48438
 21
36.875
  0
LINE
  8
0
 10
-4.48438
 20
36.875
 11
-4.5
 21
36.8662
  0
LINE
  8
0
 10
-4.5
 20
36.8662
 11
-4.51465
 21
36.8574
  0
LINE
  8
0
 10
-4.51465
 20
36.8574
 11
-4.53027
 21
36.8477
  0
LINE
  8
0
 10
-4.53027
 20
36.8477
 11
-4.54492
 21
36.8389
  0
LINE
  8
0
 10
-4.54492
 20
36.8389
 11
-4.55957
 21
36.8291
  0
LINE
  8
0
 10
-4.55957
 20
36.8291
 11
-4.57324
 21
36.8193
  0
LINE
  8
0
 10
-4.57324
 20
36.8193
 11
-4.58789
 21
36.8086
  0
LINE
  8
0
 10
-4.58789
 20
36.8086
 11
-4.60156
 21
36.7988
  0
LINE
  8
0
 10
-4.60156
 20
36.7988
 11
-4.62891
 21
36.7773
  0
LINE
  8
0
 10
-4.62891
 20
36.7773
 11
-4.64258
 21
36.7656
  0
LINE
  8
0
 10
-4.64258
 20
36.7656
 11
-4.65625
 21
36.7549
  0
LINE
  8
0
 10
-4.65625
 20
36.7549
 11
-4.69434
 21
36.7197
  0
LINE
  8
0
 10
-4.69434
 20
36.7197
 11
-4.71973
 21
36.6943
  0
LINE
  8
0
 10
-4.71973
 20
36.6943
 11
-4.75488
 21
36.6562
  0
LINE
  8
0
 10
-4.75488
 20
36.6562
 11
-4.76562
 21
36.6426
  0
LINE
  8
0
 10
-4.76562
 20
36.6426
 11
-4.77734
 21
36.6289
  0
LINE
  8
0
 10
-4.77734
 20
36.6289
 11
-4.79883
 21
36.6016
  0
LINE
  8
0
 10
-4.79883
 20
36.6016
 11
-4.80859
 21
36.5879
  0
LINE
  8
0
 10
-4.80859
 20
36.5879
 11
-4.81934
 21
36.5732
  0
LINE
  8
0
 10
-4.81934
 20
36.5732
 11
-4.8291
 21
36.5596
  0
LINE
  8
0
 10
-4.8291
 20
36.5596
 11
-4.83887
 21
36.5449
  0
LINE
  8
0
 10
-4.83887
 20
36.5449
 11
-4.84766
 21
36.5303
  0
LINE
  8
0
 10
-4.84766
 20
36.5303
 11
-4.85742
 21
36.5146
  0
LINE
  8
0
 10
-4.85742
 20
36.5146
 11
-4.86621
 21
36.5
  0
LINE
  8
0
 10
-4.86621
 20
36.5
 11
-4.875
 21
36.4844
  0
LINE
  8
0
 10
-4.875
 20
36.4844
 11
-4.88281
 21
36.4697
  0
LINE
  8
0
 10
-4.88281
 20
36.4697
 11
-4.90625
 21
36.4229
  0
LINE
  8
0
 10
-4.90625
 20
36.4229
 11
-4.91309
 21
36.4062
  0
LINE
  8
0
 10
-4.91309
 20
36.4062
 11
-4.9209
 21
36.3906
  0
LINE
  8
0
 10
-4.9209
 20
36.3906
 11
-4.92676
 21
36.375
  0
LINE
  8
0
 10
-4.92676
 20
36.375
 11
-4.93359
 21
36.3584
  0
LINE
  8
0
 10
-4.93359
 20
36.3584
 11
-4.95117
 21
36.3086
  0
LINE
  8
0
 10
-4.95117
 20
36.3086
 11
-4.9707
 21
36.2422
  0
LINE
  8
0
 10
-4.9707
 20
36.2422
 11
-4.97461
 21
36.2246
  0
LINE
  8
0
 10
-4.97461
 20
36.2246
 11
-4.97852
 21
36.208
  0
LINE
  8
0
 10
-4.97852
 20
36.208
 11
-4.98145
 21
36.1904
  0
LINE
  8
0
 10
-4.98145
 20
36.1904
 11
-4.98438
 21
36.1738
  0
LINE
  8
0
 10
-4.98438
 20
36.1738
 11
-4.9873
 21
36.1562
  0
LINE
  8
0
 10
-4.9873
 20
36.1562
 11
-4.99023
 21
36.1396
  0
LINE
  8
0
 10
-4.99023
 20
36.1396
 11
-4.99805
 21
36.0693
  0
LINE
  8
0
 10
-4.99805
 20
36.0693
 11
-4.99902
 21
36.0527
  0
LINE
  8
0
 10
-4.99902
 20
36.0527
 11
-4.99902
 21
36.0352
  0
LINE
  8
0
 10
-4.99902
 20
36.0352
 11
-5
 21
36.0176
  0
LINE
  8
0
 10
-5
 20
36.0176
 11
-5
 21
17.9824
  0
LINE
  8
0
 10
-5
 20
17.9824
 11
-4.99902
 21
17.9648
  0
LINE
  8
0
 10
-4.99902
 20
17.9648
 11
-4.99902
 21
17.9473
  0
LINE
  8
0
 10
-4.99902
 20
17.9473
 11
-4.99805
 21
17.9307
  0
LINE
  8
0
 10
-4.99805
 20
17.9307
 11
-4.99023
 21
17.8604
  0
LINE
  8
0
 10
-4.99023
 20
17.8604
 11
-4.9873
 21
17.8438
  0
LINE
  8
0
 10
-4.9873
 20
17.8438
 11
-4.98438
 21
17.8262
  0
LINE
  8
0
 10
-4.98438
 20
17.8262
 11
-4.98145
 21
17.8096
  0
LINE
  8
0
 10
-4.98145
 20
17.8096
 11
-4.97852
 21
17.792
  0
LINE
  8
0
 10
-4.97852
 20
17.792
 11
-4.97461
 21
17.7754
  0
LINE
  8
0
 10
-4.97461
 20
17.7754
 11
-4.9707
 21
17.7578
  0
LINE
  8
0
 10
-4.9707
 20
17.7578
 11
-4.95117
 21
17.6914
  0
LINE
  8
0
 10
-4.95117
 20
17.6914
 11
-4.93359
 21
17.6416
  0
LINE
  8
0
 10
-4.93359
 20
17.6416
 11
-4.92676
 21
17.625
  0
LINE
  8
0
 10
-4.92676
 20
17.625
 11
-4.9209
 21
17.6094
  0
LINE
  8
0
 10
-4.9209
 20
17.6094
 11
-4.91309
 21
17.5938
  0
LINE
  8
0
 10
-4.91309
 20
17.5938
 11
-4.90625
 21
17.5771
  0
LINE
  8
0
 10
-4.90625
 20
17.5771
 11
-4.88281
 21
17.5303
  0
LINE
  8
0
 10
-4.88281
 20
17.5303
 11
-4.875
 21
17.5156
  0
LINE
  8
0
 10
-4.875
 20
17.5156
 11
-4.86621
 21
17.5
  0
LINE
  8
0
 10
-4.86621
 20
17.5
 11
-4.85742
 21
17.4854
  0
LINE
  8
0
 10
-4.85742
 20
17.4854
 11
-4.84766
 21
17.4697
  0
LINE
  8
0
 10
-4.84766
 20
17.4697
 11
-4.83887
 21
17.4551
  0
LINE
  8
0
 10
-4.83887
 20
17.4551
 11
-4.8291
 21
17.4404
  0
LINE
  8
0
 10
-4.8291
 20
17.4404
 11
-4.81934
 21
17.4268
  0
LINE
  8
0
 10
-4.81934
 20
17.4268
 11
-4.80859
 21
17.4121
  0
LINE
  8
0
 10
-4.80859
 20
17.4121
 11
-4.79883
 21
17.3984
  0
LINE
  8
0
 10
-4.79883
 20
17.3984
 11
-4.77734
 21
17.3711
  0
LINE
  8
0
 10
-4.77734
 20
17.3711
 11
-4.76562
 21
17.3574
  0
LINE
  8
0
 10
-4.76562
 20
17.3574
 11
-4.75488
 21
17.3438
  0
LINE
  8
0
 10
-4.75488
 20
17.3438
 11
-4.71973
 21
17.3057
  0
LINE
  8
0
 10
-4.71973
 20
17.3057
 11
-4.69434
 21
17.2803
  0
LINE
  8
0
 10
-4.69434
 20
17.2803
 11
-4.65625
 21
17.2451
  0
LINE
  8
0
 10
-4.65625
 20
17.2451
 11
-4.64258
 21
17.2344
  0
LINE
  8
0
 10
-4.64258
 20
17.2344
 11
-4.62891
 21
17.2227
  0
LINE
  8
0
 10
-4.62891
 20
17.2227
 11
-4.60156
 21
17.2012
  0
LINE
  8
0
 10
-4.60156
 20
17.2012
 11
-4.58789
 21
17.1914
  0
LINE
  8
0
 10
-4.58789
 20
17.1914
 11
-4.57324
 21
17.1807
  0
LINE
  8
0
 10
-4.57324
 20
17.1807
 11
-4.55957
 21
17.1709
  0
LINE
  8
0
 10
-4.55957
 20
17.1709
 11
-4.54492
 21
17.1611
  0
LINE
  8
0
 10
-4.54492
 20
17.1611
 11
-4.53027
 21
17.1523
  0
LINE
  8
0
 10
-4.53027
 20
17.1523
 11
-4.51465
 21
17.1426
  0
LINE
  8
0
 10
-4.51465
 20
17.1426
 11
-4.5
 21
17.1338
  0
LINE
  8
0
 10
-4.5
 20
17.1338
 11
-4.48438
 21
17.125
  0
LINE
  8
0
 10
-4.48438
 20
17.125
 11
-4.46973
 21
17.1172
  0
LINE
  8
0
 10
-4.46973
 20
17.1172
 11
-4.42285
 21
17.0938
  0
LINE
  8
0
 10
-4.42285
 20
17.0938
 11
-4.40625
 21
17.0869
  0
LINE
  8
0
 10
-4.40625
 20
17.0869
 11
-4.39062
 21
17.0791
  0
LINE
  8
0
 10
-4.39062
 20
17.0791
 11
-4.375
 21
17.0732
  0
LINE
  8
0
 10
-4.375
 20
17.0732
 11
-4.3584
 21
17.0664
  0
LINE
  8
0
 10
-4.3584
 20
17.0664
 11
-4.30859
 21
17.0488
  0
LINE
  8
0
 10
-4.30859
 20
17.0488
 11
-4.24219
 21
17.0293
  0
LINE
  8
0
 10
-4.24219
 20
17.0293
 11
-4.22461
 21
17.0254
  0
LINE
  8
0
 10
-4.22461
 20
17.0254
 11
-4.20801
 21
17.0215
  0
LINE
  8
0
 10
-4.20801
 20
17.0215
 11
-4.19043
 21
17.0186
  0
LINE
  8
0
 10
-4.19043
 20
17.0186
 11
-4.17383
 21
17.0156
  0
LINE
  8
0
 10
-4.17383
 20
17.0156
 11
-4.15625
 21
17.0127
  0
LINE
  8
0
 10
-4.15625
 20
17.0127
 11
-4.13965
 21
17.0098
  0
LINE
  8
0
 10
-4.13965
 20
17.0098
 11
-4.06934
 21
17.002
  0
LINE
  8
0
 10
-4.06934
 20
17.002
 11
-4.05273
 21
17.001
  0
LINE
  8
0
 10
-4.05273
 20
17.001
 11
-4.03516
 21
17.001
  0
LINE
  8
0
 10
-4.03516
 20
17.001
 11
-4.01758
 21
17
  0
LINE
  8
0
 10
-4.01758
 20
17
 11
0
 21
17
  0
LINE
  8
0
 10
0
 20
17
 11
0
 21
9.63281
  0
LINE
  8
0
 10
0
 20
9.63281
 11
0.000976562
 21
9.61523
  0
LINE
  8
0
 10
0.000976562
 20
9.61523
 11
0.000976562
 21
9.59766
  0
LINE
  8
0
 10
0.000976562
 20
9.59766
 11
0.00195312
 21
9.58008
  0
LINE
  8
0
 10
0.00195312
 20
9.58008
 11
0.00390625
 21
9.5625
  0
LINE
  8
0
 10
0.00390625
 20
9.5625
 11
0.00585938
 21
9.5459
  0
LINE
  8
0
 10
0.00585938
 20
9.5459
 11
0.00976562
 21
9.51074
  0
LINE
  8
0
 10
0.00976562
 20
9.51074
 11
0.0126953
 21
9.49316
  0
LINE
  8
0
 10
0.0126953
 20
9.49316
 11
0.015625
 21
9.47656
  0
LINE
  8
0
 10
0.015625
 20
9.47656
 11
0.0185547
 21
9.45898
  0
LINE
  8
0
 10
0.0185547
 20
9.45898
 11
0.0214844
 21
9.44238
  0
LINE
  8
0
 10
0.0214844
 20
9.44238
 11
0.0253906
 21
9.4248
  0
LINE
  8
0
 10
0.0253906
 20
9.4248
 11
0.0292969
 21
9.4082
  0
LINE
  8
0
 10
0.0292969
 20
9.4082
 11
0.0341797
 21
9.3916
  0
LINE
  8
0
 10
0.0341797
 20
9.3916
 11
0.0390625
 21
9.37402
  0
LINE
  8
0
 10
0.0390625
 20
9.37402
 11
0.0488281
 21
9.34082
  0
LINE
  8
0
 10
0.0488281
 20
9.34082
 11
0.0605469
 21
9.30762
  0
LINE
  8
0
 10
0.0605469
 20
9.30762
 11
0.0664062
 21
9.29199
  0
LINE
  8
0
 10
0.0664062
 20
9.29199
 11
0.0732422
 21
9.27539
  0
LINE
  8
0
 10
0.0732422
 20
9.27539
 11
0.0791016
 21
9.25879
  0
LINE
  8
0
 10
0.0791016
 20
9.25879
 11
0.0869141
 21
9.24316
  0
LINE
  8
0
 10
0.0869141
 20
9.24316
 11
0.09375
 21
9.22754
  0
LINE
  8
0
 10
0.09375
 20
9.22754
 11
0.125
 21
9.16504
  0
LINE
  8
0
 10
0.125
 20
9.16504
 11
0.133789
 21
9.15039
  0
LINE
  8
0
 10
0.133789
 20
9.15039
 11
0.142578
 21
9.13477
  0
LINE
  8
0
 10
0.142578
 20
9.13477
 11
0.152344
 21
9.12012
  0
LINE
  8
0
 10
0.152344
 20
9.12012
 11
0.161133
 21
9.10547
  0
LINE
  8
0
 10
0.161133
 20
9.10547
 11
0.180664
 21
9.07617
  0
LINE
  8
0
 10
0.180664
 20
9.07617
 11
0.191406
 21
9.0625
  0
LINE
  8
0
 10
0.191406
 20
9.0625
 11
0.201172
 21
9.04785
  0
LINE
  8
0
 10
0.201172
 20
9.04785
 11
0.222656
 21
9.02051
  0
LINE
  8
0
 10
0.222656
 20
9.02051
 11
0.234375
 21
9.00684
  0
LINE
  8
0
 10
0.234375
 20
9.00684
 11
0.245117
 21
8.99414
  0
LINE
  8
0
 10
0.245117
 20
8.99414
 11
0.256836
 21
8.98047
  0
LINE
  8
0
 10
0.256836
 20
8.98047
 11
0.280273
 21
8.95508
  0
LINE
  8
0
 10
0.280273
 20
8.95508
 11
0.292969
 21
8.94336
  0
LINE
  8
0
 10
0.292969
 20
8.94336
 11
0.305664
 21
8.93066
  0
LINE
  8
0
 10
0.305664
 20
8.93066
 11
0.34375
 21
8.89551
  0
LINE
  8
0
 10
0.34375
 20
8.89551
 11
0.357422
 21
8.88379
  0
LINE
  8
0
 10
0.357422
 20
8.88379
 11
0.412109
 21
8.84082
  0
LINE
  8
0
 10
0.412109
 20
8.84082
 11
0.426758
 21
8.83105
  0
LINE
  8
0
 10
0.426758
 20
8.83105
 11
0.44043
 21
8.82129
  0
LINE
  8
0
 10
0.44043
 20
8.82129
 11
0.469727
 21
8.80176
  0
LINE
  8
0
 10
0.469727
 20
8.80176
 11
0.485352
 21
8.79297
  0
LINE
  8
0
 10
0.485352
 20
8.79297
 11
0.5
 21
8.78418
  0
LINE
  8
0
 10
0.5
 20
8.78418
 11
0.515625
 21
8.77539
  0
LINE
  8
0
 10
0.515625
 20
8.77539
 11
0.530273
 21
8.7666
  0
LINE
  8
0
 10
0.530273
 20
8.7666
 11
0.561523
 21
8.75098
  0
LINE
  8
0
 10
0.561523
 20
8.75098
 11
0.577148
 21
8.74414
  0
LINE
  8
0
 10
0.577148
 20
8.74414
 11
0.59375
 21
8.73633
  0
LINE
  8
0
 10
0.59375
 20
8.73633
 11
0.625
 21
8.72266
  0
LINE
  8
0
 10
0.625
 20
8.72266
 11
0.641602
 21
8.7168
  0
LINE
  8
0
 10
0.641602
 20
8.7168
 11
0.658203
 21
8.70996
  0
LINE
  8
0
 10
0.658203
 20
8.70996
 11
0.674805
 21
8.7041
  0
LINE
  8
0
 10
0.674805
 20
8.7041
 11
0.691406
 21
8.69922
  0
LINE
  8
0
 10
0.691406
 20
8.69922
 11
0.708008
 21
8.69336
  0
LINE
  8
0
 10
0.708008
 20
8.69336
 11
0.741211
 21
8.68359
  0
LINE
  8
0
 10
0.741211
 20
8.68359
 11
0.757812
 21
8.67969
  0
LINE
  8
0
 10
0.757812
 20
8.67969
 11
0.775391
 21
8.67578
  0
LINE
  8
0
 10
0.775391
 20
8.67578
 11
0.791992
 21
8.67188
  0
LINE
  8
0
 10
0.791992
 20
8.67188
 11
0.80957
 21
8.66797
  0
LINE
  8
0
 10
0.80957
 20
8.66797
 11
0.826172
 21
8.66504
  0
LINE
  8
0
 10
0.826172
 20
8.66504
 11
0.84375
 21
8.66211
  0
LINE
  8
0
 10
0.84375
 20
8.66211
 11
0.860352
 21
8.66016
  0
LINE
  8
0
 10
0.860352
 20
8.66016
 11
0.87793
 21
8.65723
  0
LINE
  8
0
 10
0.87793
 20
8.65723
 11
0.913086
 21
8.65332
  0
LINE
  8
0
 10
0.913086
 20
8.65332
 11
0.930664
 21
8.65234
  0
LINE
  8
0
 10
0.930664
 20
8.65234
 11
0.947266
 21
8.65137
  0
LINE
  8
0
 10
0.947266
 20
8.65137
 11
0.964844
 21
8.65039
  0
LINE
  8
0
 10
0.964844
 20
8.65039
 11
12
 21
8.65039
  0
LINE
  8
0
 10
12
 20
8.65039
 11
12.0176
 21
8.64941
  0
LINE
  8
0
 10
12.0176
 20
8.64941
 11
12.0352
 21
8.64941
  0
LINE
  8
0
 10
12.0352
 20
8.64941
 11
12.0527
 21
8.64844
  0
LINE
  8
0
 10
12.0527
 20
8.64844
 11
12.0693
 21
8.64746
  0
LINE
  8
0
 10
12.0693
 20
8.64746
 11
12.0869
 21
8.64648
  0
LINE
  8
0
 10
12.0869
 20
8.64648
 11
12.1396
 21
8.64062
  0
LINE
  8
0
 10
12.1396
 20
8.64062
 11
12.1562
 21
8.6377
  0
LINE
  8
0
 10
12.1562
 20
8.6377
 11
12.1738
 21
8.63477
  0
LINE
  8
0
 10
12.1738
 20
8.63477
 11
12.1904
 21
8.63184
  0
LINE
  8
0
 10
12.1904
 20
8.63184
 11
12.208
 21
8.62793
  0
LINE
  8
0
 10
12.208
 20
8.62793
 11
12.2246
 21
8.62402
  0
LINE
  8
0
 10
12.2246
 20
8.62402
 11
12.2422
 21
8.62012
  0
LINE
  8
0
 10
12.2422
 20
8.62012
 11
12.2588
 21
8.61621
  0
LINE
  8
0
 10
12.2588
 20
8.61621
 11
12.292
 21
8.60645
  0
LINE
  8
0
 10
12.292
 20
8.60645
 11
12.3086
 21
8.60059
  0
LINE
  8
0
 10
12.3086
 20
8.60059
 11
12.3252
 21
8.5957
  0
LINE
  8
0
 10
12.3252
 20
8.5957
 11
12.3584
 21
8.58398
  0
LINE
  8
0
 10
12.3584
 20
8.58398
 11
12.375
 21
8.57715
  0
LINE
  8
0
 10
12.375
 20
8.57715
 11
12.4062
 21
8.56348
  0
LINE
  8
0
 10
12.4062
 20
8.56348
 11
12.4229
 21
8.55664
  0
LINE
  8
0
 10
12.4229
 20
8.55664
 11
12.4697
 21
8.5332
  0
LINE
  8
0
 10
12.4697
 20
8.5332
 11
12.4844
 21
8.52441
  0
LINE
  8
0
 10
12.4844
 20
8.52441
 11
12.5
 21
8.51562
  0
LINE
  8
0
 10
12.5
 20
8.51562
 11
12.5146
 21
8.50684
  0
LINE
  8
0
 10
12.5146
 20
8.50684
 11
12.5303
 21
8.49805
  0
LINE
  8
0
 10
12.5303
 20
8.49805
 11
12.5449
 21
8.48828
  0
LINE
  8
0
 10
12.5449
 20
8.48828
 11
12.5596
 21
8.47949
  0
LINE
  8
0
 10
12.5596
 20
8.47949
 11
12.5732
 21
8.46875
  0
LINE
  8
0
 10
12.5732
 20
8.46875
 11
12.5879
 21
8.45898
  0
LINE
  8
0
 10
12.5879
 20
8.45898
 11
12.6016
 21
8.44824
  0
LINE
  8
0
 10
12.6016
 20
8.44824
 11
12.6152
 21
8.43848
  0
LINE
  8
0
 10
12.6152
 20
8.43848
 11
12.6289
 21
8.42676
  0
LINE
  8
0
 10
12.6289
 20
8.42676
 11
12.6426
 21
8.41602
  0
LINE
  8
0
 10
12.6426
 20
8.41602
 11
12.6562
 21
8.4043
  0
LINE
  8
0
 10
12.6562
 20
8.4043
 11
12.6689
 21
8.39355
  0
LINE
  8
0
 10
12.6689
 20
8.39355
 11
12.6816
 21
8.38184
  0
LINE
  8
0
 10
12.6816
 20
8.38184
 11
12.6943
 21
8.36914
  0
LINE
  8
0
 10
12.6943
 20
8.36914
 11
12.707
 21
8.35742
  0
LINE
  8
0
 10
12.707
 20
8.35742
 11
12.7197
 21
8.34473
  0
LINE
  8
0
 10
12.7197
 20
8.34473
 11
12.7432
 21
8.31934
  0
LINE
  8
0
 10
12.7432
 20
8.31934
 11
12.7549
 21
8.30566
  0
LINE
  8
0
 10
12.7549
 20
8.30566
 11
12.7656
 21
8.29297
  0
LINE
  8
0
 10
12.7656
 20
8.29297
 11
12.7773
 21
8.2793
  0
LINE
  8
0
 10
12.7773
 20
8.2793
 11
12.7988
 21
8.25195
  0
LINE
  8
0
 10
12.7988
 20
8.25195
 11
12.8086
 21
8.2373
  0
LINE
  8
0
 10
12.8086
 20
8.2373
 11
12.8193
 21
8.22363
  0
LINE
  8
0
 10
12.8193
 20
8.22363
 11
12.8389
 21
8.19434
  0
LINE
  8
0
 10
12.8389
 20
8.19434
 11
12.8477
 21
8.17969
  0
LINE
  8
0
 10
12.8477
 20
8.17969
 11
12.8574
 21
8.16504
  0
LINE
  8
0
 10
12.8574
 20
8.16504
 11
12.8662
 21
8.15039
  0
LINE
  8
0
 10
12.8662
 20
8.15039
 11
12.875
 21
8.13477
  0
LINE
  8
0
 10
12.875
 20
8.13477
 11
12.9062
 21
8.07227
  0
LINE
  8
0
 10
12.9062
 20
8.07227
 11
12.9131
 21
8.05664
  0
LINE
  8
0
 10
12.9131
 20
8.05664
 11
12.9209
 21
8.04102
  0
LINE
  8
0
 10
12.9209
 20
8.04102
 11
12.9268
 21
8.02441
  0
LINE
  8
0
 10
12.9268
 20
8.02441
 11
12.9336
 21
8.00879
  0
LINE
  8
0
 10
12.9336
 20
8.00879
 11
12.9512
 21
7.95898
  0
LINE
  8
0
 10
12.9512
 20
7.95898
 11
12.9658
 21
7.90918
  0
LINE
  8
0
 10
12.9658
 20
7.90918
 11
12.9707
 21
7.8916
  0
LINE
  8
0
 10
12.9707
 20
7.8916
 11
12.9785
 21
7.8584
  0
LINE
  8
0
 10
12.9785
 20
7.8584
 11
12.9844
 21
7.82324
  0
LINE
  8
0
 10
12.9844
 20
7.82324
 11
12.9873
 21
7.80664
  0
LINE
  8
0
 10
12.9873
 20
7.80664
 11
12.9902
 21
7.78906
  0
LINE
  8
0
 10
12.9902
 20
7.78906
 11
12.9922
 21
7.77148
  0
LINE
  8
0
 10
12.9922
 20
7.77148
 11
12.9941
 21
7.75488
  0
LINE
  8
0
 10
12.9941
 20
7.75488
 11
12.998
 21
7.71973
  0
LINE
  8
0
 10
12.998
 20
7.71973
 11
12.999
 21
7.70215
  0
LINE
  8
0
 10
12.999
 20
7.70215
 11
12.999
 21
7.68457
  0
LINE
  8
0
 10
12.999
 20
7.68457
 11
13
 21
7.66699
  0
LINE
  8
0
 10
13
 20
7.66699
 11
13
 21
5.93262
  0
LINE
  8
0
 10
13
 20
5.93262
 11
12.999
 21
5.91504
  0
LINE
  8
0
 10
12.999
 20
5.91504
 11
12.999
 21
5.89746
  0
LINE
  8
0
 10
12.999
 20
5.89746
 11
12.998
 21
5.87988
  0
LINE
  8
0
 10
12.998
 20
5.87988
 11
12.9961
 21
5.86328
  0
LINE
  8
0
 10
12.9961
 20
5.86328
 11
12.9902
 21
5.81055
  0
LINE
  8
0
 10
12.9902
 20
5.81055
 11
12.9873
 21
5.79395
  0
LINE
  8
0
 10
12.9873
 20
5.79395
 11
12.9814
 21
5.75879
  0
LINE
  8
0
 10
12.9814
 20
5.75879
 11
12.9785
 21
5.74219
  0
LINE
  8
0
 10
12.9785
 20
5.74219
 11
12.9746
 21
5.72461
  0
LINE
  8
0
 10
12.9746
 20
5.72461
 11
12.9707
 21
5.70801
  0
LINE
  8
0
 10
12.9707
 20
5.70801
 11
12.9609
 21
5.6748
  0
LINE
  8
0
 10
12.9609
 20
5.6748
 11
12.9561
 21
5.65723
  0
LINE
  8
0
 10
12.9561
 20
5.65723
 11
12.9512
 21
5.64062
  0
LINE
  8
0
 10
12.9512
 20
5.64062
 11
12.9453
 21
5.62402
  0
LINE
  8
0
 10
12.9453
 20
5.62402
 11
12.9395
 21
5.6084
  0
LINE
  8
0
 10
12.9395
 20
5.6084
 11
12.9336
 21
5.5918
  0
LINE
  8
0
 10
12.9336
 20
5.5918
 11
12.9268
 21
5.5752
  0
LINE
  8
0
 10
12.9268
 20
5.5752
 11
12.9209
 21
5.55957
  0
LINE
  8
0
 10
12.9209
 20
5.55957
 11
12.9131
 21
5.54297
  0
LINE
  8
0
 10
12.9131
 20
5.54297
 11
12.9062
 21
5.52734
  0
LINE
  8
0
 10
12.9062
 20
5.52734
 11
12.875
 21
5.46484
  0
LINE
  8
0
 10
12.875
 20
5.46484
 11
12.8662
 21
5.4502
  0
LINE
  8
0
 10
12.8662
 20
5.4502
 11
12.8574
 21
5.43457
  0
LINE
  8
0
 10
12.8574
 20
5.43457
 11
12.8477
 21
5.41992
  0
LINE
  8
0
 10
12.8477
 20
5.41992
 11
12.8389
 21
5.40527
  0
LINE
  8
0
 10
12.8389
 20
5.40527
 11
12.8193
 21
5.37598
  0
LINE
  8
0
 10
12.8193
 20
5.37598
 11
12.8086
 21
5.3623
  0
LINE
  8
0
 10
12.8086
 20
5.3623
 11
12.7988
 21
5.34863
  0
LINE
  8
0
 10
12.7988
 20
5.34863
 11
12.7881
 21
5.33398
  0
LINE
  8
0
 10
12.7881
 20
5.33398
 11
12.7773
 21
5.32031
  0
LINE
  8
0
 10
12.7773
 20
5.32031
 11
12.7656
 21
5.30762
  0
LINE
  8
0
 10
12.7656
 20
5.30762
 11
12.7549
 21
5.29395
  0
LINE
  8
0
 10
12.7549
 20
5.29395
 11
12.7432
 21
5.28125
  0
LINE
  8
0
 10
12.7432
 20
5.28125
 11
12.7314
 21
5.26758
  0
LINE
  8
0
 10
12.7314
 20
5.26758
 11
12.7197
 21
5.25488
  0
LINE
  8
0
 10
12.7197
 20
5.25488
 11
12.707
 21
5.24316
  0
LINE
  8
0
 10
12.707
 20
5.24316
 11
12.6943
 21
5.23047
  0
LINE
  8
0
 10
12.6943
 20
5.23047
 11
12.6562
 21
5.19531
  0
LINE
  8
0
 10
12.6562
 20
5.19531
 11
12.6426
 21
5.18359
  0
LINE
  8
0
 10
12.6426
 20
5.18359
 11
12.5879
 21
5.14062
  0
LINE
  8
0
 10
12.5879
 20
5.14062
 11
12.5732
 21
5.13086
  0
LINE
  8
0
 10
12.5732
 20
5.13086
 11
12.5596
 21
5.12109
  0
LINE
  8
0
 10
12.5596
 20
5.12109
 11
12.5303
 21
5.10156
  0
LINE
  8
0
 10
12.5303
 20
5.10156
 11
12.5146
 21
5.09277
  0
LINE
  8
0
 10
12.5146
 20
5.09277
 11
12.5
 21
5.08398
  0
LINE
  8
0
 10
12.5
 20
5.08398
 11
12.4844
 21
5.0752
  0
LINE
  8
0
 10
12.4844
 20
5.0752
 11
12.4697
 21
5.06738
  0
LINE
  8
0
 10
12.4697
 20
5.06738
 11
12.4541
 21
5.05859
  0
LINE
  8
0
 10
12.4541
 20
5.05859
 11
12.4385
 21
5.05078
  0
LINE
  8
0
 10
12.4385
 20
5.05078
 11
12.4229
 21
5.04395
  0
LINE
  8
0
 10
12.4229
 20
5.04395
 11
12.4062
 21
5.03613
  0
LINE
  8
0
 10
12.4062
 20
5.03613
 11
12.375
 21
5.02246
  0
LINE
  8
0
 10
12.375
 20
5.02246
 11
12.3086
 21
4.99902
  0
LINE
  8
0
 10
12.3086
 20
4.99902
 11
12.292
 21
4.99414
  0
LINE
  8
0
 10
12.292
 20
4.99414
 11
12.2754
 21
4.98828
  0
LINE
  8
0
 10
12.2754
 20
4.98828
 11
12.2588
 21
4.98438
  0
LINE
  8
0
 10
12.2588
 20
4.98438
 11
12.2422
 21
4.97949
  0
LINE
  8
0
 10
12.2422
 20
4.97949
 11
12.2246
 21
4.97559
  0
LINE
  8
0
 10
12.2246
 20
4.97559
 11
12.208
 21
4.97168
  0
LINE
  8
0
 10
12.208
 20
4.97168
 11
12.1904
 21
4.96875
  0
LINE
  8
0
 10
12.1904
 20
4.96875
 11
12.1738
 21
4.96484
  0
LINE
  8
0
 10
12.1738
 20
4.96484
 11
12.1562
 21
4.96191
  0
LINE
  8
0
 10
12.1562
 20
4.96191
 11
12.1396
 21
4.95996
  0
LINE
  8
0
 10
12.1396
 20
4.95996
 11
12.1221
 21
4.95703
  0
LINE
  8
0
 10
12.1221
 20
4.95703
 11
12.1045
 21
4.95508
  0
LINE
  8
0
 10
12.1045
 20
4.95508
 11
12.0869
 21
4.9541
  0
LINE
  8
0
 10
12.0869
 20
4.9541
 11
12.0693
 21
4.95215
  0
LINE
  8
0
 10
12.0693
 20
4.95215
 11
12.0527
 21
4.95117
  0
LINE
  8
0
 10
12.0527
 20
4.95117
 11
12.0352
 21
4.9502
  0
LINE
  8
0
 10
12.0352
 20
4.9502
 11
0.982422
 21
4.9502
  0
LINE
  8
0
 10
0.982422
 20
4.9502
 11
0.947266
 21
4.94824
  0
LINE
  8
0
 10
0.947266
 20
4.94824
 11
0.930664
 21
4.94727
  0
LINE
  8
0
 10
0.930664
 20
4.94727
 11
0.913086
 21
4.94629
  0
LINE
  8
0
 10
0.913086
 20
4.94629
 11
0.860352
 21
4.94043
  0
LINE
  8
0
 10
0.860352
 20
4.94043
 11
0.84375
 21
4.9375
  0
LINE
  8
0
 10
0.84375
 20
4.9375
 11
0.826172
 21
4.93457
  0
LINE
  8
0
 10
0.826172
 20
4.93457
 11
0.80957
 21
4.93164
  0
LINE
  8
0
 10
0.80957
 20
4.93164
 11
0.791992
 21
4.92773
  0
LINE
  8
0
 10
0.791992
 20
4.92773
 11
0.775391
 21
4.9248
  0
LINE
  8
0
 10
0.775391
 20
4.9248
 11
0.757812
 21
4.91992
  0
LINE
  8
0
 10
0.757812
 20
4.91992
 11
0.741211
 21
4.91602
  0
LINE
  8
0
 10
0.741211
 20
4.91602
 11
0.691406
 21
4.90137
  0
LINE
  8
0
 10
0.691406
 20
4.90137
 11
0.641602
 21
4.88379
  0
LINE
  8
0
 10
0.641602
 20
4.88379
 11
0.625
 21
4.87695
  0
LINE
  8
0
 10
0.625
 20
4.87695
 11
0.59375
 21
4.86328
  0
LINE
  8
0
 10
0.59375
 20
4.86328
 11
0.577148
 21
4.85645
  0
LINE
  8
0
 10
0.577148
 20
4.85645
 11
0.530273
 21
4.83301
  0
LINE
  8
0
 10
0.530273
 20
4.83301
 11
0.515625
 21
4.82422
  0
LINE
  8
0
 10
0.515625
 20
4.82422
 11
0.5
 21
4.81641
  0
LINE
  8
0
 10
0.5
 20
4.81641
 11
0.485352
 21
4.80762
  0
LINE
  8
0
 10
0.485352
 20
4.80762
 11
0.469727
 21
4.79785
  0
LINE
  8
0
 10
0.469727
 20
4.79785
 11
0.455078
 21
4.78906
  0
LINE
  8
0
 10
0.455078
 20
4.78906
 11
0.44043
 21
4.7793
  0
LINE
  8
0
 10
0.44043
 20
4.7793
 11
0.426758
 21
4.76953
  0
LINE
  8
0
 10
0.426758
 20
4.76953
 11
0.412109
 21
4.75879
  0
LINE
  8
0
 10
0.412109
 20
4.75879
 11
0.398438
 21
4.74902
  0
LINE
  8
0
 10
0.398438
 20
4.74902
 11
0.371094
 21
4.72754
  0
LINE
  8
0
 10
0.371094
 20
4.72754
 11
0.357422
 21
4.71582
  0
LINE
  8
0
 10
0.357422
 20
4.71582
 11
0.34375
 21
4.70508
  0
LINE
  8
0
 10
0.34375
 20
4.70508
 11
0.318359
 21
4.68164
  0
LINE
  8
0
 10
0.318359
 20
4.68164
 11
0.305664
 21
4.66895
  0
LINE
  8
0
 10
0.305664
 20
4.66895
 11
0.292969
 21
4.65723
  0
LINE
  8
0
 10
0.292969
 20
4.65723
 11
0.280273
 21
4.64453
  0
LINE
  8
0
 10
0.280273
 20
4.64453
 11
0.245117
 21
4.60645
  0
LINE
  8
0
 10
0.245117
 20
4.60645
 11
0.234375
 21
4.59277
  0
LINE
  8
0
 10
0.234375
 20
4.59277
 11
0.222656
 21
4.5791
  0
LINE
  8
0
 10
0.222656
 20
4.5791
 11
0.201172
 21
4.55176
  0
LINE
  8
0
 10
0.201172
 20
4.55176
 11
0.191406
 21
4.53809
  0
LINE
  8
0
 10
0.191406
 20
4.53809
 11
0.180664
 21
4.52344
  0
LINE
  8
0
 10
0.180664
 20
4.52344
 11
0.170898
 21
4.50879
  0
LINE
  8
0
 10
0.170898
 20
4.50879
 11
0.161133
 21
4.49512
  0
LINE
  8
0
 10
0.161133
 20
4.49512
 11
0.152344
 21
4.47949
  0
LINE
  8
0
 10
0.152344
 20
4.47949
 11
0.142578
 21
4.46484
  0
LINE
  8
0
 10
0.142578
 20
4.46484
 11
0.133789
 21
4.4502
  0
LINE
  8
0
 10
0.133789
 20
4.4502
 11
0.125
 21
4.43457
  0
LINE
  8
0
 10
0.125
 20
4.43457
 11
0.117188
 21
4.41992
  0
LINE
  8
0
 10
0.117188
 20
4.41992
 11
0.09375
 21
4.37305
  0
LINE
  8
0
 10
0.09375
 20
4.37305
 11
0.0869141
 21
4.35645
  0
LINE
  8
0
 10
0.0869141
 20
4.35645
 11
0.0791016
 21
4.34082
  0
LINE
  8
0
 10
0.0791016
 20
4.34082
 11
0.0732422
 21
4.32422
  0
LINE
  8
0
 10
0.0732422
 20
4.32422
 11
0.0664062
 21
4.30859
  0
LINE
  8
0
 10
0.0664062
 20
4.30859
 11
0.0488281
 21
4.25879
  0
LINE
  8
0
 10
0.0488281
 20
4.25879
 11
0.0292969
 21
4.19238
  0
LINE
  8
0
 10
0.0292969
 20
4.19238
 11
0.0253906
 21
4.1748
  0
LINE
  8
0
 10
0.0253906
 20
4.1748
 11
0.0214844
 21
4.1582
  0
LINE
  8
0
 10
0.0214844
 20
4.1582
 11
0.0185547
 21
4.14062
  0
LINE
  8
0
 10
0.0185547
 20
4.14062
 11
0.015625
 21
4.12402
  0
LINE
  8
0
 10
0.015625
 20
4.12402
 11
0.00976562
 21
4.08887
  0
LINE
  8
0
 10
0.00976562
 20
4.08887
 11
0.0078125
 21
4.07227
  0
LINE
  8
0
 10
0.0078125
 20
4.07227
 11
0.00195312
 21
4.01953
  0
LINE
  8
0
 10
0.00195312
 20
4.01953
 11
0.000976562
 21
4.00195
  0
LINE
  8
0
 10
0.000976562
 20
4.00195
 11
0.000976562
 21
3.98535
  0
LINE
  8
0
 10
0.000976562
 20
3.98535
 11
0
 21
3.96777
  0
LINE
  8
0
 10
0
 20
3.96777
 11
0
 21
0.982422
  0
LINE
  8
0
 10
0
 20
0.982422
 11
0.000976562
 21
0.964844
  0
LINE
  8
0
 10
0.000976562
 20
0.964844
 11
0.000976562
 21
0.947266
  0
LINE
  8
0
 10
0.000976562
 20
0.947266
 11
0.00195312
 21
0.930664
  0
LINE
  8
0
 10
0.00195312
 20
0.930664
 11
0.00976562
 21
0.860352
  0
LINE
  8
0
 10
0.00976562
 20
0.860352
 11
0.0126953
 21
0.84375
  0
LINE
  8
0
 10
0.0126953
 20
0.84375
 11
0.015625
 21
0.826172
  0
LINE
  8
0
 10
0.015625
 20
0.826172
 11
0.0185547
 21
0.80957
  0
LINE
  8
0
 10
0.0185547
 20
0.80957
 11
0.0214844
 21
0.791992
  0
LINE
  8
0
 10
0.0214844
 20
0.791992
 11
0.0253906
 21
0.775391
  0
LINE
  8
0
 10
0.0253906
 20
0.775391
 11
0.0292969
 21
0.757812
  0
LINE
  8
0
 10
0.0292969
 20
0.757812
 11
0.0488281
 21
0.691406
  0
LINE
  8
0
 10
0.0488281
 20
0.691406
 11
0.0664062
 21
0.641602
  0
LINE
  8
0
 10
0.0664062
 20
0.641602
 11
0.0732422
 21
0.625
  0
LINE
  8
0
 10
0.0732422
 20
0.625
 11
0.0791016
 21
0.609375
  0
LINE
  8
0
 10
0.0791016
 20
0.609375
 11
0.0869141
 21
0.59375
  0
LINE
  8
0
 10
0.0869141
 20
0.59375
 11
0.09375
 21
0.577148
  0
LINE
  8
0
 10
0.09375
 20
0.577148
 11
0.117188
 21
0.530273
  0
LINE
  8
0
 10
0.117188
 20
0.530273
 11
0.125
 21
0.515625
  0
LINE
  8
0
 10
0.125
 20
0.515625
 11
0.133789
 21
0.5
  0
LINE
  8
0
 10
0.133789
 20
0.5
 11
0.142578
 21
0.485352
  0
LINE
  8
0
 10
0.142578
 20
0.485352
 11
0.152344
 21
0.469727
  0
LINE
  8
0
 10
0.152344
 20
0.469727
 11
0.161133
 21
0.455078
  0
LINE
  8
0
 10
0.161133
 20
0.455078
 11
0.170898
 21
0.44043
  0
LINE
  8
0
 10
0.170898
 20
0.44043
 11
0.180664
 21
0.426758
  0
LINE
  8
0
 10
0.180664
 20
0.426758
 11
0.191406
 21
0.412109
  0
LINE
  8
0
 10
0.191406
 20
0.412109
 11
0.201172
 21
0.398438
  0
LINE
  8
0
 10
0.201172
 20
0.398438
 11
0.222656
 21
0.371094
  0
LINE
  8
0
 10
0.222656
 20
0.371094
 11
0.234375
 21
0.357422
  0
LINE
  8
0
 10
0.234375
 20
0.357422
 11
0.245117
 21
0.34375
  0
LINE
  8
0
 10
0.245117
 20
0.34375
 11
0.280273
 21
0.305664
  0
LINE
  8
0
 10
0.280273
 20
0.305664
 11
0.305664
 21
0.280273
  0
LINE
  8
0
 10
0.305664
 20
0.280273
 11
0.34375
 21
0.245117
  0
LINE
  8
0
 10
0.34375
 20
0.245117
 11
0.357422
 21
0.234375
  0
LINE
  8
0
 10
0.357422
 20
0.234375
 11
0.371094
 21
0.222656
  0
LINE
  8
0
 10
0.371094
 20
0.222656
 11
0.398438
 21
0.201172
  0
LINE
  8
0
 10
0.398438
 20
0.201172
 11
0.412109
 21
0.191406
  0
LINE
  8
0
 10
0.412109
 20
0.191406
 11
0.426758
 21
0.180664
  0
LINE
  8
0
 10
0.426758
 20
0.180664
 11
0.44043
 21
0.170898
  0
LINE
  8
0
 10
0.44043
 20
0.170898
 11
0.455078
 21
0.161133
  0
LINE
  8
0
 10
0.455078
 20
0.161133
 11
0.469727
 21
0.152344
  0
LINE
  8
0
 10
0.469727
 20
0.152344
 11
0.485352
 21
0.142578
  0
LINE
  8
0
 10
0.485352
 20
0.142578
 11
0.5
 21
0.133789
  0
LINE
  8
0
 10
0.5
 20
0.133789
 11
0.515625
 21
0.125
  0
LINE
  8
0
 10
0.515625
 20
0.125
 11
0.530273
 21
0.117188
  0
LINE
  8
0
 10
0.530273
 20
0.117188
 11
0.577148
 21
0.09375
  0
LINE
  8
0
 10
0.577148
 20
0.09375
 11
0.59375
 21
0.0869141
  0
LINE
  8
0
 10
0.59375
 20
0.0869141
 11
0.609375
 21
0.0791016
  0
LINE
  8
0
 10
0.609375
 20
0.0791016
 11
0.625
 21
0.0732422
  0
LINE
  8
0
 10
0.625
 20
0.0732422
 11
0.641602
 21
0.0664062
  0
LINE
  8
0
 10
0.641602
 20
0.0664062
 11
0.691406
 21
0.0488281
  0
LINE
  8
0
 10
0.691406
 20
0.0488281
 11
0.757812
 21
0.0292969
  0
LINE
  8
0
 10
0.757812
 20
0.0292969
 11
0.775391
 21
0.0253906
  0
LINE
  8
0
 10
0.775391
 20
0.0253906
 11
0.791992
 21
0.0214844
  0
LINE
  8
0
 10
0.791992
 20
0.0214844
 11
0.80957
 21
0.0185547
  0
LINE
  8
0
 10
0.80957
 20
0.0185547
 11
0.826172
 21
0.015625
  0
LINE
  8
0
 10
0.826172
 20
0.015625
 11
0.84375
 21
0.0126953
  0
LINE
  8
0
 10
0.84375
 20
0.0126953
 11
0.860352
 21
0.00976562
  0
LINE
  8
0
 10
0.860352
 20
0.00976562
 11
0.930664
 21
0.00195312
  0
LINE
  8
0
 10
0.930664
 20
0.00195312
 11
0.947266
 21
0.000976562
  0
LINE
  8
0
 10
0.947266
 20
0.000976562
 11
0.964844
 21
0.000976562
  0
LINE
  8
0
 10
0.964844
 20
0.000976562
 11
0.982422
 21
0
  0
LINE
  8
0
 10
0.982422
 20
0
 11
16.0352
 21
0
  0
LINE
  8
0
 10
16.0352
 20
0
 11
16.0693
 21
0.000976562
  0
LINE
  8
0
 10
44.959
 20
8.01074
 11
44.9414
 21
8.0127
  0
LINE
  8
0
 10
44.9414
 20
8.0127
 11
44.9248
 21
8.01367
  0
LINE
  8
0
 10
44.9248
 20
8.01367
 11
44.9072
 21
8.01562
  0
LINE
  8
0
 10
44.9072
 20
8.01562
 11
44.8896
 21
8.01855
  0
LINE
  8
0
 10
44.8896
 20
8.01855
 11
44.873
 21
8.02051
  0
LINE
  8
0
 10
44.873
 20
8.02051
 11
44.8379
 21
8.02637
  0
LINE
  8
0
 10
44.8379
 20
8.02637
 11
44.8213
 21
8.03027
  0
LINE
  8
0
 10
44.8213
 20
8.03027
 11
44.8037
 21
8.03418
  0
LINE
  8
0
 10
44.8037
 20
8.03418
 11
44.7871
 21
8.03809
  0
LINE
  8
0
 10
44.7871
 20
8.03809
 11
44.7705
 21
8.04297
  0
LINE
  8
0
 10
44.7705
 20
8.04297
 11
44.7529
 21
8.04688
  0
LINE
  8
0
 10
44.7529
 20
8.04688
 11
44.7363
 21
8.05176
  0
LINE
  8
0
 10
44.7363
 20
8.05176
 11
44.7197
 21
8.05762
  0
LINE
  8
0
 10
44.7197
 20
8.05762
 11
44.7031
 21
8.0625
  0
LINE
  8
0
 10
44.7031
 20
8.0625
 11
44.6865
 21
8.06836
  0
LINE
  8
0
 10
44.6865
 20
8.06836
 11
44.6709
 21
8.0752
  0
LINE
  8
0
 10
44.6709
 20
8.0752
 11
44.6543
 21
8.08105
  0
LINE
  8
0
 10
44.6543
 20
8.08105
 11
44.6387
 21
8.08789
  0
LINE
  8
0
 10
44.6387
 20
8.08789
 11
44.6221
 21
8.09473
  0
LINE
  8
0
 10
44.6221
 20
8.09473
 11
44.6064
 21
8.10254
  0
LINE
  8
0
 10
44.6064
 20
8.10254
 11
44.5908
 21
8.10938
  0
LINE
  8
0
 10
44.5908
 20
8.10938
 11
44.5596
 21
8.125
  0
LINE
  8
0
 10
44.5596
 20
8.125
 11
44.5439
 21
8.13379
  0
LINE
  8
0
 10
44.5439
 20
8.13379
 11
44.5293
 21
8.14258
  0
LINE
  8
0
 10
44.5293
 20
8.14258
 11
44.5137
 21
8.15137
  0
LINE
  8
0
 10
44.5137
 20
8.15137
 11
44.499
 21
8.16016
  0
LINE
  8
0
 10
44.499
 20
8.16016
 11
44.4551
 21
8.18945
  0
LINE
  8
0
 10
44.4551
 20
8.18945
 11
44.4414
 21
8.19922
  0
LINE
  8
0
 10
44.4414
 20
8.19922
 11
44.4268
 21
8.20996
  0
LINE
  8
0
 10
44.4268
 20
8.20996
 11
44.3994
 21
8.23145
  0
LINE
  8
0
 10
44.3994
 20
8.23145
 11
44.3867
 21
8.24219
  0
LINE
  8
0
 10
44.3867
 20
8.24219
 11
44.373
 21
8.25391
  0
LINE
  8
0
 10
44.373
 20
8.25391
 11
44.3604
 21
8.26562
  0
LINE
  8
0
 10
44.3604
 20
8.26562
 11
44.3467
 21
8.27734
  0
LINE
  8
0
 10
44.3467
 20
8.27734
 11
44.334
 21
8.28906
  0
LINE
  8
0
 10
44.334
 20
8.28906
 11
44.3223
 21
8.30176
  0
LINE
  8
0
 10
44.3223
 20
8.30176
 11
44.3096
 21
8.31348
  0
LINE
  8
0
 10
44.3096
 20
8.31348
 11
44.2861
 21
8.33887
  0
LINE
  8
0
 10
44.2861
 20
8.33887
 11
44.2744
 21
8.35254
  0
LINE
  8
0
 10
44.2744
 20
8.35254
 11
44.2627
 21
8.36523
  0
LINE
  8
0
 10
44.2627
 20
8.36523
 11
44.2305
 21
8.40625
  0
LINE
  8
0
 10
44.2305
 20
8.40625
 11
44.2197
 21
8.4209
  0
LINE
  8
0
 10
44.2197
 20
8.4209
 11
44.21
 21
8.43457
  0
LINE
  8
0
 10
44.21
 20
8.43457
 11
44.1807
 21
8.47852
  0
LINE
  8
0
 10
44.1807
 20
8.47852
 11
44.1719
 21
8.49316
  0
LINE
  8
0
 10
44.1719
 20
8.49316
 11
44.1631
 21
8.50879
  0
LINE
  8
0
 10
44.1631
 20
8.50879
 11
44.1543
 21
8.52344
  0
LINE
  8
0
 10
44.1543
 20
8.52344
 11
44.1465
 21
8.53906
  0
LINE
  8
0
 10
44.1465
 20
8.53906
 11
44.1377
 21
8.55469
  0
LINE
  8
0
 10
44.1377
 20
8.55469
 11
44.1299
 21
8.57031
  0
LINE
  8
0
 10
44.1299
 20
8.57031
 11
44.123
 21
8.58594
  0
LINE
  8
0
 10
44.123
 20
8.58594
 11
44.1152
 21
8.60156
  0
LINE
  8
0
 10
44.1152
 20
8.60156
 11
44.1084
 21
8.61816
  0
LINE
  8
0
 10
44.1084
 20
8.61816
 11
44.1016
 21
8.63379
  0
LINE
  8
0
 10
44.1016
 20
8.63379
 11
44.0957
 21
8.65039
  0
LINE
  8
0
 10
44.0957
 20
8.65039
 11
44.0889
 21
8.66602
  0
LINE
  8
0
 10
44.0889
 20
8.66602
 11
44.084
 21
8.68262
  0
LINE
  8
0
 10
44.084
 20
8.68262
 11
44.0723
 21
8.71582
  0
LINE
  8
0
 10
44.0723
 20
8.71582
 11
44.0674
 21
8.73242
  0
LINE
  8
0
 10
44.0674
 20
8.73242
 11
44.0635
 21
8.75
  0
LINE
  8
0
 10
44.0635
 20
8.75
 11
44.0586
 21
8.7666
  0
LINE
  8
0
 10
44.0586
 20
8.7666
 11
44.0547
 21
8.7832
  0
LINE
  8
0
 10
44.0547
 20
8.7832
 11
44.0508
 21
8.80078
  0
LINE
  8
0
 10
44.0508
 20
8.80078
 11
44.0479
 21
8.81738
  0
LINE
  8
0
 10
44.0479
 20
8.81738
 11
44.0439
 21
8.83496
  0
LINE
  8
0
 10
44.0439
 20
8.83496
 11
44.041
 21
8.85156
  0
LINE
  8
0
 10
44.041
 20
8.85156
 11
44.0391
 21
8.86914
  0
LINE
  8
0
 10
44.0391
 20
8.86914
 11
44.0361
 21
8.88672
  0
LINE
  8
0
 10
44.0361
 20
8.88672
 11
44.0342
 21
8.9043
  0
LINE
  8
0
 10
44.0342
 20
8.9043
 11
44.0332
 21
8.9209
  0
LINE
  8
0
 10
44.0332
 20
8.9209
 11
44.0312
 21
8.93848
  0
LINE
  8
0
 10
44.0312
 20
8.93848
 11
44.0293
 21
8.97363
  0
LINE
  8
0
 10
44.0293
 20
8.97363
 11
44.0293
 21
9.00879
  0
LINE
  8
0
 10
44.0293
 20
9.00879
 11
43.9668
 21
24.0088
  0
LINE
  8
0
 10
43.9668
 20
24.0088
 11
43.9668
 21
24.0439
  0
LINE
  8
0
 10
43.9668
 20
24.0439
 11
43.9688
 21
24.0791
  0
LINE
  8
0
 10
43.9688
 20
24.0791
 11
43.9707
 21
24.0957
  0
LINE
  8
0
 10
43.9707
 20
24.0957
 11
43.9717
 21
24.1133
  0
LINE
  8
0
 10
43.9717
 20
24.1133
 11
43.9736
 21
24.1309
  0
LINE
  8
0
 10
43.9736
 20
24.1309
 11
43.9766
 21
24.1484
  0
LINE
  8
0
 10
43.9766
 20
24.1484
 11
43.9785
 21
24.165
  0
LINE
  8
0
 10
43.9785
 20
24.165
 11
43.9814
 21
24.1826
  0
LINE
  8
0
 10
43.9814
 20
24.1826
 11
43.9854
 21
24.2002
  0
LINE
  8
0
 10
43.9854
 20
24.2002
 11
43.9883
 21
24.2168
  0
LINE
  8
0
 10
43.9883
 20
24.2168
 11
43.9922
 21
24.2344
  0
LINE
  8
0
 10
43.9922
 20
24.2344
 11
43.9961
 21
24.251
  0
LINE
  8
0
 10
43.9961
 20
24.251
 11
44.001
 21
24.2676
  0
LINE
  8
0
 10
44.001
 20
24.2676
 11
44.0049
 21
24.2842
  0
LINE
  8
0
 10
44.0049
 20
24.2842
 11
44.0107
 21
24.3018
  0
LINE
  8
0
 10
44.0107
 20
24.3018
 11
44.0156
 21
24.3184
  0
LINE
  8
0
 10
44.0156
 20
24.3184
 11
44.0215
 21
24.335
  0
LINE
  8
0
 10
44.0215
 20
24.335
 11
44.0273
 21
24.3506
  0
LINE
  8
0
 10
44.0273
 20
24.3506
 11
44.0391
 21
24.3838
  0
LINE
  8
0
 10
44.0391
 20
24.3838
 11
44.0459
 21
24.3994
  0
LINE
  8
0
 10
44.0459
 20
24.3994
 11
44.0527
 21
24.416
  0
LINE
  8
0
 10
44.0527
 20
24.416
 11
44.0605
 21
24.4316
  0
LINE
  8
0
 10
44.0605
 20
24.4316
 11
44.0674
 21
24.4473
  0
LINE
  8
0
 10
44.0674
 20
24.4473
 11
44.0752
 21
24.4629
  0
LINE
  8
0
 10
44.0752
 20
24.4629
 11
44.084
 21
24.4785
  0
LINE
  8
0
 10
44.084
 20
24.4785
 11
44.0918
 21
24.4941
  0
LINE
  8
0
 10
44.0918
 20
24.4941
 11
44.1006
 21
24.5088
  0
LINE
  8
0
 10
44.1006
 20
24.5088
 11
44.1094
 21
24.5244
  0
LINE
  8
0
 10
44.1094
 20
24.5244
 11
44.1182
 21
24.5391
  0
LINE
  8
0
 10
44.1182
 20
24.5391
 11
44.1475
 21
24.583
  0
LINE
  8
0
 10
44.1475
 20
24.583
 11
44.1572
 21
24.5967
  0
LINE
  8
0
 10
44.1572
 20
24.5967
 11
44.168
 21
24.6104
  0
LINE
  8
0
 10
44.168
 20
24.6104
 11
44.1787
 21
24.625
  0
LINE
  8
0
 10
44.1787
 20
24.625
 11
44.1895
 21
24.6387
  0
LINE
  8
0
 10
44.1895
 20
24.6387
 11
44.2002
 21
24.6514
  0
LINE
  8
0
 10
44.2002
 20
24.6514
 11
44.2119
 21
24.665
  0
LINE
  8
0
 10
44.2119
 20
24.665
 11
44.2236
 21
24.6777
  0
LINE
  8
0
 10
44.2236
 20
24.6777
 11
44.2354
 21
24.6914
  0
LINE
  8
0
 10
44.2354
 20
24.6914
 11
44.2471
 21
24.7041
  0
LINE
  8
0
 10
44.2471
 20
24.7041
 11
44.2598
 21
24.7158
  0
LINE
  8
0
 10
44.2598
 20
24.7158
 11
44.2715
 21
24.7285
  0
LINE
  8
0
 10
44.2715
 20
24.7285
 11
44.2842
 21
24.7402
  0
LINE
  8
0
 10
44.2842
 20
24.7402
 11
44.2979
 21
24.752
  0
LINE
  8
0
 10
44.2979
 20
24.752
 11
44.3105
 21
24.7637
  0
LINE
  8
0
 10
44.3105
 20
24.7637
 11
44.3242
 21
24.7754
  0
LINE
  8
0
 10
44.3242
 20
24.7754
 11
44.3369
 21
24.7861
  0
LINE
  8
0
 10
44.3369
 20
24.7861
 11
44.3506
 21
24.7969
  0
LINE
  8
0
 10
44.3506
 20
24.7969
 11
44.3652
 21
24.8076
  0
LINE
  8
0
 10
44.3652
 20
24.8076
 11
44.3789
 21
24.8184
  0
LINE
  8
0
 10
44.3789
 20
24.8184
 11
44.3926
 21
24.8281
  0
LINE
  8
0
 10
44.3926
 20
24.8281
 11
44.4365
 21
24.8574
  0
LINE
  8
0
 10
44.4365
 20
24.8574
 11
44.4512
 21
24.8662
  0
LINE
  8
0
 10
44.4512
 20
24.8662
 11
44.4668
 21
24.875
  0
LINE
  8
0
 10
44.4668
 20
24.875
 11
44.4814
 21
24.8838
  0
LINE
  8
0
 10
44.4814
 20
24.8838
 11
44.4971
 21
24.8916
  0
LINE
  8
0
 10
44.4971
 20
24.8916
 11
44.5127
 21
24.9004
  0
LINE
  8
0
 10
44.5127
 20
24.9004
 11
44.5283
 21
24.9082
  0
LINE
  8
0
 10
44.5283
 20
24.9082
 11
44.5439
 21
24.915
  0
LINE
  8
0
 10
44.5439
 20
24.915
 11
44.5596
 21
24.9229
  0
LINE
  8
0
 10
44.5596
 20
24.9229
 11
44.5762
 21
24.9297
  0
LINE
  8
0
 10
44.5762
 20
24.9297
 11
44.5918
 21
24.9365
  0
LINE
  8
0
 10
44.5918
 20
24.9365
 11
44.625
 21
24.9482
  0
LINE
  8
0
 10
44.625
 20
24.9482
 11
44.6406
 21
24.9541
  0
LINE
  8
0
 10
44.6406
 20
24.9541
 11
44.6572
 21
24.96
  0
LINE
  8
0
 10
44.6572
 20
24.96
 11
44.6738
 21
24.9648
  0
LINE
  8
0
 10
44.6738
 20
24.9648
 11
44.6914
 21
24.9707
  0
LINE
  8
0
 10
44.6914
 20
24.9707
 11
44.708
 21
24.9746
  0
LINE
  8
0
 10
44.708
 20
24.9746
 11
44.7246
 21
24.9795
  0
LINE
  8
0
 10
44.7246
 20
24.9795
 11
44.7412
 21
24.9834
  0
LINE
  8
0
 10
44.7412
 20
24.9834
 11
44.7588
 21
24.9873
  0
LINE
  8
0
 10
44.7588
 20
24.9873
 11
44.7754
 21
24.9902
  0
LINE
  8
0
 10
44.7754
 20
24.9902
 11
44.793
 21
24.9941
  0
LINE
  8
0
 10
44.793
 20
24.9941
 11
44.8105
 21
24.9971
  0
LINE
  8
0
 10
44.8105
 20
24.9971
 11
44.8271
 21
24.999
  0
LINE
  8
0
 10
44.8271
 20
24.999
 11
44.8447
 21
25.002
  0
LINE
  8
0
 10
44.8447
 20
25.002
 11
44.8623
 21
25.0039
  0
LINE
  8
0
 10
44.8623
 20
25.0039
 11
44.8799
 21
25.0049
  0
LINE
  8
0
 10
44.8799
 20
25.0049
 11
44.8965
 21
25.0068
  0
LINE
  8
0
 10
44.8965
 20
25.0068
 11
44.9316
 21
25.0088
  0
LINE
  8
0
 10
44.9316
 20
25.0088
 11
57.4668
 21
25.0107
  0
LINE
  8
0
 10
57.4668
 20
25.0107
 11
57.4844
 21
25.0098
  0
LINE
  8
0
 10
57.4844
 20
25.0098
 11
57.502
 21
25.0098
  0
LINE
  8
0
 10
57.502
 20
25.0098
 11
57.5186
 21
25.0088
  0
LINE
  8
0
 10
57.5186
 20
25.0088
 11
57.5537
 21
25.0068
  0
LINE
  8
0
 10
57.5537
 20
25.0068
 11
57.5889
 21
25.0029
  0
LINE
  8
0
 10
57.5889
 20
25.0029
 11
57.6055
 21
25.001
  0
LINE
  8
0
 10
57.6055
 20
25.001
 11
57.6406
 21
24.9951
  0
LINE
  8
0
 10
57.6406
 20
24.9951
 11
57.6572
 21
24.9922
  0
LINE
  8
0
 10
57.6572
 20
24.9922
 11
57.6748
 21
24.9883
  0
LINE
  8
0
 10
57.6748
 20
24.9883
 11
57.708
 21
24.9805
  0
LINE
  8
0
 10
57.708
 20
24.9805
 11
57.7256
 21
24.9766
  0
LINE
  8
0
 10
57.7256
 20
24.9766
 11
57.7754
 21
24.9619
  0
LINE
  8
0
 10
57.7754
 20
24.9619
 11
57.8252
 21
24.9443
  0
LINE
  8
0
 10
57.8252
 20
24.9443
 11
57.8408
 21
24.9375
  0
LINE
  8
0
 10
57.8408
 20
24.9375
 11
57.8574
 21
24.9307
  0
LINE
  8
0
 10
57.8574
 20
24.9307
 11
57.873
 21
24.9238
  0
LINE
  8
0
 10
57.873
 20
24.9238
 11
57.8896
 21
24.917
  0
LINE
  8
0
 10
57.8896
 20
24.917
 11
57.9365
 21
24.8936
  0
LINE
  8
0
 10
57.9365
 20
24.8936
 11
57.9512
 21
24.8848
  0
LINE
  8
0
 10
57.9512
 20
24.8848
 11
57.9668
 21
24.876
  0
LINE
  8
0
 10
57.9668
 20
24.876
 11
57.9961
 21
24.8584
  0
LINE
  8
0
 10
57.9961
 20
24.8584
 11
58.0107
 21
24.8486
  0
LINE
  8
0
 10
58.0107
 20
24.8486
 11
58.0254
 21
24.8398
  0
LINE
  8
0
 10
58.0254
 20
24.8398
 11
58.04
 21
24.8291
  0
LINE
  8
0
 10
58.04
 20
24.8291
 11
58.0547
 21
24.8193
  0
LINE
  8
0
 10
58.0547
 20
24.8193
 11
58.0684
 21
24.8086
  0
LINE
  8
0
 10
58.0684
 20
24.8086
 11
58.082
 21
24.7988
  0
LINE
  8
0
 10
58.082
 20
24.7988
 11
58.0957
 21
24.7871
  0
LINE
  8
0
 10
58.0957
 20
24.7871
 11
58.1094
 21
24.7764
  0
LINE
  8
0
 10
58.1094
 20
24.7764
 11
58.123
 21
24.7646
  0
LINE
  8
0
 10
58.123
 20
24.7646
 11
58.1357
 21
24.7539
  0
LINE
  8
0
 10
58.1357
 20
24.7539
 11
58.1484
 21
24.7422
  0
LINE
  8
0
 10
58.1484
 20
24.7422
 11
58.1611
 21
24.7295
  0
LINE
  8
0
 10
58.1611
 20
24.7295
 11
58.1738
 21
24.7178
  0
LINE
  8
0
 10
58.1738
 20
24.7178
 11
58.1855
 21
24.7051
  0
LINE
  8
0
 10
58.1855
 20
24.7051
 11
58.1982
 21
24.6924
  0
LINE
  8
0
 10
58.1982
 20
24.6924
 11
58.21
 21
24.6797
  0
LINE
  8
0
 10
58.21
 20
24.6797
 11
58.2217
 21
24.666
  0
LINE
  8
0
 10
58.2217
 20
24.666
 11
58.2324
 21
24.6533
  0
LINE
  8
0
 10
58.2324
 20
24.6533
 11
58.2441
 21
24.6396
  0
LINE
  8
0
 10
58.2441
 20
24.6396
 11
58.2656
 21
24.6123
  0
LINE
  8
0
 10
58.2656
 20
24.6123
 11
58.2754
 21
24.5986
  0
LINE
  8
0
 10
58.2754
 20
24.5986
 11
58.2861
 21
24.584
  0
LINE
  8
0
 10
58.2861
 20
24.584
 11
58.3057
 21
24.5547
  0
LINE
  8
0
 10
58.3057
 20
24.5547
 11
58.3145
 21
24.54
  0
LINE
  8
0
 10
58.3145
 20
24.54
 11
58.3242
 21
24.5254
  0
LINE
  8
0
 10
58.3242
 20
24.5254
 11
58.333
 21
24.5107
  0
LINE
  8
0
 10
58.333
 20
24.5107
 11
58.3408
 21
24.4951
  0
LINE
  8
0
 10
58.3408
 20
24.4951
 11
58.3496
 21
24.4795
  0
LINE
  8
0
 10
58.3496
 20
24.4795
 11
58.3574
 21
24.4648
  0
LINE
  8
0
 10
58.3574
 20
24.4648
 11
58.3652
 21
24.4492
  0
LINE
  8
0
 10
58.3652
 20
24.4492
 11
58.373
 21
24.4326
  0
LINE
  8
0
 10
58.373
 20
24.4326
 11
58.3867
 21
24.4014
  0
LINE
  8
0
 10
58.3867
 20
24.4014
 11
58.3936
 21
24.3848
  0
LINE
  8
0
 10
58.3936
 20
24.3848
 11
58.4004
 21
24.3691
  0
LINE
  8
0
 10
58.4004
 20
24.3691
 11
58.418
 21
24.3193
  0
LINE
  8
0
 10
58.418
 20
24.3193
 11
58.4326
 21
24.2695
  0
LINE
  8
0
 10
58.4326
 20
24.2695
 11
58.4365
 21
24.252
  0
LINE
  8
0
 10
58.4365
 20
24.252
 11
58.4414
 21
24.2354
  0
LINE
  8
0
 10
58.4414
 20
24.2354
 11
58.4443
 21
24.2188
  0
LINE
  8
0
 10
58.4443
 20
24.2188
 11
58.4482
 21
24.2012
  0
LINE
  8
0
 10
58.4482
 20
24.2012
 11
58.4512
 21
24.1836
  0
LINE
  8
0
 10
58.4512
 20
24.1836
 11
58.4541
 21
24.167
  0
LINE
  8
0
 10
58.4541
 20
24.167
 11
58.457
 21
24.1494
  0
LINE
  8
0
 10
58.457
 20
24.1494
 11
58.459
 21
24.1318
  0
LINE
  8
0
 10
58.459
 20
24.1318
 11
58.4609
 21
24.1152
  0
LINE
  8
0
 10
58.4609
 20
24.1152
 11
58.4629
 21
24.0977
  0
LINE
  8
0
 10
58.4629
 20
24.0977
 11
58.4658
 21
24.0449
  0
LINE
  8
0
 10
58.4658
 20
24.0449
 11
58.4668
 21
24.0283
  0
LINE
  8
0
 10
58.4668
 20
24.0283
 11
58.4668
 21
24.0107
  0
LINE
  8
0
 10
58.4668
 20
24.0107
 11
58.5293
 21
9.00977
  0
LINE
  8
0
 10
58.5293
 20
9.00977
 11
58.5293
 21
8.99219
  0
LINE
  8
0
 10
58.5293
 20
8.99219
 11
58.5273
 21
8.95703
  0
LINE
  8
0
 10
58.5273
 20
8.95703
 11
58.5264
 21
8.94043
  0
LINE
  8
0
 10
58.5264
 20
8.94043
 11
58.5254
 21
8.92285
  0
LINE
  8
0
 10
58.5254
 20
8.92285
 11
58.5215
 21
8.8877
  0
LINE
  8
0
 10
58.5215
 20
8.8877
 11
58.5195
 21
8.87109
  0
LINE
  8
0
 10
58.5195
 20
8.87109
 11
58.5137
 21
8.83594
  0
LINE
  8
0
 10
58.5137
 20
8.83594
 11
58.5107
 21
8.81934
  0
LINE
  8
0
 10
58.5107
 20
8.81934
 11
58.5068
 21
8.80176
  0
LINE
  8
0
 10
58.5068
 20
8.80176
 11
58.5029
 21
8.78516
  0
LINE
  8
0
 10
58.5029
 20
8.78516
 11
58.499
 21
8.76758
  0
LINE
  8
0
 10
58.499
 20
8.76758
 11
58.4951
 21
8.75098
  0
LINE
  8
0
 10
58.4951
 20
8.75098
 11
58.4805
 21
8.70117
  0
LINE
  8
0
 10
58.4805
 20
8.70117
 11
58.4629
 21
8.65137
  0
LINE
  8
0
 10
58.4629
 20
8.65137
 11
58.4561
 21
8.63477
  0
LINE
  8
0
 10
58.4561
 20
8.63477
 11
58.4424
 21
8.60352
  0
LINE
  8
0
 10
58.4424
 20
8.60352
 11
58.4355
 21
8.58691
  0
LINE
  8
0
 10
58.4355
 20
8.58691
 11
58.4121
 21
8.54004
  0
LINE
  8
0
 10
58.4121
 20
8.54004
 11
58.4033
 21
8.52539
  0
LINE
  8
0
 10
58.4033
 20
8.52539
 11
58.3955
 21
8.50977
  0
LINE
  8
0
 10
58.3955
 20
8.50977
 11
58.3857
 21
8.49512
  0
LINE
  8
0
 10
58.3857
 20
8.49512
 11
58.377
 21
8.47949
  0
LINE
  8
0
 10
58.377
 20
8.47949
 11
58.3682
 21
8.46484
  0
LINE
  8
0
 10
58.3682
 20
8.46484
 11
58.3584
 21
8.4502
  0
LINE
  8
0
 10
58.3584
 20
8.4502
 11
58.3486
 21
8.43652
  0
LINE
  8
0
 10
58.3486
 20
8.43652
 11
58.3379
 21
8.42188
  0
LINE
  8
0
 10
58.3379
 20
8.42188
 11
58.3281
 21
8.4082
  0
LINE
  8
0
 10
58.3281
 20
8.4082
 11
58.3066
 21
8.38086
  0
LINE
  8
0
 10
58.3066
 20
8.38086
 11
58.2949
 21
8.36719
  0
LINE
  8
0
 10
58.2949
 20
8.36719
 11
58.2842
 21
8.35352
  0
LINE
  8
0
 10
58.2842
 20
8.35352
 11
58.2607
 21
8.32812
  0
LINE
  8
0
 10
58.2607
 20
8.32812
 11
58.248
 21
8.31543
  0
LINE
  8
0
 10
58.248
 20
8.31543
 11
58.2363
 21
8.30273
  0
LINE
  8
0
 10
58.2363
 20
8.30273
 11
58.2236
 21
8.29004
  0
LINE
  8
0
 10
58.2236
 20
8.29004
 11
58.1855
 21
8.25488
  0
LINE
  8
0
 10
58.1855
 20
8.25488
 11
58.1719
 21
8.24414
  0
LINE
  8
0
 10
58.1719
 20
8.24414
 11
58.1582
 21
8.23242
  0
LINE
  8
0
 10
58.1582
 20
8.23242
 11
58.1309
 21
8.21094
  0
LINE
  8
0
 10
58.1309
 20
8.21094
 11
58.1172
 21
8.20117
  0
LINE
  8
0
 10
58.1172
 20
8.20117
 11
58.1025
 21
8.19043
  0
LINE
  8
0
 10
58.1025
 20
8.19043
 11
58.0732
 21
8.1709
  0
LINE
  8
0
 10
58.0732
 20
8.1709
 11
58.0586
 21
8.16211
  0
LINE
  8
0
 10
58.0586
 20
8.16211
 11
58.0439
 21
8.15234
  0
LINE
  8
0
 10
58.0439
 20
8.15234
 11
58.0293
 21
8.14355
  0
LINE
  8
0
 10
58.0293
 20
8.14355
 11
58.0137
 21
8.13477
  0
LINE
  8
0
 10
58.0137
 20
8.13477
 11
57.998
 21
8.12695
  0
LINE
  8
0
 10
57.998
 20
8.12695
 11
57.9834
 21
8.11914
  0
LINE
  8
0
 10
57.9834
 20
8.11914
 11
57.9678
 21
8.11133
  0
LINE
  8
0
 10
57.9678
 20
8.11133
 11
57.9512
 21
8.10352
  0
LINE
  8
0
 10
57.9512
 20
8.10352
 11
57.9355
 21
8.09668
  0
LINE
  8
0
 10
57.9355
 20
8.09668
 11
57.9199
 21
8.08887
  0
LINE
  8
0
 10
57.9199
 20
8.08887
 11
57.9033
 21
8.08301
  0
LINE
  8
0
 10
57.9033
 20
8.08301
 11
57.8877
 21
8.07617
  0
LINE
  8
0
 10
57.8877
 20
8.07617
 11
57.8379
 21
8.05859
  0
LINE
  8
0
 10
57.8379
 20
8.05859
 11
57.7881
 21
8.04395
  0
LINE
  8
0
 10
57.7881
 20
8.04395
 11
57.7705
 21
8.03906
  0
LINE
  8
0
 10
57.7705
 20
8.03906
 11
57.7373
 21
8.03125
  0
LINE
  8
0
 10
57.7373
 20
8.03125
 11
57.7197
 21
8.02832
  0
LINE
  8
0
 10
57.7197
 20
8.02832
 11
57.7031
 21
8.02539
  0
LINE
  8
0
 10
57.7031
 20
8.02539
 11
57.668
 21
8.01953
  0
LINE
  8
0
 10
57.668
 20
8.01953
 11
57.6514
 21
8.01758
  0
LINE
  8
0
 10
57.6514
 20
8.01758
 11
57.6162
 21
8.01367
  0
LINE
  8
0
 10
57.6162
 20
8.01367
 11
57.5986
 21
8.0127
  0
LINE
  8
0
 10
57.5986
 20
8.0127
 11
57.5811
 21
8.01074
  0
LINE
  8
0
 10
57.5811
 20
8.01074
 11
57.5635
 21
8.01074
  0
LINE
  8
0
 10
57.5635
 20
8.01074
 11
57.5469
 21
8.00977
  0
LINE
  8
0
 10
57.5469
 20
8.00977
 11
44.9941
 21
8.00879
  0
LINE
  8
0
 10
44.9941
 20
8.00879
 11
44.959
 21
8.01074
  0
LINE
  8
0
 10
26.959
 20
8.00098
 11
26.9424
 21
8.00293
  0
LINE
  8
0
 10
26.9424
 20
8.00293
 11
26.9248
 21
8.00391
  0
LINE
  8
0
 10
26.9248
 20
8.00391
 11
26.9072
 21
8.00586
  0
LINE
  8
0
 10
26.9072
 20
8.00586
 11
26.8896
 21
8.00879
  0
LINE
  8
0
 10
26.8896
 20
8.00879
 11
26.873
 21
8.01074
  0
LINE
  8
0
 10
26.873
 20
8.01074
 11
26.8555
 21
8.01367
  0
LINE
  8
0
 10
26.8555
 20
8.01367
 11
26.8389
 21
8.0166
  0
LINE
  8
0
 10
26.8389
 20
8.0166
 11
26.8213
 21
8.02051
  0
LINE
  8
0
 10
26.8213
 20
8.02051
 11
26.8047
 21
8.02441
  0
LINE
  8
0
 10
26.8047
 20
8.02441
 11
26.7871
 21
8.02832
  0
LINE
  8
0
 10
26.7871
 20
8.02832
 11
26.7705
 21
8.0332
  0
LINE
  8
0
 10
26.7705
 20
8.0332
 11
26.7539
 21
8.03711
  0
LINE
  8
0
 10
26.7539
 20
8.03711
 11
26.7373
 21
8.04199
  0
LINE
  8
0
 10
26.7373
 20
8.04199
 11
26.7197
 21
8.04785
  0
LINE
  8
0
 10
26.7197
 20
8.04785
 11
26.7041
 21
8.05273
  0
LINE
  8
0
 10
26.7041
 20
8.05273
 11
26.6875
 21
8.05859
  0
LINE
  8
0
 10
26.6875
 20
8.05859
 11
26.6709
 21
8.06543
  0
LINE
  8
0
 10
26.6709
 20
8.06543
 11
26.6543
 21
8.07129
  0
LINE
  8
0
 10
26.6543
 20
8.07129
 11
26.6387
 21
8.07812
  0
LINE
  8
0
 10
26.6387
 20
8.07812
 11
26.6221
 21
8.08496
  0
LINE
  8
0
 10
26.6221
 20
8.08496
 11
26.6064
 21
8.09277
  0
LINE
  8
0
 10
26.6064
 20
8.09277
 11
26.5908
 21
8.09961
  0
LINE
  8
0
 10
26.5908
 20
8.09961
 11
26.5752
 21
8.10742
  0
LINE
  8
0
 10
26.5752
 20
8.10742
 11
26.5596
 21
8.11621
  0
LINE
  8
0
 10
26.5596
 20
8.11621
 11
26.5439
 21
8.12402
  0
LINE
  8
0
 10
26.5439
 20
8.12402
 11
26.5146
 21
8.1416
  0
LINE
  8
0
 10
26.5146
 20
8.1416
 11
26.499
 21
8.15039
  0
LINE
  8
0
 10
26.499
 20
8.15039
 11
26.4697
 21
8.16992
  0
LINE
  8
0
 10
26.4697
 20
8.16992
 11
26.4561
 21
8.17969
  0
LINE
  8
0
 10
26.4561
 20
8.17969
 11
26.4414
 21
8.18945
  0
LINE
  8
0
 10
26.4414
 20
8.18945
 11
26.4277
 21
8.2002
  0
LINE
  8
0
 10
26.4277
 20
8.2002
 11
26.4131
 21
8.21094
  0
LINE
  8
0
 10
26.4131
 20
8.21094
 11
26.3994
 21
8.22168
  0
LINE
  8
0
 10
26.3994
 20
8.22168
 11
26.3867
 21
8.23242
  0
LINE
  8
0
 10
26.3867
 20
8.23242
 11
26.373
 21
8.24414
  0
LINE
  8
0
 10
26.373
 20
8.24414
 11
26.335
 21
8.2793
  0
LINE
  8
0
 10
26.335
 20
8.2793
 11
26.3223
 21
8.29199
  0
LINE
  8
0
 10
26.3223
 20
8.29199
 11
26.3096
 21
8.30371
  0
LINE
  8
0
 10
26.3096
 20
8.30371
 11
26.2861
 21
8.3291
  0
LINE
  8
0
 10
26.2861
 20
8.3291
 11
26.2744
 21
8.34277
  0
LINE
  8
0
 10
26.2744
 20
8.34277
 11
26.2627
 21
8.35547
  0
LINE
  8
0
 10
26.2627
 20
8.35547
 11
26.2305
 21
8.39648
  0
LINE
  8
0
 10
26.2305
 20
8.39648
 11
26.2197
 21
8.41113
  0
LINE
  8
0
 10
26.2197
 20
8.41113
 11
26.21
 21
8.4248
  0
LINE
  8
0
 10
26.21
 20
8.4248
 11
26.1904
 21
8.4541
  0
LINE
  8
0
 10
26.1904
 20
8.4541
 11
26.1816
 21
8.46875
  0
LINE
  8
0
 10
26.1816
 20
8.46875
 11
26.1719
 21
8.4834
  0
LINE
  8
0
 10
26.1719
 20
8.4834
 11
26.1631
 21
8.49902
  0
LINE
  8
0
 10
26.1631
 20
8.49902
 11
26.1543
 21
8.51367
  0
LINE
  8
0
 10
26.1543
 20
8.51367
 11
26.1152
 21
8.5918
  0
LINE
  8
0
 10
26.1152
 20
8.5918
 11
26.1084
 21
8.6084
  0
LINE
  8
0
 10
26.1084
 20
8.6084
 11
26.1016
 21
8.62402
  0
LINE
  8
0
 10
26.1016
 20
8.62402
 11
26.0957
 21
8.64062
  0
LINE
  8
0
 10
26.0957
 20
8.64062
 11
26.0898
 21
8.65625
  0
LINE
  8
0
 10
26.0898
 20
8.65625
 11
26.0781
 21
8.68945
  0
LINE
  8
0
 10
26.0781
 20
8.68945
 11
26.0684
 21
8.72266
  0
LINE
  8
0
 10
26.0684
 20
8.72266
 11
26.0635
 21
8.74023
  0
LINE
  8
0
 10
26.0635
 20
8.74023
 11
26.0586
 21
8.75684
  0
LINE
  8
0
 10
26.0586
 20
8.75684
 11
26.0547
 21
8.77344
  0
LINE
  8
0
 10
26.0547
 20
8.77344
 11
26.0508
 21
8.79102
  0
LINE
  8
0
 10
26.0508
 20
8.79102
 11
26.0479
 21
8.80762
  0
LINE
  8
0
 10
26.0479
 20
8.80762
 11
26.0439
 21
8.8252
  0
LINE
  8
0
 10
26.0439
 20
8.8252
 11
26.042
 21
8.8418
  0
LINE
  8
0
 10
26.042
 20
8.8418
 11
26.0391
 21
8.85938
  0
LINE
  8
0
 10
26.0391
 20
8.85938
 11
26.0352
 21
8.89453
  0
LINE
  8
0
 10
26.0352
 20
8.89453
 11
26.0332
 21
8.91113
  0
LINE
  8
0
 10
26.0332
 20
8.91113
 11
26.0312
 21
8.92871
  0
LINE
  8
0
 10
26.0312
 20
8.92871
 11
26.0303
 21
8.94629
  0
LINE
  8
0
 10
26.0303
 20
8.94629
 11
26.0303
 21
8.96387
  0
LINE
  8
0
 10
26.0303
 20
8.96387
 11
26.0293
 21
8.98145
  0
LINE
  8
0
 10
26.0293
 20
8.98145
 11
26.0293
 21
8.99902
  0
LINE
  8
0
 10
26.0293
 20
8.99902
 11
25.9668
 21
23.999
  0
LINE
  8
0
 10
25.9668
 20
23.999
 11
25.9668
 21
24.0166
  0
LINE
  8
0
 10
25.9668
 20
24.0166
 11
25.9678
 21
24.0342
  0
LINE
  8
0
 10
25.9678
 20
24.0342
 11
25.9678
 21
24.0518
  0
LINE
  8
0
 10
25.9678
 20
24.0518
 11
25.9688
 21
24.0693
  0
LINE
  8
0
 10
25.9688
 20
24.0693
 11
25.9707
 21
24.0869
  0
LINE
  8
0
 10
25.9707
 20
24.0869
 11
25.9727
 21
24.1035
  0
LINE
  8
0
 10
25.9727
 20
24.1035
 11
25.9766
 21
24.1387
  0
LINE
  8
0
 10
25.9766
 20
24.1387
 11
25.9795
 21
24.1553
  0
LINE
  8
0
 10
25.9795
 20
24.1553
 11
25.9854
 21
24.1904
  0
LINE
  8
0
 10
25.9854
 20
24.1904
 11
25.9883
 21
24.207
  0
LINE
  8
0
 10
25.9883
 20
24.207
 11
25.9922
 21
24.2246
  0
LINE
  8
0
 10
25.9922
 20
24.2246
 11
25.9961
 21
24.2412
  0
LINE
  8
0
 10
25.9961
 20
24.2412
 11
26.001
 21
24.2578
  0
LINE
  8
0
 10
26.001
 20
24.2578
 11
26.0059
 21
24.2754
  0
LINE
  8
0
 10
26.0059
 20
24.2754
 11
26.0156
 21
24.3086
  0
LINE
  8
0
 10
26.0156
 20
24.3086
 11
26.0273
 21
24.3418
  0
LINE
  8
0
 10
26.0273
 20
24.3418
 11
26.0332
 21
24.3574
  0
LINE
  8
0
 10
26.0332
 20
24.3574
 11
26.04
 21
24.374
  0
LINE
  8
0
 10
26.04
 20
24.374
 11
26.0459
 21
24.3896
  0
LINE
  8
0
 10
26.0459
 20
24.3896
 11
26.0537
 21
24.4062
  0
LINE
  8
0
 10
26.0537
 20
24.4062
 11
26.0605
 21
24.4219
  0
LINE
  8
0
 10
26.0605
 20
24.4219
 11
26.0918
 21
24.4844
  0
LINE
  8
0
 10
26.0918
 20
24.4844
 11
26.1006
 21
24.499
  0
LINE
  8
0
 10
26.1006
 20
24.499
 11
26.1094
 21
24.5146
  0
LINE
  8
0
 10
26.1094
 20
24.5146
 11
26.1191
 21
24.5293
  0
LINE
  8
0
 10
26.1191
 20
24.5293
 11
26.1279
 21
24.5439
  0
LINE
  8
0
 10
26.1279
 20
24.5439
 11
26.1475
 21
24.5732
  0
LINE
  8
0
 10
26.1475
 20
24.5732
 11
26.1582
 21
24.5869
  0
LINE
  8
0
 10
26.1582
 20
24.5869
 11
26.168
 21
24.6016
  0
LINE
  8
0
 10
26.168
 20
24.6016
 11
26.1895
 21
24.6289
  0
LINE
  8
0
 10
26.1895
 20
24.6289
 11
26.2012
 21
24.6416
  0
LINE
  8
0
 10
26.2012
 20
24.6416
 11
26.2119
 21
24.6553
  0
LINE
  8
0
 10
26.2119
 20
24.6553
 11
26.2236
 21
24.668
  0
LINE
  8
0
 10
26.2236
 20
24.668
 11
26.2354
 21
24.6816
  0
LINE
  8
0
 10
26.2354
 20
24.6816
 11
26.2471
 21
24.6943
  0
LINE
  8
0
 10
26.2471
 20
24.6943
 11
26.2598
 21
24.7061
  0
LINE
  8
0
 10
26.2598
 20
24.7061
 11
26.2725
 21
24.7188
  0
LINE
  8
0
 10
26.2725
 20
24.7188
 11
26.3105
 21
24.7539
  0
LINE
  8
0
 10
26.3105
 20
24.7539
 11
26.3242
 21
24.7656
  0
LINE
  8
0
 10
26.3242
 20
24.7656
 11
26.3789
 21
24.8086
  0
LINE
  8
0
 10
26.3789
 20
24.8086
 11
26.3936
 21
24.8184
  0
LINE
  8
0
 10
26.3936
 20
24.8184
 11
26.4072
 21
24.8281
  0
LINE
  8
0
 10
26.4072
 20
24.8281
 11
26.4365
 21
24.8477
  0
LINE
  8
0
 10
26.4365
 20
24.8477
 11
26.4521
 21
24.8564
  0
LINE
  8
0
 10
26.4521
 20
24.8564
 11
26.4668
 21
24.8652
  0
LINE
  8
0
 10
26.4668
 20
24.8652
 11
26.4824
 21
24.874
  0
LINE
  8
0
 10
26.4824
 20
24.874
 11
26.4971
 21
24.8818
  0
LINE
  8
0
 10
26.4971
 20
24.8818
 11
26.5127
 21
24.8906
  0
LINE
  8
0
 10
26.5127
 20
24.8906
 11
26.5283
 21
24.8984
  0
LINE
  8
0
 10
26.5283
 20
24.8984
 11
26.5439
 21
24.9053
  0
LINE
  8
0
 10
26.5439
 20
24.9053
 11
26.5596
 21
24.9131
  0
LINE
  8
0
 10
26.5596
 20
24.9131
 11
26.5762
 21
24.9199
  0
LINE
  8
0
 10
26.5762
 20
24.9199
 11
26.5918
 21
24.9268
  0
LINE
  8
0
 10
26.5918
 20
24.9268
 11
26.6084
 21
24.9326
  0
LINE
  8
0
 10
26.6084
 20
24.9326
 11
26.625
 21
24.9395
  0
LINE
  8
0
 10
26.625
 20
24.9395
 11
26.6416
 21
24.9443
  0
LINE
  8
0
 10
26.6416
 20
24.9443
 11
26.6748
 21
24.9561
  0
LINE
  8
0
 10
26.6748
 20
24.9561
 11
26.6914
 21
24.9609
  0
LINE
  8
0
 10
26.6914
 20
24.9609
 11
26.708
 21
24.9648
  0
LINE
  8
0
 10
26.708
 20
24.9648
 11
26.7246
 21
24.9697
  0
LINE
  8
0
 10
26.7246
 20
24.9697
 11
26.7422
 21
24.9736
  0
LINE
  8
0
 10
26.7422
 20
24.9736
 11
26.7588
 21
24.9775
  0
LINE
  8
0
 10
26.7588
 20
24.9775
 11
26.7764
 21
24.9805
  0
LINE
  8
0
 10
26.7764
 20
24.9805
 11
26.793
 21
24.9844
  0
LINE
  8
0
 10
26.793
 20
24.9844
 11
26.8105
 21
24.9873
  0
LINE
  8
0
 10
26.8105
 20
24.9873
 11
26.8271
 21
24.9893
  0
LINE
  8
0
 10
26.8271
 20
24.9893
 11
26.8447
 21
24.9922
  0
LINE
  8
0
 10
26.8447
 20
24.9922
 11
26.8623
 21
24.9941
  0
LINE
  8
0
 10
26.8623
 20
24.9941
 11
26.8799
 21
24.9951
  0
LINE
  8
0
 10
26.8799
 20
24.9951
 11
26.8975
 21
24.9971
  0
LINE
  8
0
 10
26.8975
 20
24.9971
 11
26.9141
 21
24.998
  0
LINE
  8
0
 10
26.9141
 20
24.998
 11
26.9316
 21
24.999
  0
LINE
  8
0
 10
26.9316
 20
24.999
 11
39.4844
 21
25.001
  0
LINE
  8
0
 10
39.4844
 20
25.001
 11
39.502
 21
25
  0
LINE
  8
0
 10
39.502
 20
25
 11
39.5186
 21
24.999
  0
LINE
  8
0
 10
39.5186
 20
24.999
 11
39.5537
 21
24.9971
  0
LINE
  8
0
 10
39.5537
 20
24.9971
 11
39.5889
 21
24.9932
  0
LINE
  8
0
 10
39.5889
 20
24.9932
 11
39.6055
 21
24.9912
  0
LINE
  8
0
 10
39.6055
 20
24.9912
 11
39.6406
 21
24.9854
  0
LINE
  8
0
 10
39.6406
 20
24.9854
 11
39.6572
 21
24.9824
  0
LINE
  8
0
 10
39.6572
 20
24.9824
 11
39.6748
 21
24.9785
  0
LINE
  8
0
 10
39.6748
 20
24.9785
 11
39.6914
 21
24.9746
  0
LINE
  8
0
 10
39.6914
 20
24.9746
 11
39.709
 21
24.9707
  0
LINE
  8
0
 10
39.709
 20
24.9707
 11
39.7256
 21
24.9668
  0
LINE
  8
0
 10
39.7256
 20
24.9668
 11
39.7754
 21
24.9521
  0
LINE
  8
0
 10
39.7754
 20
24.9521
 11
39.8252
 21
24.9346
  0
LINE
  8
0
 10
39.8252
 20
24.9346
 11
39.8408
 21
24.9277
  0
LINE
  8
0
 10
39.8408
 20
24.9277
 11
39.8574
 21
24.9209
  0
LINE
  8
0
 10
39.8574
 20
24.9209
 11
39.873
 21
24.9141
  0
LINE
  8
0
 10
39.873
 20
24.9141
 11
39.8896
 21
24.9072
  0
LINE
  8
0
 10
39.8896
 20
24.9072
 11
39.9365
 21
24.8838
  0
LINE
  8
0
 10
39.9365
 20
24.8838
 11
39.9512
 21
24.875
  0
LINE
  8
0
 10
39.9512
 20
24.875
 11
39.9668
 21
24.8662
  0
LINE
  8
0
 10
39.9668
 20
24.8662
 11
39.9961
 21
24.8486
  0
LINE
  8
0
 10
39.9961
 20
24.8486
 11
40.0117
 21
24.8389
  0
LINE
  8
0
 10
40.0117
 20
24.8389
 11
40.0254
 21
24.8301
  0
LINE
  8
0
 10
40.0254
 20
24.8301
 11
40.04
 21
24.8193
  0
LINE
  8
0
 10
40.04
 20
24.8193
 11
40.0547
 21
24.8096
  0
LINE
  8
0
 10
40.0547
 20
24.8096
 11
40.0684
 21
24.7988
  0
LINE
  8
0
 10
40.0684
 20
24.7988
 11
40.082
 21
24.7891
  0
LINE
  8
0
 10
40.082
 20
24.7891
 11
40.0957
 21
24.7773
  0
LINE
  8
0
 10
40.0957
 20
24.7773
 11
40.123
 21
24.7559
  0
LINE
  8
0
 10
40.123
 20
24.7559
 11
40.1484
 21
24.7324
  0
LINE
  8
0
 10
40.1484
 20
24.7324
 11
40.1611
 21
24.7197
  0
LINE
  8
0
 10
40.1611
 20
24.7197
 11
40.1738
 21
24.708
  0
LINE
  8
0
 10
40.1738
 20
24.708
 11
40.1855
 21
24.6953
  0
LINE
  8
0
 10
40.1855
 20
24.6953
 11
40.1982
 21
24.6826
  0
LINE
  8
0
 10
40.1982
 20
24.6826
 11
40.21
 21
24.6699
  0
LINE
  8
0
 10
40.21
 20
24.6699
 11
40.2217
 21
24.6562
  0
LINE
  8
0
 10
40.2217
 20
24.6562
 11
40.2324
 21
24.6436
  0
LINE
  8
0
 10
40.2324
 20
24.6436
 11
40.2441
 21
24.6299
  0
LINE
  8
0
 10
40.2441
 20
24.6299
 11
40.2656
 21
24.6025
  0
LINE
  8
0
 10
40.2656
 20
24.6025
 11
40.2754
 21
24.5889
  0
LINE
  8
0
 10
40.2754
 20
24.5889
 11
40.2861
 21
24.5742
  0
LINE
  8
0
 10
40.2861
 20
24.5742
 11
40.3057
 21
24.5449
  0
LINE
  8
0
 10
40.3057
 20
24.5449
 11
40.3145
 21
24.5303
  0
LINE
  8
0
 10
40.3145
 20
24.5303
 11
40.3242
 21
24.5156
  0
LINE
  8
0
 10
40.3242
 20
24.5156
 11
40.333
 21
24.501
  0
LINE
  8
0
 10
40.333
 20
24.501
 11
40.3408
 21
24.4854
  0
LINE
  8
0
 10
40.3408
 20
24.4854
 11
40.3496
 21
24.4697
  0
LINE
  8
0
 10
40.3496
 20
24.4697
 11
40.3574
 21
24.4551
  0
LINE
  8
0
 10
40.3574
 20
24.4551
 11
40.3652
 21
24.4395
  0
LINE
  8
0
 10
40.3652
 20
24.4395
 11
40.373
 21
24.4229
  0
LINE
  8
0
 10
40.373
 20
24.4229
 11
40.3867
 21
24.3916
  0
LINE
  8
0
 10
40.3867
 20
24.3916
 11
40.3936
 21
24.375
  0
LINE
  8
0
 10
40.3936
 20
24.375
 11
40.4004
 21
24.3594
  0
LINE
  8
0
 10
40.4004
 20
24.3594
 11
40.418
 21
24.3096
  0
LINE
  8
0
 10
40.418
 20
24.3096
 11
40.4326
 21
24.2598
  0
LINE
  8
0
 10
40.4326
 20
24.2598
 11
40.4365
 21
24.2422
  0
LINE
  8
0
 10
40.4365
 20
24.2422
 11
40.4414
 21
24.2256
  0
LINE
  8
0
 10
40.4414
 20
24.2256
 11
40.4443
 21
24.209
  0
LINE
  8
0
 10
40.4443
 20
24.209
 11
40.4482
 21
24.1914
  0
LINE
  8
0
 10
40.4482
 20
24.1914
 11
40.4512
 21
24.1738
  0
LINE
  8
0
 10
40.4512
 20
24.1738
 11
40.4541
 21
24.1572
  0
LINE
  8
0
 10
40.4541
 20
24.1572
 11
40.457
 21
24.1396
  0
LINE
  8
0
 10
40.457
 20
24.1396
 11
40.459
 21
24.1221
  0
LINE
  8
0
 10
40.459
 20
24.1221
 11
40.4609
 21
24.1055
  0
LINE
  8
0
 10
40.4609
 20
24.1055
 11
40.4629
 21
24.0879
  0
LINE
  8
0
 10
40.4629
 20
24.0879
 11
40.4658
 21
24.0352
  0
LINE
  8
0
 10
40.4658
 20
24.0352
 11
40.4668
 21
24.0186
  0
LINE
  8
0
 10
40.4668
 20
24.0186
 11
40.4668
 21
24.001
  0
LINE
  8
0
 10
40.4668
 20
24.001
 11
40.5293
 21
9
  0
LINE
  8
0
 10
40.5293
 20
9
 11
40.5293
 21
8.98242
  0
LINE
  8
0
 10
40.5293
 20
8.98242
 11
40.5273
 21
8.94727
  0
LINE
  8
0
 10
40.5273
 20
8.94727
 11
40.5264
 21
8.93066
  0
LINE
  8
0
 10
40.5264
 20
8.93066
 11
40.5254
 21
8.91309
  0
LINE
  8
0
 10
40.5254
 20
8.91309
 11
40.5215
 21
8.87793
  0
LINE
  8
0
 10
40.5215
 20
8.87793
 11
40.5195
 21
8.86133
  0
LINE
  8
0
 10
40.5195
 20
8.86133
 11
40.5137
 21
8.82617
  0
LINE
  8
0
 10
40.5137
 20
8.82617
 11
40.5107
 21
8.80957
  0
LINE
  8
0
 10
40.5107
 20
8.80957
 11
40.5068
 21
8.79199
  0
LINE
  8
0
 10
40.5068
 20
8.79199
 11
40.5039
 21
8.77539
  0
LINE
  8
0
 10
40.5039
 20
8.77539
 11
40.499
 21
8.75781
  0
LINE
  8
0
 10
40.499
 20
8.75781
 11
40.4951
 21
8.74121
  0
LINE
  8
0
 10
40.4951
 20
8.74121
 11
40.4805
 21
8.69141
  0
LINE
  8
0
 10
40.4805
 20
8.69141
 11
40.4629
 21
8.6416
  0
LINE
  8
0
 10
40.4629
 20
8.6416
 11
40.4561
 21
8.625
  0
LINE
  8
0
 10
40.4561
 20
8.625
 11
40.4424
 21
8.59375
  0
LINE
  8
0
 10
40.4424
 20
8.59375
 11
40.4355
 21
8.57715
  0
LINE
  8
0
 10
40.4355
 20
8.57715
 11
40.4121
 21
8.53027
  0
LINE
  8
0
 10
40.4121
 20
8.53027
 11
40.4033
 21
8.51562
  0
LINE
  8
0
 10
40.4033
 20
8.51562
 11
40.3955
 21
8.5
  0
LINE
  8
0
 10
40.3955
 20
8.5
 11
40.3857
 21
8.48535
  0
LINE
  8
0
 10
40.3857
 20
8.48535
 11
40.377
 21
8.46973
  0
LINE
  8
0
 10
40.377
 20
8.46973
 11
40.3682
 21
8.45508
  0
LINE
  8
0
 10
40.3682
 20
8.45508
 11
40.3584
 21
8.44043
  0
LINE
  8
0
 10
40.3584
 20
8.44043
 11
40.3486
 21
8.42676
  0
LINE
  8
0
 10
40.3486
 20
8.42676
 11
40.3379
 21
8.41211
  0
LINE
  8
0
 10
40.3379
 20
8.41211
 11
40.3281
 21
8.39844
  0
LINE
  8
0
 10
40.3281
 20
8.39844
 11
40.3066
 21
8.37109
  0
LINE
  8
0
 10
40.3066
 20
8.37109
 11
40.2949
 21
8.35742
  0
LINE
  8
0
 10
40.2949
 20
8.35742
 11
40.2842
 21
8.34375
  0
LINE
  8
0
 10
40.2842
 20
8.34375
 11
40.2607
 21
8.31836
  0
LINE
  8
0
 10
40.2607
 20
8.31836
 11
40.248
 21
8.30566
  0
LINE
  8
0
 10
40.248
 20
8.30566
 11
40.2363
 21
8.29297
  0
LINE
  8
0
 10
40.2363
 20
8.29297
 11
40.2236
 21
8.28027
  0
LINE
  8
0
 10
40.2236
 20
8.28027
 11
40.1855
 21
8.24512
  0
LINE
  8
0
 10
40.1855
 20
8.24512
 11
40.1719
 21
8.23438
  0
LINE
  8
0
 10
40.1719
 20
8.23438
 11
40.1582
 21
8.22266
  0
LINE
  8
0
 10
40.1582
 20
8.22266
 11
40.1309
 21
8.20117
  0
LINE
  8
0
 10
40.1309
 20
8.20117
 11
40.1172
 21
8.19141
  0
LINE
  8
0
 10
40.1172
 20
8.19141
 11
40.1025
 21
8.18066
  0
LINE
  8
0
 10
40.1025
 20
8.18066
 11
40.0732
 21
8.16113
  0
LINE
  8
0
 10
40.0732
 20
8.16113
 11
40.0586
 21
8.15234
  0
LINE
  8
0
 10
40.0586
 20
8.15234
 11
40.0439
 21
8.14258
  0
LINE
  8
0
 10
40.0439
 20
8.14258
 11
40.0293
 21
8.13379
  0
LINE
  8
0
 10
40.0293
 20
8.13379
 11
40.0137
 21
8.125
  0
LINE
  8
0
 10
40.0137
 20
8.125
 11
39.998
 21
8.11719
  0
LINE
  8
0
 10
39.998
 20
8.11719
 11
39.9834
 21
8.10938
  0
LINE
  8
0
 10
39.9834
 20
8.10938
 11
39.9521
 21
8.09375
  0
LINE
  8
0
 10
39.9521
 20
8.09375
 11
39.9355
 21
8.08691
  0
LINE
  8
0
 10
39.9355
 20
8.08691
 11
39.9199
 21
8.0791
  0
LINE
  8
0
 10
39.9199
 20
8.0791
 11
39.9033
 21
8.07324
  0
LINE
  8
0
 10
39.9033
 20
8.07324
 11
39.8877
 21
8.06641
  0
LINE
  8
0
 10
39.8877
 20
8.06641
 11
39.8379
 21
8.04883
  0
LINE
  8
0
 10
39.8379
 20
8.04883
 11
39.7881
 21
8.03418
  0
LINE
  8
0
 10
39.7881
 20
8.03418
 11
39.7705
 21
8.0293
  0
LINE
  8
0
 10
39.7705
 20
8.0293
 11
39.7373
 21
8.02148
  0
LINE
  8
0
 10
39.7373
 20
8.02148
 11
39.7197
 21
8.01855
  0
LINE
  8
0
 10
39.7197
 20
8.01855
 11
39.7031
 21
8.01562
  0
LINE
  8
0
 10
39.7031
 20
8.01562
 11
39.668
 21
8.00977
  0
LINE
  8
0
 10
39.668
 20
8.00977
 11
39.6514
 21
8.00781
  0
LINE
  8
0
 10
39.6514
 20
8.00781
 11
39.6162
 21
8.00391
  0
LINE
  8
0
 10
39.6162
 20
8.00391
 11
39.5986
 21
8.00293
  0
LINE
  8
0
 10
39.5986
 20
8.00293
 11
39.5811
 21
8.00098
  0
LINE
  8
0
 10
39.5811
 20
8.00098
 11
39.5635
 21
8.00098
  0
LINE
  8
0
 10
39.5635
 20
8.00098
 11
39.5469
 21
8
  0
LINE
  8
0
 10
39.5469
 20
8
 11
26.9941
 21
7.99902
  0
LINE
  8
0
 10
26.9941
 20
7.99902
 11
26.959
 21
8.00098
  0
LINE
  8
0
 10
63.3965
 20
15.5
 11
63.3789
 21
15.501
  0
LINE
  8
0
 10
63.3789
 20
15.501
 11
63.3613
 21
15.501
  0
LINE
  8
0
 10
63.3613
 20
15.501
 11
63.3438
 21
15.502
  0
LINE
  8
0
 10
63.3438
 20
15.502
 11
63.3271
 21
15.5039
  0
LINE
  8
0
 10
63.3271
 20
15.5039
 11
63.2744
 21
15.5098
  0
LINE
  8
0
 10
63.2744
 20
15.5098
 11
63.2578
 21
15.5127
  0
LINE
  8
0
 10
63.2578
 20
15.5127
 11
63.2227
 21
15.5186
  0
LINE
  8
0
 10
63.2227
 20
15.5186
 11
63.2061
 21
15.5215
  0
LINE
  8
0
 10
63.2061
 20
15.5215
 11
63.1895
 21
15.5254
  0
LINE
  8
0
 10
63.1895
 20
15.5254
 11
63.1719
 21
15.5293
  0
LINE
  8
0
 10
63.1719
 20
15.5293
 11
63.1387
 21
15.5391
  0
LINE
  8
0
 10
63.1387
 20
15.5391
 11
63.1211
 21
15.5439
  0
LINE
  8
0
 10
63.1211
 20
15.5439
 11
63.1045
 21
15.5488
  0
LINE
  8
0
 10
63.1045
 20
15.5488
 11
63.0879
 21
15.5547
  0
LINE
  8
0
 10
63.0879
 20
15.5547
 11
63.0723
 21
15.5605
  0
LINE
  8
0
 10
63.0723
 20
15.5605
 11
63.0557
 21
15.5664
  0
LINE
  8
0
 10
63.0557
 20
15.5664
 11
63.0391
 21
15.5732
  0
LINE
  8
0
 10
63.0391
 20
15.5732
 11
63.0234
 21
15.5791
  0
LINE
  8
0
 10
63.0234
 20
15.5791
 11
63.0068
 21
15.5869
  0
LINE
  8
0
 10
63.0068
 20
15.5869
 11
62.9912
 21
15.5938
  0
LINE
  8
0
 10
62.9912
 20
15.5938
 11
62.9287
 21
15.625
  0
LINE
  8
0
 10
62.9287
 20
15.625
 11
62.9141
 21
15.6338
  0
LINE
  8
0
 10
62.9141
 20
15.6338
 11
62.8984
 21
15.6426
  0
LINE
  8
0
 10
62.8984
 20
15.6426
 11
62.8838
 21
15.6523
  0
LINE
  8
0
 10
62.8838
 20
15.6523
 11
62.8691
 21
15.6611
  0
LINE
  8
0
 10
62.8691
 20
15.6611
 11
62.8545
 21
15.6709
  0
LINE
  8
0
 10
62.8545
 20
15.6709
 11
62.8408
 21
15.6807
  0
LINE
  8
0
 10
62.8408
 20
15.6807
 11
62.8262
 21
15.6914
  0
LINE
  8
0
 10
62.8262
 20
15.6914
 11
62.8125
 21
15.7012
  0
LINE
  8
0
 10
62.8125
 20
15.7012
 11
62.7979
 21
15.7119
  0
LINE
  8
0
 10
62.7979
 20
15.7119
 11
62.7842
 21
15.7227
  0
LINE
  8
0
 10
62.7842
 20
15.7227
 11
62.7715
 21
15.7344
  0
LINE
  8
0
 10
62.7715
 20
15.7344
 11
62.7578
 21
15.7451
  0
LINE
  8
0
 10
62.7578
 20
15.7451
 11
62.7451
 21
15.7568
  0
LINE
  8
0
 10
62.7451
 20
15.7568
 11
62.7314
 21
15.7686
  0
LINE
  8
0
 10
62.7314
 20
15.7686
 11
62.6943
 21
15.8057
  0
LINE
  8
0
 10
62.6943
 20
15.8057
 11
62.6592
 21
15.8438
  0
LINE
  8
0
 10
62.6592
 20
15.8438
 11
62.6475
 21
15.8574
  0
LINE
  8
0
 10
62.6475
 20
15.8574
 11
62.6045
 21
15.9121
  0
LINE
  8
0
 10
62.6045
 20
15.9121
 11
62.5947
 21
15.9268
  0
LINE
  8
0
 10
62.5947
 20
15.9268
 11
62.585
 21
15.9404
  0
LINE
  8
0
 10
62.585
 20
15.9404
 11
62.5654
 21
15.9697
  0
LINE
  8
0
 10
62.5654
 20
15.9697
 11
62.5566
 21
15.9854
  0
LINE
  8
0
 10
62.5566
 20
15.9854
 11
62.5479
 21
16
  0
LINE
  8
0
 10
62.5479
 20
16
 11
62.5391
 21
16.0156
  0
LINE
  8
0
 10
62.5391
 20
16.0156
 11
62.5312
 21
16.0303
  0
LINE
  8
0
 10
62.5312
 20
16.0303
 11
62.5225
 21
16.0459
  0
LINE
  8
0
 10
62.5225
 20
16.0459
 11
62.5146
 21
16.0615
  0
LINE
  8
0
 10
62.5146
 20
16.0615
 11
62.5078
 21
16.0771
  0
LINE
  8
0
 10
62.5078
 20
16.0771
 11
62.5
 21
16.0938
  0
LINE
  8
0
 10
62.5
 20
16.0938
 11
62.4863
 21
16.125
  0
LINE
  8
0
 10
62.4863
 20
16.125
 11
62.4629
 21
16.1914
  0
LINE
  8
0
 10
62.4629
 20
16.1914
 11
62.4434
 21
16.2578
  0
LINE
  8
0
 10
62.4434
 20
16.2578
 11
62.4395
 21
16.2754
  0
LINE
  8
0
 10
62.4395
 20
16.2754
 11
62.4355
 21
16.292
  0
LINE
  8
0
 10
62.4355
 20
16.292
 11
62.4326
 21
16.3096
  0
LINE
  8
0
 10
62.4326
 20
16.3096
 11
62.4287
 21
16.3262
  0
LINE
  8
0
 10
62.4287
 20
16.3262
 11
62.4258
 21
16.3438
  0
LINE
  8
0
 10
62.4258
 20
16.3438
 11
62.4238
 21
16.3604
  0
LINE
  8
0
 10
62.4238
 20
16.3604
 11
62.4209
 21
16.3779
  0
LINE
  8
0
 10
62.4209
 20
16.3779
 11
62.4189
 21
16.3955
  0
LINE
  8
0
 10
62.4189
 20
16.3955
 11
62.418
 21
16.4131
  0
LINE
  8
0
 10
62.418
 20
16.4131
 11
62.416
 21
16.4307
  0
LINE
  8
0
 10
62.416
 20
16.4307
 11
62.415
 21
16.4473
  0
LINE
  8
0
 10
62.415
 20
16.4473
 11
62.4141
 21
16.4648
  0
LINE
  8
0
 10
62.4141
 20
16.4648
 11
62.4141
 21
16.5
  0
LINE
  8
0
 10
62.4141
 20
16.5
 11
62.4072
 21
16.5
  0
LINE
  8
0
 10
62.4072
 20
16.5
 11
62.4092
 21
24.0283
  0
LINE
  8
0
 10
62.4092
 20
24.0283
 11
62.4102
 21
24.0459
  0
LINE
  8
0
 10
62.4102
 20
24.0459
 11
62.4102
 21
24.0635
  0
LINE
  8
0
 10
62.4102
 20
24.0635
 11
62.4111
 21
24.0801
  0
LINE
  8
0
 10
62.4111
 20
24.0801
 11
62.4131
 21
24.0977
  0
LINE
  8
0
 10
62.4131
 20
24.0977
 11
62.4141
 21
24.1143
  0
LINE
  8
0
 10
62.4141
 20
24.1143
 11
62.416
 21
24.1318
  0
LINE
  8
0
 10
62.416
 20
24.1318
 11
62.418
 21
24.1484
  0
LINE
  8
0
 10
62.418
 20
24.1484
 11
62.4209
 21
24.166
  0
LINE
  8
0
 10
62.4209
 20
24.166
 11
62.4268
 21
24.1992
  0
LINE
  8
0
 10
62.4268
 20
24.1992
 11
62.4297
 21
24.2168
  0
LINE
  8
0
 10
62.4297
 20
24.2168
 11
62.4375
 21
24.25
  0
LINE
  8
0
 10
62.4375
 20
24.25
 11
62.4424
 21
24.2666
  0
LINE
  8
0
 10
62.4424
 20
24.2666
 11
62.4463
 21
24.2832
  0
LINE
  8
0
 10
62.4463
 20
24.2832
 11
62.4561
 21
24.3164
  0
LINE
  8
0
 10
62.4561
 20
24.3164
 11
62.4619
 21
24.333
  0
LINE
  8
0
 10
62.4619
 20
24.333
 11
62.4678
 21
24.3486
  0
LINE
  8
0
 10
62.4678
 20
24.3486
 11
62.4736
 21
24.3652
  0
LINE
  8
0
 10
62.4736
 20
24.3652
 11
62.4795
 21
24.3809
  0
LINE
  8
0
 10
62.4795
 20
24.3809
 11
62.4863
 21
24.3965
  0
LINE
  8
0
 10
62.4863
 20
24.3965
 11
62.4932
 21
24.4131
  0
LINE
  8
0
 10
62.4932
 20
24.4131
 11
62.5
 21
24.4287
  0
LINE
  8
0
 10
62.5
 20
24.4287
 11
62.5078
 21
24.4443
  0
LINE
  8
0
 10
62.5078
 20
24.4443
 11
62.5156
 21
24.459
  0
LINE
  8
0
 10
62.5156
 20
24.459
 11
62.5234
 21
24.4746
  0
LINE
  8
0
 10
62.5234
 20
24.4746
 11
62.5312
 21
24.4893
  0
LINE
  8
0
 10
62.5312
 20
24.4893
 11
62.54
 21
24.5049
  0
LINE
  8
0
 10
62.54
 20
24.5049
 11
62.5664
 21
24.5488
  0
LINE
  8
0
 10
62.5664
 20
24.5488
 11
62.5762
 21
24.5635
  0
LINE
  8
0
 10
62.5762
 20
24.5635
 11
62.5859
 21
24.5771
  0
LINE
  8
0
 10
62.5859
 20
24.5771
 11
62.5957
 21
24.5918
  0
LINE
  8
0
 10
62.5957
 20
24.5918
 11
62.6055
 21
24.6055
  0
LINE
  8
0
 10
62.6055
 20
24.6055
 11
62.627
 21
24.6328
  0
LINE
  8
0
 10
62.627
 20
24.6328
 11
62.6377
 21
24.6455
  0
LINE
  8
0
 10
62.6377
 20
24.6455
 11
62.6494
 21
24.6592
  0
LINE
  8
0
 10
62.6494
 20
24.6592
 11
62.6602
 21
24.6719
  0
LINE
  8
0
 10
62.6602
 20
24.6719
 11
62.6836
 21
24.6973
  0
LINE
  8
0
 10
62.6836
 20
24.6973
 11
62.6963
 21
24.709
  0
LINE
  8
0
 10
62.6963
 20
24.709
 11
62.708
 21
24.7217
  0
LINE
  8
0
 10
62.708
 20
24.7217
 11
62.7461
 21
24.7568
  0
LINE
  8
0
 10
62.7461
 20
24.7568
 11
62.7588
 21
24.7676
  0
LINE
  8
0
 10
62.7588
 20
24.7676
 11
62.8135
 21
24.8105
  0
LINE
  8
0
 10
62.8135
 20
24.8105
 11
62.8271
 21
24.8203
  0
LINE
  8
0
 10
62.8271
 20
24.8203
 11
62.8418
 21
24.8301
  0
LINE
  8
0
 10
62.8418
 20
24.8301
 11
62.8555
 21
24.8398
  0
LINE
  8
0
 10
62.8555
 20
24.8398
 11
62.9141
 21
24.875
  0
LINE
  8
0
 10
62.9141
 20
24.875
 11
62.9297
 21
24.8838
  0
LINE
  8
0
 10
62.9297
 20
24.8838
 11
62.9453
 21
24.8916
  0
LINE
  8
0
 10
62.9453
 20
24.8916
 11
62.96
 21
24.8994
  0
LINE
  8
0
 10
62.96
 20
24.8994
 11
62.9756
 21
24.9062
  0
LINE
  8
0
 10
62.9756
 20
24.9062
 11
62.9912
 21
24.9141
  0
LINE
  8
0
 10
62.9912
 20
24.9141
 11
63.0068
 21
24.9209
  0
LINE
  8
0
 10
63.0068
 20
24.9209
 11
63.0234
 21
24.9277
  0
LINE
  8
0
 10
63.0234
 20
24.9277
 11
63.0547
 21
24.9395
  0
LINE
  8
0
 10
63.0547
 20
24.9395
 11
63.0879
 21
24.9512
  0
LINE
  8
0
 10
63.0879
 20
24.9512
 11
63.1035
 21
24.9561
  0
LINE
  8
0
 10
63.1035
 20
24.9561
 11
63.1367
 21
24.9658
  0
LINE
  8
0
 10
63.1367
 20
24.9658
 11
63.1533
 21
24.9697
  0
LINE
  8
0
 10
63.1533
 20
24.9697
 11
63.1699
 21
24.9746
  0
LINE
  8
0
 10
63.1699
 20
24.9746
 11
63.1875
 21
24.9775
  0
LINE
  8
0
 10
63.1875
 20
24.9775
 11
63.2041
 21
24.9814
  0
LINE
  8
0
 10
63.2041
 20
24.9814
 11
63.2207
 21
24.9844
  0
LINE
  8
0
 10
63.2207
 20
24.9844
 11
63.2383
 21
24.9873
  0
LINE
  8
0
 10
63.2383
 20
24.9873
 11
63.2549
 21
24.9902
  0
LINE
  8
0
 10
63.2549
 20
24.9902
 11
63.2715
 21
24.9922
  0
LINE
  8
0
 10
63.2715
 20
24.9922
 11
63.3066
 21
24.9961
  0
LINE
  8
0
 10
63.3066
 20
24.9961
 11
63.3232
 21
24.9971
  0
LINE
  8
0
 10
63.3232
 20
24.9971
 11
63.3408
 21
24.999
  0
LINE
  8
0
 10
63.3408
 20
24.999
 11
63.3574
 21
24.999
  0
LINE
  8
0
 10
63.3574
 20
24.999
 11
63.375
 21
25
  0
LINE
  8
0
 10
63.375
 20
25
 11
77.9414
 21
25
  0
LINE
  8
0
 10
77.9414
 20
25
 11
77.958
 21
24.999
  0
LINE
  8
0
 10
77.958
 20
24.999
 11
77.9756
 21
24.999
  0
LINE
  8
0
 10
77.9756
 20
24.999
 11
77.9922
 21
24.9971
  0
LINE
  8
0
 10
77.9922
 20
24.9971
 11
78.0088
 21
24.9961
  0
LINE
  8
0
 10
78.0088
 20
24.9961
 11
78.0264
 21
24.9941
  0
LINE
  8
0
 10
78.0264
 20
24.9941
 11
78.0596
 21
24.9902
  0
LINE
  8
0
 10
78.0596
 20
24.9902
 11
78.0771
 21
24.9873
  0
LINE
  8
0
 10
78.0771
 20
24.9873
 11
78.0938
 21
24.9854
  0
LINE
  8
0
 10
78.0938
 20
24.9854
 11
78.1104
 21
24.9814
  0
LINE
  8
0
 10
78.1104
 20
24.9814
 11
78.127
 21
24.9785
  0
LINE
  8
0
 10
78.127
 20
24.9785
 11
78.1768
 21
24.9668
  0
LINE
  8
0
 10
78.1768
 20
24.9668
 11
78.1934
 21
24.9619
  0
LINE
  8
0
 10
78.1934
 20
24.9619
 11
78.209
 21
24.957
  0
LINE
  8
0
 10
78.209
 20
24.957
 11
78.2256
 21
24.9521
  0
LINE
  8
0
 10
78.2256
 20
24.9521
 11
78.2412
 21
24.9463
  0
LINE
  8
0
 10
78.2412
 20
24.9463
 11
78.2578
 21
24.9414
  0
LINE
  8
0
 10
78.2578
 20
24.9414
 11
78.2734
 21
24.9346
  0
LINE
  8
0
 10
78.2734
 20
24.9346
 11
78.2891
 21
24.9287
  0
LINE
  8
0
 10
78.2891
 20
24.9287
 11
78.3047
 21
24.9219
  0
LINE
  8
0
 10
78.3047
 20
24.9219
 11
78.3203
 21
24.916
  0
LINE
  8
0
 10
78.3203
 20
24.916
 11
78.3359
 21
24.9082
  0
LINE
  8
0
 10
78.3359
 20
24.9082
 11
78.3516
 21
24.9014
  0
LINE
  8
0
 10
78.3516
 20
24.9014
 11
78.3672
 21
24.8936
  0
LINE
  8
0
 10
78.3672
 20
24.8936
 11
78.3965
 21
24.8779
  0
LINE
  8
0
 10
78.3965
 20
24.8779
 11
78.4121
 21
24.8691
  0
LINE
  8
0
 10
78.4121
 20
24.8691
 11
78.4268
 21
24.8613
  0
LINE
  8
0
 10
78.4268
 20
24.8613
 11
78.4414
 21
24.8525
  0
LINE
  8
0
 10
78.4414
 20
24.8525
 11
78.4551
 21
24.8428
  0
LINE
  8
0
 10
78.4551
 20
24.8428
 11
78.4697
 21
24.834
  0
LINE
  8
0
 10
78.4697
 20
24.834
 11
78.4834
 21
24.8242
  0
LINE
  8
0
 10
78.4834
 20
24.8242
 11
78.498
 21
24.8145
  0
LINE
  8
0
 10
78.498
 20
24.8145
 11
78.5117
 21
24.8037
  0
LINE
  8
0
 10
78.5117
 20
24.8037
 11
78.5244
 21
24.7939
  0
LINE
  8
0
 10
78.5244
 20
24.7939
 11
78.5518
 21
24.7725
  0
LINE
  8
0
 10
78.5518
 20
24.7725
 11
78.5645
 21
24.7617
  0
LINE
  8
0
 10
78.5645
 20
24.7617
 11
78.5771
 21
24.75
  0
LINE
  8
0
 10
78.5771
 20
24.75
 11
78.5898
 21
24.7393
  0
LINE
  8
0
 10
78.5898
 20
24.7393
 11
78.6025
 21
24.7275
  0
LINE
  8
0
 10
78.6025
 20
24.7275
 11
78.6143
 21
24.7158
  0
LINE
  8
0
 10
78.6143
 20
24.7158
 11
78.626
 21
24.7031
  0
LINE
  8
0
 10
78.626
 20
24.7031
 11
78.6387
 21
24.6914
  0
LINE
  8
0
 10
78.6387
 20
24.6914
 11
78.6494
 21
24.6787
  0
LINE
  8
0
 10
78.6494
 20
24.6787
 11
78.6611
 21
24.666
  0
LINE
  8
0
 10
78.6611
 20
24.666
 11
78.6719
 21
24.6533
  0
LINE
  8
0
 10
78.6719
 20
24.6533
 11
78.6836
 21
24.6396
  0
LINE
  8
0
 10
78.6836
 20
24.6396
 11
78.6943
 21
24.627
  0
LINE
  8
0
 10
78.6943
 20
24.627
 11
78.7041
 21
24.6133
  0
LINE
  8
0
 10
78.7041
 20
24.6133
 11
78.7148
 21
24.5996
  0
LINE
  8
0
 10
78.7148
 20
24.5996
 11
78.7344
 21
24.5723
  0
LINE
  8
0
 10
78.7344
 20
24.5723
 11
78.7441
 21
24.5576
  0
LINE
  8
0
 10
78.7441
 20
24.5576
 11
78.7529
 21
24.5439
  0
LINE
  8
0
 10
78.7529
 20
24.5439
 11
78.7881
 21
24.4854
  0
LINE
  8
0
 10
78.7881
 20
24.4854
 11
78.7959
 21
24.4697
  0
LINE
  8
0
 10
78.7959
 20
24.4697
 11
78.8037
 21
24.4551
  0
LINE
  8
0
 10
78.8037
 20
24.4551
 11
78.8105
 21
24.4395
  0
LINE
  8
0
 10
78.8105
 20
24.4395
 11
78.8184
 21
24.4238
  0
LINE
  8
0
 10
78.8184
 20
24.4238
 11
78.832
 21
24.3926
  0
LINE
  8
0
 10
78.832
 20
24.3926
 11
78.8496
 21
24.3457
  0
LINE
  8
0
 10
78.8496
 20
24.3457
 11
78.8555
 21
24.3291
  0
LINE
  8
0
 10
78.8555
 20
24.3291
 11
78.8613
 21
24.3135
  0
LINE
  8
0
 10
78.8613
 20
24.3135
 11
78.8711
 21
24.2803
  0
LINE
  8
0
 10
78.8711
 20
24.2803
 11
78.875
 21
24.2637
  0
LINE
  8
0
 10
78.875
 20
24.2637
 11
78.8789
 21
24.248
  0
LINE
  8
0
 10
78.8789
 20
24.248
 11
78.8867
 21
24.2148
  0
LINE
  8
0
 10
78.8867
 20
24.2148
 11
78.8896
 21
24.1973
  0
LINE
  8
0
 10
78.8896
 20
24.1973
 11
78.8936
 21
24.1807
  0
LINE
  8
0
 10
78.8936
 20
24.1807
 11
78.8955
 21
24.1641
  0
LINE
  8
0
 10
78.8955
 20
24.1641
 11
78.8984
 21
24.1475
  0
LINE
  8
0
 10
78.8984
 20
24.1475
 11
78.9004
 21
24.1309
  0
LINE
  8
0
 10
78.9004
 20
24.1309
 11
78.9023
 21
24.1133
  0
LINE
  8
0
 10
78.9023
 20
24.1133
 11
78.9043
 21
24.0967
  0
LINE
  8
0
 10
78.9043
 20
24.0967
 11
78.9053
 21
24.0801
  0
LINE
  8
0
 10
78.9053
 20
24.0801
 11
78.9062
 21
24.0625
  0
LINE
  8
0
 10
78.9062
 20
24.0625
 11
78.9072
 21
24.0459
  0
LINE
  8
0
 10
78.9072
 20
24.0459
 11
78.8984
 21
16.5
  0
LINE
  8
0
 10
78.8984
 20
16.5
 11
78.9053
 21
16.5
  0
LINE
  8
0
 10
78.9053
 20
16.5
 11
78.9053
 21
16.4824
  0
LINE
  8
0
 10
78.9053
 20
16.4824
 11
78.9043
 21
16.4648
  0
LINE
  8
0
 10
78.9043
 20
16.4648
 11
78.9043
 21
16.4473
  0
LINE
  8
0
 10
78.9043
 20
16.4473
 11
78.9023
 21
16.4307
  0
LINE
  8
0
 10
78.9023
 20
16.4307
 11
78.9014
 21
16.4131
  0
LINE
  8
0
 10
78.9014
 20
16.4131
 11
78.8955
 21
16.3604
  0
LINE
  8
0
 10
78.8955
 20
16.3604
 11
78.8926
 21
16.3438
  0
LINE
  8
0
 10
78.8926
 20
16.3438
 11
78.8896
 21
16.3262
  0
LINE
  8
0
 10
78.8896
 20
16.3262
 11
78.8867
 21
16.3096
  0
LINE
  8
0
 10
78.8867
 20
16.3096
 11
78.8838
 21
16.292
  0
LINE
  8
0
 10
78.8838
 20
16.292
 11
78.8799
 21
16.2754
  0
LINE
  8
0
 10
78.8799
 20
16.2754
 11
78.875
 21
16.2578
  0
LINE
  8
0
 10
78.875
 20
16.2578
 11
78.8711
 21
16.2412
  0
LINE
  8
0
 10
78.8711
 20
16.2412
 11
78.8564
 21
16.1914
  0
LINE
  8
0
 10
78.8564
 20
16.1914
 11
78.8389
 21
16.1416
  0
LINE
  8
0
 10
78.8389
 20
16.1416
 11
78.832
 21
16.125
  0
LINE
  8
0
 10
78.832
 20
16.125
 11
78.8262
 21
16.1094
  0
LINE
  8
0
 10
78.8262
 20
16.1094
 11
78.8184
 21
16.0938
  0
LINE
  8
0
 10
78.8184
 20
16.0938
 11
78.8115
 21
16.0771
  0
LINE
  8
0
 10
78.8115
 20
16.0771
 11
78.7881
 21
16.0303
  0
LINE
  8
0
 10
78.7881
 20
16.0303
 11
78.7803
 21
16.0156
  0
LINE
  8
0
 10
78.7803
 20
16.0156
 11
78.7715
 21
16
  0
LINE
  8
0
 10
78.7715
 20
16
 11
78.7627
 21
15.9854
  0
LINE
  8
0
 10
78.7627
 20
15.9854
 11
78.7529
 21
15.9697
  0
LINE
  8
0
 10
78.7529
 20
15.9697
 11
78.7441
 21
15.9551
  0
LINE
  8
0
 10
78.7441
 20
15.9551
 11
78.7344
 21
15.9404
  0
LINE
  8
0
 10
78.7344
 20
15.9404
 11
78.7246
 21
15.9268
  0
LINE
  8
0
 10
78.7246
 20
15.9268
 11
78.7139
 21
15.9121
  0
LINE
  8
0
 10
78.7139
 20
15.9121
 11
78.7041
 21
15.8984
  0
LINE
  8
0
 10
78.7041
 20
15.8984
 11
78.6826
 21
15.8711
  0
LINE
  8
0
 10
78.6826
 20
15.8711
 11
78.6709
 21
15.8574
  0
LINE
  8
0
 10
78.6709
 20
15.8574
 11
78.6602
 21
15.8438
  0
LINE
  8
0
 10
78.6602
 20
15.8438
 11
78.625
 21
15.8057
  0
LINE
  8
0
 10
78.625
 20
15.8057
 11
78.5996
 21
15.7803
  0
LINE
  8
0
 10
78.5996
 20
15.7803
 11
78.5615
 21
15.7451
  0
LINE
  8
0
 10
78.5615
 20
15.7451
 11
78.5479
 21
15.7344
  0
LINE
  8
0
 10
78.5479
 20
15.7344
 11
78.5342
 21
15.7227
  0
LINE
  8
0
 10
78.5342
 20
15.7227
 11
78.5068
 21
15.7012
  0
LINE
  8
0
 10
78.5068
 20
15.7012
 11
78.4932
 21
15.6914
  0
LINE
  8
0
 10
78.4932
 20
15.6914
 11
78.4785
 21
15.6807
  0
LINE
  8
0
 10
78.4785
 20
15.6807
 11
78.4648
 21
15.6709
  0
LINE
  8
0
 10
78.4648
 20
15.6709
 11
78.4502
 21
15.6611
  0
LINE
  8
0
 10
78.4502
 20
15.6611
 11
78.4355
 21
15.6523
  0
LINE
  8
0
 10
78.4355
 20
15.6523
 11
78.4199
 21
15.6426
  0
LINE
  8
0
 10
78.4199
 20
15.6426
 11
78.4053
 21
15.6338
  0
LINE
  8
0
 10
78.4053
 20
15.6338
 11
78.3896
 21
15.625
  0
LINE
  8
0
 10
78.3896
 20
15.625
 11
78.375
 21
15.6172
  0
LINE
  8
0
 10
78.375
 20
15.6172
 11
78.3281
 21
15.5938
  0
LINE
  8
0
 10
78.3281
 20
15.5938
 11
78.3115
 21
15.5869
  0
LINE
  8
0
 10
78.3115
 20
15.5869
 11
78.2959
 21
15.5791
  0
LINE
  8
0
 10
78.2959
 20
15.5791
 11
78.2803
 21
15.5732
  0
LINE
  8
0
 10
78.2803
 20
15.5732
 11
78.2637
 21
15.5664
  0
LINE
  8
0
 10
78.2637
 20
15.5664
 11
78.2139
 21
15.5488
  0
LINE
  8
0
 10
78.2139
 20
15.5488
 11
78.1475
 21
15.5293
  0
LINE
  8
0
 10
78.1475
 20
15.5293
 11
78.1299
 21
15.5254
  0
LINE
  8
0
 10
78.1299
 20
15.5254
 11
78.1133
 21
15.5215
  0
LINE
  8
0
 10
78.1133
 20
15.5215
 11
78.0957
 21
15.5186
  0
LINE
  8
0
 10
78.0957
 20
15.5186
 11
78.0791
 21
15.5156
  0
LINE
  8
0
 10
78.0791
 20
15.5156
 11
78.0439
 21
15.5098
  0
LINE
  8
0
 10
78.0439
 20
15.5098
 11
78.0273
 21
15.5078
  0
LINE
  8
0
 10
78.0273
 20
15.5078
 11
77.9746
 21
15.502
  0
LINE
  8
0
 10
77.9746
 20
15.502
 11
77.957
 21
15.501
  0
LINE
  8
0
 10
77.957
 20
15.501
 11
77.9404
 21
15.501
  0
LINE
  8
0
 10
77.9404
 20
15.501
 11
77.9229
 21
15.5
  0
LINE
  8
0
 10
77.9229
 20
15.5
 11
63.3965
 21
15.5
  0
LINE
  8
0
 10
85.4648
 20
14.5508
 11
85.4473
 21
14.5518
  0
LINE
  8
0
 10
85.4473
 20
14.5518
 11
85.4307
 21
14.5527
  0
LINE
  8
0
 10
85.4307
 20
14.5527
 11
85.4131
 21
14.5547
  0
LINE
  8
0
 10
85.4131
 20
14.5547
 11
85.3955
 21
14.5557
  0
LINE
  8
0
 10
85.3955
 20
14.5557
 11
85.3779
 21
14.5576
  0
LINE
  8
0
 10
85.3779
 20
14.5576
 11
85.3604
 21
14.5605
  0
LINE
  8
0
 10
85.3604
 20
14.5605
 11
85.3438
 21
14.5625
  0
LINE
  8
0
 10
85.3438
 20
14.5625
 11
85.3262
 21
14.5654
  0
LINE
  8
0
 10
85.3262
 20
14.5654
 11
85.3096
 21
14.5693
  0
LINE
  8
0
 10
85.3096
 20
14.5693
 11
85.292
 21
14.5723
  0
LINE
  8
0
 10
85.292
 20
14.5723
 11
85.2754
 21
14.5762
  0
LINE
  8
0
 10
85.2754
 20
14.5762
 11
85.2578
 21
14.5801
  0
LINE
  8
0
 10
85.2578
 20
14.5801
 11
85.2412
 21
14.585
  0
LINE
  8
0
 10
85.2412
 20
14.585
 11
85.2246
 21
14.5889
  0
LINE
  8
0
 10
85.2246
 20
14.5889
 11
85.208
 21
14.5947
  0
LINE
  8
0
 10
85.208
 20
14.5947
 11
85.1914
 21
14.5996
  0
LINE
  8
0
 10
85.1914
 20
14.5996
 11
85.125
 21
14.623
  0
LINE
  8
0
 10
85.125
 20
14.623
 11
85.0938
 21
14.6367
  0
LINE
  8
0
 10
85.0938
 20
14.6367
 11
85.0771
 21
14.6445
  0
LINE
  8
0
 10
85.0771
 20
14.6445
 11
85.0615
 21
14.6514
  0
LINE
  8
0
 10
85.0615
 20
14.6514
 11
85.0459
 21
14.6592
  0
LINE
  8
0
 10
85.0459
 20
14.6592
 11
85.0303
 21
14.668
  0
LINE
  8
0
 10
85.0303
 20
14.668
 11
85.0156
 21
14.6758
  0
LINE
  8
0
 10
85.0156
 20
14.6758
 11
85
 21
14.6846
  0
LINE
  8
0
 10
85
 20
14.6846
 11
84.9854
 21
14.6934
  0
LINE
  8
0
 10
84.9854
 20
14.6934
 11
84.9697
 21
14.7021
  0
LINE
  8
0
 10
84.9697
 20
14.7021
 11
84.9404
 21
14.7217
  0
LINE
  8
0
 10
84.9404
 20
14.7217
 11
84.9268
 21
14.7314
  0
LINE
  8
0
 10
84.9268
 20
14.7314
 11
84.9121
 21
14.7412
  0
LINE
  8
0
 10
84.9121
 20
14.7412
 11
84.8574
 21
14.7842
  0
LINE
  8
0
 10
84.8574
 20
14.7842
 11
84.8438
 21
14.7959
  0
LINE
  8
0
 10
84.8438
 20
14.7959
 11
84.8057
 21
14.8311
  0
LINE
  8
0
 10
84.8057
 20
14.8311
 11
84.793
 21
14.8438
  0
LINE
  8
0
 10
84.793
 20
14.8438
 11
84.7803
 21
14.8555
  0
LINE
  8
0
 10
84.7803
 20
14.8555
 11
84.7686
 21
14.8682
  0
LINE
  8
0
 10
84.7686
 20
14.8682
 11
84.7568
 21
14.8818
  0
LINE
  8
0
 10
84.7568
 20
14.8818
 11
84.7451
 21
14.8945
  0
LINE
  8
0
 10
84.7451
 20
14.8945
 11
84.7344
 21
14.9082
  0
LINE
  8
0
 10
84.7344
 20
14.9082
 11
84.7227
 21
14.9209
  0
LINE
  8
0
 10
84.7227
 20
14.9209
 11
84.7119
 21
14.9346
  0
LINE
  8
0
 10
84.7119
 20
14.9346
 11
84.7012
 21
14.9492
  0
LINE
  8
0
 10
84.7012
 20
14.9492
 11
84.6914
 21
14.9629
  0
LINE
  8
0
 10
84.6914
 20
14.9629
 11
84.6807
 21
14.9766
  0
LINE
  8
0
 10
84.6807
 20
14.9766
 11
84.6611
 21
15.0059
  0
LINE
  8
0
 10
84.6611
 20
15.0059
 11
84.6523
 21
15.0205
  0
LINE
  8
0
 10
84.6523
 20
15.0205
 11
84.6426
 21
15.0352
  0
LINE
  8
0
 10
84.6426
 20
15.0352
 11
84.6338
 21
15.0508
  0
LINE
  8
0
 10
84.6338
 20
15.0508
 11
84.625
 21
15.0654
  0
LINE
  8
0
 10
84.625
 20
15.0654
 11
84.5938
 21
15.1279
  0
LINE
  8
0
 10
84.5938
 20
15.1279
 11
84.5869
 21
15.1436
  0
LINE
  8
0
 10
84.5869
 20
15.1436
 11
84.5791
 21
15.1602
  0
LINE
  8
0
 10
84.5791
 20
15.1602
 11
84.5732
 21
15.1758
  0
LINE
  8
0
 10
84.5732
 20
15.1758
 11
84.5664
 21
15.1924
  0
LINE
  8
0
 10
84.5664
 20
15.1924
 11
84.5605
 21
15.209
  0
LINE
  8
0
 10
84.5605
 20
15.209
 11
84.5547
 21
15.2246
  0
LINE
  8
0
 10
84.5547
 20
15.2246
 11
84.5488
 21
15.2412
  0
LINE
  8
0
 10
84.5488
 20
15.2412
 11
84.5439
 21
15.2578
  0
LINE
  8
0
 10
84.5439
 20
15.2578
 11
84.5391
 21
15.2754
  0
LINE
  8
0
 10
84.5391
 20
15.2754
 11
84.5293
 21
15.3086
  0
LINE
  8
0
 10
84.5293
 20
15.3086
 11
84.5254
 21
15.3252
  0
LINE
  8
0
 10
84.5254
 20
15.3252
 11
84.5215
 21
15.3428
  0
LINE
  8
0
 10
84.5215
 20
15.3428
 11
84.5186
 21
15.3594
  0
LINE
  8
0
 10
84.5186
 20
15.3594
 11
84.5127
 21
15.3945
  0
LINE
  8
0
 10
84.5127
 20
15.3945
 11
84.5098
 21
15.4111
  0
LINE
  8
0
 10
84.5098
 20
15.4111
 11
84.5039
 21
15.4639
  0
LINE
  8
0
 10
84.5039
 20
15.4639
 11
84.502
 21
15.4805
  0
LINE
  8
0
 10
84.502
 20
15.4805
 11
84.501
 21
15.498
  0
LINE
  8
0
 10
84.501
 20
15.498
 11
84.501
 21
15.5156
  0
LINE
  8
0
 10
84.501
 20
15.5156
 11
84.5
 21
15.5332
  0
LINE
  8
0
 10
84.5
 20
15.5332
 11
84.5
 21
23.6172
  0
LINE
  8
0
 10
84.5
 20
23.6172
 11
84.501
 21
23.6348
  0
LINE
  8
0
 10
84.501
 20
23.6348
 11
84.501
 21
23.6523
  0
LINE
  8
0
 10
84.501
 20
23.6523
 11
84.502
 21
23.6699
  0
LINE
  8
0
 10
84.502
 20
23.6699
 11
84.5039
 21
23.6865
  0
LINE
  8
0
 10
84.5039
 20
23.6865
 11
84.5098
 21
23.7393
  0
LINE
  8
0
 10
84.5098
 20
23.7393
 11
84.5127
 21
23.7559
  0
LINE
  8
0
 10
84.5127
 20
23.7559
 11
84.5186
 21
23.791
  0
LINE
  8
0
 10
84.5186
 20
23.791
 11
84.5215
 21
23.8076
  0
LINE
  8
0
 10
84.5215
 20
23.8076
 11
84.5254
 21
23.8252
  0
LINE
  8
0
 10
84.5254
 20
23.8252
 11
84.5293
 21
23.8418
  0
LINE
  8
0
 10
84.5293
 20
23.8418
 11
84.5391
 21
23.875
  0
LINE
  8
0
 10
84.5391
 20
23.875
 11
84.5439
 21
23.8926
  0
LINE
  8
0
 10
84.5439
 20
23.8926
 11
84.5488
 21
23.9092
  0
LINE
  8
0
 10
84.5488
 20
23.9092
 11
84.5547
 21
23.9258
  0
LINE
  8
0
 10
84.5547
 20
23.9258
 11
84.5605
 21
23.9414
  0
LINE
  8
0
 10
84.5605
 20
23.9414
 11
84.5664
 21
23.958
  0
LINE
  8
0
 10
84.5664
 20
23.958
 11
84.5732
 21
23.9746
  0
LINE
  8
0
 10
84.5732
 20
23.9746
 11
84.5791
 21
23.9902
  0
LINE
  8
0
 10
84.5791
 20
23.9902
 11
84.5869
 21
24.0068
  0
LINE
  8
0
 10
84.5869
 20
24.0068
 11
84.5938
 21
24.0225
  0
LINE
  8
0
 10
84.5938
 20
24.0225
 11
84.625
 21
24.085
  0
LINE
  8
0
 10
84.625
 20
24.085
 11
84.6338
 21
24.0996
  0
LINE
  8
0
 10
84.6338
 20
24.0996
 11
84.6426
 21
24.1152
  0
LINE
  8
0
 10
84.6426
 20
24.1152
 11
84.6523
 21
24.1299
  0
LINE
  8
0
 10
84.6523
 20
24.1299
 11
84.6611
 21
24.1445
  0
LINE
  8
0
 10
84.6611
 20
24.1445
 11
84.6807
 21
24.1738
  0
LINE
  8
0
 10
84.6807
 20
24.1738
 11
84.6914
 21
24.1875
  0
LINE
  8
0
 10
84.6914
 20
24.1875
 11
84.7012
 21
24.2012
  0
LINE
  8
0
 10
84.7012
 20
24.2012
 11
84.7119
 21
24.2158
  0
LINE
  8
0
 10
84.7119
 20
24.2158
 11
84.7227
 21
24.2295
  0
LINE
  8
0
 10
84.7227
 20
24.2295
 11
84.7344
 21
24.2422
  0
LINE
  8
0
 10
84.7344
 20
24.2422
 11
84.7451
 21
24.2559
  0
LINE
  8
0
 10
84.7451
 20
24.2559
 11
84.7568
 21
24.2686
  0
LINE
  8
0
 10
84.7568
 20
24.2686
 11
84.7686
 21
24.2822
  0
LINE
  8
0
 10
84.7686
 20
24.2822
 11
84.7803
 21
24.2949
  0
LINE
  8
0
 10
84.7803
 20
24.2949
 11
84.793
 21
24.3066
  0
LINE
  8
0
 10
84.793
 20
24.3066
 11
84.8057
 21
24.3193
  0
LINE
  8
0
 10
84.8057
 20
24.3193
 11
84.8438
 21
24.3545
  0
LINE
  8
0
 10
84.8438
 20
24.3545
 11
84.8574
 21
24.3662
  0
LINE
  8
0
 10
84.8574
 20
24.3662
 11
84.9121
 21
24.4092
  0
LINE
  8
0
 10
84.9121
 20
24.4092
 11
84.9268
 21
24.4189
  0
LINE
  8
0
 10
84.9268
 20
24.4189
 11
84.9404
 21
24.4287
  0
LINE
  8
0
 10
84.9404
 20
24.4287
 11
84.9697
 21
24.4482
  0
LINE
  8
0
 10
84.9697
 20
24.4482
 11
84.9854
 21
24.457
  0
LINE
  8
0
 10
84.9854
 20
24.457
 11
85
 21
24.4658
  0
LINE
  8
0
 10
85
 20
24.4658
 11
85.0156
 21
24.4746
  0
LINE
  8
0
 10
85.0156
 20
24.4746
 11
85.0303
 21
24.4824
  0
LINE
  8
0
 10
85.0303
 20
24.4824
 11
85.0459
 21
24.4912
  0
LINE
  8
0
 10
85.0459
 20
24.4912
 11
85.0615
 21
24.499
  0
LINE
  8
0
 10
85.0615
 20
24.499
 11
85.0771
 21
24.5059
  0
LINE
  8
0
 10
85.0771
 20
24.5059
 11
85.0938
 21
24.5137
  0
LINE
  8
0
 10
85.0938
 20
24.5137
 11
85.125
 21
24.5273
  0
LINE
  8
0
 10
85.125
 20
24.5273
 11
85.1914
 21
24.5508
  0
LINE
  8
0
 10
85.1914
 20
24.5508
 11
85.208
 21
24.5557
  0
LINE
  8
0
 10
85.208
 20
24.5557
 11
85.2246
 21
24.5615
  0
LINE
  8
0
 10
85.2246
 20
24.5615
 11
85.2412
 21
24.5654
  0
LINE
  8
0
 10
85.2412
 20
24.5654
 11
85.2578
 21
24.5703
  0
LINE
  8
0
 10
85.2578
 20
24.5703
 11
85.2754
 21
24.5742
  0
LINE
  8
0
 10
85.2754
 20
24.5742
 11
85.292
 21
24.5781
  0
LINE
  8
0
 10
85.292
 20
24.5781
 11
85.3096
 21
24.5811
  0
LINE
  8
0
 10
85.3096
 20
24.5811
 11
85.3262
 21
24.585
  0
LINE
  8
0
 10
85.3262
 20
24.585
 11
85.3438
 21
24.5879
  0
LINE
  8
0
 10
85.3438
 20
24.5879
 11
85.3604
 21
24.5898
  0
LINE
  8
0
 10
85.3604
 20
24.5898
 11
85.3779
 21
24.5928
  0
LINE
  8
0
 10
85.3779
 20
24.5928
 11
85.3955
 21
24.5947
  0
LINE
  8
0
 10
85.3955
 20
24.5947
 11
85.4131
 21
24.5957
  0
LINE
  8
0
 10
85.4131
 20
24.5957
 11
85.4307
 21
24.5977
  0
LINE
  8
0
 10
85.4307
 20
24.5977
 11
85.4473
 21
24.5986
  0
LINE
  8
0
 10
85.4473
 20
24.5986
 11
85.4648
 21
24.5996
  0
LINE
  8
0
 10
85.4648
 20
24.5996
 11
92.0312
 21
24.5996
  0
LINE
  8
0
 10
92.0312
 20
24.5996
 11
92.0664
 21
24.5977
  0
LINE
  8
0
 10
92.0664
 20
24.5977
 11
92.084
 21
24.5957
  0
LINE
  8
0
 10
92.084
 20
24.5957
 11
92.1016
 21
24.5947
  0
LINE
  8
0
 10
92.1016
 20
24.5947
 11
92.1182
 21
24.5928
  0
LINE
  8
0
 10
92.1182
 20
24.5928
 11
92.1357
 21
24.5898
  0
LINE
  8
0
 10
92.1357
 20
24.5898
 11
92.1533
 21
24.5879
  0
LINE
  8
0
 10
92.1533
 20
24.5879
 11
92.1699
 21
24.585
  0
LINE
  8
0
 10
92.1699
 20
24.585
 11
92.1875
 21
24.5811
  0
LINE
  8
0
 10
92.1875
 20
24.5811
 11
92.2041
 21
24.5781
  0
LINE
  8
0
 10
92.2041
 20
24.5781
 11
92.2217
 21
24.5742
  0
LINE
  8
0
 10
92.2217
 20
24.5742
 11
92.2383
 21
24.5703
  0
LINE
  8
0
 10
92.2383
 20
24.5703
 11
92.2559
 21
24.5654
  0
LINE
  8
0
 10
92.2559
 20
24.5654
 11
92.2725
 21
24.5615
  0
LINE
  8
0
 10
92.2725
 20
24.5615
 11
92.2891
 21
24.5557
  0
LINE
  8
0
 10
92.2891
 20
24.5557
 11
92.3057
 21
24.5508
  0
LINE
  8
0
 10
92.3057
 20
24.5508
 11
92.3555
 21
24.5332
  0
LINE
  8
0
 10
92.3555
 20
24.5332
 11
92.3711
 21
24.5273
  0
LINE
  8
0
 10
92.3711
 20
24.5273
 11
92.3877
 21
24.5205
  0
LINE
  8
0
 10
92.3877
 20
24.5205
 11
92.4033
 21
24.5137
  0
LINE
  8
0
 10
92.4033
 20
24.5137
 11
92.4189
 21
24.5059
  0
LINE
  8
0
 10
92.4189
 20
24.5059
 11
92.4346
 21
24.499
  0
LINE
  8
0
 10
92.4346
 20
24.499
 11
92.4502
 21
24.4912
  0
LINE
  8
0
 10
92.4502
 20
24.4912
 11
92.4658
 21
24.4824
  0
LINE
  8
0
 10
92.4658
 20
24.4824
 11
92.4814
 21
24.4746
  0
LINE
  8
0
 10
92.4814
 20
24.4746
 11
92.4971
 21
24.4658
  0
LINE
  8
0
 10
92.4971
 20
24.4658
 11
92.5264
 21
24.4482
  0
LINE
  8
0
 10
92.5264
 20
24.4482
 11
92.5703
 21
24.4189
  0
LINE
  8
0
 10
92.5703
 20
24.4189
 11
92.584
 21
24.4092
  0
LINE
  8
0
 10
92.584
 20
24.4092
 11
92.5986
 21
24.3984
  0
LINE
  8
0
 10
92.5986
 20
24.3984
 11
92.6396
 21
24.3662
  0
LINE
  8
0
 10
92.6396
 20
24.3662
 11
92.6523
 21
24.3545
  0
LINE
  8
0
 10
92.6523
 20
24.3545
 11
92.666
 21
24.3428
  0
LINE
  8
0
 10
92.666
 20
24.3428
 11
92.6914
 21
24.3193
  0
LINE
  8
0
 10
92.6914
 20
24.3193
 11
92.7158
 21
24.2949
  0
LINE
  8
0
 10
92.7158
 20
24.2949
 11
92.7275
 21
24.2822
  0
LINE
  8
0
 10
92.7275
 20
24.2822
 11
92.7402
 21
24.2686
  0
LINE
  8
0
 10
92.7402
 20
24.2686
 11
92.751
 21
24.2559
  0
LINE
  8
0
 10
92.751
 20
24.2559
 11
92.7627
 21
24.2422
  0
LINE
  8
0
 10
92.7627
 20
24.2422
 11
92.7734
 21
24.2295
  0
LINE
  8
0
 10
92.7734
 20
24.2295
 11
92.7842
 21
24.2158
  0
LINE
  8
0
 10
92.7842
 20
24.2158
 11
92.7949
 21
24.2012
  0
LINE
  8
0
 10
92.7949
 20
24.2012
 11
92.8057
 21
24.1875
  0
LINE
  8
0
 10
92.8057
 20
24.1875
 11
92.8154
 21
24.1738
  0
LINE
  8
0
 10
92.8154
 20
24.1738
 11
92.8262
 21
24.1592
  0
LINE
  8
0
 10
92.8262
 20
24.1592
 11
92.835
 21
24.1445
  0
LINE
  8
0
 10
92.835
 20
24.1445
 11
92.8447
 21
24.1299
  0
LINE
  8
0
 10
92.8447
 20
24.1299
 11
92.8535
 21
24.1152
  0
LINE
  8
0
 10
92.8535
 20
24.1152
 11
92.8623
 21
24.0996
  0
LINE
  8
0
 10
92.8623
 20
24.0996
 11
92.8711
 21
24.085
  0
LINE
  8
0
 10
92.8711
 20
24.085
 11
92.8799
 21
24.0693
  0
LINE
  8
0
 10
92.8799
 20
24.0693
 11
92.9033
 21
24.0225
  0
LINE
  8
0
 10
92.9033
 20
24.0225
 11
92.9102
 21
24.0068
  0
LINE
  8
0
 10
92.9102
 20
24.0068
 11
92.917
 21
23.9902
  0
LINE
  8
0
 10
92.917
 20
23.9902
 11
92.9238
 21
23.9746
  0
LINE
  8
0
 10
92.9238
 20
23.9746
 11
92.9307
 21
23.958
  0
LINE
  8
0
 10
92.9307
 20
23.958
 11
92.9365
 21
23.9414
  0
LINE
  8
0
 10
92.9365
 20
23.9414
 11
92.9424
 21
23.9258
  0
LINE
  8
0
 10
92.9424
 20
23.9258
 11
92.9473
 21
23.9092
  0
LINE
  8
0
 10
92.9473
 20
23.9092
 11
92.9531
 21
23.8926
  0
LINE
  8
0
 10
92.9531
 20
23.8926
 11
92.958
 21
23.875
  0
LINE
  8
0
 10
92.958
 20
23.875
 11
92.9629
 21
23.8584
  0
LINE
  8
0
 10
92.9629
 20
23.8584
 11
92.9707
 21
23.8252
  0
LINE
  8
0
 10
92.9707
 20
23.8252
 11
92.9746
 21
23.8076
  0
LINE
  8
0
 10
92.9746
 20
23.8076
 11
92.9785
 21
23.791
  0
LINE
  8
0
 10
92.9785
 20
23.791
 11
92.9844
 21
23.7559
  0
LINE
  8
0
 10
92.9844
 20
23.7559
 11
92.9873
 21
23.7393
  0
LINE
  8
0
 10
92.9873
 20
23.7393
 11
92.9932
 21
23.6865
  0
LINE
  8
0
 10
92.9932
 20
23.6865
 11
92.9941
 21
23.6699
  0
LINE
  8
0
 10
92.9941
 20
23.6699
 11
92.9961
 21
23.6348
  0
LINE
  8
0
 10
92.9961
 20
23.6348
 11
92.9961
 21
23.6172
  0
LINE
  8
0
 10
92.9961
 20
23.6172
 11
92.9971
 21
23.5996
  0
LINE
  8
0
 10
92.9971
 20
23.5996
 11
92.9971
 21
15.5508
  0
LINE
  8
0
 10
92.9971
 20
15.5508
 11
92.9961
 21
15.5332
  0
LINE
  8
0
 10
92.9961
 20
15.5332
 11
92.9961
 21
15.5156
  0
LINE
  8
0
 10
92.9961
 20
15.5156
 11
92.9941
 21
15.4805
  0
LINE
  8
0
 10
92.9941
 20
15.4805
 11
92.9932
 21
15.4639
  0
LINE
  8
0
 10
92.9932
 20
15.4639
 11
92.9873
 21
15.4111
  0
LINE
  8
0
 10
92.9873
 20
15.4111
 11
92.9844
 21
15.3945
  0
LINE
  8
0
 10
92.9844
 20
15.3945
 11
92.9785
 21
15.3594
  0
LINE
  8
0
 10
92.9785
 20
15.3594
 11
92.9746
 21
15.3428
  0
LINE
  8
0
 10
92.9746
 20
15.3428
 11
92.9707
 21
15.3252
  0
LINE
  8
0
 10
92.9707
 20
15.3252
 11
92.9629
 21
15.292
  0
LINE
  8
0
 10
92.9629
 20
15.292
 11
92.958
 21
15.2754
  0
LINE
  8
0
 10
92.958
 20
15.2754
 11
92.9531
 21
15.2578
  0
LINE
  8
0
 10
92.9531
 20
15.2578
 11
92.9473
 21
15.2412
  0
LINE
  8
0
 10
92.9473
 20
15.2412
 11
92.9424
 21
15.2246
  0
LINE
  8
0
 10
92.9424
 20
15.2246
 11
92.9365
 21
15.209
  0
LINE
  8
0
 10
92.9365
 20
15.209
 11
92.9307
 21
15.1924
  0
LINE
  8
0
 10
92.9307
 20
15.1924
 11
92.9238
 21
15.1758
  0
LINE
  8
0
 10
92.9238
 20
15.1758
 11
92.917
 21
15.1602
  0
LINE
  8
0
 10
92.917
 20
15.1602
 11
92.9102
 21
15.1436
  0
LINE
  8
0
 10
92.9102
 20
15.1436
 11
92.9033
 21
15.1279
  0
LINE
  8
0
 10
92.9033
 20
15.1279
 11
92.8799
 21
15.0811
  0
LINE
  8
0
 10
92.8799
 20
15.0811
 11
92.8711
 21
15.0654
  0
LINE
  8
0
 10
92.8711
 20
15.0654
 11
92.8623
 21
15.0508
  0
LINE
  8
0
 10
92.8623
 20
15.0508
 11
92.8535
 21
15.0352
  0
LINE
  8
0
 10
92.8535
 20
15.0352
 11
92.8447
 21
15.0205
  0
LINE
  8
0
 10
92.8447
 20
15.0205
 11
92.835
 21
15.0059
  0
LINE
  8
0
 10
92.835
 20
15.0059
 11
92.8262
 21
14.9912
  0
LINE
  8
0
 10
92.8262
 20
14.9912
 11
92.8154
 21
14.9766
  0
LINE
  8
0
 10
92.8154
 20
14.9766
 11
92.8057
 21
14.9629
  0
LINE
  8
0
 10
92.8057
 20
14.9629
 11
92.7949
 21
14.9492
  0
LINE
  8
0
 10
92.7949
 20
14.9492
 11
92.7842
 21
14.9346
  0
LINE
  8
0
 10
92.7842
 20
14.9346
 11
92.7734
 21
14.9209
  0
LINE
  8
0
 10
92.7734
 20
14.9209
 11
92.7627
 21
14.9082
  0
LINE
  8
0
 10
92.7627
 20
14.9082
 11
92.751
 21
14.8945
  0
LINE
  8
0
 10
92.751
 20
14.8945
 11
92.7402
 21
14.8818
  0
LINE
  8
0
 10
92.7402
 20
14.8818
 11
92.7275
 21
14.8682
  0
LINE
  8
0
 10
92.7275
 20
14.8682
 11
92.7158
 21
14.8555
  0
LINE
  8
0
 10
92.7158
 20
14.8555
 11
92.6914
 21
14.8311
  0
LINE
  8
0
 10
92.6914
 20
14.8311
 11
92.666
 21
14.8076
  0
LINE
  8
0
 10
92.666
 20
14.8076
 11
92.6523
 21
14.7959
  0
LINE
  8
0
 10
92.6523
 20
14.7959
 11
92.6396
 21
14.7842
  0
LINE
  8
0
 10
92.6396
 20
14.7842
 11
92.5986
 21
14.752
  0
LINE
  8
0
 10
92.5986
 20
14.752
 11
92.584
 21
14.7412
  0
LINE
  8
0
 10
92.584
 20
14.7412
 11
92.5703
 21
14.7314
  0
LINE
  8
0
 10
92.5703
 20
14.7314
 11
92.5264
 21
14.7021
  0
LINE
  8
0
 10
92.5264
 20
14.7021
 11
92.4971
 21
14.6846
  0
LINE
  8
0
 10
92.4971
 20
14.6846
 11
92.4814
 21
14.6758
  0
LINE
  8
0
 10
92.4814
 20
14.6758
 11
92.4658
 21
14.668
  0
LINE
  8
0
 10
92.4658
 20
14.668
 11
92.4502
 21
14.6592
  0
LINE
  8
0
 10
92.4502
 20
14.6592
 11
92.4346
 21
14.6514
  0
LINE
  8
0
 10
92.4346
 20
14.6514
 11
92.4189
 21
14.6445
  0
LINE
  8
0
 10
92.4189
 20
14.6445
 11
92.4033
 21
14.6367
  0
LINE
  8
0
 10
92.4033
 20
14.6367
 11
92.3877
 21
14.6299
  0
LINE
  8
0
 10
92.3877
 20
14.6299
 11
92.3711
 21
14.623
  0
LINE
  8
0
 10
92.3711
 20
14.623
 11
92.3555
 21
14.6172
  0
LINE
  8
0
 10
92.3555
 20
14.6172
 11
92.3057
 21
14.5996
  0
LINE
  8
0
 10
92.3057
 20
14.5996
 11
92.2891
 21
14.5947
  0
LINE
  8
0
 10
92.2891
 20
14.5947
 11
92.2725
 21
14.5889
  0
LINE
  8
0
 10
92.2725
 20
14.5889
 11
92.2559
 21
14.585
  0
LINE
  8
0
 10
92.2559
 20
14.585
 11
92.2383
 21
14.5801
  0
LINE
  8
0
 10
92.2383
 20
14.5801
 11
92.2217
 21
14.5762
  0
LINE
  8
0
 10
92.2217
 20
14.5762
 11
92.2041
 21
14.5723
  0
LINE
  8
0
 10
92.2041
 20
14.5723
 11
92.1875
 21
14.5693
  0
LINE
  8
0
 10
92.1875
 20
14.5693
 11
92.1699
 21
14.5654
  0
LINE
  8
0
 10
92.1699
 20
14.5654
 11
92.1533
 21
14.5625
  0
LINE
  8
0
 10
92.1533
 20
14.5625
 11
92.1357
 21
14.5605
  0
LINE
  8
0
 10
92.1357
 20
14.5605
 11
92.1182
 21
14.5576
  0
LINE
  8
0
 10
92.1182
 20
14.5576
 11
92.1016
 21
14.5557
  0
LINE
  8
0
 10
92.1016
 20
14.5557
 11
92.084
 21
14.5547
  0
LINE
  8
0
 10
92.084
 20
14.5547
 11
92.0664
 21
14.5527
  0
LINE
  8
0
 10
92.0664
 20
14.5527
 11
92.0312
 21
14.5508
  0
LINE
  8
0
 10
92.0312
 20
14.5508
 11
85.4648
 21
14.5508
  0
LINE
  8
0
 10
9.04102
 20
10.5
 11
9.02441
 21
10.501
  0
LINE
  8
0
 10
9.02441
 20
10.501
 11
9.00684
 21
10.501
  0
LINE
  8
0
 10
9.00684
 20
10.501
 11
8.98926
 21
10.502
  0
LINE
  8
0
 10
8.98926
 20
10.502
 11
8.93652
 21
10.5078
  0
LINE
  8
0
 10
8.93652
 20
10.5078
 11
8.91992
 21
10.5098
  0
LINE
  8
0
 10
8.91992
 20
10.5098
 11
8.88477
 21
10.5156
  0
LINE
  8
0
 10
8.88477
 20
10.5156
 11
8.86816
 21
10.5186
  0
LINE
  8
0
 10
8.86816
 20
10.5186
 11
8.85059
 21
10.5215
  0
LINE
  8
0
 10
8.85059
 20
10.5215
 11
8.81738
 21
10.5293
  0
LINE
  8
0
 10
8.81738
 20
10.5293
 11
8.7998
 21
10.5342
  0
LINE
  8
0
 10
8.7998
 20
10.5342
 11
8.75
 21
10.5488
  0
LINE
  8
0
 10
8.75
 20
10.5488
 11
8.7002
 21
10.5664
  0
LINE
  8
0
 10
8.7002
 20
10.5664
 11
8.68457
 21
10.5732
  0
LINE
  8
0
 10
8.68457
 20
10.5732
 11
8.66797
 21
10.5791
  0
LINE
  8
0
 10
8.66797
 20
10.5791
 11
8.65234
 21
10.5869
  0
LINE
  8
0
 10
8.65234
 20
10.5869
 11
8.63672
 21
10.5938
  0
LINE
  8
0
 10
8.63672
 20
10.5938
 11
8.62012
 21
10.6016
  0
LINE
  8
0
 10
8.62012
 20
10.6016
 11
8.60449
 21
10.6094
  0
LINE
  8
0
 10
8.60449
 20
10.6094
 11
8.58984
 21
10.6172
  0
LINE
  8
0
 10
8.58984
 20
10.6172
 11
8.57422
 21
10.625
  0
LINE
  8
0
 10
8.57422
 20
10.625
 11
8.55859
 21
10.6338
  0
LINE
  8
0
 10
8.55859
 20
10.6338
 11
8.54395
 21
10.6426
  0
LINE
  8
0
 10
8.54395
 20
10.6426
 11
8.5293
 21
10.6523
  0
LINE
  8
0
 10
8.5293
 20
10.6523
 11
8.51465
 21
10.6611
  0
LINE
  8
0
 10
8.51465
 20
10.6611
 11
8.48535
 21
10.6807
  0
LINE
  8
0
 10
8.48535
 20
10.6807
 11
8.4707
 21
10.6914
  0
LINE
  8
0
 10
8.4707
 20
10.6914
 11
8.45703
 21
10.7012
  0
LINE
  8
0
 10
8.45703
 20
10.7012
 11
8.42969
 21
10.7227
  0
LINE
  8
0
 10
8.42969
 20
10.7227
 11
8.41602
 21
10.7344
  0
LINE
  8
0
 10
8.41602
 20
10.7344
 11
8.40234
 21
10.7451
  0
LINE
  8
0
 10
8.40234
 20
10.7451
 11
8.36426
 21
10.7803
  0
LINE
  8
0
 10
8.36426
 20
10.7803
 11
8.35156
 21
10.793
  0
LINE
  8
0
 10
8.35156
 20
10.793
 11
8.33984
 21
10.8057
  0
LINE
  8
0
 10
8.33984
 20
10.8057
 11
8.32715
 21
10.8184
  0
LINE
  8
0
 10
8.32715
 20
10.8184
 11
8.30371
 21
10.8438
  0
LINE
  8
0
 10
8.30371
 20
10.8438
 11
8.29297
 21
10.8574
  0
LINE
  8
0
 10
8.29297
 20
10.8574
 11
8.28125
 21
10.8711
  0
LINE
  8
0
 10
8.28125
 20
10.8711
 11
8.25977
 21
10.8984
  0
LINE
  8
0
 10
8.25977
 20
10.8984
 11
8.25
 21
10.9121
  0
LINE
  8
0
 10
8.25
 20
10.9121
 11
8.23926
 21
10.9268
  0
LINE
  8
0
 10
8.23926
 20
10.9268
 11
8.22949
 21
10.9404
  0
LINE
  8
0
 10
8.22949
 20
10.9404
 11
8.21973
 21
10.9551
  0
LINE
  8
0
 10
8.21973
 20
10.9551
 11
8.21094
 21
10.9697
  0
LINE
  8
0
 10
8.21094
 20
10.9697
 11
8.20215
 21
10.9854
  0
LINE
  8
0
 10
8.20215
 20
10.9854
 11
8.19238
 21
11
  0
LINE
  8
0
 10
8.19238
 20
11
 11
8.18457
 21
11.0156
  0
LINE
  8
0
 10
8.18457
 20
11.0156
 11
8.17578
 21
11.0303
  0
LINE
  8
0
 10
8.17578
 20
11.0303
 11
8.15234
 21
11.0771
  0
LINE
  8
0
 10
8.15234
 20
11.0771
 11
8.14551
 21
11.0938
  0
LINE
  8
0
 10
8.14551
 20
11.0938
 11
8.13184
 21
11.125
  0
LINE
  8
0
 10
8.13184
 20
11.125
 11
8.125
 21
11.1416
  0
LINE
  8
0
 10
8.125
 20
11.1416
 11
8.10742
 21
11.1914
  0
LINE
  8
0
 10
8.10742
 20
11.1914
 11
8.09277
 21
11.2412
  0
LINE
  8
0
 10
8.09277
 20
11.2412
 11
8.08887
 21
11.2578
  0
LINE
  8
0
 10
8.08887
 20
11.2578
 11
8.08496
 21
11.2754
  0
LINE
  8
0
 10
8.08496
 20
11.2754
 11
8.08105
 21
11.292
  0
LINE
  8
0
 10
8.08105
 20
11.292
 11
8.07715
 21
11.3096
  0
LINE
  8
0
 10
8.07715
 20
11.3096
 11
8.07422
 21
11.3262
  0
LINE
  8
0
 10
8.07422
 20
11.3262
 11
8.07129
 21
11.3438
  0
LINE
  8
0
 10
8.07129
 20
11.3438
 11
8.06836
 21
11.3604
  0
LINE
  8
0
 10
8.06836
 20
11.3604
 11
8.0625
 21
11.4131
  0
LINE
  8
0
 10
8.0625
 20
11.4131
 11
8.06152
 21
11.4307
  0
LINE
  8
0
 10
8.06152
 20
11.4307
 11
8.06055
 21
11.4473
  0
LINE
  8
0
 10
8.06055
 20
11.4473
 11
8.05859
 21
11.4824
  0
LINE
  8
0
 10
8.05859
 20
11.4824
 11
8.04785
 21
23.001
  0
LINE
  8
0
 10
8.04785
 20
23.001
 11
8.04785
 21
23.0361
  0
LINE
  8
0
 10
8.04785
 20
23.0361
 11
8.0498
 21
23.0713
  0
LINE
  8
0
 10
8.0498
 20
23.0713
 11
8.05176
 21
23.0889
  0
LINE
  8
0
 10
8.05176
 20
23.0889
 11
8.05273
 21
23.1055
  0
LINE
  8
0
 10
8.05273
 20
23.1055
 11
8.05469
 21
23.123
  0
LINE
  8
0
 10
8.05469
 20
23.123
 11
8.05762
 21
23.1406
  0
LINE
  8
0
 10
8.05762
 20
23.1406
 11
8.05957
 21
23.1582
  0
LINE
  8
0
 10
8.05957
 20
23.1582
 11
8.0625
 21
23.1748
  0
LINE
  8
0
 10
8.0625
 20
23.1748
 11
8.06641
 21
23.1924
  0
LINE
  8
0
 10
8.06641
 20
23.1924
 11
8.06934
 21
23.209
  0
LINE
  8
0
 10
8.06934
 20
23.209
 11
8.07324
 21
23.2266
  0
LINE
  8
0
 10
8.07324
 20
23.2266
 11
8.07715
 21
23.2432
  0
LINE
  8
0
 10
8.07715
 20
23.2432
 11
8.08203
 21
23.2598
  0
LINE
  8
0
 10
8.08203
 20
23.2598
 11
8.08594
 21
23.2773
  0
LINE
  8
0
 10
8.08594
 20
23.2773
 11
8.09082
 21
23.2939
  0
LINE
  8
0
 10
8.09082
 20
23.2939
 11
8.10254
 21
23.3271
  0
LINE
  8
0
 10
8.10254
 20
23.3271
 11
8.10742
 21
23.3438
  0
LINE
  8
0
 10
8.10742
 20
23.3438
 11
8.11426
 21
23.3594
  0
LINE
  8
0
 10
8.11426
 20
23.3594
 11
8.12012
 21
23.376
  0
LINE
  8
0
 10
8.12012
 20
23.376
 11
8.12695
 21
23.3916
  0
LINE
  8
0
 10
8.12695
 20
23.3916
 11
8.13379
 21
23.4082
  0
LINE
  8
0
 10
8.13379
 20
23.4082
 11
8.1416
 21
23.4238
  0
LINE
  8
0
 10
8.1416
 20
23.4238
 11
8.14844
 21
23.4395
  0
LINE
  8
0
 10
8.14844
 20
23.4395
 11
8.15625
 21
23.4551
  0
LINE
  8
0
 10
8.15625
 20
23.4551
 11
8.16504
 21
23.4707
  0
LINE
  8
0
 10
8.16504
 20
23.4707
 11
8.17285
 21
23.4863
  0
LINE
  8
0
 10
8.17285
 20
23.4863
 11
8.18164
 21
23.501
  0
LINE
  8
0
 10
8.18164
 20
23.501
 11
8.19043
 21
23.5166
  0
LINE
  8
0
 10
8.19043
 20
23.5166
 11
8.19922
 21
23.5312
  0
LINE
  8
0
 10
8.19922
 20
23.5312
 11
8.22852
 21
23.5752
  0
LINE
  8
0
 10
8.22852
 20
23.5752
 11
8.23828
 21
23.5889
  0
LINE
  8
0
 10
8.23828
 20
23.5889
 11
8.24902
 21
23.6035
  0
LINE
  8
0
 10
8.24902
 20
23.6035
 11
8.28125
 21
23.6445
  0
LINE
  8
0
 10
8.28125
 20
23.6445
 11
8.29297
 21
23.6572
  0
LINE
  8
0
 10
8.29297
 20
23.6572
 11
8.30469
 21
23.6709
  0
LINE
  8
0
 10
8.30469
 20
23.6709
 11
8.32812
 21
23.6963
  0
LINE
  8
0
 10
8.32812
 20
23.6963
 11
8.34082
 21
23.708
  0
LINE
  8
0
 10
8.34082
 20
23.708
 11
8.35254
 21
23.7207
  0
LINE
  8
0
 10
8.35254
 20
23.7207
 11
8.36523
 21
23.7324
  0
LINE
  8
0
 10
8.36523
 20
23.7324
 11
8.37891
 21
23.7441
  0
LINE
  8
0
 10
8.37891
 20
23.7441
 11
8.3916
 21
23.7559
  0
LINE
  8
0
 10
8.3916
 20
23.7559
 11
8.40527
 21
23.7676
  0
LINE
  8
0
 10
8.40527
 20
23.7676
 11
8.41797
 21
23.7783
  0
LINE
  8
0
 10
8.41797
 20
23.7783
 11
8.44531
 21
23.7998
  0
LINE
  8
0
 10
8.44531
 20
23.7998
 11
8.45996
 21
23.8105
  0
LINE
  8
0
 10
8.45996
 20
23.8105
 11
8.47363
 21
23.8203
  0
LINE
  8
0
 10
8.47363
 20
23.8203
 11
8.51758
 21
23.8496
  0
LINE
  8
0
 10
8.51758
 20
23.8496
 11
8.53223
 21
23.8584
  0
LINE
  8
0
 10
8.53223
 20
23.8584
 11
8.54785
 21
23.8672
  0
LINE
  8
0
 10
8.54785
 20
23.8672
 11
8.5625
 21
23.876
  0
LINE
  8
0
 10
8.5625
 20
23.876
 11
8.57812
 21
23.8838
  0
LINE
  8
0
 10
8.57812
 20
23.8838
 11
8.59375
 21
23.8926
  0
LINE
  8
0
 10
8.59375
 20
23.8926
 11
8.60938
 21
23.9004
  0
LINE
  8
0
 10
8.60938
 20
23.9004
 11
8.625
 21
23.9072
  0
LINE
  8
0
 10
8.625
 20
23.9072
 11
8.64062
 21
23.915
  0
LINE
  8
0
 10
8.64062
 20
23.915
 11
8.65723
 21
23.9219
  0
LINE
  8
0
 10
8.65723
 20
23.9219
 11
8.67285
 21
23.9287
  0
LINE
  8
0
 10
8.67285
 20
23.9287
 11
8.68945
 21
23.9346
  0
LINE
  8
0
 10
8.68945
 20
23.9346
 11
8.70508
 21
23.9414
  0
LINE
  8
0
 10
8.70508
 20
23.9414
 11
8.72168
 21
23.9473
  0
LINE
  8
0
 10
8.72168
 20
23.9473
 11
8.73828
 21
23.9521
  0
LINE
  8
0
 10
8.73828
 20
23.9521
 11
8.75488
 21
23.958
  0
LINE
  8
0
 10
8.75488
 20
23.958
 11
8.77148
 21
23.9629
  0
LINE
  8
0
 10
8.77148
 20
23.9629
 11
8.78906
 21
23.9668
  0
LINE
  8
0
 10
8.78906
 20
23.9668
 11
8.80566
 21
23.9717
  0
LINE
  8
0
 10
8.80566
 20
23.9717
 11
8.82227
 21
23.9756
  0
LINE
  8
0
 10
8.82227
 20
23.9756
 11
8.83984
 21
23.9795
  0
LINE
  8
0
 10
8.83984
 20
23.9795
 11
8.85645
 21
23.9834
  0
LINE
  8
0
 10
8.85645
 20
23.9834
 11
8.8916
 21
23.9893
  0
LINE
  8
0
 10
8.8916
 20
23.9893
 11
8.9082
 21
23.9912
  0
LINE
  8
0
 10
8.9082
 20
23.9912
 11
8.92578
 21
23.9941
  0
LINE
  8
0
 10
8.92578
 20
23.9941
 11
8.94336
 21
23.9961
  0
LINE
  8
0
 10
8.94336
 20
23.9961
 11
8.95996
 21
23.9971
  0
LINE
  8
0
 10
8.95996
 20
23.9971
 11
8.97754
 21
23.999
  0
LINE
  8
0
 10
8.97754
 20
23.999
 11
9.0127
 21
24.001
  0
LINE
  8
0
 10
9.0127
 20
24.001
 11
22.541
 21
24.002
  0
LINE
  8
0
 10
22.541
 20
24.002
 11
22.5586
 21
24.001
  0
LINE
  8
0
 10
22.5586
 20
24.001
 11
22.5762
 21
24.001
  0
LINE
  8
0
 10
22.5762
 20
24.001
 11
22.6289
 21
23.998
  0
LINE
  8
0
 10
22.6289
 20
23.998
 11
22.6455
 21
23.9961
  0
LINE
  8
0
 10
22.6455
 20
23.9961
 11
22.6807
 21
23.9922
  0
LINE
  8
0
 10
22.6807
 20
23.9922
 11
22.6982
 21
23.9893
  0
LINE
  8
0
 10
22.6982
 20
23.9893
 11
22.7148
 21
23.9863
  0
LINE
  8
0
 10
22.7148
 20
23.9863
 11
22.7324
 21
23.9834
  0
LINE
  8
0
 10
22.7324
 20
23.9834
 11
22.749
 21
23.9795
  0
LINE
  8
0
 10
22.749
 20
23.9795
 11
22.7666
 21
23.9756
  0
LINE
  8
0
 10
22.7666
 20
23.9756
 11
22.7998
 21
23.9678
  0
LINE
  8
0
 10
22.7998
 20
23.9678
 11
22.8174
 21
23.9629
  0
LINE
  8
0
 10
22.8174
 20
23.9629
 11
22.834
 21
23.958
  0
LINE
  8
0
 10
22.834
 20
23.958
 11
22.8506
 21
23.9521
  0
LINE
  8
0
 10
22.8506
 20
23.9521
 11
22.8672
 21
23.9473
  0
LINE
  8
0
 10
22.8672
 20
23.9473
 11
22.8838
 21
23.9414
  0
LINE
  8
0
 10
22.8838
 20
23.9414
 11
22.8994
 21
23.9346
  0
LINE
  8
0
 10
22.8994
 20
23.9346
 11
22.916
 21
23.9287
  0
LINE
  8
0
 10
22.916
 20
23.9287
 11
22.9326
 21
23.9219
  0
LINE
  8
0
 10
22.9326
 20
23.9219
 11
22.9639
 21
23.9082
  0
LINE
  8
0
 10
22.9639
 20
23.9082
 11
23.0107
 21
23.8848
  0
LINE
  8
0
 10
23.0107
 20
23.8848
 11
23.0264
 21
23.876
  0
LINE
  8
0
 10
23.0264
 20
23.876
 11
23.041
 21
23.8672
  0
LINE
  8
0
 10
23.041
 20
23.8672
 11
23.0566
 21
23.8584
  0
LINE
  8
0
 10
23.0566
 20
23.8584
 11
23.0713
 21
23.8496
  0
LINE
  8
0
 10
23.0713
 20
23.8496
 11
23.1152
 21
23.8203
  0
LINE
  8
0
 10
23.1152
 20
23.8203
 11
23.1289
 21
23.8105
  0
LINE
  8
0
 10
23.1289
 20
23.8105
 11
23.1436
 21
23.7998
  0
LINE
  8
0
 10
23.1436
 20
23.7998
 11
23.1846
 21
23.7676
  0
LINE
  8
0
 10
23.1846
 20
23.7676
 11
23.1973
 21
23.7559
  0
LINE
  8
0
 10
23.1973
 20
23.7559
 11
23.2109
 21
23.7441
  0
LINE
  8
0
 10
23.2109
 20
23.7441
 11
23.249
 21
23.709
  0
LINE
  8
0
 10
23.249
 20
23.709
 11
23.2842
 21
23.6709
  0
LINE
  8
0
 10
23.2842
 20
23.6709
 11
23.2959
 21
23.6572
  0
LINE
  8
0
 10
23.2959
 20
23.6572
 11
23.3076
 21
23.6445
  0
LINE
  8
0
 10
23.3076
 20
23.6445
 11
23.3398
 21
23.6035
  0
LINE
  8
0
 10
23.3398
 20
23.6035
 11
23.3506
 21
23.5889
  0
LINE
  8
0
 10
23.3506
 20
23.5889
 11
23.3604
 21
23.5752
  0
LINE
  8
0
 10
23.3604
 20
23.5752
 11
23.3896
 21
23.5312
  0
LINE
  8
0
 10
23.3896
 20
23.5312
 11
23.4072
 21
23.502
  0
LINE
  8
0
 10
23.4072
 20
23.502
 11
23.4248
 21
23.4707
  0
LINE
  8
0
 10
23.4248
 20
23.4707
 11
23.4404
 21
23.4395
  0
LINE
  8
0
 10
23.4404
 20
23.4395
 11
23.4473
 21
23.4238
  0
LINE
  8
0
 10
23.4473
 20
23.4238
 11
23.4551
 21
23.4082
  0
LINE
  8
0
 10
23.4551
 20
23.4082
 11
23.4619
 21
23.3926
  0
LINE
  8
0
 10
23.4619
 20
23.3926
 11
23.4688
 21
23.376
  0
LINE
  8
0
 10
23.4688
 20
23.376
 11
23.4746
 21
23.3594
  0
LINE
  8
0
 10
23.4746
 20
23.3594
 11
23.4814
 21
23.3438
  0
LINE
  8
0
 10
23.4814
 20
23.3438
 11
23.4873
 21
23.3271
  0
LINE
  8
0
 10
23.4873
 20
23.3271
 11
23.4922
 21
23.3105
  0
LINE
  8
0
 10
23.4922
 20
23.3105
 11
23.498
 21
23.2939
  0
LINE
  8
0
 10
23.498
 20
23.2939
 11
23.5078
 21
23.2607
  0
LINE
  8
0
 10
23.5078
 20
23.2607
 11
23.5117
 21
23.2432
  0
LINE
  8
0
 10
23.5117
 20
23.2432
 11
23.5156
 21
23.2266
  0
LINE
  8
0
 10
23.5156
 20
23.2266
 11
23.5195
 21
23.209
  0
LINE
  8
0
 10
23.5195
 20
23.209
 11
23.5234
 21
23.1924
  0
LINE
  8
0
 10
23.5234
 20
23.1924
 11
23.5264
 21
23.1748
  0
LINE
  8
0
 10
23.5264
 20
23.1748
 11
23.5293
 21
23.1582
  0
LINE
  8
0
 10
23.5293
 20
23.1582
 11
23.5312
 21
23.1406
  0
LINE
  8
0
 10
23.5312
 20
23.1406
 11
23.5342
 21
23.123
  0
LINE
  8
0
 10
23.5342
 20
23.123
 11
23.5361
 21
23.1064
  0
LINE
  8
0
 10
23.5361
 20
23.1064
 11
23.5381
 21
23.0889
  0
LINE
  8
0
 10
23.5381
 20
23.0889
 11
23.541
 21
23.0361
  0
LINE
  8
0
 10
23.541
 20
23.0361
 11
23.542
 21
11.4648
  0
LINE
  8
0
 10
23.542
 20
11.4648
 11
23.541
 21
11.4473
  0
LINE
  8
0
 10
23.541
 20
11.4473
 11
23.54
 21
11.4307
  0
LINE
  8
0
 10
23.54
 20
11.4307
 11
23.5381
 21
11.4131
  0
LINE
  8
0
 10
23.5381
 20
11.4131
 11
23.5371
 21
11.3955
  0
LINE
  8
0
 10
23.5371
 20
11.3955
 11
23.5352
 21
11.3779
  0
LINE
  8
0
 10
23.5352
 20
11.3779
 11
23.5322
 21
11.3604
  0
LINE
  8
0
 10
23.5322
 20
11.3604
 11
23.5303
 21
11.3438
  0
LINE
  8
0
 10
23.5303
 20
11.3438
 11
23.5273
 21
11.3262
  0
LINE
  8
0
 10
23.5273
 20
11.3262
 11
23.5234
 21
11.3096
  0
LINE
  8
0
 10
23.5234
 20
11.3096
 11
23.5205
 21
11.292
  0
LINE
  8
0
 10
23.5205
 20
11.292
 11
23.5166
 21
11.2754
  0
LINE
  8
0
 10
23.5166
 20
11.2754
 11
23.5127
 21
11.2578
  0
LINE
  8
0
 10
23.5127
 20
11.2578
 11
23.4932
 21
11.1914
  0
LINE
  8
0
 10
23.4932
 20
11.1914
 11
23.4697
 21
11.125
  0
LINE
  8
0
 10
23.4697
 20
11.125
 11
23.4561
 21
11.0938
  0
LINE
  8
0
 10
23.4561
 20
11.0938
 11
23.4482
 21
11.0771
  0
LINE
  8
0
 10
23.4482
 20
11.0771
 11
23.4414
 21
11.0615
  0
LINE
  8
0
 10
23.4414
 20
11.0615
 11
23.4336
 21
11.0459
  0
LINE
  8
0
 10
23.4336
 20
11.0459
 11
23.4248
 21
11.0303
  0
LINE
  8
0
 10
23.4248
 20
11.0303
 11
23.417
 21
11.0156
  0
LINE
  8
0
 10
23.417
 20
11.0156
 11
23.4082
 21
11
  0
LINE
  8
0
 10
23.4082
 20
11
 11
23.3994
 21
10.9854
  0
LINE
  8
0
 10
23.3994
 20
10.9854
 11
23.3906
 21
10.9697
  0
LINE
  8
0
 10
23.3906
 20
10.9697
 11
23.3711
 21
10.9404
  0
LINE
  8
0
 10
23.3711
 20
10.9404
 11
23.3613
 21
10.9268
  0
LINE
  8
0
 10
23.3613
 20
10.9268
 11
23.3516
 21
10.9121
  0
LINE
  8
0
 10
23.3516
 20
10.9121
 11
23.3086
 21
10.8574
  0
LINE
  8
0
 10
23.3086
 20
10.8574
 11
23.2969
 21
10.8438
  0
LINE
  8
0
 10
23.2969
 20
10.8438
 11
23.2617
 21
10.8057
  0
LINE
  8
0
 10
23.2617
 20
10.8057
 11
23.2246
 21
10.7686
  0
LINE
  8
0
 10
23.2246
 20
10.7686
 11
23.2109
 21
10.7568
  0
LINE
  8
0
 10
23.2109
 20
10.7568
 11
23.1982
 21
10.7451
  0
LINE
  8
0
 10
23.1982
 20
10.7451
 11
23.1846
 21
10.7344
  0
LINE
  8
0
 10
23.1846
 20
10.7344
 11
23.1719
 21
10.7227
  0
LINE
  8
0
 10
23.1719
 20
10.7227
 11
23.1582
 21
10.7119
  0
LINE
  8
0
 10
23.1582
 20
10.7119
 11
23.1436
 21
10.7012
  0
LINE
  8
0
 10
23.1436
 20
10.7012
 11
23.1299
 21
10.6914
  0
LINE
  8
0
 10
23.1299
 20
10.6914
 11
23.1152
 21
10.6807
  0
LINE
  8
0
 10
23.1152
 20
10.6807
 11
23.1016
 21
10.6709
  0
LINE
  8
0
 10
23.1016
 20
10.6709
 11
23.0869
 21
10.6611
  0
LINE
  8
0
 10
23.0869
 20
10.6611
 11
23.0723
 21
10.6523
  0
LINE
  8
0
 10
23.0723
 20
10.6523
 11
23.0576
 21
10.6426
  0
LINE
  8
0
 10
23.0576
 20
10.6426
 11
23.042
 21
10.6338
  0
LINE
  8
0
 10
23.042
 20
10.6338
 11
23.0273
 21
10.625
  0
LINE
  8
0
 10
23.0273
 20
10.625
 11
22.9648
 21
10.5938
  0
LINE
  8
0
 10
22.9648
 20
10.5938
 11
22.9492
 21
10.5869
  0
LINE
  8
0
 10
22.9492
 20
10.5869
 11
22.9326
 21
10.5791
  0
LINE
  8
0
 10
22.9326
 20
10.5791
 11
22.917
 21
10.5732
  0
LINE
  8
0
 10
22.917
 20
10.5732
 11
22.9004
 21
10.5664
  0
LINE
  8
0
 10
22.9004
 20
10.5664
 11
22.8838
 21
10.5605
  0
LINE
  8
0
 10
22.8838
 20
10.5605
 11
22.8682
 21
10.5547
  0
LINE
  8
0
 10
22.8682
 20
10.5547
 11
22.8516
 21
10.5488
  0
LINE
  8
0
 10
22.8516
 20
10.5488
 11
22.835
 21
10.5439
  0
LINE
  8
0
 10
22.835
 20
10.5439
 11
22.8174
 21
10.5391
  0
LINE
  8
0
 10
22.8174
 20
10.5391
 11
22.7842
 21
10.5293
  0
LINE
  8
0
 10
22.7842
 20
10.5293
 11
22.7666
 21
10.5254
  0
LINE
  8
0
 10
22.7666
 20
10.5254
 11
22.75
 21
10.5215
  0
LINE
  8
0
 10
22.75
 20
10.5215
 11
22.7334
 21
10.5186
  0
LINE
  8
0
 10
22.7334
 20
10.5186
 11
22.6982
 21
10.5127
  0
LINE
  8
0
 10
22.6982
 20
10.5127
 11
22.6816
 21
10.5098
  0
LINE
  8
0
 10
22.6816
 20
10.5098
 11
22.6289
 21
10.5039
  0
LINE
  8
0
 10
22.6289
 20
10.5039
 11
22.6123
 21
10.502
  0
LINE
  8
0
 10
22.6123
 20
10.502
 11
22.5947
 21
10.501
  0
LINE
  8
0
 10
22.5947
 20
10.501
 11
22.5771
 21
10.501
  0
LINE
  8
0
 10
22.5771
 20
10.501
 11
22.5596
 21
10.5
  0
LINE
  8
0
 10
22.5596
 20
10.5
 11
9.04102
 21
10.5
  0
ENDSEC
  0
SECTION
  2
OBJECTS
  0
DICTIONARY
  0
ENDSEC
  0
EOF
