  0
SECTION
  2
BLOCKS
  0
ENDSEC
  0
SECTION
  2
ENTITIES
  0
LINE
  8
0
 10
100.95
 20
25
 11
104.477
 21
25
  0
LINE
  8
0
 10
104.477
 20
25
 11
104.528
 21
25.002
  0
LINE
  8
0
 10
104.528
 20
25.002
 11
104.581
 21
25.0059
  0
LINE
  8
0
 10
104.581
 20
25.0059
 11
104.606
 21
25.0078
  0
LINE
  8
0
 10
104.606
 20
25.0078
 11
104.633
 21
25.0107
  0
LINE
  8
0
 10
104.633
 20
25.0107
 11
104.659
 21
25.0146
  0
LINE
  8
0
 10
104.659
 20
25.0146
 11
104.685
 21
25.0186
  0
LINE
  8
0
 10
104.685
 20
25.0186
 11
104.711
 21
25.0225
  0
LINE
  8
0
 10
104.711
 20
25.0225
 11
104.736
 21
25.0273
  0
LINE
  8
0
 10
104.736
 20
25.0273
 11
104.762
 21
25.0332
  0
LINE
  8
0
 10
104.762
 20
25.0332
 11
104.787
 21
25.0381
  0
LINE
  8
0
 10
104.787
 20
25.0381
 11
104.812
 21
25.0449
  0
LINE
  8
0
 10
104.812
 20
25.0449
 11
104.838
 21
25.0508
  0
LINE
  8
0
 10
104.838
 20
25.0508
 11
104.863
 21
25.0586
  0
LINE
  8
0
 10
104.863
 20
25.0586
 11
104.889
 21
25.0654
  0
LINE
  8
0
 10
104.889
 20
25.0654
 11
104.913
 21
25.0732
  0
LINE
  8
0
 10
104.913
 20
25.0732
 11
104.938
 21
25.082
  0
LINE
  8
0
 10
104.938
 20
25.082
 11
104.987
 21
25.0996
  0
LINE
  8
0
 10
104.987
 20
25.0996
 11
105.036
 21
25.1191
  0
LINE
  8
0
 10
105.036
 20
25.1191
 11
105.061
 21
25.1299
  0
LINE
  8
0
 10
105.061
 20
25.1299
 11
105.107
 21
25.1514
  0
LINE
  8
0
 10
105.107
 20
25.1514
 11
105.131
 21
25.1631
  0
LINE
  8
0
 10
105.131
 20
25.1631
 11
105.154
 21
25.1758
  0
LINE
  8
0
 10
105.154
 20
25.1758
 11
105.177
 21
25.1885
  0
LINE
  8
0
 10
105.177
 20
25.1885
 11
105.2
 21
25.2012
  0
LINE
  8
0
 10
105.2
 20
25.2012
 11
105.223
 21
25.2139
  0
LINE
  8
0
 10
105.223
 20
25.2139
 11
105.245
 21
25.2275
  0
LINE
  8
0
 10
105.245
 20
25.2275
 11
105.267
 21
25.2422
  0
LINE
  8
0
 10
105.267
 20
25.2422
 11
105.289
 21
25.2568
  0
LINE
  8
0
 10
105.289
 20
25.2568
 11
105.332
 21
25.2861
  0
LINE
  8
0
 10
105.332
 20
25.2861
 11
105.353
 21
25.3018
  0
LINE
  8
0
 10
105.353
 20
25.3018
 11
105.373
 21
25.3184
  0
LINE
  8
0
 10
105.373
 20
25.3184
 11
105.394
 21
25.334
  0
LINE
  8
0
 10
105.394
 20
25.334
 11
105.414
 21
25.3506
  0
LINE
  8
0
 10
105.414
 20
25.3506
 11
105.435
 21
25.3682
  0
LINE
  8
0
 10
105.435
 20
25.3682
 11
105.454
 21
25.3857
  0
LINE
  8
0
 10
105.454
 20
25.3857
 11
105.473
 21
25.4033
  0
LINE
  8
0
 10
105.473
 20
25.4033
 11
105.492
 21
25.4209
  0
LINE
  8
0
 10
105.492
 20
25.4209
 11
105.529
 21
25.458
  0
LINE
  8
0
 10
105.529
 20
25.458
 11
105.547
 21
25.4766
  0
LINE
  8
0
 10
105.547
 20
25.4766
 11
105.582
 21
25.5156
  0
LINE
  8
0
 10
105.582
 20
25.5156
 11
105.599
 21
25.5361
  0
LINE
  8
0
 10
105.599
 20
25.5361
 11
105.615
 21
25.5557
  0
LINE
  8
0
 10
105.615
 20
25.5557
 11
105.632
 21
25.5762
  0
LINE
  8
0
 10
105.632
 20
25.5762
 11
105.648
 21
25.5977
  0
LINE
  8
0
 10
105.648
 20
25.5977
 11
105.663
 21
25.6182
  0
LINE
  8
0
 10
105.663
 20
25.6182
 11
105.679
 21
25.6396
  0
LINE
  8
0
 10
105.679
 20
25.6396
 11
105.708
 21
25.6826
  0
LINE
  8
0
 10
105.708
 20
25.6826
 11
105.749
 21
25.75
  0
LINE
  8
0
 10
105.749
 20
25.75
 11
105.762
 21
25.7725
  0
LINE
  8
0
 10
105.762
 20
25.7725
 11
105.774
 21
25.7959
  0
LINE
  8
0
 10
105.774
 20
25.7959
 11
105.81
 21
25.8662
  0
LINE
  8
0
 10
105.81
 20
25.8662
 11
105.82
 21
25.8896
  0
LINE
  8
0
 10
105.82
 20
25.8896
 11
105.831
 21
25.9141
  0
LINE
  8
0
 10
105.831
 20
25.9141
 11
105.851
 21
25.9629
  0
LINE
  8
0
 10
105.851
 20
25.9629
 11
105.877
 21
26.0361
  0
LINE
  8
0
 10
105.877
 20
26.0361
 11
105.885
 21
26.0615
  0
LINE
  8
0
 10
105.885
 20
26.0615
 11
105.892
 21
26.0869
  0
LINE
  8
0
 10
105.892
 20
26.0869
 11
105.898
 21
26.1113
  0
LINE
  8
0
 10
105.898
 20
26.1113
 11
105.905
 21
26.1367
  0
LINE
  8
0
 10
105.905
 20
26.1367
 11
105.911
 21
26.1621
  0
LINE
  8
0
 10
105.911
 20
26.1621
 11
105.917
 21
26.1885
  0
LINE
  8
0
 10
105.917
 20
26.1885
 11
105.923
 21
26.2139
  0
LINE
  8
0
 10
105.923
 20
26.2139
 11
105.927
 21
26.2393
  0
LINE
  8
0
 10
105.927
 20
26.2393
 11
105.932
 21
26.2656
  0
LINE
  8
0
 10
105.932
 20
26.2656
 11
105.936
 21
26.291
  0
LINE
  8
0
 10
105.936
 20
26.291
 11
105.938
 21
26.3174
  0
LINE
  8
0
 10
105.938
 20
26.3174
 11
105.941
 21
26.3428
  0
LINE
  8
0
 10
105.941
 20
26.3428
 11
105.944
 21
26.3691
  0
LINE
  8
0
 10
105.944
 20
26.3691
 11
105.948
 21
26.4219
  0
LINE
  8
0
 10
105.948
 20
26.4219
 11
105.95
 21
26.4736
  0
LINE
  8
0
 10
105.95
 20
26.4736
 11
105.95
 21
33.5264
  0
LINE
  8
0
 10
105.95
 20
33.5264
 11
105.948
 21
33.5781
  0
LINE
  8
0
 10
105.948
 20
33.5781
 11
105.944
 21
33.6309
  0
LINE
  8
0
 10
105.944
 20
33.6309
 11
105.941
 21
33.6572
  0
LINE
  8
0
 10
105.941
 20
33.6572
 11
105.938
 21
33.6826
  0
LINE
  8
0
 10
105.938
 20
33.6826
 11
105.936
 21
33.709
  0
LINE
  8
0
 10
105.936
 20
33.709
 11
105.932
 21
33.7344
  0
LINE
  8
0
 10
105.932
 20
33.7344
 11
105.927
 21
33.7607
  0
LINE
  8
0
 10
105.927
 20
33.7607
 11
105.923
 21
33.7861
  0
LINE
  8
0
 10
105.923
 20
33.7861
 11
105.917
 21
33.8115
  0
LINE
  8
0
 10
105.917
 20
33.8115
 11
105.911
 21
33.8379
  0
LINE
  8
0
 10
105.911
 20
33.8379
 11
105.905
 21
33.8633
  0
LINE
  8
0
 10
105.905
 20
33.8633
 11
105.898
 21
33.8887
  0
LINE
  8
0
 10
105.898
 20
33.8887
 11
105.892
 21
33.9131
  0
LINE
  8
0
 10
105.892
 20
33.9131
 11
105.885
 21
33.9385
  0
LINE
  8
0
 10
105.885
 20
33.9385
 11
105.877
 21
33.9639
  0
LINE
  8
0
 10
105.877
 20
33.9639
 11
105.851
 21
34.0371
  0
LINE
  8
0
 10
105.851
 20
34.0371
 11
105.831
 21
34.0859
  0
LINE
  8
0
 10
105.831
 20
34.0859
 11
105.82
 21
34.1104
  0
LINE
  8
0
 10
105.82
 20
34.1104
 11
105.81
 21
34.1338
  0
LINE
  8
0
 10
105.81
 20
34.1338
 11
105.774
 21
34.2041
  0
LINE
  8
0
 10
105.774
 20
34.2041
 11
105.762
 21
34.2275
  0
LINE
  8
0
 10
105.762
 20
34.2275
 11
105.749
 21
34.25
  0
LINE
  8
0
 10
105.749
 20
34.25
 11
105.708
 21
34.3174
  0
LINE
  8
0
 10
105.708
 20
34.3174
 11
105.679
 21
34.3604
  0
LINE
  8
0
 10
105.679
 20
34.3604
 11
105.663
 21
34.3818
  0
LINE
  8
0
 10
105.663
 20
34.3818
 11
105.648
 21
34.4023
  0
LINE
  8
0
 10
105.648
 20
34.4023
 11
105.632
 21
34.4238
  0
LINE
  8
0
 10
105.632
 20
34.4238
 11
105.615
 21
34.4443
  0
LINE
  8
0
 10
105.615
 20
34.4443
 11
105.599
 21
34.4639
  0
LINE
  8
0
 10
105.599
 20
34.4639
 11
105.582
 21
34.4844
  0
LINE
  8
0
 10
105.582
 20
34.4844
 11
105.547
 21
34.5234
  0
LINE
  8
0
 10
105.547
 20
34.5234
 11
105.529
 21
34.542
  0
LINE
  8
0
 10
105.529
 20
34.542
 11
105.492
 21
34.5791
  0
LINE
  8
0
 10
105.492
 20
34.5791
 11
105.473
 21
34.5967
  0
LINE
  8
0
 10
105.473
 20
34.5967
 11
105.454
 21
34.6143
  0
LINE
  8
0
 10
105.454
 20
34.6143
 11
105.435
 21
34.6318
  0
LINE
  8
0
 10
105.435
 20
34.6318
 11
105.414
 21
34.6494
  0
LINE
  8
0
 10
105.414
 20
34.6494
 11
105.394
 21
34.666
  0
LINE
  8
0
 10
105.394
 20
34.666
 11
105.373
 21
34.6816
  0
LINE
  8
0
 10
105.373
 20
34.6816
 11
105.353
 21
34.6982
  0
LINE
  8
0
 10
105.353
 20
34.6982
 11
105.332
 21
34.7139
  0
LINE
  8
0
 10
105.332
 20
34.7139
 11
105.289
 21
34.7432
  0
LINE
  8
0
 10
105.289
 20
34.7432
 11
105.267
 21
34.7578
  0
LINE
  8
0
 10
105.267
 20
34.7578
 11
105.245
 21
34.7725
  0
LINE
  8
0
 10
105.245
 20
34.7725
 11
105.223
 21
34.7861
  0
LINE
  8
0
 10
105.223
 20
34.7861
 11
105.2
 21
34.7988
  0
LINE
  8
0
 10
105.2
 20
34.7988
 11
105.177
 21
34.8115
  0
LINE
  8
0
 10
105.177
 20
34.8115
 11
105.154
 21
34.8242
  0
LINE
  8
0
 10
105.154
 20
34.8242
 11
105.131
 21
34.8369
  0
LINE
  8
0
 10
105.131
 20
34.8369
 11
105.107
 21
34.8486
  0
LINE
  8
0
 10
105.107
 20
34.8486
 11
105.061
 21
34.8701
  0
LINE
  8
0
 10
105.061
 20
34.8701
 11
105.036
 21
34.8809
  0
LINE
  8
0
 10
105.036
 20
34.8809
 11
104.987
 21
34.9004
  0
LINE
  8
0
 10
104.987
 20
34.9004
 11
104.938
 21
34.918
  0
LINE
  8
0
 10
104.938
 20
34.918
 11
104.913
 21
34.9268
  0
LINE
  8
0
 10
104.913
 20
34.9268
 11
104.889
 21
34.9346
  0
LINE
  8
0
 10
104.889
 20
34.9346
 11
104.863
 21
34.9414
  0
LINE
  8
0
 10
104.863
 20
34.9414
 11
104.838
 21
34.9492
  0
LINE
  8
0
 10
104.838
 20
34.9492
 11
104.812
 21
34.9551
  0
LINE
  8
0
 10
104.812
 20
34.9551
 11
104.787
 21
34.9619
  0
LINE
  8
0
 10
104.787
 20
34.9619
 11
104.762
 21
34.9668
  0
LINE
  8
0
 10
104.762
 20
34.9668
 11
104.736
 21
34.9727
  0
LINE
  8
0
 10
104.736
 20
34.9727
 11
104.711
 21
34.9775
  0
LINE
  8
0
 10
104.711
 20
34.9775
 11
104.685
 21
34.9814
  0
LINE
  8
0
 10
104.685
 20
34.9814
 11
104.659
 21
34.9854
  0
LINE
  8
0
 10
104.659
 20
34.9854
 11
104.633
 21
34.9893
  0
LINE
  8
0
 10
104.633
 20
34.9893
 11
104.606
 21
34.9922
  0
LINE
  8
0
 10
104.606
 20
34.9922
 11
104.581
 21
34.9941
  0
LINE
  8
0
 10
104.581
 20
34.9941
 11
104.528
 21
34.998
  0
LINE
  8
0
 10
104.528
 20
34.998
 11
104.477
 21
35
  0
LINE
  8
0
 10
104.477
 20
35
 11
100.95
 21
35
  0
LINE
  8
0
 10
100.95
 20
35
 11
100.95
 21
92
  0
LINE
  8
0
 10
100.95
 20
92
 11
104.477
 21
92
  0
LINE
  8
0
 10
104.477
 20
92
 11
104.528
 21
92.002
  0
LINE
  8
0
 10
104.528
 20
92.002
 11
104.581
 21
92.0059
  0
LINE
  8
0
 10
104.581
 20
92.0059
 11
104.606
 21
92.0078
  0
LINE
  8
0
 10
104.606
 20
92.0078
 11
104.633
 21
92.0107
  0
LINE
  8
0
 10
104.633
 20
92.0107
 11
104.659
 21
92.0146
  0
LINE
  8
0
 10
104.659
 20
92.0146
 11
104.685
 21
92.0186
  0
LINE
  8
0
 10
104.685
 20
92.0186
 11
104.711
 21
92.0225
  0
LINE
  8
0
 10
104.711
 20
92.0225
 11
104.736
 21
92.0273
  0
LINE
  8
0
 10
104.736
 20
92.0273
 11
104.762
 21
92.0332
  0
LINE
  8
0
 10
104.762
 20
92.0332
 11
104.787
 21
92.0381
  0
LINE
  8
0
 10
104.787
 20
92.0381
 11
104.812
 21
92.0449
  0
LINE
  8
0
 10
104.812
 20
92.0449
 11
104.838
 21
92.0508
  0
LINE
  8
0
 10
104.838
 20
92.0508
 11
104.863
 21
92.0586
  0
LINE
  8
0
 10
104.863
 20
92.0586
 11
104.889
 21
92.0654
  0
LINE
  8
0
 10
104.889
 20
92.0654
 11
104.913
 21
92.0732
  0
LINE
  8
0
 10
104.913
 20
92.0732
 11
104.938
 21
92.082
  0
LINE
  8
0
 10
104.938
 20
92.082
 11
104.987
 21
92.0996
  0
LINE
  8
0
 10
104.987
 20
92.0996
 11
105.036
 21
92.1191
  0
LINE
  8
0
 10
105.036
 20
92.1191
 11
105.061
 21
92.1299
  0
LINE
  8
0
 10
105.061
 20
92.1299
 11
105.107
 21
92.1514
  0
LINE
  8
0
 10
105.107
 20
92.1514
 11
105.131
 21
92.1631
  0
LINE
  8
0
 10
105.131
 20
92.1631
 11
105.154
 21
92.1758
  0
LINE
  8
0
 10
105.154
 20
92.1758
 11
105.177
 21
92.1885
  0
LINE
  8
0
 10
105.177
 20
92.1885
 11
105.2
 21
92.2012
  0
LINE
  8
0
 10
105.2
 20
92.2012
 11
105.223
 21
92.2139
  0
LINE
  8
0
 10
105.223
 20
92.2139
 11
105.245
 21
92.2275
  0
LINE
  8
0
 10
105.245
 20
92.2275
 11
105.267
 21
92.2422
  0
LINE
  8
0
 10
105.267
 20
92.2422
 11
105.289
 21
92.2568
  0
LINE
  8
0
 10
105.289
 20
92.2568
 11
105.332
 21
92.2861
  0
LINE
  8
0
 10
105.332
 20
92.2861
 11
105.353
 21
92.3018
  0
LINE
  8
0
 10
105.353
 20
92.3018
 11
105.373
 21
92.3184
  0
LINE
  8
0
 10
105.373
 20
92.3184
 11
105.394
 21
92.334
  0
LINE
  8
0
 10
105.394
 20
92.334
 11
105.414
 21
92.3506
  0
LINE
  8
0
 10
105.414
 20
92.3506
 11
105.435
 21
92.3682
  0
LINE
  8
0
 10
105.435
 20
92.3682
 11
105.454
 21
92.3857
  0
LINE
  8
0
 10
105.454
 20
92.3857
 11
105.473
 21
92.4033
  0
LINE
  8
0
 10
105.473
 20
92.4033
 11
105.492
 21
92.4209
  0
LINE
  8
0
 10
105.492
 20
92.4209
 11
105.529
 21
92.458
  0
LINE
  8
0
 10
105.529
 20
92.458
 11
105.547
 21
92.4766
  0
LINE
  8
0
 10
105.547
 20
92.4766
 11
105.582
 21
92.5156
  0
LINE
  8
0
 10
105.582
 20
92.5156
 11
105.599
 21
92.5361
  0
LINE
  8
0
 10
105.599
 20
92.5361
 11
105.615
 21
92.5557
  0
LINE
  8
0
 10
105.615
 20
92.5557
 11
105.632
 21
92.5762
  0
LINE
  8
0
 10
105.632
 20
92.5762
 11
105.648
 21
92.5977
  0
LINE
  8
0
 10
105.648
 20
92.5977
 11
105.663
 21
92.6182
  0
LINE
  8
0
 10
105.663
 20
92.6182
 11
105.679
 21
92.6396
  0
LINE
  8
0
 10
105.679
 20
92.6396
 11
105.708
 21
92.6826
  0
LINE
  8
0
 10
105.708
 20
92.6826
 11
105.749
 21
92.75
  0
LINE
  8
0
 10
105.749
 20
92.75
 11
105.762
 21
92.7725
  0
LINE
  8
0
 10
105.762
 20
92.7725
 11
105.774
 21
92.7959
  0
LINE
  8
0
 10
105.774
 20
92.7959
 11
105.81
 21
92.8662
  0
LINE
  8
0
 10
105.81
 20
92.8662
 11
105.82
 21
92.8896
  0
LINE
  8
0
 10
105.82
 20
92.8896
 11
105.831
 21
92.9141
  0
LINE
  8
0
 10
105.831
 20
92.9141
 11
105.851
 21
92.9629
  0
LINE
  8
0
 10
105.851
 20
92.9629
 11
105.877
 21
93.0361
  0
LINE
  8
0
 10
105.877
 20
93.0361
 11
105.885
 21
93.0615
  0
LINE
  8
0
 10
105.885
 20
93.0615
 11
105.892
 21
93.0869
  0
LINE
  8
0
 10
105.892
 20
93.0869
 11
105.898
 21
93.1113
  0
LINE
  8
0
 10
105.898
 20
93.1113
 11
105.905
 21
93.1367
  0
LINE
  8
0
 10
105.905
 20
93.1367
 11
105.911
 21
93.1621
  0
LINE
  8
0
 10
105.911
 20
93.1621
 11
105.917
 21
93.1885
  0
LINE
  8
0
 10
105.917
 20
93.1885
 11
105.923
 21
93.2139
  0
LINE
  8
0
 10
105.923
 20
93.2139
 11
105.927
 21
93.2393
  0
LINE
  8
0
 10
105.927
 20
93.2393
 11
105.932
 21
93.2656
  0
LINE
  8
0
 10
105.932
 20
93.2656
 11
105.936
 21
93.291
  0
LINE
  8
0
 10
105.936
 20
93.291
 11
105.938
 21
93.3174
  0
LINE
  8
0
 10
105.938
 20
93.3174
 11
105.941
 21
93.3428
  0
LINE
  8
0
 10
105.941
 20
93.3428
 11
105.944
 21
93.3691
  0
LINE
  8
0
 10
105.944
 20
93.3691
 11
105.948
 21
93.4219
  0
LINE
  8
0
 10
105.948
 20
93.4219
 11
105.95
 21
93.4736
  0
LINE
  8
0
 10
105.95
 20
93.4736
 11
105.95
 21
100.526
  0
LINE
  8
0
 10
105.95
 20
100.526
 11
105.948
 21
100.578
  0
LINE
  8
0
 10
105.948
 20
100.578
 11
105.944
 21
100.631
  0
LINE
  8
0
 10
105.944
 20
100.631
 11
105.941
 21
100.657
  0
LINE
  8
0
 10
105.941
 20
100.657
 11
105.938
 21
100.683
  0
LINE
  8
0
 10
105.938
 20
100.683
 11
105.936
 21
100.709
  0
LINE
  8
0
 10
105.936
 20
100.709
 11
105.932
 21
100.734
  0
LINE
  8
0
 10
105.932
 20
100.734
 11
105.927
 21
100.761
  0
LINE
  8
0
 10
105.927
 20
100.761
 11
105.923
 21
100.786
  0
LINE
  8
0
 10
105.923
 20
100.786
 11
105.917
 21
100.812
  0
LINE
  8
0
 10
105.917
 20
100.812
 11
105.911
 21
100.838
  0
LINE
  8
0
 10
105.911
 20
100.838
 11
105.905
 21
100.863
  0
LINE
  8
0
 10
105.905
 20
100.863
 11
105.898
 21
100.889
  0
LINE
  8
0
 10
105.898
 20
100.889
 11
105.892
 21
100.913
  0
LINE
  8
0
 10
105.892
 20
100.913
 11
105.885
 21
100.938
  0
LINE
  8
0
 10
105.885
 20
100.938
 11
105.877
 21
100.964
  0
LINE
  8
0
 10
105.877
 20
100.964
 11
105.851
 21
101.037
  0
LINE
  8
0
 10
105.851
 20
101.037
 11
105.831
 21
101.086
  0
LINE
  8
0
 10
105.831
 20
101.086
 11
105.82
 21
101.11
  0
LINE
  8
0
 10
105.82
 20
101.11
 11
105.81
 21
101.134
  0
LINE
  8
0
 10
105.81
 20
101.134
 11
105.774
 21
101.204
  0
LINE
  8
0
 10
105.774
 20
101.204
 11
105.762
 21
101.228
  0
LINE
  8
0
 10
105.762
 20
101.228
 11
105.749
 21
101.25
  0
LINE
  8
0
 10
105.749
 20
101.25
 11
105.708
 21
101.317
  0
LINE
  8
0
 10
105.708
 20
101.317
 11
105.679
 21
101.36
  0
LINE
  8
0
 10
105.679
 20
101.36
 11
105.663
 21
101.382
  0
LINE
  8
0
 10
105.663
 20
101.382
 11
105.648
 21
101.402
  0
LINE
  8
0
 10
105.648
 20
101.402
 11
105.632
 21
101.424
  0
LINE
  8
0
 10
105.632
 20
101.424
 11
105.615
 21
101.444
  0
LINE
  8
0
 10
105.615
 20
101.444
 11
105.599
 21
101.464
  0
LINE
  8
0
 10
105.599
 20
101.464
 11
105.582
 21
101.484
  0
LINE
  8
0
 10
105.582
 20
101.484
 11
105.547
 21
101.523
  0
LINE
  8
0
 10
105.547
 20
101.523
 11
105.529
 21
101.542
  0
LINE
  8
0
 10
105.529
 20
101.542
 11
105.492
 21
101.579
  0
LINE
  8
0
 10
105.492
 20
101.579
 11
105.473
 21
101.597
  0
LINE
  8
0
 10
105.473
 20
101.597
 11
105.454
 21
101.614
  0
LINE
  8
0
 10
105.454
 20
101.614
 11
105.435
 21
101.632
  0
LINE
  8
0
 10
105.435
 20
101.632
 11
105.414
 21
101.649
  0
LINE
  8
0
 10
105.414
 20
101.649
 11
105.394
 21
101.666
  0
LINE
  8
0
 10
105.394
 20
101.666
 11
105.373
 21
101.682
  0
LINE
  8
0
 10
105.373
 20
101.682
 11
105.353
 21
101.698
  0
LINE
  8
0
 10
105.353
 20
101.698
 11
105.332
 21
101.714
  0
LINE
  8
0
 10
105.332
 20
101.714
 11
105.289
 21
101.743
  0
LINE
  8
0
 10
105.289
 20
101.743
 11
105.267
 21
101.758
  0
LINE
  8
0
 10
105.267
 20
101.758
 11
105.245
 21
101.772
  0
LINE
  8
0
 10
105.245
 20
101.772
 11
105.223
 21
101.786
  0
LINE
  8
0
 10
105.223
 20
101.786
 11
105.2
 21
101.799
  0
LINE
  8
0
 10
105.2
 20
101.799
 11
105.177
 21
101.812
  0
LINE
  8
0
 10
105.177
 20
101.812
 11
105.154
 21
101.824
  0
LINE
  8
0
 10
105.154
 20
101.824
 11
105.131
 21
101.837
  0
LINE
  8
0
 10
105.131
 20
101.837
 11
105.107
 21
101.849
  0
LINE
  8
0
 10
105.107
 20
101.849
 11
105.061
 21
101.87
  0
LINE
  8
0
 10
105.061
 20
101.87
 11
105.036
 21
101.881
  0
LINE
  8
0
 10
105.036
 20
101.881
 11
104.987
 21
101.9
  0
LINE
  8
0
 10
104.987
 20
101.9
 11
104.938
 21
101.918
  0
LINE
  8
0
 10
104.938
 20
101.918
 11
104.913
 21
101.927
  0
LINE
  8
0
 10
104.913
 20
101.927
 11
104.889
 21
101.935
  0
LINE
  8
0
 10
104.889
 20
101.935
 11
104.863
 21
101.941
  0
LINE
  8
0
 10
104.863
 20
101.941
 11
104.838
 21
101.949
  0
LINE
  8
0
 10
104.838
 20
101.949
 11
104.812
 21
101.955
  0
LINE
  8
0
 10
104.812
 20
101.955
 11
104.787
 21
101.962
  0
LINE
  8
0
 10
104.787
 20
101.962
 11
104.762
 21
101.967
  0
LINE
  8
0
 10
104.762
 20
101.967
 11
104.736
 21
101.973
  0
LINE
  8
0
 10
104.736
 20
101.973
 11
104.711
 21
101.978
  0
LINE
  8
0
 10
104.711
 20
101.978
 11
104.685
 21
101.981
  0
LINE
  8
0
 10
104.685
 20
101.981
 11
104.659
 21
101.985
  0
LINE
  8
0
 10
104.659
 20
101.985
 11
104.633
 21
101.989
  0
LINE
  8
0
 10
104.633
 20
101.989
 11
104.606
 21
101.992
  0
LINE
  8
0
 10
104.606
 20
101.992
 11
104.581
 21
101.994
  0
LINE
  8
0
 10
104.581
 20
101.994
 11
104.528
 21
101.998
  0
LINE
  8
0
 10
104.528
 20
101.998
 11
104.477
 21
102
  0
LINE
  8
0
 10
104.477
 20
102
 11
100.95
 21
102
  0
LINE
  8
0
 10
100.95
 20
102
 11
100.95
 21
127
  0
LINE
  8
0
 10
100.95
 20
127
 11
0
 21
127
  0
LINE
  8
0
 10
0
 20
127
 11
0
 21
102
  0
LINE
  8
0
 10
0
 20
102
 11
-3.52637
 21
102
  0
LINE
  8
0
 10
-3.52637
 20
102
 11
-3.57812
 21
101.998
  0
LINE
  8
0
 10
-3.57812
 20
101.998
 11
-3.65723
 21
101.992
  0
LINE
  8
0
 10
-3.65723
 20
101.992
 11
-3.68262
 21
101.989
  0
LINE
  8
0
 10
-3.68262
 20
101.989
 11
-3.70898
 21
101.985
  0
LINE
  8
0
 10
-3.70898
 20
101.985
 11
-3.73438
 21
101.981
  0
LINE
  8
0
 10
-3.73438
 20
101.981
 11
-3.76074
 21
101.978
  0
LINE
  8
0
 10
-3.76074
 20
101.978
 11
-3.78613
 21
101.973
  0
LINE
  8
0
 10
-3.78613
 20
101.973
 11
-3.81152
 21
101.967
  0
LINE
  8
0
 10
-3.81152
 20
101.967
 11
-3.83789
 21
101.962
  0
LINE
  8
0
 10
-3.83789
 20
101.962
 11
-3.86328
 21
101.955
  0
LINE
  8
0
 10
-3.86328
 20
101.955
 11
-3.88867
 21
101.949
  0
LINE
  8
0
 10
-3.88867
 20
101.949
 11
-3.91309
 21
101.941
  0
LINE
  8
0
 10
-3.91309
 20
101.941
 11
-3.93848
 21
101.935
  0
LINE
  8
0
 10
-3.93848
 20
101.935
 11
-3.96387
 21
101.927
  0
LINE
  8
0
 10
-3.96387
 20
101.927
 11
-4.03711
 21
101.9
  0
LINE
  8
0
 10
-4.03711
 20
101.9
 11
-4.08594
 21
101.881
  0
LINE
  8
0
 10
-4.08594
 20
101.881
 11
-4.11035
 21
101.87
  0
LINE
  8
0
 10
-4.11035
 20
101.87
 11
-4.15723
 21
101.849
  0
LINE
  8
0
 10
-4.15723
 20
101.849
 11
-4.18066
 21
101.837
  0
LINE
  8
0
 10
-4.18066
 20
101.837
 11
-4.22754
 21
101.812
  0
LINE
  8
0
 10
-4.22754
 20
101.812
 11
-4.27246
 21
101.786
  0
LINE
  8
0
 10
-4.27246
 20
101.786
 11
-4.29492
 21
101.772
  0
LINE
  8
0
 10
-4.29492
 20
101.772
 11
-4.31738
 21
101.758
  0
LINE
  8
0
 10
-4.31738
 20
101.758
 11
-4.38184
 21
101.714
  0
LINE
  8
0
 10
-4.38184
 20
101.714
 11
-4.40234
 21
101.698
  0
LINE
  8
0
 10
-4.40234
 20
101.698
 11
-4.42383
 21
101.682
  0
LINE
  8
0
 10
-4.42383
 20
101.682
 11
-4.44434
 21
101.666
  0
LINE
  8
0
 10
-4.44434
 20
101.666
 11
-4.46387
 21
101.649
  0
LINE
  8
0
 10
-4.46387
 20
101.649
 11
-4.48438
 21
101.632
  0
LINE
  8
0
 10
-4.48438
 20
101.632
 11
-4.52344
 21
101.597
  0
LINE
  8
0
 10
-4.52344
 20
101.597
 11
-4.54199
 21
101.579
  0
LINE
  8
0
 10
-4.54199
 20
101.579
 11
-4.5791
 21
101.542
  0
LINE
  8
0
 10
-4.5791
 20
101.542
 11
-4.59668
 21
101.523
  0
LINE
  8
0
 10
-4.59668
 20
101.523
 11
-4.63184
 21
101.484
  0
LINE
  8
0
 10
-4.63184
 20
101.484
 11
-4.64941
 21
101.464
  0
LINE
  8
0
 10
-4.64941
 20
101.464
 11
-4.66602
 21
101.444
  0
LINE
  8
0
 10
-4.66602
 20
101.444
 11
-4.68164
 21
101.424
  0
LINE
  8
0
 10
-4.68164
 20
101.424
 11
-4.69824
 21
101.402
  0
LINE
  8
0
 10
-4.69824
 20
101.402
 11
-4.71387
 21
101.382
  0
LINE
  8
0
 10
-4.71387
 20
101.382
 11
-4.75781
 21
101.317
  0
LINE
  8
0
 10
-4.75781
 20
101.317
 11
-4.77246
 21
101.295
  0
LINE
  8
0
 10
-4.77246
 20
101.295
 11
-4.78613
 21
101.272
  0
LINE
  8
0
 10
-4.78613
 20
101.272
 11
-4.81152
 21
101.228
  0
LINE
  8
0
 10
-4.81152
 20
101.228
 11
-4.83691
 21
101.181
  0
LINE
  8
0
 10
-4.83691
 20
101.181
 11
-4.84863
 21
101.157
  0
LINE
  8
0
 10
-4.84863
 20
101.157
 11
-4.87012
 21
101.11
  0
LINE
  8
0
 10
-4.87012
 20
101.11
 11
-4.88086
 21
101.086
  0
LINE
  8
0
 10
-4.88086
 20
101.086
 11
-4.90039
 21
101.037
  0
LINE
  8
0
 10
-4.90039
 20
101.037
 11
-4.92676
 21
100.964
  0
LINE
  8
0
 10
-4.92676
 20
100.964
 11
-4.93457
 21
100.938
  0
LINE
  8
0
 10
-4.93457
 20
100.938
 11
-4.94141
 21
100.913
  0
LINE
  8
0
 10
-4.94141
 20
100.913
 11
-4.94922
 21
100.889
  0
LINE
  8
0
 10
-4.94922
 20
100.889
 11
-4.95508
 21
100.863
  0
LINE
  8
0
 10
-4.95508
 20
100.863
 11
-4.96191
 21
100.838
  0
LINE
  8
0
 10
-4.96191
 20
100.838
 11
-4.9668
 21
100.812
  0
LINE
  8
0
 10
-4.9668
 20
100.812
 11
-4.97266
 21
100.786
  0
LINE
  8
0
 10
-4.97266
 20
100.786
 11
-4.97754
 21
100.761
  0
LINE
  8
0
 10
-4.97754
 20
100.761
 11
-4.98145
 21
100.734
  0
LINE
  8
0
 10
-4.98145
 20
100.734
 11
-4.98535
 21
100.709
  0
LINE
  8
0
 10
-4.98535
 20
100.709
 11
-4.98926
 21
100.683
  0
LINE
  8
0
 10
-4.98926
 20
100.683
 11
-4.99219
 21
100.657
  0
LINE
  8
0
 10
-4.99219
 20
100.657
 11
-4.99805
 21
100.578
  0
LINE
  8
0
 10
-4.99805
 20
100.578
 11
-5
 21
100.526
  0
LINE
  8
0
 10
-5
 20
100.526
 11
-5
 21
93.4736
  0
LINE
  8
0
 10
-5
 20
93.4736
 11
-4.99805
 21
93.4219
  0
LINE
  8
0
 10
-4.99805
 20
93.4219
 11
-4.99219
 21
93.3428
  0
LINE
  8
0
 10
-4.99219
 20
93.3428
 11
-4.98926
 21
93.3174
  0
LINE
  8
0
 10
-4.98926
 20
93.3174
 11
-4.98535
 21
93.291
  0
LINE
  8
0
 10
-4.98535
 20
93.291
 11
-4.98145
 21
93.2656
  0
LINE
  8
0
 10
-4.98145
 20
93.2656
 11
-4.97754
 21
93.2393
  0
LINE
  8
0
 10
-4.97754
 20
93.2393
 11
-4.97266
 21
93.2139
  0
LINE
  8
0
 10
-4.97266
 20
93.2139
 11
-4.9668
 21
93.1885
  0
LINE
  8
0
 10
-4.9668
 20
93.1885
 11
-4.96191
 21
93.1621
  0
LINE
  8
0
 10
-4.96191
 20
93.1621
 11
-4.95508
 21
93.1367
  0
LINE
  8
0
 10
-4.95508
 20
93.1367
 11
-4.94922
 21
93.1113
  0
LINE
  8
0
 10
-4.94922
 20
93.1113
 11
-4.94141
 21
93.0869
  0
LINE
  8
0
 10
-4.94141
 20
93.0869
 11
-4.93457
 21
93.0615
  0
LINE
  8
0
 10
-4.93457
 20
93.0615
 11
-4.92676
 21
93.0361
  0
LINE
  8
0
 10
-4.92676
 20
93.0361
 11
-4.90039
 21
92.9629
  0
LINE
  8
0
 10
-4.90039
 20
92.9629
 11
-4.88086
 21
92.9141
  0
LINE
  8
0
 10
-4.88086
 20
92.9141
 11
-4.87012
 21
92.8896
  0
LINE
  8
0
 10
-4.87012
 20
92.8896
 11
-4.84863
 21
92.8428
  0
LINE
  8
0
 10
-4.84863
 20
92.8428
 11
-4.83691
 21
92.8193
  0
LINE
  8
0
 10
-4.83691
 20
92.8193
 11
-4.81152
 21
92.7725
  0
LINE
  8
0
 10
-4.81152
 20
92.7725
 11
-4.78613
 21
92.7275
  0
LINE
  8
0
 10
-4.78613
 20
92.7275
 11
-4.77246
 21
92.7051
  0
LINE
  8
0
 10
-4.77246
 20
92.7051
 11
-4.75781
 21
92.6826
  0
LINE
  8
0
 10
-4.75781
 20
92.6826
 11
-4.71387
 21
92.6182
  0
LINE
  8
0
 10
-4.71387
 20
92.6182
 11
-4.69824
 21
92.5977
  0
LINE
  8
0
 10
-4.69824
 20
92.5977
 11
-4.68164
 21
92.5762
  0
LINE
  8
0
 10
-4.68164
 20
92.5762
 11
-4.66602
 21
92.5557
  0
LINE
  8
0
 10
-4.66602
 20
92.5557
 11
-4.64941
 21
92.5361
  0
LINE
  8
0
 10
-4.64941
 20
92.5361
 11
-4.63184
 21
92.5156
  0
LINE
  8
0
 10
-4.63184
 20
92.5156
 11
-4.59668
 21
92.4766
  0
LINE
  8
0
 10
-4.59668
 20
92.4766
 11
-4.5791
 21
92.458
  0
LINE
  8
0
 10
-4.5791
 20
92.458
 11
-4.54199
 21
92.4209
  0
LINE
  8
0
 10
-4.54199
 20
92.4209
 11
-4.52344
 21
92.4033
  0
LINE
  8
0
 10
-4.52344
 20
92.4033
 11
-4.48438
 21
92.3682
  0
LINE
  8
0
 10
-4.48438
 20
92.3682
 11
-4.46387
 21
92.3506
  0
LINE
  8
0
 10
-4.46387
 20
92.3506
 11
-4.44434
 21
92.334
  0
LINE
  8
0
 10
-4.44434
 20
92.334
 11
-4.42383
 21
92.3184
  0
LINE
  8
0
 10
-4.42383
 20
92.3184
 11
-4.40234
 21
92.3018
  0
LINE
  8
0
 10
-4.40234
 20
92.3018
 11
-4.38184
 21
92.2861
  0
LINE
  8
0
 10
-4.38184
 20
92.2861
 11
-4.31738
 21
92.2422
  0
LINE
  8
0
 10
-4.31738
 20
92.2422
 11
-4.29492
 21
92.2275
  0
LINE
  8
0
 10
-4.29492
 20
92.2275
 11
-4.27246
 21
92.2139
  0
LINE
  8
0
 10
-4.27246
 20
92.2139
 11
-4.22754
 21
92.1885
  0
LINE
  8
0
 10
-4.22754
 20
92.1885
 11
-4.18066
 21
92.1631
  0
LINE
  8
0
 10
-4.18066
 20
92.1631
 11
-4.15723
 21
92.1514
  0
LINE
  8
0
 10
-4.15723
 20
92.1514
 11
-4.11035
 21
92.1299
  0
LINE
  8
0
 10
-4.11035
 20
92.1299
 11
-4.08594
 21
92.1191
  0
LINE
  8
0
 10
-4.08594
 20
92.1191
 11
-4.03711
 21
92.0996
  0
LINE
  8
0
 10
-4.03711
 20
92.0996
 11
-3.96387
 21
92.0732
  0
LINE
  8
0
 10
-3.96387
 20
92.0732
 11
-3.93848
 21
92.0654
  0
LINE
  8
0
 10
-3.93848
 20
92.0654
 11
-3.91309
 21
92.0586
  0
LINE
  8
0
 10
-3.91309
 20
92.0586
 11
-3.88867
 21
92.0508
  0
LINE
  8
0
 10
-3.88867
 20
92.0508
 11
-3.86328
 21
92.0449
  0
LINE
  8
0
 10
-3.86328
 20
92.0449
 11
-3.83789
 21
92.0381
  0
LINE
  8
0
 10
-3.83789
 20
92.0381
 11
-3.81152
 21
92.0332
  0
LINE
  8
0
 10
-3.81152
 20
92.0332
 11
-3.78613
 21
92.0273
  0
LINE
  8
0
 10
-3.78613
 20
92.0273
 11
-3.76074
 21
92.0225
  0
LINE
  8
0
 10
-3.76074
 20
92.0225
 11
-3.73438
 21
92.0186
  0
LINE
  8
0
 10
-3.73438
 20
92.0186
 11
-3.70898
 21
92.0146
  0
LINE
  8
0
 10
-3.70898
 20
92.0146
 11
-3.68262
 21
92.0107
  0
LINE
  8
0
 10
-3.68262
 20
92.0107
 11
-3.65723
 21
92.0078
  0
LINE
  8
0
 10
-3.65723
 20
92.0078
 11
-3.57812
 21
92.002
  0
LINE
  8
0
 10
-3.57812
 20
92.002
 11
-3.52637
 21
92
  0
LINE
  8
0
 10
-3.52637
 20
92
 11
0
 21
92
  0
LINE
  8
0
 10
0
 20
92
 11
0
 21
35
  0
LINE
  8
0
 10
0
 20
35
 11
-3.52637
 21
35
  0
LINE
  8
0
 10
-3.52637
 20
35
 11
-3.57812
 21
34.998
  0
LINE
  8
0
 10
-3.57812
 20
34.998
 11
-3.65723
 21
34.9922
  0
LINE
  8
0
 10
-3.65723
 20
34.9922
 11
-3.68262
 21
34.9893
  0
LINE
  8
0
 10
-3.68262
 20
34.9893
 11
-3.70898
 21
34.9854
  0
LINE
  8
0
 10
-3.70898
 20
34.9854
 11
-3.73438
 21
34.9814
  0
LINE
  8
0
 10
-3.73438
 20
34.9814
 11
-3.76074
 21
34.9775
  0
LINE
  8
0
 10
-3.76074
 20
34.9775
 11
-3.78613
 21
34.9727
  0
LINE
  8
0
 10
-3.78613
 20
34.9727
 11
-3.81152
 21
34.9668
  0
LINE
  8
0
 10
-3.81152
 20
34.9668
 11
-3.83789
 21
34.9619
  0
LINE
  8
0
 10
-3.83789
 20
34.9619
 11
-3.86328
 21
34.9551
  0
LINE
  8
0
 10
-3.86328
 20
34.9551
 11
-3.88867
 21
34.9492
  0
LINE
  8
0
 10
-3.88867
 20
34.9492
 11
-3.91309
 21
34.9414
  0
LINE
  8
0
 10
-3.91309
 20
34.9414
 11
-3.93848
 21
34.9346
  0
LINE
  8
0
 10
-3.93848
 20
34.9346
 11
-3.96387
 21
34.9268
  0
LINE
  8
0
 10
-3.96387
 20
34.9268
 11
-4.03711
 21
34.9004
  0
LINE
  8
0
 10
-4.03711
 20
34.9004
 11
-4.08594
 21
34.8809
  0
LINE
  8
0
 10
-4.08594
 20
34.8809
 11
-4.11035
 21
34.8701
  0
LINE
  8
0
 10
-4.11035
 20
34.8701
 11
-4.15723
 21
34.8486
  0
LINE
  8
0
 10
-4.15723
 20
34.8486
 11
-4.18066
 21
34.8369
  0
LINE
  8
0
 10
-4.18066
 20
34.8369
 11
-4.22754
 21
34.8115
  0
LINE
  8
0
 10
-4.22754
 20
34.8115
 11
-4.27246
 21
34.7861
  0
LINE
  8
0
 10
-4.27246
 20
34.7861
 11
-4.29492
 21
34.7725
  0
LINE
  8
0
 10
-4.29492
 20
34.7725
 11
-4.31738
 21
34.7578
  0
LINE
  8
0
 10
-4.31738
 20
34.7578
 11
-4.38184
 21
34.7139
  0
LINE
  8
0
 10
-4.38184
 20
34.7139
 11
-4.40234
 21
34.6982
  0
LINE
  8
0
 10
-4.40234
 20
34.6982
 11
-4.42383
 21
34.6816
  0
LINE
  8
0
 10
-4.42383
 20
34.6816
 11
-4.44434
 21
34.666
  0
LINE
  8
0
 10
-4.44434
 20
34.666
 11
-4.46387
 21
34.6494
  0
LINE
  8
0
 10
-4.46387
 20
34.6494
 11
-4.48438
 21
34.6318
  0
LINE
  8
0
 10
-4.48438
 20
34.6318
 11
-4.52344
 21
34.5967
  0
LINE
  8
0
 10
-4.52344
 20
34.5967
 11
-4.54199
 21
34.5791
  0
LINE
  8
0
 10
-4.54199
 20
34.5791
 11
-4.5791
 21
34.542
  0
LINE
  8
0
 10
-4.5791
 20
34.542
 11
-4.59668
 21
34.5234
  0
LINE
  8
0
 10
-4.59668
 20
34.5234
 11
-4.63184
 21
34.4844
  0
LINE
  8
0
 10
-4.63184
 20
34.4844
 11
-4.64941
 21
34.4639
  0
LINE
  8
0
 10
-4.64941
 20
34.4639
 11
-4.66602
 21
34.4443
  0
LINE
  8
0
 10
-4.66602
 20
34.4443
 11
-4.68164
 21
34.4238
  0
LINE
  8
0
 10
-4.68164
 20
34.4238
 11
-4.69824
 21
34.4023
  0
LINE
  8
0
 10
-4.69824
 20
34.4023
 11
-4.71387
 21
34.3818
  0
LINE
  8
0
 10
-4.71387
 20
34.3818
 11
-4.75781
 21
34.3174
  0
LINE
  8
0
 10
-4.75781
 20
34.3174
 11
-4.77246
 21
34.2949
  0
LINE
  8
0
 10
-4.77246
 20
34.2949
 11
-4.78613
 21
34.2725
  0
LINE
  8
0
 10
-4.78613
 20
34.2725
 11
-4.81152
 21
34.2275
  0
LINE
  8
0
 10
-4.81152
 20
34.2275
 11
-4.83691
 21
34.1807
  0
LINE
  8
0
 10
-4.83691
 20
34.1807
 11
-4.84863
 21
34.1572
  0
LINE
  8
0
 10
-4.84863
 20
34.1572
 11
-4.87012
 21
34.1104
  0
LINE
  8
0
 10
-4.87012
 20
34.1104
 11
-4.88086
 21
34.0859
  0
LINE
  8
0
 10
-4.88086
 20
34.0859
 11
-4.90039
 21
34.0371
  0
LINE
  8
0
 10
-4.90039
 20
34.0371
 11
-4.92676
 21
33.9639
  0
LINE
  8
0
 10
-4.92676
 20
33.9639
 11
-4.93457
 21
33.9385
  0
LINE
  8
0
 10
-4.93457
 20
33.9385
 11
-4.94141
 21
33.9131
  0
LINE
  8
0
 10
-4.94141
 20
33.9131
 11
-4.94922
 21
33.8887
  0
LINE
  8
0
 10
-4.94922
 20
33.8887
 11
-4.95508
 21
33.8633
  0
LINE
  8
0
 10
-4.95508
 20
33.8633
 11
-4.96191
 21
33.8379
  0
LINE
  8
0
 10
-4.96191
 20
33.8379
 11
-4.9668
 21
33.8115
  0
LINE
  8
0
 10
-4.9668
 20
33.8115
 11
-4.97266
 21
33.7861
  0
LINE
  8
0
 10
-4.97266
 20
33.7861
 11
-4.97754
 21
33.7607
  0
LINE
  8
0
 10
-4.97754
 20
33.7607
 11
-4.98145
 21
33.7344
  0
LINE
  8
0
 10
-4.98145
 20
33.7344
 11
-4.98535
 21
33.709
  0
LINE
  8
0
 10
-4.98535
 20
33.709
 11
-4.98926
 21
33.6826
  0
LINE
  8
0
 10
-4.98926
 20
33.6826
 11
-4.99219
 21
33.6572
  0
LINE
  8
0
 10
-4.99219
 20
33.6572
 11
-4.99805
 21
33.5781
  0
LINE
  8
0
 10
-4.99805
 20
33.5781
 11
-5
 21
33.5264
  0
LINE
  8
0
 10
-5
 20
33.5264
 11
-5
 21
26.4736
  0
LINE
  8
0
 10
-5
 20
26.4736
 11
-4.99805
 21
26.4219
  0
LINE
  8
0
 10
-4.99805
 20
26.4219
 11
-4.99219
 21
26.3428
  0
LINE
  8
0
 10
-4.99219
 20
26.3428
 11
-4.98926
 21
26.3174
  0
LINE
  8
0
 10
-4.98926
 20
26.3174
 11
-4.98535
 21
26.291
  0
LINE
  8
0
 10
-4.98535
 20
26.291
 11
-4.98145
 21
26.2656
  0
LINE
  8
0
 10
-4.98145
 20
26.2656
 11
-4.97754
 21
26.2393
  0
LINE
  8
0
 10
-4.97754
 20
26.2393
 11
-4.97266
 21
26.2139
  0
LINE
  8
0
 10
-4.97266
 20
26.2139
 11
-4.9668
 21
26.1885
  0
LINE
  8
0
 10
-4.9668
 20
26.1885
 11
-4.96191
 21
26.1621
  0
LINE
  8
0
 10
-4.96191
 20
26.1621
 11
-4.95508
 21
26.1367
  0
LINE
  8
0
 10
-4.95508
 20
26.1367
 11
-4.94922
 21
26.1113
  0
LINE
  8
0
 10
-4.94922
 20
26.1113
 11
-4.94141
 21
26.0869
  0
LINE
  8
0
 10
-4.94141
 20
26.0869
 11
-4.93457
 21
26.0615
  0
LINE
  8
0
 10
-4.93457
 20
26.0615
 11
-4.92676
 21
26.0361
  0
LINE
  8
0
 10
-4.92676
 20
26.0361
 11
-4.90039
 21
25.9629
  0
LINE
  8
0
 10
-4.90039
 20
25.9629
 11
-4.88086
 21
25.9141
  0
LINE
  8
0
 10
-4.88086
 20
25.9141
 11
-4.87012
 21
25.8896
  0
LINE
  8
0
 10
-4.87012
 20
25.8896
 11
-4.84863
 21
25.8428
  0
LINE
  8
0
 10
-4.84863
 20
25.8428
 11
-4.83691
 21
25.8193
  0
LINE
  8
0
 10
-4.83691
 20
25.8193
 11
-4.81152
 21
25.7725
  0
LINE
  8
0
 10
-4.81152
 20
25.7725
 11
-4.78613
 21
25.7275
  0
LINE
  8
0
 10
-4.78613
 20
25.7275
 11
-4.77246
 21
25.7051
  0
LINE
  8
0
 10
-4.77246
 20
25.7051
 11
-4.75781
 21
25.6826
  0
LINE
  8
0
 10
-4.75781
 20
25.6826
 11
-4.71387
 21
25.6182
  0
LINE
  8
0
 10
-4.71387
 20
25.6182
 11
-4.69824
 21
25.5977
  0
LINE
  8
0
 10
-4.69824
 20
25.5977
 11
-4.68164
 21
25.5762
  0
LINE
  8
0
 10
-4.68164
 20
25.5762
 11
-4.66602
 21
25.5557
  0
LINE
  8
0
 10
-4.66602
 20
25.5557
 11
-4.64941
 21
25.5361
  0
LINE
  8
0
 10
-4.64941
 20
25.5361
 11
-4.63184
 21
25.5156
  0
LINE
  8
0
 10
-4.63184
 20
25.5156
 11
-4.59668
 21
25.4766
  0
LINE
  8
0
 10
-4.59668
 20
25.4766
 11
-4.5791
 21
25.458
  0
LINE
  8
0
 10
-4.5791
 20
25.458
 11
-4.54199
 21
25.4209
  0
LINE
  8
0
 10
-4.54199
 20
25.4209
 11
-4.52344
 21
25.4033
  0
LINE
  8
0
 10
-4.52344
 20
25.4033
 11
-4.48438
 21
25.3682
  0
LINE
  8
0
 10
-4.48438
 20
25.3682
 11
-4.46387
 21
25.3506
  0
LINE
  8
0
 10
-4.46387
 20
25.3506
 11
-4.44434
 21
25.334
  0
LINE
  8
0
 10
-4.44434
 20
25.334
 11
-4.42383
 21
25.3184
  0
LINE
  8
0
 10
-4.42383
 20
25.3184
 11
-4.40234
 21
25.3018
  0
LINE
  8
0
 10
-4.40234
 20
25.3018
 11
-4.38184
 21
25.2861
  0
LINE
  8
0
 10
-4.38184
 20
25.2861
 11
-4.31738
 21
25.2422
  0
LINE
  8
0
 10
-4.31738
 20
25.2422
 11
-4.29492
 21
25.2275
  0
LINE
  8
0
 10
-4.29492
 20
25.2275
 11
-4.27246
 21
25.2139
  0
LINE
  8
0
 10
-4.27246
 20
25.2139
 11
-4.22754
 21
25.1885
  0
LINE
  8
0
 10
-4.22754
 20
25.1885
 11
-4.18066
 21
25.1631
  0
LINE
  8
0
 10
-4.18066
 20
25.1631
 11
-4.15723
 21
25.1514
  0
LINE
  8
0
 10
-4.15723
 20
25.1514
 11
-4.11035
 21
25.1299
  0
LINE
  8
0
 10
-4.11035
 20
25.1299
 11
-4.08594
 21
25.1191
  0
LINE
  8
0
 10
-4.08594
 20
25.1191
 11
-4.03711
 21
25.0996
  0
LINE
  8
0
 10
-4.03711
 20
25.0996
 11
-3.96387
 21
25.0732
  0
LINE
  8
0
 10
-3.96387
 20
25.0732
 11
-3.93848
 21
25.0654
  0
LINE
  8
0
 10
-3.93848
 20
25.0654
 11
-3.91309
 21
25.0586
  0
LINE
  8
0
 10
-3.91309
 20
25.0586
 11
-3.88867
 21
25.0508
  0
LINE
  8
0
 10
-3.88867
 20
25.0508
 11
-3.86328
 21
25.0449
  0
LINE
  8
0
 10
-3.86328
 20
25.0449
 11
-3.83789
 21
25.0381
  0
LINE
  8
0
 10
-3.83789
 20
25.0381
 11
-3.81152
 21
25.0332
  0
LINE
  8
0
 10
-3.81152
 20
25.0332
 11
-3.78613
 21
25.0273
  0
LINE
  8
0
 10
-3.78613
 20
25.0273
 11
-3.76074
 21
25.0225
  0
LINE
  8
0
 10
-3.76074
 20
25.0225
 11
-3.73438
 21
25.0186
  0
LINE
  8
0
 10
-3.73438
 20
25.0186
 11
-3.70898
 21
25.0146
  0
LINE
  8
0
 10
-3.70898
 20
25.0146
 11
-3.68262
 21
25.0107
  0
LINE
  8
0
 10
-3.68262
 20
25.0107
 11
-3.65723
 21
25.0078
  0
LINE
  8
0
 10
-3.65723
 20
25.0078
 11
-3.57812
 21
25.002
  0
LINE
  8
0
 10
-3.57812
 20
25.002
 11
-3.52637
 21
25
  0
LINE
  8
0
 10
-3.52637
 20
25
 11
0
 21
25
  0
LINE
  8
0
 10
0
 20
25
 11
0
 21
0
  0
LINE
  8
0
 10
0
 20
0
 11
100.95
 21
0
  0
LINE
  8
0
 10
100.95
 20
0
 11
100.95
 21
25
  0
ENDSEC
  0
SECTION
  2
OBJECTS
  0
DICTIONARY
  0
ENDSEC
  0
EOF
