  0
SECTION
  2
BLOCKS
  0
ENDSEC
  0
SECTION
  2
ENTITIES
  0
LINE
  8
0
 10
142.125
 20
53.0947
 11
142
 21
53.0947
  0
LINE
  8
0
 10
142
 20
53.0947
 11
142.111
 21
53.0939
  0
LINE
  8
0
 10
142.111
 20
53.0939
 11
142.125
 21
53.0947
  0
LINE
  8
0
 10
142.14
 20
0.000976562
 11
142.279
 21
0.00488281
  0
LINE
  8
0
 10
142.279
 20
0.00488281
 11
142.419
 21
0.0107422
  0
LINE
  8
0
 10
142.419
 20
0.0107422
 11
142.558
 21
0.0195312
  0
LINE
  8
0
 10
142.558
 20
0.0195312
 11
142.697
 21
0.0302734
  0
LINE
  8
0
 10
142.697
 20
0.0302734
 11
142.836
 21
0.0439453
  0
LINE
  8
0
 10
142.836
 20
0.0439453
 11
142.975
 21
0.0595703
  0
LINE
  8
0
 10
142.975
 20
0.0595703
 11
143.113
 21
0.078125
  0
LINE
  8
0
 10
143.113
 20
0.078125
 11
143.252
 21
0.0986328
  0
LINE
  8
0
 10
143.252
 20
0.0986328
 11
143.39
 21
0.121094
  0
LINE
  8
0
 10
143.39
 20
0.121094
 11
143.526
 21
0.147461
  0
LINE
  8
0
 10
143.526
 20
0.147461
 11
143.663
 21
0.174805
  0
LINE
  8
0
 10
143.663
 20
0.174805
 11
143.8
 21
0.205078
  0
LINE
  8
0
 10
143.8
 20
0.205078
 11
143.936
 21
0.237305
  0
LINE
  8
0
 10
143.936
 20
0.237305
 11
144.07
 21
0.272461
  0
LINE
  8
0
 10
144.07
 20
0.272461
 11
144.205
 21
0.30957
  0
LINE
  8
0
 10
144.205
 20
0.30957
 11
144.339
 21
0.349609
  0
LINE
  8
0
 10
144.339
 20
0.349609
 11
144.472
 21
0.391602
  0
LINE
  8
0
 10
144.472
 20
0.391602
 11
144.604
 21
0.435547
  0
LINE
  8
0
 10
144.604
 20
0.435547
 11
144.736
 21
0.482422
  0
LINE
  8
0
 10
144.736
 20
0.482422
 11
144.867
 21
0.53125
  0
LINE
  8
0
 10
144.867
 20
0.53125
 11
144.997
 21
0.583008
  0
LINE
  8
0
 10
144.997
 20
0.583008
 11
145.126
 21
0.635742
  0
LINE
  8
0
 10
145.126
 20
0.635742
 11
145.254
 21
0.691406
  0
LINE
  8
0
 10
145.254
 20
0.691406
 11
145.381
 21
0.75
  0
LINE
  8
0
 10
145.381
 20
0.75
 11
145.507
 21
0.80957
  0
LINE
  8
0
 10
145.507
 20
0.80957
 11
145.632
 21
0.87207
  0
LINE
  8
0
 10
145.632
 20
0.87207
 11
145.756
 21
0.936523
  0
LINE
  8
0
 10
145.756
 20
0.936523
 11
145.879
 21
1.00293
  0
LINE
  8
0
 10
145.879
 20
1.00293
 11
146
 21
1.07227
  0
LINE
  8
0
 10
146
 20
1.07227
 11
146.12
 21
1.14258
  0
LINE
  8
0
 10
146.12
 20
1.14258
 11
146.239
 21
1.21582
  0
LINE
  8
0
 10
146.239
 20
1.21582
 11
146.357
 21
1.29102
  0
LINE
  8
0
 10
146.357
 20
1.29102
 11
146.474
 21
1.36816
  0
LINE
  8
0
 10
146.474
 20
1.36816
 11
146.589
 21
1.44727
  0
LINE
  8
0
 10
146.589
 20
1.44727
 11
146.702
 21
1.52832
  0
LINE
  8
0
 10
146.702
 20
1.52832
 11
146.814
 21
1.61133
  0
LINE
  8
0
 10
146.814
 20
1.61133
 11
146.925
 21
1.69629
  0
LINE
  8
0
 10
146.925
 20
1.69629
 11
147.034
 21
1.7832
  0
LINE
  8
0
 10
147.034
 20
1.7832
 11
147.143
 21
1.87207
  0
LINE
  8
0
 10
147.143
 20
1.87207
 11
147.248
 21
1.96191
  0
LINE
  8
0
 10
147.248
 20
1.96191
 11
147.354
 21
2.05469
  0
LINE
  8
0
 10
147.354
 20
2.05469
 11
147.456
 21
2.14941
  0
LINE
  8
0
 10
147.456
 20
2.14941
 11
147.558
 21
2.24512
  0
LINE
  8
0
 10
147.558
 20
2.24512
 11
147.657
 21
2.34277
  0
LINE
  8
0
 10
147.657
 20
2.34277
 11
147.755
 21
2.44238
  0
LINE
  8
0
 10
147.755
 20
2.44238
 11
147.851
 21
2.54395
  0
LINE
  8
0
 10
147.851
 20
2.54395
 11
147.945
 21
2.64648
  0
LINE
  8
0
 10
147.945
 20
2.64648
 11
148.038
 21
2.75195
  0
LINE
  8
0
 10
148.038
 20
2.75195
 11
148.128
 21
2.85742
  0
LINE
  8
0
 10
148.128
 20
2.85742
 11
148.217
 21
2.96582
  0
LINE
  8
0
 10
148.217
 20
2.96582
 11
148.304
 21
3.0752
  0
LINE
  8
0
 10
148.304
 20
3.0752
 11
148.389
 21
3.18555
  0
LINE
  8
0
 10
148.389
 20
3.18555
 11
148.472
 21
3.29785
  0
LINE
  8
0
 10
148.472
 20
3.29785
 11
148.553
 21
3.41113
  0
LINE
  8
0
 10
148.553
 20
3.41113
 11
148.632
 21
3.52637
  0
LINE
  8
0
 10
148.632
 20
3.52637
 11
148.709
 21
3.64258
  0
LINE
  8
0
 10
148.709
 20
3.64258
 11
148.784
 21
3.76074
  0
LINE
  8
0
 10
148.784
 20
3.76074
 11
148.857
 21
3.87988
  0
LINE
  8
0
 10
148.857
 20
3.87988
 11
148.928
 21
4
  0
LINE
  8
0
 10
148.928
 20
4
 11
148.997
 21
4.12109
  0
LINE
  8
0
 10
148.997
 20
4.12109
 11
149.063
 21
4.24414
  0
LINE
  8
0
 10
149.063
 20
4.24414
 11
149.128
 21
4.36816
  0
LINE
  8
0
 10
149.128
 20
4.36816
 11
149.19
 21
4.49316
  0
LINE
  8
0
 10
149.19
 20
4.49316
 11
149.25
 21
4.61914
  0
LINE
  8
0
 10
149.25
 20
4.61914
 11
149.309
 21
4.74609
  0
LINE
  8
0
 10
149.309
 20
4.74609
 11
149.364
 21
4.87402
  0
LINE
  8
0
 10
149.364
 20
4.87402
 11
149.417
 21
5.00293
  0
LINE
  8
0
 10
149.417
 20
5.00293
 11
149.469
 21
5.13281
  0
LINE
  8
0
 10
149.469
 20
5.13281
 11
149.518
 21
5.26367
  0
LINE
  8
0
 10
149.518
 20
5.26367
 11
149.564
 21
5.39551
  0
LINE
  8
0
 10
149.564
 20
5.39551
 11
149.608
 21
5.52832
  0
LINE
  8
0
 10
149.608
 20
5.52832
 11
149.65
 21
5.66113
  0
LINE
  8
0
 10
149.65
 20
5.66113
 11
149.69
 21
5.79492
  0
LINE
  8
0
 10
149.69
 20
5.79492
 11
149.728
 21
5.92969
  0
LINE
  8
0
 10
149.728
 20
5.92969
 11
149.763
 21
6.06445
  0
LINE
  8
0
 10
149.763
 20
6.06445
 11
149.795
 21
6.2002
  0
LINE
  8
0
 10
149.795
 20
6.2002
 11
149.825
 21
6.33691
  0
LINE
  8
0
 10
149.825
 20
6.33691
 11
149.853
 21
6.47363
  0
LINE
  8
0
 10
149.853
 20
6.47363
 11
149.879
 21
6.61035
  0
LINE
  8
0
 10
149.879
 20
6.61035
 11
149.901
 21
6.74805
  0
LINE
  8
0
 10
149.901
 20
6.74805
 11
149.922
 21
6.88672
  0
LINE
  8
0
 10
149.922
 20
6.88672
 11
149.94
 21
7.02539
  0
LINE
  8
0
 10
149.94
 20
7.02539
 11
149.956
 21
7.16406
  0
LINE
  8
0
 10
149.956
 20
7.16406
 11
149.97
 21
7.30273
  0
LINE
  8
0
 10
149.97
 20
7.30273
 11
149.98
 21
7.44238
  0
LINE
  8
0
 10
149.98
 20
7.44238
 11
149.989
 21
7.58105
  0
LINE
  8
0
 10
149.989
 20
7.58105
 11
149.995
 21
7.7207
  0
LINE
  8
0
 10
149.995
 20
7.7207
 11
149.999
 21
7.86035
  0
LINE
  8
0
 10
149.999
 20
7.86035
 11
150
 21
8
  0
LINE
  8
0
 10
150
 20
8
 11
150
 21
16.417
  0
LINE
  8
0
 10
150
 20
16.417
 11
149.999
 21
16.4346
  0
LINE
  8
0
 10
149.999
 20
16.4346
 11
149.999
 21
16.4521
  0
LINE
  8
0
 10
149.999
 20
16.4521
 11
149.998
 21
16.4697
  0
LINE
  8
0
 10
149.998
 20
16.4697
 11
149.994
 21
16.5049
  0
LINE
  8
0
 10
149.994
 20
16.5049
 11
149.992
 21
16.5215
  0
LINE
  8
0
 10
149.992
 20
16.5215
 11
149.99
 21
16.5391
  0
LINE
  8
0
 10
149.99
 20
16.5391
 11
149.987
 21
16.5566
  0
LINE
  8
0
 10
149.987
 20
16.5566
 11
149.984
 21
16.5732
  0
LINE
  8
0
 10
149.984
 20
16.5732
 11
149.979
 21
16.6084
  0
LINE
  8
0
 10
149.979
 20
16.6084
 11
149.971
 21
16.6416
  0
LINE
  8
0
 10
149.971
 20
16.6416
 11
149.966
 21
16.6592
  0
LINE
  8
0
 10
149.966
 20
16.6592
 11
149.951
 21
16.709
  0
LINE
  8
0
 10
149.951
 20
16.709
 11
149.934
 21
16.7588
  0
LINE
  8
0
 10
149.934
 20
16.7588
 11
149.927
 21
16.7744
  0
LINE
  8
0
 10
149.927
 20
16.7744
 11
149.921
 21
16.791
  0
LINE
  8
0
 10
149.921
 20
16.791
 11
149.913
 21
16.8066
  0
LINE
  8
0
 10
149.913
 20
16.8066
 11
149.906
 21
16.8223
  0
LINE
  8
0
 10
149.906
 20
16.8223
 11
149.875
 21
16.8848
  0
LINE
  8
0
 10
149.875
 20
16.8848
 11
149.866
 21
16.9004
  0
LINE
  8
0
 10
149.866
 20
16.9004
 11
149.857
 21
16.915
  0
LINE
  8
0
 10
149.857
 20
16.915
 11
149.848
 21
16.9297
  0
LINE
  8
0
 10
149.848
 20
16.9297
 11
149.839
 21
16.9443
  0
LINE
  8
0
 10
149.839
 20
16.9443
 11
149.819
 21
16.9736
  0
LINE
  8
0
 10
149.819
 20
16.9736
 11
149.809
 21
16.9873
  0
LINE
  8
0
 10
149.809
 20
16.9873
 11
149.799
 21
17.002
  0
LINE
  8
0
 10
149.799
 20
17.002
 11
149.777
 21
17.0293
  0
LINE
  8
0
 10
149.777
 20
17.0293
 11
149.766
 21
17.043
  0
LINE
  8
0
 10
149.766
 20
17.043
 11
149.755
 21
17.0557
  0
LINE
  8
0
 10
149.755
 20
17.0557
 11
149.743
 21
17.0693
  0
LINE
  8
0
 10
149.743
 20
17.0693
 11
149.72
 21
17.0947
  0
LINE
  8
0
 10
149.72
 20
17.0947
 11
149.707
 21
17.1074
  0
LINE
  8
0
 10
149.707
 20
17.1074
 11
149.694
 21
17.1191
  0
LINE
  8
0
 10
149.694
 20
17.1191
 11
149.682
 21
17.1318
  0
LINE
  8
0
 10
149.682
 20
17.1318
 11
149.669
 21
17.1436
  0
LINE
  8
0
 10
149.669
 20
17.1436
 11
149.656
 21
17.1543
  0
LINE
  8
0
 10
149.656
 20
17.1543
 11
149.643
 21
17.166
  0
LINE
  8
0
 10
149.643
 20
17.166
 11
149.629
 21
17.1768
  0
LINE
  8
0
 10
149.629
 20
17.1768
 11
149.615
 21
17.1885
  0
LINE
  8
0
 10
149.615
 20
17.1885
 11
149.602
 21
17.1982
  0
LINE
  8
0
 10
149.602
 20
17.1982
 11
149.588
 21
17.209
  0
LINE
  8
0
 10
149.588
 20
17.209
 11
149.573
 21
17.2188
  0
LINE
  8
0
 10
149.573
 20
17.2188
 11
149.56
 21
17.2295
  0
LINE
  8
0
 10
149.56
 20
17.2295
 11
149.545
 21
17.2383
  0
LINE
  8
0
 10
149.545
 20
17.2383
 11
149.53
 21
17.248
  0
LINE
  8
0
 10
149.53
 20
17.248
 11
149.515
 21
17.2568
  0
LINE
  8
0
 10
149.515
 20
17.2568
 11
149.5
 21
17.2656
  0
LINE
  8
0
 10
149.5
 20
17.2656
 11
149.484
 21
17.2744
  0
LINE
  8
0
 10
149.484
 20
17.2744
 11
149.47
 21
17.2832
  0
LINE
  8
0
 10
149.47
 20
17.2832
 11
149.423
 21
17.3066
  0
LINE
  8
0
 10
149.423
 20
17.3066
 11
149.406
 21
17.3135
  0
LINE
  8
0
 10
149.406
 20
17.3135
 11
149.375
 21
17.3271
  0
LINE
  8
0
 10
149.375
 20
17.3271
 11
149.358
 21
17.334
  0
LINE
  8
0
 10
149.358
 20
17.334
 11
149.325
 21
17.3457
  0
LINE
  8
0
 10
149.325
 20
17.3457
 11
149.309
 21
17.3506
  0
LINE
  8
0
 10
149.309
 20
17.3506
 11
149.292
 21
17.3564
  0
LINE
  8
0
 10
149.292
 20
17.3564
 11
149.259
 21
17.3662
  0
LINE
  8
0
 10
149.259
 20
17.3662
 11
149.242
 21
17.3701
  0
LINE
  8
0
 10
149.242
 20
17.3701
 11
149.225
 21
17.374
  0
LINE
  8
0
 10
149.225
 20
17.374
 11
149.208
 21
17.3779
  0
LINE
  8
0
 10
149.208
 20
17.3779
 11
149.19
 21
17.3818
  0
LINE
  8
0
 10
149.19
 20
17.3818
 11
149.174
 21
17.3848
  0
LINE
  8
0
 10
149.174
 20
17.3848
 11
149.156
 21
17.3877
  0
LINE
  8
0
 10
149.156
 20
17.3877
 11
149.14
 21
17.3906
  0
LINE
  8
0
 10
149.14
 20
17.3906
 11
149.087
 21
17.3965
  0
LINE
  8
0
 10
149.087
 20
17.3965
 11
149.069
 21
17.3975
  0
LINE
  8
0
 10
149.069
 20
17.3975
 11
149.053
 21
17.3984
  0
LINE
  8
0
 10
149.053
 20
17.3984
 11
149.035
 21
17.3994
  0
LINE
  8
0
 10
149.035
 20
17.3994
 11
149.018
 21
17.3994
  0
LINE
  8
0
 10
149.018
 20
17.3994
 11
149
 21
17.4004
  0
LINE
  8
0
 10
149
 20
17.4004
 11
144.5
 21
17.4004
  0
LINE
  8
0
 10
144.5
 20
17.4004
 11
144.482
 21
17.3994
  0
LINE
  8
0
 10
144.482
 20
17.3994
 11
144.465
 21
17.3994
  0
LINE
  8
0
 10
144.465
 20
17.3994
 11
144.447
 21
17.3984
  0
LINE
  8
0
 10
144.447
 20
17.3984
 11
144.431
 21
17.3975
  0
LINE
  8
0
 10
144.431
 20
17.3975
 11
144.413
 21
17.3965
  0
LINE
  8
0
 10
144.413
 20
17.3965
 11
144.36
 21
17.3906
  0
LINE
  8
0
 10
144.36
 20
17.3906
 11
144.344
 21
17.3877
  0
LINE
  8
0
 10
144.344
 20
17.3877
 11
144.326
 21
17.3848
  0
LINE
  8
0
 10
144.326
 20
17.3848
 11
144.31
 21
17.3818
  0
LINE
  8
0
 10
144.31
 20
17.3818
 11
144.292
 21
17.3779
  0
LINE
  8
0
 10
144.292
 20
17.3779
 11
144.275
 21
17.374
  0
LINE
  8
0
 10
144.275
 20
17.374
 11
144.258
 21
17.3701
  0
LINE
  8
0
 10
144.258
 20
17.3701
 11
144.241
 21
17.3662
  0
LINE
  8
0
 10
144.241
 20
17.3662
 11
144.208
 21
17.3564
  0
LINE
  8
0
 10
144.208
 20
17.3564
 11
144.191
 21
17.3506
  0
LINE
  8
0
 10
144.191
 20
17.3506
 11
144.175
 21
17.3457
  0
LINE
  8
0
 10
144.175
 20
17.3457
 11
144.142
 21
17.334
  0
LINE
  8
0
 10
144.142
 20
17.334
 11
144.125
 21
17.3271
  0
LINE
  8
0
 10
144.125
 20
17.3271
 11
144.094
 21
17.3135
  0
LINE
  8
0
 10
144.094
 20
17.3135
 11
144.077
 21
17.3066
  0
LINE
  8
0
 10
144.077
 20
17.3066
 11
144.03
 21
17.2832
  0
LINE
  8
0
 10
144.03
 20
17.2832
 11
144.016
 21
17.2744
  0
LINE
  8
0
 10
144.016
 20
17.2744
 11
144
 21
17.2656
  0
LINE
  8
0
 10
144
 20
17.2656
 11
143.985
 21
17.2568
  0
LINE
  8
0
 10
143.985
 20
17.2568
 11
143.97
 21
17.248
  0
LINE
  8
0
 10
143.97
 20
17.248
 11
143.955
 21
17.2383
  0
LINE
  8
0
 10
143.955
 20
17.2383
 11
143.94
 21
17.2295
  0
LINE
  8
0
 10
143.94
 20
17.2295
 11
143.927
 21
17.2188
  0
LINE
  8
0
 10
143.927
 20
17.2188
 11
143.912
 21
17.209
  0
LINE
  8
0
 10
143.912
 20
17.209
 11
143.898
 21
17.1982
  0
LINE
  8
0
 10
143.898
 20
17.1982
 11
143.885
 21
17.1885
  0
LINE
  8
0
 10
143.885
 20
17.1885
 11
143.871
 21
17.1768
  0
LINE
  8
0
 10
143.871
 20
17.1768
 11
143.857
 21
17.166
  0
LINE
  8
0
 10
143.857
 20
17.166
 11
143.844
 21
17.1543
  0
LINE
  8
0
 10
143.844
 20
17.1543
 11
143.831
 21
17.1436
  0
LINE
  8
0
 10
143.831
 20
17.1436
 11
143.818
 21
17.1318
  0
LINE
  8
0
 10
143.818
 20
17.1318
 11
143.806
 21
17.1191
  0
LINE
  8
0
 10
143.806
 20
17.1191
 11
143.793
 21
17.1074
  0
LINE
  8
0
 10
143.793
 20
17.1074
 11
143.78
 21
17.0947
  0
LINE
  8
0
 10
143.78
 20
17.0947
 11
143.757
 21
17.0693
  0
LINE
  8
0
 10
143.757
 20
17.0693
 11
143.745
 21
17.0557
  0
LINE
  8
0
 10
143.745
 20
17.0557
 11
143.734
 21
17.043
  0
LINE
  8
0
 10
143.734
 20
17.043
 11
143.723
 21
17.0293
  0
LINE
  8
0
 10
143.723
 20
17.0293
 11
143.701
 21
17.002
  0
LINE
  8
0
 10
143.701
 20
17.002
 11
143.691
 21
16.9873
  0
LINE
  8
0
 10
143.691
 20
16.9873
 11
143.681
 21
16.9736
  0
LINE
  8
0
 10
143.681
 20
16.9736
 11
143.661
 21
16.9443
  0
LINE
  8
0
 10
143.661
 20
16.9443
 11
143.652
 21
16.9297
  0
LINE
  8
0
 10
143.652
 20
16.9297
 11
143.643
 21
16.915
  0
LINE
  8
0
 10
143.643
 20
16.915
 11
143.634
 21
16.9004
  0
LINE
  8
0
 10
143.634
 20
16.9004
 11
143.625
 21
16.8848
  0
LINE
  8
0
 10
143.625
 20
16.8848
 11
143.594
 21
16.8223
  0
LINE
  8
0
 10
143.594
 20
16.8223
 11
143.587
 21
16.8066
  0
LINE
  8
0
 10
143.587
 20
16.8066
 11
143.579
 21
16.791
  0
LINE
  8
0
 10
143.579
 20
16.791
 11
143.573
 21
16.7744
  0
LINE
  8
0
 10
143.573
 20
16.7744
 11
143.566
 21
16.7588
  0
LINE
  8
0
 10
143.566
 20
16.7588
 11
143.549
 21
16.709
  0
LINE
  8
0
 10
143.549
 20
16.709
 11
143.534
 21
16.6592
  0
LINE
  8
0
 10
143.534
 20
16.6592
 11
143.529
 21
16.6416
  0
LINE
  8
0
 10
143.529
 20
16.6416
 11
143.521
 21
16.6084
  0
LINE
  8
0
 10
143.521
 20
16.6084
 11
143.516
 21
16.5732
  0
LINE
  8
0
 10
143.516
 20
16.5732
 11
143.513
 21
16.5566
  0
LINE
  8
0
 10
143.513
 20
16.5566
 11
143.51
 21
16.5391
  0
LINE
  8
0
 10
143.51
 20
16.5391
 11
143.508
 21
16.5215
  0
LINE
  8
0
 10
143.508
 20
16.5215
 11
143.506
 21
16.5049
  0
LINE
  8
0
 10
143.506
 20
16.5049
 11
143.502
 21
16.4697
  0
LINE
  8
0
 10
143.502
 20
16.4697
 11
143.501
 21
16.4521
  0
LINE
  8
0
 10
143.501
 20
16.4521
 11
143.501
 21
16.4346
  0
LINE
  8
0
 10
143.501
 20
16.4346
 11
143.5
 21
16.417
  0
LINE
  8
0
 10
143.5
 20
16.417
 11
143.5
 21
7.40039
  0
LINE
  8
0
 10
143.5
 20
7.40039
 11
140.5
 21
7.40039
  0
LINE
  8
0
 10
140.5
 20
7.40039
 11
140.5
 21
16.417
  0
LINE
  8
0
 10
140.5
 20
16.417
 11
140.499
 21
16.4346
  0
LINE
  8
0
 10
140.499
 20
16.4346
 11
140.499
 21
16.4521
  0
LINE
  8
0
 10
140.499
 20
16.4521
 11
140.498
 21
16.4697
  0
LINE
  8
0
 10
140.498
 20
16.4697
 11
140.494
 21
16.5049
  0
LINE
  8
0
 10
140.494
 20
16.5049
 11
140.492
 21
16.5215
  0
LINE
  8
0
 10
140.492
 20
16.5215
 11
140.49
 21
16.5391
  0
LINE
  8
0
 10
140.49
 20
16.5391
 11
140.487
 21
16.5566
  0
LINE
  8
0
 10
140.487
 20
16.5566
 11
140.484
 21
16.5732
  0
LINE
  8
0
 10
140.484
 20
16.5732
 11
140.479
 21
16.6084
  0
LINE
  8
0
 10
140.479
 20
16.6084
 11
140.471
 21
16.6416
  0
LINE
  8
0
 10
140.471
 20
16.6416
 11
140.466
 21
16.6592
  0
LINE
  8
0
 10
140.466
 20
16.6592
 11
140.451
 21
16.709
  0
LINE
  8
0
 10
140.451
 20
16.709
 11
140.434
 21
16.7588
  0
LINE
  8
0
 10
140.434
 20
16.7588
 11
140.427
 21
16.7744
  0
LINE
  8
0
 10
140.427
 20
16.7744
 11
140.421
 21
16.791
  0
LINE
  8
0
 10
140.421
 20
16.791
 11
140.413
 21
16.8066
  0
LINE
  8
0
 10
140.413
 20
16.8066
 11
140.406
 21
16.8223
  0
LINE
  8
0
 10
140.406
 20
16.8223
 11
140.375
 21
16.8848
  0
LINE
  8
0
 10
140.375
 20
16.8848
 11
140.366
 21
16.9004
  0
LINE
  8
0
 10
140.366
 20
16.9004
 11
140.357
 21
16.915
  0
LINE
  8
0
 10
140.357
 20
16.915
 11
140.348
 21
16.9297
  0
LINE
  8
0
 10
140.348
 20
16.9297
 11
140.339
 21
16.9443
  0
LINE
  8
0
 10
140.339
 20
16.9443
 11
140.319
 21
16.9736
  0
LINE
  8
0
 10
140.319
 20
16.9736
 11
140.309
 21
16.9873
  0
LINE
  8
0
 10
140.309
 20
16.9873
 11
140.299
 21
17.002
  0
LINE
  8
0
 10
140.299
 20
17.002
 11
140.277
 21
17.0293
  0
LINE
  8
0
 10
140.277
 20
17.0293
 11
140.266
 21
17.043
  0
LINE
  8
0
 10
140.266
 20
17.043
 11
140.255
 21
17.0557
  0
LINE
  8
0
 10
140.255
 20
17.0557
 11
140.243
 21
17.0693
  0
LINE
  8
0
 10
140.243
 20
17.0693
 11
140.22
 21
17.0947
  0
LINE
  8
0
 10
140.22
 20
17.0947
 11
140.207
 21
17.1074
  0
LINE
  8
0
 10
140.207
 20
17.1074
 11
140.194
 21
17.1191
  0
LINE
  8
0
 10
140.194
 20
17.1191
 11
140.182
 21
17.1318
  0
LINE
  8
0
 10
140.182
 20
17.1318
 11
140.169
 21
17.1436
  0
LINE
  8
0
 10
140.169
 20
17.1436
 11
140.156
 21
17.1543
  0
LINE
  8
0
 10
140.156
 20
17.1543
 11
140.143
 21
17.166
  0
LINE
  8
0
 10
140.143
 20
17.166
 11
140.129
 21
17.1768
  0
LINE
  8
0
 10
140.129
 20
17.1768
 11
140.115
 21
17.1885
  0
LINE
  8
0
 10
140.115
 20
17.1885
 11
140.102
 21
17.1982
  0
LINE
  8
0
 10
140.102
 20
17.1982
 11
140.088
 21
17.209
  0
LINE
  8
0
 10
140.088
 20
17.209
 11
140.073
 21
17.2188
  0
LINE
  8
0
 10
140.073
 20
17.2188
 11
140.06
 21
17.2295
  0
LINE
  8
0
 10
140.06
 20
17.2295
 11
140.045
 21
17.2383
  0
LINE
  8
0
 10
140.045
 20
17.2383
 11
140.03
 21
17.248
  0
LINE
  8
0
 10
140.03
 20
17.248
 11
140.015
 21
17.2568
  0
LINE
  8
0
 10
140.015
 20
17.2568
 11
140
 21
17.2656
  0
LINE
  8
0
 10
140
 20
17.2656
 11
139.984
 21
17.2744
  0
LINE
  8
0
 10
139.984
 20
17.2744
 11
139.97
 21
17.2832
  0
LINE
  8
0
 10
139.97
 20
17.2832
 11
139.923
 21
17.3066
  0
LINE
  8
0
 10
139.923
 20
17.3066
 11
139.906
 21
17.3135
  0
LINE
  8
0
 10
139.906
 20
17.3135
 11
139.875
 21
17.3271
  0
LINE
  8
0
 10
139.875
 20
17.3271
 11
139.858
 21
17.334
  0
LINE
  8
0
 10
139.858
 20
17.334
 11
139.825
 21
17.3457
  0
LINE
  8
0
 10
139.825
 20
17.3457
 11
139.809
 21
17.3506
  0
LINE
  8
0
 10
139.809
 20
17.3506
 11
139.792
 21
17.3564
  0
LINE
  8
0
 10
139.792
 20
17.3564
 11
139.759
 21
17.3662
  0
LINE
  8
0
 10
139.759
 20
17.3662
 11
139.742
 21
17.3701
  0
LINE
  8
0
 10
139.742
 20
17.3701
 11
139.725
 21
17.374
  0
LINE
  8
0
 10
139.725
 20
17.374
 11
139.708
 21
17.3779
  0
LINE
  8
0
 10
139.708
 20
17.3779
 11
139.69
 21
17.3818
  0
LINE
  8
0
 10
139.69
 20
17.3818
 11
139.674
 21
17.3848
  0
LINE
  8
0
 10
139.674
 20
17.3848
 11
139.656
 21
17.3877
  0
LINE
  8
0
 10
139.656
 20
17.3877
 11
139.64
 21
17.3906
  0
LINE
  8
0
 10
139.64
 20
17.3906
 11
139.587
 21
17.3965
  0
LINE
  8
0
 10
139.587
 20
17.3965
 11
139.569
 21
17.3975
  0
LINE
  8
0
 10
139.569
 20
17.3975
 11
139.553
 21
17.3984
  0
LINE
  8
0
 10
139.553
 20
17.3984
 11
139.535
 21
17.3994
  0
LINE
  8
0
 10
139.535
 20
17.3994
 11
139.518
 21
17.3994
  0
LINE
  8
0
 10
139.518
 20
17.3994
 11
139.5
 21
17.4004
  0
LINE
  8
0
 10
139.5
 20
17.4004
 11
134.159
 21
17.4004
  0
LINE
  8
0
 10
134.159
 20
17.4004
 11
134.159
 21
20.4004
  0
LINE
  8
0
 10
134.159
 20
20.4004
 11
139.535
 21
20.4004
  0
LINE
  8
0
 10
139.535
 20
20.4004
 11
139.553
 21
20.4014
  0
LINE
  8
0
 10
139.553
 20
20.4014
 11
139.569
 21
20.4023
  0
LINE
  8
0
 10
139.569
 20
20.4023
 11
139.587
 21
20.4033
  0
LINE
  8
0
 10
139.587
 20
20.4033
 11
139.622
 21
20.4072
  0
LINE
  8
0
 10
139.622
 20
20.4072
 11
139.64
 21
20.4102
  0
LINE
  8
0
 10
139.64
 20
20.4102
 11
139.656
 21
20.4121
  0
LINE
  8
0
 10
139.656
 20
20.4121
 11
139.674
 21
20.415
  0
LINE
  8
0
 10
139.674
 20
20.415
 11
139.69
 21
20.418
  0
LINE
  8
0
 10
139.69
 20
20.418
 11
139.708
 21
20.4219
  0
LINE
  8
0
 10
139.708
 20
20.4219
 11
139.725
 21
20.4258
  0
LINE
  8
0
 10
139.725
 20
20.4258
 11
139.742
 21
20.4297
  0
LINE
  8
0
 10
139.742
 20
20.4297
 11
139.759
 21
20.4336
  0
LINE
  8
0
 10
139.759
 20
20.4336
 11
139.792
 21
20.4434
  0
LINE
  8
0
 10
139.792
 20
20.4434
 11
139.809
 21
20.4492
  0
LINE
  8
0
 10
139.809
 20
20.4492
 11
139.825
 21
20.4541
  0
LINE
  8
0
 10
139.825
 20
20.4541
 11
139.842
 21
20.46
  0
LINE
  8
0
 10
139.842
 20
20.46
 11
139.858
 21
20.4668
  0
LINE
  8
0
 10
139.858
 20
20.4668
 11
139.875
 21
20.4727
  0
LINE
  8
0
 10
139.875
 20
20.4727
 11
139.906
 21
20.4863
  0
LINE
  8
0
 10
139.906
 20
20.4863
 11
139.923
 21
20.4941
  0
LINE
  8
0
 10
139.923
 20
20.4941
 11
139.938
 21
20.501
  0
LINE
  8
0
 10
139.938
 20
20.501
 11
139.97
 21
20.5166
  0
LINE
  8
0
 10
139.97
 20
20.5166
 11
139.984
 21
20.5254
  0
LINE
  8
0
 10
139.984
 20
20.5254
 11
140
 21
20.5342
  0
LINE
  8
0
 10
140
 20
20.5342
 11
140.015
 21
20.543
  0
LINE
  8
0
 10
140.015
 20
20.543
 11
140.03
 21
20.5518
  0
LINE
  8
0
 10
140.03
 20
20.5518
 11
140.06
 21
20.5713
  0
LINE
  8
0
 10
140.06
 20
20.5713
 11
140.073
 21
20.5811
  0
LINE
  8
0
 10
140.073
 20
20.5811
 11
140.088
 21
20.5908
  0
LINE
  8
0
 10
140.088
 20
20.5908
 11
140.143
 21
20.6338
  0
LINE
  8
0
 10
140.143
 20
20.6338
 11
140.156
 21
20.6455
  0
LINE
  8
0
 10
140.156
 20
20.6455
 11
140.194
 21
20.6807
  0
LINE
  8
0
 10
140.194
 20
20.6807
 11
140.207
 21
20.6934
  0
LINE
  8
0
 10
140.207
 20
20.6934
 11
140.22
 21
20.7051
  0
LINE
  8
0
 10
140.22
 20
20.7051
 11
140.243
 21
20.7305
  0
LINE
  8
0
 10
140.243
 20
20.7305
 11
140.255
 21
20.7441
  0
LINE
  8
0
 10
140.255
 20
20.7441
 11
140.266
 21
20.7568
  0
LINE
  8
0
 10
140.266
 20
20.7568
 11
140.277
 21
20.7705
  0
LINE
  8
0
 10
140.277
 20
20.7705
 11
140.299
 21
20.7979
  0
LINE
  8
0
 10
140.299
 20
20.7979
 11
140.309
 21
20.8125
  0
LINE
  8
0
 10
140.309
 20
20.8125
 11
140.319
 21
20.8262
  0
LINE
  8
0
 10
140.319
 20
20.8262
 11
140.339
 21
20.8555
  0
LINE
  8
0
 10
140.339
 20
20.8555
 11
140.348
 21
20.8701
  0
LINE
  8
0
 10
140.348
 20
20.8701
 11
140.357
 21
20.8848
  0
LINE
  8
0
 10
140.357
 20
20.8848
 11
140.366
 21
20.9004
  0
LINE
  8
0
 10
140.366
 20
20.9004
 11
140.375
 21
20.915
  0
LINE
  8
0
 10
140.375
 20
20.915
 11
140.406
 21
20.9775
  0
LINE
  8
0
 10
140.406
 20
20.9775
 11
140.413
 21
20.9932
  0
LINE
  8
0
 10
140.413
 20
20.9932
 11
140.421
 21
21.0088
  0
LINE
  8
0
 10
140.421
 20
21.0088
 11
140.427
 21
21.0254
  0
LINE
  8
0
 10
140.427
 20
21.0254
 11
140.434
 21
21.042
  0
LINE
  8
0
 10
140.434
 20
21.042
 11
140.439
 21
21.0576
  0
LINE
  8
0
 10
140.439
 20
21.0576
 11
140.451
 21
21.0908
  0
LINE
  8
0
 10
140.451
 20
21.0908
 11
140.461
 21
21.124
  0
LINE
  8
0
 10
140.461
 20
21.124
 11
140.466
 21
21.1416
  0
LINE
  8
0
 10
140.466
 20
21.1416
 11
140.471
 21
21.1582
  0
LINE
  8
0
 10
140.471
 20
21.1582
 11
140.475
 21
21.1748
  0
LINE
  8
0
 10
140.475
 20
21.1748
 11
140.479
 21
21.1924
  0
LINE
  8
0
 10
140.479
 20
21.1924
 11
140.481
 21
21.209
  0
LINE
  8
0
 10
140.481
 20
21.209
 11
140.484
 21
21.2266
  0
LINE
  8
0
 10
140.484
 20
21.2266
 11
140.487
 21
21.2432
  0
LINE
  8
0
 10
140.487
 20
21.2432
 11
140.49
 21
21.2607
  0
LINE
  8
0
 10
140.49
 20
21.2607
 11
140.494
 21
21.2959
  0
LINE
  8
0
 10
140.494
 20
21.2959
 11
140.496
 21
21.3125
  0
LINE
  8
0
 10
140.496
 20
21.3125
 11
140.498
 21
21.3301
  0
LINE
  8
0
 10
140.498
 20
21.3301
 11
140.499
 21
21.3477
  0
LINE
  8
0
 10
140.499
 20
21.3477
 11
140.499
 21
21.3652
  0
LINE
  8
0
 10
140.499
 20
21.3652
 11
140.5
 21
21.3828
  0
LINE
  8
0
 10
140.5
 20
21.3828
 11
140.5
 21
27.4004
  0
LINE
  8
0
 10
140.5
 20
27.4004
 11
149.035
 21
27.4004
  0
LINE
  8
0
 10
149.035
 20
27.4004
 11
149.053
 21
27.4014
  0
LINE
  8
0
 10
149.053
 20
27.4014
 11
149.069
 21
27.4023
  0
LINE
  8
0
 10
149.069
 20
27.4023
 11
149.087
 21
27.4033
  0
LINE
  8
0
 10
149.087
 20
27.4033
 11
149.122
 21
27.4072
  0
LINE
  8
0
 10
149.122
 20
27.4072
 11
149.14
 21
27.4102
  0
LINE
  8
0
 10
149.14
 20
27.4102
 11
149.156
 21
27.4121
  0
LINE
  8
0
 10
149.156
 20
27.4121
 11
149.174
 21
27.415
  0
LINE
  8
0
 10
149.174
 20
27.415
 11
149.19
 21
27.418
  0
LINE
  8
0
 10
149.19
 20
27.418
 11
149.208
 21
27.4219
  0
LINE
  8
0
 10
149.208
 20
27.4219
 11
149.225
 21
27.4258
  0
LINE
  8
0
 10
149.225
 20
27.4258
 11
149.242
 21
27.4297
  0
LINE
  8
0
 10
149.242
 20
27.4297
 11
149.259
 21
27.4336
  0
LINE
  8
0
 10
149.259
 20
27.4336
 11
149.292
 21
27.4434
  0
LINE
  8
0
 10
149.292
 20
27.4434
 11
149.309
 21
27.4492
  0
LINE
  8
0
 10
149.309
 20
27.4492
 11
149.325
 21
27.4541
  0
LINE
  8
0
 10
149.325
 20
27.4541
 11
149.342
 21
27.46
  0
LINE
  8
0
 10
149.342
 20
27.46
 11
149.358
 21
27.4668
  0
LINE
  8
0
 10
149.358
 20
27.4668
 11
149.375
 21
27.4727
  0
LINE
  8
0
 10
149.375
 20
27.4727
 11
149.406
 21
27.4863
  0
LINE
  8
0
 10
149.406
 20
27.4863
 11
149.423
 21
27.4941
  0
LINE
  8
0
 10
149.423
 20
27.4941
 11
149.438
 21
27.501
  0
LINE
  8
0
 10
149.438
 20
27.501
 11
149.47
 21
27.5166
  0
LINE
  8
0
 10
149.47
 20
27.5166
 11
149.484
 21
27.5254
  0
LINE
  8
0
 10
149.484
 20
27.5254
 11
149.5
 21
27.5342
  0
LINE
  8
0
 10
149.5
 20
27.5342
 11
149.515
 21
27.543
  0
LINE
  8
0
 10
149.515
 20
27.543
 11
149.53
 21
27.5518
  0
LINE
  8
0
 10
149.53
 20
27.5518
 11
149.56
 21
27.5713
  0
LINE
  8
0
 10
149.56
 20
27.5713
 11
149.573
 21
27.5811
  0
LINE
  8
0
 10
149.573
 20
27.5811
 11
149.588
 21
27.5908
  0
LINE
  8
0
 10
149.588
 20
27.5908
 11
149.643
 21
27.6338
  0
LINE
  8
0
 10
149.643
 20
27.6338
 11
149.656
 21
27.6455
  0
LINE
  8
0
 10
149.656
 20
27.6455
 11
149.694
 21
27.6807
  0
LINE
  8
0
 10
149.694
 20
27.6807
 11
149.707
 21
27.6934
  0
LINE
  8
0
 10
149.707
 20
27.6934
 11
149.72
 21
27.7051
  0
LINE
  8
0
 10
149.72
 20
27.7051
 11
149.743
 21
27.7305
  0
LINE
  8
0
 10
149.743
 20
27.7305
 11
149.755
 21
27.7441
  0
LINE
  8
0
 10
149.755
 20
27.7441
 11
149.766
 21
27.7568
  0
LINE
  8
0
 10
149.766
 20
27.7568
 11
149.777
 21
27.7705
  0
LINE
  8
0
 10
149.777
 20
27.7705
 11
149.799
 21
27.7979
  0
LINE
  8
0
 10
149.799
 20
27.7979
 11
149.809
 21
27.8125
  0
LINE
  8
0
 10
149.809
 20
27.8125
 11
149.819
 21
27.8262
  0
LINE
  8
0
 10
149.819
 20
27.8262
 11
149.839
 21
27.8555
  0
LINE
  8
0
 10
149.839
 20
27.8555
 11
149.848
 21
27.8701
  0
LINE
  8
0
 10
149.848
 20
27.8701
 11
149.857
 21
27.8848
  0
LINE
  8
0
 10
149.857
 20
27.8848
 11
149.866
 21
27.9004
  0
LINE
  8
0
 10
149.866
 20
27.9004
 11
149.875
 21
27.915
  0
LINE
  8
0
 10
149.875
 20
27.915
 11
149.906
 21
27.9775
  0
LINE
  8
0
 10
149.906
 20
27.9775
 11
149.913
 21
27.9932
  0
LINE
  8
0
 10
149.913
 20
27.9932
 11
149.921
 21
28.0088
  0
LINE
  8
0
 10
149.921
 20
28.0088
 11
149.927
 21
28.0254
  0
LINE
  8
0
 10
149.927
 20
28.0254
 11
149.934
 21
28.042
  0
LINE
  8
0
 10
149.934
 20
28.042
 11
149.939
 21
28.0576
  0
LINE
  8
0
 10
149.939
 20
28.0576
 11
149.951
 21
28.0908
  0
LINE
  8
0
 10
149.951
 20
28.0908
 11
149.961
 21
28.124
  0
LINE
  8
0
 10
149.961
 20
28.124
 11
149.966
 21
28.1416
  0
LINE
  8
0
 10
149.966
 20
28.1416
 11
149.971
 21
28.1582
  0
LINE
  8
0
 10
149.971
 20
28.1582
 11
149.975
 21
28.1748
  0
LINE
  8
0
 10
149.975
 20
28.1748
 11
149.979
 21
28.1924
  0
LINE
  8
0
 10
149.979
 20
28.1924
 11
149.981
 21
28.209
  0
LINE
  8
0
 10
149.981
 20
28.209
 11
149.984
 21
28.2266
  0
LINE
  8
0
 10
149.984
 20
28.2266
 11
149.987
 21
28.2432
  0
LINE
  8
0
 10
149.987
 20
28.2432
 11
149.99
 21
28.2607
  0
LINE
  8
0
 10
149.99
 20
28.2607
 11
149.994
 21
28.2959
  0
LINE
  8
0
 10
149.994
 20
28.2959
 11
149.996
 21
28.3125
  0
LINE
  8
0
 10
149.996
 20
28.3125
 11
149.998
 21
28.3301
  0
LINE
  8
0
 10
149.998
 20
28.3301
 11
149.999
 21
28.3477
  0
LINE
  8
0
 10
149.999
 20
28.3477
 11
149.999
 21
28.3652
  0
LINE
  8
0
 10
149.999
 20
28.3652
 11
150
 21
28.3828
  0
LINE
  8
0
 10
150
 20
28.3828
 11
150
 21
45.0947
  0
LINE
  8
0
 10
150
 20
45.0947
 11
149.999
 21
45.2344
  0
LINE
  8
0
 10
149.999
 20
45.2344
 11
149.995
 21
45.374
  0
LINE
  8
0
 10
149.995
 20
45.374
 11
149.989
 21
45.5137
  0
LINE
  8
0
 10
149.989
 20
45.5137
 11
149.98
 21
45.6533
  0
LINE
  8
0
 10
149.98
 20
45.6533
 11
149.97
 21
45.792
  0
LINE
  8
0
 10
149.97
 20
45.792
 11
149.956
 21
45.9316
  0
LINE
  8
0
 10
149.956
 20
45.9316
 11
149.94
 21
46.0703
  0
LINE
  8
0
 10
149.94
 20
46.0703
 11
149.922
 21
46.209
  0
LINE
  8
0
 10
149.922
 20
46.209
 11
149.901
 21
46.3467
  0
LINE
  8
0
 10
149.901
 20
46.3467
 11
149.879
 21
46.4844
  0
LINE
  8
0
 10
149.879
 20
46.4844
 11
149.853
 21
46.6221
  0
LINE
  8
0
 10
149.853
 20
46.6221
 11
149.825
 21
46.7588
  0
LINE
  8
0
 10
149.825
 20
46.7588
 11
149.795
 21
46.8945
  0
LINE
  8
0
 10
149.795
 20
46.8945
 11
149.763
 21
47.0303
  0
LINE
  8
0
 10
149.763
 20
47.0303
 11
149.728
 21
47.166
  0
LINE
  8
0
 10
149.728
 20
47.166
 11
149.69
 21
47.2998
  0
LINE
  8
0
 10
149.69
 20
47.2998
 11
149.65
 21
47.4346
  0
LINE
  8
0
 10
149.65
 20
47.4346
 11
149.608
 21
47.5674
  0
LINE
  8
0
 10
149.608
 20
47.5674
 11
149.564
 21
47.6992
  0
LINE
  8
0
 10
149.564
 20
47.6992
 11
149.518
 21
47.8311
  0
LINE
  8
0
 10
149.518
 20
47.8311
 11
149.469
 21
47.9619
  0
LINE
  8
0
 10
149.469
 20
47.9619
 11
149.417
 21
48.0918
  0
LINE
  8
0
 10
149.417
 20
48.0918
 11
149.364
 21
48.2207
  0
LINE
  8
0
 10
149.364
 20
48.2207
 11
149.309
 21
48.3486
  0
LINE
  8
0
 10
149.309
 20
48.3486
 11
149.25
 21
48.4756
  0
LINE
  8
0
 10
149.25
 20
48.4756
 11
149.19
 21
48.6025
  0
LINE
  8
0
 10
149.19
 20
48.6025
 11
149.128
 21
48.7266
  0
LINE
  8
0
 10
149.128
 20
48.7266
 11
149.063
 21
48.8506
  0
LINE
  8
0
 10
149.063
 20
48.8506
 11
148.997
 21
48.9736
  0
LINE
  8
0
 10
148.997
 20
48.9736
 11
148.928
 21
49.0947
  0
LINE
  8
0
 10
148.928
 20
49.0947
 11
148.857
 21
49.2158
  0
LINE
  8
0
 10
148.857
 20
49.2158
 11
148.784
 21
49.334
  0
LINE
  8
0
 10
148.784
 20
49.334
 11
148.709
 21
49.4521
  0
LINE
  8
0
 10
148.709
 20
49.4521
 11
148.632
 21
49.5684
  0
LINE
  8
0
 10
148.632
 20
49.5684
 11
148.553
 21
49.6836
  0
LINE
  8
0
 10
148.553
 20
49.6836
 11
148.472
 21
49.7979
  0
LINE
  8
0
 10
148.472
 20
49.7979
 11
148.389
 21
49.9092
  0
LINE
  8
0
 10
148.389
 20
49.9092
 11
148.304
 21
50.0205
  0
LINE
  8
0
 10
148.304
 20
50.0205
 11
148.217
 21
50.1299
  0
LINE
  8
0
 10
148.217
 20
50.1299
 11
148.128
 21
50.2373
  0
LINE
  8
0
 10
148.128
 20
50.2373
 11
148.038
 21
50.3438
  0
LINE
  8
0
 10
148.038
 20
50.3438
 11
147.945
 21
50.4482
  0
LINE
  8
0
 10
147.945
 20
50.4482
 11
147.851
 21
50.5508
  0
LINE
  8
0
 10
147.851
 20
50.5508
 11
147.755
 21
50.6523
  0
LINE
  8
0
 10
147.755
 20
50.6523
 11
147.657
 21
50.752
  0
LINE
  8
0
 10
147.657
 20
50.752
 11
147.558
 21
50.8496
  0
LINE
  8
0
 10
147.558
 20
50.8496
 11
147.456
 21
50.9463
  0
LINE
  8
0
 10
147.456
 20
50.9463
 11
147.354
 21
51.04
  0
LINE
  8
0
 10
147.354
 20
51.04
 11
147.248
 21
51.1328
  0
LINE
  8
0
 10
147.248
 20
51.1328
 11
147.143
 21
51.2236
  0
LINE
  8
0
 10
147.143
 20
51.2236
 11
147.034
 21
51.3125
  0
LINE
  8
0
 10
147.034
 20
51.3125
 11
146.925
 21
51.3994
  0
LINE
  8
0
 10
146.925
 20
51.3994
 11
146.814
 21
51.4844
  0
LINE
  8
0
 10
146.814
 20
51.4844
 11
146.702
 21
51.5674
  0
LINE
  8
0
 10
146.702
 20
51.5674
 11
146.589
 21
51.6484
  0
LINE
  8
0
 10
146.589
 20
51.6484
 11
146.474
 21
51.7275
  0
LINE
  8
0
 10
146.474
 20
51.7275
 11
146.357
 21
51.8047
  0
LINE
  8
0
 10
146.357
 20
51.8047
 11
146.239
 21
51.8799
  0
LINE
  8
0
 10
146.239
 20
51.8799
 11
146.12
 21
51.9521
  0
LINE
  8
0
 10
146.12
 20
51.9521
 11
146
 21
52.0234
  0
LINE
  8
0
 10
146
 20
52.0234
 11
145.879
 21
52.0918
  0
LINE
  8
0
 10
145.879
 20
52.0918
 11
145.756
 21
52.1592
  0
LINE
  8
0
 10
145.756
 20
52.1592
 11
145.632
 21
52.2236
  0
LINE
  8
0
 10
145.632
 20
52.2236
 11
145.507
 21
52.2852
  0
LINE
  8
0
 10
145.507
 20
52.2852
 11
145.381
 21
52.3457
  0
LINE
  8
0
 10
145.381
 20
52.3457
 11
145.254
 21
52.4033
  0
LINE
  8
0
 10
145.254
 20
52.4033
 11
145.126
 21
52.459
  0
LINE
  8
0
 10
145.126
 20
52.459
 11
144.997
 21
52.5127
  0
LINE
  8
0
 10
144.997
 20
52.5127
 11
144.867
 21
52.5635
  0
LINE
  8
0
 10
144.867
 20
52.5635
 11
144.736
 21
52.6123
  0
LINE
  8
0
 10
144.736
 20
52.6123
 11
144.604
 21
52.6592
  0
LINE
  8
0
 10
144.604
 20
52.6592
 11
144.472
 21
52.7031
  0
LINE
  8
0
 10
144.472
 20
52.7031
 11
144.339
 21
52.7451
  0
LINE
  8
0
 10
144.339
 20
52.7451
 11
144.205
 21
52.7852
  0
LINE
  8
0
 10
144.205
 20
52.7852
 11
144.07
 21
52.8223
  0
LINE
  8
0
 10
144.07
 20
52.8223
 11
143.936
 21
52.8574
  0
LINE
  8
0
 10
143.936
 20
52.8574
 11
143.8
 21
52.8896
  0
LINE
  8
0
 10
143.8
 20
52.8896
 11
143.663
 21
52.9199
  0
LINE
  8
0
 10
143.663
 20
52.9199
 11
143.526
 21
52.9482
  0
LINE
  8
0
 10
143.526
 20
52.9482
 11
143.39
 21
52.9736
  0
LINE
  8
0
 10
143.39
 20
52.9736
 11
143.252
 21
52.9971
  0
LINE
  8
0
 10
143.252
 20
52.9971
 11
143.113
 21
53.0176
  0
LINE
  8
0
 10
143.113
 20
53.0176
 11
142.975
 21
53.0352
  0
LINE
  8
0
 10
142.975
 20
53.0352
 11
142.836
 21
53.0518
  0
LINE
  8
0
 10
142.836
 20
53.0518
 11
142.697
 21
53.0645
  0
LINE
  8
0
 10
142.697
 20
53.0645
 11
142.558
 21
53.0752
  0
LINE
  8
0
 10
142.558
 20
53.0752
 11
142.419
 21
53.084
  0
LINE
  8
0
 10
142.419
 20
53.084
 11
142.279
 21
53.0898
  0
LINE
  8
0
 10
142.279
 20
53.0898
 11
142.14
 21
53.0938
  0
LINE
  8
0
 10
142.14
 20
53.0938
 11
142.111
 21
53.0939
  0
LINE
  8
0
 10
142.111
 20
53.0939
 11
142.072
 21
53.0918
  0
LINE
  8
0
 10
142.072
 20
53.0918
 11
142.037
 21
53.0879
  0
LINE
  8
0
 10
142.037
 20
53.0879
 11
142.021
 21
53.085
  0
LINE
  8
0
 10
142.021
 20
53.085
 11
142.003
 21
53.083
  0
LINE
  8
0
 10
142.003
 20
53.083
 11
141.985
 21
53.0801
  0
LINE
  8
0
 10
141.985
 20
53.0801
 11
141.969
 21
53.0771
  0
LINE
  8
0
 10
141.969
 20
53.0771
 11
141.951
 21
53.0732
  0
LINE
  8
0
 10
141.951
 20
53.0732
 11
141.918
 21
53.0654
  0
LINE
  8
0
 10
141.918
 20
53.0654
 11
141.9
 21
53.0615
  0
LINE
  8
0
 10
141.9
 20
53.0615
 11
141.867
 21
53.0518
  0
LINE
  8
0
 10
141.867
 20
53.0518
 11
141.851
 21
53.0459
  0
LINE
  8
0
 10
141.851
 20
53.0459
 11
141.834
 21
53.041
  0
LINE
  8
0
 10
141.834
 20
53.041
 11
141.817
 21
53.0352
  0
LINE
  8
0
 10
141.817
 20
53.0352
 11
141.801
 21
53.0283
  0
LINE
  8
0
 10
141.801
 20
53.0283
 11
141.785
 21
53.0225
  0
LINE
  8
0
 10
141.785
 20
53.0225
 11
141.769
 21
53.0156
  0
LINE
  8
0
 10
141.769
 20
53.0156
 11
141.753
 21
53.0088
  0
LINE
  8
0
 10
141.753
 20
53.0088
 11
141.736
 21
53.001
  0
LINE
  8
0
 10
141.736
 20
53.001
 11
141.721
 21
52.9941
  0
LINE
  8
0
 10
141.721
 20
52.9941
 11
141.705
 21
52.9863
  0
LINE
  8
0
 10
141.705
 20
52.9863
 11
141.69
 21
52.9785
  0
LINE
  8
0
 10
141.69
 20
52.9785
 11
141.659
 21
52.9609
  0
LINE
  8
0
 10
141.659
 20
52.9609
 11
141.63
 21
52.9434
  0
LINE
  8
0
 10
141.63
 20
52.9434
 11
141.571
 21
52.9043
  0
LINE
  8
0
 10
141.571
 20
52.9043
 11
141.517
 21
52.8613
  0
LINE
  8
0
 10
141.517
 20
52.8613
 11
141.503
 21
52.8496
  0
LINE
  8
0
 10
141.503
 20
52.8496
 11
141.465
 21
52.8145
  0
LINE
  8
0
 10
141.465
 20
52.8145
 11
141.428
 21
52.7773
  0
LINE
  8
0
 10
141.428
 20
52.7773
 11
141.416
 21
52.7646
  0
LINE
  8
0
 10
141.416
 20
52.7646
 11
141.404
 21
52.751
  0
LINE
  8
0
 10
141.404
 20
52.751
 11
141.394
 21
52.7383
  0
LINE
  8
0
 10
141.394
 20
52.7383
 11
141.382
 21
52.7246
  0
LINE
  8
0
 10
141.382
 20
52.7246
 11
141.36
 21
52.6973
  0
LINE
  8
0
 10
141.36
 20
52.6973
 11
141.351
 21
52.6826
  0
LINE
  8
0
 10
141.351
 20
52.6826
 11
141.34
 21
52.6689
  0
LINE
  8
0
 10
141.34
 20
52.6689
 11
141.32
 21
52.6396
  0
LINE
  8
0
 10
141.32
 20
52.6396
 11
141.303
 21
52.6104
  0
LINE
  8
0
 10
141.303
 20
52.6104
 11
141.293
 21
52.5947
  0
LINE
  8
0
 10
141.293
 20
52.5947
 11
141.285
 21
52.5801
  0
LINE
  8
0
 10
141.285
 20
52.5801
 11
141.276
 21
52.5645
  0
LINE
  8
0
 10
141.276
 20
52.5645
 11
141.253
 21
52.5176
  0
LINE
  8
0
 10
141.253
 20
52.5176
 11
141.239
 21
52.4863
  0
LINE
  8
0
 10
141.239
 20
52.4863
 11
141.226
 21
52.4531
  0
LINE
  8
0
 10
141.226
 20
52.4531
 11
141.22
 21
52.4375
  0
LINE
  8
0
 10
141.22
 20
52.4375
 11
141.208
 21
52.4043
  0
LINE
  8
0
 10
141.208
 20
52.4043
 11
141.198
 21
52.3711
  0
LINE
  8
0
 10
141.198
 20
52.3711
 11
141.193
 21
52.3535
  0
LINE
  8
0
 10
141.193
 20
52.3535
 11
141.189
 21
52.3369
  0
LINE
  8
0
 10
141.189
 20
52.3369
 11
141.185
 21
52.3203
  0
LINE
  8
0
 10
141.185
 20
52.3203
 11
141.182
 21
52.3027
  0
LINE
  8
0
 10
141.182
 20
52.3027
 11
141.178
 21
52.2861
  0
LINE
  8
0
 10
141.178
 20
52.2861
 11
141.175
 21
52.2686
  0
LINE
  8
0
 10
141.175
 20
52.2686
 11
141.172
 21
52.252
  0
LINE
  8
0
 10
141.172
 20
52.252
 11
141.169
 21
52.2344
  0
LINE
  8
0
 10
141.169
 20
52.2344
 11
141.165
 21
52.1992
  0
LINE
  8
0
 10
141.165
 20
52.1992
 11
141.163
 21
52.1826
  0
LINE
  8
0
 10
141.163
 20
52.1826
 11
141.159
 21
52.1123
  0
LINE
  8
0
 10
141.159
 20
52.1123
 11
141.159
 21
45.0947
  0
LINE
  8
0
 10
141.159
 20
45.0947
 11
135.125
 21
45.0947
  0
LINE
  8
0
 10
135.125
 20
45.0947
 11
135.072
 21
45.0918
  0
LINE
  8
0
 10
135.072
 20
45.0918
 11
135.037
 21
45.0879
  0
LINE
  8
0
 10
135.037
 20
45.0879
 11
135.021
 21
45.085
  0
LINE
  8
0
 10
135.021
 20
45.085
 11
135.003
 21
45.083
  0
LINE
  8
0
 10
135.003
 20
45.083
 11
134.985
 21
45.0801
  0
LINE
  8
0
 10
134.985
 20
45.0801
 11
134.969
 21
45.0771
  0
LINE
  8
0
 10
134.969
 20
45.0771
 11
134.951
 21
45.0732
  0
LINE
  8
0
 10
134.951
 20
45.0732
 11
134.918
 21
45.0654
  0
LINE
  8
0
 10
134.918
 20
45.0654
 11
134.9
 21
45.0615
  0
LINE
  8
0
 10
134.9
 20
45.0615
 11
134.867
 21
45.0518
  0
LINE
  8
0
 10
134.867
 20
45.0518
 11
134.851
 21
45.0459
  0
LINE
  8
0
 10
134.851
 20
45.0459
 11
134.834
 21
45.041
  0
LINE
  8
0
 10
134.834
 20
45.041
 11
134.817
 21
45.0352
  0
LINE
  8
0
 10
134.817
 20
45.0352
 11
134.801
 21
45.0283
  0
LINE
  8
0
 10
134.801
 20
45.0283
 11
134.785
 21
45.0225
  0
LINE
  8
0
 10
134.785
 20
45.0225
 11
134.769
 21
45.0156
  0
LINE
  8
0
 10
134.769
 20
45.0156
 11
134.753
 21
45.0088
  0
LINE
  8
0
 10
134.753
 20
45.0088
 11
134.736
 21
45.001
  0
LINE
  8
0
 10
134.736
 20
45.001
 11
134.721
 21
44.9941
  0
LINE
  8
0
 10
134.721
 20
44.9941
 11
134.705
 21
44.9863
  0
LINE
  8
0
 10
134.705
 20
44.9863
 11
134.69
 21
44.9785
  0
LINE
  8
0
 10
134.69
 20
44.9785
 11
134.659
 21
44.9609
  0
LINE
  8
0
 10
134.659
 20
44.9609
 11
134.63
 21
44.9434
  0
LINE
  8
0
 10
134.63
 20
44.9434
 11
134.571
 21
44.9043
  0
LINE
  8
0
 10
134.571
 20
44.9043
 11
134.517
 21
44.8613
  0
LINE
  8
0
 10
134.517
 20
44.8613
 11
134.503
 21
44.8496
  0
LINE
  8
0
 10
134.503
 20
44.8496
 11
134.465
 21
44.8145
  0
LINE
  8
0
 10
134.465
 20
44.8145
 11
134.428
 21
44.7773
  0
LINE
  8
0
 10
134.428
 20
44.7773
 11
134.416
 21
44.7646
  0
LINE
  8
0
 10
134.416
 20
44.7646
 11
134.404
 21
44.751
  0
LINE
  8
0
 10
134.404
 20
44.751
 11
134.394
 21
44.7383
  0
LINE
  8
0
 10
134.394
 20
44.7383
 11
134.382
 21
44.7246
  0
LINE
  8
0
 10
134.382
 20
44.7246
 11
134.36
 21
44.6973
  0
LINE
  8
0
 10
134.36
 20
44.6973
 11
134.351
 21
44.6826
  0
LINE
  8
0
 10
134.351
 20
44.6826
 11
134.34
 21
44.6689
  0
LINE
  8
0
 10
134.34
 20
44.6689
 11
134.32
 21
44.6396
  0
LINE
  8
0
 10
134.32
 20
44.6396
 11
134.303
 21
44.6104
  0
LINE
  8
0
 10
134.303
 20
44.6104
 11
134.293
 21
44.5947
  0
LINE
  8
0
 10
134.293
 20
44.5947
 11
134.285
 21
44.5801
  0
LINE
  8
0
 10
134.285
 20
44.5801
 11
134.276
 21
44.5645
  0
LINE
  8
0
 10
134.276
 20
44.5645
 11
134.253
 21
44.5176
  0
LINE
  8
0
 10
134.253
 20
44.5176
 11
134.239
 21
44.4863
  0
LINE
  8
0
 10
134.239
 20
44.4863
 11
134.226
 21
44.4531
  0
LINE
  8
0
 10
134.226
 20
44.4531
 11
134.22
 21
44.4375
  0
LINE
  8
0
 10
134.22
 20
44.4375
 11
134.208
 21
44.4043
  0
LINE
  8
0
 10
134.208
 20
44.4043
 11
134.198
 21
44.3711
  0
LINE
  8
0
 10
134.198
 20
44.3711
 11
134.193
 21
44.3535
  0
LINE
  8
0
 10
134.193
 20
44.3535
 11
134.189
 21
44.3369
  0
LINE
  8
0
 10
134.189
 20
44.3369
 11
134.185
 21
44.3203
  0
LINE
  8
0
 10
134.185
 20
44.3203
 11
134.182
 21
44.3027
  0
LINE
  8
0
 10
134.182
 20
44.3027
 11
134.178
 21
44.2861
  0
LINE
  8
0
 10
134.178
 20
44.2861
 11
134.175
 21
44.2686
  0
LINE
  8
0
 10
134.175
 20
44.2686
 11
134.172
 21
44.252
  0
LINE
  8
0
 10
134.172
 20
44.252
 11
134.169
 21
44.2344
  0
LINE
  8
0
 10
134.169
 20
44.2344
 11
134.165
 21
44.1992
  0
LINE
  8
0
 10
134.165
 20
44.1992
 11
134.163
 21
44.1826
  0
LINE
  8
0
 10
134.163
 20
44.1826
 11
134.159
 21
44.1123
  0
LINE
  8
0
 10
134.159
 20
44.1123
 11
134.159
 21
28.0947
  0
LINE
  8
0
 10
134.159
 20
28.0947
 11
131.159
 21
28.0947
  0
LINE
  8
0
 10
131.159
 20
28.0947
 11
131.159
 21
44.1299
  0
LINE
  8
0
 10
131.159
 20
44.1299
 11
131.157
 21
44.165
  0
LINE
  8
0
 10
131.157
 20
44.165
 11
131.155
 21
44.1826
  0
LINE
  8
0
 10
131.155
 20
44.1826
 11
131.154
 21
44.1992
  0
LINE
  8
0
 10
131.154
 20
44.1992
 11
131.152
 21
44.2168
  0
LINE
  8
0
 10
131.152
 20
44.2168
 11
131.149
 21
44.2344
  0
LINE
  8
0
 10
131.149
 20
44.2344
 11
131.147
 21
44.252
  0
LINE
  8
0
 10
131.147
 20
44.252
 11
131.145
 21
44.2686
  0
LINE
  8
0
 10
131.145
 20
44.2686
 11
131.141
 21
44.2861
  0
LINE
  8
0
 10
131.141
 20
44.2861
 11
131.138
 21
44.3027
  0
LINE
  8
0
 10
131.138
 20
44.3027
 11
131.134
 21
44.3203
  0
LINE
  8
0
 10
131.134
 20
44.3203
 11
131.13
 21
44.3369
  0
LINE
  8
0
 10
131.13
 20
44.3369
 11
131.125
 21
44.3535
  0
LINE
  8
0
 10
131.125
 20
44.3535
 11
131.121
 21
44.3711
  0
LINE
  8
0
 10
131.121
 20
44.3711
 11
131.116
 21
44.3877
  0
LINE
  8
0
 10
131.116
 20
44.3877
 11
131.099
 21
44.4375
  0
LINE
  8
0
 10
131.099
 20
44.4375
 11
131.093
 21
44.4531
  0
LINE
  8
0
 10
131.093
 20
44.4531
 11
131.087
 21
44.4697
  0
LINE
  8
0
 10
131.087
 20
44.4697
 11
131.08
 21
44.4863
  0
LINE
  8
0
 10
131.08
 20
44.4863
 11
131.073
 21
44.502
  0
LINE
  8
0
 10
131.073
 20
44.502
 11
131.065
 21
44.5176
  0
LINE
  8
0
 10
131.065
 20
44.5176
 11
131.059
 21
44.5332
  0
LINE
  8
0
 10
131.059
 20
44.5332
 11
131.051
 21
44.5488
  0
LINE
  8
0
 10
131.051
 20
44.5488
 11
131.042
 21
44.5645
  0
LINE
  8
0
 10
131.042
 20
44.5645
 11
131.034
 21
44.5801
  0
LINE
  8
0
 10
131.034
 20
44.5801
 11
131.025
 21
44.5947
  0
LINE
  8
0
 10
131.025
 20
44.5947
 11
131.017
 21
44.6104
  0
LINE
  8
0
 10
131.017
 20
44.6104
 11
131.008
 21
44.625
  0
LINE
  8
0
 10
131.008
 20
44.625
 11
130.979
 21
44.6689
  0
LINE
  8
0
 10
130.979
 20
44.6689
 11
130.969
 21
44.6826
  0
LINE
  8
0
 10
130.969
 20
44.6826
 11
130.958
 21
44.6973
  0
LINE
  8
0
 10
130.958
 20
44.6973
 11
130.926
 21
44.7383
  0
LINE
  8
0
 10
130.926
 20
44.7383
 11
130.914
 21
44.751
  0
LINE
  8
0
 10
130.914
 20
44.751
 11
130.902
 21
44.7646
  0
LINE
  8
0
 10
130.902
 20
44.7646
 11
130.879
 21
44.79
  0
LINE
  8
0
 10
130.879
 20
44.79
 11
130.866
 21
44.8018
  0
LINE
  8
0
 10
130.866
 20
44.8018
 11
130.854
 21
44.8145
  0
LINE
  8
0
 10
130.854
 20
44.8145
 11
130.842
 21
44.8262
  0
LINE
  8
0
 10
130.842
 20
44.8262
 11
130.828
 21
44.8379
  0
LINE
  8
0
 10
130.828
 20
44.8379
 11
130.815
 21
44.8496
  0
LINE
  8
0
 10
130.815
 20
44.8496
 11
130.802
 21
44.8613
  0
LINE
  8
0
 10
130.802
 20
44.8613
 11
130.789
 21
44.8721
  0
LINE
  8
0
 10
130.789
 20
44.8721
 11
130.762
 21
44.8936
  0
LINE
  8
0
 10
130.762
 20
44.8936
 11
130.747
 21
44.9043
  0
LINE
  8
0
 10
130.747
 20
44.9043
 11
130.733
 21
44.9141
  0
LINE
  8
0
 10
130.733
 20
44.9141
 11
130.689
 21
44.9434
  0
LINE
  8
0
 10
130.689
 20
44.9434
 11
130.675
 21
44.9521
  0
LINE
  8
0
 10
130.675
 20
44.9521
 11
130.659
 21
44.9609
  0
LINE
  8
0
 10
130.659
 20
44.9609
 11
130.645
 21
44.9697
  0
LINE
  8
0
 10
130.645
 20
44.9697
 11
130.629
 21
44.9785
  0
LINE
  8
0
 10
130.629
 20
44.9785
 11
130.598
 21
44.9941
  0
LINE
  8
0
 10
130.598
 20
44.9941
 11
130.582
 21
45.001
  0
LINE
  8
0
 10
130.582
 20
45.001
 11
130.566
 21
45.0088
  0
LINE
  8
0
 10
130.566
 20
45.0088
 11
130.55
 21
45.0156
  0
LINE
  8
0
 10
130.55
 20
45.0156
 11
130.534
 21
45.0225
  0
LINE
  8
0
 10
130.534
 20
45.0225
 11
130.518
 21
45.0283
  0
LINE
  8
0
 10
130.518
 20
45.0283
 11
130.501
 21
45.0352
  0
LINE
  8
0
 10
130.501
 20
45.0352
 11
130.485
 21
45.041
  0
LINE
  8
0
 10
130.485
 20
45.041
 11
130.469
 21
45.0459
  0
LINE
  8
0
 10
130.469
 20
45.0459
 11
130.452
 21
45.0518
  0
LINE
  8
0
 10
130.452
 20
45.0518
 11
130.435
 21
45.0566
  0
LINE
  8
0
 10
130.435
 20
45.0566
 11
130.418
 21
45.0615
  0
LINE
  8
0
 10
130.418
 20
45.0615
 11
130.385
 21
45.0693
  0
LINE
  8
0
 10
130.385
 20
45.0693
 11
130.367
 21
45.0732
  0
LINE
  8
0
 10
130.367
 20
45.0732
 11
130.351
 21
45.0771
  0
LINE
  8
0
 10
130.351
 20
45.0771
 11
130.315
 21
45.083
  0
LINE
  8
0
 10
130.315
 20
45.083
 11
130.299
 21
45.085
  0
LINE
  8
0
 10
130.299
 20
45.085
 11
130.281
 21
45.0879
  0
LINE
  8
0
 10
130.281
 20
45.0879
 11
130.246
 21
45.0918
  0
LINE
  8
0
 10
130.246
 20
45.0918
 11
130.229
 21
45.0928
  0
LINE
  8
0
 10
130.229
 20
45.0928
 11
130.194
 21
45.0947
  0
LINE
  8
0
 10
130.194
 20
45.0947
 11
121.159
 21
45.0947
  0
LINE
  8
0
 10
121.159
 20
45.0947
 11
121.159
 21
48.0947
  0
LINE
  8
0
 10
121.159
 20
48.0947
 11
130.159
 21
48.0947
  0
LINE
  8
0
 10
130.159
 20
48.0947
 11
130.177
 21
48.0957
  0
LINE
  8
0
 10
130.177
 20
48.0957
 11
130.194
 21
48.0957
  0
LINE
  8
0
 10
130.194
 20
48.0957
 11
130.229
 21
48.0977
  0
LINE
  8
0
 10
130.229
 20
48.0977
 11
130.246
 21
48.0986
  0
LINE
  8
0
 10
130.246
 20
48.0986
 11
130.299
 21
48.1045
  0
LINE
  8
0
 10
130.299
 20
48.1045
 11
130.315
 21
48.1074
  0
LINE
  8
0
 10
130.315
 20
48.1074
 11
130.351
 21
48.1133
  0
LINE
  8
0
 10
130.351
 20
48.1133
 11
130.367
 21
48.1172
  0
LINE
  8
0
 10
130.367
 20
48.1172
 11
130.385
 21
48.1211
  0
LINE
  8
0
 10
130.385
 20
48.1211
 11
130.418
 21
48.1289
  0
LINE
  8
0
 10
130.418
 20
48.1289
 11
130.435
 21
48.1338
  0
LINE
  8
0
 10
130.435
 20
48.1338
 11
130.452
 21
48.1387
  0
LINE
  8
0
 10
130.452
 20
48.1387
 11
130.469
 21
48.1445
  0
LINE
  8
0
 10
130.469
 20
48.1445
 11
130.485
 21
48.1494
  0
LINE
  8
0
 10
130.485
 20
48.1494
 11
130.501
 21
48.1553
  0
LINE
  8
0
 10
130.501
 20
48.1553
 11
130.518
 21
48.1611
  0
LINE
  8
0
 10
130.518
 20
48.1611
 11
130.534
 21
48.168
  0
LINE
  8
0
 10
130.534
 20
48.168
 11
130.55
 21
48.1748
  0
LINE
  8
0
 10
130.55
 20
48.1748
 11
130.566
 21
48.1816
  0
LINE
  8
0
 10
130.566
 20
48.1816
 11
130.582
 21
48.1885
  0
LINE
  8
0
 10
130.582
 20
48.1885
 11
130.629
 21
48.2119
  0
LINE
  8
0
 10
130.629
 20
48.2119
 11
130.645
 21
48.2207
  0
LINE
  8
0
 10
130.645
 20
48.2207
 11
130.659
 21
48.2295
  0
LINE
  8
0
 10
130.659
 20
48.2295
 11
130.675
 21
48.2383
  0
LINE
  8
0
 10
130.675
 20
48.2383
 11
130.689
 21
48.2471
  0
LINE
  8
0
 10
130.689
 20
48.2471
 11
130.704
 21
48.2568
  0
LINE
  8
0
 10
130.704
 20
48.2568
 11
130.719
 21
48.2656
  0
LINE
  8
0
 10
130.719
 20
48.2656
 11
130.733
 21
48.2764
  0
LINE
  8
0
 10
130.733
 20
48.2764
 11
130.747
 21
48.2861
  0
LINE
  8
0
 10
130.747
 20
48.2861
 11
130.762
 21
48.2969
  0
LINE
  8
0
 10
130.762
 20
48.2969
 11
130.775
 21
48.3066
  0
LINE
  8
0
 10
130.775
 20
48.3066
 11
130.789
 21
48.3184
  0
LINE
  8
0
 10
130.789
 20
48.3184
 11
130.802
 21
48.3291
  0
LINE
  8
0
 10
130.802
 20
48.3291
 11
130.815
 21
48.3408
  0
LINE
  8
0
 10
130.815
 20
48.3408
 11
130.828
 21
48.3516
  0
LINE
  8
0
 10
130.828
 20
48.3516
 11
130.842
 21
48.3633
  0
LINE
  8
0
 10
130.842
 20
48.3633
 11
130.879
 21
48.4004
  0
LINE
  8
0
 10
130.879
 20
48.4004
 11
130.902
 21
48.4258
  0
LINE
  8
0
 10
130.902
 20
48.4258
 11
130.914
 21
48.4395
  0
LINE
  8
0
 10
130.914
 20
48.4395
 11
130.926
 21
48.4521
  0
LINE
  8
0
 10
130.926
 20
48.4521
 11
130.958
 21
48.4932
  0
LINE
  8
0
 10
130.958
 20
48.4932
 11
130.969
 21
48.5078
  0
LINE
  8
0
 10
130.969
 20
48.5078
 11
130.979
 21
48.5215
  0
LINE
  8
0
 10
130.979
 20
48.5215
 11
131.008
 21
48.5654
  0
LINE
  8
0
 10
131.008
 20
48.5654
 11
131.025
 21
48.5947
  0
LINE
  8
0
 10
131.025
 20
48.5947
 11
131.034
 21
48.6104
  0
LINE
  8
0
 10
131.034
 20
48.6104
 11
131.042
 21
48.626
  0
LINE
  8
0
 10
131.042
 20
48.626
 11
131.051
 21
48.6416
  0
LINE
  8
0
 10
131.051
 20
48.6416
 11
131.059
 21
48.6572
  0
LINE
  8
0
 10
131.059
 20
48.6572
 11
131.065
 21
48.6729
  0
LINE
  8
0
 10
131.065
 20
48.6729
 11
131.073
 21
48.6885
  0
LINE
  8
0
 10
131.073
 20
48.6885
 11
131.08
 21
48.7041
  0
LINE
  8
0
 10
131.08
 20
48.7041
 11
131.087
 21
48.7207
  0
LINE
  8
0
 10
131.087
 20
48.7207
 11
131.093
 21
48.7363
  0
LINE
  8
0
 10
131.093
 20
48.7363
 11
131.116
 21
48.8027
  0
LINE
  8
0
 10
131.116
 20
48.8027
 11
131.121
 21
48.8193
  0
LINE
  8
0
 10
131.121
 20
48.8193
 11
131.125
 21
48.8359
  0
LINE
  8
0
 10
131.125
 20
48.8359
 11
131.13
 21
48.8535
  0
LINE
  8
0
 10
131.13
 20
48.8535
 11
131.138
 21
48.8867
  0
LINE
  8
0
 10
131.138
 20
48.8867
 11
131.141
 21
48.9043
  0
LINE
  8
0
 10
131.141
 20
48.9043
 11
131.145
 21
48.9219
  0
LINE
  8
0
 10
131.145
 20
48.9219
 11
131.147
 21
48.9385
  0
LINE
  8
0
 10
131.147
 20
48.9385
 11
131.149
 21
48.9561
  0
LINE
  8
0
 10
131.149
 20
48.9561
 11
131.152
 21
48.9736
  0
LINE
  8
0
 10
131.152
 20
48.9736
 11
131.154
 21
48.9902
  0
LINE
  8
0
 10
131.154
 20
48.9902
 11
131.155
 21
49.0078
  0
LINE
  8
0
 10
131.155
 20
49.0078
 11
131.157
 21
49.0254
  0
LINE
  8
0
 10
131.157
 20
49.0254
 11
131.159
 21
49.0605
  0
LINE
  8
0
 10
131.159
 20
49.0605
 11
131.159
 21
52.1299
  0
LINE
  8
0
 10
131.159
 20
52.1299
 11
131.157
 21
52.165
  0
LINE
  8
0
 10
131.157
 20
52.165
 11
131.155
 21
52.1826
  0
LINE
  8
0
 10
131.155
 20
52.1826
 11
131.154
 21
52.1992
  0
LINE
  8
0
 10
131.154
 20
52.1992
 11
131.152
 21
52.2168
  0
LINE
  8
0
 10
131.152
 20
52.2168
 11
131.149
 21
52.2344
  0
LINE
  8
0
 10
131.149
 20
52.2344
 11
131.147
 21
52.252
  0
LINE
  8
0
 10
131.147
 20
52.252
 11
131.145
 21
52.2686
  0
LINE
  8
0
 10
131.145
 20
52.2686
 11
131.141
 21
52.2861
  0
LINE
  8
0
 10
131.141
 20
52.2861
 11
131.138
 21
52.3027
  0
LINE
  8
0
 10
131.138
 20
52.3027
 11
131.134
 21
52.3203
  0
LINE
  8
0
 10
131.134
 20
52.3203
 11
131.13
 21
52.3369
  0
LINE
  8
0
 10
131.13
 20
52.3369
 11
131.125
 21
52.3535
  0
LINE
  8
0
 10
131.125
 20
52.3535
 11
131.121
 21
52.3711
  0
LINE
  8
0
 10
131.121
 20
52.3711
 11
131.116
 21
52.3877
  0
LINE
  8
0
 10
131.116
 20
52.3877
 11
131.099
 21
52.4375
  0
LINE
  8
0
 10
131.099
 20
52.4375
 11
131.093
 21
52.4531
  0
LINE
  8
0
 10
131.093
 20
52.4531
 11
131.087
 21
52.4697
  0
LINE
  8
0
 10
131.087
 20
52.4697
 11
131.08
 21
52.4863
  0
LINE
  8
0
 10
131.08
 20
52.4863
 11
131.073
 21
52.502
  0
LINE
  8
0
 10
131.073
 20
52.502
 11
131.065
 21
52.5176
  0
LINE
  8
0
 10
131.065
 20
52.5176
 11
131.059
 21
52.5332
  0
LINE
  8
0
 10
131.059
 20
52.5332
 11
131.051
 21
52.5488
  0
LINE
  8
0
 10
131.051
 20
52.5488
 11
131.042
 21
52.5645
  0
LINE
  8
0
 10
131.042
 20
52.5645
 11
131.034
 21
52.5801
  0
LINE
  8
0
 10
131.034
 20
52.5801
 11
131.025
 21
52.5947
  0
LINE
  8
0
 10
131.025
 20
52.5947
 11
131.017
 21
52.6104
  0
LINE
  8
0
 10
131.017
 20
52.6104
 11
131.008
 21
52.625
  0
LINE
  8
0
 10
131.008
 20
52.625
 11
130.979
 21
52.6689
  0
LINE
  8
0
 10
130.979
 20
52.6689
 11
130.969
 21
52.6826
  0
LINE
  8
0
 10
130.969
 20
52.6826
 11
130.958
 21
52.6973
  0
LINE
  8
0
 10
130.958
 20
52.6973
 11
130.926
 21
52.7383
  0
LINE
  8
0
 10
130.926
 20
52.7383
 11
130.914
 21
52.751
  0
LINE
  8
0
 10
130.914
 20
52.751
 11
130.902
 21
52.7646
  0
LINE
  8
0
 10
130.902
 20
52.7646
 11
130.879
 21
52.79
  0
LINE
  8
0
 10
130.879
 20
52.79
 11
130.866
 21
52.8018
  0
LINE
  8
0
 10
130.866
 20
52.8018
 11
130.854
 21
52.8145
  0
LINE
  8
0
 10
130.854
 20
52.8145
 11
130.842
 21
52.8262
  0
LINE
  8
0
 10
130.842
 20
52.8262
 11
130.828
 21
52.8379
  0
LINE
  8
0
 10
130.828
 20
52.8379
 11
130.815
 21
52.8496
  0
LINE
  8
0
 10
130.815
 20
52.8496
 11
130.802
 21
52.8613
  0
LINE
  8
0
 10
130.802
 20
52.8613
 11
130.789
 21
52.8721
  0
LINE
  8
0
 10
130.789
 20
52.8721
 11
130.762
 21
52.8936
  0
LINE
  8
0
 10
130.762
 20
52.8936
 11
130.747
 21
52.9043
  0
LINE
  8
0
 10
130.747
 20
52.9043
 11
130.733
 21
52.9141
  0
LINE
  8
0
 10
130.733
 20
52.9141
 11
130.689
 21
52.9434
  0
LINE
  8
0
 10
130.689
 20
52.9434
 11
130.675
 21
52.9521
  0
LINE
  8
0
 10
130.675
 20
52.9521
 11
130.659
 21
52.9609
  0
LINE
  8
0
 10
130.659
 20
52.9609
 11
130.645
 21
52.9697
  0
LINE
  8
0
 10
130.645
 20
52.9697
 11
130.629
 21
52.9785
  0
LINE
  8
0
 10
130.629
 20
52.9785
 11
130.598
 21
52.9941
  0
LINE
  8
0
 10
130.598
 20
52.9941
 11
130.582
 21
53.001
  0
LINE
  8
0
 10
130.582
 20
53.001
 11
130.566
 21
53.0088
  0
LINE
  8
0
 10
130.566
 20
53.0088
 11
130.55
 21
53.0156
  0
LINE
  8
0
 10
130.55
 20
53.0156
 11
130.534
 21
53.0225
  0
LINE
  8
0
 10
130.534
 20
53.0225
 11
130.518
 21
53.0283
  0
LINE
  8
0
 10
130.518
 20
53.0283
 11
130.501
 21
53.0352
  0
LINE
  8
0
 10
130.501
 20
53.0352
 11
130.485
 21
53.041
  0
LINE
  8
0
 10
130.485
 20
53.041
 11
130.469
 21
53.0459
  0
LINE
  8
0
 10
130.469
 20
53.0459
 11
130.452
 21
53.0518
  0
LINE
  8
0
 10
130.452
 20
53.0518
 11
130.435
 21
53.0566
  0
LINE
  8
0
 10
130.435
 20
53.0566
 11
130.418
 21
53.0615
  0
LINE
  8
0
 10
130.418
 20
53.0615
 11
130.385
 21
53.0693
  0
LINE
  8
0
 10
130.385
 20
53.0693
 11
130.367
 21
53.0732
  0
LINE
  8
0
 10
130.367
 20
53.0732
 11
130.351
 21
53.0771
  0
LINE
  8
0
 10
130.351
 20
53.0771
 11
130.315
 21
53.083
  0
LINE
  8
0
 10
130.315
 20
53.083
 11
130.299
 21
53.085
  0
LINE
  8
0
 10
130.299
 20
53.085
 11
130.281
 21
53.0879
  0
LINE
  8
0
 10
130.281
 20
53.0879
 11
130.246
 21
53.0918
  0
LINE
  8
0
 10
130.246
 20
53.0918
 11
130.229
 21
53.0928
  0
LINE
  8
0
 10
130.229
 20
53.0928
 11
130.194
 21
53.0947
  0
LINE
  8
0
 10
130.194
 20
53.0947
 11
30.9648
 21
53.0947
  0
LINE
  8
0
 10
30.9648
 20
53.0947
 11
30.9473
 21
53.0938
  0
LINE
  8
0
 10
30.9473
 20
53.0938
 11
30.9307
 21
53.0928
  0
LINE
  8
0
 10
30.9307
 20
53.0928
 11
30.9131
 21
53.0918
  0
LINE
  8
0
 10
30.9131
 20
53.0918
 11
30.8779
 21
53.0879
  0
LINE
  8
0
 10
30.8779
 20
53.0879
 11
30.8604
 21
53.085
  0
LINE
  8
0
 10
30.8604
 20
53.085
 11
30.8438
 21
53.083
  0
LINE
  8
0
 10
30.8438
 20
53.083
 11
30.8262
 21
53.0801
  0
LINE
  8
0
 10
30.8262
 20
53.0801
 11
30.8096
 21
53.0771
  0
LINE
  8
0
 10
30.8096
 20
53.0771
 11
30.792
 21
53.0732
  0
LINE
  8
0
 10
30.792
 20
53.0732
 11
30.7754
 21
53.0693
  0
LINE
  8
0
 10
30.7754
 20
53.0693
 11
30.7578
 21
53.0654
  0
LINE
  8
0
 10
30.7578
 20
53.0654
 11
30.7412
 21
53.0615
  0
LINE
  8
0
 10
30.7412
 20
53.0615
 11
30.708
 21
53.0518
  0
LINE
  8
0
 10
30.708
 20
53.0518
 11
30.6914
 21
53.0459
  0
LINE
  8
0
 10
30.6914
 20
53.0459
 11
30.6748
 21
53.041
  0
LINE
  8
0
 10
30.6748
 20
53.041
 11
30.6582
 21
53.0352
  0
LINE
  8
0
 10
30.6582
 20
53.0352
 11
30.6416
 21
53.0283
  0
LINE
  8
0
 10
30.6416
 20
53.0283
 11
30.625
 21
53.0225
  0
LINE
  8
0
 10
30.625
 20
53.0225
 11
30.5938
 21
53.0088
  0
LINE
  8
0
 10
30.5938
 20
53.0088
 11
30.5771
 21
53.001
  0
LINE
  8
0
 10
30.5771
 20
53.001
 11
30.5615
 21
52.9941
  0
LINE
  8
0
 10
30.5615
 20
52.9941
 11
30.5303
 21
52.9785
  0
LINE
  8
0
 10
30.5303
 20
52.9785
 11
30.5156
 21
52.9697
  0
LINE
  8
0
 10
30.5156
 20
52.9697
 11
30.5
 21
52.9609
  0
LINE
  8
0
 10
30.5
 20
52.9609
 11
30.4854
 21
52.9521
  0
LINE
  8
0
 10
30.4854
 20
52.9521
 11
30.4697
 21
52.9434
  0
LINE
  8
0
 10
30.4697
 20
52.9434
 11
30.4404
 21
52.9238
  0
LINE
  8
0
 10
30.4404
 20
52.9238
 11
30.4268
 21
52.9141
  0
LINE
  8
0
 10
30.4268
 20
52.9141
 11
30.4121
 21
52.9043
  0
LINE
  8
0
 10
30.4121
 20
52.9043
 11
30.3574
 21
52.8613
  0
LINE
  8
0
 10
30.3574
 20
52.8613
 11
30.3438
 21
52.8496
  0
LINE
  8
0
 10
30.3438
 20
52.8496
 11
30.3057
 21
52.8145
  0
LINE
  8
0
 10
30.3057
 20
52.8145
 11
30.293
 21
52.8018
  0
LINE
  8
0
 10
30.293
 20
52.8018
 11
30.2803
 21
52.79
  0
LINE
  8
0
 10
30.2803
 20
52.79
 11
30.2568
 21
52.7646
  0
LINE
  8
0
 10
30.2568
 20
52.7646
 11
30.2451
 21
52.751
  0
LINE
  8
0
 10
30.2451
 20
52.751
 11
30.2344
 21
52.7383
  0
LINE
  8
0
 10
30.2344
 20
52.7383
 11
30.2227
 21
52.7246
  0
LINE
  8
0
 10
30.2227
 20
52.7246
 11
30.2012
 21
52.6973
  0
LINE
  8
0
 10
30.2012
 20
52.6973
 11
30.1914
 21
52.6826
  0
LINE
  8
0
 10
30.1914
 20
52.6826
 11
30.1807
 21
52.6689
  0
LINE
  8
0
 10
30.1807
 20
52.6689
 11
30.1611
 21
52.6396
  0
LINE
  8
0
 10
30.1611
 20
52.6396
 11
30.1523
 21
52.625
  0
LINE
  8
0
 10
30.1523
 20
52.625
 11
30.1426
 21
52.6104
  0
LINE
  8
0
 10
30.1426
 20
52.6104
 11
30.1338
 21
52.5947
  0
LINE
  8
0
 10
30.1338
 20
52.5947
 11
30.125
 21
52.5801
  0
LINE
  8
0
 10
30.125
 20
52.5801
 11
30.0938
 21
52.5176
  0
LINE
  8
0
 10
30.0938
 20
52.5176
 11
30.0869
 21
52.502
  0
LINE
  8
0
 10
30.0869
 20
52.502
 11
30.0791
 21
52.4863
  0
LINE
  8
0
 10
30.0791
 20
52.4863
 11
30.0732
 21
52.4697
  0
LINE
  8
0
 10
30.0732
 20
52.4697
 11
30.0664
 21
52.4531
  0
LINE
  8
0
 10
30.0664
 20
52.4531
 11
30.0605
 21
52.4375
  0
LINE
  8
0
 10
30.0605
 20
52.4375
 11
30.0488
 21
52.4043
  0
LINE
  8
0
 10
30.0488
 20
52.4043
 11
30.0391
 21
52.3711
  0
LINE
  8
0
 10
30.0391
 20
52.3711
 11
30.0342
 21
52.3535
  0
LINE
  8
0
 10
30.0342
 20
52.3535
 11
30.0293
 21
52.3369
  0
LINE
  8
0
 10
30.0293
 20
52.3369
 11
30.0254
 21
52.3203
  0
LINE
  8
0
 10
30.0254
 20
52.3203
 11
30.0215
 21
52.3027
  0
LINE
  8
0
 10
30.0215
 20
52.3027
 11
30.0186
 21
52.2861
  0
LINE
  8
0
 10
30.0186
 20
52.2861
 11
30.0156
 21
52.2686
  0
LINE
  8
0
 10
30.0156
 20
52.2686
 11
30.0127
 21
52.252
  0
LINE
  8
0
 10
30.0127
 20
52.252
 11
30.0098
 21
52.2344
  0
LINE
  8
0
 10
30.0098
 20
52.2344
 11
30.0059
 21
52.1992
  0
LINE
  8
0
 10
30.0059
 20
52.1992
 11
30.0039
 21
52.1826
  0
LINE
  8
0
 10
30.0039
 20
52.1826
 11
30.002
 21
52.165
  0
LINE
  8
0
 10
30.002
 20
52.165
 11
30.001
 21
52.1475
  0
LINE
  8
0
 10
30.001
 20
52.1475
 11
30.001
 21
52.1299
  0
LINE
  8
0
 10
30.001
 20
52.1299
 11
30
 21
52.1123
  0
LINE
  8
0
 10
30
 20
52.1123
 11
30
 21
45.0947
  0
LINE
  8
0
 10
30
 20
45.0947
 11
10
 21
45.0947
  0
LINE
  8
0
 10
10
 20
45.0947
 11
10
 21
48.0947
  0
LINE
  8
0
 10
10
 20
48.0947
 11
19
 21
48.0947
  0
LINE
  8
0
 10
19
 20
48.0947
 11
19.0176
 21
48.0957
  0
LINE
  8
0
 10
19.0176
 20
48.0957
 11
19.0352
 21
48.0957
  0
LINE
  8
0
 10
19.0352
 20
48.0957
 11
19.0527
 21
48.0967
  0
LINE
  8
0
 10
19.0527
 20
48.0967
 11
19.0693
 21
48.0977
  0
LINE
  8
0
 10
19.0693
 20
48.0977
 11
19.0869
 21
48.0986
  0
LINE
  8
0
 10
19.0869
 20
48.0986
 11
19.1396
 21
48.1045
  0
LINE
  8
0
 10
19.1396
 20
48.1045
 11
19.1562
 21
48.1074
  0
LINE
  8
0
 10
19.1562
 20
48.1074
 11
19.1738
 21
48.1104
  0
LINE
  8
0
 10
19.1738
 20
48.1104
 11
19.1904
 21
48.1133
  0
LINE
  8
0
 10
19.1904
 20
48.1133
 11
19.208
 21
48.1172
  0
LINE
  8
0
 10
19.208
 20
48.1172
 11
19.2246
 21
48.1211
  0
LINE
  8
0
 10
19.2246
 20
48.1211
 11
19.2422
 21
48.125
  0
LINE
  8
0
 10
19.2422
 20
48.125
 11
19.2588
 21
48.1289
  0
LINE
  8
0
 10
19.2588
 20
48.1289
 11
19.292
 21
48.1387
  0
LINE
  8
0
 10
19.292
 20
48.1387
 11
19.3086
 21
48.1445
  0
LINE
  8
0
 10
19.3086
 20
48.1445
 11
19.3252
 21
48.1494
  0
LINE
  8
0
 10
19.3252
 20
48.1494
 11
19.3584
 21
48.1611
  0
LINE
  8
0
 10
19.3584
 20
48.1611
 11
19.375
 21
48.168
  0
LINE
  8
0
 10
19.375
 20
48.168
 11
19.4062
 21
48.1816
  0
LINE
  8
0
 10
19.4062
 20
48.1816
 11
19.4229
 21
48.1885
  0
LINE
  8
0
 10
19.4229
 20
48.1885
 11
19.4697
 21
48.2119
  0
LINE
  8
0
 10
19.4697
 20
48.2119
 11
19.4844
 21
48.2207
  0
LINE
  8
0
 10
19.4844
 20
48.2207
 11
19.5
 21
48.2295
  0
LINE
  8
0
 10
19.5
 20
48.2295
 11
19.5146
 21
48.2383
  0
LINE
  8
0
 10
19.5146
 20
48.2383
 11
19.5303
 21
48.2471
  0
LINE
  8
0
 10
19.5303
 20
48.2471
 11
19.5449
 21
48.2568
  0
LINE
  8
0
 10
19.5449
 20
48.2568
 11
19.5596
 21
48.2656
  0
LINE
  8
0
 10
19.5596
 20
48.2656
 11
19.5732
 21
48.2764
  0
LINE
  8
0
 10
19.5732
 20
48.2764
 11
19.5879
 21
48.2861
  0
LINE
  8
0
 10
19.5879
 20
48.2861
 11
19.6016
 21
48.2969
  0
LINE
  8
0
 10
19.6016
 20
48.2969
 11
19.6152
 21
48.3066
  0
LINE
  8
0
 10
19.6152
 20
48.3066
 11
19.6289
 21
48.3184
  0
LINE
  8
0
 10
19.6289
 20
48.3184
 11
19.6426
 21
48.3291
  0
LINE
  8
0
 10
19.6426
 20
48.3291
 11
19.6562
 21
48.3408
  0
LINE
  8
0
 10
19.6562
 20
48.3408
 11
19.6689
 21
48.3516
  0
LINE
  8
0
 10
19.6689
 20
48.3516
 11
19.6816
 21
48.3633
  0
LINE
  8
0
 10
19.6816
 20
48.3633
 11
19.6943
 21
48.376
  0
LINE
  8
0
 10
19.6943
 20
48.376
 11
19.707
 21
48.3877
  0
LINE
  8
0
 10
19.707
 20
48.3877
 11
19.7197
 21
48.4004
  0
LINE
  8
0
 10
19.7197
 20
48.4004
 11
19.7432
 21
48.4258
  0
LINE
  8
0
 10
19.7432
 20
48.4258
 11
19.7549
 21
48.4395
  0
LINE
  8
0
 10
19.7549
 20
48.4395
 11
19.7656
 21
48.4521
  0
LINE
  8
0
 10
19.7656
 20
48.4521
 11
19.7773
 21
48.4658
  0
LINE
  8
0
 10
19.7773
 20
48.4658
 11
19.7988
 21
48.4932
  0
LINE
  8
0
 10
19.7988
 20
48.4932
 11
19.8086
 21
48.5078
  0
LINE
  8
0
 10
19.8086
 20
48.5078
 11
19.8193
 21
48.5215
  0
LINE
  8
0
 10
19.8193
 20
48.5215
 11
19.8389
 21
48.5508
  0
LINE
  8
0
 10
19.8389
 20
48.5508
 11
19.8477
 21
48.5654
  0
LINE
  8
0
 10
19.8477
 20
48.5654
 11
19.8574
 21
48.5801
  0
LINE
  8
0
 10
19.8574
 20
48.5801
 11
19.8662
 21
48.5947
  0
LINE
  8
0
 10
19.8662
 20
48.5947
 11
19.875
 21
48.6104
  0
LINE
  8
0
 10
19.875
 20
48.6104
 11
19.9062
 21
48.6729
  0
LINE
  8
0
 10
19.9062
 20
48.6729
 11
19.9131
 21
48.6885
  0
LINE
  8
0
 10
19.9131
 20
48.6885
 11
19.9209
 21
48.7041
  0
LINE
  8
0
 10
19.9209
 20
48.7041
 11
19.9268
 21
48.7207
  0
LINE
  8
0
 10
19.9268
 20
48.7207
 11
19.9336
 21
48.7363
  0
LINE
  8
0
 10
19.9336
 20
48.7363
 11
19.9512
 21
48.7861
  0
LINE
  8
0
 10
19.9512
 20
48.7861
 11
19.9658
 21
48.8359
  0
LINE
  8
0
 10
19.9658
 20
48.8359
 11
19.9707
 21
48.8535
  0
LINE
  8
0
 10
19.9707
 20
48.8535
 11
19.9785
 21
48.8867
  0
LINE
  8
0
 10
19.9785
 20
48.8867
 11
19.9844
 21
48.9219
  0
LINE
  8
0
 10
19.9844
 20
48.9219
 11
19.9873
 21
48.9385
  0
LINE
  8
0
 10
19.9873
 20
48.9385
 11
19.9902
 21
48.9561
  0
LINE
  8
0
 10
19.9902
 20
48.9561
 11
19.9922
 21
48.9736
  0
LINE
  8
0
 10
19.9922
 20
48.9736
 11
19.9941
 21
48.9902
  0
LINE
  8
0
 10
19.9941
 20
48.9902
 11
19.998
 21
49.0254
  0
LINE
  8
0
 10
19.998
 20
49.0254
 11
19.999
 21
49.043
  0
LINE
  8
0
 10
19.999
 20
49.043
 11
19.999
 21
49.0605
  0
LINE
  8
0
 10
19.999
 20
49.0605
 11
20
 21
49.0781
  0
LINE
  8
0
 10
20
 20
49.0781
 11
20
 21
52.1123
  0
LINE
  8
0
 10
20
 20
52.1123
 11
19.999
 21
52.1299
  0
LINE
  8
0
 10
19.999
 20
52.1299
 11
19.999
 21
52.1475
  0
LINE
  8
0
 10
19.999
 20
52.1475
 11
19.998
 21
52.165
  0
LINE
  8
0
 10
19.998
 20
52.165
 11
19.9961
 21
52.1826
  0
LINE
  8
0
 10
19.9961
 20
52.1826
 11
19.9941
 21
52.1992
  0
LINE
  8
0
 10
19.9941
 20
52.1992
 11
19.9902
 21
52.2344
  0
LINE
  8
0
 10
19.9902
 20
52.2344
 11
19.9873
 21
52.252
  0
LINE
  8
0
 10
19.9873
 20
52.252
 11
19.9844
 21
52.2686
  0
LINE
  8
0
 10
19.9844
 20
52.2686
 11
19.9814
 21
52.2861
  0
LINE
  8
0
 10
19.9814
 20
52.2861
 11
19.9785
 21
52.3027
  0
LINE
  8
0
 10
19.9785
 20
52.3027
 11
19.9746
 21
52.3203
  0
LINE
  8
0
 10
19.9746
 20
52.3203
 11
19.9707
 21
52.3369
  0
LINE
  8
0
 10
19.9707
 20
52.3369
 11
19.9658
 21
52.3535
  0
LINE
  8
0
 10
19.9658
 20
52.3535
 11
19.9609
 21
52.3711
  0
LINE
  8
0
 10
19.9609
 20
52.3711
 11
19.9512
 21
52.4043
  0
LINE
  8
0
 10
19.9512
 20
52.4043
 11
19.9395
 21
52.4375
  0
LINE
  8
0
 10
19.9395
 20
52.4375
 11
19.9336
 21
52.4531
  0
LINE
  8
0
 10
19.9336
 20
52.4531
 11
19.9268
 21
52.4697
  0
LINE
  8
0
 10
19.9268
 20
52.4697
 11
19.9209
 21
52.4863
  0
LINE
  8
0
 10
19.9209
 20
52.4863
 11
19.9131
 21
52.502
  0
LINE
  8
0
 10
19.9131
 20
52.502
 11
19.9062
 21
52.5176
  0
LINE
  8
0
 10
19.9062
 20
52.5176
 11
19.875
 21
52.5801
  0
LINE
  8
0
 10
19.875
 20
52.5801
 11
19.8662
 21
52.5947
  0
LINE
  8
0
 10
19.8662
 20
52.5947
 11
19.8574
 21
52.6104
  0
LINE
  8
0
 10
19.8574
 20
52.6104
 11
19.8477
 21
52.625
  0
LINE
  8
0
 10
19.8477
 20
52.625
 11
19.8389
 21
52.6396
  0
LINE
  8
0
 10
19.8389
 20
52.6396
 11
19.8193
 21
52.6689
  0
LINE
  8
0
 10
19.8193
 20
52.6689
 11
19.8086
 21
52.6826
  0
LINE
  8
0
 10
19.8086
 20
52.6826
 11
19.7988
 21
52.6973
  0
LINE
  8
0
 10
19.7988
 20
52.6973
 11
19.7773
 21
52.7246
  0
LINE
  8
0
 10
19.7773
 20
52.7246
 11
19.7656
 21
52.7383
  0
LINE
  8
0
 10
19.7656
 20
52.7383
 11
19.7549
 21
52.751
  0
LINE
  8
0
 10
19.7549
 20
52.751
 11
19.7432
 21
52.7646
  0
LINE
  8
0
 10
19.7432
 20
52.7646
 11
19.7197
 21
52.79
  0
LINE
  8
0
 10
19.7197
 20
52.79
 11
19.707
 21
52.8018
  0
LINE
  8
0
 10
19.707
 20
52.8018
 11
19.6943
 21
52.8145
  0
LINE
  8
0
 10
19.6943
 20
52.8145
 11
19.6562
 21
52.8496
  0
LINE
  8
0
 10
19.6562
 20
52.8496
 11
19.6426
 21
52.8613
  0
LINE
  8
0
 10
19.6426
 20
52.8613
 11
19.5879
 21
52.9043
  0
LINE
  8
0
 10
19.5879
 20
52.9043
 11
19.5732
 21
52.9141
  0
LINE
  8
0
 10
19.5732
 20
52.9141
 11
19.5596
 21
52.9238
  0
LINE
  8
0
 10
19.5596
 20
52.9238
 11
19.5303
 21
52.9434
  0
LINE
  8
0
 10
19.5303
 20
52.9434
 11
19.5146
 21
52.9521
  0
LINE
  8
0
 10
19.5146
 20
52.9521
 11
19.5
 21
52.9609
  0
LINE
  8
0
 10
19.5
 20
52.9609
 11
19.4844
 21
52.9697
  0
LINE
  8
0
 10
19.4844
 20
52.9697
 11
19.4697
 21
52.9785
  0
LINE
  8
0
 10
19.4697
 20
52.9785
 11
19.4385
 21
52.9941
  0
LINE
  8
0
 10
19.4385
 20
52.9941
 11
19.4229
 21
53.001
  0
LINE
  8
0
 10
19.4229
 20
53.001
 11
19.4062
 21
53.0088
  0
LINE
  8
0
 10
19.4062
 20
53.0088
 11
19.375
 21
53.0225
  0
LINE
  8
0
 10
19.375
 20
53.0225
 11
19.3584
 21
53.0283
  0
LINE
  8
0
 10
19.3584
 20
53.0283
 11
19.3418
 21
53.0352
  0
LINE
  8
0
 10
19.3418
 20
53.0352
 11
19.3252
 21
53.041
  0
LINE
  8
0
 10
19.3252
 20
53.041
 11
19.3086
 21
53.0459
  0
LINE
  8
0
 10
19.3086
 20
53.0459
 11
19.292
 21
53.0518
  0
LINE
  8
0
 10
19.292
 20
53.0518
 11
19.2588
 21
53.0615
  0
LINE
  8
0
 10
19.2588
 20
53.0615
 11
19.2422
 21
53.0654
  0
LINE
  8
0
 10
19.2422
 20
53.0654
 11
19.2246
 21
53.0693
  0
LINE
  8
0
 10
19.2246
 20
53.0693
 11
19.208
 21
53.0732
  0
LINE
  8
0
 10
19.208
 20
53.0732
 11
19.1904
 21
53.0771
  0
LINE
  8
0
 10
19.1904
 20
53.0771
 11
19.1738
 21
53.0801
  0
LINE
  8
0
 10
19.1738
 20
53.0801
 11
19.1562
 21
53.083
  0
LINE
  8
0
 10
19.1562
 20
53.083
 11
19.1396
 21
53.085
  0
LINE
  8
0
 10
19.1396
 20
53.085
 11
19.1221
 21
53.0879
  0
LINE
  8
0
 10
19.1221
 20
53.0879
 11
19.0869
 21
53.0918
  0
LINE
  8
0
 10
19.0869
 20
53.0918
 11
19.0693
 21
53.0928
  0
LINE
  8
0
 10
19.0693
 20
53.0928
 11
19.0527
 21
53.0938
  0
LINE
  8
0
 10
19.0527
 20
53.0938
 11
19.0352
 21
53.0947
  0
LINE
  8
0
 10
19.0352
 20
53.0947
 11
8
 21
53.0947
  0
LINE
  8
0
 10
8
 20
53.0947
 11
7.86035
 21
53.0938
  0
LINE
  8
0
 10
7.86035
 20
53.0938
 11
7.7207
 21
53.0898
  0
LINE
  8
0
 10
7.7207
 20
53.0898
 11
7.58105
 21
53.084
  0
LINE
  8
0
 10
7.58105
 20
53.084
 11
7.44238
 21
53.0752
  0
LINE
  8
0
 10
7.44238
 20
53.0752
 11
7.30273
 21
53.0645
  0
LINE
  8
0
 10
7.30273
 20
53.0645
 11
7.16406
 21
53.0518
  0
LINE
  8
0
 10
7.16406
 20
53.0518
 11
7.02539
 21
53.0352
  0
LINE
  8
0
 10
7.02539
 20
53.0352
 11
6.88672
 21
53.0176
  0
LINE
  8
0
 10
6.88672
 20
53.0176
 11
6.74805
 21
52.9971
  0
LINE
  8
0
 10
6.74805
 20
52.9971
 11
6.61035
 21
52.9736
  0
LINE
  8
0
 10
6.61035
 20
52.9736
 11
6.47363
 21
52.9482
  0
LINE
  8
0
 10
6.47363
 20
52.9482
 11
6.33691
 21
52.9199
  0
LINE
  8
0
 10
6.33691
 20
52.9199
 11
6.2002
 21
52.8896
  0
LINE
  8
0
 10
6.2002
 20
52.8896
 11
6.06445
 21
52.8574
  0
LINE
  8
0
 10
6.06445
 20
52.8574
 11
5.92969
 21
52.8223
  0
LINE
  8
0
 10
5.92969
 20
52.8223
 11
5.79492
 21
52.7852
  0
LINE
  8
0
 10
5.79492
 20
52.7852
 11
5.66113
 21
52.7451
  0
LINE
  8
0
 10
5.66113
 20
52.7451
 11
5.52832
 21
52.7031
  0
LINE
  8
0
 10
5.52832
 20
52.7031
 11
5.39551
 21
52.6592
  0
LINE
  8
0
 10
5.39551
 20
52.6592
 11
5.26367
 21
52.6123
  0
LINE
  8
0
 10
5.26367
 20
52.6123
 11
5.13281
 21
52.5635
  0
LINE
  8
0
 10
5.13281
 20
52.5635
 11
5.00293
 21
52.5127
  0
LINE
  8
0
 10
5.00293
 20
52.5127
 11
4.87402
 21
52.459
  0
LINE
  8
0
 10
4.87402
 20
52.459
 11
4.74609
 21
52.4033
  0
LINE
  8
0
 10
4.74609
 20
52.4033
 11
4.61914
 21
52.3457
  0
LINE
  8
0
 10
4.61914
 20
52.3457
 11
4.49316
 21
52.2852
  0
LINE
  8
0
 10
4.49316
 20
52.2852
 11
4.36816
 21
52.2236
  0
LINE
  8
0
 10
4.36816
 20
52.2236
 11
4.24414
 21
52.1592
  0
LINE
  8
0
 10
4.24414
 20
52.1592
 11
4.12109
 21
52.0918
  0
LINE
  8
0
 10
4.12109
 20
52.0918
 11
4
 21
52.0234
  0
LINE
  8
0
 10
4
 20
52.0234
 11
3.87988
 21
51.9521
  0
LINE
  8
0
 10
3.87988
 20
51.9521
 11
3.76074
 21
51.8799
  0
LINE
  8
0
 10
3.76074
 20
51.8799
 11
3.64258
 21
51.8047
  0
LINE
  8
0
 10
3.64258
 20
51.8047
 11
3.52637
 21
51.7275
  0
LINE
  8
0
 10
3.52637
 20
51.7275
 11
3.41113
 21
51.6484
  0
LINE
  8
0
 10
3.41113
 20
51.6484
 11
3.29785
 21
51.5674
  0
LINE
  8
0
 10
3.29785
 20
51.5674
 11
3.18555
 21
51.4844
  0
LINE
  8
0
 10
3.18555
 20
51.4844
 11
3.0752
 21
51.3994
  0
LINE
  8
0
 10
3.0752
 20
51.3994
 11
2.96582
 21
51.3125
  0
LINE
  8
0
 10
2.96582
 20
51.3125
 11
2.85742
 21
51.2236
  0
LINE
  8
0
 10
2.85742
 20
51.2236
 11
2.75195
 21
51.1328
  0
LINE
  8
0
 10
2.75195
 20
51.1328
 11
2.64648
 21
51.04
  0
LINE
  8
0
 10
2.64648
 20
51.04
 11
2.54395
 21
50.9463
  0
LINE
  8
0
 10
2.54395
 20
50.9463
 11
2.44238
 21
50.8496
  0
LINE
  8
0
 10
2.44238
 20
50.8496
 11
2.34277
 21
50.752
  0
LINE
  8
0
 10
2.34277
 20
50.752
 11
2.24512
 21
50.6523
  0
LINE
  8
0
 10
2.24512
 20
50.6523
 11
2.14941
 21
50.5508
  0
LINE
  8
0
 10
2.14941
 20
50.5508
 11
2.05469
 21
50.4482
  0
LINE
  8
0
 10
2.05469
 20
50.4482
 11
1.96191
 21
50.3438
  0
LINE
  8
0
 10
1.96191
 20
50.3438
 11
1.87207
 21
50.2373
  0
LINE
  8
0
 10
1.87207
 20
50.2373
 11
1.7832
 21
50.1299
  0
LINE
  8
0
 10
1.7832
 20
50.1299
 11
1.69629
 21
50.0205
  0
LINE
  8
0
 10
1.69629
 20
50.0205
 11
1.61133
 21
49.9092
  0
LINE
  8
0
 10
1.61133
 20
49.9092
 11
1.52832
 21
49.7979
  0
LINE
  8
0
 10
1.52832
 20
49.7979
 11
1.44727
 21
49.6836
  0
LINE
  8
0
 10
1.44727
 20
49.6836
 11
1.36816
 21
49.5684
  0
LINE
  8
0
 10
1.36816
 20
49.5684
 11
1.29102
 21
49.4521
  0
LINE
  8
0
 10
1.29102
 20
49.4521
 11
1.21582
 21
49.334
  0
LINE
  8
0
 10
1.21582
 20
49.334
 11
1.14258
 21
49.2158
  0
LINE
  8
0
 10
1.14258
 20
49.2158
 11
1.07227
 21
49.0947
  0
LINE
  8
0
 10
1.07227
 20
49.0947
 11
1.00293
 21
48.9736
  0
LINE
  8
0
 10
1.00293
 20
48.9736
 11
0.936523
 21
48.8506
  0
LINE
  8
0
 10
0.936523
 20
48.8506
 11
0.87207
 21
48.7266
  0
LINE
  8
0
 10
0.87207
 20
48.7266
 11
0.80957
 21
48.6025
  0
LINE
  8
0
 10
0.80957
 20
48.6025
 11
0.75
 21
48.4756
  0
LINE
  8
0
 10
0.75
 20
48.4756
 11
0.691406
 21
48.3486
  0
LINE
  8
0
 10
0.691406
 20
48.3486
 11
0.635742
 21
48.2207
  0
LINE
  8
0
 10
0.635742
 20
48.2207
 11
0.583008
 21
48.0918
  0
LINE
  8
0
 10
0.583008
 20
48.0918
 11
0.53125
 21
47.9619
  0
LINE
  8
0
 10
0.53125
 20
47.9619
 11
0.482422
 21
47.8311
  0
LINE
  8
0
 10
0.482422
 20
47.8311
 11
0.435547
 21
47.6992
  0
LINE
  8
0
 10
0.435547
 20
47.6992
 11
0.391602
 21
47.5674
  0
LINE
  8
0
 10
0.391602
 20
47.5674
 11
0.349609
 21
47.4346
  0
LINE
  8
0
 10
0.349609
 20
47.4346
 11
0.30957
 21
47.2998
  0
LINE
  8
0
 10
0.30957
 20
47.2998
 11
0.272461
 21
47.166
  0
LINE
  8
0
 10
0.272461
 20
47.166
 11
0.237305
 21
47.0303
  0
LINE
  8
0
 10
0.237305
 20
47.0303
 11
0.205078
 21
46.8945
  0
LINE
  8
0
 10
0.205078
 20
46.8945
 11
0.174805
 21
46.7588
  0
LINE
  8
0
 10
0.174805
 20
46.7588
 11
0.147461
 21
46.6221
  0
LINE
  8
0
 10
0.147461
 20
46.6221
 11
0.121094
 21
46.4844
  0
LINE
  8
0
 10
0.121094
 20
46.4844
 11
0.0986328
 21
46.3467
  0
LINE
  8
0
 10
0.0986328
 20
46.3467
 11
0.078125
 21
46.209
  0
LINE
  8
0
 10
0.078125
 20
46.209
 11
0.0595703
 21
46.0703
  0
LINE
  8
0
 10
0.0595703
 20
46.0703
 11
0.0439453
 21
45.9316
  0
LINE
  8
0
 10
0.0439453
 20
45.9316
 11
0.0302734
 21
45.792
  0
LINE
  8
0
 10
0.0302734
 20
45.792
 11
0.0195312
 21
45.6533
  0
LINE
  8
0
 10
0.0195312
 20
45.6533
 11
0.0107422
 21
45.5137
  0
LINE
  8
0
 10
0.0107422
 20
45.5137
 11
0.00488281
 21
45.374
  0
LINE
  8
0
 10
0.00488281
 20
45.374
 11
0.000976562
 21
45.2344
  0
LINE
  8
0
 10
0.000976562
 20
45.2344
 11
0
 21
45.0947
  0
LINE
  8
0
 10
0
 20
45.0947
 11
0
 21
37.9824
  0
LINE
  8
0
 10
0
 20
37.9824
 11
0.000976562
 21
37.9648
  0
LINE
  8
0
 10
0.000976562
 20
37.9648
 11
0.000976562
 21
37.9473
  0
LINE
  8
0
 10
0.000976562
 20
37.9473
 11
0.00195312
 21
37.9307
  0
LINE
  8
0
 10
0.00195312
 20
37.9307
 11
0.00976562
 21
37.8604
  0
LINE
  8
0
 10
0.00976562
 20
37.8604
 11
0.0126953
 21
37.8438
  0
LINE
  8
0
 10
0.0126953
 20
37.8438
 11
0.015625
 21
37.8262
  0
LINE
  8
0
 10
0.015625
 20
37.8262
 11
0.0185547
 21
37.8096
  0
LINE
  8
0
 10
0.0185547
 20
37.8096
 11
0.0214844
 21
37.792
  0
LINE
  8
0
 10
0.0214844
 20
37.792
 11
0.0253906
 21
37.7754
  0
LINE
  8
0
 10
0.0253906
 20
37.7754
 11
0.0292969
 21
37.7578
  0
LINE
  8
0
 10
0.0292969
 20
37.7578
 11
0.0488281
 21
37.6914
  0
LINE
  8
0
 10
0.0488281
 20
37.6914
 11
0.0664062
 21
37.6416
  0
LINE
  8
0
 10
0.0664062
 20
37.6416
 11
0.0732422
 21
37.625
  0
LINE
  8
0
 10
0.0732422
 20
37.625
 11
0.0791016
 21
37.6094
  0
LINE
  8
0
 10
0.0791016
 20
37.6094
 11
0.0869141
 21
37.5938
  0
LINE
  8
0
 10
0.0869141
 20
37.5938
 11
0.09375
 21
37.5771
  0
LINE
  8
0
 10
0.09375
 20
37.5771
 11
0.117188
 21
37.5303
  0
LINE
  8
0
 10
0.117188
 20
37.5303
 11
0.125
 21
37.5156
  0
LINE
  8
0
 10
0.125
 20
37.5156
 11
0.133789
 21
37.5
  0
LINE
  8
0
 10
0.133789
 20
37.5
 11
0.142578
 21
37.4854
  0
LINE
  8
0
 10
0.142578
 20
37.4854
 11
0.152344
 21
37.4697
  0
LINE
  8
0
 10
0.152344
 20
37.4697
 11
0.161133
 21
37.4551
  0
LINE
  8
0
 10
0.161133
 20
37.4551
 11
0.170898
 21
37.4404
  0
LINE
  8
0
 10
0.170898
 20
37.4404
 11
0.180664
 21
37.4268
  0
LINE
  8
0
 10
0.180664
 20
37.4268
 11
0.191406
 21
37.4121
  0
LINE
  8
0
 10
0.191406
 20
37.4121
 11
0.201172
 21
37.3984
  0
LINE
  8
0
 10
0.201172
 20
37.3984
 11
0.222656
 21
37.3711
  0
LINE
  8
0
 10
0.222656
 20
37.3711
 11
0.234375
 21
37.3574
  0
LINE
  8
0
 10
0.234375
 20
37.3574
 11
0.245117
 21
37.3438
  0
LINE
  8
0
 10
0.245117
 20
37.3438
 11
0.280273
 21
37.3057
  0
LINE
  8
0
 10
0.280273
 20
37.3057
 11
0.305664
 21
37.2803
  0
LINE
  8
0
 10
0.305664
 20
37.2803
 11
0.34375
 21
37.2451
  0
LINE
  8
0
 10
0.34375
 20
37.2451
 11
0.357422
 21
37.2344
  0
LINE
  8
0
 10
0.357422
 20
37.2344
 11
0.371094
 21
37.2227
  0
LINE
  8
0
 10
0.371094
 20
37.2227
 11
0.398438
 21
37.2012
  0
LINE
  8
0
 10
0.398438
 20
37.2012
 11
0.412109
 21
37.1914
  0
LINE
  8
0
 10
0.412109
 20
37.1914
 11
0.426758
 21
37.1807
  0
LINE
  8
0
 10
0.426758
 20
37.1807
 11
0.44043
 21
37.1709
  0
LINE
  8
0
 10
0.44043
 20
37.1709
 11
0.455078
 21
37.1611
  0
LINE
  8
0
 10
0.455078
 20
37.1611
 11
0.469727
 21
37.1523
  0
LINE
  8
0
 10
0.469727
 20
37.1523
 11
0.485352
 21
37.1426
  0
LINE
  8
0
 10
0.485352
 20
37.1426
 11
0.5
 21
37.1338
  0
LINE
  8
0
 10
0.5
 20
37.1338
 11
0.515625
 21
37.125
  0
LINE
  8
0
 10
0.515625
 20
37.125
 11
0.530273
 21
37.1172
  0
LINE
  8
0
 10
0.530273
 20
37.1172
 11
0.577148
 21
37.0938
  0
LINE
  8
0
 10
0.577148
 20
37.0938
 11
0.59375
 21
37.0869
  0
LINE
  8
0
 10
0.59375
 20
37.0869
 11
0.609375
 21
37.0791
  0
LINE
  8
0
 10
0.609375
 20
37.0791
 11
0.625
 21
37.0732
  0
LINE
  8
0
 10
0.625
 20
37.0732
 11
0.641602
 21
37.0664
  0
LINE
  8
0
 10
0.641602
 20
37.0664
 11
0.691406
 21
37.0488
  0
LINE
  8
0
 10
0.691406
 20
37.0488
 11
0.757812
 21
37.0293
  0
LINE
  8
0
 10
0.757812
 20
37.0293
 11
0.775391
 21
37.0254
  0
LINE
  8
0
 10
0.775391
 20
37.0254
 11
0.791992
 21
37.0215
  0
LINE
  8
0
 10
0.791992
 20
37.0215
 11
0.80957
 21
37.0186
  0
LINE
  8
0
 10
0.80957
 20
37.0186
 11
0.826172
 21
37.0156
  0
LINE
  8
0
 10
0.826172
 20
37.0156
 11
0.84375
 21
37.0127
  0
LINE
  8
0
 10
0.84375
 20
37.0127
 11
0.860352
 21
37.0098
  0
LINE
  8
0
 10
0.860352
 20
37.0098
 11
0.930664
 21
37.002
  0
LINE
  8
0
 10
0.930664
 20
37.002
 11
0.947266
 21
37.001
  0
LINE
  8
0
 10
0.947266
 20
37.001
 11
0.964844
 21
37.001
  0
LINE
  8
0
 10
0.964844
 20
37.001
 11
0.982422
 21
37
  0
LINE
  8
0
 10
0.982422
 20
37
 11
8
 21
37
  0
LINE
  8
0
 10
8
 20
37
 11
8
 21
18.2051
  0
LINE
  8
0
 10
8
 20
18.2051
 11
5
 21
18.2051
  0
LINE
  8
0
 10
5
 20
18.2051
 11
5
 21
27.1221
  0
LINE
  8
0
 10
5
 20
27.1221
 11
4.99902
 21
27.1396
  0
LINE
  8
0
 10
4.99902
 20
27.1396
 11
4.99902
 21
27.1572
  0
LINE
  8
0
 10
4.99902
 20
27.1572
 11
4.99805
 21
27.1748
  0
LINE
  8
0
 10
4.99805
 20
27.1748
 11
4.99609
 21
27.1924
  0
LINE
  8
0
 10
4.99609
 20
27.1924
 11
4.99414
 21
27.209
  0
LINE
  8
0
 10
4.99414
 20
27.209
 11
4.99023
 21
27.2441
  0
LINE
  8
0
 10
4.99023
 20
27.2441
 11
4.9873
 21
27.2617
  0
LINE
  8
0
 10
4.9873
 20
27.2617
 11
4.98438
 21
27.2783
  0
LINE
  8
0
 10
4.98438
 20
27.2783
 11
4.98145
 21
27.2959
  0
LINE
  8
0
 10
4.98145
 20
27.2959
 11
4.97852
 21
27.3125
  0
LINE
  8
0
 10
4.97852
 20
27.3125
 11
4.97461
 21
27.3301
  0
LINE
  8
0
 10
4.97461
 20
27.3301
 11
4.9707
 21
27.3467
  0
LINE
  8
0
 10
4.9707
 20
27.3467
 11
4.96582
 21
27.3633
  0
LINE
  8
0
 10
4.96582
 20
27.3633
 11
4.96094
 21
27.3809
  0
LINE
  8
0
 10
4.96094
 20
27.3809
 11
4.95117
 21
27.4141
  0
LINE
  8
0
 10
4.95117
 20
27.4141
 11
4.93945
 21
27.4473
  0
LINE
  8
0
 10
4.93945
 20
27.4473
 11
4.93359
 21
27.4629
  0
LINE
  8
0
 10
4.93359
 20
27.4629
 11
4.92676
 21
27.4795
  0
LINE
  8
0
 10
4.92676
 20
27.4795
 11
4.9209
 21
27.4961
  0
LINE
  8
0
 10
4.9209
 20
27.4961
 11
4.91309
 21
27.5117
  0
LINE
  8
0
 10
4.91309
 20
27.5117
 11
4.90625
 21
27.5273
  0
LINE
  8
0
 10
4.90625
 20
27.5273
 11
4.875
 21
27.5898
  0
LINE
  8
0
 10
4.875
 20
27.5898
 11
4.86621
 21
27.6045
  0
LINE
  8
0
 10
4.86621
 20
27.6045
 11
4.85742
 21
27.6201
  0
LINE
  8
0
 10
4.85742
 20
27.6201
 11
4.84766
 21
27.6348
  0
LINE
  8
0
 10
4.84766
 20
27.6348
 11
4.83887
 21
27.6494
  0
LINE
  8
0
 10
4.83887
 20
27.6494
 11
4.81934
 21
27.6787
  0
LINE
  8
0
 10
4.81934
 20
27.6787
 11
4.80859
 21
27.6924
  0
LINE
  8
0
 10
4.80859
 20
27.6924
 11
4.79883
 21
27.707
  0
LINE
  8
0
 10
4.79883
 20
27.707
 11
4.77734
 21
27.7344
  0
LINE
  8
0
 10
4.77734
 20
27.7344
 11
4.76562
 21
27.748
  0
LINE
  8
0
 10
4.76562
 20
27.748
 11
4.75488
 21
27.7607
  0
LINE
  8
0
 10
4.75488
 20
27.7607
 11
4.74316
 21
27.7744
  0
LINE
  8
0
 10
4.74316
 20
27.7744
 11
4.71973
 21
27.7998
  0
LINE
  8
0
 10
4.71973
 20
27.7998
 11
4.70703
 21
27.8115
  0
LINE
  8
0
 10
4.70703
 20
27.8115
 11
4.69434
 21
27.8242
  0
LINE
  8
0
 10
4.69434
 20
27.8242
 11
4.65625
 21
27.8594
  0
LINE
  8
0
 10
4.65625
 20
27.8594
 11
4.64258
 21
27.8711
  0
LINE
  8
0
 10
4.64258
 20
27.8711
 11
4.58789
 21
27.9141
  0
LINE
  8
0
 10
4.58789
 20
27.9141
 11
4.57324
 21
27.9238
  0
LINE
  8
0
 10
4.57324
 20
27.9238
 11
4.55957
 21
27.9336
  0
LINE
  8
0
 10
4.55957
 20
27.9336
 11
4.53027
 21
27.9531
  0
LINE
  8
0
 10
4.53027
 20
27.9531
 11
4.51465
 21
27.9619
  0
LINE
  8
0
 10
4.51465
 20
27.9619
 11
4.5
 21
27.9707
  0
LINE
  8
0
 10
4.5
 20
27.9707
 11
4.48438
 21
27.9795
  0
LINE
  8
0
 10
4.48438
 20
27.9795
 11
4.46973
 21
27.9883
  0
LINE
  8
0
 10
4.46973
 20
27.9883
 11
4.43848
 21
28.0039
  0
LINE
  8
0
 10
4.43848
 20
28.0039
 11
4.42285
 21
28.0107
  0
LINE
  8
0
 10
4.42285
 20
28.0107
 11
4.40625
 21
28.0186
  0
LINE
  8
0
 10
4.40625
 20
28.0186
 11
4.375
 21
28.0322
  0
LINE
  8
0
 10
4.375
 20
28.0322
 11
4.3584
 21
28.0381
  0
LINE
  8
0
 10
4.3584
 20
28.0381
 11
4.3418
 21
28.0449
  0
LINE
  8
0
 10
4.3418
 20
28.0449
 11
4.3252
 21
28.0508
  0
LINE
  8
0
 10
4.3252
 20
28.0508
 11
4.30859
 21
28.0557
  0
LINE
  8
0
 10
4.30859
 20
28.0557
 11
4.29199
 21
28.0615
  0
LINE
  8
0
 10
4.29199
 20
28.0615
 11
4.25879
 21
28.0713
  0
LINE
  8
0
 10
4.25879
 20
28.0713
 11
4.24219
 21
28.0752
  0
LINE
  8
0
 10
4.24219
 20
28.0752
 11
4.22461
 21
28.0791
  0
LINE
  8
0
 10
4.22461
 20
28.0791
 11
4.20801
 21
28.083
  0
LINE
  8
0
 10
4.20801
 20
28.083
 11
4.19043
 21
28.0869
  0
LINE
  8
0
 10
4.19043
 20
28.0869
 11
4.17383
 21
28.0898
  0
LINE
  8
0
 10
4.17383
 20
28.0898
 11
4.15625
 21
28.0928
  0
LINE
  8
0
 10
4.15625
 20
28.0928
 11
4.13965
 21
28.0947
  0
LINE
  8
0
 10
4.13965
 20
28.0947
 11
4.12207
 21
28.0977
  0
LINE
  8
0
 10
4.12207
 20
28.0977
 11
4.08691
 21
28.1016
  0
LINE
  8
0
 10
4.08691
 20
28.1016
 11
4.06934
 21
28.1025
  0
LINE
  8
0
 10
4.06934
 20
28.1025
 11
4.05273
 21
28.1035
  0
LINE
  8
0
 10
4.05273
 20
28.1035
 11
4.03516
 21
28.1045
  0
LINE
  8
0
 10
4.03516
 20
28.1045
 11
0.964844
 21
28.1045
  0
LINE
  8
0
 10
0.964844
 20
28.1045
 11
0.947266
 21
28.1035
  0
LINE
  8
0
 10
0.947266
 20
28.1035
 11
0.930664
 21
28.1025
  0
LINE
  8
0
 10
0.930664
 20
28.1025
 11
0.913086
 21
28.1016
  0
LINE
  8
0
 10
0.913086
 20
28.1016
 11
0.87793
 21
28.0977
  0
LINE
  8
0
 10
0.87793
 20
28.0977
 11
0.860352
 21
28.0947
  0
LINE
  8
0
 10
0.860352
 20
28.0947
 11
0.84375
 21
28.0928
  0
LINE
  8
0
 10
0.84375
 20
28.0928
 11
0.826172
 21
28.0898
  0
LINE
  8
0
 10
0.826172
 20
28.0898
 11
0.80957
 21
28.0869
  0
LINE
  8
0
 10
0.80957
 20
28.0869
 11
0.791992
 21
28.083
  0
LINE
  8
0
 10
0.791992
 20
28.083
 11
0.775391
 21
28.0791
  0
LINE
  8
0
 10
0.775391
 20
28.0791
 11
0.757812
 21
28.0752
  0
LINE
  8
0
 10
0.757812
 20
28.0752
 11
0.741211
 21
28.0713
  0
LINE
  8
0
 10
0.741211
 20
28.0713
 11
0.708008
 21
28.0615
  0
LINE
  8
0
 10
0.708008
 20
28.0615
 11
0.691406
 21
28.0557
  0
LINE
  8
0
 10
0.691406
 20
28.0557
 11
0.674805
 21
28.0508
  0
LINE
  8
0
 10
0.674805
 20
28.0508
 11
0.658203
 21
28.0449
  0
LINE
  8
0
 10
0.658203
 20
28.0449
 11
0.641602
 21
28.0381
  0
LINE
  8
0
 10
0.641602
 20
28.0381
 11
0.625
 21
28.0322
  0
LINE
  8
0
 10
0.625
 20
28.0322
 11
0.59375
 21
28.0186
  0
LINE
  8
0
 10
0.59375
 20
28.0186
 11
0.577148
 21
28.0107
  0
LINE
  8
0
 10
0.577148
 20
28.0107
 11
0.561523
 21
28.0039
  0
LINE
  8
0
 10
0.561523
 20
28.0039
 11
0.530273
 21
27.9883
  0
LINE
  8
0
 10
0.530273
 20
27.9883
 11
0.515625
 21
27.9795
  0
LINE
  8
0
 10
0.515625
 20
27.9795
 11
0.5
 21
27.9707
  0
LINE
  8
0
 10
0.5
 20
27.9707
 11
0.485352
 21
27.9619
  0
LINE
  8
0
 10
0.485352
 20
27.9619
 11
0.469727
 21
27.9531
  0
LINE
  8
0
 10
0.469727
 20
27.9531
 11
0.44043
 21
27.9336
  0
LINE
  8
0
 10
0.44043
 20
27.9336
 11
0.426758
 21
27.9238
  0
LINE
  8
0
 10
0.426758
 20
27.9238
 11
0.412109
 21
27.9141
  0
LINE
  8
0
 10
0.412109
 20
27.9141
 11
0.357422
 21
27.8711
  0
LINE
  8
0
 10
0.357422
 20
27.8711
 11
0.34375
 21
27.8594
  0
LINE
  8
0
 10
0.34375
 20
27.8594
 11
0.305664
 21
27.8242
  0
LINE
  8
0
 10
0.305664
 20
27.8242
 11
0.292969
 21
27.8115
  0
LINE
  8
0
 10
0.292969
 20
27.8115
 11
0.280273
 21
27.7998
  0
LINE
  8
0
 10
0.280273
 20
27.7998
 11
0.256836
 21
27.7744
  0
LINE
  8
0
 10
0.256836
 20
27.7744
 11
0.245117
 21
27.7607
  0
LINE
  8
0
 10
0.245117
 20
27.7607
 11
0.234375
 21
27.748
  0
LINE
  8
0
 10
0.234375
 20
27.748
 11
0.222656
 21
27.7344
  0
LINE
  8
0
 10
0.222656
 20
27.7344
 11
0.201172
 21
27.707
  0
LINE
  8
0
 10
0.201172
 20
27.707
 11
0.191406
 21
27.6924
  0
LINE
  8
0
 10
0.191406
 20
27.6924
 11
0.180664
 21
27.6787
  0
LINE
  8
0
 10
0.180664
 20
27.6787
 11
0.161133
 21
27.6494
  0
LINE
  8
0
 10
0.161133
 20
27.6494
 11
0.152344
 21
27.6348
  0
LINE
  8
0
 10
0.152344
 20
27.6348
 11
0.142578
 21
27.6201
  0
LINE
  8
0
 10
0.142578
 20
27.6201
 11
0.133789
 21
27.6045
  0
LINE
  8
0
 10
0.133789
 20
27.6045
 11
0.125
 21
27.5898
  0
LINE
  8
0
 10
0.125
 20
27.5898
 11
0.09375
 21
27.5273
  0
LINE
  8
0
 10
0.09375
 20
27.5273
 11
0.0869141
 21
27.5117
  0
LINE
  8
0
 10
0.0869141
 20
27.5117
 11
0.0791016
 21
27.4961
  0
LINE
  8
0
 10
0.0791016
 20
27.4961
 11
0.0732422
 21
27.4795
  0
LINE
  8
0
 10
0.0732422
 20
27.4795
 11
0.0664062
 21
27.4629
  0
LINE
  8
0
 10
0.0664062
 20
27.4629
 11
0.0605469
 21
27.4473
  0
LINE
  8
0
 10
0.0605469
 20
27.4473
 11
0.0488281
 21
27.4141
  0
LINE
  8
0
 10
0.0488281
 20
27.4141
 11
0.0390625
 21
27.3809
  0
LINE
  8
0
 10
0.0390625
 20
27.3809
 11
0.0341797
 21
27.3633
  0
LINE
  8
0
 10
0.0341797
 20
27.3633
 11
0.0292969
 21
27.3467
  0
LINE
  8
0
 10
0.0292969
 20
27.3467
 11
0.0253906
 21
27.3301
  0
LINE
  8
0
 10
0.0253906
 20
27.3301
 11
0.0214844
 21
27.3125
  0
LINE
  8
0
 10
0.0214844
 20
27.3125
 11
0.0185547
 21
27.2959
  0
LINE
  8
0
 10
0.0185547
 20
27.2959
 11
0.015625
 21
27.2783
  0
LINE
  8
0
 10
0.015625
 20
27.2783
 11
0.0126953
 21
27.2617
  0
LINE
  8
0
 10
0.0126953
 20
27.2617
 11
0.00976562
 21
27.2441
  0
LINE
  8
0
 10
0.00976562
 20
27.2441
 11
0.00585938
 21
27.209
  0
LINE
  8
0
 10
0.00585938
 20
27.209
 11
0.00390625
 21
27.1924
  0
LINE
  8
0
 10
0.00390625
 20
27.1924
 11
0.00195312
 21
27.1748
  0
LINE
  8
0
 10
0.00195312
 20
27.1748
 11
0.000976562
 21
27.1572
  0
LINE
  8
0
 10
0.000976562
 20
27.1572
 11
0.000976562
 21
27.1396
  0
LINE
  8
0
 10
0.000976562
 20
27.1396
 11
0
 21
27.1221
  0
LINE
  8
0
 10
0
 20
27.1221
 11
0
 21
8
  0
LINE
  8
0
 10
0
 20
8
 11
0.000976562
 21
7.86035
  0
LINE
  8
0
 10
0.000976562
 20
7.86035
 11
0.00488281
 21
7.7207
  0
LINE
  8
0
 10
0.00488281
 20
7.7207
 11
0.0107422
 21
7.58105
  0
LINE
  8
0
 10
0.0107422
 20
7.58105
 11
0.0195312
 21
7.44238
  0
LINE
  8
0
 10
0.0195312
 20
7.44238
 11
0.0302734
 21
7.30273
  0
LINE
  8
0
 10
0.0302734
 20
7.30273
 11
0.0439453
 21
7.16406
  0
LINE
  8
0
 10
0.0439453
 20
7.16406
 11
0.0595703
 21
7.02539
  0
LINE
  8
0
 10
0.0595703
 20
7.02539
 11
0.078125
 21
6.88672
  0
LINE
  8
0
 10
0.078125
 20
6.88672
 11
0.0986328
 21
6.74805
  0
LINE
  8
0
 10
0.0986328
 20
6.74805
 11
0.121094
 21
6.61035
  0
LINE
  8
0
 10
0.121094
 20
6.61035
 11
0.147461
 21
6.47363
  0
LINE
  8
0
 10
0.147461
 20
6.47363
 11
0.174805
 21
6.33691
  0
LINE
  8
0
 10
0.174805
 20
6.33691
 11
0.205078
 21
6.2002
  0
LINE
  8
0
 10
0.205078
 20
6.2002
 11
0.237305
 21
6.06445
  0
LINE
  8
0
 10
0.237305
 20
6.06445
 11
0.272461
 21
5.92969
  0
LINE
  8
0
 10
0.272461
 20
5.92969
 11
0.30957
 21
5.79492
  0
LINE
  8
0
 10
0.30957
 20
5.79492
 11
0.349609
 21
5.66113
  0
LINE
  8
0
 10
0.349609
 20
5.66113
 11
0.391602
 21
5.52832
  0
LINE
  8
0
 10
0.391602
 20
5.52832
 11
0.435547
 21
5.39551
  0
LINE
  8
0
 10
0.435547
 20
5.39551
 11
0.482422
 21
5.26367
  0
LINE
  8
0
 10
0.482422
 20
5.26367
 11
0.53125
 21
5.13281
  0
LINE
  8
0
 10
0.53125
 20
5.13281
 11
0.583008
 21
5.00293
  0
LINE
  8
0
 10
0.583008
 20
5.00293
 11
0.635742
 21
4.87402
  0
LINE
  8
0
 10
0.635742
 20
4.87402
 11
0.691406
 21
4.74609
  0
LINE
  8
0
 10
0.691406
 20
4.74609
 11
0.75
 21
4.61914
  0
LINE
  8
0
 10
0.75
 20
4.61914
 11
0.80957
 21
4.49316
  0
LINE
  8
0
 10
0.80957
 20
4.49316
 11
0.87207
 21
4.36816
  0
LINE
  8
0
 10
0.87207
 20
4.36816
 11
0.936523
 21
4.24414
  0
LINE
  8
0
 10
0.936523
 20
4.24414
 11
1.00293
 21
4.12109
  0
LINE
  8
0
 10
1.00293
 20
4.12109
 11
1.07227
 21
4
  0
LINE
  8
0
 10
1.07227
 20
4
 11
1.14258
 21
3.87988
  0
LINE
  8
0
 10
1.14258
 20
3.87988
 11
1.21582
 21
3.76074
  0
LINE
  8
0
 10
1.21582
 20
3.76074
 11
1.29102
 21
3.64258
  0
LINE
  8
0
 10
1.29102
 20
3.64258
 11
1.36816
 21
3.52637
  0
LINE
  8
0
 10
1.36816
 20
3.52637
 11
1.44727
 21
3.41113
  0
LINE
  8
0
 10
1.44727
 20
3.41113
 11
1.52832
 21
3.29785
  0
LINE
  8
0
 10
1.52832
 20
3.29785
 11
1.61133
 21
3.18555
  0
LINE
  8
0
 10
1.61133
 20
3.18555
 11
1.69629
 21
3.0752
  0
LINE
  8
0
 10
1.69629
 20
3.0752
 11
1.7832
 21
2.96582
  0
LINE
  8
0
 10
1.7832
 20
2.96582
 11
1.87207
 21
2.85742
  0
LINE
  8
0
 10
1.87207
 20
2.85742
 11
1.96191
 21
2.75195
  0
LINE
  8
0
 10
1.96191
 20
2.75195
 11
2.05469
 21
2.64648
  0
LINE
  8
0
 10
2.05469
 20
2.64648
 11
2.14941
 21
2.54395
  0
LINE
  8
0
 10
2.14941
 20
2.54395
 11
2.24512
 21
2.44238
  0
LINE
  8
0
 10
2.24512
 20
2.44238
 11
2.34277
 21
2.34277
  0
LINE
  8
0
 10
2.34277
 20
2.34277
 11
2.44238
 21
2.24512
  0
LINE
  8
0
 10
2.44238
 20
2.24512
 11
2.54395
 21
2.14941
  0
LINE
  8
0
 10
2.54395
 20
2.14941
 11
2.64648
 21
2.05469
  0
LINE
  8
0
 10
2.64648
 20
2.05469
 11
2.75195
 21
1.96191
  0
LINE
  8
0
 10
2.75195
 20
1.96191
 11
2.85742
 21
1.87207
  0
LINE
  8
0
 10
2.85742
 20
1.87207
 11
2.96582
 21
1.7832
  0
LINE
  8
0
 10
2.96582
 20
1.7832
 11
3.0752
 21
1.69629
  0
LINE
  8
0
 10
3.0752
 20
1.69629
 11
3.18555
 21
1.61133
  0
LINE
  8
0
 10
3.18555
 20
1.61133
 11
3.29785
 21
1.52832
  0
LINE
  8
0
 10
3.29785
 20
1.52832
 11
3.41113
 21
1.44727
  0
LINE
  8
0
 10
3.41113
 20
1.44727
 11
3.52637
 21
1.36816
  0
LINE
  8
0
 10
3.52637
 20
1.36816
 11
3.64258
 21
1.29102
  0
LINE
  8
0
 10
3.64258
 20
1.29102
 11
3.76074
 21
1.21582
  0
LINE
  8
0
 10
3.76074
 20
1.21582
 11
3.87988
 21
1.14258
  0
LINE
  8
0
 10
3.87988
 20
1.14258
 11
4
 21
1.07227
  0
LINE
  8
0
 10
4
 20
1.07227
 11
4.12109
 21
1.00293
  0
LINE
  8
0
 10
4.12109
 20
1.00293
 11
4.24414
 21
0.936523
  0
LINE
  8
0
 10
4.24414
 20
0.936523
 11
4.36816
 21
0.87207
  0
LINE
  8
0
 10
4.36816
 20
0.87207
 11
4.49316
 21
0.80957
  0
LINE
  8
0
 10
4.49316
 20
0.80957
 11
4.61914
 21
0.75
  0
LINE
  8
0
 10
4.61914
 20
0.75
 11
4.74609
 21
0.691406
  0
LINE
  8
0
 10
4.74609
 20
0.691406
 11
4.87402
 21
0.635742
  0
LINE
  8
0
 10
4.87402
 20
0.635742
 11
5.00293
 21
0.583008
  0
LINE
  8
0
 10
5.00293
 20
0.583008
 11
5.13281
 21
0.53125
  0
LINE
  8
0
 10
5.13281
 20
0.53125
 11
5.26367
 21
0.482422
  0
LINE
  8
0
 10
5.26367
 20
0.482422
 11
5.39551
 21
0.435547
  0
LINE
  8
0
 10
5.39551
 20
0.435547
 11
5.52832
 21
0.391602
  0
LINE
  8
0
 10
5.52832
 20
0.391602
 11
5.66113
 21
0.349609
  0
LINE
  8
0
 10
5.66113
 20
0.349609
 11
5.79492
 21
0.30957
  0
LINE
  8
0
 10
5.79492
 20
0.30957
 11
5.92969
 21
0.272461
  0
LINE
  8
0
 10
5.92969
 20
0.272461
 11
6.06445
 21
0.237305
  0
LINE
  8
0
 10
6.06445
 20
0.237305
 11
6.2002
 21
0.205078
  0
LINE
  8
0
 10
6.2002
 20
0.205078
 11
6.33691
 21
0.174805
  0
LINE
  8
0
 10
6.33691
 20
0.174805
 11
6.47363
 21
0.147461
  0
LINE
  8
0
 10
6.47363
 20
0.147461
 11
6.61035
 21
0.121094
  0
LINE
  8
0
 10
6.61035
 20
0.121094
 11
6.74805
 21
0.0986328
  0
LINE
  8
0
 10
6.74805
 20
0.0986328
 11
6.88672
 21
0.078125
  0
LINE
  8
0
 10
6.88672
 20
0.078125
 11
7.02539
 21
0.0595703
  0
LINE
  8
0
 10
7.02539
 20
0.0595703
 11
7.16406
 21
0.0439453
  0
LINE
  8
0
 10
7.16406
 20
0.0439453
 11
7.30273
 21
0.0302734
  0
LINE
  8
0
 10
7.30273
 20
0.0302734
 11
7.44238
 21
0.0195312
  0
LINE
  8
0
 10
7.44238
 20
0.0195312
 11
7.58105
 21
0.0107422
  0
LINE
  8
0
 10
7.58105
 20
0.0107422
 11
7.7207
 21
0.00488281
  0
LINE
  8
0
 10
7.7207
 20
0.00488281
 11
7.86035
 21
0.000976562
  0
LINE
  8
0
 10
7.86035
 20
0.000976562
 11
8
 21
0
  0
LINE
  8
0
 10
8
 20
0
 11
142
 21
0
  0
LINE
  8
0
 10
142
 20
0
 11
142.14
 21
0.000976562
  0
LINE
  8
0
 10
24.9473
 20
25.25
 11
24.8428
 21
25.2539
  0
LINE
  8
0
 10
24.8428
 20
25.2539
 11
24.791
 21
25.2568
  0
LINE
  8
0
 10
24.791
 20
25.2568
 11
24.7383
 21
25.2617
  0
LINE
  8
0
 10
24.7383
 20
25.2617
 11
24.6865
 21
25.2666
  0
LINE
  8
0
 10
24.6865
 20
25.2666
 11
24.6348
 21
25.2725
  0
LINE
  8
0
 10
24.6348
 20
25.2725
 11
24.582
 21
25.2793
  0
LINE
  8
0
 10
24.582
 20
25.2793
 11
24.5303
 21
25.2871
  0
LINE
  8
0
 10
24.5303
 20
25.2871
 11
24.4795
 21
25.2959
  0
LINE
  8
0
 10
24.4795
 20
25.2959
 11
24.4277
 21
25.3047
  0
LINE
  8
0
 10
24.4277
 20
25.3047
 11
24.376
 21
25.3154
  0
LINE
  8
0
 10
24.376
 20
25.3154
 11
24.2744
 21
25.3389
  0
LINE
  8
0
 10
24.2744
 20
25.3389
 11
24.1729
 21
25.3662
  0
LINE
  8
0
 10
24.1729
 20
25.3662
 11
24.123
 21
25.3809
  0
LINE
  8
0
 10
24.123
 20
25.3809
 11
24.0732
 21
25.3965
  0
LINE
  8
0
 10
24.0732
 20
25.3965
 11
24.0234
 21
25.4131
  0
LINE
  8
0
 10
24.0234
 20
25.4131
 11
23.9736
 21
25.4307
  0
LINE
  8
0
 10
23.9736
 20
25.4307
 11
23.9248
 21
25.4492
  0
LINE
  8
0
 10
23.9248
 20
25.4492
 11
23.876
 21
25.4688
  0
LINE
  8
0
 10
23.876
 20
25.4688
 11
23.8281
 21
25.4883
  0
LINE
  8
0
 10
23.8281
 20
25.4883
 11
23.7324
 21
25.5312
  0
LINE
  8
0
 10
23.7324
 20
25.5312
 11
23.6846
 21
25.5537
  0
LINE
  8
0
 10
23.6846
 20
25.5537
 11
23.6377
 21
25.5771
  0
LINE
  8
0
 10
23.6377
 20
25.5771
 11
23.5459
 21
25.626
  0
LINE
  8
0
 10
23.5459
 20
25.626
 11
23.5
 21
25.6523
  0
LINE
  8
0
 10
23.5
 20
25.6523
 11
23.4551
 21
25.6787
  0
LINE
  8
0
 10
23.4551
 20
25.6787
 11
23.4102
 21
25.7061
  0
LINE
  8
0
 10
23.4102
 20
25.7061
 11
23.3223
 21
25.7627
  0
LINE
  8
0
 10
23.3223
 20
25.7627
 11
23.2363
 21
25.8232
  0
LINE
  8
0
 10
23.2363
 20
25.8232
 11
23.1943
 21
25.8545
  0
LINE
  8
0
 10
23.1943
 20
25.8545
 11
23.1533
 21
25.8857
  0
LINE
  8
0
 10
23.1533
 20
25.8857
 11
23.0713
 21
25.9521
  0
LINE
  8
0
 10
23.0713
 20
25.9521
 11
23.0322
 21
25.9863
  0
LINE
  8
0
 10
23.0322
 20
25.9863
 11
22.9922
 21
26.0205
  0
LINE
  8
0
 10
22.9922
 20
26.0205
 11
22.9541
 21
26.0557
  0
LINE
  8
0
 10
22.9541
 20
26.0557
 11
22.916
 21
26.0918
  0
LINE
  8
0
 10
22.916
 20
26.0918
 11
22.8418
 21
26.166
  0
LINE
  8
0
 10
22.8418
 20
26.166
 11
22.8057
 21
26.2041
  0
LINE
  8
0
 10
22.8057
 20
26.2041
 11
22.7705
 21
26.2422
  0
LINE
  8
0
 10
22.7705
 20
26.2422
 11
22.7363
 21
26.2822
  0
LINE
  8
0
 10
22.7363
 20
26.2822
 11
22.7021
 21
26.3213
  0
LINE
  8
0
 10
22.7021
 20
26.3213
 11
22.6357
 21
26.4033
  0
LINE
  8
0
 10
22.6357
 20
26.4033
 11
22.6045
 21
26.4443
  0
LINE
  8
0
 10
22.6045
 20
26.4443
 11
22.5732
 21
26.4863
  0
LINE
  8
0
 10
22.5732
 20
26.4863
 11
22.5127
 21
26.5723
  0
LINE
  8
0
 10
22.5127
 20
26.5723
 11
22.4561
 21
26.6602
  0
LINE
  8
0
 10
22.4561
 20
26.6602
 11
22.4287
 21
26.7051
  0
LINE
  8
0
 10
22.4287
 20
26.7051
 11
22.4023
 21
26.75
  0
LINE
  8
0
 10
22.4023
 20
26.75
 11
22.376
 21
26.7959
  0
LINE
  8
0
 10
22.376
 20
26.7959
 11
22.3271
 21
26.8877
  0
LINE
  8
0
 10
22.3271
 20
26.8877
 11
22.3037
 21
26.9346
  0
LINE
  8
0
 10
22.3037
 20
26.9346
 11
22.2812
 21
26.9824
  0
LINE
  8
0
 10
22.2812
 20
26.9824
 11
22.2383
 21
27.0781
  0
LINE
  8
0
 10
22.2383
 20
27.0781
 11
22.2188
 21
27.126
  0
LINE
  8
0
 10
22.2188
 20
27.126
 11
22.1992
 21
27.1748
  0
LINE
  8
0
 10
22.1992
 20
27.1748
 11
22.1807
 21
27.2236
  0
LINE
  8
0
 10
22.1807
 20
27.2236
 11
22.1631
 21
27.2734
  0
LINE
  8
0
 10
22.1631
 20
27.2734
 11
22.1465
 21
27.3232
  0
LINE
  8
0
 10
22.1465
 20
27.3232
 11
22.1309
 21
27.373
  0
LINE
  8
0
 10
22.1309
 20
27.373
 11
22.1162
 21
27.4229
  0
LINE
  8
0
 10
22.1162
 20
27.4229
 11
22.0889
 21
27.5244
  0
LINE
  8
0
 10
22.0889
 20
27.5244
 11
22.0654
 21
27.626
  0
LINE
  8
0
 10
22.0654
 20
27.626
 11
22.0547
 21
27.6777
  0
LINE
  8
0
 10
22.0547
 20
27.6777
 11
22.0459
 21
27.7295
  0
LINE
  8
0
 10
22.0459
 20
27.7295
 11
22.0371
 21
27.7803
  0
LINE
  8
0
 10
22.0371
 20
27.7803
 11
22.0293
 21
27.832
  0
LINE
  8
0
 10
22.0293
 20
27.832
 11
22.0225
 21
27.8848
  0
LINE
  8
0
 10
22.0225
 20
27.8848
 11
22.0166
 21
27.9365
  0
LINE
  8
0
 10
22.0166
 20
27.9365
 11
22.0117
 21
27.9883
  0
LINE
  8
0
 10
22.0117
 20
27.9883
 11
22.0068
 21
28.041
  0
LINE
  8
0
 10
22.0068
 20
28.041
 11
22.0039
 21
28.0928
  0
LINE
  8
0
 10
22.0039
 20
28.0928
 11
22
 21
28.1973
  0
LINE
  8
0
 10
22
 20
28.1973
 11
22
 21
28.3027
  0
LINE
  8
0
 10
22
 20
28.3027
 11
22.0039
 21
28.4072
  0
LINE
  8
0
 10
22.0039
 20
28.4072
 11
22.0068
 21
28.459
  0
LINE
  8
0
 10
22.0068
 20
28.459
 11
22.0117
 21
28.5117
  0
LINE
  8
0
 10
22.0117
 20
28.5117
 11
22.0166
 21
28.5635
  0
LINE
  8
0
 10
22.0166
 20
28.5635
 11
22.0225
 21
28.6152
  0
LINE
  8
0
 10
22.0225
 20
28.6152
 11
22.0293
 21
28.668
  0
LINE
  8
0
 10
22.0293
 20
28.668
 11
22.0371
 21
28.7197
  0
LINE
  8
0
 10
22.0371
 20
28.7197
 11
22.0459
 21
28.7705
  0
LINE
  8
0
 10
22.0459
 20
28.7705
 11
22.0547
 21
28.8223
  0
LINE
  8
0
 10
22.0547
 20
28.8223
 11
22.0654
 21
28.874
  0
LINE
  8
0
 10
22.0654
 20
28.874
 11
22.0889
 21
28.9756
  0
LINE
  8
0
 10
22.0889
 20
28.9756
 11
22.1162
 21
29.0771
  0
LINE
  8
0
 10
22.1162
 20
29.0771
 11
22.1309
 21
29.127
  0
LINE
  8
0
 10
22.1309
 20
29.127
 11
22.1465
 21
29.1768
  0
LINE
  8
0
 10
22.1465
 20
29.1768
 11
22.1631
 21
29.2266
  0
LINE
  8
0
 10
22.1631
 20
29.2266
 11
22.1807
 21
29.2764
  0
LINE
  8
0
 10
22.1807
 20
29.2764
 11
22.1992
 21
29.3252
  0
LINE
  8
0
 10
22.1992
 20
29.3252
 11
22.2188
 21
29.374
  0
LINE
  8
0
 10
22.2188
 20
29.374
 11
22.2383
 21
29.4219
  0
LINE
  8
0
 10
22.2383
 20
29.4219
 11
22.2812
 21
29.5176
  0
LINE
  8
0
 10
22.2812
 20
29.5176
 11
22.3037
 21
29.5654
  0
LINE
  8
0
 10
22.3037
 20
29.5654
 11
22.3271
 21
29.6123
  0
LINE
  8
0
 10
22.3271
 20
29.6123
 11
22.376
 21
29.7041
  0
LINE
  8
0
 10
22.376
 20
29.7041
 11
22.4023
 21
29.75
  0
LINE
  8
0
 10
22.4023
 20
29.75
 11
22.4287
 21
29.7949
  0
LINE
  8
0
 10
22.4287
 20
29.7949
 11
22.4561
 21
29.8398
  0
LINE
  8
0
 10
22.4561
 20
29.8398
 11
22.5127
 21
29.9277
  0
LINE
  8
0
 10
22.5127
 20
29.9277
 11
22.5732
 21
30.0137
  0
LINE
  8
0
 10
22.5732
 20
30.0137
 11
22.6045
 21
30.0557
  0
LINE
  8
0
 10
22.6045
 20
30.0557
 11
22.6357
 21
30.0967
  0
LINE
  8
0
 10
22.6357
 20
30.0967
 11
22.7021
 21
30.1787
  0
LINE
  8
0
 10
22.7021
 20
30.1787
 11
22.7363
 21
30.2178
  0
LINE
  8
0
 10
22.7363
 20
30.2178
 11
22.7705
 21
30.2578
  0
LINE
  8
0
 10
22.7705
 20
30.2578
 11
22.8057
 21
30.2959
  0
LINE
  8
0
 10
22.8057
 20
30.2959
 11
22.8418
 21
30.334
  0
LINE
  8
0
 10
22.8418
 20
30.334
 11
22.916
 21
30.4082
  0
LINE
  8
0
 10
22.916
 20
30.4082
 11
22.9541
 21
30.4443
  0
LINE
  8
0
 10
22.9541
 20
30.4443
 11
22.9922
 21
30.4795
  0
LINE
  8
0
 10
22.9922
 20
30.4795
 11
23.0322
 21
30.5137
  0
LINE
  8
0
 10
23.0322
 20
30.5137
 11
23.0713
 21
30.5479
  0
LINE
  8
0
 10
23.0713
 20
30.5479
 11
23.1533
 21
30.6143
  0
LINE
  8
0
 10
23.1533
 20
30.6143
 11
23.1943
 21
30.6455
  0
LINE
  8
0
 10
23.1943
 20
30.6455
 11
23.2363
 21
30.6768
  0
LINE
  8
0
 10
23.2363
 20
30.6768
 11
23.3223
 21
30.7373
  0
LINE
  8
0
 10
23.3223
 20
30.7373
 11
23.4102
 21
30.7939
  0
LINE
  8
0
 10
23.4102
 20
30.7939
 11
23.4551
 21
30.8213
  0
LINE
  8
0
 10
23.4551
 20
30.8213
 11
23.5
 21
30.8477
  0
LINE
  8
0
 10
23.5
 20
30.8477
 11
23.5459
 21
30.874
  0
LINE
  8
0
 10
23.5459
 20
30.874
 11
23.6377
 21
30.9229
  0
LINE
  8
0
 10
23.6377
 20
30.9229
 11
23.6846
 21
30.9463
  0
LINE
  8
0
 10
23.6846
 20
30.9463
 11
23.7324
 21
30.9688
  0
LINE
  8
0
 10
23.7324
 20
30.9688
 11
23.8281
 21
31.0117
  0
LINE
  8
0
 10
23.8281
 20
31.0117
 11
23.876
 21
31.0312
  0
LINE
  8
0
 10
23.876
 20
31.0312
 11
23.9248
 21
31.0508
  0
LINE
  8
0
 10
23.9248
 20
31.0508
 11
23.9736
 21
31.0693
  0
LINE
  8
0
 10
23.9736
 20
31.0693
 11
24.0234
 21
31.0869
  0
LINE
  8
0
 10
24.0234
 20
31.0869
 11
24.0732
 21
31.1035
  0
LINE
  8
0
 10
24.0732
 20
31.1035
 11
24.123
 21
31.1191
  0
LINE
  8
0
 10
24.123
 20
31.1191
 11
24.1729
 21
31.1338
  0
LINE
  8
0
 10
24.1729
 20
31.1338
 11
24.2744
 21
31.1611
  0
LINE
  8
0
 10
24.2744
 20
31.1611
 11
24.376
 21
31.1846
  0
LINE
  8
0
 10
24.376
 20
31.1846
 11
24.4277
 21
31.1953
  0
LINE
  8
0
 10
24.4277
 20
31.1953
 11
24.4795
 21
31.2041
  0
LINE
  8
0
 10
24.4795
 20
31.2041
 11
24.5303
 21
31.2129
  0
LINE
  8
0
 10
24.5303
 20
31.2129
 11
24.582
 21
31.2207
  0
LINE
  8
0
 10
24.582
 20
31.2207
 11
24.6348
 21
31.2275
  0
LINE
  8
0
 10
24.6348
 20
31.2275
 11
24.6865
 21
31.2334
  0
LINE
  8
0
 10
24.6865
 20
31.2334
 11
24.7383
 21
31.2383
  0
LINE
  8
0
 10
24.7383
 20
31.2383
 11
24.791
 21
31.2432
  0
LINE
  8
0
 10
24.791
 20
31.2432
 11
24.8428
 21
31.2461
  0
LINE
  8
0
 10
24.8428
 20
31.2461
 11
24.9473
 21
31.25
  0
LINE
  8
0
 10
24.9473
 20
31.25
 11
50.0527
 21
31.25
  0
LINE
  8
0
 10
50.0527
 20
31.25
 11
50.1572
 21
31.2461
  0
LINE
  8
0
 10
50.1572
 20
31.2461
 11
50.209
 21
31.2432
  0
LINE
  8
0
 10
50.209
 20
31.2432
 11
50.2617
 21
31.2383
  0
LINE
  8
0
 10
50.2617
 20
31.2383
 11
50.3135
 21
31.2334
  0
LINE
  8
0
 10
50.3135
 20
31.2334
 11
50.3652
 21
31.2275
  0
LINE
  8
0
 10
50.3652
 20
31.2275
 11
50.418
 21
31.2207
  0
LINE
  8
0
 10
50.418
 20
31.2207
 11
50.4697
 21
31.2129
  0
LINE
  8
0
 10
50.4697
 20
31.2129
 11
50.5205
 21
31.2041
  0
LINE
  8
0
 10
50.5205
 20
31.2041
 11
50.5723
 21
31.1953
  0
LINE
  8
0
 10
50.5723
 20
31.1953
 11
50.624
 21
31.1846
  0
LINE
  8
0
 10
50.624
 20
31.1846
 11
50.7256
 21
31.1611
  0
LINE
  8
0
 10
50.7256
 20
31.1611
 11
50.8271
 21
31.1338
  0
LINE
  8
0
 10
50.8271
 20
31.1338
 11
50.877
 21
31.1191
  0
LINE
  8
0
 10
50.877
 20
31.1191
 11
50.9268
 21
31.1035
  0
LINE
  8
0
 10
50.9268
 20
31.1035
 11
50.9766
 21
31.0869
  0
LINE
  8
0
 10
50.9766
 20
31.0869
 11
51.0264
 21
31.0693
  0
LINE
  8
0
 10
51.0264
 20
31.0693
 11
51.0752
 21
31.0508
  0
LINE
  8
0
 10
51.0752
 20
31.0508
 11
51.124
 21
31.0312
  0
LINE
  8
0
 10
51.124
 20
31.0312
 11
51.1719
 21
31.0117
  0
LINE
  8
0
 10
51.1719
 20
31.0117
 11
51.2676
 21
30.9688
  0
LINE
  8
0
 10
51.2676
 20
30.9688
 11
51.3154
 21
30.9463
  0
LINE
  8
0
 10
51.3154
 20
30.9463
 11
51.3623
 21
30.9229
  0
LINE
  8
0
 10
51.3623
 20
30.9229
 11
51.4541
 21
30.874
  0
LINE
  8
0
 10
51.4541
 20
30.874
 11
51.5
 21
30.8477
  0
LINE
  8
0
 10
51.5
 20
30.8477
 11
51.5449
 21
30.8213
  0
LINE
  8
0
 10
51.5449
 20
30.8213
 11
51.5898
 21
30.7939
  0
LINE
  8
0
 10
51.5898
 20
30.7939
 11
51.6777
 21
30.7373
  0
LINE
  8
0
 10
51.6777
 20
30.7373
 11
51.7637
 21
30.6768
  0
LINE
  8
0
 10
51.7637
 20
30.6768
 11
51.8057
 21
30.6455
  0
LINE
  8
0
 10
51.8057
 20
30.6455
 11
51.8467
 21
30.6143
  0
LINE
  8
0
 10
51.8467
 20
30.6143
 11
51.9287
 21
30.5479
  0
LINE
  8
0
 10
51.9287
 20
30.5479
 11
51.9678
 21
30.5137
  0
LINE
  8
0
 10
51.9678
 20
30.5137
 11
52.0078
 21
30.4795
  0
LINE
  8
0
 10
52.0078
 20
30.4795
 11
52.0459
 21
30.4443
  0
LINE
  8
0
 10
52.0459
 20
30.4443
 11
52.084
 21
30.4082
  0
LINE
  8
0
 10
52.084
 20
30.4082
 11
52.1582
 21
30.334
  0
LINE
  8
0
 10
52.1582
 20
30.334
 11
52.1943
 21
30.2959
  0
LINE
  8
0
 10
52.1943
 20
30.2959
 11
52.2295
 21
30.2578
  0
LINE
  8
0
 10
52.2295
 20
30.2578
 11
52.2637
 21
30.2178
  0
LINE
  8
0
 10
52.2637
 20
30.2178
 11
52.2979
 21
30.1787
  0
LINE
  8
0
 10
52.2979
 20
30.1787
 11
52.3643
 21
30.0967
  0
LINE
  8
0
 10
52.3643
 20
30.0967
 11
52.3955
 21
30.0557
  0
LINE
  8
0
 10
52.3955
 20
30.0557
 11
52.4268
 21
30.0137
  0
LINE
  8
0
 10
52.4268
 20
30.0137
 11
52.4873
 21
29.9277
  0
LINE
  8
0
 10
52.4873
 20
29.9277
 11
52.5439
 21
29.8398
  0
LINE
  8
0
 10
52.5439
 20
29.8398
 11
52.5713
 21
29.7949
  0
LINE
  8
0
 10
52.5713
 20
29.7949
 11
52.5977
 21
29.75
  0
LINE
  8
0
 10
52.5977
 20
29.75
 11
52.624
 21
29.7041
  0
LINE
  8
0
 10
52.624
 20
29.7041
 11
52.6729
 21
29.6123
  0
LINE
  8
0
 10
52.6729
 20
29.6123
 11
52.6963
 21
29.5654
  0
LINE
  8
0
 10
52.6963
 20
29.5654
 11
52.7188
 21
29.5176
  0
LINE
  8
0
 10
52.7188
 20
29.5176
 11
52.7617
 21
29.4219
  0
LINE
  8
0
 10
52.7617
 20
29.4219
 11
52.7812
 21
29.374
  0
LINE
  8
0
 10
52.7812
 20
29.374
 11
52.8008
 21
29.3252
  0
LINE
  8
0
 10
52.8008
 20
29.3252
 11
52.8193
 21
29.2764
  0
LINE
  8
0
 10
52.8193
 20
29.2764
 11
52.8369
 21
29.2266
  0
LINE
  8
0
 10
52.8369
 20
29.2266
 11
52.8535
 21
29.1768
  0
LINE
  8
0
 10
52.8535
 20
29.1768
 11
52.8691
 21
29.127
  0
LINE
  8
0
 10
52.8691
 20
29.127
 11
52.8838
 21
29.0771
  0
LINE
  8
0
 10
52.8838
 20
29.0771
 11
52.9111
 21
28.9756
  0
LINE
  8
0
 10
52.9111
 20
28.9756
 11
52.9346
 21
28.874
  0
LINE
  8
0
 10
52.9346
 20
28.874
 11
52.9453
 21
28.8223
  0
LINE
  8
0
 10
52.9453
 20
28.8223
 11
52.9541
 21
28.7705
  0
LINE
  8
0
 10
52.9541
 20
28.7705
 11
52.9629
 21
28.7197
  0
LINE
  8
0
 10
52.9629
 20
28.7197
 11
52.9707
 21
28.668
  0
LINE
  8
0
 10
52.9707
 20
28.668
 11
52.9775
 21
28.6152
  0
LINE
  8
0
 10
52.9775
 20
28.6152
 11
52.9834
 21
28.5635
  0
LINE
  8
0
 10
52.9834
 20
28.5635
 11
52.9883
 21
28.5117
  0
LINE
  8
0
 10
52.9883
 20
28.5117
 11
52.9932
 21
28.459
  0
LINE
  8
0
 10
52.9932
 20
28.459
 11
52.9961
 21
28.4072
  0
LINE
  8
0
 10
52.9961
 20
28.4072
 11
53
 21
28.3027
  0
LINE
  8
0
 10
53
 20
28.3027
 11
53
 21
28.1973
  0
LINE
  8
0
 10
53
 20
28.1973
 11
52.9961
 21
28.0928
  0
LINE
  8
0
 10
52.9961
 20
28.0928
 11
52.9932
 21
28.041
  0
LINE
  8
0
 10
52.9932
 20
28.041
 11
52.9883
 21
27.9883
  0
LINE
  8
0
 10
52.9883
 20
27.9883
 11
52.9834
 21
27.9365
  0
LINE
  8
0
 10
52.9834
 20
27.9365
 11
52.9775
 21
27.8848
  0
LINE
  8
0
 10
52.9775
 20
27.8848
 11
52.9707
 21
27.832
  0
LINE
  8
0
 10
52.9707
 20
27.832
 11
52.9629
 21
27.7803
  0
LINE
  8
0
 10
52.9629
 20
27.7803
 11
52.9541
 21
27.7295
  0
LINE
  8
0
 10
52.9541
 20
27.7295
 11
52.9453
 21
27.6777
  0
LINE
  8
0
 10
52.9453
 20
27.6777
 11
52.9346
 21
27.626
  0
LINE
  8
0
 10
52.9346
 20
27.626
 11
52.9111
 21
27.5244
  0
LINE
  8
0
 10
52.9111
 20
27.5244
 11
52.8838
 21
27.4229
  0
LINE
  8
0
 10
52.8838
 20
27.4229
 11
52.8691
 21
27.373
  0
LINE
  8
0
 10
52.8691
 20
27.373
 11
52.8535
 21
27.3232
  0
LINE
  8
0
 10
52.8535
 20
27.3232
 11
52.8369
 21
27.2734
  0
LINE
  8
0
 10
52.8369
 20
27.2734
 11
52.8193
 21
27.2236
  0
LINE
  8
0
 10
52.8193
 20
27.2236
 11
52.8008
 21
27.1748
  0
LINE
  8
0
 10
52.8008
 20
27.1748
 11
52.7812
 21
27.126
  0
LINE
  8
0
 10
52.7812
 20
27.126
 11
52.7617
 21
27.0781
  0
LINE
  8
0
 10
52.7617
 20
27.0781
 11
52.7188
 21
26.9824
  0
LINE
  8
0
 10
52.7188
 20
26.9824
 11
52.6963
 21
26.9346
  0
LINE
  8
0
 10
52.6963
 20
26.9346
 11
52.6729
 21
26.8877
  0
LINE
  8
0
 10
52.6729
 20
26.8877
 11
52.624
 21
26.7959
  0
LINE
  8
0
 10
52.624
 20
26.7959
 11
52.5977
 21
26.75
  0
LINE
  8
0
 10
52.5977
 20
26.75
 11
52.5713
 21
26.7051
  0
LINE
  8
0
 10
52.5713
 20
26.7051
 11
52.5439
 21
26.6602
  0
LINE
  8
0
 10
52.5439
 20
26.6602
 11
52.4873
 21
26.5723
  0
LINE
  8
0
 10
52.4873
 20
26.5723
 11
52.4268
 21
26.4863
  0
LINE
  8
0
 10
52.4268
 20
26.4863
 11
52.3955
 21
26.4443
  0
LINE
  8
0
 10
52.3955
 20
26.4443
 11
52.3643
 21
26.4033
  0
LINE
  8
0
 10
52.3643
 20
26.4033
 11
52.2979
 21
26.3213
  0
LINE
  8
0
 10
52.2979
 20
26.3213
 11
52.2637
 21
26.2822
  0
LINE
  8
0
 10
52.2637
 20
26.2822
 11
52.2295
 21
26.2422
  0
LINE
  8
0
 10
52.2295
 20
26.2422
 11
52.1943
 21
26.2041
  0
LINE
  8
0
 10
52.1943
 20
26.2041
 11
52.1582
 21
26.166
  0
LINE
  8
0
 10
52.1582
 20
26.166
 11
52.084
 21
26.0918
  0
LINE
  8
0
 10
52.084
 20
26.0918
 11
52.0459
 21
26.0557
  0
LINE
  8
0
 10
52.0459
 20
26.0557
 11
52.0078
 21
26.0205
  0
LINE
  8
0
 10
52.0078
 20
26.0205
 11
51.9678
 21
25.9863
  0
LINE
  8
0
 10
51.9678
 20
25.9863
 11
51.9287
 21
25.9521
  0
LINE
  8
0
 10
51.9287
 20
25.9521
 11
51.8467
 21
25.8857
  0
LINE
  8
0
 10
51.8467
 20
25.8857
 11
51.8057
 21
25.8545
  0
LINE
  8
0
 10
51.8057
 20
25.8545
 11
51.7637
 21
25.8232
  0
LINE
  8
0
 10
51.7637
 20
25.8232
 11
51.6777
 21
25.7627
  0
LINE
  8
0
 10
51.6777
 20
25.7627
 11
51.5898
 21
25.7061
  0
LINE
  8
0
 10
51.5898
 20
25.7061
 11
51.5449
 21
25.6787
  0
LINE
  8
0
 10
51.5449
 20
25.6787
 11
51.5
 21
25.6523
  0
LINE
  8
0
 10
51.5
 20
25.6523
 11
51.4541
 21
25.626
  0
LINE
  8
0
 10
51.4541
 20
25.626
 11
51.3623
 21
25.5771
  0
LINE
  8
0
 10
51.3623
 20
25.5771
 11
51.3154
 21
25.5537
  0
LINE
  8
0
 10
51.3154
 20
25.5537
 11
51.2676
 21
25.5312
  0
LINE
  8
0
 10
51.2676
 20
25.5312
 11
51.1719
 21
25.4883
  0
LINE
  8
0
 10
51.1719
 20
25.4883
 11
51.124
 21
25.4688
  0
LINE
  8
0
 10
51.124
 20
25.4688
 11
51.0752
 21
25.4492
  0
LINE
  8
0
 10
51.0752
 20
25.4492
 11
51.0264
 21
25.4307
  0
LINE
  8
0
 10
51.0264
 20
25.4307
 11
50.9766
 21
25.4131
  0
LINE
  8
0
 10
50.9766
 20
25.4131
 11
50.9268
 21
25.3965
  0
LINE
  8
0
 10
50.9268
 20
25.3965
 11
50.877
 21
25.3809
  0
LINE
  8
0
 10
50.877
 20
25.3809
 11
50.8271
 21
25.3662
  0
LINE
  8
0
 10
50.8271
 20
25.3662
 11
50.7256
 21
25.3389
  0
LINE
  8
0
 10
50.7256
 20
25.3389
 11
50.624
 21
25.3154
  0
LINE
  8
0
 10
50.624
 20
25.3154
 11
50.5723
 21
25.3047
  0
LINE
  8
0
 10
50.5723
 20
25.3047
 11
50.5205
 21
25.2959
  0
LINE
  8
0
 10
50.5205
 20
25.2959
 11
50.4697
 21
25.2871
  0
LINE
  8
0
 10
50.4697
 20
25.2871
 11
50.418
 21
25.2793
  0
LINE
  8
0
 10
50.418
 20
25.2793
 11
50.3652
 21
25.2725
  0
LINE
  8
0
 10
50.3652
 20
25.2725
 11
50.3135
 21
25.2666
  0
LINE
  8
0
 10
50.3135
 20
25.2666
 11
50.2617
 21
25.2617
  0
LINE
  8
0
 10
50.2617
 20
25.2617
 11
50.209
 21
25.2568
  0
LINE
  8
0
 10
50.209
 20
25.2568
 11
50.1572
 21
25.2539
  0
LINE
  8
0
 10
50.1572
 20
25.2539
 11
50.0527
 21
25.25
  0
LINE
  8
0
 10
50.0527
 20
25.25
 11
24.9473
 21
25.25
  0
LINE
  8
0
 10
24.9473
 20
15.25
 11
24.8428
 21
15.2539
  0
LINE
  8
0
 10
24.8428
 20
15.2539
 11
24.791
 21
15.2568
  0
LINE
  8
0
 10
24.791
 20
15.2568
 11
24.7383
 21
15.2617
  0
LINE
  8
0
 10
24.7383
 20
15.2617
 11
24.6865
 21
15.2666
  0
LINE
  8
0
 10
24.6865
 20
15.2666
 11
24.6348
 21
15.2725
  0
LINE
  8
0
 10
24.6348
 20
15.2725
 11
24.582
 21
15.2793
  0
LINE
  8
0
 10
24.582
 20
15.2793
 11
24.5303
 21
15.2871
  0
LINE
  8
0
 10
24.5303
 20
15.2871
 11
24.4795
 21
15.2959
  0
LINE
  8
0
 10
24.4795
 20
15.2959
 11
24.4277
 21
15.3047
  0
LINE
  8
0
 10
24.4277
 20
15.3047
 11
24.376
 21
15.3154
  0
LINE
  8
0
 10
24.376
 20
15.3154
 11
24.2744
 21
15.3389
  0
LINE
  8
0
 10
24.2744
 20
15.3389
 11
24.1729
 21
15.3662
  0
LINE
  8
0
 10
24.1729
 20
15.3662
 11
24.123
 21
15.3809
  0
LINE
  8
0
 10
24.123
 20
15.3809
 11
24.0732
 21
15.3965
  0
LINE
  8
0
 10
24.0732
 20
15.3965
 11
24.0234
 21
15.4131
  0
LINE
  8
0
 10
24.0234
 20
15.4131
 11
23.9736
 21
15.4307
  0
LINE
  8
0
 10
23.9736
 20
15.4307
 11
23.9248
 21
15.4492
  0
LINE
  8
0
 10
23.9248
 20
15.4492
 11
23.876
 21
15.4688
  0
LINE
  8
0
 10
23.876
 20
15.4688
 11
23.8281
 21
15.4883
  0
LINE
  8
0
 10
23.8281
 20
15.4883
 11
23.7324
 21
15.5312
  0
LINE
  8
0
 10
23.7324
 20
15.5312
 11
23.6846
 21
15.5537
  0
LINE
  8
0
 10
23.6846
 20
15.5537
 11
23.6377
 21
15.5771
  0
LINE
  8
0
 10
23.6377
 20
15.5771
 11
23.5459
 21
15.626
  0
LINE
  8
0
 10
23.5459
 20
15.626
 11
23.5
 21
15.6523
  0
LINE
  8
0
 10
23.5
 20
15.6523
 11
23.4551
 21
15.6787
  0
LINE
  8
0
 10
23.4551
 20
15.6787
 11
23.4102
 21
15.7061
  0
LINE
  8
0
 10
23.4102
 20
15.7061
 11
23.3223
 21
15.7627
  0
LINE
  8
0
 10
23.3223
 20
15.7627
 11
23.2363
 21
15.8232
  0
LINE
  8
0
 10
23.2363
 20
15.8232
 11
23.1943
 21
15.8545
  0
LINE
  8
0
 10
23.1943
 20
15.8545
 11
23.1533
 21
15.8857
  0
LINE
  8
0
 10
23.1533
 20
15.8857
 11
23.0713
 21
15.9521
  0
LINE
  8
0
 10
23.0713
 20
15.9521
 11
23.0322
 21
15.9863
  0
LINE
  8
0
 10
23.0322
 20
15.9863
 11
22.9922
 21
16.0205
  0
LINE
  8
0
 10
22.9922
 20
16.0205
 11
22.9541
 21
16.0557
  0
LINE
  8
0
 10
22.9541
 20
16.0557
 11
22.916
 21
16.0918
  0
LINE
  8
0
 10
22.916
 20
16.0918
 11
22.8418
 21
16.166
  0
LINE
  8
0
 10
22.8418
 20
16.166
 11
22.8057
 21
16.2041
  0
LINE
  8
0
 10
22.8057
 20
16.2041
 11
22.7705
 21
16.2422
  0
LINE
  8
0
 10
22.7705
 20
16.2422
 11
22.7363
 21
16.2822
  0
LINE
  8
0
 10
22.7363
 20
16.2822
 11
22.7021
 21
16.3213
  0
LINE
  8
0
 10
22.7021
 20
16.3213
 11
22.6357
 21
16.4033
  0
LINE
  8
0
 10
22.6357
 20
16.4033
 11
22.6045
 21
16.4443
  0
LINE
  8
0
 10
22.6045
 20
16.4443
 11
22.5732
 21
16.4863
  0
LINE
  8
0
 10
22.5732
 20
16.4863
 11
22.5127
 21
16.5723
  0
LINE
  8
0
 10
22.5127
 20
16.5723
 11
22.4561
 21
16.6602
  0
LINE
  8
0
 10
22.4561
 20
16.6602
 11
22.4287
 21
16.7051
  0
LINE
  8
0
 10
22.4287
 20
16.7051
 11
22.4023
 21
16.75
  0
LINE
  8
0
 10
22.4023
 20
16.75
 11
22.376
 21
16.7959
  0
LINE
  8
0
 10
22.376
 20
16.7959
 11
22.3271
 21
16.8877
  0
LINE
  8
0
 10
22.3271
 20
16.8877
 11
22.3037
 21
16.9346
  0
LINE
  8
0
 10
22.3037
 20
16.9346
 11
22.2812
 21
16.9824
  0
LINE
  8
0
 10
22.2812
 20
16.9824
 11
22.2383
 21
17.0781
  0
LINE
  8
0
 10
22.2383
 20
17.0781
 11
22.2188
 21
17.126
  0
LINE
  8
0
 10
22.2188
 20
17.126
 11
22.1992
 21
17.1748
  0
LINE
  8
0
 10
22.1992
 20
17.1748
 11
22.1807
 21
17.2236
  0
LINE
  8
0
 10
22.1807
 20
17.2236
 11
22.1631
 21
17.2734
  0
LINE
  8
0
 10
22.1631
 20
17.2734
 11
22.1465
 21
17.3232
  0
LINE
  8
0
 10
22.1465
 20
17.3232
 11
22.1309
 21
17.373
  0
LINE
  8
0
 10
22.1309
 20
17.373
 11
22.1162
 21
17.4229
  0
LINE
  8
0
 10
22.1162
 20
17.4229
 11
22.0889
 21
17.5244
  0
LINE
  8
0
 10
22.0889
 20
17.5244
 11
22.0654
 21
17.626
  0
LINE
  8
0
 10
22.0654
 20
17.626
 11
22.0547
 21
17.6777
  0
LINE
  8
0
 10
22.0547
 20
17.6777
 11
22.0459
 21
17.7295
  0
LINE
  8
0
 10
22.0459
 20
17.7295
 11
22.0371
 21
17.7803
  0
LINE
  8
0
 10
22.0371
 20
17.7803
 11
22.0293
 21
17.832
  0
LINE
  8
0
 10
22.0293
 20
17.832
 11
22.0225
 21
17.8848
  0
LINE
  8
0
 10
22.0225
 20
17.8848
 11
22.0166
 21
17.9365
  0
LINE
  8
0
 10
22.0166
 20
17.9365
 11
22.0117
 21
17.9883
  0
LINE
  8
0
 10
22.0117
 20
17.9883
 11
22.0068
 21
18.041
  0
LINE
  8
0
 10
22.0068
 20
18.041
 11
22.0039
 21
18.0928
  0
LINE
  8
0
 10
22.0039
 20
18.0928
 11
22
 21
18.1973
  0
LINE
  8
0
 10
22
 20
18.1973
 11
22
 21
18.3027
  0
LINE
  8
0
 10
22
 20
18.3027
 11
22.0039
 21
18.4072
  0
LINE
  8
0
 10
22.0039
 20
18.4072
 11
22.0068
 21
18.459
  0
LINE
  8
0
 10
22.0068
 20
18.459
 11
22.0117
 21
18.5117
  0
LINE
  8
0
 10
22.0117
 20
18.5117
 11
22.0166
 21
18.5635
  0
LINE
  8
0
 10
22.0166
 20
18.5635
 11
22.0225
 21
18.6152
  0
LINE
  8
0
 10
22.0225
 20
18.6152
 11
22.0293
 21
18.668
  0
LINE
  8
0
 10
22.0293
 20
18.668
 11
22.0371
 21
18.7197
  0
LINE
  8
0
 10
22.0371
 20
18.7197
 11
22.0459
 21
18.7705
  0
LINE
  8
0
 10
22.0459
 20
18.7705
 11
22.0547
 21
18.8223
  0
LINE
  8
0
 10
22.0547
 20
18.8223
 11
22.0654
 21
18.874
  0
LINE
  8
0
 10
22.0654
 20
18.874
 11
22.0889
 21
18.9756
  0
LINE
  8
0
 10
22.0889
 20
18.9756
 11
22.1162
 21
19.0771
  0
LINE
  8
0
 10
22.1162
 20
19.0771
 11
22.1309
 21
19.127
  0
LINE
  8
0
 10
22.1309
 20
19.127
 11
22.1465
 21
19.1768
  0
LINE
  8
0
 10
22.1465
 20
19.1768
 11
22.1631
 21
19.2266
  0
LINE
  8
0
 10
22.1631
 20
19.2266
 11
22.1807
 21
19.2764
  0
LINE
  8
0
 10
22.1807
 20
19.2764
 11
22.1992
 21
19.3252
  0
LINE
  8
0
 10
22.1992
 20
19.3252
 11
22.2188
 21
19.374
  0
LINE
  8
0
 10
22.2188
 20
19.374
 11
22.2383
 21
19.4219
  0
LINE
  8
0
 10
22.2383
 20
19.4219
 11
22.2812
 21
19.5176
  0
LINE
  8
0
 10
22.2812
 20
19.5176
 11
22.3037
 21
19.5654
  0
LINE
  8
0
 10
22.3037
 20
19.5654
 11
22.3271
 21
19.6123
  0
LINE
  8
0
 10
22.3271
 20
19.6123
 11
22.376
 21
19.7041
  0
LINE
  8
0
 10
22.376
 20
19.7041
 11
22.4023
 21
19.75
  0
LINE
  8
0
 10
22.4023
 20
19.75
 11
22.4287
 21
19.7949
  0
LINE
  8
0
 10
22.4287
 20
19.7949
 11
22.4561
 21
19.8398
  0
LINE
  8
0
 10
22.4561
 20
19.8398
 11
22.5127
 21
19.9277
  0
LINE
  8
0
 10
22.5127
 20
19.9277
 11
22.5732
 21
20.0137
  0
LINE
  8
0
 10
22.5732
 20
20.0137
 11
22.6045
 21
20.0557
  0
LINE
  8
0
 10
22.6045
 20
20.0557
 11
22.6357
 21
20.0967
  0
LINE
  8
0
 10
22.6357
 20
20.0967
 11
22.7021
 21
20.1787
  0
LINE
  8
0
 10
22.7021
 20
20.1787
 11
22.7363
 21
20.2178
  0
LINE
  8
0
 10
22.7363
 20
20.2178
 11
22.7705
 21
20.2578
  0
LINE
  8
0
 10
22.7705
 20
20.2578
 11
22.8057
 21
20.2959
  0
LINE
  8
0
 10
22.8057
 20
20.2959
 11
22.8418
 21
20.334
  0
LINE
  8
0
 10
22.8418
 20
20.334
 11
22.916
 21
20.4082
  0
LINE
  8
0
 10
22.916
 20
20.4082
 11
22.9541
 21
20.4443
  0
LINE
  8
0
 10
22.9541
 20
20.4443
 11
22.9922
 21
20.4795
  0
LINE
  8
0
 10
22.9922
 20
20.4795
 11
23.0322
 21
20.5137
  0
LINE
  8
0
 10
23.0322
 20
20.5137
 11
23.0713
 21
20.5479
  0
LINE
  8
0
 10
23.0713
 20
20.5479
 11
23.1533
 21
20.6143
  0
LINE
  8
0
 10
23.1533
 20
20.6143
 11
23.1943
 21
20.6455
  0
LINE
  8
0
 10
23.1943
 20
20.6455
 11
23.2363
 21
20.6768
  0
LINE
  8
0
 10
23.2363
 20
20.6768
 11
23.3223
 21
20.7373
  0
LINE
  8
0
 10
23.3223
 20
20.7373
 11
23.4102
 21
20.7939
  0
LINE
  8
0
 10
23.4102
 20
20.7939
 11
23.4551
 21
20.8213
  0
LINE
  8
0
 10
23.4551
 20
20.8213
 11
23.5
 21
20.8477
  0
LINE
  8
0
 10
23.5
 20
20.8477
 11
23.5459
 21
20.874
  0
LINE
  8
0
 10
23.5459
 20
20.874
 11
23.6377
 21
20.9229
  0
LINE
  8
0
 10
23.6377
 20
20.9229
 11
23.6846
 21
20.9463
  0
LINE
  8
0
 10
23.6846
 20
20.9463
 11
23.7324
 21
20.9688
  0
LINE
  8
0
 10
23.7324
 20
20.9688
 11
23.8281
 21
21.0117
  0
LINE
  8
0
 10
23.8281
 20
21.0117
 11
23.876
 21
21.0312
  0
LINE
  8
0
 10
23.876
 20
21.0312
 11
23.9248
 21
21.0508
  0
LINE
  8
0
 10
23.9248
 20
21.0508
 11
23.9736
 21
21.0693
  0
LINE
  8
0
 10
23.9736
 20
21.0693
 11
24.0234
 21
21.0869
  0
LINE
  8
0
 10
24.0234
 20
21.0869
 11
24.0732
 21
21.1035
  0
LINE
  8
0
 10
24.0732
 20
21.1035
 11
24.123
 21
21.1191
  0
LINE
  8
0
 10
24.123
 20
21.1191
 11
24.1729
 21
21.1338
  0
LINE
  8
0
 10
24.1729
 20
21.1338
 11
24.2744
 21
21.1611
  0
LINE
  8
0
 10
24.2744
 20
21.1611
 11
24.376
 21
21.1846
  0
LINE
  8
0
 10
24.376
 20
21.1846
 11
24.4277
 21
21.1953
  0
LINE
  8
0
 10
24.4277
 20
21.1953
 11
24.4795
 21
21.2041
  0
LINE
  8
0
 10
24.4795
 20
21.2041
 11
24.5303
 21
21.2129
  0
LINE
  8
0
 10
24.5303
 20
21.2129
 11
24.582
 21
21.2207
  0
LINE
  8
0
 10
24.582
 20
21.2207
 11
24.6348
 21
21.2275
  0
LINE
  8
0
 10
24.6348
 20
21.2275
 11
24.6865
 21
21.2334
  0
LINE
  8
0
 10
24.6865
 20
21.2334
 11
24.7383
 21
21.2383
  0
LINE
  8
0
 10
24.7383
 20
21.2383
 11
24.791
 21
21.2432
  0
LINE
  8
0
 10
24.791
 20
21.2432
 11
24.8428
 21
21.2461
  0
LINE
  8
0
 10
24.8428
 20
21.2461
 11
24.9473
 21
21.25
  0
LINE
  8
0
 10
24.9473
 20
21.25
 11
50.0527
 21
21.25
  0
LINE
  8
0
 10
50.0527
 20
21.25
 11
50.1572
 21
21.2461
  0
LINE
  8
0
 10
50.1572
 20
21.2461
 11
50.209
 21
21.2432
  0
LINE
  8
0
 10
50.209
 20
21.2432
 11
50.2617
 21
21.2383
  0
LINE
  8
0
 10
50.2617
 20
21.2383
 11
50.3135
 21
21.2334
  0
LINE
  8
0
 10
50.3135
 20
21.2334
 11
50.3652
 21
21.2275
  0
LINE
  8
0
 10
50.3652
 20
21.2275
 11
50.418
 21
21.2207
  0
LINE
  8
0
 10
50.418
 20
21.2207
 11
50.4697
 21
21.2129
  0
LINE
  8
0
 10
50.4697
 20
21.2129
 11
50.5205
 21
21.2041
  0
LINE
  8
0
 10
50.5205
 20
21.2041
 11
50.5723
 21
21.1953
  0
LINE
  8
0
 10
50.5723
 20
21.1953
 11
50.624
 21
21.1846
  0
LINE
  8
0
 10
50.624
 20
21.1846
 11
50.7256
 21
21.1611
  0
LINE
  8
0
 10
50.7256
 20
21.1611
 11
50.8271
 21
21.1338
  0
LINE
  8
0
 10
50.8271
 20
21.1338
 11
50.877
 21
21.1191
  0
LINE
  8
0
 10
50.877
 20
21.1191
 11
50.9268
 21
21.1035
  0
LINE
  8
0
 10
50.9268
 20
21.1035
 11
50.9766
 21
21.0869
  0
LINE
  8
0
 10
50.9766
 20
21.0869
 11
51.0264
 21
21.0693
  0
LINE
  8
0
 10
51.0264
 20
21.0693
 11
51.0752
 21
21.0508
  0
LINE
  8
0
 10
51.0752
 20
21.0508
 11
51.124
 21
21.0312
  0
LINE
  8
0
 10
51.124
 20
21.0312
 11
51.1719
 21
21.0117
  0
LINE
  8
0
 10
51.1719
 20
21.0117
 11
51.2676
 21
20.9688
  0
LINE
  8
0
 10
51.2676
 20
20.9688
 11
51.3154
 21
20.9463
  0
LINE
  8
0
 10
51.3154
 20
20.9463
 11
51.3623
 21
20.9229
  0
LINE
  8
0
 10
51.3623
 20
20.9229
 11
51.4541
 21
20.874
  0
LINE
  8
0
 10
51.4541
 20
20.874
 11
51.5
 21
20.8477
  0
LINE
  8
0
 10
51.5
 20
20.8477
 11
51.5449
 21
20.8213
  0
LINE
  8
0
 10
51.5449
 20
20.8213
 11
51.5898
 21
20.7939
  0
LINE
  8
0
 10
51.5898
 20
20.7939
 11
51.6777
 21
20.7373
  0
LINE
  8
0
 10
51.6777
 20
20.7373
 11
51.7637
 21
20.6768
  0
LINE
  8
0
 10
51.7637
 20
20.6768
 11
51.8057
 21
20.6455
  0
LINE
  8
0
 10
51.8057
 20
20.6455
 11
51.8467
 21
20.6143
  0
LINE
  8
0
 10
51.8467
 20
20.6143
 11
51.9287
 21
20.5479
  0
LINE
  8
0
 10
51.9287
 20
20.5479
 11
51.9678
 21
20.5137
  0
LINE
  8
0
 10
51.9678
 20
20.5137
 11
52.0078
 21
20.4795
  0
LINE
  8
0
 10
52.0078
 20
20.4795
 11
52.0459
 21
20.4443
  0
LINE
  8
0
 10
52.0459
 20
20.4443
 11
52.084
 21
20.4082
  0
LINE
  8
0
 10
52.084
 20
20.4082
 11
52.1582
 21
20.334
  0
LINE
  8
0
 10
52.1582
 20
20.334
 11
52.1943
 21
20.2959
  0
LINE
  8
0
 10
52.1943
 20
20.2959
 11
52.2295
 21
20.2578
  0
LINE
  8
0
 10
52.2295
 20
20.2578
 11
52.2637
 21
20.2178
  0
LINE
  8
0
 10
52.2637
 20
20.2178
 11
52.2979
 21
20.1787
  0
LINE
  8
0
 10
52.2979
 20
20.1787
 11
52.3643
 21
20.0967
  0
LINE
  8
0
 10
52.3643
 20
20.0967
 11
52.3955
 21
20.0557
  0
LINE
  8
0
 10
52.3955
 20
20.0557
 11
52.4268
 21
20.0137
  0
LINE
  8
0
 10
52.4268
 20
20.0137
 11
52.4873
 21
19.9277
  0
LINE
  8
0
 10
52.4873
 20
19.9277
 11
52.5439
 21
19.8398
  0
LINE
  8
0
 10
52.5439
 20
19.8398
 11
52.5713
 21
19.7949
  0
LINE
  8
0
 10
52.5713
 20
19.7949
 11
52.5977
 21
19.75
  0
LINE
  8
0
 10
52.5977
 20
19.75
 11
52.624
 21
19.7041
  0
LINE
  8
0
 10
52.624
 20
19.7041
 11
52.6729
 21
19.6123
  0
LINE
  8
0
 10
52.6729
 20
19.6123
 11
52.6963
 21
19.5654
  0
LINE
  8
0
 10
52.6963
 20
19.5654
 11
52.7188
 21
19.5176
  0
LINE
  8
0
 10
52.7188
 20
19.5176
 11
52.7617
 21
19.4219
  0
LINE
  8
0
 10
52.7617
 20
19.4219
 11
52.7812
 21
19.374
  0
LINE
  8
0
 10
52.7812
 20
19.374
 11
52.8008
 21
19.3252
  0
LINE
  8
0
 10
52.8008
 20
19.3252
 11
52.8193
 21
19.2764
  0
LINE
  8
0
 10
52.8193
 20
19.2764
 11
52.8369
 21
19.2266
  0
LINE
  8
0
 10
52.8369
 20
19.2266
 11
52.8535
 21
19.1768
  0
LINE
  8
0
 10
52.8535
 20
19.1768
 11
52.8691
 21
19.127
  0
LINE
  8
0
 10
52.8691
 20
19.127
 11
52.8838
 21
19.0771
  0
LINE
  8
0
 10
52.8838
 20
19.0771
 11
52.9111
 21
18.9756
  0
LINE
  8
0
 10
52.9111
 20
18.9756
 11
52.9346
 21
18.874
  0
LINE
  8
0
 10
52.9346
 20
18.874
 11
52.9453
 21
18.8223
  0
LINE
  8
0
 10
52.9453
 20
18.8223
 11
52.9541
 21
18.7705
  0
LINE
  8
0
 10
52.9541
 20
18.7705
 11
52.9629
 21
18.7197
  0
LINE
  8
0
 10
52.9629
 20
18.7197
 11
52.9707
 21
18.668
  0
LINE
  8
0
 10
52.9707
 20
18.668
 11
52.9775
 21
18.6152
  0
LINE
  8
0
 10
52.9775
 20
18.6152
 11
52.9834
 21
18.5635
  0
LINE
  8
0
 10
52.9834
 20
18.5635
 11
52.9883
 21
18.5117
  0
LINE
  8
0
 10
52.9883
 20
18.5117
 11
52.9932
 21
18.459
  0
LINE
  8
0
 10
52.9932
 20
18.459
 11
52.9961
 21
18.4072
  0
LINE
  8
0
 10
52.9961
 20
18.4072
 11
53
 21
18.3027
  0
LINE
  8
0
 10
53
 20
18.3027
 11
53
 21
18.1973
  0
LINE
  8
0
 10
53
 20
18.1973
 11
52.9961
 21
18.0928
  0
LINE
  8
0
 10
52.9961
 20
18.0928
 11
52.9932
 21
18.041
  0
LINE
  8
0
 10
52.9932
 20
18.041
 11
52.9883
 21
17.9883
  0
LINE
  8
0
 10
52.9883
 20
17.9883
 11
52.9834
 21
17.9365
  0
LINE
  8
0
 10
52.9834
 20
17.9365
 11
52.9775
 21
17.8848
  0
LINE
  8
0
 10
52.9775
 20
17.8848
 11
52.9707
 21
17.832
  0
LINE
  8
0
 10
52.9707
 20
17.832
 11
52.9629
 21
17.7803
  0
LINE
  8
0
 10
52.9629
 20
17.7803
 11
52.9541
 21
17.7295
  0
LINE
  8
0
 10
52.9541
 20
17.7295
 11
52.9453
 21
17.6777
  0
LINE
  8
0
 10
52.9453
 20
17.6777
 11
52.9346
 21
17.626
  0
LINE
  8
0
 10
52.9346
 20
17.626
 11
52.9111
 21
17.5244
  0
LINE
  8
0
 10
52.9111
 20
17.5244
 11
52.8838
 21
17.4229
  0
LINE
  8
0
 10
52.8838
 20
17.4229
 11
52.8691
 21
17.373
  0
LINE
  8
0
 10
52.8691
 20
17.373
 11
52.8535
 21
17.3232
  0
LINE
  8
0
 10
52.8535
 20
17.3232
 11
52.8369
 21
17.2734
  0
LINE
  8
0
 10
52.8369
 20
17.2734
 11
52.8193
 21
17.2236
  0
LINE
  8
0
 10
52.8193
 20
17.2236
 11
52.8008
 21
17.1748
  0
LINE
  8
0
 10
52.8008
 20
17.1748
 11
52.7812
 21
17.126
  0
LINE
  8
0
 10
52.7812
 20
17.126
 11
52.7617
 21
17.0781
  0
LINE
  8
0
 10
52.7617
 20
17.0781
 11
52.7188
 21
16.9824
  0
LINE
  8
0
 10
52.7188
 20
16.9824
 11
52.6963
 21
16.9346
  0
LINE
  8
0
 10
52.6963
 20
16.9346
 11
52.6729
 21
16.8877
  0
LINE
  8
0
 10
52.6729
 20
16.8877
 11
52.624
 21
16.7959
  0
LINE
  8
0
 10
52.624
 20
16.7959
 11
52.5977
 21
16.75
  0
LINE
  8
0
 10
52.5977
 20
16.75
 11
52.5713
 21
16.7051
  0
LINE
  8
0
 10
52.5713
 20
16.7051
 11
52.5439
 21
16.6602
  0
LINE
  8
0
 10
52.5439
 20
16.6602
 11
52.4873
 21
16.5723
  0
LINE
  8
0
 10
52.4873
 20
16.5723
 11
52.4268
 21
16.4863
  0
LINE
  8
0
 10
52.4268
 20
16.4863
 11
52.3955
 21
16.4443
  0
LINE
  8
0
 10
52.3955
 20
16.4443
 11
52.3643
 21
16.4033
  0
LINE
  8
0
 10
52.3643
 20
16.4033
 11
52.2979
 21
16.3213
  0
LINE
  8
0
 10
52.2979
 20
16.3213
 11
52.2637
 21
16.2822
  0
LINE
  8
0
 10
52.2637
 20
16.2822
 11
52.2295
 21
16.2422
  0
LINE
  8
0
 10
52.2295
 20
16.2422
 11
52.1943
 21
16.2041
  0
LINE
  8
0
 10
52.1943
 20
16.2041
 11
52.1582
 21
16.166
  0
LINE
  8
0
 10
52.1582
 20
16.166
 11
52.084
 21
16.0918
  0
LINE
  8
0
 10
52.084
 20
16.0918
 11
52.0459
 21
16.0557
  0
LINE
  8
0
 10
52.0459
 20
16.0557
 11
52.0078
 21
16.0205
  0
LINE
  8
0
 10
52.0078
 20
16.0205
 11
51.9678
 21
15.9863
  0
LINE
  8
0
 10
51.9678
 20
15.9863
 11
51.9287
 21
15.9521
  0
LINE
  8
0
 10
51.9287
 20
15.9521
 11
51.8467
 21
15.8857
  0
LINE
  8
0
 10
51.8467
 20
15.8857
 11
51.8057
 21
15.8545
  0
LINE
  8
0
 10
51.8057
 20
15.8545
 11
51.7637
 21
15.8232
  0
LINE
  8
0
 10
51.7637
 20
15.8232
 11
51.6777
 21
15.7627
  0
LINE
  8
0
 10
51.6777
 20
15.7627
 11
51.5898
 21
15.7061
  0
LINE
  8
0
 10
51.5898
 20
15.7061
 11
51.5449
 21
15.6787
  0
LINE
  8
0
 10
51.5449
 20
15.6787
 11
51.5
 21
15.6523
  0
LINE
  8
0
 10
51.5
 20
15.6523
 11
51.4541
 21
15.626
  0
LINE
  8
0
 10
51.4541
 20
15.626
 11
51.3623
 21
15.5771
  0
LINE
  8
0
 10
51.3623
 20
15.5771
 11
51.3154
 21
15.5537
  0
LINE
  8
0
 10
51.3154
 20
15.5537
 11
51.2676
 21
15.5312
  0
LINE
  8
0
 10
51.2676
 20
15.5312
 11
51.1719
 21
15.4883
  0
LINE
  8
0
 10
51.1719
 20
15.4883
 11
51.124
 21
15.4688
  0
LINE
  8
0
 10
51.124
 20
15.4688
 11
51.0752
 21
15.4492
  0
LINE
  8
0
 10
51.0752
 20
15.4492
 11
51.0264
 21
15.4307
  0
LINE
  8
0
 10
51.0264
 20
15.4307
 11
50.9766
 21
15.4131
  0
LINE
  8
0
 10
50.9766
 20
15.4131
 11
50.9268
 21
15.3965
  0
LINE
  8
0
 10
50.9268
 20
15.3965
 11
50.877
 21
15.3809
  0
LINE
  8
0
 10
50.877
 20
15.3809
 11
50.8271
 21
15.3662
  0
LINE
  8
0
 10
50.8271
 20
15.3662
 11
50.7256
 21
15.3389
  0
LINE
  8
0
 10
50.7256
 20
15.3389
 11
50.624
 21
15.3154
  0
LINE
  8
0
 10
50.624
 20
15.3154
 11
50.5723
 21
15.3047
  0
LINE
  8
0
 10
50.5723
 20
15.3047
 11
50.5205
 21
15.2959
  0
LINE
  8
0
 10
50.5205
 20
15.2959
 11
50.4697
 21
15.2871
  0
LINE
  8
0
 10
50.4697
 20
15.2871
 11
50.418
 21
15.2793
  0
LINE
  8
0
 10
50.418
 20
15.2793
 11
50.3652
 21
15.2725
  0
LINE
  8
0
 10
50.3652
 20
15.2725
 11
50.3135
 21
15.2666
  0
LINE
  8
0
 10
50.3135
 20
15.2666
 11
50.2617
 21
15.2617
  0
LINE
  8
0
 10
50.2617
 20
15.2617
 11
50.209
 21
15.2568
  0
LINE
  8
0
 10
50.209
 20
15.2568
 11
50.1572
 21
15.2539
  0
LINE
  8
0
 10
50.1572
 20
15.2539
 11
50.0527
 21
15.25
  0
LINE
  8
0
 10
50.0527
 20
15.25
 11
24.9473
 21
15.25
  0
LINE
  8
0
 10
84.2148
 20
4.75
 11
84.1807
 21
4.75098
  0
LINE
  8
0
 10
84.1807
 20
4.75098
 11
84.1104
 21
4.75488
  0
LINE
  8
0
 10
84.1104
 20
4.75488
 11
84.0762
 21
4.75781
  0
LINE
  8
0
 10
84.0762
 20
4.75781
 11
84.041
 21
4.76074
  0
LINE
  8
0
 10
84.041
 20
4.76074
 11
84.0059
 21
4.76465
  0
LINE
  8
0
 10
84.0059
 20
4.76465
 11
83.9375
 21
4.77441
  0
LINE
  8
0
 10
83.9375
 20
4.77441
 11
83.9023
 21
4.78027
  0
LINE
  8
0
 10
83.9023
 20
4.78027
 11
83.7998
 21
4.80078
  0
LINE
  8
0
 10
83.7998
 20
4.80078
 11
83.7666
 21
4.80957
  0
LINE
  8
0
 10
83.7666
 20
4.80957
 11
83.6982
 21
4.82715
  0
LINE
  8
0
 10
83.6982
 20
4.82715
 11
83.665
 21
4.83691
  0
LINE
  8
0
 10
83.665
 20
4.83691
 11
83.6318
 21
4.84766
  0
LINE
  8
0
 10
83.6318
 20
4.84766
 11
83.5986
 21
4.85938
  0
LINE
  8
0
 10
83.5986
 20
4.85938
 11
83.5664
 21
4.87109
  0
LINE
  8
0
 10
83.5664
 20
4.87109
 11
83.5332
 21
4.88281
  0
LINE
  8
0
 10
83.5332
 20
4.88281
 11
83.501
 21
4.89551
  0
LINE
  8
0
 10
83.501
 20
4.89551
 11
83.4365
 21
4.92285
  0
LINE
  8
0
 10
83.4365
 20
4.92285
 11
83.4043
 21
4.9375
  0
LINE
  8
0
 10
83.4043
 20
4.9375
 11
83.373
 21
4.95215
  0
LINE
  8
0
 10
83.373
 20
4.95215
 11
83.3418
 21
4.96777
  0
LINE
  8
0
 10
83.3418
 20
4.96777
 11
83.3115
 21
4.98438
  0
LINE
  8
0
 10
83.3115
 20
4.98438
 11
83.2803
 21
5.00098
  0
LINE
  8
0
 10
83.2803
 20
5.00098
 11
83.25
 21
5.01758
  0
LINE
  8
0
 10
83.25
 20
5.01758
 11
83.2197
 21
5.03613
  0
LINE
  8
0
 10
83.2197
 20
5.03613
 11
83.1904
 21
5.05371
  0
LINE
  8
0
 10
83.1904
 20
5.05371
 11
83.1611
 21
5.07227
  0
LINE
  8
0
 10
83.1611
 20
5.07227
 11
83.1025
 21
5.11133
  0
LINE
  8
0
 10
83.1025
 20
5.11133
 11
83.0459
 21
5.15234
  0
LINE
  8
0
 10
83.0459
 20
5.15234
 11
82.9912
 21
5.19531
  0
LINE
  8
0
 10
82.9912
 20
5.19531
 11
82.9648
 21
5.21777
  0
LINE
  8
0
 10
82.9648
 20
5.21777
 11
82.9375
 21
5.24023
  0
LINE
  8
0
 10
82.9375
 20
5.24023
 11
82.9121
 21
5.26367
  0
LINE
  8
0
 10
82.9121
 20
5.26367
 11
82.8857
 21
5.28711
  0
LINE
  8
0
 10
82.8857
 20
5.28711
 11
82.8604
 21
5.31152
  0
LINE
  8
0
 10
82.8604
 20
5.31152
 11
82.8115
 21
5.36035
  0
LINE
  8
0
 10
82.8115
 20
5.36035
 11
82.7871
 21
5.38574
  0
LINE
  8
0
 10
82.7871
 20
5.38574
 11
82.7637
 21
5.41211
  0
LINE
  8
0
 10
82.7637
 20
5.41211
 11
82.7402
 21
5.4375
  0
LINE
  8
0
 10
82.7402
 20
5.4375
 11
82.7178
 21
5.46484
  0
LINE
  8
0
 10
82.7178
 20
5.46484
 11
82.6953
 21
5.49121
  0
LINE
  8
0
 10
82.6953
 20
5.49121
 11
82.6523
 21
5.5459
  0
LINE
  8
0
 10
82.6523
 20
5.5459
 11
82.6113
 21
5.60254
  0
LINE
  8
0
 10
82.6113
 20
5.60254
 11
82.5723
 21
5.66113
  0
LINE
  8
0
 10
82.5723
 20
5.66113
 11
82.5537
 21
5.69043
  0
LINE
  8
0
 10
82.5537
 20
5.69043
 11
82.5361
 21
5.71973
  0
LINE
  8
0
 10
82.5361
 20
5.71973
 11
82.5176
 21
5.75
  0
LINE
  8
0
 10
82.5176
 20
5.75
 11
82.501
 21
5.78027
  0
LINE
  8
0
 10
82.501
 20
5.78027
 11
82.4844
 21
5.81152
  0
LINE
  8
0
 10
82.4844
 20
5.81152
 11
82.4678
 21
5.8418
  0
LINE
  8
0
 10
82.4678
 20
5.8418
 11
82.4521
 21
5.87305
  0
LINE
  8
0
 10
82.4521
 20
5.87305
 11
82.4375
 21
5.9043
  0
LINE
  8
0
 10
82.4375
 20
5.9043
 11
82.4229
 21
5.93652
  0
LINE
  8
0
 10
82.4229
 20
5.93652
 11
82.3955
 21
6.00098
  0
LINE
  8
0
 10
82.3955
 20
6.00098
 11
82.3828
 21
6.0332
  0
LINE
  8
0
 10
82.3828
 20
6.0332
 11
82.3711
 21
6.06641
  0
LINE
  8
0
 10
82.3711
 20
6.06641
 11
82.3594
 21
6.09863
  0
LINE
  8
0
 10
82.3594
 20
6.09863
 11
82.3477
 21
6.13184
  0
LINE
  8
0
 10
82.3477
 20
6.13184
 11
82.3369
 21
6.16504
  0
LINE
  8
0
 10
82.3369
 20
6.16504
 11
82.3271
 21
6.19824
  0
LINE
  8
0
 10
82.3271
 20
6.19824
 11
82.3096
 21
6.2666
  0
LINE
  8
0
 10
82.3096
 20
6.2666
 11
82.3008
 21
6.2998
  0
LINE
  8
0
 10
82.3008
 20
6.2998
 11
82.2803
 21
6.40234
  0
LINE
  8
0
 10
82.2803
 20
6.40234
 11
82.2744
 21
6.4375
  0
LINE
  8
0
 10
82.2744
 20
6.4375
 11
82.2646
 21
6.50586
  0
LINE
  8
0
 10
82.2646
 20
6.50586
 11
82.2607
 21
6.54102
  0
LINE
  8
0
 10
82.2607
 20
6.54102
 11
82.2578
 21
6.57617
  0
LINE
  8
0
 10
82.2578
 20
6.57617
 11
82.2549
 21
6.61035
  0
LINE
  8
0
 10
82.2549
 20
6.61035
 11
82.251
 21
6.68066
  0
LINE
  8
0
 10
82.251
 20
6.68066
 11
82.25
 21
6.71484
  0
LINE
  8
0
 10
82.25
 20
6.71484
 11
82.25
 21
6.78516
  0
LINE
  8
0
 10
82.25
 20
6.78516
 11
82.251
 21
6.81934
  0
LINE
  8
0
 10
82.251
 20
6.81934
 11
82.2549
 21
6.88965
  0
LINE
  8
0
 10
82.2549
 20
6.88965
 11
82.2578
 21
6.92383
  0
LINE
  8
0
 10
82.2578
 20
6.92383
 11
82.2607
 21
6.95898
  0
LINE
  8
0
 10
82.2607
 20
6.95898
 11
82.2646
 21
6.99414
  0
LINE
  8
0
 10
82.2646
 20
6.99414
 11
82.2744
 21
7.0625
  0
LINE
  8
0
 10
82.2744
 20
7.0625
 11
82.2803
 21
7.09766
  0
LINE
  8
0
 10
82.2803
 20
7.09766
 11
82.3008
 21
7.2002
  0
LINE
  8
0
 10
82.3008
 20
7.2002
 11
82.3096
 21
7.2334
  0
LINE
  8
0
 10
82.3096
 20
7.2334
 11
82.3271
 21
7.30176
  0
LINE
  8
0
 10
82.3271
 20
7.30176
 11
82.3369
 21
7.33496
  0
LINE
  8
0
 10
82.3369
 20
7.33496
 11
82.3477
 21
7.36816
  0
LINE
  8
0
 10
82.3477
 20
7.36816
 11
82.3594
 21
7.40137
  0
LINE
  8
0
 10
82.3594
 20
7.40137
 11
82.3711
 21
7.43359
  0
LINE
  8
0
 10
82.3711
 20
7.43359
 11
82.3828
 21
7.4668
  0
LINE
  8
0
 10
82.3828
 20
7.4668
 11
82.3955
 21
7.49902
  0
LINE
  8
0
 10
82.3955
 20
7.49902
 11
82.4229
 21
7.56348
  0
LINE
  8
0
 10
82.4229
 20
7.56348
 11
82.4375
 21
7.5957
  0
LINE
  8
0
 10
82.4375
 20
7.5957
 11
82.4521
 21
7.62695
  0
LINE
  8
0
 10
82.4521
 20
7.62695
 11
82.4678
 21
7.6582
  0
LINE
  8
0
 10
82.4678
 20
7.6582
 11
82.4844
 21
7.68848
  0
LINE
  8
0
 10
82.4844
 20
7.68848
 11
82.501
 21
7.71973
  0
LINE
  8
0
 10
82.501
 20
7.71973
 11
82.5176
 21
7.75
  0
LINE
  8
0
 10
82.5176
 20
7.75
 11
82.5361
 21
7.78027
  0
LINE
  8
0
 10
82.5361
 20
7.78027
 11
82.5537
 21
7.80957
  0
LINE
  8
0
 10
82.5537
 20
7.80957
 11
82.5723
 21
7.83887
  0
LINE
  8
0
 10
82.5723
 20
7.83887
 11
82.6113
 21
7.89746
  0
LINE
  8
0
 10
82.6113
 20
7.89746
 11
82.6523
 21
7.9541
  0
LINE
  8
0
 10
82.6523
 20
7.9541
 11
82.6953
 21
8.00879
  0
LINE
  8
0
 10
82.6953
 20
8.00879
 11
82.7178
 21
8.03516
  0
LINE
  8
0
 10
82.7178
 20
8.03516
 11
82.7402
 21
8.0625
  0
LINE
  8
0
 10
82.7402
 20
8.0625
 11
82.7637
 21
8.08789
  0
LINE
  8
0
 10
82.7637
 20
8.08789
 11
82.7871
 21
8.11426
  0
LINE
  8
0
 10
82.7871
 20
8.11426
 11
82.8115
 21
8.13965
  0
LINE
  8
0
 10
82.8115
 20
8.13965
 11
82.8604
 21
8.18848
  0
LINE
  8
0
 10
82.8604
 20
8.18848
 11
82.8857
 21
8.21289
  0
LINE
  8
0
 10
82.8857
 20
8.21289
 11
82.9121
 21
8.23633
  0
LINE
  8
0
 10
82.9121
 20
8.23633
 11
82.9375
 21
8.25977
  0
LINE
  8
0
 10
82.9375
 20
8.25977
 11
82.9648
 21
8.28223
  0
LINE
  8
0
 10
82.9648
 20
8.28223
 11
82.9912
 21
8.30469
  0
LINE
  8
0
 10
82.9912
 20
8.30469
 11
83.0459
 21
8.34766
  0
LINE
  8
0
 10
83.0459
 20
8.34766
 11
83.1025
 21
8.38867
  0
LINE
  8
0
 10
83.1025
 20
8.38867
 11
83.1611
 21
8.42773
  0
LINE
  8
0
 10
83.1611
 20
8.42773
 11
83.1904
 21
8.44629
  0
LINE
  8
0
 10
83.1904
 20
8.44629
 11
83.2197
 21
8.46387
  0
LINE
  8
0
 10
83.2197
 20
8.46387
 11
83.25
 21
8.48242
  0
LINE
  8
0
 10
83.25
 20
8.48242
 11
83.2803
 21
8.49902
  0
LINE
  8
0
 10
83.2803
 20
8.49902
 11
83.3115
 21
8.51562
  0
LINE
  8
0
 10
83.3115
 20
8.51562
 11
83.3418
 21
8.53223
  0
LINE
  8
0
 10
83.3418
 20
8.53223
 11
83.373
 21
8.54785
  0
LINE
  8
0
 10
83.373
 20
8.54785
 11
83.4043
 21
8.5625
  0
LINE
  8
0
 10
83.4043
 20
8.5625
 11
83.4365
 21
8.57715
  0
LINE
  8
0
 10
83.4365
 20
8.57715
 11
83.501
 21
8.60449
  0
LINE
  8
0
 10
83.501
 20
8.60449
 11
83.5332
 21
8.61719
  0
LINE
  8
0
 10
83.5332
 20
8.61719
 11
83.5664
 21
8.62891
  0
LINE
  8
0
 10
83.5664
 20
8.62891
 11
83.5986
 21
8.64062
  0
LINE
  8
0
 10
83.5986
 20
8.64062
 11
83.6318
 21
8.65234
  0
LINE
  8
0
 10
83.6318
 20
8.65234
 11
83.665
 21
8.66309
  0
LINE
  8
0
 10
83.665
 20
8.66309
 11
83.6982
 21
8.67285
  0
LINE
  8
0
 10
83.6982
 20
8.67285
 11
83.7666
 21
8.69043
  0
LINE
  8
0
 10
83.7666
 20
8.69043
 11
83.7998
 21
8.69922
  0
LINE
  8
0
 10
83.7998
 20
8.69922
 11
83.9023
 21
8.71973
  0
LINE
  8
0
 10
83.9023
 20
8.71973
 11
83.9375
 21
8.72559
  0
LINE
  8
0
 10
83.9375
 20
8.72559
 11
84.0059
 21
8.73535
  0
LINE
  8
0
 10
84.0059
 20
8.73535
 11
84.041
 21
8.73926
  0
LINE
  8
0
 10
84.041
 20
8.73926
 11
84.0762
 21
8.74219
  0
LINE
  8
0
 10
84.0762
 20
8.74219
 11
84.1104
 21
8.74512
  0
LINE
  8
0
 10
84.1104
 20
8.74512
 11
84.1807
 21
8.74902
  0
LINE
  8
0
 10
84.1807
 20
8.74902
 11
84.2148
 21
8.75
  0
LINE
  8
0
 10
84.2148
 20
8.75
 11
87.4854
 21
8.75
  0
LINE
  8
0
 10
87.4854
 20
8.75
 11
87.5195
 21
8.74902
  0
LINE
  8
0
 10
87.5195
 20
8.74902
 11
87.5898
 21
8.74512
  0
LINE
  8
0
 10
87.5898
 20
8.74512
 11
87.624
 21
8.74219
  0
LINE
  8
0
 10
87.624
 20
8.74219
 11
87.6592
 21
8.73926
  0
LINE
  8
0
 10
87.6592
 20
8.73926
 11
87.6934
 21
8.73535
  0
LINE
  8
0
 10
87.6934
 20
8.73535
 11
87.7285
 21
8.73047
  0
LINE
  8
0
 10
87.7285
 20
8.73047
 11
87.7627
 21
8.72559
  0
LINE
  8
0
 10
87.7627
 20
8.72559
 11
87.7969
 21
8.71973
  0
LINE
  8
0
 10
87.7969
 20
8.71973
 11
87.832
 21
8.71289
  0
LINE
  8
0
 10
87.832
 20
8.71289
 11
87.8662
 21
8.70605
  0
LINE
  8
0
 10
87.8662
 20
8.70605
 11
87.8994
 21
8.69922
  0
LINE
  8
0
 10
87.8994
 20
8.69922
 11
87.9678
 21
8.68164
  0
LINE
  8
0
 10
87.9678
 20
8.68164
 11
88.001
 21
8.67285
  0
LINE
  8
0
 10
88.001
 20
8.67285
 11
88.0352
 21
8.66309
  0
LINE
  8
0
 10
88.0352
 20
8.66309
 11
88.0684
 21
8.65234
  0
LINE
  8
0
 10
88.0684
 20
8.65234
 11
88.1016
 21
8.64062
  0
LINE
  8
0
 10
88.1016
 20
8.64062
 11
88.1338
 21
8.62891
  0
LINE
  8
0
 10
88.1338
 20
8.62891
 11
88.167
 21
8.61719
  0
LINE
  8
0
 10
88.167
 20
8.61719
 11
88.1992
 21
8.60449
  0
LINE
  8
0
 10
88.1992
 20
8.60449
 11
88.2637
 21
8.57715
  0
LINE
  8
0
 10
88.2637
 20
8.57715
 11
88.2949
 21
8.5625
  0
LINE
  8
0
 10
88.2949
 20
8.5625
 11
88.3271
 21
8.54785
  0
LINE
  8
0
 10
88.3271
 20
8.54785
 11
88.3584
 21
8.53223
  0
LINE
  8
0
 10
88.3584
 20
8.53223
 11
88.3887
 21
8.51562
  0
LINE
  8
0
 10
88.3887
 20
8.51562
 11
88.4199
 21
8.49902
  0
LINE
  8
0
 10
88.4199
 20
8.49902
 11
88.4502
 21
8.48242
  0
LINE
  8
0
 10
88.4502
 20
8.48242
 11
88.4805
 21
8.46387
  0
LINE
  8
0
 10
88.4805
 20
8.46387
 11
88.5098
 21
8.44629
  0
LINE
  8
0
 10
88.5098
 20
8.44629
 11
88.5391
 21
8.42773
  0
LINE
  8
0
 10
88.5391
 20
8.42773
 11
88.5684
 21
8.4082
  0
LINE
  8
0
 10
88.5684
 20
8.4082
 11
88.5967
 21
8.38867
  0
LINE
  8
0
 10
88.5967
 20
8.38867
 11
88.626
 21
8.36816
  0
LINE
  8
0
 10
88.626
 20
8.36816
 11
88.6533
 21
8.34766
  0
LINE
  8
0
 10
88.6533
 20
8.34766
 11
88.6816
 21
8.32617
  0
LINE
  8
0
 10
88.6816
 20
8.32617
 11
88.709
 21
8.30469
  0
LINE
  8
0
 10
88.709
 20
8.30469
 11
88.7617
 21
8.25977
  0
LINE
  8
0
 10
88.7617
 20
8.25977
 11
88.8145
 21
8.21289
  0
LINE
  8
0
 10
88.8145
 20
8.21289
 11
88.8389
 21
8.18848
  0
LINE
  8
0
 10
88.8389
 20
8.18848
 11
88.8643
 21
8.16406
  0
LINE
  8
0
 10
88.8643
 20
8.16406
 11
88.8887
 21
8.13965
  0
LINE
  8
0
 10
88.8887
 20
8.13965
 11
88.9131
 21
8.11426
  0
LINE
  8
0
 10
88.9131
 20
8.11426
 11
88.9365
 21
8.08789
  0
LINE
  8
0
 10
88.9365
 20
8.08789
 11
88.959
 21
8.0625
  0
LINE
  8
0
 10
88.959
 20
8.0625
 11
88.9824
 21
8.03516
  0
LINE
  8
0
 10
88.9824
 20
8.03516
 11
89.0039
 21
8.00879
  0
LINE
  8
0
 10
89.0039
 20
8.00879
 11
89.0264
 21
7.98145
  0
LINE
  8
0
 10
89.0264
 20
7.98145
 11
89.0469
 21
7.9541
  0
LINE
  8
0
 10
89.0469
 20
7.9541
 11
89.0684
 21
7.92578
  0
LINE
  8
0
 10
89.0684
 20
7.92578
 11
89.0879
 21
7.89746
  0
LINE
  8
0
 10
89.0879
 20
7.89746
 11
89.1084
 21
7.86816
  0
LINE
  8
0
 10
89.1084
 20
7.86816
 11
89.127
 21
7.83887
  0
LINE
  8
0
 10
89.127
 20
7.83887
 11
89.1465
 21
7.80957
  0
LINE
  8
0
 10
89.1465
 20
7.80957
 11
89.1641
 21
7.78027
  0
LINE
  8
0
 10
89.1641
 20
7.78027
 11
89.1992
 21
7.71973
  0
LINE
  8
0
 10
89.1992
 20
7.71973
 11
89.2158
 21
7.68848
  0
LINE
  8
0
 10
89.2158
 20
7.68848
 11
89.2324
 21
7.6582
  0
LINE
  8
0
 10
89.2324
 20
7.6582
 11
89.248
 21
7.62695
  0
LINE
  8
0
 10
89.248
 20
7.62695
 11
89.2627
 21
7.5957
  0
LINE
  8
0
 10
89.2627
 20
7.5957
 11
89.2773
 21
7.56348
  0
LINE
  8
0
 10
89.2773
 20
7.56348
 11
89.3047
 21
7.49902
  0
LINE
  8
0
 10
89.3047
 20
7.49902
 11
89.3174
 21
7.4668
  0
LINE
  8
0
 10
89.3174
 20
7.4668
 11
89.3291
 21
7.43359
  0
LINE
  8
0
 10
89.3291
 20
7.43359
 11
89.3408
 21
7.40137
  0
LINE
  8
0
 10
89.3408
 20
7.40137
 11
89.3525
 21
7.36816
  0
LINE
  8
0
 10
89.3525
 20
7.36816
 11
89.3721
 21
7.30176
  0
LINE
  8
0
 10
89.3721
 20
7.30176
 11
89.3818
 21
7.26758
  0
LINE
  8
0
 10
89.3818
 20
7.26758
 11
89.3906
 21
7.2334
  0
LINE
  8
0
 10
89.3906
 20
7.2334
 11
89.3984
 21
7.2002
  0
LINE
  8
0
 10
89.3984
 20
7.2002
 11
89.4062
 21
7.16602
  0
LINE
  8
0
 10
89.4062
 20
7.16602
 11
89.4199
 21
7.09766
  0
LINE
  8
0
 10
89.4199
 20
7.09766
 11
89.4258
 21
7.0625
  0
LINE
  8
0
 10
89.4258
 20
7.0625
 11
89.4355
 21
6.99414
  0
LINE
  8
0
 10
89.4355
 20
6.99414
 11
89.4395
 21
6.95898
  0
LINE
  8
0
 10
89.4395
 20
6.95898
 11
89.4424
 21
6.92383
  0
LINE
  8
0
 10
89.4424
 20
6.92383
 11
89.4453
 21
6.88965
  0
LINE
  8
0
 10
89.4453
 20
6.88965
 11
89.4492
 21
6.81934
  0
LINE
  8
0
 10
89.4492
 20
6.81934
 11
89.4492
 21
6.78516
  0
LINE
  8
0
 10
89.4492
 20
6.78516
 11
89.4502
 21
6.75
  0
LINE
  8
0
 10
89.4502
 20
6.75
 11
89.4492
 21
6.71484
  0
LINE
  8
0
 10
89.4492
 20
6.71484
 11
89.4492
 21
6.68066
  0
LINE
  8
0
 10
89.4492
 20
6.68066
 11
89.4453
 21
6.61035
  0
LINE
  8
0
 10
89.4453
 20
6.61035
 11
89.4424
 21
6.57617
  0
LINE
  8
0
 10
89.4424
 20
6.57617
 11
89.4395
 21
6.54102
  0
LINE
  8
0
 10
89.4395
 20
6.54102
 11
89.4355
 21
6.50586
  0
LINE
  8
0
 10
89.4355
 20
6.50586
 11
89.4258
 21
6.4375
  0
LINE
  8
0
 10
89.4258
 20
6.4375
 11
89.4199
 21
6.40234
  0
LINE
  8
0
 10
89.4199
 20
6.40234
 11
89.4062
 21
6.33398
  0
LINE
  8
0
 10
89.4062
 20
6.33398
 11
89.3984
 21
6.2998
  0
LINE
  8
0
 10
89.3984
 20
6.2998
 11
89.3906
 21
6.2666
  0
LINE
  8
0
 10
89.3906
 20
6.2666
 11
89.3818
 21
6.23242
  0
LINE
  8
0
 10
89.3818
 20
6.23242
 11
89.3721
 21
6.19824
  0
LINE
  8
0
 10
89.3721
 20
6.19824
 11
89.3525
 21
6.13184
  0
LINE
  8
0
 10
89.3525
 20
6.13184
 11
89.3408
 21
6.09863
  0
LINE
  8
0
 10
89.3408
 20
6.09863
 11
89.3291
 21
6.06641
  0
LINE
  8
0
 10
89.3291
 20
6.06641
 11
89.3174
 21
6.0332
  0
LINE
  8
0
 10
89.3174
 20
6.0332
 11
89.3047
 21
6.00098
  0
LINE
  8
0
 10
89.3047
 20
6.00098
 11
89.2773
 21
5.93652
  0
LINE
  8
0
 10
89.2773
 20
5.93652
 11
89.2627
 21
5.9043
  0
LINE
  8
0
 10
89.2627
 20
5.9043
 11
89.248
 21
5.87305
  0
LINE
  8
0
 10
89.248
 20
5.87305
 11
89.2324
 21
5.8418
  0
LINE
  8
0
 10
89.2324
 20
5.8418
 11
89.2158
 21
5.81152
  0
LINE
  8
0
 10
89.2158
 20
5.81152
 11
89.1992
 21
5.78027
  0
LINE
  8
0
 10
89.1992
 20
5.78027
 11
89.1641
 21
5.71973
  0
LINE
  8
0
 10
89.1641
 20
5.71973
 11
89.1465
 21
5.69043
  0
LINE
  8
0
 10
89.1465
 20
5.69043
 11
89.127
 21
5.66113
  0
LINE
  8
0
 10
89.127
 20
5.66113
 11
89.1084
 21
5.63184
  0
LINE
  8
0
 10
89.1084
 20
5.63184
 11
89.0879
 21
5.60254
  0
LINE
  8
0
 10
89.0879
 20
5.60254
 11
89.0684
 21
5.57422
  0
LINE
  8
0
 10
89.0684
 20
5.57422
 11
89.0469
 21
5.5459
  0
LINE
  8
0
 10
89.0469
 20
5.5459
 11
89.0264
 21
5.51855
  0
LINE
  8
0
 10
89.0264
 20
5.51855
 11
89.0039
 21
5.49121
  0
LINE
  8
0
 10
89.0039
 20
5.49121
 11
88.9824
 21
5.46484
  0
LINE
  8
0
 10
88.9824
 20
5.46484
 11
88.959
 21
5.4375
  0
LINE
  8
0
 10
88.959
 20
5.4375
 11
88.9365
 21
5.41211
  0
LINE
  8
0
 10
88.9365
 20
5.41211
 11
88.9131
 21
5.38574
  0
LINE
  8
0
 10
88.9131
 20
5.38574
 11
88.8887
 21
5.36035
  0
LINE
  8
0
 10
88.8887
 20
5.36035
 11
88.8643
 21
5.33594
  0
LINE
  8
0
 10
88.8643
 20
5.33594
 11
88.8389
 21
5.31152
  0
LINE
  8
0
 10
88.8389
 20
5.31152
 11
88.8145
 21
5.28711
  0
LINE
  8
0
 10
88.8145
 20
5.28711
 11
88.7617
 21
5.24023
  0
LINE
  8
0
 10
88.7617
 20
5.24023
 11
88.709
 21
5.19531
  0
LINE
  8
0
 10
88.709
 20
5.19531
 11
88.6816
 21
5.17383
  0
LINE
  8
0
 10
88.6816
 20
5.17383
 11
88.6533
 21
5.15234
  0
LINE
  8
0
 10
88.6533
 20
5.15234
 11
88.626
 21
5.13184
  0
LINE
  8
0
 10
88.626
 20
5.13184
 11
88.5967
 21
5.11133
  0
LINE
  8
0
 10
88.5967
 20
5.11133
 11
88.5684
 21
5.0918
  0
LINE
  8
0
 10
88.5684
 20
5.0918
 11
88.5391
 21
5.07227
  0
LINE
  8
0
 10
88.5391
 20
5.07227
 11
88.5098
 21
5.05371
  0
LINE
  8
0
 10
88.5098
 20
5.05371
 11
88.4805
 21
5.03613
  0
LINE
  8
0
 10
88.4805
 20
5.03613
 11
88.4502
 21
5.01758
  0
LINE
  8
0
 10
88.4502
 20
5.01758
 11
88.4199
 21
5.00098
  0
LINE
  8
0
 10
88.4199
 20
5.00098
 11
88.3887
 21
4.98438
  0
LINE
  8
0
 10
88.3887
 20
4.98438
 11
88.3584
 21
4.96777
  0
LINE
  8
0
 10
88.3584
 20
4.96777
 11
88.3271
 21
4.95215
  0
LINE
  8
0
 10
88.3271
 20
4.95215
 11
88.2949
 21
4.9375
  0
LINE
  8
0
 10
88.2949
 20
4.9375
 11
88.2637
 21
4.92285
  0
LINE
  8
0
 10
88.2637
 20
4.92285
 11
88.1992
 21
4.89551
  0
LINE
  8
0
 10
88.1992
 20
4.89551
 11
88.167
 21
4.88281
  0
LINE
  8
0
 10
88.167
 20
4.88281
 11
88.1338
 21
4.87109
  0
LINE
  8
0
 10
88.1338
 20
4.87109
 11
88.1016
 21
4.85938
  0
LINE
  8
0
 10
88.1016
 20
4.85938
 11
88.0684
 21
4.84766
  0
LINE
  8
0
 10
88.0684
 20
4.84766
 11
88.0352
 21
4.83691
  0
LINE
  8
0
 10
88.0352
 20
4.83691
 11
88.001
 21
4.82715
  0
LINE
  8
0
 10
88.001
 20
4.82715
 11
87.9678
 21
4.81836
  0
LINE
  8
0
 10
87.9678
 20
4.81836
 11
87.8994
 21
4.80078
  0
LINE
  8
0
 10
87.8994
 20
4.80078
 11
87.8662
 21
4.79395
  0
LINE
  8
0
 10
87.8662
 20
4.79395
 11
87.832
 21
4.78711
  0
LINE
  8
0
 10
87.832
 20
4.78711
 11
87.7969
 21
4.78027
  0
LINE
  8
0
 10
87.7969
 20
4.78027
 11
87.7627
 21
4.77441
  0
LINE
  8
0
 10
87.7627
 20
4.77441
 11
87.7285
 21
4.76953
  0
LINE
  8
0
 10
87.7285
 20
4.76953
 11
87.6934
 21
4.76465
  0
LINE
  8
0
 10
87.6934
 20
4.76465
 11
87.6592
 21
4.76074
  0
LINE
  8
0
 10
87.6592
 20
4.76074
 11
87.624
 21
4.75781
  0
LINE
  8
0
 10
87.624
 20
4.75781
 11
87.5898
 21
4.75488
  0
LINE
  8
0
 10
87.5898
 20
4.75488
 11
87.5195
 21
4.75098
  0
LINE
  8
0
 10
87.5195
 20
4.75098
 11
87.4854
 21
4.75
  0
LINE
  8
0
 10
87.4854
 20
4.75
 11
84.2148
 21
4.75
  0
LINE
  8
0
 10
125.715
 20
4.75
 11
125.681
 21
4.75098
  0
LINE
  8
0
 10
125.681
 20
4.75098
 11
125.61
 21
4.75488
  0
LINE
  8
0
 10
125.61
 20
4.75488
 11
125.576
 21
4.75781
  0
LINE
  8
0
 10
125.576
 20
4.75781
 11
125.541
 21
4.76074
  0
LINE
  8
0
 10
125.541
 20
4.76074
 11
125.506
 21
4.76465
  0
LINE
  8
0
 10
125.506
 20
4.76465
 11
125.438
 21
4.77441
  0
LINE
  8
0
 10
125.438
 20
4.77441
 11
125.402
 21
4.78027
  0
LINE
  8
0
 10
125.402
 20
4.78027
 11
125.3
 21
4.80078
  0
LINE
  8
0
 10
125.3
 20
4.80078
 11
125.267
 21
4.80957
  0
LINE
  8
0
 10
125.267
 20
4.80957
 11
125.198
 21
4.82715
  0
LINE
  8
0
 10
125.198
 20
4.82715
 11
125.165
 21
4.83691
  0
LINE
  8
0
 10
125.165
 20
4.83691
 11
125.132
 21
4.84766
  0
LINE
  8
0
 10
125.132
 20
4.84766
 11
125.099
 21
4.85938
  0
LINE
  8
0
 10
125.099
 20
4.85938
 11
125.066
 21
4.87109
  0
LINE
  8
0
 10
125.066
 20
4.87109
 11
125.033
 21
4.88281
  0
LINE
  8
0
 10
125.033
 20
4.88281
 11
125.001
 21
4.89551
  0
LINE
  8
0
 10
125.001
 20
4.89551
 11
124.937
 21
4.92285
  0
LINE
  8
0
 10
124.937
 20
4.92285
 11
124.904
 21
4.9375
  0
LINE
  8
0
 10
124.904
 20
4.9375
 11
124.873
 21
4.95215
  0
LINE
  8
0
 10
124.873
 20
4.95215
 11
124.842
 21
4.96777
  0
LINE
  8
0
 10
124.842
 20
4.96777
 11
124.812
 21
4.98438
  0
LINE
  8
0
 10
124.812
 20
4.98438
 11
124.78
 21
5.00098
  0
LINE
  8
0
 10
124.78
 20
5.00098
 11
124.75
 21
5.01758
  0
LINE
  8
0
 10
124.75
 20
5.01758
 11
124.72
 21
5.03613
  0
LINE
  8
0
 10
124.72
 20
5.03613
 11
124.69
 21
5.05371
  0
LINE
  8
0
 10
124.69
 20
5.05371
 11
124.661
 21
5.07227
  0
LINE
  8
0
 10
124.661
 20
5.07227
 11
124.603
 21
5.11133
  0
LINE
  8
0
 10
124.603
 20
5.11133
 11
124.546
 21
5.15234
  0
LINE
  8
0
 10
124.546
 20
5.15234
 11
124.491
 21
5.19531
  0
LINE
  8
0
 10
124.491
 20
5.19531
 11
124.465
 21
5.21777
  0
LINE
  8
0
 10
124.465
 20
5.21777
 11
124.438
 21
5.24023
  0
LINE
  8
0
 10
124.438
 20
5.24023
 11
124.412
 21
5.26367
  0
LINE
  8
0
 10
124.412
 20
5.26367
 11
124.386
 21
5.28711
  0
LINE
  8
0
 10
124.386
 20
5.28711
 11
124.36
 21
5.31152
  0
LINE
  8
0
 10
124.36
 20
5.31152
 11
124.312
 21
5.36035
  0
LINE
  8
0
 10
124.312
 20
5.36035
 11
124.287
 21
5.38574
  0
LINE
  8
0
 10
124.287
 20
5.38574
 11
124.264
 21
5.41211
  0
LINE
  8
0
 10
124.264
 20
5.41211
 11
124.24
 21
5.4375
  0
LINE
  8
0
 10
124.24
 20
5.4375
 11
124.218
 21
5.46484
  0
LINE
  8
0
 10
124.218
 20
5.46484
 11
124.195
 21
5.49121
  0
LINE
  8
0
 10
124.195
 20
5.49121
 11
124.152
 21
5.5459
  0
LINE
  8
0
 10
124.152
 20
5.5459
 11
124.111
 21
5.60254
  0
LINE
  8
0
 10
124.111
 20
5.60254
 11
124.072
 21
5.66113
  0
LINE
  8
0
 10
124.072
 20
5.66113
 11
124.054
 21
5.69043
  0
LINE
  8
0
 10
124.054
 20
5.69043
 11
124.036
 21
5.71973
  0
LINE
  8
0
 10
124.036
 20
5.71973
 11
124.018
 21
5.75
  0
LINE
  8
0
 10
124.018
 20
5.75
 11
124.001
 21
5.78027
  0
LINE
  8
0
 10
124.001
 20
5.78027
 11
123.984
 21
5.81152
  0
LINE
  8
0
 10
123.984
 20
5.81152
 11
123.968
 21
5.8418
  0
LINE
  8
0
 10
123.968
 20
5.8418
 11
123.952
 21
5.87305
  0
LINE
  8
0
 10
123.952
 20
5.87305
 11
123.938
 21
5.9043
  0
LINE
  8
0
 10
123.938
 20
5.9043
 11
123.923
 21
5.93652
  0
LINE
  8
0
 10
123.923
 20
5.93652
 11
123.896
 21
6.00098
  0
LINE
  8
0
 10
123.896
 20
6.00098
 11
123.883
 21
6.0332
  0
LINE
  8
0
 10
123.883
 20
6.0332
 11
123.871
 21
6.06641
  0
LINE
  8
0
 10
123.871
 20
6.06641
 11
123.859
 21
6.09863
  0
LINE
  8
0
 10
123.859
 20
6.09863
 11
123.848
 21
6.13184
  0
LINE
  8
0
 10
123.848
 20
6.13184
 11
123.837
 21
6.16504
  0
LINE
  8
0
 10
123.837
 20
6.16504
 11
123.827
 21
6.19824
  0
LINE
  8
0
 10
123.827
 20
6.19824
 11
123.81
 21
6.2666
  0
LINE
  8
0
 10
123.81
 20
6.2666
 11
123.801
 21
6.2998
  0
LINE
  8
0
 10
123.801
 20
6.2998
 11
123.78
 21
6.40234
  0
LINE
  8
0
 10
123.78
 20
6.40234
 11
123.774
 21
6.4375
  0
LINE
  8
0
 10
123.774
 20
6.4375
 11
123.765
 21
6.50586
  0
LINE
  8
0
 10
123.765
 20
6.50586
 11
123.761
 21
6.54102
  0
LINE
  8
0
 10
123.761
 20
6.54102
 11
123.758
 21
6.57617
  0
LINE
  8
0
 10
123.758
 20
6.57617
 11
123.755
 21
6.61035
  0
LINE
  8
0
 10
123.755
 20
6.61035
 11
123.751
 21
6.68066
  0
LINE
  8
0
 10
123.751
 20
6.68066
 11
123.75
 21
6.71484
  0
LINE
  8
0
 10
123.75
 20
6.71484
 11
123.75
 21
6.78516
  0
LINE
  8
0
 10
123.75
 20
6.78516
 11
123.751
 21
6.81934
  0
LINE
  8
0
 10
123.751
 20
6.81934
 11
123.755
 21
6.88965
  0
LINE
  8
0
 10
123.755
 20
6.88965
 11
123.758
 21
6.92383
  0
LINE
  8
0
 10
123.758
 20
6.92383
 11
123.761
 21
6.95898
  0
LINE
  8
0
 10
123.761
 20
6.95898
 11
123.765
 21
6.99414
  0
LINE
  8
0
 10
123.765
 20
6.99414
 11
123.774
 21
7.0625
  0
LINE
  8
0
 10
123.774
 20
7.0625
 11
123.78
 21
7.09766
  0
LINE
  8
0
 10
123.78
 20
7.09766
 11
123.801
 21
7.2002
  0
LINE
  8
0
 10
123.801
 20
7.2002
 11
123.81
 21
7.2334
  0
LINE
  8
0
 10
123.81
 20
7.2334
 11
123.827
 21
7.30176
  0
LINE
  8
0
 10
123.827
 20
7.30176
 11
123.837
 21
7.33496
  0
LINE
  8
0
 10
123.837
 20
7.33496
 11
123.848
 21
7.36816
  0
LINE
  8
0
 10
123.848
 20
7.36816
 11
123.859
 21
7.40137
  0
LINE
  8
0
 10
123.859
 20
7.40137
 11
123.871
 21
7.43359
  0
LINE
  8
0
 10
123.871
 20
7.43359
 11
123.883
 21
7.4668
  0
LINE
  8
0
 10
123.883
 20
7.4668
 11
123.896
 21
7.49902
  0
LINE
  8
0
 10
123.896
 20
7.49902
 11
123.923
 21
7.56348
  0
LINE
  8
0
 10
123.923
 20
7.56348
 11
123.938
 21
7.5957
  0
LINE
  8
0
 10
123.938
 20
7.5957
 11
123.952
 21
7.62695
  0
LINE
  8
0
 10
123.952
 20
7.62695
 11
123.968
 21
7.6582
  0
LINE
  8
0
 10
123.968
 20
7.6582
 11
123.984
 21
7.68848
  0
LINE
  8
0
 10
123.984
 20
7.68848
 11
124.001
 21
7.71973
  0
LINE
  8
0
 10
124.001
 20
7.71973
 11
124.018
 21
7.75
  0
LINE
  8
0
 10
124.018
 20
7.75
 11
124.036
 21
7.78027
  0
LINE
  8
0
 10
124.036
 20
7.78027
 11
124.054
 21
7.80957
  0
LINE
  8
0
 10
124.054
 20
7.80957
 11
124.072
 21
7.83887
  0
LINE
  8
0
 10
124.072
 20
7.83887
 11
124.111
 21
7.89746
  0
LINE
  8
0
 10
124.111
 20
7.89746
 11
124.152
 21
7.9541
  0
LINE
  8
0
 10
124.152
 20
7.9541
 11
124.195
 21
8.00879
  0
LINE
  8
0
 10
124.195
 20
8.00879
 11
124.218
 21
8.03516
  0
LINE
  8
0
 10
124.218
 20
8.03516
 11
124.24
 21
8.0625
  0
LINE
  8
0
 10
124.24
 20
8.0625
 11
124.264
 21
8.08789
  0
LINE
  8
0
 10
124.264
 20
8.08789
 11
124.287
 21
8.11426
  0
LINE
  8
0
 10
124.287
 20
8.11426
 11
124.312
 21
8.13965
  0
LINE
  8
0
 10
124.312
 20
8.13965
 11
124.36
 21
8.18848
  0
LINE
  8
0
 10
124.36
 20
8.18848
 11
124.386
 21
8.21289
  0
LINE
  8
0
 10
124.386
 20
8.21289
 11
124.412
 21
8.23633
  0
LINE
  8
0
 10
124.412
 20
8.23633
 11
124.438
 21
8.25977
  0
LINE
  8
0
 10
124.438
 20
8.25977
 11
124.465
 21
8.28223
  0
LINE
  8
0
 10
124.465
 20
8.28223
 11
124.491
 21
8.30469
  0
LINE
  8
0
 10
124.491
 20
8.30469
 11
124.546
 21
8.34766
  0
LINE
  8
0
 10
124.546
 20
8.34766
 11
124.603
 21
8.38867
  0
LINE
  8
0
 10
124.603
 20
8.38867
 11
124.661
 21
8.42773
  0
LINE
  8
0
 10
124.661
 20
8.42773
 11
124.69
 21
8.44629
  0
LINE
  8
0
 10
124.69
 20
8.44629
 11
124.72
 21
8.46387
  0
LINE
  8
0
 10
124.72
 20
8.46387
 11
124.75
 21
8.48242
  0
LINE
  8
0
 10
124.75
 20
8.48242
 11
124.78
 21
8.49902
  0
LINE
  8
0
 10
124.78
 20
8.49902
 11
124.812
 21
8.51562
  0
LINE
  8
0
 10
124.812
 20
8.51562
 11
124.842
 21
8.53223
  0
LINE
  8
0
 10
124.842
 20
8.53223
 11
124.873
 21
8.54785
  0
LINE
  8
0
 10
124.873
 20
8.54785
 11
124.904
 21
8.5625
  0
LINE
  8
0
 10
124.904
 20
8.5625
 11
124.937
 21
8.57715
  0
LINE
  8
0
 10
124.937
 20
8.57715
 11
125.001
 21
8.60449
  0
LINE
  8
0
 10
125.001
 20
8.60449
 11
125.033
 21
8.61719
  0
LINE
  8
0
 10
125.033
 20
8.61719
 11
125.066
 21
8.62891
  0
LINE
  8
0
 10
125.066
 20
8.62891
 11
125.099
 21
8.64062
  0
LINE
  8
0
 10
125.099
 20
8.64062
 11
125.132
 21
8.65234
  0
LINE
  8
0
 10
125.132
 20
8.65234
 11
125.165
 21
8.66309
  0
LINE
  8
0
 10
125.165
 20
8.66309
 11
125.198
 21
8.67285
  0
LINE
  8
0
 10
125.198
 20
8.67285
 11
125.267
 21
8.69043
  0
LINE
  8
0
 10
125.267
 20
8.69043
 11
125.3
 21
8.69922
  0
LINE
  8
0
 10
125.3
 20
8.69922
 11
125.402
 21
8.71973
  0
LINE
  8
0
 10
125.402
 20
8.71973
 11
125.438
 21
8.72559
  0
LINE
  8
0
 10
125.438
 20
8.72559
 11
125.506
 21
8.73535
  0
LINE
  8
0
 10
125.506
 20
8.73535
 11
125.541
 21
8.73926
  0
LINE
  8
0
 10
125.541
 20
8.73926
 11
125.576
 21
8.74219
  0
LINE
  8
0
 10
125.576
 20
8.74219
 11
125.61
 21
8.74512
  0
LINE
  8
0
 10
125.61
 20
8.74512
 11
125.681
 21
8.74902
  0
LINE
  8
0
 10
125.681
 20
8.74902
 11
125.715
 21
8.75
  0
LINE
  8
0
 10
125.715
 20
8.75
 11
128.985
 21
8.75
  0
LINE
  8
0
 10
128.985
 20
8.75
 11
129.02
 21
8.74902
  0
LINE
  8
0
 10
129.02
 20
8.74902
 11
129.09
 21
8.74512
  0
LINE
  8
0
 10
129.09
 20
8.74512
 11
129.124
 21
8.74219
  0
LINE
  8
0
 10
129.124
 20
8.74219
 11
129.159
 21
8.73926
  0
LINE
  8
0
 10
129.159
 20
8.73926
 11
129.193
 21
8.73535
  0
LINE
  8
0
 10
129.193
 20
8.73535
 11
129.229
 21
8.73047
  0
LINE
  8
0
 10
129.229
 20
8.73047
 11
129.263
 21
8.72559
  0
LINE
  8
0
 10
129.263
 20
8.72559
 11
129.297
 21
8.71973
  0
LINE
  8
0
 10
129.297
 20
8.71973
 11
129.332
 21
8.71289
  0
LINE
  8
0
 10
129.332
 20
8.71289
 11
129.366
 21
8.70605
  0
LINE
  8
0
 10
129.366
 20
8.70605
 11
129.399
 21
8.69922
  0
LINE
  8
0
 10
129.399
 20
8.69922
 11
129.468
 21
8.68164
  0
LINE
  8
0
 10
129.468
 20
8.68164
 11
129.501
 21
8.67285
  0
LINE
  8
0
 10
129.501
 20
8.67285
 11
129.535
 21
8.66309
  0
LINE
  8
0
 10
129.535
 20
8.66309
 11
129.568
 21
8.65234
  0
LINE
  8
0
 10
129.568
 20
8.65234
 11
129.602
 21
8.64062
  0
LINE
  8
0
 10
129.602
 20
8.64062
 11
129.634
 21
8.62891
  0
LINE
  8
0
 10
129.634
 20
8.62891
 11
129.667
 21
8.61719
  0
LINE
  8
0
 10
129.667
 20
8.61719
 11
129.699
 21
8.60449
  0
LINE
  8
0
 10
129.699
 20
8.60449
 11
129.764
 21
8.57715
  0
LINE
  8
0
 10
129.764
 20
8.57715
 11
129.795
 21
8.5625
  0
LINE
  8
0
 10
129.795
 20
8.5625
 11
129.827
 21
8.54785
  0
LINE
  8
0
 10
129.827
 20
8.54785
 11
129.858
 21
8.53223
  0
LINE
  8
0
 10
129.858
 20
8.53223
 11
129.889
 21
8.51562
  0
LINE
  8
0
 10
129.889
 20
8.51562
 11
129.92
 21
8.49902
  0
LINE
  8
0
 10
129.92
 20
8.49902
 11
129.95
 21
8.48242
  0
LINE
  8
0
 10
129.95
 20
8.48242
 11
129.98
 21
8.46387
  0
LINE
  8
0
 10
129.98
 20
8.46387
 11
130.01
 21
8.44629
  0
LINE
  8
0
 10
130.01
 20
8.44629
 11
130.039
 21
8.42773
  0
LINE
  8
0
 10
130.039
 20
8.42773
 11
130.068
 21
8.4082
  0
LINE
  8
0
 10
130.068
 20
8.4082
 11
130.097
 21
8.38867
  0
LINE
  8
0
 10
130.097
 20
8.38867
 11
130.126
 21
8.36816
  0
LINE
  8
0
 10
130.126
 20
8.36816
 11
130.153
 21
8.34766
  0
LINE
  8
0
 10
130.153
 20
8.34766
 11
130.182
 21
8.32617
  0
LINE
  8
0
 10
130.182
 20
8.32617
 11
130.209
 21
8.30469
  0
LINE
  8
0
 10
130.209
 20
8.30469
 11
130.262
 21
8.25977
  0
LINE
  8
0
 10
130.262
 20
8.25977
 11
130.314
 21
8.21289
  0
LINE
  8
0
 10
130.314
 20
8.21289
 11
130.339
 21
8.18848
  0
LINE
  8
0
 10
130.339
 20
8.18848
 11
130.364
 21
8.16406
  0
LINE
  8
0
 10
130.364
 20
8.16406
 11
130.389
 21
8.13965
  0
LINE
  8
0
 10
130.389
 20
8.13965
 11
130.413
 21
8.11426
  0
LINE
  8
0
 10
130.413
 20
8.11426
 11
130.437
 21
8.08789
  0
LINE
  8
0
 10
130.437
 20
8.08789
 11
130.459
 21
8.0625
  0
LINE
  8
0
 10
130.459
 20
8.0625
 11
130.482
 21
8.03516
  0
LINE
  8
0
 10
130.482
 20
8.03516
 11
130.504
 21
8.00879
  0
LINE
  8
0
 10
130.504
 20
8.00879
 11
130.526
 21
7.98145
  0
LINE
  8
0
 10
130.526
 20
7.98145
 11
130.547
 21
7.9541
  0
LINE
  8
0
 10
130.547
 20
7.9541
 11
130.568
 21
7.92578
  0
LINE
  8
0
 10
130.568
 20
7.92578
 11
130.588
 21
7.89746
  0
LINE
  8
0
 10
130.588
 20
7.89746
 11
130.608
 21
7.86816
  0
LINE
  8
0
 10
130.608
 20
7.86816
 11
130.627
 21
7.83887
  0
LINE
  8
0
 10
130.627
 20
7.83887
 11
130.646
 21
7.80957
  0
LINE
  8
0
 10
130.646
 20
7.80957
 11
130.664
 21
7.78027
  0
LINE
  8
0
 10
130.664
 20
7.78027
 11
130.699
 21
7.71973
  0
LINE
  8
0
 10
130.699
 20
7.71973
 11
130.716
 21
7.68848
  0
LINE
  8
0
 10
130.716
 20
7.68848
 11
130.732
 21
7.6582
  0
LINE
  8
0
 10
130.732
 20
7.6582
 11
130.748
 21
7.62695
  0
LINE
  8
0
 10
130.748
 20
7.62695
 11
130.763
 21
7.5957
  0
LINE
  8
0
 10
130.763
 20
7.5957
 11
130.777
 21
7.56348
  0
LINE
  8
0
 10
130.777
 20
7.56348
 11
130.805
 21
7.49902
  0
LINE
  8
0
 10
130.805
 20
7.49902
 11
130.817
 21
7.4668
  0
LINE
  8
0
 10
130.817
 20
7.4668
 11
130.829
 21
7.43359
  0
LINE
  8
0
 10
130.829
 20
7.43359
 11
130.841
 21
7.40137
  0
LINE
  8
0
 10
130.841
 20
7.40137
 11
130.853
 21
7.36816
  0
LINE
  8
0
 10
130.853
 20
7.36816
 11
130.872
 21
7.30176
  0
LINE
  8
0
 10
130.872
 20
7.30176
 11
130.882
 21
7.26758
  0
LINE
  8
0
 10
130.882
 20
7.26758
 11
130.891
 21
7.2334
  0
LINE
  8
0
 10
130.891
 20
7.2334
 11
130.898
 21
7.2002
  0
LINE
  8
0
 10
130.898
 20
7.2002
 11
130.906
 21
7.16602
  0
LINE
  8
0
 10
130.906
 20
7.16602
 11
130.92
 21
7.09766
  0
LINE
  8
0
 10
130.92
 20
7.09766
 11
130.926
 21
7.0625
  0
LINE
  8
0
 10
130.926
 20
7.0625
 11
130.936
 21
6.99414
  0
LINE
  8
0
 10
130.936
 20
6.99414
 11
130.939
 21
6.95898
  0
LINE
  8
0
 10
130.939
 20
6.95898
 11
130.942
 21
6.92383
  0
LINE
  8
0
 10
130.942
 20
6.92383
 11
130.945
 21
6.88965
  0
LINE
  8
0
 10
130.945
 20
6.88965
 11
130.949
 21
6.81934
  0
LINE
  8
0
 10
130.949
 20
6.81934
 11
130.949
 21
6.78516
  0
LINE
  8
0
 10
130.949
 20
6.78516
 11
130.95
 21
6.75
  0
LINE
  8
0
 10
130.95
 20
6.75
 11
130.949
 21
6.71484
  0
LINE
  8
0
 10
130.949
 20
6.71484
 11
130.949
 21
6.68066
  0
LINE
  8
0
 10
130.949
 20
6.68066
 11
130.945
 21
6.61035
  0
LINE
  8
0
 10
130.945
 20
6.61035
 11
130.942
 21
6.57617
  0
LINE
  8
0
 10
130.942
 20
6.57617
 11
130.939
 21
6.54102
  0
LINE
  8
0
 10
130.939
 20
6.54102
 11
130.936
 21
6.50586
  0
LINE
  8
0
 10
130.936
 20
6.50586
 11
130.926
 21
6.4375
  0
LINE
  8
0
 10
130.926
 20
6.4375
 11
130.92
 21
6.40234
  0
LINE
  8
0
 10
130.92
 20
6.40234
 11
130.906
 21
6.33398
  0
LINE
  8
0
 10
130.906
 20
6.33398
 11
130.898
 21
6.2998
  0
LINE
  8
0
 10
130.898
 20
6.2998
 11
130.891
 21
6.2666
  0
LINE
  8
0
 10
130.891
 20
6.2666
 11
130.882
 21
6.23242
  0
LINE
  8
0
 10
130.882
 20
6.23242
 11
130.872
 21
6.19824
  0
LINE
  8
0
 10
130.872
 20
6.19824
 11
130.853
 21
6.13184
  0
LINE
  8
0
 10
130.853
 20
6.13184
 11
130.841
 21
6.09863
  0
LINE
  8
0
 10
130.841
 20
6.09863
 11
130.829
 21
6.06641
  0
LINE
  8
0
 10
130.829
 20
6.06641
 11
130.817
 21
6.0332
  0
LINE
  8
0
 10
130.817
 20
6.0332
 11
130.805
 21
6.00098
  0
LINE
  8
0
 10
130.805
 20
6.00098
 11
130.777
 21
5.93652
  0
LINE
  8
0
 10
130.777
 20
5.93652
 11
130.763
 21
5.9043
  0
LINE
  8
0
 10
130.763
 20
5.9043
 11
130.748
 21
5.87305
  0
LINE
  8
0
 10
130.748
 20
5.87305
 11
130.732
 21
5.8418
  0
LINE
  8
0
 10
130.732
 20
5.8418
 11
130.716
 21
5.81152
  0
LINE
  8
0
 10
130.716
 20
5.81152
 11
130.699
 21
5.78027
  0
LINE
  8
0
 10
130.699
 20
5.78027
 11
130.664
 21
5.71973
  0
LINE
  8
0
 10
130.664
 20
5.71973
 11
130.646
 21
5.69043
  0
LINE
  8
0
 10
130.646
 20
5.69043
 11
130.627
 21
5.66113
  0
LINE
  8
0
 10
130.627
 20
5.66113
 11
130.608
 21
5.63184
  0
LINE
  8
0
 10
130.608
 20
5.63184
 11
130.588
 21
5.60254
  0
LINE
  8
0
 10
130.588
 20
5.60254
 11
130.568
 21
5.57422
  0
LINE
  8
0
 10
130.568
 20
5.57422
 11
130.547
 21
5.5459
  0
LINE
  8
0
 10
130.547
 20
5.5459
 11
130.526
 21
5.51855
  0
LINE
  8
0
 10
130.526
 20
5.51855
 11
130.504
 21
5.49121
  0
LINE
  8
0
 10
130.504
 20
5.49121
 11
130.482
 21
5.46484
  0
LINE
  8
0
 10
130.482
 20
5.46484
 11
130.459
 21
5.4375
  0
LINE
  8
0
 10
130.459
 20
5.4375
 11
130.437
 21
5.41211
  0
LINE
  8
0
 10
130.437
 20
5.41211
 11
130.413
 21
5.38574
  0
LINE
  8
0
 10
130.413
 20
5.38574
 11
130.389
 21
5.36035
  0
LINE
  8
0
 10
130.389
 20
5.36035
 11
130.364
 21
5.33594
  0
LINE
  8
0
 10
130.364
 20
5.33594
 11
130.339
 21
5.31152
  0
LINE
  8
0
 10
130.339
 20
5.31152
 11
130.314
 21
5.28711
  0
LINE
  8
0
 10
130.314
 20
5.28711
 11
130.262
 21
5.24023
  0
LINE
  8
0
 10
130.262
 20
5.24023
 11
130.209
 21
5.19531
  0
LINE
  8
0
 10
130.209
 20
5.19531
 11
130.182
 21
5.17383
  0
LINE
  8
0
 10
130.182
 20
5.17383
 11
130.153
 21
5.15234
  0
LINE
  8
0
 10
130.153
 20
5.15234
 11
130.126
 21
5.13184
  0
LINE
  8
0
 10
130.126
 20
5.13184
 11
130.097
 21
5.11133
  0
LINE
  8
0
 10
130.097
 20
5.11133
 11
130.068
 21
5.0918
  0
LINE
  8
0
 10
130.068
 20
5.0918
 11
130.039
 21
5.07227
  0
LINE
  8
0
 10
130.039
 20
5.07227
 11
130.01
 21
5.05371
  0
LINE
  8
0
 10
130.01
 20
5.05371
 11
129.98
 21
5.03613
  0
LINE
  8
0
 10
129.98
 20
5.03613
 11
129.95
 21
5.01758
  0
LINE
  8
0
 10
129.95
 20
5.01758
 11
129.92
 21
5.00098
  0
LINE
  8
0
 10
129.92
 20
5.00098
 11
129.889
 21
4.98438
  0
LINE
  8
0
 10
129.889
 20
4.98438
 11
129.858
 21
4.96777
  0
LINE
  8
0
 10
129.858
 20
4.96777
 11
129.827
 21
4.95215
  0
LINE
  8
0
 10
129.827
 20
4.95215
 11
129.795
 21
4.9375
  0
LINE
  8
0
 10
129.795
 20
4.9375
 11
129.764
 21
4.92285
  0
LINE
  8
0
 10
129.764
 20
4.92285
 11
129.699
 21
4.89551
  0
LINE
  8
0
 10
129.699
 20
4.89551
 11
129.667
 21
4.88281
  0
LINE
  8
0
 10
129.667
 20
4.88281
 11
129.634
 21
4.87109
  0
LINE
  8
0
 10
129.634
 20
4.87109
 11
129.602
 21
4.85938
  0
LINE
  8
0
 10
129.602
 20
4.85938
 11
129.568
 21
4.84766
  0
LINE
  8
0
 10
129.568
 20
4.84766
 11
129.535
 21
4.83691
  0
LINE
  8
0
 10
129.535
 20
4.83691
 11
129.501
 21
4.82715
  0
LINE
  8
0
 10
129.501
 20
4.82715
 11
129.468
 21
4.81836
  0
LINE
  8
0
 10
129.468
 20
4.81836
 11
129.399
 21
4.80078
  0
LINE
  8
0
 10
129.399
 20
4.80078
 11
129.366
 21
4.79395
  0
LINE
  8
0
 10
129.366
 20
4.79395
 11
129.332
 21
4.78711
  0
LINE
  8
0
 10
129.332
 20
4.78711
 11
129.297
 21
4.78027
  0
LINE
  8
0
 10
129.297
 20
4.78027
 11
129.263
 21
4.77441
  0
LINE
  8
0
 10
129.263
 20
4.77441
 11
129.229
 21
4.76953
  0
LINE
  8
0
 10
129.229
 20
4.76953
 11
129.193
 21
4.76465
  0
LINE
  8
0
 10
129.193
 20
4.76465
 11
129.159
 21
4.76074
  0
LINE
  8
0
 10
129.159
 20
4.76074
 11
129.124
 21
4.75781
  0
LINE
  8
0
 10
129.124
 20
4.75781
 11
129.09
 21
4.75488
  0
LINE
  8
0
 10
129.09
 20
4.75488
 11
129.02
 21
4.75098
  0
LINE
  8
0
 10
129.02
 20
4.75098
 11
128.985
 21
4.75
  0
LINE
  8
0
 10
128.985
 20
4.75
 11
125.715
 21
4.75
  0
LINE
  8
0
 10
24.2148
 20
4.75
 11
24.1807
 21
4.75098
  0
LINE
  8
0
 10
24.1807
 20
4.75098
 11
24.1104
 21
4.75488
  0
LINE
  8
0
 10
24.1104
 20
4.75488
 11
24.0762
 21
4.75781
  0
LINE
  8
0
 10
24.0762
 20
4.75781
 11
24.041
 21
4.76074
  0
LINE
  8
0
 10
24.041
 20
4.76074
 11
24.0059
 21
4.76465
  0
LINE
  8
0
 10
24.0059
 20
4.76465
 11
23.9375
 21
4.77441
  0
LINE
  8
0
 10
23.9375
 20
4.77441
 11
23.9023
 21
4.78027
  0
LINE
  8
0
 10
23.9023
 20
4.78027
 11
23.7998
 21
4.80078
  0
LINE
  8
0
 10
23.7998
 20
4.80078
 11
23.7666
 21
4.80957
  0
LINE
  8
0
 10
23.7666
 20
4.80957
 11
23.6982
 21
4.82715
  0
LINE
  8
0
 10
23.6982
 20
4.82715
 11
23.665
 21
4.83691
  0
LINE
  8
0
 10
23.665
 20
4.83691
 11
23.6318
 21
4.84766
  0
LINE
  8
0
 10
23.6318
 20
4.84766
 11
23.5986
 21
4.85938
  0
LINE
  8
0
 10
23.5986
 20
4.85938
 11
23.5664
 21
4.87109
  0
LINE
  8
0
 10
23.5664
 20
4.87109
 11
23.5332
 21
4.88281
  0
LINE
  8
0
 10
23.5332
 20
4.88281
 11
23.501
 21
4.89551
  0
LINE
  8
0
 10
23.501
 20
4.89551
 11
23.4365
 21
4.92285
  0
LINE
  8
0
 10
23.4365
 20
4.92285
 11
23.4043
 21
4.9375
  0
LINE
  8
0
 10
23.4043
 20
4.9375
 11
23.373
 21
4.95215
  0
LINE
  8
0
 10
23.373
 20
4.95215
 11
23.3418
 21
4.96777
  0
LINE
  8
0
 10
23.3418
 20
4.96777
 11
23.3115
 21
4.98438
  0
LINE
  8
0
 10
23.3115
 20
4.98438
 11
23.2803
 21
5.00098
  0
LINE
  8
0
 10
23.2803
 20
5.00098
 11
23.25
 21
5.01758
  0
LINE
  8
0
 10
23.25
 20
5.01758
 11
23.2197
 21
5.03613
  0
LINE
  8
0
 10
23.2197
 20
5.03613
 11
23.1904
 21
5.05371
  0
LINE
  8
0
 10
23.1904
 20
5.05371
 11
23.1611
 21
5.07227
  0
LINE
  8
0
 10
23.1611
 20
5.07227
 11
23.1025
 21
5.11133
  0
LINE
  8
0
 10
23.1025
 20
5.11133
 11
23.0459
 21
5.15234
  0
LINE
  8
0
 10
23.0459
 20
5.15234
 11
22.9912
 21
5.19531
  0
LINE
  8
0
 10
22.9912
 20
5.19531
 11
22.9648
 21
5.21777
  0
LINE
  8
0
 10
22.9648
 20
5.21777
 11
22.9375
 21
5.24023
  0
LINE
  8
0
 10
22.9375
 20
5.24023
 11
22.9121
 21
5.26367
  0
LINE
  8
0
 10
22.9121
 20
5.26367
 11
22.8857
 21
5.28711
  0
LINE
  8
0
 10
22.8857
 20
5.28711
 11
22.8604
 21
5.31152
  0
LINE
  8
0
 10
22.8604
 20
5.31152
 11
22.8115
 21
5.36035
  0
LINE
  8
0
 10
22.8115
 20
5.36035
 11
22.7871
 21
5.38574
  0
LINE
  8
0
 10
22.7871
 20
5.38574
 11
22.7637
 21
5.41211
  0
LINE
  8
0
 10
22.7637
 20
5.41211
 11
22.7402
 21
5.4375
  0
LINE
  8
0
 10
22.7402
 20
5.4375
 11
22.7178
 21
5.46484
  0
LINE
  8
0
 10
22.7178
 20
5.46484
 11
22.6953
 21
5.49121
  0
LINE
  8
0
 10
22.6953
 20
5.49121
 11
22.6523
 21
5.5459
  0
LINE
  8
0
 10
22.6523
 20
5.5459
 11
22.6113
 21
5.60254
  0
LINE
  8
0
 10
22.6113
 20
5.60254
 11
22.5723
 21
5.66113
  0
LINE
  8
0
 10
22.5723
 20
5.66113
 11
22.5537
 21
5.69043
  0
LINE
  8
0
 10
22.5537
 20
5.69043
 11
22.5361
 21
5.71973
  0
LINE
  8
0
 10
22.5361
 20
5.71973
 11
22.5176
 21
5.75
  0
LINE
  8
0
 10
22.5176
 20
5.75
 11
22.501
 21
5.78027
  0
LINE
  8
0
 10
22.501
 20
5.78027
 11
22.4844
 21
5.81152
  0
LINE
  8
0
 10
22.4844
 20
5.81152
 11
22.4678
 21
5.8418
  0
LINE
  8
0
 10
22.4678
 20
5.8418
 11
22.4521
 21
5.87305
  0
LINE
  8
0
 10
22.4521
 20
5.87305
 11
22.4375
 21
5.9043
  0
LINE
  8
0
 10
22.4375
 20
5.9043
 11
22.4229
 21
5.93652
  0
LINE
  8
0
 10
22.4229
 20
5.93652
 11
22.3955
 21
6.00098
  0
LINE
  8
0
 10
22.3955
 20
6.00098
 11
22.3828
 21
6.0332
  0
LINE
  8
0
 10
22.3828
 20
6.0332
 11
22.3711
 21
6.06641
  0
LINE
  8
0
 10
22.3711
 20
6.06641
 11
22.3594
 21
6.09863
  0
LINE
  8
0
 10
22.3594
 20
6.09863
 11
22.3477
 21
6.13184
  0
LINE
  8
0
 10
22.3477
 20
6.13184
 11
22.3369
 21
6.16504
  0
LINE
  8
0
 10
22.3369
 20
6.16504
 11
22.3271
 21
6.19824
  0
LINE
  8
0
 10
22.3271
 20
6.19824
 11
22.3096
 21
6.2666
  0
LINE
  8
0
 10
22.3096
 20
6.2666
 11
22.3008
 21
6.2998
  0
LINE
  8
0
 10
22.3008
 20
6.2998
 11
22.2803
 21
6.40234
  0
LINE
  8
0
 10
22.2803
 20
6.40234
 11
22.2744
 21
6.4375
  0
LINE
  8
0
 10
22.2744
 20
6.4375
 11
22.2646
 21
6.50586
  0
LINE
  8
0
 10
22.2646
 20
6.50586
 11
22.2607
 21
6.54102
  0
LINE
  8
0
 10
22.2607
 20
6.54102
 11
22.2578
 21
6.57617
  0
LINE
  8
0
 10
22.2578
 20
6.57617
 11
22.2549
 21
6.61035
  0
LINE
  8
0
 10
22.2549
 20
6.61035
 11
22.251
 21
6.68066
  0
LINE
  8
0
 10
22.251
 20
6.68066
 11
22.25
 21
6.71484
  0
LINE
  8
0
 10
22.25
 20
6.71484
 11
22.25
 21
6.78516
  0
LINE
  8
0
 10
22.25
 20
6.78516
 11
22.251
 21
6.81934
  0
LINE
  8
0
 10
22.251
 20
6.81934
 11
22.2549
 21
6.88965
  0
LINE
  8
0
 10
22.2549
 20
6.88965
 11
22.2578
 21
6.92383
  0
LINE
  8
0
 10
22.2578
 20
6.92383
 11
22.2607
 21
6.95898
  0
LINE
  8
0
 10
22.2607
 20
6.95898
 11
22.2646
 21
6.99414
  0
LINE
  8
0
 10
22.2646
 20
6.99414
 11
22.2744
 21
7.0625
  0
LINE
  8
0
 10
22.2744
 20
7.0625
 11
22.2803
 21
7.09766
  0
LINE
  8
0
 10
22.2803
 20
7.09766
 11
22.3008
 21
7.2002
  0
LINE
  8
0
 10
22.3008
 20
7.2002
 11
22.3096
 21
7.2334
  0
LINE
  8
0
 10
22.3096
 20
7.2334
 11
22.3271
 21
7.30176
  0
LINE
  8
0
 10
22.3271
 20
7.30176
 11
22.3369
 21
7.33496
  0
LINE
  8
0
 10
22.3369
 20
7.33496
 11
22.3477
 21
7.36816
  0
LINE
  8
0
 10
22.3477
 20
7.36816
 11
22.3594
 21
7.40137
  0
LINE
  8
0
 10
22.3594
 20
7.40137
 11
22.3711
 21
7.43359
  0
LINE
  8
0
 10
22.3711
 20
7.43359
 11
22.3828
 21
7.4668
  0
LINE
  8
0
 10
22.3828
 20
7.4668
 11
22.3955
 21
7.49902
  0
LINE
  8
0
 10
22.3955
 20
7.49902
 11
22.4229
 21
7.56348
  0
LINE
  8
0
 10
22.4229
 20
7.56348
 11
22.4375
 21
7.5957
  0
LINE
  8
0
 10
22.4375
 20
7.5957
 11
22.4521
 21
7.62695
  0
LINE
  8
0
 10
22.4521
 20
7.62695
 11
22.4678
 21
7.6582
  0
LINE
  8
0
 10
22.4678
 20
7.6582
 11
22.4844
 21
7.68848
  0
LINE
  8
0
 10
22.4844
 20
7.68848
 11
22.501
 21
7.71973
  0
LINE
  8
0
 10
22.501
 20
7.71973
 11
22.5176
 21
7.75
  0
LINE
  8
0
 10
22.5176
 20
7.75
 11
22.5361
 21
7.78027
  0
LINE
  8
0
 10
22.5361
 20
7.78027
 11
22.5537
 21
7.80957
  0
LINE
  8
0
 10
22.5537
 20
7.80957
 11
22.5723
 21
7.83887
  0
LINE
  8
0
 10
22.5723
 20
7.83887
 11
22.6113
 21
7.89746
  0
LINE
  8
0
 10
22.6113
 20
7.89746
 11
22.6523
 21
7.9541
  0
LINE
  8
0
 10
22.6523
 20
7.9541
 11
22.6953
 21
8.00879
  0
LINE
  8
0
 10
22.6953
 20
8.00879
 11
22.7178
 21
8.03516
  0
LINE
  8
0
 10
22.7178
 20
8.03516
 11
22.7402
 21
8.0625
  0
LINE
  8
0
 10
22.7402
 20
8.0625
 11
22.7637
 21
8.08789
  0
LINE
  8
0
 10
22.7637
 20
8.08789
 11
22.7871
 21
8.11426
  0
LINE
  8
0
 10
22.7871
 20
8.11426
 11
22.8115
 21
8.13965
  0
LINE
  8
0
 10
22.8115
 20
8.13965
 11
22.8604
 21
8.18848
  0
LINE
  8
0
 10
22.8604
 20
8.18848
 11
22.8857
 21
8.21289
  0
LINE
  8
0
 10
22.8857
 20
8.21289
 11
22.9121
 21
8.23633
  0
LINE
  8
0
 10
22.9121
 20
8.23633
 11
22.9375
 21
8.25977
  0
LINE
  8
0
 10
22.9375
 20
8.25977
 11
22.9648
 21
8.28223
  0
LINE
  8
0
 10
22.9648
 20
8.28223
 11
22.9912
 21
8.30469
  0
LINE
  8
0
 10
22.9912
 20
8.30469
 11
23.0459
 21
8.34766
  0
LINE
  8
0
 10
23.0459
 20
8.34766
 11
23.1025
 21
8.38867
  0
LINE
  8
0
 10
23.1025
 20
8.38867
 11
23.1611
 21
8.42773
  0
LINE
  8
0
 10
23.1611
 20
8.42773
 11
23.1904
 21
8.44629
  0
LINE
  8
0
 10
23.1904
 20
8.44629
 11
23.2197
 21
8.46387
  0
LINE
  8
0
 10
23.2197
 20
8.46387
 11
23.25
 21
8.48242
  0
LINE
  8
0
 10
23.25
 20
8.48242
 11
23.2803
 21
8.49902
  0
LINE
  8
0
 10
23.2803
 20
8.49902
 11
23.3115
 21
8.51562
  0
LINE
  8
0
 10
23.3115
 20
8.51562
 11
23.3418
 21
8.53223
  0
LINE
  8
0
 10
23.3418
 20
8.53223
 11
23.373
 21
8.54785
  0
LINE
  8
0
 10
23.373
 20
8.54785
 11
23.4043
 21
8.5625
  0
LINE
  8
0
 10
23.4043
 20
8.5625
 11
23.4365
 21
8.57715
  0
LINE
  8
0
 10
23.4365
 20
8.57715
 11
23.501
 21
8.60449
  0
LINE
  8
0
 10
23.501
 20
8.60449
 11
23.5332
 21
8.61719
  0
LINE
  8
0
 10
23.5332
 20
8.61719
 11
23.5664
 21
8.62891
  0
LINE
  8
0
 10
23.5664
 20
8.62891
 11
23.5986
 21
8.64062
  0
LINE
  8
0
 10
23.5986
 20
8.64062
 11
23.6318
 21
8.65234
  0
LINE
  8
0
 10
23.6318
 20
8.65234
 11
23.665
 21
8.66309
  0
LINE
  8
0
 10
23.665
 20
8.66309
 11
23.6982
 21
8.67285
  0
LINE
  8
0
 10
23.6982
 20
8.67285
 11
23.7666
 21
8.69043
  0
LINE
  8
0
 10
23.7666
 20
8.69043
 11
23.7998
 21
8.69922
  0
LINE
  8
0
 10
23.7998
 20
8.69922
 11
23.9023
 21
8.71973
  0
LINE
  8
0
 10
23.9023
 20
8.71973
 11
23.9375
 21
8.72559
  0
LINE
  8
0
 10
23.9375
 20
8.72559
 11
24.0059
 21
8.73535
  0
LINE
  8
0
 10
24.0059
 20
8.73535
 11
24.041
 21
8.73926
  0
LINE
  8
0
 10
24.041
 20
8.73926
 11
24.0762
 21
8.74219
  0
LINE
  8
0
 10
24.0762
 20
8.74219
 11
24.1104
 21
8.74512
  0
LINE
  8
0
 10
24.1104
 20
8.74512
 11
24.1807
 21
8.74902
  0
LINE
  8
0
 10
24.1807
 20
8.74902
 11
24.2148
 21
8.75
  0
LINE
  8
0
 10
24.2148
 20
8.75
 11
27.4854
 21
8.75
  0
LINE
  8
0
 10
27.4854
 20
8.75
 11
27.5195
 21
8.74902
  0
LINE
  8
0
 10
27.5195
 20
8.74902
 11
27.5898
 21
8.74512
  0
LINE
  8
0
 10
27.5898
 20
8.74512
 11
27.624
 21
8.74219
  0
LINE
  8
0
 10
27.624
 20
8.74219
 11
27.6592
 21
8.73926
  0
LINE
  8
0
 10
27.6592
 20
8.73926
 11
27.6934
 21
8.73535
  0
LINE
  8
0
 10
27.6934
 20
8.73535
 11
27.7285
 21
8.73047
  0
LINE
  8
0
 10
27.7285
 20
8.73047
 11
27.7627
 21
8.72559
  0
LINE
  8
0
 10
27.7627
 20
8.72559
 11
27.7969
 21
8.71973
  0
LINE
  8
0
 10
27.7969
 20
8.71973
 11
27.832
 21
8.71289
  0
LINE
  8
0
 10
27.832
 20
8.71289
 11
27.8662
 21
8.70605
  0
LINE
  8
0
 10
27.8662
 20
8.70605
 11
27.8994
 21
8.69922
  0
LINE
  8
0
 10
27.8994
 20
8.69922
 11
27.9678
 21
8.68164
  0
LINE
  8
0
 10
27.9678
 20
8.68164
 11
28.001
 21
8.67285
  0
LINE
  8
0
 10
28.001
 20
8.67285
 11
28.0352
 21
8.66309
  0
LINE
  8
0
 10
28.0352
 20
8.66309
 11
28.0684
 21
8.65234
  0
LINE
  8
0
 10
28.0684
 20
8.65234
 11
28.1016
 21
8.64062
  0
LINE
  8
0
 10
28.1016
 20
8.64062
 11
28.1338
 21
8.62891
  0
LINE
  8
0
 10
28.1338
 20
8.62891
 11
28.167
 21
8.61719
  0
LINE
  8
0
 10
28.167
 20
8.61719
 11
28.1992
 21
8.60449
  0
LINE
  8
0
 10
28.1992
 20
8.60449
 11
28.2637
 21
8.57715
  0
LINE
  8
0
 10
28.2637
 20
8.57715
 11
28.2949
 21
8.5625
  0
LINE
  8
0
 10
28.2949
 20
8.5625
 11
28.3271
 21
8.54785
  0
LINE
  8
0
 10
28.3271
 20
8.54785
 11
28.3584
 21
8.53223
  0
LINE
  8
0
 10
28.3584
 20
8.53223
 11
28.3887
 21
8.51562
  0
LINE
  8
0
 10
28.3887
 20
8.51562
 11
28.4199
 21
8.49902
  0
LINE
  8
0
 10
28.4199
 20
8.49902
 11
28.4502
 21
8.48242
  0
LINE
  8
0
 10
28.4502
 20
8.48242
 11
28.4805
 21
8.46387
  0
LINE
  8
0
 10
28.4805
 20
8.46387
 11
28.5098
 21
8.44629
  0
LINE
  8
0
 10
28.5098
 20
8.44629
 11
28.5391
 21
8.42773
  0
LINE
  8
0
 10
28.5391
 20
8.42773
 11
28.5684
 21
8.4082
  0
LINE
  8
0
 10
28.5684
 20
8.4082
 11
28.5967
 21
8.38867
  0
LINE
  8
0
 10
28.5967
 20
8.38867
 11
28.626
 21
8.36816
  0
LINE
  8
0
 10
28.626
 20
8.36816
 11
28.6533
 21
8.34766
  0
LINE
  8
0
 10
28.6533
 20
8.34766
 11
28.6816
 21
8.32617
  0
LINE
  8
0
 10
28.6816
 20
8.32617
 11
28.709
 21
8.30469
  0
LINE
  8
0
 10
28.709
 20
8.30469
 11
28.7617
 21
8.25977
  0
LINE
  8
0
 10
28.7617
 20
8.25977
 11
28.8145
 21
8.21289
  0
LINE
  8
0
 10
28.8145
 20
8.21289
 11
28.8389
 21
8.18848
  0
LINE
  8
0
 10
28.8389
 20
8.18848
 11
28.8643
 21
8.16406
  0
LINE
  8
0
 10
28.8643
 20
8.16406
 11
28.8887
 21
8.13965
  0
LINE
  8
0
 10
28.8887
 20
8.13965
 11
28.9131
 21
8.11426
  0
LINE
  8
0
 10
28.9131
 20
8.11426
 11
28.9365
 21
8.08789
  0
LINE
  8
0
 10
28.9365
 20
8.08789
 11
28.959
 21
8.0625
  0
LINE
  8
0
 10
28.959
 20
8.0625
 11
28.9824
 21
8.03516
  0
LINE
  8
0
 10
28.9824
 20
8.03516
 11
29.0039
 21
8.00879
  0
LINE
  8
0
 10
29.0039
 20
8.00879
 11
29.0264
 21
7.98145
  0
LINE
  8
0
 10
29.0264
 20
7.98145
 11
29.0469
 21
7.9541
  0
LINE
  8
0
 10
29.0469
 20
7.9541
 11
29.0684
 21
7.92578
  0
LINE
  8
0
 10
29.0684
 20
7.92578
 11
29.0879
 21
7.89746
  0
LINE
  8
0
 10
29.0879
 20
7.89746
 11
29.1084
 21
7.86816
  0
LINE
  8
0
 10
29.1084
 20
7.86816
 11
29.127
 21
7.83887
  0
LINE
  8
0
 10
29.127
 20
7.83887
 11
29.1465
 21
7.80957
  0
LINE
  8
0
 10
29.1465
 20
7.80957
 11
29.1641
 21
7.78027
  0
LINE
  8
0
 10
29.1641
 20
7.78027
 11
29.1992
 21
7.71973
  0
LINE
  8
0
 10
29.1992
 20
7.71973
 11
29.2158
 21
7.68848
  0
LINE
  8
0
 10
29.2158
 20
7.68848
 11
29.2324
 21
7.6582
  0
LINE
  8
0
 10
29.2324
 20
7.6582
 11
29.248
 21
7.62695
  0
LINE
  8
0
 10
29.248
 20
7.62695
 11
29.2627
 21
7.5957
  0
LINE
  8
0
 10
29.2627
 20
7.5957
 11
29.2773
 21
7.56348
  0
LINE
  8
0
 10
29.2773
 20
7.56348
 11
29.3047
 21
7.49902
  0
LINE
  8
0
 10
29.3047
 20
7.49902
 11
29.3174
 21
7.4668
  0
LINE
  8
0
 10
29.3174
 20
7.4668
 11
29.3291
 21
7.43359
  0
LINE
  8
0
 10
29.3291
 20
7.43359
 11
29.3408
 21
7.40137
  0
LINE
  8
0
 10
29.3408
 20
7.40137
 11
29.3525
 21
7.36816
  0
LINE
  8
0
 10
29.3525
 20
7.36816
 11
29.3721
 21
7.30176
  0
LINE
  8
0
 10
29.3721
 20
7.30176
 11
29.3818
 21
7.26758
  0
LINE
  8
0
 10
29.3818
 20
7.26758
 11
29.3906
 21
7.2334
  0
LINE
  8
0
 10
29.3906
 20
7.2334
 11
29.3984
 21
7.2002
  0
LINE
  8
0
 10
29.3984
 20
7.2002
 11
29.4062
 21
7.16602
  0
LINE
  8
0
 10
29.4062
 20
7.16602
 11
29.4199
 21
7.09766
  0
LINE
  8
0
 10
29.4199
 20
7.09766
 11
29.4258
 21
7.0625
  0
LINE
  8
0
 10
29.4258
 20
7.0625
 11
29.4355
 21
6.99414
  0
LINE
  8
0
 10
29.4355
 20
6.99414
 11
29.4395
 21
6.95898
  0
LINE
  8
0
 10
29.4395
 20
6.95898
 11
29.4424
 21
6.92383
  0
LINE
  8
0
 10
29.4424
 20
6.92383
 11
29.4453
 21
6.88965
  0
LINE
  8
0
 10
29.4453
 20
6.88965
 11
29.4492
 21
6.81934
  0
LINE
  8
0
 10
29.4492
 20
6.81934
 11
29.4492
 21
6.78516
  0
LINE
  8
0
 10
29.4492
 20
6.78516
 11
29.4502
 21
6.75
  0
LINE
  8
0
 10
29.4502
 20
6.75
 11
29.4492
 21
6.71484
  0
LINE
  8
0
 10
29.4492
 20
6.71484
 11
29.4492
 21
6.68066
  0
LINE
  8
0
 10
29.4492
 20
6.68066
 11
29.4453
 21
6.61035
  0
LINE
  8
0
 10
29.4453
 20
6.61035
 11
29.4424
 21
6.57617
  0
LINE
  8
0
 10
29.4424
 20
6.57617
 11
29.4395
 21
6.54102
  0
LINE
  8
0
 10
29.4395
 20
6.54102
 11
29.4355
 21
6.50586
  0
LINE
  8
0
 10
29.4355
 20
6.50586
 11
29.4258
 21
6.4375
  0
LINE
  8
0
 10
29.4258
 20
6.4375
 11
29.4199
 21
6.40234
  0
LINE
  8
0
 10
29.4199
 20
6.40234
 11
29.4062
 21
6.33398
  0
LINE
  8
0
 10
29.4062
 20
6.33398
 11
29.3984
 21
6.2998
  0
LINE
  8
0
 10
29.3984
 20
6.2998
 11
29.3906
 21
6.2666
  0
LINE
  8
0
 10
29.3906
 20
6.2666
 11
29.3818
 21
6.23242
  0
LINE
  8
0
 10
29.3818
 20
6.23242
 11
29.3721
 21
6.19824
  0
LINE
  8
0
 10
29.3721
 20
6.19824
 11
29.3525
 21
6.13184
  0
LINE
  8
0
 10
29.3525
 20
6.13184
 11
29.3408
 21
6.09863
  0
LINE
  8
0
 10
29.3408
 20
6.09863
 11
29.3291
 21
6.06641
  0
LINE
  8
0
 10
29.3291
 20
6.06641
 11
29.3174
 21
6.0332
  0
LINE
  8
0
 10
29.3174
 20
6.0332
 11
29.3047
 21
6.00098
  0
LINE
  8
0
 10
29.3047
 20
6.00098
 11
29.2773
 21
5.93652
  0
LINE
  8
0
 10
29.2773
 20
5.93652
 11
29.2627
 21
5.9043
  0
LINE
  8
0
 10
29.2627
 20
5.9043
 11
29.248
 21
5.87305
  0
LINE
  8
0
 10
29.248
 20
5.87305
 11
29.2324
 21
5.8418
  0
LINE
  8
0
 10
29.2324
 20
5.8418
 11
29.2158
 21
5.81152
  0
LINE
  8
0
 10
29.2158
 20
5.81152
 11
29.1992
 21
5.78027
  0
LINE
  8
0
 10
29.1992
 20
5.78027
 11
29.1641
 21
5.71973
  0
LINE
  8
0
 10
29.1641
 20
5.71973
 11
29.1465
 21
5.69043
  0
LINE
  8
0
 10
29.1465
 20
5.69043
 11
29.127
 21
5.66113
  0
LINE
  8
0
 10
29.127
 20
5.66113
 11
29.1084
 21
5.63184
  0
LINE
  8
0
 10
29.1084
 20
5.63184
 11
29.0879
 21
5.60254
  0
LINE
  8
0
 10
29.0879
 20
5.60254
 11
29.0684
 21
5.57422
  0
LINE
  8
0
 10
29.0684
 20
5.57422
 11
29.0469
 21
5.5459
  0
LINE
  8
0
 10
29.0469
 20
5.5459
 11
29.0264
 21
5.51855
  0
LINE
  8
0
 10
29.0264
 20
5.51855
 11
29.0039
 21
5.49121
  0
LINE
  8
0
 10
29.0039
 20
5.49121
 11
28.9824
 21
5.46484
  0
LINE
  8
0
 10
28.9824
 20
5.46484
 11
28.959
 21
5.4375
  0
LINE
  8
0
 10
28.959
 20
5.4375
 11
28.9365
 21
5.41211
  0
LINE
  8
0
 10
28.9365
 20
5.41211
 11
28.9131
 21
5.38574
  0
LINE
  8
0
 10
28.9131
 20
5.38574
 11
28.8887
 21
5.36035
  0
LINE
  8
0
 10
28.8887
 20
5.36035
 11
28.8643
 21
5.33594
  0
LINE
  8
0
 10
28.8643
 20
5.33594
 11
28.8389
 21
5.31152
  0
LINE
  8
0
 10
28.8389
 20
5.31152
 11
28.8145
 21
5.28711
  0
LINE
  8
0
 10
28.8145
 20
5.28711
 11
28.7617
 21
5.24023
  0
LINE
  8
0
 10
28.7617
 20
5.24023
 11
28.709
 21
5.19531
  0
LINE
  8
0
 10
28.709
 20
5.19531
 11
28.6816
 21
5.17383
  0
LINE
  8
0
 10
28.6816
 20
5.17383
 11
28.6533
 21
5.15234
  0
LINE
  8
0
 10
28.6533
 20
5.15234
 11
28.626
 21
5.13184
  0
LINE
  8
0
 10
28.626
 20
5.13184
 11
28.5967
 21
5.11133
  0
LINE
  8
0
 10
28.5967
 20
5.11133
 11
28.5684
 21
5.0918
  0
LINE
  8
0
 10
28.5684
 20
5.0918
 11
28.5391
 21
5.07227
  0
LINE
  8
0
 10
28.5391
 20
5.07227
 11
28.5098
 21
5.05371
  0
LINE
  8
0
 10
28.5098
 20
5.05371
 11
28.4805
 21
5.03613
  0
LINE
  8
0
 10
28.4805
 20
5.03613
 11
28.4502
 21
5.01758
  0
LINE
  8
0
 10
28.4502
 20
5.01758
 11
28.4199
 21
5.00098
  0
LINE
  8
0
 10
28.4199
 20
5.00098
 11
28.3887
 21
4.98438
  0
LINE
  8
0
 10
28.3887
 20
4.98438
 11
28.3584
 21
4.96777
  0
LINE
  8
0
 10
28.3584
 20
4.96777
 11
28.3271
 21
4.95215
  0
LINE
  8
0
 10
28.3271
 20
4.95215
 11
28.2949
 21
4.9375
  0
LINE
  8
0
 10
28.2949
 20
4.9375
 11
28.2637
 21
4.92285
  0
LINE
  8
0
 10
28.2637
 20
4.92285
 11
28.1992
 21
4.89551
  0
LINE
  8
0
 10
28.1992
 20
4.89551
 11
28.167
 21
4.88281
  0
LINE
  8
0
 10
28.167
 20
4.88281
 11
28.1338
 21
4.87109
  0
LINE
  8
0
 10
28.1338
 20
4.87109
 11
28.1016
 21
4.85938
  0
LINE
  8
0
 10
28.1016
 20
4.85938
 11
28.0684
 21
4.84766
  0
LINE
  8
0
 10
28.0684
 20
4.84766
 11
28.0352
 21
4.83691
  0
LINE
  8
0
 10
28.0352
 20
4.83691
 11
28.001
 21
4.82715
  0
LINE
  8
0
 10
28.001
 20
4.82715
 11
27.9678
 21
4.81836
  0
LINE
  8
0
 10
27.9678
 20
4.81836
 11
27.8994
 21
4.80078
  0
LINE
  8
0
 10
27.8994
 20
4.80078
 11
27.8662
 21
4.79395
  0
LINE
  8
0
 10
27.8662
 20
4.79395
 11
27.832
 21
4.78711
  0
LINE
  8
0
 10
27.832
 20
4.78711
 11
27.7969
 21
4.78027
  0
LINE
  8
0
 10
27.7969
 20
4.78027
 11
27.7627
 21
4.77441
  0
LINE
  8
0
 10
27.7627
 20
4.77441
 11
27.7285
 21
4.76953
  0
LINE
  8
0
 10
27.7285
 20
4.76953
 11
27.6934
 21
4.76465
  0
LINE
  8
0
 10
27.6934
 20
4.76465
 11
27.6592
 21
4.76074
  0
LINE
  8
0
 10
27.6592
 20
4.76074
 11
27.624
 21
4.75781
  0
LINE
  8
0
 10
27.624
 20
4.75781
 11
27.5898
 21
4.75488
  0
LINE
  8
0
 10
27.5898
 20
4.75488
 11
27.5195
 21
4.75098
  0
LINE
  8
0
 10
27.5195
 20
4.75098
 11
27.4854
 21
4.75
  0
LINE
  8
0
 10
27.4854
 20
4.75
 11
24.2148
 21
4.75
  0
ENDSEC
  0
SECTION
  2
OBJECTS
  0
DICTIONARY
  0
ENDSEC
  0
EOF
